<?xml version="1.0" encoding="utf-8"?>
<!-- Generator: Adobe Illustrator 16.0.0, SVG Export Plug-In . SVG Version: 6.00 Build 0)  -->
<!DOCTYPE svg PUBLIC "-//W3C//DTD SVG 1.1//EN" "http://www.w3.org/Graphics/SVG/1.1/DTD/svg11.dtd">
<svg version="1.1" id="Capa_1" xmlns="http://www.w3.org/2000/svg" xmlns:xlink="http://www.w3.org/1999/xlink" x="0px" y="0px"
	 width="155.707px" height="74.254px" viewBox="0 0 155.707 74.254" enable-background="new 0 0 155.707 74.254"
	 xml:space="preserve">
<metadata><?xpacket begin="﻿" id="W5M0MpCehiHzreSzNTczkc9d"?>
<x:xmpmeta xmlns:x="adobe:ns:meta/" x:xmptk="Adobe XMP Core 5.3-c011 66.145661, 2012/02/06-14:56:27        ">
   <rdf:RDF xmlns:rdf="http://www.w3.org/1999/02/22-rdf-syntax-ns#">
      <rdf:Description rdf:about=""
            xmlns:dc="http://purl.org/dc/elements/1.1/">
         <dc:format>image/svg+xml</dc:format>
         <dc:title>
            <rdf:Alt>
               <rdf:li xml:lang="x-default">Imprimir</rdf:li>
            </rdf:Alt>
         </dc:title>
      </rdf:Description>
      <rdf:Description rdf:about=""
            xmlns:xmp="http://ns.adobe.com/xap/1.0/"
            xmlns:xmpGImg="http://ns.adobe.com/xap/1.0/g/img/">
         <xmp:MetadataDate>2017-04-11T01:59:07-05:00</xmp:MetadataDate>
         <xmp:ModifyDate>2017-04-11T01:59:07-05:00</xmp:ModifyDate>
         <xmp:CreateDate>2017-04-11T01:59:07-05:00</xmp:CreateDate>
         <xmp:CreatorTool>Adobe Illustrator CC (Windows)</xmp:CreatorTool>
         <xmp:Thumbnails>
            <rdf:Alt>
               <rdf:li rdf:parseType="Resource">
                  <xmpGImg:width>256</xmpGImg:width>
                  <xmpGImg:height>124</xmpGImg:height>
                  <xmpGImg:format>JPEG</xmpGImg:format>
                  <xmpGImg:image>/9j/4AAQSkZJRgABAgEBLAEsAAD/7QAsUGhvdG9zaG9wIDMuMAA4QklNA+0AAAAAABABLAAAAAEA&#xA;AQEsAAAAAQAB/+4ADkFkb2JlAGTAAAAAAf/bAIQABgQEBAUEBgUFBgkGBQYJCwgGBggLDAoKCwoK&#xA;DBAMDAwMDAwQDA4PEA8ODBMTFBQTExwbGxscHx8fHx8fHx8fHwEHBwcNDA0YEBAYGhURFRofHx8f&#xA;Hx8fHx8fHx8fHx8fHx8fHx8fHx8fHx8fHx8fHx8fHx8fHx8fHx8fHx8fHx8f/8AAEQgAfAEAAwER&#xA;AAIRAQMRAf/EAaIAAAAHAQEBAQEAAAAAAAAAAAQFAwIGAQAHCAkKCwEAAgIDAQEBAQEAAAAAAAAA&#xA;AQACAwQFBgcICQoLEAACAQMDAgQCBgcDBAIGAnMBAgMRBAAFIRIxQVEGE2EicYEUMpGhBxWxQiPB&#xA;UtHhMxZi8CRygvElQzRTkqKyY3PCNUQnk6OzNhdUZHTD0uIIJoMJChgZhJRFRqS0VtNVKBry4/PE&#xA;1OT0ZXWFlaW1xdXl9WZ2hpamtsbW5vY3R1dnd4eXp7fH1+f3OEhYaHiImKi4yNjo+Ck5SVlpeYmZ&#xA;qbnJ2en5KjpKWmp6ipqqusra6voRAAICAQIDBQUEBQYECAMDbQEAAhEDBCESMUEFURNhIgZxgZEy&#xA;obHwFMHR4SNCFVJicvEzJDRDghaSUyWiY7LCB3PSNeJEgxdUkwgJChgZJjZFGidkdFU38qOzwygp&#xA;0+PzhJSktMTU5PRldYWVpbXF1eX1RlZmdoaWprbG1ub2R1dnd4eXp7fH1+f3OEhYaHiImKi4yNjo&#xA;+DlJWWl5iZmpucnZ6fkqOkpaanqKmqq6ytrq+v/aAAwDAQACEQMRAD8A8qYq7FXYq7FXYq7FXYq7&#xA;FXYq7FXYq7FXYq7FXYq7FXYq7FXYq7FXYq7FXYq7FXYq7FXYq7FXYq7FXYqmvlP/AJSnRv8AmOtv&#xA;+Ty4qlWKuxV2KuxV2KuxV2KuxV2KuxV2KuxV2KvU/wAnf+cfvM/5mW11qNtdw6Xo1pJ9Xa9nVpGe&#xA;biGKRxrSvFWBYlh1FK70Vem/9COar/1N0H/SE/8A1WxV3/Qjmq/9TdB/0hP/ANVsVd/0I5qv/U3Q&#xA;f9IT/wDVbFXlP5v/AJE+a/y0mglvHXUdFujxg1W3RlQSdfSlU19N6Co3II6HY0Vea4q7FXYq7FXY&#xA;q7FXYq7FXYq7FXYq7FXYqmvlP/lKdG/5jrb/AJPLiqVYq7FXYq7FXYq7FXYq7FXYq7FXYq7FXYq+&#xA;zv8AnFueaD8gNbnhcxzRXOovHIpoysttGQQfEHFXzN/yuv8ANz/qb9V/6Spf64q7/ldf5uf9Tfqv&#xA;/SVL/XFXpH/OOv5ofmLrf5x+X9L1jzHqF/p1x9c9e0uLh5I34WM7ryUmho6gj3xV9ka7oWka9pF1&#xA;o+sWqXum3qGO5tpBVWU/iCDuCNwdxvir4G/Pf8nLn8s/M0VvFMbrQtUEkukXD/3gWMqJIZaADnHz&#xA;XcbEEHboFXmeKuxV2KuxV2KuxV2KuxV2KuxV2KuxVNfKf/KU6N/zHW3/ACeXFUqxV2KuxV2KuxV2&#xA;KuxV2KuxV2KuxV2KuxV9lf8AOMX/AKz1r/8Axn1L/qFjxV45+QXnf8lvLljq0X5gaHHqN9PLG1nd&#xA;T2cd+giCkGNUkDemQ25IHxV9sVel65+b3/OJ8+i30Nt5UtXuJbeRIVh0e3gkLshC8JQqGM1/aB2x&#xA;V8weWvMms+Wdds9d0W4Nrqdg/qW04AahIKsCrAgqysVYHqDir3XyF/zlL+bGteefLujX1xZtZalq&#xA;dlZ3QS2VWMU9wkb8WrseLHfFWRf85z/9MT/29P8AsTxV8q4q7FXYq7FXYq7FXYq7FXYq7FXYq7FU&#xA;18p/8pTo3/Mdbf8AJ5cVSrFXYq7FXYq7FXYq7FXYq7FXYq7FXYq7FX2V/wA4xf8ArPWv/wDGfUv+&#xA;oWPFXkH/ADj3oP5D6pZ6s35kXUUeoRyILG3u7qWzh9Eru6PE8XJ+VQQW2FNsVeneYvJf/OG0Wg6h&#xA;JbXtjDcpbyGCW01O6nnVwp4mKJppldq9AUOKvkbFWV/lP/5NPyb/ANtzTf8AqMjxV7//AM5z/wDT&#xA;E/8Ab0/7E8VfKuKuxV2KuxV2KuxV2KuxV2KuxV2KuxVNfKf/AClOjf8AMdbf8nlxVKsVdirsVdir&#xA;sVdirsVdirsVdirsVdirsVfZX/OMX/rPWv8A/GfUv+oWPFXxrirsVeqeVP8AnGj81/M+g2uuWFjB&#xA;FYXyiW0NzOsTvEd1kCbkK3Va9Rv0pirNPIX/ADi1+bGi+efLus31vZrZabqdleXRS5VmEUFwkj8V&#xA;pueKnbFXrH/OT/5Q+cvzE/w1/huOCT9F/XvrfryiKn1j6v6fGoNf7lq4q+O/OXkvzF5N1+fQvMFr&#xA;9V1CAK5UMroyOKo6OpKsrf2HfFUjxV2KuxV2KuxV2KuxV2KuxV2KuxVNfKf/AClOjf8AMdbf8nlx&#xA;VKsVdirsVdirsVdirsVdirsVdirsVdirsVfZX/OMX/rPWv8A/GfUv+oWPFXxrirsVff2o6NqOt/k&#xA;75KsdJsodSEkWjvLaTSyQ20luturH1pIVkdY+hqqntiqRz+T49H1KwtvN+lahrlqLO8bTodHiv7y&#xA;KymmuzKttDcRhHT04iFSSUp7UA2VTHyN5D84yedINb81wwzz2On6aguroSTT+skEolEEkcyxB0dl&#xA;9VmRuR3Hjirwv/nNQr/ytTTKUqNDt+VPH63ddfoxV4BirsVdirsVdirsVdirsVdirsVdiqa+U/8A&#xA;lKdG/wCY62/5PLiqVYq7FXYq7FXYq7FXYq7FXYq7FXYq7FXYq+0P+cVbWa9/IbWLO3Aae4u9QhiW&#xA;oFXkto1UEnpucVeH/wDQp/52/wDVog/6TLb/AJrxV3/Qp/52/wDVog/6TLb/AJrxV6P5U8q/85je&#xA;VtFg0XSWtxptqONrDPLp85jWteKvIWfj4Amg7Yqyvyx/0N//AIk0n9PfU/0F9ct/0rw/R/L6p6q+&#xA;vx4fHX0+X2d/DFUR/wA5Tfmz518gHyyPK95HanUvrxvA8MUxYQfV/Tp6itx/vW6dcVfHfmjzV5h8&#xA;1azPrXmC9e/1O4oJJ5Aq7KKKqogVEUdlUAYqlOKuxV2KuxV2KuxV2KuxV2KuxV2Kpr5T/wCUp0b/&#xA;AJjrb/k8uKpVirsVdirsVdirsVdirsVdirsVdirsVdirPPy0/Orz1+XS3UPl+4iayvGEk9ldR+rD&#xA;6gHESKAUZW47Gjb7VrQYqzn/AKHJ/Nz/AHzpX/SNL/1WxV3/AEOT+bn++dK/6Rpf+q2Ku/6HJ/Nz&#xA;/fOlf9I0v/VbFXf9Dk/m5/vnSv8ApGl/6rYq8z/ML8yfNnn/AFldW8x3KzTRJ6VtBEgjhhjrXjGg&#xA;r1JqSSSfHpirFsVdirsVdirsVdirsVdirsVdirsVdiqa+U/+Up0b/mOtv+Ty4qi/+Ve+fv8AqWtV&#xA;/wCkG5/5oxV3/KvfP3/Utar/ANINz/zRirv+Ve+fv+pa1X/pBuf+aMVd/wAq98/f9S1qv/SDc/8A&#xA;NGKu/wCVe+fv+pa1X/pBuf8AmjFXf8q98/f9S1qv/SDc/wDNGKu/5V75+/6lrVf+kG5/5oxV3/Kv&#xA;fP3/AFLWq/8ASDc/80Yq7/lXvn7/AKlrVf8ApBuf+aMVd/yr3z9/1LWq/wDSDc/80Yq7/lXvn7/q&#xA;WtV/6Qbn/mjFXf8AKvfP3/Utar/0g3P/ADRirv8AlXvn7/qWtV/6Qbn/AJoxV3/KvfP3/Utar/0g&#xA;3P8AzRirv+Ve+fv+pa1X/pBuf+aMVd/yr3z9/wBS1qv/AEg3P/NGKu/5V75+/wCpa1X/AKQbn/mj&#xA;FXf8q98/f9S1qv8A0g3P/NGKu/5V75+/6lrVf+kG5/5oxV3/ACr3z9/1LWq/9INz/wA0Yq7/AJV7&#xA;5+/6lrVf+kG5/wCaMVd/yr3z9/1LWq/9INz/AM0Yq7/lXvn7/qWtV/6Qbn/mjFXf8q98/f8AUtar&#xA;/wBINz/zRirv+Ve+fv8AqWtV/wCkG5/5oxV3/KvfP3/Utar/ANINz/zRirv+Ve+fv+pa1X/pBuf+&#xA;aMVd/wAq98/f9S1qv/SDc/8ANGKu/wCVe+fv+pa1X/pBuf8AmjFXf8q98/f9S1qv/SDc/wDNGKu/&#xA;5V75+/6lrVf+kG5/5oxVM/K/kHz3F5m0iSTy5qiRpe27O7WVwFCiVSSSU2AxV+kOKuxV2KuxV2Ku&#xA;xV2KuxV2KuxV2KuxV2KuxV2KuxV2KuxV2KuxV2KuxV2KuxV2KuxV2KuxV2KuxV2KuxV2KuxV2Kux&#xA;V2KuxVhXmf8AOj8sPK+sS6Nr2vRWOpwKjS2zxzsVEih1NUjZd1NeuKpzoXnjyjr+jTazouq29/pt&#xA;sGa4uIH5+nwXkwkUfGpC70IrirEf+hkfyS/6mmD/AJE3P/VLFWQ6t+aP5f6RoFh5g1LW7e10nVEE&#xA;mnXEnIGdGXkDHHx9Q7dfh2xVX8nfmH5K85wTT+WNWh1JbcgXCR8kkj5fZLxyBHUGhoSuKpPrv55f&#xA;lNoWryaRqnmW1h1CFvTmhUSSiNxsVkeJHRGHcMdu+KsztL6yvbKK+s7iO4sp0EsFzE6vE8bCodXU&#xA;lSpHcYqkvk/8wPJvnKG6m8s6pFqcdk6x3RjDrwZwStQ6qd6GhG2KpN5g/PH8qvL2sXOjaz5gis9T&#xA;s2C3Ns0U7FCyhwCUjZfssDscVZD5X85eVvNdi1/5d1ODU7WNvTkkgbkUeleLqaMppvuMVYxqH5/f&#xA;k7p+pvpt15ptFu43McgQSyxqwNCDLGjRCh6/FirOrK9s760hvLKeO5tLhFkt7iFg8ciMKqyMpIYE&#xA;dCMVSTyj+YXkzzgLw+WtVi1P9HsqXnpBx6Zk5cK81Wobg1CNtsVSbzB+eP5VeXtYudG1nzBFZ6nZ&#xA;sFubZop2KFlDgEpGy/ZYHY4qn/lXzt5T82WUl75c1SDU7eJgkzQNUoxFQHQ0ZajxGKoXzn+ZHkjy&#xA;V9T/AMUarHpn1/1PqfqJK/qejw9Snpo9OPqL18cVa8o/mZ5D84PLH5b1u21GaFecsEZKyqlePIxy&#xA;BH4170xVj0H/ADkX+Sk0qxJ5qtgzbAuk8a/Szxqo+k4qybzL+YPkzy1oltrutarDbaReSJDa3y8p&#xA;o5HkRpECGESVqkbGvTFUm8v/AJ4/lV5h1i20bRvMEV5qd4xW2tlinUuVUuQC8ar9lSdzirOsVdir&#xA;sVdirsVdirsVdirsVdirsVdir51h0jSdV/5zB1211Sygv7YaLG4guYkmTkIrYBuLhhUV64qldjp1&#xA;h5Y/5yC89aB5ZiW10S88tz3F/p1vRIIJRbo6kRjYUZ9gOnqGm2KpF+SNj5/m/LuwfR/y40DzFYGS&#xA;49PVdRe2W4kImbkrCT4qIfhHtirMPzh8kavq3mTyVe+Xn0I+btHsQD5AvZLcxMOJkb0LZiqsikOK&#xA;/CKKCrVGKpD5L8w2+leY/PX13ycfJ/5nJ5evrqEWMrLYzLDArgQ24LRoxeJXDKWDHkag9VU+/ID8&#xA;t/yy1f8AIz9K6/p1pdXOpi+bWtTuVR54RFNKgZJnDNDwiRXqtN/ixVG/mD5i8lfl5/zjrPZ+RdSW&#xA;9sNSMmmaRcJci5PO7ZmuSJBXiUT1DQU4tTocVebfkR5j8reSfzc0fSNE1lNS0fzVpdra6oy+oEh1&#xA;bjso9RYyf3ylU67SYqjde1fU9I/Pf8x9Qs/Jdv5zhtoreW8guBG31aJIIiZVV0lLeB4iuKqXkWDU&#xA;Ifyg/NP8xNGa105dfT0LbRdMY8bFEkYTcgAvBliuCUp0G+1RRVlGjeWvJul/84+eX7mz8gjzjLrl&#xA;vXVZbREN5FJJG5ln+senK6ek68FpTjircX5n+XtC/wCcWrm/8tWk+kRXMtxo+j2dzcm6lWa4ZjK6&#xA;ykJ9lGkkAAoCMVYL+R/mPyt5G/NXy3aaNrCajpvmjTILLXeIkAt9UkNVUeosdQJgqq3gzYqmOvap&#xA;qel/85C/mDf2Pk6DzmtvbJJdWVwEYQRJFbs06q6SliKcaKtd8VZv/wA4p6amp6j5r8/wJZabZa3M&#xA;tvb6Bp7/AAWvpMzsJY6KEO68KdixoARiq3/nKi4Nt52/K24GlnWzFe3zjR1UObqj2f7kKVcHn0+y&#xA;cVUPy58leata/POz8+/4K/wHoGnWckUtkSkZuZnilhBMSrF8R9UE/AF+Ab1O6qj/AM4x+RPJPmT8&#xA;ltQXzDpVndCW/u4pb2aKP1o4xFEarOw5pwqSCDtiryO+1HULz/nFGxhu5GkisPOJtrINX4YTp0k3&#xA;Fa9vUmc4q+lfyzsvPD+Z1fzJ+WGi+V7OGF5INWsmsZJlnqFVFEDO45Kzb4q9exV2KuxV2KuxV2Ku&#xA;xV2KuxV2KuxV2KvI/On/ADj8PMPnu7852HmzVPL2p3cMdu501vRYRxxqnH1EZHo3AEjFU38j/kh5&#xA;c8pWWt+le3mqa15gieHU9c1BxNcsrqRRTQUFTyNaknqdhRVh2k/84walo9ilhpH5k+YtOsYyxjtL&#xA;Sd4IlLHkxEcciqKk1O2Kp35r/wCcerLzDY6BO3mXU7bzX5eh+r23mhZC93KgZnBmJYOWVnbiQ4O5&#xA;64qjvy3/ACN07yjrt/5k1TWbzzR5l1CE20upagSeMBpVFQtJWoRRVmOwoKCtVWKaj/zihpn1m/g8&#xA;v+bNV0Hy7qjFr/Qbdi0Dg9U+2gKdgHVvpxVkl3/zjz5SlbyfaRXE0Wg+Tnaa20hlSRLqd5BI8ty5&#xA;pzZ2UV2p1AoDTFUw/Mf8kvK3nOxsIoeOg32m3S3drqOnwRJKGUEceg2rxb5gYqj/AC1+WFnofn3z&#xA;B5zF9Jc3nmKKGK5tmRViT0VVapQk/Fw6HFUp8pfkXoHlfzD5ivNPu5G8v+Zo5I9Q8syIpswJOvCl&#xA;CKcnUD+VqeGKsUf/AJxa+qx3OmaB561vR/LF25ebQ4pC0dH+2oYOgoenxIa964qnMn/ONfk/6r5V&#xA;0yG9ul0PyxdPffo6XhKLyeR0d2uGIAofTC8VUChPjiqd/mT+SXlPztpFtYoi6HdWdyl3bajp8MST&#xA;KyAjjUBfhPKvzAxVX8r/AJUWmhfmJrXnk6lNd6hrltHb3UDxokalBEC68d/iMNae+Kofyb+Tel+T&#xA;vPWs+ZdC1Ca2sNcq15oARPqokryDxn7S8XLFR0AYjpiqYedvyzsfNfmjyn5guL2W2m8p3Ml1bwRq&#xA;rLM0rQsVcncAegOnjirM8VeB6b/ziemn6bJpFt591630S4LG60y2l9GCXmAH5RqxjPIAA1U4qyvz&#xA;b/zj75T1z8udL8hWM82kaTpN2t7DJEFlleQRyoxkL9S5nLE/dtir1HFXYq7FXYq7FXYq7FXYq7FX&#xA;Yq7FXYq7FXYq7FXYq7FXYq7FXYq7FXYq7FXYq7FXYq7FXYq7FXYq7FXYq7FXYq7FXYq7FXYq7FXY&#xA;q7FXYq7FXYq7FXYq7FXYq7FXYq7FXYq7FXYq7FXYq7FXYq7FXYq7FXYq7FXYq7FXYq7FXYq7FXYq&#xA;7FX/2Q==</xmpGImg:image>
               </rdf:li>
            </rdf:Alt>
         </xmp:Thumbnails>
      </rdf:Description>
      <rdf:Description rdf:about=""
            xmlns:xmpMM="http://ns.adobe.com/xap/1.0/mm/"
            xmlns:stRef="http://ns.adobe.com/xap/1.0/sType/ResourceRef#"
            xmlns:stEvt="http://ns.adobe.com/xap/1.0/sType/ResourceEvent#">
         <xmpMM:InstanceID>xmp.iid:9abfa668-2609-c146-aeb5-945099e7e6e3</xmpMM:InstanceID>
         <xmpMM:DocumentID>xmp.did:9abfa668-2609-c146-aeb5-945099e7e6e3</xmpMM:DocumentID>
         <xmpMM:OriginalDocumentID>uuid:5D20892493BFDB11914A8590D31508C8</xmpMM:OriginalDocumentID>
         <xmpMM:RenditionClass>proof:pdf</xmpMM:RenditionClass>
         <xmpMM:DerivedFrom rdf:parseType="Resource">
            <stRef:instanceID>uuid:ff470bc6-f939-440e-8f31-27b0eb70075c</stRef:instanceID>
            <stRef:documentID>xmp.did:4de20fe2-e96f-dd46-b8bd-1606dc72d06f</stRef:documentID>
            <stRef:originalDocumentID>uuid:5D20892493BFDB11914A8590D31508C8</stRef:originalDocumentID>
            <stRef:renditionClass>proof:pdf</stRef:renditionClass>
         </xmpMM:DerivedFrom>
         <xmpMM:History>
            <rdf:Seq>
               <rdf:li rdf:parseType="Resource">
                  <stEvt:action>saved</stEvt:action>
                  <stEvt:instanceID>xmp.iid:9abfa668-2609-c146-aeb5-945099e7e6e3</stEvt:instanceID>
                  <stEvt:when>2017-04-11T01:59:07-05:00</stEvt:when>
                  <stEvt:softwareAgent>Adobe Illustrator CC (Windows)</stEvt:softwareAgent>
                  <stEvt:changed>/</stEvt:changed>
               </rdf:li>
            </rdf:Seq>
         </xmpMM:History>
      </rdf:Description>
      <rdf:Description rdf:about=""
            xmlns:illustrator="http://ns.adobe.com/illustrator/1.0/">
         <illustrator:StartupProfile>Print</illustrator:StartupProfile>
      </rdf:Description>
      <rdf:Description rdf:about=""
            xmlns:xmpTPg="http://ns.adobe.com/xap/1.0/t/pg/"
            xmlns:stDim="http://ns.adobe.com/xap/1.0/sType/Dimensions#"
            xmlns:xmpG="http://ns.adobe.com/xap/1.0/g/">
         <xmpTPg:HasVisibleOverprint>False</xmpTPg:HasVisibleOverprint>
         <xmpTPg:HasVisibleTransparency>True</xmpTPg:HasVisibleTransparency>
         <xmpTPg:NPages>1</xmpTPg:NPages>
         <xmpTPg:MaxPageSize rdf:parseType="Resource">
            <stDim:w>5.492981</stDim:w>
            <stDim:h>2.619513</stDim:h>
            <stDim:unit>Centimeters</stDim:unit>
         </xmpTPg:MaxPageSize>
         <xmpTPg:PlateNames>
            <rdf:Seq>
               <rdf:li>Cyan</rdf:li>
               <rdf:li>Magenta</rdf:li>
               <rdf:li>Yellow</rdf:li>
               <rdf:li>Black</rdf:li>
            </rdf:Seq>
         </xmpTPg:PlateNames>
         <xmpTPg:SwatchGroups>
            <rdf:Seq>
               <rdf:li rdf:parseType="Resource">
                  <xmpG:groupName>Default Swatch Group</xmpG:groupName>
                  <xmpG:groupType>0</xmpG:groupType>
               </rdf:li>
            </rdf:Seq>
         </xmpTPg:SwatchGroups>
      </rdf:Description>
      <rdf:Description rdf:about=""
            xmlns:pdf="http://ns.adobe.com/pdf/1.3/">
         <pdf:Producer>Adobe PDF library 10.01</pdf:Producer>
      </rdf:Description>
   </rdf:RDF>
</x:xmpmeta>
                                                                                                    
                                                                                                    
                                                                                                    
                                                                                                    
                                                                                                    
                                                                                                    
                                                                                                    
                                                                                                    
                                                                                                    
                                                                                                    
                                                                                                    
                                                                                                    
                                                                                                    
                                                                                                    
                                                                                                    
                                                                                                    
                                                                                                    
                                                                                                    
                                                                                                    
                                                                                                    
                           
<?xpacket end="w"?>
	</metadata>
<g>
	<rect id="XMLID_281_" x="0.541" opacity="0.5" fill="#FFFFFF" enable-background="new    " width="154.914" height="74.254"/>
	<rect id="XMLID_266_" width="155.335" height="48.154"/>
	<rect id="XMLID_277_" y="57.455" fill="none" width="155.707" height="13.102"/>
	<g enable-background="new    ">
		<path d="M30.673,57.457h2.906c0.655,0,1.155,0.05,1.499,0.15c0.462,0.136,0.857,0.378,1.187,0.726
			c0.33,0.347,0.58,0.772,0.752,1.275s0.258,1.123,0.258,1.861c0,0.647-0.081,1.206-0.242,1.676
			c-0.197,0.572-0.478,1.036-0.843,1.391c-0.276,0.269-0.648,0.479-1.117,0.629c-0.351,0.11-0.82,0.166-1.407,0.166h-2.992V57.457z
			 M32.263,58.789v5.216h1.187c0.444,0,0.765-0.025,0.961-0.076c0.258-0.064,0.472-0.173,0.642-0.327
			c0.17-0.154,0.309-0.407,0.417-0.76s0.161-0.834,0.161-1.442s-0.054-1.076-0.161-1.402c-0.107-0.325-0.258-0.58-0.451-0.762
			c-0.193-0.184-0.438-0.307-0.736-0.371c-0.222-0.05-0.657-0.075-1.305-0.075H32.263z"/>
		<path d="M38.623,65.331v-7.874h5.838v1.332h-4.249v1.745h3.953v1.327h-3.953v2.144h4.399v1.326H38.623z"/>
		<path d="M45.557,62.769l1.547-0.15c0.093,0.52,0.282,0.901,0.566,1.145c0.285,0.243,0.669,0.365,1.152,0.365
			c0.512,0,0.898-0.108,1.157-0.325c0.26-0.217,0.39-0.47,0.39-0.76c0-0.187-0.055-0.345-0.164-0.476
			c-0.109-0.131-0.3-0.244-0.572-0.341c-0.186-0.064-0.61-0.179-1.273-0.344c-0.852-0.211-1.45-0.471-1.794-0.778
			c-0.483-0.434-0.725-0.962-0.725-1.585c0-0.401,0.114-0.776,0.341-1.125c0.227-0.35,0.555-0.615,0.982-0.798
			c0.428-0.183,0.945-0.273,1.55-0.273c0.988,0,1.732,0.216,2.231,0.649c0.5,0.434,0.762,1.012,0.787,1.735l-1.59,0.069
			c-0.068-0.404-0.214-0.695-0.438-0.873c-0.224-0.177-0.56-0.266-1.007-0.266c-0.462,0-0.824,0.095-1.085,0.284
			c-0.168,0.122-0.252,0.285-0.252,0.489c0,0.187,0.079,0.346,0.236,0.478c0.201,0.169,0.688,0.344,1.461,0.527
			c0.773,0.182,1.346,0.371,1.716,0.566c0.371,0.195,0.661,0.462,0.87,0.8c0.21,0.339,0.314,0.757,0.314,1.255
			c0,0.451-0.125,0.873-0.376,1.268c-0.25,0.394-0.605,0.687-1.063,0.878s-1.029,0.287-1.713,0.287c-0.996,0-1.76-0.23-2.293-0.69
			S45.661,63.649,45.557,62.769z"/>
		<path d="M58.334,62.437l1.542,0.488c-0.236,0.859-0.629,1.498-1.179,1.915c-0.55,0.417-1.247,0.626-2.092,0.626
			c-1.045,0-1.905-0.357-2.578-1.072c-0.673-0.714-1.01-1.69-1.01-2.93c0-1.311,0.338-2.328,1.015-3.054
			c0.677-0.725,1.566-1.087,2.669-1.087c0.963,0,1.746,0.284,2.347,0.854c0.358,0.337,0.626,0.82,0.806,1.45l-1.574,0.376
			c-0.093-0.408-0.288-0.73-0.583-0.967c-0.296-0.236-0.655-0.354-1.077-0.354c-0.583,0-1.057,0.21-1.421,0.628
			c-0.363,0.42-0.545,1.098-0.545,2.036c0,0.995,0.179,1.704,0.537,2.127s0.824,0.634,1.396,0.634c0.422,0,0.786-0.135,1.09-0.402
			C57.983,63.435,58.202,63.013,58.334,62.437z"/>
		<path d="M68.341,65.331h-1.729l-0.688-1.789h-3.147l-0.65,1.789H60.44l3.067-7.874h1.681L68.341,65.331z M65.414,62.216
			l-1.085-2.922l-1.063,2.922H65.414z"/>
		<path d="M69.189,65.331v-7.874h3.346c0.841,0,1.453,0.07,1.834,0.212c0.381,0.142,0.687,0.394,0.916,0.755
			s0.344,0.775,0.344,1.241c0,0.59-0.174,1.078-0.521,1.463s-0.867,0.628-1.558,0.729c0.344,0.2,0.627,0.42,0.852,0.66
			c0.224,0.24,0.525,0.666,0.905,1.278l0.961,1.536h-1.901l-1.149-1.713c-0.408-0.613-0.688-0.999-0.838-1.158
			s-0.31-0.269-0.478-0.327c-0.168-0.06-0.435-0.089-0.8-0.089h-0.322v3.287H69.189z M70.779,60.787h1.176
			c0.763,0,1.239-0.032,1.429-0.097s0.338-0.176,0.446-0.333s0.161-0.354,0.161-0.591c0-0.265-0.071-0.479-0.212-0.642
			c-0.142-0.163-0.341-0.267-0.599-0.31c-0.129-0.018-0.516-0.026-1.16-0.026h-1.241V60.787z"/>
		<path d="M80.791,62.437v-1.327h3.428v3.137c-0.334,0.322-0.816,0.606-1.448,0.852s-1.272,0.368-1.92,0.368
			c-0.823,0-1.542-0.173-2.153-0.519c-0.613-0.346-1.073-0.84-1.381-1.482s-0.462-1.342-0.462-2.098c0-0.82,0.172-1.549,0.516-2.187
			c0.344-0.637,0.847-1.126,1.509-1.466c0.506-0.262,1.134-0.392,1.886-0.392c0.978,0,1.741,0.204,2.291,0.614
			s0.903,0.977,1.061,1.7l-1.579,0.295c-0.111-0.387-0.319-0.691-0.626-0.915c-0.306-0.224-0.688-0.336-1.146-0.336
			c-0.694,0-1.247,0.22-1.657,0.661c-0.41,0.439-0.615,1.094-0.615,1.96c0,0.935,0.208,1.636,0.623,2.103
			c0.416,0.468,0.96,0.701,1.633,0.701c0.334,0,0.668-0.065,1.002-0.196c0.335-0.131,0.623-0.289,0.862-0.476v-0.998H80.791z"/>
		<path d="M92.785,65.331h-1.729l-0.688-1.789H87.22l-0.65,1.789h-1.686l3.066-7.874h1.682L92.785,65.331z M89.857,62.216
			l-1.084-2.922l-1.064,2.922H89.857z"/>
		<path d="M93.633,65.331v-7.874h3.347c0.841,0,1.452,0.07,1.834,0.212c0.381,0.142,0.687,0.394,0.916,0.755
			c0.229,0.361,0.344,0.775,0.344,1.241c0,0.59-0.174,1.078-0.521,1.463s-0.867,0.628-1.558,0.729c0.344,0.2,0.628,0.42,0.852,0.66
			s0.525,0.666,0.905,1.278l0.961,1.536h-1.901l-1.149-1.713c-0.408-0.613-0.688-0.999-0.838-1.158s-0.31-0.269-0.479-0.327
			c-0.168-0.06-0.435-0.089-0.8-0.089h-0.322v3.287H93.633z M95.223,60.787H96.4c0.762,0,1.238-0.032,1.428-0.097
			c0.19-0.064,0.339-0.176,0.446-0.333s0.161-0.354,0.161-0.591c0-0.265-0.07-0.479-0.212-0.642s-0.341-0.267-0.599-0.31
			c-0.129-0.018-0.516-0.026-1.16-0.026h-1.241V60.787z"/>
		<path d="M104.628,65.331v-7.874h2.551c0.967,0,1.598,0.039,1.891,0.118c0.451,0.118,0.829,0.375,1.133,0.771
			c0.305,0.396,0.457,0.907,0.457,1.534c0,0.482-0.088,0.89-0.264,1.219c-0.175,0.329-0.398,0.588-0.668,0.776
			c-0.271,0.188-0.545,0.312-0.824,0.373c-0.38,0.075-0.93,0.112-1.649,0.112h-1.036v2.971H104.628z M106.218,58.789v2.234h0.869
			c0.627,0,1.046-0.041,1.258-0.124c0.211-0.082,0.377-0.211,0.496-0.387c0.12-0.175,0.18-0.379,0.18-0.611
			c0-0.287-0.084-0.523-0.252-0.709c-0.168-0.187-0.381-0.303-0.639-0.35c-0.19-0.036-0.572-0.054-1.145-0.054H106.218z"/>
		<path d="M111.959,57.457h2.905c0.656,0,1.155,0.05,1.499,0.15c0.462,0.136,0.857,0.378,1.187,0.726
			c0.33,0.347,0.58,0.772,0.752,1.275s0.258,1.123,0.258,1.861c0,0.647-0.08,1.206-0.241,1.676
			c-0.196,0.572-0.478,1.036-0.843,1.391c-0.276,0.269-0.648,0.479-1.117,0.629c-0.352,0.11-0.82,0.166-1.408,0.166h-2.991V57.457z
			 M113.549,58.789v5.216h1.187c0.444,0,0.766-0.025,0.962-0.076c0.258-0.064,0.472-0.173,0.642-0.327s0.309-0.407,0.416-0.76
			s0.162-0.834,0.162-1.442s-0.055-1.076-0.162-1.402c-0.107-0.325-0.258-0.58-0.451-0.762c-0.193-0.184-0.438-0.307-0.735-0.371
			c-0.222-0.05-0.657-0.075-1.306-0.075H113.549z"/>
		<path d="M119.919,65.331v-7.874h5.398v1.332h-3.809v1.864h3.287v1.332h-3.287v3.346H119.919z"/>
	</g>
	<g id="XMLID_167_">
		<path id="XMLID_302_" fill="#FFFFFF" d="M76.332,15.24h-4.789c-0.738,0-1.337,0.598-1.337,1.337c0,0.739,0.598,1.337,1.337,1.337
			h4.789c0.738,0,1.337-0.598,1.337-1.337C77.669,15.838,77.071,15.24,76.332,15.24z"/>
		<path id="XMLID_297_" fill="#FFFFFF" d="M76.332,20.795h-4.789c-0.738,0-1.337,0.598-1.337,1.337c0,0.739,0.598,1.337,1.337,1.337
			h4.789c0.738,0,1.337-0.598,1.337-1.337C77.669,21.393,77.071,20.795,76.332,20.795z"/>
		<path id="XMLID_296_" fill="#FFFFFF" d="M81.953,30.154v1.302h0.688c0.834,0,0.834-0.499,0.834-0.663c0-0.158,0-0.639-0.834-0.639
			H81.953L81.953,30.154z"/>
		<path id="XMLID_186_" fill="#FFFFFF" d="M92.105,27.694H89.93V14.145c0-0.351-0.14-0.687-0.388-0.934l-5.246-5.247
			c-0.248-0.248-0.584-0.387-0.935-0.387H67.573c-1.431,0-2.594,1.164-2.594,2.594v27.812c0,1.431,1.164,2.594,2.594,2.594h19.762
			c1.431,0,2.595-1.164,2.595-2.594v-2.678h2.175c1.131,0,2.047-0.917,2.047-2.047V29.74C94.152,28.611,93.236,27.694,92.105,27.694
			z M87.113,37.688H67.796V10.465h13.731v3.883c0,0.941,0.762,1.703,1.702,1.703h3.884v11.643h-6.609
			c-1.131,0-2.047,0.917-2.047,2.047v3.517c0,1.131,0.916,2.047,2.047,2.047h6.609V37.688L87.113,37.688z M84.32,30.793
			c0,0.93-0.645,1.508-1.68,1.508h-0.688v0.8c0,0.206-0.168,0.374-0.375,0.374H81.48c-0.207,0-0.374-0.168-0.374-0.374v-3.419
			c0-0.206,0.167-0.374,0.374-0.374h1.159C83.675,29.308,84.32,29.877,84.32,30.793z M86.44,33.475h-1.345
			c-0.207,0-0.374-0.168-0.374-0.374v-3.419c0-0.206,0.167-0.374,0.374-0.374h1.345c1.172,0,2.125,0.936,2.125,2.086
			C88.565,32.542,87.612,33.475,86.44,33.475z M91.8,29.78c0,0.207-0.168,0.374-0.375,0.374h-1.518v0.896h1.293
			c0.207,0,0.375,0.167,0.375,0.374v0.098c0,0.206-0.168,0.374-0.375,0.374h-1.293v1.206c0,0.206-0.168,0.374-0.375,0.374h-0.098
			c-0.207,0-0.374-0.168-0.374-0.374v-3.419c0-0.206,0.167-0.374,0.374-0.374h1.99c0.207,0,0.373,0.168,0.373,0.374v0.097H91.8z"/>
		<path id="XMLID_185_" fill="#FFFFFF" d="M86.44,30.154h-0.874v2.476h0.874c0.705,0,1.278-0.554,1.278-1.235
			C87.718,30.71,87.145,30.154,86.44,30.154z"/>
	</g>
</g>
</svg>
