<?xml version="1.0" encoding="utf-8"?>
<!-- Generator: Adobe Illustrator 16.0.0, SVG Export Plug-In . SVG Version: 6.00 Build 0)  -->
<!DOCTYPE svg PUBLIC "-//W3C//DTD SVG 1.1//EN" "http://www.w3.org/Graphics/SVG/1.1/DTD/svg11.dtd">
<svg version="1.1" id="Capa_1" xmlns="http://www.w3.org/2000/svg" xmlns:xlink="http://www.w3.org/1999/xlink" x="0px" y="0px"
	 width="155.707px" height="74.254px" viewBox="0 0 155.707 74.254" enable-background="new 0 0 155.707 74.254"
	 xml:space="preserve">
<metadata><?xpacket begin="﻿" id="W5M0MpCehiHzreSzNTczkc9d"?>
<x:xmpmeta xmlns:x="adobe:ns:meta/" x:xmptk="Adobe XMP Core 5.3-c011 66.145661, 2012/02/06-14:56:27        ">
   <rdf:RDF xmlns:rdf="http://www.w3.org/1999/02/22-rdf-syntax-ns#">
      <rdf:Description rdf:about=""
            xmlns:dc="http://purl.org/dc/elements/1.1/">
         <dc:format>image/svg+xml</dc:format>
         <dc:title>
            <rdf:Alt>
               <rdf:li xml:lang="x-default">Imprimir</rdf:li>
            </rdf:Alt>
         </dc:title>
      </rdf:Description>
      <rdf:Description rdf:about=""
            xmlns:xmp="http://ns.adobe.com/xap/1.0/"
            xmlns:xmpGImg="http://ns.adobe.com/xap/1.0/g/img/">
         <xmp:MetadataDate>2017-04-11T01:59:07-05:00</xmp:MetadataDate>
         <xmp:ModifyDate>2017-04-11T01:59:07-05:00</xmp:ModifyDate>
         <xmp:CreateDate>2017-04-11T01:59:07-05:00</xmp:CreateDate>
         <xmp:CreatorTool>Adobe Illustrator CC (Windows)</xmp:CreatorTool>
         <xmp:Thumbnails>
            <rdf:Alt>
               <rdf:li rdf:parseType="Resource">
                  <xmpGImg:width>256</xmpGImg:width>
                  <xmpGImg:height>124</xmpGImg:height>
                  <xmpGImg:format>JPEG</xmpGImg:format>
                  <xmpGImg:image>/9j/4AAQSkZJRgABAgEBLAEsAAD/7QAsUGhvdG9zaG9wIDMuMAA4QklNA+0AAAAAABABLAAAAAEA&#xA;AQEsAAAAAQAB/+4ADkFkb2JlAGTAAAAAAf/bAIQABgQEBAUEBgUFBgkGBQYJCwgGBggLDAoKCwoK&#xA;DBAMDAwMDAwQDA4PEA8ODBMTFBQTExwbGxscHx8fHx8fHx8fHwEHBwcNDA0YEBAYGhURFRofHx8f&#xA;Hx8fHx8fHx8fHx8fHx8fHx8fHx8fHx8fHx8fHx8fHx8fHx8fHx8fHx8fHx8f/8AAEQgAfAEAAwER&#xA;AAIRAQMRAf/EAaIAAAAHAQEBAQEAAAAAAAAAAAQFAwIGAQAHCAkKCwEAAgIDAQEBAQEAAAAAAAAA&#xA;AQACAwQFBgcICQoLEAACAQMDAgQCBgcDBAIGAnMBAgMRBAAFIRIxQVEGE2EicYEUMpGhBxWxQiPB&#xA;UtHhMxZi8CRygvElQzRTkqKyY3PCNUQnk6OzNhdUZHTD0uIIJoMJChgZhJRFRqS0VtNVKBry4/PE&#xA;1OT0ZXWFlaW1xdXl9WZ2hpamtsbW5vY3R1dnd4eXp7fH1+f3OEhYaHiImKi4yNjo+Ck5SVlpeYmZ&#xA;qbnJ2en5KjpKWmp6ipqqusra6voRAAICAQIDBQUEBQYECAMDbQEAAhEDBCESMUEFURNhIgZxgZEy&#xA;obHwFMHR4SNCFVJicvEzJDRDghaSUyWiY7LCB3PSNeJEgxdUkwgJChgZJjZFGidkdFU38qOzwygp&#xA;0+PzhJSktMTU5PRldYWVpbXF1eX1RlZmdoaWprbG1ub2R1dnd4eXp7fH1+f3OEhYaHiImKi4yNjo&#xA;+DlJWWl5iZmpucnZ6fkqOkpaanqKmqq6ytrq+v/aAAwDAQACEQMRAD8A86fmF/yn3mX/ALat9/1E&#xA;virH8VdirsVdirsVdirsVdirsVdirsVdirsVdirsVdirsVdirsVdirsVdirsVdirsVdirsVdirsV&#xA;dirsVZB+YX/KfeZf+2rff9RL4qx/FXYq7FXYq7FXYq7FXYq7FXYq7FXYq7FXYq7FXYq7FXrH5cfk&#xA;He+ffIGra/omrW8uvafMEg0EbSMiqSfVZuPBpf8AdX7JoQT/ACqvLLq1ubS5ltbqJ4LmB2jngkUo&#xA;6OhoyspoQQRQg4qpYq7FXYq7FXYq7FXYq7FXYq7FXYq7FWQfmF/yn3mX/tq33/US+KsfxV2KuxV2&#xA;KuxV2KuxV2KuxV2KuxVG6JpF7rOs2Gj2Khr3UbiK0tlY0BlncRpU70HJsVfbflf/AJxI/KTTdKhg&#xA;1qzm13UeI+sXstxcW6l/2vTjt5Igq16BuR98VTb/AKFc/Ir/AKln/p+1D/soxV3/AEK5+RX/AFLP&#xA;/T9qH/ZRirEvzM/Kj/nGb8vfLkms6z5d5O1UsLBL+/8AWuZqVCIDcbAftN0UfQCq8T0X8vfMvlKb&#xA;SvzZ1nydFL5NF39YfQBJLJJb2zf3MzJMXfgCwKGRjUgcwAwOKvV/NehLpbp+e/5N3EU1pJG8/mLR&#xA;xtDPBXlcMY9uDLSsqbEEcl36qvCPzx/Mjy/+YPm6LXdH0b9FE20cd7I7Ay3EwFWZwvwfB9hW6sBU&#xA;9lVV51irsVdirsVdirsVdirsVdirsVdirsVZB+YX/KfeZf8Atq33/US+KsfxV2KuxV2KuxV2KuxV&#xA;2KuxV2KuxVmv5Kf+Tc8of9tW1/5ODFX2R/zk/qepab+Tmq3enXc1ldpNaBLi3kaKQBrhAQHQqwqM&#xA;VfEX/KwvP3/Uy6r/ANJ1z/zXirv+Vhefv+pl1X/pOuf+a8VfSX5B/kXreuyWPnn8y5rnUFiAk0HS&#xA;dQkknYqTyWeYSlqJ3SPv9o7Uqq+mdRfT49PuX1ExLp6xObxrjj6Ih4n1PU5/Dw415V2pir4B8+TS&#xA;Inmmf8vHv7b8q7jUIIZ0dylrLdcWdVjU0Zk+EsqncLx5/s4q8yxV2KuxV2KuxV2KuxV2KuxV2Kux&#xA;V2KuxVkH5hf8p95l/wC2rff9RL4qx/FXYq7FXYq7FXYq7FXYq7FXYq7FWa/kp/5Nzyh/21bX/k4M&#xA;VfX/APzlf/5JLWP+M9n/ANRKYq+C8VfUv/ON/wDzjcZTa+dPO1rSEUm0bRZl+33W4uEP7PdEPXqd&#xA;qAqvqm6ura0tpbq6lSC2gRpJ55GCIiIKszMaAAAVJOKvk/zr+a5/Oj8ydK/LfRbybTvJN1clLy7i&#xA;FJr30VaUtRvsx/u/3anv8TA7KFWX/wDOUvlzRfLf5E6foui2qWem2epWqQQJ2/dzEsxO7Mx3ZjuT&#xA;ucVfGWKuxV2KuxV2KuxV2KuxV2KuxV2KuxV2Ksg/ML/lPvMv/bVvv+ol8VY/irsVdirsVdirsVdi&#xA;rsVdirsVdirNfyU/8m55Q/7atr/ycGKvr/8A5yv/APJJax/xns/+olMVfIv5Z+V/NVwl/wCdvL9l&#xA;BqjeTJ7O7u9NmT1fUjlMrc/T/bWP6v8AFT4hXkOmKvuL8tvzd8p+evKb+YLO4Sz+ppXWLSd1VrNl&#xA;Us3qMaD06AlZOhHgQQFXyx/zkP8A85D3Pna5l8ueXJXg8pQPSWUVR790OzuNiIQRVEPX7Tb0CqsU&#xA;/wCcb/8Aydvlb/jPN/1DS4q+lf8AnMj/AMlHD/21bb/k3Nir4gxV2KuxV2KuxV2KuxV2KuxV2Kux&#xA;V2KuxVkH5hf8p95l/wC2rff9RL4qx/FXYq7FXYq7FXYq7FXYq7FXYq7FWa/kp/5Nzyh/21bX/k4M&#xA;VfX/APzlf/5JLWP+M9n/ANRKYq+UPyh/O3X/AMsP0t+ibG0vf0v9X9f636nwfVvV48PTdOvrmtcV&#xA;Y55o85T6zrGpahYWkegQauANR03TnljtZSG5msbM3wlwG4/ZDbgDFWO4q9K/5xv/APJ2+Vv+M83/&#xA;AFDS4q+lf+cyP/JRw/8AbVtv+Tc2KviDFXYq7FXYq7FXYq7FXYq7FXYq7FXYq7FWQfmF/wAp95l/&#xA;7at9/wBRL4qx/FXYq7FXYq7FXYq7FXYq7FXYq7FU98ieYY/LfnXQ9fljMsOl31vdTRL9po4pAzhf&#xA;fiDT3xV+iE8Hkb8yfKKrIYNd8uahwlojsEYoQ6huBR1ZWpVTQg7EYqxv/oW/8kv+pWg/5HXP/VXF&#xA;Xf8AQt/5Jf8AUrQf8jrn/qrirv8AoW/8kv8AqVoP+R1z/wBVcVTDy/8Akf8AlV5e1i21nRvL8Nnq&#xA;dmxa2uVlnYoWUoSA8jL9liNxirxr/nMv8wtBl0Kw8lWV0lzqwvFvdQjiIcQRxRyIschH2XdpKheo&#xA;C79RVV8l4q7FXYq7FXYq7FXYq7FXYq7FXYq7FXYqyD8wv+U+8y/9tW+/6iXxVj+KuxV2KuxV2Kux&#xA;V2KuxV2KuxV2KuxVWgvLu3BEE8kIb7QjZlrTxocVVf0tqv8Ay2z/API1/wCuKu/S2q/8ts//ACNf&#xA;+uKu/S2q/wDLbP8A8jX/AK4q79Lar/y2z/8AI1/64qhSSTU7k9TirWKuxV2KuxV2KuxV2KuxV2Ku&#xA;xV2KuxV2Ks98+eQ/PM/nnzFND5d1OWGXU7x4pUs7hlZWuHKsrBKEEdDiqRf8q98/f9S1qv8A0g3P&#xA;/NGKu/5V75+/6lrVf+kG5/5oxV3/ACr3z9/1LWq/9INz/wA0Yq7/AJV75+/6lrVf+kG5/wCaMVd/&#xA;yr3z9/1LWq/9INz/AM0Yq7/lXvn7/qWtV/6Qbn/mjFXf8q98/f8AUtar/wBINz/zRirv+Ve+fv8A&#xA;qWtV/wCkG5/5oxV3/KvfP3/Utar/ANINz/zRirv+Ve+fv+pa1X/pBuf+aMVd/wAq98/f9S1qv/SD&#xA;c/8ANGKu/wCVe+fv+pa1X/pBuf8AmjFXf8q98/f9S1qv/SDc/wDNGKu/5V75+/6lrVf+kG5/5oxV&#xA;3/KvfP3/AFLWq/8ASDc/80Yq7/lXvn7/AKlrVf8ApBuf+aMVd/yr3z9/1LWq/wDSDc/80Yq7/lXv&#xA;n7/qWtV/6Qbn/mjFXf8AKvfP3/Utar/0g3P/ADRirv8AlXvn7/qWtV/6Qbn/AJoxV3/KvfP3/Uta&#xA;r/0g3P8AzRirv+Ve+fv+pa1X/pBuf+aMVd/yr3z9/wBS1qv/AEg3P/NGKu/5V75+/wCpa1X/AKQb&#xA;n/mjFXf8q98/f9S1qv8A0g3P/NGKu/5V75+/6lrVf+kG5/5oxV3/ACr3z9/1LWq/9INz/wA0Yq7/&#xA;AJV75+/6lrVf+kG5/wCaMVd/yr3z9/1LWq/9INz/AM0Yq7/lXvn7/qWtV/6Qbn/mjFXf8q98/f8A&#xA;Utar/wBINz/zRir9NMVdirsVdirsVdirsVdirsVdirsVdirsVdirsVdirsVdirsVdirsVdirsVdi&#xA;rsVdirsVdirsVdirsVdirsVdirsVQ+o6hZadYXOoX0y29lZxPPczv9lIo1LOx9goriqXeU/OXlnz&#xA;dpZ1Xy5fpqNgsrQNPGHUCRACykOFYEBgemKpT5u/N38tvJ96tj5i163sb5grfVaSTSqrn4S6QrIy&#xA;A16sBtviq6//ADZ/Lmx8sWvmm5123GgXswtrbUE5yo0xV29OkasytSNqgjamKpNa/wDORH5M3VzF&#xA;bW/meCSed1iiQQ3ILO54qN4u5OKo27/O/wDKu0S7e51+KJLG8/R127RT8Y7o8z6TN6dK/un36bYq&#xA;yLzR5t8ueVtIbWNfvksNNRkjNw4ZhykNFACBmNfYYqlsP5o+Q5rjUraPVkM+kWC6tqURjmVobJoU&#xA;uBMwZB/uqVW4j4t+lcVSbT/+cgfya1C7jtLbzVaetKQqeqJYFJJAA5yoiDc9zirPbi7tbe0kvJpV&#xA;S1hjaaSYn4VjVeRYnwA3xVJ/KHnnyp5x0+XUPLWox6lZwSmCaWMOvGQKH4lZFRvsuO2Ksc1H8/fy&#xA;g03VLrSr7zJBb39lPJa3ULR3HwTROY3UsI+PwspFa0xVmeja3pGt6bDqekXkN/p9wOUN1buJI27H&#xA;de4OxHUHriqQecPzW/L7ybfQ2PmXWI9Nu7iL14YnjmctHyK8qxo4+0pGKozyn5/8meb4ZZfLesW+&#xA;piGnrJC37xOXQvGwV1B9xiqWN+cn5aL5dm8xtrkQ0W3vDps156c3FbsIJPS48OVeJrWlMVd5Z/OX&#xA;8r/M+oppuieYrW6v5K+lakvDI5ArSNZljLmnZa4qiPzT85v5N8iap5gh+rm7tkVLJLtisLTyuscf&#xA;PiVYqC3IgEEgdRiqO8jazda15R0rVrq7s764vrdZ5LnTkkjtWL70iWZ5JKL9n4jWo6DoFUi1v88v&#xA;ym0PWH0bU/MtrBqMT+nNCvqSiN60KySRo8aEH7QZhTviqK8yfm/+WvltbF9Z163to9Th+s6fKokm&#xA;SaHp6iPCsilfpxVB6L+e35Ta3qKadpfmGG6vZEllSFYrhSUgiaaU1aNR8McbN9GKp5p/5geTNQ8r&#xA;N5rttWg/w6nMtqchMMQ9NuDV9UIftjj03PTFUq8r/nR+V3mnVRpOheYbe71Jq+nbFZYWk4jkfT9Z&#xA;Iw9Bv8NcVTnzd538q+T9Oj1LzLqEem2U0ot4ppA7cpWVnCgRq7fZQnpiqbWd5a3tnBeWkqzWtzGk&#xA;1vMhqrxyKGRlPgVNcVVsVdirsVdirsVdirw3/nLjzqujfl9B5dhnEF75nuBbu5JAS0hKvO5pU0qU&#xA;Q7bhjirCv+ccPM/lfy5+a+u+RtA1Uap5Z1mJLrRbqjrW6giDSpxkCsCULg/6gxVM/wDnHPyv5Y84&#xA;ar578webNMtdW8wtq8sM0d/Glx6EThjxVJAyryPJKgdFp0xV6T+W/wCX/wCTdrp2r6Z5YNprdgb8&#xA;zX9lNLHfxW90gaMARNyWIhaqDSpXucVYF/zjb5X8tXmr/mC13pNlcNZeYZks2lt4nMKq78Vi5KeA&#xA;FNguKsJ8q+Sz5v8AK3536XEhkvodWN7p4UVY3FrNdSqq+8gBj/2WKrD5vl/N7T/yn/L71DNIHNx5&#xA;oWpr6en8oVZmHRnt4pG+brirIfMCqv5v/noqgKq+TZQqjYADTLbYYqjPLnkPyRqn/OJ/6S1HSbP9&#xA;IQaPf3kWp+jGtytxbtO0TesAJD8SgUruNsVSPXfzIv8ATf8AnELy9aT3DHWPMSTaRAzGjiyt7mWN&#xA;zv1UW0aRf7IYqs/5x68yeVvKX5wXPlDQNZXVvLfmKxt/q90BIo/SVtBycH1VjpzYTU23qgxVkX5F&#xA;eWvLuufmf+csetaXaamketlY1vII5woku78OF9RW48uIrTFUf/zjMiaX54/M/wAs6Yxby5peqKbC&#xA;LlzSJmlniKqe9UhVSf8AIGKqv5jadp+o/wDOVP5f2eoW0V5Zy6VeerbXCLLG3GG9ZeSOCpowBHvi&#xA;qX6vo2k+U/8AnLDypB5Wt49Nj1vTpTq9haKqROCtwSxiQALX0Fc02qtfHFXkVz/6zJrf/gcv/wBQ&#xA;UeKvVf8AnJjyl5S0P8s9D8zaPY2ujeYrK9svqN9ZQpbzMxjZypaMLXiU9QE9CPfFUP8A85IecdG1&#xA;jzJ5I8i6/fjTdHcxat5qm+I8FZSI4/3aswbiJabdWU4qofkL+YMtp+VX5g+VtOvvrV95TtdSvvL1&#xA;4gb97bmOVkeJCA1FnXnvv+8GKp1+Qf5a/llq/wCRCanr+m2dxcanHfHWdUnVGnhWKeZAyzOGaExx&#xA;Irgin82Ks707yT+VqflVLB5fis9d0ewsbz9G30xiv2jLK8rhJmDcP3jElRSh7Yqwr/nH3QNCP/OP&#xA;v6YOm2p1ZbfVguomGP6yBWZKCbjz+wePXptirySBxeflL+UPl6/Zk8u6t5iuxrDciq8UvUjHIih/&#xA;u55T17Yq+i/Nn5W/kbZar5ZutRgsvLd7Z3KjRWtZI9OM86FXRGZAhlKsoIqa1PX4t1Xk3/ORfmTy&#xA;v5o/NvTfJev6wuleW9Cs55b+7o7Uv7mEtEtI1ctx/c9tqsMVegf84l+eRr/5bDRLiX1NQ8tS/U23&#xA;qWtXq9s2/YDlGPZMVe24q7FXYq7FXYq7FWB6/wDlFpGv/mTpnnbV7p7tdIt2t7PRZY42tQWD1kbk&#xA;CWasnL5hfDFVDzf+S3l7XfMXl3zDp8v6B1Ty7cevDJYwxKsw5I3pyrRaj4KfJiMVY/5t/wCcb7DU&#xA;vNN75l8seZdS8o6hqnI6qunsRHOz7u1EeJlLkkt8RFd6DFWZ/lf+V3l38uvLx0fRjJM00hnvb2cg&#xA;zTykAVbiAAqgUVR0+ZJKqz8u/wAs7HyTc+YZ7W9luz5hv31GZZVVRG8hY8F49R8XfFVL8ufys0/y&#xA;PqXmS/tb6W8fzJefXp0lVVETc5H4px6j973xVJ/y4/IDyt5E856r5o024lnm1BZY7a0kVBHaxzSi&#xA;VkjI3NOIUE70+eKou/8AyX0y881+c/MTalOs3nPSW0e6gCJxgja3jt/UjPVmpFWhxVhlr/zilajT&#xA;YdFvvPOv3XluIiuiLP6dqQG58RGS8ajlvsnXFWY6p+R3lrUPNXlfVpJWXR/KVt9W0vy6I1a12BHq&#xA;OW5MWrwJ8eAr3xVf58/JPy55nvtC1KxcaBqmgXQu7S8sYIlLMCrBZAAvIBo1I+nxxVi13/zjO/8A&#xA;iTXdc0nzzrWhv5gvJr2+g06T6urGWV5QjGNl5hPVYLy8ffFXoP5bfln5a/L3Qn0nQxLIJ5TPeXly&#xA;weeeUgDk7AKNgNgBQfMnFWPfmX+SMfnXzVp3maDzHf8Al/U9Mtja20+nERyBWZyzCUFXUsspU0PT&#xA;FVX8u/yP0Pyhrtx5lutUv/Mfma5jMB1bVJfWkSI0qqVqakLTkSTTYUFcVSGT/nGbQn/Lu88knWro&#xA;Wt5rJ1xrv04/UWQwrD6QXpxota4q3pP/ADjTpg1fTtQ80+ata82RaTIs1hp2pzmS2V1pTkjmSq/C&#xA;PhBAPeo2xVkukfk3oVr+YGv+dtTmOs6jrarEkF3FG0VtCpXikYPKtFjRanw98VWp+TOg235nJ570&#xA;2c2DPZtY6ho8MUYtbqNkKH1AKU/YNBtVB74qwi//AOcTtL9e+ttB826tonlrU3532gQOXgcE1KVL&#xA;qCvh6isfc4q9Y0PyLoeg+SU8n6QjW2lx2slqjEhpP3wbnIx2DOzOWPviqW+RfyzsfKP5enyVbXst&#xA;1alLlPrciqslLpmZjxG3w89sVY/D/wA48+UX/K23/L3ULie8s7SaS6s9SASO5hnkdn5pQMu3qFaE&#xA;UIxVKPLP/OM1hY+ZNN1rzN5o1LzWNFIbR7K/YmGEqQyV5PKSqkAhV4ioFajbFWUeTPyX8veX9Z8w&#xA;61fyDXtT8xXX1q5mvoYmEXxO3CJSG4rWQ/QB4YqqeWvyh0ny3+Y2r+ctIu5LWLWoRDd6IkaLahlC&#xA;fvEpQhuSFv8AZNirPsVdirsVdirsVdirsVdirsVdirsVdirsVdirsVdirsVdirsVdirsVdirsVdi&#xA;rsVdirsVdirsVdirsVdirsVdirsVdirsVdirsVdirsVdirsVdirsVdirsVdirsVdirsVdirsVdir&#xA;sVdirsVdirsVdirsVdirsVdirsVdirsVf//Z</xmpGImg:image>
               </rdf:li>
            </rdf:Alt>
         </xmp:Thumbnails>
      </rdf:Description>
      <rdf:Description rdf:about=""
            xmlns:xmpMM="http://ns.adobe.com/xap/1.0/mm/"
            xmlns:stRef="http://ns.adobe.com/xap/1.0/sType/ResourceRef#"
            xmlns:stEvt="http://ns.adobe.com/xap/1.0/sType/ResourceEvent#">
         <xmpMM:InstanceID>xmp.iid:9abfa668-2609-c146-aeb5-945099e7e6e3</xmpMM:InstanceID>
         <xmpMM:DocumentID>xmp.did:9abfa668-2609-c146-aeb5-945099e7e6e3</xmpMM:DocumentID>
         <xmpMM:OriginalDocumentID>uuid:5D20892493BFDB11914A8590D31508C8</xmpMM:OriginalDocumentID>
         <xmpMM:RenditionClass>proof:pdf</xmpMM:RenditionClass>
         <xmpMM:DerivedFrom rdf:parseType="Resource">
            <stRef:instanceID>uuid:ff470bc6-f939-440e-8f31-27b0eb70075c</stRef:instanceID>
            <stRef:documentID>xmp.did:4de20fe2-e96f-dd46-b8bd-1606dc72d06f</stRef:documentID>
            <stRef:originalDocumentID>uuid:5D20892493BFDB11914A8590D31508C8</stRef:originalDocumentID>
            <stRef:renditionClass>proof:pdf</stRef:renditionClass>
         </xmpMM:DerivedFrom>
         <xmpMM:History>
            <rdf:Seq>
               <rdf:li rdf:parseType="Resource">
                  <stEvt:action>saved</stEvt:action>
                  <stEvt:instanceID>xmp.iid:9abfa668-2609-c146-aeb5-945099e7e6e3</stEvt:instanceID>
                  <stEvt:when>2017-04-11T01:59:07-05:00</stEvt:when>
                  <stEvt:softwareAgent>Adobe Illustrator CC (Windows)</stEvt:softwareAgent>
                  <stEvt:changed>/</stEvt:changed>
               </rdf:li>
            </rdf:Seq>
         </xmpMM:History>
      </rdf:Description>
      <rdf:Description rdf:about=""
            xmlns:illustrator="http://ns.adobe.com/illustrator/1.0/">
         <illustrator:StartupProfile>Print</illustrator:StartupProfile>
      </rdf:Description>
      <rdf:Description rdf:about=""
            xmlns:xmpTPg="http://ns.adobe.com/xap/1.0/t/pg/"
            xmlns:stDim="http://ns.adobe.com/xap/1.0/sType/Dimensions#"
            xmlns:xmpG="http://ns.adobe.com/xap/1.0/g/">
         <xmpTPg:HasVisibleOverprint>False</xmpTPg:HasVisibleOverprint>
         <xmpTPg:HasVisibleTransparency>True</xmpTPg:HasVisibleTransparency>
         <xmpTPg:NPages>1</xmpTPg:NPages>
         <xmpTPg:MaxPageSize rdf:parseType="Resource">
            <stDim:w>5.492981</stDim:w>
            <stDim:h>2.619513</stDim:h>
            <stDim:unit>Centimeters</stDim:unit>
         </xmpTPg:MaxPageSize>
         <xmpTPg:PlateNames>
            <rdf:Seq>
               <rdf:li>Cyan</rdf:li>
               <rdf:li>Magenta</rdf:li>
               <rdf:li>Yellow</rdf:li>
               <rdf:li>Black</rdf:li>
            </rdf:Seq>
         </xmpTPg:PlateNames>
         <xmpTPg:SwatchGroups>
            <rdf:Seq>
               <rdf:li rdf:parseType="Resource">
                  <xmpG:groupName>Default Swatch Group</xmpG:groupName>
                  <xmpG:groupType>0</xmpG:groupType>
               </rdf:li>
            </rdf:Seq>
         </xmpTPg:SwatchGroups>
      </rdf:Description>
      <rdf:Description rdf:about=""
            xmlns:pdf="http://ns.adobe.com/pdf/1.3/">
         <pdf:Producer>Adobe PDF library 10.01</pdf:Producer>
      </rdf:Description>
   </rdf:RDF>
</x:xmpmeta>
                                                                                                    
                                                                                                    
                                                                                                    
                                                                                                    
                                                                                                    
                                                                                                    
                                                                                                    
                                                                                                    
                                                                                                    
                                                                                                    
                                                                                                    
                                                                                                    
                                                                                                    
                                                                                                    
                                                                                                    
                                                                                                    
                                                                                                    
                                                                                                    
                                                                                                    
                                                                                                    
                           
<?xpacket end="w"?>
	</metadata>
<g>
	<rect id="XMLID_248_" x="0.541" opacity="0.5" fill="#FFFFFF" enable-background="new    " width="154.914" height="74.254"/>
	<rect id="XMLID_257_" x="0.541" width="155.166" height="48.154"/>
	<rect id="XMLID_320_" y="57.455" fill="none" width="155.707" height="13.102"/>
	<g enable-background="new    ">
		<path d="M24.034,65.331h-1.729l-0.688-1.789H18.47l-0.65,1.789h-1.687l3.067-7.874h1.681L24.034,65.331z M21.107,62.216
			l-1.085-2.922l-1.063,2.922H21.107z"/>
		<path d="M29.916,62.437l1.542,0.488c-0.236,0.859-0.629,1.498-1.179,1.915c-0.55,0.417-1.247,0.626-2.092,0.626
			c-1.045,0-1.905-0.357-2.578-1.072c-0.673-0.714-1.01-1.69-1.01-2.93c0-1.311,0.338-2.328,1.015-3.054
			c0.677-0.725,1.566-1.087,2.669-1.087c0.963,0,1.746,0.284,2.347,0.854c0.358,0.337,0.626,0.82,0.806,1.45l-1.574,0.376
			c-0.093-0.408-0.288-0.73-0.583-0.967c-0.296-0.236-0.655-0.354-1.077-0.354c-0.583,0-1.057,0.21-1.421,0.628
			c-0.363,0.42-0.545,1.098-0.545,2.036c0,0.995,0.179,1.704,0.537,2.127s0.824,0.634,1.396,0.634c0.422,0,0.786-0.135,1.09-0.402
			C29.564,63.435,29.783,63.013,29.916,62.437z"/>
		<path d="M34.594,65.331v-6.542h-2.336v-1.332h6.257v1.332h-2.331v6.542H34.594z"/>
		<path d="M39.492,65.331v-7.874h1.59v7.874H39.492z"/>
		<path d="M44.605,65.331l-2.814-7.874h1.724l1.993,5.827l1.928-5.827h1.687l-2.82,7.874H44.605z"/>
		<path d="M49.885,65.331v-7.874h1.59v7.874H49.885z"/>
		<path d="M52.984,57.457h2.906c0.655,0,1.155,0.05,1.499,0.15c0.462,0.136,0.857,0.378,1.187,0.726
			c0.33,0.347,0.58,0.772,0.752,1.275s0.258,1.123,0.258,1.861c0,0.647-0.081,1.206-0.242,1.676
			c-0.197,0.572-0.478,1.036-0.843,1.391c-0.276,0.269-0.648,0.479-1.117,0.629c-0.351,0.11-0.82,0.166-1.407,0.166h-2.992V57.457z
			 M54.574,58.789v5.216h1.187c0.444,0,0.765-0.025,0.961-0.076c0.258-0.064,0.472-0.173,0.642-0.327
			c0.17-0.154,0.309-0.407,0.417-0.76s0.161-0.834,0.161-1.442s-0.054-1.076-0.161-1.402c-0.107-0.325-0.258-0.58-0.451-0.762
			c-0.193-0.184-0.438-0.307-0.736-0.371c-0.222-0.05-0.657-0.075-1.305-0.075H54.574z"/>
		<path d="M68.034,65.331h-1.729l-0.688-1.789H62.47l-0.65,1.789h-1.687l3.067-7.874h1.681L68.034,65.331z M65.107,62.216
			l-1.085-2.922l-1.063,2.922H65.107z"/>
		<path d="M68.872,57.457h2.906c0.655,0,1.155,0.05,1.499,0.15c0.462,0.136,0.857,0.378,1.187,0.726
			c0.33,0.347,0.58,0.772,0.752,1.275s0.258,1.123,0.258,1.861c0,0.647-0.081,1.206-0.242,1.676
			c-0.197,0.572-0.478,1.036-0.843,1.391c-0.276,0.269-0.648,0.479-1.117,0.629c-0.351,0.11-0.82,0.166-1.407,0.166h-2.992V57.457z
			 M70.462,58.789v5.216h1.187c0.444,0,0.765-0.025,0.961-0.076c0.258-0.064,0.472-0.173,0.642-0.327
			c0.17-0.154,0.309-0.407,0.417-0.76s0.161-0.834,0.161-1.442s-0.054-1.076-0.161-1.402c-0.107-0.325-0.258-0.58-0.451-0.762
			c-0.193-0.184-0.438-0.307-0.736-0.371c-0.222-0.05-0.657-0.075-1.305-0.075H70.462z"/>
		<path d="M79.873,57.457h2.905c0.655,0,1.155,0.05,1.499,0.15c0.461,0.136,0.857,0.378,1.187,0.726
			c0.329,0.347,0.58,0.772,0.752,1.275s0.258,1.123,0.258,1.861c0,0.647-0.081,1.206-0.241,1.676
			c-0.197,0.572-0.479,1.036-0.844,1.391c-0.275,0.269-0.648,0.479-1.117,0.629c-0.352,0.11-0.82,0.166-1.407,0.166h-2.991V57.457z
			 M81.462,58.789v5.216h1.187c0.444,0,0.765-0.025,0.962-0.076c0.258-0.064,0.471-0.173,0.641-0.327
			c0.171-0.154,0.31-0.407,0.417-0.76s0.161-0.834,0.161-1.442s-0.054-1.076-0.161-1.402c-0.107-0.325-0.258-0.58-0.451-0.762
			c-0.193-0.184-0.438-0.307-0.735-0.371c-0.223-0.05-0.658-0.075-1.306-0.075H81.462z"/>
		<path d="M87.773,65.331v-7.874h1.59v7.874H87.773z"/>
		<path d="M90.873,57.457h2.905c0.655,0,1.155,0.05,1.499,0.15c0.461,0.136,0.857,0.378,1.187,0.726
			c0.329,0.347,0.58,0.772,0.752,1.275s0.258,1.123,0.258,1.861c0,0.647-0.081,1.206-0.241,1.676
			c-0.197,0.572-0.479,1.036-0.844,1.391c-0.275,0.269-0.648,0.479-1.117,0.629c-0.352,0.11-0.82,0.166-1.407,0.166h-2.991V57.457z
			 M92.462,58.789v5.216h1.187c0.444,0,0.765-0.025,0.962-0.076c0.258-0.064,0.471-0.173,0.641-0.327
			c0.171-0.154,0.31-0.407,0.417-0.76s0.161-0.834,0.161-1.442s-0.054-1.076-0.161-1.402c-0.107-0.325-0.258-0.58-0.451-0.762
			c-0.193-0.184-0.438-0.307-0.735-0.371c-0.223-0.05-0.658-0.075-1.306-0.075H92.462z"/>
		<path d="M105.921,65.331h-1.729l-0.688-1.789h-3.148l-0.649,1.789h-1.687l3.066-7.874h1.682L105.921,65.331z M102.995,62.216
			l-1.085-2.922l-1.063,2.922H102.995z M100.997,57.006l0.741-1.606h1.691l-1.477,1.606H100.997z"/>
		<path d="M111.803,62.437l1.542,0.488c-0.236,0.859-0.63,1.498-1.18,1.915c-0.549,0.417-1.246,0.626-2.092,0.626
			c-1.045,0-1.904-0.357-2.578-1.072c-0.674-0.714-1.01-1.69-1.01-2.93c0-1.311,0.338-2.328,1.016-3.054
			c0.676-0.725,1.566-1.087,2.669-1.087c0.964,0,1.745,0.284,2.347,0.854c0.358,0.337,0.627,0.82,0.807,1.45l-1.574,0.376
			c-0.094-0.408-0.287-0.73-0.582-0.967c-0.297-0.236-0.655-0.354-1.078-0.354c-0.583,0-1.057,0.21-1.42,0.628
			c-0.363,0.42-0.545,1.098-0.545,2.036c0,0.995,0.179,1.704,0.537,2.127c0.357,0.423,0.823,0.634,1.396,0.634
			c0.422,0,0.785-0.135,1.09-0.402C111.453,63.435,111.671,63.013,111.803,62.437z"/>
		<path d="M116.482,65.331v-6.542h-2.337v-1.332h6.257v1.332h-2.33v6.542H116.482z"/>
		<path d="M121.38,65.331v-7.874h1.59v7.874H121.38z"/>
		<path d="M129.523,62.437l1.541,0.488c-0.236,0.859-0.629,1.498-1.179,1.915s-1.247,0.626-2.093,0.626
			c-1.045,0-1.904-0.357-2.578-1.072c-0.673-0.714-1.01-1.69-1.01-2.93c0-1.311,0.339-2.328,1.016-3.054
			c0.677-0.725,1.566-1.087,2.67-1.087c0.963,0,1.745,0.284,2.347,0.854c0.358,0.337,0.626,0.82,0.806,1.45l-1.574,0.376
			c-0.093-0.408-0.287-0.73-0.582-0.967c-0.296-0.236-0.654-0.354-1.077-0.354c-0.583,0-1.058,0.21-1.421,0.628
			c-0.363,0.42-0.545,1.098-0.545,2.036c0,0.995,0.18,1.704,0.537,2.127s0.824,0.634,1.396,0.634c0.422,0,0.786-0.135,1.09-0.402
			C129.171,63.435,129.39,63.013,129.523,62.437z"/>
		<path d="M139.529,65.331h-1.729l-0.688-1.789h-3.147l-0.65,1.789h-1.686l3.066-7.874h1.682L139.529,65.331z M136.601,62.216
			l-1.084-2.922l-1.064,2.922H136.601z"/>
	</g>
	<path id="XMLID_284_" fill="#FEFEFE" d="M90.634,18.201v16.996c0,2.098-1.752,3.85-4.033,3.85H66.636
		c-2.28,0-4.027-1.752-4.027-3.85V15.049c0-2.275,1.747-4.028,4.027-4.028h16.99l-4.028,4.028H66.636v20.149H86.6V22.234
		L90.634,18.201z M87.654,9.796l-1.398,1.574l4.207,4.207l1.4-1.403L87.654,9.796z M90.46,6.994l-1.399,1.398l4.198,4.381
		l1.41-1.404L90.46,6.994z M72.07,25.383l4.199,4.383l12.792-12.787l-4.208-4.205L72.07,25.383z M70.665,31.163h4.031l-4.031-4.028
		V31.163z"/>
</g>
</svg>
