<?xml version="1.0" encoding="utf-8"?>
<!-- Generator: Adobe Illustrator 16.0.0, SVG Export Plug-In . SVG Version: 6.00 Build 0)  -->
<!DOCTYPE svg PUBLIC "-//W3C//DTD SVG 1.1//EN" "http://www.w3.org/Graphics/SVG/1.1/DTD/svg11.dtd">
<svg version="1.1" id="Capa_1" xmlns="http://www.w3.org/2000/svg" xmlns:xlink="http://www.w3.org/1999/xlink" x="0px" y="0px"
	 width="155.707px" height="74.254px" viewBox="0 0 155.707 74.254" enable-background="new 0 0 155.707 74.254"
	 xml:space="preserve">
<metadata><?xpacket begin="﻿" id="W5M0MpCehiHzreSzNTczkc9d"?>
<x:xmpmeta xmlns:x="adobe:ns:meta/" x:xmptk="Adobe XMP Core 5.3-c011 66.145661, 2012/02/06-14:56:27        ">
   <rdf:RDF xmlns:rdf="http://www.w3.org/1999/02/22-rdf-syntax-ns#">
      <rdf:Description rdf:about=""
            xmlns:dc="http://purl.org/dc/elements/1.1/">
         <dc:format>image/svg+xml</dc:format>
         <dc:title>
            <rdf:Alt>
               <rdf:li xml:lang="x-default">Imprimir</rdf:li>
            </rdf:Alt>
         </dc:title>
      </rdf:Description>
      <rdf:Description rdf:about=""
            xmlns:xmp="http://ns.adobe.com/xap/1.0/"
            xmlns:xmpGImg="http://ns.adobe.com/xap/1.0/g/img/">
         <xmp:MetadataDate>2017-04-11T01:59:07-05:00</xmp:MetadataDate>
         <xmp:ModifyDate>2017-04-11T01:59:07-05:00</xmp:ModifyDate>
         <xmp:CreateDate>2017-04-11T01:59:07-05:00</xmp:CreateDate>
         <xmp:CreatorTool>Adobe Illustrator CC (Windows)</xmp:CreatorTool>
         <xmp:Thumbnails>
            <rdf:Alt>
               <rdf:li rdf:parseType="Resource">
                  <xmpGImg:width>256</xmpGImg:width>
                  <xmpGImg:height>124</xmpGImg:height>
                  <xmpGImg:format>JPEG</xmpGImg:format>
                  <xmpGImg:image>/9j/4AAQSkZJRgABAgEBLAEsAAD/7QAsUGhvdG9zaG9wIDMuMAA4QklNA+0AAAAAABABLAAAAAEA&#xA;AQEsAAAAAQAB/+4ADkFkb2JlAGTAAAAAAf/bAIQABgQEBAUEBgUFBgkGBQYJCwgGBggLDAoKCwoK&#xA;DBAMDAwMDAwQDA4PEA8ODBMTFBQTExwbGxscHx8fHx8fHx8fHwEHBwcNDA0YEBAYGhURFRofHx8f&#xA;Hx8fHx8fHx8fHx8fHx8fHx8fHx8fHx8fHx8fHx8fHx8fHx8fHx8fHx8fHx8f/8AAEQgAfAEAAwER&#xA;AAIRAQMRAf/EAaIAAAAHAQEBAQEAAAAAAAAAAAQFAwIGAQAHCAkKCwEAAgIDAQEBAQEAAAAAAAAA&#xA;AQACAwQFBgcICQoLEAACAQMDAgQCBgcDBAIGAnMBAgMRBAAFIRIxQVEGE2EicYEUMpGhBxWxQiPB&#xA;UtHhMxZi8CRygvElQzRTkqKyY3PCNUQnk6OzNhdUZHTD0uIIJoMJChgZhJRFRqS0VtNVKBry4/PE&#xA;1OT0ZXWFlaW1xdXl9WZ2hpamtsbW5vY3R1dnd4eXp7fH1+f3OEhYaHiImKi4yNjo+Ck5SVlpeYmZ&#xA;qbnJ2en5KjpKWmp6ipqqusra6voRAAICAQIDBQUEBQYECAMDbQEAAhEDBCESMUEFURNhIgZxgZEy&#xA;obHwFMHR4SNCFVJicvEzJDRDghaSUyWiY7LCB3PSNeJEgxdUkwgJChgZJjZFGidkdFU38qOzwygp&#xA;0+PzhJSktMTU5PRldYWVpbXF1eX1RlZmdoaWprbG1ub2R1dnd4eXp7fH1+f3OEhYaHiImKi4yNjo&#xA;+DlJWWl5iZmpucnZ6fkqOkpaanqKmqq6ytrq+v/aAAwDAQACEQMRAD8ALc6Z4x2KuxV2KuxV2Kux&#xA;V2KuxV2KuxV2KuxV2KuxV2KuxV2KuxV2KuxV2KuxV2KuxV2KuxV2KuxV2KuxVGaP/wAdex/5iIv+&#xA;JjIT+ks8f1D3oPJsHYq7FXYq7FXYq7FXYq7FXYq7FXYq7FWW+Sfy41XzVFNcxTJaWMLemZ5AWLPQ&#xA;EqqilaAitSMxs+qjj25lzNLopZt+QZX/AMqCu/8Aq8x/8iG/5rzG/lEdzmfyQf532O/5UFd/9XmP&#xA;/kQ3/NeP8ojuX+SD/O+x3/Kgrv8A6vMf/Ihv+a8f5RHcv8kH+d9jEPOn5fax5WeN52F1YzbR3kYI&#xA;UN/I4NeLeHjmVg1McnLm4Wq0csXPcd7FsyHEdirsVdirsVdirsVdirsVdirsVdirsVRmj/8AHXsf&#xA;+YiL/iYyE/pLPH9Q96DybB2KuxV2KuxV2KuxV2KuxV2KuxV2KuxV7j+Usjx/lzfyIxV0luWVhsQR&#xA;EpBGajWf3o+Dv+zzWA/F5X/jvzn/ANXq8/5HN/XNj+Xx/wA0Oo/N5f5xd/jvzn/1erz/AJHN/XH8&#xA;vj/mhfzeX+cWUfln5s8zX/nfTbS91O5uLaT1vUhkkZlbjbyMKgnsQDmPqsMBjJAH4Ll6HUZJZQDI&#xA;kb/c9u1DT7LUbKWyvYlntZ14yxN0I/gR2OamMjE2HfTgJCjyfO35heSJfKuqpGj+rp93yezlP2qK&#xA;RyR/8peQ375u9Nn8SPmHmdZpfBl5HkxXMlxHYq7FXYq7FXYq7FXYq7FXYq7FXYqjNH/469j/AMxE&#xA;X/ExkJ/SWeP6h70Hk2DsVdirsVdirsVdirsVdirsVdirsVdir2/8qf8AyW2o/wDGS6/5Mrmo1n96&#xA;Pg77s/8AuD8WE/l1r3kXTLe8TzHp63NxI6mCWSBbhQgG6hWrxNd69/ozL1OPJIjgLg6LLhgDxiz7&#xA;rZTqHnT8npLG4SLR4TI0bBAllHG3Ig0o4A4n3rmPHBnvn9rlz1Olo+n/AGLyfStUvtK1CDULGUw3&#xA;du3KKQAGm1CCDsQQaHNlOAkKPJ0+PIYSEhzD0Hy9+bfnC+8waZY3EkBguruCGULEAeEkiq1DXwOY&#xA;WTRwESR0DscPaOWUwDW5CZ/n/wD9KH/o7/5k5X2d/F8P0t3a/wDD8f0PIc2bpXYq7FXYq7FXYq7F&#xA;XYq7FXYq7FXYqjNH/wCOvY/8xEX/ABMZCf0lnj+oe9B5Ng7FXYq7FXYq7FXYq7FXYq7FXYq7FXYq&#xA;9v8Ayp/8ltqP/GS6/wCTK5qNZ/ej4O+7P/uD8WF/ltp35e3cF4fNEyLcqyi3jmleBOFN2VkZKtXq&#xA;K5l6qWUVwODooYSD4nP5Mr1PQvyQTTrlop7dJVjYxtDdzSSBqbcELuGNe3E5jQyaix+pzJ4tJwnc&#xA;fMvGc2ro038nf8pdof8A20LX/k8uVZ/ol7i3ab+8j/WH3vR/z/8A+lD/ANHf/MnMHs7+L4fpdp2v&#xA;/D8f0PIc2bpXYq7FXYq7FXYq7FXYq7FXYq7FXYqjNH/469j/AMxEX/ExkJ/SWeP6h70Hk2DsVdir&#xA;sVdirsVdirsVdirsVdirsVdir2/8qf8AyW2o/wDGS6/5Mrmo1n96Pg77s/8AuD8XiGbd0LsVZdo/&#xA;5WecNV06HULe3jS3uBzh9WQIzIejcd9j2zFnq4RNFzcegyzjxAbFPfL35SecLHzBpl9cRwCC1u4J&#xA;pSsoJ4RyKzUFPAZVk1kDEgdQ34ezssZgmtiGYfmv5L1zzN+i/wBFrG31T1/W9Rwn956fGlev2DmL&#xA;o88cd31c7tDTTy8PD0v9DxPXND1PQ9Rk0/UovRuYwDQEMCrbhlYbEHNtjyCYsOhy4pY5cMuaAybW&#xA;7FXYq7FXYq7FXYq7FXYq7FXYqjNH/wCOvY/8xEX/ABMZCf0lnj+oe9B5Ng7FXYq7FXYq7FXYq7FX&#xA;Yq7FXYq7FXYq9v8Ayp/8ltqP/GS6/wCTK5qNZ/ej4O+7P/uD8XiGbd0LsVfRl1Y3N/5J0K3s4Eug&#xA;yWTPC7skTRiME82QMQvToDmjEgMkidub00omWKIAvkl8mirZXVvFrVnc38QgmNqlklxOkDvNzESS&#xA;rxZeKEBWfj9FMmMlj0kD301nFwkCYJ2PKzW6K0Dy9rba5Hf6wkcklvbWq+tMGeT1BG/MRsrhOQYj&#xA;mSpqemRyZI8NR7yzw4Z8dy6APP8A89af4utKf8sEdf8AkdNmb2f9B9/6nW9q/wB6P6v6S85zOdY7&#xA;FXYq7FXYq7FXYq7FXYq7FXYqjNH/AOOvY/8AMRF/xMZCf0lnj+oe9B5Ng7FXYq7FXYq7FXYq7FXY&#xA;q7FXYq7FXYq9y/KKF5/y8vYYxWSSa5RB0+JolA/Xmo1prKPg7/s4XgI8ywL/AJU958/5Yo/+R8X/&#xA;ADVmZ+dx97rv5Nzd32u/5U958/5Yo/8AkfF/zVj+dx96/wAm5u77WT6PpH526RYx2NmY/qsQpFHI&#xA;9tJxHgGarU9q5jznp5Gzz+Ll48ergKHL4JxpX/K6f0pZ/pH0P0f68f1zj9Wr6PMepTjv9mvTKp/l&#xA;6Nc/i34/zXEOKqvfkqfm35x13y4dKGkzrCbr6x64ZEevp+nx+0DT7Zx0eCM74k9o6meLh4Tzv9Dx&#xA;PVtX1LV76S+1Gdrm6kpykag2GwACgKB7AZtYQERQ5OhyZJTNyNlB5Ng7FXYq7FXYq7FXYq7FXYq7&#xA;FXYqjNH/AOOvY/8AMRF/xMZCf0lnj+oe9B5Ng7FXYq7FXYq7FXYq7FXYq7FXYq7FXYqyHyt568we&#xA;WRMmmyIYJzykgmXmnICnIUIINPA5Rm08cnNydPq54vpZB/yu/wA5/wAln/yKf/mvKfyGPzcn+VMv&#xA;k7/ld/nP+Sz/AORT/wDNeP5DH5r/ACpl8nf8rv8AOf8AJZ/8in/5rx/IY/Nf5Uy+Tv8Ald/nP+Sz&#xA;/wCRT/8ANeP5DH5r/KmXyYp5k80ax5jvheanKHdF4RRoOKIta0UfPx3zIxYowFBw8+eWU3JKctaX&#xA;Yq7FXYq7FXYq7FXYq7FXYq7FXYqjNH/469j/AMxEX/ExkJ/SWeP6h71b/DXmL/q1Xn/SPL/zTg8W&#xA;HeGXgT/mn5O/w15i/wCrVef9I8v/ADTj4sO8L4E/5p+Tv8NeYv8Aq1Xn/SPL/wA04+LDvC+BP+af&#xA;k7/DXmL/AKtV5/0jy/8ANOPiw7wvgT/mn5O/w15i/wCrVef9I8v/ADTj4sO8L4E/5p+Tv8NeYv8A&#xA;q1Xn/SPL/wA04+LDvC+BP+afk7/DXmL/AKtV5/0jy/8ANOPiw7wvgT/mn5O/w15i/wCrVef9I8v/&#xA;ADTj4sO8L4E/5p+Tv8NeYv8Aq1Xn/SPL/wA04+LDvC+BP+afk7/DXmL/AKtV5/0jy/8ANOPiw7wv&#xA;gT/mn5O/w15i/wCrVef9I8v/ADTj4sO8L4E/5p+Tv8NeYv8Aq1Xn/SPL/wA04+LDvC+BP+afk7/D&#xA;XmL/AKtV5/0jy/8ANOPiw7wvgT/mn5O/w15i/wCrVef9I8v/ADTj4sO8L4E/5p+Tv8NeYv8Aq1Xn&#xA;/SPL/wA04+LDvC+BP+afk7/DXmL/AKtV5/0jy/8ANOPiw7wvgT/mn5O/w15i/wCrVef9I8v/ADTj&#xA;4sO8L4E/5p+Tv8NeYv8Aq1Xn/SPL/wA04+LDvC+BP+afk7/DXmL/AKtV5/0jy/8ANOPiw7wvgT/m&#xA;n5O/w15i/wCrVef9I8v/ADTj4sO8L4E/5p+Tv8NeYv8Aq1Xn/SPL/wA04+LDvC+BP+afk7/DXmL/&#xA;AKtV5/0jy/8ANOPiw7wvgT/mn5O/w15i/wCrVef9I8v/ADTj4sO8L4E/5p+Tv8NeYv8Aq1Xn/SPL&#xA;/wA04+LDvC+BP+afk7/DXmL/AKtV5/0jy/8ANOPiw7wvgT/mn5O/w15i/wCrVef9I8v/ADTj4sO8&#xA;L4E/5p+Tv8NeYv8Aq1Xn/SPL/wA04+LDvC+BP+afk7/DXmL/AKtV5/0jy/8ANOPiw7wvgT/mn5O/&#xA;w15i/wCrVef9I8v/ADTj4sO8L4E/5p+Tv8NeYv8Aq1Xn/SPL/wA04+LDvC+BP+afk7/DXmL/AKtV&#xA;5/0jy/8ANOPiw7wvgT/mn5IrSfLvmBNVsmbTLtVWeIsxgkAADjc/DkZ5Y8J3DPHhnxD0nn3Pp/Of&#xA;erdirsVdirsVdirsVdirsVdirsVdirsVdirsVdirsVdirsVdirsVdirsVdirsVdirsVdirsVdirs&#xA;VdirsVdirsVdirsVdirCvM/50flh5X1iXRte16Kx1OBUaW2eOdiokUOpqkbLupr1xVOdC88eUdf0&#xA;abWdF1W3v9NtgzXFxA/P0+C8mEij41IXehFcVYj/ANDI/kl/1NMH/Im5/wCqWKsh1b80fy/0jQLD&#xA;zBqWt29rpOqIJNOuJOQM6MvIGOPj6h26/Dtiqv5O/MPyV5zgmn8satDqS25AuEj5JJHy+yXjkCOo&#xA;NDQlcVSfXfzy/KbQtXk0jVPMtrDqELenNCoklEbjYrI8SOiMO4Y7d8VZnaX1le2UV9Z3EdxZToJY&#xA;LmJ1eJ42FQ6upKlSO4xVJfJ/5geTfOUN1N5Z1SLU47J1jujGHXgzglah1U70NCNsVSbzB+eP5VeX&#xA;tYudG1nzBFZ6nZsFubZop2KFlDgEpGy/ZYHY4qyHyv5y8rea7Fr/AMu6nBqdrG3pySQNyKPSvF1N&#xA;GU033GKsY1D8/vyd0/U3026802i3cbmOQIJZY1YGhBljRohQ9fixVnVle2d9aQ3llPHc2lwiyW9x&#xA;CweORGFVZGUkMCOhGKpJ5R/MLyZ5wF4fLWqxan+j2VLz0g49MycuFearUNwahG22KpN5g/PH8qvL&#xA;2sXOjaz5gis9Ts2C3Ns0U7FCyhwCUjZfssDscVT/AMq+dvKfmyykvfLmqQanbxMEmaBqlGIqA6Gj&#xA;LUeIxVC+c/zI8keSvqf+KNVj0z6/6n1P1Elf1PR4epT00enH1F6+OKteUfzM8h+cHlj8t63bajNC&#xA;vOWCMlZVSvHkY5Aj8a96Yqx6D/nIv8lJpViTzVbBm2BdJ41+lnjVR9JxVk3mX8wfJnlrRLbXda1W&#xA;G20i8kSG1vl5TRyPIjSIEMIkrVI2NemKpN5f/PH8qvMOsW2jaN5givNTvGK21ssU6lyqlyAXjVfs&#xA;qTucVZ1irsVdirsVdirsVdirsVdirsVdirsVfOsOkaTqv/OYOu2uqWUF/bDRY3EFzEkychFbANxc&#xA;MKivXFUrsdOsPLH/ADkF560DyzEtrol55bnuL/TreiQQSi3R1IjGwoz7AdPUNNsVSL8kbHz/ADfl&#xA;3YPo/wCXGgeYrAyXHp6rqL2y3EhEzclYSfFRD8I9sVZh+cPkjV9W8yeSr3y8+hHzdo9iAfIF7Jbm&#xA;JhxMjehbMVVkUhxX4RRQVaoxVIfJfmG30rzH56+u+Tj5P/M5PL19dQixlZbGZYYFcCG3BaNGLxK4&#xA;ZSwY8jUHqqn35Aflv+WWr/kZ+ldf060urnUxfNrWp3Ko88IimlQMkzhmh4RIr1Wm/wAWKo38wfMX&#xA;kr8vP+cdZ7PyLqS3thqRk0zSLhLkXJ53bM1yRIK8SieoaCnFqdDirzb8iPMflbyT+bmj6RomspqW&#xA;j+atLtbXVGX1AkOrcdlHqLGT++UqnXaTFUbr2r6npH57/mPqFn5Lt/OcNtFby3kFwI2+rRJBETKq&#xA;ukpbwPEVxVS8iwahD+UH5p/mJozWunLr6ehbaLpjHjYokjCbkAF4MsVwSlOg32qKKso0by15N0v/&#xA;AJx88v3Nn5BHnGXXLeuqy2iIbyKSSNzLP9Y9OV09J14LSnHFW4vzP8vaF/zi1c3/AJatJ9IiuZbj&#xA;R9Hs7m5N1Ks1wzGV1lIT7KNJIABQEYqwX8j/ADH5W8jfmr5btNG1hNR03zRpkFlrvESAW+qSGqqP&#xA;UWOoEwVVbwZsVTHXtU1PS/8AnIX8wb+x8nQec1t7ZJLqyuAjCCJIrdmnVXSUsRTjRVrvirN/+cU9&#xA;NTU9R81+f4EstNstbmW3t9A09/gtfSZnYSx0UId14U7FjQAjFVv/ADlRcG287flbcDSzrZivb5xo&#xA;6qHN1R7P9yFKuDz6fZOKqH5c+SvNWtfnnZ+ff8Ff4D0DTrOSKWyJSM3MzxSwgmJVi+I+qCfgC/AN&#xA;6ndVR/5xj8ieSfMn5LagvmHSrO6Et/dxS3s0UfrRxiKI1WdhzThUkEHbFXkd9qOoXn/OKNjDdyNJ&#xA;FYecTbWQavwwnTpJuK17epM5xV9K/lnZeeH8zq/mT8sNF8r2cMLyQatZNYyTLPUKqKIGdxyVm3xV&#xA;69irsVdirsVdirsVdirsVdirsVdirsVeR+dP+cfh5h893fnOw82ap5e1O7hjt3Omt6LCOONU4+oj&#xA;I9G4AkYqm/kf8kPLnlKy1v0r281TWvMETw6nrmoOJrlldSKKaCgqeRrUk9TsKKsO0n/nGDUtHsUs&#xA;NI/MnzFp1jGWMdpaTvBEpY8mIjjkVRUmp2xVO/Nf/OPVl5hsdAnbzLqdt5r8vQ/V7bzQshe7lQMz&#xA;gzEsHLKztxIcHc9cVR35b/kbp3lHXb/zJqms3nmjzLqEJtpdS1Ak8YDSqKhaStQiirMdhQUFaqsU&#xA;1H/nFDTPrN/B5f8ANmq6D5d1Ri1/oNuxaBweqfbQFOwDq304qyS7/wCcefKUreT7SK4mi0Hyc7TW&#xA;2kMqSJdTvIJHluXNObOyiu1OoFAaYqmH5j/kl5W852NhFDx0G+026W7tdR0+CJJQygjj0G1eLfMD&#xA;FUf5a/LCz0Pz75g85i+kubzzFFDFc2zIqxJ6KqtUoSfi4dDiqU+UvyL0Dyv5h8xXmn3cjeX/ADNH&#xA;JHqHlmRFNmBJ14UoRTk6gfytTwxVij/84tfVY7nTNA89a3o/li7cvNocUhaOj/bUMHQUPT4kNe9c&#xA;VTmT/nGvyf8AVfKumQ3t0uh+WLp779HS8JReTyOju1wxAFD6YXiqgUJ8cVTv8yfyS8p+dtItrFEX&#xA;Q7qzuUu7bUdPhiSZWQEcagL8J5V+YGKq/lf8qLTQvzE1rzydSmu9Q1y2jt7qB40SNSgiBdeO/wAR&#xA;hrT3xVD+Tfyb0vyd561nzLoWoTW1hrlWvNACJ9VEleQeM/aXi5YqOgDEdMVTDzt+Wdj5r80eU/MF&#xA;xey203lO5kureCNVZZmlaFirk7gD0B08cVZnirwPTf8AnE9NP02TSLbz7r1volwWN1pltL6MEvMA&#xA;PyjVjGeQABqpxVlfm3/nH3ynrn5c6X5CsZ5tI0nSbtb2GSILLK8gjlRjIX6lzOWJ+7bFXqOKuxV2&#xA;KuxV2KuxV2KuxV2KuxV2KuxV2KuxV2KuxV2KuxV2KuxV2KuxV2KuxV2KuxV2KuxV2KuxV2KuxV2K&#xA;uxV2KuxV2KuxV2KuxV2KuxV2KuxV2KuxV2KuxV2KuxV2KuxV2KuxV2KuxV2KuxV2KuxV2KuxV2Ku&#xA;xV2KuxV2KuxV2KuxV2Kv/9k=</xmpGImg:image>
               </rdf:li>
            </rdf:Alt>
         </xmp:Thumbnails>
      </rdf:Description>
      <rdf:Description rdf:about=""
            xmlns:xmpMM="http://ns.adobe.com/xap/1.0/mm/"
            xmlns:stRef="http://ns.adobe.com/xap/1.0/sType/ResourceRef#"
            xmlns:stEvt="http://ns.adobe.com/xap/1.0/sType/ResourceEvent#">
         <xmpMM:InstanceID>xmp.iid:9abfa668-2609-c146-aeb5-945099e7e6e3</xmpMM:InstanceID>
         <xmpMM:DocumentID>xmp.did:9abfa668-2609-c146-aeb5-945099e7e6e3</xmpMM:DocumentID>
         <xmpMM:OriginalDocumentID>uuid:5D20892493BFDB11914A8590D31508C8</xmpMM:OriginalDocumentID>
         <xmpMM:RenditionClass>proof:pdf</xmpMM:RenditionClass>
         <xmpMM:DerivedFrom rdf:parseType="Resource">
            <stRef:instanceID>uuid:ff470bc6-f939-440e-8f31-27b0eb70075c</stRef:instanceID>
            <stRef:documentID>xmp.did:4de20fe2-e96f-dd46-b8bd-1606dc72d06f</stRef:documentID>
            <stRef:originalDocumentID>uuid:5D20892493BFDB11914A8590D31508C8</stRef:originalDocumentID>
            <stRef:renditionClass>proof:pdf</stRef:renditionClass>
         </xmpMM:DerivedFrom>
         <xmpMM:History>
            <rdf:Seq>
               <rdf:li rdf:parseType="Resource">
                  <stEvt:action>saved</stEvt:action>
                  <stEvt:instanceID>xmp.iid:9abfa668-2609-c146-aeb5-945099e7e6e3</stEvt:instanceID>
                  <stEvt:when>2017-04-11T01:59:07-05:00</stEvt:when>
                  <stEvt:softwareAgent>Adobe Illustrator CC (Windows)</stEvt:softwareAgent>
                  <stEvt:changed>/</stEvt:changed>
               </rdf:li>
            </rdf:Seq>
         </xmpMM:History>
      </rdf:Description>
      <rdf:Description rdf:about=""
            xmlns:illustrator="http://ns.adobe.com/illustrator/1.0/">
         <illustrator:StartupProfile>Print</illustrator:StartupProfile>
      </rdf:Description>
      <rdf:Description rdf:about=""
            xmlns:xmpTPg="http://ns.adobe.com/xap/1.0/t/pg/"
            xmlns:stDim="http://ns.adobe.com/xap/1.0/sType/Dimensions#"
            xmlns:xmpG="http://ns.adobe.com/xap/1.0/g/">
         <xmpTPg:HasVisibleOverprint>False</xmpTPg:HasVisibleOverprint>
         <xmpTPg:HasVisibleTransparency>True</xmpTPg:HasVisibleTransparency>
         <xmpTPg:NPages>1</xmpTPg:NPages>
         <xmpTPg:MaxPageSize rdf:parseType="Resource">
            <stDim:w>5.492981</stDim:w>
            <stDim:h>2.619513</stDim:h>
            <stDim:unit>Centimeters</stDim:unit>
         </xmpTPg:MaxPageSize>
         <xmpTPg:PlateNames>
            <rdf:Seq>
               <rdf:li>Cyan</rdf:li>
               <rdf:li>Magenta</rdf:li>
               <rdf:li>Yellow</rdf:li>
               <rdf:li>Black</rdf:li>
            </rdf:Seq>
         </xmpTPg:PlateNames>
         <xmpTPg:SwatchGroups>
            <rdf:Seq>
               <rdf:li rdf:parseType="Resource">
                  <xmpG:groupName>Default Swatch Group</xmpG:groupName>
                  <xmpG:groupType>0</xmpG:groupType>
               </rdf:li>
            </rdf:Seq>
         </xmpTPg:SwatchGroups>
      </rdf:Description>
      <rdf:Description rdf:about=""
            xmlns:pdf="http://ns.adobe.com/pdf/1.3/">
         <pdf:Producer>Adobe PDF library 10.01</pdf:Producer>
      </rdf:Description>
   </rdf:RDF>
</x:xmpmeta>
                                                                                                    
                                                                                                    
                                                                                                    
                                                                                                    
                                                                                                    
                                                                                                    
                                                                                                    
                                                                                                    
                                                                                                    
                                                                                                    
                                                                                                    
                                                                                                    
                                                                                                    
                                                                                                    
                                                                                                    
                                                                                                    
                                                                                                    
                                                                                                    
                                                                                                    
                                                                                                    
                           
<?xpacket end="w"?>
	</metadata>
<g>
	<rect id="XMLID_75_" x="0.541" opacity="0.5" fill="#FFFFFF" enable-background="new    " width="154.914" height="74.254"/>
	<rect id="XMLID_70_" fill="#3B86B1" width="155.335" height="48.154"/>
	<rect id="XMLID_69_" y="57.455" fill="none" width="155.707" height="13.102"/>
	<g enable-background="new    ">
		<path d="M30.673,57.457h2.906c0.655,0,1.155,0.05,1.499,0.15c0.462,0.136,0.857,0.378,1.187,0.726
			c0.33,0.347,0.58,0.772,0.752,1.275s0.258,1.123,0.258,1.861c0,0.647-0.081,1.206-0.242,1.676
			c-0.197,0.572-0.478,1.036-0.843,1.391c-0.276,0.269-0.648,0.479-1.117,0.629c-0.351,0.11-0.82,0.166-1.407,0.166h-2.992V57.457z
			 M32.263,58.789v5.216h1.187c0.444,0,0.765-0.025,0.961-0.076c0.258-0.064,0.472-0.173,0.642-0.327
			c0.17-0.154,0.309-0.407,0.417-0.76s0.161-0.834,0.161-1.442s-0.054-1.076-0.161-1.402c-0.107-0.325-0.258-0.58-0.451-0.762
			c-0.193-0.184-0.438-0.307-0.736-0.371c-0.222-0.05-0.657-0.075-1.305-0.075H32.263z"/>
		<path d="M38.623,65.331v-7.874h5.838v1.332h-4.249v1.745h3.953v1.327h-3.953v2.144h4.399v1.326H38.623z"/>
		<path d="M45.557,62.769l1.547-0.15c0.093,0.52,0.282,0.901,0.566,1.145c0.285,0.243,0.669,0.365,1.152,0.365
			c0.512,0,0.898-0.108,1.157-0.325c0.26-0.217,0.39-0.47,0.39-0.76c0-0.187-0.055-0.345-0.164-0.476
			c-0.109-0.131-0.3-0.244-0.572-0.341c-0.186-0.064-0.61-0.179-1.273-0.344c-0.852-0.211-1.45-0.471-1.794-0.778
			c-0.483-0.434-0.725-0.962-0.725-1.585c0-0.401,0.114-0.776,0.341-1.125c0.227-0.35,0.555-0.615,0.982-0.798
			c0.428-0.183,0.945-0.273,1.55-0.273c0.988,0,1.732,0.216,2.231,0.649c0.5,0.434,0.762,1.012,0.787,1.735l-1.59,0.069
			c-0.068-0.404-0.214-0.695-0.438-0.873c-0.224-0.177-0.56-0.266-1.007-0.266c-0.462,0-0.824,0.095-1.085,0.284
			c-0.168,0.122-0.252,0.285-0.252,0.489c0,0.187,0.079,0.346,0.236,0.478c0.201,0.169,0.688,0.344,1.461,0.527
			c0.773,0.182,1.346,0.371,1.716,0.566c0.371,0.195,0.661,0.462,0.87,0.8c0.21,0.339,0.314,0.757,0.314,1.255
			c0,0.451-0.125,0.873-0.376,1.268c-0.25,0.394-0.605,0.687-1.063,0.878s-1.029,0.287-1.713,0.287c-0.996,0-1.76-0.23-2.293-0.69
			S45.661,63.649,45.557,62.769z"/>
		<path d="M58.334,62.437l1.542,0.488c-0.236,0.859-0.629,1.498-1.179,1.915c-0.55,0.417-1.247,0.626-2.092,0.626
			c-1.045,0-1.905-0.357-2.578-1.072c-0.673-0.714-1.01-1.69-1.01-2.93c0-1.311,0.338-2.328,1.015-3.054
			c0.677-0.725,1.566-1.087,2.669-1.087c0.963,0,1.746,0.284,2.347,0.854c0.358,0.337,0.626,0.82,0.806,1.45l-1.574,0.376
			c-0.093-0.408-0.288-0.73-0.583-0.967c-0.296-0.236-0.655-0.354-1.077-0.354c-0.583,0-1.057,0.21-1.421,0.628
			c-0.363,0.42-0.545,1.098-0.545,2.036c0,0.995,0.179,1.704,0.537,2.127s0.824,0.634,1.396,0.634c0.422,0,0.786-0.135,1.09-0.402
			C57.983,63.435,58.202,63.013,58.334,62.437z"/>
		<path d="M68.341,65.331h-1.729l-0.688-1.789h-3.147l-0.65,1.789H60.44l3.067-7.874h1.681L68.341,65.331z M65.414,62.216
			l-1.085-2.922l-1.063,2.922H65.414z"/>
		<path d="M69.189,65.331v-7.874h3.346c0.841,0,1.453,0.07,1.834,0.212c0.381,0.142,0.687,0.394,0.916,0.755
			s0.344,0.775,0.344,1.241c0,0.59-0.174,1.078-0.521,1.463s-0.867,0.628-1.558,0.729c0.344,0.2,0.627,0.42,0.852,0.66
			c0.224,0.24,0.525,0.666,0.905,1.278l0.961,1.536h-1.901l-1.149-1.713c-0.408-0.613-0.688-0.999-0.838-1.158
			s-0.31-0.269-0.478-0.327c-0.168-0.06-0.435-0.089-0.8-0.089h-0.322v3.287H69.189z M70.779,60.787h1.176
			c0.763,0,1.239-0.032,1.429-0.097s0.338-0.176,0.446-0.333s0.161-0.354,0.161-0.591c0-0.265-0.071-0.479-0.212-0.642
			c-0.142-0.163-0.341-0.267-0.599-0.31c-0.129-0.018-0.516-0.026-1.16-0.026h-1.241V60.787z"/>
		<path d="M80.791,62.437v-1.327h3.428v3.137c-0.334,0.322-0.816,0.606-1.448,0.852s-1.272,0.368-1.92,0.368
			c-0.823,0-1.542-0.173-2.153-0.519c-0.613-0.346-1.073-0.84-1.381-1.482s-0.462-1.342-0.462-2.098c0-0.82,0.172-1.549,0.516-2.187
			c0.344-0.637,0.847-1.126,1.509-1.466c0.506-0.262,1.134-0.392,1.886-0.392c0.978,0,1.741,0.204,2.291,0.614
			s0.903,0.977,1.061,1.7l-1.579,0.295c-0.111-0.387-0.319-0.691-0.626-0.915c-0.306-0.224-0.688-0.336-1.146-0.336
			c-0.694,0-1.247,0.22-1.657,0.661c-0.41,0.439-0.615,1.094-0.615,1.96c0,0.935,0.208,1.636,0.623,2.103
			c0.416,0.468,0.96,0.701,1.633,0.701c0.334,0,0.668-0.065,1.002-0.196c0.335-0.131,0.623-0.289,0.862-0.476v-0.998H80.791z"/>
		<path d="M92.785,65.331h-1.729l-0.688-1.789H87.22l-0.65,1.789h-1.686l3.066-7.874h1.682L92.785,65.331z M89.857,62.216
			l-1.084-2.922l-1.064,2.922H89.857z"/>
		<path d="M93.633,65.331v-7.874h3.347c0.841,0,1.452,0.07,1.834,0.212c0.381,0.142,0.687,0.394,0.916,0.755
			c0.229,0.361,0.344,0.775,0.344,1.241c0,0.59-0.174,1.078-0.521,1.463s-0.867,0.628-1.558,0.729c0.344,0.2,0.628,0.42,0.852,0.66
			s0.525,0.666,0.905,1.278l0.961,1.536h-1.901l-1.149-1.713c-0.408-0.613-0.688-0.999-0.838-1.158s-0.31-0.269-0.479-0.327
			c-0.168-0.06-0.435-0.089-0.8-0.089h-0.322v3.287H93.633z M95.223,60.787H96.4c0.762,0,1.238-0.032,1.428-0.097
			c0.19-0.064,0.339-0.176,0.446-0.333s0.161-0.354,0.161-0.591c0-0.265-0.07-0.479-0.212-0.642s-0.341-0.267-0.599-0.31
			c-0.129-0.018-0.516-0.026-1.16-0.026h-1.241V60.787z"/>
		<path d="M104.628,65.331v-7.874h2.551c0.967,0,1.598,0.039,1.891,0.118c0.451,0.118,0.829,0.375,1.133,0.771
			c0.305,0.396,0.457,0.907,0.457,1.534c0,0.482-0.088,0.89-0.264,1.219c-0.175,0.329-0.398,0.588-0.668,0.776
			c-0.271,0.188-0.545,0.312-0.824,0.373c-0.38,0.075-0.93,0.112-1.649,0.112h-1.036v2.971H104.628z M106.218,58.789v2.234h0.869
			c0.627,0,1.046-0.041,1.258-0.124c0.211-0.082,0.377-0.211,0.496-0.387c0.12-0.175,0.18-0.379,0.18-0.611
			c0-0.287-0.084-0.523-0.252-0.709c-0.168-0.187-0.381-0.303-0.639-0.35c-0.19-0.036-0.572-0.054-1.145-0.054H106.218z"/>
		<path d="M111.959,57.457h2.905c0.656,0,1.155,0.05,1.499,0.15c0.462,0.136,0.857,0.378,1.187,0.726
			c0.33,0.347,0.58,0.772,0.752,1.275s0.258,1.123,0.258,1.861c0,0.647-0.08,1.206-0.241,1.676
			c-0.196,0.572-0.478,1.036-0.843,1.391c-0.276,0.269-0.648,0.479-1.117,0.629c-0.352,0.11-0.82,0.166-1.408,0.166h-2.991V57.457z
			 M113.549,58.789v5.216h1.187c0.444,0,0.766-0.025,0.962-0.076c0.258-0.064,0.472-0.173,0.642-0.327s0.309-0.407,0.416-0.76
			s0.162-0.834,0.162-1.442s-0.055-1.076-0.162-1.402c-0.107-0.325-0.258-0.58-0.451-0.762c-0.193-0.184-0.438-0.307-0.735-0.371
			c-0.222-0.05-0.657-0.075-1.306-0.075H113.549z"/>
		<path d="M119.919,65.331v-7.874h5.398v1.332h-3.809v1.864h3.287v1.332h-3.287v3.346H119.919z"/>
	</g>
	<g id="XMLID_55_">
		<path id="XMLID_67_" fill="#FFFFFF" d="M76.332,15.24h-4.789c-0.738,0-1.337,0.598-1.337,1.337c0,0.739,0.598,1.337,1.337,1.337
			h4.789c0.738,0,1.337-0.598,1.337-1.337C77.669,15.838,77.071,15.24,76.332,15.24z"/>
		<path id="XMLID_66_" fill="#FFFFFF" d="M76.332,20.795h-4.789c-0.738,0-1.337,0.598-1.337,1.337c0,0.739,0.598,1.337,1.337,1.337
			h4.789c0.738,0,1.337-0.598,1.337-1.337C77.669,21.393,77.071,20.795,76.332,20.795z"/>
		<path id="XMLID_65_" fill="#FFFFFF" d="M81.953,30.154v1.302h0.688c0.834,0,0.834-0.499,0.834-0.663c0-0.158,0-0.639-0.834-0.639
			H81.953L81.953,30.154z"/>
		<path id="XMLID_58_" fill="#FFFFFF" d="M92.105,27.694H89.93V14.145c0-0.351-0.14-0.687-0.388-0.934l-5.246-5.247
			c-0.248-0.248-0.584-0.387-0.935-0.387H67.573c-1.431,0-2.594,1.164-2.594,2.594v27.812c0,1.431,1.164,2.594,2.594,2.594h19.762
			c1.431,0,2.595-1.164,2.595-2.594v-2.678h2.175c1.131,0,2.047-0.917,2.047-2.047V29.74C94.152,28.611,93.236,27.694,92.105,27.694
			z M87.113,37.688H67.796V10.465h13.731v3.883c0,0.941,0.762,1.703,1.702,1.703h3.883v11.643h-6.61
			c-1.131,0-2.047,0.917-2.047,2.047v3.517c0,1.131,0.918,2.047,2.047,2.047h6.61L87.113,37.688L87.113,37.688z M84.32,30.793
			c0,0.93-0.645,1.508-1.68,1.508h-0.688v0.8c0,0.206-0.168,0.374-0.375,0.374H81.48c-0.207,0-0.374-0.168-0.374-0.374v-3.419
			c0-0.206,0.167-0.374,0.374-0.374h1.159C83.675,29.308,84.32,29.877,84.32,30.793z M86.44,33.475h-1.345
			c-0.207,0-0.374-0.168-0.374-0.374v-3.419c0-0.206,0.167-0.374,0.374-0.374h1.345c1.172,0,2.125,0.936,2.125,2.086
			C88.565,32.542,87.612,33.475,86.44,33.475z M91.8,29.78c0,0.207-0.168,0.374-0.375,0.374h-1.518v0.896h1.293
			c0.207,0,0.375,0.167,0.375,0.374v0.098c0,0.206-0.168,0.374-0.375,0.374h-1.293v1.206c0,0.206-0.168,0.374-0.375,0.374h-0.098
			c-0.207,0-0.374-0.168-0.374-0.374v-3.419c0-0.206,0.167-0.374,0.374-0.374h1.99c0.207,0,0.373,0.168,0.373,0.374v0.097H91.8z"/>
		<path id="XMLID_57_" fill="#FFFFFF" d="M86.44,30.154h-0.874v2.476h0.874c0.705,0,1.278-0.554,1.278-1.235
			C87.718,30.71,87.145,30.154,86.44,30.154z"/>
	</g>
</g>
</svg>
