<?xml version="1.0" encoding="utf-8"?>
<!-- Generator: Adobe Illustrator 16.0.0, SVG Export Plug-In . SVG Version: 6.00 Build 0)  -->
<!DOCTYPE svg PUBLIC "-//W3C//DTD SVG 1.1//EN" "http://www.w3.org/Graphics/SVG/1.1/DTD/svg11.dtd">
<svg version="1.1" id="Capa_1" xmlns="http://www.w3.org/2000/svg" xmlns:xlink="http://www.w3.org/1999/xlink" x="0px" y="0px"
	 width="154.914px" height="74.254px" viewBox="0 0 154.914 74.254" enable-background="new 0 0 154.914 74.254"
	 xml:space="preserve">
<metadata><?xpacket begin="﻿" id="W5M0MpCehiHzreSzNTczkc9d"?>
<x:xmpmeta xmlns:x="adobe:ns:meta/" x:xmptk="Adobe XMP Core 5.3-c011 66.145661, 2012/02/06-14:56:27        ">
   <rdf:RDF xmlns:rdf="http://www.w3.org/1999/02/22-rdf-syntax-ns#">
      <rdf:Description rdf:about=""
            xmlns:dc="http://purl.org/dc/elements/1.1/">
         <dc:format>image/svg+xml</dc:format>
         <dc:title>
            <rdf:Alt>
               <rdf:li xml:lang="x-default">Imprimir</rdf:li>
            </rdf:Alt>
         </dc:title>
      </rdf:Description>
      <rdf:Description rdf:about=""
            xmlns:xmp="http://ns.adobe.com/xap/1.0/"
            xmlns:xmpGImg="http://ns.adobe.com/xap/1.0/g/img/">
         <xmp:MetadataDate>2017-04-11T01:59:07-05:00</xmp:MetadataDate>
         <xmp:ModifyDate>2017-04-11T01:59:07-05:00</xmp:ModifyDate>
         <xmp:CreateDate>2017-04-11T01:59:07-05:00</xmp:CreateDate>
         <xmp:CreatorTool>Adobe Illustrator CC (Windows)</xmp:CreatorTool>
         <xmp:Thumbnails>
            <rdf:Alt>
               <rdf:li rdf:parseType="Resource">
                  <xmpGImg:width>256</xmpGImg:width>
                  <xmpGImg:height>124</xmpGImg:height>
                  <xmpGImg:format>JPEG</xmpGImg:format>
                  <xmpGImg:image>/9j/4AAQSkZJRgABAgEBLAEsAAD/7QAsUGhvdG9zaG9wIDMuMAA4QklNA+0AAAAAABABLAAAAAEA&#xA;AQEsAAAAAQAB/+4ADkFkb2JlAGTAAAAAAf/bAIQABgQEBAUEBgUFBgkGBQYJCwgGBggLDAoKCwoK&#xA;DBAMDAwMDAwQDA4PEA8ODBMTFBQTExwbGxscHx8fHx8fHx8fHwEHBwcNDA0YEBAYGhURFRofHx8f&#xA;Hx8fHx8fHx8fHx8fHx8fHx8fHx8fHx8fHx8fHx8fHx8fHx8fHx8fHx8fHx8f/8AAEQgAfAEAAwER&#xA;AAIRAQMRAf/EAaIAAAAHAQEBAQEAAAAAAAAAAAQFAwIGAQAHCAkKCwEAAgIDAQEBAQEAAAAAAAAA&#xA;AQACAwQFBgcICQoLEAACAQMDAgQCBgcDBAIGAnMBAgMRBAAFIRIxQVEGE2EicYEUMpGhBxWxQiPB&#xA;UtHhMxZi8CRygvElQzRTkqKyY3PCNUQnk6OzNhdUZHTD0uIIJoMJChgZhJRFRqS0VtNVKBry4/PE&#xA;1OT0ZXWFlaW1xdXl9WZ2hpamtsbW5vY3R1dnd4eXp7fH1+f3OEhYaHiImKi4yNjo+Ck5SVlpeYmZ&#xA;qbnJ2en5KjpKWmp6ipqqusra6voRAAICAQIDBQUEBQYECAMDbQEAAhEDBCESMUEFURNhIgZxgZEy&#xA;obHwFMHR4SNCFVJicvEzJDRDghaSUyWiY7LCB3PSNeJEgxdUkwgJChgZJjZFGidkdFU38qOzwygp&#xA;0+PzhJSktMTU5PRldYWVpbXF1eX1RlZmdoaWprbG1ub2R1dnd4eXp7fH1+f3OEhYaHiImKi4yNjo&#xA;+DlJWWl5iZmpucnZ6fkqOkpaanqKmqq6ytrq+v/aAAwDAQACEQMRAD8ALc6Z4x2KuxV2KuxV2Kux&#xA;V2KuxV2KuxV2KuxV2KuxV2KuxV2KuxV2KuxV2KuxV2KuxV2KuxV2KuxV2KuxV2KuxV2KuxV2KuxV&#xA;2KuxV2KuxV2KuxV2KuxV2KuxVMtP8teYdRobHTbm4VujpE5T/gqcfxyuWWMeZDbDBOXIEsjsfyf8&#xA;83ShntI7VT09eVAfuQuR9OUS1uMdbcqHZuY9KRE35KedY05ILaU/yJNQ/wDDqo/HIjXY/NkezMvk&#xA;k93+W3nm0r6ujzNT/fPGb/k0z5bHVYz1aJaLMP4Skt3pGrWdfrllPbU6+tE6f8SAy0TieRaJY5R5&#xA;ghCZNg7FXYq7FXYq7FXYq7FXYq7FXYq7FXYq7FXYq7FXYq7FXYq7FXYq7FXYq7FXqPlX8mVu9Nj1&#xA;LzBePZRSqJFtouKuqHcGR3DKpI7U27+Ga7NrqNRFu20/Zlx4pmmZaZ+UPkSBVkMEl+CKpJNMSD70&#xA;i9NT92Ys9bkPk50OzsI6WybT/LXl7TqGx022t2Xo8cSB/wDgqcvxyiWWUuZLlQwQjyACZZW2uxV2&#xA;KqF3qFhZJ6l5cxW0f88zrGPvYjJRiTyDGUxHmaY3qH5p+RrKobUlncdEt1eWv+yUcP8AhsvjpMh6&#xA;OLPX4Y9XiXn/AF3SNd8xy6lpcUkMEkaK4lVUJdBxLAKWFCoGbbT45QhRdFq8sck+KLHMvcV2KuxV&#xA;2KuxV2KuxV2KuxV2KuxV2KuxV2KuxV2KuxV2KuxV2KuxV2Kq1k8KXkDzisCyIZRStUDAtt8sjLls&#xA;yiRYt7d+c+m65qeh2EulK9zYxu0l3FBVywZV9KTiv2lX4vvzU6GUYyPFzd92nCc4Dh3HV4/pXmLz&#xA;Dokp/R17PaFT8USseFf8qNqqfpGbSeKM+Yt0mPNPH9JIZ3ov566xABHq9lHeqNvWhPoyfMijIfoA&#xA;zDydnxP0mnY4u1ZD6haeP+fWjCMFNLuWk3qpdAK9txX9WU/yfLvDee1ofzSkWp/nvrs1V06wt7RT&#xA;+1KWmf6Kemv4ZdHs+I5m3Hn2tM/SAGKaj+YnnXUKifVp0U/sQEQCnh+6CfjmTHTY48g4k9Zllzkf&#xA;uSEm5up9+c88h93dj+JOXbAONuT3lPdP/Lzzrfrzt9InCkVBmCwAj29UpXKZanGOZciGjyy5RP3f&#xA;ekM8E1vPJBMhjmiYpLG2xVlNGB+Ry4GxbjkEGip4UOxV2KuxV2KuxV2KuxV2KuxV2KuxV2KuxV2K&#xA;uxV2KuxV2KuxV2KuxVVtbeW5uYraIVlmdY4x4s5oPxOAmhaYxs0H0HqXmDSfy78tadY3DTX0wQxW&#xA;6Vq78KF2q2yovIADsKDNJHHLPMkbPSTzR02MA7pMPPf5XeaQI9atVt52FOd3HQ/JZ46kD5kZb+Xz&#xA;Y/pLR+b0+X6xR8/1oe//ACX8tanEbry9qhiRq8RyW5h+SspDD7zko66cdpD9DGfZmOe8JfpYw35I&#xA;+chcekr2jR1oJ/VYLTxI4cvwzI/P466uL/JeW+ie6d+QqgB9U1agG7x20dKeP7yQ/wDGmUy7Q7g5&#xA;EOyf50vkmH+Gvya8vit9dQ3MydfXnM7/AExQ7f8ACZDxc8+QbPA0uPmb+N/YFsn5veRdIQxaJpbv&#xA;QUHoxR20Z+n7X/C4jRZJfUf0oPaOGG0I/oY9qf56eY56rYWdvZIejNymkHyJ4L/wuXx7PgOZJcaf&#xA;asz9IAee6hfXOoXs97dMHubl2kmcKqgsxqTRQBmbGIiKDrZzMiSeZQ+SYuxV2KuxV2KuxV2KuxV2&#xA;KuxV2KuxV2KuxV2KuxV2KuxV2KuxV2KuxVWs7qS0u4LqP+8gkWVK/wAyMGH6sEhYplGVEHue++Yf&#xA;LWm/mL5e07UYJXspgpktpHQmgegdHU8aiq7MD7ioOaXHlOCRHN6LNgjqYCQ2eZa1+UPnLTavDAmo&#xA;Qj9u1bk3/ItuL/cDmwhrccvJ1WXs7LHkL9zF4bnWtFvG9KS4068XZwpeGQezD4T9+ZBEZjoQ4glO&#xA;B2uJZAPzX8+i39D9JmnT1DFDzp/rcPx65R+Tx3ycn+UM1Vf3JDqXmDXNTJOoX9xdA/syyMyj5KTQ&#xA;fRl8ccY8g40805/USURpvk7zTqdDZaXcyo3SQxlI/wDg34r+ORlnhHmQzhpskuUSyvTPyQ82XNGv&#xA;ZbexT9pWcyyD5CMFf+GzGnr4DlZcuHZeQ86DI4fyT8sWMBl1nWJaU/vAYraMGn+X6nT55QdfM/SP&#xA;0uUOy8cR6pfoeRanaxWmo3VrDMtxDBK8cVwhDLIisQrqRUUYb5s4GwC6acQJEDdDZJg7FXYq7FXY&#xA;q7FXYq7FXYq7FXYq7FXYq7FXYq7FXYq7FXYq7FXYq7FUVpVvDc6pZ28x4wzTxxyN4KzgE/ccjM0C&#xA;WeMAyAPe9p/N/wAxa3oGm6ba6Mxs7ecuklxEACojChIlNPg2JO3ht3zU6LFGZJlu7ztHNPHECOwY&#xA;Po35yecLAql1JHqMI2KzqA9PaROJr/rVzMnooHls4GLtLLHn6mYW35seRdehFv5i070K/wC/oxcx&#xA;D5Mq8wf9hmKdHkhvE/oc2PaGHIKmK+1efLf5Ilvrv1u09Mjl9X+uNTff+75+p9H4Y+LqOVH5J8DS&#xA;c7Hza/5WD+VWg7aPYrNKn2ZLa2Cmo8ZZeDH574/ls0/qP2r+c0+P6R8gk+p/n1qD1XTNLihHQSXD&#xA;tKT78U9On3nLYdnjqWifa0v4Y/Nimpfmh54v6h9Te3Q9EtgsNPkyAP8A8NmRHSYx0cSevyy617mN&#xA;zT3l5KZJpJLmY7l3LO1PmanLwAHFJMjvuo5Ji7FXYq7FXYq7FXYq7FXYq7FXYq7FXYq7FXYq7FXY&#xA;q7FXYq7FXYq7FXYq7FXr/l783NBv9KTTPN9t6jKAj3DRieKQL0Z03YN8gfHbNZk0chK4F3WHtGEo&#xA;8OUI+X8t/wAtvMkZl0C9FvMRWltKJFBP88MhLL8qrkBqsuP6g2HRYMu8DXu/UxPWvyT81WXJ9PeL&#xA;U4h0CERS090c8fuY5kQ10Dz2cPL2Xkj9PqYofKPmoXH1f9D3nrVpxEEh3+fGn05k+NCrsOH+XyXX&#xA;Cfkn2m/k/wCd72hktY7JD0e5kUf8KnqN94ymWtxjrbkw7Oyy6V72Vad+Q0Krz1XVjQbslvGFAA/4&#xA;skJ/4jmNLtD+aHLh2SP4pfJHfoH8l/L+93cQXUydfVma5f6Yoar965HxNRPl+ps8LS4+ZB+1ZN+c&#xA;XkvSkMOh6U7gdBHHHaxHw6Vb/hMRoskvqP6UHtLFDaEf0PHtTu4rzUbq7ihFvHcSvKluDyEYdi3A&#xA;Gi7LWnTNpAUAHSzlxSJG1obJMHYq7FXYq7FXYq7FXYq7FXYq7FXYq7FXYq7FXYq7FXYq7FXYq7FX&#xA;Yq7FXYqujlkikWSJykimqupIIPiCMBCQaZZov5q+dNLKr9d+uwj/AHVdj1f+HqJP+GzGnpMcule5&#xA;zMWvyw6372Vf8r9vPq4X9DR/WKbyeu3Cv+pwr/w2Y/8AJwvm5f8AK5r6d/ex/U/zj87XlRDPFYof&#xA;2beMVp/rSeo33Uy+OixjzcafaWWXI0xXUdc1nUjXUL6e670mkZwPkCaDMiOOMeQpxJ5ZS+okoHJt&#xA;bsVdirsVdirsVdirsVdirsVdirsVdirsVVvqd5/viT/gG/pg4gy4T3O+p3n++JP+Ab+mPEF4T3O+&#xA;p3n++JP+Ab+mPEF4T3O+p3n++JP+Ab+mPEF4T3O+p3n++JP+Ab+mPEF4T3O+p3n++JP+Ab+mPEF4&#xA;T3O+p3n++JP+Ab+mPEF4T3O+p3n++JP+Ab+mPEF4T3O+p3n++JP+Ab+mPEF4T3O+p3n++JP+Ab+m&#xA;PEF4T3O+p3n++JP+Ab+mPEF4T3O+p3n++JP+Ab+mPEF4T3O+p3n++JP+Ab+mPEF4T3O+p3n++JP+&#xA;Ab+mPEF4T3O+p3n++JP+Ab+mPEF4T3O+p3n++JP+Ab+mPEF4T3O+p3n++JP+Ab+mPEF4T3O+p3n+&#xA;+JP+Ab+mPEF4T3O+p3n++JP+Ab+mPEF4T3O+p3n++JP+Ab+mPEF4T3O+p3n++JP+Ab+mPEF4T3O+&#xA;p3n++JP+Ab+mPEF4T3O+p3n++JP+Ab+mPEF4T3O+p3n++JP+Ab+mPEF4T3O+p3n++JP+Ab+mPEF4&#xA;T3O+p3n++JP+Ab+mPEF4T3O+p3n++JP+Ab+mPEF4T3O+p3n++JP+Ab+mPEF4T3O+p3n++JP+Ab+m&#xA;PEF4T3O+p3n++JP+Ab+mPEF4T3O+p3n++JP+Ab+mPEF4T3O+p3n++JP+Ab+mPEF4T3PrXOaexdir&#xA;sVdirsVdirsVdirsVdirsVdirsVdirsVdirsVdirsVdirsVdirsVdirsVdirsVdirsVdirsVdirs&#xA;VdirsVdirsVdirsVUrq6trS1mu7qRYba3RpZ5nNFREBZmYnoABU4qxKH85vymmlWJPN+k83NF5Xk&#xA;KivzZgMVT3VvNnlnSHsE1TVLazfVHEWmiaVV+sOeICxVPxE816eOKpTqn5r/AJaaVqE+nal5m06z&#xA;vrZuFxbTXEaSIw7MpNQcVTa381+V7jRX12DWLKXRIwWl1NbiI2yAUrymDcFpXepxVG6fqOn6jZQ3&#xA;2n3MV5ZXC84Lq3dZYpF/mR0JVh8jiqDsPNHlzUNWvdHsdSt7nVdOp9fsopFaWGpoPUQbr9OKpPe/&#xA;mz+WVjqraTeeaNMg1CNjHLBJcxKUcGhR2J4qwPZjXFWTyXdrFatdyTRpaInqtcMwEYjA5cy5PHjT&#xA;euKsZ0v81/y01XU10vTfM+m3V+7cIreO5jLSMf2Y96SH/VriqK8w/mH5G8t3qWOv67ZaXeSRieO3&#xA;upkidomZlDhWI2LIwr7YqiPLvnPyl5lWVvL+s2Wq+hT11tJ45mj5VC81QkrXiaV64qu1bzd5X0fU&#xA;bLTNV1W1sdQ1JglhazypHJMxYIBGrEFqswHzxVV1/wAy+X/LtiL/AF3UINMsi4iFxcusac2BKryb&#xA;apCnFUm0v81/y01XUINO03zNp15fXLcLe2huI3kdj2VQak4qgvyp896r5103U9WuoLO1s4b6Wzsb&#xA;e1nW5mVIqGty8bNGshV1PAdOvcYqyHSPN3lfWNQvtN0rVbW+v9NYx6hawSq8kLBihEig1X4lIxVN&#xA;8VdirsVdirsVdirsVdirsVdirsVdirsVdirsVY/+Yf8AygHmb/tlX3/UM+KvjTRba8uPyQZIPyoX&#xA;UT9Xum/x0rgyBVuJGab00i9T9wAU/vKfDvttirL/ADTNpsvkz8hRpt+2pW0WorD9aZSjc4ri3SSP&#xA;g26+m4KD2AxVTmEp/O/8xfT/AC7j/MA/Wo/3MjogtNj8XxxTV9Tp26Yqo+Rvqtt+T35x2EqPperC&#xA;QzXHldlkVbCIuQgRpN2r9g96IteoxV9D/kD/AOSa8p/8wK/8SbFXgeqa3qeiedPz31LTJmt76K1i&#xA;SGdNmT1riOJmU9iFc0PbFXon5X/kX+Vep/kxpb6hpltc3esaet3e61IP9JjmmTmxjmNDH6JPGg+H&#xA;4d674q8QtfNev6r+Qnlfyxe3ksGkXXmd9KuLssdrKOOCZI2J3KK9yxA3A4AdqYq9C/PDy3+SXlRb&#xA;LRbryVq9pBYRwTr5k0KOOMUZmQRTXU3JXckAkuC3ShxVAfmvqlnefnX5L1P/AAxP5xtbrynb3CaC&#xA;6iWeZZWu3VnASQM8deTUXqMVRn/OP9rZ+afznv8Azl5c0SDynoGl2TWV3o8U6NI9xIOPxwAIyKSO&#xA;VeAWqdzXFWDfnDrmmeevPnnXzAddgsJPKUUFn5XtnlSN7qS2uP3phqat9mZ1471ZMVehfnx50i86&#xA;f84zaB5jQr617fWn1xF6JcxxzRzrTtSRTT2pirKvywsIbrzfa/XPyVg8niBXnh131IpDFKg+FVC2&#xA;8Rq1evLFWKfkj5zi8mfkF578xMwE1nrd8LNWp8VzJb2scC0PX94wr7VxV57+UOuaX5B89+SteXXY&#xA;L8ea7eW08028cyyPay3M5MRm3qlOULty7q+KvuHFXYq7FXYq7FXYq7FXYq7FXYq7FXYq7FXYq7FU&#xA;v8w6T+mNA1PSPV9D9I2k9p6/Hnw9eNo+fGq8uPKtKjFXiVh/zjd+YVh5WXypafmjcW/l1UliNhFp&#xA;aIDHcMzTJzFzzo5katT3xVO7/wD5xx0ttF8jaRpmrvZ23ku8a+LSwCd7uSSZJ5OREkQjq6GmzUB9&#xA;sVUdQ/IXzknnTzF5n8s/mBJ5fbzHKJLu3i01JyFUEKvqvOv2ancKuKrtF/5xwgsPK/m6wvPMU+p+&#xA;YvOEYiv9fuIKlQG5/DB6pJqxq1ZPDpTFVDQ/yN/NnQtJtdI0n82JrXTrNPTtrddHt2CIDWgLTs3f&#xA;ucVZBpX5H6bb+cPOuuanfDUtP86Qm3utKMBi9KNvtD1hKxY+BCrTFWGx/wDONnnuw0qfyvov5k3d&#xA;p5MuC4OmPah5UilJMkSyCRdmqeXHiDU1Xc1VZnff84/+Rrr8roPy94yx2Nq31i31AcTcrebk3BJH&#xA;Es3IqwpTieIptRVhuof844fmDr9pb6J5q/My81LyzbspNmlqEllEf2A8jSvUjrV+dD2xVnKfk7bQ&#xA;fmX5c85WuptHbeXNGXRINLeHm0kaLMqyNceotDSfp6fbrvsqlepfkVdwfmPf+ePKHmL/AA5daray&#xA;2+pWQs/rMUssykNOCs9vxPPhJSn21rXc4qv8hf8AON35deXPLcOmaxptl5k1FXkkn1a7tEV5ObEq&#xA;oRmlKqq0FOR8e+KsZf8A5xZm/wABan5Jh81lNJu9Wj1aw5WPNrXijxvEa3I9TkrJ8Xw0Kk0+LZV7&#xA;5irwX/oVyZvJyeUpfNZbSZNdk17UFWxKNOHiihW3qLn4AqxueW9SwPEcd1WSeff+cbvy68x+W5tM&#xA;0fTbLy3qLPHJBq1paIzx8GBZSitEWVlqKch49sVek6JZ31lo9jZ3939fvbaCOG5vuHpevIiBWl9P&#xA;k/HmRWnI4qjcVdirsVdirsVdirsVdirsVdirsVdirsVdirsVdirsVdirsVdirsVdirsVdirsVdir&#xA;sVdirsVdirsVdirsVdirsVdirsVdirsVdirsVdirsVdirsVdirsVdirsVdirsVdirsVdirsVdirs&#xA;VdirsVdirsVdirsVdirsVdirsVdirsVdirsVf//Z</xmpGImg:image>
               </rdf:li>
            </rdf:Alt>
         </xmp:Thumbnails>
      </rdf:Description>
      <rdf:Description rdf:about=""
            xmlns:xmpMM="http://ns.adobe.com/xap/1.0/mm/"
            xmlns:stRef="http://ns.adobe.com/xap/1.0/sType/ResourceRef#"
            xmlns:stEvt="http://ns.adobe.com/xap/1.0/sType/ResourceEvent#">
         <xmpMM:InstanceID>xmp.iid:9abfa668-2609-c146-aeb5-945099e7e6e3</xmpMM:InstanceID>
         <xmpMM:DocumentID>xmp.did:9abfa668-2609-c146-aeb5-945099e7e6e3</xmpMM:DocumentID>
         <xmpMM:OriginalDocumentID>uuid:5D20892493BFDB11914A8590D31508C8</xmpMM:OriginalDocumentID>
         <xmpMM:RenditionClass>proof:pdf</xmpMM:RenditionClass>
         <xmpMM:DerivedFrom rdf:parseType="Resource">
            <stRef:instanceID>uuid:ff470bc6-f939-440e-8f31-27b0eb70075c</stRef:instanceID>
            <stRef:documentID>xmp.did:4de20fe2-e96f-dd46-b8bd-1606dc72d06f</stRef:documentID>
            <stRef:originalDocumentID>uuid:5D20892493BFDB11914A8590D31508C8</stRef:originalDocumentID>
            <stRef:renditionClass>proof:pdf</stRef:renditionClass>
         </xmpMM:DerivedFrom>
         <xmpMM:History>
            <rdf:Seq>
               <rdf:li rdf:parseType="Resource">
                  <stEvt:action>saved</stEvt:action>
                  <stEvt:instanceID>xmp.iid:9abfa668-2609-c146-aeb5-945099e7e6e3</stEvt:instanceID>
                  <stEvt:when>2017-04-11T01:59:07-05:00</stEvt:when>
                  <stEvt:softwareAgent>Adobe Illustrator CC (Windows)</stEvt:softwareAgent>
                  <stEvt:changed>/</stEvt:changed>
               </rdf:li>
            </rdf:Seq>
         </xmpMM:History>
      </rdf:Description>
      <rdf:Description rdf:about=""
            xmlns:illustrator="http://ns.adobe.com/illustrator/1.0/">
         <illustrator:StartupProfile>Print</illustrator:StartupProfile>
      </rdf:Description>
      <rdf:Description rdf:about=""
            xmlns:xmpTPg="http://ns.adobe.com/xap/1.0/t/pg/"
            xmlns:stDim="http://ns.adobe.com/xap/1.0/sType/Dimensions#"
            xmlns:xmpG="http://ns.adobe.com/xap/1.0/g/">
         <xmpTPg:HasVisibleOverprint>False</xmpTPg:HasVisibleOverprint>
         <xmpTPg:HasVisibleTransparency>True</xmpTPg:HasVisibleTransparency>
         <xmpTPg:NPages>1</xmpTPg:NPages>
         <xmpTPg:MaxPageSize rdf:parseType="Resource">
            <stDim:w>5.465024</stDim:w>
            <stDim:h>2.619513</stDim:h>
            <stDim:unit>Centimeters</stDim:unit>
         </xmpTPg:MaxPageSize>
         <xmpTPg:PlateNames>
            <rdf:Seq>
               <rdf:li>Cyan</rdf:li>
               <rdf:li>Magenta</rdf:li>
               <rdf:li>Yellow</rdf:li>
               <rdf:li>Black</rdf:li>
            </rdf:Seq>
         </xmpTPg:PlateNames>
         <xmpTPg:SwatchGroups>
            <rdf:Seq>
               <rdf:li rdf:parseType="Resource">
                  <xmpG:groupName>Default Swatch Group</xmpG:groupName>
                  <xmpG:groupType>0</xmpG:groupType>
               </rdf:li>
            </rdf:Seq>
         </xmpTPg:SwatchGroups>
      </rdf:Description>
      <rdf:Description rdf:about=""
            xmlns:pdf="http://ns.adobe.com/pdf/1.3/">
         <pdf:Producer>Adobe PDF library 10.01</pdf:Producer>
      </rdf:Description>
   </rdf:RDF>
</x:xmpmeta>
                                                                                                    
                                                                                                    
                                                                                                    
                                                                                                    
                                                                                                    
                                                                                                    
                                                                                                    
                                                                                                    
                                                                                                    
                                                                                                    
                                                                                                    
                                                                                                    
                                                                                                    
                                                                                                    
                                                                                                    
                                                                                                    
                                                                                                    
                                                                                                    
                                                                                                    
                                                                                                    
                           
<?xpacket end="w"?>
	</metadata>
<g>
	<rect id="XMLID_10_" opacity="0.5" fill="#FFFFFF" enable-background="new    " width="154.914" height="74.254"/>
	<rect id="XMLID_7_" fill="#3B86B1" width="154.914" height="48.154"/>
	<rect id="XMLID_6_" y="57.455" fill="none" width="154.494" height="13.102"/>
	<g enable-background="new    ">
		<path d="M38.333,57.457h3.147c0.623,0,1.088,0.026,1.394,0.078c0.307,0.052,0.58,0.16,0.822,0.325
			c0.241,0.164,0.443,0.384,0.604,0.657c0.161,0.274,0.242,0.581,0.242,0.921c0,0.369-0.1,0.708-0.298,1.016
			c-0.199,0.308-0.468,0.539-0.809,0.693c0.48,0.139,0.849,0.377,1.106,0.714s0.387,0.732,0.387,1.187
			c0,0.358-0.083,0.707-0.25,1.045c-0.166,0.339-0.394,0.609-0.682,0.812c-0.289,0.202-0.644,0.326-1.066,0.373
			c-0.265,0.028-0.904,0.047-1.917,0.054h-2.68V57.457z M39.923,58.768v1.821h1.042c0.62,0,1.004-0.01,1.155-0.027
			c0.272-0.032,0.486-0.126,0.642-0.282c0.155-0.155,0.233-0.36,0.233-0.614c0-0.244-0.067-0.441-0.201-0.594
			c-0.135-0.152-0.334-0.244-0.599-0.277c-0.158-0.018-0.61-0.026-1.359-0.026H39.923z M39.923,61.899v2.105h1.472
			c0.573,0,0.937-0.017,1.09-0.049c0.236-0.043,0.429-0.147,0.578-0.314c0.148-0.166,0.223-0.389,0.223-0.668
			c0-0.236-0.057-0.438-0.172-0.602c-0.115-0.165-0.28-0.285-0.497-0.36c-0.216-0.075-0.687-0.112-1.41-0.112H39.923z"/>
		<path d="M46.223,65.331v-7.874h1.59v7.874H46.223z"/>
		<path d="M49.333,57.457h3.147c0.623,0,1.088,0.026,1.394,0.078c0.307,0.052,0.58,0.16,0.822,0.325
			c0.241,0.164,0.443,0.384,0.604,0.657c0.161,0.274,0.242,0.581,0.242,0.921c0,0.369-0.1,0.708-0.298,1.016
			c-0.199,0.308-0.468,0.539-0.809,0.693c0.48,0.139,0.849,0.377,1.106,0.714s0.387,0.732,0.387,1.187
			c0,0.358-0.083,0.707-0.25,1.045c-0.166,0.339-0.394,0.609-0.682,0.812c-0.289,0.202-0.644,0.326-1.066,0.373
			c-0.265,0.028-0.904,0.047-1.917,0.054h-2.68V57.457z M50.923,58.768v1.821h1.042c0.62,0,1.004-0.01,1.155-0.027
			c0.272-0.032,0.486-0.126,0.642-0.282c0.155-0.155,0.233-0.36,0.233-0.614c0-0.244-0.067-0.441-0.201-0.594
			c-0.135-0.152-0.334-0.244-0.599-0.277c-0.158-0.018-0.61-0.026-1.359-0.026H50.923z M50.923,61.899v2.105h1.472
			c0.573,0,0.937-0.017,1.09-0.049c0.236-0.043,0.429-0.147,0.578-0.314c0.148-0.166,0.223-0.389,0.223-0.668
			c0-0.236-0.057-0.438-0.172-0.602c-0.115-0.165-0.28-0.285-0.497-0.36c-0.216-0.075-0.687-0.112-1.41-0.112H50.923z"/>
		<path d="M57.314,65.331v-7.81h1.59v6.483h3.953v1.326H57.314z"/>
		<path d="M63.942,65.331v-7.874h1.59v7.874H63.942z"/>
		<path d="M66.725,61.442c0-0.802,0.12-1.476,0.36-2.02c0.179-0.401,0.423-0.761,0.733-1.08c0.31-0.318,0.649-0.555,1.018-0.709
			c0.491-0.207,1.056-0.311,1.697-0.311c1.16,0,2.088,0.359,2.785,1.079c0.696,0.72,1.044,1.721,1.044,3.003
			c0,1.271-0.346,2.266-1.037,2.983s-1.615,1.077-2.771,1.077c-1.171,0-2.102-0.357-2.793-1.072
			C67.07,63.68,66.725,62.695,66.725,61.442z M68.363,61.389c0,0.892,0.206,1.567,0.618,2.027s0.935,0.69,1.568,0.69
			s1.154-0.229,1.56-0.685c0.407-0.457,0.61-1.142,0.61-2.055c0-0.902-0.198-1.575-0.593-2.02c-0.396-0.444-0.921-0.666-1.577-0.666
			s-1.184,0.225-1.584,0.674S68.363,60.482,68.363,61.389z"/>
		<path d="M79.266,62.437v-1.327h3.428v3.137c-0.334,0.322-0.816,0.606-1.448,0.852s-1.272,0.368-1.92,0.368
			c-0.823,0-1.542-0.173-2.154-0.519s-1.072-0.84-1.38-1.482s-0.462-1.342-0.462-2.098c0-0.82,0.172-1.549,0.516-2.187
			c0.344-0.637,0.847-1.126,1.509-1.466c0.505-0.262,1.133-0.392,1.885-0.392c0.978,0,1.741,0.204,2.291,0.614
			s0.903,0.977,1.061,1.7l-1.579,0.295c-0.111-0.387-0.319-0.691-0.626-0.915c-0.306-0.224-0.688-0.336-1.146-0.336
			c-0.694,0-1.247,0.22-1.657,0.661c-0.41,0.439-0.615,1.094-0.615,1.96c0,0.935,0.208,1.636,0.623,2.103
			c0.416,0.468,0.959,0.701,1.632,0.701c0.334,0,0.668-0.065,1.002-0.196c0.335-0.131,0.623-0.289,0.862-0.476v-0.998H79.266z"/>
		<path d="M84.164,65.331v-7.874h3.347c0.841,0,1.452,0.07,1.835,0.212c0.381,0.142,0.686,0.394,0.915,0.755
			s0.344,0.775,0.344,1.241c0,0.59-0.174,1.078-0.521,1.463c-0.348,0.385-0.867,0.628-1.559,0.729c0.344,0.2,0.628,0.42,0.852,0.66
			c0.225,0.24,0.525,0.666,0.905,1.278l0.962,1.536h-1.902l-1.148-1.713c-0.408-0.613-0.688-0.999-0.838-1.158
			s-0.311-0.269-0.479-0.327c-0.168-0.06-0.436-0.089-0.801-0.089h-0.322v3.287H84.164z M85.754,60.787h1.177
			c0.763,0,1.239-0.032,1.429-0.097s0.338-0.176,0.445-0.333s0.162-0.354,0.162-0.591c0-0.265-0.071-0.479-0.213-0.642
			c-0.141-0.163-0.341-0.267-0.599-0.31c-0.129-0.018-0.516-0.026-1.16-0.026h-1.241V60.787z"/>
		<path d="M99.203,65.331h-1.729l-0.688-1.789h-3.148l-0.649,1.789h-1.687l3.066-7.874h1.682L99.203,65.331z M96.276,62.216
			l-1.085-2.922l-1.063,2.922H96.276z"/>
		<path d="M100.058,65.331v-7.874h5.397v1.332h-3.808v1.864h3.287v1.332h-3.287v3.346H100.058z"/>
		<path d="M106.535,57.006l0.741-1.606h1.692l-1.478,1.606H106.535z M106.718,65.331v-7.874h1.59v7.874H106.718z"/>
		<path d="M116.923,65.331h-1.729l-0.688-1.789h-3.147l-0.649,1.789h-1.688l3.067-7.874h1.681L116.923,65.331z M113.996,62.216
			l-1.086-2.922l-1.062,2.922H113.996z"/>
	</g>
	<g id="XMLID_1_">
		<path id="XMLID_2_" fill="#FFFFFF" d="M63.582,14.26l7.044,2.37c0.578,0.253,3.331,1.259,8.215,0.049
			c6.168-1.528,19.521-4.179,19.656-4.208l-0.501-2.51c-0.005,0-0.039,0.01-0.087,0.02L85.184,8.184
			c-1.4-0.194-3.656-0.141-5.049,0.132L63.12,11.613c-2.213-0.112-4.315,1.245-5.019,3.454c-0.408,1.269-0.296,2.626,0.316,3.808
			c0.316,0.609,0.74,1.129,1.25,1.557c-0.768,0.599-1.367,1.421-1.688,2.413c-0.403,1.27-0.291,2.626,0.321,3.813
			c0.331,0.643,0.793,1.183,1.342,1.615c-0.753,0.594-1.347,1.416-1.664,2.393c-0.403,1.275-0.291,2.626,0.321,3.814
			c0.613,1.187,1.649,2.062,2.919,2.471l12.268,3.92c0.671,0.214,1.774,0.263,2.466,0.102l21.532-4.932c0,0-0.131-0.554-0.285-1.245
			c-0.157-0.685-0.848-1.118-1.533-0.963l-19.602,4.49c-0.691,0.159-1.796,0.11-2.467-0.103l-11.6-3.707
			c-0.618-0.199-1.123-0.628-1.426-1.207c-0.296-0.579-0.355-1.24-0.156-1.858c0.413-1.284,1.786-1.985,3.069-1.581
			c0.005-0.014,7.096,2.253,10.002,3.177c0.671,0.214,1.774,0.263,2.466,0.107l21.532-4.932c0,0-0.131-0.559-0.285-1.25
			c-0.157-0.685-0.842-1.118-1.533-0.958l-19.602,4.489c-0.691,0.156-1.796,0.107-2.467-0.107l-11.6-3.706
			c-0.618-0.199-1.123-0.628-1.426-1.207c-0.296-0.579-0.355-1.24-0.156-1.858c0.413-1.284,1.786-1.985,3.069-1.581
			c0-0.005,7.19,2.291,10.117,3.225c0.676,0.219,1.781,0.263,2.467,0.107l21.534-4.932c0,0-0.127-0.559-0.289-1.25
			c-0.155-0.686-0.842-1.118-1.531-0.958l-19.602,4.484c-0.691,0.161-1.791,0.112-2.467-0.102L62.119,18.91
			c-0.623-0.199-1.129-0.628-1.426-1.207c-0.301-0.579-0.355-1.24-0.156-1.858C60.946,14.566,62.318,13.851,63.582,14.26
			L63.582,14.26z"/>
	</g>
</g>
</svg>
