<?xml version="1.0" encoding="utf-8"?>
<!-- Generator: Adobe Illustrator 16.0.0, SVG Export Plug-In . SVG Version: 6.00 Build 0)  -->
<!DOCTYPE svg PUBLIC "-//W3C//DTD SVG 1.1//EN" "http://www.w3.org/Graphics/SVG/1.1/DTD/svg11.dtd">
<svg version="1.1" id="Capa_1" xmlns="http://www.w3.org/2000/svg" xmlns:xlink="http://www.w3.org/1999/xlink" x="0px" y="0px"
	 width="155.707px" height="74.254px" viewBox="0 0 155.707 74.254" enable-background="new 0 0 155.707 74.254"
	 xml:space="preserve">
<metadata><?xpacket begin="﻿" id="W5M0MpCehiHzreSzNTczkc9d"?>
<x:xmpmeta xmlns:x="adobe:ns:meta/" x:xmptk="Adobe XMP Core 5.3-c011 66.145661, 2012/02/06-14:56:27        ">
   <rdf:RDF xmlns:rdf="http://www.w3.org/1999/02/22-rdf-syntax-ns#">
      <rdf:Description rdf:about=""
            xmlns:dc="http://purl.org/dc/elements/1.1/">
         <dc:format>image/svg+xml</dc:format>
         <dc:title>
            <rdf:Alt>
               <rdf:li xml:lang="x-default">Imprimir</rdf:li>
            </rdf:Alt>
         </dc:title>
      </rdf:Description>
      <rdf:Description rdf:about=""
            xmlns:xmp="http://ns.adobe.com/xap/1.0/"
            xmlns:xmpGImg="http://ns.adobe.com/xap/1.0/g/img/">
         <xmp:MetadataDate>2017-04-11T01:59:07-05:00</xmp:MetadataDate>
         <xmp:ModifyDate>2017-04-11T01:59:07-05:00</xmp:ModifyDate>
         <xmp:CreateDate>2017-04-11T01:59:07-05:00</xmp:CreateDate>
         <xmp:CreatorTool>Adobe Illustrator CC (Windows)</xmp:CreatorTool>
         <xmp:Thumbnails>
            <rdf:Alt>
               <rdf:li rdf:parseType="Resource">
                  <xmpGImg:width>256</xmpGImg:width>
                  <xmpGImg:height>124</xmpGImg:height>
                  <xmpGImg:format>JPEG</xmpGImg:format>
                  <xmpGImg:image>/9j/4AAQSkZJRgABAgEBLAEsAAD/7QAsUGhvdG9zaG9wIDMuMAA4QklNA+0AAAAAABABLAAAAAEA&#xA;AQEsAAAAAQAB/+4ADkFkb2JlAGTAAAAAAf/bAIQABgQEBAUEBgUFBgkGBQYJCwgGBggLDAoKCwoK&#xA;DBAMDAwMDAwQDA4PEA8ODBMTFBQTExwbGxscHx8fHx8fHx8fHwEHBwcNDA0YEBAYGhURFRofHx8f&#xA;Hx8fHx8fHx8fHx8fHx8fHx8fHx8fHx8fHx8fHx8fHx8fHx8fHx8fHx8fHx8f/8AAEQgAfAEAAwER&#xA;AAIRAQMRAf/EAaIAAAAHAQEBAQEAAAAAAAAAAAQFAwIGAQAHCAkKCwEAAgIDAQEBAQEAAAAAAAAA&#xA;AQACAwQFBgcICQoLEAACAQMDAgQCBgcDBAIGAnMBAgMRBAAFIRIxQVEGE2EicYEUMpGhBxWxQiPB&#xA;UtHhMxZi8CRygvElQzRTkqKyY3PCNUQnk6OzNhdUZHTD0uIIJoMJChgZhJRFRqS0VtNVKBry4/PE&#xA;1OT0ZXWFlaW1xdXl9WZ2hpamtsbW5vY3R1dnd4eXp7fH1+f3OEhYaHiImKi4yNjo+Ck5SVlpeYmZ&#xA;qbnJ2en5KjpKWmp6ipqqusra6voRAAICAQIDBQUEBQYECAMDbQEAAhEDBCESMUEFURNhIgZxgZEy&#xA;obHwFMHR4SNCFVJicvEzJDRDghaSUyWiY7LCB3PSNeJEgxdUkwgJChgZJjZFGidkdFU38qOzwygp&#xA;0+PzhJSktMTU5PRldYWVpbXF1eX1RlZmdoaWprbG1ub2R1dnd4eXp7fH1+f3OEhYaHiImKi4yNjo&#xA;+DlJWWl5iZmpucnZ6fkqOkpaanqKmqq6ytrq+v/aAAwDAQACEQMRAD8AR1j/AI699/zES/8AEznR&#xA;w+kPH5PqPvQeTYOxV2KuxV2KuxV2KuxV2KuxV2KuxV2KuxV2KuxV2KuxV2KuxV2KuxV2KuxV2Kux&#xA;V2KuxV2KuxVGaP8A8dex/wCYiL/iYyE/pLPH9Q97tY/4699/zES/8TOMPpC5PqPvQeTYOxV2KuxV&#xA;2KuxV2KuxV2KuxV2KuxV2KuxV2KuxV2KuxV2KuxV2KuxV2KuxV2KuxV2KuxV2KuxVGaP/wAdex/5&#xA;iIv+JjIT+ks8f1D3u1j/AI699/zES/8AEzjD6QuT6j70Hk2DsVdirsVdirsVdirsVdirsVdirsVd&#xA;irsVfRH5RQQR+Q9PkSNVkmM7SuAAWInkUFj3ooAzR60/vD+Oj0vZwAwj4/e783YIZPIWoyOis8Jg&#xA;aJiASrGeNSVPb4WIx0R/eD8dF7RA8E/D73zvm8eadirsVdirsVdirsVdirsVdirsVdirsVdiqM0f&#xA;/jr2P/MRF/xMZCf0lnj+oe92sf8AHXvv+YiX/iZxh9IXJ9R96DybB2KuxV2KuxV2KuxV2KuxV2Ku&#xA;xV2KuxV2Kvoz8pv/ACX+lf8ARx/1EyZotZ/en8dHpuz/AO5j8fvLvzZ/8l/qv/Rv/wBRMeOj/vR+&#xA;Oi9of3Mvh94fOeb15l2KuxV2KuxV2KuxV2KuxV2KuxV2KuxV2KozR/8Ajr2P/MRF/wATGQn9JZ4/&#xA;qHvdrH/HXvv+YiX/AImcYfSFyfUfeg8mwdirsVdirsVdirsVdirsVdirsVdirsVR+maDrWq8zptj&#xA;PdiKnqGFGcLXpUgZCeSMeZpsx4Zz+kEvoT8tLC9sPJOm2l7C9vcx+t6kMgKsvKeRhUHxBBzSaqQO&#xA;QkfjZ6TQwMcQBFHf73fmXYXt/wCSdStLKF7i5k9H04YwWZuM8bGgHgATjpZAZAT+Nl10DLEQBZ2+&#xA;9896noGt6UIzqVjPaLLURtMjIGI6gEjN3DJGXI283kwzh9QIQGTa3Yq7FXYq7FXYq7FXYq7FXYq7&#xA;FXYq7FUZo/8Ax17H/mIi/wCJjIT+ks8f1D3u1j/jr33/ADES/wDEzjD6QuT6j70Hk2DsVdirsVdi&#xA;rsVdirsVdirsVdirsVdirJfI3na+8rakZUHrWE9BeWv8wHRlPZlrtmPqMAyDzcrS6o4pX0PN9E6R&#xA;q+n6vp8N/YTCa2mFVYdQe6sOxHcZo5wMTRemx5IzjxR5LtT1Ox0uxmvr6ZYLWBeUkjfgAO5PQAYw&#xA;gZGhzXJkEBZ5PnTzz52vvNOpCVx6NhBUWdr/ACg9WY92am+bzT4BjHm8zqtUcsr6DkxrMhxXYq7F&#xA;XYq7FXYq7FXYq7FXYq7FXYq7FUZo/wDx17H/AJiIv+JjIT+ks8f1D3u1j/jr33/MRL/xM4w+kLk+&#xA;o+9B5Ng7FXYq7FXYq7FXYq7FXYq7FXYq7FXuH5OaBo8vlJ7q4s4Z57maRZXlRXJRaKE+IH4fbNRr&#xA;ckhOgXf9m4YnHZG5LyXzbZW1j5n1W0tk9O3gupUiTsqhjQD5ZssMiYAnudNqIiOSQHK0f5J886l5&#xA;Wvi8Q9ewm/3qsyaBvBlO/Fh45DPpxkHm2aXVSxHbcdy/zx591LzTdrzU22nQ729mG5ANShdzQcm+&#xA;jYfTV0+nGMeadVq5Zj3R7ko8t2kF55i0uzuF5QXN3BDKvSqSSqrD7jlmWVRJHc04IiU4g9SHr/5x&#xA;aBo0PlFLm3s4bea1njWJ4kVCEaqlfhA2zWaLJIzol3XaWGIxWBVF4fm3dA7FXYq7FXYq7FXYq7FX&#xA;Yq7FXYq7FUZo/wDx17H/AJiIv+JjIT+ks8f1D3u1j/jr33/MRL/xM4w+kLk+o+9B5Ng7FXYq7FXY&#xA;q7FXYq7FXYq7FXYq7FXtX5Qea/L1p5Xawvr+CzuYJ3YpcSLFyV6EMpcqD3G2anW4ZGdgW73s7UQG&#xA;OiQDfVl8mufl9I7PJqGku7GrM01sSSe5JOY3h5e6X2uacuE9Y/MLf0z+Xf8Ay3aR/wAjbb+uPBl7&#xA;pfavi4O+H2O/TP5d/wDLdpH/ACNtv648GXul9q+Lg74fYuTW/wAvkdXTUNJV1IKsJrYEEbggg4+H&#xA;l7pfaoy4e+P2MQ/N7zV5eu/KwsbG/gvLmaeNglvIkvFUqSzFCaeGZOiwyE7Ipwu0dRA46BBN9Hiu&#xA;bZ0TsVdirsVdirsVdirsVdirsVdirsVRmj/8dex/5iIv+JjIT+ks8f1D3u1j/jr33/MRL/xM4w+k&#xA;Lk+o+9B5Ng7FXYq7FXYq7FXYq7FXYq7FXYq7FXYq7FXYq7FXYq7FXYq7FXYq7FXYq7FXYq7FXYq7&#xA;FXYq7FUZo/8Ax17H/mIi/wCJjIT+ks8f1D3phq3l3zA+q3rLpl2ytPKVYQSEEFzuPhyEMseEbhty&#xA;YZ8R9J59yF/w15i/6tV5/wBI8v8AzTkvFh3hh4E/5p+Tv8NeYv8Aq1Xn/SPL/wA04+LDvC+BP+af&#xA;k7/DXmL/AKtV5/0jy/8ANOPiw7wvgT/mn5O/w15i/wCrVef9I8v/ADTj4sO8L4E/5p+Tv8NeYv8A&#xA;q1Xn/SPL/wA04+LDvC+BP+afk7/DXmL/AKtV5/0jy/8ANOPiw7wvgT/mn5O/w15i/wCrVef9I8v/&#xA;ADTj4sO8L4E/5p+Tv8NeYv8Aq1Xn/SPL/wA04+LDvC+BP+afk7/DXmL/AKtV5/0jy/8ANOPiw7wv&#xA;gT/mn5O/w15i/wCrVef9I8v/ADTj4sO8L4E/5p+Tv8NeYv8Aq1Xn/SPL/wA04+LDvC+BP+afk7/D&#xA;XmL/AKtV5/0jy/8ANOPiw7wvgT/mn5O/w15i/wCrVef9I8v/ADTj4sO8L4E/5p+Tv8NeYv8Aq1Xn&#xA;/SPL/wA04+LDvC+BP+afk7/DXmL/AKtV5/0jy/8ANOPiw7wvgT/mn5O/w15i/wCrVef9I8v/ADTj&#xA;4sO8L4E/5p+Tv8NeYv8Aq1Xn/SPL/wA04+LDvC+BP+afk7/DXmL/AKtV5/0jy/8ANOPiw7wvgT/m&#xA;n5O/w15i/wCrVef9I8v/ADTj4sO8L4E/5p+Tv8NeYv8Aq1Xn/SPL/wA04+LDvC+BP+afk7/DXmL/&#xA;AKtV5/0jy/8ANOPiw7wvgT/mn5O/w15i/wCrVef9I8v/ADTj4sO8L4E/5p+Tv8NeYv8Aq1Xn/SPL&#xA;/wA04+LDvC+BP+afk7/DXmL/AKtV5/0jy/8ANOPiw7wvgT/mn5O/w15i/wCrVef9I8v/ADTj4sO8&#xA;L4E/5p+Tv8NeYv8Aq1Xn/SPL/wA04+LDvC+BP+afk7/DXmL/AKtV5/0jy/8ANOPiw7wvgT/mn5O/&#xA;w15i/wCrVef9I8v/ADTj4sO8L4E/5p+Tv8NeYv8Aq1Xn/SPL/wA04+LDvC+BP+afk7/DXmL/AKtV&#xA;5/0jy/8ANOPiw7wvgT/mn5IrSfLvmBNVsmbTLtVWeIsxgkAADjc/DkZ5Y8J3DPHhnxD0nn3Pp/Of&#xA;erdirsVdirsVdirsVdirsVdirsVdirsVdirsVdirsVdirsVdirsVdirsVdirsVdirsVdirsVdirs&#xA;VdirsVdirsVUL++tbCxuL67kEVpaRPPcSkEhY41LOxAqdlFcVYHZf85Cfkxe3KW0Pmq0EshCr6ol&#xA;hSpNN3lREH0nFU/83fmP5I8n29nceY9Vj0+DUOQs5GWSRZOABbiYlfs4xVKfL/54/lV5h1i20bRv&#xA;MEV5qd4xW2tlinUuVUuQC8ar9lSdzirtd/PL8ptB1aTSNU8y2sGoQv6c0KiSX03HVZHiR0QjuGO2&#xA;KsouvMvl600I6/c6lbRaIIln/STSp9XMb04sJK8SGqONOvbFWO+Vvzm/K/zVqY0vQvMNtd6g1fTt&#xA;SJIXkoKn0xMsfqUAr8NcVTfzf558qeTtPi1DzLqMem2c8oghlkDtykKl+IWNXb7KHtiqL1LzJoem&#xA;6BJ5hvbtItGihW5e9ozIIWAKv8IZiCGHQYqwy0/5yH/Je6uEgi81WokkIVTKs0SVJpu8kaIPpOKs&#xA;x13zT5c0DRzrOs6jb2OljjS7lcBG5iqhD+2WHQLUnFUg8q/nL+WPmvUhpmgeYLe81BgxjtSJIZH4&#xA;15emsyR86AE/DXbfpiqcebvOvlbyfpqan5k1CPTbGWVbeOaQO3KVlZggCKzV4ox6dsVRN15k0O18&#xA;vN5jmu0XREthetfDkyfVynqCQcQSRxNdhirC7f8A5yJ/JW4mWGPzVaq7mgMiTxL9LyRqo+k4q9Eh&#xA;mimiSaF1kikUPHIhDKysKhlI2IIxVifm782/y48n3iWPmLXrexvXAYWtHllCt9lnSFZGQHsWAxVH&#xA;WX5geS7/AMr3Hmmy1e3udAtEeS6voSXWIRjk4dVBdWUblStfbFWNWv8AzkR+S1zOkEfmu1V5DRTK&#xA;s0SVP8zyRoi/MnFXocckcsayRsHjcBkdSCrKRUEEdQcVYmn5t/l2+i6traa1GdL0KZbbVrr05qQS&#xA;vIIlRhw5GrsB8IOKpLF/zkZ+SssqRR+aIGkkYKi+jc7kmgH91iqvqf5//k/pepXemX/mSGC+sZpL&#xA;a7gMVwSksLlJEJWMj4WUjY4qmugfmv8Al3r+l6jqula5bzabpIVtSu35wxwhwSpdplj68TiqB0H8&#xA;8/ym17VY9J0vzLazahM/pwwuJIfUc0osbTJGrk1oAp37YqzrFXYq7FXYq7FXYq7FWP8A5h/8oB5m&#xA;/wC2Vff9Qz4q8J/L7yL5J1f/AJxQ+v6tpNm97Hp+rXI1Noo1uElt7m6MT+vTn8PADr026Yq811vU&#xA;NY1H8pvybaSJdSvI9Uvbazt7k/BMkN3HHDC5bbhQCPw44q+gfIen+eYvM1tNr35b+XvLumxLK8mr&#xA;2L2rTwsI248eHxDkdifDFXi7eTPNXl3S/NE2j6JoX5meRtRnuZrvWrWSKa/iHEMwW4jYypIi0aiB&#xA;wrbjriqJ836p5V1/yf8AktoeiQzWPkfVdYli1PTbiZpGidLuGOSOSdjuF+szFCf2SDQdAq9r80fl&#xA;f+R1hrvle71CKy8t6lZT/wC4P6tJHpxuJYijqrFeBlKMF41Nan/KxV5B/wA5D+ZPK3mz83rbyhr+&#xA;sLpXl3y9YXJnumEjA6lcwcowBErk8CYeo7OO+Kovyf55/wAR/wDOJnmfSriX1NR8tWjWEoJqTb8l&#xA;a1b/AFeFYx/qYq86v9eu2/K3y/5Uv/I2l6VHrscUWl+drsxqX4TAtMZUjrGf2W5Psp32xV6b558r&#xA;W6fmb+T35eeZLg3vl2w01ElV6+jcXcUbIFNePJXeCNAp6Kad8Vd+ZOqeSdA/M3RZb38tLnTW07UY&#xA;7bR9dsZV062upOcbI5WKFfUEfYculR0xVCf85GeZPK3mf82tL8la/q66V5b0O0nm1K7pI1L65gLQ&#xA;qFjDFin7r5cmxVW/LXzx+nv+cXPOOhXEwl1DyzYXdoSDUtayRu9s/bYUeMeyYq86v/MV5F+U2h+W&#xA;9Q8g6Zp0GuQpb6Z51ujGORWUEztIkfJGA/mfpvQjFX2T+X3l2by35H0LQZ7gXc2m2MFvLcKSyOyI&#xA;AxQkA8K7J/k0xV4b/wA40+XtB806p558yeZ7K31XzG+qvBMt7Gk5hiNWoqSBuPJqr8lpirE76ys/&#xA;L3n787vLPl9Rb+Wv8NzXRs4v7lLkR2zUUD4V4NczKF7DbtirHYbDz9dfkIoh/LzS5PL6WzzSeb62&#xA;r34hinZ5JlQSLOGTiVrT7I8MVfUf5SeZvJsvkPyjpel6xFNJJpcSWFtcyRxXsyWqmGR/q/N2+F4X&#xA;B41AoRXbFXzRYf8Akifzl/7blp/3UIsVeleQdK/MSXS/Lnqflb5bfSngsueqs9obhrcolbgqfiMh&#xA;T46da4qqf85beXPL1p5O0a/tdLtLe+u/MdsLq7igiSWUSQXLuJJFUM3JhVqnc4qh/wDnJ/R9G020&#xA;8m6FZWdvpHl7W9ZjXXfqcUdqkiRFFT1WjC14rLIwr4V7YqmP/OTf5feQdL/J26v7DSLPTNQ0mS0G&#xA;kz2sSQSAvcJG8fJArMDGzsQT1HLqMVevfl/f3+o+QvLeoaizNqF5pVlcXjMCGM0tujyEg9+ROKp/&#xA;irsVdirsVdirsVQOu6VHq+iahpMkhij1C2mtXlUAsqzxmMsAe45Yq8Us/wDnFG3i0uPQ7jz1r8vl&#xA;tT8eiRzelbFS5kYCKrxCrksfg679cVZT5+/IPQPNGi+WtIsL+48v2vlXl+jDZAF1JCBW5seQdTHy&#xA;5VrXfriqzyl+S3mDQfMNnq11+YnmHWbe1Zmk0y+uZJLeYMjJxkRpGBA5V6dRirG77/nFa2iuNSg8&#xA;tectW8veX9WdnvdCtyWgYPsyDi8QK8fhHNWPHYk4qy/VPyC8g6h+W9l5CaKaLTtOYzWF6jj61HcM&#xA;WZ5uZHFi5duSleNOgFFoqkHlX/nGmx0/zNpuv+ZfM+peaptFKto9tfMfSgKHkn2nlJCMAwClRUb4&#xA;qyXyR+S3lzy3qWv6rfONf1PzDdm7urq/giYoSWbhGKNxHKQ/h4YqlF7/AM48aFJqvm67sNTn06x8&#xA;42n1W+0yGKP0InBRhNF0+LkjGnT429sVTXUfyT8t6n+VNp+Xd/NJNaWESLZ6jxUTxTRklJlG6g/E&#xA;VI7qSO+KoPW/yD0PX/I2jeWta1S7ub/y8KaP5ij4xXsKgjitRyVgFVV/2IPXfFUj0/8A5xmhuNds&#xA;dW85ecdY81/oyRJbG1u5GWNWQgjkWeZqVUV4la98VZV5N/Jby7oGu+Ytdv5Brup+Yrn61cTX0MTC&#xA;L4nf04lowVayfcB4Yqll5/zj9oL6/wCatU07UZtMtfNunvp1/pcEUf1dPURV9aMbUYMnL/ZN44qm&#xA;t7+S/lzUPyptvy51CaS4sbOFY7W/oqzxyxktHMvUBhyIPiKjvirIvIvlefyr5VsPL8upS6qunR+h&#xA;BeXCqsvoqf3aNx2/drRR7AYq8+80f8462l75qvfNHlPzNqXk/VdUJbU/0ex9KZm3duKtEwLN8R+I&#xA;iu4AOKo3y5/zj75X0Lyd5i0GG9urrUfNMLw6vr1yRJcvzDD4QdgAXLU3JPUnairGIP8AnFaSPSV0&#xA;NvzC8wf4fp6cmkJMUtjEW5Mgi5NEATU/YIrvTFU680f842eXb+Hy+/lrV77ytqflu2NjY6lZuWlM&#xA;BZ3YOQ0bcy8sjclYfabanRVFWv8Azj15btfyo1P8voL+4C6xNHdalrDhXuJZ4545uXE/CB+5VQPD&#xA;fc1OKpNb/wDOOPmK2t4ra2/NPzRBbwIscMMd1KiIiDiqqqyABQBQAYqzv81PyzsfzD0Sx0m8vZbG&#xA;Oxv4tRSWFVdmeGOSMIQ3Y+tiqN/MT8u/Lfn7y3JoOvRu1uziWCeIhZoJlBCyRsQwrRiNwQQcVeZW&#xA;3/OLkF3cWEXmzzlq/mXQ9MYNZaLcuVhULsqsS8nw8fh+EKabAgYq9xjjjijWONQkaAKiKAFVQKAA&#xA;DoBiq7FXYq7FXYq7FXYq7FXYq7FXYq7FXYq7FXYq7FXYq7FXYq7FXYq7FXYq7FXYq7FXYq7FXYq7&#xA;FXYq7FXYq7FXYq7FXYq7FXYq7FXYq7FXYq7FXYq7FXYq7FXYq7FXYq7FXYq7FXYq7FXYq7FXYq7F&#xA;XYq7FXYq7FXYq7FXYq7FX//Z</xmpGImg:image>
               </rdf:li>
            </rdf:Alt>
         </xmp:Thumbnails>
      </rdf:Description>
      <rdf:Description rdf:about=""
            xmlns:xmpMM="http://ns.adobe.com/xap/1.0/mm/"
            xmlns:stRef="http://ns.adobe.com/xap/1.0/sType/ResourceRef#"
            xmlns:stEvt="http://ns.adobe.com/xap/1.0/sType/ResourceEvent#">
         <xmpMM:InstanceID>xmp.iid:9abfa668-2609-c146-aeb5-945099e7e6e3</xmpMM:InstanceID>
         <xmpMM:DocumentID>xmp.did:9abfa668-2609-c146-aeb5-945099e7e6e3</xmpMM:DocumentID>
         <xmpMM:OriginalDocumentID>uuid:5D20892493BFDB11914A8590D31508C8</xmpMM:OriginalDocumentID>
         <xmpMM:RenditionClass>proof:pdf</xmpMM:RenditionClass>
         <xmpMM:DerivedFrom rdf:parseType="Resource">
            <stRef:instanceID>uuid:ff470bc6-f939-440e-8f31-27b0eb70075c</stRef:instanceID>
            <stRef:documentID>xmp.did:4de20fe2-e96f-dd46-b8bd-1606dc72d06f</stRef:documentID>
            <stRef:originalDocumentID>uuid:5D20892493BFDB11914A8590D31508C8</stRef:originalDocumentID>
            <stRef:renditionClass>proof:pdf</stRef:renditionClass>
         </xmpMM:DerivedFrom>
         <xmpMM:History>
            <rdf:Seq>
               <rdf:li rdf:parseType="Resource">
                  <stEvt:action>saved</stEvt:action>
                  <stEvt:instanceID>xmp.iid:9abfa668-2609-c146-aeb5-945099e7e6e3</stEvt:instanceID>
                  <stEvt:when>2017-04-11T01:59:07-05:00</stEvt:when>
                  <stEvt:softwareAgent>Adobe Illustrator CC (Windows)</stEvt:softwareAgent>
                  <stEvt:changed>/</stEvt:changed>
               </rdf:li>
            </rdf:Seq>
         </xmpMM:History>
      </rdf:Description>
      <rdf:Description rdf:about=""
            xmlns:illustrator="http://ns.adobe.com/illustrator/1.0/">
         <illustrator:StartupProfile>Print</illustrator:StartupProfile>
      </rdf:Description>
      <rdf:Description rdf:about=""
            xmlns:xmpTPg="http://ns.adobe.com/xap/1.0/t/pg/"
            xmlns:stDim="http://ns.adobe.com/xap/1.0/sType/Dimensions#"
            xmlns:xmpG="http://ns.adobe.com/xap/1.0/g/">
         <xmpTPg:HasVisibleOverprint>False</xmpTPg:HasVisibleOverprint>
         <xmpTPg:HasVisibleTransparency>True</xmpTPg:HasVisibleTransparency>
         <xmpTPg:NPages>1</xmpTPg:NPages>
         <xmpTPg:MaxPageSize rdf:parseType="Resource">
            <stDim:w>5.492981</stDim:w>
            <stDim:h>2.619513</stDim:h>
            <stDim:unit>Centimeters</stDim:unit>
         </xmpTPg:MaxPageSize>
         <xmpTPg:PlateNames>
            <rdf:Seq>
               <rdf:li>Cyan</rdf:li>
               <rdf:li>Magenta</rdf:li>
               <rdf:li>Yellow</rdf:li>
               <rdf:li>Black</rdf:li>
            </rdf:Seq>
         </xmpTPg:PlateNames>
         <xmpTPg:SwatchGroups>
            <rdf:Seq>
               <rdf:li rdf:parseType="Resource">
                  <xmpG:groupName>Default Swatch Group</xmpG:groupName>
                  <xmpG:groupType>0</xmpG:groupType>
               </rdf:li>
            </rdf:Seq>
         </xmpTPg:SwatchGroups>
      </rdf:Description>
      <rdf:Description rdf:about=""
            xmlns:pdf="http://ns.adobe.com/pdf/1.3/">
         <pdf:Producer>Adobe PDF library 10.01</pdf:Producer>
      </rdf:Description>
   </rdf:RDF>
</x:xmpmeta>
                                                                                                    
                                                                                                    
                                                                                                    
                                                                                                    
                                                                                                    
                                                                                                    
                                                                                                    
                                                                                                    
                                                                                                    
                                                                                                    
                                                                                                    
                                                                                                    
                                                                                                    
                                                                                                    
                                                                                                    
                                                                                                    
                                                                                                    
                                                                                                    
                                                                                                    
                                                                                                    
                           
<?xpacket end="w"?>
	</metadata>
<g>
	<rect id="XMLID_84_" x="0.397" opacity="0.5" fill="#FFFFFF" enable-background="new    " width="154.914" height="74.254"/>
	<rect id="XMLID_81_" x="0.397" fill="#3B86B1" width="154.914" height="48.154"/>
	<rect id="XMLID_80_" y="57.455" fill="none" width="155.707" height="13.102"/>
	<g enable-background="new    ">
		<path d="M19.058,57.457h2.906c0.655,0,1.155,0.05,1.499,0.15c0.462,0.136,0.857,0.378,1.187,0.726
			c0.33,0.347,0.58,0.772,0.752,1.275s0.258,1.123,0.258,1.861c0,0.647-0.081,1.206-0.242,1.676
			c-0.197,0.572-0.478,1.036-0.843,1.391c-0.276,0.269-0.648,0.479-1.117,0.629c-0.351,0.11-0.82,0.166-1.407,0.166h-2.992V57.457z
			 M20.648,58.789v5.216h1.187c0.444,0,0.765-0.025,0.961-0.076c0.258-0.064,0.472-0.173,0.642-0.327
			c0.17-0.154,0.309-0.407,0.417-0.76s0.161-0.834,0.161-1.442s-0.054-1.076-0.161-1.402c-0.107-0.325-0.258-0.58-0.451-0.762
			c-0.193-0.184-0.438-0.307-0.736-0.371c-0.222-0.05-0.657-0.075-1.305-0.075H20.648z"/>
		<path d="M27.007,65.331v-7.874h5.838v1.332h-4.249v1.745h3.953v1.327h-3.953v2.144h4.399v1.326H27.007z"/>
		<path d="M33.941,62.769l1.547-0.15c0.093,0.52,0.282,0.901,0.566,1.145c0.285,0.243,0.669,0.365,1.152,0.365
			c0.512,0,0.898-0.108,1.157-0.325c0.26-0.217,0.39-0.47,0.39-0.76c0-0.187-0.055-0.345-0.164-0.476
			c-0.109-0.131-0.3-0.244-0.572-0.341c-0.186-0.064-0.61-0.179-1.273-0.344c-0.852-0.211-1.45-0.471-1.794-0.778
			c-0.483-0.434-0.725-0.962-0.725-1.585c0-0.401,0.114-0.776,0.341-1.125c0.227-0.35,0.555-0.615,0.982-0.798
			c0.428-0.183,0.945-0.273,1.55-0.273c0.988,0,1.732,0.216,2.231,0.649c0.5,0.434,0.762,1.012,0.787,1.735l-1.59,0.069
			c-0.068-0.404-0.214-0.695-0.438-0.873c-0.224-0.177-0.56-0.266-1.007-0.266c-0.462,0-0.824,0.095-1.085,0.284
			c-0.168,0.122-0.252,0.285-0.252,0.489c0,0.187,0.079,0.346,0.236,0.478c0.201,0.169,0.688,0.344,1.461,0.527
			c0.773,0.182,1.346,0.371,1.716,0.566c0.371,0.195,0.661,0.462,0.87,0.8c0.21,0.339,0.314,0.757,0.314,1.255
			c0,0.451-0.125,0.873-0.376,1.268c-0.25,0.394-0.605,0.687-1.063,0.878s-1.029,0.287-1.713,0.287c-0.996,0-1.76-0.23-2.293-0.69
			S34.045,63.649,33.941,62.769z"/>
		<path d="M46.719,62.437l1.542,0.488c-0.236,0.859-0.629,1.498-1.179,1.915c-0.55,0.417-1.247,0.626-2.092,0.626
			c-1.045,0-1.905-0.357-2.578-1.072c-0.673-0.714-1.01-1.69-1.01-2.93c0-1.311,0.338-2.328,1.015-3.054
			c0.677-0.725,1.566-1.087,2.669-1.087c0.963,0,1.746,0.284,2.347,0.854c0.358,0.337,0.626,0.82,0.806,1.45l-1.574,0.376
			c-0.093-0.408-0.288-0.73-0.583-0.967c-0.296-0.236-0.655-0.354-1.077-0.354c-0.583,0-1.057,0.21-1.421,0.628
			c-0.363,0.42-0.545,1.098-0.545,2.036c0,0.995,0.179,1.704,0.537,2.127s0.824,0.634,1.396,0.634c0.422,0,0.786-0.135,1.09-0.402
			C46.368,63.435,46.587,63.013,46.719,62.437z"/>
		<path d="M56.726,65.331h-1.729l-0.688-1.789h-3.147l-0.65,1.789h-1.687l3.067-7.874h1.681L56.726,65.331z M53.798,62.216
			l-1.085-2.922l-1.063,2.922H53.798z"/>
		<path d="M57.574,65.331v-7.874h3.346c0.841,0,1.453,0.07,1.834,0.212c0.381,0.142,0.687,0.394,0.916,0.755
			s0.344,0.775,0.344,1.241c0,0.59-0.174,1.078-0.521,1.463s-0.867,0.628-1.558,0.729c0.344,0.2,0.627,0.42,0.852,0.66
			c0.224,0.24,0.525,0.666,0.905,1.278l0.961,1.536h-1.901l-1.149-1.713c-0.408-0.613-0.688-0.999-0.838-1.158
			s-0.31-0.269-0.478-0.327c-0.168-0.06-0.435-0.089-0.8-0.089h-0.322v3.287H57.574z M59.164,60.787h1.176
			c0.763,0,1.239-0.032,1.429-0.097s0.338-0.176,0.446-0.333s0.161-0.354,0.161-0.591c0-0.265-0.071-0.479-0.212-0.642
			c-0.142-0.163-0.341-0.267-0.599-0.31c-0.129-0.018-0.516-0.026-1.16-0.026h-1.241V60.787z"/>
		<path d="M69.176,62.437v-1.327h3.427v3.137c-0.333,0.322-0.815,0.606-1.448,0.852c-0.632,0.245-1.272,0.368-1.92,0.368
			c-0.824,0-1.542-0.173-2.154-0.519s-1.072-0.84-1.38-1.482s-0.462-1.342-0.462-2.098c0-0.82,0.172-1.549,0.516-2.187
			c0.344-0.637,0.847-1.126,1.509-1.466c0.505-0.262,1.133-0.392,1.885-0.392c0.978,0,1.741,0.204,2.291,0.614
			c0.549,0.41,0.903,0.977,1.061,1.7l-1.579,0.295c-0.111-0.387-0.319-0.691-0.626-0.915c-0.306-0.224-0.688-0.336-1.146-0.336
			c-0.695,0-1.247,0.22-1.657,0.661c-0.41,0.439-0.615,1.094-0.615,1.96c0,0.935,0.208,1.636,0.623,2.103
			c0.416,0.468,0.959,0.701,1.633,0.701c0.333,0,0.667-0.065,1.001-0.196c0.335-0.131,0.623-0.289,0.862-0.476v-0.998H69.176z"/>
		<path d="M81.169,65.331H79.44l-0.688-1.789h-3.147l-0.65,1.789h-1.687l3.067-7.874h1.681L81.169,65.331z M78.242,62.216
			l-1.085-2.922l-1.063,2.922H78.242z"/>
		<path d="M82.018,65.331v-7.874h3.347c0.841,0,1.452,0.07,1.834,0.212c0.381,0.142,0.687,0.394,0.916,0.755
			c0.229,0.361,0.344,0.775,0.344,1.241c0,0.59-0.174,1.078-0.521,1.463s-0.867,0.628-1.558,0.729c0.344,0.2,0.628,0.42,0.852,0.66
			s0.525,0.666,0.905,1.278l0.961,1.536h-1.901l-1.149-1.713c-0.408-0.613-0.688-0.999-0.838-1.158s-0.31-0.269-0.479-0.327
			c-0.168-0.06-0.435-0.089-0.8-0.089h-0.322v3.287H82.018z M83.608,60.787h1.177c0.762,0,1.238-0.032,1.428-0.097
			c0.19-0.064,0.339-0.176,0.446-0.333s0.161-0.354,0.161-0.591c0-0.265-0.07-0.479-0.212-0.642s-0.341-0.267-0.599-0.31
			c-0.129-0.018-0.516-0.026-1.16-0.026h-1.241V60.787z"/>
		<path d="M92.691,61.442c0-0.802,0.119-1.476,0.359-2.02c0.18-0.401,0.424-0.761,0.733-1.08c0.31-0.318,0.649-0.555,1.018-0.709
			c0.491-0.207,1.056-0.311,1.697-0.311c1.16,0,2.089,0.359,2.785,1.079s1.044,1.721,1.044,3.003c0,1.271-0.346,2.266-1.036,2.983
			s-1.614,1.077-2.771,1.077c-1.171,0-2.103-0.357-2.793-1.072C93.037,63.68,92.691,62.695,92.691,61.442z M94.329,61.389
			c0,0.892,0.206,1.567,0.618,2.027c0.411,0.46,0.934,0.69,1.568,0.69c0.633,0,1.153-0.229,1.56-0.685
			c0.407-0.457,0.61-1.142,0.61-2.055c0-0.902-0.198-1.575-0.594-2.02c-0.396-0.444-0.922-0.666-1.576-0.666
			c-0.656,0-1.184,0.225-1.585,0.674S94.329,60.482,94.329,61.389z"/>
		<path d="M101.574,57.457h3.148c0.623,0,1.088,0.026,1.393,0.078c0.307,0.052,0.58,0.16,0.822,0.325
			c0.242,0.164,0.443,0.384,0.604,0.657c0.161,0.274,0.241,0.581,0.241,0.921c0,0.369-0.1,0.708-0.297,1.016
			c-0.199,0.308-0.469,0.539-0.809,0.693c0.479,0.139,0.848,0.377,1.105,0.714s0.387,0.732,0.387,1.187
			c0,0.358-0.082,0.707-0.25,1.045c-0.166,0.339-0.393,0.609-0.682,0.812c-0.288,0.202-0.644,0.326-1.066,0.373
			c-0.265,0.028-0.904,0.047-1.917,0.054h-2.681V57.457z M103.164,58.768v1.821h1.043c0.619,0,1.004-0.01,1.154-0.027
			c0.271-0.032,0.486-0.126,0.643-0.282c0.154-0.155,0.232-0.36,0.232-0.614c0-0.244-0.066-0.441-0.201-0.594
			s-0.334-0.244-0.599-0.277c-0.157-0.018-0.61-0.026-1.358-0.026H103.164z M103.164,61.899v2.105h1.473
			c0.572,0,0.936-0.017,1.09-0.049c0.236-0.043,0.429-0.147,0.578-0.314c0.148-0.166,0.223-0.389,0.223-0.668
			c0-0.236-0.058-0.438-0.172-0.602c-0.115-0.165-0.281-0.285-0.498-0.36c-0.216-0.075-0.686-0.112-1.409-0.112H103.164z"/>
		<path d="M112.354,57.457h1.585v4.984c0,0.651-0.058,1.153-0.172,1.504c-0.154,0.458-0.434,0.826-0.838,1.104
			c-0.405,0.277-0.938,0.417-1.602,0.417c-0.776,0-1.375-0.218-1.793-0.653c-0.42-0.435-0.631-1.073-0.635-1.915l1.499-0.172
			c0.019,0.451,0.084,0.771,0.198,0.957c0.172,0.282,0.434,0.424,0.785,0.424c0.354,0,0.604-0.102,0.752-0.304
			c0.146-0.202,0.22-0.622,0.22-1.259V57.457z"/>
		<path d="M115.63,65.331v-7.874h5.838v1.332h-4.248v1.745h3.953v1.327h-3.953v2.144h4.398v1.326H115.63z"/>
		<path d="M124.74,65.331v-6.542h-2.336v-1.332h6.257v1.332h-2.331v6.542H124.74z"/>
		<path d="M129.166,61.442c0-0.802,0.12-1.476,0.359-2.02c0.18-0.401,0.424-0.761,0.734-1.08c0.309-0.318,0.648-0.555,1.018-0.709
			c0.49-0.207,1.056-0.311,1.697-0.311c1.16,0,2.088,0.359,2.785,1.079c0.695,0.72,1.044,1.721,1.044,3.003
			c0,1.271-0.346,2.266-1.036,2.983c-0.691,0.718-1.615,1.077-2.771,1.077c-1.172,0-2.103-0.357-2.793-1.072
			C129.511,63.68,129.166,62.695,129.166,61.442z M130.804,61.389c0,0.892,0.205,1.567,0.617,2.027s0.935,0.69,1.568,0.69
			s1.154-0.229,1.561-0.685c0.406-0.457,0.609-1.142,0.609-2.055c0-0.902-0.197-1.575-0.594-2.02
			c-0.396-0.444-0.921-0.666-1.576-0.666s-1.184,0.225-1.584,0.674C131.004,59.805,130.804,60.482,130.804,61.389z"/>
	</g>
	<path id="XMLID_76_" fill="#FEFEFE" d="M89.046,29.529c-1.168,0-1.944,0.972-1.944,1.945v2.921H68.807v-2.921
		c0-0.973-0.977-1.945-1.954-1.945c-1.161,0-1.941,0.972-1.941,1.945v4.869c0,1.164,0.781,1.941,1.941,1.941h22.191
		c0.973,0,1.75-0.777,1.75-1.941v-4.869C90.796,30.501,90.018,29.529,89.046,29.529L89.046,29.529z M77.371,31.67
		c0.191,0.199,0.773,0.199,1.164,0l6.623-6.808c0.188-0.196,0.188-0.391,0.188-0.784c-0.188-0.194-0.381-0.388-0.577-0.388h-3.313
		V11.43c0-0.973-0.576-1.561-1.361-1.561h-4.285c-0.967,0-1.556,0.588-1.556,1.561v12.259h-3.11c-0.388,0-0.587,0.194-0.78,0.388
		c0,0.393,0,0.588,0.194,0.784L77.371,31.67z"/>
</g>
</svg>
