<?xml version="1.0" encoding="utf-8"?>
<!-- Generator: Adobe Illustrator 16.0.0, SVG Export Plug-In . SVG Version: 6.00 Build 0)  -->
<!DOCTYPE svg PUBLIC "-//W3C//DTD SVG 1.1//EN" "http://www.w3.org/Graphics/SVG/1.1/DTD/svg11.dtd">
<svg version="1.1" id="Capa_1" xmlns="http://www.w3.org/2000/svg" xmlns:xlink="http://www.w3.org/1999/xlink" x="0px" y="0px"
	 width="154.914px" height="74.254px" viewBox="0 0 154.914 74.254" enable-background="new 0 0 154.914 74.254"
	 xml:space="preserve">
<metadata><?xpacket begin="﻿" id="W5M0MpCehiHzreSzNTczkc9d"?>
<x:xmpmeta xmlns:x="adobe:ns:meta/" x:xmptk="Adobe XMP Core 5.3-c011 66.145661, 2012/02/06-14:56:27        ">
   <rdf:RDF xmlns:rdf="http://www.w3.org/1999/02/22-rdf-syntax-ns#">
      <rdf:Description rdf:about=""
            xmlns:dc="http://purl.org/dc/elements/1.1/">
         <dc:format>image/svg+xml</dc:format>
         <dc:title>
            <rdf:Alt>
               <rdf:li xml:lang="x-default">Imprimir</rdf:li>
            </rdf:Alt>
         </dc:title>
      </rdf:Description>
      <rdf:Description rdf:about=""
            xmlns:xmp="http://ns.adobe.com/xap/1.0/"
            xmlns:xmpGImg="http://ns.adobe.com/xap/1.0/g/img/">
         <xmp:MetadataDate>2017-04-11T01:59:07-05:00</xmp:MetadataDate>
         <xmp:ModifyDate>2017-04-11T01:59:07-05:00</xmp:ModifyDate>
         <xmp:CreateDate>2017-04-11T01:59:07-05:00</xmp:CreateDate>
         <xmp:CreatorTool>Adobe Illustrator CC (Windows)</xmp:CreatorTool>
         <xmp:Thumbnails>
            <rdf:Alt>
               <rdf:li rdf:parseType="Resource">
                  <xmpGImg:width>256</xmpGImg:width>
                  <xmpGImg:height>124</xmpGImg:height>
                  <xmpGImg:format>JPEG</xmpGImg:format>
                  <xmpGImg:image>/9j/4AAQSkZJRgABAgEBLAEsAAD/7QAsUGhvdG9zaG9wIDMuMAA4QklNA+0AAAAAABABLAAAAAEA&#xA;AQEsAAAAAQAB/+4ADkFkb2JlAGTAAAAAAf/bAIQABgQEBAUEBgUFBgkGBQYJCwgGBggLDAoKCwoK&#xA;DBAMDAwMDAwQDA4PEA8ODBMTFBQTExwbGxscHx8fHx8fHx8fHwEHBwcNDA0YEBAYGhURFRofHx8f&#xA;Hx8fHx8fHx8fHx8fHx8fHx8fHx8fHx8fHx8fHx8fHx8fHx8fHx8fHx8fHx8f/8AAEQgAfAEAAwER&#xA;AAIRAQMRAf/EAaIAAAAHAQEBAQEAAAAAAAAAAAQFAwIGAQAHCAkKCwEAAgIDAQEBAQEAAAAAAAAA&#xA;AQACAwQFBgcICQoLEAACAQMDAgQCBgcDBAIGAnMBAgMRBAAFIRIxQVEGE2EicYEUMpGhBxWxQiPB&#xA;UtHhMxZi8CRygvElQzRTkqKyY3PCNUQnk6OzNhdUZHTD0uIIJoMJChgZhJRFRqS0VtNVKBry4/PE&#xA;1OT0ZXWFlaW1xdXl9WZ2hpamtsbW5vY3R1dnd4eXp7fH1+f3OEhYaHiImKi4yNjo+Ck5SVlpeYmZ&#xA;qbnJ2en5KjpKWmp6ipqqusra6voRAAICAQIDBQUEBQYECAMDbQEAAhEDBCESMUEFURNhIgZxgZEy&#xA;obHwFMHR4SNCFVJicvEzJDRDghaSUyWiY7LCB3PSNeJEgxdUkwgJChgZJjZFGidkdFU38qOzwygp&#xA;0+PzhJSktMTU5PRldYWVpbXF1eX1RlZmdoaWprbG1ub2R1dnd4eXp7fH1+f3OEhYaHiImKi4yNjo&#xA;+DlJWWl5iZmpucnZ6fkqOkpaanqKmqq6ytrq+v/aAAwDAQACEQMRAD8A8qYq7FXYq7FXYq7FXYq7&#xA;FXYq7FXYq7FXYq7FXYq7FXYq7FXYq7FXYq7FXYq7FXYq7FXYq7FXYq7FXYq7FXYq7FXYq7FXYq7F&#xA;XYq7FXYq7FXYq7FXYq7FXYqyHQvy88+a/wADo3l/UL+N/szQ20rRfTJx4D6Tir0DRv8AnFD86NRQ&#xA;PNplvpiN9k3l1EDSndYTMw8NxiqOu/8AnD384YIucSaddN/vqK6Ib/kqka/jirFNV/5x7/OfTOX1&#xA;jypeSBf+WX07vtXb6u8uKsQ1Tyr5o0mv6V0e+0/j9r61bSw0oSN/UVfDFUqxV2KuxV2KuxV2KuxV&#xA;2KuxV2KuxV2KuxV2KuxV2KuxV2KuxV2KuxV2KuxV2KvpP8s/+cRU1Py9B5h896rLo9tcxrPHp9v6&#xA;aTRwsOSvPNMHSNiu/DgadzWoCr1zy5/zip+SdlHHObKfWwQGinu7p3Vgf2qW/oRt/wADTFXouhfl&#xA;55E0DgdF8v6fYSJ9maG2iWX6ZOPM/ScVZBirsVdiqB1XXdE0iH19W1C20+Dr6t1NHAlP9aQqMVef&#xA;a7/zkt+S+j1V/MMd7MOkVhHLc1p4SIvpfe+Kvjr88vOvlbzp+YFz5g8t2s9rZXEEMcyXMccTNNEv&#xA;plwsbyDiUVe9fbFXn+KuxV2KuxV2KuxV2KuxV2KuxV2KuxV2KuxV2KuxV2KuxV2KuxV2KuxVGaPL&#xA;Zw6tZS3q87OO4ie5SlaxK4Linf4a4q+xv+cuvL3nPzH5N0S58sxzajo1vLJPqlrZ8pWkDohtp+CV&#xA;Log57itOQPvir5R8s+fvPfk65P6B1i80p0YmS2R2ERYdfUgesbH/AFlxV7Z5P/5zU82WSrB5p0i3&#xA;1iMAD61asbSf3ZlpJE/yVUxVmUv/ADm75REAMPlvUHnoeUbywole3xgsd/8AVxVhXmL/AJzX86XX&#xA;JNB0Ox0yM1AkuWkvJR4EEeglfmpxV5lr/wCfn5wa7yW980XkUbVrFZstmtP5f9GEVR88VYQTqOp3&#xA;oqZr29nNB9qWV2/4ZmOKs10P8hvzg1uMSWHlW9EZHJXulSzBHipumhr9GKsIvbK6sbyeyvImgu7W&#xA;R4biBxRkkjYq6MPFWFDiqhirsVdirsVdirsVdirsVdirsVdirsVdirsVdirsVdirsVdirsVdirsV&#xA;ROnWFzqOoWun2q8rm8mjggXxeVgijavc4q+7vMXnnyt+Qn5e6Bot/Jd6zdLEbaxi5AyzGIAyuWc0&#xA;jiQyBVXfiKKAaYqxJfzr/wCca/zKVLfzhpkdjeuAol1O3CsD04pe25ZkX3ZkxVAa3/ziF+XfmO2O&#xA;peQ/MjW8MlTGvOPUbMnsqSIyuo9y74q85k/5w3/Ntb76ukulvAWoL36y4jp4lfS9T7kxVmugf84R&#xA;IqibzL5oooFZYNPgoAB1pPMf+ZWKp5/yrv8A5xH8iiutaja6jdw/aF5eNezbfzWtp8P/ACSxVTn/&#xA;AOcqvyW8rRNbeTfLcstBQfVLaDT7dh7t/edu8eKsD8xf85p+f73kmh6VYaRE3R5Od3OvyZjFH98e&#xA;KvB9c1rUdc1i91jUpBNqGoTPcXcqokYaWQ8mbhGFUVPgMVQOKuxV2KuxV2KuxV2KuxV2KuxV2Kux&#xA;V2KuxV2KuxV2KuxV2KuxV2KuxVF6VqM+mapZ6lb0+sWM8dzDXpzicOtfpXFX3H57/Lzy9+fnkLQN&#xA;fs7mbR7sRvPp1xLCWKrNQSwyxkxll5xji6mn7S1B3VfOfm//AJxU/Nvy/wA5bWxi160Xf1dNfnIB&#xA;7wSCOUn/AFFbFXm1rqHnDyhqri1uL/QNVjoJVRprOcezqODfQcVZ2v8Azk9+d62H1P8AxGSAKCc2&#xA;1qZqeHqelX6evvirCPMHnrzn5iYnXdcvtSB/3Xc3EkkY/wBWMngv0DFUf5e/Kf8AMrzFxOj+WtQu&#xA;Yn+zcGBooD/z2l4R/wDDYq9O8u/84bfmhqHF9XuLDRYj9tJJTcTj5LAGjP8AyMGKvQLX/nDv8udF&#xA;sjc+bvNlwV4keurW+nwg0pU+t69aV/mGKvlbzFptrpev6lptpdx39pZ3U0FtfQsrxzxRyFUlRlJU&#xA;h1AYUOKpdirsVdirsVdirsVdirsVdirsVdirsVdirsVdirsVdirsVdirsVdirsVTLy1Y2uoeY9Ks&#xA;LxuFpd3lvBcP/LHJKqOe3RTir7A/5ys8/ecfI/l7y9pvlJ30iwvTNDPfWyqpjW3RBDbxtQ+lVWJ2&#xA;ofh274q8Y8o/85bfmvohji1Ke31+zXYpexhJuP8AkzQ8Gr7uGxV6xp//ADlB+S3na1Ww8/aB9SqD&#xA;/vZAmo2qk/ySInrKfcRCnjiqo35ff84cGT9MHVNM+rsPU+ojV3C7mv8AcCb1wf8AI/DFVv8Ayvb/&#xA;AJxl8k7eVNFS8uotkn07T1jfkOnK4uhDIfn8WKsU8xf85u69LyTy75btrMbhZr+Z7lj7+nELcKf9&#xA;k2KvMfMP/OSH5y63yWXzFNYwt0i09UtOPykiCy/e+KvP7u81bVrpp7ue4v7oglpZXeaQgbklmLNi&#xA;qDxV2KuxV2KuxV2KuxV2KuxV2KuxV2KuxV2KuxV2KuxV2KuxV2KuxV2KuxVsEg1GxHQ4q+rPIX/O&#xA;U/knWvLMPlz81dP+sOirFNfvbi8tbgJssk0NGdZO5Kq1TuKdMVTq5/5x9/5x7/MK3e68j6wljdEF&#xA;iunXIuEUnvLazlpE/wBUFMVeYeb/APnDz8zNILy6FLa+YrVd1ETC2uaDuYpjw+hZWOKvMG/Kv8zF&#xA;vjYnypq31sNw9MWVwd+vUJSlN61pTfFWceXv+cUfzl1fi0+mwaRC3SXULhF2944fWkH0rir0zQP+&#xA;cI7SNPW8zeaGKqKyw2ECxhQNyfXmLf8AJvFU5Hkn/nEHyN8WqX9nqV3D9r6zdSajKCOzW1ryT748&#xA;VUbv/nLL8ofLMLWvkzyzLKo2C28EGm2zAdKFQz/fFir5Q8xanbarr+papa2gsLe/uprmKxVuawrN&#xA;IXEStxSoTlQbYql2KuxV2KuxV2KuxV2KuxV2KuxV2KuxV2KuxV2KuxV2KuxV2KuxV2KuxV2KuxVU&#xA;t7i4tp0nt5XhniIaOWNijqw6FWFCDir1Dyh/zkz+b3loon6XOsWi9bXVVNzXt/fVWf8A5KYq9L/6&#xA;Hj1X6iE/wjB9fpvcfXX9Gvj6Po8v+SmKsF8xf85afnFq3JbW9ttFhaoKWFuvKn/GS49dwfdSMVeZ&#xA;695y83eYG5a5rV7qe9Qt1cSyqD/kq7FR9AxVJsVdirsVdirsVdirsVdirsVdirsVdirsVdiqL/RO&#xA;q/8ALHP/AMi3/pirv0Tqv/LHP/yLf+mKu/ROq/8ALHP/AMi3/pirv0Tqv/LHP/yLf+mKu/ROq/8A&#xA;LHP/AMi3/pirv0Tqv/LHP/yLf+mKu/ROq/8ALHP/AMi3/pirv0Tqv/LHP/yLf+mKu/ROq/8ALHP/&#xA;AMi3/pirv0Tqv/LHP/yLf+mKu/ROq/8ALHP/AMi3/pirv0Tqv/LHP/yLf+mKu/ROq/8ALHP/AMi3&#xA;/pirv0Tqv/LHP/yLf+mKu/ROq/8ALHP/AMi3/pirv0Tqv/LHP/yLf+mKu/ROq/8ALHP/AMi3/pir&#xA;v0Tqv/LHP/yLf+mKu/ROq/8ALHP/AMi3/pirv0Tqv/LHP/yLf+mKu/ROq/8ALHP/AMi3/pirv0Tq&#xA;v/LHP/yLf+mKu/ROq/8ALHP/AMi3/pirv0Tqv/LHP/yLf+mKu/ROq/8ALHP/AMi3/pirv0Tqv/LH&#xA;P/yLf+mKu/ROq/8ALHP/AMi3/pirv0Tqv/LHP/yLf+mKu/ROq/8ALHP/AMi3/pirv0Tqv/LHP/yL&#xA;f+mKu/ROq/8ALHP/AMi3/pirv0Tqv/LHP/yLf+mKv1JxV2KuxV2KuxV2KuxV2KuxV2KuxV2KuxV2&#xA;KuxV2KuxV2KuxV2KuxV2KuxV2KuxV2KuxV2KuxV2KuxV2KuxV2KuxV2KuxV2KuxVSurq2tLWa7up&#xA;FhtrdGlnmc0VEQFmZiegAFTirEofzm/KaaVYk836Tzc0XleQqK/NmAxVPdW82eWdIewTVNUtrN9U&#xA;cRaaJpVX6w54gLFU/ETzXp44qlOqfmv+WmlahPp2peZtOs762bhcW01xGkiMOzKTUHFU2t/Nfle4&#xA;0V9dg1iyl0SMFpdTW4iNsgFK8pg3BaV3qcVRun6jp+o2UN9p9zFeWVwvOC6t3WWKRf5kdCVYfI4q&#xA;g7DzR5c1DVr3R7HUre51XTqfX7KKRWlhqaD1EG6/TiqT3v5s/llY6q2k3nmjTINQjYxywSXMSlHB&#xA;oUdieKsD2Y1xVk8l3axWrXck0aWiJ6rXDMBGIwOXMuTx403rirGdL/Nf8tNV1NdL03zPpt1fu3CK&#xA;3juYy0jH9mPekh/1a4qivMP5h+RvLd6ljr+u2Wl3kkYnjt7qZInaJmZQ4ViNiyMK+2Kojy75z8pe&#xA;ZVlby/rNlqvoU9dbSeOZo+VQvNUJK14mleuKrtW83eV9H1Gy0zVdVtbHUNSYJYWs8qRyTMWCARqx&#xA;BarMB88VVdf8y+X/AC7Yi/13UINMsi4iFxcusac2BKrybapCnFUm0v8ANf8ALTVdQg07TfM2nXl9&#xA;ctwt7aG4jeR2PZVBqTiqC/Knz3qvnXTdT1a6gs7WzhvpbOxt7WdbmZUioa3Lxs0ayFXU8B069xir&#xA;IdI83eV9Y1C+03StVtb6/wBNYx6hawSq8kLBihEig1X4lIxVN8VdirsVdirsVdirsVdirsVdirsV&#xA;dirsVdirsVY/+Yf/ACgHmb/tlX3/AFDPir400W2vLj8kGSD8qF1E/V7pv8dK4MgVbiRmm9NIvU/c&#xA;AFP7ynw77bYqy/zTNpsvkz8hRpt+2pW0WorD9aZSjc4ri3SSPg26+m4KD2AxVTmEp/O/8xfT/LuP&#xA;8wD9aj/cyOiC02PxfHFNX1Onbpiqj5G+q235PfnHYSo+l6sJDNceV2WRVsIi5CBGk3av2D3oi16j&#xA;FX0P+QP/AJJryn/zAr/xJsVeB6prep6J50/PfUtMma3vorWJIZ02ZPWuI4mZT2IVzQ9sVeiflf8A&#xA;kX+Vep/kxpb6hpltc3esaet3e61IP9JjmmTmxjmNDH6JPGg+H4d674q8QtfNev6r+Qnlfyxe3ksG&#xA;kXXmd9KuLssdrKOOCZI2J3KK9yxA3A4AdqYq9C/PDy3+SXlRbLRbryVq9pBYRwTr5k0KOOMUZmQR&#xA;TXU3JXckAkuC3ShxVAfmvqlnefnX5L1P/DE/nG1uvKdvcJoLqJZ5lla7dWcBJAzx15NReoxVGf8A&#xA;OP8Aa2fmn857/wA5eXNEg8p6Bpdk1ld6PFOjSPcSDj8cACMikjlXgFqnc1xVg35w65pnnrz5518w&#xA;HXYLCTylFBZ+V7Z5Uje6ktrj96YamrfZmdeO9WTFXoX58edIvOn/ADjNoHmNCvrXt9afXEXolzHH&#xA;NHOtO1JFNPamKsq/LCwhuvN9r9c/JWDyeIFeeHXfUikMUqD4VULbxGrV68sVYp+SPnOLyZ+QXnvz&#xA;EzATWet3ws1anxXMlvaxwLQ9f3jCvtXFXnv5Q65pfkHz35K15ddgvx5rt5bTzTbxzLI9rLczkxGb&#xA;eqU5Qu3Lur4q+4cVdirsVdirsVdirsVdirsVdirsVdirsVdirsVS/wAw6T+mNA1PSPV9D9I2k9p6&#xA;/Hnw9eNo+fGq8uPKtKjFXiVh/wA43fmFYeVl8qWn5o3Fv5dVJYjYRaWiAx3DM0ycxc86OZGrU98V&#xA;Tu//AOccdLbRfI2kaZq72dt5LvGvi0sAne7kkmSeTkRJEI6uhps1AfbFVHUPyF85J508xeZ/LP5g&#xA;SeX28xyiS7t4tNSchVBCr6rzr9mp3Criq7Rf+ccILDyv5usLzzFPqfmLzhGIr/X7iCpUBufwweqS&#xA;asatWTw6UxVQ0P8AI382dC0m10jSfzYmtdOs09O2t10e3YIgNaAtOzd+5xVkGlfkfptv5w8665qd&#xA;8NS0/wA6Qm3utKMBi9KNvtD1hKxY+BCrTFWGx/8AONnnuw0qfyvov5k3dp5MuC4OmPah5UilJMkS&#xA;yCRdmqeXHiDU1Xc1VZnff84/+Rrr8roPy94yx2Nq31i31AcTcrebk3BJHEs3IqwpTieIptRVhuof&#xA;844fmDr9pb6J5q/My81LyzbspNmlqEllEf2A8jSvUjrV+dD2xVnKfk7bQfmX5c85WuptHbeXNGXR&#xA;INLeHm0kaLMqyNceotDSfp6fbrvsqlepfkVdwfmPf+ePKHmL/Dl1qtrLb6lZCz+sxSyzKQ04Kz2/&#xA;E8+ElKfbWtdziq/yF/zjd+XXlzy3DpmsabZeZNRV5JJ9Wu7RFeTmxKqEZpSqqtBTkfHvirGX/wCc&#xA;WZv8Ban5Jh81lNJu9Wj1aw5WPNrXijxvEa3I9TkrJ8Xw0Kk0+LZV75irwX/oVyZvJyeUpfNZbSZN&#xA;dk17UFWxKNOHiihW3qLn4AqxueW9SwPEcd1WSeff+cbvy68x+W5tM0fTbLy3qLPHJBq1paIzx8GB&#xA;ZSitEWVlqKch49sVek6JZ31lo9jZ3939fvbaCOG5vuHpevIiBWl9Pk/HmRWnI4qjcVdirsVdirsV&#xA;dirsVdirsVdirsVdirsVdirsVdirsVdirsVdirsVdirsVdirsVdirsVdirsVdirsVdirsVdirsVd&#xA;irsVdirsVdirsVdirsVdirsVdirsVdirsVdirsVdirsVdirsVdirsVdirsVdirsVdirsVdirsVdi&#xA;rsVdirsVdirsVf/Z</xmpGImg:image>
               </rdf:li>
            </rdf:Alt>
         </xmp:Thumbnails>
      </rdf:Description>
      <rdf:Description rdf:about=""
            xmlns:xmpMM="http://ns.adobe.com/xap/1.0/mm/"
            xmlns:stRef="http://ns.adobe.com/xap/1.0/sType/ResourceRef#"
            xmlns:stEvt="http://ns.adobe.com/xap/1.0/sType/ResourceEvent#">
         <xmpMM:InstanceID>xmp.iid:9abfa668-2609-c146-aeb5-945099e7e6e3</xmpMM:InstanceID>
         <xmpMM:DocumentID>xmp.did:9abfa668-2609-c146-aeb5-945099e7e6e3</xmpMM:DocumentID>
         <xmpMM:OriginalDocumentID>uuid:5D20892493BFDB11914A8590D31508C8</xmpMM:OriginalDocumentID>
         <xmpMM:RenditionClass>proof:pdf</xmpMM:RenditionClass>
         <xmpMM:DerivedFrom rdf:parseType="Resource">
            <stRef:instanceID>uuid:ff470bc6-f939-440e-8f31-27b0eb70075c</stRef:instanceID>
            <stRef:documentID>xmp.did:4de20fe2-e96f-dd46-b8bd-1606dc72d06f</stRef:documentID>
            <stRef:originalDocumentID>uuid:5D20892493BFDB11914A8590D31508C8</stRef:originalDocumentID>
            <stRef:renditionClass>proof:pdf</stRef:renditionClass>
         </xmpMM:DerivedFrom>
         <xmpMM:History>
            <rdf:Seq>
               <rdf:li rdf:parseType="Resource">
                  <stEvt:action>saved</stEvt:action>
                  <stEvt:instanceID>xmp.iid:9abfa668-2609-c146-aeb5-945099e7e6e3</stEvt:instanceID>
                  <stEvt:when>2017-04-11T01:59:07-05:00</stEvt:when>
                  <stEvt:softwareAgent>Adobe Illustrator CC (Windows)</stEvt:softwareAgent>
                  <stEvt:changed>/</stEvt:changed>
               </rdf:li>
            </rdf:Seq>
         </xmpMM:History>
      </rdf:Description>
      <rdf:Description rdf:about=""
            xmlns:illustrator="http://ns.adobe.com/illustrator/1.0/">
         <illustrator:StartupProfile>Print</illustrator:StartupProfile>
      </rdf:Description>
      <rdf:Description rdf:about=""
            xmlns:xmpTPg="http://ns.adobe.com/xap/1.0/t/pg/"
            xmlns:stDim="http://ns.adobe.com/xap/1.0/sType/Dimensions#"
            xmlns:xmpG="http://ns.adobe.com/xap/1.0/g/">
         <xmpTPg:HasVisibleOverprint>False</xmpTPg:HasVisibleOverprint>
         <xmpTPg:HasVisibleTransparency>True</xmpTPg:HasVisibleTransparency>
         <xmpTPg:NPages>1</xmpTPg:NPages>
         <xmpTPg:MaxPageSize rdf:parseType="Resource">
            <stDim:w>5.465024</stDim:w>
            <stDim:h>2.619513</stDim:h>
            <stDim:unit>Centimeters</stDim:unit>
         </xmpTPg:MaxPageSize>
         <xmpTPg:PlateNames>
            <rdf:Seq>
               <rdf:li>Cyan</rdf:li>
               <rdf:li>Magenta</rdf:li>
               <rdf:li>Yellow</rdf:li>
               <rdf:li>Black</rdf:li>
            </rdf:Seq>
         </xmpTPg:PlateNames>
         <xmpTPg:SwatchGroups>
            <rdf:Seq>
               <rdf:li rdf:parseType="Resource">
                  <xmpG:groupName>Default Swatch Group</xmpG:groupName>
                  <xmpG:groupType>0</xmpG:groupType>
               </rdf:li>
            </rdf:Seq>
         </xmpTPg:SwatchGroups>
      </rdf:Description>
      <rdf:Description rdf:about=""
            xmlns:pdf="http://ns.adobe.com/pdf/1.3/">
         <pdf:Producer>Adobe PDF library 10.01</pdf:Producer>
      </rdf:Description>
   </rdf:RDF>
</x:xmpmeta>
                                                                                                    
                                                                                                    
                                                                                                    
                                                                                                    
                                                                                                    
                                                                                                    
                                                                                                    
                                                                                                    
                                                                                                    
                                                                                                    
                                                                                                    
                                                                                                    
                                                                                                    
                                                                                                    
                                                                                                    
                                                                                                    
                                                                                                    
                                                                                                    
                                                                                                    
                                                                                                    
                           
<?xpacket end="w"?>
	</metadata>
<g>
	<rect id="XMLID_283_" opacity="0.5" fill="#FFFFFF" enable-background="new    " width="154.914" height="74.254"/>
	<rect id="XMLID_273_" width="154.914" height="48.154"/>
	<rect id="XMLID_303_" y="57.455" fill="none" width="154.494" height="13.102"/>
	<g enable-background="new    ">
		<path d="M38.333,57.457h3.147c0.623,0,1.088,0.026,1.394,0.078c0.307,0.052,0.58,0.16,0.822,0.325
			c0.241,0.164,0.443,0.384,0.604,0.657c0.161,0.274,0.242,0.581,0.242,0.921c0,0.369-0.1,0.708-0.298,1.016
			c-0.199,0.308-0.468,0.539-0.809,0.693c0.48,0.139,0.849,0.377,1.106,0.714s0.387,0.732,0.387,1.187
			c0,0.358-0.083,0.707-0.25,1.045c-0.166,0.339-0.394,0.609-0.682,0.812c-0.289,0.202-0.644,0.326-1.066,0.373
			c-0.265,0.028-0.904,0.047-1.917,0.054h-2.68V57.457z M39.923,58.768v1.821h1.042c0.62,0,1.004-0.01,1.155-0.027
			c0.272-0.032,0.486-0.126,0.642-0.282c0.155-0.155,0.233-0.36,0.233-0.614c0-0.244-0.067-0.441-0.201-0.594
			c-0.135-0.152-0.334-0.244-0.599-0.277c-0.158-0.018-0.61-0.026-1.359-0.026H39.923z M39.923,61.899v2.105h1.472
			c0.573,0,0.937-0.017,1.09-0.049c0.236-0.043,0.429-0.147,0.578-0.314c0.148-0.166,0.223-0.389,0.223-0.668
			c0-0.236-0.057-0.438-0.172-0.602c-0.115-0.165-0.28-0.285-0.497-0.36c-0.216-0.075-0.687-0.112-1.41-0.112H39.923z"/>
		<path d="M46.223,65.331v-7.874h1.59v7.874H46.223z"/>
		<path d="M49.333,57.457h3.147c0.623,0,1.088,0.026,1.394,0.078c0.307,0.052,0.58,0.16,0.822,0.325
			c0.241,0.164,0.443,0.384,0.604,0.657c0.161,0.274,0.242,0.581,0.242,0.921c0,0.369-0.1,0.708-0.298,1.016
			c-0.199,0.308-0.468,0.539-0.809,0.693c0.48,0.139,0.849,0.377,1.106,0.714s0.387,0.732,0.387,1.187
			c0,0.358-0.083,0.707-0.25,1.045c-0.166,0.339-0.394,0.609-0.682,0.812c-0.289,0.202-0.644,0.326-1.066,0.373
			c-0.265,0.028-0.904,0.047-1.917,0.054h-2.68V57.457z M50.923,58.768v1.821h1.042c0.62,0,1.004-0.01,1.155-0.027
			c0.272-0.032,0.486-0.126,0.642-0.282c0.155-0.155,0.233-0.36,0.233-0.614c0-0.244-0.067-0.441-0.201-0.594
			c-0.135-0.152-0.334-0.244-0.599-0.277c-0.158-0.018-0.61-0.026-1.359-0.026H50.923z M50.923,61.899v2.105h1.472
			c0.573,0,0.937-0.017,1.09-0.049c0.236-0.043,0.429-0.147,0.578-0.314c0.148-0.166,0.223-0.389,0.223-0.668
			c0-0.236-0.057-0.438-0.172-0.602c-0.115-0.165-0.28-0.285-0.497-0.36c-0.216-0.075-0.687-0.112-1.41-0.112H50.923z"/>
		<path d="M57.314,65.331v-7.81h1.59v6.483h3.953v1.326H57.314z"/>
		<path d="M63.942,65.331v-7.874h1.59v7.874H63.942z"/>
		<path d="M66.725,61.442c0-0.802,0.12-1.476,0.36-2.02c0.179-0.401,0.423-0.761,0.733-1.08c0.31-0.318,0.649-0.555,1.018-0.709
			c0.491-0.207,1.056-0.311,1.697-0.311c1.16,0,2.088,0.359,2.785,1.079c0.696,0.72,1.044,1.721,1.044,3.003
			c0,1.271-0.346,2.266-1.037,2.983s-1.615,1.077-2.771,1.077c-1.171,0-2.102-0.357-2.793-1.072
			C67.07,63.68,66.725,62.695,66.725,61.442z M68.363,61.389c0,0.892,0.206,1.567,0.618,2.027s0.935,0.69,1.568,0.69
			s1.154-0.229,1.56-0.685c0.407-0.457,0.61-1.142,0.61-2.055c0-0.902-0.198-1.575-0.593-2.02c-0.396-0.444-0.921-0.666-1.577-0.666
			s-1.184,0.225-1.584,0.674S68.363,60.482,68.363,61.389z"/>
		<path d="M79.266,62.437v-1.327h3.428v3.137c-0.334,0.322-0.816,0.606-1.448,0.852s-1.272,0.368-1.92,0.368
			c-0.823,0-1.542-0.173-2.154-0.519s-1.072-0.84-1.38-1.482s-0.462-1.342-0.462-2.098c0-0.82,0.172-1.549,0.516-2.187
			c0.344-0.637,0.847-1.126,1.509-1.466c0.505-0.262,1.133-0.392,1.885-0.392c0.978,0,1.741,0.204,2.291,0.614
			s0.903,0.977,1.061,1.7l-1.579,0.295c-0.111-0.387-0.319-0.691-0.626-0.915c-0.306-0.224-0.688-0.336-1.146-0.336
			c-0.694,0-1.247,0.22-1.657,0.661c-0.41,0.439-0.615,1.094-0.615,1.96c0,0.935,0.208,1.636,0.623,2.103
			c0.416,0.468,0.959,0.701,1.632,0.701c0.334,0,0.668-0.065,1.002-0.196c0.335-0.131,0.623-0.289,0.862-0.476v-0.998H79.266z"/>
		<path d="M84.164,65.331v-7.874h3.347c0.841,0,1.452,0.07,1.835,0.212c0.381,0.142,0.686,0.394,0.915,0.755
			s0.344,0.775,0.344,1.241c0,0.59-0.174,1.078-0.521,1.463c-0.348,0.385-0.867,0.628-1.559,0.729c0.344,0.2,0.628,0.42,0.852,0.66
			c0.225,0.24,0.525,0.666,0.905,1.278l0.962,1.536h-1.902l-1.148-1.713c-0.408-0.613-0.688-0.999-0.838-1.158
			s-0.311-0.269-0.479-0.327c-0.168-0.06-0.436-0.089-0.801-0.089h-0.322v3.287H84.164z M85.754,60.787h1.177
			c0.763,0,1.239-0.032,1.429-0.097s0.338-0.176,0.445-0.333s0.162-0.354,0.162-0.591c0-0.265-0.071-0.479-0.213-0.642
			c-0.141-0.163-0.341-0.267-0.599-0.31c-0.129-0.018-0.516-0.026-1.16-0.026h-1.241V60.787z"/>
		<path d="M99.203,65.331h-1.729l-0.688-1.789h-3.148l-0.649,1.789h-1.687l3.066-7.874h1.682L99.203,65.331z M96.276,62.216
			l-1.085-2.922l-1.063,2.922H96.276z"/>
		<path d="M100.058,65.331v-7.874h5.397v1.332h-3.808v1.864h3.287v1.332h-3.287v3.346H100.058z"/>
		<path d="M106.535,57.006l0.741-1.606h1.692l-1.478,1.606H106.535z M106.718,65.331v-7.874h1.59v7.874H106.718z"/>
		<path d="M116.923,65.331h-1.729l-0.688-1.789h-3.147l-0.649,1.789h-1.688l3.067-7.874h1.681L116.923,65.331z M113.996,62.216
			l-1.086-2.922l-1.062,2.922H113.996z"/>
	</g>
	<g id="XMLID_74_">
		<path id="XMLID_407_" fill="#FFFFFF" d="M63.582,14.26l7.044,2.37c0.578,0.253,3.331,1.259,8.215,0.049
			c6.168-1.528,19.521-4.179,19.656-4.208l-0.501-2.51c-0.005,0-0.039,0.01-0.087,0.02L85.184,8.184
			c-1.4-0.194-3.656-0.141-5.049,0.132L63.12,11.613c-2.213-0.112-4.315,1.245-5.019,3.454c-0.408,1.269-0.296,2.626,0.316,3.808
			c0.316,0.609,0.74,1.129,1.25,1.557c-0.768,0.599-1.367,1.421-1.688,2.413c-0.403,1.27-0.291,2.626,0.321,3.813
			c0.331,0.643,0.793,1.183,1.342,1.615c-0.753,0.594-1.347,1.416-1.664,2.393c-0.403,1.275-0.291,2.626,0.321,3.814
			c0.613,1.187,1.649,2.062,2.919,2.471l12.268,3.92c0.671,0.214,1.774,0.263,2.466,0.102l21.532-4.932c0,0-0.131-0.554-0.285-1.245
			c-0.157-0.685-0.848-1.118-1.533-0.963l-19.602,4.49c-0.691,0.159-1.796,0.11-2.467-0.103l-11.6-3.707
			c-0.618-0.199-1.123-0.628-1.426-1.207c-0.296-0.579-0.355-1.24-0.156-1.858c0.413-1.284,1.786-1.985,3.069-1.581
			c0.005-0.014,7.096,2.253,10.002,3.177c0.671,0.214,1.774,0.263,2.466,0.107l21.532-4.932c0,0-0.131-0.559-0.285-1.25
			c-0.157-0.685-0.842-1.118-1.533-0.958l-19.602,4.489c-0.691,0.156-1.796,0.107-2.467-0.107l-11.6-3.706
			c-0.618-0.199-1.123-0.628-1.426-1.207c-0.296-0.579-0.355-1.24-0.156-1.858c0.413-1.284,1.786-1.985,3.069-1.581
			c0-0.005,7.19,2.291,10.117,3.225c0.676,0.219,1.781,0.263,2.467,0.107l21.534-4.932c0,0-0.127-0.559-0.289-1.25
			c-0.155-0.686-0.842-1.118-1.531-0.958l-19.602,4.484c-0.691,0.161-1.791,0.112-2.467-0.102L62.119,18.91
			c-0.623-0.199-1.129-0.628-1.426-1.207c-0.301-0.579-0.355-1.24-0.156-1.858C60.946,14.566,62.318,13.851,63.582,14.26
			L63.582,14.26z"/>
	</g>
</g>
</svg>
