<?xml version="1.0" encoding="utf-8"?>
<!-- Generator: Adobe Illustrator 16.0.0, SVG Export Plug-In . SVG Version: 6.00 Build 0)  -->
<!DOCTYPE svg PUBLIC "-//W3C//DTD SVG 1.1//EN" "http://www.w3.org/Graphics/SVG/1.1/DTD/svg11.dtd">
<svg version="1.1" id="Capa_1" xmlns="http://www.w3.org/2000/svg" xmlns:xlink="http://www.w3.org/1999/xlink" x="0px" y="0px"
	 width="154.914px" height="74.254px" viewBox="0 0 154.914 74.254" enable-background="new 0 0 154.914 74.254"
	 xml:space="preserve">
<metadata><?xpacket begin="﻿" id="W5M0MpCehiHzreSzNTczkc9d"?>
<x:xmpmeta xmlns:x="adobe:ns:meta/" x:xmptk="Adobe XMP Core 5.3-c011 66.145661, 2012/02/06-14:56:27        ">
   <rdf:RDF xmlns:rdf="http://www.w3.org/1999/02/22-rdf-syntax-ns#">
      <rdf:Description rdf:about=""
            xmlns:dc="http://purl.org/dc/elements/1.1/">
         <dc:format>image/svg+xml</dc:format>
         <dc:title>
            <rdf:Alt>
               <rdf:li xml:lang="x-default">Imprimir</rdf:li>
            </rdf:Alt>
         </dc:title>
      </rdf:Description>
      <rdf:Description rdf:about=""
            xmlns:xmp="http://ns.adobe.com/xap/1.0/"
            xmlns:xmpGImg="http://ns.adobe.com/xap/1.0/g/img/">
         <xmp:MetadataDate>2017-04-11T01:59:07-05:00</xmp:MetadataDate>
         <xmp:ModifyDate>2017-04-11T01:59:07-05:00</xmp:ModifyDate>
         <xmp:CreateDate>2017-04-11T01:59:07-05:00</xmp:CreateDate>
         <xmp:CreatorTool>Adobe Illustrator CC (Windows)</xmp:CreatorTool>
         <xmp:Thumbnails>
            <rdf:Alt>
               <rdf:li rdf:parseType="Resource">
                  <xmpGImg:width>256</xmpGImg:width>
                  <xmpGImg:height>124</xmpGImg:height>
                  <xmpGImg:format>JPEG</xmpGImg:format>
                  <xmpGImg:image>/9j/4AAQSkZJRgABAgEBLAEsAAD/7QAsUGhvdG9zaG9wIDMuMAA4QklNA+0AAAAAABABLAAAAAEA&#xA;AQEsAAAAAQAB/+4ADkFkb2JlAGTAAAAAAf/bAIQABgQEBAUEBgUFBgkGBQYJCwgGBggLDAoKCwoK&#xA;DBAMDAwMDAwQDA4PEA8ODBMTFBQTExwbGxscHx8fHx8fHx8fHwEHBwcNDA0YEBAYGhURFRofHx8f&#xA;Hx8fHx8fHx8fHx8fHx8fHx8fHx8fHx8fHx8fHx8fHx8fHx8fHx8fHx8fHx8f/8AAEQgAfAEAAwER&#xA;AAIRAQMRAf/EAaIAAAAHAQEBAQEAAAAAAAAAAAQFAwIGAQAHCAkKCwEAAgIDAQEBAQEAAAAAAAAA&#xA;AQACAwQFBgcICQoLEAACAQMDAgQCBgcDBAIGAnMBAgMRBAAFIRIxQVEGE2EicYEUMpGhBxWxQiPB&#xA;UtHhMxZi8CRygvElQzRTkqKyY3PCNUQnk6OzNhdUZHTD0uIIJoMJChgZhJRFRqS0VtNVKBry4/PE&#xA;1OT0ZXWFlaW1xdXl9WZ2hpamtsbW5vY3R1dnd4eXp7fH1+f3OEhYaHiImKi4yNjo+Ck5SVlpeYmZ&#xA;qbnJ2en5KjpKWmp6ipqqusra6voRAAICAQIDBQUEBQYECAMDbQEAAhEDBCESMUEFURNhIgZxgZEy&#xA;obHwFMHR4SNCFVJicvEzJDRDghaSUyWiY7LCB3PSNeJEgxdUkwgJChgZJjZFGidkdFU38qOzwygp&#xA;0+PzhJSktMTU5PRldYWVpbXF1eX1RlZmdoaWprbG1ub2R1dnd4eXp7fH1+f3OEhYaHiImKi4yNjo&#xA;+DlJWWl5iZmpucnZ6fkqOkpaanqKmqq6ytrq+v/aAAwDAQACEQMRAD8ALc6Z4x2KuxV2KuxV2Kux&#xA;V2KuxV2KuxV2KuxV2KuxV2KuxV2KuxV2KuxV2KuxV2KuxV2KuxV2KuxV2KuxV2KuxV2KuxV2KuxV&#xA;2KuxV2KuxV2KuxV2KuxV2KuxV6x5Z8g+RW8mWWu6/NJEbmvqSmQogPNkVQFH+Tmty6jJ4hjF3GDS&#xA;YfCE59Vb/Dv5If8AVz/5Lv8A804PF1Hcy8HSfzvtUfM3kHyKvky913QJpJTbU9OUSF0J5qjKQw/y&#xA;sOLUZPEEZMc+kw+EZw6PJ82Tp3Yq7FXYq7FXYq7FXYq7FXYq7FXYq7FXYq7FXYq7FXYq7FXYq7FX&#xA;Yq7FXYq7FXYq7FXYq7FXrGsf+SL03/jIn/J581sP8YLuMn+KD8dXk+bJ071jR/8AyRepf8ZH/wCT&#xA;yZrZ/wCMB3GP/FD+OryfNk6d2KuxV2KuxV2KuxV2KuxV2KuxV2KuxV2KuxV2KuxV2KuxV2KuxV2K&#xA;uxV2KuxV2KuxV2KuxV7Vodv5b178sNN0W91eCyZSWk/exiRWSVzQq5HWuanIZwzGQFu9xCGTTiBk&#xA;Ahv+VL+V/qf139Pt9S/5af3Ppfa4/brx+1t165L89O64d2H8mY6vi2+CJ1y38t6D+WGpaLZavBes&#xA;xDR/vYzIzPKhoFQnpTI4zOeYSIpnlEMenMBIF4rm2dE7FXYq7FXYq7FXYq7FXYq7FXYq7FXYq7FX&#xA;Yq7FXYq7FXYq7FXYq7FXYq7FXYq7FVewtHvL63s4yFkuZUhRm6AuwUE/fkZGhbKEeIgd71H/AJUF&#xA;ef8AV5j/AORDf815r/5RHc7b+SD/ADvsd/yoK7/6vMf/ACIb/mvH+UR3L/JB/nfY7/lQV3/1eY/+&#xA;RDf814/yiO5f5IP877GZf4Bm/wCVdf4R+ur6n/LZ6Z4/71fWPscv9j1zF/MfveOvxVOd+UPgeFfx&#xA;+NsN/wCVBXf/AFeY/wDkQ3/NeZX8ojucH+SD/O+x3/Kgrv8A6vMf/Ihv+a8f5RHcv8kH+d9jv+VB&#xA;Xn/V5j/5EN/zXj/KI7l/kg/zvseXX9o9nfXFnIQ0ltK8LsvQlGKkj7s2ETYt1M48JI7lDJMXYq7F&#xA;XYq7FXYq7FXYq7FXYq7FXYq7FXYq7FXYq7FXYq7FXYq7FXYqitL0641LUrXT7enr3cqwxljRQXNK&#xA;k+GRnIRBJ6M8cDKQiOr03SfyS1+y1WzvJL+0ZLaeOZ1X1KkRuGIFV9s189fEgii7XH2XOMgbGxZF&#xA;+Y/5cap5p1S1vLO6ggSCD0WWbnUnmzVHFW/myjS6oYwQQ5Ot0UssgQRyeTecfJmo+VbyC2vZYpjc&#xA;RmSN4S1KA0IPIKa5ssGcZBYdPqdNLCQD1Tzy/wDlBr2taRbapFd20EV0peOOQvy41IBPFSN6ZVk1&#xA;sYyIot+Hs6c4iVjd6R/gPUf+VZf4T+sQ/Xf9/wDxel/vX9Y8OX2dunXMD8wPG4+n7Kdp+Ul+X8O9&#xA;/wBtvNfMX5Ra5oej3Gqz3dtNDbBTJHGX5EMwXbkoH7WZ+LWRnLhourzdnTxxMiRskvk7yZqPmq8n&#xA;trKWKE28YkkeYtShNABxDGuW584xiy0abTSzEgdHrP5cflxqnlbVLq8vLqCdJ4PRVYedQeatU8lX&#xA;+XNbqtUMgAAdxotFLFIkkcmO6t+SWv3uq3l5Hf2ipczyTIrepUCRywBovvl8NfEACi42TsucpE2N&#xA;y8y1TTrjTdSutPuKevaSvDIVNVLIaEg+GbCEhIAjq6rJAxkYnohckwdirsVdirsVdirsVdirsVdi&#xA;rsVdirsVdirsVdirsVdirsVdirsVT3yJ/wApnov/ADGQ/wDEhlOo/u5e5yNJ/ex97K/zo1C/t/N6&#xA;RwXMsSfVIjxR2UV5PvQHMbQxBhuOrmdpzkMux6MO0jV9WbVrJWvZypniBBlehHMe+ZU4R4Ts4OPJ&#xA;LiG55s7/AD6/46+lf8w7/wDE8w+z/pLsO1vqj7kw1y4ng/JTS5IJGikpAOaMVNC7dxkMYB1Bttyk&#xA;jSxryeU/pnV/+W64/wCRr/1zY8Ee50/iy7y9Q024nn/I/UpJ5Glk5sObsWNBMnc5r5ADUCnbQJOk&#xA;N/jdC/kL/wAdfVf+YdP+J5LtD6Qw7J+qXuefXmsasLucC9uABI1B6r/zH3zNjCNcnXSySs7lm/5L&#xA;6hf3Hm9457mWVPqkp4u7MK8k3oTmJrogQ2HVz+zJyOXc9GKee/8AlM9a/wCYyb/iRzJ0/wDdx9zh&#xA;6v8AvZe9Isucd2KuxV2KuxV2KuxV2KuxV2KuxV2KuxV2KuxV2KuxV2KuxV2KuxVPfIn/ACmei/8A&#xA;MZD/AMSGU6j+7l7nI0n97H3vSvzM/LvzJ5h8xrf6ckTW4t0iJeQIeSsxO3+yzA0uphCFF2mu0eTJ&#xA;O48qY3p35PedINQtZ5I4PTilR3pMCaKwJ7ZfLW4yCHFh2blEgdkf+fX/AB19K/5h3/4nkOz/AKS2&#xA;drfVH3J83l/Udf8Ayh0rT9OCNcssTgO3EURmrvlPiCGckuT4MsmmjGPNhX/Kl/O/++rf/kcP6Zl/&#xA;nsbgfyZl8mX3Hl/UdA/J3U9P1AKtypLkI3IUaZCN8xRkE84Ic2WGWPSyjLn+1J/yF/46+q/8w6f8&#xA;Ty3tD6Q0dk/VL3JZcfk152kuJXWK34u7MP3w6E18MsGux01S7Nyk9GUfln+XfmTy95ja/wBRSJbc&#xA;27xApIHPJmUjb/Y5j6rUwnCg5eh0eTHO5cqea+e/+Uz1r/mMm/4kcz9P/dx9zq9X/ey96RZc47sV&#xA;dirsVdirsVdirsVdirsVdirsVdirsVdirsVdirsVdirsVdiq+KWWGVJonMcsbB45FJDKymoII6EH&#xA;ARaQa3DIB+YvncCn6YuPvH9Mp/LY+5yfzuX+cXf8rF87/wDV4uPvH9Mfy2PuX87l/nFKdV1rVtXu&#xA;BcaldSXcyrwV5DWijeg7DLIQjEUBTTkyymbkbRmm+cvNOmWi2ljqc8FslSkStVVqamgNab5GWCEj&#xA;ZDOGpyRFAmkV/wArF87/APV4uPvH9Mj+Wx9zP87l/nFC6l5y806naNaX2pzz2z0LxM1FahqKgUrv&#xA;ko4IRNgMJ6nJIUSaQela1q2kXDXGmXUlpMy8HaNqVXrQjoclPHGQoi2GPLKBuJpNv+Vi+d/+rxcf&#xA;eP6ZX+Wx9zd+dy/zi4/mL53Ip+mLj7x/TH8tj7l/O5f5xY/LLLNK80rmSWRi8kjElmZjUkk9STlw&#xA;FOMTe5WYUOxV2KuxV2KuxV2KuxV2KuxVW+p3n++JP+Ab+mDiDLhPc76nef74k/4Bv6Y8QXhPc76n&#xA;ef74k/4Bv6Y8QXhPc76nef74k/4Bv6Y8QXhPc76nef74k/4Bv6Y8QXhPc76nef74k/4Bv6Y8QXhP&#xA;c76nef74k/4Bv6Y8QXhPc76nef74k/4Bv6Y8QXhPc76nef74k/4Bv6Y8QXhPc76nef74k/4Bv6Y8&#xA;QXhPc76nef74k/4Bv6Y8QXhPc76nef74k/4Bv6Y8QXhPc76nef74k/4Bv6Y8QXhPc76nef74k/4B&#xA;v6Y8QXhPc76nef74k/4Bv6Y8QXhPc76nef74k/4Bv6Y8QXhPc76nef74k/4Bv6Y8QXhPc76nef74&#xA;k/4Bv6Y8QXhPc76nef74k/4Bv6Y8QXhPc76nef74k/4Bv6Y8QXhPc76nef74k/4Bv6Y8QXhPc76n&#xA;ef74k/4Bv6Y8QXhPc76nef74k/4Bv6Y8QXhPc76nef74k/4Bv6Y8QXhPc76nef74k/4Bv6Y8QXhP&#xA;c76nef74k/4Bv6Y8QXhPc76nef74k/4Bv6Y8QXhPc76nef74k/4Bv6Y8QXhPc76nef74k/4Bv6Y8&#xA;QXhPc76nef74k/4Bv6Y8QXhPc76nef74k/4Bv6Y8QXhPc76nef74k/4Bv6Y8QXhPc+tc5p7F2Kux&#xA;V2KuxV2KuxV2KuxV2KuxV2KuxV2KuxV2KuxV2KuxV2KuxV2KuxV2KuxV2KuxV2KuxV2KuxV2KuxV&#xA;2KuxVAa5r2i6Dp0mpazew6fp8RVZLq4cRxqXIVQWbbcmmKoWLzn5Tm8ut5li1e0fQEDF9UEqG3AV&#xA;/TasleOz/D88VV9A8y+X/MVib/QtQg1OyDmI3Fs6yJzUAsvJdqgMMVUtD83eV9fnvLfRdVtdRn09&#xA;hHfR20qStCzFgA4UnjUo33YqgNb/ADN/L3QdRk03WfMVhp+oRBWktbidI5FDgMpKsa7g1xVONF13&#xA;RNcsF1DRb+31KxclVubSVJoyw6ryQsKjuO2KobQfN/lfzBLdxaHqtrqUlgwjvVtZUlMTMWCh+JNK&#xA;8Gp8sVRuqapp2lafPqOpXMdnYWy87i5mYJGi9Ksx2AxVINK/NT8tdWvo7DTfNGmXV7MeMNtHdRGR&#xA;2P7KLyqx9hiqL8x+fPJflqeGDzBrVnpc1wpeCO6mSJnUGhKhiKiuKqOhfmV5A8wagNO0TzBYajfs&#xA;rOttbTpJIVXdjxU1oMVT+6urW0tpLq7mS3toVLzTysERFG5ZmYgADxOKse0L8zfy81/UTpmi+YtP&#xA;v9QFeNrBcRtI/EcmMa1+MAbkrXFUd5l85eVPLFulx5h1a10uKWohN1KsZkKirCNSeTkf5IxVf5d8&#xA;1+WfMlo13oGqWuqWyHjJJaypLwY/suFJKn2OKu8u+avLXmS0ku9A1O21S2if0pZrWVZVVwA3FipN&#xA;DQg4qlc35qflvDpltqk3mXTo9Ou3kitbtriMRSPFT1FRq0JXkK4qp6d+bf5Y6lfQWFh5o026vbp1&#xA;it7eK5jZ5HY0VVUGpJOKqL/nR+U0bsj+btKV0JVlN1HUEbEdcVTD/lY/kIadZakdfsRp+pTG3sLs&#xA;zoIpplPFkjatGYHbFUx1bzL5f0i6sLTVNQgsrnVJhb6dDM6o08xKqI4wftNV1FB44qhZPPPk6N9V&#xA;STWbRX0MBtYUyqDahtgZt/gr74qgdL/Nb8s9VvorDTvNGmXN7OQsFul1FzkYmgVFLVZj4DfFU/1b&#xA;V9K0ewl1HVbyGwsIBWa6uZFiiUE0FXcgbnYYqlHlv8xfInma4e20DXrHUrqMFnt4JkaUKpoW9OvL&#xA;j70pirIsVdirsVdirsVdirsVeQf85Yf+SS1f/jPZ/wDUSmKvnjTtX1CLyHd/koJW/SOp+Z7GK2r1&#xA;NheBZAwHgJYo3P8Ar4qzv8nPO48lf84teYNdR+N6l/dW+nb0JuriOGOIjpXgW5n2U4qxb8j9Z0j8&#xA;v/zI8pG31uDUbTzhpy22vRwyrJ9VvriUtDHIq14sjekpLeL4qyPz/qPl2w/5yZ8xza95UuPOFo2k&#xA;26R6Za2y3bxylLYico3RVUMvL/K98VUfJVx5g/LXyH+ZXnWbR7jyvp2tPHb+VNFui6ypNK8qowST&#xA;i/7lJVarAcgpp0xVJvyK1jR/IH5l+VYbXWrfUrLzjpkdvrSQyrIbXUJ3LRROFOzI/px1J/abFX0j&#xA;+f3/AJJrzZ/zAt/xJcVeN6/+VXkCb/nF+08yLpFva6/baPa3yapAoimac8OXqMPt86kHlXrtvvir&#xA;FvOurarr2pfk3qF/pI81ajd6V++0qZ1j+vOshXi7yKygvx5EkdcVe2flLpcqeZ5Jrn8o7XyN6VrI&#xA;0OsxXNtcOzl0X0AsMUbDmrM1a/s074qkn/OWN3c3Fj5N8sNO9vpPmDWI4dUkQ8axo0aqrE7U/el9&#xA;+6g9sVT3Xv8AnHz8nLa88v3duf8ACt3ptyn1C4srhLea5lX94kbPP6hlf4OVft0rvirC/Kvl/Rvz&#xA;D/5yN88zecbdNSj8uKlrpGl3I5wrEr8A/pnZgKFqHaslcVXDQ9L8g/8AOVegab5ShWy03zLpsrar&#xA;pUBpECFuG5Km4RQ1sjgAbUNKA4q8q/5x9816x+XN7p3mi+P/ADo3ma7fRtUlqeMFzAFeKV+w4iWo&#xA;PdOfhir2L/nGbyb5U8zfkvp6eYdJtdVS1v71rdbuJZQhdlDFeQNK8RiqVf8AOHXk3ypqXke612/0&#xA;m1utZsdblWz1CWJWniEdtbOgRyKjizkj3OKsF/J2yu59F1h4fymtvPijV7kHV57q2gaI+nF/owWa&#xA;KRiF+3WtPjxVlf56+WZdU8kflt5ft9Bh8n3Wr6y1oNFRklitZbp/SBLxKitUsHNF74qxl/zC1LzF&#xA;rX5U+XPMStF5u8peaIdP1WKX7bolzbJFKT3Y+mVY16ry/aGKpxrP/HV/5yG/4wW3/E2xVHzflX5A&#xA;vf8AnFqDzG+l29pr1tpX16PVolEc7TxuSA7Ajn6lOHxV67b0xVKZr+//ADF1/wDJny15snkk0e/0&#xA;5ru/idmX6zPA08YMjKeTNIlqgr1+M0O+Ksg/5yV8meV/IFl5W86eTLCDRNesdVit447FBCJozFJJ&#xA;8SJs1DCFJpuHIauKvpzFXYq7FXYq7FXYq7FWIfmx+X3/ACsDyReeV/r/AOjPrckMn1z0fX4+jKsl&#xA;PT5xVrxp9rFWIwf8486bH+a2k+f21TmdNtoIpdN+rUE09ta/VUn9X1fhoAjceB3XriqQWn/OK5Ty&#xA;poflW880G50TTNXk1fULcWPp/XOaxIIifrDenxRHXl8X2+m26rIvzA/5xs8g+Y9DSy0GztPKuqRX&#xA;EdxBq1laqZF4VBQqjwkg1/m2IB7YqnPl38qrvS/zSvvzAvNaF9d6hpEOlXFotr6KmSMW/O4D+rJQ&#xA;O1tXhx25faNN1WvzW/KX/lYl15ejvdV+q6Jo14L2+0r6v6ovSCo4NJ6qen8HNa8W+0cVSb8wP+cb&#xA;PIfmLRorXy/a2vlTVLe4juYdWsrVTIOFQUKq8JINa/a2IBxVmvnPyhc+afIN/wCVrvUBFdajaLbT&#xA;6ksFV9T4eUog5rsxWvHnt44q8q/6Fm81Xuj2PlvXvzIvb7ylZrFH+hbeyS0VooDWNPUE0teNNuSt&#xA;2PUDFWQfmB+Q0/mDWfLOqeWvMH+FX8q2wtdMSKyW7CKv2CvKaIDiopQg4qm/k7yD+Z2j6/Bf69+Y&#xA;svmHTI1cS6W+mwWokLIVU+qkrsODHl03xVNPzS/LLRPzE8sNompyPbSRyC4sL6EAyQTqCA4B+0pD&#xA;EMvceBoQq8403/nGzX7/AFzSLzz953uvNWmaE/PT9OkiaPkwYNWWR5ZWNSq8urMNuVMVT3z7+RV3&#xA;q3nMeePJ3mObyp5okjEN9NFEJ4blFAUc0LJQ8VWteSniPhrviqv+Wv5IP5b80XfnLzNrs3mjzddI&#xA;YVv5o/SjhiICkRpyfcqONdgBsAN6qoby1/zjzpOm/lJqf5danqX6Ug1CeW6i1EW/oNBMyoInSP1Z&#xA;d42jB+2OQ26Yqyf8ofy3/wCVd+TY/Lf6R/Snpzyz/W/R+r19Ug8fT9SbpTryxVC/kp+VH/KsvKt1&#xA;oP6U/S/1m+kvvrPofVuPqQxRcOHqTVp6Na8u/TFWEeW/+cefzE8r293aeWvzOk0uxu7qS9ktk0iG&#xA;QerKFUtykuGP2UUfRirI778nPMWrweUW8web21XUfK2sprDXz2KRG5SORHW34JMFjpwpz+L5Yqo+&#xA;df8AnHzSPMX5oaJ+YFpqP6LvdNubW61C1W3Eq3jWcqSIefqR+mxROBajbU223VavfyE+s3X5h3H6&#xA;d4f49jjj4/Va/U/TJNa+sPWrX/IxVjkf/OMfmi40O08saz+ZF7d+UbYIh0a2so7UNHG3NV9T1pRs&#xA;2/xo2/yxVmP5ifkR5e81aLolppd1J5d1PyyqJoGp2gLNAiBaIVDRlhVFYHkGDbg7mqrH9N/5x71/&#xA;U/M2ma3+Y3nGfzXHorCTTtO9BbeASKQ3KQBmDCqioCgtQVNNsVe2Yq7FXYq7FXYq7FXYq7FXYq7F&#xA;XYq7FXYq7FXYq7FXYq7FXYq7FXYq7FXYq7FXYq7FXYq7FXYq7FXYq7FXYq7FXYq7FXYq7FXYq7FX&#xA;Yq7FXYq7FXYq7FXYq7FXYq7FXYq7FXYq7FXYq7FXYq7FXYq7FXYq7FXYq7FXYq7FXYq7FX//2Q==</xmpGImg:image>
               </rdf:li>
            </rdf:Alt>
         </xmp:Thumbnails>
      </rdf:Description>
      <rdf:Description rdf:about=""
            xmlns:xmpMM="http://ns.adobe.com/xap/1.0/mm/"
            xmlns:stRef="http://ns.adobe.com/xap/1.0/sType/ResourceRef#"
            xmlns:stEvt="http://ns.adobe.com/xap/1.0/sType/ResourceEvent#">
         <xmpMM:InstanceID>xmp.iid:9abfa668-2609-c146-aeb5-945099e7e6e3</xmpMM:InstanceID>
         <xmpMM:DocumentID>xmp.did:9abfa668-2609-c146-aeb5-945099e7e6e3</xmpMM:DocumentID>
         <xmpMM:OriginalDocumentID>uuid:5D20892493BFDB11914A8590D31508C8</xmpMM:OriginalDocumentID>
         <xmpMM:RenditionClass>proof:pdf</xmpMM:RenditionClass>
         <xmpMM:DerivedFrom rdf:parseType="Resource">
            <stRef:instanceID>uuid:ff470bc6-f939-440e-8f31-27b0eb70075c</stRef:instanceID>
            <stRef:documentID>xmp.did:4de20fe2-e96f-dd46-b8bd-1606dc72d06f</stRef:documentID>
            <stRef:originalDocumentID>uuid:5D20892493BFDB11914A8590D31508C8</stRef:originalDocumentID>
            <stRef:renditionClass>proof:pdf</stRef:renditionClass>
         </xmpMM:DerivedFrom>
         <xmpMM:History>
            <rdf:Seq>
               <rdf:li rdf:parseType="Resource">
                  <stEvt:action>saved</stEvt:action>
                  <stEvt:instanceID>xmp.iid:9abfa668-2609-c146-aeb5-945099e7e6e3</stEvt:instanceID>
                  <stEvt:when>2017-04-11T01:59:07-05:00</stEvt:when>
                  <stEvt:softwareAgent>Adobe Illustrator CC (Windows)</stEvt:softwareAgent>
                  <stEvt:changed>/</stEvt:changed>
               </rdf:li>
            </rdf:Seq>
         </xmpMM:History>
      </rdf:Description>
      <rdf:Description rdf:about=""
            xmlns:illustrator="http://ns.adobe.com/illustrator/1.0/">
         <illustrator:StartupProfile>Print</illustrator:StartupProfile>
      </rdf:Description>
      <rdf:Description rdf:about=""
            xmlns:xmpTPg="http://ns.adobe.com/xap/1.0/t/pg/"
            xmlns:stDim="http://ns.adobe.com/xap/1.0/sType/Dimensions#"
            xmlns:xmpG="http://ns.adobe.com/xap/1.0/g/">
         <xmpTPg:HasVisibleOverprint>False</xmpTPg:HasVisibleOverprint>
         <xmpTPg:HasVisibleTransparency>True</xmpTPg:HasVisibleTransparency>
         <xmpTPg:NPages>1</xmpTPg:NPages>
         <xmpTPg:MaxPageSize rdf:parseType="Resource">
            <stDim:w>5.465024</stDim:w>
            <stDim:h>2.619513</stDim:h>
            <stDim:unit>Centimeters</stDim:unit>
         </xmpTPg:MaxPageSize>
         <xmpTPg:PlateNames>
            <rdf:Seq>
               <rdf:li>Cyan</rdf:li>
               <rdf:li>Magenta</rdf:li>
               <rdf:li>Yellow</rdf:li>
               <rdf:li>Black</rdf:li>
            </rdf:Seq>
         </xmpTPg:PlateNames>
         <xmpTPg:SwatchGroups>
            <rdf:Seq>
               <rdf:li rdf:parseType="Resource">
                  <xmpG:groupName>Default Swatch Group</xmpG:groupName>
                  <xmpG:groupType>0</xmpG:groupType>
               </rdf:li>
            </rdf:Seq>
         </xmpTPg:SwatchGroups>
      </rdf:Description>
      <rdf:Description rdf:about=""
            xmlns:pdf="http://ns.adobe.com/pdf/1.3/">
         <pdf:Producer>Adobe PDF library 10.01</pdf:Producer>
      </rdf:Description>
   </rdf:RDF>
</x:xmpmeta>
                                                                                                    
                                                                                                    
                                                                                                    
                                                                                                    
                                                                                                    
                                                                                                    
                                                                                                    
                                                                                                    
                                                                                                    
                                                                                                    
                                                                                                    
                                                                                                    
                                                                                                    
                                                                                                    
                                                                                                    
                                                                                                    
                                                                                                    
                                                                                                    
                                                                                                    
                                                                                                    
                           
<?xpacket end="w"?>
	</metadata>
<g>
	<rect id="XMLID_24_" opacity="0.5" fill="#FFFFFF" enable-background="new    " width="154.914" height="74.254"/>
	<rect id="XMLID_21_" fill="#3B86B1" width="154.914" height="48.154"/>
	<rect id="XMLID_20_" y="57.455" fill="none" width="154.494" height="13.102"/>
	<g enable-background="new    ">
		<path d="M18.135,65.331v-7.874h2.379l1.429,5.371l1.413-5.371h2.385v7.874h-1.477v-6.198l-1.563,6.198H21.17l-1.558-6.198v6.198
			H18.135z"/>
		<path d="M34.42,65.331h-1.729l-0.688-1.789h-3.147l-0.65,1.789H26.52l3.067-7.874h1.681L34.42,65.331z M31.493,62.216
			l-1.085-2.922l-1.063,2.922H31.493z"/>
		<path d="M35.264,65.331v-7.874h2.551c0.967,0,1.597,0.039,1.891,0.118c0.451,0.118,0.829,0.375,1.133,0.771
			s0.457,0.907,0.457,1.534c0,0.482-0.088,0.89-0.263,1.219s-0.398,0.588-0.668,0.776c-0.271,0.188-0.545,0.312-0.825,0.373
			c-0.379,0.075-0.929,0.112-1.649,0.112h-1.037v2.971H35.264z M36.854,58.789v2.234h0.87c0.626,0,1.045-0.041,1.257-0.124
			c0.211-0.082,0.377-0.211,0.497-0.387c0.12-0.175,0.18-0.379,0.18-0.611c0-0.287-0.084-0.523-0.252-0.709
			c-0.168-0.187-0.381-0.303-0.639-0.35c-0.19-0.036-0.571-0.054-1.144-0.054H36.854z"/>
		<path d="M48.885,65.331h-1.729l-0.688-1.789H43.32l-0.65,1.789h-1.687l3.067-7.874h1.681L48.885,65.331z M45.958,62.216
			l-1.085-2.922l-1.063,2.922H45.958z"/>
		<path d="M52.371,57.457h2.906c0.655,0,1.155,0.05,1.499,0.15c0.462,0.136,0.857,0.378,1.187,0.726
			c0.33,0.347,0.58,0.772,0.752,1.275s0.258,1.123,0.258,1.861c0,0.647-0.081,1.206-0.242,1.676
			c-0.197,0.572-0.478,1.036-0.843,1.391c-0.276,0.269-0.648,0.479-1.117,0.629c-0.351,0.11-0.82,0.166-1.407,0.166h-2.992V57.457z
			 M53.96,58.789v5.216h1.187c0.444,0,0.765-0.025,0.961-0.076c0.258-0.064,0.472-0.173,0.642-0.327
			c0.17-0.154,0.309-0.407,0.417-0.76s0.161-0.834,0.161-1.442s-0.054-1.076-0.161-1.402c-0.107-0.325-0.258-0.58-0.451-0.762
			c-0.193-0.184-0.438-0.307-0.736-0.371c-0.222-0.05-0.657-0.075-1.305-0.075H53.96z"/>
		<path d="M60.32,65.331v-7.874h5.838v1.332H61.91v1.745h3.953v1.327H61.91v2.144h4.399v1.326H60.32z"/>
		<path d="M75.751,62.437l1.542,0.488c-0.236,0.859-0.629,1.498-1.179,1.915c-0.55,0.417-1.247,0.626-2.092,0.626
			c-1.045,0-1.905-0.357-2.578-1.072c-0.673-0.714-1.01-1.69-1.01-2.93c0-1.311,0.338-2.328,1.015-3.054
			c0.677-0.725,1.566-1.087,2.669-1.087c0.963,0,1.746,0.284,2.347,0.854c0.358,0.337,0.626,0.82,0.806,1.45l-1.574,0.376
			c-0.093-0.408-0.288-0.73-0.583-0.967c-0.296-0.236-0.655-0.354-1.077-0.354c-0.583,0-1.057,0.21-1.421,0.628
			c-0.363,0.42-0.545,1.098-0.545,2.036c0,0.995,0.179,1.704,0.537,2.127s0.824,0.634,1.396,0.634c0.422,0,0.786-0.135,1.09-0.402
			C75.4,63.435,75.619,63.013,75.751,62.437z"/>
		<path d="M78.334,61.442c0-0.802,0.121-1.476,0.36-2.02c0.179-0.401,0.423-0.761,0.733-1.08c0.31-0.318,0.648-0.555,1.018-0.709
			c0.49-0.207,1.057-0.311,1.697-0.311c1.16,0,2.088,0.359,2.785,1.079c0.696,0.72,1.045,1.721,1.045,3.003
			c0,1.271-0.346,2.266-1.037,2.983s-1.615,1.077-2.771,1.077c-1.171,0-2.102-0.357-2.793-1.072
			C78.68,63.68,78.334,62.695,78.334,61.442z M79.973,61.389c0,0.892,0.206,1.567,0.617,2.027c0.412,0.46,0.936,0.69,1.568,0.69
			c0.635,0,1.154-0.229,1.561-0.685c0.406-0.457,0.609-1.142,0.609-2.055c0-0.902-0.197-1.575-0.593-2.02s-0.921-0.666-1.577-0.666
			c-0.654,0-1.184,0.225-1.584,0.674S79.973,60.482,79.973,61.389z"/>
		<path d="M87.229,65.331v-7.874h1.547l3.223,5.259v-5.259h1.478v7.874h-1.595l-3.175-5.135v5.135H87.229z"/>
		<path d="M96.93,65.331v-6.542h-2.337v-1.332h6.257v1.332h-2.33v6.542H96.93z"/>
		<path d="M101.876,65.331v-7.874h5.839v1.332h-4.249v1.745h3.953v1.327h-3.953v2.144h4.399v1.326H101.876z"/>
		<path d="M109.229,65.331v-7.874h1.547l3.223,5.259v-5.259h1.478v7.874h-1.595l-3.175-5.135v5.135H109.229z"/>
		<path d="M117.108,65.331v-7.874h1.59v7.874H117.108z"/>
		<path d="M120.207,57.457h2.906c0.655,0,1.154,0.05,1.498,0.15c0.463,0.136,0.857,0.378,1.188,0.726
			c0.33,0.347,0.58,0.772,0.752,1.275s0.258,1.123,0.258,1.861c0,0.647-0.08,1.206-0.242,1.676
			c-0.196,0.572-0.478,1.036-0.843,1.391c-0.276,0.269-0.647,0.479-1.117,0.629c-0.351,0.11-0.819,0.166-1.407,0.166h-2.992V57.457z
			 M121.797,58.789v5.216h1.188c0.443,0,0.765-0.025,0.961-0.076c0.258-0.064,0.473-0.173,0.643-0.327s0.309-0.407,0.416-0.76
			s0.161-0.834,0.161-1.442s-0.054-1.076-0.161-1.402c-0.107-0.325-0.258-0.58-0.451-0.762c-0.193-0.184-0.438-0.307-0.736-0.371
			c-0.222-0.05-0.656-0.075-1.305-0.075H121.797z"/>
		<path d="M127.834,61.442c0-0.802,0.121-1.476,0.36-2.02c0.179-0.401,0.423-0.761,0.733-1.08c0.31-0.318,0.648-0.555,1.018-0.709
			c0.49-0.207,1.057-0.311,1.697-0.311c1.16,0,2.088,0.359,2.785,1.079c0.696,0.72,1.045,1.721,1.045,3.003
			c0,1.271-0.346,2.266-1.037,2.983s-1.615,1.077-2.771,1.077c-1.171,0-2.102-0.357-2.793-1.072
			C128.18,63.68,127.834,62.695,127.834,61.442z M129.473,61.389c0,0.892,0.206,1.567,0.617,2.027c0.412,0.46,0.936,0.69,1.568,0.69
			c0.635,0,1.154-0.229,1.561-0.685c0.406-0.457,0.609-1.142,0.609-2.055c0-0.902-0.197-1.575-0.593-2.02s-0.921-0.666-1.577-0.666
			c-0.654,0-1.184,0.225-1.584,0.674S129.473,60.482,129.473,61.389z"/>
	</g>
	<g id="XMLID_11_">
		<path id="XMLID_12_" fill="#FFFFFF" d="M73.676,7.621v10.153c0,0.622,0.503,1.125,1.125,1.125h3.951v3.055H63.661
			c-0.622,0-1.125,0.503-1.125,1.125v4.015h-3.951c-0.622,0-1.125,0.503-1.125,1.125v10.153c0,0.622,0.503,1.125,1.125,1.125h10.153
			c0.622,0,1.125-0.503,1.125-1.125V28.218c0-0.622-0.503-1.125-1.125-1.125h-3.96v-2.899h13.966v2.899h-3.951
			c-0.622,0-1.125,0.503-1.125,1.125v10.153c0,0.622,0.503,1.125,1.125,1.125h10.152c0.621,0,1.125-0.503,1.125-1.125V28.218
			c0-0.622-0.504-1.125-1.125-1.125h-3.951v-2.899H94.96v2.899h-3.951c-0.622,0-1.125,0.503-1.125,1.125v10.153
			c0,0.622,0.503,1.125,1.125,1.125h10.152c0.622,0,1.125-0.503,1.125-1.125V28.218c0-0.622-0.503-1.125-1.125-1.125H97.21v-4.015
			c0-0.622-0.503-1.125-1.125-1.125H80.993v-3.055h3.95c0.623,0,1.125-0.503,1.125-1.125V7.621c0-0.622-0.502-1.125-1.125-1.125
			H74.792C74.179,6.496,73.676,6.998,73.676,7.621L73.676,7.621z M67.612,37.236H59.71v-7.911h7.903L67.612,37.236L67.612,37.236z
			 M83.818,37.236h-7.911v-7.911h7.911V37.236z M100.027,37.236h-7.903v-7.911h7.911v7.911H100.027z M75.917,8.737h7.912v7.911
			h-7.912V8.737z"/>
	</g>
</g>
</svg>
