<?xml version="1.0" encoding="utf-8"?>
<!-- Generator: Adobe Illustrator 16.0.0, SVG Export Plug-In . SVG Version: 6.00 Build 0)  -->
<!DOCTYPE svg PUBLIC "-//W3C//DTD SVG 1.1//EN" "http://www.w3.org/Graphics/SVG/1.1/DTD/svg11.dtd">
<svg version="1.1" id="Capa_1" xmlns="http://www.w3.org/2000/svg" xmlns:xlink="http://www.w3.org/1999/xlink" x="0px" y="0px"
	 width="155.707px" height="74.254px" viewBox="0 0 155.707 74.254" enable-background="new 0 0 155.707 74.254"
	 xml:space="preserve">
<metadata><?xpacket begin="﻿" id="W5M0MpCehiHzreSzNTczkc9d"?>
<x:xmpmeta xmlns:x="adobe:ns:meta/" x:xmptk="Adobe XMP Core 5.3-c011 66.145661, 2012/02/06-14:56:27        ">
   <rdf:RDF xmlns:rdf="http://www.w3.org/1999/02/22-rdf-syntax-ns#">
      <rdf:Description rdf:about=""
            xmlns:dc="http://purl.org/dc/elements/1.1/">
         <dc:format>image/svg+xml</dc:format>
         <dc:title>
            <rdf:Alt>
               <rdf:li xml:lang="x-default">Imprimir</rdf:li>
            </rdf:Alt>
         </dc:title>
      </rdf:Description>
      <rdf:Description rdf:about=""
            xmlns:xmp="http://ns.adobe.com/xap/1.0/"
            xmlns:xmpGImg="http://ns.adobe.com/xap/1.0/g/img/">
         <xmp:MetadataDate>2017-04-11T01:59:07-05:00</xmp:MetadataDate>
         <xmp:ModifyDate>2017-04-11T01:59:07-05:00</xmp:ModifyDate>
         <xmp:CreateDate>2017-04-11T01:59:07-05:00</xmp:CreateDate>
         <xmp:CreatorTool>Adobe Illustrator CC (Windows)</xmp:CreatorTool>
         <xmp:Thumbnails>
            <rdf:Alt>
               <rdf:li rdf:parseType="Resource">
                  <xmpGImg:width>256</xmpGImg:width>
                  <xmpGImg:height>124</xmpGImg:height>
                  <xmpGImg:format>JPEG</xmpGImg:format>
                  <xmpGImg:image>/9j/4AAQSkZJRgABAgEBLAEsAAD/7QAsUGhvdG9zaG9wIDMuMAA4QklNA+0AAAAAABABLAAAAAEA&#xA;AQEsAAAAAQAB/+4ADkFkb2JlAGTAAAAAAf/bAIQABgQEBAUEBgUFBgkGBQYJCwgGBggLDAoKCwoK&#xA;DBAMDAwMDAwQDA4PEA8ODBMTFBQTExwbGxscHx8fHx8fHx8fHwEHBwcNDA0YEBAYGhURFRofHx8f&#xA;Hx8fHx8fHx8fHx8fHx8fHx8fHx8fHx8fHx8fHx8fHx8fHx8fHx8fHx8fHx8f/8AAEQgAfAEAAwER&#xA;AAIRAQMRAf/EAaIAAAAHAQEBAQEAAAAAAAAAAAQFAwIGAQAHCAkKCwEAAgIDAQEBAQEAAAAAAAAA&#xA;AQACAwQFBgcICQoLEAACAQMDAgQCBgcDBAIGAnMBAgMRBAAFIRIxQVEGE2EicYEUMpGhBxWxQiPB&#xA;UtHhMxZi8CRygvElQzRTkqKyY3PCNUQnk6OzNhdUZHTD0uIIJoMJChgZhJRFRqS0VtNVKBry4/PE&#xA;1OT0ZXWFlaW1xdXl9WZ2hpamtsbW5vY3R1dnd4eXp7fH1+f3OEhYaHiImKi4yNjo+Ck5SVlpeYmZ&#xA;qbnJ2en5KjpKWmp6ipqqusra6voRAAICAQIDBQUEBQYECAMDbQEAAhEDBCESMUEFURNhIgZxgZEy&#xA;obHwFMHR4SNCFVJicvEzJDRDghaSUyWiY7LCB3PSNeJEgxdUkwgJChgZJjZFGidkdFU38qOzwygp&#xA;0+PzhJSktMTU5PRldYWVpbXF1eX1RlZmdoaWprbG1ub2R1dnd4eXp7fH1+f3OEhYaHiImKi4yNjo&#xA;+DlJWWl5iZmpucnZ6fkqOkpaanqKmqq6ytrq+v/aAAwDAQACEQMRAD8A80+bP+Up1n/mOuf+TzYq&#xA;lWKuxV2KuxV2KuxV2KuxV2KuxV2KuxV2KuxV2KuxV2KuxV2KuxV2KuxV2KuxV2KuxV2KuxV2KuxV&#xA;NfKf/KU6N/zHW3/J5cVd5s/5SnWf+Y65/wCTzYqlWKuxV2KuxV2KuxV2KuxV2KuxV2KuxV2Kvevy&#xA;Q/5xl8w+aJND8162bWLylLKLiSzkd2ubmGNj8IjReKpIy8STIDx3pir2P83P+cbYvOGgQjQbTRdE&#xA;8w2V3J9WltoHtLeXTyWEcU/pLITKq8W5cSK1AoDir4683+VNZ8peZL7y7rUaxalp7hJ1Rg6EMokR&#xA;lYdVdHVh7HFUnxV2KuxV2KuxV2KuxV2KuxV2KuxV2KuxV2Kpr5T/AOUp0b/mOtv+Ty4q7zZ/ylOs&#xA;/wDMdc/8nmxVKsVdirsVdirsVdirsVdirsVdirsVeg/kDpenap+cPliy1G3S6s5Ll3kt5VDIxihe&#xA;ROSnYjkgNDir9ElVVUKoCqooqjYADFXndr+XHnfRIzp3lHzjHpfl+N3ex0y80xL9rZZGLmKOf17d&#xA;jGrMeAYEqNq0GKq3+FPzk/6n+x/7gK/9luKp95O8ojy9DfTXN9Jqms6tcfW9W1OVFjaaURrEgSNP&#xA;hjjjjjVUTeg7k74q8h/5zO0rTpfy0stSkto21C21KGKC64j1FjljlLoG68WKgkdKjFXxVirsVdir&#xA;sVdirsVdirsVdirsVdirsVdiqa+U/wDlKdG/5jrb/k8uKu82f8pTrP8AzHXP/J5sVSrFXYq7FXYq&#xA;7FXYq7FXYq7FXYq7FXpf/ON3/k7fK3/Geb/qGlxV69+fei+YfM358W/l7TPMkfl9X0aK4Et1dS20&#xA;BZJJaqOHVyPboD4YqkP/AEL95/8A/Ln6V/3E7n+mKu/6F+8//wDlz9K/7idz/TFUj86flN548reW&#xA;rzXZvzFsL1LMKfqltqVw08hZwvGNTTk3xVpir1P/AJyLkkl/5xp8rSSMXkc6SzuxJZmNk5JJPUnF&#xA;Xx7irsVdirsVdirsVdirsVdirsVdirsVdiqa+U/+Up0b/mOtv+Ty4q7zZ/ylOs/8x1z/AMnmxVKs&#xA;VdirsVdirsVdirsVdirsVdirsVel/wDON3/k7fK3/Geb/qGlxV6h/wA5D+Trfzf+f1vo8+tWWgo2&#xA;iQyi91B/TiJjkl/dgkgcjWo37HFWM/8AQself+XL8uf9JCf9VMVd/wBCx6V/5cvy5/0kJ/1UxVJf&#xA;OX5C6f5c8tXutRefNB1SSzVWWwtp1M0tXC8YwGclvirSmKvZP+chSD/zjJ5TINR/uI3H/ME+KvkD&#xA;FXYq7FXYq7FXYq7FXYq7FXYq7FXYq7FU18p/8pTo3/Mdbf8AJ5cVd5s/5SnWf+Y65/5PNiqVYq7F&#xA;XYq7FXYq7FXYq7FXYq7FXYq9L/5xu/8AJ2+Vv+M83/UNLir1D/nIfTfI2o/n9b2/nbV59E0P9CQs&#xA;15bQvPIZRJLwTiiSkA1rXgenvXFWM/4J/wCcS/8Ay4eq/wDSFcf9kWKpl5S/5x9/Ljz35kih8k65&#xA;qV95X09Q+va1cxCEGRz+7tLVJIYWMpUFndgVQU2JNMVZfqXmb/nELyPOdCTQ4tdnt6xXNzFbLqFH&#xA;Gzcri4dVY/8AGMkD2xVFa1+Vn5bfmn5DvLj8p9WeweFxNLoSSSpZvcoGKLPZymlu7VYJIgC9eori&#xA;r5FvLS6sruezu4mguraRobiFxRkkjYq6sOxBFDiqjirsVdirsVdirsVdirsVdirsVdirsVTXyn/y&#xA;lOjf8x1t/wAnlxV3mz/lKdZ/5jrn/k82KpVirsVdirsVdirsVdirsVdirsVdir0v/nG7/wAnb5W/&#xA;4zzf9Q0uKvUv+cgtP/L+/wD+cgba38+andaToB0SJnu7JDJL6okl9NdorggHx9M/R1CqRf4N/wCc&#xA;Nv8Aqe9c/wCRMv8A3jMVZ35euI/LX/OIOtal5WlZ5LmS9pcDaX05dRNj6p2Uq4tFVugI9sVfImKv&#xA;YP8AnFLWdUsPzm0q0s2Y22qRXNtfwg7NEkDzKT2+B4lb8O+KoL/nJ3T7Kx/O3zFHaBVWZra4ljX9&#xA;mWa1ikkr7szc/pxV5ZirsVdirsVdirsVdirsVdirsVdirsVTXyn/AMpTo3/Mdbf8nlxV3mz/AJSn&#xA;Wf8AmOuf+TzYqlWKuxV2KuxV2KuxV2KuxV2KuxV2Ks8/IvXdK0H82vLeqatcLa6fBcss9zIaJGJY&#xA;niVnJ2ChnFSeg3xV9a/mF+VX5L/mFrsfmDWteH1v6vHbobTULZIzEhZlNCr/AM53rirGP+hYv+ce&#xA;v+r/AD/9xK1/6p4qmXldfInkG5vvy11LUbe+8g+Zgx0W7nuY5fTmmjEd1Y3MkZUJ6hHqQvRRuRXl&#xA;irzPzX/zhZ5ui1WRvKuq2V5pEjEwi+eSC4jUmoV+EciPQftAiv8AKMVeu/kP/wA482H5byyarqt5&#xA;FqXmm6iMavECIbeGo5rDzozljTlIQNqCg3qq+af+ckfI3nLQPzH1PVte/wBKtNcuJLjT9TjUiJ4+&#xA;iw714PCnFeJPQV3GKvKMVdirsVdirsVdirsVdirsVdirsVdiqa+U/wDlKdG/5jrb/k8uKu82f8pT&#xA;rP8AzHXP/J5sVSrFXYq7FXYq7FXYq7FXYq7FXYq7FXYq7FXYq7FWUaP+aH5jaNZrZaV5m1Ozs02j&#xA;torqURoB2ROXFfoxVvR/zO896X5rt/NcWs3VxrduafWbuWScyRk/FDJ6jHlG3dfu3xV7/wDmJ/zk&#xA;v+W3nb8oL7Sr/T5/8SXkISPTmj5RwXa/ZuI5ztwQ7j9o9CKE4q+V8VdirsVdirsVdirsVdirsVdi&#xA;rsVdiqa+U/8AlKdG/wCY62/5PLiqfeaPIPnuXzNq8kflzVHje9uGR1srgqVMrEEEJuDiqWf8q98/&#xA;f9S1qv8A0g3P/NGKu/5V75+/6lrVf+kG5/5oxV3/ACr3z9/1LWq/9INz/wA0Yq7/AJV75+/6lrVf&#xA;+kG5/wCaMVd/yr3z9/1LWq/9INz/AM0Yq7/lXvn7/qWtV/6Qbn/mjFXf8q98/f8AUtar/wBINz/z&#xA;Rirv+Ve+fv8AqWtV/wCkG5/5oxV3/KvfP3/Utar/ANINz/zRirv+Ve+fv+pa1X/pBuf+aMVd/wAq&#xA;98/f9S1qv/SDc/8ANGKu/wCVe+fv+pa1X/pBuf8AmjFXf8q98/f9S1qv/SDc/wDNGKu/5V75+/6l&#xA;rVf+kG5/5oxV3/KvfP3/AFLWq/8ASDc/80Yq7/lXvn7/AKlrVf8ApBuf+aMVd/yr3z9/1LWq/wDS&#xA;Dc/80Yq7/lXvn7/qWtV/6Qbn/mjFXf8AKvfP3/Utar/0g3P/ADRirv8AlXvn7/qWtV/6Qbn/AJox&#xA;V3/KvfP3/Utar/0g3P8AzRirv+Ve+fv+pa1X/pBuf+aMVd/yr3z9/wBS1qv/AEg3P/NGKu/5V75+&#xA;/wCpa1X/AKQbn/mjFXf8q98/f9S1qv8A0g3P/NGKu/5V75+/6lrVf+kG5/5oxV3/ACr3z9/1LWq/&#xA;9INz/wA0Yq7/AJV75+/6lrVf+kG5/wCaMVd/yr3z9/1LWq/9INz/AM0Yq7/lXvn7/qWtV/6Qbn/m&#xA;jFUz8r+QfPcXmbSJJPLmqJGl7bs7tZXAUKJVJJJTYDFX6Q4q7FXYq7FXYq7FXYq7FXYq7FXYq7FX&#xA;Yq7FXYq7FXYq7FXYq7FXYq7FXYq7FXYq7FXYq7FXYq7FXYq7FXYq7FXYq7FXYq7FXYq7FXYq7FWJ&#xA;+cPzW/LvydcR23mTXLewupF5rbHnLNx7MYoVkdQexI3xVF6N+YfknW/L935h0rWLa70ewSSW+uo2&#xA;2gSJDI5lUgOlEHKjDpiqY6B5g0bzBpMGr6Ldx32mXPP6vdRElH9N2jeladHQjFUt84/mJ5J8mwRT&#xA;eZtXg00T19COQs8r06lIow8jAdyFpirflD8wfJfnG3ln8s6vBqaQECdIiVkj5V4l4nCyKGoaErvi&#xA;qS6x+en5SaNq8mkaj5mtYb+J/TmiHqSKj91eSNHjUjvVtu+KszTUbCTTxqMdxG9g0X1hbtWDRGEr&#xA;z9QONivHeuKpT5P89+UvOVjNfeWdSj1K1t5fQnkjV04ycQ1Csio3RhvTFWPav+fX5R6Pql1pWpeY&#xA;4bbULKVoLqBorglJENGUlYyNj4HFU5i/MvyHN5WufNUGtW8/l+z2ur+ImRYyWCUdUBcGrDbjiqvq&#xA;fn7ybpflq28zajq0Fpod5FHPaXkpKiVJkDx+mhHqMWU14ha+2KoDyj+bX5cecLtrPy5r1vfXiAt9&#xA;V+OKYqvVljmWN2A7lQaYqy7FXYq7FXYq7FXYq7FXYq7FXYq7FXYq7FXYq7FXYq7FXYq7FXYq+YPy&#xA;c07Stc1/81vNnmHRY/MvmnTbycQaXcRrM/GMTcLeFJFkCtJ6XoqaGgFPmqgvLGqeVha/m3pem+Tr&#xA;zyfrEnlq/vNTsbi5LRKDbs0aJaiOJYhSfkvgDQbHFXq//OLn/kifLP8A0ff91C4xVg3ljSNI82f8&#xA;5Tecx5rt4tQl0a0jXRtPvFWWJIl9ICRY3BU0EnIbdXJ674q15g03QPJ//OVXlU+XUh0qLVtOnfXb&#xA;O3CxW/AR3BMjotFSohDnoKpy8cVYBH5M80+VvLfmBbDQdC/MryBczTzXPmC0eGW/jVVHIrcRsZY3&#xA;jUczxSRVaprQ7qs38+/mZ5Y0v/nF3Tl8oJNY23mBH0qws55DLPBGJHF6rOSWZVVWRT4Mu2Ksd/5x&#xA;/wDMnlbyd+cP+F9C1lNV8veZdPtY/rKh0UapBDVq+qFI5yCUKKftqO2KpYmv6hoP5q/mnqkHkm38&#xA;5WdrfSS3/wBZEbCzjWaU+oFaOViG35cRsFqcVRPl3QQn/OOv5mebo5LWK280XEMtvpFixMNisN2G&#xA;9HgQvpsPX48f5FU98VTGC0s/Mf5mfkx5Z8yKs3lyLylYXVvYT7wT3DWcjfEp+E8mgRSp68ad8VZD&#xA;/wA5GeXPL3lfzL+X/mDyzZwaT5iOrR26JZRrB68KlK8ljADcSQnTo9Dtir6RxV2KuxV2KuxV2Kux&#xA;V2KuxV2KuxV2KuxV2KuxV2KuxV2KuxV2KvJvOH/OPlhqvmu482eWPMOoeUNdvgV1GbTm/dz1pVmQ&#xA;NGQzUq3xUJ3py3KrvKv/ADjtoGhaZ5lSbWNQ1XXPNWnz6ZqWtXjh5BHcoUZkQ9WrQ1dmO3XFUj0v&#xA;/nGPVdIsItP0r8y/Men2EHL0bO1uHhhTmxduMcciqvJmLGg6nFWQ+ePyC0zzJqun+YdP1y/0DzbY&#xA;QR2za7Zt+8nWNAgacVVmfjtyDio2NRTFVf8ALz8itG8q65d+ZNV1S880eZ72NoJdU1I8uMTABlRC&#xA;XpyUcSWY/DsKCtVWJXH/ADijbQNqFl5f86avonlrVHZ7zQoWLQsrijISHjDLx+H41Y02JOKsmb/n&#xA;Hjyj+lPKEi3Ex0TybE62GiyrHJFLNI7SyTzOw3d5OLMAKfD2xVMPzA/JPy35rk0a7s3Hl/VNCuxe&#xA;WV9YQRK3IUbiy0UH40Rh8vfFUX5N/KnTfLHm7zV5kjvZLuXzXKJrq1lRRHH8buVWlSwPqEb4qxa3&#xA;/wCcbNFsdL82aJputXVpoHmvi0mliON47V45llRoCd/hAKUPVaVrxGKpn5s/ILyz5j8qeXNHlvLm&#xA;y1Xyra29rpGv2pCXKi3jWMFgNiCYw9AQQ32SN6qoLyr/AM482dh5qs/NPmvzJqPnDV9MIOltqDfu&#xA;oGXdXCFpSWVviX4qA70rvir1zFXYq7FXYq7FXYq7FXYq7FXYq7FXYq7FXYq7FXYq7FXYq7FXYq7F&#xA;XYq7FXYq7FXYq7FXYq7FXYq7FXYq7FXYq7FXYq7FXYq7FXYq7FXYq7FXYq7FXYq7FXYq7FXYq7FX&#xA;Yq7FXYq7FXYq7FXYq7FXYq7FXYq7FXYq7FXYq7FXYq7FXYq7FXYq7FXYq//Z</xmpGImg:image>
               </rdf:li>
            </rdf:Alt>
         </xmp:Thumbnails>
      </rdf:Description>
      <rdf:Description rdf:about=""
            xmlns:xmpMM="http://ns.adobe.com/xap/1.0/mm/"
            xmlns:stRef="http://ns.adobe.com/xap/1.0/sType/ResourceRef#"
            xmlns:stEvt="http://ns.adobe.com/xap/1.0/sType/ResourceEvent#">
         <xmpMM:InstanceID>xmp.iid:9abfa668-2609-c146-aeb5-945099e7e6e3</xmpMM:InstanceID>
         <xmpMM:DocumentID>xmp.did:9abfa668-2609-c146-aeb5-945099e7e6e3</xmpMM:DocumentID>
         <xmpMM:OriginalDocumentID>uuid:5D20892493BFDB11914A8590D31508C8</xmpMM:OriginalDocumentID>
         <xmpMM:RenditionClass>proof:pdf</xmpMM:RenditionClass>
         <xmpMM:DerivedFrom rdf:parseType="Resource">
            <stRef:instanceID>uuid:ff470bc6-f939-440e-8f31-27b0eb70075c</stRef:instanceID>
            <stRef:documentID>xmp.did:4de20fe2-e96f-dd46-b8bd-1606dc72d06f</stRef:documentID>
            <stRef:originalDocumentID>uuid:5D20892493BFDB11914A8590D31508C8</stRef:originalDocumentID>
            <stRef:renditionClass>proof:pdf</stRef:renditionClass>
         </xmpMM:DerivedFrom>
         <xmpMM:History>
            <rdf:Seq>
               <rdf:li rdf:parseType="Resource">
                  <stEvt:action>saved</stEvt:action>
                  <stEvt:instanceID>xmp.iid:9abfa668-2609-c146-aeb5-945099e7e6e3</stEvt:instanceID>
                  <stEvt:when>2017-04-11T01:59:07-05:00</stEvt:when>
                  <stEvt:softwareAgent>Adobe Illustrator CC (Windows)</stEvt:softwareAgent>
                  <stEvt:changed>/</stEvt:changed>
               </rdf:li>
            </rdf:Seq>
         </xmpMM:History>
      </rdf:Description>
      <rdf:Description rdf:about=""
            xmlns:illustrator="http://ns.adobe.com/illustrator/1.0/">
         <illustrator:StartupProfile>Print</illustrator:StartupProfile>
      </rdf:Description>
      <rdf:Description rdf:about=""
            xmlns:xmpTPg="http://ns.adobe.com/xap/1.0/t/pg/"
            xmlns:stDim="http://ns.adobe.com/xap/1.0/sType/Dimensions#"
            xmlns:xmpG="http://ns.adobe.com/xap/1.0/g/">
         <xmpTPg:HasVisibleOverprint>False</xmpTPg:HasVisibleOverprint>
         <xmpTPg:HasVisibleTransparency>True</xmpTPg:HasVisibleTransparency>
         <xmpTPg:NPages>1</xmpTPg:NPages>
         <xmpTPg:MaxPageSize rdf:parseType="Resource">
            <stDim:w>5.492981</stDim:w>
            <stDim:h>2.619513</stDim:h>
            <stDim:unit>Centimeters</stDim:unit>
         </xmpTPg:MaxPageSize>
         <xmpTPg:PlateNames>
            <rdf:Seq>
               <rdf:li>Cyan</rdf:li>
               <rdf:li>Magenta</rdf:li>
               <rdf:li>Yellow</rdf:li>
               <rdf:li>Black</rdf:li>
            </rdf:Seq>
         </xmpTPg:PlateNames>
         <xmpTPg:SwatchGroups>
            <rdf:Seq>
               <rdf:li rdf:parseType="Resource">
                  <xmpG:groupName>Default Swatch Group</xmpG:groupName>
                  <xmpG:groupType>0</xmpG:groupType>
               </rdf:li>
            </rdf:Seq>
         </xmpTPg:SwatchGroups>
      </rdf:Description>
      <rdf:Description rdf:about=""
            xmlns:pdf="http://ns.adobe.com/pdf/1.3/">
         <pdf:Producer>Adobe PDF library 10.01</pdf:Producer>
      </rdf:Description>
   </rdf:RDF>
</x:xmpmeta>
                                                                                                    
                                                                                                    
                                                                                                    
                                                                                                    
                                                                                                    
                                                                                                    
                                                                                                    
                                                                                                    
                                                                                                    
                                                                                                    
                                                                                                    
                                                                                                    
                                                                                                    
                                                                                                    
                                                                                                    
                                                                                                    
                                                                                                    
                                                                                                    
                                                                                                    
                                                                                                    
                           
<?xpacket end="w"?>
	</metadata>
<g>
	<rect id="XMLID_246_" x="0.397" opacity="0.5" fill="#FFFFFF" enable-background="new    " width="154.914" height="74.254"/>
	<rect id="XMLID_221_" x="0.397" width="154.914" height="48.154"/>
	<rect id="XMLID_318_" y="57.455" fill="none" width="155.707" height="13.102"/>
	<g enable-background="new    ">
		<path d="M52.981,62.437v-1.327h3.427v3.137c-0.333,0.322-0.815,0.606-1.448,0.852c-0.632,0.245-1.272,0.368-1.92,0.368
			c-0.824,0-1.542-0.173-2.154-0.519s-1.072-0.84-1.38-1.482s-0.462-1.342-0.462-2.098c0-0.82,0.172-1.549,0.516-2.187
			c0.344-0.637,0.847-1.126,1.509-1.466c0.505-0.262,1.133-0.392,1.885-0.392c0.978,0,1.741,0.204,2.291,0.614
			c0.549,0.41,0.903,0.977,1.061,1.7l-1.579,0.295c-0.111-0.387-0.319-0.691-0.626-0.915c-0.306-0.224-0.688-0.336-1.146-0.336
			c-0.695,0-1.247,0.22-1.657,0.661c-0.41,0.439-0.615,1.094-0.615,1.96c0,0.935,0.208,1.636,0.623,2.103
			c0.416,0.468,0.959,0.701,1.633,0.701c0.333,0,0.667-0.065,1.001-0.196c0.335-0.131,0.623-0.289,0.862-0.476v-0.998H52.981z"/>
		<path d="M57.917,65.331v-7.81h1.59v6.483h3.953v1.326H57.917z"/>
		<path d="M64.271,61.442c0-0.802,0.12-1.476,0.36-2.02c0.179-0.401,0.423-0.761,0.733-1.08c0.31-0.318,0.649-0.555,1.018-0.709
			c0.491-0.207,1.056-0.311,1.697-0.311c1.16,0,2.088,0.359,2.785,1.079c0.696,0.72,1.044,1.721,1.044,3.003
			c0,1.271-0.346,2.266-1.037,2.983s-1.615,1.077-2.771,1.077c-1.171,0-2.102-0.357-2.793-1.072
			C64.617,63.68,64.271,62.695,64.271,61.442z M65.91,61.389c0,0.892,0.206,1.567,0.618,2.027s0.935,0.69,1.568,0.69
			s1.154-0.229,1.56-0.685c0.407-0.457,0.61-1.142,0.61-2.055c0-0.902-0.198-1.575-0.593-2.02c-0.396-0.444-0.921-0.666-1.577-0.666
			s-1.184,0.225-1.584,0.674S65.91,60.482,65.91,61.389z"/>
		<path d="M72.747,62.769l1.547-0.15c0.093,0.52,0.282,0.901,0.566,1.145c0.285,0.243,0.669,0.365,1.152,0.365
			c0.512,0,0.898-0.108,1.157-0.325c0.26-0.217,0.39-0.47,0.39-0.76c0-0.187-0.055-0.345-0.164-0.476
			c-0.109-0.131-0.3-0.244-0.572-0.341c-0.186-0.064-0.61-0.179-1.273-0.344c-0.852-0.211-1.45-0.471-1.794-0.778
			c-0.483-0.434-0.725-0.962-0.725-1.585c0-0.401,0.114-0.776,0.341-1.125c0.227-0.35,0.555-0.615,0.982-0.798
			c0.428-0.183,0.945-0.273,1.55-0.273c0.988,0,1.732,0.216,2.231,0.649c0.5,0.434,0.762,1.012,0.787,1.735l-1.589,0.069
			c-0.068-0.404-0.214-0.695-0.438-0.873c-0.224-0.177-0.56-0.266-1.007-0.266c-0.462,0-0.824,0.095-1.085,0.284
			c-0.168,0.122-0.252,0.285-0.252,0.489c0,0.187,0.079,0.346,0.236,0.478c0.201,0.169,0.688,0.344,1.461,0.527
			c0.773,0.182,1.346,0.371,1.716,0.566c0.371,0.195,0.662,0.462,0.871,0.8c0.209,0.339,0.314,0.757,0.314,1.255
			c0,0.451-0.126,0.873-0.377,1.268c-0.25,0.394-0.604,0.687-1.063,0.878s-1.029,0.287-1.713,0.287c-0.996,0-1.76-0.23-2.293-0.69
			S72.851,63.649,72.747,62.769z"/>
		<path d="M87.587,65.331h-1.729l-0.688-1.789h-3.147l-0.65,1.789h-1.686l3.066-7.874h1.682L87.587,65.331z M84.66,62.216
			l-1.084-2.922l-1.064,2.922H84.66z"/>
		<path d="M88.436,65.331v-7.874h3.347c0.841,0,1.452,0.07,1.834,0.212c0.381,0.142,0.687,0.394,0.916,0.755
			c0.229,0.361,0.344,0.775,0.344,1.241c0,0.59-0.174,1.078-0.521,1.463s-0.867,0.628-1.558,0.729c0.344,0.2,0.628,0.42,0.852,0.66
			s0.525,0.666,0.905,1.278l0.961,1.536h-1.901l-1.149-1.713c-0.408-0.613-0.688-0.999-0.838-1.158s-0.31-0.269-0.479-0.327
			c-0.168-0.06-0.435-0.089-0.8-0.089h-0.322v3.287H88.436z M90.026,60.787h1.177c0.762,0,1.238-0.032,1.428-0.097
			c0.19-0.064,0.339-0.176,0.446-0.333s0.161-0.354,0.161-0.591c0-0.265-0.07-0.479-0.212-0.642s-0.341-0.267-0.599-0.31
			c-0.129-0.018-0.516-0.026-1.16-0.026h-1.241V60.787z"/>
		<path d="M96.326,65.331v-7.874h1.59v7.874H96.326z"/>
		<path d="M99.109,61.442c0-0.802,0.119-1.476,0.359-2.02c0.18-0.401,0.424-0.761,0.733-1.08c0.31-0.318,0.649-0.555,1.018-0.709
			c0.491-0.207,1.056-0.311,1.697-0.311c1.16,0,2.089,0.359,2.785,1.079s1.044,1.721,1.044,3.003c0,1.271-0.346,2.266-1.036,2.983
			s-1.614,1.077-2.771,1.077c-1.171,0-2.103-0.357-2.793-1.072C99.455,63.68,99.109,62.695,99.109,61.442z M100.747,61.389
			c0,0.892,0.206,1.567,0.618,2.027c0.411,0.46,0.934,0.69,1.568,0.69c0.633,0,1.153-0.229,1.56-0.685
			c0.407-0.457,0.61-1.142,0.61-2.055c0-0.902-0.198-1.575-0.594-2.02c-0.396-0.444-0.922-0.666-1.576-0.666
			c-0.656,0-1.184,0.225-1.585,0.674S100.747,60.482,100.747,61.389z"/>
	</g>
	<g id="XMLID_339_">
		<path id="XMLID_380_" fill="#FFFFFF" d="M91.132,39.693l-3.416-3.423c0.715-1.129,1.136-2.463,1.136-3.898
			c0-4.013-3.272-7.285-7.285-7.285c-4.015,0-7.286,3.272-7.286,7.285c0,4.021,3.272,7.286,7.286,7.286
			c1.429,0,2.767-0.422,3.89-1.135l3.424,3.422c0.31,0.311,0.721,0.47,1.129,0.47c0.404,0,0.812-0.159,1.123-0.47
			C91.759,41.32,91.759,40.312,91.132,39.693L91.132,39.693z M81.566,37.381c-2.762,0-5.009-2.247-5.009-5.009
			c0-2.761,2.247-5.008,5.009-5.008s5.008,2.247,5.008,5.008C86.574,35.134,84.328,37.381,81.566,37.381L81.566,37.381z"/>
		<path id="XMLID_377_" fill="#FFFFFF" d="M75.621,26.404h-8.643c-0.292,0-0.526,0.234-0.526,0.527v0.526
			c0,0.288,0.234,0.521,0.526,0.521h7.409C74.737,27.405,75.146,26.879,75.621,26.404L75.621,26.404z"/>
		<path id="XMLID_373_" fill="#FFFFFF" d="M70.636,11.191h6.852c0.86,0,1.562-0.703,1.562-1.562v-0.03
			c0-0.86-0.703-1.556-1.562-1.556H76.68c-0.433,0-0.779-0.351-0.779-0.783V7.23c0-1.001-0.813-1.814-1.819-1.814H74.04
			c-1.001,0-1.814,0.813-1.814,1.814v0.03c0,0.433-0.351,0.783-0.783,0.783h-0.807c-0.86,0-1.556,0.697-1.556,1.556v0.03
			C69.079,10.488,69.776,11.191,70.636,11.191L70.636,11.191z M74.065,6.463c0.433,0,0.783,0.357,0.783,0.789
			c0,0.433-0.351,0.789-0.783,0.789c-0.439,0-0.791-0.357-0.791-0.789S73.626,6.463,74.065,6.463L74.065,6.463z"/>
		<path id="XMLID_370_" fill="#FFFFFF" d="M66.978,31.126c-0.292,0-0.526,0.241-0.526,0.527v0.527c0,0.286,0.234,0.526,0.526,0.526
			h6.173c-0.005-0.111-0.017-0.222-0.017-0.328c0-0.427,0.04-0.842,0.099-1.252H66.978z"/>
		<path id="XMLID_367_" fill="#FFFFFF" d="M81.671,23.257V22.73c0-0.286-0.234-0.521-0.527-0.521H66.978
			c-0.292,0-0.526,0.235-0.526,0.521v0.527c0,0.292,0.234,0.526,0.526,0.526h14.166C81.438,23.783,81.671,23.549,81.671,23.257
			L81.671,23.257z"/>
		<path id="XMLID_364_" fill="#FFFFFF" d="M64.878,35.849v-20.99h18.368v9.251c0.942,0.193,1.825,0.55,2.621,1.023V11.67
			c0-1.019-0.824-1.843-1.838-1.843h-3.955c-0.117,1.357-1.224,2.41-2.587,2.41h-6.852c-1.363,0-2.47-1.053-2.587-2.382h-3.955
			c-1.019,0-1.838,0.819-1.838,1.838v24.938c0,1.02,0.825,1.844,1.838,1.844h11.668c-0.779-0.742-1.417-1.633-1.873-2.626
			L64.878,35.849L64.878,35.849z"/>
		<path id="XMLID_360_" fill="#FFFFFF" d="M81.671,18.008c0-0.288-0.234-0.521-0.527-0.521H66.978c-0.292,0-0.526,0.234-0.526,0.521
			v0.526c0,0.294,0.234,0.527,0.526,0.527h14.166c0.294,0,0.527-0.234,0.527-0.527V18.008z"/>
	</g>
</g>
</svg>
