<?xml version="1.0" encoding="utf-8"?>
<!-- Generator: Adobe Illustrator 16.0.0, SVG Export Plug-In . SVG Version: 6.00 Build 0)  -->
<!DOCTYPE svg PUBLIC "-//W3C//DTD SVG 1.1//EN" "http://www.w3.org/Graphics/SVG/1.1/DTD/svg11.dtd">
<svg version="1.1" id="Capa_1" xmlns="http://www.w3.org/2000/svg" xmlns:xlink="http://www.w3.org/1999/xlink" x="0px" y="0px"
	 width="155.707px" height="74.254px" viewBox="0 0 155.707 74.254" enable-background="new 0 0 155.707 74.254"
	 xml:space="preserve">
<metadata><?xpacket begin="﻿" id="W5M0MpCehiHzreSzNTczkc9d"?>
<x:xmpmeta xmlns:x="adobe:ns:meta/" x:xmptk="Adobe XMP Core 5.3-c011 66.145661, 2012/02/06-14:56:27        ">
   <rdf:RDF xmlns:rdf="http://www.w3.org/1999/02/22-rdf-syntax-ns#">
      <rdf:Description rdf:about=""
            xmlns:dc="http://purl.org/dc/elements/1.1/">
         <dc:format>image/svg+xml</dc:format>
         <dc:title>
            <rdf:Alt>
               <rdf:li xml:lang="x-default">Imprimir</rdf:li>
            </rdf:Alt>
         </dc:title>
      </rdf:Description>
      <rdf:Description rdf:about=""
            xmlns:xmp="http://ns.adobe.com/xap/1.0/"
            xmlns:xmpGImg="http://ns.adobe.com/xap/1.0/g/img/">
         <xmp:MetadataDate>2017-04-11T01:59:07-05:00</xmp:MetadataDate>
         <xmp:ModifyDate>2017-04-11T01:59:07-05:00</xmp:ModifyDate>
         <xmp:CreateDate>2017-04-11T01:59:07-05:00</xmp:CreateDate>
         <xmp:CreatorTool>Adobe Illustrator CC (Windows)</xmp:CreatorTool>
         <xmp:Thumbnails>
            <rdf:Alt>
               <rdf:li rdf:parseType="Resource">
                  <xmpGImg:width>256</xmpGImg:width>
                  <xmpGImg:height>124</xmpGImg:height>
                  <xmpGImg:format>JPEG</xmpGImg:format>
                  <xmpGImg:image>/9j/4AAQSkZJRgABAgEBLAEsAAD/7QAsUGhvdG9zaG9wIDMuMAA4QklNA+0AAAAAABABLAAAAAEA&#xA;AQEsAAAAAQAB/+4ADkFkb2JlAGTAAAAAAf/bAIQABgQEBAUEBgUFBgkGBQYJCwgGBggLDAoKCwoK&#xA;DBAMDAwMDAwQDA4PEA8ODBMTFBQTExwbGxscHx8fHx8fHx8fHwEHBwcNDA0YEBAYGhURFRofHx8f&#xA;Hx8fHx8fHx8fHx8fHx8fHx8fHx8fHx8fHx8fHx8fHx8fHx8fHx8fHx8fHx8f/8AAEQgAfAEAAwER&#xA;AAIRAQMRAf/EAaIAAAAHAQEBAQEAAAAAAAAAAAQFAwIGAQAHCAkKCwEAAgIDAQEBAQEAAAAAAAAA&#xA;AQACAwQFBgcICQoLEAACAQMDAgQCBgcDBAIGAnMBAgMRBAAFIRIxQVEGE2EicYEUMpGhBxWxQiPB&#xA;UtHhMxZi8CRygvElQzRTkqKyY3PCNUQnk6OzNhdUZHTD0uIIJoMJChgZhJRFRqS0VtNVKBry4/PE&#xA;1OT0ZXWFlaW1xdXl9WZ2hpamtsbW5vY3R1dnd4eXp7fH1+f3OEhYaHiImKi4yNjo+Ck5SVlpeYmZ&#xA;qbnJ2en5KjpKWmp6ipqqusra6voRAAICAQIDBQUEBQYECAMDbQEAAhEDBCESMUEFURNhIgZxgZEy&#xA;obHwFMHR4SNCFVJicvEzJDRDghaSUyWiY7LCB3PSNeJEgxdUkwgJChgZJjZFGidkdFU38qOzwygp&#xA;0+PzhJSktMTU5PRldYWVpbXF1eX1RlZmdoaWprbG1ub2R1dnd4eXp7fH1+f3OEhYaHiImKi4yNjo&#xA;+DlJWWl5iZmpucnZ6fkqOkpaanqKmqq6ytrq+v/aAAwDAQACEQMRAD8A3mX/AJSLVf8AmMuP+TrZ&#xA;0WL6B7nkc/1y95S3LGp2KuxV2KuxV2KuxV2KuxV2KuxV2KuxV2KuxV2KuxV2KuxV2KuxV2KuxV2K&#xA;uxV2KuxV2KuxV2KuxVMvMv8AykWq/wDMZcf8nWyvF9A9zbn+uXvKW5Y1OxV2KuxV2KuxV2KuxV2K&#xA;uxV2KuxV2KuxV2KuxV2Ksw8sfl3P5i8uXmo2F5G+oW7hY9O/aKgVPMmnEt+x226+GLl1IhMAjbvc&#xA;3BozkgZA+odGJTQywyvDMjRyxsVkjYEMrA0IIPQjMkG3DIINFZhQ7FXYq7FXYq7FXYq7FXYq7FXY&#xA;q7FUy8y/8pFqv/MZcf8AJ1srxfQPc25/rl7yluWNTsVdirsVdirsVdirsVdirsVdiqvYWU99fW9l&#xA;bgGe6kSGIHYcpGCrX6TkZSAFllCJkQB1e8aT+TXk21s0jvoH1C5oPUneSSMFu/FYmQAfOuaeeuyE&#xA;7bPQ4+zcQG4so3/lU35f/wDVq/6eLn/qpkPzmXv+5n/J+H+b9p/W7/lU35f/APVq/wCni5/6qY/n&#xA;Mvf9y/yfh/m/af1pN5q8n/lX5b0xr6+0yrGq29utxcc5X/lX95957ZbhzZshoH7A06jTafFGyPtP&#xA;62CWPlvVNGez843uiI+h+t6p04M7NFEfsOVcs3EVqvImvfY5mSyiV4xL1d7roYJQrKY+i+TL9Y08&#xA;WjL+YPkiVHhZTJqdkNkkj6yHj+yRT417Hcb5jQlf7rJ8HNyQr9/i+IefefvM+m+Y9ZTULKx+p1iV&#xA;Z2YgvI4G5anw/D9kHqR18Bm6fEYRom3W6vPHLLiApjOZDiuxV2KuxV2KuxV2KuxV2KuxV2KuxVMv&#xA;Mv8AykWq/wDMZcf8nWyvF9A9zbn+uXvKW5Y1OxV2KuxV2KuxV2KuxV2KuxV2Kp75E/5TLRf+YyL/&#xA;AIkMp1H93L3ORpP72Pve3fmvdXVr5JvJraZ4JleELJExRhWVQaFSDmp0YByC3fdoSIxEjyeDf4k8&#xA;xf8AV1vP+R8v/NWbjwo9wee8ef8AOPzd/iTzF/1dbz/kfL/zVj4Ue4L48/5x+b1D8u/IF/qDQeYP&#xA;NLy3IQBtPs7lmkNOokcOTt3Ve/U5r9TqRH0w+LttHo5SqeTfuBeqXLWy20rXJQWwRjMZKcOFPi5V&#xA;2pTrXNcLvZ28qrfk+c/MLso1eTy0biLyjLcxxyKzFYnmoSAoO5XaoHWlK9s3mPpx/XTzOY/V4d+H&#xA;bFcyXDdirsVdirsVdirsVdirsVdirsVdirsVTLzL/wApFqv/ADGXH/J1srxfQPc25/rl7yluWNTs&#xA;VdirsVdirsVdirsVdirsVdiqe+RP+Uy0X/mMi/4kMp1H93L3ORpP72Pve0/nB/ygd7/xkg/5Ormq&#xA;0X94He9o/wByfh9755zdvNPWvyw/K/n6Wu69D8Gz2Vi469xJKD2/lX6Tms1er/hi7nQ6D+OfwD12&#xA;aaKGJ5pnWOKNS0kjEBVUCpJJ6AZrQLdyTW5eP675w/xz5os/K9jO9toMspWeZBR5+ALk79F+H4Qf&#xA;mfAbPHh8GBmfqdLl1P5jIMYNQ+9Ofzb0yx0v8vraxsYVgtYLqJY41/1XqSe5PUk5Vo5mWWzzpv7R&#xA;xiGEAcreH5t3QOxV2KuxV2KuxV2KuxV2KuxV2KuxV2Kpl5l/5SLVf+Yy4/5OtleL6B7m3P8AXL3l&#xA;LcsanYq7FXYq7FXYq7FXYq7FXYq7FU98if8AKZaL/wAxkX/EhlOo/u5e5yNJ/ex972n84P8AlA73&#xA;/jJB/wAnVzVaL+8Dve0f7k/D73jPlXSdXkW417TYI7s6HJBNNayLz5K/M8uPcL6e/fvm0zTj9J24&#xA;nR6fHI3OIvgp755X856P5g0c6lDIsHoLW9hkYAwECp5E0+Haob+3NNlwShKi9Fg1MckeIfHyeR/m&#xA;V+ZUuvSvpelu0ejRt8b7hrhgep8EH7K/SfbZ6XS8G5+r7nTa7XeJ6Y/T96Uflh/ynmkf8ZH/AOTT&#xA;5Zq/7stGg/vo/jo9R/O7/lDU/wCYyL/iL5r9B/efB2/an918Xgubl512KuxV2KuxV2KuxV2KuxV2&#xA;KuxV2KuxVMvMv/KRar/zGXH/ACdbK8X0D3Nuf65e8pbljU7FXYq7FXYq7FXYq7FXYq7FXYqnvkT/&#xA;AJTLRf8AmMi/4kMp1H93L3ORpP72Pve0/nB/ygd7/wAZIP8Ak6uarRf3gd72j/cn4fe8f8mefNR8&#xA;qfXPqdvDP9d9P1PW5belzpTiV6+pmzz6cZKvo6TTauWG6F2lmra5JfXt1c28K6dHegfWrW1Z1hcg&#xA;8t1JO3IVp0rlkMdAA701ZMvESR6b7ksyxqZT+WH/ACnmkf8AGR/+TT5jav8Auy5eg/vo/jo9R/O7&#xA;/lDU/wCYyL/iL5r9B/efB2/an918Xgubl512KuxV2KuxV2KuxV2KuxV2KuxV2KuxVMvMv/KRar/z&#xA;GXH/ACdbK8X0D3Nuf65e8pbljU7FXYq7FXYq7FXYq7FXYq7FXYqmHl7Ul0vXdP1F15paXEcrqOpV&#xA;GBYD3pleSPFEjvbMM+CYl3F9KyR6B5o0YBvT1DTLni1FY0JUhhXiQwIPUZobljl3F6kiGWPfEpX/&#xA;AMqw8h/9WiP/AIOX/mvLPzeTvavyOH+a7/lWHkP/AKtEf/By/wDNeP5vJ3r+Rw/zXf8AKsPIf/Vo&#xA;j/4OX/mvH83k71/I4f5qJ07yD5Q029ivrHTUhuoSTFKGkJBIIOxYjocjLUTkKJ2ZQ0mKJsDdhH54&#xA;eZNPfT7fQoJVlvPXE9yqEH01RWUK3gzFq09szNBiN8R5OB2pnjwiA528czaOkdirsVdirsVdirsV&#xA;dirsVdirsVdirsVTLzL/AMpFqv8AzGXH/J1srxfQPc25/rl7yluWNTsVdirsVdirsVdirsVdirsV&#xA;dirsVXxzzR19ORkr14kiv3YCEgkL/rl5/v8Ak/4Nv64OEJ4j3u+uXn+/5P8Ag2/rjwheI97vrl5/&#xA;v+T/AINv648IXiPe765ef7/k/wCDb+uPCF4j3qOSYuxV2KuxV2KuxV2KuxV2KuxV2KuxV2KuxVkX&#xA;mHy9r8mv6nJHpl26PdzsjrBIQQZGIIIXKMeSPCNxycnNhmZy9J5nol/+GvMX/VqvP+keX/mnJ+LD&#xA;vDX4E/5p+Tv8NeYv+rVef9I8v/NOPiw7wvgT/mn5O/w15i/6tV5/0jy/804+LDvC+BP+afk7/DXm&#xA;L/q1Xn/SPL/zTj4sO8L4E/5p+Tv8NeYv+rVef9I8v/NOPiw7wvgT/mn5O/w15i/6tV5/0jy/804+&#xA;LDvC+BP+afk7/DXmL/q1Xn/SPL/zTj4sO8L4E/5p+Tv8NeYv+rVef9I8v/NOPiw7wvgT/mn5O/w1&#xA;5i/6tV5/0jy/804+LDvC+BP+afk7/DXmL/q1Xn/SPL/zTj4sO8L4E/5p+Tv8NeYv+rVef9I8v/NO&#xA;Piw7wvgT/mn5O/w15i/6tV5/0jy/804+LDvC+BP+afk7/DXmL/q1Xn/SPL/zTj4sO8L4E/5p+Tv8&#xA;NeYv+rVef9I8v/NOPiw7wvgT/mn5O/w15i/6tV5/0jy/804+LDvC+BP+afk7/DXmL/q1Xn/SPL/z&#xA;Tj4sO8L4E/5p+Tv8NeYv+rVef9I8v/NOPiw7wvgT/mn5O/w15i/6tV5/0jy/804+LDvC+BP+afk7&#xA;/DXmL/q1Xn/SPL/zTj4sO8L4E/5p+Tv8NeYv+rVef9I8v/NOPiw7wvgT/mn5O/w15i/6tV5/0jy/&#xA;804+LDvC+BP+afk7/DXmL/q1Xn/SPL/zTj4sO8L4E/5p+Tv8NeYv+rVef9I8v/NOPiw7wvgT/mn5&#xA;O/w15i/6tV5/0jy/804+LDvC+BP+afk7/DXmL/q1Xn/SPL/zTj4sO8L4E/5p+Tv8NeYv+rVef9I8&#xA;v/NOPiw7wvgT/mn5O/w15i/6tV5/0jy/804+LDvC+BP+afk7/DXmL/q1Xn/SPL/zTj4sO8L4E/5p&#xA;+Tv8NeYv+rVef9I8v/NOPiw7wvgT/mn5O/w15i/6tV5/0jy/804+LDvC+BP+afk7/DXmL/q1Xn/S&#xA;PL/zTj4sO8L4E/5p+T6pznXrnYq7FXYq7FXYq7FXYq7FXYq7FXYq7FXYq7FXYq7FXYq7FXYq7FXY&#xA;q7FXYq7FXYq7FXYq7FXYq7FXYq7FXYq7FUPqOoWWnWFzqF9MtvZWcTz3M7/ZSKNSzsfYKK4ql3lP&#xA;zl5Z83aWdV8uX6ajYLK0DTxh1AkQAspDhWBAYHpiqU+bvzd/LbyferY+Ytet7G+YK31Wkk0qq5+E&#xA;ukKyMgNerAbb4quv/wA2fy5sfLFr5puddtxoF7MLa21BOcqNMVdvTpGrMrUjaoI2piqTWv8AzkR+&#xA;TN1cxW1v5ngknndYokENyCzueKjeLuTiqNu/zv8AyrtEu3udfiiSxvP0ddu0U/GO6PM+kzenSv7p&#xA;9+m2Ksi80ebfLnlbSG1jX75LDTUZIzcOGYcpDRQAgZjX2GKpbD+aPkOa41K2j1ZDPpFguralEY5l&#xA;aGyaFLgTMGQf7qlVuI+LfpXFUm0//nIH8mtQu47S281WnrSkKnqiWBSSQAOcqIg3Pc4qz24u7W3t&#xA;JLyaVUtYY2mkmJ+FY1XkWJ8AN8VSfyh558qecdPl1Dy1qMepWcEpgmljDrxkCh+JWRUb7LjtirHN&#xA;R/P38oNN1S60q+8yQW9/ZTyWt1C0dx8E0TmN1LCPj8LKRWtMVZno2t6Rremw6npF5Df6fcDlDdW7&#xA;iSNux3XuDsR1B64qkHnD81vy+8m30Nj5l1iPTbu4i9eGJ45nLR8ivKsaOPtKRiqM8p+f/Jnm+GWX&#xA;y3rFvqYhp6yQt+8Tl0LxsFdQfcYqljfnJ+Wi+XZvMba5ENFt7w6bNeenNxW7CCT0uPDlXia1pTFX&#xA;eWfzl/K/zPqKabonmK1ur+SvpWpLwyOQK0jWZYy5p2WuKoj80/Ob+TfImqeYIfq5u7ZFSyS7YrC0&#xA;8rrHHz4lWKgtyIBBIHUYqjvI2s3WteUdK1a6u7O+uL63WeS505JI7Vi+9IlmeSSi/Z+I1qOg6BVI&#xA;tb/PL8ptD1h9G1PzLawajE/pzQr6kojetCskkaPGhB+0GYU74qivMn5v/lr5bWxfWdet7aPU4frO&#xA;nyqJJkmh6eojwrIpX6cVQei/nt+U2t6imnaX5hhur2RJZUhWK4UlIImmlNWjUfDHGzfRiqeaf+YH&#xA;kzUPKzea7bVoP8OpzLanITDEPTbg1fVCH7Y49Nz0xVKvK/50fld5p1UaToXmG3u9Savp2xWWFpOI&#xA;5H0/WSMPQb/DXFU583ed/Kvk/To9S8y6hHptlNKLeKaQO3KVlZwoEau32UJ6Yqm1neWt7ZwXlpKs&#xA;1rcxpNbzIaq8cihkZT4FTXFVbFXYq7FXYq7FXYq8N/5y486ro35fQeXYZxBe+Z7gW7uSQEtISrzu&#xA;aVNKlEO24Y4qwr/nHDzP5X8ufmvrvkbQNVGqeWdZiS60W6o61uoIg0qcZArAlC4P+oMVTP8A5xz8&#xA;r+WPOGq+e/MHmzTLXVvMLavLDNHfxpcehE4Y8VSQMq8jySoHRadMVek/lv8Al/8Ak3a6dq+meWDa&#xA;a3YG/M1/ZTSx38VvdIGjAETcliIWqg0qV7nFWBf842+V/LV5q/5gtd6TZXDWXmGZLNpbeJzCqu/F&#xA;YuSngBTYLirCfKvks+b/ACt+d+lxIZL6HVje6eFFWNxazXUqqvvIAY/9liqw+b5fze0/8p/y+9Qz&#xA;SBzceaFqa+np/KFWZh0Z7eKRvm64qyHzAqr+b/56KoCqvk2UKo2AA0y22GKozy55D8kap/zif+kt&#xA;R0mz/SEGj395FqfoxrcrcW7TtE3rACQ/EoFK7jbFUj138yL/AE3/AJxC8vWk9wx1jzEk2kQMxo4s&#xA;re5ljc79VFtGkX+yGKrP+cevMnlbyl+cFz5Q0DWV1by35isbf6vdASKP0lbQcnB9VY6c2E1Nt6oM&#xA;VZF+RXlry7rn5n/nLHrWl2mppHrZWNbyCOcKJLu/DhfUVuPLiK0xVH/84zIml+ePzP8ALOmMW8ua&#xA;Xqimwi5c0iZpZ4iqnvVIVUn/ACBiqr+Y2nafqP8AzlT+X9nqFtFeWculXnq21wiyxtxhvWXkjgqa&#xA;MAR74ql+r6NpPlP/AJyw8qQeVrePTY9b06U6vYWiqkTgrcEsYkAC19BXNNqrXxxV5Fc/+sya3/4H&#xA;L/8AUFHir1X/AJyY8peUtD/LPQ/M2j2Nro3mKyvbL6jfWUKW8zMY2cqWjC14lPUBPQj3xVD/APOS&#xA;HnHRtY8yeSPIuv3403R3MWreapviPBWUiOP92rMG4iWm3VlOKqH5C/mDLaflV+YPlbTr761feU7X&#xA;Ur7y9eIG/e25jlZHiQgNRZ1577/vBiqdfkH+Wv5Zav8AkQmp6/ptncXGpx3x1nVJ1Rp4VinmQMsz&#xA;hmhMcSK4Ip/NirO9O8k/lan5VSweX4rPXdHsLG8/Rt9MYr9oyyvK4SZg3D94xJUUoe2KsK/5x90D&#xA;Qj/zj7+mDptqdWW31YLqJhj+sgVmSgm48/sHj16bYq8kgcXn5S/lD5ev2ZPLureYrsaw3IqvFL1I&#xA;xyIof7ueU9e2KvovzZ+Vv5G2Wq+WbrUYLLy3e2dyo0VrWSPTjPOhV0RmQIZSrKCKmtT1+LdV5N/z&#xA;kX5k8r+aPzb03yXr+sLpXlvQrOeW/u6O1L+5hLRLSNXLcf3PbarDFXoH/OJfnka/+Ww0S4l9TUPL&#xA;Uv1Nt6lrV6vbNv2A5Rj2TFXtuKuxV2KuxV2KuxVgev8A5RaRr/5k6Z521e6e7XSLdrez0WWONrUF&#xA;g9ZG5AlmrJy+YXwxVQ83/kt5e13zF5d8w6fL+gdU8u3HrwyWMMSrMOSN6cq0Wo+CnyYjFWP+bf8A&#xA;nG+w1LzTe+ZfLHmXUvKOoapyOqrp7ERzs+7tRHiZS5JLfERXegxVmf5X/ld5d/Lry8dH0YyTNNIZ&#xA;729nIM08pAFW4gAKoFFUdPmSSqs/Lv8ALOx8k3PmGe1vZbs+Yb99RmWVVURvIWPBePUfF3xVS/Ln&#xA;8rNP8j6l5kv7W+lvH8yXn16dJVVRE3OR+Kceo/e98VSf8uPyA8reRPOeq+aNNuJZ5tQWWO2tJFQR&#xA;2sc0olZIyNzTiFBO9PniqLv/AMl9MvPNfnPzE2pTrN5z0ltHuoAicYI2t47f1Iz1ZqRVocVYZa/8&#xA;4pWo02HRb7zzr915biIroiz+nakBufERkvGo5b7J1xVmOqfkd5a1DzV5X1aSVl0fylbfVtL8uiNW&#xA;tdgR6jluTFq8CfHgK98VX+fPyT8ueZ77QtSsXGgapoF0Lu0vLGCJSzAqwWQALyAaNSPp8cVYtd/8&#xA;4zv/AIk13XNJ8861ob+YLya9voNOk+rqxlleUIxjZeYT1WC8vH3xV6D+W35Z+Wvy90J9J0MSyCeU&#xA;z3l5csHnnlIA5OwCjYDYAUHzJxVj35l/kjH5181ad5mg8x3/AJf1PTLY2ttPpxEcgVmcswlBV1LL&#xA;KVND0xVV/Lv8j9D8oa7ceZbrVL/zH5muYzAdW1SX1pEiNKqlampC05Ek02FBXFUhk/5xm0J/y7vP&#xA;JJ1q6Freaydca79OP1FkMKw+kF6caLWuKt6T/wA406YNX07UPNPmrWvNkWkyLNYadqc5ktldaU5I&#xA;5kqvwj4QQD3qNsVZLpH5N6Fa/mBr/nbU5jrOo62qxJBdxRtFbQqV4pGDyrRY0Wp8PfFVqfkzoNt+&#xA;Zyee9NnNgz2bWOoaPDFGLW6jZCh9QClP2DQbVQe+KsIv/wDnE7S/XvrbQfNuraJ5a1N+d9oEDl4H&#xA;BNSlS6gr4eorH3OKvWND8i6HoPklPJ+kI1tpcdrJaoxIaT98G5yMdgzszlj74qlvkX8s7Hyj+Xp8&#xA;lW17LdWpS5T63IqrJS6ZmY8Rt8PPbFWPw/8AOPPlF/ytt/y91C4nvLO0mkurPUgEjuYZ5HZ+aUDL&#xA;t6hWhFCMVSjyz/zjNYWPmTTda8zeaNS81jRSG0eyv2JhhKkMleTykqpAIVeIqBWo2xVlHkz8l/L3&#xA;l/WfMOtX8g17U/MV19auZr6GJhF8TtwiUhuK1kP0AeGKqnlr8odJ8t/mNq/nLSLuS1i1qEQ3eiJG&#xA;i2oZQn7xKUIbkhb/AGTYqz7FXYq7FXYq7FXYq7FXYq7FXYq7FXYq7FXYq7FXYq7FXYq7FXYq7FXY&#xA;q7FXYq7FXYq7FXYq7FXYq7FXYq7FXYq7FXYq7FXYq7FXYq7FXYq7FXYq7FXYq7FXYq7FXYq7FXYq&#xA;7FXYq7FXYq7FXYq7FXYq7FXYq7FXYq7FXYq7FX//2Q==</xmpGImg:image>
               </rdf:li>
            </rdf:Alt>
         </xmp:Thumbnails>
      </rdf:Description>
      <rdf:Description rdf:about=""
            xmlns:xmpMM="http://ns.adobe.com/xap/1.0/mm/"
            xmlns:stRef="http://ns.adobe.com/xap/1.0/sType/ResourceRef#"
            xmlns:stEvt="http://ns.adobe.com/xap/1.0/sType/ResourceEvent#">
         <xmpMM:InstanceID>xmp.iid:9abfa668-2609-c146-aeb5-945099e7e6e3</xmpMM:InstanceID>
         <xmpMM:DocumentID>xmp.did:9abfa668-2609-c146-aeb5-945099e7e6e3</xmpMM:DocumentID>
         <xmpMM:OriginalDocumentID>uuid:5D20892493BFDB11914A8590D31508C8</xmpMM:OriginalDocumentID>
         <xmpMM:RenditionClass>proof:pdf</xmpMM:RenditionClass>
         <xmpMM:DerivedFrom rdf:parseType="Resource">
            <stRef:instanceID>uuid:ff470bc6-f939-440e-8f31-27b0eb70075c</stRef:instanceID>
            <stRef:documentID>xmp.did:4de20fe2-e96f-dd46-b8bd-1606dc72d06f</stRef:documentID>
            <stRef:originalDocumentID>uuid:5D20892493BFDB11914A8590D31508C8</stRef:originalDocumentID>
            <stRef:renditionClass>proof:pdf</stRef:renditionClass>
         </xmpMM:DerivedFrom>
         <xmpMM:History>
            <rdf:Seq>
               <rdf:li rdf:parseType="Resource">
                  <stEvt:action>saved</stEvt:action>
                  <stEvt:instanceID>xmp.iid:9abfa668-2609-c146-aeb5-945099e7e6e3</stEvt:instanceID>
                  <stEvt:when>2017-04-11T01:59:07-05:00</stEvt:when>
                  <stEvt:softwareAgent>Adobe Illustrator CC (Windows)</stEvt:softwareAgent>
                  <stEvt:changed>/</stEvt:changed>
               </rdf:li>
            </rdf:Seq>
         </xmpMM:History>
      </rdf:Description>
      <rdf:Description rdf:about=""
            xmlns:illustrator="http://ns.adobe.com/illustrator/1.0/">
         <illustrator:StartupProfile>Print</illustrator:StartupProfile>
      </rdf:Description>
      <rdf:Description rdf:about=""
            xmlns:xmpTPg="http://ns.adobe.com/xap/1.0/t/pg/"
            xmlns:stDim="http://ns.adobe.com/xap/1.0/sType/Dimensions#"
            xmlns:xmpG="http://ns.adobe.com/xap/1.0/g/">
         <xmpTPg:HasVisibleOverprint>False</xmpTPg:HasVisibleOverprint>
         <xmpTPg:HasVisibleTransparency>True</xmpTPg:HasVisibleTransparency>
         <xmpTPg:NPages>1</xmpTPg:NPages>
         <xmpTPg:MaxPageSize rdf:parseType="Resource">
            <stDim:w>5.492981</stDim:w>
            <stDim:h>2.619513</stDim:h>
            <stDim:unit>Centimeters</stDim:unit>
         </xmpTPg:MaxPageSize>
         <xmpTPg:PlateNames>
            <rdf:Seq>
               <rdf:li>Cyan</rdf:li>
               <rdf:li>Magenta</rdf:li>
               <rdf:li>Yellow</rdf:li>
               <rdf:li>Black</rdf:li>
            </rdf:Seq>
         </xmpTPg:PlateNames>
         <xmpTPg:SwatchGroups>
            <rdf:Seq>
               <rdf:li rdf:parseType="Resource">
                  <xmpG:groupName>Default Swatch Group</xmpG:groupName>
                  <xmpG:groupType>0</xmpG:groupType>
               </rdf:li>
            </rdf:Seq>
         </xmpTPg:SwatchGroups>
      </rdf:Description>
      <rdf:Description rdf:about=""
            xmlns:pdf="http://ns.adobe.com/pdf/1.3/">
         <pdf:Producer>Adobe PDF library 10.01</pdf:Producer>
      </rdf:Description>
   </rdf:RDF>
</x:xmpmeta>
                                                                                                    
                                                                                                    
                                                                                                    
                                                                                                    
                                                                                                    
                                                                                                    
                                                                                                    
                                                                                                    
                                                                                                    
                                                                                                    
                                                                                                    
                                                                                                    
                                                                                                    
                                                                                                    
                                                                                                    
                                                                                                    
                                                                                                    
                                                                                                    
                                                                                                    
                                                                                                    
                           
<?xpacket end="w"?>
	</metadata>
<g>
	<rect id="XMLID_96_" x="0.541" opacity="0.5" fill="#FFFFFF" enable-background="new    " width="154.914" height="74.254"/>
	<rect id="XMLID_93_" x="0.541" fill="#3B86B1" width="155.166" height="48.154"/>
	<rect id="XMLID_92_" y="57.455" fill="none" width="155.707" height="13.102"/>
	<g enable-background="new    ">
		<path d="M24.034,65.331h-1.729l-0.688-1.789H18.47l-0.65,1.789h-1.687l3.067-7.874h1.681L24.034,65.331z M21.107,62.216
			l-1.085-2.922l-1.063,2.922H21.107z"/>
		<path d="M29.916,62.437l1.542,0.488c-0.236,0.859-0.629,1.498-1.179,1.915c-0.55,0.417-1.247,0.626-2.092,0.626
			c-1.045,0-1.905-0.357-2.578-1.072c-0.673-0.714-1.01-1.69-1.01-2.93c0-1.311,0.338-2.328,1.015-3.054
			c0.677-0.725,1.566-1.087,2.669-1.087c0.963,0,1.746,0.284,2.347,0.854c0.358,0.337,0.626,0.82,0.806,1.45l-1.574,0.376
			c-0.093-0.408-0.288-0.73-0.583-0.967c-0.296-0.236-0.655-0.354-1.077-0.354c-0.583,0-1.057,0.21-1.421,0.628
			c-0.363,0.42-0.545,1.098-0.545,2.036c0,0.995,0.179,1.704,0.537,2.127s0.824,0.634,1.396,0.634c0.422,0,0.786-0.135,1.09-0.402
			C29.564,63.435,29.783,63.013,29.916,62.437z"/>
		<path d="M34.594,65.331v-6.542h-2.336v-1.332h6.257v1.332h-2.331v6.542H34.594z"/>
		<path d="M39.492,65.331v-7.874h1.59v7.874H39.492z"/>
		<path d="M44.605,65.331l-2.814-7.874h1.724l1.993,5.827l1.928-5.827h1.687l-2.82,7.874H44.605z"/>
		<path d="M49.885,65.331v-7.874h1.59v7.874H49.885z"/>
		<path d="M52.984,57.457h2.906c0.655,0,1.155,0.05,1.499,0.15c0.462,0.136,0.857,0.378,1.187,0.726
			c0.33,0.347,0.58,0.772,0.752,1.275s0.258,1.123,0.258,1.861c0,0.647-0.081,1.206-0.242,1.676
			c-0.197,0.572-0.478,1.036-0.843,1.391c-0.276,0.269-0.648,0.479-1.117,0.629c-0.351,0.11-0.82,0.166-1.407,0.166h-2.992V57.457z
			 M54.574,58.789v5.216h1.187c0.444,0,0.765-0.025,0.961-0.076c0.258-0.064,0.472-0.173,0.642-0.327
			c0.17-0.154,0.309-0.407,0.417-0.76s0.161-0.834,0.161-1.442s-0.054-1.076-0.161-1.402c-0.107-0.325-0.258-0.58-0.451-0.762
			c-0.193-0.184-0.438-0.307-0.736-0.371c-0.222-0.05-0.657-0.075-1.305-0.075H54.574z"/>
		<path d="M68.034,65.331h-1.729l-0.688-1.789H62.47l-0.65,1.789h-1.687l3.067-7.874h1.681L68.034,65.331z M65.107,62.216
			l-1.085-2.922l-1.063,2.922H65.107z"/>
		<path d="M68.872,57.457h2.906c0.655,0,1.155,0.05,1.499,0.15c0.462,0.136,0.857,0.378,1.187,0.726
			c0.33,0.347,0.58,0.772,0.752,1.275s0.258,1.123,0.258,1.861c0,0.647-0.081,1.206-0.242,1.676
			c-0.197,0.572-0.478,1.036-0.843,1.391c-0.276,0.269-0.648,0.479-1.117,0.629c-0.351,0.11-0.82,0.166-1.407,0.166h-2.992V57.457z
			 M70.462,58.789v5.216h1.187c0.444,0,0.765-0.025,0.961-0.076c0.258-0.064,0.472-0.173,0.642-0.327
			c0.17-0.154,0.309-0.407,0.417-0.76s0.161-0.834,0.161-1.442s-0.054-1.076-0.161-1.402c-0.107-0.325-0.258-0.58-0.451-0.762
			c-0.193-0.184-0.438-0.307-0.736-0.371c-0.222-0.05-0.657-0.075-1.305-0.075H70.462z"/>
		<path d="M79.873,57.457h2.905c0.655,0,1.155,0.05,1.499,0.15c0.461,0.136,0.857,0.378,1.187,0.726
			c0.329,0.347,0.58,0.772,0.752,1.275s0.258,1.123,0.258,1.861c0,0.647-0.081,1.206-0.241,1.676
			c-0.197,0.572-0.479,1.036-0.844,1.391c-0.275,0.269-0.648,0.479-1.117,0.629c-0.352,0.11-0.82,0.166-1.407,0.166h-2.991V57.457z
			 M81.462,58.789v5.216h1.187c0.444,0,0.765-0.025,0.962-0.076c0.258-0.064,0.471-0.173,0.641-0.327
			c0.171-0.154,0.31-0.407,0.417-0.76s0.161-0.834,0.161-1.442s-0.054-1.076-0.161-1.402c-0.107-0.325-0.258-0.58-0.451-0.762
			c-0.193-0.184-0.438-0.307-0.735-0.371c-0.223-0.05-0.658-0.075-1.306-0.075H81.462z"/>
		<path d="M87.773,65.331v-7.874h1.59v7.874H87.773z"/>
		<path d="M90.873,57.457h2.905c0.655,0,1.155,0.05,1.499,0.15c0.461,0.136,0.857,0.378,1.187,0.726
			c0.329,0.347,0.58,0.772,0.752,1.275s0.258,1.123,0.258,1.861c0,0.647-0.081,1.206-0.241,1.676
			c-0.197,0.572-0.479,1.036-0.844,1.391c-0.275,0.269-0.648,0.479-1.117,0.629c-0.352,0.11-0.82,0.166-1.407,0.166h-2.991V57.457z
			 M92.462,58.789v5.216h1.187c0.444,0,0.765-0.025,0.962-0.076c0.258-0.064,0.471-0.173,0.641-0.327
			c0.171-0.154,0.31-0.407,0.417-0.76s0.161-0.834,0.161-1.442s-0.054-1.076-0.161-1.402c-0.107-0.325-0.258-0.58-0.451-0.762
			c-0.193-0.184-0.438-0.307-0.735-0.371c-0.223-0.05-0.658-0.075-1.306-0.075H92.462z"/>
		<path d="M105.921,65.331h-1.729l-0.688-1.789h-3.148l-0.649,1.789h-1.687l3.066-7.874h1.682L105.921,65.331z M102.995,62.216
			l-1.085-2.922l-1.063,2.922H102.995z M100.997,57.006l0.741-1.606h1.691l-1.477,1.606H100.997z"/>
		<path d="M111.803,62.437l1.542,0.488c-0.236,0.859-0.63,1.498-1.18,1.915c-0.549,0.417-1.246,0.626-2.092,0.626
			c-1.045,0-1.904-0.357-2.578-1.072c-0.674-0.714-1.01-1.69-1.01-2.93c0-1.311,0.338-2.328,1.016-3.054
			c0.676-0.725,1.566-1.087,2.669-1.087c0.964,0,1.745,0.284,2.347,0.854c0.358,0.337,0.627,0.82,0.807,1.45l-1.574,0.376
			c-0.094-0.408-0.287-0.73-0.582-0.967c-0.297-0.236-0.655-0.354-1.078-0.354c-0.583,0-1.057,0.21-1.42,0.628
			c-0.363,0.42-0.545,1.098-0.545,2.036c0,0.995,0.179,1.704,0.537,2.127c0.357,0.423,0.823,0.634,1.396,0.634
			c0.422,0,0.785-0.135,1.09-0.402C111.453,63.435,111.671,63.013,111.803,62.437z"/>
		<path d="M116.482,65.331v-6.542h-2.337v-1.332h6.257v1.332h-2.33v6.542H116.482z"/>
		<path d="M121.38,65.331v-7.874h1.59v7.874H121.38z"/>
		<path d="M129.523,62.437l1.541,0.488c-0.236,0.859-0.629,1.498-1.179,1.915s-1.247,0.626-2.093,0.626
			c-1.045,0-1.904-0.357-2.578-1.072c-0.673-0.714-1.01-1.69-1.01-2.93c0-1.311,0.339-2.328,1.016-3.054
			c0.677-0.725,1.566-1.087,2.67-1.087c0.963,0,1.745,0.284,2.347,0.854c0.358,0.337,0.626,0.82,0.806,1.45l-1.574,0.376
			c-0.093-0.408-0.287-0.73-0.582-0.967c-0.296-0.236-0.654-0.354-1.077-0.354c-0.583,0-1.058,0.21-1.421,0.628
			c-0.363,0.42-0.545,1.098-0.545,2.036c0,0.995,0.18,1.704,0.537,2.127s0.824,0.634,1.396,0.634c0.422,0,0.786-0.135,1.09-0.402
			C129.171,63.435,129.39,63.013,129.523,62.437z"/>
		<path d="M139.529,65.331h-1.729l-0.688-1.789h-3.147l-0.65,1.789h-1.686l3.066-7.874h1.682L139.529,65.331z M136.601,62.216
			l-1.084-2.922l-1.064,2.922H136.601z"/>
	</g>
	<path id="XMLID_85_" fill="#FEFEFE" d="M90.634,18.201v16.996c0,2.098-1.752,3.85-4.033,3.85H66.636
		c-2.28,0-4.027-1.752-4.027-3.85V15.049c0-2.275,1.747-4.028,4.027-4.028h16.99l-4.028,4.028H66.636v20.149H86.6V22.234
		L90.634,18.201z M87.654,9.796l-1.398,1.574l4.207,4.207l1.4-1.403L87.654,9.796z M90.46,6.994l-1.399,1.398l4.198,4.381
		l1.41-1.404L90.46,6.994z M72.07,25.383l4.199,4.383l12.792-12.787l-4.208-4.205L72.07,25.383z M70.665,31.163h4.031l-4.031-4.028
		V31.163z"/>
</g>
</svg>
