<?xml version="1.0" encoding="utf-8"?>
<!-- Generator: Adobe Illustrator 16.0.0, SVG Export Plug-In . SVG Version: 6.00 Build 0)  -->
<!DOCTYPE svg PUBLIC "-//W3C//DTD SVG 1.1//EN" "http://www.w3.org/Graphics/SVG/1.1/DTD/svg11.dtd">
<svg version="1.1" id="Capa_1" xmlns="http://www.w3.org/2000/svg" xmlns:xlink="http://www.w3.org/1999/xlink" x="0px" y="0px"
	 width="155.707px" height="74.254px" viewBox="0 0 155.707 74.254" enable-background="new 0 0 155.707 74.254"
	 xml:space="preserve">
<metadata><?xpacket begin="﻿" id="W5M0MpCehiHzreSzNTczkc9d"?>
<x:xmpmeta xmlns:x="adobe:ns:meta/" x:xmptk="Adobe XMP Core 5.3-c011 66.145661, 2012/02/06-14:56:27        ">
   <rdf:RDF xmlns:rdf="http://www.w3.org/1999/02/22-rdf-syntax-ns#">
      <rdf:Description rdf:about=""
            xmlns:dc="http://purl.org/dc/elements/1.1/">
         <dc:format>image/svg+xml</dc:format>
         <dc:title>
            <rdf:Alt>
               <rdf:li xml:lang="x-default">Imprimir</rdf:li>
            </rdf:Alt>
         </dc:title>
      </rdf:Description>
      <rdf:Description rdf:about=""
            xmlns:xmp="http://ns.adobe.com/xap/1.0/"
            xmlns:xmpGImg="http://ns.adobe.com/xap/1.0/g/img/">
         <xmp:MetadataDate>2017-04-11T01:59:07-05:00</xmp:MetadataDate>
         <xmp:ModifyDate>2017-04-11T01:59:07-05:00</xmp:ModifyDate>
         <xmp:CreateDate>2017-04-11T01:59:07-05:00</xmp:CreateDate>
         <xmp:CreatorTool>Adobe Illustrator CC (Windows)</xmp:CreatorTool>
         <xmp:Thumbnails>
            <rdf:Alt>
               <rdf:li rdf:parseType="Resource">
                  <xmpGImg:width>256</xmpGImg:width>
                  <xmpGImg:height>124</xmpGImg:height>
                  <xmpGImg:format>JPEG</xmpGImg:format>
                  <xmpGImg:image>/9j/4AAQSkZJRgABAgEBLAEsAAD/7QAsUGhvdG9zaG9wIDMuMAA4QklNA+0AAAAAABABLAAAAAEA&#xA;AQEsAAAAAQAB/+4ADkFkb2JlAGTAAAAAAf/bAIQABgQEBAUEBgUFBgkGBQYJCwgGBggLDAoKCwoK&#xA;DBAMDAwMDAwQDA4PEA8ODBMTFBQTExwbGxscHx8fHx8fHx8fHwEHBwcNDA0YEBAYGhURFRofHx8f&#xA;Hx8fHx8fHx8fHx8fHx8fHx8fHx8fHx8fHx8fHx8fHx8fHx8fHx8fHx8fHx8f/8AAEQgAfAEAAwER&#xA;AAIRAQMRAf/EAaIAAAAHAQEBAQEAAAAAAAAAAAQFAwIGAQAHCAkKCwEAAgIDAQEBAQEAAAAAAAAA&#xA;AQACAwQFBgcICQoLEAACAQMDAgQCBgcDBAIGAnMBAgMRBAAFIRIxQVEGE2EicYEUMpGhBxWxQiPB&#xA;UtHhMxZi8CRygvElQzRTkqKyY3PCNUQnk6OzNhdUZHTD0uIIJoMJChgZhJRFRqS0VtNVKBry4/PE&#xA;1OT0ZXWFlaW1xdXl9WZ2hpamtsbW5vY3R1dnd4eXp7fH1+f3OEhYaHiImKi4yNjo+Ck5SVlpeYmZ&#xA;qbnJ2en5KjpKWmp6ipqqusra6voRAAICAQIDBQUEBQYECAMDbQEAAhEDBCESMUEFURNhIgZxgZEy&#xA;obHwFMHR4SNCFVJicvEzJDRDghaSUyWiY7LCB3PSNeJEgxdUkwgJChgZJjZFGidkdFU38qOzwygp&#xA;0+PzhJSktMTU5PRldYWVpbXF1eX1RlZmdoaWprbG1ub2R1dnd4eXp7fH1+f3OEhYaHiImKi4yNjo&#xA;+DlJWWl5iZmpucnZ6fkqOkpaanqKmqq6ytrq+v/aAAwDAQACEQMRAD8AR1j/AI699/zES/8AEznR&#xA;w+kPH5PqPvQeTYOxV2KuxV2KuxV2KuxV2KuxV2KuxV2KuxV2KuxV2KuxV2KuxV2KuxV2KuxV2Kux&#xA;V2KuxV2KuxVGaP8A8dex/wCYiL/iYyE/pLPH9Q97tY/4699/zES/8TOMPpC5PqPvQeTYOxV2KuxV&#xA;2KuxV2KuxV2KuxV2KuxV2KvQ/IX5ValqzWGsX5hTRncSNAzMZZUU9OKigViKbt0zB1GrEbiPqdlp&#xA;NBKdSl9LNvOf5XJrWnRjT4bGw1KCZvSeKNoYntiSFSTgGPMChrT9eYmDV8B3sj9Ln6nQeJH08Il+&#xA;h4nrWj32japcaZfKEurZgsgU1BqAykHwKkEZtoTEhY5Oiy4zCRieYQWTa3Yq7FXYq7FXYq7FXYq7&#xA;FXYq7FXYq7FXYqjNH/469j/zERf8TGQn9JZ4/qHvdrH/AB177/mIl/4mcYfSFyfUfeg8mwdirsVd&#xA;irsVdirsVdirsVdirsVZH+XVpbXfnXSoLmNZoWlJaNxVSURmFQeu4yjUkjGSHK0UQcsQX0wAAAAK&#xA;AbADNA9SxmLyxr1gpttG1tbTTVZjb2k9otwYgx5FFk9SM8QT8IPTpXMg5YneUbPvcUYJx2jKo+61&#xA;/wCiPO//AFMdv/3Dh/1XwceP+b9v7E+Hl/nj/S/tTHRNGGmpcPLO13fXknrXl24Cl3ChFAVdlVVU&#xA;BVyGSfF5ANmLFw3vZPNhf542lq/laC6aJTcxXSJHNT4grq/Ja+BoNsytBI8deTg9qxHhg9beFZuH&#xA;n3Yq7FXYq7FXYq7FXYq7FXYq7FXYq7FUZo//AB17H/mIi/4mMhP6Szx/UPe7WP8Ajr33/MRL/wAT&#xA;OMPpC5PqPvQeTYOxV2KuxV2KuxV2KuxV2KuxV2Ksp/K//lPNI/4yP/yafMbV/wB2XL0H99H8dGaf&#xA;mJY6lqv5hR6ba6oumhrFJA80zRRkqz1A49WOYumkI4rIvdztZCU83CJcPpS7/lXHmP8A6myz/wCk&#xA;qXJ/mofzD8mv8lP+ePm7/lXHmP8A6myz/wCkqXH81D+Yfkv5Kf8APHzQGu+Ttf0jS59QfzNbzrAA&#xA;fRiupDI1SBRQep3yePPGRrhPya8umnCJlxj5su/M1mf8rNJZiWZjZlmO5JMDbnMbS/3x+Lma7/F4&#xA;/D7nimbZ0TsVdirsVdirsVdirsVdirsVdirsVdiqM0f/AI69j/zERf8AExkJ/SWeP6h73ax/x177&#xA;/mIl/wCJnGH0hcn1H3oPJsHYq7FXYq7FXYq7FXYq7FXYq7FWU/lf/wAp5pH/ABkf/k0+Y2r/ALsu&#xA;XoP76P46Ms/MvRI9a/MWKykvoNPBsEcT3LcUqrP8IO25zH0uTgxXV7uZrsXHnqwPT1Sv/lVNp/1N&#xA;Omf8jF/5qyz84f5smr+Tx/Pi7/lVNp/1NOmf8jF/5qx/OH+bJf5PH8+KA1v8vLbTNLnvk8w6fdtA&#xA;ARbxSAu9SBRQCd98nj1Jka4SGvLoxCJPHEs3/Mog/lVo5G/+8f8AyYOYml/vj8XP1v8Ai8fh9zxb&#xA;Nq6J2KuxV2KuxV2KuxV2KuxV2KuxV2KuxVGaP/x17H/mIi/4mMhP6Szx/UPe7WP+Ovff8xEv/Ezj&#xA;D6QuT6j70Hk2DsVdirsVdirsVdirsVdirsVdirKfyv8A+U80j/jI/wDyafMbV/3ZcvQf30fx0ZZ+&#xA;Zdr5fufzFij169ksLD6ghM8SGRuYZ+K0VXpXxpmPpTIYvSLNuZrowOf1mhwpX+gfyc/6mW8/5ESf&#xA;9UMs8TP/ADR+Pi1eFpf55+X7ETo35b+WPMGqImg6hdXGk2w5ahfSoEqx+zDCrIh50FWYigHjkZ6q&#xA;cB6gOLoyx6LHkl6CTEcz+gJ1dar+S+gSHT1sE1CSL4JZUiFzRh1rJIQCf9XKRDPPe6b5ZNLj9NX9&#xA;qtfeUvK/m7y9PJ5OvDblDzfT1Z1gaUAlRJA5/dsdwrDb54I5p4pfvB8WU9PjzQPhGvLp8njE8MsE&#xA;0kEyGOaJikiNsVZTQg/I5tQbdGQQaKzCh2KuxV2KuxV2KuxV2KuxV2KuxV2KozR/+OvY/wDMRF/x&#xA;MZCf0lnj+oe92sf8de+/5iJf+JnGH0hcn1H3oPJsHYq7FXYq7FXYq7FXYq7FXYq7FWU/lf8A8p5p&#xA;H/GR/wDk0+Y2r/uy5eg/vo/joy78yLby5cfmPFH5hu5bPTvqCEzQLyfmGfiNkk2P+qcxtKZjF6RZ&#xA;tzdbGBz+s1HhS79B/kh/1MGof8i3/wCyXLPE1H80fj4tXhaT+fL8f5rItNkTS/yWvrrSGJeVp/3o&#xA;2fi916HM7Ch9EA9MokOLUAS/GzkwPBpSY+f319zxfNq6Nmv5P313b+eLOGAn0rtJYrhB0KCNnBP+&#xA;qyA5ia2IOM+TndnTIygDqofmvbQW/nzU1hoA5ikdR2d4lZvvJ5fTktGScYY9oRAzGmI5kuG7FXYq&#xA;7FXYq7FXYq7FXYq7FXYq7FUZo/8Ax17H/mIi/wCJjIT+ks8f1D3u1j/jr33/ADES/wDEzjD6QuT6&#xA;j70Hk2DsVdirsVdirsVdirsVdirsVdirIfy/1Cz0/wA46Xd3kghto5SJJW2VeaMgJPYVbc5RqYmW&#xA;MgOTo5iOWJPJ7J5l8oeRvMuoLqV9qI9b0ljUw3MSqVUkjqG/mzV4s2TGKA+x3efTYcsuIn7Up/5V&#xA;T+W3/Vxk/wCkqH/mnLPzmXu+xp/k/B3/AGorSR5f8uy3Hle6uY7jy7qoP1GaSVX4yOoWa3lZaceX&#xA;2kO3feuRnxT9YHqH4tnj4Md4ybhLl+kMV1j8i9ZS7Y6ReQTWbGsYuC0cig9jxVlanj+GZMO0I16h&#xA;u4mTsqV+kimafl7+Wtv5Xdry7mS61aVCoZAQkabcgldzU9WIHh88TU6o5NhtFztHohi3JuTyz80N&#xA;A1vTvM91eaj+9h1CRpba6UEIy9k70ZFoKZsdJkjKAA6Oo1+GcchMurD8ynCdirsVdirsVdirsVdi&#xA;rsVdirsVdiqM0f8A469j/wAxEX/ExkJ/SWeP6h73ax/x177/AJiJf+JnGH0hcn1H3oPJsHYq7FXY&#xA;q7FXYq7FXYq7FXYq7FXYq7FXYq7FU2svNnmexgEFpqt1DAv2YkmcKPkK0H0ZVLDA7kBujqMkRQkX&#xA;WXmvzBaaxFq6X0st/F/u2Z2k5L3RuRNVPhjLDEx4a2WOomJcV7vR/M35p+V9e8l3FpcW0n6UnQBb&#xA;YrVY5h0kWT+Vfv7UzBxaScMlg7Ozz6/HkxEEep5FmzdM7FXYq7FXYq7FXYq7FXYq7FXYq7FUZo//&#xA;AB17H/mIi/4mMhP6Szx/UPemGreXfMD6resumXbK08pVhBIQQXO4+HIQyx4RuG3JhnxH0nn3IX/D&#xA;XmL/AKtV5/0jy/8ANOS8WHeGHgT/AJp+Tv8ADXmL/q1Xn/SPL/zTj4sO8L4E/wCafk7/AA15i/6t&#xA;V5/0jy/804+LDvC+BP8Amn5O/wANeYv+rVef9I8v/NOPiw7wvgT/AJp+Tv8ADXmL/q1Xn/SPL/zT&#xA;j4sO8L4E/wCafk7/AA15i/6tV5/0jy/804+LDvC+BP8Amn5O/wANeYv+rVef9I8v/NOPiw7wvgT/&#xA;AJp+Tv8ADXmL/q1Xn/SPL/zTj4sO8L4E/wCafk7/AA15i/6tV5/0jy/804+LDvC+BP8Amn5O/wAN&#xA;eYv+rVef9I8v/NOPiw7wvgT/AJp+Tv8ADXmL/q1Xn/SPL/zTj4sO8L4E/wCafk7/AA15i/6tV5/0&#xA;jy/804+LDvC+BP8Amn5O/wANeYv+rVef9I8v/NOPiw7wvgT/AJp+Tv8ADXmL/q1Xn/SPL/zTj4sO&#xA;8L4E/wCafk7/AA15i/6tV5/0jy/804+LDvC+BP8Amn5O/wANeYv+rVef9I8v/NOPiw7wvgT/AJp+&#xA;Tv8ADXmL/q1Xn/SPL/zTj4sO8L4E/wCafk7/AA15i/6tV5/0jy/804+LDvC+BP8Amn5O/wANeYv+&#xA;rVef9I8v/NOPiw7wvgT/AJp+Tv8ADXmL/q1Xn/SPL/zTj4sO8L4E/wCafk7/AA15i/6tV5/0jy/8&#xA;04+LDvC+BP8Amn5O/wANeYv+rVef9I8v/NOPiw7wvgT/AJp+Tv8ADXmL/q1Xn/SPL/zTj4sO8L4E&#xA;/wCafk7/AA15i/6tV5/0jy/804+LDvC+BP8Amn5O/wANeYv+rVef9I8v/NOPiw7wvgT/AJp+Tv8A&#xA;DXmL/q1Xn/SPL/zTj4sO8L4E/wCafk7/AA15i/6tV5/0jy/804+LDvC+BP8Amn5O/wANeYv+rVef&#xA;9I8v/NOPiw7wvgT/AJp+Tv8ADXmL/q1Xn/SPL/zTj4sO8L4E/wCafk7/AA15i/6tV5/0jy/804+L&#xA;DvC+BP8Amn5IrSfLvmBNVsmbTLtVWeIsxgkAADjc/DkZ5Y8J3DPHhnxD0nn3Pp/OferdirsVdirs&#xA;VdirsVdirsVdirsVdirsVdirsVdirsVdirsVdirsVdirsVdirsVdirsVdirsVdirsVdirsVdirsV&#xA;dirsVdirsVdirsVdirE/OH5rfl35OuI7bzJrlvYXUi81tjzlm49mMUKyOoPYkb4qi9G/MPyTrfl+&#xA;78w6VrFtd6PYJJLfXUbbQJEhkcyqQHSiDlRh0xVMdA8waN5g0mDV9Fu477TLnn9XuoiSj+m7RvSt&#xA;OjoRiqW+cfzE8k+TYIpvM2rwaaJ6+hHIWeV6dSkUYeRgO5C0xVvyh+YPkvzjbyz+WdXg1NICBOkR&#xA;KyR8q8S8ThZFDUNCV3xVJdY/PT8pNG1eTSNR8zWsN/E/pzRD1JFR+6vJGjxqR3q23fFWZpqNhJp4&#xA;1GO4jewaL6wt2rBojCV5+oHGxXjvXFUp8n+e/KXnKxmvvLOpR6la28voTyRq6cZOIahWRUbow3pi&#xA;rHtX/Pr8o9H1S60rUvMcNtqFlK0F1A0VwSkiGjKSsZGx8DiqcxfmX5Dm8rXPmqDWrefy/Z7XV/ET&#xA;IsZLBKOqAuDVhtxxVX1Pz95N0vy1beZtR1aC00O8ijntLyUlRKkyB4/TQj1GLKa8QtfbFUB5R/Nr&#xA;8uPOF21n5c163vrxAW+q/HFMVXqyxzLG7AdyoNMVZdirsVdirsVdirsVdirsVdirsVdirsVdirsV&#xA;dirsVdirsVdirsVfMH5OadpWua/+a3mzzDosfmXzTpt5OINLuI1mfjGJuFvCkiyBWk9L0VNDQCnz&#xA;VQXljVPKwtfzb0vTfJ155P1iTy1f3mp2NxclolBt2aNEtRHEsQpPyXwBoNjir1f/AJxc/wDJE+Wf&#xA;+j7/ALqFxirBvLGkaR5s/wCcpvOY8128WoS6NaRro2n3irLEkS+kBIsbgqaCTkNurk9d8Va8wabo&#xA;Hk//AJyq8qny6kOlRatp0767Z24WK34CO4JkdFoqVEIc9BVOXjirAI/Jnmnyt5b8wLYaDoX5leQL&#xA;maea58wWjwy38aqo5FbiNjLG8ajmeKSKrVNaHdVm/n38zPLGl/8AOLunL5QSaxtvMCPpVhZzyGWe&#xA;CMSOL1WcksyqqsinwZdsVY7/AM4/+ZPK3k784f8AC+haymq+XvMun2sf1lQ6KNUghq1fVCkc5BKF&#xA;FP21HbFUsTX9Q0H81fzT1SDyTb+crO1vpJb/AOsiNhZxrNKfUCtHKxDb8uI2C1OKony7oIT/AJx1&#xA;/MzzdHJaxW3mi4hlt9IsWJhsVhuw3o8CF9Nh6/Hj/IqnviqYwWln5j/Mz8mPLPmRVm8uReUrC6t7&#xA;CfeCe4azkb4lPwnk0CKVPXjTvirIf+cjPLnl7yv5l/L/AMweWbODSfMR1aO3RLKNYPXhUpXksYAb&#xA;iSE6dHodsVfSOKuxV2KuxV2KuxV2KuxV2KuxV2KuxV2KuxV2KuxV2KuxV2KuxV5N5w/5x8sNV813&#xA;Hmzyx5h1Dyhrt8Cuozac37uetKsyBoyGalW+KhO9OW5Vd5V/5x20DQtM8ypNrGoarrnmrT59M1LW&#xA;rxw8gjuUKMyIerVoauzHbriqR6X/AM4x6rpFhFp+lfmX5j0+wg5ejZ2tw8MKc2LtxjjkVV5MxY0H&#xA;U4qyHzx+QWmeZNV0/wAw6frl/oHm2wgjtm12zb95OsaBA04qrM/HbkHFRsaimKq/5efkVo3lXXLv&#xA;zJquqXnmjzPextBLqmpHlxiYAMqIS9OSjiSzH4dhQVqqxK4/5xRtoG1Cy8v+dNX0Ty1qjs95oULF&#xA;oWVxRkJDxhl4/D8asabEnFWTN/zjx5R/SnlCRbiY6J5NidbDRZVjkilmkdpZJ5nYbu8nFmAFPh7Y&#xA;qmH5gfkn5b81yaNd2bjy/qmhXYvLK+sIIlbkKNxZaKD8aIw+XviqL8m/lTpvljzd5q8yR3sl3L5r&#xA;lE11ayoojj+N3KrSpYH1CN8VYtb/APONmi2Ol+bNE03Wrq00DzXxaTSxHG8dq8cyyo0BO/wgFKHq&#xA;tK14jFUz82fkF5Z8x+VPLmjy3lzZar5Vtbe10jX7UhLlRbxrGCwGxBMYegIIb7JG9VUF5V/5x5s7&#xA;DzVZ+afNfmTUfOGr6YQdLbUG/dQMu6uELSksrfEvxUB3pXfFXrmKuxV2KuxV2KuxV2KuxV2KuxV2&#xA;KuxV2KuxV2KuxV2KuxV2KuxV2KuxV2KuxV2KuxV2KuxV2KuxV2KuxV2KuxV2KuxV2KuxV2KuxV2K&#xA;uxV2KuxV2KuxV2KuxV2KuxV2KuxV2KuxV2KuxV2KuxV2KuxV2KuxV2KuxV2KuxV2KuxV2KuxV2Ku&#xA;xV2KuxV//9k=</xmpGImg:image>
               </rdf:li>
            </rdf:Alt>
         </xmp:Thumbnails>
      </rdf:Description>
      <rdf:Description rdf:about=""
            xmlns:xmpMM="http://ns.adobe.com/xap/1.0/mm/"
            xmlns:stRef="http://ns.adobe.com/xap/1.0/sType/ResourceRef#"
            xmlns:stEvt="http://ns.adobe.com/xap/1.0/sType/ResourceEvent#">
         <xmpMM:InstanceID>xmp.iid:9abfa668-2609-c146-aeb5-945099e7e6e3</xmpMM:InstanceID>
         <xmpMM:DocumentID>xmp.did:9abfa668-2609-c146-aeb5-945099e7e6e3</xmpMM:DocumentID>
         <xmpMM:OriginalDocumentID>uuid:5D20892493BFDB11914A8590D31508C8</xmpMM:OriginalDocumentID>
         <xmpMM:RenditionClass>proof:pdf</xmpMM:RenditionClass>
         <xmpMM:DerivedFrom rdf:parseType="Resource">
            <stRef:instanceID>uuid:ff470bc6-f939-440e-8f31-27b0eb70075c</stRef:instanceID>
            <stRef:documentID>xmp.did:4de20fe2-e96f-dd46-b8bd-1606dc72d06f</stRef:documentID>
            <stRef:originalDocumentID>uuid:5D20892493BFDB11914A8590D31508C8</stRef:originalDocumentID>
            <stRef:renditionClass>proof:pdf</stRef:renditionClass>
         </xmpMM:DerivedFrom>
         <xmpMM:History>
            <rdf:Seq>
               <rdf:li rdf:parseType="Resource">
                  <stEvt:action>saved</stEvt:action>
                  <stEvt:instanceID>xmp.iid:9abfa668-2609-c146-aeb5-945099e7e6e3</stEvt:instanceID>
                  <stEvt:when>2017-04-11T01:59:07-05:00</stEvt:when>
                  <stEvt:softwareAgent>Adobe Illustrator CC (Windows)</stEvt:softwareAgent>
                  <stEvt:changed>/</stEvt:changed>
               </rdf:li>
            </rdf:Seq>
         </xmpMM:History>
      </rdf:Description>
      <rdf:Description rdf:about=""
            xmlns:illustrator="http://ns.adobe.com/illustrator/1.0/">
         <illustrator:StartupProfile>Print</illustrator:StartupProfile>
      </rdf:Description>
      <rdf:Description rdf:about=""
            xmlns:xmpTPg="http://ns.adobe.com/xap/1.0/t/pg/"
            xmlns:stDim="http://ns.adobe.com/xap/1.0/sType/Dimensions#"
            xmlns:xmpG="http://ns.adobe.com/xap/1.0/g/">
         <xmpTPg:HasVisibleOverprint>False</xmpTPg:HasVisibleOverprint>
         <xmpTPg:HasVisibleTransparency>True</xmpTPg:HasVisibleTransparency>
         <xmpTPg:NPages>1</xmpTPg:NPages>
         <xmpTPg:MaxPageSize rdf:parseType="Resource">
            <stDim:w>5.492981</stDim:w>
            <stDim:h>2.619513</stDim:h>
            <stDim:unit>Centimeters</stDim:unit>
         </xmpTPg:MaxPageSize>
         <xmpTPg:PlateNames>
            <rdf:Seq>
               <rdf:li>Cyan</rdf:li>
               <rdf:li>Magenta</rdf:li>
               <rdf:li>Yellow</rdf:li>
               <rdf:li>Black</rdf:li>
            </rdf:Seq>
         </xmpTPg:PlateNames>
         <xmpTPg:SwatchGroups>
            <rdf:Seq>
               <rdf:li rdf:parseType="Resource">
                  <xmpG:groupName>Default Swatch Group</xmpG:groupName>
                  <xmpG:groupType>0</xmpG:groupType>
               </rdf:li>
            </rdf:Seq>
         </xmpTPg:SwatchGroups>
      </rdf:Description>
      <rdf:Description rdf:about=""
            xmlns:pdf="http://ns.adobe.com/pdf/1.3/">
         <pdf:Producer>Adobe PDF library 10.01</pdf:Producer>
      </rdf:Description>
   </rdf:RDF>
</x:xmpmeta>
                                                                                                    
                                                                                                    
                                                                                                    
                                                                                                    
                                                                                                    
                                                                                                    
                                                                                                    
                                                                                                    
                                                                                                    
                                                                                                    
                                                                                                    
                                                                                                    
                                                                                                    
                                                                                                    
                                                                                                    
                                                                                                    
                                                                                                    
                                                                                                    
                                                                                                    
                                                                                                    
                           
<?xpacket end="w"?>
	</metadata>
<g>
	<rect id="XMLID_54_" x="0.397" opacity="0.5" fill="#FFFFFF" enable-background="new    " width="154.914" height="74.254"/>
	<rect id="XMLID_51_" x="0.397" fill="#3B86B1" width="154.914" height="48.154"/>
	<rect id="XMLID_50_" y="57.455" fill="none" width="155.707" height="13.102"/>
	<g enable-background="new    ">
		<path d="M52.981,62.437v-1.327h3.427v3.137c-0.333,0.322-0.815,0.606-1.448,0.852c-0.632,0.245-1.272,0.368-1.92,0.368
			c-0.824,0-1.542-0.173-2.154-0.519s-1.072-0.84-1.38-1.482s-0.462-1.342-0.462-2.098c0-0.82,0.172-1.549,0.516-2.187
			c0.344-0.637,0.847-1.126,1.509-1.466c0.505-0.262,1.133-0.392,1.885-0.392c0.978,0,1.741,0.204,2.291,0.614
			c0.549,0.41,0.903,0.977,1.061,1.7l-1.579,0.295c-0.111-0.387-0.319-0.691-0.626-0.915c-0.306-0.224-0.688-0.336-1.146-0.336
			c-0.695,0-1.247,0.22-1.657,0.661c-0.41,0.439-0.615,1.094-0.615,1.96c0,0.935,0.208,1.636,0.623,2.103
			c0.416,0.468,0.959,0.701,1.633,0.701c0.333,0,0.667-0.065,1.001-0.196c0.335-0.131,0.623-0.289,0.862-0.476v-0.998H52.981z"/>
		<path d="M57.917,65.331v-7.81h1.59v6.483h3.953v1.326H57.917z"/>
		<path d="M64.271,61.442c0-0.802,0.12-1.476,0.36-2.02c0.179-0.401,0.423-0.761,0.733-1.08c0.31-0.318,0.649-0.555,1.018-0.709
			c0.491-0.207,1.056-0.311,1.697-0.311c1.16,0,2.088,0.359,2.785,1.079c0.696,0.72,1.044,1.721,1.044,3.003
			c0,1.271-0.346,2.266-1.037,2.983s-1.615,1.077-2.771,1.077c-1.171,0-2.102-0.357-2.793-1.072
			C64.617,63.68,64.271,62.695,64.271,61.442z M65.91,61.389c0,0.892,0.206,1.567,0.618,2.027s0.935,0.69,1.568,0.69
			s1.154-0.229,1.56-0.685c0.407-0.457,0.61-1.142,0.61-2.055c0-0.902-0.198-1.575-0.593-2.02c-0.396-0.444-0.921-0.666-1.577-0.666
			s-1.184,0.225-1.584,0.674S65.91,60.482,65.91,61.389z"/>
		<path d="M72.747,62.769l1.547-0.15c0.093,0.52,0.282,0.901,0.566,1.145c0.285,0.243,0.669,0.365,1.152,0.365
			c0.512,0,0.898-0.108,1.157-0.325c0.26-0.217,0.39-0.47,0.39-0.76c0-0.187-0.055-0.345-0.164-0.476
			c-0.109-0.131-0.3-0.244-0.572-0.341c-0.186-0.064-0.61-0.179-1.273-0.344c-0.852-0.211-1.45-0.471-1.794-0.778
			c-0.483-0.434-0.725-0.962-0.725-1.585c0-0.401,0.114-0.776,0.341-1.125c0.227-0.35,0.555-0.615,0.982-0.798
			c0.428-0.183,0.945-0.273,1.55-0.273c0.988,0,1.732,0.216,2.231,0.649c0.5,0.434,0.762,1.012,0.787,1.735l-1.589,0.069
			c-0.068-0.404-0.214-0.695-0.438-0.873c-0.224-0.177-0.56-0.266-1.007-0.266c-0.462,0-0.824,0.095-1.085,0.284
			c-0.168,0.122-0.252,0.285-0.252,0.489c0,0.187,0.079,0.346,0.236,0.478c0.201,0.169,0.688,0.344,1.461,0.527
			c0.773,0.182,1.346,0.371,1.716,0.566c0.371,0.195,0.662,0.462,0.871,0.8c0.209,0.339,0.314,0.757,0.314,1.255
			c0,0.451-0.126,0.873-0.377,1.268c-0.25,0.394-0.604,0.687-1.063,0.878s-1.029,0.287-1.713,0.287c-0.996,0-1.76-0.23-2.293-0.69
			S72.851,63.649,72.747,62.769z"/>
		<path d="M87.587,65.331h-1.729l-0.688-1.789h-3.147l-0.65,1.789h-1.686l3.066-7.874h1.682L87.587,65.331z M84.66,62.216
			l-1.084-2.922l-1.064,2.922H84.66z"/>
		<path d="M88.436,65.331v-7.874h3.347c0.841,0,1.452,0.07,1.834,0.212c0.381,0.142,0.687,0.394,0.916,0.755
			c0.229,0.361,0.344,0.775,0.344,1.241c0,0.59-0.174,1.078-0.521,1.463s-0.867,0.628-1.558,0.729c0.344,0.2,0.628,0.42,0.852,0.66
			s0.525,0.666,0.905,1.278l0.961,1.536h-1.901l-1.149-1.713c-0.408-0.613-0.688-0.999-0.838-1.158s-0.31-0.269-0.479-0.327
			c-0.168-0.06-0.435-0.089-0.8-0.089h-0.322v3.287H88.436z M90.026,60.787h1.177c0.762,0,1.238-0.032,1.428-0.097
			c0.19-0.064,0.339-0.176,0.446-0.333s0.161-0.354,0.161-0.591c0-0.265-0.07-0.479-0.212-0.642s-0.341-0.267-0.599-0.31
			c-0.129-0.018-0.516-0.026-1.16-0.026h-1.241V60.787z"/>
		<path d="M96.326,65.331v-7.874h1.59v7.874H96.326z"/>
		<path d="M99.109,61.442c0-0.802,0.119-1.476,0.359-2.02c0.18-0.401,0.424-0.761,0.733-1.08c0.31-0.318,0.649-0.555,1.018-0.709
			c0.491-0.207,1.056-0.311,1.697-0.311c1.16,0,2.089,0.359,2.785,1.079s1.044,1.721,1.044,3.003c0,1.271-0.346,2.266-1.036,2.983
			s-1.614,1.077-2.771,1.077c-1.171,0-2.103-0.357-2.793-1.072C99.455,63.68,99.109,62.695,99.109,61.442z M100.747,61.389
			c0,0.892,0.206,1.567,0.618,2.027c0.411,0.46,0.934,0.69,1.568,0.69c0.633,0,1.153-0.229,1.56-0.685
			c0.407-0.457,0.61-1.142,0.61-2.055c0-0.902-0.198-1.575-0.594-2.02c-0.396-0.444-0.922-0.666-1.576-0.666
			c-0.656,0-1.184,0.225-1.585,0.674S100.747,60.482,100.747,61.389z"/>
	</g>
	<g id="XMLID_25_">
		<path id="XMLID_45_" fill="#FFFFFF" d="M91.132,39.693l-3.416-3.423c0.715-1.129,1.135-2.463,1.135-3.898
			c0-4.013-3.271-7.285-7.285-7.285c-4.015,0-7.286,3.272-7.286,7.285c0,4.021,3.272,7.286,7.286,7.286
			c1.428,0,2.768-0.422,3.891-1.135l3.422,3.422c0.311,0.311,0.722,0.47,1.129,0.47c0.404,0,0.813-0.159,1.123-0.47
			C91.759,41.32,91.759,40.312,91.132,39.693L91.132,39.693z M81.566,37.381c-2.762,0-5.009-2.247-5.009-5.009
			c0-2.761,2.247-5.008,5.009-5.008s5.008,2.247,5.008,5.008C86.574,35.134,84.328,37.381,81.566,37.381L81.566,37.381z"/>
		<path id="XMLID_42_" fill="#FFFFFF" d="M75.621,26.404h-8.643c-0.292,0-0.526,0.234-0.526,0.527v0.526
			c0,0.288,0.234,0.521,0.526,0.521h7.409C74.737,27.405,75.146,26.879,75.621,26.404L75.621,26.404z"/>
		<path id="XMLID_38_" fill="#FFFFFF" d="M70.636,11.191h6.852c0.86,0,1.562-0.703,1.562-1.562v-0.03
			c0-0.86-0.703-1.556-1.562-1.556H76.68c-0.433,0-0.779-0.351-0.779-0.783V7.23c0-1.001-0.813-1.814-1.819-1.814H74.04
			c-1.001,0-1.814,0.813-1.814,1.814v0.03c0,0.433-0.351,0.783-0.783,0.783h-0.807c-0.86,0-1.556,0.697-1.556,1.556v0.03
			C69.079,10.488,69.776,11.191,70.636,11.191L70.636,11.191z M74.065,6.463c0.433,0,0.783,0.357,0.783,0.789
			c0,0.433-0.351,0.789-0.783,0.789c-0.439,0-0.791-0.357-0.791-0.789S73.626,6.463,74.065,6.463L74.065,6.463z"/>
		<path id="XMLID_35_" fill="#FFFFFF" d="M66.978,31.126c-0.292,0-0.526,0.241-0.526,0.527v0.527c0,0.286,0.234,0.526,0.526,0.526
			h6.173c-0.005-0.111-0.017-0.222-0.017-0.328c0-0.427,0.04-0.842,0.099-1.252H66.978z"/>
		<path id="XMLID_32_" fill="#FFFFFF" d="M81.671,23.257V22.73c0-0.286-0.234-0.521-0.527-0.521H66.978
			c-0.292,0-0.526,0.235-0.526,0.521v0.527c0,0.292,0.234,0.526,0.526,0.526h14.166C81.438,23.783,81.671,23.549,81.671,23.257
			L81.671,23.257z"/>
		<path id="XMLID_29_" fill="#FFFFFF" d="M64.878,35.849v-20.99h18.368v9.251c0.942,0.193,1.825,0.55,2.621,1.023V11.67
			c0-1.019-0.824-1.843-1.838-1.843h-3.955c-0.117,1.357-1.224,2.41-2.587,2.41h-6.852c-1.363,0-2.47-1.053-2.587-2.382h-3.955
			c-1.019,0-1.838,0.819-1.838,1.838v24.938c0,1.02,0.825,1.844,1.838,1.844h11.668c-0.779-0.742-1.417-1.633-1.873-2.626
			L64.878,35.849L64.878,35.849z"/>
		<path id="XMLID_26_" fill="#FFFFFF" d="M81.671,18.008c0-0.288-0.234-0.521-0.527-0.521H66.978c-0.292,0-0.526,0.234-0.526,0.521
			v0.526c0,0.294,0.234,0.527,0.526,0.527h14.166c0.294,0,0.527-0.234,0.527-0.527V18.008z"/>
	</g>
</g>
</svg>
