<?xml version="1.0" encoding="utf-8"?>
<!-- Generator: Adobe Illustrator 17.0.0, SVG Export Plug-In . SVG Version: 6.00 Build 0)  -->
<!DOCTYPE svg PUBLIC "-//W3C//DTD SVG 1.1//EN" "http://www.w3.org/Graphics/SVG/1.1/DTD/svg11.dtd">
<svg version="1.1" id="Capa_1" xmlns="http://www.w3.org/2000/svg" xmlns:xlink="http://www.w3.org/1999/xlink" x="0px" y="0px"
	 width="513.726px" height="449.777px" viewBox="0 0 513.726 449.777" style="enable-background:new 0 0 513.726 449.777;"
	 xml:space="preserve">
<g style="opacity:0.8;">
	<defs>
		<rect id="SVGID_1_" x="0" y="0" style="opacity:0.8;" width="513.726" height="449.777"/>
	</defs>
	<clipPath id="SVGID_2_">
		<use xlink:href="#SVGID_1_"  style="overflow:visible;"/>
	</clipPath>
	<g style="clip-path:url(#SVGID_2_);">
		<g style="opacity:0.07;">
			<g>
				<polygon style="fill:#6FC2D8;" points="420.528,97.443 385.913,97.443 385.913,95.584 419.678,95.584 448.121,69.974 
					511.526,69.974 523.681,59.399 578.673,59.399 611.053,87.747 609.548,89.03 577.789,61.29 524.532,61.29 512.412,71.9 
					449.048,71.9 				"/>
			</g>
			<g>
				<polygon style="fill:#6FC2D8;" points="608.894,135.961 550.926,135.961 510.097,100.28 468.612,100.28 429.789,134.237 
					295.685,134.237 264.35,106.769 219.93,106.769 219.93,104.943 265.235,104.943 296.61,132.346 428.939,132.346 467.725,98.39 
					510.985,98.39 551.814,134.068 608.894,134.068 				"/>
			</g>
			<g>
				<polygon style="fill:#6FC2D8;" points="300.857,160.728 209.859,160.728 193.845,146.706 128.045,146.706 128.045,144.847 
					194.73,144.847 210.745,158.869 299.969,158.869 354.651,110.992 438.162,110.992 476.178,77.711 577.249,77.711 
					594.226,92.544 611.015,92.544 611.015,94.437 593.34,94.437 576.359,79.569 477.102,79.569 439.05,112.885 355.539,112.885 
									"/>
			</g>
			<g>
				<polygon style="fill:#6FC2D8;" points="491.342,273.002 454.217,273.002 416.09,239.62 367.657,239.62 260.105,145.489 
					220.665,145.489 220.665,143.597 260.992,143.597 368.506,237.763 416.978,237.763 455.107,271.109 491.342,271.109 				"/>
			</g>
			<g>
				<polygon style="fill:#6FC2D8;" points="537.074,168.566 482.97,168.566 461.241,149.543 342.456,149.543 342.456,145.792 
					462.978,145.792 484.744,164.816 535.336,164.816 562.929,140.623 611.015,140.623 611.015,144.374 564.706,144.374 				"/>
			</g>
			<g>
				<polygon style="fill:#6FC2D8;" points="442.601,203.469 356.698,203.469 356.698,201.61 441.754,201.61 468.459,178.195 
					561.425,178.195 578.673,163.093 614.563,163.093 614.563,164.949 579.562,164.949 562.312,180.088 469.306,180.088 				"/>
			</g>
			<g>
				<polygon style="fill:#6FC2D8;" points="503.614,238.032 465.603,238.032 384.331,166.809 331.728,166.809 292.751,200.968 
					164.9,200.968 143.172,219.99 112.378,219.99 112.378,216.24 141.399,216.24 163.123,197.251 290.976,197.251 329.994,163.093 
					386.065,163.093 467.337,234.248 501.837,234.248 519.244,219.044 613.831,219.044 613.831,222.76 521.02,222.76 				"/>
			</g>
			<g>
				<polygon style="fill:#6FC2D8;" points="454.487,229.045 314.132,229.045 249.683,172.586 175.048,172.586 175.048,168.836 
					251.421,168.836 315.907,225.295 452.674,225.295 482.814,198.941 611.015,198.941 611.015,202.725 484.551,202.725 				"/>
			</g>
			<g>
				<polygon style="fill:#6FC2D8;" points="159.806,242.154 112.378,242.154 112.378,240.297 158.957,240.297 190.64,212.489 
					281.907,212.489 281.907,214.382 191.527,214.382 				"/>
			</g>
			<g>
				<polygon style="fill:#6FC2D8;" points="580.101,318.852 416.821,318.852 370.514,278.34 287.157,278.34 254.392,249.621 
					221.319,249.621 221.319,247.764 255.28,247.764 288.044,276.414 371.401,276.414 417.673,316.96 579.216,316.96 
					608.43,291.417 618.81,291.417 618.81,293.275 609.317,293.275 				"/>
			</g>
			<g>
				<polygon style="fill:#6FC2D8;" points="553.052,368.757 415.394,368.757 401.116,356.255 326.325,356.255 228.768,270.84 
					97.134,270.84 77.489,288.038 75.985,286.687 96.245,268.947 229.616,268.947 327.214,354.397 402.043,354.397 416.244,366.864 
					552.125,366.864 562.852,357.505 616.689,357.505 616.689,359.398 563.741,359.398 				"/>
			</g>
			<g>
				<polygon style="fill:#6FC2D8;" points="306.528,289.558 193.571,289.558 193.571,287.666 305.681,287.666 346.974,251.48 
					495.164,251.48 542.165,210.36 614.563,210.36 614.563,212.185 543.054,212.185 496.049,253.372 347.86,253.372 				"/>
			</g>
			<g>
				<path style="fill:#6FC2D8;" d="M390.196,96.498c0,2.095-1.892,3.782-4.283,3.782c-2.355,0-4.285-1.688-4.285-3.782
					c0-2.062,1.93-3.718,4.285-3.718C388.305,92.78,390.196,94.437,390.196,96.498z"/>
			</g>
			<g>
				<path style="fill:#6FC2D8;" d="M224.214,106.16c0,2.062-1.929,3.751-4.284,3.751c-2.355,0-4.284-1.689-4.284-3.751
					c0-2.026,1.93-3.716,4.284-3.716C222.285,102.444,224.214,104.134,224.214,106.16z"/>
			</g>
			<g>
				<path style="fill:#6FC2D8;" d="M225.643,145.489c0,2.062-1.931,3.716-4.323,3.716c-2.354,0-4.283-1.654-4.283-3.716
					c0-2.096,1.93-3.751,4.283-3.751C223.712,141.738,225.643,143.394,225.643,145.489z"/>
			</g>
			<g>
				<path style="fill:#6FC2D8;" d="M117.356,241.209c0,2.062-1.93,3.75-4.284,3.75c-2.355,0-4.282-1.688-4.282-3.75
					c0-2.061,1.927-3.718,4.282-3.718C115.426,237.491,117.356,239.148,117.356,241.209z"/>
			</g>
			<g>
				<path style="fill:#6FC2D8;" d="M286.154,213.435c0,2.095-1.929,3.751-4.247,3.751c-2.392,0-4.284-1.656-4.284-3.751
					c0-2.06,1.893-3.783,4.284-3.783C284.226,209.651,286.154,211.375,286.154,213.435z"/>
			</g>
			<g>
				<path style="fill:#6FC2D8;" d="M226.298,248.405c0,2.061-1.852,3.683-4.243,3.683c-2.355,0-4.247-1.622-4.247-3.683
					c0-2.095,1.892-3.784,4.247-3.784C224.446,244.621,226.298,246.311,226.298,248.405z"/>
			</g>
			<g>
				<path style="fill:#6FC2D8;" d="M234.173,270.84c0,2.061-1.93,3.717-4.247,3.717c-2.393,0-4.283-1.655-4.283-3.717
					c0-2.061,1.891-3.75,4.283-3.75C232.243,267.09,234.173,268.779,234.173,270.84z"/>
			</g>
			<g>
				<path style="fill:#6FC2D8;" d="M419.563,238.1c0,2.062-1.93,3.718-4.284,3.718c-2.354,0-4.246-1.656-4.246-3.718
					c0-2.095,1.892-3.75,4.246-3.75C417.633,234.35,419.563,236.005,419.563,238.1z"/>
			</g>
			<g>
				<path style="fill:#6FC2D8;" d="M473.011,178.195c0,2.061-1.93,3.75-4.283,3.75c-2.393,0-4.285-1.689-4.285-3.75
					c0-2.062,1.893-3.717,4.285-3.717C471.081,174.479,473.011,176.134,473.011,178.195z"/>
			</g>
			<g>
				<path style="fill:#6FC2D8;" d="M300.394,133.292c0,2.094-1.891,3.75-4.246,3.75c-2.393,0-4.244-1.656-4.244-3.75
					c0-2.062,1.852-3.751,4.244-3.751C298.503,129.541,300.394,131.231,300.394,133.292z"/>
			</g>
			<g>
				<path style="fill:#6FC2D8;" d="M361.289,201.913c0,2.062-1.891,3.751-4.206,3.751c-2.392,0-4.281-1.689-4.281-3.751
					c0-2.059,1.889-3.749,4.281-3.749C359.399,198.164,361.289,199.854,361.289,201.913z"/>
			</g>
			<g>
				<path style="fill:#6FC2D8;" d="M375.725,277.192c0,2.095-1.892,3.784-4.247,3.784c-2.316,0-4.245-1.689-4.245-3.784
					c0-2.027,1.93-3.717,4.245-3.717C373.832,273.476,375.725,275.165,375.725,277.192z"/>
			</g>
			<g>
				<path style="fill:#6FC2D8;" d="M421.53,316.96c0,2.061-1.93,3.751-4.284,3.751s-4.284-1.69-4.284-3.751s1.93-3.751,4.284-3.751
					S421.53,314.899,421.53,316.96z"/>
			</g>
			<g>
				<path style="fill:#6FC2D8;" d="M79.96,287.666c0,2.095-1.931,3.751-4.285,3.751c-2.352,0-4.28-1.656-4.28-3.751
					c0-2.061,1.929-3.75,4.28-3.75C78.029,283.916,79.96,285.606,79.96,287.666z"/>
			</g>
			<g>
				<path style="fill:#6FC2D8;" d="M198.55,288.275c0,2.095-1.929,3.751-4.284,3.751c-2.351,0-4.242-1.656-4.242-3.751
					c0-2.027,1.892-3.75,4.242-3.75C196.621,284.525,198.55,286.247,198.55,288.275z"/>
			</g>
			<g>
				<path style="fill:#6FC2D8;" d="M492.771,271.109c0,2.129-1.93,3.751-4.283,3.751c-2.394,0-4.284-1.622-4.284-3.751
					c0-1.993,1.891-3.716,4.284-3.716C490.841,267.394,492.771,269.116,492.771,271.109z"/>
			</g>
			<g>
				<path style="fill:#6FC2D8;" d="M583.73,163.868c0,2.061-1.893,3.718-4.284,3.718c-2.315,0-4.244-1.656-4.244-3.718
					c0-2.06,1.929-3.749,4.244-3.749C581.837,160.119,583.73,161.809,583.73,163.868z"/>
			</g>
			<g>
				<path style="fill:#6FC2D8;" d="M351.718,252.46c0,2.095-1.929,3.749-4.279,3.749c-2.356,0-4.285-1.654-4.285-3.749
					c0-2.062,1.929-3.718,4.285-3.718C349.789,248.742,351.718,250.399,351.718,252.46z"/>
			</g>
			<g>
				<path style="fill:#6FC2D8;" d="M359.399,111.904c0,2.095-1.968,3.751-4.284,3.751c-2.39,0-4.318-1.656-4.318-3.751
					c0-2.062,1.929-3.716,4.318-3.716C357.431,108.189,359.399,109.843,359.399,111.904z"/>
			</g>
			<g>
				<path style="fill:#6FC2D8;" d="M453.447,71.258c0,2.062-1.93,3.716-4.323,3.716c-2.354,0-4.285-1.654-4.285-3.716
					c0-2.062,1.931-3.751,4.285-3.751C451.518,67.507,453.447,69.196,453.447,71.258z"/>
			</g>
			<g>
				<path style="fill:#6FC2D8;" d="M528.467,60.276c0,2.062-1.929,3.718-4.285,3.718c-2.311,0-4.242-1.656-4.242-3.718
					c0-2.094,1.931-3.749,4.242-3.749C526.538,56.527,528.467,58.183,528.467,60.276z"/>
			</g>
			<g>
				<path style="fill:#6FC2D8;" d="M582.493,60.276c0,2.062-1.928,3.718-4.279,3.718c-2.356,0-4.247-1.656-4.247-3.718
					c0-2.094,1.892-3.749,4.247-3.749C580.566,56.527,582.493,58.183,582.493,60.276z"/>
			</g>
			<g>
				<path style="fill:#6FC2D8;" d="M581.451,78.049c0,2.027-1.929,3.751-4.283,3.751c-2.352,0-4.281-1.724-4.281-3.751
					c0-2.095,1.93-3.75,4.281-3.75C579.523,74.299,581.451,75.954,581.451,78.049z"/>
			</g>
			<g>
				<path style="fill:#6FC2D8;" d="M514.419,99.571c0,2.028-1.968,3.683-4.322,3.683c-2.352,0-4.242-1.654-4.242-3.683
					c0-2.095,1.891-3.784,4.242-3.784C512.451,95.787,514.419,97.477,514.419,99.571z"/>
			</g>
			<g>
				<path style="fill:#6FC2D8;" d="M433.649,133.292c0,2.094-1.931,3.75-4.283,3.75c-2.354,0-4.285-1.656-4.285-3.75
					c0-2.062,1.931-3.751,4.285-3.751C431.718,129.541,433.649,131.231,433.649,133.292z"/>
			</g>
			<g>
				<path style="fill:#6FC2D8;" d="M133.408,145.792c0,2.062-1.93,3.751-4.284,3.751c-2.392,0-4.281-1.689-4.281-3.751
					c0-2.06,1.89-3.749,4.281-3.749C131.479,142.043,133.408,143.733,133.408,145.792z"/>
			</g>
			<g>
				<path style="fill:#6FC2D8;" d="M181.455,170.729c0,2.938-2.699,5.305-6.058,5.305c-3.358,0-6.062-2.366-6.062-5.305
					c0-2.906,2.703-5.305,6.062-5.305C178.756,165.424,181.455,167.822,181.455,170.729z"/>
			</g>
			<g>
				<path style="fill:#6FC2D8;" d="M348.941,147.787c0,2.904-2.702,5.305-6.06,5.305c-3.32,0-6.058-2.4-6.058-5.305
					c0-2.906,2.737-5.271,6.058-5.271C346.239,142.516,348.941,144.881,348.941,147.787z"/>
			</g>
			<g>
				<path style="fill:#6FC2D8;" d="M468.612,148.057c0,2.906-2.703,5.271-6.056,5.271c-3.32,0-6.023-2.365-6.023-5.271
					c0-2.974,2.703-5.338,6.023-5.338C465.909,142.719,468.612,145.083,468.612,148.057z"/>
			</g>
			<g>
				<path style="fill:#6FC2D8;" d="M117.703,218.436c0,2.94-2.742,5.271-6.062,5.271c-3.315,0-6.058-2.331-6.058-5.271
					c0-2.906,2.742-5.271,6.058-5.271C114.961,213.165,117.703,215.529,117.703,218.436z"/>
			</g>
		</g>
		<g style="opacity:0.2;">
			<g>
				<polygon style="fill:#6FC2D8;" points="400.886,127.412 375.299,127.412 375.299,126.062 400.266,126.062 421.302,107.141 
					468.189,107.141 477.143,99.302 517.855,99.302 541.783,120.249 540.7,121.23 517.198,100.687 477.837,100.687 468.843,108.525 
					421.956,108.525 				"/>
			</g>
			<g>
				<polygon style="fill:#6FC2D8;" points="540.198,155.896 497.323,155.896 467.146,129.541 436.466,129.541 407.755,154.646 
					308.575,154.646 285.381,134.373 252.539,134.373 252.539,132.953 286.037,132.953 309.231,153.259 407.095,153.259 
					435.808,128.122 467.802,128.122 497.978,154.51 540.198,154.51 				"/>
			</g>
			<g>
				<polygon style="fill:#6FC2D8;" points="312.397,174.242 245.054,174.242 233.245,163.868 184.579,163.868 184.579,162.484 
					233.9,162.484 245.747,172.858 311.738,172.858 352.181,137.447 413.927,137.447 442.06,112.851 516.812,112.851 
					529.356,123.831 541.783,123.831 541.783,125.217 528.7,125.217 516.157,114.235 442.719,114.235 414.585,138.833 
					352.802,138.833 				"/>
			</g>
			<g>
				<polygon style="fill:#6FC2D8;" points="453.251,257.257 425.815,257.257 397.606,232.592 361.792,232.592 282.215,162.957 
					253.079,162.957 253.079,161.572 282.913,161.572 362.407,231.207 398.298,231.207 426.47,255.872 453.251,255.872 				"/>
			</g>
			<g>
				<polygon style="fill:#6FC2D8;" points="487.099,180.053 447.079,180.053 430.987,165.964 343.153,165.964 343.153,163.193 
					432.297,163.193 448.39,177.249 485.822,177.249 506.199,159.375 541.783,159.375 541.783,162.112 507.549,162.112 				"/>
			</g>
			<g>
				<polygon style="fill:#6FC2D8;" points="417.246,205.867 353.687,205.867 353.687,204.482 416.592,204.482 436.351,187.149 
					505.08,187.149 517.855,175.998 544.404,175.998 544.404,177.351 518.513,177.351 505.735,188.567 436.969,188.567 				"/>
			</g>
			<g>
				<polygon style="fill:#6FC2D8;" points="462.323,231.41 434.226,231.41 374.101,178.735 335.242,178.735 306.376,204.009 
					211.826,204.009 195.775,218.064 172.966,218.064 172.966,215.293 194.423,215.293 210.514,201.238 305.103,201.238 
					333.892,175.998 375.414,175.998 435.541,228.607 461.008,228.607 473.9,217.355 543.866,217.355 543.866,220.125 
					475.212,220.125 				"/>
			</g>
			<g>
				<polygon style="fill:#6FC2D8;" points="426.007,224.755 322.198,224.755 274.539,183.026 219.313,183.026 219.313,180.222 
					275.849,180.222 323.507,222.018 424.657,222.018 446.924,202.522 541.783,202.522 541.783,205.259 448.236,205.259 				"/>
			</g>
			<g>
				<polygon style="fill:#6FC2D8;" points="208.083,234.451 172.966,234.451 172.966,233.1 207.428,233.1 230.854,212.557 
					298.35,212.557 298.35,213.942 231.508,213.942 				"/>
			</g>
			<g>
				<polygon style="fill:#6FC2D8;" points="518.896,291.181 398.146,291.181 363.915,261.211 302.247,261.211 278.05,239.992 
					253.543,239.992 253.543,238.608 278.667,238.608 302.901,259.824 364.532,259.824 398.8,289.794 518.24,289.794 
					539.854,270.873 547.53,270.873 547.53,272.293 540.508,272.293 				"/>
			</g>
			<g>
				<polygon style="fill:#6FC2D8;" points="498.905,328.075 397.066,328.075 386.566,318.852 331.226,318.852 259.062,255.67 
					161.733,255.67 147.187,268.407 146.066,267.394 161.04,254.283 259.717,254.283 331.885,317.466 387.225,317.466 
					397.72,326.691 498.212,326.691 506.122,319.798 545.985,319.798 545.985,321.184 506.82,321.184 				"/>
			</g>
			<g>
				<polygon style="fill:#6FC2D8;" points="316.601,269.523 233.013,269.523 233.013,268.138 315.946,268.138 346.512,241.378 
					456.069,241.378 490.841,210.936 544.404,210.936 544.404,212.286 491.498,212.286 456.767,242.763 347.165,242.763 				"/>
			</g>
			<g>
				<path style="fill:#6FC2D8;" d="M378.461,126.737c0,1.554-1.424,2.804-3.162,2.804c-1.738,0-3.166-1.25-3.166-2.804
					c0-1.521,1.428-2.737,3.166-2.737C377.037,124,378.461,125.217,378.461,126.737z"/>
			</g>
			<g>
				<path style="fill:#6FC2D8;" d="M255.705,133.865c0,1.556-1.428,2.77-3.166,2.77c-1.772,0-3.162-1.215-3.162-2.77
					c0-1.52,1.39-2.771,3.162-2.771C254.277,131.095,255.705,132.346,255.705,133.865z"/>
			</g>
			<g>
				<path style="fill:#6FC2D8;" d="M256.745,162.957c0,1.52-1.427,2.77-3.202,2.77c-1.696,0-3.164-1.251-3.164-2.77
					c0-1.521,1.468-2.771,3.164-2.771C255.318,160.187,256.745,161.437,256.745,162.957z"/>
			</g>
			<g>
				<path style="fill:#6FC2D8;" d="M176.668,233.775c0,1.52-1.388,2.737-3.161,2.737c-1.738,0-3.167-1.217-3.167-2.737
					c0-1.554,1.429-2.771,3.167-2.771C175.28,231.005,176.668,232.222,176.668,233.775z"/>
			</g>
			<g>
				<path style="fill:#6FC2D8;" d="M301.512,213.233c0,1.521-1.427,2.771-3.162,2.771c-1.776,0-3.167-1.249-3.167-2.771
					c0-1.555,1.391-2.805,3.167-2.805C300.085,210.428,301.512,211.678,301.512,213.233z"/>
			</g>
			<g>
				<path style="fill:#6FC2D8;" d="M257.247,239.08c0,1.52-1.389,2.737-3.161,2.737c-1.739,0-3.127-1.217-3.127-2.737
					c0-1.554,1.388-2.805,3.127-2.805C255.858,236.275,257.247,237.526,257.247,239.08z"/>
			</g>
			<g>
				<path style="fill:#6FC2D8;" d="M263.076,255.67c0,1.52-1.468,2.736-3.164,2.736c-1.736,0-3.167-1.217-3.167-2.736
					c0-1.52,1.431-2.77,3.167-2.77C261.608,252.9,263.076,254.15,263.076,255.67z"/>
			</g>
			<g>
				<path style="fill:#6FC2D8;" d="M400.19,231.444c0,1.554-1.427,2.77-3.163,2.77c-1.737,0-3.166-1.217-3.166-2.77
					c0-1.487,1.429-2.737,3.166-2.737C398.763,228.707,400.19,229.957,400.19,231.444z"/>
			</g>
			<g>
				<path style="fill:#6FC2D8;" d="M439.709,187.149c0,1.555-1.469,2.805-3.166,2.805c-1.776,0-3.165-1.25-3.165-2.805
					c0-1.486,1.389-2.736,3.165-2.736C438.24,184.412,439.709,185.662,439.709,187.149z"/>
			</g>
			<g>
				<path style="fill:#6FC2D8;" d="M312.048,153.937c0,1.554-1.428,2.771-3.127,2.771c-1.773,0-3.201-1.217-3.201-2.771
					c0-1.487,1.428-2.737,3.201-2.737C310.62,151.199,312.048,152.449,312.048,153.937z"/>
			</g>
			<g>
				<path style="fill:#6FC2D8;" d="M357.083,204.718c0,1.521-1.387,2.736-3.164,2.736c-1.699,0-3.123-1.215-3.123-2.736
					c0-1.554,1.424-2.805,3.123-2.805C355.696,201.913,357.083,203.164,357.083,204.718z"/>
			</g>
			<g>
				<path style="fill:#6FC2D8;" d="M367.733,260.4c0,1.521-1.387,2.771-3.123,2.771c-1.701,0-3.169-1.25-3.169-2.771
					c0-1.554,1.468-2.804,3.169-2.804C366.347,257.596,367.733,258.846,367.733,260.4z"/>
			</g>
			<g>
				<path style="fill:#6FC2D8;" d="M401.617,289.794c0,1.556-1.39,2.771-3.162,2.771c-1.739,0-3.166-1.215-3.166-2.771
					c0-1.52,1.427-2.736,3.166-2.736C400.228,287.058,401.617,288.275,401.617,289.794z"/>
			</g>
			<g>
				<path style="fill:#6FC2D8;" d="M148.999,268.138c0,1.521-1.428,2.735-3.162,2.735c-1.738,0-3.168-1.215-3.168-2.735
					c0-1.556,1.43-2.806,3.168-2.806C147.571,265.332,148.999,266.582,148.999,268.138z"/>
			</g>
			<g>
				<path style="fill:#6FC2D8;" d="M236.719,268.61c0,1.486-1.429,2.737-3.166,2.737c-1.734,0-3.163-1.251-3.163-2.737
					c0-1.555,1.429-2.804,3.163-2.804C235.29,265.807,236.719,267.056,236.719,268.61z"/>
			</g>
			<g>
				<path style="fill:#6FC2D8;" d="M454.296,255.872c0,1.554-1.389,2.805-3.166,2.805c-1.737,0-3.124-1.251-3.124-2.805
					c0-1.486,1.387-2.736,3.124-2.736C452.907,253.136,454.296,254.386,454.296,255.872z"/>
			</g>
			<g>
				<path style="fill:#6FC2D8;" d="M521.636,176.573c0,1.554-1.467,2.736-3.2,2.736c-1.739,0-3.167-1.183-3.167-2.736
					s1.428-2.77,3.167-2.77C520.169,173.803,521.636,175.02,521.636,176.573z"/>
			</g>
			<g>
				<path style="fill:#6FC2D8;" d="M350.022,242.087c0,1.554-1.429,2.804-3.166,2.804c-1.733,0-3.202-1.25-3.202-2.804
					c0-1.521,1.469-2.737,3.202-2.737C348.593,239.35,350.022,240.567,350.022,242.087z"/>
			</g>
			<g>
				<path style="fill:#6FC2D8;" d="M355.656,138.123c0,1.555-1.428,2.805-3.165,2.805c-1.736,0-3.163-1.25-3.163-2.805
					c0-1.487,1.427-2.737,3.163-2.737C354.229,135.386,355.656,136.636,355.656,138.123z"/>
			</g>
			<g>
				<path style="fill:#6FC2D8;" d="M425.198,108.086c0,1.521-1.39,2.737-3.166,2.737c-1.735,0-3.162-1.217-3.162-2.737
					c0-1.554,1.427-2.804,3.162-2.804C423.809,105.282,425.198,106.532,425.198,108.086z"/>
			</g>
			<g>
				<path style="fill:#6FC2D8;" d="M480.731,99.943c0,1.521-1.429,2.737-3.166,2.737c-1.734,0-3.164-1.217-3.164-2.737
					c0-1.52,1.43-2.771,3.164-2.771C479.302,97.173,480.731,98.424,480.731,99.943z"/>
			</g>
			<g>
				<path style="fill:#6FC2D8;" d="M520.709,99.943c0,1.521-1.465,2.737-3.2,2.737c-1.738,0-3.166-1.217-3.166-2.737
					c0-1.52,1.428-2.771,3.166-2.771C519.244,97.173,520.709,98.424,520.709,99.943z"/>
			</g>
			<g>
				<path style="fill:#6FC2D8;" d="M519.902,113.087c0,1.521-1.43,2.771-3.166,2.771c-1.74,0-3.163-1.25-3.163-2.771
					c0-1.555,1.423-2.771,3.163-2.771C518.473,110.317,519.902,111.532,519.902,113.087z"/>
			</g>
			<g>
				<path style="fill:#6FC2D8;" d="M470.309,129c0,1.521-1.425,2.737-3.163,2.737c-1.739,0-3.166-1.216-3.166-2.737
					c0-1.52,1.427-2.804,3.166-2.804C468.884,126.196,470.309,127.48,470.309,129z"/>
			</g>
			<g>
				<path style="fill:#6FC2D8;" d="M410.573,153.937c0,1.554-1.428,2.771-3.129,2.771c-1.775,0-3.162-1.217-3.162-2.771
					c0-1.487,1.387-2.737,3.162-2.737C409.146,151.199,410.573,152.449,410.573,153.937z"/>
			</g>
			<g>
				<path style="fill:#6FC2D8;" d="M188.519,163.193c0,1.52-1.428,2.77-3.166,2.77c-1.735,0-3.163-1.251-3.163-2.77
					c0-1.521,1.428-2.771,3.163-2.771C187.091,160.423,188.519,161.673,188.519,163.193z"/>
			</g>
			<g>
				<path style="fill:#6FC2D8;" d="M224.062,181.642c0,2.162-1.969,3.919-4.439,3.919c-2.51,0-4.518-1.757-4.518-3.919
					c0-2.162,2.008-3.92,4.518-3.92C222.093,177.722,224.062,179.48,224.062,181.642z"/>
			</g>
			<g>
				<path style="fill:#6FC2D8;" d="M347.939,164.68c0,2.162-2.006,3.92-4.438,3.92c-2.472,0-4.518-1.758-4.518-3.92
					c0-2.162,2.046-3.885,4.518-3.885C345.933,160.795,347.939,162.518,347.939,164.68z"/>
			</g>
			<g>
				<path style="fill:#6FC2D8;" d="M436.466,164.849c0,2.196-2.008,3.919-4.514,3.919c-2.432,0-4.44-1.723-4.44-3.919
					c0-2.162,2.009-3.918,4.44-3.918C434.458,160.931,436.466,162.687,436.466,164.849z"/>
			</g>
			<g>
				<path style="fill:#6FC2D8;" d="M176.941,216.949c0,2.129-2.006,3.885-4.476,3.885c-2.511,0-4.479-1.756-4.479-3.885
					c0-2.195,1.968-3.954,4.479-3.954C174.935,212.995,176.941,214.754,176.941,216.949z"/>
			</g>
		</g>
		<g>
			<g>
				<polygon style="fill:#6FC2D8;" points="393.821,138.225 371.478,138.225 371.478,137.042 393.281,137.042 411.653,120.521 
					452.597,120.521 460.431,113.66 495.935,113.66 516.851,131.974 515.885,132.818 495.357,114.877 460.972,114.877 
					453.137,121.736 412.231,121.736 				"/>
			</g>
			<g>
				<polygon style="fill:#6FC2D8;" points="515.423,163.093 477.99,163.093 451.67,140.083 424.851,140.083 399.803,162.012 
					313.205,162.012 292.985,144.273 264.271,144.273 264.271,143.057 293.525,143.057 313.783,160.795 399.263,160.795 
					424.31,138.833 452.21,138.833 478.608,161.909 515.423,161.909 				"/>
			</g>
			<g>
				<polygon style="fill:#6FC2D8;" points="316.525,179.108 257.787,179.108 247.407,170.052 204.918,170.052 204.918,168.87 
					248.025,168.87 258.326,177.924 315.983,177.924 351.297,147.009 405.247,147.009 429.752,125.486 495.008,125.486 
					505.969,135.082 516.812,135.082 516.812,136.299 505.39,136.299 494.43,126.703 430.366,126.703 405.786,148.226 
					351.875,148.226 				"/>
			</g>
			<g>
				<polygon style="fill:#6FC2D8;" points="439.554,251.615 415.589,251.615 390.927,230.06 359.669,230.06 290.206,169.242 
					264.775,169.242 264.775,168.059 290.821,168.059 360.248,228.876 391.544,228.876 416.13,250.399 439.554,250.399 				"/>
			</g>
			<g>
				<polygon style="fill:#6FC2D8;" points="469.075,184.176 434.15,184.176 420.104,171.877 343.382,171.877 343.382,169.444 
					421.262,169.444 435.308,181.742 467.957,181.742 485.784,166.133 516.812,166.133 516.812,168.531 486.905,168.531 				"/>
			</g>
			<g>
				<polygon style="fill:#6FC2D8;" points="408.061,206.712 352.607,206.712 352.607,205.528 407.522,205.528 424.773,190.426 
					484.781,190.426 495.935,180.628 519.128,180.628 519.128,181.844 496.552,181.844 485.36,191.609 425.353,191.609 				"/>
			</g>
			<g>
				<polygon style="fill:#6FC2D8;" points="447.463,229.012 422.921,229.012 370.436,183.061 336.475,183.061 311.314,205.09 
					228.729,205.09 214.722,217.389 194.81,217.389 194.81,214.956 213.564,214.956 227.61,202.692 310.156,202.692 
					335.358,180.628 371.555,180.628 424.038,226.612 446.345,226.612 457.573,216.78 518.665,216.78 518.665,219.179 
					458.734,219.179 				"/>
			</g>
			<g>
				<polygon style="fill:#6FC2D8;" points="415.741,223.233 325.131,223.233 283.489,186.777 235.29,186.777 235.29,184.345 
					284.647,184.345 326.25,220.801 414.585,220.801 433.996,203.773 516.812,203.773 516.812,206.239 435.153,206.239 				"/>
			</g>
			<g>
				<polygon style="fill:#6FC2D8;" points="225.45,231.714 194.81,231.714 194.81,230.464 224.906,230.464 245.363,212.557 
					304.291,212.557 304.291,213.774 245.942,213.774 				"/>
			</g>
			<g>
				<polygon style="fill:#6FC2D8;" points="496.86,281.213 391.429,281.213 361.524,255.062 307.726,255.062 286.538,236.513 
					265.196,236.513 265.196,235.296 287.117,235.296 308.266,253.845 362.101,253.845 392.007,280.029 496.281,280.029 
					515.153,263.509 521.87,263.509 521.87,264.724 515.732,264.724 				"/>
			</g>
			<g>
				<polygon style="fill:#6FC2D8;" points="479.379,313.446 390.503,313.446 381.318,305.405 333.003,305.405 269.982,250.23 
					184.966,250.23 172.269,261.312 171.306,260.433 184.388,249.014 270.522,249.014 333.543,304.154 381.858,304.154 
					391.043,312.23 478.8,312.23 485.707,306.181 520.481,306.181 520.481,307.398 486.324,307.398 				"/>
			</g>
			<g>
				<polygon style="fill:#6FC2D8;" points="320.232,262.292 247.252,262.292 247.252,261.075 319.649,261.075 346.316,237.729 
					441.984,237.729 472.357,211.139 519.128,211.139 519.128,212.354 472.935,212.354 442.601,238.911 346.898,238.911 				"/>
			</g>
			<g>
				<path style="fill:#6FC2D8;" d="M374.219,137.616c0,1.352-1.236,2.467-2.741,2.467c-1.541,0-2.778-1.115-2.778-2.467
					c0-1.317,1.237-2.365,2.778-2.365C372.983,135.251,374.219,136.299,374.219,137.616z"/>
			</g>
			<g>
				<path style="fill:#6FC2D8;" d="M267.049,143.866c0,1.353-1.233,2.434-2.778,2.434c-1.506,0-2.776-1.081-2.776-2.434
					c0-1.317,1.271-2.398,2.776-2.398C265.816,141.468,267.049,142.549,267.049,143.866z"/>
			</g>
			<g>
				<path style="fill:#6FC2D8;" d="M267.976,169.242c0,1.351-1.232,2.432-2.779,2.432c-1.543,0-2.774-1.081-2.774-2.432
					c0-1.319,1.232-2.4,2.774-2.4C266.743,166.842,267.976,167.923,267.976,169.242z"/>
			</g>
			<g>
				<path style="fill:#6FC2D8;" d="M198.049,231.072c0,1.317-1.233,2.433-2.78,2.433c-1.504,0-2.738-1.115-2.738-2.433
					c0-1.317,1.234-2.398,2.738-2.398C196.816,228.674,198.049,229.755,198.049,231.072z"/>
			</g>
			<g>
				<path style="fill:#6FC2D8;" d="M307.07,213.165c0,1.317-1.275,2.398-2.779,2.398c-1.543,0-2.779-1.081-2.779-2.398
					c0-1.352,1.236-2.433,2.779-2.433C305.796,210.733,307.07,211.814,307.07,213.165z"/>
			</g>
			<g>
				<path style="fill:#6FC2D8;" d="M268.4,235.734c0,1.317-1.235,2.365-2.779,2.365c-1.505,0-2.699-1.048-2.699-2.365
					c0-1.351,1.194-2.466,2.699-2.466C267.165,233.269,268.4,234.384,268.4,235.734z"/>
			</g>
			<g>
				<path style="fill:#6FC2D8;" d="M273.454,250.23c0,1.318-1.231,2.364-2.7,2.364c-1.541,0-2.778-1.046-2.778-2.364
					c0-1.352,1.237-2.466,2.778-2.466C272.223,247.764,273.454,248.878,273.454,250.23z"/>
			</g>
			<g>
				<path style="fill:#6FC2D8;" d="M393.206,229.079c0,1.317-1.274,2.398-2.779,2.398c-1.544,0-2.742-1.081-2.742-2.398
					c0-1.352,1.198-2.434,2.742-2.434C391.932,226.646,393.206,227.728,393.206,229.079z"/>
			</g>
			<g>
				<path style="fill:#6FC2D8;" d="M427.706,190.426c0,1.284-1.236,2.398-2.778,2.398c-1.505,0-2.779-1.114-2.779-2.398
					c0-1.351,1.274-2.432,2.779-2.432C426.47,187.994,427.706,189.075,427.706,190.426z"/>
			</g>
			<g>
				<path style="fill:#6FC2D8;" d="M316.252,161.403c0,1.317-1.232,2.398-2.776,2.398c-1.503,0-2.741-1.081-2.741-2.398
					c0-1.317,1.238-2.434,2.741-2.434C315.02,158.97,316.252,160.086,316.252,161.403z"/>
			</g>
			<g>
				<path style="fill:#6FC2D8;" d="M355.577,205.698c0,1.317-1.233,2.432-2.775,2.432c-1.505,0-2.703-1.114-2.703-2.432
					s1.198-2.433,2.703-2.433C354.344,203.266,355.577,204.381,355.577,205.698z"/>
			</g>
			<g>
				<path style="fill:#6FC2D8;" d="M364.919,254.353c0,1.317-1.274,2.398-2.779,2.398c-1.505,0-2.741-1.081-2.741-2.398
					c0-1.353,1.236-2.434,2.741-2.434C363.646,251.919,364.919,253,364.919,254.353z"/>
			</g>
			<g>
				<path style="fill:#6FC2D8;" d="M394.478,280.029c0,1.319-1.234,2.4-2.776,2.4c-1.505,0-2.779-1.081-2.779-2.4
					c0-1.35,1.274-2.432,2.779-2.432C393.243,277.598,394.478,278.679,394.478,280.029z"/>
			</g>
			<g>
				<path style="fill:#6FC2D8;" d="M173.892,261.075c0,1.353-1.235,2.434-2.778,2.434c-1.505,0-2.779-1.081-2.779-2.434
					c0-1.352,1.274-2.398,2.779-2.398C172.656,258.677,173.892,259.724,173.892,261.075z"/>
			</g>
			<g>
				<path style="fill:#6FC2D8;" d="M250.455,261.481c0,1.317-1.232,2.398-2.74,2.398c-1.544,0-2.737-1.081-2.737-2.398
					c0-1.317,1.193-2.432,2.737-2.432C249.223,259.049,250.455,260.163,250.455,261.481z"/>
			</g>
			<g>
				<path style="fill:#6FC2D8;" d="M440.48,250.399c0,1.351-1.275,2.434-2.78,2.434c-1.544,0-2.776-1.083-2.776-2.434
					c0-1.317,1.232-2.398,2.776-2.398C439.204,248,440.48,249.081,440.48,250.399z"/>
			</g>
			<g>
				<path style="fill:#6FC2D8;" d="M499.215,181.135c0,1.352-1.237,2.433-2.778,2.433c-1.505,0-2.739-1.081-2.739-2.433
					c0-1.352,1.234-2.399,2.739-2.399C497.978,178.735,499.215,179.783,499.215,181.135z"/>
			</g>
			<g>
				<path style="fill:#6FC2D8;" d="M349.366,238.371c0,1.317-1.197,2.398-2.74,2.398c-1.504,0-2.78-1.081-2.78-2.398
					c0-1.353,1.276-2.434,2.78-2.434C348.169,235.938,349.366,237.019,349.366,238.371z"/>
			</g>
			<g>
				<path style="fill:#6FC2D8;" d="M354.344,147.617c0,1.317-1.237,2.398-2.78,2.398c-1.504,0-2.778-1.081-2.778-2.398
					c0-1.351,1.274-2.432,2.778-2.432C353.107,145.186,354.344,146.267,354.344,147.617z"/>
			</g>
			<g>
				<path style="fill:#6FC2D8;" d="M415.087,121.33c0,1.353-1.275,2.4-2.779,2.4c-1.545,0-2.78-1.048-2.78-2.4
					c0-1.317,1.235-2.432,2.78-2.432C413.813,118.899,415.087,120.013,415.087,121.33z"/>
			</g>
			<g>
				<path style="fill:#6FC2D8;" d="M463.519,114.235c0,1.317-1.273,2.398-2.778,2.398c-1.504,0-2.742-1.081-2.742-2.398
					s1.238-2.432,2.742-2.432C462.245,111.804,463.519,112.918,463.519,114.235z"/>
			</g>
			<g>
				<path style="fill:#6FC2D8;" d="M498.403,114.235c0,1.317-1.232,2.398-2.736,2.398c-1.547,0-2.78-1.081-2.78-2.398
					s1.233-2.432,2.78-2.432C497.171,111.804,498.403,112.918,498.403,114.235z"/>
			</g>
			<g>
				<path style="fill:#6FC2D8;" d="M497.749,125.723c0,1.318-1.237,2.399-2.779,2.399c-1.543,0-2.776-1.081-2.776-2.399
					c0-1.351,1.233-2.432,2.776-2.432C496.512,123.291,497.749,124.372,497.749,125.723z"/>
			</g>
			<g>
				<path style="fill:#6FC2D8;" d="M454.449,139.609c0,1.353-1.234,2.399-2.779,2.399c-1.542,0-2.78-1.047-2.78-2.399
					c0-1.351,1.238-2.432,2.78-2.432C453.215,137.178,454.449,138.259,454.449,139.609z"/>
			</g>
			<g>
				<path style="fill:#6FC2D8;" d="M402.272,161.403c0,1.317-1.232,2.398-2.737,2.398c-1.504,0-2.778-1.081-2.778-2.398
					c0-1.317,1.274-2.434,2.778-2.434C401.039,158.97,402.272,160.086,402.272,161.403z"/>
			</g>
			<g>
				<path style="fill:#6FC2D8;" d="M208.392,169.444c0,1.351-1.234,2.433-2.778,2.433c-1.505,0-2.74-1.081-2.74-2.433
					c0-1.318,1.235-2.399,2.74-2.399C207.157,167.045,208.392,168.126,208.392,169.444z"/>
			</g>
			<g>
				<path style="fill:#6FC2D8;" d="M239.418,185.561c0,1.892-1.733,3.447-3.896,3.447c-2.162,0-3.898-1.556-3.898-3.447
					c0-1.893,1.736-3.413,3.898-3.413C237.685,182.148,239.418,183.668,239.418,185.561z"/>
			</g>
			<g>
				<path style="fill:#6FC2D8;" d="M347.59,170.762c0,1.893-1.737,3.413-3.897,3.413c-2.163,0-3.936-1.521-3.936-3.413
					c0-1.892,1.773-3.412,3.936-3.412C345.853,167.35,347.59,168.87,347.59,170.762z"/>
			</g>
			<g>
				<path style="fill:#6FC2D8;" d="M424.851,170.897c0,1.926-1.738,3.447-3.898,3.447c-2.163,0-3.859-1.521-3.859-3.447
					c0-1.857,1.696-3.412,3.859-3.412C423.112,167.484,424.851,169.039,424.851,170.897z"/>
			</g>
			<g>
				<path style="fill:#6FC2D8;" d="M198.243,216.408c0,1.858-1.738,3.379-3.898,3.379c-2.162,0-3.896-1.521-3.896-3.379
					c0-1.926,1.734-3.446,3.896-3.446C196.505,212.962,198.243,214.483,198.243,216.408z"/>
			</g>
		</g>
	</g>
</g>
</svg>
