<?xml version="1.0" encoding="utf-8"?>
<!-- Generator: Adobe Illustrator 17.0.0, SVG Export Plug-In . SVG Version: 6.00 Build 0)  -->
<!DOCTYPE svg PUBLIC "-//W3C//DTD SVG 1.1//EN" "http://www.w3.org/Graphics/SVG/1.1/DTD/svg11.dtd">
<svg version="1.1" id="Capa_1" xmlns="http://www.w3.org/2000/svg" xmlns:xlink="http://www.w3.org/1999/xlink" x="0px" y="0px"
	 width="30.078px" height="30.076px" viewBox="0 0 30.078 30.076" style="enable-background:new 0 0 30.078 30.076;"
	 xml:space="preserve">
<path style="fill:none;stroke:#6FC2D8;stroke-width:3;stroke-miterlimit:10;" d="M5.461,24.615C0.18,19.334,0.18,10.74,5.461,5.46
	c5.281-5.28,13.874-5.28,19.154,0c5.283,5.28,5.283,13.874,0,19.155C19.335,29.896,10.742,29.896,5.461,24.615"/>
<path style="fill:#6FC2D8;" d="M20.753,9.323c0.964,0.963,0.964,2.525,0,3.488l-2.181,2.178l2.181,2.18
	c0.964,0.963,0.964,2.525,0,3.488s-2.524,0.963-3.487,0l-2.18-2.18l-2.18,2.18c-0.963,0.963-2.525,0.963-3.488,0
	c-0.963-0.963-0.963-2.525,0-3.488l2.18-2.178l-2.18-2.18c-0.963-0.963-0.963-2.525,0-3.488c0.963-0.963,2.525-0.963,3.488,0
	l2.18,2.18l2.18-2.18C18.23,8.361,19.789,8.361,20.753,9.323"/>
</svg>
