<?xml version="1.0" encoding="utf-8"?>
<!-- Generator: Adobe Illustrator 17.0.0, SVG Export Plug-In . SVG Version: 6.00 Build 0)  -->
<!DOCTYPE svg PUBLIC "-//W3C//DTD SVG 1.1//EN" "http://www.w3.org/Graphics/SVG/1.1/DTD/svg11.dtd">
<svg version="1.1" id="Capa_1" xmlns="http://www.w3.org/2000/svg" xmlns:xlink="http://www.w3.org/1999/xlink" x="0px" y="0px"
	 width="151.207px" height="34.762px" viewBox="0 0 151.207 34.762" style="enable-background:new 0 0 151.207 34.762;"
	 xml:space="preserve">
<g>
	<polygon style="fill:#2C6882;" points="136.217,0 151.207,17.381 136.217,34.762 122.573,34.762 137.563,17.381 122.573,0 	"/>
	<polygon style="fill:#2C6882;" points="14.991,34.762 0,17.381 14.991,0 28.635,0 13.645,17.381 28.635,34.762 	"/>
	<polygon style="fill:#2C6882;" points="32.765,0 118.443,0 133.433,17.381 118.443,34.762 32.765,34.762 17.775,17.381 	"/>
	<g>
		<path style="fill:#FFFFFF;" d="M35.698,21.42V11.076h2.089V21.42H35.698z"/>
		<path style="fill:#FFFFFF;" d="M46.578,21.42h-1.982v-3.824c0-0.809-0.042-1.332-0.127-1.569
			c-0.085-0.238-0.223-0.423-0.413-0.555c-0.19-0.131-0.42-0.197-0.688-0.197c-0.344,0-0.651,0.095-0.925,0.282
			c-0.272,0.188-0.459,0.438-0.561,0.748c-0.102,0.311-0.151,0.885-0.151,1.722v3.394h-1.982v-7.493h1.841v1.101
			c0.654-0.847,1.478-1.27,2.47-1.27c0.438,0,0.837,0.079,1.199,0.236s0.637,0.358,0.822,0.604c0.186,0.244,0.315,0.521,0.388,0.832
			c0.073,0.311,0.109,0.755,0.109,1.334V21.42z"/>
		<path style="fill:#FFFFFF;" d="M52.025,13.927v1.581H50.67v3.02c0,0.611,0.014,0.968,0.039,1.068
			c0.026,0.102,0.085,0.185,0.177,0.251c0.092,0.065,0.203,0.099,0.335,0.099c0.184,0,0.449-0.063,0.797-0.19l0.17,1.538
			c-0.461,0.197-0.983,0.296-1.566,0.296c-0.357,0-0.68-0.06-0.967-0.18s-0.497-0.275-0.632-0.466
			c-0.134-0.19-0.227-0.447-0.278-0.772c-0.042-0.23-0.063-0.696-0.063-1.396v-3.267h-0.91v-1.581h0.91v-1.488l1.989-1.157v2.646
			H52.025z"/>
		<path style="fill:#FFFFFF;" d="M55.3,21.42h-1.983v-7.493h1.842v1.065c0.315-0.503,0.599-0.835,0.851-0.995
			c0.251-0.159,0.537-0.239,0.856-0.239c0.452,0,0.887,0.124,1.306,0.374l-0.614,1.729c-0.334-0.217-0.644-0.325-0.931-0.325
			c-0.277,0-0.513,0.077-0.706,0.229c-0.192,0.153-0.345,0.43-0.455,0.829c-0.11,0.4-0.165,1.237-0.165,2.512V21.42z"/>
		<path style="fill:#FFFFFF;" d="M58.565,17.567c0-0.658,0.163-1.296,0.487-1.912c0.324-0.616,0.784-1.086,1.379-1.411
			c0.596-0.324,1.26-0.486,1.993-0.486c1.134,0,2.063,0.368,2.787,1.104c0.725,0.735,1.087,1.666,1.087,2.79
			c0,1.134-0.366,2.073-1.098,2.818c-0.731,0.746-1.651,1.118-2.762,1.118c-0.687,0-1.342-0.155-1.965-0.465
			c-0.624-0.311-1.098-0.766-1.422-1.365C58.729,19.158,58.565,18.429,58.565,17.567z M60.598,17.674
			c0,0.743,0.177,1.312,0.529,1.707s0.788,0.593,1.306,0.593c0.517,0,0.951-0.197,1.302-0.593c0.35-0.396,0.525-0.969,0.525-1.722
			c0-0.733-0.176-1.298-0.525-1.693c-0.351-0.395-0.785-0.593-1.302-0.593c-0.518,0-0.953,0.198-1.306,0.593
			C60.774,16.361,60.598,16.931,60.598,17.674z"/>
		<path style="fill:#FFFFFF;" d="M74.723,21.42h-1.842v-1.101c-0.306,0.428-0.666,0.747-1.083,0.956
			c-0.416,0.209-0.836,0.313-1.259,0.313c-0.861,0-1.599-0.347-2.212-1.04c-0.614-0.694-0.921-1.662-0.921-2.903
			c0-1.271,0.299-2.235,0.896-2.896c0.598-0.661,1.353-0.991,2.266-0.991c0.837,0,1.562,0.348,2.173,1.044v-3.726h1.982V21.42z
			 M69.431,17.511c0,0.8,0.111,1.379,0.332,1.736c0.319,0.518,0.767,0.775,1.341,0.775c0.456,0,0.844-0.193,1.164-0.582
			c0.319-0.388,0.479-0.968,0.479-1.738c0-0.861-0.155-1.48-0.466-1.859c-0.311-0.379-0.708-0.568-1.192-0.568
			c-0.47,0-0.864,0.188-1.182,0.562C69.59,16.209,69.431,16.767,69.431,17.511z"/>
		<path style="fill:#FFFFFF;" d="M81.608,21.42v-1.122c-0.272,0.4-0.631,0.715-1.076,0.945c-0.444,0.23-0.913,0.346-1.407,0.346
			c-0.503,0-0.955-0.11-1.354-0.331c-0.4-0.222-0.689-0.531-0.868-0.932c-0.179-0.399-0.268-0.952-0.268-1.658v-4.741h1.982v3.443
			c0,1.054,0.036,1.699,0.109,1.937c0.072,0.237,0.206,0.426,0.398,0.564c0.193,0.139,0.438,0.208,0.733,0.208
			c0.339,0,0.643-0.093,0.91-0.278c0.269-0.186,0.452-0.416,0.551-0.691s0.148-0.949,0.148-2.021v-3.161h1.982v7.493H81.608z"/>
		<path style="fill:#FFFFFF;" d="M92.037,16.142l-1.954,0.353c-0.066-0.391-0.215-0.685-0.448-0.882
			c-0.232-0.197-0.535-0.296-0.906-0.296c-0.494,0-0.888,0.17-1.182,0.511c-0.294,0.342-0.441,0.912-0.441,1.711
			c0,0.89,0.149,1.518,0.448,1.884c0.299,0.367,0.699,0.551,1.203,0.551c0.376,0,0.685-0.107,0.924-0.321
			c0.24-0.214,0.409-0.582,0.508-1.104l1.947,0.332c-0.202,0.894-0.59,1.568-1.164,2.025c-0.573,0.456-1.343,0.684-2.307,0.684
			c-1.097,0-1.97-0.346-2.621-1.037s-0.978-1.648-0.978-2.871c0-1.237,0.327-2.2,0.98-2.89c0.654-0.688,1.538-1.033,2.653-1.033
			c0.912,0,1.638,0.196,2.177,0.589C91.415,14.739,91.802,15.338,92.037,16.142z"/>
		<path style="fill:#FFFFFF;" d="M100.073,16.142l-1.954,0.353c-0.066-0.391-0.215-0.685-0.448-0.882
			c-0.232-0.197-0.535-0.296-0.906-0.296c-0.494,0-0.888,0.17-1.182,0.511c-0.294,0.342-0.441,0.912-0.441,1.711
			c0,0.89,0.149,1.518,0.448,1.884c0.299,0.367,0.699,0.551,1.203,0.551c0.376,0,0.685-0.107,0.924-0.321
			c0.24-0.214,0.409-0.582,0.508-1.104l1.947,0.332c-0.202,0.894-0.59,1.568-1.164,2.025c-0.573,0.456-1.343,0.684-2.307,0.684
			c-1.097,0-1.97-0.346-2.621-1.037s-0.978-1.648-0.978-2.871c0-1.237,0.327-2.2,0.98-2.89c0.654-0.688,1.538-1.033,2.653-1.033
			c0.912,0,1.638,0.196,2.177,0.589C99.451,14.739,99.838,15.338,100.073,16.142z"/>
		<path style="fill:#FFFFFF;" d="M101.576,12.911v-1.835h1.982v1.835H101.576z M101.576,21.42v-7.493h1.982v7.493H101.576z"/>
		<path style="fill:#FFFFFF;" d="M105.132,17.567c0-0.658,0.163-1.296,0.487-1.912c0.324-0.616,0.784-1.086,1.379-1.411
			c0.596-0.324,1.26-0.486,1.993-0.486c1.134,0,2.063,0.368,2.787,1.104c0.725,0.735,1.087,1.666,1.087,2.79
			c0,1.134-0.366,2.073-1.098,2.818c-0.731,0.746-1.651,1.118-2.762,1.118c-0.687,0-1.342-0.155-1.965-0.465
			c-0.624-0.311-1.098-0.766-1.422-1.365C105.295,19.158,105.132,18.429,105.132,17.567z M107.164,17.674
			c0,0.743,0.177,1.312,0.529,1.707s0.788,0.593,1.306,0.593c0.517,0,0.951-0.197,1.302-0.593c0.35-0.396,0.525-0.969,0.525-1.722
			c0-0.733-0.176-1.298-0.525-1.693c-0.351-0.395-0.785-0.593-1.302-0.593c-0.518,0-0.953,0.198-1.306,0.593
			C107.341,16.361,107.164,16.931,107.164,17.674z M107.997,13.01l0.974-2.109h2.223l-1.94,2.109H107.997z"/>
		<path style="fill:#FFFFFF;" d="M121.232,21.42h-1.982v-3.824c0-0.809-0.042-1.332-0.127-1.569
			c-0.085-0.238-0.223-0.423-0.413-0.555c-0.19-0.131-0.42-0.197-0.688-0.197c-0.344,0-0.651,0.095-0.925,0.282
			c-0.272,0.188-0.459,0.438-0.561,0.748c-0.102,0.311-0.151,0.885-0.151,1.722v3.394h-1.982v-7.493h1.841v1.101
			c0.654-0.847,1.478-1.27,2.47-1.27c0.438,0,0.837,0.079,1.199,0.236s0.637,0.358,0.822,0.604c0.186,0.244,0.315,0.521,0.388,0.832
			c0.073,0.311,0.109,0.755,0.109,1.334V21.42z"/>
	</g>
</g>
</svg>
