<?xml version="1.0" encoding="utf-8"?>
<!-- Generator: Adobe Illustrator 17.0.0, SVG Export Plug-In . SVG Version: 6.00 Build 0)  -->
<!DOCTYPE svg PUBLIC "-//W3C//DTD SVG 1.1//EN" "http://www.w3.org/Graphics/SVG/1.1/DTD/svg11.dtd">
<svg version="1.1" id="Capa_1" xmlns="http://www.w3.org/2000/svg" xmlns:xlink="http://www.w3.org/1999/xlink" x="0px" y="0px"
	 width="149.411px" height="50.535px" viewBox="0 0 149.411 50.535" style="enable-background:new 0 0 149.411 50.535;"
	 xml:space="preserve">
<polygon style="fill:#2C6882;stroke:#000000;stroke-width:0.75;stroke-miterlimit:10;" points="0.814,0.375 127.565,0.375 
	148.921,25.269 128.303,50.16 1.547,50.16 22.174,25.336 "/>
<g>
	<g>
		<path style="fill:#FFFFFF;" d="M38.871,28.377l1.645-7.874h1.295l0.795,5.103c0.104,0.67,0.172,1.313,0.203,1.928
			c0.219-0.529,0.584-1.247,1.096-2.153l2.762-4.877h1.314l-1.643,7.874H45.3l0.822-3.83c0.189-0.884,0.461-1.876,0.816-2.975
			c-0.227,0.512-0.506,1.063-0.838,1.654l-2.934,5.15h-1.014l-0.791-5.049c-0.07-0.462-0.123-1.001-0.154-1.617
			c-0.09,0.691-0.178,1.239-0.264,1.645l-1.047,5.021H38.871z"/>
		<path style="fill:#FFFFFF;" d="M48.087,26.213c0-1.114,0.328-2.036,0.982-2.767c0.541-0.602,1.25-0.902,2.127-0.902
			c0.688,0,1.242,0.215,1.664,0.645c0.42,0.43,0.631,1.01,0.631,1.74c0,0.655-0.133,1.265-0.398,1.829
			c-0.264,0.563-0.641,0.996-1.131,1.297c-0.488,0.301-1.002,0.451-1.543,0.451c-0.445,0-0.848-0.095-1.211-0.285
			c-0.363-0.189-0.643-0.458-0.834-0.805C48.183,27.068,48.087,26.667,48.087,26.213z M49.06,26.115
			c0,0.537,0.129,0.945,0.387,1.223s0.586,0.416,0.982,0.416c0.209,0,0.414-0.042,0.617-0.126c0.205-0.084,0.395-0.212,0.57-0.384
			s0.324-0.368,0.449-0.589c0.123-0.22,0.223-0.457,0.297-0.712c0.111-0.354,0.166-0.694,0.166-1.02
			c0-0.516-0.129-0.916-0.389-1.201c-0.26-0.284-0.586-0.427-0.98-0.427c-0.305,0-0.582,0.072-0.832,0.218
			c-0.25,0.145-0.477,0.357-0.68,0.637c-0.201,0.279-0.352,0.604-0.445,0.975C49.107,25.495,49.06,25.826,49.06,26.115z"/>
		<path style="fill:#FFFFFF;" d="M57.88,27.55c-0.555,0.638-1.135,0.956-1.74,0.956c-0.541,0-0.992-0.199-1.352-0.599
			s-0.539-0.979-0.539-1.737c0-0.695,0.143-1.33,0.426-1.904c0.285-0.575,0.643-1.006,1.07-1.292s0.855-0.43,1.285-0.43
			c0.709,0,1.244,0.342,1.607,1.026l0.645-3.067h0.967l-1.645,7.874h-0.896L57.88,27.55z M55.216,25.986
			c0,0.398,0.039,0.711,0.117,0.94c0.08,0.229,0.213,0.42,0.404,0.572c0.189,0.152,0.416,0.228,0.682,0.228
			c0.439,0,0.84-0.229,1.197-0.688c0.48-0.608,0.721-1.36,0.721-2.256c0-0.451-0.119-0.804-0.355-1.058s-0.533-0.382-0.891-0.382
			c-0.234,0-0.445,0.053-0.637,0.156s-0.383,0.28-0.57,0.529s-0.346,0.564-0.475,0.947C55.281,25.36,55.216,25.697,55.216,25.986z"
			/>
		<path style="fill:#FFFFFF;" d="M64.341,26.437l0.945,0.098c-0.137,0.469-0.449,0.914-0.938,1.337s-1.072,0.634-1.748,0.634
			c-0.424,0-0.811-0.098-1.164-0.293c-0.352-0.195-0.621-0.479-0.805-0.852c-0.186-0.372-0.277-0.796-0.277-1.272
			c0-0.623,0.145-1.228,0.434-1.813c0.287-0.586,0.66-1.021,1.119-1.306c0.459-0.284,0.955-0.427,1.488-0.427
			c0.68,0,1.223,0.211,1.629,0.634s0.611,0.999,0.611,1.729c0,0.279-0.025,0.565-0.076,0.859h-4.199
			c-0.016,0.111-0.021,0.211-0.021,0.301c0,0.533,0.121,0.94,0.367,1.222c0.244,0.281,0.545,0.422,0.9,0.422
			c0.332,0,0.66-0.109,0.982-0.328C63.912,27.165,64.162,26.85,64.341,26.437z M61.515,25.025h3.201
			c0.004-0.101,0.006-0.172,0.006-0.215c0-0.487-0.121-0.86-0.365-1.12s-0.557-0.39-0.939-0.39c-0.416,0-0.795,0.144-1.137,0.43
			C61.939,24.018,61.683,24.449,61.515,25.025z"/>
		<path style="fill:#FFFFFF;" d="M66.193,28.377l1.645-7.874h0.973l-1.645,7.874H66.193z"/>
		<path style="fill:#FFFFFF;" d="M68.884,26.213c0-1.114,0.328-2.036,0.982-2.767c0.541-0.602,1.25-0.902,2.127-0.902
			c0.688,0,1.242,0.215,1.664,0.645c0.42,0.43,0.631,1.01,0.631,1.74c0,0.655-0.133,1.265-0.398,1.829
			c-0.264,0.563-0.641,0.996-1.131,1.297c-0.488,0.301-1.002,0.451-1.543,0.451c-0.445,0-0.848-0.095-1.211-0.285
			c-0.363-0.189-0.643-0.458-0.834-0.805C68.98,27.068,68.884,26.667,68.884,26.213z M69.857,26.115
			c0,0.537,0.129,0.945,0.387,1.223s0.586,0.416,0.982,0.416c0.209,0,0.414-0.042,0.617-0.126c0.205-0.084,0.395-0.212,0.57-0.384
			s0.324-0.368,0.449-0.589c0.123-0.22,0.223-0.457,0.297-0.712c0.111-0.354,0.166-0.694,0.166-1.02
			c0-0.516-0.129-0.916-0.389-1.201c-0.26-0.284-0.586-0.427-0.98-0.427c-0.305,0-0.582,0.072-0.832,0.218
			c-0.25,0.145-0.477,0.357-0.68,0.637c-0.201,0.279-0.352,0.604-0.445,0.975C69.904,25.495,69.857,25.826,69.857,26.115z"/>
		<path style="fill:#FFFFFF;" d="M81.732,27.668c-0.336,0.29-0.66,0.502-0.973,0.637c-0.311,0.134-0.645,0.201-0.998,0.201
			c-0.527,0-0.951-0.155-1.273-0.465s-0.482-0.706-0.482-1.189c0-0.318,0.072-0.601,0.217-0.846s0.338-0.442,0.578-0.591
			s0.533-0.255,0.881-0.319c0.219-0.043,0.633-0.077,1.242-0.103c0.611-0.025,1.049-0.09,1.314-0.193
			c0.074-0.265,0.111-0.485,0.111-0.661c0-0.225-0.082-0.402-0.246-0.531c-0.227-0.179-0.555-0.269-0.988-0.269
			c-0.408,0-0.742,0.091-1.002,0.271s-0.449,0.438-0.566,0.771l-0.982-0.086c0.199-0.565,0.518-0.999,0.953-1.3
			s0.984-0.451,1.646-0.451c0.705,0,1.264,0.168,1.676,0.505c0.314,0.251,0.473,0.576,0.473,0.978c0,0.305-0.045,0.657-0.135,1.058
			l-0.316,1.418c-0.102,0.451-0.15,0.818-0.15,1.102c0,0.179,0.039,0.437,0.117,0.773h-0.982
			C81.791,28.19,81.753,27.954,81.732,27.668z M82.091,25.487c-0.135,0.054-0.281,0.095-0.438,0.124
			c-0.154,0.028-0.416,0.059-0.781,0.091c-0.564,0.05-0.965,0.113-1.197,0.19s-0.408,0.2-0.527,0.368
			c-0.117,0.168-0.176,0.354-0.176,0.559c0,0.272,0.094,0.496,0.281,0.671c0.188,0.176,0.455,0.264,0.803,0.264
			c0.322,0,0.633-0.085,0.93-0.255s0.531-0.407,0.703-0.712S81.996,26.05,82.091,25.487z"/>
		<path style="fill:#FFFFFF;" d="M87.152,26.428l0.973-0.06c0,0.279,0.043,0.518,0.129,0.714c0.086,0.197,0.244,0.358,0.475,0.484
			c0.23,0.125,0.5,0.188,0.809,0.188c0.43,0,0.752-0.086,0.967-0.258s0.322-0.374,0.322-0.607c0-0.168-0.064-0.327-0.193-0.478
			c-0.133-0.15-0.455-0.336-0.969-0.556c-0.514-0.221-0.844-0.375-0.986-0.465c-0.24-0.146-0.42-0.319-0.543-0.519
			c-0.121-0.198-0.182-0.427-0.182-0.685c0-0.451,0.178-0.838,0.537-1.16c0.357-0.322,0.859-0.483,1.504-0.483
			c0.715,0,1.262,0.166,1.635,0.497c0.375,0.331,0.568,0.767,0.582,1.308l-0.949,0.064c-0.016-0.344-0.137-0.616-0.365-0.816
			c-0.23-0.2-0.555-0.301-0.973-0.301c-0.336,0-0.598,0.077-0.785,0.231c-0.186,0.153-0.279,0.32-0.279,0.499
			s0.082,0.337,0.242,0.473c0.107,0.093,0.385,0.236,0.832,0.43c0.746,0.322,1.215,0.576,1.408,0.763
			c0.309,0.297,0.461,0.659,0.461,1.085c0,0.283-0.086,0.561-0.26,0.833c-0.174,0.271-0.438,0.489-0.795,0.652
			c-0.355,0.163-0.775,0.244-1.26,0.244c-0.658,0-1.219-0.163-1.682-0.488C87.345,27.691,87.127,27.161,87.152,26.428z"/>
		<path style="fill:#FFFFFF;" d="M96.75,26.437l0.945,0.098c-0.135,0.469-0.447,0.914-0.938,1.337
			c-0.488,0.423-1.07,0.634-1.748,0.634c-0.422,0-0.811-0.098-1.162-0.293c-0.354-0.195-0.621-0.479-0.807-0.852
			c-0.184-0.372-0.275-0.796-0.275-1.272c0-0.623,0.145-1.228,0.432-1.813c0.289-0.586,0.662-1.021,1.119-1.306
			c0.459-0.284,0.955-0.427,1.488-0.427c0.682,0,1.225,0.211,1.631,0.634s0.609,0.999,0.609,1.729c0,0.279-0.025,0.565-0.076,0.859
			h-4.199c-0.014,0.111-0.021,0.211-0.021,0.301c0,0.533,0.123,0.94,0.367,1.222c0.246,0.281,0.545,0.422,0.9,0.422
			c0.332,0,0.66-0.109,0.982-0.328C96.32,27.165,96.572,26.85,96.75,26.437z M93.925,25.025h3.201
			c0.004-0.101,0.004-0.172,0.004-0.215c0-0.487-0.121-0.86-0.365-1.12c-0.242-0.26-0.557-0.39-0.939-0.39
			c-0.414,0-0.793,0.144-1.135,0.43C94.349,24.018,94.093,24.449,93.925,25.025z"/>
		<path style="fill:#FFFFFF;" d="M98.625,28.893l0.984,0.092c-0.008,0.222,0.02,0.388,0.08,0.499s0.156,0.197,0.289,0.258
			c0.176,0.079,0.404,0.118,0.684,0.118c0.586,0,1.01-0.152,1.268-0.457c0.168-0.203,0.322-0.647,0.467-1.332l0.096-0.461
			c-0.504,0.512-1.041,0.768-1.611,0.768c-0.576,0-1.059-0.212-1.447-0.637c-0.389-0.424-0.582-1.024-0.582-1.802
			c0-0.641,0.152-1.229,0.459-1.767s0.67-0.943,1.094-1.217c0.422-0.274,0.857-0.411,1.305-0.411c0.748,0,1.324,0.354,1.729,1.063
			l0.193-0.935h0.893l-1.15,5.505c-0.125,0.605-0.289,1.077-0.494,1.416c-0.203,0.338-0.488,0.601-0.852,0.787
			c-0.363,0.186-0.783,0.279-1.258,0.279c-0.459,0-0.854-0.06-1.186-0.178c-0.33-0.118-0.578-0.291-0.74-0.519
			c-0.164-0.228-0.244-0.487-0.244-0.781C98.599,29.093,98.607,28.996,98.625,28.893z M99.839,25.852
			c0,0.391,0.037,0.684,0.113,0.881c0.107,0.275,0.26,0.486,0.459,0.631c0.197,0.146,0.42,0.218,0.662,0.218
			c0.318,0,0.637-0.112,0.951-0.336s0.57-0.57,0.766-1.039s0.293-0.917,0.293-1.343c0-0.469-0.131-0.843-0.391-1.12
			s-0.58-0.416-0.963-0.416c-0.236,0-0.467,0.063-0.688,0.19c-0.223,0.127-0.43,0.32-0.621,0.58s-0.336,0.57-0.436,0.933
			C99.888,25.393,99.839,25.666,99.839,25.852z"/>
		<path style="fill:#FFFFFF;" d="M108.691,27.346c-0.686,0.773-1.385,1.16-2.102,1.16c-0.439,0-0.795-0.126-1.066-0.379
			c-0.27-0.252-0.404-0.561-0.404-0.926c0-0.24,0.061-0.652,0.182-1.236l0.688-3.292h0.973l-0.762,3.647
			c-0.064,0.304-0.098,0.54-0.098,0.709c0,0.215,0.064,0.382,0.195,0.502s0.324,0.18,0.578,0.18c0.271,0,0.537-0.066,0.797-0.199
			c0.26-0.132,0.484-0.311,0.672-0.537c0.188-0.225,0.342-0.492,0.459-0.8c0.08-0.197,0.17-0.542,0.275-1.036l0.516-2.466h0.971
			l-1.191,5.704h-0.896L108.691,27.346z"/>
		<path style="fill:#FFFFFF;" d="M110.877,28.377l1.191-5.704h0.973l-1.193,5.704H110.877z M112.294,21.603l0.23-1.101h0.967
			l-0.23,1.101H112.294z"/>
		<path style="fill:#FFFFFF;" d="M113.357,28.377l1.193-5.704h0.859l-0.242,1.165c0.293-0.439,0.58-0.766,0.861-0.977
			c0.281-0.212,0.568-0.317,0.863-0.317c0.193,0,0.432,0.069,0.713,0.21l-0.396,0.902c-0.168-0.122-0.354-0.184-0.553-0.184
			c-0.34,0-0.689,0.19-1.049,0.57c-0.357,0.379-0.639,1.062-0.842,2.046l-0.484,2.288H113.357z"/>
	</g>
</g>
</svg>
