<?xml version="1.0" encoding="utf-8"?>
<!-- Generator: Adobe Illustrator 17.0.0, SVG Export Plug-In . SVG Version: 6.00 Build 0)  -->
<!DOCTYPE svg PUBLIC "-//W3C//DTD SVG 1.1//EN" "http://www.w3.org/Graphics/SVG/1.1/DTD/svg11.dtd">
<svg version="1.1" id="Capa_1" xmlns="http://www.w3.org/2000/svg" xmlns:xlink="http://www.w3.org/1999/xlink" x="0px" y="0px"
	 width="350.926px" height="221.121px" viewBox="0 0 350.926 221.121" style="enable-background:new 0 0 350.926 221.121;"
	 xml:space="preserve">
<g>
	<rect x="0.5" y="0.5" style="fill:#FFFFFF;" width="349.926" height="220.121"/>
	<rect x="0.5" y="0.5" style="fill:none;stroke:#000000;stroke-miterlimit:10;" width="349.926" height="220.121"/>
	<rect x="0.5" y="0.5" style="fill:#FFFFFF;" width="349.926" height="19.062"/>
	<rect x="0.5" y="0.5" style="fill:none;stroke:#000000;stroke-miterlimit:10;" width="349.926" height="19.062"/>
	<path style="fill:none;stroke:#000000;stroke-miterlimit:10;" d="M229.964,220.621h-95.31V0.5h95.31V220.621z M64.457,220.621H0.5
		V0.5h63.957V220.621z"/>
	<g>
		<path style="fill:#0F1317;" d="M7.327,15.537V5.791h1.29v9.746H7.327z"/>
		<path style="fill:#0F1317;" d="M10.738,15.537V8.477h1.077v1.004c0.519-0.775,1.268-1.163,2.247-1.163
			c0.426,0,0.816,0.076,1.174,0.229c0.356,0.152,0.623,0.354,0.801,0.602c0.177,0.248,0.302,0.543,0.372,0.884
			c0.044,0.222,0.066,0.609,0.066,1.163v4.342h-1.196v-4.295c0-0.487-0.047-0.852-0.14-1.094c-0.093-0.241-0.259-0.435-0.495-0.578
			c-0.237-0.144-0.516-0.216-0.835-0.216c-0.51,0-0.949,0.161-1.319,0.485c-0.37,0.323-0.556,0.938-0.556,1.841v3.856H10.738z"/>
		<path style="fill:#0F1317;" d="M17.832,13.43l1.184-0.187c0.066,0.475,0.251,0.838,0.555,1.091
			c0.304,0.252,0.729,0.379,1.273,0.379c0.55,0,0.957-0.112,1.223-0.336c0.267-0.224,0.399-0.486,0.399-0.788
			c0-0.27-0.117-0.482-0.353-0.638c-0.164-0.106-0.571-0.242-1.223-0.406c-0.878-0.221-1.486-0.413-1.825-0.574
			c-0.339-0.162-0.597-0.386-0.771-0.672s-0.263-0.602-0.263-0.947c0-0.314,0.072-0.606,0.216-0.874
			c0.145-0.269,0.341-0.491,0.589-0.669c0.186-0.137,0.439-0.253,0.761-0.349c0.321-0.095,0.666-0.143,1.034-0.143
			c0.554,0,1.04,0.079,1.459,0.239c0.419,0.159,0.729,0.375,0.928,0.648c0.199,0.272,0.337,0.637,0.412,1.093l-1.17,0.16
			c-0.054-0.363-0.207-0.647-0.462-0.852c-0.255-0.203-0.615-0.306-1.08-0.306c-0.55,0-0.942,0.091-1.177,0.272
			c-0.235,0.183-0.353,0.395-0.353,0.639c0,0.155,0.049,0.295,0.146,0.419c0.098,0.128,0.251,0.234,0.459,0.319
			c0.12,0.044,0.473,0.146,1.058,0.306c0.846,0.226,1.437,0.411,1.771,0.555c0.335,0.145,0.597,0.354,0.788,0.629
			c0.19,0.274,0.285,0.615,0.285,1.023c0,0.398-0.116,0.774-0.349,1.127s-0.568,0.625-1.007,0.817
			c-0.439,0.193-0.936,0.289-1.489,0.289c-0.918,0-1.617-0.19-2.098-0.571C18.271,14.744,17.964,14.179,17.832,13.43z"/>
		<path style="fill:#0F1317;" d="M29.745,15.537V14.5c-0.549,0.798-1.296,1.196-2.24,1.196c-0.417,0-0.806-0.079-1.167-0.239
			c-0.361-0.159-0.629-0.359-0.804-0.602c-0.176-0.241-0.299-0.537-0.369-0.888c-0.049-0.234-0.073-0.606-0.073-1.116V8.477h1.196
			v3.916c0,0.625,0.024,1.046,0.073,1.263c0.075,0.315,0.235,0.563,0.479,0.741c0.244,0.18,0.546,0.27,0.904,0.27
			c0.359,0,0.696-0.092,1.011-0.275c0.314-0.185,0.537-0.435,0.668-0.752c0.131-0.316,0.196-0.776,0.196-1.379V8.477h1.196v7.061
			H29.745z"/>
		<path style="fill:#0F1317;" d="M32.69,15.537V8.477h1.07v0.99c0.222-0.346,0.517-0.623,0.885-0.834
			c0.367-0.21,0.786-0.315,1.256-0.315c0.523,0,0.952,0.108,1.287,0.325c0.334,0.218,0.57,0.521,0.708,0.911
			c0.558-0.824,1.285-1.236,2.181-1.236c0.7,0,1.238,0.193,1.615,0.581c0.377,0.389,0.565,0.985,0.565,1.792v4.847h-1.19V11.09
			c0-0.479-0.039-0.823-0.116-1.034c-0.078-0.211-0.219-0.38-0.422-0.509c-0.204-0.128-0.443-0.192-0.719-0.192
			c-0.496,0-0.908,0.165-1.236,0.495s-0.492,0.858-0.492,1.586v4.102h-1.196V10.95c0-0.532-0.098-0.932-0.293-1.197
			c-0.194-0.266-0.514-0.398-0.957-0.398c-0.337,0-0.648,0.089-0.935,0.266c-0.285,0.178-0.493,0.437-0.621,0.778
			c-0.129,0.341-0.193,0.833-0.193,1.476v3.663H32.69z"/>
		<path style="fill:#0F1317;" d="M43.587,12.007c0-1.308,0.363-2.275,1.09-2.905c0.607-0.522,1.348-0.784,2.221-0.784
			c0.971,0,1.765,0.317,2.38,0.954c0.616,0.636,0.925,1.515,0.925,2.636c0,0.908-0.137,1.623-0.409,2.144
			c-0.272,0.521-0.669,0.926-1.19,1.214c-0.521,0.288-1.089,0.432-1.705,0.432c-0.988,0-1.787-0.316-2.396-0.95
			S43.587,13.199,43.587,12.007z M44.816,12.007c0,0.904,0.197,1.581,0.592,2.031s0.892,0.675,1.489,0.675
			c0.594,0,1.088-0.227,1.482-0.679s0.592-1.141,0.592-2.067c0-0.873-0.198-1.534-0.595-1.984s-0.89-0.675-1.479-0.675
			c-0.598,0-1.095,0.224-1.489,0.672C45.013,10.427,44.816,11.103,44.816,12.007z"/>
		<path style="fill:#0F1317;" d="M51.127,13.43l1.184-0.187c0.066,0.475,0.251,0.838,0.555,1.091
			c0.304,0.252,0.729,0.379,1.273,0.379c0.55,0,0.957-0.112,1.223-0.336c0.267-0.224,0.399-0.486,0.399-0.788
			c0-0.27-0.117-0.482-0.353-0.638c-0.164-0.106-0.571-0.242-1.223-0.406c-0.878-0.221-1.486-0.413-1.825-0.574
			c-0.339-0.162-0.597-0.386-0.771-0.672s-0.263-0.602-0.263-0.947c0-0.314,0.072-0.606,0.216-0.874
			c0.145-0.269,0.341-0.491,0.589-0.669c0.186-0.137,0.439-0.253,0.761-0.349c0.321-0.095,0.666-0.143,1.034-0.143
			c0.554,0,1.04,0.079,1.459,0.239c0.419,0.159,0.729,0.375,0.928,0.648c0.199,0.272,0.337,0.637,0.412,1.093l-1.17,0.16
			c-0.054-0.363-0.207-0.647-0.462-0.852c-0.255-0.203-0.615-0.306-1.08-0.306c-0.55,0-0.942,0.091-1.177,0.272
			c-0.235,0.183-0.353,0.395-0.353,0.639c0,0.155,0.049,0.295,0.146,0.419c0.098,0.128,0.251,0.234,0.459,0.319
			c0.12,0.044,0.473,0.146,1.058,0.306c0.846,0.226,1.437,0.411,1.771,0.555c0.335,0.145,0.597,0.354,0.788,0.629
			c0.19,0.274,0.285,0.615,0.285,1.023c0,0.398-0.116,0.774-0.349,1.127s-0.568,0.625-1.007,0.817
			c-0.439,0.193-0.936,0.289-1.489,0.289c-0.918,0-1.617-0.19-2.098-0.571C51.566,14.744,51.259,14.179,51.127,13.43z"/>
	</g>
	<rect x="64.457" y="0.5" style="fill:none;stroke:#000000;stroke-miterlimit:10;" width="70.198" height="220.121"/>
	<g>
		<g>
			<path style="fill:#0F1317;" d="M68.946,15.537V5.791h3.676c0.647,0,1.142,0.03,1.483,0.093c0.479,0.08,0.879,0.231,1.203,0.455
				c0.323,0.225,0.584,0.538,0.781,0.941s0.296,0.847,0.296,1.329c0,0.829-0.264,1.53-0.792,2.104
				c-0.527,0.574-1.479,0.861-2.858,0.861h-2.5v3.962H68.946z M70.235,10.425h2.521c0.833,0,1.425-0.155,1.774-0.466
				c0.351-0.31,0.525-0.746,0.525-1.31c0-0.407-0.103-0.757-0.31-1.047c-0.206-0.29-0.478-0.482-0.813-0.575
				c-0.218-0.058-0.619-0.087-1.204-0.087h-2.493V10.425z"/>
			<path style="fill:#0F1317;" d="M77.861,15.537V8.477h1.077v1.07c0.275-0.501,0.529-0.831,0.762-0.99
				c0.232-0.16,0.488-0.239,0.768-0.239c0.403,0,0.813,0.128,1.23,0.386l-0.413,1.109C80.993,9.64,80.7,9.554,80.408,9.554
				c-0.262,0-0.497,0.079-0.705,0.236s-0.356,0.375-0.445,0.654c-0.133,0.426-0.199,0.891-0.199,1.396v3.696H77.861z"/>
			<path style="fill:#0F1317;" d="M81.962,12.007c0-1.308,0.363-2.275,1.09-2.905c0.607-0.522,1.348-0.784,2.221-0.784
				c0.971,0,1.765,0.317,2.38,0.954c0.616,0.636,0.925,1.515,0.925,2.636c0,0.908-0.137,1.623-0.409,2.144
				c-0.272,0.521-0.669,0.926-1.19,1.214c-0.521,0.288-1.089,0.432-1.705,0.432c-0.988,0-1.787-0.316-2.396-0.95
				S81.962,13.199,81.962,12.007z M83.192,12.007c0,0.904,0.197,1.581,0.592,2.031s0.892,0.675,1.489,0.675
				c0.594,0,1.088-0.227,1.482-0.679s0.592-1.141,0.592-2.067c0-0.873-0.198-1.534-0.595-1.984s-0.89-0.675-1.479-0.675
				c-0.598,0-1.095,0.224-1.489,0.672C83.389,10.427,83.192,11.103,83.192,12.007z"/>
			<path style="fill:#0F1317;" d="M91.942,15.537l-2.686-7.061h1.263l1.517,4.229c0.164,0.456,0.314,0.931,0.452,1.423
				c0.106-0.373,0.255-0.82,0.445-1.343l1.568-4.309h1.23l-2.673,7.061H91.942z"/>
			<path style="fill:#0F1317;" d="M101.622,13.264l1.237,0.152c-0.195,0.723-0.557,1.283-1.084,1.683
				c-0.527,0.398-1.201,0.598-2.021,0.598c-1.032,0-1.852-0.317-2.456-0.954c-0.605-0.636-0.907-1.527-0.907-2.676
				c0-1.188,0.306-2.109,0.917-2.766c0.611-0.655,1.405-0.983,2.38-0.983c0.944,0,1.716,0.321,2.313,0.964
				c0.599,0.643,0.897,1.547,0.897,2.712c0,0.071-0.002,0.178-0.006,0.319h-5.266c0.044,0.775,0.264,1.37,0.658,1.782
				s0.887,0.618,1.476,0.618c0.438,0,0.813-0.115,1.124-0.346C101.194,14.137,101.44,13.769,101.622,13.264z M97.693,11.329h3.942
				c-0.053-0.595-0.204-1.04-0.452-1.337c-0.381-0.461-0.875-0.691-1.482-0.691c-0.55,0-1.012,0.185-1.387,0.552
				C97.94,10.221,97.733,10.713,97.693,11.329z"/>
			<path style="fill:#0F1317;" d="M109.194,13.264l1.237,0.152c-0.195,0.723-0.557,1.283-1.084,1.683
				c-0.527,0.398-1.201,0.598-2.021,0.598c-1.032,0-1.852-0.317-2.456-0.954c-0.605-0.636-0.907-1.527-0.907-2.676
				c0-1.188,0.306-2.109,0.917-2.766c0.611-0.655,1.405-0.983,2.38-0.983c0.944,0,1.716,0.321,2.313,0.964
				c0.599,0.643,0.897,1.547,0.897,2.712c0,0.071-0.002,0.178-0.006,0.319h-5.266c0.044,0.775,0.264,1.37,0.658,1.782
				s0.887,0.618,1.476,0.618c0.438,0,0.813-0.115,1.124-0.346C108.766,14.137,109.012,13.769,109.194,13.264z M105.265,11.329h3.942
				c-0.053-0.595-0.204-1.04-0.452-1.337c-0.381-0.461-0.875-0.691-1.482-0.691c-0.55,0-1.012,0.185-1.387,0.552
				C105.512,10.221,105.305,10.713,105.265,11.329z"/>
			<path style="fill:#0F1317;" d="M116.514,15.537v-0.891c-0.448,0.7-1.106,1.05-1.975,1.05c-0.563,0-1.081-0.155-1.553-0.465
				c-0.472-0.311-0.838-0.743-1.097-1.3c-0.26-0.557-0.389-1.195-0.389-1.918c0-0.705,0.117-1.344,0.352-1.918
				c0.235-0.574,0.588-1.014,1.058-1.32c0.47-0.306,0.995-0.458,1.575-0.458c0.426,0,0.805,0.09,1.137,0.269
				c0.333,0.18,0.604,0.414,0.812,0.702V5.791h1.19v9.746H116.514z M112.731,12.014c0,0.904,0.19,1.58,0.571,2.027
				c0.382,0.448,0.831,0.672,1.35,0.672c0.523,0,0.968-0.214,1.333-0.642c0.366-0.428,0.549-1.08,0.549-1.958
				c0-0.966-0.187-1.676-0.559-2.128c-0.372-0.451-0.831-0.678-1.376-0.678c-0.532,0-0.977,0.217-1.333,0.651
				S112.731,11.078,112.731,12.014z"/>
			<path style="fill:#0F1317;" d="M119.06,12.007c0-1.308,0.363-2.275,1.09-2.905c0.607-0.522,1.348-0.784,2.221-0.784
				c0.971,0,1.765,0.317,2.38,0.954c0.616,0.636,0.925,1.515,0.925,2.636c0,0.908-0.137,1.623-0.409,2.144
				c-0.272,0.521-0.669,0.926-1.19,1.214c-0.521,0.288-1.089,0.432-1.705,0.432c-0.988,0-1.787-0.316-2.396-0.95
				S119.06,13.199,119.06,12.007z M120.29,12.007c0,0.904,0.197,1.581,0.592,2.031s0.892,0.675,1.489,0.675
				c0.594,0,1.088-0.227,1.482-0.679s0.592-1.141,0.592-2.067c0-0.873-0.198-1.534-0.595-1.984s-0.89-0.675-1.479-0.675
				c-0.598,0-1.095,0.224-1.489,0.672C120.487,10.427,120.29,11.103,120.29,12.007z"/>
			<path style="fill:#0F1317;" d="M127.064,15.537V8.477h1.077v1.07c0.275-0.501,0.529-0.831,0.762-0.99
				c0.232-0.16,0.488-0.239,0.768-0.239c0.403,0,0.813,0.128,1.23,0.386l-0.413,1.109c-0.292-0.173-0.585-0.259-0.877-0.259
				c-0.262,0-0.497,0.079-0.705,0.236s-0.356,0.375-0.445,0.654c-0.133,0.426-0.199,0.891-0.199,1.396v3.696H127.064z"/>
		</g>
	</g>
	<rect x="229.964" y="0.5" style="fill:none;stroke:#000000;stroke-miterlimit:10;" width="59.8" height="220.121"/>
	<g>
		<g>
			<path style="fill:#0F1317;" d="M242.181,12.406l1.217-0.106c0.057,0.487,0.191,0.887,0.402,1.199s0.537,0.565,0.98,0.758
				c0.443,0.193,0.941,0.29,1.496,0.29c0.492,0,0.926-0.073,1.303-0.22s0.656-0.347,0.84-0.602c0.186-0.255,0.277-0.533,0.277-0.835
				c0-0.306-0.09-0.572-0.266-0.801c-0.178-0.229-0.471-0.42-0.879-0.575c-0.262-0.102-0.84-0.26-1.734-0.476
				c-0.896-0.215-1.523-0.417-1.881-0.607c-0.467-0.244-0.813-0.547-1.041-0.908s-0.342-0.766-0.342-1.213
				c0-0.492,0.139-0.952,0.418-1.38s0.688-0.752,1.223-0.974c0.537-0.222,1.133-0.333,1.789-0.333c0.723,0,1.359,0.117,1.912,0.35
				c0.551,0.232,0.975,0.575,1.271,1.027s0.457,0.964,0.48,1.535l-1.238,0.094c-0.066-0.616-0.291-1.082-0.674-1.396
				s-0.949-0.472-1.699-0.472c-0.779,0-1.348,0.143-1.705,0.429c-0.357,0.285-0.535,0.63-0.535,1.033
				c0,0.351,0.127,0.639,0.379,0.864c0.248,0.227,0.896,0.458,1.945,0.695c1.047,0.237,1.768,0.444,2.156,0.621
				c0.568,0.262,0.986,0.593,1.258,0.994c0.27,0.401,0.404,0.863,0.404,1.387c0,0.519-0.148,1.007-0.445,1.466
				c-0.297,0.458-0.723,0.815-1.279,1.07s-1.182,0.382-1.879,0.382c-0.881,0-1.621-0.128-2.217-0.386
				c-0.596-0.257-1.063-0.644-1.402-1.16C242.376,13.642,242.198,13.058,242.181,12.406z"/>
			<path style="fill:#0F1317;" d="M256.155,14.666c-0.443,0.377-0.869,0.643-1.279,0.798s-0.85,0.232-1.32,0.232
				c-0.775,0-1.371-0.189-1.787-0.568c-0.418-0.379-0.625-0.863-0.625-1.452c0-0.346,0.078-0.662,0.234-0.947
				c0.158-0.286,0.365-0.516,0.619-0.688c0.256-0.173,0.541-0.304,0.861-0.393c0.234-0.062,0.59-0.121,1.063-0.179
				c0.967-0.115,1.678-0.253,2.135-0.412c0.004-0.164,0.008-0.269,0.008-0.313c0-0.488-0.113-0.831-0.34-1.031
				c-0.307-0.27-0.76-0.405-1.363-0.405c-0.563,0-0.979,0.099-1.246,0.296s-0.467,0.546-0.596,1.047l-1.17-0.159
				c0.107-0.501,0.281-0.905,0.525-1.214c0.244-0.308,0.596-0.545,1.057-0.711s0.996-0.249,1.604-0.249
				c0.602,0,1.092,0.07,1.469,0.213c0.377,0.142,0.654,0.319,0.83,0.535c0.178,0.215,0.303,0.486,0.373,0.814
				c0.039,0.203,0.061,0.571,0.061,1.104v1.596c0,1.112,0.025,1.815,0.076,2.11s0.152,0.577,0.303,0.848h-1.25
				C256.271,15.289,256.19,14.999,256.155,14.666z M256.056,11.993c-0.434,0.178-1.086,0.328-1.955,0.452
				c-0.492,0.071-0.84,0.151-1.043,0.239c-0.203,0.089-0.361,0.219-0.473,0.39c-0.109,0.17-0.166,0.359-0.166,0.568
				c0,0.319,0.121,0.585,0.363,0.798c0.24,0.213,0.594,0.318,1.061,0.318c0.461,0,0.871-0.101,1.229-0.302
				c0.359-0.202,0.623-0.478,0.791-0.828c0.129-0.271,0.193-0.669,0.193-1.196V11.993z"/>
			<path style="fill:#0F1317;" d="M259.095,15.537V5.791h1.195v9.746H259.095z"/>
			<path style="fill:#0F1317;" d="M262.151,7.167V5.791h1.197v1.376H262.151z M262.151,15.537V8.477h1.197v7.061H262.151z"/>
			<path style="fill:#0F1317;" d="M269.751,15.537v-0.891c-0.447,0.7-1.105,1.05-1.975,1.05c-0.563,0-1.08-0.155-1.553-0.465
				c-0.471-0.311-0.838-0.743-1.096-1.3c-0.26-0.557-0.389-1.195-0.389-1.918c0-0.705,0.117-1.344,0.352-1.918
				s0.588-1.014,1.057-1.32c0.471-0.306,0.996-0.458,1.576-0.458c0.426,0,0.805,0.09,1.137,0.269
				c0.332,0.18,0.604,0.414,0.811,0.702V5.791h1.191v9.746H269.751z M265.968,12.014c0,0.904,0.191,1.58,0.572,2.027
				c0.381,0.448,0.83,0.672,1.35,0.672c0.523,0,0.967-0.214,1.332-0.642c0.367-0.428,0.549-1.08,0.549-1.958
				c0-0.966-0.186-1.676-0.559-2.128c-0.371-0.451-0.83-0.678-1.375-0.678c-0.533,0-0.977,0.217-1.334,0.651
				C266.148,10.394,265.968,11.078,265.968,12.014z"/>
			<path style="fill:#0F1317;" d="M277.351,14.666c-0.443,0.377-0.871,0.643-1.281,0.798c-0.408,0.155-0.85,0.232-1.318,0.232
				c-0.775,0-1.373-0.189-1.789-0.568s-0.625-0.863-0.625-1.452c0-0.346,0.078-0.662,0.236-0.947
				c0.158-0.286,0.363-0.516,0.619-0.688c0.254-0.173,0.541-0.304,0.859-0.393c0.236-0.062,0.59-0.121,1.064-0.179
				c0.967-0.115,1.678-0.253,2.135-0.412c0.004-0.164,0.006-0.269,0.006-0.313c0-0.488-0.113-0.831-0.34-1.031
				c-0.305-0.27-0.76-0.405-1.361-0.405c-0.564,0-0.979,0.099-1.248,0.296c-0.268,0.197-0.465,0.546-0.594,1.047l-1.17-0.159
				c0.105-0.501,0.281-0.905,0.525-1.214c0.242-0.308,0.596-0.545,1.057-0.711s0.994-0.249,1.602-0.249
				c0.604,0,1.094,0.07,1.469,0.213c0.377,0.142,0.654,0.319,0.832,0.535c0.178,0.215,0.301,0.486,0.373,0.814
				c0.039,0.203,0.059,0.571,0.059,1.104v1.596c0,1.112,0.025,1.815,0.076,2.11s0.152,0.577,0.303,0.848h-1.25
				C277.466,15.289,277.386,14.999,277.351,14.666z M277.251,11.993c-0.436,0.178-1.086,0.328-1.955,0.452
				c-0.492,0.071-0.84,0.151-1.045,0.239c-0.203,0.089-0.361,0.219-0.471,0.39c-0.111,0.17-0.166,0.359-0.166,0.568
				c0,0.319,0.119,0.585,0.361,0.798s0.596,0.318,1.061,0.318c0.461,0,0.871-0.101,1.23-0.302c0.359-0.202,0.623-0.478,0.791-0.828
				c0.129-0.271,0.193-0.669,0.193-1.196V11.993z"/>
		</g>
	</g>
	<g>
		<g>
			<path style="fill:#0F1317;" d="M306.732,12.12l1.289,0.325c-0.271,1.06-0.757,1.867-1.459,2.424
				c-0.702,0.556-1.562,0.834-2.576,0.834c-1.051,0-1.904-0.214-2.563-0.642s-1.159-1.047-1.503-1.858
				c-0.344-0.811-0.516-1.682-0.516-2.612c0-1.015,0.194-1.9,0.582-2.656s0.939-1.329,1.655-1.722s1.504-0.589,2.363-0.589
				c0.976,0,1.796,0.249,2.46,0.745c0.665,0.496,1.128,1.194,1.39,2.094l-1.27,0.3c-0.227-0.709-0.555-1.226-0.984-1.549
				c-0.43-0.324-0.971-0.485-1.622-0.485c-0.749,0-1.375,0.179-1.878,0.538s-0.856,0.841-1.061,1.446
				c-0.204,0.604-0.306,1.229-0.306,1.871c0,0.829,0.121,1.553,0.362,2.171s0.617,1.08,1.127,1.386
				c0.51,0.307,1.062,0.459,1.655,0.459c0.723,0,1.334-0.208,1.835-0.625C306.215,13.559,306.554,12.94,306.732,12.12z"/>
			<path style="fill:#0F1317;" d="M309.431,15.537V5.791h1.196v9.746H309.431z"/>
			<path style="fill:#0F1317;" d="M312.488,7.167V5.791h1.196v1.376H312.488z M312.488,15.537V8.477h1.196v7.061H312.488z"/>
			<path style="fill:#0F1317;" d="M320.34,13.264l1.237,0.152c-0.195,0.723-0.557,1.283-1.084,1.683
				c-0.527,0.398-1.201,0.598-2.021,0.598c-1.032,0-1.852-0.317-2.456-0.954c-0.605-0.636-0.907-1.527-0.907-2.676
				c0-1.188,0.306-2.109,0.917-2.766c0.611-0.655,1.405-0.983,2.38-0.983c0.944,0,1.716,0.321,2.313,0.964
				c0.599,0.643,0.897,1.547,0.897,2.712c0,0.071-0.002,0.178-0.006,0.319h-5.266c0.044,0.775,0.264,1.37,0.658,1.782
				s0.887,0.618,1.476,0.618c0.438,0,0.813-0.115,1.124-0.346C319.912,14.137,320.158,13.769,320.34,13.264z M316.411,11.329h3.942
				c-0.053-0.595-0.204-1.04-0.452-1.337c-0.381-0.461-0.875-0.691-1.482-0.691c-0.55,0-1.012,0.185-1.387,0.552
				C316.658,10.221,316.451,10.713,316.411,11.329z"/>
			<path style="fill:#0F1317;" d="M323.079,15.537V8.477h1.077v1.004c0.519-0.775,1.268-1.163,2.247-1.163
				c0.426,0,0.816,0.076,1.174,0.229c0.356,0.152,0.623,0.354,0.801,0.602c0.177,0.248,0.302,0.543,0.372,0.884
				c0.044,0.222,0.066,0.609,0.066,1.163v4.342h-1.196v-4.295c0-0.487-0.047-0.852-0.14-1.094c-0.093-0.241-0.259-0.435-0.495-0.578
				c-0.237-0.144-0.516-0.216-0.835-0.216c-0.51,0-0.949,0.161-1.319,0.485c-0.37,0.323-0.556,0.938-0.556,1.841v3.856H323.079z"/>
			<path style="fill:#0F1317;" d="M333.265,14.467l0.173,1.057c-0.337,0.071-0.639,0.106-0.904,0.106
				c-0.435,0-0.771-0.068-1.011-0.206c-0.239-0.137-0.408-0.317-0.506-0.542c-0.097-0.224-0.146-0.694-0.146-1.412V9.407h-0.878
				V8.477h0.878V6.729l1.189-0.719v2.467h1.204v0.931h-1.204v4.129c0,0.341,0.021,0.561,0.063,0.658s0.11,0.175,0.206,0.232
				s0.231,0.087,0.409,0.087C332.872,14.514,333.047,14.498,333.265,14.467z"/>
			<path style="fill:#0F1317;" d="M339.268,13.264l1.237,0.152c-0.195,0.723-0.557,1.283-1.084,1.683
				c-0.527,0.398-1.201,0.598-2.021,0.598c-1.032,0-1.852-0.317-2.456-0.954c-0.605-0.636-0.907-1.527-0.907-2.676
				c0-1.188,0.306-2.109,0.917-2.766c0.611-0.655,1.405-0.983,2.38-0.983c0.944,0,1.716,0.321,2.313,0.964
				c0.599,0.643,0.897,1.547,0.897,2.712c0,0.071-0.002,0.178-0.006,0.319h-5.266c0.044,0.775,0.264,1.37,0.658,1.782
				s0.887,0.618,1.476,0.618c0.438,0,0.813-0.115,1.124-0.346C338.84,14.137,339.086,13.769,339.268,13.264z M335.339,11.329h3.942
				c-0.053-0.595-0.204-1.04-0.452-1.337c-0.381-0.461-0.875-0.691-1.482-0.691c-0.55,0-1.012,0.185-1.387,0.552
				C335.586,10.221,335.379,10.713,335.339,11.329z"/>
		</g>
	</g>
	<g>
		<g>
			<path style="fill:#0F1317;" d="M154.554,15.537l3.742-9.746h1.39l3.989,9.746h-1.47l-1.137-2.952h-4.075l-1.07,2.952H154.554z
				 M157.366,11.535h3.305l-1.018-2.699c-0.311-0.82-0.541-1.494-0.691-2.021c-0.124,0.625-0.299,1.246-0.525,1.861L157.366,11.535z
				"/>
			<path style="fill:#0F1317;" d="M169.161,12.951l1.177,0.152c-0.129,0.812-0.458,1.446-0.987,1.905s-1.18,0.688-1.951,0.688
				c-0.967,0-1.743-0.315-2.33-0.947c-0.588-0.631-0.881-1.536-0.881-2.716c0-0.762,0.126-1.429,0.379-2.001
				c0.252-0.571,0.637-1,1.153-1.286s1.078-0.429,1.686-0.429c0.767,0,1.394,0.193,1.881,0.581c0.487,0.389,0.8,0.938,0.938,1.652
				l-1.163,0.18c-0.111-0.475-0.308-0.831-0.589-1.07s-0.621-0.359-1.021-0.359c-0.603,0-1.093,0.216-1.469,0.648
				c-0.377,0.433-0.565,1.116-0.565,2.051c0,0.949,0.182,1.638,0.545,2.067c0.363,0.431,0.838,0.646,1.423,0.646
				c0.47,0,0.862-0.145,1.177-0.433S169.077,13.549,169.161,12.951z"/>
			<path style="fill:#0F1317;" d="M173.974,14.467l0.173,1.057c-0.337,0.071-0.639,0.106-0.904,0.106
				c-0.435,0-0.771-0.068-1.011-0.206c-0.239-0.137-0.408-0.317-0.506-0.542c-0.097-0.224-0.146-0.694-0.146-1.412V9.407h-0.878
				V8.477h0.878V6.729l1.189-0.719v2.467h1.204v0.931h-1.204v4.129c0,0.341,0.021,0.561,0.063,0.658s0.11,0.175,0.206,0.232
				s0.231,0.087,0.409,0.087C173.582,14.514,173.756,14.498,173.974,14.467z"/>
			<path style="fill:#0F1317;" d="M175.15,7.167V5.791h1.196v1.376H175.15z M175.15,15.537V8.477h1.196v7.061H175.15z"/>
			<path style="fill:#0F1317;" d="M180.129,15.537l-2.686-7.061h1.263l1.517,4.229c0.164,0.456,0.314,0.931,0.452,1.423
				c0.106-0.373,0.255-0.82,0.445-1.343l1.568-4.309h1.23l-2.673,7.061H180.129z"/>
			<path style="fill:#0F1317;" d="M184.983,7.167V5.791h1.196v1.376H184.983z M184.983,15.537V8.477h1.196v7.061H184.983z"/>
			<path style="fill:#0F1317;" d="M192.583,15.537v-0.891c-0.448,0.7-1.106,1.05-1.975,1.05c-0.563,0-1.081-0.155-1.553-0.465
				c-0.472-0.311-0.838-0.743-1.097-1.3c-0.26-0.557-0.389-1.195-0.389-1.918c0-0.705,0.117-1.344,0.352-1.918
				c0.235-0.574,0.588-1.014,1.058-1.32c0.47-0.306,0.995-0.458,1.575-0.458c0.426,0,0.805,0.09,1.137,0.269
				c0.333,0.18,0.604,0.414,0.812,0.702V5.791h1.19v9.746H192.583z M188.799,12.014c0,0.904,0.19,1.58,0.571,2.027
				c0.382,0.448,0.831,0.672,1.35,0.672c0.523,0,0.968-0.214,1.333-0.642c0.366-0.428,0.549-1.08,0.549-1.958
				c0-0.966-0.187-1.676-0.559-2.128c-0.372-0.451-0.831-0.678-1.376-0.678c-0.532,0-0.977,0.217-1.333,0.651
				S188.799,11.078,188.799,12.014z"/>
			<path style="fill:#0F1317;" d="M200.181,14.666c-0.443,0.377-0.87,0.643-1.28,0.798c-0.409,0.155-0.85,0.232-1.319,0.232
				c-0.775,0-1.372-0.189-1.788-0.568c-0.417-0.379-0.625-0.863-0.625-1.452c0-0.346,0.078-0.662,0.235-0.947
				c0.158-0.286,0.364-0.516,0.619-0.688s0.541-0.304,0.86-0.393c0.235-0.062,0.59-0.121,1.063-0.179
				c0.967-0.115,1.678-0.253,2.135-0.412c0.004-0.164,0.007-0.269,0.007-0.313c0-0.488-0.113-0.831-0.34-1.031
				c-0.306-0.27-0.76-0.405-1.362-0.405c-0.563,0-0.979,0.099-1.247,0.296c-0.268,0.197-0.466,0.546-0.595,1.047l-1.17-0.159
				c0.106-0.501,0.281-0.905,0.525-1.214c0.243-0.308,0.596-0.545,1.057-0.711s0.995-0.249,1.603-0.249
				c0.603,0,1.093,0.07,1.469,0.213c0.377,0.142,0.654,0.319,0.831,0.535c0.178,0.215,0.302,0.486,0.373,0.814
				c0.039,0.203,0.06,0.571,0.06,1.104v1.596c0,1.112,0.025,1.815,0.076,2.11s0.152,0.577,0.303,0.848h-1.25
				C200.296,15.289,200.216,14.999,200.181,14.666z M200.082,11.993c-0.435,0.178-1.086,0.328-1.955,0.452
				c-0.492,0.071-0.84,0.151-1.044,0.239c-0.203,0.089-0.361,0.219-0.472,0.39c-0.11,0.17-0.166,0.359-0.166,0.568
				c0,0.319,0.12,0.585,0.362,0.798c0.241,0.213,0.595,0.318,1.061,0.318c0.461,0,0.871-0.101,1.229-0.302
				c0.359-0.202,0.623-0.478,0.791-0.828c0.129-0.271,0.193-0.669,0.193-1.196V11.993z"/>
			<path style="fill:#0F1317;" d="M207.728,15.537v-0.891c-0.449,0.7-1.107,1.05-1.975,1.05c-0.564,0-1.082-0.155-1.553-0.465
				c-0.472-0.311-0.838-0.743-1.097-1.3c-0.26-0.557-0.389-1.195-0.389-1.918c0-0.705,0.117-1.344,0.352-1.918
				c0.235-0.574,0.588-1.014,1.058-1.32c0.469-0.306,0.995-0.458,1.575-0.458c0.426,0,0.805,0.09,1.137,0.269
				c0.334,0.18,0.604,0.414,0.813,0.702V5.791h1.189v9.746H207.728z M203.944,12.014c0,0.904,0.19,1.58,0.571,2.027
				c0.383,0.448,0.832,0.672,1.35,0.672c0.523,0,0.969-0.214,1.334-0.642s0.549-1.08,0.549-1.958c0-0.966-0.188-1.676-0.559-2.128
				c-0.373-0.451-0.832-0.678-1.377-0.678c-0.531,0-0.977,0.217-1.332,0.651C204.123,10.394,203.944,11.078,203.944,12.014z"/>
		</g>
	</g>
	<g>
		<defs>
			<path id="SVGID_1_" d="M149.262,35.181c0,5.83,8.602,10.557,19.209,10.557c10.609,0,19.209-4.727,19.209-10.557
				c0-5.826-8.6-10.554-19.209-10.554C157.863,24.628,149.262,29.355,149.262,35.181"/>
		</defs>
		<use xlink:href="#SVGID_1_"  style="overflow:visible;fill:#6FC2D8;"/>
		<clipPath id="SVGID_2_">
			<use xlink:href="#SVGID_1_"  style="overflow:visible;"/>
		</clipPath>
		
			<rect x="149.262" y="24.628" style="clip-path:url(#SVGID_2_);fill:#6FC2D8;stroke:#000000;stroke-width:0.75;stroke-miterlimit:10;" width="38.418" height="21.11"/>
		<use xlink:href="#SVGID_1_"  style="overflow:visible;fill:none;stroke:#000000;stroke-width:0.75;stroke-miterlimit:10;"/>
	</g>
	<g>
		<defs>
			<rect id="SVGID_3_" x="147.15" y="51.616" width="42.641" height="19.723"/>
		</defs>
		<clipPath id="SVGID_4_">
			<use xlink:href="#SVGID_3_"  style="overflow:visible;"/>
		</clipPath>
		
			<rect x="147.15" y="51.616" style="clip-path:url(#SVGID_4_);fill:#6FC2D8;stroke:#000000;stroke-width:0.75;stroke-miterlimit:10;" width="42.641" height="19.723"/>
	</g>
	<g>
		<defs>
			<rect id="SVGID_5_" x="147.15" y="121.651" width="42.641" height="19.722"/>
		</defs>
		<clipPath id="SVGID_6_">
			<use xlink:href="#SVGID_5_"  style="overflow:visible;"/>
		</clipPath>
		
			<rect x="147.15" y="121.651" style="clip-path:url(#SVGID_6_);fill:#6FC2D8;stroke:#000000;stroke-width:0.75;stroke-miterlimit:10;" width="42.641" height="19.722"/>
	</g>
	<g>
		<defs>
			<rect id="SVGID_7_" x="193.848" y="97.876" width="32.086" height="19.722"/>
		</defs>
		<clipPath id="SVGID_8_">
			<use xlink:href="#SVGID_7_"  style="overflow:visible;"/>
		</clipPath>
		
			<rect x="193.848" y="97.876" style="clip-path:url(#SVGID_8_);fill:#6FC2D8;stroke:#000000;stroke-width:0.75;stroke-miterlimit:10;" width="32.086" height="19.722"/>
	</g>
	<g>
		<defs>
			<rect id="SVGID_9_" x="147.15" y="145.659" width="42.641" height="19.721"/>
		</defs>
		<clipPath id="SVGID_10_">
			<use xlink:href="#SVGID_9_"  style="overflow:visible;"/>
		</clipPath>
		
			<rect x="147.15" y="145.659" style="clip-path:url(#SVGID_10_);fill:#6FC2D8;stroke:#000000;stroke-width:0.75;stroke-miterlimit:10;" width="42.641" height="19.721"/>
	</g>
	<g>
		<defs>
			<rect id="SVGID_11_" x="147.15" y="169.661" width="42.641" height="19.72"/>
		</defs>
		<clipPath id="SVGID_12_">
			<use xlink:href="#SVGID_11_"  style="overflow:visible;"/>
		</clipPath>
		
			<rect x="147.15" y="169.661" style="clip-path:url(#SVGID_12_);fill:#6FC2D8;stroke:#000000;stroke-width:0.75;stroke-miterlimit:10;" width="42.641" height="19.72"/>
	</g>
	<g>
		<defs>
			<polygon id="SVGID_13_" points="143.097,91.447 168.471,106.626 193.848,91.447 168.471,76.264 			"/>
		</defs>
		<use xlink:href="#SVGID_13_"  style="overflow:visible;fill:#6FC2D8;"/>
		<clipPath id="SVGID_14_">
			<use xlink:href="#SVGID_13_"  style="overflow:visible;"/>
		</clipPath>
		
			<rect x="143.097" y="76.264" style="clip-path:url(#SVGID_14_);fill:#6FC2D8;stroke:#000000;stroke-width:0.75;stroke-miterlimit:10;" width="50.751" height="30.361"/>
		<use xlink:href="#SVGID_13_"  style="overflow:visible;fill:none;stroke:#000000;stroke-width:0.75;stroke-miterlimit:10;"/>
	</g>
	<g>
		<path style="fill:#2C6882;" d="M161.479,37.712v-4.835h0.64v4.835H161.479z"/>
		<path style="fill:#2C6882;" d="M163.171,37.712v-3.503h0.534v0.498c0.258-0.385,0.629-0.577,1.115-0.577
			c0.211,0,0.405,0.038,0.582,0.114c0.177,0.075,0.31,0.175,0.397,0.298s0.149,0.27,0.185,0.438c0.021,0.11,0.033,0.303,0.033,0.577
			v2.154h-0.594v-2.131c0-0.242-0.023-0.423-0.069-0.542c-0.046-0.12-0.128-0.216-0.246-0.287c-0.117-0.071-0.256-0.107-0.414-0.107
			c-0.253,0-0.471,0.08-0.654,0.24c-0.184,0.161-0.275,0.466-0.275,0.914v1.913H163.171z"/>
		<path style="fill:#2C6882;" d="M166.931,33.56v-0.683h0.594v0.683H166.931z M166.931,37.712v-3.503h0.594v3.503H166.931z"/>
		<path style="fill:#2C6882;" d="M170.715,36.429l0.583,0.076c-0.063,0.402-0.227,0.717-0.489,0.944
			c-0.263,0.229-0.586,0.342-0.968,0.342c-0.479,0-0.865-0.156-1.156-0.47c-0.292-0.313-0.438-0.763-0.438-1.348
			c0-0.378,0.063-0.709,0.188-0.993c0.125-0.283,0.315-0.496,0.572-0.638c0.256-0.142,0.534-0.213,0.836-0.213
			c0.38,0,0.691,0.097,0.934,0.289c0.241,0.192,0.396,0.465,0.465,0.819l-0.577,0.089c-0.055-0.235-0.152-0.412-0.292-0.531
			c-0.14-0.118-0.309-0.178-0.506-0.178c-0.3,0-0.543,0.107-0.729,0.321c-0.187,0.215-0.28,0.554-0.28,1.018
			c0,0.471,0.09,0.813,0.271,1.026c0.181,0.213,0.416,0.319,0.706,0.319c0.232,0,0.428-0.071,0.584-0.214
			C170.573,36.945,170.673,36.726,170.715,36.429z"/>
		<path style="fill:#2C6882;" d="M171.809,33.56v-0.683h0.594v0.683H171.809z M171.809,37.712v-3.503h0.594v3.503H171.809z"/>
		<path style="fill:#2C6882;" d="M173.086,35.961c0-0.649,0.18-1.13,0.541-1.441c0.301-0.26,0.668-0.39,1.102-0.39
			c0.481,0,0.875,0.158,1.181,0.474s0.458,0.751,0.458,1.308c0,0.45-0.067,0.806-0.202,1.063c-0.136,0.259-0.332,0.459-0.591,0.603
			c-0.259,0.143-0.54,0.214-0.846,0.214c-0.49,0-0.887-0.157-1.189-0.472S173.086,36.552,173.086,35.961z M173.696,35.961
			c0,0.448,0.098,0.784,0.293,1.007c0.195,0.224,0.442,0.335,0.739,0.335c0.294,0,0.539-0.112,0.735-0.336
			c0.195-0.225,0.293-0.566,0.293-1.026c0-0.433-0.098-0.761-0.295-0.984c-0.196-0.223-0.441-0.335-0.733-0.335
			c-0.297,0-0.544,0.111-0.739,0.333C173.794,35.177,173.696,35.512,173.696,35.961z"/>
	</g>
	<g>
		<path style="fill:#2C6882;" d="M155.564,60.708v-4.835h2.144c0.431,0,0.759,0.043,0.983,0.13c0.224,0.087,0.403,0.24,0.537,0.46
			c0.135,0.22,0.201,0.463,0.201,0.729c0,0.343-0.111,0.632-0.333,0.867s-0.565,0.385-1.029,0.448
			c0.17,0.082,0.298,0.162,0.386,0.241c0.188,0.171,0.364,0.386,0.531,0.643l0.842,1.316h-0.806l-0.64-1.006
			c-0.187-0.29-0.341-0.513-0.462-0.666c-0.121-0.154-0.229-0.262-0.324-0.323s-0.193-0.104-0.292-0.129
			c-0.073-0.016-0.191-0.023-0.356-0.023h-0.742v2.147H155.564z M156.203,58.007h1.375c0.293,0,0.521-0.03,0.687-0.091
			s0.29-0.157,0.376-0.29s0.129-0.278,0.129-0.434c0-0.229-0.083-0.417-0.249-0.564s-0.429-0.221-0.787-0.221h-1.53V58.007z"/>
		<path style="fill:#2C6882;" d="M162.753,59.58l0.614,0.076c-0.097,0.358-0.276,0.636-0.538,0.834s-0.596,0.297-1.003,0.297
			c-0.512,0-0.918-0.157-1.219-0.474c-0.3-0.315-0.45-0.758-0.45-1.327c0-0.589,0.152-1.047,0.455-1.372
			c0.304-0.325,0.697-0.488,1.182-0.488c0.468,0,0.851,0.159,1.147,0.479c0.297,0.318,0.445,0.768,0.445,1.346
			c0,0.035-0.001,0.088-0.003,0.158h-2.612c0.021,0.385,0.13,0.68,0.326,0.884c0.195,0.204,0.439,0.307,0.732,0.307
			c0.218,0,0.403-0.057,0.558-0.171C162.541,60.014,162.663,59.831,162.753,59.58z M160.804,58.62h1.956
			c-0.026-0.295-0.101-0.516-0.225-0.663c-0.188-0.229-0.434-0.343-0.735-0.343c-0.272,0-0.502,0.091-0.688,0.273
			S160.824,58.315,160.804,58.62z"/>
		<path style="fill:#2C6882;" d="M164.004,60.998l0.577,0.086c0.023,0.178,0.091,0.308,0.201,0.39
			c0.146,0.109,0.348,0.164,0.604,0.164c0.274,0,0.486-0.055,0.637-0.164c0.149-0.11,0.25-0.265,0.303-0.462
			c0.031-0.121,0.045-0.375,0.043-0.762c-0.26,0.306-0.583,0.458-0.97,0.458c-0.481,0-0.854-0.174-1.118-0.521
			c-0.264-0.347-0.396-0.764-0.396-1.25c0-0.334,0.061-0.643,0.182-0.925c0.12-0.282,0.296-0.501,0.525-0.655
			c0.23-0.153,0.5-0.23,0.811-0.23c0.413,0,0.754,0.167,1.022,0.501v-0.422h0.547v3.028c0,0.545-0.056,0.932-0.166,1.159
			c-0.111,0.228-0.287,0.407-0.528,0.539c-0.24,0.132-0.537,0.198-0.889,0.198c-0.418,0-0.755-0.095-1.013-0.282
			C164.119,61.659,163.994,61.376,164.004,60.998z M164.495,58.894c0,0.46,0.091,0.795,0.273,1.007
			c0.183,0.211,0.411,0.316,0.687,0.316c0.272,0,0.501-0.105,0.686-0.315s0.277-0.539,0.277-0.987c0-0.429-0.096-0.752-0.285-0.97
			c-0.19-0.218-0.42-0.327-0.688-0.327c-0.264,0-0.487,0.107-0.673,0.322C164.587,58.153,164.495,58.472,164.495,58.894z"/>
		<path style="fill:#2C6882;" d="M167.872,56.556v-0.683h0.594v0.683H167.872z M167.872,60.708v-3.503h0.594v3.503H167.872z"/>
		<path style="fill:#2C6882;" d="M169.133,59.662l0.587-0.092c0.033,0.235,0.125,0.415,0.275,0.541
			c0.15,0.125,0.361,0.188,0.632,0.188c0.272,0,0.475-0.056,0.606-0.166c0.132-0.111,0.198-0.241,0.198-0.392
			c0-0.134-0.059-0.239-0.175-0.316c-0.081-0.053-0.284-0.12-0.607-0.201c-0.435-0.109-0.736-0.205-0.905-0.285
			c-0.168-0.08-0.296-0.191-0.382-0.333c-0.087-0.142-0.131-0.299-0.131-0.47c0-0.156,0.036-0.301,0.107-0.435
			c0.071-0.133,0.169-0.243,0.292-0.331c0.092-0.068,0.218-0.126,0.378-0.173c0.159-0.048,0.33-0.071,0.513-0.071
			c0.274,0,0.516,0.04,0.724,0.119s0.361,0.186,0.46,0.321c0.1,0.135,0.167,0.316,0.205,0.543l-0.581,0.079
			c-0.026-0.181-0.103-0.321-0.229-0.423c-0.126-0.101-0.305-0.151-0.535-0.151c-0.273,0-0.468,0.045-0.584,0.135
			c-0.117,0.091-0.175,0.196-0.175,0.317c0,0.076,0.024,0.146,0.072,0.207c0.049,0.064,0.124,0.117,0.228,0.159
			c0.06,0.021,0.234,0.072,0.524,0.151c0.42,0.112,0.713,0.204,0.879,0.275s0.297,0.175,0.392,0.312
			c0.094,0.137,0.142,0.306,0.142,0.508c0,0.198-0.058,0.385-0.174,0.56c-0.115,0.175-0.281,0.31-0.499,0.405
			s-0.464,0.144-0.739,0.144c-0.455,0-0.802-0.095-1.04-0.283C169.351,60.315,169.198,60.034,169.133,59.662z"/>
		<path style="fill:#2C6882;" d="M174.044,60.177l0.086,0.524c-0.167,0.035-0.316,0.053-0.448,0.053
			c-0.216,0-0.383-0.034-0.502-0.102c-0.118-0.068-0.202-0.158-0.25-0.27c-0.049-0.11-0.073-0.345-0.073-0.7v-2.016h-0.435v-0.462
			h0.435v-0.867l0.591-0.356v1.224h0.597v0.462h-0.597v2.048c0,0.17,0.011,0.278,0.031,0.327c0.021,0.048,0.055,0.087,0.103,0.115
			c0.047,0.028,0.114,0.043,0.202,0.043C173.85,60.2,173.937,60.192,174.044,60.177z"/>
		<path style="fill:#2C6882;" d="M174.617,60.708v-3.503h0.534v0.531c0.137-0.249,0.263-0.412,0.378-0.491s0.242-0.119,0.381-0.119
			c0.2,0,0.403,0.063,0.61,0.191l-0.204,0.551c-0.146-0.086-0.291-0.129-0.436-0.129c-0.13,0-0.246,0.039-0.35,0.117
			s-0.177,0.187-0.222,0.325c-0.065,0.211-0.099,0.441-0.099,0.692v1.834H174.617z"/>
		<path style="fill:#2C6882;" d="M179.16,60.276c-0.221,0.187-0.432,0.318-0.636,0.396c-0.203,0.077-0.421,0.115-0.654,0.115
			c-0.385,0-0.681-0.094-0.888-0.282c-0.206-0.188-0.31-0.428-0.31-0.721c0-0.171,0.039-0.328,0.117-0.47s0.18-0.256,0.307-0.342
			c0.126-0.085,0.269-0.15,0.427-0.194c0.117-0.03,0.293-0.061,0.528-0.089c0.479-0.058,0.832-0.125,1.059-0.204
			c0.002-0.082,0.003-0.134,0.003-0.155c0-0.242-0.056-0.412-0.168-0.512c-0.151-0.134-0.377-0.201-0.676-0.201
			c-0.279,0-0.485,0.049-0.619,0.147c-0.133,0.098-0.231,0.271-0.295,0.52l-0.58-0.08c0.053-0.248,0.14-0.448,0.26-0.602
			c0.121-0.152,0.296-0.271,0.524-0.353c0.229-0.083,0.494-0.124,0.795-0.124c0.3,0,0.542,0.035,0.729,0.105
			c0.187,0.07,0.324,0.159,0.412,0.266s0.149,0.241,0.185,0.404c0.02,0.101,0.03,0.283,0.03,0.547v0.792
			c0,0.552,0.013,0.901,0.037,1.047c0.025,0.146,0.076,0.287,0.15,0.421h-0.62C179.217,60.585,179.178,60.441,179.16,60.276z
			 M179.11,58.95c-0.216,0.088-0.539,0.162-0.97,0.224c-0.244,0.036-0.417,0.075-0.518,0.119c-0.102,0.044-0.18,0.108-0.234,0.193
			c-0.055,0.084-0.083,0.179-0.083,0.281c0,0.159,0.061,0.291,0.18,0.396c0.12,0.105,0.296,0.158,0.526,0.158
			c0.229,0,0.433-0.05,0.61-0.15c0.178-0.1,0.309-0.236,0.393-0.41c0.063-0.135,0.096-0.332,0.096-0.594V58.95z"/>
		<path style="fill:#2C6882;" d="M180.624,60.708v-3.503h0.534v0.531c0.137-0.249,0.263-0.412,0.378-0.491s0.242-0.119,0.381-0.119
			c0.2,0,0.403,0.063,0.61,0.191l-0.204,0.551c-0.146-0.086-0.291-0.129-0.436-0.129c-0.13,0-0.246,0.039-0.35,0.117
			s-0.177,0.187-0.222,0.325c-0.065,0.211-0.099,0.441-0.099,0.692v1.834H180.624z"/>
		<path style="fill:#2C6882;" d="M159.261,66.275l0.583,0.076c-0.063,0.402-0.227,0.717-0.489,0.944
			c-0.263,0.229-0.586,0.342-0.968,0.342c-0.479,0-0.865-0.156-1.156-0.47c-0.292-0.313-0.438-0.763-0.438-1.348
			c0-0.378,0.063-0.709,0.188-0.993c0.125-0.283,0.315-0.496,0.572-0.638c0.256-0.142,0.534-0.213,0.836-0.213
			c0.38,0,0.691,0.097,0.934,0.289c0.241,0.192,0.396,0.465,0.465,0.819l-0.577,0.089c-0.055-0.235-0.152-0.412-0.292-0.531
			c-0.14-0.118-0.309-0.178-0.506-0.178c-0.3,0-0.543,0.107-0.729,0.321c-0.187,0.215-0.28,0.554-0.28,1.018
			c0,0.471,0.09,0.813,0.271,1.026c0.181,0.213,0.416,0.319,0.706,0.319c0.232,0,0.428-0.071,0.584-0.214
			C159.119,66.791,159.219,66.571,159.261,66.275z"/>
		<path style="fill:#2C6882;" d="M160.132,65.807c0-0.649,0.18-1.13,0.541-1.441c0.301-0.26,0.668-0.39,1.102-0.39
			c0.481,0,0.875,0.158,1.181,0.474s0.458,0.751,0.458,1.308c0,0.45-0.067,0.806-0.202,1.063c-0.136,0.259-0.332,0.459-0.591,0.603
			c-0.259,0.143-0.54,0.214-0.846,0.214c-0.49,0-0.887-0.157-1.189-0.472S160.132,66.398,160.132,65.807z M160.742,65.807
			c0,0.448,0.098,0.784,0.293,1.007c0.195,0.224,0.442,0.335,0.739,0.335c0.294,0,0.539-0.112,0.735-0.336
			c0.195-0.225,0.293-0.566,0.293-1.026c0-0.433-0.098-0.761-0.295-0.984c-0.196-0.223-0.441-0.335-0.733-0.335
			c-0.297,0-0.544,0.111-0.739,0.333C160.84,65.023,160.742,65.358,160.742,65.807z"/>
		<path style="fill:#2C6882;" d="M164.109,67.558v-3.503h0.534v0.498c0.258-0.385,0.629-0.577,1.115-0.577
			c0.211,0,0.405,0.038,0.582,0.114c0.177,0.075,0.31,0.175,0.397,0.298s0.149,0.27,0.185,0.438c0.021,0.11,0.033,0.303,0.033,0.577
			v2.154h-0.594v-2.131c0-0.242-0.023-0.423-0.069-0.542c-0.046-0.12-0.128-0.216-0.246-0.287c-0.117-0.071-0.256-0.107-0.414-0.107
			c-0.253,0-0.471,0.08-0.654,0.24c-0.184,0.161-0.275,0.466-0.275,0.914v1.913H164.109z"/>
		<path style="fill:#2C6882;" d="M169.161,67.026l0.086,0.524c-0.167,0.035-0.316,0.053-0.448,0.053
			c-0.216,0-0.383-0.034-0.502-0.102c-0.118-0.068-0.202-0.158-0.25-0.27c-0.049-0.11-0.073-0.345-0.073-0.7v-2.016h-0.435v-0.462
			h0.435v-0.867l0.591-0.356v1.224h0.597v0.462h-0.597v2.048c0,0.17,0.011,0.278,0.031,0.327c0.021,0.048,0.055,0.087,0.103,0.115
			c0.047,0.028,0.114,0.043,0.202,0.043C168.967,67.05,169.054,67.042,169.161,67.026z"/>
		<path style="fill:#2C6882;" d="M169.735,67.558v-3.503h0.534v0.531c0.137-0.249,0.263-0.412,0.378-0.491s0.242-0.119,0.381-0.119
			c0.2,0,0.403,0.063,0.61,0.191l-0.204,0.551c-0.146-0.086-0.291-0.129-0.436-0.129c-0.13,0-0.246,0.039-0.35,0.117
			s-0.177,0.187-0.222,0.325c-0.065,0.211-0.099,0.441-0.099,0.692v1.834H169.735z"/>
		<path style="fill:#2C6882;" d="M174.278,67.126c-0.221,0.187-0.432,0.318-0.636,0.396c-0.203,0.077-0.421,0.115-0.654,0.115
			c-0.385,0-0.681-0.094-0.888-0.282c-0.206-0.188-0.31-0.428-0.31-0.721c0-0.171,0.039-0.328,0.117-0.47s0.18-0.256,0.307-0.342
			c0.126-0.085,0.269-0.15,0.427-0.194c0.117-0.03,0.293-0.061,0.528-0.089c0.479-0.058,0.832-0.125,1.059-0.204
			c0.002-0.082,0.003-0.134,0.003-0.155c0-0.242-0.056-0.412-0.168-0.512c-0.151-0.134-0.377-0.201-0.676-0.201
			c-0.279,0-0.485,0.049-0.619,0.147c-0.133,0.098-0.231,0.271-0.295,0.52l-0.58-0.08c0.053-0.248,0.14-0.448,0.26-0.602
			c0.121-0.152,0.296-0.271,0.524-0.353c0.229-0.083,0.494-0.124,0.795-0.124c0.3,0,0.542,0.035,0.729,0.105
			c0.187,0.07,0.324,0.159,0.412,0.266s0.149,0.241,0.185,0.404c0.02,0.101,0.03,0.283,0.03,0.547v0.792
			c0,0.552,0.013,0.901,0.037,1.047c0.025,0.146,0.076,0.287,0.15,0.421h-0.62C174.335,67.435,174.296,67.29,174.278,67.126z
			 M174.229,65.8c-0.216,0.088-0.539,0.162-0.97,0.224c-0.244,0.036-0.417,0.075-0.518,0.119c-0.102,0.044-0.18,0.108-0.234,0.193
			c-0.055,0.084-0.083,0.179-0.083,0.281c0,0.159,0.061,0.291,0.18,0.396c0.12,0.105,0.296,0.158,0.526,0.158
			c0.229,0,0.433-0.05,0.61-0.15c0.178-0.1,0.309-0.236,0.393-0.41c0.063-0.135,0.096-0.332,0.096-0.594V65.8z"/>
		<path style="fill:#2C6882;" d="M177.045,67.026l0.086,0.524c-0.167,0.035-0.316,0.053-0.448,0.053
			c-0.216,0-0.383-0.034-0.502-0.102c-0.118-0.068-0.202-0.158-0.25-0.27c-0.049-0.11-0.073-0.345-0.073-0.7v-2.016h-0.435v-0.462
			h0.435v-0.867l0.591-0.356v1.224h0.597v0.462h-0.597v2.048c0,0.17,0.011,0.278,0.031,0.327c0.021,0.048,0.055,0.087,0.103,0.115
			c0.047,0.028,0.114,0.043,0.202,0.043C176.851,67.05,176.938,67.042,177.045,67.026z"/>
		<path style="fill:#2C6882;" d="M177.405,65.807c0-0.649,0.18-1.13,0.541-1.441c0.301-0.26,0.668-0.39,1.102-0.39
			c0.481,0,0.875,0.158,1.181,0.474s0.458,0.751,0.458,1.308c0,0.45-0.067,0.806-0.202,1.063c-0.136,0.259-0.332,0.459-0.591,0.603
			c-0.259,0.143-0.54,0.214-0.846,0.214c-0.49,0-0.887-0.157-1.189-0.472S177.405,66.398,177.405,65.807z M178.016,65.807
			c0,0.448,0.098,0.784,0.293,1.007c0.195,0.224,0.442,0.335,0.739,0.335c0.294,0,0.539-0.112,0.735-0.336
			c0.195-0.225,0.293-0.566,0.293-1.026c0-0.433-0.098-0.761-0.295-0.984c-0.196-0.223-0.441-0.335-0.733-0.335
			c-0.297,0-0.544,0.111-0.739,0.333C178.113,65.023,178.016,65.358,178.016,65.807z"/>
	</g>
	<g>
		<path style="fill:#0F1317;" d="M199.516,89.58v-5.122h0.723l1.641,2.592c0.38,0.601,0.677,1.14,0.92,1.664l0.015-0.008
			c-0.061-0.684-0.075-1.307-0.075-2.104v-2.144h0.623v5.122h-0.669l-1.626-2.599c-0.357-0.57-0.699-1.155-0.958-1.71l-0.022,0.008
			c0.038,0.646,0.053,1.261,0.053,2.112v2.188H199.516z"/>
		<path style="fill:#0F1317;" d="M207.821,87.711c0,1.36-0.942,1.953-1.831,1.953c-0.995,0-1.763-0.729-1.763-1.893
			c0-1.231,0.806-1.953,1.823-1.953C207.107,85.818,207.821,86.586,207.821,87.711z M204.903,87.749
			c0,0.806,0.464,1.413,1.117,1.413c0.639,0,1.117-0.601,1.117-1.429c0-0.623-0.312-1.413-1.102-1.413
			C205.245,86.32,204.903,87.05,204.903,87.749z"/>
	</g>
	<g>
		<path style="fill:#0F1317;" d="M172.864,113.625c0.296,0.183,0.729,0.335,1.186,0.335c0.676,0,1.071-0.357,1.071-0.874
			c0-0.479-0.273-0.753-0.965-1.019c-0.836-0.296-1.353-0.729-1.353-1.451c0-0.798,0.661-1.391,1.656-1.391
			c0.524,0,0.904,0.121,1.132,0.251l-0.182,0.539c-0.167-0.091-0.51-0.243-0.973-0.243c-0.699,0-0.965,0.418-0.965,0.768
			c0,0.479,0.312,0.714,1.018,0.988c0.866,0.334,1.308,0.752,1.308,1.504c0,0.791-0.586,1.475-1.794,1.475
			c-0.494,0-1.033-0.145-1.307-0.327L172.864,113.625z"/>
		<path style="fill:#0F1317;" d="M177.424,109.72c0.007,0.228-0.16,0.41-0.426,0.41c-0.235,0-0.403-0.183-0.403-0.41
			c0-0.236,0.175-0.418,0.418-0.418C177.264,109.302,177.424,109.484,177.424,109.72z M176.679,114.431v-3.678h0.669v3.678H176.679z
			"/>
	</g>
	<polyline style="fill:none;stroke:#0F1317;stroke-width:1.038;stroke-miterlimit:10;" points="193.848,91.447 209.889,91.447 
		209.889,95.424 	"/>
	
		<line style="fill:none;stroke:#0F1317;stroke-width:1.038;stroke-miterlimit:10;" x1="168.471" y1="106.626" x2="168.471" y2="119.198"/>
	
		<line style="fill:none;stroke:#0F1317;stroke-width:1.038;stroke-miterlimit:10;" x1="168.471" y1="141.373" x2="168.471" y2="143.207"/>
	
		<line style="fill:none;stroke:#0F1317;stroke-width:1.038;stroke-miterlimit:10;" x1="168.471" y1="71.339" x2="168.471" y2="73.813"/>
	
		<line style="fill:none;stroke:#0F1317;stroke-width:1.038;stroke-miterlimit:10;" x1="168.471" y1="45.737" x2="168.471" y2="49.166"/>
	
		<line style="fill:none;stroke:#0F1317;stroke-width:1.038;stroke-miterlimit:10;" x1="168.471" y1="165.38" x2="168.471" y2="167.211"/>
	
		<line style="fill:none;stroke:#0F1317;stroke-width:1.038;stroke-miterlimit:10;" x1="168.471" y1="189.381" x2="168.471" y2="193.191"/>
	<path style="fill:#0F1317;" d="M168.471,76.264c-0.426-1.153-1.158-2.584-1.932-3.47l1.932,0.697l1.932-0.697
		C169.629,73.68,168.899,75.111,168.471,76.264"/>
	<path style="fill:#0F1317;" d="M168.471,51.616c-0.426-1.154-1.158-2.584-1.932-3.472l1.932,0.7l1.932-0.7
		C169.629,49.032,168.899,50.462,168.471,51.616"/>
	<path style="fill:#0F1317;" d="M168.471,121.651c-0.426-1.154-1.158-2.586-1.932-3.472l1.932,0.697l1.932-0.697
		C169.629,119.065,168.899,120.497,168.471,121.651"/>
	<path style="fill:#0F1317;" d="M209.889,97.876c-0.428-1.152-1.158-2.584-1.932-3.47l1.932,0.698l1.932-0.698
		C211.047,95.292,210.317,96.723,209.889,97.876"/>
	<path style="fill:#0F1317;" d="M168.471,145.659c-0.426-1.154-1.158-2.586-1.932-3.47l1.932,0.697l1.932-0.697
		C169.629,143.073,168.899,144.505,168.471,145.659"/>
	<path style="fill:#0F1317;" d="M168.471,169.663c-0.426-1.155-1.158-2.586-1.932-3.472l1.932,0.699l1.932-0.699
		C169.629,167.077,168.899,168.508,168.471,169.663"/>
	<path style="fill:#0F1317;" d="M168.471,195.643c-0.426-1.155-1.158-2.584-1.932-3.472l1.932,0.698l1.932-0.698
		C169.629,193.059,168.899,194.488,168.471,195.643"/>
	<g>
		<path style="fill:#2C6882;" d="M156.708,90.605l1.856-4.835h0.689l1.979,4.835h-0.729l-0.563-1.465h-2.022l-0.53,1.465H156.708z
			 M158.104,88.619h1.639l-0.505-1.34c-0.153-0.406-0.268-0.74-0.343-1.002c-0.062,0.31-0.148,0.617-0.261,0.923L158.104,88.619z"/>
		<path style="fill:#2C6882;" d="M161.669,91.947v-4.846h0.541v0.455c0.127-0.178,0.271-0.312,0.432-0.4
			c0.161-0.089,0.355-0.134,0.584-0.134c0.299,0,0.563,0.077,0.792,0.23c0.229,0.154,0.401,0.371,0.518,0.652
			c0.116,0.28,0.175,0.587,0.175,0.922c0,0.358-0.064,0.681-0.193,0.968c-0.128,0.287-0.315,0.507-0.561,0.659
			c-0.245,0.153-0.503,0.229-0.773,0.229c-0.197,0-0.375-0.042-0.532-0.125c-0.157-0.084-0.287-0.189-0.388-0.317v1.706H161.669z
			 M162.206,88.873c0,0.45,0.092,0.784,0.274,0.999c0.183,0.216,0.403,0.323,0.663,0.323c0.264,0,0.489-0.111,0.678-0.335
			c0.188-0.223,0.282-0.568,0.282-1.037c0-0.446-0.092-0.78-0.275-1.003c-0.184-0.222-0.403-0.333-0.658-0.333
			c-0.253,0-0.477,0.118-0.672,0.354C162.304,88.078,162.206,88.422,162.206,88.873z"/>
		<path style="fill:#2C6882;" d="M165.419,90.605v-3.503h0.534v0.531c0.137-0.249,0.263-0.412,0.378-0.491s0.242-0.119,0.381-0.119
			c0.2,0,0.403,0.063,0.61,0.191l-0.204,0.551c-0.146-0.086-0.291-0.129-0.436-0.129c-0.13,0-0.246,0.039-0.35,0.117
			s-0.177,0.187-0.222,0.325c-0.065,0.211-0.099,0.441-0.099,0.692v1.834H165.419z"/>
		<path style="fill:#2C6882;" d="M167.454,88.854c0-0.649,0.18-1.13,0.541-1.441c0.301-0.26,0.668-0.39,1.102-0.39
			c0.481,0,0.875,0.158,1.181,0.474s0.458,0.751,0.458,1.308c0,0.45-0.067,0.806-0.202,1.063c-0.136,0.259-0.332,0.459-0.591,0.603
			c-0.259,0.143-0.54,0.214-0.846,0.214c-0.49,0-0.887-0.157-1.189-0.472S167.454,89.444,167.454,88.854z M168.065,88.854
			c0,0.448,0.098,0.784,0.293,1.007c0.195,0.224,0.442,0.335,0.739,0.335c0.294,0,0.539-0.112,0.735-0.336
			c0.195-0.225,0.293-0.566,0.293-1.026c0-0.433-0.098-0.761-0.295-0.984c-0.196-0.223-0.441-0.335-0.733-0.335
			c-0.297,0-0.544,0.111-0.739,0.333C168.162,88.069,168.065,88.404,168.065,88.854z"/>
		<path style="fill:#2C6882;" d="M171.98,90.605h-0.551V85.77h0.594v1.725c0.25-0.314,0.57-0.472,0.959-0.472
			c0.216,0,0.42,0.044,0.612,0.13c0.192,0.087,0.351,0.209,0.475,0.366s0.222,0.348,0.292,0.569s0.105,0.46,0.105,0.713
			c0,0.6-0.148,1.063-0.445,1.392c-0.297,0.327-0.652,0.491-1.068,0.491c-0.413,0-0.737-0.173-0.973-0.518V90.605z M171.973,88.827
			c0,0.42,0.057,0.723,0.172,0.91c0.187,0.306,0.439,0.458,0.758,0.458c0.26,0,0.484-0.112,0.673-0.338
			c0.189-0.226,0.284-0.562,0.284-1.008c0-0.457-0.091-0.795-0.272-1.013s-0.4-0.326-0.658-0.326c-0.259,0-0.483,0.112-0.673,0.338
			C172.067,88.074,171.973,88.401,171.973,88.827z"/>
		<path style="fill:#2C6882;" d="M177.475,90.173c-0.221,0.187-0.432,0.318-0.636,0.396c-0.203,0.077-0.421,0.115-0.654,0.115
			c-0.385,0-0.681-0.094-0.888-0.282c-0.206-0.188-0.31-0.428-0.31-0.721c0-0.171,0.039-0.328,0.117-0.47s0.18-0.256,0.307-0.342
			c0.126-0.085,0.269-0.15,0.427-0.194c0.117-0.03,0.293-0.061,0.528-0.089c0.479-0.058,0.832-0.125,1.059-0.204
			c0.002-0.082,0.003-0.134,0.003-0.155c0-0.242-0.056-0.412-0.168-0.512c-0.151-0.134-0.377-0.201-0.676-0.201
			c-0.279,0-0.485,0.049-0.619,0.147c-0.133,0.098-0.231,0.271-0.295,0.52l-0.58-0.08c0.053-0.248,0.14-0.448,0.26-0.602
			c0.121-0.152,0.296-0.271,0.524-0.353c0.229-0.083,0.494-0.124,0.795-0.124c0.3,0,0.542,0.035,0.729,0.105
			c0.187,0.07,0.324,0.159,0.412,0.266s0.149,0.241,0.185,0.404c0.02,0.101,0.03,0.283,0.03,0.547v0.792
			c0,0.552,0.013,0.901,0.037,1.047c0.025,0.146,0.076,0.287,0.15,0.421h-0.62C177.531,90.482,177.492,90.337,177.475,90.173z
			 M177.425,88.847c-0.216,0.088-0.539,0.162-0.97,0.224c-0.244,0.036-0.417,0.075-0.518,0.119c-0.102,0.044-0.18,0.108-0.234,0.193
			c-0.055,0.084-0.083,0.179-0.083,0.281c0,0.159,0.061,0.291,0.18,0.396c0.12,0.105,0.296,0.158,0.526,0.158
			c0.229,0,0.433-0.05,0.61-0.15c0.178-0.1,0.309-0.236,0.393-0.41c0.063-0.135,0.096-0.332,0.096-0.594V88.847z"/>
		<path style="fill:#2C6882;" d="M178.939,90.605v-3.503h0.534v0.531c0.137-0.249,0.263-0.412,0.378-0.491s0.242-0.119,0.381-0.119
			c0.2,0,0.403,0.063,0.61,0.191l-0.204,0.551c-0.146-0.086-0.291-0.129-0.436-0.129c-0.13,0-0.246,0.039-0.35,0.117
			s-0.177,0.187-0.222,0.325c-0.065,0.211-0.099,0.441-0.099,0.692v1.834H178.939z"/>
		<path style="fill:#2C6882;" d="M159.261,96.171l0.583,0.076c-0.063,0.402-0.227,0.717-0.489,0.944
			c-0.263,0.229-0.586,0.342-0.968,0.342c-0.479,0-0.865-0.156-1.156-0.47c-0.292-0.313-0.438-0.763-0.438-1.348
			c0-0.378,0.063-0.709,0.188-0.993c0.125-0.283,0.315-0.496,0.572-0.638c0.256-0.142,0.534-0.213,0.836-0.213
			c0.38,0,0.691,0.097,0.934,0.289c0.241,0.192,0.396,0.465,0.465,0.819l-0.577,0.089c-0.055-0.235-0.152-0.412-0.292-0.531
			c-0.14-0.118-0.309-0.178-0.506-0.178c-0.3,0-0.543,0.107-0.729,0.321c-0.187,0.215-0.28,0.554-0.28,1.018
			c0,0.471,0.09,0.813,0.271,1.026c0.181,0.213,0.416,0.319,0.706,0.319c0.232,0,0.428-0.071,0.584-0.214
			C159.119,96.688,159.219,96.468,159.261,96.171z"/>
		<path style="fill:#2C6882;" d="M160.132,95.703c0-0.649,0.18-1.13,0.541-1.441c0.301-0.26,0.668-0.39,1.102-0.39
			c0.481,0,0.875,0.158,1.181,0.474s0.458,0.751,0.458,1.308c0,0.45-0.067,0.806-0.202,1.063c-0.136,0.259-0.332,0.459-0.591,0.603
			c-0.259,0.143-0.54,0.214-0.846,0.214c-0.49,0-0.887-0.157-1.189-0.472S160.132,96.294,160.132,95.703z M160.742,95.703
			c0,0.448,0.098,0.784,0.293,1.007c0.195,0.224,0.442,0.335,0.739,0.335c0.294,0,0.539-0.112,0.735-0.336
			c0.195-0.225,0.293-0.566,0.293-1.026c0-0.433-0.098-0.761-0.295-0.984c-0.196-0.223-0.441-0.335-0.733-0.335
			c-0.297,0-0.544,0.111-0.739,0.333C160.84,94.919,160.742,95.254,160.742,95.703z"/>
		<path style="fill:#2C6882;" d="M164.109,97.454v-3.503h0.534v0.498c0.258-0.385,0.629-0.577,1.115-0.577
			c0.211,0,0.405,0.038,0.582,0.114c0.177,0.075,0.31,0.175,0.397,0.298s0.149,0.27,0.185,0.438c0.021,0.11,0.033,0.303,0.033,0.577
			v2.154h-0.594v-2.131c0-0.242-0.023-0.423-0.069-0.542c-0.046-0.12-0.128-0.216-0.246-0.287c-0.117-0.071-0.256-0.107-0.414-0.107
			c-0.253,0-0.471,0.08-0.654,0.24c-0.184,0.161-0.275,0.466-0.275,0.914v1.913H164.109z"/>
		<path style="fill:#2C6882;" d="M169.161,96.923l0.086,0.524c-0.167,0.035-0.316,0.053-0.448,0.053
			c-0.216,0-0.383-0.034-0.502-0.102c-0.118-0.068-0.202-0.158-0.25-0.27c-0.049-0.11-0.073-0.345-0.073-0.7v-2.016h-0.435v-0.462
			h0.435v-0.867l0.591-0.356v1.224h0.597v0.462h-0.597v2.048c0,0.17,0.011,0.278,0.031,0.327c0.021,0.048,0.055,0.087,0.103,0.115
			c0.047,0.028,0.114,0.043,0.202,0.043C168.967,96.946,169.054,96.939,169.161,96.923z"/>
		<path style="fill:#2C6882;" d="M169.735,97.454v-3.503h0.534v0.531c0.137-0.249,0.263-0.412,0.378-0.491s0.242-0.119,0.381-0.119
			c0.2,0,0.403,0.063,0.61,0.191l-0.204,0.551c-0.146-0.086-0.291-0.129-0.436-0.129c-0.13,0-0.246,0.039-0.35,0.117
			s-0.177,0.187-0.222,0.325c-0.065,0.211-0.099,0.441-0.099,0.692v1.834H169.735z"/>
		<path style="fill:#2C6882;" d="M174.278,97.023c-0.221,0.187-0.432,0.318-0.636,0.396c-0.203,0.077-0.421,0.115-0.654,0.115
			c-0.385,0-0.681-0.094-0.888-0.282c-0.206-0.188-0.31-0.428-0.31-0.721c0-0.171,0.039-0.328,0.117-0.47s0.18-0.256,0.307-0.342
			c0.126-0.085,0.269-0.15,0.427-0.194c0.117-0.03,0.293-0.061,0.528-0.089c0.479-0.058,0.832-0.125,1.059-0.204
			c0.002-0.082,0.003-0.134,0.003-0.155c0-0.242-0.056-0.412-0.168-0.512c-0.151-0.134-0.377-0.201-0.676-0.201
			c-0.279,0-0.485,0.049-0.619,0.147c-0.133,0.098-0.231,0.271-0.295,0.52l-0.58-0.08c0.053-0.248,0.14-0.448,0.26-0.602
			c0.121-0.152,0.296-0.271,0.524-0.353c0.229-0.083,0.494-0.124,0.795-0.124c0.3,0,0.542,0.035,0.729,0.105
			c0.187,0.07,0.324,0.159,0.412,0.266s0.149,0.241,0.185,0.404c0.02,0.101,0.03,0.283,0.03,0.547v0.792
			c0,0.552,0.013,0.901,0.037,1.047c0.025,0.146,0.076,0.287,0.15,0.421h-0.62C174.335,97.331,174.296,97.187,174.278,97.023z
			 M174.229,95.696c-0.216,0.088-0.539,0.162-0.97,0.224c-0.244,0.036-0.417,0.075-0.518,0.119c-0.102,0.044-0.18,0.108-0.234,0.193
			c-0.055,0.084-0.083,0.179-0.083,0.281c0,0.159,0.061,0.291,0.18,0.396c0.12,0.105,0.296,0.158,0.526,0.158
			c0.229,0,0.433-0.05,0.61-0.15c0.178-0.1,0.309-0.236,0.393-0.41c0.063-0.135,0.096-0.332,0.096-0.594V95.696z"/>
		<path style="fill:#2C6882;" d="M177.045,96.923l0.086,0.524c-0.167,0.035-0.316,0.053-0.448,0.053
			c-0.216,0-0.383-0.034-0.502-0.102c-0.118-0.068-0.202-0.158-0.25-0.27c-0.049-0.11-0.073-0.345-0.073-0.7v-2.016h-0.435v-0.462
			h0.435v-0.867l0.591-0.356v1.224h0.597v0.462h-0.597v2.048c0,0.17,0.011,0.278,0.031,0.327c0.021,0.048,0.055,0.087,0.103,0.115
			c0.047,0.028,0.114,0.043,0.202,0.043C176.851,96.946,176.938,96.939,177.045,96.923z"/>
		<path style="fill:#2C6882;" d="M177.405,95.703c0-0.649,0.18-1.13,0.541-1.441c0.301-0.26,0.668-0.39,1.102-0.39
			c0.481,0,0.875,0.158,1.181,0.474s0.458,0.751,0.458,1.308c0,0.45-0.067,0.806-0.202,1.063c-0.136,0.259-0.332,0.459-0.591,0.603
			c-0.259,0.143-0.54,0.214-0.846,0.214c-0.49,0-0.887-0.157-1.189-0.472S177.405,96.294,177.405,95.703z M178.016,95.703
			c0,0.448,0.098,0.784,0.293,1.007c0.195,0.224,0.442,0.335,0.739,0.335c0.294,0,0.539-0.112,0.735-0.336
			c0.195-0.225,0.293-0.566,0.293-1.026c0-0.433-0.098-0.761-0.295-0.984c-0.196-0.223-0.441-0.335-0.733-0.335
			c-0.297,0-0.544,0.111-0.739,0.333C178.113,94.919,178.016,95.254,178.016,95.703z"/>
	</g>
	<g>
		<path style="fill:#2C6882;" d="M155.564,130.073v-4.835h2.144c0.431,0,0.759,0.043,0.983,0.13c0.224,0.087,0.403,0.24,0.537,0.46
			c0.135,0.22,0.201,0.463,0.201,0.729c0,0.343-0.111,0.632-0.333,0.867s-0.565,0.385-1.029,0.448
			c0.17,0.082,0.298,0.162,0.386,0.241c0.188,0.171,0.364,0.386,0.531,0.643l0.842,1.316h-0.806l-0.64-1.006
			c-0.187-0.29-0.341-0.513-0.462-0.666c-0.121-0.154-0.229-0.262-0.324-0.323s-0.193-0.104-0.292-0.129
			c-0.073-0.016-0.191-0.023-0.356-0.023h-0.742v2.147H155.564z M156.203,127.372h1.375c0.293,0,0.521-0.03,0.687-0.091
			s0.29-0.157,0.376-0.29s0.129-0.278,0.129-0.434c0-0.229-0.083-0.417-0.249-0.564s-0.429-0.221-0.787-0.221h-1.53V127.372z"/>
		<path style="fill:#2C6882;" d="M162.753,128.945l0.614,0.076c-0.097,0.358-0.276,0.636-0.538,0.834s-0.596,0.297-1.003,0.297
			c-0.512,0-0.918-0.157-1.219-0.474c-0.3-0.315-0.45-0.758-0.45-1.327c0-0.589,0.152-1.047,0.455-1.372
			c0.304-0.325,0.697-0.488,1.182-0.488c0.468,0,0.851,0.159,1.147,0.479c0.297,0.318,0.445,0.768,0.445,1.346
			c0,0.035-0.001,0.088-0.003,0.158h-2.612c0.021,0.385,0.13,0.68,0.326,0.884c0.195,0.204,0.439,0.307,0.732,0.307
			c0.218,0,0.403-0.057,0.558-0.171C162.541,129.379,162.663,129.196,162.753,128.945z M160.804,127.985h1.956
			c-0.026-0.295-0.101-0.516-0.225-0.663c-0.188-0.229-0.434-0.343-0.735-0.343c-0.272,0-0.502,0.091-0.688,0.273
			S160.824,127.68,160.804,127.985z"/>
		<path style="fill:#2C6882;" d="M164.004,130.363l0.577,0.086c0.023,0.178,0.091,0.308,0.201,0.39
			c0.146,0.109,0.348,0.164,0.604,0.164c0.274,0,0.486-0.055,0.637-0.164c0.149-0.11,0.25-0.265,0.303-0.462
			c0.031-0.121,0.045-0.375,0.043-0.762c-0.26,0.306-0.583,0.458-0.97,0.458c-0.481,0-0.854-0.174-1.118-0.521
			c-0.264-0.347-0.396-0.764-0.396-1.25c0-0.334,0.061-0.643,0.182-0.925c0.12-0.282,0.296-0.501,0.525-0.655
			c0.23-0.153,0.5-0.23,0.811-0.23c0.413,0,0.754,0.167,1.022,0.501v-0.422h0.547v3.028c0,0.545-0.056,0.932-0.166,1.159
			c-0.111,0.228-0.287,0.407-0.528,0.539c-0.24,0.132-0.537,0.198-0.889,0.198c-0.418,0-0.755-0.095-1.013-0.282
			C164.119,131.025,163.994,130.741,164.004,130.363z M164.495,128.259c0,0.46,0.091,0.795,0.273,1.007
			c0.183,0.211,0.411,0.316,0.687,0.316c0.272,0,0.501-0.105,0.686-0.315s0.277-0.539,0.277-0.987c0-0.429-0.096-0.752-0.285-0.97
			c-0.19-0.218-0.42-0.327-0.688-0.327c-0.264,0-0.487,0.107-0.673,0.322C164.587,127.519,164.495,127.837,164.495,128.259z"/>
		<path style="fill:#2C6882;" d="M167.872,125.921v-0.683h0.594v0.683H167.872z M167.872,130.073v-3.503h0.594v3.503H167.872z"/>
		<path style="fill:#2C6882;" d="M169.133,129.027l0.587-0.092c0.033,0.235,0.125,0.415,0.275,0.541
			c0.15,0.125,0.361,0.188,0.632,0.188c0.272,0,0.475-0.056,0.606-0.166c0.132-0.111,0.198-0.241,0.198-0.392
			c0-0.134-0.059-0.239-0.175-0.316c-0.081-0.053-0.284-0.12-0.607-0.201c-0.435-0.109-0.736-0.205-0.905-0.285
			c-0.168-0.08-0.296-0.191-0.382-0.333c-0.087-0.142-0.131-0.299-0.131-0.47c0-0.156,0.036-0.301,0.107-0.435
			c0.071-0.133,0.169-0.243,0.292-0.331c0.092-0.068,0.218-0.126,0.378-0.173c0.159-0.048,0.33-0.071,0.513-0.071
			c0.274,0,0.516,0.04,0.724,0.119s0.361,0.186,0.46,0.321c0.1,0.135,0.167,0.316,0.205,0.543l-0.581,0.079
			c-0.026-0.181-0.103-0.321-0.229-0.423c-0.126-0.101-0.305-0.151-0.535-0.151c-0.273,0-0.468,0.045-0.584,0.135
			c-0.117,0.091-0.175,0.196-0.175,0.317c0,0.076,0.024,0.146,0.072,0.207c0.049,0.064,0.124,0.117,0.228,0.159
			c0.06,0.021,0.234,0.072,0.524,0.151c0.42,0.112,0.713,0.204,0.879,0.275s0.297,0.175,0.392,0.312
			c0.094,0.137,0.142,0.306,0.142,0.508c0,0.198-0.058,0.385-0.174,0.56c-0.115,0.175-0.281,0.31-0.499,0.405
			s-0.464,0.144-0.739,0.144c-0.455,0-0.802-0.095-1.04-0.283C169.351,129.68,169.198,129.4,169.133,129.027z"/>
		<path style="fill:#2C6882;" d="M174.044,129.542l0.086,0.524c-0.167,0.035-0.316,0.053-0.448,0.053
			c-0.216,0-0.383-0.034-0.502-0.102c-0.118-0.068-0.202-0.158-0.25-0.27c-0.049-0.11-0.073-0.345-0.073-0.7v-2.016h-0.435v-0.462
			h0.435v-0.867l0.591-0.356v1.224h0.597v0.462h-0.597v2.048c0,0.17,0.011,0.278,0.031,0.327c0.021,0.048,0.055,0.087,0.103,0.115
			c0.047,0.028,0.114,0.043,0.202,0.043C173.85,129.566,173.937,129.558,174.044,129.542z"/>
		<path style="fill:#2C6882;" d="M174.617,130.073v-3.503h0.534v0.531c0.137-0.249,0.263-0.412,0.378-0.491s0.242-0.119,0.381-0.119
			c0.2,0,0.403,0.063,0.61,0.191l-0.204,0.551c-0.146-0.086-0.291-0.129-0.436-0.129c-0.13,0-0.246,0.039-0.35,0.117
			s-0.177,0.187-0.222,0.325c-0.065,0.211-0.099,0.441-0.099,0.692v1.834H174.617z"/>
		<path style="fill:#2C6882;" d="M179.16,129.642c-0.221,0.187-0.432,0.318-0.636,0.396c-0.203,0.077-0.421,0.115-0.654,0.115
			c-0.385,0-0.681-0.094-0.888-0.282c-0.206-0.188-0.31-0.428-0.31-0.721c0-0.171,0.039-0.328,0.117-0.47s0.18-0.256,0.307-0.342
			c0.126-0.085,0.269-0.15,0.427-0.194c0.117-0.03,0.293-0.061,0.528-0.089c0.479-0.058,0.832-0.125,1.059-0.204
			c0.002-0.082,0.003-0.134,0.003-0.155c0-0.242-0.056-0.412-0.168-0.512c-0.151-0.134-0.377-0.201-0.676-0.201
			c-0.279,0-0.485,0.049-0.619,0.147c-0.133,0.098-0.231,0.271-0.295,0.52l-0.58-0.08c0.053-0.248,0.14-0.448,0.26-0.602
			c0.121-0.152,0.296-0.271,0.524-0.353c0.229-0.083,0.494-0.124,0.795-0.124c0.3,0,0.542,0.035,0.729,0.105
			c0.187,0.07,0.324,0.159,0.412,0.266s0.149,0.241,0.185,0.404c0.02,0.101,0.03,0.283,0.03,0.547v0.792
			c0,0.552,0.013,0.901,0.037,1.047c0.025,0.146,0.076,0.287,0.15,0.421h-0.62C179.217,129.95,179.178,129.806,179.16,129.642z
			 M179.11,128.316c-0.216,0.088-0.539,0.162-0.97,0.224c-0.244,0.036-0.417,0.075-0.518,0.119c-0.102,0.044-0.18,0.108-0.234,0.193
			c-0.055,0.084-0.083,0.179-0.083,0.281c0,0.159,0.061,0.291,0.18,0.396c0.12,0.105,0.296,0.158,0.526,0.158
			c0.229,0,0.433-0.05,0.61-0.15c0.178-0.1,0.309-0.236,0.393-0.41c0.063-0.135,0.096-0.332,0.096-0.594V128.316z"/>
		<path style="fill:#2C6882;" d="M180.624,130.073v-3.503h0.534v0.531c0.137-0.249,0.263-0.412,0.378-0.491s0.242-0.119,0.381-0.119
			c0.2,0,0.403,0.063,0.61,0.191l-0.204,0.551c-0.146-0.086-0.291-0.129-0.436-0.129c-0.13,0-0.246,0.039-0.35,0.117
			s-0.177,0.187-0.222,0.325c-0.065,0.211-0.099,0.441-0.099,0.692v1.834H180.624z"/>
		<path style="fill:#2C6882;" d="M154.752,136.491c-0.221,0.187-0.432,0.318-0.636,0.396c-0.203,0.077-0.421,0.115-0.654,0.115
			c-0.385,0-0.681-0.094-0.888-0.282c-0.206-0.188-0.31-0.428-0.31-0.721c0-0.171,0.039-0.328,0.117-0.47s0.18-0.256,0.307-0.342
			c0.126-0.085,0.269-0.15,0.427-0.194c0.117-0.03,0.293-0.061,0.528-0.089c0.479-0.058,0.832-0.125,1.059-0.204
			c0.002-0.082,0.003-0.134,0.003-0.155c0-0.242-0.056-0.412-0.168-0.512c-0.151-0.134-0.377-0.201-0.676-0.201
			c-0.279,0-0.485,0.049-0.619,0.147c-0.133,0.098-0.231,0.271-0.295,0.52l-0.58-0.08c0.053-0.248,0.14-0.448,0.26-0.602
			c0.121-0.152,0.296-0.271,0.524-0.353c0.229-0.083,0.494-0.124,0.795-0.124c0.3,0,0.542,0.035,0.729,0.105
			c0.187,0.07,0.324,0.159,0.412,0.266s0.149,0.241,0.185,0.404c0.02,0.101,0.03,0.283,0.03,0.547v0.792
			c0,0.552,0.013,0.901,0.037,1.047c0.025,0.146,0.076,0.287,0.15,0.421h-0.62C154.809,136.8,154.77,136.655,154.752,136.491z
			 M154.702,135.165c-0.216,0.088-0.539,0.162-0.97,0.224c-0.244,0.036-0.417,0.075-0.518,0.119
			c-0.102,0.044-0.18,0.108-0.234,0.193c-0.055,0.084-0.083,0.179-0.083,0.281c0,0.159,0.061,0.291,0.18,0.396
			c0.12,0.105,0.296,0.158,0.526,0.158c0.229,0,0.433-0.05,0.61-0.15c0.178-0.1,0.309-0.236,0.393-0.41
			c0.063-0.135,0.096-0.332,0.096-0.594V135.165z"/>
		<path style="fill:#2C6882;" d="M156.223,138.266v-4.846h0.541v0.455c0.127-0.178,0.271-0.312,0.432-0.4
			c0.161-0.089,0.355-0.134,0.584-0.134c0.299,0,0.563,0.077,0.792,0.23c0.229,0.154,0.401,0.371,0.518,0.652
			c0.116,0.28,0.175,0.587,0.175,0.922c0,0.358-0.064,0.681-0.193,0.968c-0.128,0.287-0.315,0.507-0.561,0.659
			c-0.245,0.153-0.503,0.229-0.773,0.229c-0.197,0-0.375-0.042-0.532-0.125c-0.157-0.084-0.287-0.189-0.388-0.317v1.706H156.223z
			 M156.76,135.192c0,0.45,0.092,0.784,0.274,0.999c0.183,0.216,0.403,0.323,0.663,0.323c0.264,0,0.489-0.111,0.678-0.335
			c0.188-0.223,0.282-0.568,0.282-1.037c0-0.446-0.092-0.78-0.275-1.003c-0.184-0.222-0.403-0.333-0.658-0.333
			c-0.253,0-0.477,0.118-0.672,0.354C156.857,134.397,156.76,134.74,156.76,135.192z"/>
		<path style="fill:#2C6882;" d="M159.973,136.923v-3.503h0.534v0.531c0.137-0.249,0.263-0.412,0.378-0.491s0.242-0.119,0.381-0.119
			c0.2,0,0.403,0.063,0.61,0.191l-0.204,0.551c-0.146-0.086-0.291-0.129-0.436-0.129c-0.13,0-0.246,0.039-0.35,0.117
			s-0.177,0.187-0.222,0.325c-0.065,0.211-0.099,0.441-0.099,0.692v1.834H159.973z"/>
		<path style="fill:#2C6882;" d="M162.008,135.172c0-0.649,0.18-1.13,0.541-1.441c0.301-0.26,0.668-0.39,1.102-0.39
			c0.481,0,0.875,0.158,1.181,0.474s0.458,0.751,0.458,1.308c0,0.45-0.067,0.806-0.202,1.063c-0.136,0.259-0.332,0.459-0.591,0.603
			c-0.259,0.143-0.54,0.214-0.846,0.214c-0.49,0-0.887-0.157-1.189-0.472S162.008,135.763,162.008,135.172z M162.618,135.172
			c0,0.448,0.098,0.784,0.293,1.007c0.195,0.224,0.442,0.335,0.739,0.335c0.294,0,0.539-0.112,0.735-0.336
			c0.195-0.225,0.293-0.566,0.293-1.026c0-0.433-0.098-0.761-0.295-0.984c-0.196-0.223-0.441-0.335-0.733-0.335
			c-0.297,0-0.544,0.111-0.739,0.333C162.716,134.388,162.618,134.723,162.618,135.172z"/>
		<path style="fill:#2C6882;" d="M166.533,136.923h-0.551v-4.835h0.594v1.725c0.25-0.314,0.57-0.472,0.959-0.472
			c0.216,0,0.42,0.044,0.612,0.13c0.192,0.087,0.351,0.209,0.475,0.366s0.222,0.348,0.292,0.569s0.105,0.46,0.105,0.713
			c0,0.6-0.148,1.063-0.445,1.392c-0.297,0.327-0.652,0.491-1.068,0.491c-0.413,0-0.737-0.173-0.973-0.518V136.923z
			 M166.526,135.146c0,0.42,0.057,0.723,0.172,0.91c0.187,0.306,0.439,0.458,0.758,0.458c0.26,0,0.484-0.112,0.673-0.338
			c0.189-0.226,0.284-0.562,0.284-1.008c0-0.457-0.091-0.795-0.272-1.013s-0.4-0.326-0.658-0.326c-0.259,0-0.483,0.112-0.673,0.338
			C166.621,134.393,166.526,134.719,166.526,135.146z"/>
		<path style="fill:#2C6882;" d="M172.028,136.491c-0.221,0.187-0.432,0.318-0.636,0.396c-0.203,0.077-0.421,0.115-0.654,0.115
			c-0.385,0-0.681-0.094-0.888-0.282c-0.206-0.188-0.31-0.428-0.31-0.721c0-0.171,0.039-0.328,0.117-0.47s0.18-0.256,0.307-0.342
			c0.126-0.085,0.269-0.15,0.427-0.194c0.117-0.03,0.293-0.061,0.528-0.089c0.479-0.058,0.832-0.125,1.059-0.204
			c0.002-0.082,0.003-0.134,0.003-0.155c0-0.242-0.056-0.412-0.168-0.512c-0.151-0.134-0.377-0.201-0.676-0.201
			c-0.279,0-0.485,0.049-0.619,0.147c-0.133,0.098-0.231,0.271-0.295,0.52l-0.58-0.08c0.053-0.248,0.14-0.448,0.26-0.602
			c0.121-0.152,0.296-0.271,0.524-0.353c0.229-0.083,0.494-0.124,0.795-0.124c0.3,0,0.542,0.035,0.729,0.105
			c0.187,0.07,0.324,0.159,0.412,0.266s0.149,0.241,0.185,0.404c0.02,0.101,0.03,0.283,0.03,0.547v0.792
			c0,0.552,0.013,0.901,0.037,1.047c0.025,0.146,0.076,0.287,0.15,0.421h-0.62C172.085,136.8,172.046,136.655,172.028,136.491z
			 M171.979,135.165c-0.216,0.088-0.539,0.162-0.97,0.224c-0.244,0.036-0.417,0.075-0.518,0.119
			c-0.102,0.044-0.18,0.108-0.234,0.193c-0.055,0.084-0.083,0.179-0.083,0.281c0,0.159,0.061,0.291,0.18,0.396
			c0.12,0.105,0.296,0.158,0.526,0.158c0.229,0,0.433-0.05,0.61-0.15c0.178-0.1,0.309-0.236,0.393-0.41
			c0.063-0.135,0.096-0.332,0.096-0.594V135.165z"/>
		<path style="fill:#2C6882;" d="M175.785,135.64l0.583,0.076c-0.063,0.402-0.227,0.717-0.489,0.944
			c-0.263,0.229-0.586,0.342-0.968,0.342c-0.479,0-0.865-0.156-1.156-0.47c-0.292-0.313-0.438-0.763-0.438-1.348
			c0-0.378,0.063-0.709,0.188-0.993c0.125-0.283,0.315-0.496,0.572-0.638c0.256-0.142,0.534-0.213,0.836-0.213
			c0.38,0,0.691,0.097,0.934,0.289c0.241,0.192,0.396,0.465,0.465,0.819l-0.577,0.089c-0.055-0.235-0.152-0.412-0.292-0.531
			c-0.14-0.118-0.309-0.178-0.506-0.178c-0.3,0-0.543,0.107-0.729,0.321c-0.187,0.215-0.28,0.554-0.28,1.018
			c0,0.471,0.09,0.813,0.271,1.026c0.181,0.213,0.416,0.319,0.706,0.319c0.232,0,0.428-0.071,0.584-0.214
			C175.644,136.156,175.743,135.937,175.785,135.64z"/>
		<path style="fill:#2C6882;" d="M176.88,132.771v-0.683h0.594v0.683H176.88z M176.88,136.923v-3.503h0.594v3.503H176.88z"/>
		<path style="fill:#2C6882;" d="M178.157,135.172c0-0.649,0.18-1.13,0.541-1.441c0.301-0.26,0.668-0.39,1.102-0.39
			c0.481,0,0.875,0.158,1.181,0.474s0.458,0.751,0.458,1.308c0,0.45-0.067,0.806-0.202,1.063c-0.136,0.259-0.332,0.459-0.591,0.603
			c-0.259,0.143-0.54,0.214-0.846,0.214c-0.49,0-0.887-0.157-1.189-0.472S178.157,135.763,178.157,135.172z M178.768,135.172
			c0,0.448,0.098,0.784,0.293,1.007c0.195,0.224,0.442,0.335,0.739,0.335c0.294,0,0.539-0.112,0.735-0.336
			c0.195-0.225,0.293-0.566,0.293-1.026c0-0.433-0.098-0.761-0.295-0.984c-0.196-0.223-0.441-0.335-0.733-0.335
			c-0.297,0-0.544,0.111-0.739,0.333C178.865,134.388,178.768,134.723,178.768,135.172z M179.47,132.984l0.438-0.923h0.778
			l-0.726,0.923H179.47z"/>
		<path style="fill:#2C6882;" d="M182.135,136.923v-3.503h0.534v0.498c0.258-0.385,0.629-0.577,1.115-0.577
			c0.211,0,0.405,0.038,0.582,0.114c0.177,0.075,0.31,0.175,0.397,0.298s0.149,0.27,0.185,0.438c0.021,0.11,0.033,0.303,0.033,0.577
			v2.154h-0.594v-2.131c0-0.242-0.023-0.423-0.069-0.542c-0.046-0.12-0.128-0.216-0.246-0.287c-0.117-0.071-0.256-0.107-0.414-0.107
			c-0.253,0-0.471,0.08-0.654,0.24c-0.184,0.161-0.275,0.466-0.275,0.914v1.913H182.135z"/>
	</g>
	<g>
		<path style="fill:#2C6882;" d="M158.815,152.191l0.64,0.161c-0.135,0.526-0.376,0.927-0.725,1.203
			c-0.349,0.275-0.774,0.413-1.277,0.413c-0.521,0-0.945-0.105-1.271-0.317c-0.327-0.213-0.575-0.52-0.746-0.923
			c-0.17-0.402-0.255-0.834-0.255-1.296c0-0.503,0.096-0.942,0.288-1.317s0.466-0.66,0.821-0.854s0.746-0.292,1.173-0.292
			c0.483,0,0.891,0.123,1.22,0.369c0.33,0.247,0.56,0.593,0.689,1.039l-0.63,0.148c-0.112-0.352-0.274-0.607-0.488-0.769
			c-0.213-0.16-0.481-0.24-0.805-0.24c-0.371,0-0.682,0.089-0.932,0.267c-0.249,0.179-0.425,0.418-0.526,0.718
			c-0.101,0.3-0.151,0.609-0.151,0.929c0,0.411,0.06,0.77,0.18,1.077c0.12,0.307,0.307,0.535,0.56,0.688
			c0.252,0.151,0.526,0.228,0.821,0.228c0.358,0,0.661-0.104,0.91-0.311C158.558,152.904,158.726,152.598,158.815,152.191z"/>
		<path style="fill:#2C6882;" d="M159.945,152.135c0-0.649,0.18-1.13,0.541-1.441c0.301-0.26,0.668-0.39,1.102-0.39
			c0.481,0,0.875,0.158,1.181,0.474s0.458,0.751,0.458,1.308c0,0.45-0.067,0.806-0.202,1.063c-0.136,0.259-0.332,0.459-0.591,0.603
			c-0.259,0.143-0.54,0.214-0.846,0.214c-0.49,0-0.887-0.157-1.189-0.472S159.945,152.726,159.945,152.135z M160.556,152.135
			c0,0.448,0.098,0.784,0.293,1.007c0.195,0.224,0.442,0.335,0.739,0.335c0.294,0,0.539-0.112,0.735-0.336
			c0.195-0.225,0.293-0.566,0.293-1.026c0-0.433-0.098-0.761-0.295-0.984c-0.196-0.223-0.441-0.335-0.733-0.335
			c-0.297,0-0.544,0.111-0.739,0.333C160.653,151.351,160.556,151.686,160.556,152.135z"/>
		<path style="fill:#2C6882;" d="M163.923,153.886v-3.503h0.534v0.498c0.258-0.385,0.629-0.577,1.115-0.577
			c0.211,0,0.405,0.038,0.582,0.114c0.177,0.075,0.31,0.175,0.397,0.298s0.149,0.27,0.185,0.438c0.021,0.11,0.033,0.303,0.033,0.577
			v2.154h-0.594v-2.131c0-0.242-0.023-0.423-0.069-0.542c-0.046-0.12-0.128-0.216-0.246-0.287c-0.117-0.071-0.256-0.107-0.414-0.107
			c-0.253,0-0.471,0.08-0.654,0.24c-0.184,0.161-0.275,0.466-0.275,0.914v1.913H163.923z"/>
		<path style="fill:#2C6882;" d="M168.976,153.355l0.086,0.524c-0.167,0.035-0.316,0.053-0.448,0.053
			c-0.216,0-0.383-0.034-0.502-0.102c-0.118-0.068-0.202-0.158-0.25-0.27c-0.049-0.11-0.073-0.345-0.073-0.7v-2.016h-0.435v-0.462
			h0.435v-0.867l0.591-0.356v1.224h0.597v0.462h-0.597v2.048c0,0.17,0.011,0.278,0.031,0.327c0.021,0.048,0.055,0.087,0.103,0.115
			c0.047,0.028,0.114,0.043,0.202,0.043C168.781,153.378,168.868,153.37,168.976,153.355z"/>
		<path style="fill:#2C6882;" d="M169.55,153.886v-3.503h0.534v0.531c0.137-0.249,0.263-0.412,0.378-0.491s0.242-0.119,0.381-0.119
			c0.2,0,0.403,0.063,0.61,0.191l-0.204,0.551c-0.146-0.086-0.291-0.129-0.436-0.129c-0.13,0-0.246,0.039-0.35,0.117
			s-0.177,0.187-0.222,0.325c-0.065,0.211-0.099,0.441-0.099,0.692v1.834H169.55z"/>
		<path style="fill:#2C6882;" d="M171.586,152.135c0-0.649,0.18-1.13,0.541-1.441c0.301-0.26,0.668-0.39,1.102-0.39
			c0.481,0,0.875,0.158,1.181,0.474s0.458,0.751,0.458,1.308c0,0.45-0.067,0.806-0.202,1.063c-0.136,0.259-0.332,0.459-0.591,0.603
			c-0.259,0.143-0.54,0.214-0.846,0.214c-0.49,0-0.887-0.157-1.189-0.472S171.586,152.726,171.586,152.135z M172.196,152.135
			c0,0.448,0.098,0.784,0.293,1.007c0.195,0.224,0.442,0.335,0.739,0.335c0.294,0,0.539-0.112,0.735-0.336
			c0.195-0.225,0.293-0.566,0.293-1.026c0-0.433-0.098-0.761-0.295-0.984c-0.196-0.223-0.441-0.335-0.733-0.335
			c-0.297,0-0.544,0.111-0.739,0.333C172.294,151.351,172.196,151.686,172.196,152.135z"/>
		<path style="fill:#2C6882;" d="M175.549,153.886v-4.835h0.594v4.835H175.549z"/>
		<path style="fill:#2C6882;" d="M179.35,153.454c-0.221,0.187-0.432,0.318-0.636,0.396c-0.203,0.077-0.421,0.115-0.654,0.115
			c-0.385,0-0.681-0.094-0.888-0.282c-0.206-0.188-0.31-0.428-0.31-0.721c0-0.171,0.039-0.328,0.117-0.47s0.18-0.256,0.307-0.342
			c0.126-0.085,0.269-0.15,0.427-0.194c0.117-0.03,0.293-0.061,0.528-0.089c0.479-0.058,0.832-0.125,1.059-0.204
			c0.002-0.082,0.003-0.134,0.003-0.155c0-0.242-0.056-0.412-0.168-0.512c-0.151-0.134-0.377-0.201-0.676-0.201
			c-0.279,0-0.485,0.049-0.619,0.147c-0.133,0.098-0.231,0.271-0.295,0.52l-0.58-0.08c0.053-0.248,0.14-0.448,0.26-0.602
			c0.121-0.152,0.296-0.271,0.524-0.353c0.229-0.083,0.494-0.124,0.795-0.124c0.3,0,0.542,0.035,0.729,0.105
			c0.187,0.07,0.324,0.159,0.412,0.266s0.149,0.241,0.185,0.404c0.02,0.101,0.03,0.283,0.03,0.547v0.792
			c0,0.552,0.013,0.901,0.037,1.047c0.025,0.146,0.076,0.287,0.15,0.421h-0.62C179.406,153.763,179.367,153.618,179.35,153.454z
			 M179.3,152.128c-0.216,0.088-0.539,0.162-0.97,0.224c-0.244,0.036-0.417,0.075-0.518,0.119c-0.102,0.044-0.18,0.108-0.234,0.193
			c-0.055,0.084-0.083,0.179-0.083,0.281c0,0.159,0.061,0.291,0.18,0.396c0.12,0.105,0.296,0.158,0.526,0.158
			c0.229,0,0.433-0.05,0.61-0.15c0.178-0.1,0.309-0.236,0.393-0.41c0.063-0.135,0.096-0.332,0.096-0.594V152.128z"/>
		<path style="fill:#2C6882;" d="M180.814,153.886v-3.503h0.534v0.531c0.137-0.249,0.263-0.412,0.378-0.491s0.242-0.119,0.381-0.119
			c0.2,0,0.403,0.063,0.61,0.191l-0.204,0.551c-0.146-0.086-0.291-0.129-0.436-0.129c-0.13,0-0.246,0.039-0.35,0.117
			s-0.177,0.187-0.222,0.325c-0.065,0.211-0.099,0.441-0.099,0.692v1.834H180.814z"/>
		<path style="fill:#2C6882;" d="M158.18,161.025l0.577,0.086c0.023,0.178,0.091,0.308,0.201,0.39
			c0.146,0.109,0.348,0.164,0.604,0.164c0.274,0,0.486-0.055,0.637-0.164c0.149-0.11,0.25-0.265,0.303-0.462
			c0.031-0.121,0.045-0.375,0.043-0.762c-0.26,0.306-0.583,0.458-0.97,0.458c-0.481,0-0.854-0.174-1.118-0.521
			c-0.264-0.347-0.396-0.764-0.396-1.25c0-0.334,0.061-0.643,0.182-0.925c0.12-0.282,0.296-0.501,0.525-0.655
			c0.23-0.153,0.5-0.23,0.811-0.23c0.413,0,0.754,0.167,1.022,0.501v-0.422h0.547v3.028c0,0.545-0.056,0.932-0.166,1.159
			c-0.111,0.228-0.287,0.407-0.528,0.539c-0.24,0.132-0.537,0.198-0.889,0.198c-0.418,0-0.755-0.095-1.013-0.282
			C158.295,161.687,158.17,161.403,158.18,161.025z M158.671,158.921c0,0.46,0.091,0.795,0.273,1.007
			c0.183,0.211,0.411,0.316,0.687,0.316c0.272,0,0.501-0.105,0.686-0.315s0.277-0.539,0.277-0.987c0-0.429-0.096-0.752-0.285-0.97
			c-0.19-0.218-0.42-0.327-0.688-0.327c-0.264,0-0.487,0.107-0.673,0.322C158.763,158.181,158.671,158.499,158.671,158.921z"/>
		<path style="fill:#2C6882;" d="M164.442,159.608l0.614,0.076c-0.097,0.358-0.276,0.636-0.538,0.834s-0.596,0.297-1.003,0.297
			c-0.512,0-0.918-0.157-1.219-0.474c-0.3-0.315-0.45-0.758-0.45-1.327c0-0.589,0.152-1.047,0.455-1.372
			c0.304-0.325,0.697-0.488,1.182-0.488c0.468,0,0.851,0.159,1.147,0.479c0.297,0.318,0.445,0.768,0.445,1.346
			c0,0.035-0.001,0.088-0.003,0.158h-2.612c0.021,0.385,0.13,0.68,0.326,0.884c0.195,0.204,0.439,0.307,0.732,0.307
			c0.218,0,0.403-0.057,0.558-0.171C164.231,160.041,164.353,159.859,164.442,159.608z M162.493,158.648h1.956
			c-0.026-0.295-0.101-0.516-0.225-0.663c-0.188-0.229-0.434-0.343-0.735-0.343c-0.272,0-0.502,0.091-0.688,0.273
			S162.514,158.342,162.493,158.648z"/>
		<path style="fill:#2C6882;" d="M165.565,159.69l0.587-0.092c0.033,0.235,0.125,0.415,0.275,0.541
			c0.15,0.125,0.361,0.188,0.632,0.188c0.272,0,0.475-0.056,0.606-0.166c0.132-0.111,0.198-0.241,0.198-0.392
			c0-0.134-0.059-0.239-0.175-0.316c-0.081-0.053-0.284-0.12-0.607-0.201c-0.435-0.109-0.736-0.205-0.905-0.285
			c-0.168-0.08-0.296-0.191-0.382-0.333c-0.087-0.142-0.131-0.299-0.131-0.47c0-0.156,0.036-0.301,0.107-0.435
			c0.071-0.133,0.169-0.243,0.292-0.331c0.092-0.068,0.218-0.126,0.378-0.173c0.159-0.048,0.33-0.071,0.513-0.071
			c0.274,0,0.516,0.04,0.724,0.119s0.361,0.186,0.46,0.321c0.1,0.135,0.167,0.316,0.205,0.543l-0.581,0.079
			c-0.026-0.181-0.103-0.321-0.229-0.423c-0.126-0.101-0.305-0.151-0.535-0.151c-0.273,0-0.468,0.045-0.584,0.135
			c-0.117,0.091-0.175,0.196-0.175,0.317c0,0.076,0.024,0.146,0.072,0.207c0.049,0.064,0.124,0.117,0.228,0.159
			c0.06,0.021,0.234,0.072,0.524,0.151c0.42,0.112,0.713,0.204,0.879,0.275s0.297,0.175,0.392,0.312
			c0.094,0.137,0.142,0.306,0.142,0.508c0,0.198-0.058,0.385-0.174,0.56c-0.115,0.175-0.281,0.31-0.499,0.405
			s-0.464,0.144-0.739,0.144c-0.455,0-0.802-0.095-1.04-0.283C165.782,160.342,165.63,160.062,165.565,159.69z"/>
		<path style="fill:#2C6882;" d="M170.476,160.204l0.086,0.524c-0.167,0.035-0.316,0.053-0.448,0.053
			c-0.216,0-0.383-0.034-0.502-0.102c-0.118-0.068-0.202-0.158-0.25-0.27c-0.049-0.11-0.073-0.345-0.073-0.7v-2.016h-0.435v-0.462
			h0.435v-0.867l0.591-0.356v1.224h0.597v0.462h-0.597v2.048c0,0.17,0.011,0.278,0.031,0.327c0.021,0.048,0.055,0.087,0.103,0.115
			c0.047,0.028,0.114,0.043,0.202,0.043C170.281,160.228,170.368,160.22,170.476,160.204z"/>
		<path style="fill:#2C6882;" d="M171.059,156.583V155.9h0.594v0.683H171.059z M171.059,160.735v-3.503h0.594v3.503H171.059z"/>
		<path style="fill:#2C6882;" d="M172.336,158.984c0-0.649,0.18-1.13,0.541-1.441c0.301-0.26,0.668-0.39,1.102-0.39
			c0.481,0,0.875,0.158,1.181,0.474s0.458,0.751,0.458,1.308c0,0.45-0.067,0.806-0.202,1.063c-0.136,0.259-0.332,0.459-0.591,0.603
			c-0.259,0.143-0.54,0.214-0.846,0.214c-0.49,0-0.887-0.157-1.189-0.472S172.336,159.575,172.336,158.984z M172.946,158.984
			c0,0.448,0.098,0.784,0.293,1.007c0.195,0.224,0.442,0.335,0.739,0.335c0.294,0,0.539-0.112,0.735-0.336
			c0.195-0.225,0.293-0.566,0.293-1.026c0-0.433-0.098-0.761-0.295-0.984c-0.196-0.223-0.441-0.335-0.733-0.335
			c-0.297,0-0.544,0.111-0.739,0.333C173.044,158.2,172.946,158.535,172.946,158.984z M173.649,156.797l0.438-0.923h0.778
			l-0.726,0.923H173.649z"/>
		<path style="fill:#2C6882;" d="M176.314,160.735v-3.503h0.534v0.498c0.258-0.385,0.629-0.577,1.115-0.577
			c0.211,0,0.405,0.038,0.582,0.114c0.177,0.075,0.31,0.175,0.397,0.298s0.149,0.27,0.185,0.438c0.021,0.11,0.033,0.303,0.033,0.577
			v2.154h-0.594v-2.131c0-0.242-0.023-0.423-0.069-0.542c-0.046-0.12-0.128-0.216-0.246-0.287c-0.117-0.071-0.256-0.107-0.414-0.107
			c-0.253,0-0.471,0.08-0.654,0.24c-0.184,0.161-0.275,0.466-0.275,0.914v1.913H176.314z"/>
	</g>
	<g>
		<path style="fill:#2C6882;" d="M159.127,176.289v-0.567l2.048-0.003v1.794c-0.314,0.251-0.639,0.439-0.973,0.565
			c-0.335,0.127-0.678,0.189-1.029,0.189c-0.475,0-0.906-0.102-1.295-0.305c-0.388-0.203-0.681-0.497-0.879-0.882
			s-0.297-0.815-0.297-1.29c0-0.471,0.099-0.91,0.295-1.317c0.197-0.408,0.48-0.711,0.85-0.909s0.795-0.297,1.276-0.297
			c0.35,0,0.666,0.057,0.948,0.17c0.283,0.113,0.504,0.271,0.665,0.474c0.16,0.202,0.282,0.466,0.366,0.791l-0.577,0.158
			c-0.073-0.246-0.163-0.439-0.271-0.58c-0.108-0.141-0.262-0.253-0.462-0.338s-0.422-0.127-0.666-0.127
			c-0.293,0-0.546,0.044-0.759,0.134c-0.214,0.089-0.386,0.206-0.517,0.351c-0.131,0.146-0.232,0.305-0.305,0.479
			c-0.123,0.299-0.185,0.623-0.185,0.973c0,0.432,0.074,0.792,0.223,1.082s0.364,0.506,0.647,0.646
			c0.284,0.141,0.585,0.211,0.904,0.211c0.276,0,0.547-0.053,0.812-0.159c0.264-0.107,0.464-0.221,0.6-0.342v-0.9H159.127z"/>
		<path style="fill:#2C6882;" d="M164.44,177.058l0.614,0.076c-0.097,0.358-0.276,0.636-0.538,0.834s-0.596,0.297-1.003,0.297
			c-0.512,0-0.918-0.157-1.219-0.474c-0.3-0.315-0.45-0.758-0.45-1.327c0-0.589,0.152-1.047,0.455-1.372
			c0.304-0.325,0.697-0.488,1.182-0.488c0.468,0,0.851,0.159,1.147,0.479c0.297,0.318,0.445,0.768,0.445,1.346
			c0,0.035-0.001,0.088-0.003,0.158h-2.612c0.021,0.385,0.13,0.68,0.326,0.884c0.195,0.204,0.439,0.307,0.732,0.307
			c0.218,0,0.403-0.057,0.558-0.171C164.228,177.491,164.35,177.309,164.44,177.058z M162.49,176.098h1.956
			c-0.026-0.295-0.101-0.516-0.225-0.663c-0.188-0.229-0.434-0.343-0.735-0.343c-0.272,0-0.502,0.091-0.688,0.273
			S162.511,175.792,162.49,176.098z"/>
		<path style="fill:#2C6882;" d="M165.799,178.186v-3.503h0.534v0.498c0.258-0.385,0.629-0.577,1.115-0.577
			c0.211,0,0.405,0.038,0.582,0.114c0.177,0.075,0.31,0.175,0.397,0.298s0.149,0.27,0.185,0.438c0.021,0.11,0.033,0.303,0.033,0.577
			v2.154h-0.594v-2.131c0-0.242-0.023-0.423-0.069-0.542c-0.046-0.12-0.128-0.216-0.246-0.287c-0.117-0.071-0.256-0.107-0.414-0.107
			c-0.253,0-0.471,0.08-0.654,0.24c-0.184,0.161-0.275,0.466-0.275,0.914v1.913H165.799z"/>
		<path style="fill:#2C6882;" d="M171.953,177.058l0.614,0.076c-0.097,0.358-0.276,0.636-0.538,0.834s-0.596,0.297-1.003,0.297
			c-0.512,0-0.918-0.157-1.219-0.474c-0.3-0.315-0.45-0.758-0.45-1.327c0-0.589,0.152-1.047,0.455-1.372
			c0.304-0.325,0.697-0.488,1.182-0.488c0.468,0,0.851,0.159,1.147,0.479c0.297,0.318,0.445,0.768,0.445,1.346
			c0,0.035-0.001,0.088-0.003,0.158h-2.612c0.021,0.385,0.13,0.68,0.326,0.884c0.195,0.204,0.439,0.307,0.732,0.307
			c0.218,0,0.403-0.057,0.558-0.171C171.741,177.491,171.863,177.309,171.953,177.058z M170.004,176.098h1.956
			c-0.026-0.295-0.101-0.516-0.225-0.663c-0.188-0.229-0.434-0.343-0.735-0.343c-0.272,0-0.502,0.091-0.688,0.273
			S170.024,175.792,170.004,176.098z"/>
		<path style="fill:#2C6882;" d="M173.306,178.186v-3.503h0.534v0.531c0.137-0.249,0.263-0.412,0.378-0.491s0.242-0.119,0.381-0.119
			c0.2,0,0.403,0.063,0.61,0.191l-0.204,0.551c-0.146-0.086-0.291-0.129-0.436-0.129c-0.13,0-0.246,0.039-0.35,0.117
			s-0.177,0.187-0.222,0.325c-0.065,0.211-0.099,0.441-0.099,0.692v1.834H173.306z"/>
		<path style="fill:#2C6882;" d="M177.849,177.754c-0.221,0.187-0.432,0.318-0.636,0.396c-0.203,0.077-0.421,0.115-0.654,0.115
			c-0.385,0-0.681-0.094-0.888-0.282c-0.206-0.188-0.31-0.428-0.31-0.721c0-0.171,0.039-0.328,0.117-0.47s0.18-0.256,0.307-0.342
			c0.126-0.085,0.269-0.15,0.427-0.194c0.117-0.03,0.293-0.061,0.528-0.089c0.479-0.058,0.832-0.125,1.059-0.204
			c0.002-0.082,0.003-0.134,0.003-0.155c0-0.242-0.056-0.412-0.168-0.512c-0.151-0.134-0.377-0.201-0.676-0.201
			c-0.279,0-0.485,0.049-0.619,0.147c-0.133,0.098-0.231,0.271-0.295,0.52l-0.58-0.08c0.053-0.248,0.14-0.448,0.26-0.602
			c0.121-0.152,0.296-0.271,0.524-0.353c0.229-0.083,0.494-0.124,0.795-0.124c0.3,0,0.542,0.035,0.729,0.105
			c0.187,0.07,0.324,0.159,0.412,0.266s0.149,0.241,0.185,0.404c0.02,0.101,0.03,0.283,0.03,0.547v0.792
			c0,0.552,0.013,0.901,0.037,1.047c0.025,0.146,0.076,0.287,0.15,0.421h-0.62C177.905,178.063,177.866,177.918,177.849,177.754z
			 M177.799,176.428c-0.216,0.088-0.539,0.162-0.97,0.224c-0.244,0.036-0.417,0.075-0.518,0.119
			c-0.102,0.044-0.18,0.108-0.234,0.193c-0.055,0.084-0.083,0.179-0.083,0.281c0,0.159,0.061,0.291,0.18,0.396
			c0.12,0.105,0.296,0.158,0.526,0.158c0.229,0,0.433-0.05,0.61-0.15c0.178-0.1,0.309-0.236,0.393-0.41
			c0.063-0.135,0.096-0.332,0.096-0.594V176.428z"/>
		<path style="fill:#2C6882;" d="M179.313,178.186v-3.503h0.534v0.531c0.137-0.249,0.263-0.412,0.378-0.491s0.242-0.119,0.381-0.119
			c0.2,0,0.403,0.063,0.61,0.191l-0.204,0.551c-0.146-0.086-0.291-0.129-0.436-0.129c-0.13,0-0.246,0.039-0.35,0.117
			s-0.177,0.187-0.222,0.325c-0.065,0.211-0.099,0.441-0.099,0.692v1.834H179.313z"/>
		<path style="fill:#2C6882;" d="M156.781,185.035v-3.503h0.534v0.531c0.137-0.249,0.263-0.412,0.378-0.491s0.242-0.119,0.381-0.119
			c0.2,0,0.403,0.063,0.61,0.191l-0.204,0.551c-0.146-0.086-0.291-0.129-0.436-0.129c-0.13,0-0.246,0.039-0.35,0.117
			s-0.177,0.187-0.222,0.325c-0.065,0.211-0.099,0.441-0.099,0.692v1.834H156.781z"/>
		<path style="fill:#2C6882;" d="M161.435,183.907l0.614,0.076c-0.097,0.358-0.276,0.636-0.538,0.834s-0.596,0.297-1.003,0.297
			c-0.512,0-0.918-0.157-1.219-0.474c-0.3-0.315-0.45-0.758-0.45-1.327c0-0.589,0.152-1.047,0.455-1.372
			c0.304-0.325,0.697-0.488,1.182-0.488c0.468,0,0.851,0.159,1.147,0.479c0.297,0.318,0.445,0.768,0.445,1.346
			c0,0.035-0.001,0.088-0.003,0.158h-2.612c0.021,0.385,0.13,0.68,0.326,0.884c0.195,0.204,0.439,0.307,0.732,0.307
			c0.218,0,0.403-0.057,0.558-0.171C161.223,184.341,161.345,184.158,161.435,183.907z M159.485,182.947h1.956
			c-0.026-0.295-0.101-0.516-0.225-0.663c-0.188-0.229-0.434-0.343-0.735-0.343c-0.272,0-0.502,0.091-0.688,0.273
			S159.506,182.642,159.485,182.947z"/>
		<path style="fill:#2C6882;" d="M162.794,186.378v-4.846h0.541v0.455c0.127-0.178,0.271-0.312,0.432-0.4
			c0.161-0.089,0.355-0.134,0.584-0.134c0.299,0,0.563,0.077,0.792,0.23c0.229,0.154,0.401,0.371,0.518,0.652
			c0.116,0.28,0.175,0.587,0.175,0.922c0,0.358-0.064,0.681-0.193,0.968c-0.128,0.287-0.315,0.507-0.561,0.659
			c-0.245,0.153-0.503,0.229-0.773,0.229c-0.197,0-0.375-0.042-0.532-0.125c-0.157-0.084-0.287-0.189-0.388-0.317v1.706H162.794z
			 M163.331,183.304c0,0.45,0.092,0.784,0.274,0.999c0.183,0.216,0.403,0.323,0.663,0.323c0.264,0,0.489-0.111,0.678-0.335
			c0.188-0.223,0.282-0.568,0.282-1.037c0-0.446-0.092-0.78-0.275-1.003c-0.184-0.222-0.403-0.333-0.658-0.333
			c-0.253,0-0.477,0.118-0.672,0.354C163.429,182.509,163.331,182.853,163.331,183.304z"/>
		<path style="fill:#2C6882;" d="M166.33,183.284c0-0.649,0.18-1.13,0.541-1.441c0.301-0.26,0.668-0.39,1.102-0.39
			c0.481,0,0.875,0.158,1.181,0.474s0.458,0.751,0.458,1.308c0,0.45-0.067,0.806-0.202,1.063c-0.136,0.259-0.332,0.459-0.591,0.603
			c-0.259,0.143-0.54,0.214-0.846,0.214c-0.49,0-0.887-0.157-1.189-0.472S166.33,183.875,166.33,183.284z M166.941,183.284
			c0,0.448,0.098,0.784,0.293,1.007c0.195,0.224,0.442,0.335,0.739,0.335c0.294,0,0.539-0.112,0.735-0.336
			c0.195-0.225,0.293-0.566,0.293-1.026c0-0.433-0.098-0.761-0.295-0.984c-0.196-0.223-0.441-0.335-0.733-0.335
			c-0.297,0-0.544,0.111-0.739,0.333C167.038,182.5,166.941,182.835,166.941,183.284z"/>
		<path style="fill:#2C6882;" d="M170.301,185.035v-3.503h0.534v0.531c0.137-0.249,0.263-0.412,0.378-0.491s0.242-0.119,0.381-0.119
			c0.2,0,0.403,0.063,0.61,0.191L172,182.195c-0.146-0.086-0.291-0.129-0.436-0.129c-0.13,0-0.246,0.039-0.35,0.117
			s-0.177,0.187-0.222,0.325c-0.065,0.211-0.099,0.441-0.099,0.692v1.834H170.301z"/>
		<path style="fill:#2C6882;" d="M173.854,184.504l0.086,0.524c-0.167,0.035-0.316,0.053-0.448,0.053
			c-0.216,0-0.383-0.034-0.502-0.102c-0.118-0.068-0.202-0.158-0.25-0.27c-0.049-0.11-0.073-0.345-0.073-0.7v-2.016h-0.435v-0.462
			h0.435v-0.867l0.591-0.356v1.224h0.597v0.462h-0.597v2.048c0,0.17,0.011,0.278,0.031,0.327c0.021,0.048,0.055,0.087,0.103,0.115
			c0.047,0.028,0.114,0.043,0.202,0.043C173.659,184.527,173.746,184.52,173.854,184.504z"/>
		<path style="fill:#2C6882;" d="M176.832,183.907l0.614,0.076c-0.097,0.358-0.276,0.636-0.538,0.834s-0.596,0.297-1.003,0.297
			c-0.512,0-0.918-0.157-1.219-0.474c-0.3-0.315-0.45-0.758-0.45-1.327c0-0.589,0.152-1.047,0.455-1.372
			c0.304-0.325,0.697-0.488,1.182-0.488c0.468,0,0.851,0.159,1.147,0.479c0.297,0.318,0.445,0.768,0.445,1.346
			c0,0.035-0.001,0.088-0.003,0.158h-2.612c0.021,0.385,0.13,0.68,0.326,0.884c0.195,0.204,0.439,0.307,0.732,0.307
			c0.218,0,0.403-0.057,0.558-0.171C176.62,184.341,176.742,184.158,176.832,183.907z M174.883,182.947h1.956
			c-0.026-0.295-0.101-0.516-0.225-0.663c-0.188-0.229-0.434-0.343-0.735-0.343c-0.272,0-0.502,0.091-0.688,0.273
			S174.903,182.642,174.883,182.947z"/>
		<path style="fill:#2C6882;" d="M177.954,183.989l0.587-0.092c0.033,0.235,0.125,0.415,0.275,0.541
			c0.15,0.125,0.361,0.188,0.632,0.188c0.272,0,0.475-0.056,0.606-0.166c0.132-0.111,0.198-0.241,0.198-0.392
			c0-0.134-0.059-0.239-0.175-0.316c-0.081-0.053-0.284-0.12-0.607-0.201c-0.435-0.109-0.736-0.205-0.905-0.285
			c-0.168-0.08-0.296-0.191-0.382-0.333c-0.087-0.142-0.131-0.299-0.131-0.47c0-0.156,0.036-0.301,0.107-0.435
			c0.071-0.133,0.169-0.243,0.292-0.331c0.092-0.068,0.218-0.126,0.378-0.173c0.159-0.048,0.33-0.071,0.513-0.071
			c0.274,0,0.516,0.04,0.724,0.119s0.361,0.186,0.46,0.321c0.1,0.135,0.167,0.316,0.205,0.543l-0.581,0.079
			c-0.026-0.181-0.103-0.321-0.229-0.423c-0.126-0.101-0.305-0.151-0.535-0.151c-0.273,0-0.468,0.045-0.584,0.135
			c-0.117,0.091-0.175,0.196-0.175,0.317c0,0.076,0.024,0.146,0.072,0.207c0.049,0.064,0.124,0.117,0.228,0.159
			c0.06,0.021,0.234,0.072,0.524,0.151c0.42,0.112,0.713,0.204,0.879,0.275s0.297,0.175,0.392,0.312
			c0.094,0.137,0.142,0.306,0.142,0.508c0,0.198-0.058,0.385-0.174,0.56c-0.115,0.175-0.281,0.31-0.499,0.405
			s-0.464,0.144-0.739,0.144c-0.455,0-0.802-0.095-1.04-0.283C178.172,184.642,178.02,184.361,177.954,183.989z"/>
	</g>
	
		<ellipse style="fill:#6FC2D8;stroke:#000000;stroke-width:0.75;stroke-miterlimit:10;" cx="168.471" cy="206.196" rx="19.963" ry="10.555"/>
	<g>
		<path style="fill:#2C6882;" d="M197.862,106.626l1.856-4.835h0.689l1.979,4.835h-0.729l-0.563-1.465h-2.022l-0.53,1.465H197.862z
			 M199.258,104.641h1.639l-0.505-1.34c-0.153-0.406-0.268-0.74-0.343-1.002c-0.062,0.31-0.148,0.617-0.261,0.923L199.258,104.641z"
			/>
		<path style="fill:#2C6882;" d="M202.823,107.969v-4.846h0.541v0.455c0.127-0.178,0.271-0.312,0.432-0.4
			c0.161-0.089,0.355-0.134,0.584-0.134c0.299,0,0.563,0.077,0.792,0.23c0.229,0.154,0.401,0.371,0.518,0.652
			c0.116,0.28,0.175,0.587,0.175,0.922c0,0.358-0.064,0.681-0.193,0.968c-0.128,0.287-0.315,0.507-0.561,0.659
			c-0.245,0.153-0.503,0.229-0.773,0.229c-0.197,0-0.375-0.042-0.532-0.125c-0.157-0.084-0.287-0.189-0.388-0.317v1.706H202.823z
			 M203.36,104.895c0,0.45,0.092,0.784,0.274,0.999c0.183,0.216,0.403,0.323,0.663,0.323c0.264,0,0.489-0.111,0.678-0.335
			c0.188-0.223,0.282-0.568,0.282-1.037c0-0.446-0.092-0.78-0.275-1.003c-0.184-0.222-0.403-0.333-0.658-0.333
			c-0.253,0-0.477,0.118-0.672,0.354C203.458,104.1,203.36,104.443,203.36,104.895z"/>
		<path style="fill:#2C6882;" d="M206.573,106.626v-3.503h0.534v0.531c0.137-0.249,0.263-0.412,0.378-0.491s0.242-0.119,0.381-0.119
			c0.2,0,0.403,0.063,0.61,0.191l-0.204,0.551c-0.146-0.086-0.291-0.129-0.436-0.129c-0.13,0-0.246,0.039-0.35,0.117
			s-0.177,0.187-0.222,0.325c-0.065,0.211-0.099,0.441-0.099,0.692v1.834H206.573z"/>
		<path style="fill:#2C6882;" d="M208.608,104.875c0-0.649,0.18-1.13,0.541-1.441c0.301-0.26,0.668-0.39,1.102-0.39
			c0.481,0,0.875,0.158,1.181,0.474s0.458,0.751,0.458,1.308c0,0.45-0.067,0.806-0.202,1.063c-0.136,0.259-0.332,0.459-0.591,0.603
			c-0.259,0.143-0.54,0.214-0.846,0.214c-0.49,0-0.887-0.157-1.189-0.472S208.608,105.466,208.608,104.875z M209.219,104.875
			c0,0.448,0.098,0.784,0.293,1.007c0.195,0.224,0.442,0.335,0.739,0.335c0.294,0,0.539-0.112,0.735-0.336
			c0.195-0.225,0.293-0.566,0.293-1.026c0-0.433-0.098-0.761-0.295-0.984c-0.196-0.223-0.441-0.335-0.733-0.335
			c-0.297,0-0.544,0.111-0.739,0.333C209.316,104.091,209.219,104.426,209.219,104.875z"/>
		<path style="fill:#2C6882;" d="M213.134,106.626h-0.551v-4.835h0.594v1.725c0.25-0.314,0.57-0.472,0.959-0.472
			c0.216,0,0.42,0.044,0.612,0.13c0.192,0.087,0.351,0.209,0.475,0.366s0.222,0.348,0.292,0.569s0.105,0.46,0.105,0.713
			c0,0.6-0.148,1.063-0.445,1.392c-0.297,0.327-0.652,0.491-1.068,0.491c-0.413,0-0.737-0.173-0.973-0.518V106.626z
			 M213.127,104.849c0,0.42,0.057,0.723,0.172,0.91c0.187,0.306,0.439,0.458,0.758,0.458c0.26,0,0.484-0.112,0.673-0.338
			c0.189-0.226,0.284-0.562,0.284-1.008c0-0.457-0.091-0.795-0.272-1.013s-0.4-0.326-0.658-0.326c-0.259,0-0.483,0.112-0.673,0.338
			C213.222,104.096,213.127,104.422,213.127,104.849z"/>
		<path style="fill:#2C6882;" d="M218.629,106.194c-0.221,0.187-0.432,0.318-0.636,0.396c-0.203,0.077-0.421,0.115-0.654,0.115
			c-0.385,0-0.681-0.094-0.888-0.282c-0.206-0.188-0.31-0.428-0.31-0.721c0-0.171,0.039-0.328,0.117-0.47s0.18-0.256,0.307-0.342
			c0.126-0.085,0.269-0.15,0.427-0.194c0.117-0.03,0.293-0.061,0.528-0.089c0.479-0.058,0.832-0.125,1.059-0.204
			c0.002-0.082,0.003-0.134,0.003-0.155c0-0.242-0.056-0.412-0.168-0.512c-0.151-0.134-0.377-0.201-0.676-0.201
			c-0.279,0-0.485,0.049-0.619,0.147c-0.133,0.098-0.231,0.271-0.295,0.52l-0.58-0.08c0.053-0.248,0.14-0.448,0.26-0.602
			c0.121-0.152,0.296-0.271,0.524-0.353c0.229-0.083,0.494-0.124,0.795-0.124c0.3,0,0.542,0.035,0.729,0.105
			c0.187,0.07,0.324,0.159,0.412,0.266s0.149,0.241,0.185,0.404c0.02,0.101,0.03,0.283,0.03,0.547v0.792
			c0,0.552,0.013,0.901,0.037,1.047c0.025,0.146,0.076,0.287,0.15,0.421h-0.62C218.686,106.503,218.647,106.359,218.629,106.194z
			 M218.579,104.868c-0.216,0.088-0.539,0.162-0.97,0.224c-0.244,0.036-0.417,0.075-0.518,0.119
			c-0.102,0.044-0.18,0.108-0.234,0.193c-0.055,0.084-0.083,0.179-0.083,0.281c0,0.159,0.061,0.291,0.18,0.396
			c0.12,0.105,0.296,0.158,0.526,0.158c0.229,0,0.433-0.05,0.61-0.15c0.178-0.1,0.309-0.236,0.393-0.41
			c0.063-0.135,0.096-0.332,0.096-0.594V104.868z"/>
		<path style="fill:#2C6882;" d="M220.093,106.626v-3.503h0.534v0.531c0.137-0.249,0.263-0.412,0.378-0.491s0.242-0.119,0.381-0.119
			c0.2,0,0.403,0.063,0.61,0.191l-0.204,0.551c-0.146-0.086-0.291-0.129-0.436-0.129c-0.13,0-0.246,0.039-0.35,0.117
			s-0.177,0.187-0.222,0.325c-0.065,0.211-0.099,0.441-0.099,0.692v1.834H220.093z"/>
		<path style="fill:#2C6882;" d="M200.415,112.192l0.583,0.076c-0.063,0.402-0.227,0.717-0.489,0.944
			c-0.263,0.229-0.586,0.342-0.968,0.342c-0.479,0-0.865-0.156-1.156-0.47c-0.292-0.313-0.438-0.763-0.438-1.348
			c0-0.378,0.063-0.709,0.188-0.993c0.125-0.283,0.315-0.496,0.572-0.638c0.256-0.142,0.534-0.213,0.836-0.213
			c0.38,0,0.691,0.097,0.934,0.289c0.241,0.192,0.396,0.465,0.465,0.819l-0.577,0.089c-0.055-0.235-0.152-0.412-0.292-0.531
			c-0.14-0.118-0.309-0.178-0.506-0.178c-0.3,0-0.543,0.107-0.729,0.321c-0.187,0.215-0.28,0.554-0.28,1.018
			c0,0.471,0.09,0.813,0.271,1.026c0.181,0.213,0.416,0.319,0.706,0.319c0.232,0,0.428-0.071,0.584-0.214
			C200.274,112.709,200.373,112.489,200.415,112.192z"/>
		<path style="fill:#2C6882;" d="M201.286,111.725c0-0.649,0.18-1.13,0.541-1.441c0.301-0.26,0.668-0.39,1.102-0.39
			c0.481,0,0.875,0.158,1.181,0.474s0.458,0.751,0.458,1.308c0,0.45-0.067,0.806-0.202,1.063c-0.136,0.259-0.332,0.459-0.591,0.603
			c-0.259,0.143-0.54,0.214-0.846,0.214c-0.49,0-0.887-0.157-1.189-0.472S201.286,112.316,201.286,111.725z M201.897,111.725
			c0,0.448,0.098,0.784,0.293,1.007c0.195,0.224,0.442,0.335,0.739,0.335c0.294,0,0.539-0.112,0.735-0.336
			c0.195-0.225,0.293-0.566,0.293-1.026c0-0.433-0.098-0.761-0.295-0.984c-0.196-0.223-0.441-0.335-0.733-0.335
			c-0.297,0-0.544,0.111-0.739,0.333C201.994,110.941,201.897,111.276,201.897,111.725z"/>
		<path style="fill:#2C6882;" d="M205.264,113.476v-3.503h0.534v0.498c0.258-0.385,0.629-0.577,1.115-0.577
			c0.211,0,0.405,0.038,0.582,0.114c0.177,0.075,0.31,0.175,0.397,0.298s0.149,0.27,0.185,0.438c0.021,0.11,0.033,0.303,0.033,0.577
			v2.154h-0.594v-2.131c0-0.242-0.023-0.423-0.069-0.542c-0.046-0.12-0.128-0.216-0.246-0.287c-0.117-0.071-0.256-0.107-0.414-0.107
			c-0.253,0-0.471,0.08-0.654,0.24c-0.184,0.161-0.275,0.466-0.275,0.914v1.913H205.264z"/>
		<path style="fill:#2C6882;" d="M210.316,112.944l0.086,0.524c-0.167,0.035-0.316,0.053-0.448,0.053
			c-0.216,0-0.383-0.034-0.502-0.102c-0.118-0.068-0.202-0.158-0.25-0.27c-0.049-0.11-0.073-0.345-0.073-0.7v-2.016h-0.435v-0.462
			h0.435v-0.867l0.591-0.356v1.224h0.597v0.462h-0.597v2.048c0,0.17,0.011,0.278,0.031,0.327c0.021,0.048,0.055,0.087,0.103,0.115
			c0.047,0.028,0.114,0.043,0.202,0.043C210.121,112.968,210.208,112.96,210.316,112.944z"/>
		<path style="fill:#2C6882;" d="M210.89,113.476v-3.503h0.534v0.531c0.137-0.249,0.263-0.412,0.378-0.491s0.242-0.119,0.381-0.119
			c0.2,0,0.403,0.063,0.61,0.191l-0.204,0.551c-0.146-0.086-0.291-0.129-0.436-0.129c-0.13,0-0.246,0.039-0.35,0.117
			s-0.177,0.187-0.222,0.325c-0.065,0.211-0.099,0.441-0.099,0.692v1.834H210.89z"/>
		<path style="fill:#2C6882;" d="M215.433,113.044c-0.221,0.187-0.432,0.318-0.636,0.396c-0.203,0.077-0.421,0.115-0.654,0.115
			c-0.385,0-0.681-0.094-0.888-0.282c-0.206-0.188-0.31-0.428-0.31-0.721c0-0.171,0.039-0.328,0.117-0.47s0.18-0.256,0.307-0.342
			c0.126-0.085,0.269-0.15,0.427-0.194c0.117-0.03,0.293-0.061,0.528-0.089c0.479-0.058,0.832-0.125,1.059-0.204
			c0.002-0.082,0.003-0.134,0.003-0.155c0-0.242-0.056-0.412-0.168-0.512c-0.151-0.134-0.377-0.201-0.676-0.201
			c-0.279,0-0.485,0.049-0.619,0.147c-0.133,0.098-0.231,0.271-0.295,0.52l-0.58-0.08c0.053-0.248,0.14-0.448,0.26-0.602
			c0.121-0.152,0.296-0.271,0.524-0.353c0.229-0.083,0.494-0.124,0.795-0.124c0.3,0,0.542,0.035,0.729,0.105
			c0.187,0.07,0.324,0.159,0.412,0.266s0.149,0.241,0.185,0.404c0.02,0.101,0.03,0.283,0.03,0.547v0.792
			c0,0.552,0.013,0.901,0.037,1.047c0.025,0.146,0.076,0.287,0.15,0.421h-0.62C215.489,113.353,215.45,113.208,215.433,113.044z
			 M215.383,111.718c-0.216,0.088-0.539,0.162-0.97,0.224c-0.244,0.036-0.417,0.075-0.518,0.119
			c-0.102,0.044-0.18,0.108-0.234,0.193c-0.055,0.084-0.083,0.179-0.083,0.281c0,0.159,0.061,0.291,0.18,0.396
			c0.12,0.105,0.296,0.158,0.526,0.158c0.229,0,0.433-0.05,0.61-0.15c0.178-0.1,0.309-0.236,0.393-0.41
			c0.063-0.135,0.096-0.332,0.096-0.594V111.718z"/>
		<path style="fill:#2C6882;" d="M218.199,112.944l0.086,0.524c-0.167,0.035-0.316,0.053-0.448,0.053
			c-0.216,0-0.383-0.034-0.502-0.102c-0.118-0.068-0.202-0.158-0.25-0.27c-0.049-0.11-0.073-0.345-0.073-0.7v-2.016h-0.435v-0.462
			h0.435v-0.867l0.591-0.356v1.224h0.597v0.462h-0.597v2.048c0,0.17,0.011,0.278,0.031,0.327c0.021,0.048,0.055,0.087,0.103,0.115
			c0.047,0.028,0.114,0.043,0.202,0.043C218.005,112.968,218.092,112.96,218.199,112.944z"/>
		<path style="fill:#2C6882;" d="M218.56,111.725c0-0.649,0.18-1.13,0.541-1.441c0.301-0.26,0.668-0.39,1.102-0.39
			c0.481,0,0.875,0.158,1.181,0.474s0.458,0.751,0.458,1.308c0,0.45-0.067,0.806-0.202,1.063c-0.136,0.259-0.332,0.459-0.591,0.603
			c-0.259,0.143-0.54,0.214-0.846,0.214c-0.49,0-0.887-0.157-1.189-0.472S218.56,112.316,218.56,111.725z M219.17,111.725
			c0,0.448,0.098,0.784,0.293,1.007c0.195,0.224,0.442,0.335,0.739,0.335c0.294,0,0.539-0.112,0.735-0.336
			c0.195-0.225,0.293-0.566,0.293-1.026c0-0.433-0.098-0.761-0.295-0.984c-0.196-0.223-0.441-0.335-0.733-0.335
			c-0.297,0-0.544,0.111-0.739,0.333C219.268,110.941,219.17,111.276,219.17,111.725z"/>
	</g>
	<g>
		<path style="fill:#2C6882;" d="M164.596,208.032v-4.835h3.263v0.57h-2.622v1.497h2.269v0.571h-2.269v2.196H164.596z"/>
		<path style="fill:#2C6882;" d="M168.616,203.88v-0.683h0.594v0.683H168.616z M168.616,208.032v-3.503h0.594v3.503H168.616z"/>
		<path style="fill:#2C6882;" d="M170.114,208.032v-3.503h0.534v0.498c0.258-0.385,0.629-0.577,1.115-0.577
			c0.211,0,0.405,0.038,0.582,0.114c0.177,0.075,0.31,0.175,0.397,0.298s0.149,0.27,0.185,0.438c0.021,0.11,0.033,0.303,0.033,0.577
			v2.154h-0.594v-2.131c0-0.242-0.023-0.423-0.069-0.542c-0.046-0.12-0.128-0.216-0.246-0.287c-0.117-0.071-0.256-0.107-0.414-0.107
			c-0.253,0-0.471,0.08-0.654,0.24c-0.184,0.161-0.275,0.466-0.275,0.914v1.913H170.114z"/>
	</g>
</g>
</svg>
