<?xml version="1.0" encoding="utf-8"?>
<!-- Generator: Adobe Illustrator 17.0.0, SVG Export Plug-In . SVG Version: 6.00 Build 0)  -->
<!DOCTYPE svg PUBLIC "-//W3C//DTD SVG 1.1//EN" "http://www.w3.org/Graphics/SVG/1.1/DTD/svg11.dtd">
<svg version="1.1" id="Capa_1" xmlns="http://www.w3.org/2000/svg" xmlns:xlink="http://www.w3.org/1999/xlink" x="0px" y="0px"
	 width="149.411px" height="50.535px" viewBox="0 0 149.411 50.535" style="enable-background:new 0 0 149.411 50.535;"
	 xml:space="preserve">
<polygon style="fill:#2C6882;stroke:#000000;stroke-width:0.75;stroke-miterlimit:10;" points="0.815,0.375 127.568,0.375 
	148.921,25.269 128.307,50.16 1.548,50.16 22.176,25.336 "/>
<g>
	<g>
		<path style="fill:#FFFFFF;" d="M37.939,28.377l1.644-7.874h1.295l0.795,5.103c0.104,0.67,0.172,1.313,0.203,1.928
			c0.219-0.529,0.584-1.247,1.096-2.153l2.762-4.877h1.315l-1.644,7.874h-1.037l0.822-3.83c0.189-0.884,0.462-1.876,0.816-2.975
			c-0.226,0.512-0.505,1.063-0.838,1.654l-2.933,5.15h-1.015l-0.79-5.049c-0.071-0.462-0.124-1.001-0.155-1.617
			c-0.09,0.691-0.178,1.239-0.264,1.645l-1.047,5.021H37.939z"/>
		<path style="fill:#FFFFFF;" d="M47.155,26.213c0-1.114,0.328-2.036,0.982-2.767c0.541-0.602,1.25-0.902,2.127-0.902
			c0.688,0,1.242,0.215,1.663,0.645s0.631,1.01,0.631,1.74c0,0.655-0.133,1.265-0.397,1.829c-0.265,0.563-0.642,0.996-1.131,1.297
			c-0.488,0.301-1.003,0.451-1.544,0.451c-0.444,0-0.848-0.095-1.211-0.285c-0.363-0.189-0.642-0.458-0.833-0.805
			C47.251,27.068,47.155,26.667,47.155,26.213z M48.128,26.115c0,0.537,0.129,0.945,0.387,1.223s0.585,0.416,0.982,0.416
			c0.208,0,0.414-0.042,0.617-0.126c0.205-0.084,0.395-0.212,0.57-0.384c0.175-0.172,0.324-0.368,0.448-0.589
			c0.123-0.22,0.223-0.457,0.298-0.712c0.111-0.354,0.166-0.694,0.166-1.02c0-0.516-0.129-0.916-0.389-1.201
			c-0.26-0.284-0.587-0.427-0.98-0.427c-0.305,0-0.582,0.072-0.832,0.218c-0.251,0.145-0.478,0.357-0.68,0.637
			s-0.352,0.604-0.446,0.975C48.175,25.495,48.128,25.826,48.128,26.115z"/>
		<path style="fill:#FFFFFF;" d="M56.946,27.55c-0.555,0.638-1.135,0.956-1.74,0.956c-0.541,0-0.991-0.199-1.351-0.599
			c-0.36-0.399-0.54-0.979-0.54-1.737c0-0.695,0.143-1.33,0.427-1.904c0.285-0.575,0.642-1.006,1.069-1.292s0.856-0.43,1.286-0.43
			c0.709,0,1.244,0.342,1.606,1.026l0.645-3.067h0.967l-1.645,7.874h-0.896L56.946,27.55z M54.282,25.986
			c0,0.398,0.039,0.711,0.118,0.94s0.213,0.42,0.403,0.572c0.189,0.152,0.417,0.228,0.682,0.228c0.44,0,0.84-0.229,1.197-0.688
			c0.48-0.608,0.721-1.36,0.721-2.256c0-0.451-0.119-0.804-0.355-1.058s-0.533-0.382-0.891-0.382c-0.233,0-0.445,0.053-0.637,0.156
			s-0.382,0.28-0.569,0.529c-0.188,0.249-0.347,0.564-0.476,0.947C54.347,25.36,54.282,25.697,54.282,25.986z"/>
		<path style="fill:#FFFFFF;" d="M63.408,26.437l0.945,0.098c-0.136,0.469-0.448,0.914-0.938,1.337
			c-0.488,0.423-1.071,0.634-1.748,0.634c-0.423,0-0.811-0.098-1.163-0.293s-0.621-0.479-0.806-0.852
			c-0.185-0.372-0.276-0.796-0.276-1.272c0-0.623,0.145-1.228,0.433-1.813c0.288-0.586,0.661-1.021,1.119-1.306
			c0.459-0.284,0.955-0.427,1.488-0.427c0.681,0,1.224,0.211,1.63,0.634s0.61,0.999,0.61,1.729c0,0.279-0.025,0.565-0.076,0.859
			h-4.199c-0.015,0.111-0.021,0.211-0.021,0.301c0,0.533,0.122,0.94,0.367,1.222s0.545,0.422,0.9,0.422
			c0.332,0,0.66-0.109,0.982-0.328C62.979,27.165,63.23,26.85,63.408,26.437z M60.583,25.025h3.201
			c0.004-0.101,0.005-0.172,0.005-0.215c0-0.487-0.121-0.86-0.365-1.12c-0.243-0.26-0.557-0.39-0.939-0.39
			c-0.415,0-0.794,0.144-1.136,0.43C61.007,24.018,60.751,24.449,60.583,25.025z"/>
		<path style="fill:#FFFFFF;" d="M65.262,28.377l1.644-7.874h0.973l-1.645,7.874H65.262z"/>
		<path style="fill:#FFFFFF;" d="M67.952,26.213c0-1.114,0.328-2.036,0.982-2.767c0.541-0.602,1.25-0.902,2.127-0.902
			c0.688,0,1.242,0.215,1.663,0.645s0.631,1.01,0.631,1.74c0,0.655-0.133,1.265-0.397,1.829c-0.265,0.563-0.642,0.996-1.131,1.297
			c-0.488,0.301-1.003,0.451-1.544,0.451c-0.444,0-0.848-0.095-1.211-0.285c-0.363-0.189-0.642-0.458-0.833-0.805
			C68.048,27.068,67.952,26.667,67.952,26.213z M68.925,26.115c0,0.537,0.129,0.945,0.387,1.223s0.585,0.416,0.982,0.416
			c0.208,0,0.414-0.042,0.617-0.126c0.205-0.084,0.395-0.212,0.57-0.384c0.175-0.172,0.324-0.368,0.448-0.589
			c0.123-0.22,0.223-0.457,0.298-0.712c0.111-0.354,0.166-0.694,0.166-1.02c0-0.516-0.129-0.916-0.389-1.201
			c-0.26-0.284-0.587-0.427-0.98-0.427c-0.305,0-0.582,0.072-0.832,0.218c-0.251,0.145-0.478,0.357-0.68,0.637
			s-0.352,0.604-0.446,0.975C68.972,25.495,68.925,25.826,68.925,26.115z"/>
		<path style="fill:#FFFFFF;" d="M80.8,27.55c-0.555,0.638-1.135,0.956-1.74,0.956c-0.541,0-0.991-0.199-1.351-0.599
			c-0.36-0.399-0.54-0.979-0.54-1.737c0-0.695,0.143-1.33,0.427-1.904c0.285-0.575,0.642-1.006,1.069-1.292s0.856-0.43,1.286-0.43
			c0.709,0,1.244,0.342,1.606,1.026l0.645-3.067h0.967l-1.645,7.874h-0.896L80.8,27.55z M78.136,25.986
			c0,0.398,0.039,0.711,0.118,0.94s0.213,0.42,0.403,0.572c0.189,0.152,0.417,0.228,0.682,0.228c0.44,0,0.84-0.229,1.197-0.688
			c0.48-0.608,0.721-1.36,0.721-2.256c0-0.451-0.119-0.804-0.355-1.058s-0.533-0.382-0.891-0.382c-0.233,0-0.445,0.053-0.637,0.156
			s-0.382,0.28-0.569,0.529c-0.188,0.249-0.347,0.564-0.476,0.947C78.2,25.36,78.136,25.697,78.136,25.986z"/>
		<path style="fill:#FFFFFF;" d="M87.261,26.437l0.945,0.098c-0.136,0.469-0.448,0.914-0.938,1.337
			c-0.488,0.423-1.071,0.634-1.748,0.634c-0.423,0-0.811-0.098-1.163-0.293s-0.621-0.479-0.806-0.852
			c-0.185-0.372-0.276-0.796-0.276-1.272c0-0.623,0.145-1.228,0.433-1.813c0.288-0.586,0.661-1.021,1.119-1.306
			c0.459-0.284,0.955-0.427,1.488-0.427c0.681,0,1.224,0.211,1.63,0.634s0.61,0.999,0.61,1.729c0,0.279-0.025,0.565-0.076,0.859
			H84.28c-0.015,0.111-0.021,0.211-0.021,0.301c0,0.533,0.122,0.94,0.367,1.222s0.545,0.422,0.9,0.422
			c0.332,0,0.66-0.109,0.982-0.328C86.831,27.165,87.082,26.85,87.261,26.437z M84.436,25.025h3.201
			c0.004-0.101,0.005-0.172,0.005-0.215c0-0.487-0.121-0.86-0.365-1.12c-0.243-0.26-0.557-0.39-0.939-0.39
			c-0.415,0-0.794,0.144-1.136,0.43C84.859,24.018,84.604,24.449,84.436,25.025z"/>
		<path style="fill:#FFFFFF;" d="M96.183,26.299l0.972,0.102c-0.243,0.713-0.59,1.241-1.039,1.587s-0.961,0.519-1.534,0.519
			c-0.619,0-1.121-0.2-1.506-0.602s-0.578-0.961-0.578-1.682c0-0.623,0.124-1.234,0.371-1.836s0.601-1.06,1.061-1.373
			s0.986-0.47,1.576-0.47c0.613,0,1.098,0.173,1.456,0.519s0.537,0.803,0.537,1.372l-0.956,0.064
			c-0.004-0.361-0.108-0.645-0.314-0.849s-0.477-0.307-0.813-0.307c-0.391,0-0.729,0.124-1.015,0.371
			c-0.287,0.247-0.512,0.622-0.675,1.125s-0.244,0.987-0.244,1.453c0,0.487,0.107,0.853,0.322,1.096s0.479,0.365,0.795,0.365
			s0.617-0.12,0.905-0.359C95.791,27.154,96.018,26.789,96.183,26.299z"/>
		<path style="fill:#FFFFFF;" d="M97.745,28.377l1.192-5.704h0.859l-0.241,1.165c0.293-0.439,0.58-0.766,0.861-0.977
			c0.281-0.212,0.568-0.317,0.862-0.317c0.193,0,0.432,0.069,0.714,0.21l-0.396,0.902c-0.169-0.122-0.354-0.184-0.554-0.184
			c-0.34,0-0.689,0.19-1.048,0.57c-0.357,0.379-0.639,1.062-0.843,2.046l-0.483,2.288H97.745z"/>
		<path style="fill:#FFFFFF;" d="M101.581,26.213c0-1.114,0.328-2.036,0.982-2.767c0.541-0.602,1.25-0.902,2.127-0.902
			c0.688,0,1.242,0.215,1.663,0.645s0.631,1.01,0.631,1.74c0,0.655-0.133,1.265-0.397,1.829c-0.265,0.563-0.642,0.996-1.131,1.297
			c-0.488,0.301-1.003,0.451-1.544,0.451c-0.444,0-0.848-0.095-1.211-0.285c-0.363-0.189-0.642-0.458-0.833-0.805
			C101.677,27.068,101.581,26.667,101.581,26.213z M102.554,26.115c0,0.537,0.129,0.945,0.387,1.223s0.585,0.416,0.982,0.416
			c0.208,0,0.414-0.042,0.617-0.126c0.205-0.084,0.395-0.212,0.57-0.384c0.175-0.172,0.324-0.368,0.448-0.589
			c0.123-0.22,0.223-0.457,0.298-0.712c0.111-0.354,0.166-0.694,0.166-1.02c0-0.516-0.129-0.916-0.389-1.201
			c-0.26-0.284-0.587-0.427-0.98-0.427c-0.305,0-0.582,0.072-0.832,0.218c-0.251,0.145-0.478,0.357-0.68,0.637
			s-0.352,0.604-0.446,0.975C102.601,25.495,102.554,25.826,102.554,26.115z"/>
		<path style="fill:#FFFFFF;" d="M107.618,26.428l0.972-0.06c0,0.279,0.043,0.518,0.129,0.714c0.086,0.197,0.244,0.358,0.476,0.484
			c0.23,0.125,0.5,0.188,0.809,0.188c0.43,0,0.752-0.086,0.967-0.258s0.322-0.374,0.322-0.607c0-0.168-0.064-0.327-0.193-0.478
			c-0.133-0.15-0.456-0.336-0.97-0.556c-0.514-0.221-0.843-0.375-0.985-0.465c-0.24-0.146-0.421-0.319-0.543-0.519
			c-0.122-0.198-0.183-0.427-0.183-0.685c0-0.451,0.179-0.838,0.537-1.16s0.859-0.483,1.504-0.483c0.716,0,1.262,0.166,1.636,0.497
			s0.568,0.767,0.582,1.308l-0.95,0.064c-0.015-0.344-0.136-0.616-0.365-0.816s-0.554-0.301-0.972-0.301
			c-0.337,0-0.599,0.077-0.785,0.231c-0.186,0.153-0.279,0.32-0.279,0.499s0.081,0.337,0.242,0.473
			c0.107,0.093,0.385,0.236,0.832,0.43c0.745,0.322,1.215,0.576,1.408,0.763c0.308,0.297,0.461,0.659,0.461,1.085
			c0,0.283-0.086,0.561-0.26,0.833c-0.174,0.271-0.438,0.489-0.795,0.652s-0.776,0.244-1.26,0.244c-0.659,0-1.219-0.163-1.682-0.488
			C107.812,27.691,107.593,27.161,107.618,26.428z"/>
		<path style="fill:#FFFFFF;" d="M113.026,28.377l1.644-7.874h0.972l-0.585,2.814c0.308-0.283,0.587-0.482,0.838-0.599
			s0.512-0.175,0.784-0.175c0.533,0,0.979,0.198,1.335,0.597c0.356,0.396,0.534,0.976,0.534,1.734c0,0.505-0.071,0.967-0.215,1.386
			s-0.32,0.771-0.531,1.056c-0.212,0.284-0.43,0.512-0.656,0.682c-0.225,0.17-0.456,0.298-0.692,0.382s-0.464,0.126-0.683,0.126
			c-0.375,0-0.707-0.1-0.993-0.298c-0.286-0.199-0.511-0.503-0.671-0.911l-0.227,1.08H113.026z M114.466,26.035l-0.006,0.183
			c0,0.487,0.117,0.857,0.35,1.112c0.232,0.254,0.522,0.381,0.87,0.381c0.34,0,0.652-0.119,0.938-0.357
			c0.284-0.238,0.519-0.609,0.7-1.114c0.184-0.505,0.274-0.971,0.274-1.396c0-0.479-0.115-0.853-0.347-1.117
			c-0.23-0.265-0.517-0.397-0.856-0.397c-0.351,0-0.673,0.135-0.967,0.405s-0.539,0.687-0.735,1.249
			C114.539,25.401,114.466,25.752,114.466,26.035z"/>
		<path style="fill:#FFFFFF;" d="M118.778,30.579l0.059-0.913c0.201,0.058,0.396,0.086,0.586,0.086c0.197,0,0.356-0.045,0.479-0.135
			c0.157-0.117,0.329-0.34,0.516-0.666l0.311-0.559l-0.95-5.72h0.956l0.43,2.884c0.086,0.57,0.159,1.139,0.221,1.709l2.551-4.593
			h1.016l-3.637,6.462c-0.351,0.63-0.662,1.047-0.935,1.251s-0.585,0.306-0.94,0.306C119.214,30.691,118.993,30.654,118.778,30.579z
			"/>
	</g>
</g>
</svg>
