<?xml version="1.0" encoding="utf-8"?>
<!-- Generator: Adobe Illustrator 17.0.0, SVG Export Plug-In . SVG Version: 6.00 Build 0)  -->
<!DOCTYPE svg PUBLIC "-//W3C//DTD SVG 1.1//EN" "http://www.w3.org/Graphics/SVG/1.1/DTD/svg11.dtd">
<svg version="1.1" id="Capa_1" xmlns="http://www.w3.org/2000/svg" xmlns:xlink="http://www.w3.org/1999/xlink" x="0px" y="0px"
	 width="405.454px" height="223.226px" viewBox="0 0 405.454 223.226" style="enable-background:new 0 0 405.454 223.226;"
	 xml:space="preserve">
<g>
	<g>
		<defs>
			<polygon id="SVGID_1_" points="98.072,82.6 146.464,129.938 98.072,177.27 269.429,177.27 317.82,129.938 269.429,82.6 			"/>
		</defs>
		<use xlink:href="#SVGID_1_"  style="overflow:visible;fill:#6FC2D8;"/>
		<clipPath id="SVGID_2_">
			<use xlink:href="#SVGID_1_"  style="overflow:visible;"/>
		</clipPath>
		
			<rect x="98.072" y="82.6" style="clip-path:url(#SVGID_2_);fill:#6FC2D8;stroke:#000000;stroke-width:0.75;stroke-miterlimit:10;" width="219.748" height="94.671"/>
		<path style="clip-path:url(#SVGID_2_);fill:none;stroke:#000000;stroke-width:0.75;stroke-miterlimit:10;stroke-dasharray:2;" d="
			M116.354,100.483c64.972,5.754,121.966,26.711,185.751,29.218"/>
		<path style="clip-path:url(#SVGID_2_);fill:#6FC2D8;stroke:#000000;stroke-width:0.75;stroke-miterlimit:10;" d="M310.536,129.937
			c2.358,0.042,4.784,0.061,7.281,0.061"/>
		<path style="clip-path:url(#SVGID_2_);fill:none;stroke:#000000;stroke-width:0.75;stroke-miterlimit:10;stroke-dasharray:2;" d="
			M146.464,129.998c68.997,0,87.836,25.058,142.27,27.401"/>
		<path style="clip-path:url(#SVGID_2_);fill:#6FC2D8;stroke:#000000;stroke-width:0.75;stroke-miterlimit:10;" d="M116.276,158.094
			c2.483,0,4.909-0.016,7.282-0.04"/>
		<path style="clip-path:url(#SVGID_2_);fill:none;stroke:#000000;stroke-width:0.75;stroke-miterlimit:10;stroke-dasharray:2;" d="
			M117.683,158.089c63.61,2.298,118.037-28.152,184.424-27.793"/>
		
			<path style="clip-path:url(#SVGID_2_);fill:#6FC2D8;stroke:#000000;stroke-width:0.75;stroke-miterlimit:10;stroke-dasharray:2;" d="
			M305.677,130.06c3.932-0.042,7.976-0.061,12.14-0.061"/>
		<path style="clip-path:url(#SVGID_2_);fill:none;stroke:#2C6882;stroke-miterlimit:10;" d="M116.276,158.094
			c114.427,0,80.26-55.96,172.456-55.96"/>
		<use xlink:href="#SVGID_1_"  style="overflow:visible;fill:none;stroke:#000000;stroke-width:0.75;stroke-miterlimit:10;"/>
	</g>
	<line style="fill:none;stroke:#000000;stroke-miterlimit:10;" x1="46.66" y1="129.998" x2="125.998" y2="129.998"/>
	<line style="fill:none;stroke:#000000;stroke-miterlimit:10;" x1="40.798" y1="102.134" x2="98.355" y2="102.134"/>
	<line style="fill:none;stroke:#000000;stroke-miterlimit:10;" x1="52.519" y1="157.401" x2="98.355" y2="157.401"/>
	<line style="fill:none;stroke:#000000;stroke-miterlimit:10;" x1="323.681" y1="129.998" x2="375.376" y2="129.998"/>
	<line style="fill:none;stroke:#000000;stroke-miterlimit:10;" x1="298.875" y1="102.134" x2="375.376" y2="102.134"/>
	<line style="fill:none;stroke:#000000;stroke-miterlimit:10;" x1="298.875" y1="157.401" x2="375.376" y2="157.401"/>
	<polyline style="fill:none;stroke:#000000;stroke-miterlimit:10;" points="99.452,55.571 175.979,55.571 175.979,63.193 	"/>
	<polyline style="fill:none;stroke:#000000;stroke-miterlimit:10;" points="99.452,46.78 202.504,46.78 202.504,63.192 	"/>
	<polyline style="fill:none;stroke:#000000;stroke-miterlimit:10;" points="107.228,222.726 235.971,222.726 235.971,193.872 	"/>
	<g>
		<path d="M5.146,10.31H3.885V2.276C3.581,2.565,3.183,2.855,2.69,3.145S1.755,3.651,1.363,3.796V2.577
			c0.705-0.331,1.321-0.733,1.849-1.205C3.74,0.901,4.113,0.443,4.333,0h0.813V10.31z"/>
		<path d="M9.082,10.31V8.874h1.436v1.436H9.082z"/>
		<path d="M16.842,10.31V0.042h1.394l5.393,8.062V0.042h1.303V10.31h-1.394l-5.393-8.068v8.068H16.842z"/>
		<path d="M26.584,6.591c0-1.378,0.383-2.398,1.149-3.062c0.64-0.551,1.419-0.826,2.339-0.826c1.022,0,1.858,0.335,2.507,1.005
			s0.974,1.596,0.974,2.777c0,0.957-0.144,1.71-0.431,2.259s-0.705,0.975-1.254,1.278s-1.147,0.455-1.796,0.455
			c-1.042,0-1.883-0.334-2.525-1.001C26.906,8.809,26.584,7.847,26.584,6.591z M27.88,6.591c0,0.952,0.208,1.665,0.624,2.14
			c0.416,0.474,0.938,0.711,1.569,0.711c0.625,0,1.146-0.238,1.562-0.715c0.416-0.477,0.623-1.202,0.623-2.178
			c0-0.92-0.209-1.617-0.627-2.091c-0.418-0.475-0.938-0.711-1.558-0.711c-0.63,0-1.153,0.235-1.569,0.707
			C28.088,4.926,27.88,5.638,27.88,6.591z"/>
		<path d="M35.031,10.31V2.871h1.128v1.044c0.233-0.364,0.544-0.657,0.932-0.879c0.387-0.222,0.829-0.333,1.324-0.333
			c0.551,0,1.002,0.114,1.355,0.344c0.353,0.229,0.601,0.548,0.746,0.959c0.588-0.868,1.354-1.303,2.297-1.303
			c0.738,0,1.305,0.204,1.702,0.613c0.397,0.408,0.596,1.037,0.596,1.888v5.105h-1.254V5.624c0-0.505-0.041-0.867-0.123-1.089
			s-0.23-0.4-0.445-0.536s-0.467-0.203-0.756-0.203c-0.523,0-0.957,0.174-1.303,0.521c-0.346,0.349-0.518,0.905-0.518,1.671v4.321
			h-1.261V5.477c0-0.56-0.103-0.98-0.309-1.261c-0.205-0.28-0.542-0.42-1.008-0.42c-0.355,0-0.683,0.094-0.984,0.28
			c-0.301,0.187-0.52,0.46-0.655,0.819c-0.135,0.359-0.203,0.878-0.203,1.555v3.859H35.031z"/>
		<path d="M48.143,10.31h-1.17V0.042h1.261v3.663c0.532-0.668,1.212-1.002,2.038-1.002c0.458,0,0.891,0.093,1.299,0.276
			c0.409,0.185,0.745,0.444,1.009,0.778c0.264,0.333,0.47,0.736,0.62,1.208s0.224,0.976,0.224,1.513c0,1.274-0.315,2.26-0.945,2.955
			c-0.63,0.696-1.387,1.044-2.27,1.044c-0.878,0-1.566-0.366-2.066-1.1V10.31z M48.129,6.534c0,0.893,0.121,1.536,0.364,1.934
			c0.396,0.648,0.934,0.974,1.611,0.974c0.551,0,1.027-0.239,1.429-0.718c0.401-0.479,0.603-1.192,0.603-2.141
			c0-0.971-0.193-1.688-0.578-2.149C51.172,3.971,50.707,3.74,50.16,3.74c-0.551,0-1.027,0.239-1.429,0.718
			C48.33,4.937,48.129,5.629,48.129,6.534z"/>
		<path d="M54.944,10.31V2.871h1.135v1.128c0.289-0.527,0.557-0.876,0.802-1.044s0.515-0.252,0.809-0.252
			c0.425,0,0.856,0.136,1.295,0.406l-0.434,1.17c-0.308-0.183-0.616-0.273-0.924-0.273c-0.276,0-0.523,0.083-0.743,0.249
			c-0.22,0.166-0.376,0.396-0.469,0.689c-0.14,0.448-0.21,0.938-0.21,1.471v3.895H54.944z"/>
		<path d="M64.826,7.914l1.303,0.161c-0.206,0.762-0.586,1.352-1.142,1.772c-0.556,0.42-1.266,0.63-2.129,0.63
			c-1.088,0-1.951-0.335-2.588-1.005c-0.638-0.67-0.956-1.609-0.956-2.819c0-1.251,0.322-2.223,0.966-2.913
			c0.645-0.691,1.48-1.037,2.508-1.037c0.994,0,1.807,0.339,2.437,1.016s0.946,1.63,0.946,2.857c0,0.075-0.002,0.188-0.007,0.337
			h-5.547c0.046,0.816,0.278,1.442,0.693,1.877c0.416,0.434,0.934,0.651,1.555,0.651c0.462,0,0.857-0.122,1.184-0.364
			C64.375,8.834,64.634,8.446,64.826,7.914z M60.687,5.876h4.153c-0.056-0.626-0.215-1.095-0.476-1.408
			c-0.402-0.485-0.922-0.728-1.562-0.728c-0.579,0-1.066,0.193-1.46,0.581S60.729,5.228,60.687,5.876z"/>
		<path d="M76.523,10.31V9.371c-0.472,0.737-1.165,1.106-2.081,1.106c-0.593,0-1.138-0.163-1.635-0.49s-0.882-0.783-1.156-1.369
			c-0.273-0.586-0.41-1.26-0.41-2.021c0-0.742,0.124-1.416,0.371-2.021s0.619-1.068,1.114-1.391s1.048-0.483,1.66-0.483
			c0.448,0,0.847,0.095,1.197,0.284c0.351,0.188,0.635,0.436,0.854,0.738V0.042h1.254V10.31H76.523z M72.538,6.598
			c0,0.952,0.201,1.664,0.602,2.136c0.402,0.472,0.875,0.708,1.422,0.708c0.551,0,1.019-0.226,1.404-0.676
			c0.385-0.451,0.578-1.139,0.578-2.063c0-1.018-0.196-1.765-0.588-2.241c-0.393-0.476-0.875-0.714-1.45-0.714
			c-0.56,0-1.028,0.229-1.404,0.687C72.726,4.891,72.538,5.612,72.538,6.598z"/>
		<path d="M84.767,7.914l1.303,0.161c-0.206,0.762-0.586,1.352-1.142,1.772c-0.556,0.42-1.266,0.63-2.129,0.63
			c-1.088,0-1.951-0.335-2.588-1.005c-0.638-0.67-0.956-1.609-0.956-2.819c0-1.251,0.322-2.223,0.966-2.913
			c0.645-0.691,1.48-1.037,2.508-1.037c0.994,0,1.807,0.339,2.437,1.016s0.946,1.63,0.946,2.857c0,0.075-0.002,0.188-0.007,0.337
			h-5.547c0.046,0.816,0.278,1.442,0.693,1.877c0.416,0.434,0.934,0.651,1.555,0.651c0.462,0,0.857-0.122,1.184-0.364
			C84.316,8.834,84.575,8.446,84.767,7.914z M80.627,5.876h4.153c-0.056-0.626-0.215-1.095-0.476-1.408
			c-0.402-0.485-0.922-0.728-1.562-0.728c-0.579,0-1.066,0.193-1.46,0.581S80.669,5.228,80.627,5.876z"/>
		<path d="M87.624,10.31V0.042h1.261V10.31H87.624z"/>
		<path d="M94.824,13.16V2.871h1.149v0.967c0.271-0.378,0.577-0.662,0.917-0.851c0.341-0.189,0.754-0.284,1.24-0.284
			c0.635,0,1.195,0.164,1.681,0.49c0.486,0.327,0.853,0.788,1.1,1.384c0.247,0.595,0.371,1.248,0.371,1.957
			c0,0.762-0.137,1.446-0.41,2.056c-0.273,0.609-0.67,1.076-1.191,1.401c-0.521,0.324-1.068,0.486-1.643,0.486
			c-0.42,0-0.797-0.089-1.131-0.266c-0.334-0.178-0.608-0.402-0.823-0.673v3.621H94.824z M95.966,6.633
			c0,0.957,0.193,1.664,0.581,2.122c0.388,0.457,0.857,0.687,1.408,0.687c0.561,0,1.04-0.237,1.439-0.711
			c0.399-0.475,0.599-1.208,0.599-2.203c0-0.948-0.195-1.657-0.584-2.129c-0.39-0.472-0.856-0.708-1.397-0.708
			c-0.537,0-1.012,0.251-1.425,0.753S95.966,5.676,95.966,6.633z"/>
		<path d="M102.788,10.31V2.871h1.135v1.128c0.289-0.527,0.557-0.876,0.802-1.044s0.515-0.252,0.809-0.252
			c0.425,0,0.856,0.136,1.295,0.406l-0.434,1.17c-0.308-0.183-0.616-0.273-0.924-0.273c-0.276,0-0.523,0.083-0.743,0.249
			c-0.22,0.166-0.376,0.396-0.469,0.689c-0.14,0.448-0.21,0.938-0.21,1.471v3.895H102.788z"/>
		<path d="M107.109,6.591c0-1.378,0.383-2.398,1.149-3.062c0.64-0.551,1.419-0.826,2.339-0.826c1.022,0,1.858,0.335,2.507,1.005
			s0.974,1.596,0.974,2.777c0,0.957-0.144,1.71-0.431,2.259s-0.705,0.975-1.254,1.278s-1.147,0.455-1.796,0.455
			c-1.042,0-1.883-0.334-2.525-1.001C107.43,8.809,107.109,7.847,107.109,6.591z M108.405,6.591c0,0.952,0.208,1.665,0.624,2.14
			c0.416,0.474,0.938,0.711,1.569,0.711c0.625,0,1.146-0.238,1.562-0.715c0.416-0.477,0.623-1.202,0.623-2.178
			c0-0.92-0.209-1.617-0.627-2.091c-0.418-0.475-0.938-0.711-1.558-0.711c-0.63,0-1.153,0.235-1.569,0.707
			C108.612,4.926,108.405,5.638,108.405,6.591z"/>
		<path d="M120.41,7.585l1.24,0.161c-0.136,0.854-0.482,1.523-1.04,2.007c-0.558,0.483-1.243,0.725-2.056,0.725
			c-1.018,0-1.836-0.333-2.455-0.998s-0.928-1.619-0.928-2.861c0-0.803,0.133-1.506,0.399-2.107
			c0.266-0.603,0.671-1.055,1.215-1.355c0.544-0.302,1.136-0.452,1.775-0.452c0.808,0,1.468,0.204,1.982,0.613
			c0.514,0.408,0.843,0.988,0.988,1.74l-1.226,0.189c-0.117-0.5-0.324-0.876-0.62-1.128S119.03,3.74,118.61,3.74
			c-0.635,0-1.151,0.228-1.548,0.683c-0.396,0.455-0.595,1.176-0.595,2.16c0,1,0.191,1.726,0.574,2.179s0.883,0.68,1.499,0.68
			c0.495,0,0.908-0.152,1.24-0.456C120.111,8.683,120.321,8.216,120.41,7.585z"/>
		<path d="M127.82,7.914l1.303,0.161c-0.206,0.762-0.586,1.352-1.142,1.772c-0.556,0.42-1.266,0.63-2.129,0.63
			c-1.088,0-1.951-0.335-2.588-1.005c-0.638-0.67-0.956-1.609-0.956-2.819c0-1.251,0.322-2.223,0.966-2.913
			c0.645-0.691,1.48-1.037,2.508-1.037c0.994,0,1.807,0.339,2.437,1.016s0.946,1.63,0.946,2.857c0,0.075-0.002,0.188-0.007,0.337
			h-5.547c0.046,0.816,0.278,1.442,0.693,1.877c0.416,0.434,0.934,0.651,1.555,0.651c0.462,0,0.857-0.122,1.184-0.364
			C127.369,8.834,127.628,8.446,127.82,7.914z M123.68,5.876h4.153c-0.056-0.626-0.215-1.095-0.476-1.408
			c-0.402-0.485-0.922-0.728-1.562-0.728c-0.579,0-1.066,0.193-1.46,0.581S123.722,5.228,123.68,5.876z"/>
		<path d="M130.201,8.089l1.247-0.195c0.07,0.499,0.265,0.882,0.585,1.148c0.32,0.266,0.767,0.399,1.341,0.399
			c0.579,0,1.008-0.118,1.289-0.354c0.28-0.235,0.42-0.512,0.42-0.829c0-0.285-0.124-0.51-0.372-0.673
			c-0.173-0.112-0.602-0.254-1.289-0.427c-0.924-0.233-1.565-0.436-1.922-0.606c-0.357-0.17-0.628-0.406-0.813-0.707
			c-0.185-0.302-0.277-0.634-0.277-0.998c0-0.332,0.076-0.639,0.228-0.921c0.152-0.283,0.358-0.518,0.62-0.704
			c0.196-0.145,0.463-0.268,0.802-0.368c0.338-0.1,0.702-0.15,1.089-0.15c0.583,0,1.096,0.084,1.537,0.252s0.767,0.396,0.977,0.684
			s0.355,0.671,0.434,1.151l-1.232,0.169c-0.056-0.383-0.218-0.683-0.487-0.896c-0.269-0.215-0.648-0.322-1.138-0.322
			c-0.579,0-0.992,0.096-1.24,0.287s-0.371,0.415-0.371,0.672c0,0.164,0.051,0.311,0.154,0.441c0.103,0.136,0.264,0.247,0.483,0.336
			c0.126,0.047,0.498,0.154,1.114,0.322c0.892,0.238,1.514,0.434,1.867,0.585c0.353,0.151,0.629,0.372,0.83,0.662
			c0.201,0.289,0.301,0.648,0.301,1.078c0,0.421-0.123,0.816-0.368,1.188s-0.599,0.658-1.061,0.861s-0.985,0.305-1.569,0.305
			c-0.967,0-1.703-0.2-2.21-0.603C130.665,9.474,130.341,8.879,130.201,8.089z"/>
		<path d="M137.408,6.591c0-1.378,0.383-2.398,1.149-3.062c0.64-0.551,1.419-0.826,2.339-0.826c1.022,0,1.858,0.335,2.507,1.005
			s0.974,1.596,0.974,2.777c0,0.957-0.144,1.71-0.431,2.259s-0.705,0.975-1.254,1.278s-1.147,0.455-1.796,0.455
			c-1.042,0-1.883-0.334-2.525-1.001C137.729,8.809,137.408,7.847,137.408,6.591z M138.704,6.591c0,0.952,0.208,1.665,0.624,2.14
			c0.416,0.474,0.938,0.711,1.569,0.711c0.625,0,1.146-0.238,1.562-0.715c0.416-0.477,0.623-1.202,0.623-2.178
			c0-0.92-0.209-1.617-0.627-2.091c-0.418-0.475-0.938-0.711-1.558-0.711c-0.63,0-1.153,0.235-1.569,0.707
			C138.912,4.926,138.704,5.638,138.704,6.591z"/>
	</g>
	<g>
		<g>
			<path d="M7.022,24.915v1.212H0.235c-0.009-0.304,0.04-0.596,0.147-0.876c0.172-0.462,0.449-0.917,0.83-1.365
				c0.381-0.448,0.931-0.967,1.649-1.555c1.116-0.915,1.87-1.641,2.263-2.175c0.392-0.535,0.588-1.04,0.588-1.517
				c0-0.5-0.178-0.921-0.536-1.265C4.82,17.032,4.354,16.86,3.779,16.86c-0.607,0-1.092,0.183-1.457,0.547S1.774,18.275,1.77,18.92
				l-1.296-0.133c0.089-0.967,0.422-1.703,1.001-2.21s1.356-0.76,2.333-0.76c0.985,0,1.765,0.272,2.339,0.819
				c0.574,0.546,0.861,1.224,0.861,2.031c0,0.411-0.084,0.814-0.252,1.212c-0.168,0.396-0.447,0.814-0.837,1.253
				c-0.39,0.439-1.038,1.042-1.944,1.808c-0.756,0.635-1.242,1.065-1.457,1.292c-0.215,0.227-0.393,0.454-0.533,0.683H7.022z"/>
			<path d="M9.082,26.127v-1.436h1.436v1.436H9.082z"/>
			<path d="M16.877,26.127V15.859h4.553c0.915,0,1.611,0.092,2.087,0.276c0.476,0.185,0.856,0.51,1.142,0.978
				c0.285,0.467,0.427,0.982,0.427,1.548c0,0.728-0.236,1.342-0.708,1.842s-1.2,0.817-2.185,0.952
				c0.359,0.173,0.632,0.344,0.819,0.512c0.397,0.364,0.772,0.819,1.127,1.365l1.786,2.795h-1.709l-1.359-2.136
				c-0.397-0.617-0.724-1.089-0.98-1.415c-0.257-0.327-0.487-0.556-0.69-0.687s-0.41-0.222-0.62-0.273
				c-0.154-0.032-0.406-0.049-0.756-0.049h-1.576v4.56H16.877z M18.236,20.391h2.921c0.621,0,1.106-0.064,1.457-0.192
				c0.35-0.129,0.617-0.334,0.798-0.616c0.182-0.283,0.273-0.59,0.273-0.921c0-0.486-0.176-0.885-0.529-1.198
				c-0.353-0.313-0.91-0.469-1.67-0.469h-3.25V20.391z"/>
			<path d="M32.146,23.731l1.303,0.161c-0.206,0.762-0.586,1.352-1.142,1.772c-0.556,0.42-1.266,0.63-2.129,0.63
				c-1.088,0-1.951-0.335-2.588-1.005c-0.638-0.67-0.956-1.609-0.956-2.819c0-1.251,0.322-2.223,0.966-2.913
				c0.645-0.691,1.48-1.037,2.508-1.037c0.994,0,1.807,0.339,2.437,1.016s0.946,1.63,0.946,2.857c0,0.075-0.002,0.188-0.007,0.337
				h-5.547c0.046,0.816,0.278,1.442,0.693,1.877c0.416,0.434,0.934,0.651,1.555,0.651c0.462,0,0.857-0.122,1.184-0.364
				C31.695,24.651,31.954,24.264,32.146,23.731z M28.006,21.693h4.153c-0.056-0.626-0.215-1.095-0.476-1.408
				c-0.402-0.485-0.922-0.728-1.562-0.728c-0.579,0-1.066,0.193-1.46,0.581S28.048,21.045,28.006,21.693z"/>
			<path d="M34.527,23.906l1.247-0.195c0.07,0.499,0.265,0.882,0.585,1.148c0.32,0.266,0.767,0.399,1.341,0.399
				c0.579,0,1.008-0.118,1.289-0.354c0.28-0.235,0.42-0.512,0.42-0.829c0-0.285-0.124-0.51-0.372-0.673
				c-0.173-0.112-0.602-0.254-1.289-0.427c-0.924-0.233-1.565-0.436-1.922-0.606c-0.357-0.17-0.628-0.406-0.813-0.707
				c-0.185-0.302-0.277-0.634-0.277-0.998c0-0.332,0.076-0.639,0.228-0.921c0.152-0.283,0.358-0.518,0.62-0.704
				c0.196-0.145,0.463-0.268,0.802-0.368c0.338-0.1,0.702-0.15,1.089-0.15c0.583,0,1.096,0.084,1.537,0.252s0.767,0.396,0.977,0.684
				s0.355,0.671,0.434,1.151l-1.232,0.169c-0.056-0.383-0.218-0.683-0.487-0.896c-0.269-0.215-0.648-0.322-1.138-0.322
				c-0.579,0-0.992,0.096-1.24,0.287s-0.371,0.415-0.371,0.672c0,0.164,0.051,0.311,0.154,0.441
				c0.103,0.136,0.264,0.247,0.483,0.336c0.126,0.047,0.498,0.154,1.114,0.322c0.892,0.238,1.514,0.434,1.867,0.585
				c0.353,0.151,0.629,0.372,0.83,0.662c0.201,0.289,0.301,0.648,0.301,1.078c0,0.421-0.123,0.816-0.368,1.188
				s-0.599,0.658-1.061,0.861s-0.985,0.305-1.569,0.305c-0.967,0-1.703-0.2-2.21-0.603C34.991,25.291,34.667,24.696,34.527,23.906z"
				/>
			<path d="M42.203,28.978V18.688h1.149v0.967c0.271-0.378,0.577-0.662,0.917-0.851c0.341-0.189,0.754-0.284,1.24-0.284
				c0.635,0,1.195,0.164,1.681,0.49c0.486,0.327,0.853,0.788,1.1,1.384c0.247,0.595,0.371,1.248,0.371,1.957
				c0,0.762-0.137,1.446-0.41,2.056c-0.273,0.609-0.67,1.076-1.191,1.401c-0.521,0.324-1.068,0.486-1.643,0.486
				c-0.42,0-0.797-0.089-1.131-0.266c-0.334-0.178-0.608-0.402-0.823-0.673v3.621H42.203z M43.345,22.45
				c0,0.957,0.193,1.664,0.581,2.122c0.388,0.457,0.857,0.687,1.408,0.687c0.561,0,1.04-0.237,1.439-0.711
				c0.399-0.475,0.599-1.208,0.599-2.203c0-0.948-0.195-1.657-0.584-2.129c-0.39-0.472-0.856-0.708-1.397-0.708
				c-0.537,0-1.012,0.251-1.425,0.753S43.345,21.493,43.345,22.45z"/>
			<path d="M49.711,22.408c0-1.378,0.383-2.398,1.149-3.062c0.64-0.551,1.419-0.826,2.339-0.826c1.022,0,1.858,0.335,2.507,1.005
				s0.974,1.596,0.974,2.777c0,0.957-0.144,1.71-0.431,2.259s-0.705,0.975-1.254,1.278s-1.147,0.455-1.796,0.455
				c-1.042,0-1.883-0.334-2.525-1.001C50.033,24.626,49.711,23.664,49.711,22.408z M51.007,22.408c0,0.952,0.208,1.665,0.624,2.14
				c0.416,0.474,0.938,0.711,1.569,0.711c0.625,0,1.146-0.238,1.562-0.715c0.416-0.477,0.623-1.202,0.623-2.178
				c0-0.92-0.209-1.617-0.627-2.091c-0.418-0.475-0.938-0.711-1.558-0.711c-0.63,0-1.153,0.235-1.569,0.707
				C51.215,20.743,51.007,21.455,51.007,22.408z"/>
			<path d="M58.158,26.127v-7.438h1.135v1.058c0.546-0.816,1.335-1.226,2.368-1.226c0.448,0,0.86,0.081,1.236,0.242
				s0.657,0.372,0.844,0.634c0.187,0.261,0.317,0.571,0.392,0.932c0.046,0.233,0.07,0.642,0.07,1.226v4.573h-1.26v-4.524
				c0-0.514-0.049-0.897-0.147-1.152s-0.272-0.458-0.521-0.609c-0.25-0.151-0.543-0.228-0.879-0.228c-0.537,0-1,0.171-1.39,0.512
				s-0.585,0.987-0.585,1.939v4.063H58.158z"/>
			<path d="M65.632,23.906l1.247-0.195c0.07,0.499,0.265,0.882,0.585,1.148c0.32,0.266,0.767,0.399,1.341,0.399
				c0.579,0,1.008-0.118,1.289-0.354c0.28-0.235,0.42-0.512,0.42-0.829c0-0.285-0.124-0.51-0.372-0.673
				c-0.173-0.112-0.602-0.254-1.289-0.427c-0.924-0.233-1.565-0.436-1.922-0.606c-0.357-0.17-0.628-0.406-0.813-0.707
				c-0.185-0.302-0.277-0.634-0.277-0.998c0-0.332,0.076-0.639,0.228-0.921c0.152-0.283,0.358-0.518,0.62-0.704
				c0.196-0.145,0.463-0.268,0.802-0.368c0.338-0.1,0.702-0.15,1.089-0.15c0.583,0,1.096,0.084,1.537,0.252s0.767,0.396,0.977,0.684
				s0.355,0.671,0.434,1.151l-1.232,0.169c-0.056-0.383-0.218-0.683-0.487-0.896c-0.269-0.215-0.648-0.322-1.138-0.322
				c-0.579,0-0.992,0.096-1.24,0.287s-0.371,0.415-0.371,0.672c0,0.164,0.051,0.311,0.154,0.441
				c0.103,0.136,0.264,0.247,0.483,0.336c0.126,0.047,0.498,0.154,1.114,0.322c0.892,0.238,1.514,0.434,1.867,0.585
				c0.353,0.151,0.629,0.372,0.83,0.662c0.201,0.289,0.301,0.648,0.301,1.078c0,0.421-0.123,0.816-0.368,1.188
				s-0.599,0.658-1.061,0.861s-0.985,0.305-1.569,0.305c-0.967,0-1.703-0.2-2.21-0.603C66.095,25.291,65.772,24.696,65.632,23.906z"
				/>
			<path d="M78.162,25.209c-0.467,0.397-0.917,0.678-1.348,0.841c-0.432,0.163-0.896,0.245-1.391,0.245
				c-0.817,0-1.445-0.199-1.884-0.599s-0.659-0.909-0.659-1.53c0-0.364,0.083-0.697,0.249-0.998
				c0.166-0.302,0.383-0.543,0.651-0.726c0.268-0.182,0.571-0.319,0.907-0.413c0.248-0.065,0.621-0.128,1.121-0.188
				c1.018-0.122,1.768-0.267,2.249-0.435c0.004-0.173,0.007-0.282,0.007-0.329c0-0.514-0.119-0.876-0.357-1.086
				c-0.322-0.284-0.801-0.427-1.436-0.427c-0.593,0-1.031,0.104-1.313,0.312c-0.283,0.208-0.492,0.575-0.627,1.104l-1.233-0.169
				c0.112-0.527,0.296-0.953,0.553-1.278c0.257-0.324,0.628-0.574,1.114-0.749c0.485-0.175,1.048-0.263,1.688-0.263
				c0.635,0,1.151,0.075,1.548,0.225s0.688,0.337,0.875,0.563c0.187,0.227,0.317,0.513,0.392,0.858
				c0.042,0.215,0.063,0.602,0.063,1.162v1.681c0,1.173,0.027,1.914,0.081,2.225s0.16,0.607,0.319,0.893h-1.317
				C78.283,25.865,78.199,25.56,78.162,25.209z M78.057,22.394c-0.458,0.188-1.144,0.346-2.059,0.477
				c-0.519,0.075-0.885,0.159-1.1,0.252c-0.215,0.094-0.381,0.23-0.498,0.41s-0.175,0.379-0.175,0.599
				c0,0.336,0.127,0.616,0.381,0.841c0.254,0.224,0.627,0.336,1.117,0.336c0.486,0,0.917-0.106,1.296-0.318
				c0.378-0.213,0.656-0.504,0.833-0.872c0.135-0.285,0.203-0.705,0.203-1.261V22.394z"/>
			<path d="M82.448,26.127h-1.17V15.859h1.261v3.663c0.532-0.668,1.212-1.002,2.038-1.002c0.458,0,0.891,0.093,1.299,0.276
				c0.409,0.185,0.745,0.444,1.009,0.778c0.264,0.333,0.47,0.736,0.62,1.208s0.224,0.976,0.224,1.513
				c0,1.274-0.315,2.26-0.945,2.955c-0.63,0.696-1.387,1.044-2.27,1.044c-0.878,0-1.566-0.366-2.066-1.1V26.127z M82.434,22.352
				c0,0.893,0.121,1.536,0.364,1.934c0.396,0.648,0.934,0.974,1.611,0.974c0.551,0,1.027-0.239,1.429-0.718
				c0.401-0.479,0.603-1.192,0.603-2.141c0-0.971-0.193-1.688-0.578-2.149c-0.385-0.463-0.851-0.693-1.397-0.693
				c-0.551,0-1.027,0.239-1.429,0.718C82.635,20.754,82.434,21.446,82.434,22.352z"/>
			<path d="M89.235,26.127V15.859h1.261v10.268H89.235z"/>
			<path d="M97.542,23.731l1.303,0.161c-0.206,0.762-0.586,1.352-1.142,1.772c-0.556,0.42-1.266,0.63-2.129,0.63
				c-1.088,0-1.951-0.335-2.588-1.005c-0.638-0.67-0.956-1.609-0.956-2.819c0-1.251,0.322-2.223,0.966-2.913
				c0.645-0.691,1.48-1.037,2.508-1.037c0.994,0,1.807,0.339,2.437,1.016s0.946,1.63,0.946,2.857c0,0.075-0.002,0.188-0.007,0.337
				h-5.547c0.046,0.816,0.278,1.442,0.693,1.877c0.416,0.434,0.934,0.651,1.555,0.651c0.462,0,0.857-0.122,1.184-0.364
				C97.091,24.651,97.35,24.264,97.542,23.731z M93.402,21.693h4.153c-0.056-0.626-0.215-1.095-0.476-1.408
				c-0.402-0.485-0.922-0.728-1.562-0.728c-0.579,0-1.066,0.193-1.46,0.581S93.444,21.045,93.402,21.693z"/>
			<path d="M104.357,28.991l-0.14-1.184c0.275,0.075,0.516,0.112,0.721,0.112c0.28,0,0.504-0.047,0.672-0.14
				c0.168-0.094,0.306-0.225,0.414-0.393c0.079-0.126,0.208-0.439,0.385-0.938c0.023-0.07,0.061-0.173,0.112-0.309l-2.823-7.452
				h1.359l1.548,4.308c0.201,0.547,0.38,1.121,0.54,1.723c0.145-0.578,0.317-1.144,0.518-1.694l1.59-4.336h1.261l-2.83,7.564
				c-0.304,0.817-0.539,1.38-0.708,1.688c-0.224,0.415-0.481,0.72-0.77,0.914c-0.29,0.193-0.635,0.29-1.037,0.29
				C104.926,29.146,104.656,29.094,104.357,28.991z"/>
			<path d="M115.101,22.408c0-1.378,0.383-2.398,1.149-3.062c0.64-0.551,1.419-0.826,2.339-0.826c1.022,0,1.858,0.335,2.507,1.005
				s0.974,1.596,0.974,2.777c0,0.957-0.144,1.71-0.431,2.259s-0.705,0.975-1.254,1.278s-1.147,0.455-1.796,0.455
				c-1.042,0-1.883-0.334-2.525-1.001C115.422,24.626,115.101,23.664,115.101,22.408z M116.396,22.408
				c0,0.952,0.208,1.665,0.624,2.14c0.416,0.474,0.938,0.711,1.569,0.711c0.625,0,1.146-0.238,1.562-0.715
				c0.416-0.477,0.623-1.202,0.623-2.178c0-0.92-0.209-1.617-0.627-2.091c-0.418-0.475-0.938-0.711-1.558-0.711
				c-0.63,0-1.153,0.235-1.569,0.707C116.604,20.743,116.396,21.455,116.396,22.408z"/>
			<path d="M124.71,26.127h-1.17V15.859h1.261v3.663c0.532-0.668,1.212-1.002,2.038-1.002c0.458,0,0.891,0.093,1.299,0.276
				c0.409,0.185,0.745,0.444,1.009,0.778c0.264,0.333,0.47,0.736,0.62,1.208s0.224,0.976,0.224,1.513
				c0,1.274-0.315,2.26-0.945,2.955c-0.63,0.696-1.387,1.044-2.27,1.044c-0.878,0-1.566-0.366-2.066-1.1V26.127z M124.696,22.352
				c0,0.893,0.121,1.536,0.364,1.934c0.396,0.648,0.934,0.974,1.611,0.974c0.551,0,1.027-0.239,1.429-0.718
				c0.401-0.479,0.603-1.192,0.603-2.141c0-0.971-0.193-1.688-0.578-2.149c-0.385-0.463-0.851-0.693-1.397-0.693
				c-0.551,0-1.027,0.239-1.429,0.718C124.897,20.754,124.696,21.446,124.696,22.352z"/>
			<path d="M129.921,29.013l0.238-1.071c0.252,0.064,0.451,0.098,0.596,0.098c0.256,0,0.448-0.085,0.574-0.256
				c0.126-0.17,0.189-0.597,0.189-1.278v-7.816h1.261v7.845c0,0.915-0.119,1.553-0.357,1.912c-0.304,0.467-0.808,0.7-1.513,0.7
				C130.568,29.146,130.239,29.102,129.921,29.013z M131.518,17.323v-1.464h1.261v1.464H131.518z"/>
			<path d="M139.804,23.731l1.303,0.161c-0.206,0.762-0.586,1.352-1.142,1.772c-0.556,0.42-1.266,0.63-2.129,0.63
				c-1.088,0-1.951-0.335-2.588-1.005c-0.638-0.67-0.956-1.609-0.956-2.819c0-1.251,0.322-2.223,0.966-2.913
				c0.645-0.691,1.48-1.037,2.508-1.037c0.994,0,1.807,0.339,2.437,1.016s0.946,1.63,0.946,2.857c0,0.075-0.002,0.188-0.007,0.337
				h-5.547c0.046,0.816,0.278,1.442,0.693,1.877c0.416,0.434,0.934,0.651,1.555,0.651c0.462,0,0.857-0.122,1.184-0.364
				C139.353,24.651,139.612,24.264,139.804,23.731z M135.664,21.693h4.153c-0.056-0.626-0.215-1.095-0.476-1.408
				c-0.402-0.485-0.922-0.728-1.562-0.728c-0.579,0-1.066,0.193-1.46,0.581S135.706,21.045,135.664,21.693z"/>
			<path d="M145.442,24.999l0.182,1.114c-0.355,0.074-0.672,0.111-0.953,0.111c-0.458,0-0.813-0.072-1.064-0.217
				c-0.252-0.145-0.43-0.335-0.533-0.57c-0.103-0.236-0.154-0.732-0.154-1.489v-4.279h-0.925v-0.98h0.925v-1.842l1.253-0.757v2.599
				h1.268v0.98h-1.268v4.35c0,0.359,0.022,0.591,0.067,0.693c0.044,0.103,0.117,0.185,0.217,0.245
				c0.101,0.061,0.244,0.092,0.431,0.092C145.028,25.049,145.213,25.032,145.442,24.999z"/>
			<path d="M146.682,17.309v-1.449h1.261v1.449H146.682z M146.682,26.127v-7.438h1.261v7.438H146.682z"/>
			<path d="M151.928,26.127l-2.83-7.438h1.331l1.597,4.455c0.172,0.48,0.332,0.98,0.476,1.499c0.112-0.393,0.269-0.864,0.469-1.415
				l1.653-4.539h1.296l-2.815,7.438H151.928z"/>
			<path d="M156.564,22.408c0-1.378,0.383-2.398,1.149-3.062c0.64-0.551,1.419-0.826,2.339-0.826c1.022,0,1.858,0.335,2.507,1.005
				s0.974,1.596,0.974,2.777c0,0.957-0.144,1.71-0.431,2.259s-0.705,0.975-1.254,1.278s-1.147,0.455-1.796,0.455
				c-1.042,0-1.883-0.334-2.525-1.001C156.885,24.626,156.564,23.664,156.564,22.408z M157.86,22.408
				c0,0.952,0.208,1.665,0.624,2.14c0.416,0.474,0.938,0.711,1.569,0.711c0.625,0,1.146-0.238,1.562-0.715
				c0.416-0.477,0.623-1.202,0.623-2.178c0-0.92-0.209-1.617-0.627-2.091c-0.418-0.475-0.938-0.711-1.558-0.711
				c-0.63,0-1.153,0.235-1.569,0.707C158.067,20.743,157.86,21.455,157.86,22.408z"/>
			<path d="M171.406,29.146c-0.696-0.878-1.284-1.905-1.765-3.082c-0.481-1.176-0.721-2.395-0.721-3.655
				c0-1.111,0.18-2.176,0.539-3.194c0.42-1.181,1.069-2.357,1.947-3.53h0.903c-0.565,0.972-0.938,1.665-1.121,2.081
				c-0.285,0.644-0.509,1.316-0.672,2.017c-0.201,0.873-0.301,1.751-0.301,2.634c0,2.246,0.698,4.489,2.094,6.73H171.406z"/>
			<path d="M178.626,25.209c-0.467,0.397-0.917,0.678-1.348,0.841c-0.432,0.163-0.896,0.245-1.391,0.245
				c-0.817,0-1.445-0.199-1.884-0.599s-0.659-0.909-0.659-1.53c0-0.364,0.083-0.697,0.249-0.998
				c0.166-0.302,0.383-0.543,0.651-0.726c0.268-0.182,0.571-0.319,0.907-0.413c0.248-0.065,0.621-0.128,1.121-0.188
				c1.018-0.122,1.768-0.267,2.249-0.435c0.004-0.173,0.007-0.282,0.007-0.329c0-0.514-0.119-0.876-0.357-1.086
				c-0.322-0.284-0.801-0.427-1.436-0.427c-0.593,0-1.031,0.104-1.313,0.312c-0.283,0.208-0.492,0.575-0.627,1.104l-1.233-0.169
				c0.112-0.527,0.296-0.953,0.553-1.278c0.257-0.324,0.628-0.574,1.114-0.749c0.485-0.175,1.048-0.263,1.688-0.263
				c0.635,0,1.151,0.075,1.548,0.225s0.688,0.337,0.875,0.563c0.187,0.227,0.317,0.513,0.392,0.858
				c0.042,0.215,0.063,0.602,0.063,1.162v1.681c0,1.173,0.027,1.914,0.081,2.225s0.16,0.607,0.319,0.893h-1.317
				C178.748,25.865,178.664,25.56,178.626,25.209z M178.521,22.394c-0.458,0.188-1.144,0.346-2.059,0.477
				c-0.519,0.075-0.885,0.159-1.1,0.252c-0.215,0.094-0.381,0.23-0.498,0.41s-0.175,0.379-0.175,0.599
				c0,0.336,0.127,0.616,0.381,0.841c0.254,0.224,0.627,0.336,1.117,0.336c0.486,0,0.917-0.106,1.296-0.318
				c0.378-0.213,0.656-0.504,0.833-0.872c0.135-0.285,0.203-0.705,0.203-1.261V22.394z"/>
			<path d="M181.722,26.127V15.859h1.261v10.268H181.722z"/>
			<path d="M189.791,23.402l1.24,0.161c-0.136,0.854-0.482,1.523-1.04,2.007c-0.558,0.483-1.243,0.725-2.056,0.725
				c-1.018,0-1.836-0.333-2.455-0.998s-0.928-1.619-0.928-2.861c0-0.803,0.133-1.506,0.399-2.107
				c0.266-0.603,0.671-1.055,1.215-1.355c0.544-0.302,1.136-0.452,1.775-0.452c0.808,0,1.468,0.204,1.982,0.613
				c0.514,0.408,0.843,0.988,0.988,1.74l-1.226,0.189c-0.117-0.5-0.324-0.876-0.62-1.128s-0.655-0.378-1.075-0.378
				c-0.635,0-1.151,0.228-1.548,0.683c-0.396,0.455-0.595,1.176-0.595,2.16c0,1,0.191,1.726,0.574,2.179s0.883,0.68,1.499,0.68
				c0.495,0,0.908-0.152,1.24-0.456C189.492,24.5,189.702,24.033,189.791,23.402z"/>
			<path d="M196.963,25.209c-0.467,0.397-0.917,0.678-1.348,0.841c-0.432,0.163-0.896,0.245-1.391,0.245
				c-0.817,0-1.445-0.199-1.884-0.599s-0.659-0.909-0.659-1.53c0-0.364,0.083-0.697,0.249-0.998
				c0.166-0.302,0.383-0.543,0.651-0.726c0.268-0.182,0.571-0.319,0.907-0.413c0.248-0.065,0.621-0.128,1.121-0.188
				c1.018-0.122,1.768-0.267,2.249-0.435c0.004-0.173,0.007-0.282,0.007-0.329c0-0.514-0.119-0.876-0.357-1.086
				c-0.322-0.284-0.801-0.427-1.436-0.427c-0.593,0-1.031,0.104-1.313,0.312c-0.283,0.208-0.492,0.575-0.627,1.104l-1.233-0.169
				c0.112-0.527,0.296-0.953,0.553-1.278c0.257-0.324,0.628-0.574,1.114-0.749c0.485-0.175,1.048-0.263,1.688-0.263
				c0.635,0,1.151,0.075,1.548,0.225s0.688,0.337,0.875,0.563c0.187,0.227,0.317,0.513,0.392,0.858
				c0.042,0.215,0.063,0.602,0.063,1.162v1.681c0,1.173,0.027,1.914,0.081,2.225s0.16,0.607,0.319,0.893h-1.317
				C197.084,25.865,197,25.56,196.963,25.209z M196.858,22.394c-0.458,0.188-1.144,0.346-2.059,0.477
				c-0.519,0.075-0.885,0.159-1.1,0.252c-0.215,0.094-0.381,0.23-0.498,0.41s-0.175,0.379-0.175,0.599
				c0,0.336,0.127,0.616,0.381,0.841c0.254,0.224,0.627,0.336,1.117,0.336c0.486,0,0.917-0.106,1.296-0.318
				c0.378-0.213,0.656-0.504,0.833-0.872c0.135-0.285,0.203-0.705,0.203-1.261V22.394z"/>
			<path d="M200.086,26.127v-7.438h1.135v1.058c0.546-0.816,1.335-1.226,2.368-1.226c0.448,0,0.86,0.081,1.236,0.242
				s0.657,0.372,0.845,0.634c0.187,0.261,0.317,0.571,0.392,0.932c0.047,0.233,0.07,0.642,0.07,1.226v4.573h-1.261v-4.524
				c0-0.514-0.049-0.897-0.147-1.152s-0.272-0.458-0.521-0.609c-0.25-0.151-0.543-0.228-0.879-0.228c-0.537,0-1,0.171-1.39,0.512
				s-0.585,0.987-0.585,1.939v4.063H200.086z"/>
			<path d="M212.918,23.402l1.239,0.161c-0.136,0.854-0.482,1.523-1.04,2.007s-1.243,0.725-2.056,0.725
				c-1.018,0-1.836-0.333-2.455-0.998c-0.618-0.665-0.928-1.619-0.928-2.861c0-0.803,0.133-1.506,0.399-2.107
				c0.266-0.603,0.671-1.055,1.215-1.355c0.544-0.302,1.136-0.452,1.775-0.452c0.808,0,1.469,0.204,1.982,0.613
				c0.514,0.408,0.843,0.988,0.987,1.74l-1.226,0.189c-0.116-0.5-0.323-0.876-0.62-1.128c-0.296-0.252-0.654-0.378-1.074-0.378
				c-0.636,0-1.151,0.228-1.549,0.683c-0.396,0.455-0.595,1.176-0.595,2.16c0,1,0.191,1.726,0.574,2.179s0.883,0.68,1.499,0.68
				c0.495,0,0.908-0.152,1.239-0.456C212.62,24.5,212.83,24.033,212.918,23.402z"/>
			<path d="M220.329,23.731l1.303,0.161c-0.205,0.762-0.586,1.352-1.142,1.772c-0.556,0.42-1.266,0.63-2.129,0.63
				c-1.088,0-1.951-0.335-2.588-1.005c-0.638-0.67-0.956-1.609-0.956-2.819c0-1.251,0.322-2.223,0.966-2.913
				c0.645-0.691,1.48-1.037,2.508-1.037c0.994,0,1.807,0.339,2.438,1.016c0.63,0.677,0.945,1.63,0.945,2.857
				c0,0.075-0.002,0.188-0.007,0.337h-5.547c0.046,0.816,0.277,1.442,0.693,1.877c0.415,0.434,0.934,0.651,1.555,0.651
				c0.462,0,0.856-0.122,1.184-0.364C219.878,24.651,220.137,24.264,220.329,23.731z M216.189,21.693h4.153
				c-0.056-0.626-0.215-1.095-0.476-1.408c-0.402-0.485-0.923-0.728-1.563-0.728c-0.579,0-1.065,0.193-1.46,0.581
				S216.231,21.045,216.189,21.693z"/>
			<path d="M224.041,29.146h-0.903c1.396-2.241,2.095-4.484,2.095-6.73c0-0.878-0.101-1.749-0.302-2.612
				c-0.158-0.701-0.381-1.373-0.665-2.018c-0.183-0.42-0.559-1.12-1.128-2.102h0.903c0.878,1.173,1.527,2.35,1.947,3.53
				c0.359,1.019,0.539,2.083,0.539,3.194c0,1.261-0.241,2.479-0.725,3.655C225.319,27.24,224.732,28.268,224.041,29.146z"/>
		</g>
	</g>
	<g>
		<g>
			<path d="M4.455,80.377v-2.458H0v-1.156l4.686-6.653h1.03v6.653h1.387v1.156H5.715v2.458H4.455z M4.455,76.763v-4.63l-3.215,4.63
				H4.455z"/>
			<path d="M9.098,80.377v-1.436h1.436v1.436H9.098z"/>
			<path d="M16.873,80.377V70.109h3.874c0.682,0,1.202,0.032,1.562,0.098c0.504,0.084,0.927,0.244,1.268,0.479
				c0.341,0.236,0.615,0.566,0.823,0.991c0.208,0.425,0.312,0.893,0.312,1.401c0,0.873-0.278,1.612-0.833,2.217
				c-0.556,0.604-1.56,0.906-3.012,0.906h-2.634v4.175H16.873z M18.231,74.991h2.655c0.877,0,1.501-0.164,1.87-0.49
				c0.369-0.327,0.554-0.787,0.554-1.38c0-0.43-0.109-0.798-0.326-1.104c-0.217-0.306-0.503-0.508-0.858-0.605
				c-0.229-0.061-0.651-0.091-1.268-0.091h-2.626V74.991z"/>
			<path d="M26.265,80.377v-7.438H27.4v1.128c0.289-0.527,0.557-0.876,0.802-1.044s0.515-0.252,0.809-0.252
				c0.425,0,0.856,0.136,1.295,0.406l-0.434,1.17c-0.308-0.183-0.616-0.273-0.924-0.273c-0.276,0-0.523,0.083-0.743,0.249
				c-0.22,0.166-0.376,0.396-0.469,0.689c-0.14,0.448-0.21,0.938-0.21,1.471v3.895H26.265z"/>
			<path d="M30.586,76.658c0-1.378,0.383-2.398,1.149-3.062c0.64-0.551,1.419-0.826,2.339-0.826c1.022,0,1.858,0.335,2.507,1.005
				s0.974,1.596,0.974,2.777c0,0.957-0.144,1.71-0.431,2.259s-0.705,0.975-1.254,1.278s-1.147,0.455-1.796,0.455
				c-1.042,0-1.883-0.334-2.525-1.001C30.907,78.876,30.586,77.914,30.586,76.658z M31.882,76.658c0,0.952,0.208,1.665,0.624,2.14
				c0.416,0.474,0.938,0.711,1.569,0.711c0.625,0,1.146-0.238,1.562-0.715c0.416-0.477,0.623-1.202,0.623-2.178
				c0-0.92-0.209-1.617-0.627-2.091c-0.418-0.475-0.938-0.711-1.558-0.711c-0.63,0-1.153,0.235-1.569,0.707
				C32.089,74.993,31.882,75.705,31.882,76.658z"/>
			<path d="M41.099,80.377l-2.83-7.438H39.6l1.597,4.455c0.172,0.48,0.332,0.98,0.476,1.499c0.112-0.393,0.269-0.864,0.469-1.415
				l1.653-4.539h1.296l-2.815,7.438H41.099z"/>
			<path d="M51.297,77.981l1.303,0.161c-0.206,0.762-0.586,1.352-1.142,1.772c-0.556,0.42-1.266,0.63-2.129,0.63
				c-1.088,0-1.951-0.335-2.588-1.005c-0.638-0.67-0.956-1.609-0.956-2.819c0-1.251,0.322-2.223,0.966-2.913
				c0.645-0.691,1.48-1.037,2.508-1.037c0.994,0,1.807,0.339,2.437,1.016s0.946,1.63,0.946,2.857c0,0.075-0.002,0.188-0.007,0.337
				h-5.547c0.046,0.816,0.278,1.442,0.693,1.877c0.416,0.434,0.934,0.651,1.555,0.651c0.462,0,0.857-0.122,1.184-0.364
				C50.847,78.901,51.105,78.514,51.297,77.981z M47.158,75.943h4.153c-0.056-0.626-0.215-1.095-0.476-1.408
				c-0.402-0.485-0.922-0.728-1.562-0.728c-0.579,0-1.066,0.193-1.46,0.581S47.2,75.295,47.158,75.943z"/>
			<path d="M59.275,77.981l1.303,0.161c-0.206,0.762-0.586,1.352-1.142,1.772c-0.556,0.42-1.266,0.63-2.129,0.63
				c-1.088,0-1.951-0.335-2.588-1.005c-0.638-0.67-0.956-1.609-0.956-2.819c0-1.251,0.322-2.223,0.966-2.913
				c0.645-0.691,1.48-1.037,2.508-1.037c0.994,0,1.807,0.339,2.437,1.016s0.946,1.63,0.946,2.857c0,0.075-0.002,0.188-0.007,0.337
				h-5.547c0.046,0.816,0.278,1.442,0.693,1.877c0.416,0.434,0.934,0.651,1.555,0.651c0.462,0,0.857-0.122,1.184-0.364
				C58.824,78.901,59.083,78.514,59.275,77.981z M55.135,75.943h4.153c-0.056-0.626-0.215-1.095-0.476-1.408
				c-0.402-0.485-0.922-0.728-1.562-0.728c-0.579,0-1.066,0.193-1.46,0.581S55.177,75.295,55.135,75.943z"/>
			<path d="M66.986,80.377v-0.938c-0.472,0.737-1.165,1.106-2.081,1.106c-0.593,0-1.138-0.163-1.635-0.49s-0.882-0.783-1.156-1.369
				c-0.273-0.586-0.41-1.26-0.41-2.021c0-0.742,0.124-1.416,0.371-2.021s0.619-1.068,1.114-1.391s1.048-0.483,1.66-0.483
				c0.448,0,0.847,0.095,1.197,0.284c0.351,0.188,0.635,0.436,0.854,0.738v-3.684h1.254v10.268H66.986z M63.001,76.665
				c0,0.952,0.201,1.664,0.602,2.136c0.402,0.472,0.875,0.708,1.422,0.708c0.551,0,1.019-0.226,1.404-0.676
				c0.385-0.451,0.578-1.139,0.578-2.063c0-1.018-0.196-1.765-0.588-2.241c-0.393-0.476-0.875-0.714-1.45-0.714
				c-0.56,0-1.028,0.229-1.404,0.687C63.189,74.958,63.001,75.68,63.001,76.665z"/>
			<path d="M69.668,76.658c0-1.378,0.383-2.398,1.149-3.062c0.64-0.551,1.419-0.826,2.339-0.826c1.022,0,1.858,0.335,2.507,1.005
				s0.974,1.596,0.974,2.777c0,0.957-0.144,1.71-0.431,2.259s-0.705,0.975-1.254,1.278s-1.147,0.455-1.796,0.455
				c-1.042,0-1.883-0.334-2.525-1.001C69.99,78.876,69.668,77.914,69.668,76.658z M70.964,76.658c0,0.952,0.208,1.665,0.624,2.14
				c0.416,0.474,0.938,0.711,1.569,0.711c0.625,0,1.146-0.238,1.562-0.715c0.416-0.477,0.623-1.202,0.623-2.178
				c0-0.92-0.209-1.617-0.627-2.091c-0.418-0.475-0.938-0.711-1.558-0.711c-0.63,0-1.153,0.235-1.569,0.707
				C71.172,74.993,70.964,75.705,70.964,76.658z"/>
			<path d="M78.102,80.377v-7.438h1.135v1.128c0.289-0.527,0.557-0.876,0.802-1.044s0.515-0.252,0.809-0.252
				c0.425,0,0.856,0.136,1.295,0.406l-0.434,1.17c-0.308-0.183-0.616-0.273-0.924-0.273c-0.276,0-0.523,0.083-0.743,0.249
				c-0.22,0.166-0.376,0.396-0.469,0.689c-0.14,0.448-0.21,0.938-0.21,1.471v3.895H78.102z"/>
			<path d="M87.984,77.981l1.303,0.161c-0.206,0.762-0.586,1.352-1.142,1.772c-0.556,0.42-1.266,0.63-2.129,0.63
				c-1.088,0-1.951-0.335-2.588-1.005c-0.638-0.67-0.956-1.609-0.956-2.819c0-1.251,0.322-2.223,0.966-2.913
				c0.645-0.691,1.48-1.037,2.508-1.037c0.994,0,1.807,0.339,2.437,1.016s0.946,1.63,0.946,2.857c0,0.075-0.002,0.188-0.007,0.337
				h-5.547c0.046,0.816,0.278,1.442,0.693,1.877c0.416,0.434,0.934,0.651,1.555,0.651c0.462,0,0.857-0.122,1.184-0.364
				C87.533,78.901,87.792,78.514,87.984,77.981z M83.844,75.943h4.153c-0.056-0.626-0.215-1.095-0.476-1.408
				c-0.402-0.485-0.922-0.728-1.562-0.728c-0.579,0-1.066,0.193-1.46,0.581S83.886,75.295,83.844,75.943z"/>
			<path d="M90.365,78.156l1.247-0.195c0.07,0.499,0.265,0.882,0.585,1.148c0.32,0.266,0.767,0.399,1.341,0.399
				c0.579,0,1.008-0.118,1.289-0.354c0.28-0.235,0.42-0.512,0.42-0.829c0-0.285-0.124-0.51-0.372-0.673
				c-0.173-0.112-0.602-0.254-1.289-0.427c-0.924-0.233-1.565-0.436-1.922-0.606c-0.357-0.17-0.628-0.406-0.813-0.707
				c-0.185-0.302-0.277-0.634-0.277-0.998c0-0.332,0.076-0.639,0.228-0.921c0.152-0.283,0.358-0.518,0.62-0.704
				c0.196-0.145,0.463-0.268,0.802-0.368c0.338-0.1,0.702-0.15,1.089-0.15c0.583,0,1.096,0.084,1.537,0.252s0.767,0.396,0.977,0.684
				s0.355,0.671,0.434,1.151l-1.232,0.169c-0.056-0.383-0.218-0.683-0.487-0.896c-0.269-0.215-0.648-0.322-1.138-0.322
				c-0.579,0-0.992,0.096-1.24,0.287s-0.371,0.415-0.371,0.672c0,0.164,0.051,0.311,0.154,0.441
				c0.103,0.136,0.264,0.247,0.483,0.336c0.126,0.047,0.498,0.154,1.114,0.322c0.892,0.238,1.514,0.434,1.867,0.585
				c0.353,0.151,0.629,0.372,0.83,0.662c0.201,0.289,0.301,0.648,0.301,1.078c0,0.421-0.123,0.816-0.368,1.188
				s-0.599,0.658-1.061,0.861s-0.985,0.305-1.569,0.305c-0.967,0-1.703-0.2-2.21-0.603C90.829,79.541,90.505,78.946,90.365,78.156z"
				/>
		</g>
	</g>
	<g>
		<path style="fill:#2C6882;stroke:#2C6882;stroke-width:4;stroke-linejoin:round;stroke-miterlimit:10;" d="M158.207,132.054
			l1.26-0.168c0.145,0.714,0.392,1.229,0.739,1.544c0.348,0.315,0.771,0.474,1.271,0.474c0.593,0,1.094-0.207,1.502-0.617
			c0.409-0.411,0.613-0.92,0.613-1.526c0-0.579-0.189-1.057-0.567-1.433c-0.378-0.375-0.859-0.564-1.443-0.564
			c-0.238,0-0.534,0.047-0.889,0.141l0.14-1.105c0.084,0.008,0.151,0.013,0.203,0.013c0.537,0,1.021-0.14,1.45-0.42
			c0.43-0.28,0.645-0.712,0.645-1.296c0-0.463-0.156-0.845-0.47-1.148c-0.313-0.304-0.717-0.455-1.212-0.455
			c-0.49,0-0.898,0.153-1.226,0.462c-0.327,0.309-0.537,0.771-0.63,1.387l-1.261-0.224c0.153-0.846,0.504-1.5,1.05-1.965
			c0.547-0.465,1.227-0.697,2.039-0.697c0.56,0,1.076,0.121,1.547,0.361c0.473,0.24,0.833,0.567,1.082,0.983
			c0.25,0.415,0.375,0.858,0.375,1.324c0,0.442-0.119,0.848-0.357,1.211c-0.237,0.364-0.59,0.654-1.057,0.869
			c0.607,0.14,1.078,0.431,1.414,0.872c0.336,0.441,0.505,0.993,0.505,1.656c0,0.896-0.327,1.656-0.981,2.279
			c-0.653,0.624-1.479,0.936-2.479,0.936c-0.901,0-1.649-0.269-2.244-0.806C158.63,133.604,158.291,132.908,158.207,132.054z"/>
		<path style="fill:#2C6882;stroke:#2C6882;stroke-width:4;stroke-linejoin:round;stroke-miterlimit:10;" d="M166.884,134.764
			v-1.436h1.435v1.436H166.884z"/>
		<path style="fill:#2C6882;stroke:#2C6882;stroke-width:4;stroke-linejoin:round;stroke-miterlimit:10;" d="M173.531,134.764
			l3.943-10.267h1.463l4.203,10.267h-1.548l-1.198-3.108h-4.293l-1.127,3.108H173.531z M176.494,130.548h3.48l-1.071-2.844
			c-0.327-0.863-0.569-1.573-0.729-2.129c-0.131,0.658-0.315,1.312-0.553,1.961L176.494,130.548z"/>
		<path style="fill:#2C6882;stroke:#2C6882;stroke-width:4;stroke-linejoin:round;stroke-miterlimit:10;" d="M188.919,132.04
			l1.239,0.16c-0.135,0.855-0.481,1.524-1.039,2.007c-0.559,0.484-1.243,0.726-2.056,0.726c-1.019,0-1.837-0.333-2.456-0.998
			c-0.617-0.666-0.928-1.619-0.928-2.861c0-0.803,0.134-1.506,0.4-2.108c0.266-0.602,0.67-1.054,1.215-1.354
			c0.543-0.303,1.136-0.452,1.775-0.452c0.808,0,1.468,0.204,1.983,0.612c0.514,0.408,0.842,0.989,0.987,1.741l-1.226,0.188
			c-0.117-0.499-0.324-0.875-0.62-1.128c-0.296-0.251-0.655-0.378-1.075-0.378c-0.635,0-1.151,0.229-1.548,0.683
			c-0.397,0.456-0.596,1.176-0.596,2.16c0,1,0.191,1.727,0.575,2.179c0.383,0.453,0.882,0.68,1.498,0.68
			c0.495,0,0.908-0.151,1.24-0.455C188.621,133.137,188.83,132.67,188.919,132.04z"/>
		<path style="fill:#2C6882;stroke:#2C6882;stroke-width:4;stroke-linejoin:round;stroke-miterlimit:10;" d="M193.99,133.637
			l0.182,1.114c-0.355,0.073-0.672,0.111-0.953,0.111c-0.457,0-0.813-0.072-1.065-0.218c-0.252-0.145-0.429-0.335-0.531-0.571
			c-0.104-0.234-0.154-0.73-0.154-1.488v-4.278h-0.925v-0.981h0.925v-1.842l1.254-0.756v2.598h1.268v0.981h-1.268v4.35
			c0,0.359,0.021,0.591,0.066,0.693c0.044,0.103,0.117,0.184,0.217,0.244c0.101,0.062,0.244,0.092,0.431,0.092
			C193.576,133.686,193.761,133.669,193.99,133.637z"/>
		<path style="fill:#2C6882;stroke:#2C6882;stroke-width:4;stroke-linejoin:round;stroke-miterlimit:10;" d="M195.229,125.946
			v-1.449h1.261v1.449H195.229z M195.229,134.764v-7.438h1.261v7.438H195.229z"/>
		<path style="fill:#2C6882;stroke:#2C6882;stroke-width:4;stroke-linejoin:round;stroke-miterlimit:10;" d="M200.475,134.764
			l-2.829-7.438h1.33l1.598,4.455c0.172,0.48,0.33,0.98,0.476,1.5c0.112-0.393,0.269-0.864,0.47-1.416l1.652-4.539h1.297
			l-2.816,7.438H200.475z"/>
		<path style="fill:#2C6882;stroke:#2C6882;stroke-width:4;stroke-linejoin:round;stroke-miterlimit:10;" d="M205.588,125.946
			v-1.449h1.261v1.449H205.588z M205.588,134.764v-7.438h1.261v7.438H205.588z"/>
		<path style="fill:#2C6882;stroke:#2C6882;stroke-width:4;stroke-linejoin:round;stroke-miterlimit:10;" d="M213.593,134.764
			v-0.939c-0.472,0.738-1.165,1.107-2.08,1.107c-0.593,0-1.139-0.164-1.635-0.49c-0.498-0.327-0.883-0.783-1.156-1.37
			c-0.273-0.586-0.41-1.259-0.41-2.02c0-0.742,0.125-1.415,0.372-2.021c0.247-0.604,0.618-1.068,1.113-1.391
			c0.495-0.321,1.048-0.482,1.659-0.482c0.449,0,0.848,0.095,1.198,0.283c0.351,0.189,0.636,0.436,0.855,0.738v-3.683h1.254v10.267
			H213.593z M209.609,131.052c0,0.953,0.2,1.665,0.602,2.137c0.401,0.472,0.875,0.707,1.422,0.707c0.551,0,1.02-0.226,1.404-0.675
			c0.386-0.451,0.578-1.14,0.578-2.064c0-1.018-0.196-1.764-0.588-2.24c-0.393-0.476-0.877-0.714-1.451-0.714
			c-0.56,0-1.027,0.229-1.403,0.686C209.796,129.346,209.609,130.067,209.609,131.052z"/>
		<path style="fill:#2C6882;stroke:#2C6882;stroke-width:4;stroke-linejoin:round;stroke-miterlimit:10;" d="M221.599,133.847
			c-0.467,0.396-0.916,0.677-1.349,0.84c-0.431,0.164-0.895,0.246-1.39,0.246c-0.817,0-1.445-0.199-1.885-0.599
			c-0.438-0.399-0.658-0.909-0.658-1.53c0-0.365,0.083-0.698,0.249-0.999c0.165-0.301,0.383-0.542,0.651-0.724
			c0.268-0.184,0.57-0.321,0.907-0.414c0.247-0.066,0.62-0.129,1.12-0.189c1.018-0.121,1.768-0.266,2.248-0.435
			c0.005-0.172,0.008-0.282,0.008-0.328c0-0.514-0.119-0.876-0.357-1.086c-0.322-0.284-0.801-0.427-1.436-0.427
			c-0.594,0-1.031,0.104-1.314,0.311c-0.283,0.209-0.492,0.576-0.627,1.104l-1.232-0.168c0.112-0.527,0.296-0.954,0.553-1.278
			c0.257-0.325,0.628-0.574,1.114-0.749c0.484-0.176,1.048-0.263,1.688-0.263c0.635,0,1.15,0.075,1.548,0.224
			c0.398,0.15,0.689,0.337,0.876,0.564c0.186,0.226,0.316,0.512,0.393,0.857c0.041,0.215,0.063,0.603,0.063,1.162v1.682
			c0,1.172,0.027,1.914,0.08,2.224c0.055,0.311,0.16,0.608,0.318,0.893h-1.316C221.72,134.503,221.636,134.197,221.599,133.847z
			 M221.494,131.031c-0.457,0.188-1.144,0.346-2.059,0.476c-0.518,0.075-0.885,0.159-1.1,0.253c-0.215,0.094-0.381,0.23-0.498,0.409
			c-0.116,0.181-0.175,0.38-0.175,0.6c0,0.336,0.128,0.616,0.382,0.84c0.254,0.224,0.627,0.336,1.117,0.336
			c0.485,0,0.918-0.105,1.296-0.318c0.378-0.213,0.655-0.503,0.833-0.872c0.136-0.284,0.203-0.705,0.203-1.261V131.031z"/>
		<path style="fill:#2C6882;stroke:#2C6882;stroke-width:4;stroke-linejoin:round;stroke-miterlimit:10;" d="M229.548,134.764
			v-0.939c-0.471,0.738-1.165,1.107-2.08,1.107c-0.593,0-1.139-0.164-1.635-0.49c-0.498-0.327-0.883-0.783-1.156-1.37
			c-0.274-0.586-0.41-1.259-0.41-2.02c0-0.742,0.125-1.415,0.372-2.021c0.247-0.604,0.618-1.068,1.113-1.391
			c0.495-0.321,1.048-0.482,1.659-0.482c0.449,0,0.849,0.095,1.198,0.283c0.351,0.189,0.636,0.436,0.855,0.738v-3.683h1.254v10.267
			H229.548z M225.564,131.052c0,0.953,0.2,1.665,0.602,2.137c0.402,0.472,0.876,0.707,1.422,0.707c0.551,0,1.02-0.226,1.404-0.675
			c0.385-0.451,0.578-1.14,0.578-2.064c0-1.018-0.196-1.764-0.589-2.24c-0.392-0.476-0.875-0.714-1.45-0.714
			c-0.56,0-1.027,0.229-1.403,0.686C225.752,129.346,225.564,130.067,225.564,131.052z"/>
		<path style="fill:#2C6882;stroke:#2C6882;stroke-width:4;stroke-linejoin:round;stroke-miterlimit:10;" d="M237.793,132.369
			l1.303,0.161c-0.205,0.761-0.586,1.352-1.143,1.771c-0.555,0.42-1.265,0.631-2.129,0.631c-1.088,0-1.95-0.335-2.588-1.006
			c-0.637-0.67-0.955-1.609-0.955-2.818c0-1.252,0.322-2.223,0.966-2.914c0.645-0.691,1.48-1.036,2.507-1.036
			c0.996,0,1.809,0.338,2.438,1.015c0.631,0.678,0.945,1.63,0.945,2.858c0,0.074-0.002,0.188-0.006,0.336h-5.548
			c0.047,0.817,0.278,1.443,0.693,1.878c0.416,0.434,0.935,0.65,1.556,0.65c0.462,0,0.856-0.122,1.184-0.364
			C237.341,133.289,237.601,132.9,237.793,132.369z M233.654,130.331h4.152c-0.056-0.626-0.215-1.095-0.477-1.408
			c-0.4-0.486-0.922-0.729-1.561-0.729c-0.579,0-1.065,0.194-1.46,0.581C233.914,129.163,233.695,129.682,233.654,130.331z"/>
		<path style="fill:#2C6882;stroke:#2C6882;stroke-width:4;stroke-linejoin:round;stroke-miterlimit:10;" d="M240.173,132.544
			l1.247-0.196c0.07,0.5,0.265,0.883,0.585,1.148c0.32,0.267,0.767,0.399,1.341,0.399c0.579,0,1.009-0.117,1.289-0.354
			c0.28-0.235,0.42-0.513,0.42-0.83c0-0.285-0.124-0.509-0.371-0.672c-0.173-0.113-0.603-0.255-1.288-0.428
			c-0.925-0.233-1.566-0.436-1.924-0.605c-0.357-0.171-0.627-0.407-0.813-0.708c-0.184-0.301-0.275-0.634-0.275-0.998
			c0-0.331,0.075-0.638,0.227-0.92c0.152-0.283,0.359-0.519,0.621-0.705c0.195-0.144,0.463-0.268,0.801-0.368
			c0.34-0.1,0.702-0.149,1.09-0.149c0.584,0,1.096,0.084,1.537,0.252c0.441,0.168,0.768,0.396,0.977,0.683
			c0.211,0.288,0.355,0.672,0.436,1.152l-1.234,0.167c-0.055-0.382-0.218-0.681-0.486-0.895c-0.268-0.215-0.647-0.322-1.138-0.322
			c-0.579,0-0.992,0.096-1.24,0.288c-0.247,0.19-0.37,0.414-0.37,0.672c0,0.163,0.051,0.31,0.154,0.441
			c0.102,0.134,0.263,0.247,0.482,0.336c0.126,0.046,0.498,0.153,1.113,0.322c0.893,0.238,1.514,0.433,1.867,0.584
			c0.352,0.152,0.629,0.373,0.83,0.663c0.201,0.288,0.301,0.647,0.301,1.078c0,0.42-0.122,0.815-0.367,1.188
			c-0.246,0.371-0.6,0.657-1.061,0.86c-0.462,0.204-0.985,0.306-1.569,0.306c-0.967,0-1.703-0.201-2.209-0.604
			C240.637,133.928,240.314,133.333,240.173,132.544z"/>
		<path style="fill:#2C6882;stroke:#2C6882;stroke-width:4;stroke-linejoin:round;stroke-miterlimit:10;" d="M254.245,137.782
			c-0.696-0.877-1.284-1.905-1.765-3.081c-0.481-1.177-0.722-2.396-0.722-3.656c0-1.111,0.18-2.176,0.54-3.193
			c0.42-1.182,1.068-2.358,1.946-3.53h0.903c-0.564,0.972-0.939,1.665-1.121,2.08c-0.284,0.645-0.508,1.316-0.672,2.017
			c-0.201,0.873-0.301,1.752-0.301,2.634c0,2.246,0.697,4.49,2.094,6.73H254.245z"/>
		<path style="fill:#2C6882;stroke:#2C6882;stroke-width:4;stroke-linejoin:round;stroke-miterlimit:10;" d="M256.773,134.764
			v-10.267h3.873c0.682,0,1.203,0.031,1.563,0.098c0.504,0.084,0.926,0.244,1.268,0.479c0.341,0.236,0.615,0.565,0.822,0.991
			c0.209,0.425,0.313,0.892,0.313,1.4c0,0.873-0.278,1.612-0.834,2.217c-0.556,0.605-1.559,0.907-3.012,0.907h-2.633v4.174H256.773z
			 M258.132,129.378h2.654c0.877,0,1.501-0.164,1.869-0.49c0.369-0.326,0.555-0.787,0.555-1.38c0-0.429-0.109-0.798-0.326-1.103
			c-0.217-0.307-0.504-0.509-0.858-0.607c-0.229-0.06-0.651-0.091-1.268-0.091h-2.626V129.378z"/>
		<path style="fill:#2C6882;stroke:#2C6882;stroke-width:4;stroke-linejoin:round;stroke-miterlimit:10;" d="M266.382,134.764
			v-10.267h1.359v4.216h5.336v-4.216h1.359v10.267h-1.359v-4.84h-5.336v4.84H266.382z"/>
		<path style="fill:#2C6882;stroke:#2C6882;stroke-width:4;stroke-linejoin:round;stroke-miterlimit:10;" d="M279.634,134.764
			l-3.979-10.267h1.471l2.668,7.459c0.215,0.598,0.395,1.157,0.54,1.681c0.159-0.561,0.343-1.121,0.554-1.681l2.773-7.459h1.387
			l-4.021,10.267H279.634z"/>
		<path style="fill:#2C6882;stroke:#2C6882;stroke-width:4;stroke-linejoin:round;stroke-miterlimit:10;" d="M285.139,134.764
			l3.943-10.267h1.464l4.202,10.267h-1.548l-1.197-3.108h-4.294l-1.128,3.108H285.139z M288.102,130.548h3.481l-1.072-2.844
			c-0.326-0.863-0.57-1.573-0.728-2.129c-0.131,0.658-0.314,1.312-0.553,1.961L288.102,130.548z"/>
		<path style="fill:#2C6882;stroke:#2C6882;stroke-width:4;stroke-linejoin:round;stroke-miterlimit:10;" d="M296.5,137.782h-0.903
			c1.395-2.24,2.095-4.484,2.095-6.73c0-0.877-0.101-1.748-0.302-2.611c-0.159-0.701-0.381-1.374-0.665-2.017
			c-0.183-0.421-0.559-1.121-1.128-2.102h0.903c0.878,1.172,1.527,2.349,1.947,3.53c0.359,1.018,0.539,2.082,0.539,3.193
			c0,1.261-0.242,2.479-0.725,3.656C297.778,135.877,297.191,136.905,296.5,137.782z"/>
	</g>
	<g>
		<g>
			<path d="M10.569,117.544l1.324-0.112c0.098,0.645,0.326,1.129,0.683,1.453c0.357,0.325,0.788,0.487,1.292,0.487
				c0.607,0,1.121-0.229,1.541-0.687s0.63-1.064,0.63-1.821c0-0.719-0.202-1.286-0.606-1.702c-0.404-0.415-0.933-0.623-1.586-0.623
				c-0.406,0-0.772,0.093-1.1,0.276c-0.327,0.185-0.583,0.424-0.771,0.719l-1.184-0.154l0.995-5.274h5.106v1.205h-4.097l-0.553,2.76
				c0.616-0.43,1.263-0.645,1.94-0.645c0.896,0,1.653,0.311,2.269,0.932c0.617,0.621,0.925,1.419,0.925,2.395
				c0,0.93-0.271,1.732-0.813,2.41c-0.659,0.831-1.557,1.246-2.697,1.246c-0.934,0-1.696-0.261-2.287-0.784
				C10.991,119.102,10.653,118.408,10.569,117.544z"/>
			<path d="M19.254,120.233v-1.436h1.436v1.436H19.254z"/>
			<path d="M27.057,120.233v-10.268h7.424v1.212h-6.065v3.145h5.68v1.204h-5.68v3.495h6.303v1.212H27.057z"/>
			<path d="M36.435,120.233v-7.438h1.135v1.058c0.546-0.816,1.335-1.226,2.368-1.226c0.448,0,0.86,0.081,1.236,0.242
				s0.657,0.372,0.844,0.634c0.187,0.261,0.317,0.571,0.392,0.932c0.046,0.233,0.07,0.642,0.07,1.226v4.573h-1.26v-4.524
				c0-0.514-0.049-0.897-0.147-1.152s-0.272-0.458-0.521-0.609c-0.25-0.151-0.543-0.228-0.879-0.228c-0.537,0-1,0.171-1.39,0.512
				s-0.585,0.987-0.585,1.939v4.063H36.435z"/>
			<path d="M47.166,119.105l0.182,1.114c-0.355,0.074-0.672,0.111-0.953,0.111c-0.458,0-0.813-0.072-1.064-0.217
				c-0.252-0.145-0.43-0.335-0.533-0.57c-0.103-0.236-0.154-0.732-0.154-1.489v-4.279h-0.925v-0.98h0.925v-1.842l1.253-0.757v2.599
				h1.268v0.98h-1.268v4.35c0,0.359,0.022,0.591,0.067,0.693c0.044,0.103,0.117,0.185,0.217,0.245
				c0.101,0.061,0.244,0.092,0.431,0.092C46.752,119.155,46.937,119.139,47.166,119.105z"/>
			<path d="M48.384,120.233v-7.438h1.135v1.128c0.289-0.527,0.557-0.876,0.802-1.044s0.515-0.252,0.809-0.252
				c0.425,0,0.856,0.136,1.295,0.406l-0.434,1.17c-0.308-0.183-0.616-0.273-0.924-0.273c-0.276,0-0.523,0.083-0.743,0.249
				c-0.22,0.166-0.376,0.396-0.469,0.689c-0.14,0.448-0.21,0.938-0.21,1.471v3.895H48.384z"/>
			<path d="M58.028,119.315c-0.467,0.397-0.917,0.678-1.348,0.841c-0.432,0.163-0.896,0.245-1.391,0.245
				c-0.817,0-1.445-0.199-1.884-0.599s-0.659-0.909-0.659-1.53c0-0.364,0.083-0.697,0.249-0.998
				c0.166-0.302,0.383-0.543,0.651-0.726c0.268-0.182,0.571-0.319,0.907-0.413c0.248-0.065,0.621-0.128,1.121-0.188
				c1.018-0.122,1.768-0.267,2.249-0.435c0.004-0.173,0.007-0.282,0.007-0.329c0-0.514-0.119-0.876-0.357-1.086
				c-0.322-0.284-0.801-0.427-1.436-0.427c-0.593,0-1.031,0.104-1.313,0.312c-0.283,0.208-0.492,0.575-0.627,1.104l-1.233-0.169
				c0.112-0.527,0.296-0.953,0.553-1.278c0.257-0.324,0.628-0.574,1.114-0.749c0.485-0.175,1.048-0.263,1.688-0.263
				c0.635,0,1.151,0.075,1.548,0.225s0.688,0.337,0.875,0.563c0.187,0.227,0.317,0.513,0.392,0.858
				c0.042,0.215,0.063,0.602,0.063,1.162v1.681c0,1.173,0.027,1.914,0.081,2.225s0.16,0.607,0.319,0.893H58.28
				C58.15,119.972,58.065,119.666,58.028,119.315z M57.923,116.5c-0.458,0.188-1.144,0.346-2.059,0.477
				c-0.519,0.075-0.885,0.159-1.1,0.252c-0.215,0.094-0.381,0.23-0.498,0.41s-0.175,0.379-0.175,0.599
				c0,0.336,0.127,0.616,0.381,0.841c0.254,0.224,0.627,0.336,1.117,0.336c0.486,0,0.917-0.106,1.296-0.318
				c0.378-0.213,0.656-0.504,0.833-0.872c0.135-0.285,0.203-0.705,0.203-1.261V116.5z"/>
			<path d="M65.978,120.233v-0.938c-0.472,0.737-1.165,1.106-2.081,1.106c-0.593,0-1.138-0.163-1.635-0.49s-0.882-0.783-1.156-1.369
				c-0.273-0.586-0.41-1.26-0.41-2.021c0-0.742,0.124-1.416,0.371-2.021s0.619-1.068,1.114-1.391s1.048-0.483,1.66-0.483
				c0.448,0,0.847,0.095,1.197,0.284c0.351,0.188,0.635,0.436,0.854,0.738v-3.684h1.254v10.268H65.978z M61.993,116.521
				c0,0.952,0.201,1.664,0.602,2.136c0.402,0.472,0.875,0.708,1.422,0.708c0.551,0,1.019-0.226,1.404-0.676
				c0.385-0.451,0.578-1.139,0.578-2.063c0-1.018-0.196-1.765-0.588-2.241c-0.393-0.476-0.875-0.714-1.45-0.714
				c-0.56,0-1.028,0.229-1.404,0.687C62.181,114.814,61.993,115.536,61.993,116.521z"/>
			<path d="M73.983,119.315c-0.467,0.397-0.917,0.678-1.348,0.841c-0.432,0.163-0.896,0.245-1.391,0.245
				c-0.817,0-1.445-0.199-1.884-0.599s-0.659-0.909-0.659-1.53c0-0.364,0.083-0.697,0.249-0.998
				c0.166-0.302,0.383-0.543,0.651-0.726c0.268-0.182,0.571-0.319,0.907-0.413c0.248-0.065,0.621-0.128,1.121-0.188
				c1.018-0.122,1.768-0.267,2.249-0.435c0.004-0.173,0.007-0.282,0.007-0.329c0-0.514-0.119-0.876-0.357-1.086
				c-0.322-0.284-0.801-0.427-1.436-0.427c-0.593,0-1.031,0.104-1.313,0.312c-0.283,0.208-0.492,0.575-0.627,1.104l-1.233-0.169
				c0.112-0.527,0.296-0.953,0.553-1.278c0.257-0.324,0.628-0.574,1.114-0.749c0.485-0.175,1.048-0.263,1.688-0.263
				c0.635,0,1.151,0.075,1.548,0.225s0.688,0.337,0.875,0.563c0.187,0.227,0.317,0.513,0.392,0.858
				c0.042,0.215,0.063,0.602,0.063,1.162v1.681c0,1.173,0.027,1.914,0.081,2.225s0.16,0.607,0.319,0.893h-1.317
				C74.105,119.972,74.021,119.666,73.983,119.315z M73.878,116.5c-0.458,0.188-1.144,0.346-2.059,0.477
				c-0.519,0.075-0.885,0.159-1.1,0.252c-0.215,0.094-0.381,0.23-0.498,0.41s-0.175,0.379-0.175,0.599
				c0,0.336,0.127,0.616,0.381,0.841c0.254,0.224,0.627,0.336,1.117,0.336c0.486,0,0.917-0.106,1.296-0.318
				c0.378-0.213,0.656-0.504,0.833-0.872c0.135-0.285,0.203-0.705,0.203-1.261V116.5z"/>
			<path d="M76.603,118.013l1.247-0.195c0.07,0.499,0.265,0.882,0.585,1.148c0.32,0.266,0.767,0.399,1.341,0.399
				c0.579,0,1.008-0.118,1.289-0.354c0.28-0.235,0.42-0.512,0.42-0.829c0-0.285-0.124-0.51-0.372-0.673
				c-0.173-0.112-0.602-0.254-1.289-0.427c-0.924-0.233-1.565-0.436-1.922-0.606c-0.357-0.17-0.628-0.406-0.813-0.707
				c-0.185-0.302-0.277-0.634-0.277-0.998c0-0.332,0.076-0.639,0.228-0.921c0.152-0.283,0.358-0.518,0.62-0.704
				c0.196-0.145,0.463-0.268,0.802-0.368c0.338-0.1,0.702-0.15,1.089-0.15c0.583,0,1.096,0.084,1.537,0.252s0.767,0.396,0.977,0.684
				s0.355,0.671,0.434,1.151l-1.232,0.169c-0.056-0.383-0.218-0.683-0.487-0.896c-0.269-0.215-0.648-0.322-1.138-0.322
				c-0.579,0-0.992,0.096-1.24,0.287s-0.371,0.415-0.371,0.672c0,0.164,0.051,0.311,0.154,0.441
				c0.103,0.136,0.264,0.247,0.483,0.336c0.126,0.047,0.498,0.154,1.114,0.322c0.892,0.238,1.514,0.434,1.867,0.585
				c0.353,0.151,0.629,0.372,0.83,0.662c0.201,0.289,0.301,0.648,0.301,1.078c0,0.421-0.123,0.816-0.368,1.188
				s-0.599,0.658-1.061,0.861s-0.985,0.305-1.569,0.305c-0.967,0-1.703-0.2-2.21-0.603
				C77.066,119.397,76.743,118.803,76.603,118.013z"/>
		</g>
	</g>
	<g>
		<g>
			<path d="M67.989,187.439c-0.523-0.191-0.911-0.465-1.163-0.819c-0.252-0.354-0.378-0.779-0.378-1.274
				c0-0.747,0.269-1.375,0.805-1.885c0.537-0.509,1.251-0.763,2.144-0.763c0.896,0,1.618,0.26,2.164,0.78
				c0.546,0.521,0.819,1.155,0.819,1.902c0,0.476-0.125,0.891-0.375,1.243c-0.25,0.353-0.629,0.624-1.138,0.815
				c0.63,0.206,1.11,0.537,1.439,0.995c0.329,0.457,0.494,1.004,0.494,1.639c0,0.878-0.311,1.615-0.932,2.213
				s-1.438,0.896-2.451,0.896s-1.831-0.3-2.452-0.899c-0.621-0.601-0.931-1.349-0.931-2.245c0-0.668,0.169-1.227,0.508-1.678
				C66.881,187.91,67.363,187.604,67.989,187.439z M67.331,190.045c0,0.359,0.085,0.708,0.256,1.044s0.424,0.597,0.76,0.781
				c0.336,0.184,0.698,0.276,1.085,0.276c0.603,0,1.1-0.194,1.492-0.581c0.392-0.388,0.588-0.881,0.588-1.479
				c0-0.606-0.202-1.108-0.606-1.506c-0.404-0.396-0.91-0.595-1.517-0.595c-0.593,0-1.084,0.195-1.474,0.588
				C67.525,188.967,67.331,189.457,67.331,190.045z M67.737,185.304c0,0.485,0.156,0.882,0.469,1.19s0.719,0.462,1.219,0.462
				c0.486,0,0.884-0.152,1.194-0.458c0.311-0.307,0.466-0.681,0.466-1.125c0-0.462-0.16-0.851-0.48-1.166
				c-0.32-0.314-0.718-0.473-1.194-0.473c-0.481,0-0.88,0.154-1.197,0.463C67.896,184.505,67.737,184.874,67.737,185.304z"/>
			<path d="M74.734,193.008v-1.436h1.436v1.436H74.734z"/>
			<path d="M82.529,193.008V182.74h4.553c0.915,0,1.611,0.092,2.087,0.276c0.476,0.185,0.856,0.51,1.142,0.978
				c0.285,0.467,0.427,0.982,0.427,1.548c0,0.728-0.236,1.342-0.708,1.842s-1.2,0.817-2.185,0.952
				c0.359,0.173,0.632,0.344,0.819,0.512c0.397,0.364,0.772,0.819,1.127,1.365l1.786,2.795H89.87l-1.359-2.136
				c-0.397-0.617-0.724-1.089-0.98-1.415c-0.257-0.327-0.487-0.556-0.69-0.687s-0.41-0.222-0.62-0.273
				c-0.154-0.032-0.406-0.049-0.756-0.049h-1.576v4.56H82.529z M83.888,187.271h2.921c0.621,0,1.106-0.064,1.457-0.192
				c0.35-0.129,0.617-0.334,0.798-0.616c0.182-0.283,0.273-0.59,0.273-0.921c0-0.486-0.176-0.885-0.529-1.198
				c-0.353-0.313-0.91-0.469-1.67-0.469h-3.25V187.271z"/>
			<path d="M97.798,190.612l1.303,0.161c-0.206,0.762-0.586,1.352-1.142,1.772c-0.556,0.42-1.266,0.63-2.129,0.63
				c-1.088,0-1.951-0.335-2.588-1.005c-0.638-0.67-0.956-1.609-0.956-2.819c0-1.251,0.322-2.223,0.966-2.913
				c0.645-0.691,1.48-1.037,2.508-1.037c0.994,0,1.807,0.339,2.437,1.016s0.946,1.63,0.946,2.857c0,0.075-0.002,0.188-0.007,0.337
				h-5.547c0.046,0.816,0.278,1.442,0.693,1.877c0.416,0.434,0.934,0.651,1.555,0.651c0.462,0,0.857-0.122,1.184-0.364
				C97.348,191.532,97.606,191.145,97.798,190.612z M93.659,188.574h4.153c-0.056-0.626-0.215-1.095-0.476-1.408
				c-0.402-0.485-0.922-0.728-1.562-0.728c-0.579,0-1.066,0.193-1.46,0.581S93.701,187.926,93.659,188.574z"/>
			<path d="M105.538,190.283l1.24,0.161c-0.136,0.854-0.482,1.523-1.04,2.007c-0.558,0.483-1.243,0.725-2.056,0.725
				c-1.018,0-1.836-0.333-2.455-0.998s-0.928-1.619-0.928-2.861c0-0.803,0.133-1.506,0.399-2.107
				c0.266-0.603,0.671-1.055,1.215-1.355c0.544-0.302,1.136-0.452,1.775-0.452c0.808,0,1.468,0.204,1.982,0.613
				c0.514,0.408,0.843,0.988,0.988,1.74l-1.226,0.189c-0.117-0.5-0.324-0.876-0.62-1.128s-0.655-0.378-1.075-0.378
				c-0.635,0-1.151,0.228-1.548,0.683c-0.396,0.455-0.595,1.176-0.595,2.16c0,1,0.191,1.726,0.574,2.179s0.883,0.68,1.499,0.68
				c0.495,0,0.908-0.152,1.24-0.456C105.239,191.381,105.449,190.914,105.538,190.283z"/>
			<path d="M112.73,193.008v-1.093c-0.579,0.841-1.366,1.261-2.36,1.261c-0.439,0-0.849-0.084-1.229-0.252
				c-0.381-0.168-0.663-0.379-0.848-0.634s-0.314-0.566-0.389-0.936c-0.051-0.247-0.077-0.64-0.077-1.177v-4.608h1.261v4.126
				c0,0.658,0.025,1.102,0.077,1.33c0.079,0.332,0.248,0.592,0.504,0.781c0.256,0.189,0.574,0.283,0.952,0.283
				c0.378,0,0.733-0.097,1.065-0.29c0.332-0.194,0.566-0.458,0.704-0.792c0.138-0.333,0.207-0.818,0.207-1.453v-3.985h1.261v7.438
				H112.73z"/>
			<path d="M115.819,193.008v-7.438h1.135v1.128c0.289-0.527,0.557-0.876,0.802-1.044s0.515-0.252,0.809-0.252
				c0.425,0,0.856,0.136,1.295,0.406l-0.434,1.17c-0.308-0.183-0.616-0.273-0.924-0.273c-0.276,0-0.523,0.083-0.743,0.249
				c-0.22,0.166-0.376,0.396-0.469,0.689c-0.14,0.448-0.21,0.938-0.21,1.471v3.895H115.819z"/>
			<path d="M120.106,190.787l1.247-0.195c0.07,0.499,0.265,0.882,0.585,1.148c0.32,0.266,0.767,0.399,1.341,0.399
				c0.579,0,1.008-0.118,1.289-0.354c0.28-0.235,0.42-0.512,0.42-0.829c0-0.285-0.124-0.51-0.372-0.673
				c-0.173-0.112-0.602-0.254-1.289-0.427c-0.924-0.233-1.565-0.436-1.922-0.606c-0.357-0.17-0.628-0.406-0.813-0.707
				c-0.185-0.302-0.277-0.634-0.277-0.998c0-0.332,0.076-0.639,0.228-0.921c0.152-0.283,0.358-0.518,0.62-0.704
				c0.196-0.145,0.463-0.268,0.802-0.368c0.338-0.1,0.702-0.15,1.089-0.15c0.583,0,1.096,0.084,1.537,0.252s0.767,0.396,0.977,0.684
				s0.355,0.671,0.434,1.151l-1.232,0.169c-0.056-0.383-0.218-0.683-0.487-0.896c-0.269-0.215-0.648-0.322-1.138-0.322
				c-0.579,0-0.992,0.096-1.24,0.287s-0.371,0.415-0.371,0.672c0,0.164,0.051,0.311,0.154,0.441
				c0.103,0.136,0.264,0.247,0.483,0.336c0.126,0.047,0.498,0.154,1.114,0.322c0.892,0.238,1.514,0.434,1.867,0.585
				c0.353,0.151,0.629,0.372,0.83,0.662c0.201,0.289,0.301,0.648,0.301,1.078c0,0.421-0.123,0.816-0.368,1.188
				s-0.599,0.658-1.061,0.861s-0.985,0.305-1.569,0.305c-0.967,0-1.703-0.2-2.21-0.603
				C120.569,192.172,120.246,191.577,120.106,190.787z"/>
			<path d="M127.313,189.289c0-1.378,0.383-2.398,1.149-3.062c0.64-0.551,1.419-0.826,2.339-0.826c1.022,0,1.858,0.335,2.507,1.005
				s0.974,1.596,0.974,2.777c0,0.957-0.144,1.71-0.431,2.259s-0.705,0.975-1.254,1.278s-1.147,0.455-1.796,0.455
				c-1.042,0-1.883-0.334-2.525-1.001C127.634,191.507,127.313,190.545,127.313,189.289z M128.608,189.289
				c0,0.952,0.208,1.665,0.624,2.14c0.416,0.474,0.938,0.711,1.569,0.711c0.625,0,1.146-0.238,1.562-0.715
				c0.416-0.477,0.623-1.202,0.623-2.178c0-0.92-0.209-1.617-0.627-2.091c-0.418-0.475-0.938-0.711-1.558-0.711
				c-0.63,0-1.153,0.235-1.569,0.707C128.816,187.624,128.608,188.336,128.608,189.289z"/>
			<path d="M135.255,190.787l1.247-0.195c0.07,0.499,0.265,0.882,0.585,1.148c0.32,0.266,0.767,0.399,1.341,0.399
				c0.579,0,1.008-0.118,1.289-0.354c0.28-0.235,0.42-0.512,0.42-0.829c0-0.285-0.124-0.51-0.372-0.673
				c-0.173-0.112-0.602-0.254-1.289-0.427c-0.924-0.233-1.565-0.436-1.922-0.606c-0.357-0.17-0.628-0.406-0.813-0.707
				c-0.185-0.302-0.277-0.634-0.277-0.998c0-0.332,0.076-0.639,0.228-0.921c0.152-0.283,0.358-0.518,0.62-0.704
				c0.196-0.145,0.463-0.268,0.802-0.368c0.338-0.1,0.702-0.15,1.089-0.15c0.583,0,1.096,0.084,1.537,0.252s0.767,0.396,0.977,0.684
				s0.355,0.671,0.434,1.151l-1.232,0.169c-0.056-0.383-0.218-0.683-0.487-0.896c-0.269-0.215-0.648-0.322-1.138-0.322
				c-0.579,0-0.992,0.096-1.24,0.287s-0.371,0.415-0.371,0.672c0,0.164,0.051,0.311,0.154,0.441
				c0.103,0.136,0.264,0.247,0.483,0.336c0.126,0.047,0.498,0.154,1.114,0.322c0.892,0.238,1.514,0.434,1.867,0.585
				c0.353,0.151,0.629,0.372,0.83,0.662c0.201,0.289,0.301,0.648,0.301,1.078c0,0.421-0.123,0.816-0.368,1.188
				s-0.599,0.658-1.061,0.861s-0.985,0.305-1.569,0.305c-0.967,0-1.703-0.2-2.21-0.603
				C135.719,192.172,135.396,191.577,135.255,190.787z"/>
		</g>
	</g>
	<g>
		<g>
			<path d="M270.975,195.327l1.211-0.112c0.103,0.569,0.299,0.982,0.589,1.239c0.289,0.257,0.66,0.386,1.113,0.386
				c0.388,0,0.728-0.089,1.02-0.267c0.291-0.177,0.53-0.414,0.718-0.711c0.187-0.296,0.343-0.696,0.469-1.201
				c0.126-0.504,0.189-1.018,0.189-1.541c0-0.056-0.003-0.14-0.007-0.252c-0.252,0.402-0.597,0.728-1.033,0.978
				s-0.909,0.374-1.418,0.374c-0.851,0-1.569-0.308-2.157-0.924c-0.589-0.616-0.883-1.429-0.883-2.438
				c0-1.041,0.307-1.88,0.921-2.515s1.383-0.952,2.308-0.952c0.668,0,1.278,0.18,1.832,0.539c0.553,0.359,0.974,0.872,1.261,1.537
				c0.287,0.666,0.431,1.629,0.431,2.89c0,1.312-0.143,2.356-0.428,3.134c-0.284,0.777-0.708,1.369-1.271,1.775
				c-0.563,0.406-1.223,0.609-1.979,0.609c-0.803,0-1.459-0.223-1.968-0.669C271.383,196.762,271.078,196.135,270.975,195.327z
				 M276.136,190.795c0-0.724-0.192-1.298-0.577-1.723c-0.386-0.425-0.849-0.638-1.391-0.638c-0.561,0-1.048,0.229-1.464,0.687
				c-0.416,0.458-0.623,1.051-0.623,1.779c0,0.653,0.197,1.185,0.592,1.594c0.395,0.408,0.881,0.612,1.46,0.612
				c0.584,0,1.063-0.204,1.439-0.612C275.949,192.085,276.136,191.52,276.136,190.795z"/>
			<path d="M279.47,197.701v-1.436h1.437v1.436H279.47z"/>
			<path d="M294.571,194.102l1.359,0.343c-0.285,1.116-0.798,1.967-1.537,2.553c-0.74,0.586-1.646,0.879-2.715,0.879
				c-1.106,0-2.006-0.225-2.699-0.676c-0.694-0.45-1.222-1.103-1.583-1.957c-0.362-0.854-0.543-1.772-0.543-2.753
				c0-1.069,0.204-2.002,0.612-2.798c0.409-0.796,0.99-1.401,1.744-1.814s1.584-0.62,2.49-0.62c1.027,0,1.891,0.262,2.592,0.785
				c0.7,0.522,1.188,1.258,1.464,2.206l-1.338,0.315c-0.238-0.747-0.584-1.291-1.037-1.632s-1.022-0.512-1.709-0.512
				c-0.789,0-1.448,0.189-1.979,0.567s-0.902,0.886-1.117,1.523s-0.322,1.295-0.322,1.972c0,0.873,0.127,1.635,0.382,2.286
				s0.65,1.139,1.188,1.461s1.118,0.483,1.744,0.483c0.761,0,1.405-0.22,1.933-0.658
				C294.027,195.616,294.384,194.965,294.571,194.102z"/>
			<path d="M296.973,193.982c0-1.378,0.383-2.398,1.149-3.062c0.64-0.551,1.419-0.826,2.339-0.826c1.022,0,1.858,0.335,2.508,1.005
				c0.648,0.67,0.974,1.596,0.974,2.777c0,0.957-0.144,1.71-0.431,2.259s-0.705,0.975-1.254,1.278s-1.147,0.455-1.797,0.455
				c-1.041,0-1.883-0.334-2.524-1.001C297.294,196.2,296.973,195.238,296.973,193.982z M298.269,193.982
				c0,0.952,0.208,1.665,0.624,2.14c0.415,0.474,0.938,0.711,1.568,0.711c0.626,0,1.146-0.238,1.563-0.715
				c0.415-0.477,0.623-1.202,0.623-2.178c0-0.92-0.209-1.617-0.627-2.091c-0.418-0.475-0.938-0.711-1.559-0.711
				c-0.63,0-1.153,0.235-1.568,0.707C298.477,192.317,298.269,193.029,298.269,193.982z"/>
			<path d="M305.42,197.701v-7.438h1.135v1.058c0.546-0.816,1.335-1.226,2.367-1.226c0.448,0,0.86,0.081,1.236,0.242
				s0.657,0.372,0.844,0.634c0.187,0.261,0.317,0.571,0.393,0.932c0.046,0.233,0.069,0.642,0.069,1.226v4.573h-1.26v-4.524
				c0-0.514-0.05-0.897-0.147-1.152c-0.099-0.255-0.272-0.458-0.521-0.609c-0.25-0.151-0.543-0.228-0.88-0.228
				c-0.536,0-1,0.171-1.39,0.512s-0.585,0.987-0.585,1.939v4.063H305.42z"/>
			<path d="M316.15,196.573l0.182,1.114c-0.354,0.074-0.672,0.111-0.952,0.111c-0.457,0-0.813-0.072-1.064-0.217
				s-0.43-0.335-0.532-0.57c-0.103-0.236-0.154-0.732-0.154-1.489v-4.279h-0.925v-0.98h0.925v-1.842l1.253-0.757v2.599h1.269v0.98
				h-1.269v4.35c0,0.359,0.023,0.591,0.067,0.693s0.116,0.185,0.217,0.245s0.244,0.092,0.431,0.092
				C315.737,196.623,315.921,196.606,316.15,196.573z"/>
			<path d="M317.369,197.701v-7.438h1.135v1.128c0.289-0.527,0.557-0.876,0.802-1.044s0.515-0.252,0.809-0.252
				c0.425,0,0.857,0.136,1.296,0.406l-0.434,1.17c-0.309-0.183-0.617-0.273-0.925-0.273c-0.275,0-0.523,0.083-0.742,0.249
				c-0.22,0.166-0.376,0.396-0.47,0.689c-0.14,0.448-0.21,0.938-0.21,1.471v3.895H317.369z"/>
			<path d="M321.69,193.982c0-1.378,0.383-2.398,1.148-3.062c0.64-0.551,1.419-0.826,2.339-0.826c1.023,0,1.858,0.335,2.508,1.005
				s0.974,1.596,0.974,2.777c0,0.957-0.144,1.71-0.431,2.259s-0.705,0.975-1.254,1.278s-1.147,0.455-1.797,0.455
				c-1.041,0-1.883-0.334-2.524-1.001C322.01,196.2,321.69,195.238,321.69,193.982z M322.986,193.982
				c0,0.952,0.207,1.665,0.623,2.14c0.415,0.474,0.938,0.711,1.568,0.711c0.626,0,1.146-0.238,1.563-0.715
				c0.415-0.477,0.623-1.202,0.623-2.178c0-0.92-0.209-1.617-0.627-2.091c-0.418-0.475-0.938-0.711-1.559-0.711
				c-0.63,0-1.153,0.235-1.568,0.707C323.193,192.317,322.986,193.029,322.986,193.982z"/>
			<path d="M330.109,197.701v-10.268h1.261v10.268H330.109z"/>
			<path d="M338.416,195.306l1.303,0.161c-0.205,0.762-0.586,1.352-1.142,1.772c-0.556,0.42-1.266,0.63-2.129,0.63
				c-1.088,0-1.95-0.335-2.588-1.005s-0.956-1.609-0.956-2.819c0-1.251,0.322-2.223,0.967-2.913
				c0.644-0.691,1.479-1.037,2.507-1.037c0.995,0,1.808,0.339,2.438,1.016c0.631,0.677,0.945,1.63,0.945,2.857
				c0,0.075-0.002,0.188-0.007,0.337h-5.547c0.047,0.816,0.277,1.442,0.693,1.877c0.415,0.434,0.934,0.651,1.555,0.651
				c0.463,0,0.856-0.122,1.184-0.364C337.965,196.226,338.224,195.838,338.416,195.306z M334.277,193.268h4.153
				c-0.057-0.626-0.215-1.095-0.477-1.408c-0.401-0.485-0.922-0.728-1.562-0.728c-0.579,0-1.066,0.193-1.461,0.581
				S334.319,192.619,334.277,193.268z"/>
			<path d="M340.797,195.48l1.246-0.195c0.07,0.499,0.266,0.882,0.585,1.148c0.32,0.266,0.768,0.399,1.342,0.399
				c0.579,0,1.009-0.118,1.288-0.354c0.28-0.235,0.421-0.512,0.421-0.829c0-0.285-0.124-0.51-0.371-0.673
				c-0.173-0.112-0.603-0.254-1.289-0.427c-0.925-0.233-1.565-0.436-1.923-0.606c-0.357-0.17-0.628-0.406-0.813-0.707
				c-0.185-0.302-0.276-0.634-0.276-0.998c0-0.332,0.076-0.639,0.228-0.921c0.151-0.283,0.358-0.518,0.62-0.704
				c0.196-0.145,0.463-0.268,0.802-0.368c0.339-0.1,0.701-0.15,1.089-0.15c0.584,0,1.097,0.084,1.538,0.252
				c0.44,0.168,0.767,0.396,0.977,0.684s0.354,0.671,0.435,1.151l-1.233,0.169c-0.056-0.383-0.218-0.683-0.486-0.896
				c-0.269-0.215-0.647-0.322-1.138-0.322c-0.579,0-0.993,0.096-1.24,0.287s-0.371,0.415-0.371,0.672
				c0,0.164,0.052,0.311,0.154,0.441c0.103,0.136,0.264,0.247,0.483,0.336c0.126,0.047,0.497,0.154,1.113,0.322
				c0.892,0.238,1.514,0.434,1.866,0.585s0.63,0.372,0.83,0.662c0.201,0.289,0.302,0.648,0.302,1.078
				c0,0.421-0.123,0.816-0.368,1.188s-0.599,0.658-1.061,0.861c-0.463,0.203-0.985,0.305-1.569,0.305c-0.967,0-1.703-0.2-2.21-0.603
				C341.26,196.865,340.937,196.271,340.797,195.48z"/>
		</g>
	</g>
	<g>
		<g>
			<path d="M350.15,112.48l-1.253,0.098c-0.112-0.495-0.271-0.854-0.477-1.079c-0.341-0.359-0.762-0.539-1.261-0.539
				c-0.401,0-0.754,0.112-1.058,0.336c-0.397,0.29-0.71,0.713-0.938,1.269s-0.348,1.347-0.357,2.374
				c0.304-0.462,0.675-0.806,1.113-1.029c0.439-0.225,0.899-0.337,1.38-0.337c0.841,0,1.557,0.31,2.147,0.929
				c0.59,0.618,0.886,1.418,0.886,2.398c0,0.645-0.14,1.243-0.417,1.797c-0.277,0.553-0.659,0.977-1.146,1.271
				c-0.485,0.295-1.036,0.441-1.652,0.441c-1.051,0-1.907-0.386-2.57-1.159c-0.663-0.772-0.995-2.046-0.995-3.82
				c0-1.984,0.367-3.428,1.1-4.328c0.64-0.785,1.501-1.177,2.585-1.177c0.808,0,1.47,0.227,1.985,0.679
				C349.738,111.056,350.047,111.682,350.15,112.48z M345.002,116.906c0,0.435,0.092,0.851,0.276,1.247s0.442,0.699,0.774,0.907
				c0.331,0.207,0.679,0.312,1.043,0.312c0.532,0,0.99-0.215,1.373-0.645s0.574-1.013,0.574-1.751c0-0.71-0.188-1.269-0.567-1.678
				c-0.378-0.408-0.854-0.612-1.429-0.612c-0.569,0-1.053,0.204-1.45,0.612C345.201,115.708,345.002,116.243,345.002,116.906z"/>
			<path d="M352.293,120.233v-1.436h1.436v1.436H352.293z"/>
			<path d="M359.606,116.935l1.281-0.112c0.061,0.514,0.202,0.936,0.424,1.265s0.566,0.595,1.033,0.798s0.992,0.305,1.576,0.305
				c0.519,0,0.976-0.077,1.373-0.23c0.396-0.154,0.691-0.365,0.886-0.634c0.193-0.269,0.29-0.562,0.29-0.879
				c0-0.322-0.093-0.604-0.279-0.845c-0.188-0.24-0.495-0.442-0.925-0.605c-0.275-0.107-0.885-0.274-1.828-0.501
				s-1.604-0.44-1.982-0.641c-0.49-0.257-0.855-0.575-1.096-0.956s-0.361-0.807-0.361-1.278c0-0.519,0.147-1.003,0.441-1.453
				c0.295-0.451,0.724-0.793,1.289-1.026c0.564-0.233,1.193-0.351,1.884-0.351c0.762,0,1.433,0.123,2.014,0.368
				c0.582,0.245,1.028,0.605,1.342,1.082c0.313,0.477,0.48,1.016,0.504,1.618l-1.303,0.098c-0.07-0.648-0.307-1.139-0.711-1.471
				c-0.404-0.331-1-0.497-1.789-0.497c-0.822,0-1.421,0.15-1.797,0.451c-0.376,0.302-0.563,0.665-0.563,1.09
				c0,0.368,0.133,0.672,0.398,0.91c0.262,0.238,0.944,0.482,2.049,0.732c1.104,0.249,1.862,0.468,2.273,0.654
				c0.598,0.275,1.038,0.625,1.323,1.047c0.285,0.423,0.428,0.91,0.428,1.461c0,0.546-0.157,1.061-0.47,1.544
				s-0.763,0.859-1.349,1.128s-1.245,0.402-1.979,0.402c-0.929,0-1.707-0.135-2.336-0.406c-0.628-0.271-1.12-0.678-1.478-1.222
				S359.625,117.621,359.606,116.935z"/>
			<path d="M374.328,119.315c-0.467,0.397-0.916,0.678-1.348,0.841s-0.896,0.245-1.391,0.245c-0.817,0-1.445-0.199-1.884-0.599
				c-0.439-0.399-0.658-0.909-0.658-1.53c0-0.364,0.083-0.697,0.248-0.998c0.166-0.302,0.383-0.543,0.651-0.726
				c0.269-0.182,0.571-0.319,0.907-0.413c0.248-0.065,0.621-0.128,1.121-0.188c1.018-0.122,1.767-0.267,2.248-0.435
				c0.005-0.173,0.007-0.282,0.007-0.329c0-0.514-0.119-0.876-0.357-1.086c-0.322-0.284-0.801-0.427-1.436-0.427
				c-0.593,0-1.031,0.104-1.313,0.312s-0.491,0.575-0.627,1.104l-1.232-0.169c0.112-0.527,0.297-0.953,0.554-1.278
				c0.257-0.324,0.628-0.574,1.113-0.749s1.048-0.263,1.688-0.263c0.636,0,1.151,0.075,1.549,0.225
				c0.396,0.149,0.688,0.337,0.875,0.563s0.317,0.513,0.393,0.858c0.042,0.215,0.063,0.602,0.063,1.162v1.681
				c0,1.173,0.027,1.914,0.081,2.225s0.159,0.607,0.318,0.893h-1.316C374.45,119.972,374.366,119.666,374.328,119.315z
				 M374.223,116.5c-0.458,0.188-1.145,0.346-2.06,0.477c-0.518,0.075-0.885,0.159-1.1,0.252c-0.215,0.094-0.38,0.23-0.497,0.41
				c-0.116,0.18-0.175,0.379-0.175,0.599c0,0.336,0.127,0.616,0.382,0.841c0.254,0.224,0.627,0.336,1.117,0.336
				c0.485,0,0.917-0.106,1.295-0.318c0.379-0.213,0.656-0.504,0.834-0.872c0.136-0.285,0.203-0.705,0.203-1.261V116.5z"/>
			<path d="M377.424,120.233v-10.268h1.261v10.268H377.424z"/>
			<path d="M380.645,111.415v-1.449h1.261v1.449H380.645z M380.645,120.233v-7.438h1.261v7.438H380.645z"/>
			<path d="M388.651,120.233v-0.938c-0.472,0.737-1.165,1.106-2.08,1.106c-0.594,0-1.139-0.163-1.636-0.49s-0.883-0.783-1.155-1.369
				c-0.273-0.586-0.41-1.26-0.41-2.021c0-0.742,0.124-1.416,0.371-2.021c0.248-0.604,0.619-1.068,1.114-1.391
				c0.494-0.322,1.048-0.483,1.659-0.483c0.448,0,0.848,0.095,1.198,0.284c0.35,0.188,0.635,0.436,0.854,0.738v-3.684h1.254v10.268
				H388.651z M384.666,116.521c0,0.952,0.2,1.664,0.603,2.136c0.401,0.472,0.875,0.708,1.422,0.708c0.551,0,1.019-0.226,1.404-0.676
				c0.385-0.451,0.577-1.139,0.577-2.063c0-1.018-0.196-1.765-0.588-2.241c-0.393-0.476-0.876-0.714-1.45-0.714
				c-0.561,0-1.028,0.229-1.404,0.687C384.853,114.814,384.666,115.536,384.666,116.521z"/>
			<path d="M396.656,119.315c-0.467,0.397-0.916,0.678-1.348,0.841s-0.896,0.245-1.391,0.245c-0.817,0-1.445-0.199-1.884-0.599
				c-0.439-0.399-0.658-0.909-0.658-1.53c0-0.364,0.083-0.697,0.248-0.998c0.166-0.302,0.383-0.543,0.651-0.726
				c0.269-0.182,0.571-0.319,0.907-0.413c0.248-0.065,0.621-0.128,1.121-0.188c1.018-0.122,1.767-0.267,2.248-0.435
				c0.005-0.173,0.007-0.282,0.007-0.329c0-0.514-0.119-0.876-0.357-1.086c-0.322-0.284-0.801-0.427-1.436-0.427
				c-0.593,0-1.031,0.104-1.313,0.312s-0.491,0.575-0.627,1.104l-1.232-0.169c0.112-0.527,0.297-0.953,0.554-1.278
				c0.257-0.324,0.628-0.574,1.113-0.749s1.048-0.263,1.688-0.263c0.636,0,1.151,0.075,1.549,0.225
				c0.396,0.149,0.688,0.337,0.875,0.563s0.317,0.513,0.393,0.858c0.042,0.215,0.063,0.602,0.063,1.162v1.681
				c0,1.173,0.027,1.914,0.081,2.225s0.159,0.607,0.318,0.893h-1.316C396.778,119.972,396.694,119.666,396.656,119.315z
				 M396.551,116.5c-0.458,0.188-1.145,0.346-2.06,0.477c-0.518,0.075-0.885,0.159-1.1,0.252c-0.215,0.094-0.38,0.23-0.497,0.41
				c-0.116,0.18-0.175,0.379-0.175,0.599c0,0.336,0.127,0.616,0.382,0.841c0.254,0.224,0.627,0.336,1.117,0.336
				c0.485,0,0.917-0.106,1.295-0.318c0.379-0.213,0.656-0.504,0.834-0.872c0.136-0.285,0.203-0.705,0.203-1.261V116.5z"/>
			<path d="M399.276,118.013l1.246-0.195c0.07,0.499,0.266,0.882,0.585,1.148c0.32,0.266,0.768,0.399,1.342,0.399
				c0.579,0,1.009-0.118,1.288-0.354c0.28-0.235,0.421-0.512,0.421-0.829c0-0.285-0.124-0.51-0.371-0.673
				c-0.173-0.112-0.603-0.254-1.289-0.427c-0.925-0.233-1.565-0.436-1.923-0.606c-0.357-0.17-0.628-0.406-0.813-0.707
				c-0.185-0.302-0.276-0.634-0.276-0.998c0-0.332,0.076-0.639,0.228-0.921c0.151-0.283,0.358-0.518,0.62-0.704
				c0.196-0.145,0.463-0.268,0.802-0.368c0.339-0.1,0.701-0.15,1.089-0.15c0.584,0,1.097,0.084,1.538,0.252
				c0.44,0.168,0.767,0.396,0.977,0.684s0.354,0.671,0.435,1.151l-1.233,0.169c-0.056-0.383-0.218-0.683-0.486-0.896
				c-0.269-0.215-0.647-0.322-1.138-0.322c-0.579,0-0.993,0.096-1.24,0.287s-0.371,0.415-0.371,0.672
				c0,0.164,0.052,0.311,0.154,0.441c0.103,0.136,0.264,0.247,0.483,0.336c0.126,0.047,0.497,0.154,1.113,0.322
				c0.892,0.238,1.514,0.434,1.866,0.585s0.63,0.372,0.83,0.662c0.201,0.289,0.302,0.648,0.302,1.078
				c0,0.421-0.123,0.816-0.368,1.188s-0.599,0.658-1.061,0.861c-0.463,0.203-0.985,0.305-1.569,0.305c-0.967,0-1.703-0.2-2.21-0.603
				C399.739,119.397,399.416,118.803,399.276,118.013z"/>
		</g>
	</g>
	<g>
		<g>
			<path d="M335.883,71.454v-1.212h6.646v0.98c-0.653,0.696-1.302,1.62-1.943,2.773c-0.643,1.153-1.139,2.34-1.488,3.559
				c-0.253,0.858-0.413,1.8-0.483,2.822h-1.296c0.014-0.808,0.173-1.783,0.477-2.928c0.303-1.144,0.738-2.247,1.306-3.31
				c0.567-1.062,1.171-1.957,1.811-2.686H335.883z"/>
			<path d="M344.484,80.377v-1.436h1.436v1.436H344.484z"/>
			<path d="M351.796,77.078l1.281-0.112c0.061,0.514,0.202,0.936,0.424,1.265s0.566,0.595,1.033,0.798s0.992,0.305,1.576,0.305
				c0.519,0,0.976-0.077,1.373-0.23c0.396-0.154,0.691-0.365,0.886-0.634c0.193-0.269,0.29-0.562,0.29-0.879
				c0-0.322-0.093-0.604-0.279-0.845c-0.188-0.24-0.495-0.442-0.925-0.605c-0.275-0.107-0.885-0.274-1.828-0.501
				s-1.604-0.44-1.982-0.641c-0.49-0.257-0.855-0.575-1.096-0.956s-0.361-0.807-0.361-1.278c0-0.519,0.147-1.003,0.441-1.453
				c0.295-0.451,0.724-0.793,1.289-1.026c0.564-0.233,1.193-0.351,1.884-0.351c0.762,0,1.433,0.123,2.014,0.368
				c0.582,0.245,1.028,0.605,1.342,1.082c0.313,0.477,0.48,1.016,0.504,1.618l-1.303,0.098c-0.07-0.648-0.307-1.139-0.711-1.471
				c-0.404-0.331-1-0.497-1.789-0.497c-0.822,0-1.421,0.15-1.797,0.451c-0.376,0.302-0.563,0.665-0.563,1.09
				c0,0.368,0.133,0.672,0.398,0.91c0.262,0.238,0.944,0.482,2.049,0.732c1.104,0.249,1.862,0.468,2.273,0.654
				c0.598,0.275,1.038,0.625,1.323,1.047c0.285,0.423,0.428,0.91,0.428,1.461c0,0.546-0.157,1.061-0.47,1.544
				s-0.763,0.859-1.349,1.128s-1.245,0.402-1.979,0.402c-0.929,0-1.707-0.135-2.336-0.406c-0.628-0.271-1.12-0.678-1.478-1.222
				S351.815,77.765,351.796,77.078z"/>
			<path d="M366.518,79.459c-0.467,0.397-0.916,0.678-1.348,0.841s-0.896,0.245-1.391,0.245c-0.817,0-1.445-0.199-1.884-0.599
				c-0.439-0.399-0.658-0.909-0.658-1.53c0-0.364,0.083-0.697,0.248-0.998c0.166-0.302,0.383-0.543,0.651-0.726
				c0.269-0.182,0.571-0.319,0.907-0.413c0.248-0.065,0.621-0.128,1.121-0.188c1.018-0.122,1.767-0.267,2.248-0.435
				c0.005-0.173,0.007-0.282,0.007-0.329c0-0.514-0.119-0.876-0.357-1.086c-0.322-0.284-0.801-0.427-1.436-0.427
				c-0.593,0-1.031,0.104-1.313,0.312s-0.491,0.575-0.627,1.104l-1.232-0.169c0.112-0.527,0.297-0.953,0.554-1.278
				c0.257-0.324,0.628-0.574,1.113-0.749s1.048-0.263,1.688-0.263c0.636,0,1.151,0.075,1.549,0.225
				c0.396,0.149,0.688,0.337,0.875,0.563s0.317,0.513,0.393,0.858c0.042,0.215,0.063,0.602,0.063,1.162v1.681
				c0,1.173,0.027,1.914,0.081,2.225s0.159,0.607,0.318,0.893h-1.316C366.64,80.115,366.556,79.81,366.518,79.459z M366.414,76.644
				c-0.458,0.188-1.145,0.346-2.06,0.477c-0.518,0.075-0.885,0.159-1.1,0.252c-0.215,0.094-0.38,0.23-0.497,0.41
				c-0.116,0.18-0.175,0.379-0.175,0.599c0,0.336,0.127,0.616,0.382,0.841c0.254,0.224,0.627,0.336,1.117,0.336
				c0.485,0,0.917-0.106,1.295-0.318c0.379-0.213,0.656-0.504,0.834-0.872c0.136-0.285,0.203-0.705,0.203-1.261V76.644z"/>
			<path d="M369.615,80.377V70.109h1.261v10.268H369.615z"/>
			<path d="M372.835,71.559v-1.449h1.261v1.449H372.835z M372.835,80.377v-7.438h1.261v7.438H372.835z"/>
			<path d="M380.841,80.377v-0.938c-0.472,0.737-1.165,1.106-2.08,1.106c-0.594,0-1.139-0.163-1.636-0.49s-0.883-0.783-1.155-1.369
				c-0.273-0.586-0.41-1.26-0.41-2.021c0-0.742,0.124-1.416,0.371-2.021c0.248-0.604,0.619-1.068,1.114-1.391
				c0.494-0.322,1.048-0.483,1.659-0.483c0.448,0,0.848,0.095,1.198,0.284c0.35,0.188,0.635,0.436,0.854,0.738v-3.684h1.254v10.268
				H380.841z M376.856,76.665c0,0.952,0.2,1.664,0.603,2.136c0.401,0.472,0.875,0.708,1.422,0.708c0.551,0,1.019-0.226,1.404-0.676
				c0.385-0.451,0.577-1.139,0.577-2.063c0-1.018-0.196-1.765-0.588-2.241c-0.393-0.476-0.876-0.714-1.45-0.714
				c-0.561,0-1.028,0.229-1.404,0.687C377.043,74.958,376.856,75.68,376.856,76.665z"/>
			<path d="M388.846,79.459c-0.467,0.397-0.916,0.678-1.348,0.841s-0.896,0.245-1.391,0.245c-0.817,0-1.445-0.199-1.884-0.599
				c-0.439-0.399-0.658-0.909-0.658-1.53c0-0.364,0.083-0.697,0.248-0.998c0.166-0.302,0.383-0.543,0.651-0.726
				c0.269-0.182,0.571-0.319,0.907-0.413c0.248-0.065,0.621-0.128,1.121-0.188c1.018-0.122,1.767-0.267,2.248-0.435
				c0.005-0.173,0.007-0.282,0.007-0.329c0-0.514-0.119-0.876-0.357-1.086c-0.322-0.284-0.801-0.427-1.436-0.427
				c-0.593,0-1.031,0.104-1.313,0.312s-0.491,0.575-0.627,1.104l-1.232-0.169c0.112-0.527,0.297-0.953,0.554-1.278
				c0.257-0.324,0.628-0.574,1.113-0.749s1.048-0.263,1.688-0.263c0.636,0,1.151,0.075,1.549,0.225
				c0.396,0.149,0.688,0.337,0.875,0.563s0.317,0.513,0.393,0.858c0.042,0.215,0.063,0.602,0.063,1.162v1.681
				c0,1.173,0.027,1.914,0.081,2.225s0.159,0.607,0.318,0.893h-1.316C388.968,80.115,388.884,79.81,388.846,79.459z M388.742,76.644
				c-0.458,0.188-1.145,0.346-2.06,0.477c-0.518,0.075-0.885,0.159-1.1,0.252c-0.215,0.094-0.38,0.23-0.497,0.41
				c-0.116,0.18-0.175,0.379-0.175,0.599c0,0.336,0.127,0.616,0.382,0.841c0.254,0.224,0.627,0.336,1.117,0.336
				c0.485,0,0.917-0.106,1.295-0.318c0.379-0.213,0.656-0.504,0.834-0.872c0.136-0.285,0.203-0.705,0.203-1.261V76.644z"/>
			<path d="M391.466,78.156l1.246-0.195c0.07,0.499,0.266,0.882,0.585,1.148c0.32,0.266,0.768,0.399,1.342,0.399
				c0.579,0,1.009-0.118,1.288-0.354c0.28-0.235,0.421-0.512,0.421-0.829c0-0.285-0.124-0.51-0.371-0.673
				c-0.173-0.112-0.603-0.254-1.289-0.427c-0.925-0.233-1.565-0.436-1.923-0.606c-0.357-0.17-0.628-0.406-0.813-0.707
				c-0.185-0.302-0.276-0.634-0.276-0.998c0-0.332,0.076-0.639,0.228-0.921c0.151-0.283,0.358-0.518,0.62-0.704
				c0.196-0.145,0.463-0.268,0.802-0.368c0.339-0.1,0.701-0.15,1.089-0.15c0.584,0,1.097,0.084,1.538,0.252
				c0.44,0.168,0.767,0.396,0.977,0.684s0.354,0.671,0.435,1.151l-1.233,0.169c-0.056-0.383-0.218-0.683-0.486-0.896
				c-0.269-0.215-0.647-0.322-1.138-0.322c-0.579,0-0.993,0.096-1.24,0.287s-0.371,0.415-0.371,0.672
				c0,0.164,0.052,0.311,0.154,0.441c0.103,0.136,0.264,0.247,0.483,0.336c0.126,0.047,0.497,0.154,1.113,0.322
				c0.892,0.238,1.514,0.434,1.866,0.585s0.63,0.372,0.83,0.662c0.201,0.289,0.302,0.648,0.302,1.078
				c0,0.421-0.123,0.816-0.368,1.188s-0.599,0.658-1.061,0.861c-0.463,0.203-0.985,0.305-1.569,0.305c-0.967,0-1.703-0.2-2.21-0.603
				C391.929,79.541,391.606,78.946,391.466,78.156z"/>
		</g>
	</g>
	<g>
		<g>
			<path d="M231.153,57.494l-1.254,0.098c-0.112-0.495-0.271-0.854-0.477-1.079c-0.341-0.359-0.761-0.539-1.261-0.539
				c-0.401,0-0.754,0.112-1.058,0.336c-0.396,0.29-0.71,0.713-0.938,1.269s-0.348,1.347-0.357,2.374
				c0.304-0.462,0.675-0.806,1.114-1.029c0.438-0.225,0.898-0.337,1.38-0.337c0.84,0,1.556,0.31,2.146,0.929
				c0.591,0.618,0.886,1.418,0.886,2.398c0,0.645-0.139,1.243-0.417,1.797c-0.277,0.553-0.659,0.977-1.145,1.271
				c-0.486,0.295-1.037,0.441-1.653,0.441c-1.051,0-1.907-0.386-2.57-1.159c-0.663-0.772-0.995-2.046-0.995-3.82
				c0-1.984,0.367-3.428,1.101-4.328c0.64-0.785,1.501-1.177,2.584-1.177c0.808,0,1.47,0.227,1.985,0.679
				C230.741,56.069,231.049,56.695,231.153,57.494z M226.004,61.92c0,0.435,0.092,0.851,0.276,1.247s0.442,0.699,0.774,0.907
				c0.331,0.207,0.68,0.312,1.044,0.312c0.532,0,0.989-0.215,1.372-0.645s0.574-1.013,0.574-1.751c0-0.71-0.188-1.269-0.567-1.678
				c-0.378-0.408-0.854-0.612-1.429-0.612c-0.569,0-1.053,0.204-1.449,0.612C226.203,60.722,226.004,61.257,226.004,61.92z"/>
			<path d="M233.295,65.247v-1.436h1.437v1.436H233.295z"/>
			<path d="M240.608,61.948l1.282-0.112c0.061,0.514,0.201,0.936,0.423,1.265c0.223,0.329,0.566,0.595,1.033,0.798
				s0.992,0.305,1.576,0.305c0.519,0,0.976-0.077,1.373-0.23c0.396-0.154,0.692-0.365,0.886-0.634s0.291-0.562,0.291-0.879
				c0-0.322-0.094-0.604-0.28-0.845c-0.187-0.24-0.495-0.442-0.925-0.605c-0.275-0.107-0.885-0.274-1.828-0.501
				s-1.604-0.44-1.981-0.641c-0.491-0.257-0.856-0.575-1.097-0.956S241,58.105,241,57.634c0-0.519,0.146-1.003,0.441-1.453
				c0.294-0.451,0.724-0.793,1.288-1.026c0.565-0.233,1.193-0.351,1.885-0.351c0.761,0,1.432,0.123,2.013,0.368
				c0.582,0.245,1.029,0.605,1.342,1.082s0.48,1.016,0.504,1.618l-1.303,0.098c-0.069-0.648-0.307-1.139-0.711-1.471
				c-0.403-0.331-1-0.497-1.789-0.497c-0.822,0-1.421,0.15-1.797,0.451c-0.376,0.302-0.563,0.665-0.563,1.09
				c0,0.368,0.133,0.672,0.399,0.91c0.261,0.238,0.944,0.482,2.049,0.732c1.104,0.249,1.861,0.468,2.272,0.654
				c0.598,0.275,1.039,0.625,1.323,1.047c0.285,0.423,0.428,0.91,0.428,1.461c0,0.546-0.156,1.061-0.47,1.544
				c-0.313,0.483-0.762,0.859-1.348,1.128s-1.246,0.402-1.979,0.402c-0.93,0-1.708-0.135-2.336-0.406
				c-0.628-0.271-1.121-0.678-1.479-1.222C240.815,63.25,240.626,62.635,240.608,61.948z"/>
			<path d="M255.331,64.329c-0.467,0.397-0.917,0.678-1.349,0.841s-0.896,0.245-1.391,0.245c-0.816,0-1.444-0.199-1.884-0.599
				c-0.438-0.399-0.658-0.909-0.658-1.53c0-0.364,0.083-0.697,0.249-0.998c0.165-0.302,0.383-0.543,0.651-0.726
				c0.268-0.182,0.57-0.319,0.906-0.413c0.248-0.065,0.621-0.128,1.121-0.188c1.018-0.122,1.768-0.267,2.248-0.435
				c0.005-0.173,0.007-0.282,0.007-0.329c0-0.514-0.119-0.876-0.356-1.086c-0.322-0.284-0.802-0.427-1.437-0.427
				c-0.593,0-1.03,0.104-1.313,0.312c-0.283,0.208-0.492,0.575-0.627,1.104l-1.233-0.169c0.112-0.527,0.297-0.953,0.554-1.278
				c0.257-0.324,0.628-0.574,1.113-0.749s1.049-0.263,1.688-0.263c0.635,0,1.15,0.075,1.548,0.225
				c0.396,0.149,0.688,0.337,0.875,0.563s0.317,0.513,0.393,0.858c0.042,0.215,0.063,0.602,0.063,1.162v1.681
				c0,1.173,0.027,1.914,0.081,2.225s0.16,0.607,0.318,0.893h-1.316C255.452,64.985,255.368,64.68,255.331,64.329z M255.225,61.514
				c-0.458,0.188-1.144,0.346-2.059,0.477c-0.519,0.075-0.886,0.159-1.1,0.252c-0.215,0.094-0.381,0.23-0.498,0.41
				c-0.116,0.18-0.175,0.379-0.175,0.599c0,0.336,0.127,0.616,0.382,0.841c0.254,0.224,0.627,0.336,1.117,0.336
				c0.485,0,0.917-0.106,1.296-0.318c0.378-0.213,0.655-0.504,0.833-0.872c0.136-0.285,0.203-0.705,0.203-1.261V61.514z"/>
			<path d="M258.426,65.247V54.979h1.261v10.268H258.426z"/>
			<path d="M261.648,56.429v-1.449h1.261v1.449H261.648z M261.648,65.247v-7.438h1.261v7.438H261.648z"/>
			<path d="M269.654,65.247v-0.938c-0.472,0.737-1.165,1.106-2.081,1.106c-0.593,0-1.138-0.163-1.635-0.49s-0.883-0.783-1.156-1.369
				c-0.272-0.586-0.409-1.26-0.409-2.021c0-0.742,0.123-1.416,0.371-2.021c0.247-0.604,0.618-1.068,1.113-1.391
				s1.049-0.483,1.66-0.483c0.448,0,0.848,0.095,1.197,0.284c0.351,0.188,0.636,0.436,0.854,0.738v-3.684h1.254v10.268H269.654z
				 M265.668,61.535c0,0.952,0.2,1.664,0.602,2.136c0.402,0.472,0.876,0.708,1.422,0.708c0.551,0,1.02-0.226,1.404-0.676
				c0.386-0.451,0.578-1.139,0.578-2.063c0-1.018-0.196-1.765-0.588-2.241c-0.393-0.476-0.876-0.714-1.45-0.714
				c-0.561,0-1.028,0.229-1.404,0.687C265.856,59.828,265.668,60.55,265.668,61.535z"/>
			<path d="M277.659,64.329c-0.467,0.397-0.916,0.678-1.348,0.841c-0.433,0.163-0.896,0.245-1.391,0.245
				c-0.817,0-1.445-0.199-1.884-0.599c-0.439-0.399-0.659-0.909-0.659-1.53c0-0.364,0.083-0.697,0.249-0.998
				c0.166-0.302,0.383-0.543,0.651-0.726c0.269-0.182,0.571-0.319,0.907-0.413c0.247-0.065,0.621-0.128,1.12-0.188
				c1.019-0.122,1.768-0.267,2.249-0.435c0.004-0.173,0.007-0.282,0.007-0.329c0-0.514-0.119-0.876-0.357-1.086
				c-0.322-0.284-0.801-0.427-1.436-0.427c-0.594,0-1.031,0.104-1.313,0.312s-0.491,0.575-0.627,1.104l-1.232-0.169
				c0.112-0.527,0.296-0.953,0.553-1.278c0.257-0.324,0.628-0.574,1.114-0.749c0.485-0.175,1.048-0.263,1.688-0.263
				c0.635,0,1.151,0.075,1.548,0.225c0.397,0.149,0.688,0.337,0.876,0.563c0.187,0.227,0.317,0.513,0.392,0.858
				c0.042,0.215,0.063,0.602,0.063,1.162v1.681c0,1.173,0.026,1.914,0.08,2.225s0.16,0.607,0.319,0.893h-1.317
				C277.781,64.985,277.696,64.68,277.659,64.329z M277.554,61.514c-0.458,0.188-1.145,0.346-2.06,0.477
				c-0.519,0.075-0.885,0.159-1.1,0.252c-0.215,0.094-0.381,0.23-0.497,0.41c-0.117,0.18-0.175,0.379-0.175,0.599
				c0,0.336,0.127,0.616,0.381,0.841c0.255,0.224,0.627,0.336,1.117,0.336c0.486,0,0.918-0.106,1.296-0.318
				c0.378-0.213,0.656-0.504,0.834-0.872c0.135-0.285,0.203-0.705,0.203-1.261V61.514z"/>
			<path d="M280.279,63.026l1.246-0.195c0.07,0.499,0.266,0.882,0.585,1.148c0.32,0.266,0.767,0.399,1.342,0.399
				c0.578,0,1.008-0.118,1.288-0.354c0.28-0.235,0.421-0.512,0.421-0.829c0-0.285-0.124-0.51-0.372-0.673
				c-0.173-0.112-0.602-0.254-1.288-0.427c-0.925-0.233-1.565-0.436-1.923-0.606c-0.357-0.17-0.628-0.406-0.813-0.707
				c-0.185-0.302-0.276-0.634-0.276-0.998c0-0.332,0.075-0.639,0.228-0.921c0.151-0.283,0.358-0.518,0.62-0.704
				c0.195-0.145,0.463-0.268,0.802-0.368c0.338-0.1,0.701-0.15,1.089-0.15c0.584,0,1.096,0.084,1.537,0.252s0.768,0.396,0.978,0.684
				s0.354,0.671,0.434,1.151l-1.232,0.169c-0.056-0.383-0.218-0.683-0.486-0.896c-0.269-0.215-0.648-0.322-1.139-0.322
				c-0.579,0-0.992,0.096-1.239,0.287c-0.248,0.191-0.371,0.415-0.371,0.672c0,0.164,0.051,0.311,0.153,0.441
				c0.104,0.136,0.265,0.247,0.483,0.336c0.126,0.047,0.498,0.154,1.114,0.322c0.892,0.238,1.514,0.434,1.866,0.585
				s0.629,0.372,0.83,0.662c0.2,0.289,0.301,0.648,0.301,1.078c0,0.421-0.122,0.816-0.367,1.188s-0.599,0.658-1.062,0.861
				c-0.462,0.203-0.985,0.305-1.568,0.305c-0.967,0-1.703-0.2-2.21-0.603C280.742,64.411,280.418,63.816,280.279,63.026z"/>
		</g>
	</g>
	<path d="M235.721,189.293c-1.179,3.173-3.186,7.109-5.315,9.552l5.315-1.924l5.314,1.924
		C238.906,196.402,236.897,192.466,235.721,189.293"/>
	<path d="M209.423,189.293c-1.178,3.173-3.187,7.109-5.316,9.552l5.316-1.924l5.314,1.924
		C212.609,196.402,210.599,192.466,209.423,189.293"/>
	<path d="M175.978,70.353c1.179-3.174,3.186-7.11,5.316-9.553l-5.316,1.924l-5.314-1.924
		C172.794,63.243,174.802,67.18,175.978,70.353"/>
	<path d="M202.503,70.353c1.179-3.174,3.187-7.11,5.315-9.553l-5.315,1.924l-5.313-1.924
		C199.318,63.243,201.328,67.18,202.503,70.353"/>
	<path d="M183.755,189.293c-1.18,3.173-3.187,7.109-5.316,9.552l5.316-1.924l5.314,1.924
		C186.94,196.402,184.931,192.466,183.755,189.293"/>
	<polyline style="fill:none;stroke:#000000;stroke-miterlimit:10;" points="107.228,213.23 209.109,213.23 209.109,193.872 	"/>
	<polyline style="fill:none;stroke:#000000;stroke-miterlimit:10;" points="107.228,203.839 183.754,203.839 183.754,193.872 	"/>
	<g>
		<g>
			<path style="fill:#FFFFFF;" d="M158.207,132.054l1.261-0.168c0.145,0.715,0.391,1.229,0.739,1.545
				c0.348,0.314,0.771,0.473,1.271,0.473c0.593,0,1.094-0.206,1.502-0.616c0.409-0.411,0.613-0.92,0.613-1.527
				c0-0.579-0.189-1.057-0.567-1.433c-0.378-0.375-0.859-0.563-1.443-0.563c-0.238,0-0.535,0.047-0.889,0.141l0.14-1.107
				c0.084,0.01,0.151,0.015,0.203,0.015c0.537,0,1.02-0.141,1.45-0.421c0.43-0.279,0.645-0.712,0.645-1.295
				c0-0.463-0.157-0.846-0.47-1.149c-0.313-0.303-0.717-0.455-1.211-0.455c-0.49,0-0.899,0.154-1.226,0.463
				c-0.327,0.308-0.537,0.77-0.63,1.387l-1.261-0.225c0.154-0.845,0.504-1.5,1.05-1.965c0.546-0.464,1.226-0.696,2.039-0.696
				c0.56,0,1.076,0.12,1.548,0.36c0.471,0.24,0.832,0.568,1.082,0.984c0.25,0.415,0.375,0.856,0.375,1.323
				c0,0.444-0.119,0.848-0.357,1.212c-0.238,0.364-0.591,0.654-1.058,0.868c0.607,0.141,1.079,0.431,1.415,0.872
				c0.336,0.441,0.504,0.994,0.504,1.656c0,0.897-0.327,1.657-0.98,2.28s-1.48,0.935-2.479,0.935c-0.901,0-1.649-0.268-2.245-0.805
				C158.63,133.604,158.291,132.908,158.207,132.054z"/>
			<path style="fill:#FFFFFF;" d="M166.884,134.765v-1.436h1.436v1.436H166.884z"/>
			<path style="fill:#FFFFFF;" d="M173.531,134.765l3.943-10.268h1.464l4.202,10.268h-1.548l-1.198-3.109h-4.293l-1.127,3.109
				H173.531z M176.494,130.548h3.481l-1.072-2.843c-0.327-0.864-0.57-1.574-0.729-2.13c-0.131,0.658-0.315,1.313-0.553,1.961
				L176.494,130.548z"/>
			<path style="fill:#FFFFFF;" d="M188.919,132.04l1.24,0.161c-0.136,0.854-0.482,1.523-1.04,2.007
				c-0.558,0.483-1.243,0.725-2.056,0.725c-1.018,0-1.836-0.333-2.455-0.998s-0.928-1.619-0.928-2.861
				c0-0.803,0.133-1.506,0.399-2.107c0.266-0.603,0.671-1.055,1.215-1.355c0.544-0.302,1.136-0.452,1.775-0.452
				c0.808,0,1.468,0.204,1.982,0.613c0.514,0.408,0.843,0.988,0.988,1.74l-1.226,0.189c-0.117-0.5-0.324-0.876-0.62-1.128
				s-0.655-0.378-1.075-0.378c-0.635,0-1.151,0.228-1.548,0.683c-0.396,0.455-0.595,1.176-0.595,2.16c0,1,0.191,1.726,0.574,2.179
				s0.883,0.68,1.499,0.68c0.495,0,0.908-0.152,1.24-0.456C188.62,133.138,188.83,132.671,188.919,132.04z"/>
			<path style="fill:#FFFFFF;" d="M193.99,133.637l0.182,1.114c-0.355,0.074-0.672,0.111-0.953,0.111
				c-0.458,0-0.813-0.072-1.064-0.217c-0.252-0.145-0.43-0.335-0.533-0.57c-0.103-0.236-0.154-0.732-0.154-1.489v-4.279h-0.925
				v-0.98h0.925v-1.842l1.253-0.757v2.599h1.268v0.98h-1.268v4.35c0,0.359,0.022,0.591,0.067,0.693
				c0.044,0.103,0.117,0.185,0.217,0.245c0.101,0.061,0.244,0.092,0.431,0.092C193.576,133.687,193.761,133.67,193.99,133.637z"/>
			<path style="fill:#FFFFFF;" d="M195.229,125.946v-1.449h1.261v1.449H195.229z M195.229,134.765v-7.438h1.261v7.438H195.229z"/>
			<path style="fill:#FFFFFF;" d="M200.475,134.765l-2.83-7.438h1.331l1.597,4.455c0.172,0.48,0.332,0.98,0.476,1.499
				c0.112-0.393,0.269-0.864,0.469-1.415l1.653-4.539h1.296l-2.815,7.438H200.475z"/>
			<path style="fill:#FFFFFF;" d="M205.588,125.946v-1.449h1.261v1.449H205.588z M205.588,134.765v-7.438h1.261v7.438H205.588z"/>
			<path style="fill:#FFFFFF;" d="M213.594,134.765v-0.938c-0.472,0.737-1.165,1.106-2.081,1.106c-0.593,0-1.138-0.163-1.635-0.49
				s-0.883-0.783-1.156-1.369c-0.272-0.586-0.409-1.26-0.409-2.021c0-0.742,0.123-1.416,0.371-2.021
				c0.247-0.604,0.618-1.068,1.113-1.391s1.049-0.483,1.66-0.483c0.448,0,0.848,0.095,1.197,0.284
				c0.351,0.188,0.636,0.436,0.854,0.738v-3.684h1.254v10.268H213.594z M209.609,131.053c0,0.952,0.2,1.664,0.602,2.136
				c0.402,0.472,0.876,0.708,1.422,0.708c0.551,0,1.02-0.226,1.404-0.676c0.386-0.451,0.578-1.139,0.578-2.063
				c0-1.018-0.196-1.765-0.588-2.241c-0.393-0.476-0.876-0.714-1.45-0.714c-0.561,0-1.028,0.229-1.404,0.687
				C209.796,129.346,209.609,130.067,209.609,131.053z"/>
			<path style="fill:#FFFFFF;" d="M221.599,133.847c-0.467,0.397-0.916,0.678-1.348,0.841c-0.433,0.163-0.896,0.245-1.391,0.245
				c-0.817,0-1.445-0.199-1.884-0.599c-0.439-0.399-0.659-0.909-0.659-1.53c0-0.364,0.083-0.697,0.249-0.998
				c0.166-0.302,0.383-0.543,0.651-0.726c0.269-0.182,0.571-0.319,0.907-0.413c0.247-0.065,0.621-0.128,1.12-0.188
				c1.019-0.122,1.768-0.267,2.249-0.435c0.004-0.173,0.007-0.282,0.007-0.329c0-0.514-0.119-0.876-0.357-1.086
				c-0.322-0.284-0.801-0.427-1.436-0.427c-0.594,0-1.031,0.104-1.313,0.312s-0.491,0.575-0.627,1.104l-1.232-0.169
				c0.112-0.527,0.296-0.953,0.553-1.278c0.257-0.324,0.628-0.574,1.114-0.749c0.485-0.175,1.048-0.263,1.688-0.263
				c0.635,0,1.151,0.075,1.548,0.225c0.397,0.149,0.688,0.337,0.876,0.563c0.187,0.227,0.317,0.513,0.392,0.858
				c0.042,0.215,0.063,0.602,0.063,1.162v1.681c0,1.173,0.026,1.914,0.08,2.225s0.16,0.607,0.319,0.893h-1.317
				C221.721,134.503,221.636,134.197,221.599,133.847z M221.495,131.031c-0.458,0.188-1.145,0.346-2.06,0.477
				c-0.519,0.075-0.885,0.159-1.1,0.252c-0.215,0.094-0.381,0.23-0.497,0.41c-0.117,0.18-0.175,0.379-0.175,0.599
				c0,0.336,0.127,0.616,0.381,0.841c0.255,0.224,0.627,0.336,1.117,0.336c0.486,0,0.918-0.106,1.296-0.318
				c0.378-0.213,0.656-0.504,0.834-0.872c0.135-0.285,0.203-0.705,0.203-1.261V131.031z"/>
			<path style="fill:#FFFFFF;" d="M229.549,134.765v-0.938c-0.472,0.737-1.165,1.106-2.081,1.106c-0.593,0-1.138-0.163-1.635-0.49
				s-0.883-0.783-1.156-1.369c-0.272-0.586-0.409-1.26-0.409-2.021c0-0.742,0.123-1.416,0.371-2.021
				c0.247-0.604,0.618-1.068,1.113-1.391s1.049-0.483,1.66-0.483c0.448,0,0.848,0.095,1.197,0.284
				c0.351,0.188,0.636,0.436,0.854,0.738v-3.684h1.254v10.268H229.549z M225.564,131.053c0,0.952,0.2,1.664,0.602,2.136
				c0.402,0.472,0.876,0.708,1.422,0.708c0.551,0,1.02-0.226,1.404-0.676c0.386-0.451,0.578-1.139,0.578-2.063
				c0-1.018-0.196-1.765-0.588-2.241c-0.393-0.476-0.876-0.714-1.45-0.714c-0.561,0-1.028,0.229-1.404,0.687
				C225.751,129.346,225.564,130.067,225.564,131.053z"/>
			<path style="fill:#FFFFFF;" d="M237.792,132.369l1.303,0.161c-0.205,0.762-0.586,1.352-1.142,1.772
				c-0.556,0.42-1.266,0.63-2.129,0.63c-1.088,0-1.951-0.335-2.588-1.005c-0.638-0.67-0.956-1.609-0.956-2.819
				c0-1.251,0.322-2.223,0.966-2.913c0.645-0.691,1.48-1.037,2.508-1.037c0.994,0,1.807,0.339,2.438,1.016
				c0.63,0.677,0.945,1.63,0.945,2.857c0,0.075-0.002,0.188-0.007,0.337h-5.547c0.046,0.816,0.277,1.442,0.693,1.877
				c0.415,0.434,0.934,0.651,1.555,0.651c0.462,0,0.856-0.122,1.184-0.364C237.342,133.289,237.601,132.901,237.792,132.369z
				 M233.653,130.331h4.153c-0.056-0.626-0.215-1.095-0.476-1.408c-0.402-0.485-0.923-0.728-1.563-0.728
				c-0.579,0-1.065,0.193-1.46,0.581S233.695,129.683,233.653,130.331z"/>
			<path style="fill:#FFFFFF;" d="M240.174,132.544l1.246-0.195c0.07,0.499,0.266,0.882,0.585,1.148
				c0.32,0.266,0.767,0.399,1.342,0.399c0.578,0,1.008-0.118,1.288-0.354c0.28-0.235,0.421-0.512,0.421-0.829
				c0-0.285-0.124-0.51-0.372-0.673c-0.173-0.112-0.602-0.254-1.288-0.427c-0.925-0.233-1.565-0.436-1.923-0.606
				c-0.357-0.17-0.628-0.406-0.813-0.707c-0.185-0.302-0.276-0.634-0.276-0.998c0-0.332,0.075-0.639,0.228-0.921
				c0.151-0.283,0.358-0.518,0.62-0.704c0.195-0.145,0.463-0.268,0.802-0.368c0.338-0.1,0.701-0.15,1.089-0.15
				c0.584,0,1.096,0.084,1.537,0.252s0.768,0.396,0.978,0.684s0.354,0.671,0.434,1.151l-1.232,0.169
				c-0.056-0.383-0.218-0.683-0.486-0.896c-0.269-0.215-0.648-0.322-1.139-0.322c-0.579,0-0.992,0.096-1.239,0.287
				c-0.248,0.191-0.371,0.415-0.371,0.672c0,0.164,0.051,0.311,0.153,0.441c0.104,0.136,0.265,0.247,0.483,0.336
				c0.126,0.047,0.498,0.154,1.114,0.322c0.892,0.238,1.514,0.434,1.866,0.585s0.629,0.372,0.83,0.662
				c0.2,0.289,0.301,0.648,0.301,1.078c0,0.421-0.122,0.816-0.367,1.188s-0.599,0.658-1.062,0.861
				c-0.462,0.203-0.985,0.305-1.568,0.305c-0.967,0-1.703-0.2-2.21-0.603C240.637,133.929,240.314,133.334,240.174,132.544z"/>
			<path style="fill:#FFFFFF;" d="M254.246,137.783c-0.696-0.878-1.284-1.905-1.766-3.082c-0.48-1.176-0.721-2.395-0.721-3.655
				c0-1.111,0.18-2.176,0.539-3.194c0.42-1.181,1.069-2.357,1.947-3.53h0.903c-0.565,0.972-0.938,1.665-1.121,2.081
				c-0.284,0.644-0.509,1.316-0.672,2.017c-0.201,0.873-0.302,1.751-0.302,2.634c0,2.246,0.698,4.489,2.095,6.73H254.246z"/>
			<path style="fill:#FFFFFF;" d="M256.773,134.765v-10.268h3.874c0.682,0,1.202,0.032,1.562,0.098
				c0.504,0.084,0.927,0.244,1.268,0.479c0.341,0.236,0.615,0.566,0.823,0.991s0.312,0.893,0.312,1.401
				c0,0.873-0.278,1.612-0.833,2.217c-0.557,0.604-1.561,0.906-3.012,0.906h-2.634v4.175H256.773z M258.132,129.379h2.654
				c0.878,0,1.501-0.164,1.87-0.49c0.369-0.327,0.554-0.787,0.554-1.38c0-0.43-0.109-0.798-0.326-1.104s-0.503-0.508-0.858-0.605
				c-0.229-0.061-0.651-0.091-1.268-0.091h-2.626V129.379z"/>
			<path style="fill:#FFFFFF;" d="M266.382,134.765v-10.268h1.359v4.216h5.337v-4.216h1.358v10.268h-1.358v-4.84h-5.337v4.84
				H266.382z"/>
			<path style="fill:#FFFFFF;" d="M279.634,134.765l-3.979-10.268h1.471l2.669,7.459c0.215,0.598,0.395,1.158,0.539,1.681
				c0.159-0.56,0.344-1.12,0.554-1.681l2.773-7.459h1.387l-4.021,10.268H279.634z"/>
			<path style="fill:#FFFFFF;" d="M285.139,134.765l3.943-10.268h1.464l4.202,10.268h-1.548l-1.197-3.109h-4.294l-1.127,3.109
				H285.139z M288.102,130.548h3.481l-1.072-2.843c-0.327-0.864-0.569-1.574-0.729-2.13c-0.131,0.658-0.314,1.313-0.553,1.961
				L288.102,130.548z"/>
			<path style="fill:#FFFFFF;" d="M296.5,137.783h-0.903c1.396-2.241,2.095-4.484,2.095-6.73c0-0.878-0.101-1.749-0.302-2.612
				c-0.158-0.701-0.381-1.373-0.665-2.018c-0.183-0.42-0.559-1.12-1.128-2.102h0.903c0.878,1.173,1.527,2.35,1.947,3.53
				c0.359,1.019,0.539,2.083,0.539,3.194c0,1.261-0.241,2.479-0.725,3.655C297.778,135.878,297.191,136.905,296.5,137.783z"/>
		</g>
	</g>
</g>
</svg>
