<?xml version="1.0" encoding="utf-8"?>
<!-- Generator: Adobe Illustrator 17.0.0, SVG Export Plug-In . SVG Version: 6.00 Build 0)  -->
<!DOCTYPE svg PUBLIC "-//W3C//DTD SVG 1.1//EN" "http://www.w3.org/Graphics/SVG/1.1/DTD/svg11.dtd">
<svg version="1.1" id="Capa_1" xmlns="http://www.w3.org/2000/svg" xmlns:xlink="http://www.w3.org/1999/xlink" x="0px" y="0px"
	 width="149.411px" height="50.535px" viewBox="0 0 149.411 50.535" style="enable-background:new 0 0 149.411 50.535;"
	 xml:space="preserve">
<polygon style="fill:#6FC2D8;stroke:#000000;stroke-width:0.75;stroke-miterlimit:10;" points="0.815,0.375 127.568,0.375 
	148.921,25.269 128.307,50.16 1.548,50.16 22.176,25.336 "/>
<g>
	<g>
		<path style="fill:#2C6882;" d="M36.427,29.199l1.643-7.874h5.119l-0.188,0.897h-4.066l-0.521,2.508h4.142l-0.188,0.896h-4.141
			l-0.746,3.572H36.427z"/>
		<path style="fill:#2C6882;" d="M42.974,29.199l1.191-5.704h0.973l-1.192,5.704H42.974z M44.392,22.426l0.23-1.101h0.967
			l-0.23,1.101H44.392z"/>
		<path style="fill:#2C6882;" d="M49.393,27.121l0.972,0.102c-0.243,0.713-0.59,1.241-1.039,1.587s-0.961,0.519-1.534,0.519
			c-0.619,0-1.121-0.2-1.506-0.602s-0.578-0.961-0.578-1.682c0-0.623,0.124-1.234,0.371-1.836s0.601-1.06,1.061-1.373
			s0.986-0.47,1.576-0.47c0.613,0,1.098,0.173,1.456,0.519s0.537,0.803,0.537,1.372l-0.956,0.064
			c-0.004-0.361-0.108-0.645-0.314-0.849s-0.477-0.307-0.813-0.307c-0.391,0-0.729,0.124-1.015,0.371
			c-0.287,0.247-0.512,0.622-0.675,1.125s-0.244,0.987-0.244,1.453c0,0.487,0.107,0.853,0.322,1.096s0.479,0.365,0.795,0.365
			s0.617-0.12,0.905-0.359C49.001,27.977,49.228,27.611,49.393,27.121z"/>
		<path style="fill:#2C6882;" d="M50.955,29.199l1.644-7.874h0.972l-0.628,3.024c0.361-0.352,0.698-0.603,1.01-0.755
			s0.632-0.229,0.962-0.229c0.473,0,0.839,0.124,1.101,0.373s0.392,0.577,0.392,0.985c0,0.201-0.057,0.57-0.172,1.107l-0.703,3.367
			h-0.973l0.726-3.453c0.104-0.502,0.155-0.816,0.155-0.945c0-0.187-0.064-0.339-0.193-0.457s-0.314-0.178-0.559-0.178
			c-0.351,0-0.686,0.093-1.004,0.277s-0.568,0.437-0.749,0.757s-0.347,0.837-0.497,1.55l-0.51,2.449H50.955z"/>
		<path style="fill:#2C6882;" d="M60.919,28.49c-0.337,0.29-0.66,0.502-0.973,0.637c-0.311,0.134-0.645,0.201-0.998,0.201
			c-0.527,0-0.951-0.155-1.273-0.465s-0.483-0.706-0.483-1.189c0-0.318,0.072-0.601,0.218-0.846
			c0.145-0.245,0.337-0.442,0.577-0.591s0.533-0.255,0.881-0.319c0.219-0.043,0.633-0.077,1.243-0.103s1.049-0.09,1.313-0.193
			c0.075-0.265,0.112-0.485,0.112-0.661c0-0.225-0.082-0.402-0.246-0.531c-0.227-0.179-0.556-0.269-0.988-0.269
			c-0.408,0-0.742,0.091-1.002,0.271s-0.449,0.438-0.566,0.771l-0.983-0.086c0.2-0.565,0.519-0.999,0.953-1.3
			c0.436-0.301,0.984-0.451,1.646-0.451c0.705,0,1.264,0.168,1.676,0.505c0.315,0.251,0.473,0.576,0.473,0.978
			c0,0.305-0.045,0.657-0.134,1.058l-0.317,1.418c-0.101,0.451-0.15,0.818-0.15,1.102c0,0.179,0.039,0.437,0.118,0.773h-0.982
			C60.978,29.013,60.941,28.776,60.919,28.49z M61.278,26.31c-0.136,0.054-0.281,0.095-0.438,0.124
			c-0.155,0.028-0.416,0.059-0.781,0.091c-0.565,0.05-0.965,0.113-1.197,0.19c-0.233,0.077-0.408,0.2-0.527,0.368
			c-0.117,0.168-0.177,0.354-0.177,0.559c0,0.272,0.094,0.496,0.282,0.671c0.188,0.176,0.455,0.264,0.803,0.264
			c0.322,0,0.632-0.085,0.93-0.255c0.297-0.17,0.531-0.407,0.703-0.712S61.183,26.872,61.278,26.31z"/>
		<path style="fill:#2C6882;" d="M70.093,28.372c-0.555,0.638-1.135,0.956-1.74,0.956c-0.541,0-0.991-0.199-1.351-0.599
			c-0.36-0.399-0.54-0.979-0.54-1.737c0-0.695,0.143-1.33,0.427-1.904c0.285-0.575,0.642-1.006,1.069-1.292s0.856-0.43,1.286-0.43
			c0.709,0,1.244,0.342,1.606,1.026l0.645-3.067h0.967l-1.645,7.874h-0.896L70.093,28.372z M67.429,26.809
			c0,0.398,0.039,0.711,0.118,0.94s0.213,0.42,0.403,0.572c0.189,0.152,0.417,0.228,0.682,0.228c0.44,0,0.84-0.229,1.197-0.688
			c0.48-0.608,0.721-1.36,0.721-2.256c0-0.451-0.119-0.804-0.355-1.058s-0.533-0.382-0.891-0.382c-0.233,0-0.445,0.053-0.637,0.156
			s-0.382,0.28-0.569,0.529c-0.188,0.249-0.347,0.564-0.476,0.947C67.493,26.183,67.429,26.52,67.429,26.809z"/>
		<path style="fill:#2C6882;" d="M76.554,27.26l0.945,0.098c-0.136,0.469-0.448,0.914-0.938,1.337
			c-0.488,0.423-1.071,0.634-1.748,0.634c-0.423,0-0.811-0.098-1.163-0.293s-0.621-0.479-0.806-0.852
			c-0.185-0.372-0.276-0.796-0.276-1.272c0-0.623,0.145-1.228,0.433-1.813c0.288-0.586,0.661-1.021,1.119-1.306
			c0.459-0.284,0.955-0.427,1.488-0.427c0.681,0,1.224,0.211,1.63,0.634s0.61,0.999,0.61,1.729c0,0.279-0.025,0.565-0.076,0.859
			h-4.199c-0.015,0.111-0.021,0.211-0.021,0.301c0,0.533,0.122,0.94,0.367,1.222s0.545,0.422,0.9,0.422
			c0.332,0,0.66-0.109,0.982-0.328C76.124,27.987,76.375,27.672,76.554,27.26z M73.729,25.848h3.201
			c0.004-0.101,0.005-0.172,0.005-0.215c0-0.487-0.121-0.86-0.365-1.12c-0.243-0.26-0.557-0.39-0.939-0.39
			c-0.415,0-0.794,0.144-1.136,0.43C74.152,24.84,73.897,25.271,73.729,25.848z"/>
		<path style="fill:#2C6882;" d="M81.06,31.385l1.649-7.89h0.897L83.44,24.29c0.333-0.348,0.631-0.588,0.895-0.723
			c0.263-0.134,0.541-0.201,0.835-0.201c0.544,0,0.995,0.198,1.354,0.594s0.537,0.962,0.537,1.7c0,0.594-0.099,1.136-0.295,1.624
			c-0.197,0.489-0.439,0.882-0.726,1.179c-0.286,0.298-0.576,0.516-0.87,0.656c-0.294,0.139-0.595,0.209-0.902,0.209
			c-0.684,0-1.214-0.348-1.59-1.042l-0.645,3.099H81.06z M82.983,26.868c0,0.426,0.03,0.722,0.091,0.886
			c0.09,0.233,0.236,0.421,0.44,0.564s0.44,0.215,0.709,0.215c0.559,0,1.01-0.314,1.354-0.942c0.344-0.629,0.516-1.271,0.516-1.926
			c0-0.483-0.115-0.856-0.347-1.12c-0.23-0.263-0.519-0.395-0.862-0.395c-0.246,0-0.476,0.065-0.688,0.196
			c-0.211,0.131-0.407,0.325-0.588,0.585s-0.33,0.578-0.448,0.953C83.042,26.262,82.983,26.589,82.983,26.868z"/>
		<path style="fill:#2C6882;" d="M87.655,29.199l1.192-5.704h0.859l-0.241,1.165c0.293-0.439,0.58-0.766,0.861-0.977
			c0.281-0.212,0.568-0.317,0.862-0.317c0.193,0,0.432,0.069,0.714,0.21l-0.396,0.902c-0.169-0.122-0.354-0.184-0.554-0.184
			c-0.34,0-0.689,0.19-1.048,0.57c-0.357,0.379-0.639,1.062-0.843,2.046l-0.483,2.288H87.655z"/>
		<path style="fill:#2C6882;" d="M91.491,27.035c0-1.114,0.328-2.036,0.982-2.767c0.541-0.602,1.25-0.902,2.127-0.902
			c0.688,0,1.242,0.215,1.663,0.645s0.631,1.01,0.631,1.74c0,0.655-0.133,1.265-0.397,1.829c-0.265,0.563-0.642,0.996-1.131,1.297
			c-0.488,0.301-1.003,0.451-1.544,0.451c-0.444,0-0.848-0.095-1.211-0.285c-0.363-0.189-0.642-0.458-0.833-0.805
			C91.587,27.891,91.491,27.489,91.491,27.035z M92.464,26.937c0,0.537,0.129,0.945,0.387,1.223s0.585,0.416,0.982,0.416
			c0.208,0,0.414-0.042,0.617-0.126c0.205-0.084,0.395-0.212,0.57-0.384c0.175-0.172,0.324-0.368,0.448-0.589
			c0.123-0.22,0.223-0.457,0.298-0.712c0.111-0.354,0.166-0.694,0.166-1.02c0-0.516-0.129-0.916-0.389-1.201
			c-0.26-0.284-0.587-0.427-0.98-0.427c-0.305,0-0.582,0.072-0.832,0.218c-0.251,0.145-0.478,0.357-0.68,0.637
			s-0.352,0.604-0.446,0.975C92.511,26.317,92.464,26.648,92.464,26.937z"/>
		<path style="fill:#2C6882;" d="M101.374,27.121l0.972,0.102c-0.243,0.713-0.59,1.241-1.039,1.587s-0.961,0.519-1.534,0.519
			c-0.619,0-1.121-0.2-1.506-0.602s-0.578-0.961-0.578-1.682c0-0.623,0.124-1.234,0.371-1.836s0.601-1.06,1.061-1.373
			s0.986-0.47,1.576-0.47c0.613,0,1.098,0.173,1.456,0.519s0.537,0.803,0.537,1.372l-0.956,0.064
			c-0.004-0.361-0.108-0.645-0.314-0.849s-0.477-0.307-0.813-0.307c-0.391,0-0.729,0.124-1.015,0.371
			c-0.287,0.247-0.512,0.622-0.675,1.125s-0.244,0.987-0.244,1.453c0,0.487,0.107,0.853,0.322,1.096s0.479,0.365,0.795,0.365
			s0.617-0.12,0.905-0.359C100.983,27.977,101.209,27.611,101.374,27.121z"/>
		<path style="fill:#2C6882;" d="M107.126,27.26l0.945,0.098c-0.136,0.469-0.448,0.914-0.938,1.337
			c-0.488,0.423-1.071,0.634-1.748,0.634c-0.423,0-0.811-0.098-1.163-0.293s-0.621-0.479-0.806-0.852
			c-0.185-0.372-0.276-0.796-0.276-1.272c0-0.623,0.145-1.228,0.433-1.813c0.288-0.586,0.661-1.021,1.119-1.306
			c0.459-0.284,0.955-0.427,1.488-0.427c0.681,0,1.224,0.211,1.63,0.634s0.61,0.999,0.61,1.729c0,0.279-0.025,0.565-0.076,0.859
			h-4.199c-0.015,0.111-0.021,0.211-0.021,0.301c0,0.533,0.122,0.94,0.367,1.222s0.545,0.422,0.9,0.422
			c0.332,0,0.66-0.109,0.982-0.328C106.696,27.987,106.947,27.672,107.126,27.26z M104.301,25.848h3.201
			c0.004-0.101,0.005-0.172,0.005-0.215c0-0.487-0.121-0.86-0.365-1.12c-0.243-0.26-0.557-0.39-0.939-0.39
			c-0.415,0-0.794,0.144-1.136,0.43C104.725,24.84,104.469,25.271,104.301,25.848z"/>
		<path style="fill:#2C6882;" d="M109.146,27.25l0.972-0.06c0,0.279,0.043,0.518,0.129,0.714c0.086,0.197,0.244,0.358,0.476,0.484
			c0.23,0.125,0.5,0.188,0.809,0.188c0.43,0,0.752-0.086,0.967-0.258s0.322-0.374,0.322-0.607c0-0.168-0.064-0.327-0.193-0.478
			c-0.133-0.15-0.456-0.336-0.97-0.556c-0.514-0.221-0.843-0.375-0.985-0.465c-0.24-0.146-0.421-0.319-0.543-0.519
			c-0.122-0.198-0.183-0.427-0.183-0.685c0-0.451,0.179-0.838,0.537-1.16s0.859-0.483,1.504-0.483c0.716,0,1.262,0.166,1.636,0.497
			s0.568,0.767,0.582,1.308l-0.95,0.064c-0.015-0.344-0.136-0.616-0.365-0.816s-0.554-0.301-0.972-0.301
			c-0.337,0-0.599,0.077-0.785,0.231c-0.186,0.153-0.279,0.32-0.279,0.499s0.081,0.337,0.242,0.473
			c0.107,0.093,0.385,0.236,0.832,0.43c0.745,0.322,1.215,0.576,1.408,0.763c0.308,0.297,0.461,0.659,0.461,1.085
			c0,0.283-0.086,0.561-0.26,0.833c-0.174,0.271-0.438,0.489-0.795,0.652s-0.776,0.244-1.26,0.244c-0.659,0-1.219-0.163-1.682-0.488
			C109.339,28.514,109.12,27.983,109.146,27.25z"/>
		<path style="fill:#2C6882;" d="M114.726,27.035c0-1.114,0.328-2.036,0.982-2.767c0.541-0.602,1.25-0.902,2.127-0.902
			c0.688,0,1.242,0.215,1.663,0.645s0.631,1.01,0.631,1.74c0,0.655-0.133,1.265-0.397,1.829c-0.265,0.563-0.642,0.996-1.131,1.297
			c-0.488,0.301-1.003,0.451-1.544,0.451c-0.444,0-0.848-0.095-1.211-0.285c-0.363-0.189-0.642-0.458-0.833-0.805
			C114.821,27.891,114.726,27.489,114.726,27.035z M115.698,26.937c0,0.537,0.129,0.945,0.387,1.223s0.585,0.416,0.982,0.416
			c0.208,0,0.414-0.042,0.617-0.126c0.205-0.084,0.395-0.212,0.57-0.384c0.175-0.172,0.324-0.368,0.448-0.589
			c0.123-0.22,0.223-0.457,0.298-0.712c0.111-0.354,0.166-0.694,0.166-1.02c0-0.516-0.129-0.916-0.389-1.201
			c-0.26-0.284-0.587-0.427-0.98-0.427c-0.305,0-0.582,0.072-0.832,0.218c-0.251,0.145-0.478,0.357-0.68,0.637
			s-0.352,0.604-0.446,0.975C115.745,26.317,115.698,26.648,115.698,26.937z"/>
		<path style="fill:#2C6882;" d="M120.764,27.25l0.972-0.06c0,0.279,0.043,0.518,0.129,0.714c0.086,0.197,0.244,0.358,0.476,0.484
			c0.23,0.125,0.5,0.188,0.809,0.188c0.43,0,0.752-0.086,0.967-0.258s0.322-0.374,0.322-0.607c0-0.168-0.064-0.327-0.193-0.478
			c-0.133-0.15-0.456-0.336-0.97-0.556c-0.514-0.221-0.843-0.375-0.985-0.465c-0.24-0.146-0.421-0.319-0.543-0.519
			c-0.122-0.198-0.183-0.427-0.183-0.685c0-0.451,0.179-0.838,0.537-1.16s0.859-0.483,1.504-0.483c0.716,0,1.262,0.166,1.636,0.497
			s0.568,0.767,0.582,1.308l-0.95,0.064c-0.015-0.344-0.136-0.616-0.365-0.816s-0.554-0.301-0.972-0.301
			c-0.337,0-0.599,0.077-0.785,0.231c-0.186,0.153-0.279,0.32-0.279,0.499s0.081,0.337,0.242,0.473
			c0.107,0.093,0.385,0.236,0.832,0.43c0.745,0.322,1.215,0.576,1.408,0.763c0.308,0.297,0.461,0.659,0.461,1.085
			c0,0.283-0.086,0.561-0.26,0.833c-0.174,0.271-0.438,0.489-0.795,0.652s-0.776,0.244-1.26,0.244c-0.659,0-1.219-0.163-1.682-0.488
			C120.957,28.514,120.738,27.983,120.764,27.25z"/>
	</g>
</g>
</svg>
