<?xml version="1.0" encoding="utf-8"?>
<!-- Generator: Adobe Illustrator 17.0.0, SVG Export Plug-In . SVG Version: 6.00 Build 0)  -->
<!DOCTYPE svg PUBLIC "-//W3C//DTD SVG 1.1//EN" "http://www.w3.org/Graphics/SVG/1.1/DTD/svg11.dtd">
<svg version="1.1" id="Capa_1" xmlns="http://www.w3.org/2000/svg" xmlns:xlink="http://www.w3.org/1999/xlink" x="0px" y="0px"
	 width="149.411px" height="50.535px" viewBox="0 0 149.411 50.535" style="enable-background:new 0 0 149.411 50.535;"
	 xml:space="preserve">
<polygon style="fill:#6FC2D8;stroke:#000000;stroke-width:0.75;stroke-miterlimit:10;" points="0.814,0.375 127.565,0.375 
	148.921,25.269 128.303,50.16 1.547,50.16 22.174,25.336 "/>
<g>
	<g>
		<path style="fill:#2C6882;" d="M32.476,29.199l1.643-7.874h1.295l0.795,5.103c0.104,0.67,0.172,1.313,0.203,1.928
			c0.219-0.529,0.584-1.247,1.096-2.153l2.762-4.877h1.316l-1.645,7.874h-1.037l0.822-3.83c0.189-0.884,0.463-1.876,0.816-2.975
			c-0.225,0.512-0.504,1.063-0.838,1.654l-2.932,5.15h-1.016l-0.789-5.049c-0.072-0.462-0.125-1.001-0.156-1.617
			c-0.09,0.691-0.178,1.239-0.264,1.645l-1.047,5.021H32.476z"/>
		<path style="fill:#2C6882;" d="M41.693,27.035c0-1.114,0.328-2.036,0.982-2.767c0.541-0.602,1.25-0.902,2.127-0.902
			c0.688,0,1.242,0.215,1.662,0.645c0.422,0.43,0.631,1.01,0.631,1.74c0,0.655-0.133,1.265-0.396,1.829
			c-0.266,0.563-0.643,0.996-1.131,1.297s-1.004,0.451-1.545,0.451c-0.443,0-0.848-0.095-1.211-0.285
			c-0.363-0.189-0.641-0.458-0.832-0.805C41.789,27.891,41.693,27.489,41.693,27.035z M42.666,26.937
			c0,0.537,0.129,0.945,0.387,1.223s0.584,0.416,0.982,0.416c0.207,0,0.414-0.042,0.617-0.126c0.205-0.084,0.395-0.212,0.57-0.384
			c0.174-0.172,0.324-0.368,0.447-0.589c0.123-0.22,0.223-0.457,0.299-0.712c0.111-0.354,0.166-0.694,0.166-1.02
			c0-0.516-0.129-0.916-0.389-1.201c-0.26-0.284-0.588-0.427-0.98-0.427c-0.305,0-0.582,0.072-0.832,0.218
			c-0.252,0.145-0.479,0.357-0.68,0.637c-0.203,0.279-0.352,0.604-0.447,0.975C42.712,26.317,42.666,26.648,42.666,26.937z"/>
		<path style="fill:#2C6882;" d="M51.484,28.372c-0.555,0.638-1.135,0.956-1.74,0.956c-0.541,0-0.992-0.199-1.352-0.599
			s-0.539-0.979-0.539-1.737c0-0.695,0.143-1.33,0.426-1.904c0.285-0.575,0.643-1.006,1.07-1.292s0.855-0.43,1.285-0.43
			c0.709,0,1.244,0.342,1.607,1.026l0.645-3.067h0.967l-1.645,7.874h-0.896L51.484,28.372z M48.82,26.809
			c0,0.398,0.039,0.711,0.117,0.94c0.08,0.229,0.213,0.42,0.404,0.572c0.189,0.152,0.416,0.228,0.682,0.228
			c0.439,0,0.84-0.229,1.197-0.688c0.48-0.608,0.721-1.36,0.721-2.256c0-0.451-0.119-0.804-0.355-1.058s-0.533-0.382-0.891-0.382
			c-0.234,0-0.445,0.053-0.637,0.156s-0.383,0.28-0.57,0.529s-0.346,0.564-0.475,0.947C48.884,26.183,48.82,26.52,48.82,26.809z"/>
		<path style="fill:#2C6882;" d="M57.945,27.26l0.945,0.098c-0.135,0.469-0.447,0.914-0.938,1.337
			c-0.488,0.423-1.07,0.634-1.748,0.634c-0.422,0-0.811-0.098-1.162-0.293c-0.354-0.195-0.621-0.479-0.807-0.852
			c-0.184-0.372-0.275-0.796-0.275-1.272c0-0.623,0.145-1.228,0.432-1.813c0.289-0.586,0.662-1.021,1.119-1.306
			c0.459-0.284,0.955-0.427,1.488-0.427c0.682,0,1.225,0.211,1.631,0.634s0.609,0.999,0.609,1.729c0,0.279-0.025,0.565-0.076,0.859
			h-4.199c-0.014,0.111-0.021,0.211-0.021,0.301c0,0.533,0.123,0.94,0.367,1.222c0.246,0.281,0.545,0.422,0.9,0.422
			c0.332,0,0.66-0.109,0.982-0.328C57.515,27.987,57.767,27.672,57.945,27.26z M55.121,25.848h3.201
			c0.004-0.101,0.004-0.172,0.004-0.215c0-0.487-0.121-0.86-0.365-1.12c-0.242-0.26-0.557-0.39-0.939-0.39
			c-0.414,0-0.793,0.144-1.135,0.43C55.544,24.84,55.289,25.271,55.121,25.848z"/>
		<path style="fill:#2C6882;" d="M59.798,29.199l1.645-7.874h0.973l-1.645,7.874H59.798z"/>
		<path style="fill:#2C6882;" d="M62.49,27.035c0-1.114,0.328-2.036,0.982-2.767c0.541-0.602,1.25-0.902,2.127-0.902
			c0.688,0,1.242,0.215,1.662,0.645c0.422,0.43,0.631,1.01,0.631,1.74c0,0.655-0.133,1.265-0.396,1.829
			c-0.266,0.563-0.643,0.996-1.131,1.297s-1.004,0.451-1.545,0.451c-0.443,0-0.848-0.095-1.211-0.285
			c-0.363-0.189-0.641-0.458-0.832-0.805C62.585,27.891,62.49,27.489,62.49,27.035z M63.462,26.937c0,0.537,0.129,0.945,0.387,1.223
			s0.584,0.416,0.982,0.416c0.207,0,0.414-0.042,0.617-0.126c0.205-0.084,0.395-0.212,0.57-0.384
			c0.174-0.172,0.324-0.368,0.447-0.589c0.123-0.22,0.223-0.457,0.299-0.712c0.111-0.354,0.166-0.694,0.166-1.02
			c0-0.516-0.129-0.916-0.389-1.201c-0.26-0.284-0.588-0.427-0.98-0.427c-0.305,0-0.582,0.072-0.832,0.218
			c-0.252,0.145-0.479,0.357-0.68,0.637c-0.203,0.279-0.352,0.604-0.447,0.975C63.509,26.317,63.462,26.648,63.462,26.937z"/>
		<path style="fill:#2C6882;" d="M75.337,28.372c-0.555,0.638-1.135,0.956-1.74,0.956c-0.541,0-0.992-0.199-1.352-0.599
			s-0.539-0.979-0.539-1.737c0-0.695,0.143-1.33,0.426-1.904c0.285-0.575,0.643-1.006,1.07-1.292s0.855-0.43,1.285-0.43
			c0.709,0,1.244,0.342,1.607,1.026l0.645-3.067h0.967l-1.645,7.874h-0.896L75.337,28.372z M72.673,26.809
			c0,0.398,0.039,0.711,0.117,0.94c0.08,0.229,0.213,0.42,0.404,0.572c0.189,0.152,0.416,0.228,0.682,0.228
			c0.439,0,0.84-0.229,1.197-0.688c0.48-0.608,0.721-1.36,0.721-2.256c0-0.451-0.119-0.804-0.355-1.058s-0.533-0.382-0.891-0.382
			c-0.234,0-0.445,0.053-0.637,0.156s-0.383,0.28-0.57,0.529s-0.346,0.564-0.475,0.947C72.738,26.183,72.673,26.52,72.673,26.809z"
			/>
		<path style="fill:#2C6882;" d="M81.798,27.26l0.945,0.098c-0.137,0.469-0.449,0.914-0.938,1.337s-1.072,0.634-1.748,0.634
			c-0.424,0-0.811-0.098-1.164-0.293c-0.352-0.195-0.621-0.479-0.805-0.852c-0.186-0.372-0.277-0.796-0.277-1.272
			c0-0.623,0.145-1.228,0.434-1.813c0.287-0.586,0.66-1.021,1.119-1.306c0.459-0.284,0.955-0.427,1.488-0.427
			c0.68,0,1.223,0.211,1.629,0.634s0.611,0.999,0.611,1.729c0,0.279-0.025,0.565-0.076,0.859h-4.199
			c-0.016,0.111-0.021,0.211-0.021,0.301c0,0.533,0.121,0.94,0.367,1.222c0.244,0.281,0.545,0.422,0.9,0.422
			c0.332,0,0.66-0.109,0.982-0.328C81.369,27.987,81.619,27.672,81.798,27.26z M78.972,25.848h3.201
			c0.004-0.101,0.006-0.172,0.006-0.215c0-0.487-0.121-0.86-0.365-1.12s-0.557-0.39-0.939-0.39c-0.416,0-0.795,0.144-1.137,0.43
			C79.396,24.84,79.14,25.271,78.972,25.848z"/>
		<path style="fill:#2C6882;" d="M86.304,31.385l1.648-7.89h0.898l-0.168,0.795c0.334-0.348,0.631-0.588,0.895-0.723
			c0.264-0.134,0.541-0.201,0.836-0.201c0.543,0,0.994,0.198,1.354,0.594c0.357,0.396,0.537,0.962,0.537,1.7
			c0,0.594-0.1,1.136-0.295,1.624c-0.197,0.489-0.439,0.882-0.727,1.179c-0.285,0.298-0.576,0.516-0.869,0.656
			c-0.295,0.139-0.596,0.209-0.902,0.209c-0.684,0-1.215-0.348-1.59-1.042l-0.645,3.099H86.304z M88.228,26.868
			c0,0.426,0.029,0.722,0.09,0.886c0.09,0.233,0.236,0.421,0.441,0.564c0.203,0.144,0.439,0.215,0.709,0.215
			c0.559,0,1.01-0.314,1.354-0.942c0.344-0.629,0.516-1.271,0.516-1.926c0-0.483-0.115-0.856-0.348-1.12
			c-0.23-0.263-0.518-0.395-0.861-0.395c-0.246,0-0.477,0.065-0.688,0.196s-0.408,0.325-0.588,0.585
			c-0.182,0.26-0.33,0.578-0.449,0.953C88.287,26.262,88.228,26.589,88.228,26.868z"/>
		<path style="fill:#2C6882;" d="M92.9,29.199l1.193-5.704h0.859L94.71,24.66c0.293-0.439,0.58-0.766,0.861-0.977
			c0.281-0.212,0.568-0.317,0.863-0.317c0.193,0,0.432,0.069,0.713,0.21l-0.396,0.902c-0.168-0.122-0.354-0.184-0.553-0.184
			c-0.34,0-0.689,0.19-1.049,0.57c-0.357,0.379-0.639,1.062-0.842,2.046l-0.484,2.288H92.9z"/>
		<path style="fill:#2C6882;" d="M96.736,27.035c0-1.114,0.328-2.036,0.982-2.767c0.541-0.602,1.25-0.902,2.127-0.902
			c0.688,0,1.242,0.215,1.662,0.645c0.422,0.43,0.631,1.01,0.631,1.74c0,0.655-0.133,1.265-0.396,1.829
			c-0.266,0.563-0.643,0.996-1.131,1.297s-1.004,0.451-1.545,0.451c-0.443,0-0.848-0.095-1.211-0.285
			c-0.363-0.189-0.641-0.458-0.832-0.805C96.832,27.891,96.736,27.489,96.736,27.035z M97.709,26.937
			c0,0.537,0.129,0.945,0.387,1.223s0.584,0.416,0.982,0.416c0.207,0,0.414-0.042,0.617-0.126c0.205-0.084,0.395-0.212,0.57-0.384
			c0.174-0.172,0.324-0.368,0.447-0.589c0.123-0.22,0.223-0.457,0.299-0.712c0.111-0.354,0.166-0.694,0.166-1.02
			c0-0.516-0.129-0.916-0.389-1.201c-0.26-0.284-0.588-0.427-0.98-0.427c-0.305,0-0.582,0.072-0.832,0.218
			c-0.252,0.145-0.479,0.357-0.68,0.637c-0.203,0.279-0.352,0.604-0.447,0.975C97.755,26.317,97.709,26.648,97.709,26.937z"/>
		<path style="fill:#2C6882;" d="M106.619,27.121l0.971,0.102c-0.242,0.713-0.59,1.241-1.039,1.587s-0.961,0.519-1.533,0.519
			c-0.619,0-1.121-0.2-1.506-0.602s-0.578-0.961-0.578-1.682c0-0.623,0.123-1.234,0.371-1.836c0.246-0.602,0.6-1.06,1.061-1.373
			c0.459-0.313,0.986-0.47,1.576-0.47c0.613,0,1.098,0.173,1.455,0.519c0.359,0.346,0.537,0.803,0.537,1.372l-0.955,0.064
			c-0.004-0.361-0.109-0.645-0.314-0.849c-0.207-0.204-0.477-0.307-0.814-0.307c-0.391,0-0.729,0.124-1.014,0.371
			c-0.287,0.247-0.512,0.622-0.676,1.125c-0.162,0.503-0.244,0.987-0.244,1.453c0,0.487,0.107,0.853,0.322,1.096
			s0.48,0.365,0.795,0.365c0.316,0,0.617-0.12,0.906-0.359C106.226,27.977,106.453,27.611,106.619,27.121z"/>
		<path style="fill:#2C6882;" d="M112.371,27.26l0.945,0.098c-0.137,0.469-0.449,0.914-0.938,1.337s-1.072,0.634-1.748,0.634
			c-0.424,0-0.811-0.098-1.164-0.293c-0.352-0.195-0.621-0.479-0.805-0.852c-0.186-0.372-0.277-0.796-0.277-1.272
			c0-0.623,0.145-1.228,0.434-1.813c0.287-0.586,0.66-1.021,1.119-1.306c0.459-0.284,0.955-0.427,1.488-0.427
			c0.68,0,1.223,0.211,1.629,0.634s0.611,0.999,0.611,1.729c0,0.279-0.025,0.565-0.076,0.859h-4.199
			c-0.016,0.111-0.021,0.211-0.021,0.301c0,0.533,0.121,0.94,0.367,1.222c0.244,0.281,0.545,0.422,0.9,0.422
			c0.332,0,0.66-0.109,0.982-0.328C111.941,27.987,112.191,27.672,112.371,27.26z M109.544,25.848h3.201
			c0.004-0.101,0.006-0.172,0.006-0.215c0-0.487-0.121-0.86-0.365-1.12s-0.557-0.39-0.939-0.39c-0.416,0-0.795,0.144-1.137,0.43
			C109.968,24.84,109.712,25.271,109.544,25.848z"/>
		<path style="fill:#2C6882;" d="M114.39,27.25l0.973-0.06c0,0.279,0.043,0.518,0.129,0.714c0.086,0.197,0.244,0.358,0.475,0.484
			c0.23,0.125,0.5,0.188,0.809,0.188c0.43,0,0.752-0.086,0.967-0.258s0.322-0.374,0.322-0.607c0-0.168-0.064-0.327-0.193-0.478
			c-0.133-0.15-0.455-0.336-0.969-0.556c-0.514-0.221-0.844-0.375-0.986-0.465c-0.24-0.146-0.42-0.319-0.543-0.519
			c-0.121-0.198-0.182-0.427-0.182-0.685c0-0.451,0.178-0.838,0.537-1.16c0.357-0.322,0.859-0.483,1.504-0.483
			c0.715,0,1.262,0.166,1.635,0.497c0.375,0.331,0.568,0.767,0.582,1.308l-0.949,0.064c-0.016-0.344-0.137-0.616-0.365-0.816
			c-0.23-0.2-0.555-0.301-0.973-0.301c-0.336,0-0.598,0.077-0.785,0.231c-0.186,0.153-0.279,0.32-0.279,0.499
			s0.082,0.337,0.242,0.473c0.107,0.093,0.385,0.236,0.832,0.43c0.746,0.322,1.215,0.576,1.408,0.763
			c0.309,0.297,0.461,0.659,0.461,1.085c0,0.283-0.086,0.561-0.26,0.833c-0.174,0.271-0.438,0.489-0.795,0.652
			c-0.355,0.163-0.775,0.244-1.26,0.244c-0.658,0-1.219-0.163-1.682-0.488C114.584,28.514,114.365,27.983,114.39,27.25z"/>
		<path style="fill:#2C6882;" d="M119.97,27.035c0-1.114,0.328-2.036,0.982-2.767c0.541-0.602,1.25-0.902,2.127-0.902
			c0.688,0,1.242,0.215,1.664,0.645c0.42,0.43,0.631,1.01,0.631,1.74c0,0.655-0.133,1.265-0.398,1.829
			c-0.264,0.563-0.641,0.996-1.131,1.297c-0.488,0.301-1.002,0.451-1.543,0.451c-0.445,0-0.848-0.095-1.211-0.285
			c-0.363-0.189-0.643-0.458-0.834-0.805C120.066,27.891,119.97,27.489,119.97,27.035z M120.943,26.937
			c0,0.537,0.129,0.945,0.387,1.223s0.586,0.416,0.982,0.416c0.209,0,0.414-0.042,0.617-0.126c0.205-0.084,0.395-0.212,0.57-0.384
			s0.324-0.368,0.449-0.589c0.123-0.22,0.223-0.457,0.297-0.712c0.111-0.354,0.166-0.694,0.166-1.02
			c0-0.516-0.129-0.916-0.389-1.201c-0.26-0.284-0.586-0.427-0.98-0.427c-0.305,0-0.582,0.072-0.832,0.218
			c-0.25,0.145-0.477,0.357-0.68,0.637c-0.201,0.279-0.352,0.604-0.445,0.975C120.99,26.317,120.943,26.648,120.943,26.937z"/>
		<path style="fill:#2C6882;" d="M126.009,27.25l0.971-0.06c0,0.279,0.043,0.518,0.129,0.714c0.086,0.197,0.244,0.358,0.477,0.484
			c0.23,0.125,0.5,0.188,0.809,0.188c0.43,0,0.752-0.086,0.967-0.258s0.322-0.374,0.322-0.607c0-0.168-0.064-0.327-0.193-0.478
			c-0.133-0.15-0.457-0.336-0.971-0.556c-0.514-0.221-0.842-0.375-0.984-0.465c-0.24-0.146-0.422-0.319-0.543-0.519
			c-0.123-0.198-0.184-0.427-0.184-0.685c0-0.451,0.18-0.838,0.537-1.16c0.359-0.322,0.859-0.483,1.504-0.483
			c0.717,0,1.262,0.166,1.637,0.497c0.373,0.331,0.568,0.767,0.582,1.308l-0.951,0.064c-0.014-0.344-0.135-0.616-0.365-0.816
			c-0.229-0.2-0.553-0.301-0.971-0.301c-0.338,0-0.6,0.077-0.785,0.231c-0.186,0.153-0.279,0.32-0.279,0.499s0.08,0.337,0.242,0.473
			c0.107,0.093,0.385,0.236,0.832,0.43c0.744,0.322,1.215,0.576,1.408,0.763c0.307,0.297,0.461,0.659,0.461,1.085
			c0,0.283-0.086,0.561-0.26,0.833c-0.174,0.271-0.439,0.489-0.795,0.652c-0.357,0.163-0.777,0.244-1.26,0.244
			c-0.66,0-1.219-0.163-1.682-0.488C126.203,28.514,125.984,27.983,126.009,27.25z"/>
	</g>
</g>
</svg>
