<?xml version="1.0" encoding="utf-8"?>
<!-- Generator: Adobe Illustrator 17.0.0, SVG Export Plug-In . SVG Version: 6.00 Build 0)  -->
<!DOCTYPE svg PUBLIC "-//W3C//DTD SVG 1.1//EN" "http://www.w3.org/Graphics/SVG/1.1/DTD/svg11.dtd">
<svg version="1.1" id="Capa_1" xmlns="http://www.w3.org/2000/svg" xmlns:xlink="http://www.w3.org/1999/xlink" x="0px" y="0px"
	 width="149.411px" height="50.535px" viewBox="0 0 149.411 50.535" style="enable-background:new 0 0 149.411 50.535;"
	 xml:space="preserve">
<polygon style="fill:#6FC2D8;stroke:#000000;stroke-width:0.75;stroke-miterlimit:10;" points="0.815,0.375 127.565,0.375 
	148.921,25.269 128.307,50.16 1.548,50.16 22.176,25.336 "/>
<g>
	<g>
		<path style="fill:#2C6882;" d="M43.63,28.377l1.644-7.874h1.295l0.795,5.103c0.104,0.67,0.172,1.313,0.203,1.928
			c0.219-0.529,0.584-1.247,1.096-2.153l2.762-4.877h1.315l-1.644,7.874h-1.037l0.822-3.83c0.189-0.884,0.462-1.876,0.816-2.975
			c-0.226,0.512-0.505,1.063-0.838,1.654l-2.933,5.15h-1.015l-0.79-5.049c-0.071-0.462-0.124-1.001-0.155-1.617
			c-0.09,0.691-0.178,1.239-0.264,1.645l-1.047,5.021H43.63z"/>
		<path style="fill:#2C6882;" d="M52.847,26.213c0-1.114,0.328-2.036,0.982-2.767c0.541-0.602,1.25-0.902,2.127-0.902
			c0.688,0,1.242,0.215,1.663,0.645s0.631,1.01,0.631,1.74c0,0.655-0.133,1.265-0.397,1.829c-0.265,0.563-0.642,0.996-1.131,1.297
			c-0.488,0.301-1.003,0.451-1.544,0.451c-0.444,0-0.848-0.095-1.211-0.285c-0.363-0.189-0.642-0.458-0.833-0.805
			C52.942,27.068,52.847,26.667,52.847,26.213z M53.819,26.115c0,0.537,0.129,0.945,0.387,1.223s0.585,0.416,0.982,0.416
			c0.208,0,0.414-0.042,0.617-0.126c0.205-0.084,0.395-0.212,0.57-0.384c0.175-0.172,0.324-0.368,0.448-0.589
			c0.123-0.22,0.223-0.457,0.298-0.712c0.111-0.354,0.166-0.694,0.166-1.02c0-0.516-0.129-0.916-0.389-1.201
			c-0.26-0.284-0.587-0.427-0.98-0.427c-0.305,0-0.582,0.072-0.832,0.218c-0.251,0.145-0.478,0.357-0.68,0.637
			s-0.352,0.604-0.446,0.975C53.866,25.495,53.819,25.826,53.819,26.115z"/>
		<path style="fill:#2C6882;" d="M62.638,27.55c-0.555,0.638-1.135,0.956-1.74,0.956c-0.541,0-0.991-0.199-1.351-0.599
			c-0.36-0.399-0.54-0.979-0.54-1.737c0-0.695,0.143-1.33,0.427-1.904c0.285-0.575,0.642-1.006,1.069-1.292s0.856-0.43,1.286-0.43
			c0.709,0,1.244,0.342,1.606,1.026l0.645-3.067h0.967l-1.645,7.874h-0.896L62.638,27.55z M59.974,25.986
			c0,0.398,0.039,0.711,0.118,0.94s0.213,0.42,0.403,0.572c0.189,0.152,0.417,0.228,0.682,0.228c0.44,0,0.84-0.229,1.197-0.688
			c0.48-0.608,0.721-1.36,0.721-2.256c0-0.451-0.119-0.804-0.355-1.058s-0.533-0.382-0.891-0.382c-0.233,0-0.445,0.053-0.637,0.156
			s-0.382,0.28-0.569,0.529c-0.188,0.249-0.347,0.564-0.476,0.947C60.038,25.36,59.974,25.697,59.974,25.986z"/>
		<path style="fill:#2C6882;" d="M69.1,26.437l0.945,0.098c-0.136,0.469-0.448,0.914-0.938,1.337
			c-0.488,0.423-1.071,0.634-1.748,0.634c-0.423,0-0.811-0.098-1.163-0.293s-0.621-0.479-0.806-0.852
			c-0.185-0.372-0.276-0.796-0.276-1.272c0-0.623,0.145-1.228,0.433-1.813c0.288-0.586,0.661-1.021,1.119-1.306
			c0.459-0.284,0.955-0.427,1.488-0.427c0.681,0,1.224,0.211,1.63,0.634s0.61,0.999,0.61,1.729c0,0.279-0.025,0.565-0.076,0.859
			h-4.199c-0.015,0.111-0.021,0.211-0.021,0.301c0,0.533,0.122,0.94,0.367,1.222s0.545,0.422,0.9,0.422
			c0.332,0,0.66-0.109,0.982-0.328C68.67,27.165,68.921,26.85,69.1,26.437z M66.274,25.025h3.201
			c0.004-0.101,0.005-0.172,0.005-0.215c0-0.487-0.121-0.86-0.365-1.12c-0.243-0.26-0.557-0.39-0.939-0.39
			c-0.415,0-0.794,0.144-1.136,0.43C66.698,24.018,66.442,24.449,66.274,25.025z"/>
		<path style="fill:#2C6882;" d="M70.953,28.377l1.644-7.874h0.973l-1.645,7.874H70.953z"/>
		<path style="fill:#2C6882;" d="M73.644,26.213c0-1.114,0.328-2.036,0.982-2.767c0.541-0.602,1.25-0.902,2.127-0.902
			c0.688,0,1.242,0.215,1.663,0.645s0.631,1.01,0.631,1.74c0,0.655-0.133,1.265-0.397,1.829c-0.265,0.563-0.642,0.996-1.131,1.297
			c-0.488,0.301-1.003,0.451-1.544,0.451c-0.444,0-0.848-0.095-1.211-0.285c-0.363-0.189-0.642-0.458-0.833-0.805
			C73.739,27.068,73.644,26.667,73.644,26.213z M74.616,26.115c0,0.537,0.129,0.945,0.387,1.223s0.585,0.416,0.982,0.416
			c0.208,0,0.414-0.042,0.617-0.126c0.205-0.084,0.395-0.212,0.57-0.384c0.175-0.172,0.324-0.368,0.448-0.589
			c0.123-0.22,0.223-0.457,0.298-0.712c0.111-0.354,0.166-0.694,0.166-1.02c0-0.516-0.129-0.916-0.389-1.201
			c-0.26-0.284-0.587-0.427-0.98-0.427c-0.305,0-0.582,0.072-0.832,0.218c-0.251,0.145-0.478,0.357-0.68,0.637
			s-0.352,0.604-0.446,0.975C74.663,25.495,74.616,25.826,74.616,26.115z"/>
		<path style="fill:#2C6882;" d="M86.491,27.668c-0.337,0.29-0.66,0.502-0.973,0.637c-0.311,0.134-0.645,0.201-0.998,0.201
			c-0.527,0-0.951-0.155-1.273-0.465s-0.483-0.706-0.483-1.189c0-0.318,0.072-0.601,0.218-0.846
			c0.145-0.245,0.337-0.442,0.577-0.591s0.533-0.255,0.881-0.319c0.219-0.043,0.633-0.077,1.243-0.103s1.049-0.09,1.313-0.193
			c0.075-0.265,0.112-0.485,0.112-0.661c0-0.225-0.082-0.402-0.246-0.531c-0.227-0.179-0.556-0.269-0.988-0.269
			c-0.408,0-0.742,0.091-1.002,0.271s-0.449,0.438-0.566,0.771l-0.983-0.086c0.2-0.565,0.519-0.999,0.953-1.3
			c0.436-0.301,0.984-0.451,1.646-0.451c0.705,0,1.264,0.168,1.676,0.505c0.315,0.251,0.473,0.576,0.473,0.978
			c0,0.305-0.045,0.657-0.134,1.058l-0.317,1.418c-0.101,0.451-0.15,0.818-0.15,1.102c0,0.179,0.039,0.437,0.118,0.773h-0.982
			C86.55,28.19,86.513,27.954,86.491,27.668z M86.851,25.487c-0.136,0.054-0.281,0.095-0.438,0.124
			c-0.155,0.028-0.416,0.059-0.781,0.091c-0.565,0.05-0.965,0.113-1.197,0.19c-0.233,0.077-0.408,0.2-0.527,0.368
			c-0.117,0.168-0.177,0.354-0.177,0.559c0,0.272,0.094,0.496,0.282,0.671c0.188,0.176,0.455,0.264,0.803,0.264
			c0.322,0,0.632-0.085,0.93-0.255c0.297-0.17,0.531-0.407,0.703-0.712S86.755,26.05,86.851,25.487z"/>
		<path style="fill:#2C6882;" d="M88.688,28.377l1.644-7.874h0.973l-1.645,7.874H88.688z"/>
		<path style="fill:#2C6882;" d="M95.397,26.437l0.945,0.098c-0.136,0.469-0.448,0.914-0.938,1.337
			c-0.488,0.423-1.071,0.634-1.748,0.634c-0.423,0-0.811-0.098-1.163-0.293s-0.621-0.479-0.806-0.852
			c-0.185-0.372-0.276-0.796-0.276-1.272c0-0.623,0.145-1.228,0.433-1.813c0.288-0.586,0.661-1.021,1.119-1.306
			c0.459-0.284,0.955-0.427,1.488-0.427c0.681,0,1.224,0.211,1.63,0.634s0.61,0.999,0.61,1.729c0,0.279-0.025,0.565-0.076,0.859
			h-4.199c-0.015,0.111-0.021,0.211-0.021,0.301c0,0.533,0.122,0.94,0.367,1.222s0.545,0.422,0.9,0.422
			c0.332,0,0.66-0.109,0.982-0.328C94.967,27.165,95.218,26.85,95.397,26.437z M92.571,25.025h3.201
			c0.004-0.101,0.005-0.172,0.005-0.215c0-0.487-0.121-0.86-0.365-1.12c-0.243-0.26-0.557-0.39-0.939-0.39
			c-0.415,0-0.794,0.144-1.136,0.43C92.995,24.018,92.739,24.449,92.571,25.025z"/>
		<path style="fill:#2C6882;" d="M97.319,28.377l1.193-5.704h0.972l-0.198,0.94c0.361-0.405,0.685-0.685,0.969-0.838
			c0.285-0.154,0.594-0.231,0.927-0.231c0.354,0,0.65,0.094,0.889,0.282c0.238,0.188,0.396,0.45,0.47,0.787
			c0.291-0.358,0.596-0.626,0.917-0.804c0.32-0.177,0.658-0.266,1.012-0.266c0.477,0,0.834,0.112,1.072,0.339
			c0.238,0.225,0.357,0.542,0.357,0.95c0,0.176-0.041,0.466-0.123,0.87l-0.77,3.674h-0.971l0.783-3.771
			c0.068-0.308,0.102-0.528,0.102-0.661c0-0.186-0.059-0.332-0.176-0.439c-0.119-0.107-0.285-0.162-0.5-0.162
			c-0.291,0-0.586,0.088-0.887,0.264c-0.301,0.176-0.534,0.405-0.7,0.69c-0.167,0.284-0.313,0.722-0.438,1.313l-0.58,2.766h-0.972
			l0.806-3.852c0.058-0.261,0.086-0.447,0.086-0.559c0-0.186-0.059-0.336-0.175-0.451c-0.116-0.114-0.268-0.172-0.454-0.172
			c-0.275,0-0.564,0.088-0.867,0.264s-0.549,0.42-0.738,0.733s-0.346,0.76-0.467,1.34l-0.564,2.696H97.319z"/>
		<path style="fill:#2C6882;" d="M110.334,27.668c-0.338,0.29-0.66,0.502-0.973,0.637c-0.311,0.134-0.645,0.201-0.998,0.201
			c-0.527,0-0.951-0.155-1.273-0.465s-0.484-0.706-0.484-1.189c0-0.318,0.072-0.601,0.219-0.846
			c0.145-0.245,0.336-0.442,0.576-0.591s0.533-0.255,0.881-0.319c0.219-0.043,0.633-0.077,1.244-0.103
			c0.609-0.025,1.049-0.09,1.313-0.193c0.076-0.265,0.113-0.485,0.113-0.661c0-0.225-0.082-0.402-0.246-0.531
			c-0.227-0.179-0.557-0.269-0.988-0.269c-0.408,0-0.742,0.091-1.002,0.271s-0.449,0.438-0.566,0.771l-0.984-0.086
			c0.201-0.565,0.52-0.999,0.953-1.3c0.436-0.301,0.984-0.451,1.646-0.451c0.705,0,1.264,0.168,1.676,0.505
			c0.316,0.251,0.473,0.576,0.473,0.978c0,0.305-0.045,0.657-0.133,1.058l-0.318,1.418c-0.1,0.451-0.15,0.818-0.15,1.102
			c0,0.179,0.039,0.437,0.119,0.773h-0.982C110.392,28.19,110.355,27.954,110.334,27.668z M110.693,25.487
			c-0.137,0.054-0.281,0.095-0.438,0.124c-0.156,0.028-0.416,0.059-0.781,0.091c-0.566,0.05-0.965,0.113-1.197,0.19
			c-0.234,0.077-0.408,0.2-0.527,0.368c-0.117,0.168-0.178,0.354-0.178,0.559c0,0.272,0.094,0.496,0.283,0.671
			c0.188,0.176,0.455,0.264,0.803,0.264c0.322,0,0.631-0.085,0.93-0.255c0.297-0.17,0.531-0.407,0.703-0.712
			S110.597,26.05,110.693,25.487z M109.103,21.98l1.01-1.478h1.225l-1.428,1.478H109.103z"/>
		<path style="fill:#2C6882;" d="M112.605,28.377l1.193-5.704h0.881l-0.211,0.993c0.385-0.39,0.742-0.675,1.074-0.854
			c0.334-0.179,0.674-0.269,1.021-0.269c0.461,0,0.824,0.125,1.088,0.376s0.395,0.586,0.395,1.004c0,0.212-0.047,0.545-0.141,1
			l-0.725,3.453h-0.973l0.758-3.615c0.076-0.351,0.113-0.61,0.113-0.778c0-0.189-0.064-0.344-0.195-0.462s-0.32-0.178-0.568-0.178
			c-0.496,0-0.939,0.18-1.328,0.537c-0.389,0.358-0.674,0.973-0.857,1.843l-0.553,2.653H112.605z"/>
	</g>
</g>
</svg>
