<?xml version="1.0" encoding="utf-8"?>
<!-- Generator: Adobe Illustrator 17.0.0, SVG Export Plug-In . SVG Version: 6.00 Build 0)  -->
<!DOCTYPE svg PUBLIC "-//W3C//DTD SVG 1.1//EN" "http://www.w3.org/Graphics/SVG/1.1/DTD/svg11.dtd">
<svg version="1.1" id="Capa_1" xmlns="http://www.w3.org/2000/svg" xmlns:xlink="http://www.w3.org/1999/xlink" x="0px" y="0px"
	 width="149.411px" height="50.535px" viewBox="0 0 149.411 50.535" style="enable-background:new 0 0 149.411 50.535;"
	 xml:space="preserve">
<polygon style="fill:#2C6882;stroke:#000000;stroke-width:0.75;stroke-miterlimit:10;" points="0.815,0.375 127.565,0.375 
	148.921,25.269 128.307,50.16 1.548,50.16 22.176,25.336 "/>
<g>
	<g>
		<path style="fill:#FFFFFF;" d="M31.278,29.199l1.643-7.874h5.119l-0.188,0.897h-4.066l-0.521,2.508h4.142l-0.188,0.896h-4.141
			l-0.746,3.572H31.278z"/>
		<path style="fill:#FFFFFF;" d="M37.787,29.199l1.644-7.874h0.973l-1.645,7.874H37.787z"/>
		<path style="fill:#FFFFFF;" d="M44.201,28.168c-0.685,0.773-1.385,1.16-2.101,1.16c-0.44,0-0.796-0.126-1.066-0.379
			c-0.271-0.252-0.405-0.561-0.405-0.926c0-0.24,0.061-0.652,0.183-1.236l0.688-3.292h0.972l-0.762,3.647
			c-0.064,0.304-0.098,0.54-0.098,0.709c0,0.215,0.065,0.382,0.196,0.502s0.323,0.18,0.577,0.18c0.272,0,0.538-0.066,0.798-0.199
			c0.26-0.132,0.483-0.311,0.672-0.537c0.188-0.225,0.341-0.492,0.459-0.8c0.079-0.197,0.17-0.542,0.274-1.036l0.516-2.466h0.972
			l-1.192,5.704h-0.896L44.201,28.168z"/>
		<path style="fill:#FFFFFF;" d="M44.728,31.342l0.172-0.826c0.222,0.061,0.419,0.091,0.591,0.091c0.208,0,0.373-0.069,0.497-0.207
			c0.123-0.138,0.251-0.52,0.384-1.146l1.198-5.758h0.972l-1.235,5.935c-0.154,0.742-0.331,1.246-0.531,1.516
			c-0.27,0.357-0.644,0.537-1.123,0.537C45.398,31.482,45.089,31.436,44.728,31.342z M47.806,22.426l0.23-1.101h0.961l-0.23,1.101
			H47.806z"/>
		<path style="fill:#FFFFFF;" d="M49.04,27.035c0-1.114,0.328-2.036,0.982-2.767c0.541-0.602,1.25-0.902,2.127-0.902
			c0.688,0,1.242,0.215,1.663,0.645s0.631,1.01,0.631,1.74c0,0.655-0.133,1.265-0.397,1.829c-0.265,0.563-0.642,0.996-1.131,1.297
			c-0.488,0.301-1.003,0.451-1.544,0.451c-0.444,0-0.848-0.095-1.211-0.285c-0.363-0.189-0.642-0.458-0.833-0.805
			C49.136,27.891,49.04,27.489,49.04,27.035z M50.013,26.937c0,0.537,0.129,0.945,0.387,1.223s0.585,0.416,0.982,0.416
			c0.208,0,0.414-0.042,0.617-0.126c0.205-0.084,0.395-0.212,0.57-0.384c0.175-0.172,0.324-0.368,0.448-0.589
			c0.123-0.22,0.223-0.457,0.298-0.712c0.111-0.354,0.166-0.694,0.166-1.02c0-0.516-0.129-0.916-0.389-1.201
			c-0.26-0.284-0.587-0.427-0.98-0.427c-0.305,0-0.582,0.072-0.832,0.218c-0.251,0.145-0.478,0.357-0.68,0.637
			s-0.352,0.604-0.446,0.975C50.06,26.317,50.013,26.648,50.013,26.937z"/>
		<path style="fill:#FFFFFF;" d="M54.932,29.715l0.983,0.092c-0.008,0.222,0.02,0.388,0.08,0.499s0.157,0.197,0.29,0.258
			c0.176,0.079,0.403,0.118,0.683,0.118c0.587,0,1.01-0.152,1.268-0.457c0.168-0.203,0.323-0.647,0.467-1.332l0.097-0.461
			c-0.505,0.512-1.042,0.768-1.611,0.768c-0.576,0-1.059-0.212-1.447-0.637c-0.389-0.424-0.583-1.024-0.583-1.802
			c0-0.641,0.153-1.229,0.459-1.767c0.307-0.537,0.671-0.943,1.094-1.217c0.422-0.274,0.857-0.411,1.305-0.411
			c0.748,0,1.325,0.354,1.729,1.063l0.193-0.935h0.892L59.68,29c-0.125,0.605-0.29,1.077-0.494,1.416
			c-0.204,0.338-0.488,0.601-0.852,0.787c-0.363,0.186-0.783,0.279-1.259,0.279c-0.459,0-0.854-0.06-1.185-0.178
			s-0.578-0.291-0.741-0.519s-0.244-0.487-0.244-0.781C54.905,29.915,54.914,29.818,54.932,29.715z M56.146,26.675
			c0,0.391,0.037,0.684,0.113,0.881c0.107,0.275,0.26,0.486,0.459,0.631c0.198,0.146,0.42,0.218,0.663,0.218
			c0.318,0,0.636-0.112,0.95-0.336c0.315-0.224,0.57-0.57,0.766-1.039s0.293-0.917,0.293-1.343c0-0.469-0.13-0.843-0.39-1.12
			s-0.581-0.416-0.964-0.416c-0.236,0-0.466,0.063-0.688,0.19s-0.429,0.32-0.62,0.58s-0.337,0.57-0.436,0.933
			C56.194,26.215,56.146,26.488,56.146,26.675z"/>
		<path style="fill:#FFFFFF;" d="M61.104,29.199l1.192-5.704h0.859l-0.241,1.165c0.293-0.439,0.58-0.766,0.861-0.977
			c0.281-0.212,0.568-0.317,0.862-0.317c0.193,0,0.432,0.069,0.714,0.21l-0.396,0.902c-0.169-0.122-0.354-0.184-0.554-0.184
			c-0.34,0-0.689,0.19-1.048,0.57c-0.357,0.379-0.639,1.062-0.843,2.046l-0.483,2.288H61.104z"/>
		<path style="fill:#FFFFFF;" d="M68.612,28.49c-0.337,0.29-0.66,0.502-0.973,0.637c-0.311,0.134-0.645,0.201-0.998,0.201
			c-0.527,0-0.951-0.155-1.273-0.465s-0.483-0.706-0.483-1.189c0-0.318,0.072-0.601,0.218-0.846
			c0.145-0.245,0.337-0.442,0.577-0.591s0.533-0.255,0.881-0.319c0.219-0.043,0.633-0.077,1.243-0.103s1.049-0.09,1.313-0.193
			c0.075-0.265,0.112-0.485,0.112-0.661c0-0.225-0.082-0.402-0.246-0.531c-0.227-0.179-0.556-0.269-0.988-0.269
			c-0.408,0-0.742,0.091-1.002,0.271s-0.449,0.438-0.566,0.771l-0.983-0.086c0.2-0.565,0.519-0.999,0.953-1.3
			c0.436-0.301,0.984-0.451,1.646-0.451c0.705,0,1.264,0.168,1.676,0.505c0.315,0.251,0.473,0.576,0.473,0.978
			c0,0.305-0.045,0.657-0.134,1.058l-0.317,1.418c-0.101,0.451-0.15,0.818-0.15,1.102c0,0.179,0.039,0.437,0.118,0.773h-0.982
			C68.671,29.013,68.634,28.776,68.612,28.49z M68.972,26.31c-0.136,0.054-0.281,0.095-0.438,0.124
			c-0.155,0.028-0.416,0.059-0.781,0.091c-0.565,0.05-0.965,0.113-1.197,0.19c-0.233,0.077-0.408,0.2-0.527,0.368
			c-0.117,0.168-0.177,0.354-0.177,0.559c0,0.272,0.094,0.496,0.282,0.671c0.188,0.176,0.455,0.264,0.803,0.264
			c0.322,0,0.632-0.085,0.93-0.255c0.297-0.17,0.531-0.407,0.703-0.712S68.876,26.872,68.972,26.31z"/>
		<path style="fill:#FFFFFF;" d="M70.878,29.199l1.193-5.704h0.972l-0.198,0.94c0.361-0.405,0.685-0.685,0.969-0.838
			c0.285-0.154,0.594-0.231,0.927-0.231c0.354,0,0.65,0.094,0.889,0.282c0.238,0.188,0.396,0.45,0.47,0.787
			c0.291-0.358,0.596-0.626,0.916-0.804c0.32-0.177,0.658-0.266,1.013-0.266c0.477,0,0.833,0.112,1.071,0.339
			c0.238,0.225,0.357,0.542,0.357,0.95c0,0.176-0.041,0.466-0.123,0.87l-0.769,3.674h-0.972l0.783-3.771
			c0.068-0.308,0.103-0.528,0.103-0.661c0-0.186-0.06-0.332-0.177-0.439c-0.119-0.107-0.285-0.162-0.5-0.162
			c-0.29,0-0.586,0.088-0.887,0.264s-0.534,0.405-0.7,0.69c-0.167,0.284-0.313,0.722-0.438,1.313l-0.58,2.766h-0.972l0.806-3.852
			c0.058-0.261,0.086-0.447,0.086-0.559c0-0.186-0.059-0.336-0.175-0.451c-0.116-0.114-0.268-0.172-0.454-0.172
			c-0.275,0-0.564,0.088-0.867,0.264s-0.549,0.42-0.738,0.733s-0.346,0.76-0.467,1.34l-0.564,2.696H70.878z"/>
		<path style="fill:#FFFFFF;" d="M83.894,28.49c-0.337,0.29-0.66,0.502-0.973,0.637c-0.311,0.134-0.645,0.201-0.998,0.201
			c-0.527,0-0.951-0.155-1.273-0.465s-0.483-0.706-0.483-1.189c0-0.318,0.072-0.601,0.218-0.846
			c0.145-0.245,0.337-0.442,0.577-0.591s0.533-0.255,0.881-0.319c0.219-0.043,0.633-0.077,1.243-0.103s1.049-0.09,1.313-0.193
			c0.075-0.265,0.112-0.485,0.112-0.661c0-0.225-0.082-0.402-0.246-0.531c-0.227-0.179-0.556-0.269-0.988-0.269
			c-0.408,0-0.742,0.091-1.002,0.271s-0.449,0.438-0.566,0.771l-0.983-0.086c0.2-0.565,0.519-0.999,0.953-1.3
			c0.436-0.301,0.984-0.451,1.646-0.451c0.705,0,1.264,0.168,1.676,0.505c0.315,0.251,0.473,0.576,0.473,0.978
			c0,0.305-0.045,0.657-0.134,1.058l-0.317,1.418c-0.101,0.451-0.15,0.818-0.15,1.102c0,0.179,0.039,0.437,0.118,0.773h-0.982
			C83.952,29.013,83.915,28.776,83.894,28.49z M84.253,26.31c-0.136,0.054-0.281,0.095-0.438,0.124
			c-0.155,0.028-0.416,0.059-0.781,0.091c-0.565,0.05-0.965,0.113-1.197,0.19c-0.233,0.077-0.408,0.2-0.527,0.368
			c-0.117,0.168-0.177,0.354-0.177,0.559c0,0.272,0.094,0.496,0.282,0.671c0.188,0.176,0.455,0.264,0.803,0.264
			c0.322,0,0.632-0.085,0.93-0.255c0.297-0.17,0.531-0.407,0.703-0.712S84.157,26.872,84.253,26.31z"/>
		<path style="fill:#FFFFFF;" d="M89.185,29.199l1.191-5.704h0.973l-1.192,5.704H89.185z M90.603,22.426l0.23-1.101H91.8
			l-0.23,1.101H90.603z"/>
		<path style="fill:#FFFFFF;" d="M91.665,29.199l1.192-5.704h0.881l-0.21,0.993c0.384-0.39,0.742-0.675,1.074-0.854
			c0.334-0.179,0.674-0.269,1.021-0.269c0.461,0,0.824,0.125,1.087,0.376c0.264,0.251,0.396,0.586,0.396,1.004
			c0,0.212-0.047,0.545-0.141,1l-0.725,3.453h-0.973l0.758-3.615c0.075-0.351,0.113-0.61,0.113-0.778
			c0-0.189-0.065-0.344-0.196-0.462s-0.319-0.178-0.567-0.178c-0.497,0-0.94,0.18-1.329,0.537c-0.389,0.358-0.674,0.973-0.856,1.843
			l-0.553,2.653H91.665z"/>
		<path style="fill:#FFFFFF;" d="M100.054,28.41l-0.16,0.795c-0.233,0.061-0.459,0.091-0.678,0.091
			c-0.387,0-0.694-0.095-0.924-0.284c-0.172-0.144-0.258-0.339-0.258-0.586c0-0.125,0.047-0.414,0.141-0.865l0.692-3.313h-0.769
			l0.156-0.752h0.768l0.296-1.401l1.112-0.672l-0.436,2.073h0.956l-0.161,0.752h-0.951l-0.66,3.153
			c-0.082,0.4-0.123,0.641-0.123,0.719c0,0.115,0.032,0.203,0.099,0.264s0.175,0.092,0.325,0.092
			C99.694,28.475,99.886,28.453,100.054,28.41z"/>
		<path style="fill:#FFFFFF;" d="M105.029,27.26l0.945,0.098c-0.137,0.469-0.449,0.914-0.938,1.337s-1.072,0.634-1.749,0.634
			c-0.423,0-0.811-0.098-1.163-0.293s-0.621-0.479-0.806-0.852c-0.185-0.372-0.276-0.796-0.276-1.272
			c0-0.623,0.145-1.228,0.433-1.813c0.288-0.586,0.661-1.021,1.119-1.306c0.459-0.284,0.956-0.427,1.489-0.427
			c0.68,0,1.223,0.211,1.629,0.634s0.611,0.999,0.611,1.729c0,0.279-0.025,0.565-0.076,0.859h-4.2
			c-0.015,0.111-0.021,0.211-0.021,0.301c0,0.533,0.122,0.94,0.367,1.222s0.545,0.422,0.9,0.422c0.333,0,0.661-0.109,0.983-0.328
			C104.599,27.987,104.849,27.672,105.029,27.26z M102.203,25.848h3.201c0.004-0.101,0.006-0.172,0.006-0.215
			c0-0.487-0.121-0.86-0.365-1.12s-0.557-0.39-0.939-0.39c-0.416,0-0.794,0.144-1.136,0.43
			C102.627,24.84,102.371,25.271,102.203,25.848z"/>
		<path style="fill:#FFFFFF;" d="M106.902,29.715l0.984,0.092c-0.008,0.222,0.02,0.388,0.08,0.499s0.156,0.197,0.289,0.258
			c0.176,0.079,0.404,0.118,0.684,0.118c0.586,0,1.01-0.152,1.268-0.457c0.168-0.203,0.322-0.647,0.467-1.332l0.096-0.461
			c-0.504,0.512-1.041,0.768-1.611,0.768c-0.576,0-1.059-0.212-1.447-0.637c-0.389-0.424-0.582-1.024-0.582-1.802
			c0-0.641,0.152-1.229,0.459-1.767s0.67-0.943,1.094-1.217c0.422-0.274,0.857-0.411,1.305-0.411c0.748,0,1.324,0.354,1.729,1.063
			l0.193-0.935h0.893L111.65,29c-0.125,0.605-0.289,1.077-0.494,1.416c-0.203,0.338-0.488,0.601-0.852,0.787
			c-0.363,0.186-0.783,0.279-1.258,0.279c-0.459,0-0.854-0.06-1.186-0.178c-0.33-0.118-0.578-0.291-0.74-0.519
			c-0.164-0.228-0.244-0.487-0.244-0.781C106.877,29.915,106.884,29.818,106.902,29.715z M108.117,26.675
			c0,0.391,0.037,0.684,0.113,0.881c0.107,0.275,0.26,0.486,0.459,0.631c0.197,0.146,0.42,0.218,0.662,0.218
			c0.318,0,0.637-0.112,0.951-0.336s0.57-0.57,0.766-1.039s0.293-0.917,0.293-1.343c0-0.469-0.131-0.843-0.391-1.12
			s-0.58-0.416-0.963-0.416c-0.236,0-0.467,0.063-0.688,0.19c-0.223,0.127-0.43,0.32-0.621,0.58s-0.336,0.57-0.436,0.933
			C108.166,26.215,108.117,26.488,108.117,26.675z"/>
		<path style="fill:#FFFFFF;" d="M113.074,29.199l1.193-5.704h0.859l-0.242,1.165c0.293-0.439,0.58-0.766,0.861-0.977
			c0.281-0.212,0.568-0.317,0.863-0.317c0.193,0,0.432,0.069,0.713,0.21l-0.396,0.902c-0.168-0.122-0.354-0.184-0.553-0.184
			c-0.34,0-0.689,0.19-1.049,0.57c-0.357,0.379-0.639,1.062-0.842,2.046l-0.484,2.288H113.074z"/>
		<path style="fill:#FFFFFF;" d="M120.584,28.49c-0.338,0.29-0.66,0.502-0.973,0.637c-0.311,0.134-0.645,0.201-0.998,0.201
			c-0.527,0-0.951-0.155-1.273-0.465s-0.484-0.706-0.484-1.189c0-0.318,0.072-0.601,0.219-0.846
			c0.145-0.245,0.336-0.442,0.576-0.591s0.533-0.255,0.881-0.319c0.219-0.043,0.633-0.077,1.244-0.103
			c0.609-0.025,1.049-0.09,1.313-0.193c0.076-0.265,0.113-0.485,0.113-0.661c0-0.225-0.082-0.402-0.246-0.531
			c-0.227-0.179-0.557-0.269-0.988-0.269c-0.408,0-0.742,0.091-1.002,0.271s-0.449,0.438-0.566,0.771l-0.984-0.086
			c0.201-0.565,0.52-0.999,0.953-1.3c0.436-0.301,0.984-0.451,1.646-0.451c0.705,0,1.264,0.168,1.676,0.505
			c0.316,0.251,0.473,0.576,0.473,0.978c0,0.305-0.045,0.657-0.133,1.058l-0.318,1.418c-0.1,0.451-0.15,0.818-0.15,1.102
			c0,0.179,0.039,0.437,0.119,0.773h-0.982C120.642,29.013,120.605,28.776,120.584,28.49z M120.943,26.31
			c-0.137,0.054-0.281,0.095-0.438,0.124c-0.156,0.028-0.416,0.059-0.781,0.091c-0.566,0.05-0.965,0.113-1.197,0.19
			c-0.234,0.077-0.408,0.2-0.527,0.368c-0.117,0.168-0.178,0.354-0.178,0.559c0,0.272,0.094,0.496,0.283,0.671
			c0.188,0.176,0.455,0.264,0.803,0.264c0.322,0,0.631-0.085,0.93-0.255c0.297-0.17,0.531-0.407,0.703-0.712
			S120.847,26.872,120.943,26.31z"/>
		<path style="fill:#FFFFFF;" d="M126.701,28.372c-0.555,0.638-1.135,0.956-1.74,0.956c-0.541,0-0.992-0.199-1.352-0.599
			s-0.539-0.979-0.539-1.737c0-0.695,0.143-1.33,0.426-1.904c0.285-0.575,0.643-1.006,1.07-1.292s0.855-0.43,1.285-0.43
			c0.709,0,1.244,0.342,1.607,1.026l0.645-3.067h0.967l-1.645,7.874h-0.896L126.701,28.372z M124.037,26.809
			c0,0.398,0.039,0.711,0.117,0.94c0.08,0.229,0.213,0.42,0.404,0.572c0.189,0.152,0.416,0.228,0.682,0.228
			c0.439,0,0.84-0.229,1.197-0.688c0.48-0.608,0.721-1.36,0.721-2.256c0-0.451-0.119-0.804-0.355-1.058s-0.533-0.382-0.891-0.382
			c-0.234,0-0.445,0.053-0.637,0.156s-0.383,0.28-0.57,0.529s-0.346,0.564-0.475,0.947C124.101,26.183,124.037,26.52,124.037,26.809
			z"/>
		<path style="fill:#FFFFFF;" d="M129.144,27.035c0-1.114,0.328-2.036,0.982-2.767c0.541-0.602,1.25-0.902,2.127-0.902
			c0.688,0,1.242,0.215,1.664,0.645c0.42,0.43,0.631,1.01,0.631,1.74c0,0.655-0.133,1.265-0.398,1.829
			c-0.264,0.563-0.641,0.996-1.131,1.297c-0.488,0.301-1.002,0.451-1.543,0.451c-0.445,0-0.848-0.095-1.211-0.285
			c-0.363-0.189-0.643-0.458-0.834-0.805C129.24,27.891,129.144,27.489,129.144,27.035z M130.117,26.937
			c0,0.537,0.129,0.945,0.387,1.223s0.586,0.416,0.982,0.416c0.209,0,0.414-0.042,0.617-0.126c0.205-0.084,0.395-0.212,0.57-0.384
			s0.324-0.368,0.449-0.589c0.123-0.22,0.223-0.457,0.297-0.712c0.111-0.354,0.166-0.694,0.166-1.02
			c0-0.516-0.129-0.916-0.389-1.201c-0.26-0.284-0.586-0.427-0.98-0.427c-0.305,0-0.582,0.072-0.832,0.218
			c-0.25,0.145-0.477,0.357-0.68,0.637c-0.201,0.279-0.352,0.604-0.445,0.975C130.164,26.317,130.117,26.648,130.117,26.937z"/>
	</g>
</g>
</svg>
