<?xml version="1.0" encoding="utf-8"?>
<!-- Generator: Adobe Illustrator 17.0.0, SVG Export Plug-In . SVG Version: 6.00 Build 0)  -->
<!DOCTYPE svg PUBLIC "-//W3C//DTD SVG 1.1//EN" "http://www.w3.org/Graphics/SVG/1.1/DTD/svg11.dtd" [
	<!ENTITY ns_extend "http://ns.adobe.com/Extensibility/1.0/">
	<!ENTITY ns_ai "http://ns.adobe.com/AdobeIllustrator/10.0/">
	<!ENTITY ns_graphs "http://ns.adobe.com/Graphs/1.0/">
	<!ENTITY ns_vars "http://ns.adobe.com/Variables/1.0/">
	<!ENTITY ns_imrep "http://ns.adobe.com/ImageReplacement/1.0/">
	<!ENTITY ns_sfw "http://ns.adobe.com/SaveForWeb/1.0/">
	<!ENTITY ns_custom "http://ns.adobe.com/GenericCustomNamespace/1.0/">
	<!ENTITY ns_adobe_xpath "http://ns.adobe.com/XPath/1.0/">
]>
<svg version="1.1" id="Capa_1" xmlns:x="&ns_extend;" xmlns:i="&ns_ai;" xmlns:graph="&ns_graphs;"
	 xmlns="http://www.w3.org/2000/svg" xmlns:xlink="http://www.w3.org/1999/xlink" x="0px" y="0px" width="358.195px"
	 height="218.999px" viewBox="0 0 358.195 218.999" enable-background="new 0 0 358.195 218.999" xml:space="preserve">
<metadata>
	<sfw  xmlns="&ns_sfw;">
		<slices></slices>
		<sliceSourceBounds  width="358.196" height="219" y="571" x="288.402" bottomLeftOrigin="true"></sliceSourceBounds>
	</sfw>
</metadata>
<g>
	<path fill="none" stroke="#0F1317" stroke-width="2.835" stroke-linejoin="round" stroke-miterlimit="10" d="M278.186,143.163
		h-40.858 M279.071,198.47c-41.363,0-3.53-55.307-41.744-55.307 M279.071,87.858c-41.363,0-3.53,55.305-41.744,55.305
		 M80.008,143.163h40.859 M79.125,198.47c41.363,0,3.527-55.307,41.742-55.307 M79.125,87.858c41.363,0,3.527,55.305,41.742,55.305"
		/>
	<g>
		<g>
			<path id="SVGID_1_" fill="#6FC2D8" d="M128.749,111.842c-4.353,0-7.882,3.527-7.882,7.877v47.153
				c0,4.354,3.529,7.882,7.882,7.882h103.056c4.355,0,7.885-3.528,7.885-7.882v-47.153c0-4.35-3.529-7.877-7.885-7.877
				C231.805,111.842,128.749,111.842,128.749,111.842z"/>
		</g>
		<g>
			<defs>
				<path id="SVGID_5_" d="M128.749,111.842c-4.353,0-7.882,3.527-7.882,7.877v47.153c0,4.354,3.529,7.882,7.882,7.882h103.056
					c4.355,0,7.885-3.528,7.885-7.882v-47.153c0-4.35-3.529-7.877-7.885-7.877C231.805,111.842,128.749,111.842,128.749,111.842z"/>
			</defs>
			<clipPath id="SVGID_6_">
				<use xlink:href="#SVGID_5_"  overflow="visible"/>
			</clipPath>
			
				<rect x="120.867" y="111.842" clip-path="url(#SVGID_6_)" fill="#6FC2D8" stroke="#000000" stroke-width="0.75" stroke-miterlimit="10" width="118.822" height="62.912"/>
		</g>
		<g>
			<path id="SVGID_2_" fill="none" stroke="#000000" stroke-width="0.75" stroke-miterlimit="10" d="M128.749,111.842
				c-4.353,0-7.882,3.527-7.882,7.877v47.153c0,4.354,3.529,7.882,7.882,7.882h103.056c4.355,0,7.885-3.528,7.885-7.882v-47.153
				c0-4.35-3.529-7.877-7.885-7.877C231.805,111.842,128.749,111.842,128.749,111.842z"/>
		</g>
	</g>
	<g>
		<path fill="#2C6882" d="M129.375,131.832v-10.399h3.923c0.69,0,1.218,0.033,1.581,0.1c0.511,0.085,0.939,0.247,1.284,0.485
			c0.346,0.239,0.623,0.574,0.834,1.004c0.21,0.431,0.315,0.903,0.315,1.419c0,0.885-0.281,1.633-0.844,2.245
			c-0.563,0.612-1.58,0.919-3.051,0.919h-2.667v4.228L129.375,131.832L129.375,131.832z M130.751,126.377h2.688
			c0.889,0,1.521-0.165,1.894-0.496c0.374-0.331,0.561-0.797,0.561-1.397c0-0.436-0.109-0.808-0.33-1.117
			c-0.22-0.311-0.509-0.515-0.868-0.614c-0.232-0.062-0.66-0.092-1.284-0.092h-2.66v3.716H130.751z"/>
		<path fill="#2C6882" d="M138.887,131.832v-7.533h1.149v1.142c0.293-0.534,0.563-0.887,0.813-1.057
			c0.248-0.17,0.521-0.256,0.819-0.256c0.43,0,0.867,0.138,1.312,0.412l-0.439,1.185c-0.313-0.185-0.624-0.277-0.937-0.277
			c-0.279,0-0.529,0.085-0.752,0.252c-0.222,0.168-0.381,0.401-0.475,0.699c-0.143,0.454-0.213,0.95-0.213,1.489v3.944H138.887z"/>
		<path fill="#2C6882" d="M143.264,128.066c0-1.396,0.388-2.429,1.163-3.1c0.648-0.559,1.438-0.838,2.369-0.838
			c1.036,0,1.883,0.34,2.54,1.019s0.986,1.616,0.986,2.813c0,0.97-0.146,1.732-0.437,2.288s-0.714,0.986-1.27,1.294
			c-0.557,0.308-1.163,0.461-1.82,0.461c-1.055,0-1.906-0.338-2.557-1.014C143.589,130.312,143.264,129.338,143.264,128.066z
			 M144.576,128.066c0,0.965,0.21,1.688,0.631,2.167c0.421,0.48,0.951,0.72,1.589,0.72c0.634,0,1.161-0.241,1.582-0.724
			s0.632-1.218,0.632-2.206c0-0.932-0.212-1.637-0.635-2.117c-0.424-0.479-0.95-0.72-1.579-0.72c-0.638,0-1.168,0.238-1.589,0.716
			C144.786,126.38,144.576,127.101,144.576,128.066z"/>
		<path fill="#2C6882" d="M156.735,129.072l1.255,0.163c-0.137,0.866-0.488,1.543-1.053,2.033c-0.565,0.489-1.26,0.733-2.082,0.733
			c-1.031,0-1.86-0.337-2.486-1.011c-0.627-0.674-0.94-1.64-0.94-2.897c0-0.813,0.135-1.525,0.404-2.136
			c0.27-0.609,0.68-1.067,1.23-1.372c0.552-0.305,1.15-0.458,1.799-0.458c0.818,0,1.487,0.207,2.008,0.621
			c0.52,0.414,0.854,1.001,1,1.763l-1.241,0.191c-0.119-0.506-0.328-0.887-0.628-1.142c-0.301-0.256-0.663-0.384-1.089-0.384
			c-0.644,0-1.166,0.231-1.568,0.692c-0.401,0.461-0.603,1.19-0.603,2.188c0,1.012,0.193,1.747,0.582,2.206
			c0.388,0.458,0.894,0.688,1.518,0.688c0.501,0,0.92-0.153,1.256-0.461S156.645,129.711,156.735,129.072z"/>
		<path fill="#2C6882" d="M164.239,129.406l1.32,0.163c-0.209,0.771-0.594,1.369-1.156,1.795c-0.563,0.425-1.282,0.638-2.157,0.638
			c-1.102,0-1.976-0.339-2.621-1.018s-0.968-1.63-0.968-2.855c0-1.267,0.326-2.251,0.979-2.951c0.652-0.699,1.499-1.05,2.54-1.05
			c1.007,0,1.83,0.344,2.469,1.029c0.638,0.686,0.957,1.65,0.957,2.894c0,0.076-0.002,0.189-0.007,0.341h-5.618
			c0.047,0.828,0.281,1.461,0.702,1.901c0.421,0.439,0.945,0.659,1.575,0.659c0.468,0,0.867-0.123,1.198-0.368
			C163.783,130.338,164.046,129.945,164.239,129.406z M160.048,127.342h4.206c-0.057-0.634-0.218-1.109-0.482-1.426
			c-0.406-0.492-0.934-0.738-1.582-0.738c-0.586,0-1.079,0.196-1.479,0.589C160.311,126.159,160.09,126.685,160.048,127.342z"/>
		<path fill="#2C6882" d="M166.652,129.583l1.263-0.198c0.07,0.506,0.268,0.894,0.592,1.163s0.777,0.404,1.358,0.404
			c0.587,0,1.021-0.119,1.306-0.358c0.283-0.238,0.426-0.519,0.426-0.84c0-0.289-0.126-0.516-0.376-0.682
			c-0.176-0.113-0.61-0.258-1.306-0.433c-0.937-0.236-1.585-0.44-1.947-0.613c-0.361-0.173-0.636-0.411-0.823-0.717
			c-0.187-0.305-0.279-0.642-0.279-1.011c0-0.336,0.076-0.646,0.23-0.933c0.153-0.286,0.362-0.523,0.627-0.713
			c0.199-0.146,0.47-0.271,0.813-0.372s0.711-0.153,1.104-0.153c0.591,0,1.11,0.086,1.557,0.256s0.777,0.4,0.989,0.691
			c0.213,0.291,0.359,0.68,0.44,1.167l-1.249,0.17c-0.057-0.388-0.221-0.69-0.492-0.907c-0.272-0.218-0.656-0.327-1.153-0.327
			c-0.586,0-1.005,0.098-1.256,0.291c-0.25,0.194-0.376,0.421-0.376,0.682c0,0.165,0.053,0.314,0.156,0.446
			c0.104,0.138,0.268,0.251,0.489,0.341c0.128,0.047,0.504,0.156,1.128,0.326c0.903,0.241,1.534,0.438,1.891,0.593
			c0.357,0.153,0.638,0.377,0.841,0.67s0.305,0.657,0.305,1.093c0,0.425-0.124,0.826-0.372,1.202s-0.606,0.667-1.074,0.872
			c-0.469,0.206-0.998,0.309-1.59,0.309c-0.979,0-1.725-0.203-2.237-0.609C167.121,130.985,166.794,130.383,166.652,129.583z"/>
		<path fill="#2C6882" d="M173.951,128.066c0-1.396,0.388-2.429,1.163-3.1c0.648-0.559,1.438-0.838,2.369-0.838
			c1.036,0,1.883,0.34,2.54,1.019s0.986,1.616,0.986,2.813c0,0.97-0.146,1.732-0.437,2.288s-0.714,0.986-1.27,1.294
			c-0.557,0.308-1.163,0.461-1.82,0.461c-1.055,0-1.906-0.338-2.557-1.014C174.276,130.312,173.951,129.338,173.951,128.066z
			 M175.264,128.066c0,0.965,0.21,1.688,0.631,2.167c0.421,0.48,0.951,0.72,1.589,0.72c0.634,0,1.161-0.241,1.582-0.724
			s0.632-1.218,0.632-2.206c0-0.932-0.212-1.637-0.635-2.117c-0.424-0.479-0.95-0.72-1.579-0.72c-0.638,0-1.168,0.238-1.589,0.716
			C175.474,126.38,175.264,127.101,175.264,128.066z"/>
		<path fill="#2C6882" d="M182.861,125.753v-1.454h1.454v1.454H182.861z M182.861,131.832v-1.454h1.454v1.454H182.861z"/>
	</g>
	<g>
		<path fill="#2C6882" d="M128.941,143.113c0-1.727,0.464-3.078,1.391-4.055s2.123-1.465,3.589-1.465
			c0.96,0,1.826,0.229,2.597,0.688s1.358,1.099,1.763,1.919s0.606,1.751,0.606,2.791c0,1.055-0.213,1.998-0.639,2.83
			c-0.425,0.833-1.028,1.463-1.809,1.891c-0.78,0.429-1.622,0.643-2.525,0.643c-0.979,0-1.854-0.236-2.625-0.71
			c-0.771-0.473-1.354-1.118-1.752-1.937C129.141,144.891,128.941,144.025,128.941,143.113z M130.36,143.134
			c0,1.254,0.337,2.241,1.011,2.962c0.674,0.722,1.52,1.082,2.536,1.082c1.035,0,1.888-0.364,2.557-1.093
			c0.67-0.729,1.004-1.762,1.004-3.1c0-0.847-0.143-1.586-0.429-2.217c-0.286-0.632-0.705-1.121-1.256-1.469
			s-1.169-0.521-1.854-0.521c-0.975,0-1.813,0.335-2.515,1.004C130.711,140.451,130.36,141.569,130.36,143.134z"/>
		<path fill="#2C6882" d="M141.674,148.178h-1.185v-10.399h1.277v3.71c0.539-0.676,1.228-1.015,2.064-1.015
			c0.463,0,0.901,0.094,1.315,0.28c0.414,0.188,0.754,0.449,1.021,0.788c0.268,0.338,0.477,0.746,0.628,1.224
			s0.227,0.988,0.227,1.532c0,1.291-0.318,2.289-0.957,2.993c-0.639,0.705-1.404,1.057-2.299,1.057
			c-0.889,0-1.586-0.371-2.093-1.113v0.943H141.674z M141.66,144.355c0,0.903,0.123,1.556,0.369,1.958
			c0.401,0.657,0.945,0.985,1.631,0.985c0.559,0,1.041-0.242,1.447-0.727c0.407-0.485,0.61-1.207,0.61-2.167
			c0-0.984-0.195-1.71-0.585-2.178c-0.391-0.469-0.862-0.703-1.416-0.703c-0.558,0-1.04,0.243-1.446,0.728
			C141.863,142.735,141.66,143.437,141.66,144.355z"/>
		<path fill="#2C6882" d="M146.952,151.101l0.241-1.086c0.256,0.066,0.456,0.1,0.604,0.1c0.26,0,0.453-0.086,0.581-0.259
			s0.191-0.604,0.191-1.295v-7.916h1.277v7.944c0,0.927-0.121,1.572-0.362,1.937c-0.307,0.474-0.817,0.71-1.532,0.71
			C147.607,151.235,147.274,151.191,146.952,151.101z M148.569,139.261v-1.482h1.277v1.482H148.569z"/>
		<path fill="#2C6882" d="M156.961,145.752l1.32,0.163c-0.209,0.771-0.594,1.369-1.156,1.795c-0.563,0.425-1.282,0.638-2.157,0.638
			c-1.102,0-1.976-0.339-2.621-1.018s-0.968-1.63-0.968-2.855c0-1.267,0.326-2.251,0.979-2.951c0.652-0.699,1.499-1.05,2.54-1.05
			c1.007,0,1.83,0.344,2.469,1.029c0.638,0.686,0.957,1.65,0.957,2.894c0,0.076-0.002,0.189-0.007,0.341h-5.618
			c0.047,0.828,0.281,1.461,0.702,1.901c0.421,0.439,0.945,0.659,1.575,0.659c0.468,0,0.867-0.123,1.198-0.368
			C156.505,146.684,156.768,146.291,156.961,145.752z M152.77,143.688h4.206c-0.057-0.634-0.218-1.109-0.482-1.426
			c-0.406-0.492-0.934-0.738-1.582-0.738c-0.586,0-1.079,0.196-1.479,0.589C153.032,142.505,152.812,143.03,152.77,143.688z"/>
		<path fill="#2C6882" d="M162.672,147.036l0.185,1.127c-0.359,0.076-0.681,0.114-0.965,0.114c-0.463,0-0.822-0.073-1.078-0.22
			c-0.255-0.147-0.435-0.34-0.539-0.578c-0.104-0.239-0.156-0.742-0.156-1.508v-4.334h-0.936v-0.993h0.936v-1.866l1.271-0.766v2.632
			h1.283v0.993h-1.283v4.405c0,0.364,0.021,0.598,0.067,0.702c0.045,0.104,0.118,0.187,0.22,0.248s0.247,0.092,0.436,0.092
			C162.254,147.085,162.44,147.068,162.672,147.036z"/>
		<path fill="#2C6882" d="M163.928,139.247v-1.469h1.276v1.469H163.928z M163.928,148.178v-7.533h1.276v7.533H163.928z"/>
		<path fill="#2C6882" d="M169.24,148.178l-2.865-7.533h1.348l1.617,4.512c0.175,0.486,0.336,0.993,0.482,1.518
			c0.113-0.397,0.272-0.875,0.476-1.433l1.674-4.597h1.313l-2.852,7.533H169.24z"/>
		<path fill="#2C6882" d="M173.937,144.411c0-1.396,0.388-2.429,1.163-3.1c0.648-0.559,1.438-0.838,2.369-0.838
			c1.036,0,1.883,0.34,2.54,1.019s0.986,1.616,0.986,2.813c0,0.97-0.146,1.732-0.437,2.288s-0.714,0.986-1.27,1.294
			c-0.557,0.308-1.163,0.461-1.82,0.461c-1.055,0-1.906-0.338-2.557-1.014C174.262,146.657,173.937,145.684,173.937,144.411z
			 M175.249,144.411c0,0.965,0.21,1.688,0.631,2.167c0.421,0.48,0.951,0.72,1.589,0.72c0.634,0,1.161-0.241,1.582-0.724
			s0.632-1.218,0.632-2.206c0-0.932-0.212-1.637-0.635-2.117c-0.424-0.479-0.95-0.72-1.579-0.72c-0.638,0-1.168,0.238-1.589,0.716
			C175.459,142.726,175.249,143.446,175.249,144.411z"/>
		<path fill="#2C6882" d="M182.847,142.099v-1.454h1.454v1.454H182.847z M182.847,148.178v-1.454h1.454v1.454H182.847z"/>
	</g>
	<g>
		<path fill="#2C6882" d="M128.218,164.521l3.994-10.399h1.482l4.256,10.399h-1.567l-1.213-3.149h-4.349l-1.142,3.149H128.218z
			 M131.219,160.25h3.525l-1.085-2.88c-0.331-0.875-0.577-1.594-0.738-2.156c-0.132,0.667-0.319,1.329-0.561,1.986L131.219,160.25z"
			/>
		<path fill="#2C6882" d="M138.858,164.521v-10.399h1.276v10.399H138.858z"/>
		<path fill="#2C6882" d="M147.031,161.761l1.255,0.163c-0.137,0.866-0.488,1.543-1.053,2.033c-0.565,0.489-1.26,0.733-2.082,0.733
			c-1.031,0-1.86-0.337-2.486-1.011c-0.627-0.674-0.94-1.64-0.94-2.897c0-0.813,0.135-1.525,0.404-2.136
			c0.27-0.609,0.68-1.067,1.23-1.372c0.552-0.305,1.15-0.458,1.799-0.458c0.818,0,1.487,0.207,2.008,0.621
			c0.52,0.414,0.854,1.001,1,1.763l-1.241,0.191c-0.119-0.506-0.328-0.887-0.628-1.142c-0.301-0.256-0.663-0.384-1.089-0.384
			c-0.644,0-1.166,0.231-1.568,0.692c-0.401,0.461-0.603,1.19-0.603,2.188c0,1.012,0.193,1.747,0.582,2.206
			c0.388,0.458,0.894,0.688,1.518,0.688c0.501,0,0.92-0.153,1.256-0.461S146.94,162.399,147.031,161.761z"/>
		<path fill="#2C6882" d="M154.295,163.591c-0.474,0.402-0.929,0.687-1.366,0.852c-0.438,0.166-0.906,0.248-1.408,0.248
			c-0.827,0-1.464-0.202-1.908-0.606s-0.666-0.921-0.666-1.55c0-0.369,0.083-0.706,0.251-1.011s0.388-0.55,0.66-0.734
			c0.271-0.185,0.578-0.323,0.919-0.418c0.25-0.066,0.629-0.131,1.135-0.192c1.03-0.122,1.79-0.27,2.277-0.439
			c0.004-0.175,0.007-0.286,0.007-0.333c0-0.521-0.121-0.887-0.362-1.1c-0.326-0.288-0.811-0.433-1.454-0.433
			c-0.601,0-1.044,0.105-1.33,0.315c-0.286,0.211-0.497,0.583-0.635,1.117l-1.248-0.17c0.113-0.534,0.3-0.966,0.561-1.295
			c0.26-0.328,0.636-0.582,1.128-0.759c0.491-0.178,1.062-0.267,1.709-0.267c0.644,0,1.166,0.076,1.567,0.228
			c0.402,0.151,0.698,0.342,0.887,0.571s0.322,0.519,0.397,0.868c0.043,0.218,0.064,0.61,0.064,1.178v1.703
			c0,1.187,0.026,1.938,0.081,2.252s0.162,0.616,0.323,0.904h-1.334C154.417,164.256,154.332,163.946,154.295,163.591z
			 M154.188,160.739c-0.464,0.189-1.159,0.351-2.086,0.482c-0.525,0.076-0.896,0.161-1.113,0.256
			c-0.218,0.095-0.386,0.232-0.504,0.415c-0.118,0.182-0.178,0.384-0.178,0.606c0,0.34,0.129,0.624,0.387,0.851
			c0.258,0.228,0.635,0.341,1.132,0.341c0.491,0,0.929-0.107,1.312-0.322c0.384-0.216,0.665-0.51,0.845-0.884
			c0.137-0.288,0.206-0.714,0.206-1.276L154.188,160.739L154.188,160.739z"/>
		<path fill="#2C6882" d="M157.458,164.521v-7.533h1.148v1.071c0.554-0.828,1.353-1.242,2.398-1.242
			c0.453,0,0.871,0.082,1.252,0.245c0.38,0.163,0.665,0.377,0.854,0.642c0.189,0.266,0.321,0.58,0.397,0.943
			c0.047,0.237,0.07,0.65,0.07,1.242v4.632h-1.276v-4.582c0-0.521-0.05-0.909-0.149-1.167c-0.099-0.258-0.275-0.464-0.528-0.617
			c-0.253-0.154-0.55-0.23-0.89-0.23c-0.544,0-1.014,0.172-1.408,0.518c-0.396,0.345-0.593,1-0.593,1.965v4.114L157.458,164.521
			L157.458,164.521z"/>
		<path fill="#2C6882" d="M170.454,161.761l1.255,0.163c-0.137,0.866-0.488,1.543-1.053,2.033c-0.565,0.489-1.26,0.733-2.082,0.733
			c-1.031,0-1.86-0.337-2.486-1.011c-0.627-0.674-0.94-1.64-0.94-2.897c0-0.813,0.135-1.525,0.404-2.136
			c0.27-0.609,0.68-1.067,1.23-1.372c0.552-0.305,1.15-0.458,1.799-0.458c0.818,0,1.487,0.207,2.008,0.621
			c0.52,0.414,0.854,1.001,1,1.763l-1.241,0.191c-0.119-0.506-0.328-0.887-0.628-1.142c-0.301-0.256-0.663-0.384-1.089-0.384
			c-0.644,0-1.166,0.231-1.568,0.692c-0.401,0.461-0.603,1.19-0.603,2.188c0,1.012,0.193,1.747,0.582,2.206
			c0.388,0.458,0.894,0.688,1.518,0.688c0.501,0,0.92-0.153,1.256-0.461S170.363,162.399,170.454,161.761z"/>
		<path fill="#2C6882" d="M177.958,162.095l1.32,0.163c-0.209,0.771-0.594,1.369-1.156,1.795c-0.563,0.425-1.282,0.638-2.157,0.638
			c-1.102,0-1.976-0.339-2.621-1.018s-0.968-1.63-0.968-2.855c0-1.267,0.326-2.251,0.979-2.951c0.652-0.699,1.499-1.05,2.54-1.05
			c1.007,0,1.83,0.344,2.469,1.029c0.638,0.686,0.957,1.65,0.957,2.894c0,0.076-0.002,0.189-0.007,0.341h-5.618
			c0.047,0.828,0.281,1.461,0.702,1.901c0.421,0.439,0.945,0.659,1.575,0.659c0.468,0,0.867-0.123,1.198-0.368
			C177.502,163.026,177.765,162.634,177.958,162.095z M173.767,160.03h4.206c-0.057-0.634-0.218-1.109-0.482-1.426
			c-0.406-0.492-0.934-0.738-1.582-0.738c-0.586,0-1.079,0.196-1.479,0.589C174.029,158.848,173.809,159.373,173.767,160.03z"/>
		<path fill="#2C6882" d="M181.236,158.441v-1.454h1.454v1.454H181.236z M181.236,164.521v-1.454h1.454v1.454H181.236z"/>
	</g>
	<g>
		<g>
			<path id="SVGID_3_" fill="#6FC2D8" d="M3.955,0.375C2.324,0.375,1,1.698,1,3.328v17.677c0,1.632,1.324,2.954,2.955,2.954h38.633
				c1.633,0,2.955-1.322,2.955-2.954V3.328c0-1.63-1.322-2.953-2.955-2.953H3.955z"/>
		</g>
		<g>
			<defs>
				<path id="SVGID_7_" d="M3.955,0.375C2.324,0.375,1,1.698,1,3.328v17.677c0,1.632,1.324,2.954,2.955,2.954h38.633
					c1.633,0,2.955-1.322,2.955-2.954V3.328c0-1.63-1.322-2.953-2.955-2.953H3.955z"/>
			</defs>
			<clipPath id="SVGID_8_">
				<use xlink:href="#SVGID_7_"  overflow="visible"/>
			</clipPath>
			
				<rect x="1" y="0.375" clip-path="url(#SVGID_8_)" fill="#6FC2D8" stroke="#000000" stroke-width="0.75" stroke-miterlimit="10" width="44.543" height="23.584"/>
		</g>
		<g>
			<path id="SVGID_4_" fill="none" stroke="#000000" stroke-width="0.75" stroke-miterlimit="10" d="M3.955,0.375
				C2.324,0.375,1,1.698,1,3.328v17.677c0,1.632,1.324,2.954,2.955,2.954h38.633c1.633,0,2.955-1.322,2.955-2.954V3.328
				c0-1.63-1.322-2.953-2.955-2.953H3.955z"/>
		</g>
	</g>
	<rect x="1" y="68.326" fill="#FFFFFF" stroke="#000000" stroke-width="2" stroke-miterlimit="10" width="39.063" height="39.063"/>
	
		<rect x="40.063" y="68.326" fill="#FFFFFF" stroke="#000000" stroke-width="2" stroke-miterlimit="10" width="39.063" height="39.063"/>
	<rect x="1" y="30.726" fill="#FFFFFF" stroke="#000000" stroke-miterlimit="10" width="22.207" height="22.205"/>
	<rect x="23.207" y="30.726" fill="#FFFFFF" stroke="#000000" stroke-miterlimit="10" width="22.204" height="22.205"/>
	
		<rect x="1" y="123.634" fill="#FFFFFF" stroke="#000000" stroke-width="2" stroke-miterlimit="10" width="39.063" height="39.063"/>
	
		<rect x="40.063" y="123.634" fill="#FFFFFF" stroke="#000000" stroke-width="2" stroke-miterlimit="10" width="39.063" height="39.063"/>
	
		<rect x="1" y="178.938" fill="#FFFFFF" stroke="#000000" stroke-width="2" stroke-miterlimit="10" width="39.063" height="39.062"/>
	
		<rect x="40.063" y="178.938" fill="#FFFFFF" stroke="#000000" stroke-width="2" stroke-miterlimit="10" width="39.063" height="39.062"/>
	
		<rect x="279.071" y="68.326" fill="#FFFFFF" stroke="#000000" stroke-width="2" stroke-miterlimit="10" width="39.062" height="39.063"/>
	
		<rect x="318.133" y="68.326" fill="#FFFFFF" stroke="#000000" stroke-width="2" stroke-miterlimit="10" width="39.063" height="39.063"/>
	
		<rect x="279.071" y="123.634" fill="#FFFFFF" stroke="#000000" stroke-width="2" stroke-miterlimit="10" width="39.062" height="39.063"/>
	
		<rect x="318.133" y="123.634" fill="#FFFFFF" stroke="#000000" stroke-width="2" stroke-miterlimit="10" width="39.063" height="39.063"/>
	
		<rect x="279.071" y="178.938" fill="#FFFFFF" stroke="#000000" stroke-width="2" stroke-miterlimit="10" width="39.062" height="39.062"/>
	
		<rect x="318.133" y="178.938" fill="#FFFFFF" stroke="#000000" stroke-width="2" stroke-miterlimit="10" width="39.063" height="39.062"/>
</g>
<g>
	<path d="M57.896,13.935l0.04,0.347c0.08,0.722-0.173,1.483-0.841,2.285c-0.601,0.721-0.922,1.215-0.922,1.816
		c0,0.681,0.414,1.136,1.269,1.136c0.467,0,1.002-0.147,1.349-0.414l0.321,0.855c-0.454,0.307-1.215,0.535-1.924,0.535
		c-1.523,0-2.231-0.948-2.231-1.964c0-0.908,0.507-1.549,1.162-2.298c0.574-0.708,0.788-1.269,0.748-1.95l-0.013-0.347H57.896z
		 M58.176,12.038c0,0.467-0.307,0.841-0.788,0.841c-0.481,0-0.788-0.374-0.788-0.841c0-0.481,0.321-0.828,0.788-0.828
		C57.87,11.21,58.176,11.557,58.176,12.038z"/>
	<path d="M60.664,8.845c0.561-0.094,1.295-0.173,2.231-0.173c1.149,0,1.99,0.267,2.524,0.748c0.494,0.427,0.788,1.082,0.788,1.883
		c0,0.815-0.24,1.456-0.694,1.924c-0.615,0.654-1.616,0.988-2.752,0.988c-0.348,0-0.668-0.013-0.935-0.08v3.607h-1.162V8.845z
		 M61.827,13.186c0.253,0.067,0.574,0.094,0.961,0.094c1.403,0,2.257-0.681,2.257-1.924c0-1.189-0.841-1.763-2.124-1.763
		c-0.508,0-0.895,0.04-1.095,0.094V13.186z"/>
	<path d="M70.967,17.741l-0.094-0.815h-0.04c-0.361,0.507-1.055,0.961-1.977,0.961c-1.309,0-1.977-0.922-1.977-1.857
		c0-1.563,1.389-2.418,3.887-2.404v-0.134c0-0.534-0.147-1.496-1.469-1.496c-0.601,0-1.229,0.187-1.683,0.481l-0.268-0.774
		c0.535-0.348,1.31-0.574,2.124-0.574c1.977,0,2.458,1.349,2.458,2.645v2.418c0,0.561,0.027,1.108,0.107,1.549H70.967z
		 M70.793,14.442c-1.282-0.027-2.739,0.2-2.739,1.456c0,0.761,0.508,1.122,1.109,1.122c0.841,0,1.376-0.535,1.563-1.082
		c0.04-0.12,0.067-0.254,0.067-0.374V14.442z"/>
	<path d="M73.829,13.293c0-0.761-0.013-1.416-0.053-2.017h1.028l0.04,1.269h0.053c0.294-0.868,1.002-1.416,1.79-1.416
		c0.134,0,0.227,0.013,0.334,0.04v1.109c-0.12-0.027-0.24-0.04-0.4-0.04c-0.828,0-1.416,0.628-1.577,1.51
		c-0.027,0.16-0.053,0.347-0.053,0.548v3.446h-1.162V13.293z"/>
	<path d="M81.712,17.741l-0.094-0.815h-0.04c-0.361,0.507-1.055,0.961-1.977,0.961c-1.309,0-1.977-0.922-1.977-1.857
		c0-1.563,1.389-2.418,3.887-2.404v-0.134c0-0.534-0.147-1.496-1.469-1.496c-0.601,0-1.229,0.187-1.683,0.481l-0.268-0.774
		c0.535-0.348,1.309-0.574,2.124-0.574c1.977,0,2.458,1.349,2.458,2.645v2.418c0,0.561,0.027,1.108,0.107,1.549H81.712z
		 M81.538,14.442c-1.282-0.027-2.738,0.2-2.738,1.456c0,0.761,0.508,1.122,1.109,1.122c0.841,0,1.376-0.535,1.563-1.082
		c0.04-0.12,0.066-0.254,0.066-0.374V14.442z"/>
	<path d="M91.816,16.74h-0.027c-0.348,0.641-1.069,1.149-2.111,1.149c-1.51,0-2.739-1.309-2.739-3.273
		c0-2.417,1.563-3.486,2.926-3.486c1.002,0,1.67,0.494,1.99,1.122h0.027l0.04-0.975h1.109c-0.027,0.548-0.04,1.108-0.04,1.777v7.333
		h-1.175V16.74z M91.816,13.894c0-0.16-0.014-0.348-0.054-0.494c-0.173-0.721-0.801-1.336-1.683-1.336
		c-1.216,0-1.951,1.028-1.951,2.485c0,1.282,0.615,2.404,1.91,2.404c0.761,0,1.416-0.468,1.683-1.282
		c0.053-0.16,0.094-0.387,0.094-0.561V13.894z"/>
	<path d="M100.342,15.978c0,0.668,0.013,1.256,0.053,1.763h-1.042l-0.067-1.055H99.26c-0.307,0.52-0.988,1.202-2.137,1.202
		c-1.015,0-2.231-0.561-2.231-2.832v-3.78h1.176v3.58c0,1.229,0.374,2.057,1.443,2.057c0.788,0,1.336-0.548,1.549-1.069
		c0.067-0.173,0.107-0.387,0.107-0.601v-3.967h1.176V15.978z"/>
	<path d="M102.951,14.723c0.027,1.59,1.042,2.244,2.217,2.244c0.841,0,1.349-0.147,1.79-0.334l0.201,0.842
		c-0.414,0.187-1.122,0.401-2.151,0.401c-1.99,0-3.179-1.309-3.179-3.26c0-1.95,1.149-3.486,3.032-3.486
		c2.111,0,2.672,1.857,2.672,3.045c0,0.24-0.027,0.427-0.04,0.548H102.951z M106.397,13.881c0.013-0.748-0.307-1.91-1.63-1.91
		c-1.189,0-1.71,1.095-1.803,1.91H106.397z M106.678,8.484l-1.63,1.91h-0.842l1.176-1.91H106.678z"/>
	<path d="M109.901,15.19l-0.027-0.348c-0.08-0.721,0.16-1.51,0.828-2.311c0.601-0.708,0.935-1.229,0.935-1.83
		c0-0.681-0.427-1.136-1.269-1.149c-0.481,0-1.015,0.16-1.349,0.414l-0.32-0.842c0.44-0.32,1.202-0.534,1.91-0.534
		c1.536,0,2.231,0.948,2.231,1.963c0,0.909-0.507,1.563-1.149,2.324c-0.588,0.695-0.802,1.282-0.761,1.964l0.013,0.348H109.901z
		 M109.607,17.06c0-0.494,0.334-0.841,0.802-0.841c0.467,0,0.788,0.348,0.788,0.841c0,0.468-0.307,0.828-0.802,0.828
		C109.927,17.888,109.607,17.528,109.607,17.06z"/>
	<path d="M57.896,40.973l0.04,0.347c0.08,0.722-0.173,1.483-0.841,2.284c-0.601,0.722-0.922,1.216-0.922,1.817
		c0,0.681,0.414,1.136,1.269,1.136c0.467,0,1.002-0.147,1.349-0.414l0.321,0.855c-0.454,0.307-1.215,0.535-1.924,0.535
		c-1.523,0-2.231-0.948-2.231-1.964c0-0.908,0.507-1.549,1.162-2.298c0.574-0.708,0.788-1.269,0.748-1.95l-0.013-0.347H57.896z
		 M58.176,39.076c0,0.468-0.307,0.841-0.788,0.841c-0.481,0-0.788-0.374-0.788-0.841c0-0.481,0.321-0.828,0.788-0.828
		C57.87,38.248,58.176,38.595,58.176,39.076z"/>
	<path d="M68.091,46.102c-1.216-0.321-2.405-0.681-3.447-1.042c-0.187-0.067-0.374-0.134-0.548-0.134
		c-2.137-0.08-3.967-1.657-3.967-4.555c0-2.885,1.763-4.742,4.195-4.742c2.445,0,4.034,1.897,4.034,4.555
		c0,2.311-1.069,3.794-2.565,4.315v0.053c0.895,0.227,1.87,0.441,2.632,0.575L68.091,46.102z M67.129,40.238
		c0-1.803-0.935-3.66-2.845-3.66c-1.964,0-2.925,1.816-2.912,3.767c-0.014,1.91,1.041,3.633,2.858,3.633
		C66.087,43.978,67.129,42.295,67.129,40.238z"/>
	<path d="M75.283,43.016c0,0.668,0.013,1.256,0.053,1.763h-1.042l-0.067-1.055H74.2c-0.307,0.521-0.988,1.202-2.137,1.202
		c-1.015,0-2.231-0.561-2.231-2.832v-3.78h1.176v3.579c0,1.229,0.374,2.057,1.443,2.057c0.788,0,1.336-0.548,1.549-1.069
		c0.067-0.173,0.107-0.387,0.107-0.601v-3.967h1.176V43.016z"/>
	<path d="M77.891,41.761c0.027,1.59,1.042,2.244,2.217,2.244c0.841,0,1.349-0.147,1.79-0.334l0.201,0.842
		c-0.414,0.187-1.122,0.401-2.151,0.401c-1.99,0-3.179-1.31-3.179-3.26s1.149-3.486,3.032-3.486c2.111,0,2.672,1.857,2.672,3.045
		c0,0.24-0.027,0.427-0.04,0.548H77.891z M81.338,40.919c0.013-0.748-0.307-1.91-1.63-1.91c-1.189,0-1.71,1.095-1.803,1.91H81.338z
		 M81.618,35.522l-1.63,1.91h-0.842l1.176-1.91H81.618z"/>
	<path d="M84.841,42.228l-0.027-0.348c-0.08-0.721,0.16-1.51,0.828-2.311c0.601-0.708,0.935-1.229,0.935-1.83
		c0-0.681-0.427-1.136-1.269-1.149c-0.481,0-1.015,0.16-1.349,0.414l-0.32-0.842c0.441-0.32,1.202-0.534,1.91-0.534
		c1.536,0,2.231,0.948,2.231,1.963c0,0.909-0.507,1.563-1.149,2.324c-0.588,0.694-0.802,1.282-0.761,1.964l0.013,0.348H84.841z
		 M84.547,44.098c0-0.494,0.334-0.841,0.802-0.841c0.467,0,0.788,0.347,0.788,0.841c0,0.468-0.307,0.828-0.802,0.828
		C84.868,44.926,84.547,44.566,84.547,44.098z"/>
	<path d="M94.89,40.973l0.04,0.347c0.08,0.722-0.173,1.483-0.841,2.284c-0.601,0.722-0.922,1.216-0.922,1.817
		c0,0.681,0.414,1.136,1.269,1.136c0.467,0,1.002-0.147,1.349-0.414l0.321,0.855c-0.454,0.307-1.215,0.535-1.924,0.535
		c-1.523,0-2.231-0.948-2.231-1.964c0-0.908,0.507-1.549,1.162-2.298c0.574-0.708,0.788-1.269,0.748-1.95l-0.013-0.347H94.89z
		 M95.171,39.076c0,0.468-0.307,0.841-0.789,0.841c-0.481,0-0.788-0.374-0.788-0.841c0-0.481,0.321-0.828,0.788-0.828
		C94.864,38.248,95.171,38.595,95.171,39.076z"/>
	<path d="M103.95,44.486c-0.427,0.214-1.282,0.427-2.378,0.427c-2.538,0-4.449-1.603-4.449-4.555c0-2.819,1.91-4.729,4.702-4.729
		c1.122,0,1.83,0.24,2.137,0.401l-0.281,0.948c-0.44-0.214-1.069-0.374-1.816-0.374c-2.111,0-3.513,1.349-3.513,3.713
		c0,2.204,1.269,3.62,3.46,3.62c0.708,0,1.429-0.147,1.897-0.374L103.95,44.486z"/>
	<path d="M111.073,41.494c0,2.391-1.656,3.433-3.219,3.433c-1.75,0-3.099-1.282-3.099-3.326c0-2.164,1.416-3.433,3.206-3.433
		C109.818,38.168,111.073,39.516,111.073,41.494z M105.944,41.56c0,1.416,0.815,2.485,1.964,2.485c1.122,0,1.964-1.055,1.964-2.511
		c0-1.095-0.548-2.484-1.937-2.484C106.545,39.049,105.944,40.332,105.944,41.56z"/>
	<path d="M112.56,40.064c0-0.668-0.014-1.215-0.053-1.75h1.042l0.067,1.069h0.027c0.32-0.615,1.069-1.215,2.137-1.215
		c0.895,0,2.284,0.534,2.284,2.751v3.861h-1.176v-3.727c0-1.042-0.387-1.91-1.496-1.91c-0.774,0-1.376,0.548-1.576,1.202
		c-0.053,0.147-0.08,0.348-0.08,0.548v3.887h-1.176V40.064z"/>
	<path d="M127.219,43.778h-0.027c-0.348,0.641-1.069,1.149-2.111,1.149c-1.51,0-2.739-1.309-2.739-3.273
		c0-2.417,1.563-3.486,2.926-3.486c1.002,0,1.67,0.494,1.99,1.122h0.027l0.04-0.975h1.109c-0.027,0.548-0.04,1.108-0.04,1.777v7.333
		h-1.175V43.778z M127.219,40.933c0-0.16-0.014-0.348-0.054-0.494c-0.173-0.721-0.801-1.336-1.683-1.336
		c-1.216,0-1.951,1.028-1.951,2.485c0,1.282,0.615,2.404,1.91,2.404c0.761,0,1.416-0.468,1.683-1.282
		c0.053-0.16,0.094-0.388,0.094-0.561V40.933z"/>
	<path d="M135.746,43.016c0,0.668,0.013,1.256,0.053,1.763h-1.042l-0.067-1.055h-0.027c-0.307,0.521-0.988,1.202-2.137,1.202
		c-1.015,0-2.231-0.561-2.231-2.832v-3.78h1.176v3.579c0,1.229,0.374,2.057,1.443,2.057c0.788,0,1.336-0.548,1.549-1.069
		c0.067-0.173,0.107-0.387,0.107-0.601v-3.967h1.176V43.016z"/>
	<path d="M138.354,41.761c0.027,1.59,1.042,2.244,2.217,2.244c0.841,0,1.349-0.147,1.79-0.334l0.201,0.842
		c-0.414,0.187-1.122,0.401-2.151,0.401c-1.99,0-3.179-1.31-3.179-3.26s1.149-3.486,3.032-3.486c2.111,0,2.672,1.857,2.672,3.045
		c0,0.24-0.027,0.427-0.04,0.548H138.354z M141.801,40.919c0.013-0.748-0.307-1.91-1.63-1.91c-1.189,0-1.71,1.095-1.803,1.91
		H141.801z M142.081,35.522l-1.63,1.91h-0.842l1.176-1.91H142.081z"/>
	<path d="M145.304,42.228l-0.027-0.348c-0.08-0.721,0.16-1.51,0.828-2.311c0.601-0.708,0.935-1.229,0.935-1.83
		c0-0.681-0.427-1.136-1.269-1.149c-0.481,0-1.015,0.16-1.349,0.414l-0.32-0.842c0.441-0.32,1.202-0.534,1.91-0.534
		c1.536,0,2.231,0.948,2.231,1.963c0,0.909-0.507,1.563-1.149,2.324c-0.588,0.694-0.802,1.282-0.761,1.964l0.013,0.348H145.304z
		 M145.01,44.098c0-0.494,0.334-0.841,0.802-0.841c0.467,0,0.788,0.347,0.788,0.841c0,0.468-0.307,0.828-0.802,0.828
		C145.331,44.926,145.01,44.566,145.01,44.098z"/>
</g>
</svg>
