<?xml version="1.0" encoding="utf-8"?>
<!-- Generator: Adobe Illustrator 17.0.0, SVG Export Plug-In . SVG Version: 6.00 Build 0)  -->
<!DOCTYPE svg PUBLIC "-//W3C//DTD SVG 1.1//EN" "http://www.w3.org/Graphics/SVG/1.1/DTD/svg11.dtd">
<svg version="1.1" id="Capa_1" xmlns="http://www.w3.org/2000/svg" xmlns:xlink="http://www.w3.org/1999/xlink" x="0px" y="0px"
	 width="527.184px" height="560.062px" viewBox="0 0 527.184 560.062" style="enable-background:new 0 0 527.184 560.062;"
	 xml:space="preserve">
<g style="opacity:0.15;">
	<g>
		<path style="fill:#008B8B;" d="M0,280.03c0-74.77,29.091-145.15,82.001-197.993C134.846,29.127,205.189,0,280.029,0
			c74.806,0,145.149,29.127,197.994,82.037l-1.689,1.656c-52.403-52.404-122.107-81.26-196.305-81.26
			c-74.232,0-143.866,28.855-196.306,81.26C31.253,136.164,2.432,205.901,2.432,280.03c0,74.131,28.821,143.866,81.292,196.34
			c52.44,52.403,122.074,81.259,196.306,81.259c74.197,0,143.901-28.855,196.305-81.259l1.689,1.655
			c-52.845,52.91-123.189,82.036-197.994,82.036c-74.84,0-145.184-29.126-198.028-82.036C29.091,425.18,0,354.869,0,280.03z"/>
	</g>
	<g>
		<path style="fill:#008B8B;" d="M40.138,280.03c0-64.06,25.004-124.27,70.313-169.577c45.275-45.31,105.484-70.277,169.579-70.277
			v2.464c-63.453,0-123.155,24.698-167.923,69.503C67.271,157.01,42.571,216.644,42.571,280.03
			c0,63.452,24.699,123.056,69.535,167.891c44.768,44.834,104.47,69.499,167.923,69.499c63.452,0,123.02-24.665,167.855-69.499
			c44.869-44.835,69.568-104.439,69.568-167.891h2.399c0,64.129-24.97,124.303-70.278,169.613
			c-45.207,45.273-105.484,70.244-169.545,70.244c-64.095,0-124.304-24.971-169.579-70.244
			C65.142,404.333,40.138,344.159,40.138,280.03z"/>
	</g>
	<g>
		<path style="fill:#008B8B;" d="M414.337,417.303l-1.689-1.689c36.826-36.896,57.2-85.922,57.2-138.056
			c0-52.167-20.374-101.193-57.2-138.055c-36.863-36.896-85.889-57.202-138.057-57.202c-52.166,0-101.157,20.306-138.054,57.202
			c-36.83,36.861-57.204,85.888-57.204,138.055c0,52.134,20.374,101.159,57.204,138.056l-1.689,1.689
			c-37.303-37.302-57.879-86.969-57.879-139.745c0-52.809,20.576-102.41,57.879-139.711c37.335-37.268,86.967-57.878,139.743-57.878
			c52.775,0,102.443,20.61,139.746,57.878c37.369,37.301,57.877,86.902,57.877,139.711
			C472.214,330.334,451.707,380.001,414.337,417.303z"/>
	</g>
	<g>
		<path style="fill:#008B8B;" d="M274.591,439.298c-43.18,0-83.793-16.759-114.405-47.37
			c-30.475-30.543-47.301-71.156-47.301-114.37c0-43.18,16.826-83.826,47.301-114.337l1.724,1.723
			c-30.103,30.072-46.659,70.009-46.659,112.614c0,42.572,16.557,82.61,46.659,112.715c30.105,30.037,70.143,46.627,112.682,46.627
			c42.571,0,82.576-16.59,112.681-46.627c30.105-30.104,46.661-70.143,46.661-112.715c0-42.605-16.556-82.542-46.661-112.614
			l1.724-1.723c30.578,30.511,47.371,71.157,47.371,114.337c0,43.214-16.793,83.827-47.371,114.37
			C358.384,422.539,317.806,439.298,274.591,439.298z"/>
	</g>
	<g>
		<path style="fill:#008B8B;" d="M274.591,398.651c-32.335,0-62.709-12.669-85.617-35.544c-22.841-22.84-35.408-53.182-35.408-85.55
			c0-32.334,12.567-62.709,35.408-85.583c22.908-22.908,53.282-35.477,85.617-35.477c32.334,0,62.711,12.568,85.619,35.477
			l-1.723,1.757c-22.402-22.436-52.203-34.802-83.896-34.802c-31.691,0-61.458,12.366-83.86,34.802
			c-22.399,22.367-34.768,52.167-34.768,83.826c0,31.693,12.368,61.493,34.768,83.86c22.402,22.469,52.169,34.802,83.86,34.802
			c31.693,0,61.494-12.333,83.896-34.802l1.723,1.689C337.302,385.982,306.925,398.651,274.591,398.651z"/>
	</g>
	<path style="fill:#008B8B;" d="M478.023,91.634c-5.272,0-9.596-4.327-9.596-9.597c0-5.34,4.324-9.598,9.596-9.598
		c5.338,0,9.662,4.258,9.662,9.598C487.685,87.307,483.361,91.634,478.023,91.634z"/>
	<path style="fill:#008B8B;" d="M280.029,52.032c-5.305,0-9.629-4.257-9.629-9.594c0-5.273,4.324-9.597,9.629-9.597
		s9.629,4.324,9.629,9.597C289.658,47.775,285.334,52.032,280.029,52.032z"/>
	<path style="fill:#008B8B;" d="M144.612,415.477c0,5.272-4.324,9.562-9.63,9.562c-5.271,0-9.595-4.29-9.595-9.562
		c0-5.372,4.324-9.629,9.595-9.629C140.288,405.849,144.612,410.105,144.612,415.477z"/>
	<path style="fill:#008B8B;" d="M424.947,414.769c0,5.236-4.324,9.561-9.598,9.561c-5.336,0-9.663-4.325-9.663-9.561
		c0-5.305,4.327-9.697,9.663-9.697C420.623,405.071,424.947,409.464,424.947,414.769z"/>
	<path style="fill:#008B8B;" d="M367.846,363.547c0,5.237-4.26,9.562-9.597,9.562c-5.34,0-9.597-4.324-9.597-9.562
		c0-5.372,4.257-9.698,9.597-9.698C363.586,353.849,367.846,358.175,367.846,363.547z"/>
	<path style="fill:#008B8B;" d="M169.649,165.249c0,5.338-4.257,9.629-9.597,9.629c-5.304,0-9.595-4.291-9.595-9.629
		c0-5.238,4.291-9.528,9.595-9.528C165.392,155.721,169.649,160.011,169.649,165.249z"/>
	<path style="fill:#008B8B;" d="M517.521,291.722c-5.271,0-9.528-4.291-9.528-9.564c0-5.37,4.257-9.627,9.528-9.627
		c5.372,0,9.662,4.257,9.662,9.627C527.184,287.431,522.893,291.722,517.521,291.722z"/>
	<path style="fill:#008B8B;" d="M476.874,485.391c-5.27,0-9.527-4.257-9.527-9.597c0-5.304,4.258-9.595,9.527-9.595
		c5.34,0,9.597,4.291,9.597,9.595C486.471,481.134,482.214,485.391,476.874,485.391z"/>
	<path style="fill:#008B8B;" d="M396.327,164.37c0,5.271-4.291,9.596-9.628,9.596c-5.306,0-9.597-4.324-9.597-9.596
		c0-5.406,4.291-9.664,9.597-9.664C392.036,154.706,396.327,158.964,396.327,164.37z"/>
	<path style="fill:#008B8B;" d="M369.164,192.211c0,5.339-4.291,9.629-9.564,9.629c-5.373,0-9.663-4.29-9.663-9.629
		c0-5.27,4.29-9.561,9.663-9.561C364.873,182.649,369.164,186.94,369.164,192.211z"/>
</g>
</svg>
