<?xml version="1.0" encoding="utf-8"?>
<!-- Generator: Adobe Illustrator 17.0.0, SVG Export Plug-In . SVG Version: 6.00 Build 0)  -->
<!DOCTYPE svg PUBLIC "-//W3C//DTD SVG 1.1//EN" "http://www.w3.org/Graphics/SVG/1.1/DTD/svg11.dtd">
<svg version="1.1" id="Capa_1" xmlns="http://www.w3.org/2000/svg" xmlns:xlink="http://www.w3.org/1999/xlink" x="0px" y="0px"
	 width="495.728px" height="466.639px" viewBox="0 0 495.728 466.639" style="enable-background:new 0 0 495.728 466.639;"
	 xml:space="preserve">
<g style="opacity:0.15;">
	<g>
		<path style="fill:#191818;" d="M247.863,466.639c-66.188,0-128.46-25.746-175.256-72.575C25.778,347.268,0,284.997,0,218.774
			C0,152.55,25.778,90.281,72.607,43.518l1.454,1.487C27.706,91.395,2.129,153.092,2.129,218.774s25.577,127.344,71.933,173.769
			c46.457,46.424,108.187,71.933,173.802,71.933c65.617,0,127.346-25.51,173.804-71.933
			c46.356-46.425,71.933-108.086,71.933-173.769S468.023,91.395,421.667,45.006l1.451-1.487
			c46.862,46.763,72.61,109.031,72.61,175.256c0,66.223-25.748,128.493-72.61,175.289
			C376.322,440.893,314.087,466.639,247.863,466.639z"/>
	</g>
	<g>
		<path style="fill:#191818;" d="M247.863,431.094c-56.695,0-110.011-22.13-150.082-62.236
			c-40.107-40.038-62.238-93.354-62.238-150.083h2.162c0,56.154,21.896,108.998,61.562,148.63
			c39.699,39.7,92.476,61.561,148.597,61.561c56.154,0,108.93-21.861,148.599-61.561c39.699-39.632,61.559-92.476,61.559-148.63
			s-21.859-108.896-61.559-148.598C356.793,30.477,304.018,8.617,247.863,8.617V6.488c56.764,0,110.013,22.097,150.117,62.202
			c40.105,40.037,62.202,93.388,62.202,150.084c0,56.729-22.097,110.045-62.202,150.083
			C357.876,408.964,304.627,431.094,247.863,431.094z"/>
	</g>
	<g>
		<path style="fill:#191818;" d="M371.56,342.47l-1.523-1.487c32.64-32.671,50.684-76.055,50.684-122.208
			s-18.044-89.57-50.684-122.21c-32.602-32.638-75.985-50.613-122.174-50.613c-46.152,0-89.536,17.976-122.175,50.613
			c-32.64,32.64-50.682,76.057-50.682,122.21s18.042,89.537,50.682,122.208l-1.52,1.487
			c-33.012-33.044-51.256-76.969-51.256-123.695c0-46.762,18.244-90.651,51.256-123.663c33.076-33.01,76.966-51.255,123.694-51.255
			s90.685,18.245,123.696,51.255c33.078,33.012,51.257,76.901,51.257,123.663C422.816,265.501,404.638,309.426,371.56,342.47z"/>
	</g>
	<g>
		<path style="fill:#191818;" d="M247.863,361.932c-38.215,0-74.196-14.833-101.261-41.93
			c-26.995-27.03-41.861-62.98-41.861-101.228c0-38.214,14.866-74.197,41.861-101.228l1.521,1.554
			c-26.626,26.625-41.288,61.968-41.288,99.674c0,37.673,14.662,73.115,41.288,99.774c26.622,26.591,62.101,41.254,99.739,41.254
			c37.674,0,73.116-14.663,99.741-41.254c26.623-26.659,41.288-62.102,41.288-99.774c0-37.706-14.665-73.049-41.288-99.674
			l1.485-1.554c27.099,27.03,41.965,63.014,41.965,101.228c0,38.248-14.866,74.197-41.965,101.228
			C322.061,347.099,286.11,361.932,247.863,361.932z"/>
	</g>
	<g>
		<path style="fill:#191818;" d="M247.863,325.948c-28.617,0-55.479-11.218-75.752-31.456
			c-20.27-20.205-31.352-47.067-31.352-75.718c0-28.618,11.082-55.513,31.352-75.751c20.273-20.273,47.135-31.423,75.752-31.423
			c28.619,0,55.48,11.149,75.751,31.423l-1.485,1.554c-19.834-19.866-46.223-30.814-74.266-30.814
			c-28.044,0-54.398,10.948-74.264,30.814c-19.801,19.799-30.749,46.153-30.749,74.197s10.948,54.432,30.749,74.23
			c19.865,19.9,46.22,30.814,74.264,30.814c28.043,0,54.432-10.914,74.266-30.814l1.485,1.487
			C303.344,314.73,276.482,325.948,247.863,325.948z"/>
	</g>
	<path style="fill:#191818;" d="M81.089,43.518c0,4.663-3.785,8.515-8.482,8.515c-4.696,0-8.515-3.852-8.515-8.515
		c0-4.729,3.818-8.548,8.515-8.548C77.304,34.971,81.089,38.789,81.089,43.518z"/>
	<path style="fill:#191818;" d="M46.085,218.774c0,4.696-3.784,8.515-8.514,8.515c-4.663,0-8.515-3.818-8.515-8.515
		s3.851-8.515,8.515-8.515C42.301,210.26,46.085,214.078,46.085,218.774z"/>
	<path style="fill:#191818;" d="M132.817,340.849c0,4.662-3.817,8.48-8.514,8.48c-4.696,0-8.515-3.817-8.515-8.48
		c0-4.731,3.818-8.515,8.515-8.515C129,332.334,132.817,336.117,132.817,340.849z"/>
	<path style="fill:#191818;" d="M380.952,340.206c0,4.663-3.818,8.479-8.515,8.479c-4.696,0-8.515-3.816-8.515-8.479
		c0-4.696,3.818-8.549,8.515-8.549C377.134,331.657,380.952,335.51,380.952,340.206z"/>
	<path style="fill:#191818;" d="M330.439,294.862c0,4.663-3.818,8.481-8.515,8.481c-4.73,0-8.515-3.818-8.515-8.481
		c0-4.729,3.784-8.548,8.515-8.548C326.621,286.314,330.439,290.133,330.439,294.862z"/>
	<path style="fill:#191818;" d="M154.948,119.371c0,4.697-3.75,8.516-8.48,8.516c-4.696,0-8.48-3.818-8.48-8.516
		c0-4.661,3.784-8.446,8.48-8.446C151.198,110.925,154.948,114.71,154.948,119.371z"/>
	<path style="fill:#191818;" d="M258.204,8.55c0,4.661-3.785,8.445-8.447,8.445c-4.73,0-8.515-3.784-8.515-8.445
		c0-4.765,3.784-8.55,8.515-8.55C254.419,0,258.204,3.785,258.204,8.55z"/>
	<path style="fill:#191818;" d="M429.641,44.533c0,4.662-3.784,8.445-8.48,8.445c-4.696,0-8.515-3.783-8.515-8.445
		c0-4.731,3.818-8.515,8.515-8.515C425.857,36.018,429.641,39.802,429.641,44.533z"/>
	<path style="fill:#191818;" d="M355.613,118.595c0,4.663-3.818,8.481-8.551,8.481c-4.66,0-8.444-3.817-8.444-8.481
		c0-4.799,3.784-8.583,8.444-8.583C351.795,110.012,355.613,113.796,355.613,118.595z"/>
	<path style="fill:#191818;" d="M331.589,143.226c0,4.73-3.784,8.515-8.515,8.515c-4.729,0-8.515-3.784-8.515-8.515
		c0-4.662,3.785-8.447,8.515-8.447C327.805,134.778,331.589,138.563,331.589,143.226z"/>
</g>
</svg>
