<?xml version="1.0" encoding="utf-8"?>
<!-- Generator: Adobe Illustrator 17.0.0, SVG Export Plug-In . SVG Version: 6.00 Build 0)  -->
<!DOCTYPE svg PUBLIC "-//W3C//DTD SVG 1.1//EN" "http://www.w3.org/Graphics/SVG/1.1/DTD/svg11.dtd" [
	<!ENTITY ns_extend "http://ns.adobe.com/Extensibility/1.0/">
	<!ENTITY ns_ai "http://ns.adobe.com/AdobeIllustrator/10.0/">
	<!ENTITY ns_graphs "http://ns.adobe.com/Graphs/1.0/">
	<!ENTITY ns_vars "http://ns.adobe.com/Variables/1.0/">
	<!ENTITY ns_imrep "http://ns.adobe.com/ImageReplacement/1.0/">
	<!ENTITY ns_sfw "http://ns.adobe.com/SaveForWeb/1.0/">
	<!ENTITY ns_custom "http://ns.adobe.com/GenericCustomNamespace/1.0/">
	<!ENTITY ns_adobe_xpath "http://ns.adobe.com/XPath/1.0/">
]>
<svg version="1.1" id="Capa_1" xmlns:x="&ns_extend;" xmlns:i="&ns_ai;" xmlns:graph="&ns_graphs;"
	 xmlns="http://www.w3.org/2000/svg" xmlns:xlink="http://www.w3.org/1999/xlink" x="0px" y="0px" width="243.003px"
	 height="31.705px" viewBox="0 0 243.003 31.705" enable-background="new 0 0 243.003 31.705" xml:space="preserve">
<metadata>
	<sfw  xmlns="&ns_sfw;">
		<slices></slices>
		<sliceSourceBounds  width="243.003" height="31.705" x="517.999" y="284.648" bottomLeftOrigin="true"></sliceSourceBounds>
	</sfw>
</metadata>
<g>
	<g>
		<path fill="#6FC2D8" d="M72.226,28.086c3.158,0,6.259-1.083,8.732-3.049c6.063-4.816,7.076-13.667,2.261-19.729
			C80.539,1.935,76.531,0,72.221,0c-3.156,0-6.258,1.084-8.733,3.049c-2.936,2.333-4.789,5.67-5.215,9.396
			c-0.203,1.774-0.075,3.537,0.383,5.24c0.285,1.062,0.696,2.092,1.225,3.061c0.244,0.445,0.804,0.61,1.251,0.367
			c0.447-0.244,0.611-0.804,0.367-1.251c-0.458-0.841-0.817-1.733-1.063-2.654c-0.397-1.478-0.508-3.01-0.331-4.553
			c0.37-3.237,1.979-6.138,4.531-8.164c2.149-1.707,4.843-2.648,7.585-2.648c3.744,0,7.226,1.681,9.555,4.61
			c4.185,5.267,3.305,12.956-1.961,17.14c-2.15,1.709-4.846,2.649-7.588,2.649c-0.508,0-0.921,0.412-0.921,0.922
			C71.306,27.673,71.719,28.086,72.226,28.086"/>
		<path fill="#6FC2D8" d="M72.226,23.938c2.225,0,4.41-0.762,6.153-2.147c4.271-3.394,4.986-9.632,1.592-13.904
			c-1.889-2.376-4.714-3.738-7.751-3.738c-2.225,0-4.41,0.762-6.151,2.147c-2.069,1.645-3.375,3.996-3.676,6.623
			c-0.15,1.313-0.044,2.615,0.319,3.87c0.141,0.488,0.65,0.771,1.141,0.63c0.488-0.142,0.771-0.652,0.629-1.142
			c-0.293-1.019-0.381-2.079-0.258-3.149c0.244-2.137,1.307-4.05,2.99-5.389c1.418-1.127,3.196-1.747,5.006-1.747
			c2.471,0,4.771,1.108,6.308,3.043c2.761,3.476,2.18,8.551-1.296,11.313c-1.419,1.127-3.196,1.748-5.007,1.748
			c-0.508,0-0.921,0.412-0.921,0.922C71.306,23.525,71.719,23.938,72.226,23.938"/>
		<path fill="#FFFFFF" d="M67.398,14.043c0,2.665,2.16,4.826,4.824,4.826c2.667,0,4.828-2.161,4.828-4.826s-2.161-4.826-4.828-4.826
			C69.558,9.217,67.398,11.378,67.398,14.043"/>
		<circle fill="none" stroke="#FFFFFF" stroke-width="0.115" stroke-miterlimit="10" cx="72.224" cy="14.043" r="4.826"/>
		<path fill="#6FC2D8" d="M72.226,19.791c-1.766,0-3.405-0.792-4.503-2.172c-1.972-2.481-1.558-6.104,0.925-8.076
			c1.014-0.805,2.281-1.248,3.572-1.248c1.766,0,3.407,0.792,4.504,2.172c1.971,2.482,1.557,6.105-0.925,8.076
			C74.787,19.348,73.517,19.791,72.226,19.791 M72.221,10.139c-0.889,0-1.729,0.293-2.425,0.848
			c-1.687,1.339-1.968,3.801-0.629,5.486c0.745,0.938,1.86,1.475,3.06,1.475c0.889,0,1.729-0.293,2.427-0.848
			c1.685-1.338,1.967-3.8,0.629-5.486C74.535,10.676,73.422,10.139,72.221,10.139"/>
		<path fill="#FFFFFF" d="M66.197,30.848c-1.308,0-2.367-1.06-2.367-2.369v-6.056c0-1.766,1.431-3.196,3.195-3.196l3.236-0.006
			v-4.734c0-0.999,0.777-1.85,1.777-1.887c1.048-0.037,1.91,0.803,1.91,1.843v8.272l0.483-1.008c0.263-0.55,0.759-0.861,1.272-0.861
			c0.237,0,0.476,0.065,0.697,0.203c0.703,0.441,0.961,1.448,0.575,2.252c0,0-1.595,3.733-2.734,6.179
			c-0.388,0.835-1.226,1.368-2.146,1.368H66.197z"/>
		<path fill="none" stroke="#6FC2D8" stroke-width="1.714" stroke-miterlimit="10" d="M66.197,30.848
			c-1.308,0-2.367-1.06-2.367-2.369v-6.056c0-1.766,1.431-3.196,3.195-3.196l3.236-0.006v-4.734c0-0.999,0.777-1.85,1.777-1.887
			c1.048-0.037,1.91,0.803,1.91,1.843v8.272l0.483-1.008c0.263-0.55,0.759-0.861,1.272-0.861c0.237,0,0.476,0.065,0.697,0.203
			c0.703,0.441,0.961,1.448,0.575,2.252c0,0-1.595,3.733-2.734,6.179c-0.388,0.835-1.226,1.368-2.146,1.368H66.197z"/>
	</g>
	<g>
		<path fill="#1E120D" d="M110.648,11.914l0.947,0.239c-0.198,0.778-0.556,1.371-1.072,1.78c-0.516,0.408-1.146,0.612-1.892,0.612
			c-0.771,0-1.399-0.157-1.882-0.472c-0.484-0.313-0.852-0.769-1.104-1.364c-0.253-0.596-0.379-1.235-0.379-1.919
			c0-0.745,0.143-1.396,0.428-1.951c0.284-0.555,0.689-0.977,1.215-1.264c0.526-0.289,1.104-0.433,1.736-0.433
			c0.716,0,1.318,0.183,1.807,0.547c0.488,0.364,0.828,0.877,1.021,1.538l-0.933,0.22c-0.166-0.521-0.407-0.9-0.723-1.138
			s-0.713-0.356-1.191-0.356c-0.55,0-1.01,0.132-1.379,0.396c-0.37,0.264-0.63,0.617-0.779,1.063
			c-0.149,0.443-0.225,0.902-0.225,1.374c0,0.608,0.089,1.14,0.266,1.595c0.178,0.453,0.454,0.793,0.828,1.018
			s0.779,0.337,1.216,0.337c0.53,0,0.979-0.153,1.348-0.459S110.518,12.517,110.648,11.914z"/>
		<path fill="#1E120D" d="M112.341,14.424V7.266h0.879v7.158H112.341z"/>
		<path fill="#1E120D" d="M114.297,8.276v-1.01h0.879v1.011L114.297,8.276L114.297,8.276z M114.297,14.424V9.238h0.879v5.186
			H114.297z"/>
		<path fill="#1E120D" d="M119.607,12.525l0.864,0.112c-0.095,0.596-0.336,1.063-0.726,1.398c-0.389,0.338-0.866,0.506-1.433,0.506
			c-0.71,0-1.28-0.232-1.712-0.695c-0.431-0.465-0.646-1.129-0.646-1.995c0-0.56,0.093-1.05,0.278-1.47s0.468-0.734,0.847-0.945
			c0.38-0.209,0.792-0.314,1.238-0.314c0.563,0,1.023,0.143,1.382,0.428c0.358,0.284,0.588,0.688,0.688,1.213l-0.854,0.132
			c-0.081-0.349-0.226-0.61-0.433-0.786c-0.206-0.176-0.456-0.264-0.749-0.264c-0.442,0-0.803,0.158-1.079,0.477
			c-0.276,0.316-0.415,0.819-0.415,1.506c0,0.696,0.134,1.203,0.4,1.519s0.615,0.474,1.045,0.474c0.345,0,0.633-0.105,0.864-0.317
			S119.546,12.964,119.607,12.525z"/>
		<path fill="#1E120D" d="M123.07,12.876l0.869-0.137c0.049,0.349,0.185,0.615,0.407,0.801c0.224,0.186,0.535,0.278,0.936,0.278
			c0.403,0,0.703-0.082,0.898-0.246c0.195-0.165,0.293-0.357,0.293-0.579c0-0.198-0.086-0.354-0.259-0.469
			c-0.12-0.078-0.42-0.178-0.898-0.298c-0.645-0.163-1.091-0.304-1.341-0.422c-0.248-0.119-0.438-0.283-0.566-0.494
			c-0.128-0.209-0.192-0.441-0.192-0.695c0-0.231,0.053-0.445,0.159-0.643c0.105-0.196,0.249-0.36,0.432-0.49
			c0.137-0.101,0.323-0.187,0.559-0.256c0.236-0.07,0.489-0.105,0.76-0.105c0.407,0,0.764,0.059,1.072,0.176
			c0.307,0.117,0.534,0.275,0.681,0.477c0.146,0.199,0.247,0.468,0.303,0.803l-0.859,0.117c-0.039-0.267-0.152-0.476-0.339-0.625
			c-0.188-0.149-0.452-0.225-0.794-0.225c-0.403,0-0.691,0.066-0.864,0.2s-0.259,0.29-0.259,0.469c0,0.114,0.036,0.217,0.107,0.308
			c0.071,0.095,0.184,0.173,0.337,0.234c0.088,0.032,0.347,0.107,0.776,0.225c0.622,0.166,1.056,0.302,1.302,0.408
			c0.245,0.105,0.438,0.259,0.578,0.461s0.21,0.452,0.21,0.752c0,0.293-0.085,0.568-0.257,0.828c-0.17,0.258-0.417,0.459-0.739,0.6
			c-0.322,0.143-0.687,0.213-1.094,0.213c-0.674,0-1.188-0.14-1.54-0.42C123.393,13.841,123.168,13.426,123.07,12.876z"/>
		<path fill="#1E120D" d="M127.805,11.831c0-0.96,0.267-1.672,0.801-2.134c0.446-0.384,0.989-0.576,1.631-0.576
			c0.713,0,1.296,0.233,1.748,0.701c0.452,0.467,0.679,1.112,0.679,1.936c0,0.667-0.101,1.192-0.3,1.574
			c-0.201,0.383-0.492,0.68-0.875,0.892c-0.382,0.212-0.8,0.317-1.252,0.317c-0.726,0-1.313-0.232-1.76-0.698
			C128.028,13.377,127.805,12.707,127.805,11.831z M128.708,11.831c0,0.664,0.145,1.161,0.435,1.491
			c0.29,0.331,0.654,0.496,1.094,0.496c0.437,0,0.799-0.166,1.089-0.498s0.435-0.838,0.435-1.519c0-0.642-0.146-1.127-0.438-1.458
			c-0.291-0.33-0.653-0.495-1.086-0.495c-0.439,0-0.804,0.164-1.094,0.493S128.708,11.167,128.708,11.831z"/>
		<path fill="#1E120D" d="M134.214,14.424h-0.815V7.266h0.879V9.82c0.371-0.466,0.845-0.698,1.421-0.698
			c0.319,0,0.621,0.064,0.905,0.193c0.285,0.128,0.52,0.309,0.703,0.541c0.185,0.233,0.328,0.514,0.433,0.843
			s0.156,0.681,0.156,1.055c0,0.889-0.22,1.575-0.659,2.061s-0.967,0.728-1.582,0.728c-0.612,0-1.092-0.256-1.44-0.767v0.648
			H134.214z M134.204,11.792c0,0.622,0.085,1.071,0.254,1.348c0.276,0.452,0.651,0.679,1.123,0.679c0.384,0,0.716-0.167,0.996-0.5
			c0.28-0.334,0.42-0.831,0.42-1.492c0-0.677-0.134-1.177-0.403-1.499c-0.268-0.322-0.593-0.483-0.974-0.483
			c-0.384,0-0.716,0.167-0.996,0.5S134.204,11.16,134.204,11.792z"/>
		<path fill="#1E120D" d="M138.665,14.424V9.238h0.791v0.786c0.202-0.368,0.388-0.61,0.56-0.728c0.17-0.117,0.358-0.176,0.563-0.176
			c0.296,0,0.598,0.095,0.903,0.283l-0.303,0.815c-0.215-0.127-0.43-0.19-0.645-0.19c-0.192,0-0.364,0.058-0.518,0.174
			c-0.153,0.115-0.262,0.275-0.327,0.48c-0.098,0.313-0.146,0.654-0.146,1.025v2.715h-0.878V14.424z"/>
		<path fill="#1E120D" d="M145.264,12.754l0.908,0.112c-0.144,0.53-0.408,0.942-0.796,1.235s-0.882,0.439-1.484,0.439
			c-0.759,0-1.36-0.233-1.804-0.701c-0.445-0.467-0.667-1.122-0.667-1.965c0-0.872,0.225-1.55,0.674-2.031s1.032-0.723,1.748-0.723
			c0.693,0,1.26,0.236,1.699,0.708s0.659,1.136,0.659,1.992c0,0.052-0.002,0.13-0.005,0.234h-3.867
			c0.032,0.569,0.193,1.006,0.483,1.309s0.651,0.454,1.084,0.454c0.322,0,0.598-0.085,0.825-0.254S145.131,13.125,145.264,12.754z
			 M142.379,11.333h2.896c-0.039-0.437-0.149-0.764-0.332-0.981c-0.28-0.339-0.643-0.508-1.089-0.508
			c-0.403,0-0.743,0.135-1.019,0.405C142.56,10.52,142.408,10.881,142.379,11.333z"/>
		<path fill="#1E120D" d="M150.285,14.424h-0.815V7.266h0.879V9.82c0.371-0.466,0.845-0.698,1.421-0.698
			c0.319,0,0.621,0.064,0.905,0.193c0.285,0.128,0.52,0.309,0.703,0.541c0.185,0.233,0.328,0.514,0.433,0.843
			s0.156,0.681,0.156,1.055c0,0.889-0.22,1.575-0.659,2.061s-0.967,0.728-1.582,0.728c-0.612,0-1.092-0.256-1.44-0.767v0.648
			H150.285z M150.275,11.792c0,0.622,0.085,1.071,0.254,1.348c0.276,0.452,0.651,0.679,1.123,0.679c0.384,0,0.716-0.167,0.996-0.5
			c0.28-0.334,0.42-0.831,0.42-1.492c0-0.677-0.134-1.177-0.403-1.499c-0.268-0.322-0.593-0.483-0.974-0.483
			c-0.384,0-0.716,0.167-0.996,0.5S150.275,11.16,150.275,11.792z"/>
		<path fill="#1E120D" d="M154.419,11.831c0-0.96,0.267-1.672,0.801-2.134c0.446-0.384,0.989-0.576,1.631-0.576
			c0.713,0,1.296,0.233,1.748,0.701c0.452,0.467,0.679,1.112,0.679,1.936c0,0.667-0.101,1.192-0.3,1.574
			c-0.201,0.383-0.492,0.68-0.875,0.892c-0.382,0.212-0.8,0.317-1.252,0.317c-0.726,0-1.313-0.232-1.76-0.698
			C154.642,13.377,154.419,12.707,154.419,11.831z M155.322,11.831c0,0.664,0.145,1.161,0.435,1.491
			c0.29,0.331,0.654,0.496,1.094,0.496c0.437,0,0.799-0.166,1.089-0.498s0.435-0.838,0.435-1.519c0-0.642-0.146-1.127-0.438-1.458
			c-0.291-0.33-0.653-0.495-1.086-0.495c-0.439,0-0.804,0.164-1.094,0.493S155.322,11.167,155.322,11.831z"/>
		<path fill="#1E120D" d="M161.937,13.638l0.127,0.776c-0.247,0.052-0.469,0.078-0.664,0.078c-0.319,0-0.566-0.051-0.742-0.151
			s-0.3-0.233-0.371-0.397c-0.071-0.165-0.107-0.511-0.107-1.038V9.922h-0.645V9.238h0.645V7.954l0.874-0.527v1.812h0.884v0.684
			h-0.884v3.032c0,0.251,0.016,0.412,0.046,0.483c0.031,0.071,0.082,0.129,0.152,0.171c0.069,0.042,0.17,0.063,0.3,0.063
			C161.649,13.672,161.778,13.66,161.937,13.638z"/>
		<path fill="#1E120D" d="M162.18,11.831c0-0.96,0.267-1.672,0.801-2.134c0.446-0.384,0.989-0.576,1.631-0.576
			c0.713,0,1.296,0.233,1.748,0.701c0.452,0.467,0.679,1.112,0.679,1.936c0,0.667-0.101,1.192-0.3,1.574
			c-0.201,0.383-0.492,0.68-0.875,0.892c-0.382,0.212-0.8,0.317-1.252,0.317c-0.726,0-1.313-0.232-1.76-0.698
			C162.403,13.377,162.18,12.707,162.18,11.831z M163.083,11.831c0,0.664,0.145,1.161,0.435,1.491
			c0.29,0.331,0.654,0.496,1.094,0.496c0.437,0,0.799-0.166,1.089-0.498s0.435-0.838,0.435-1.519c0-0.642-0.146-1.127-0.438-1.458
			c-0.291-0.33-0.653-0.495-1.086-0.495c-0.439,0-0.804,0.164-1.094,0.493S163.083,11.167,163.083,11.831z M164.123,8.594
			l0.649-1.367h1.152l-1.074,1.367H164.123z"/>
		<path fill="#1E120D" d="M167.778,14.424V9.238h0.791v0.737c0.381-0.569,0.931-0.854,1.65-0.854c0.313,0,0.6,0.057,0.862,0.168
			c0.262,0.113,0.458,0.26,0.588,0.442s0.222,0.398,0.273,0.649c0.032,0.163,0.049,0.447,0.049,0.854v3.188h-0.879V11.27
			c0-0.358-0.034-0.626-0.103-0.803c-0.068-0.178-0.189-0.319-0.364-0.426c-0.174-0.105-0.378-0.158-0.612-0.158
			c-0.374,0-0.697,0.119-0.97,0.356c-0.271,0.237-0.407,0.688-0.407,1.353v2.832C168.656,14.424,167.778,14.424,167.778,14.424z"/>
		<path fill="#1E120D" d="M94.062,28.411v-7.173h0.801v0.674c0.188-0.264,0.402-0.461,0.64-0.594
			c0.237-0.131,0.525-0.197,0.864-0.197c0.442,0,0.833,0.114,1.172,0.342s0.594,0.549,0.767,0.965
			c0.173,0.414,0.259,0.869,0.259,1.364c0,0.53-0.095,1.009-0.286,1.433c-0.189,0.426-0.467,0.751-0.83,0.977
			c-0.362,0.227-0.744,0.34-1.145,0.34c-0.293,0-0.556-0.062-0.789-0.186c-0.232-0.124-0.424-0.28-0.573-0.469v2.524
			C94.942,28.411,94.062,28.411,94.062,28.411z M94.858,23.86c0,0.667,0.135,1.16,0.405,1.479s0.598,0.479,0.981,0.479
			c0.391,0,0.725-0.165,1.004-0.496c0.277-0.33,0.417-0.842,0.417-1.535c0-0.661-0.136-1.155-0.407-1.484
			c-0.272-0.329-0.597-0.493-0.975-0.493c-0.374,0-0.705,0.175-0.994,0.524C95.003,22.685,94.858,23.193,94.858,23.86z"/>
		<path fill="#1E120D" d="M102.718,25.784c-0.325,0.276-0.639,0.472-0.939,0.586c-0.302,0.114-0.625,0.171-0.97,0.171
			c-0.569,0-1.008-0.139-1.313-0.418c-0.306-0.277-0.459-0.634-0.459-1.066c0-0.254,0.058-0.486,0.174-0.695
			c0.115-0.211,0.267-0.379,0.453-0.506c0.188-0.127,0.398-0.223,0.633-0.288c0.173-0.046,0.433-0.09,0.781-0.132
			c0.71-0.085,1.232-0.186,1.567-0.303c0.003-0.12,0.005-0.197,0.005-0.229c0-0.358-0.083-0.61-0.249-0.757
			c-0.225-0.198-0.559-0.298-1.001-0.298c-0.413,0-0.719,0.072-0.916,0.218c-0.196,0.145-0.342,0.4-0.437,0.769l-0.859-0.117
			c0.078-0.368,0.207-0.665,0.386-0.892c0.179-0.226,0.438-0.4,0.776-0.521c0.339-0.123,0.73-0.184,1.177-0.184
			c0.442,0,0.803,0.052,1.079,0.156s0.48,0.235,0.61,0.393c0.13,0.158,0.222,0.357,0.273,0.599c0.029,0.149,0.044,0.42,0.044,0.811
			v1.172c0,0.817,0.019,1.334,0.056,1.55c0.038,0.217,0.112,0.425,0.223,0.623h-0.918C102.803,26.241,102.744,26.028,102.718,25.784
			z M102.644,23.821c-0.319,0.13-0.798,0.241-1.436,0.332c-0.361,0.052-0.617,0.11-0.767,0.176s-0.266,0.16-0.347,0.286
			c-0.081,0.125-0.122,0.264-0.122,0.417c0,0.234,0.089,0.43,0.266,0.586c0.178,0.156,0.438,0.234,0.779,0.234
			c0.339,0,0.64-0.074,0.903-0.222c0.264-0.148,0.457-0.352,0.581-0.608c0.095-0.198,0.142-0.491,0.142-0.879L102.644,23.821
			L102.644,23.821z"/>
		<path fill="#1E120D" d="M104.596,26.424v-5.186h0.791v0.786c0.202-0.368,0.388-0.61,0.56-0.728
			c0.17-0.117,0.358-0.176,0.563-0.176c0.296,0,0.598,0.095,0.903,0.283l-0.303,0.815c-0.215-0.127-0.43-0.19-0.645-0.19
			c-0.192,0-0.364,0.058-0.518,0.174c-0.153,0.115-0.262,0.275-0.327,0.48c-0.098,0.313-0.146,0.654-0.146,1.025v2.715h-0.878
			V26.424z"/>
		<path fill="#1E120D" d="M111.029,25.784c-0.325,0.276-0.639,0.472-0.939,0.586c-0.302,0.114-0.625,0.171-0.97,0.171
			c-0.569,0-1.008-0.139-1.313-0.418c-0.306-0.277-0.459-0.634-0.459-1.066c0-0.254,0.058-0.486,0.174-0.695
			c0.115-0.211,0.267-0.379,0.453-0.506c0.188-0.127,0.398-0.223,0.633-0.288c0.173-0.046,0.433-0.09,0.781-0.132
			c0.71-0.085,1.232-0.186,1.567-0.303c0.003-0.12,0.005-0.197,0.005-0.229c0-0.358-0.083-0.61-0.249-0.757
			c-0.225-0.198-0.559-0.298-1.001-0.298c-0.413,0-0.719,0.072-0.916,0.218c-0.196,0.145-0.342,0.4-0.437,0.769l-0.859-0.117
			c0.078-0.368,0.207-0.665,0.386-0.892c0.179-0.226,0.438-0.4,0.776-0.521c0.339-0.123,0.73-0.184,1.177-0.184
			c0.442,0,0.803,0.052,1.079,0.156s0.48,0.235,0.61,0.393c0.13,0.158,0.222,0.357,0.273,0.599c0.029,0.149,0.044,0.42,0.044,0.811
			v1.172c0,0.817,0.019,1.334,0.056,1.55c0.038,0.217,0.112,0.425,0.223,0.623h-0.918C111.114,26.241,111.056,26.028,111.029,25.784
			z M110.956,23.821c-0.319,0.13-0.798,0.241-1.436,0.332c-0.361,0.052-0.617,0.11-0.767,0.176s-0.266,0.16-0.347,0.286
			c-0.081,0.125-0.122,0.264-0.122,0.417c0,0.234,0.089,0.43,0.266,0.586c0.178,0.156,0.438,0.234,0.779,0.234
			c0.339,0,0.64-0.074,0.903-0.222c0.264-0.148,0.457-0.352,0.581-0.608c0.095-0.198,0.142-0.491,0.142-0.879L110.956,23.821
			L110.956,23.821z"/>
		<path fill="#1E120D" d="M115.405,26.424v-5.186h0.786v0.728c0.163-0.254,0.379-0.458,0.649-0.612
			c0.271-0.155,0.578-0.232,0.923-0.232c0.384,0,0.699,0.08,0.945,0.239c0.245,0.159,0.419,0.383,0.52,0.669
			c0.41-0.605,0.944-0.908,1.602-0.908c0.515,0,0.91,0.143,1.187,0.428c0.276,0.284,0.415,0.723,0.415,1.315v3.56h-0.874v-3.267
			c0-0.352-0.028-0.604-0.085-0.759c-0.058-0.155-0.161-0.279-0.311-0.374s-0.325-0.142-0.527-0.142
			c-0.364,0-0.667,0.121-0.908,0.363c-0.241,0.243-0.361,0.631-0.361,1.165v3.013h-0.879v-3.369c0-0.391-0.071-0.684-0.215-0.879
			s-0.378-0.293-0.703-0.293c-0.247,0-0.477,0.065-0.686,0.195c-0.211,0.13-0.362,0.32-0.457,0.571s-0.142,0.612-0.142,1.084v2.69
			L115.405,26.424L115.405,26.424z"/>
		<path fill="#1E120D" d="M126.829,25.784c-0.325,0.276-0.639,0.472-0.939,0.586c-0.302,0.114-0.625,0.171-0.97,0.171
			c-0.569,0-1.008-0.139-1.313-0.418c-0.306-0.277-0.459-0.634-0.459-1.066c0-0.254,0.058-0.486,0.174-0.695
			c0.115-0.211,0.267-0.379,0.453-0.506c0.188-0.127,0.398-0.223,0.633-0.288c0.173-0.046,0.433-0.09,0.781-0.132
			c0.71-0.085,1.232-0.186,1.567-0.303c0.003-0.12,0.005-0.197,0.005-0.229c0-0.358-0.083-0.61-0.249-0.757
			c-0.225-0.198-0.559-0.298-1.001-0.298c-0.413,0-0.719,0.072-0.916,0.218c-0.196,0.145-0.342,0.4-0.437,0.769l-0.859-0.117
			c0.078-0.368,0.207-0.665,0.386-0.892c0.179-0.226,0.438-0.4,0.776-0.521c0.339-0.123,0.73-0.184,1.177-0.184
			c0.442,0,0.803,0.052,1.079,0.156s0.48,0.235,0.61,0.393c0.13,0.158,0.222,0.357,0.273,0.599c0.029,0.149,0.044,0.42,0.044,0.811
			v1.172c0,0.817,0.019,1.334,0.056,1.55c0.038,0.217,0.112,0.425,0.223,0.623h-0.918C126.914,26.241,126.855,26.028,126.829,25.784
			z M126.756,23.821c-0.319,0.13-0.798,0.241-1.436,0.332c-0.361,0.052-0.617,0.11-0.767,0.176s-0.266,0.16-0.347,0.286
			c-0.081,0.125-0.122,0.264-0.122,0.417c0,0.234,0.089,0.43,0.266,0.586c0.178,0.156,0.438,0.234,0.779,0.234
			c0.339,0,0.64-0.074,0.903-0.222c0.264-0.148,0.457-0.352,0.581-0.608c0.095-0.198,0.142-0.491,0.142-0.879L126.756,23.821
			L126.756,23.821z"/>
		<path fill="#1E120D" d="M128.365,24.876l0.869-0.137c0.049,0.349,0.185,0.615,0.407,0.801c0.224,0.186,0.535,0.278,0.936,0.278
			c0.403,0,0.703-0.082,0.898-0.246c0.195-0.165,0.293-0.357,0.293-0.579c0-0.198-0.086-0.354-0.259-0.469
			c-0.12-0.078-0.42-0.178-0.898-0.298c-0.645-0.163-1.091-0.304-1.341-0.422c-0.248-0.119-0.438-0.283-0.566-0.494
			c-0.128-0.209-0.192-0.441-0.192-0.695c0-0.231,0.053-0.445,0.159-0.643c0.105-0.196,0.249-0.36,0.432-0.49
			c0.137-0.101,0.323-0.187,0.559-0.256c0.236-0.07,0.489-0.105,0.76-0.105c0.407,0,0.764,0.059,1.072,0.176
			c0.307,0.117,0.534,0.275,0.681,0.477c0.146,0.199,0.247,0.468,0.303,0.803l-0.859,0.117c-0.039-0.267-0.152-0.476-0.339-0.625
			c-0.188-0.149-0.452-0.225-0.794-0.225c-0.403,0-0.691,0.066-0.864,0.2s-0.259,0.29-0.259,0.469c0,0.114,0.036,0.217,0.107,0.308
			c0.071,0.095,0.184,0.173,0.337,0.234c0.088,0.032,0.347,0.107,0.776,0.225c0.622,0.166,1.056,0.302,1.302,0.408
			c0.245,0.105,0.438,0.259,0.578,0.461s0.21,0.452,0.21,0.752c0,0.293-0.085,0.568-0.257,0.828c-0.17,0.258-0.417,0.459-0.739,0.6
			c-0.322,0.143-0.687,0.213-1.094,0.213c-0.674,0-1.188-0.14-1.54-0.42C128.688,25.841,128.463,25.426,128.365,24.876z"/>
		<path fill="#1E120D" d="M135.92,20.276v-1.011h0.879v1.011H135.92z M135.92,26.424v-5.186h0.879v5.186H135.92z"/>
		<path fill="#1E120D" d="M137.847,26.424v-5.186h0.791v0.737c0.381-0.569,0.931-0.854,1.65-0.854c0.313,0,0.6,0.057,0.862,0.168
			c0.262,0.113,0.458,0.26,0.588,0.442s0.222,0.398,0.273,0.649c0.032,0.163,0.049,0.447,0.049,0.854v3.188h-0.879V23.27
			c0-0.358-0.034-0.626-0.103-0.803c-0.068-0.178-0.189-0.319-0.364-0.426c-0.174-0.105-0.378-0.158-0.612-0.158
			c-0.374,0-0.697,0.119-0.97,0.356c-0.271,0.237-0.407,0.688-0.407,1.353v2.832C138.725,26.424,137.847,26.424,137.847,26.424z"/>
		<path fill="#1E120D" d="M143.328,26.424v-4.502h-0.776v-0.684h0.776v-0.552c0-0.349,0.031-0.607,0.093-0.776
			c0.085-0.228,0.233-0.412,0.446-0.555c0.214-0.141,0.513-0.212,0.896-0.212c0.247,0,0.521,0.029,0.82,0.088l-0.132,0.767
			c-0.183-0.032-0.354-0.049-0.518-0.049c-0.267,0-0.456,0.057-0.566,0.171s-0.166,0.327-0.166,0.64v0.479h1.011v0.684h-1.011v4.502
			L143.328,26.424L143.328,26.424z"/>
		<path fill="#1E120D" d="M145.279,23.831c0-0.96,0.267-1.672,0.801-2.134c0.446-0.384,0.989-0.576,1.631-0.576
			c0.713,0,1.296,0.233,1.748,0.701c0.452,0.467,0.679,1.112,0.679,1.936c0,0.667-0.101,1.192-0.3,1.574
			c-0.201,0.383-0.492,0.68-0.875,0.892c-0.382,0.212-0.8,0.317-1.252,0.317c-0.726,0-1.313-0.232-1.76-0.698
			C145.503,25.377,145.279,24.707,145.279,23.831z M146.182,23.831c0,0.664,0.145,1.161,0.435,1.491
			c0.29,0.331,0.654,0.496,1.094,0.496c0.437,0,0.799-0.166,1.089-0.498s0.435-0.838,0.435-1.519c0-0.642-0.146-1.127-0.438-1.458
			c-0.291-0.33-0.653-0.495-1.086-0.495c-0.439,0-0.804,0.164-1.094,0.493S146.182,23.167,146.182,23.831z"/>
		<path fill="#1E120D" d="M150.869,26.424v-5.186h0.791v0.786c0.202-0.368,0.388-0.61,0.56-0.728
			c0.17-0.117,0.358-0.176,0.563-0.176c0.296,0,0.598,0.095,0.903,0.283l-0.303,0.815c-0.215-0.127-0.43-0.19-0.645-0.19
			c-0.192,0-0.364,0.058-0.518,0.174c-0.153,0.115-0.262,0.275-0.327,0.48c-0.098,0.313-0.146,0.654-0.146,1.025v2.715h-0.878
			V26.424z"/>
		<path fill="#1E120D" d="M153.919,26.424v-5.186h0.786v0.728c0.163-0.254,0.379-0.458,0.649-0.612
			c0.271-0.155,0.578-0.232,0.923-0.232c0.384,0,0.699,0.08,0.945,0.239c0.245,0.159,0.419,0.383,0.52,0.669
			c0.41-0.605,0.944-0.908,1.602-0.908c0.515,0,0.91,0.143,1.187,0.428c0.276,0.284,0.415,0.723,0.415,1.315v3.56h-0.874v-3.267
			c0-0.352-0.028-0.604-0.085-0.759c-0.058-0.155-0.161-0.279-0.311-0.374s-0.325-0.142-0.527-0.142
			c-0.364,0-0.667,0.121-0.908,0.363c-0.241,0.243-0.361,0.631-0.361,1.165v3.013H157v-3.369c0-0.391-0.071-0.684-0.215-0.879
			s-0.378-0.293-0.703-0.293c-0.247,0-0.477,0.065-0.686,0.195c-0.211,0.13-0.362,0.32-0.457,0.571s-0.142,0.612-0.142,1.084v2.69
			L153.919,26.424L153.919,26.424z"/>
		<path fill="#1E120D" d="M165.343,25.784c-0.325,0.276-0.639,0.472-0.939,0.586c-0.302,0.114-0.625,0.171-0.97,0.171
			c-0.569,0-1.008-0.139-1.313-0.418c-0.306-0.277-0.459-0.634-0.459-1.066c0-0.254,0.058-0.486,0.174-0.695
			c0.115-0.211,0.267-0.379,0.453-0.506c0.188-0.127,0.398-0.223,0.633-0.288c0.173-0.046,0.433-0.09,0.781-0.132
			c0.71-0.085,1.232-0.186,1.567-0.303c0.003-0.12,0.005-0.197,0.005-0.229c0-0.358-0.083-0.61-0.249-0.757
			c-0.225-0.198-0.559-0.298-1.001-0.298c-0.413,0-0.719,0.072-0.916,0.218c-0.196,0.145-0.342,0.4-0.437,0.769l-0.859-0.117
			c0.078-0.368,0.207-0.665,0.386-0.892c0.179-0.226,0.438-0.4,0.776-0.521c0.339-0.123,0.73-0.184,1.177-0.184
			c0.442,0,0.803,0.052,1.079,0.156s0.48,0.235,0.61,0.393c0.13,0.158,0.222,0.357,0.273,0.599c0.029,0.149,0.044,0.42,0.044,0.811
			v1.172c0,0.817,0.019,1.334,0.056,1.55c0.038,0.217,0.112,0.425,0.223,0.623h-0.918C165.428,26.241,165.369,26.028,165.343,25.784
			z M165.269,23.821c-0.319,0.13-0.798,0.241-1.436,0.332c-0.361,0.052-0.617,0.11-0.767,0.176s-0.266,0.16-0.347,0.286
			c-0.081,0.125-0.122,0.264-0.122,0.417c0,0.234,0.089,0.43,0.266,0.586c0.178,0.156,0.438,0.234,0.779,0.234
			c0.339,0,0.64-0.074,0.903-0.222c0.264-0.148,0.457-0.352,0.581-0.608c0.095-0.198,0.142-0.491,0.142-0.879L165.269,23.821
			L165.269,23.821z"/>
		<path fill="#1E120D" d="M170.614,24.525l0.864,0.112c-0.095,0.596-0.336,1.063-0.726,1.398c-0.389,0.338-0.866,0.506-1.433,0.506
			c-0.71,0-1.28-0.232-1.712-0.695c-0.431-0.465-0.646-1.129-0.646-1.995c0-0.56,0.093-1.05,0.278-1.47s0.468-0.734,0.847-0.945
			c0.38-0.209,0.792-0.314,1.238-0.314c0.563,0,1.023,0.143,1.382,0.428c0.358,0.284,0.588,0.688,0.688,1.213l-0.854,0.132
			c-0.081-0.349-0.226-0.61-0.433-0.786c-0.206-0.176-0.456-0.264-0.749-0.264c-0.442,0-0.803,0.158-1.079,0.477
			c-0.276,0.316-0.415,0.819-0.415,1.506c0,0.696,0.134,1.203,0.4,1.519s0.615,0.474,1.045,0.474c0.345,0,0.633-0.105,0.864-0.317
			S170.553,24.964,170.614,24.525z"/>
		<path fill="#1E120D" d="M171.945,20.276v-1.011h0.879v1.011H171.945z M171.945,26.424v-5.186h0.879v5.186H171.945z"/>
		<path fill="#1E120D" d="M173.545,23.831c0-0.96,0.267-1.672,0.801-2.134c0.446-0.384,0.989-0.576,1.631-0.576
			c0.713,0,1.296,0.233,1.748,0.701c0.452,0.467,0.679,1.112,0.679,1.936c0,0.667-0.101,1.192-0.3,1.574
			c-0.201,0.383-0.492,0.68-0.875,0.892c-0.382,0.212-0.8,0.317-1.252,0.317c-0.726,0-1.313-0.232-1.76-0.698
			C173.768,25.377,173.545,24.707,173.545,23.831z M174.448,23.831c0,0.664,0.145,1.161,0.435,1.491
			c0.29,0.331,0.654,0.496,1.094,0.496c0.437,0,0.799-0.166,1.089-0.498s0.435-0.838,0.435-1.519c0-0.642-0.146-1.127-0.438-1.458
			c-0.291-0.33-0.653-0.495-1.086-0.495c-0.439,0-0.804,0.164-1.094,0.493S174.448,23.167,174.448,23.831z M175.488,20.594
			l0.649-1.367h1.152l-1.074,1.367H175.488z"/>
		<path fill="#1E120D" d="M179.143,26.424v-5.186h0.791v0.737c0.381-0.569,0.931-0.854,1.65-0.854c0.313,0,0.6,0.057,0.862,0.168
			c0.262,0.113,0.458,0.26,0.588,0.442s0.222,0.398,0.273,0.649c0.032,0.163,0.049,0.447,0.049,0.854v3.188h-0.879V23.27
			c0-0.358-0.034-0.626-0.103-0.803c-0.068-0.178-0.189-0.319-0.364-0.426c-0.174-0.105-0.378-0.158-0.612-0.158
			c-0.374,0-0.697,0.119-0.97,0.356c-0.271,0.237-0.407,0.688-0.407,1.353v2.832C180.021,26.424,179.143,26.424,179.143,26.424z"/>
	</g>
	<g>
		<circle fill="none" cx="3.914" cy="17.424" r="3.914"/>
		<line fill="none" x1="7.421" y1="17.424" x2="48.003" y2="17.424"/>
	</g>
	<g>
		<circle fill="none" cx="239.089" cy="17.424" r="3.914"/>
		<line fill="none" x1="235.583" y1="17.424" x2="195" y2="17.424"/>
	</g>
</g>
</svg>
