<?xml version="1.0" encoding="utf-8"?>
<!-- Generator: Adobe Illustrator 17.0.0, SVG Export Plug-In . SVG Version: 6.00 Build 0)  -->
<!DOCTYPE svg PUBLIC "-//W3C//DTD SVG 1.1//EN" "http://www.w3.org/Graphics/SVG/1.1/DTD/svg11.dtd" [
	<!ENTITY ns_extend "http://ns.adobe.com/Extensibility/1.0/">
	<!ENTITY ns_ai "http://ns.adobe.com/AdobeIllustrator/10.0/">
	<!ENTITY ns_graphs "http://ns.adobe.com/Graphs/1.0/">
	<!ENTITY ns_vars "http://ns.adobe.com/Variables/1.0/">
	<!ENTITY ns_imrep "http://ns.adobe.com/ImageReplacement/1.0/">
	<!ENTITY ns_sfw "http://ns.adobe.com/SaveForWeb/1.0/">
	<!ENTITY ns_custom "http://ns.adobe.com/GenericCustomNamespace/1.0/">
	<!ENTITY ns_adobe_xpath "http://ns.adobe.com/XPath/1.0/">
]>
<svg version="1.1" id="Capa_1" xmlns:x="&ns_extend;" xmlns:i="&ns_ai;" xmlns:graph="&ns_graphs;"
	 xmlns="http://www.w3.org/2000/svg" xmlns:xlink="http://www.w3.org/1999/xlink" x="0px" y="0px" width="80.764px"
	 height="56.246px" viewBox="0 0 80.764 56.246" enable-background="new 0 0 80.764 56.246" xml:space="preserve">
<metadata>
	<sfw  xmlns="&ns_sfw;">
		<slices></slices>
		<sliceSourceBounds  width="80.763" height="56.246" x="599.118" y="272.377" bottomLeftOrigin="true"></sliceSourceBounds>
	</sfw>
</metadata>
<g>
	<g>
		<path fill="#6FC2D8" d="M39.475,28.086c3.157,0,6.258-1.083,8.731-3.049c6.063-4.816,7.076-13.667,2.261-19.729
			C47.787,1.934,43.779,0,39.469,0c-3.157,0-6.258,1.084-8.731,3.049c-2.937,2.333-4.789,5.67-5.216,9.396
			c-0.203,1.774-0.075,3.537,0.383,5.24c0.284,1.061,0.696,2.092,1.225,3.061c0.244,0.445,0.804,0.61,1.251,0.367
			c0.447-0.244,0.611-0.804,0.367-1.251c-0.458-0.841-0.816-1.733-1.064-2.654c-0.396-1.478-0.508-3.01-0.331-4.553
			c0.37-3.237,1.98-6.138,4.531-8.164c2.149-1.707,4.843-2.648,7.585-2.648c3.745,0,7.227,1.681,9.555,4.61
			c4.185,5.267,3.305,12.956-1.962,17.14c-2.149,1.709-4.844,2.648-7.586,2.648c-0.509,0-0.922,0.412-0.922,0.922
			C38.553,27.673,38.967,28.086,39.475,28.086"/>
		<path fill="#6FC2D8" d="M39.475,23.937c2.225,0,4.409-0.762,6.152-2.146c4.271-3.395,4.986-9.632,1.592-13.904
			c-1.889-2.376-4.713-3.738-7.751-3.738c-2.225,0-4.409,0.762-6.151,2.147c-2.069,1.645-3.375,3.996-3.676,6.623
			c-0.15,1.313-0.043,2.615,0.319,3.87c0.141,0.488,0.651,0.771,1.141,0.63c0.489-0.143,0.771-0.652,0.63-1.142
			c-0.294-1.019-0.381-2.079-0.259-3.149c0.245-2.137,1.307-4.05,2.99-5.389c1.419-1.127,3.196-1.747,5.006-1.747
			c2.472,0,4.771,1.108,6.309,3.043c2.761,3.476,2.18,8.551-1.296,11.314c-1.419,1.127-3.196,1.748-5.006,1.748
			c-0.509,0-0.922,0.412-0.922,0.922C38.553,23.525,38.967,23.937,39.475,23.937"/>
		<path fill="#FFFFFF" d="M34.646,14.043c0,2.665,2.161,4.826,4.825,4.826c2.666,0,4.827-2.161,4.827-4.826
			s-2.161-4.826-4.827-4.826C36.807,9.217,34.646,11.378,34.646,14.043"/>
		<circle fill="none" stroke="#FFFFFF" stroke-width="0.115" stroke-miterlimit="10" cx="39.472" cy="14.043" r="4.826"/>
		<path fill="#6FC2D8" d="M39.475,19.791c-1.766,0-3.406-0.792-4.504-2.172c-1.971-2.481-1.558-6.104,0.925-8.076
			c1.014-0.805,2.281-1.248,3.572-1.248c1.766,0,3.407,0.792,4.504,2.172c1.972,2.482,1.557,6.105-0.925,8.076
			C42.035,19.348,40.766,19.791,39.475,19.791 M39.469,10.139c-0.889,0-1.728,0.293-2.425,0.848
			c-1.687,1.339-1.968,3.801-0.629,5.486c0.745,0.938,1.86,1.475,3.061,1.475c0.889,0,1.729-0.293,2.426-0.848
			c1.685-1.338,1.967-3.8,0.629-5.486C41.784,10.676,40.67,10.139,39.469,10.139"/>
		<path fill="#FFFFFF" d="M33.445,30.848c-1.308,0-2.367-1.061-2.367-2.369v-6.056c0-1.766,1.431-3.196,3.195-3.196l3.237-0.006
			v-4.734c0-0.999,0.776-1.85,1.776-1.887c1.048-0.037,1.91,0.803,1.91,1.843v8.272l0.483-1.008c0.264-0.55,0.76-0.861,1.273-0.861
			c0.237,0,0.475,0.065,0.697,0.203c0.703,0.441,0.961,1.448,0.575,2.252c0,0-1.595,3.733-2.734,6.179
			c-0.388,0.835-1.225,1.368-2.146,1.368H33.445z"/>
		<path fill="none" stroke="#6FC2D8" stroke-width="1.714" stroke-miterlimit="10" d="M33.445,30.848
			c-1.308,0-2.367-1.061-2.367-2.369v-6.056c0-1.766,1.431-3.196,3.195-3.196l3.237-0.006v-4.734c0-0.999,0.776-1.85,1.776-1.887
			c1.048-0.037,1.91,0.803,1.91,1.843v8.272l0.483-1.008c0.264-0.55,0.76-0.861,1.273-0.861c0.237,0,0.475,0.065,0.697,0.203
			c0.703,0.441,0.961,1.448,0.575,2.252c0,0-1.595,3.733-2.734,6.179c-0.388,0.835-1.225,1.368-2.146,1.368H33.445z"/>
	</g>
	<g>
		<path fill="#1E120D" d="M4.843,41.398l0.853,0.216c-0.179,0.7-0.5,1.233-0.965,1.602c-0.464,0.367-1.032,0.551-1.702,0.551
			c-0.695,0-1.26-0.141-1.694-0.424c-0.436-0.282-0.767-0.691-0.993-1.229C0.113,41.579,0,41.003,0,40.388
			c0-0.671,0.128-1.256,0.385-1.756c0.256-0.499,0.621-0.879,1.094-1.138c0.474-0.26,0.994-0.39,1.563-0.39
			c0.645,0,1.187,0.165,1.626,0.492c0.439,0.329,0.745,0.79,0.918,1.385l-0.839,0.197c-0.149-0.468-0.366-0.81-0.65-1.023
			s-0.642-0.32-1.072-0.32c-0.495,0-0.909,0.118-1.241,0.355c-0.333,0.237-0.566,0.556-0.701,0.956
			c-0.135,0.399-0.202,0.813-0.202,1.237c0,0.548,0.08,1.025,0.239,1.435c0.16,0.408,0.408,0.714,0.745,0.916
			s0.701,0.304,1.095,0.304c0.477,0,0.881-0.138,1.213-0.414C4.501,42.35,4.726,41.94,4.843,41.398z"/>
		<path fill="#1E120D" d="M6.366,43.657v-6.442h0.791v6.442H6.366z"/>
		<path fill="#1E120D" d="M8.126,38.124v-0.909h0.791v0.909H8.126z M8.126,43.657V38.99h0.791v4.667H8.126z"/>
		<path fill="#1E120D" d="M12.906,41.948l0.777,0.101c-0.085,0.536-0.302,0.956-0.652,1.259c-0.35,0.304-0.779,0.455-1.289,0.455
			c-0.64,0-1.152-0.209-1.541-0.626c-0.388-0.418-0.582-1.016-0.582-1.796c0-0.503,0.084-0.944,0.25-1.322
			c0.168-0.378,0.422-0.661,0.763-0.851c0.342-0.188,0.713-0.283,1.114-0.283c0.507,0,0.921,0.128,1.244,0.385
			c0.321,0.256,0.528,0.62,0.619,1.092l-0.77,0.118c-0.073-0.313-0.202-0.549-0.389-0.707c-0.186-0.158-0.41-0.237-0.674-0.237
			c-0.399,0-0.723,0.143-0.972,0.429c-0.249,0.285-0.374,0.737-0.374,1.355c0,0.627,0.12,1.083,0.361,1.367
			c0.239,0.284,0.553,0.426,0.939,0.426c0.311,0,0.57-0.095,0.778-0.285S12.851,42.343,12.906,41.948z"/>
		<path fill="#1E120D" d="M16.023,42.265l0.781-0.123c0.045,0.313,0.167,0.553,0.367,0.721c0.201,0.166,0.481,0.25,0.842,0.25
			c0.363,0,0.633-0.074,0.809-0.222s0.264-0.321,0.264-0.521c0-0.179-0.078-0.319-0.232-0.422c-0.109-0.07-0.379-0.16-0.809-0.269
			c-0.58-0.146-0.982-0.273-1.207-0.38c-0.224-0.107-0.394-0.255-0.51-0.444c-0.115-0.188-0.174-0.397-0.174-0.626
			c0-0.208,0.048-0.4,0.144-0.578c0.095-0.177,0.225-0.324,0.389-0.441c0.123-0.091,0.291-0.168,0.503-0.23
			c0.213-0.063,0.44-0.095,0.684-0.095c0.366,0,0.688,0.053,0.965,0.158c0.276,0.105,0.48,0.248,0.613,0.429
			c0.131,0.18,0.222,0.421,0.271,0.723L18.949,40.3c-0.035-0.24-0.137-0.428-0.305-0.563c-0.169-0.135-0.406-0.202-0.715-0.202
			c-0.363,0-0.622,0.061-0.777,0.181s-0.232,0.261-0.232,0.422c0,0.103,0.031,0.194,0.096,0.276
			c0.064,0.085,0.166,0.155,0.304,0.211c0.079,0.029,0.312,0.097,0.698,0.202c0.56,0.149,0.95,0.271,1.172,0.367
			c0.221,0.095,0.395,0.233,0.521,0.415s0.188,0.407,0.188,0.677c0,0.264-0.076,0.512-0.23,0.745
			c-0.153,0.232-0.375,0.413-0.666,0.54c-0.289,0.128-0.618,0.191-0.984,0.191c-0.605,0-1.068-0.126-1.386-0.378
			C16.313,43.133,16.111,42.76,16.023,42.265z"/>
		<path fill="#1E120D" d="M20.283,41.323c0-0.863,0.24-1.504,0.721-1.92c0.401-0.346,0.891-0.519,1.468-0.519
			c0.642,0,1.166,0.21,1.573,0.631c0.407,0.42,0.611,1.001,0.611,1.742c0,0.601-0.091,1.073-0.271,1.417
			c-0.181,0.345-0.442,0.612-0.787,0.803c-0.344,0.189-0.72,0.285-1.127,0.285c-0.653,0-1.182-0.209-1.584-0.629
			C20.484,42.716,20.283,42.112,20.283,41.323z M21.096,41.323c0,0.598,0.131,1.046,0.392,1.343
			c0.261,0.298,0.589,0.446,0.984,0.446c0.393,0,0.719-0.149,0.979-0.448s0.392-0.754,0.392-1.366c0-0.577-0.131-1.015-0.394-1.313
			c-0.262-0.297-0.588-0.445-0.978-0.445c-0.396,0-0.724,0.147-0.984,0.443S21.096,40.726,21.096,41.323z"/>
		<path fill="#1E120D" d="M26.052,43.657h-0.733v-6.442h0.791v2.298c0.334-0.418,0.761-0.628,1.278-0.628
			c0.287,0,0.56,0.058,0.815,0.174c0.257,0.115,0.468,0.278,0.633,0.487c0.166,0.21,0.295,0.463,0.39,0.758
			c0.093,0.297,0.141,0.613,0.141,0.949c0,0.801-0.198,1.419-0.594,1.855s-0.87,0.654-1.424,0.654c-0.551,0-0.983-0.229-1.297-0.689
			V43.657z M26.044,41.288c0,0.561,0.075,0.965,0.229,1.213c0.248,0.408,0.585,0.611,1.01,0.611c0.346,0,0.645-0.15,0.896-0.45
			c0.252-0.301,0.379-0.748,0.379-1.343c0-0.609-0.121-1.059-0.363-1.35c-0.241-0.289-0.533-0.435-0.877-0.435
			c-0.346,0-0.645,0.15-0.896,0.45C26.169,40.286,26.044,40.721,26.044,41.288z"/>
		<path fill="#1E120D" d="M30.058,43.657V38.99h0.713v0.708c0.181-0.331,0.349-0.55,0.503-0.655
			c0.153-0.105,0.323-0.158,0.507-0.158c0.267,0,0.538,0.085,0.813,0.255l-0.272,0.734c-0.193-0.115-0.387-0.172-0.58-0.172
			c-0.173,0-0.328,0.052-0.466,0.156s-0.236,0.248-0.294,0.433c-0.088,0.281-0.133,0.589-0.133,0.923v2.443H30.058z"/>
		<path fill="#1E120D" d="M35.998,42.154l0.817,0.101c-0.129,0.479-0.368,0.849-0.717,1.112s-0.794,0.396-1.336,0.396
			c-0.683,0-1.224-0.21-1.623-0.631c-0.4-0.42-0.6-1.01-0.6-1.769c0-0.785,0.201-1.395,0.605-1.828s0.929-0.65,1.574-0.65
			c0.623,0,1.133,0.213,1.529,0.638c0.395,0.425,0.593,1.022,0.593,1.793c0,0.047-0.002,0.117-0.005,0.211h-3.48
			c0.029,0.513,0.175,0.904,0.436,1.178c0.261,0.271,0.586,0.408,0.976,0.408c0.29,0,0.537-0.076,0.743-0.229
			C35.715,42.731,35.878,42.488,35.998,42.154z M33.401,40.876h2.605c-0.035-0.393-0.135-0.688-0.299-0.884
			c-0.252-0.305-0.579-0.457-0.98-0.457c-0.363,0-0.668,0.122-0.916,0.364C33.564,40.144,33.427,40.469,33.401,40.876z"/>
		<path fill="#1E120D" d="M42.832,41.948l0.777,0.101c-0.085,0.536-0.302,0.956-0.652,1.259c-0.35,0.304-0.779,0.455-1.289,0.455
			c-0.64,0-1.152-0.209-1.541-0.626c-0.388-0.418-0.582-1.016-0.582-1.796c0-0.503,0.084-0.944,0.25-1.322
			c0.168-0.378,0.422-0.661,0.763-0.851c0.342-0.188,0.713-0.283,1.114-0.283c0.507,0,0.921,0.128,1.244,0.385
			c0.321,0.256,0.528,0.62,0.619,1.092l-0.77,0.118c-0.073-0.313-0.202-0.549-0.389-0.707c-0.186-0.158-0.41-0.237-0.674-0.237
			c-0.399,0-0.723,0.143-0.972,0.429c-0.249,0.285-0.374,0.737-0.374,1.355c0,0.627,0.12,1.083,0.361,1.367
			c0.239,0.284,0.553,0.426,0.939,0.426c0.311,0,0.57-0.095,0.778-0.285S42.776,42.343,42.832,41.948z"/>
		<path fill="#1E120D" d="M47.071,43.081c-0.293,0.25-0.575,0.426-0.846,0.527c-0.271,0.103-0.563,0.154-0.873,0.154
			c-0.513,0-0.906-0.125-1.182-0.376c-0.275-0.25-0.413-0.57-0.413-0.96c0-0.229,0.052-0.438,0.156-0.626
			c0.104-0.189,0.24-0.341,0.408-0.455c0.169-0.114,0.358-0.2,0.569-0.259c0.155-0.041,0.39-0.081,0.703-0.119
			c0.639-0.076,1.108-0.167,1.41-0.272c0.003-0.108,0.005-0.177,0.005-0.206c0-0.322-0.075-0.55-0.224-0.682
			c-0.203-0.179-0.503-0.268-0.901-0.268c-0.372,0-0.646,0.064-0.824,0.195c-0.177,0.13-0.309,0.361-0.394,0.691l-0.773-0.105
			c0.07-0.33,0.187-0.598,0.348-0.802c0.161-0.203,0.394-0.36,0.699-0.47c0.304-0.11,0.657-0.165,1.059-0.165
			c0.398,0,0.722,0.047,0.971,0.141s0.433,0.212,0.55,0.354c0.117,0.143,0.199,0.322,0.246,0.538c0.026,0.136,0.04,0.379,0.04,0.73
			v1.055c0,0.735,0.017,1.2,0.05,1.395c0.034,0.195,0.101,0.382,0.2,0.561h-0.826C47.147,43.493,47.095,43.302,47.071,43.081z
			 M47.005,41.315c-0.287,0.117-0.718,0.217-1.291,0.299c-0.326,0.047-0.556,0.1-0.69,0.158s-0.239,0.144-0.312,0.257
			c-0.074,0.112-0.11,0.238-0.11,0.376c0,0.211,0.08,0.387,0.239,0.527c0.16,0.141,0.394,0.211,0.701,0.211
			c0.305,0,0.576-0.067,0.813-0.2c0.238-0.134,0.412-0.315,0.523-0.548c0.085-0.178,0.127-0.441,0.127-0.791
			C47.005,41.604,47.005,41.315,47.005,41.315z"/>
		<path fill="#1E120D" d="M51.798,43.657v-0.589c-0.296,0.463-0.731,0.694-1.305,0.694c-0.373,0-0.715-0.103-1.026-0.308
			c-0.313-0.205-0.554-0.491-0.726-0.859c-0.171-0.367-0.257-0.79-0.257-1.268c0-0.466,0.077-0.889,0.233-1.268
			c0.154-0.38,0.388-0.671,0.698-0.872c0.311-0.203,0.657-0.304,1.042-0.304c0.281,0,0.531,0.06,0.751,0.178
			c0.22,0.119,0.398,0.273,0.536,0.464v-2.312h0.787v6.442h-0.733V43.657z M49.298,41.328c0,0.598,0.125,1.045,0.377,1.341
			s0.55,0.443,0.893,0.443c0.346,0,0.64-0.142,0.881-0.424c0.242-0.283,0.363-0.715,0.363-1.295c0-0.638-0.123-1.107-0.369-1.406
			s-0.55-0.447-0.91-0.447c-0.352,0-0.646,0.144-0.881,0.43C49.415,40.258,49.298,40.71,49.298,41.328z"/>
		<path fill="#1E120D" d="M56.56,43.081c-0.293,0.25-0.575,0.426-0.846,0.527c-0.271,0.103-0.563,0.154-0.873,0.154
			c-0.513,0-0.906-0.125-1.182-0.376c-0.275-0.25-0.413-0.57-0.413-0.96c0-0.229,0.052-0.438,0.156-0.626
			c0.104-0.189,0.24-0.341,0.408-0.455c0.169-0.114,0.358-0.2,0.569-0.259c0.155-0.041,0.39-0.081,0.703-0.119
			c0.639-0.076,1.108-0.167,1.41-0.272c0.003-0.108,0.005-0.177,0.005-0.206c0-0.322-0.075-0.55-0.224-0.682
			c-0.203-0.179-0.503-0.268-0.901-0.268c-0.372,0-0.646,0.064-0.824,0.195c-0.177,0.13-0.309,0.361-0.394,0.691l-0.773-0.105
			c0.07-0.33,0.187-0.598,0.348-0.802c0.161-0.203,0.394-0.36,0.699-0.47c0.304-0.11,0.657-0.165,1.059-0.165
			c0.398,0,0.722,0.047,0.971,0.141s0.433,0.212,0.55,0.354c0.117,0.143,0.199,0.322,0.246,0.538c0.026,0.136,0.04,0.379,0.04,0.73
			v1.055c0,0.735,0.017,1.2,0.05,1.395c0.034,0.195,0.101,0.382,0.2,0.561h-0.826C56.636,43.493,56.583,43.302,56.56,43.081z
			 M56.493,41.315c-0.287,0.117-0.718,0.217-1.291,0.299c-0.326,0.047-0.556,0.1-0.69,0.158s-0.239,0.144-0.312,0.257
			c-0.074,0.112-0.11,0.238-0.11,0.376c0,0.211,0.08,0.387,0.239,0.527c0.16,0.141,0.394,0.211,0.701,0.211
			c0.305,0,0.576-0.067,0.813-0.2c0.238-0.134,0.412-0.315,0.523-0.548c0.085-0.178,0.127-0.441,0.127-0.791
			C56.493,41.604,56.493,41.315,56.493,41.315z"/>
		<path fill="#1E120D" d="M61.228,43.657h-0.733v-6.442h0.791v2.298c0.334-0.418,0.761-0.628,1.278-0.628
			c0.287,0,0.56,0.058,0.815,0.174c0.257,0.115,0.468,0.278,0.633,0.487c0.166,0.21,0.295,0.463,0.39,0.758
			c0.093,0.297,0.141,0.613,0.141,0.949c0,0.801-0.198,1.419-0.594,1.855s-0.87,0.654-1.424,0.654c-0.551,0-0.983-0.229-1.297-0.689
			C61.228,43.073,61.228,43.657,61.228,43.657z M61.22,41.288c0,0.561,0.075,0.965,0.229,1.213c0.248,0.408,0.585,0.611,1.01,0.611
			c0.346,0,0.645-0.15,0.896-0.45c0.252-0.301,0.379-0.748,0.379-1.343c0-0.609-0.121-1.059-0.363-1.35
			c-0.241-0.289-0.533-0.435-0.877-0.435c-0.346,0-0.645,0.15-0.896,0.45C61.345,40.286,61.22,40.721,61.22,41.288z"/>
		<path fill="#1E120D" d="M64.948,41.323c0-0.863,0.24-1.504,0.721-1.92c0.401-0.346,0.891-0.519,1.468-0.519
			c0.642,0,1.166,0.21,1.573,0.631c0.407,0.42,0.611,1.001,0.611,1.742c0,0.601-0.091,1.073-0.271,1.417
			c-0.181,0.345-0.442,0.612-0.787,0.803c-0.344,0.189-0.72,0.285-1.127,0.285c-0.653,0-1.182-0.209-1.584-0.629
			C65.149,42.716,64.948,42.112,64.948,41.323z M65.761,41.323c0,0.598,0.131,1.046,0.392,1.343
			c0.261,0.298,0.589,0.446,0.984,0.446c0.393,0,0.719-0.149,0.979-0.448s0.392-0.754,0.392-1.366c0-0.577-0.131-1.015-0.394-1.313
			c-0.262-0.297-0.588-0.445-0.978-0.445c-0.396,0-0.724,0.147-0.984,0.443S65.761,40.726,65.761,41.323z"/>
		<path fill="#1E120D" d="M71.714,42.95l0.114,0.698c-0.223,0.047-0.422,0.07-0.598,0.07c-0.287,0-0.51-0.046-0.668-0.136
			c-0.158-0.091-0.27-0.211-0.334-0.358c-0.064-0.148-0.097-0.46-0.097-0.935v-2.685h-0.58V38.99h0.58v-1.155l0.787-0.475v1.63
			h0.795v0.615h-0.795v2.729c0,0.226,0.014,0.37,0.041,0.435c0.028,0.064,0.073,0.116,0.137,0.153
			c0.063,0.039,0.152,0.058,0.27,0.058C71.454,42.98,71.57,42.971,71.714,42.95z"/>
		<path fill="#1E120D" d="M71.932,41.323c0-0.863,0.24-1.504,0.721-1.92c0.401-0.346,0.891-0.519,1.468-0.519
			c0.642,0,1.166,0.21,1.573,0.631c0.407,0.42,0.611,1.001,0.611,1.742c0,0.601-0.091,1.073-0.271,1.417
			c-0.181,0.345-0.442,0.612-0.787,0.803c-0.344,0.189-0.72,0.285-1.127,0.285c-0.653,0-1.182-0.209-1.584-0.629
			C72.133,42.716,71.932,42.112,71.932,41.323z M72.744,41.323c0,0.598,0.131,1.046,0.392,1.343
			c0.261,0.298,0.589,0.446,0.984,0.446c0.393,0,0.719-0.149,0.979-0.448s0.392-0.754,0.392-1.366c0-0.577-0.131-1.015-0.394-1.313
			c-0.262-0.297-0.588-0.445-0.978-0.445c-0.396,0-0.724,0.147-0.984,0.443S72.744,40.726,72.744,41.323z M73.681,38.41l0.585-1.23
			h1.037l-0.967,1.23H73.681z"/>
		<path fill="#1E120D" d="M76.972,43.657V38.99h0.711v0.663c0.344-0.512,0.838-0.769,1.486-0.769c0.281,0,0.539,0.051,0.775,0.151
			c0.235,0.102,0.412,0.234,0.529,0.398s0.199,0.358,0.246,0.584c0.029,0.146,0.044,0.403,0.044,0.77v2.869h-0.791v-2.839
			c0-0.322-0.03-0.563-0.093-0.723c-0.061-0.16-0.17-0.287-0.327-0.383c-0.156-0.095-0.341-0.143-0.552-0.143
			c-0.337,0-0.627,0.107-0.872,0.321c-0.244,0.214-0.366,0.619-0.366,1.217v2.549h-0.79V43.657z"/>
		<path fill="#1E120D" d="M0.272,56.246V49.79h0.721v0.606c0.169-0.237,0.361-0.415,0.575-0.534
			c0.214-0.118,0.473-0.178,0.778-0.178c0.397,0,0.749,0.103,1.055,0.308c0.304,0.205,0.534,0.494,0.689,0.868
			c0.155,0.373,0.232,0.783,0.232,1.228c0,0.479-0.085,0.908-0.257,1.29c-0.171,0.383-0.42,0.676-0.747,0.879
			c-0.326,0.204-0.67,0.306-1.03,0.306c-0.264,0-0.5-0.056-0.71-0.167c-0.209-0.111-0.382-0.252-0.516-0.422v2.272H0.272z
			 M0.988,52.15c0,0.601,0.121,1.044,0.364,1.331s0.538,0.431,0.884,0.431c0.352,0,0.652-0.148,0.903-0.446
			c0.25-0.297,0.375-0.758,0.375-1.382c0-0.595-0.122-1.04-0.366-1.336c-0.245-0.296-0.537-0.443-0.877-0.443
			c-0.337,0-0.635,0.157-0.895,0.472C1.118,51.092,0.988,51.55,0.988,52.15z"/>
		<path fill="#1E120D" d="M8.062,53.881c-0.293,0.25-0.575,0.426-0.846,0.527c-0.271,0.103-0.563,0.154-0.873,0.154
			c-0.513,0-0.906-0.125-1.182-0.376c-0.275-0.25-0.413-0.57-0.413-0.96c0-0.229,0.052-0.438,0.156-0.626
			c0.104-0.189,0.24-0.341,0.408-0.455c0.169-0.114,0.358-0.2,0.569-0.259c0.155-0.041,0.39-0.081,0.703-0.119
			c0.639-0.076,1.108-0.167,1.41-0.272C7.998,51.387,8,51.318,8,51.289c0-0.322-0.075-0.55-0.224-0.682
			c-0.203-0.179-0.503-0.268-0.901-0.268c-0.372,0-0.646,0.064-0.824,0.195c-0.177,0.13-0.309,0.361-0.394,0.691L4.884,51.12
			c0.07-0.33,0.187-0.598,0.348-0.802c0.161-0.203,0.394-0.36,0.699-0.47c0.304-0.11,0.657-0.165,1.059-0.165
			c0.398,0,0.722,0.047,0.971,0.141s0.433,0.212,0.55,0.354c0.117,0.143,0.199,0.322,0.246,0.538c0.026,0.136,0.04,0.379,0.04,0.73
			v1.055c0,0.735,0.017,1.2,0.05,1.395c0.034,0.195,0.101,0.382,0.2,0.561H8.22C8.138,54.293,8.085,54.102,8.062,53.881z
			 M7.995,52.115c-0.287,0.117-0.718,0.217-1.291,0.299c-0.326,0.047-0.556,0.1-0.69,0.158s-0.239,0.144-0.312,0.257
			c-0.074,0.112-0.11,0.238-0.11,0.376c0,0.211,0.08,0.387,0.239,0.527c0.16,0.141,0.394,0.211,0.701,0.211
			c0.305,0,0.576-0.067,0.813-0.2c0.238-0.134,0.412-0.315,0.523-0.548c0.085-0.178,0.127-0.441,0.127-0.791V52.115z"/>
		<path fill="#1E120D" d="M9.751,54.457V49.79h0.713v0.708c0.181-0.331,0.349-0.55,0.503-0.655c0.153-0.105,0.323-0.158,0.507-0.158
			c0.267,0,0.538,0.085,0.813,0.255l-0.272,0.734c-0.193-0.115-0.387-0.172-0.58-0.172c-0.173,0-0.328,0.052-0.466,0.156
			s-0.236,0.248-0.294,0.433c-0.088,0.281-0.133,0.589-0.133,0.923v2.443H9.751z"/>
		<path fill="#1E120D" d="M15.542,53.881c-0.293,0.25-0.575,0.426-0.846,0.527c-0.271,0.103-0.563,0.154-0.873,0.154
			c-0.513,0-0.906-0.125-1.182-0.376c-0.275-0.25-0.413-0.57-0.413-0.96c0-0.229,0.052-0.438,0.156-0.626
			c0.104-0.189,0.24-0.341,0.408-0.455c0.169-0.114,0.358-0.2,0.569-0.259c0.155-0.041,0.39-0.081,0.703-0.119
			c0.639-0.076,1.108-0.167,1.41-0.272c0.003-0.108,0.005-0.177,0.005-0.206c0-0.322-0.075-0.55-0.224-0.682
			c-0.203-0.179-0.503-0.268-0.901-0.268c-0.372,0-0.646,0.064-0.824,0.195c-0.177,0.13-0.309,0.361-0.394,0.691l-0.773-0.105
			c0.07-0.33,0.187-0.598,0.348-0.802c0.161-0.203,0.394-0.36,0.699-0.47c0.304-0.11,0.657-0.165,1.059-0.165
			c0.398,0,0.722,0.047,0.971,0.141s0.433,0.212,0.55,0.354c0.117,0.143,0.199,0.322,0.246,0.538c0.026,0.136,0.04,0.379,0.04,0.73
			v1.055c0,0.735,0.017,1.2,0.05,1.395c0.034,0.195,0.101,0.382,0.2,0.561H15.7C15.618,54.293,15.565,54.102,15.542,53.881z
			 M15.476,52.115c-0.287,0.117-0.718,0.217-1.291,0.299c-0.326,0.047-0.556,0.1-0.69,0.158s-0.239,0.144-0.312,0.257
			c-0.074,0.112-0.11,0.238-0.11,0.376c0,0.211,0.08,0.387,0.239,0.527c0.16,0.141,0.394,0.211,0.701,0.211
			c0.305,0,0.576-0.067,0.813-0.2c0.238-0.134,0.412-0.315,0.523-0.548c0.085-0.178,0.127-0.441,0.127-0.791V52.115z"/>
		<path fill="#1E120D" d="M19.481,54.457V49.79h0.707v0.655c0.146-0.229,0.341-0.413,0.584-0.552
			c0.243-0.14,0.521-0.209,0.831-0.209c0.346,0,0.629,0.072,0.851,0.216c0.221,0.144,0.377,0.344,0.468,0.602
			c0.369-0.545,0.85-0.817,1.441-0.817c0.463,0,0.818,0.128,1.067,0.385c0.249,0.256,0.374,0.651,0.374,1.185v3.203h-0.786v-2.939
			c0-0.316-0.026-0.545-0.077-0.684c-0.052-0.14-0.145-0.251-0.279-0.336s-0.293-0.128-0.475-0.128
			c-0.328,0-0.601,0.109-0.817,0.327c-0.217,0.219-0.325,0.568-0.325,1.049v2.711h-0.791v-3.032c0-0.352-0.064-0.615-0.193-0.791
			s-0.34-0.264-0.633-0.264c-0.223,0-0.429,0.059-0.617,0.176c-0.189,0.117-0.326,0.289-0.411,0.515s-0.127,0.551-0.127,0.975v2.422
			h-0.792V54.457z"/>
		<path fill="#1E120D" d="M29.762,53.881c-0.293,0.25-0.575,0.426-0.846,0.527c-0.271,0.103-0.563,0.154-0.873,0.154
			c-0.513,0-0.906-0.125-1.182-0.376c-0.275-0.25-0.413-0.57-0.413-0.96c0-0.229,0.052-0.438,0.156-0.626
			c0.104-0.189,0.24-0.341,0.408-0.455c0.169-0.114,0.358-0.2,0.569-0.259c0.155-0.041,0.39-0.081,0.703-0.119
			c0.639-0.076,1.108-0.167,1.41-0.272c0.003-0.108,0.005-0.177,0.005-0.206c0-0.322-0.075-0.55-0.224-0.682
			c-0.203-0.179-0.503-0.268-0.901-0.268c-0.372,0-0.646,0.064-0.824,0.195c-0.177,0.13-0.309,0.361-0.394,0.691l-0.773-0.105
			c0.07-0.33,0.187-0.598,0.348-0.802c0.161-0.203,0.394-0.36,0.699-0.47c0.304-0.11,0.657-0.165,1.059-0.165
			c0.398,0,0.722,0.047,0.971,0.141s0.433,0.212,0.55,0.354c0.117,0.143,0.199,0.322,0.246,0.538c0.026,0.136,0.04,0.379,0.04,0.73
			v1.055c0,0.735,0.017,1.2,0.05,1.395c0.034,0.195,0.101,0.382,0.2,0.561H29.92C29.838,54.293,29.785,54.102,29.762,53.881z
			 M29.695,52.115c-0.287,0.117-0.718,0.217-1.291,0.299c-0.326,0.047-0.556,0.1-0.69,0.158s-0.239,0.144-0.312,0.257
			c-0.074,0.112-0.11,0.238-0.11,0.376c0,0.211,0.08,0.387,0.239,0.527c0.16,0.141,0.394,0.211,0.701,0.211
			c0.305,0,0.576-0.067,0.813-0.2c0.238-0.134,0.412-0.315,0.523-0.548c0.085-0.178,0.127-0.441,0.127-0.791V52.115z"/>
		<path fill="#1E120D" d="M31.146,53.064l0.781-0.123c0.045,0.313,0.167,0.553,0.367,0.721c0.201,0.166,0.481,0.25,0.842,0.25
			c0.363,0,0.633-0.074,0.809-0.222c0.176-0.148,0.264-0.321,0.264-0.521c0-0.179-0.078-0.319-0.232-0.422
			c-0.109-0.07-0.379-0.16-0.809-0.269c-0.58-0.146-0.982-0.273-1.207-0.38c-0.224-0.107-0.394-0.255-0.51-0.444
			c-0.115-0.188-0.174-0.397-0.174-0.626c0-0.208,0.048-0.4,0.144-0.578c0.095-0.177,0.225-0.324,0.389-0.441
			c0.123-0.091,0.291-0.168,0.503-0.23c0.213-0.063,0.44-0.095,0.684-0.095c0.366,0,0.688,0.053,0.965,0.158
			c0.276,0.105,0.48,0.248,0.613,0.429c0.131,0.18,0.222,0.421,0.271,0.723L34.071,51.1c-0.035-0.24-0.137-0.428-0.305-0.563
			c-0.169-0.135-0.406-0.202-0.715-0.202c-0.363,0-0.622,0.061-0.777,0.181s-0.232,0.261-0.232,0.422
			c0,0.103,0.031,0.194,0.096,0.276c0.064,0.085,0.166,0.155,0.304,0.211c0.079,0.029,0.312,0.097,0.698,0.202
			c0.56,0.149,0.95,0.271,1.172,0.367c0.221,0.095,0.395,0.233,0.521,0.415s0.188,0.407,0.188,0.677c0,0.264-0.076,0.512-0.23,0.745
			c-0.153,0.232-0.375,0.413-0.666,0.54c-0.289,0.128-0.618,0.191-0.984,0.191c-0.605,0-1.068-0.126-1.386-0.378
			C31.436,53.933,31.233,53.56,31.146,53.064z"/>
		<path fill="#1E120D" d="M37.944,48.924v-0.909h0.791v0.909H37.944z M37.944,54.457V49.79h0.791v4.667H37.944z"/>
		<path fill="#1E120D" d="M39.679,54.457V49.79h0.711v0.663c0.344-0.512,0.838-0.769,1.486-0.769c0.281,0,0.539,0.051,0.775,0.151
			c0.235,0.102,0.412,0.234,0.529,0.398s0.199,0.358,0.246,0.584c0.029,0.146,0.044,0.403,0.044,0.77v2.869h-0.79v-2.839
			c0-0.322-0.03-0.563-0.093-0.723c-0.061-0.16-0.17-0.287-0.327-0.383c-0.156-0.095-0.341-0.143-0.552-0.143
			c-0.337,0-0.627,0.107-0.872,0.321c-0.244,0.214-0.366,0.619-0.366,1.217v2.549h-0.791V54.457z"/>
		<path fill="#1E120D" d="M44.611,54.457v-4.052h-0.698V49.79h0.698v-0.497c0-0.313,0.027-0.546,0.083-0.698
			c0.076-0.205,0.211-0.371,0.402-0.499c0.192-0.127,0.461-0.191,0.807-0.191c0.223,0,0.469,0.027,0.738,0.08l-0.119,0.689
			c-0.164-0.029-0.319-0.044-0.465-0.044c-0.241,0-0.411,0.052-0.51,0.153c-0.101,0.104-0.15,0.295-0.15,0.576v0.431h0.91v0.615
			h-0.91v4.052H44.611z"/>
		<path fill="#1E120D" d="M46.367,52.123c0-0.863,0.24-1.504,0.721-1.92c0.401-0.346,0.891-0.519,1.468-0.519
			c0.642,0,1.166,0.21,1.573,0.631c0.407,0.42,0.611,1.001,0.611,1.742c0,0.601-0.091,1.073-0.271,1.417
			c-0.181,0.345-0.442,0.612-0.787,0.803c-0.344,0.189-0.72,0.285-1.127,0.285c-0.653,0-1.182-0.209-1.584-0.629
			C46.568,53.516,46.367,52.912,46.367,52.123z M47.18,52.123c0,0.598,0.131,1.046,0.392,1.343c0.261,0.298,0.589,0.446,0.984,0.446
			c0.393,0,0.719-0.149,0.979-0.448s0.392-0.754,0.392-1.366c0-0.577-0.131-1.015-0.394-1.313c-0.262-0.297-0.588-0.445-0.978-0.445
			c-0.396,0-0.724,0.147-0.984,0.443S47.18,51.525,47.18,52.123z"/>
		<path fill="#1E120D" d="M51.397,54.457V49.79h0.713v0.708c0.181-0.331,0.349-0.55,0.503-0.655
			c0.153-0.105,0.323-0.158,0.507-0.158c0.267,0,0.538,0.085,0.813,0.255l-0.272,0.734c-0.193-0.115-0.387-0.172-0.58-0.172
			c-0.173,0-0.328,0.052-0.466,0.156s-0.236,0.248-0.294,0.433c-0.088,0.281-0.133,0.589-0.133,0.923v2.443H51.397z"/>
		<path fill="#1E120D" d="M54.143,54.457V49.79h0.707v0.655c0.146-0.229,0.341-0.413,0.584-0.552
			c0.243-0.14,0.521-0.209,0.831-0.209c0.346,0,0.629,0.072,0.851,0.216c0.221,0.144,0.377,0.344,0.468,0.602
			c0.369-0.545,0.85-0.817,1.441-0.817c0.463,0,0.818,0.128,1.067,0.385c0.249,0.256,0.374,0.651,0.374,1.185v3.203H59.68v-2.939
			c0-0.316-0.026-0.545-0.077-0.684c-0.052-0.14-0.145-0.251-0.279-0.336s-0.293-0.128-0.475-0.128
			c-0.328,0-0.601,0.109-0.817,0.327c-0.217,0.219-0.325,0.568-0.325,1.049v2.711h-0.791v-3.032c0-0.352-0.064-0.615-0.193-0.791
			s-0.34-0.264-0.633-0.264c-0.223,0-0.429,0.059-0.617,0.176c-0.189,0.117-0.326,0.289-0.411,0.515s-0.127,0.551-0.127,0.975v2.422
			h-0.792V54.457z"/>
		<path fill="#1E120D" d="M64.424,53.881c-0.293,0.25-0.575,0.426-0.846,0.527c-0.271,0.103-0.563,0.154-0.873,0.154
			c-0.513,0-0.906-0.125-1.182-0.376c-0.275-0.25-0.413-0.57-0.413-0.96c0-0.229,0.052-0.438,0.156-0.626
			c0.104-0.189,0.24-0.341,0.408-0.455c0.169-0.114,0.358-0.2,0.569-0.259c0.155-0.041,0.39-0.081,0.703-0.119
			c0.639-0.076,1.108-0.167,1.41-0.272c0.003-0.108,0.005-0.177,0.005-0.206c0-0.322-0.075-0.55-0.224-0.682
			c-0.203-0.179-0.503-0.268-0.901-0.268c-0.372,0-0.646,0.064-0.824,0.195c-0.177,0.13-0.309,0.361-0.394,0.691l-0.773-0.105
			c0.07-0.33,0.187-0.598,0.348-0.802c0.161-0.203,0.394-0.36,0.699-0.47c0.304-0.11,0.657-0.165,1.059-0.165
			c0.398,0,0.722,0.047,0.971,0.141s0.433,0.212,0.55,0.354c0.117,0.143,0.199,0.322,0.246,0.538c0.026,0.136,0.04,0.379,0.04,0.73
			v1.055c0,0.735,0.017,1.2,0.05,1.395c0.034,0.195,0.101,0.382,0.2,0.561h-0.826C64.5,54.293,64.447,54.102,64.424,53.881z
			 M64.357,52.115c-0.287,0.117-0.718,0.217-1.291,0.299c-0.326,0.047-0.556,0.1-0.69,0.158s-0.239,0.144-0.312,0.257
			c-0.074,0.112-0.11,0.238-0.11,0.376c0,0.211,0.08,0.387,0.239,0.527c0.16,0.141,0.394,0.211,0.701,0.211
			c0.305,0,0.576-0.067,0.813-0.2c0.238-0.134,0.412-0.315,0.523-0.548c0.085-0.178,0.127-0.441,0.127-0.791V52.115z"/>
		<path fill="#1E120D" d="M69.168,52.748l0.777,0.101c-0.085,0.536-0.302,0.956-0.652,1.259c-0.35,0.304-0.779,0.455-1.289,0.455
			c-0.64,0-1.152-0.209-1.541-0.626c-0.388-0.418-0.582-1.016-0.582-1.796c0-0.503,0.084-0.944,0.25-1.322
			c0.168-0.378,0.422-0.661,0.763-0.851c0.342-0.188,0.713-0.283,1.114-0.283c0.507,0,0.921,0.128,1.244,0.385
			c0.321,0.256,0.528,0.62,0.619,1.092l-0.77,0.118c-0.073-0.313-0.202-0.549-0.389-0.707c-0.186-0.158-0.41-0.237-0.674-0.237
			c-0.399,0-0.723,0.143-0.972,0.429c-0.249,0.285-0.374,0.737-0.374,1.355c0,0.627,0.12,1.083,0.361,1.367
			c0.239,0.284,0.553,0.426,0.939,0.426c0.311,0,0.57-0.095,0.778-0.285S69.112,53.143,69.168,52.748z"/>
		<path fill="#1E120D" d="M70.366,48.924v-0.909h0.791v0.909H70.366z M70.366,54.457V49.79h0.791v4.667H70.366z"/>
		<path fill="#1E120D" d="M71.806,52.123c0-0.863,0.24-1.504,0.721-1.92c0.401-0.346,0.891-0.519,1.468-0.519
			c0.642,0,1.166,0.21,1.573,0.631c0.407,0.42,0.611,1.001,0.611,1.742c0,0.601-0.091,1.073-0.271,1.417
			c-0.181,0.345-0.442,0.612-0.787,0.803c-0.344,0.189-0.72,0.285-1.127,0.285c-0.653,0-1.182-0.209-1.584-0.629
			C72.007,53.516,71.806,52.912,71.806,52.123z M72.618,52.123c0,0.598,0.131,1.046,0.392,1.343
			c0.261,0.298,0.589,0.446,0.984,0.446c0.393,0,0.719-0.149,0.979-0.448s0.392-0.754,0.392-1.366c0-0.577-0.131-1.015-0.394-1.313
			c-0.262-0.297-0.588-0.445-0.978-0.445c-0.396,0-0.724,0.147-0.984,0.443S72.618,51.525,72.618,52.123z M73.555,49.21l0.585-1.23
			h1.037l-0.967,1.23H73.555z"/>
		<path fill="#1E120D" d="M76.845,54.457V49.79h0.711v0.663c0.344-0.512,0.838-0.769,1.486-0.769c0.281,0,0.539,0.051,0.775,0.151
			c0.235,0.102,0.412,0.234,0.529,0.398s0.199,0.358,0.246,0.584c0.029,0.146,0.044,0.403,0.044,0.77v2.869h-0.791v-2.839
			c0-0.322-0.03-0.563-0.093-0.723c-0.061-0.16-0.17-0.287-0.327-0.383c-0.156-0.095-0.341-0.143-0.552-0.143
			c-0.337,0-0.627,0.107-0.872,0.321c-0.244,0.214-0.366,0.619-0.366,1.217v2.549h-0.79V54.457z"/>
	</g>
</g>
</svg>
