<?xml version="1.0" encoding="utf-8"?>
<!-- Generator: Adobe Illustrator 17.0.0, SVG Export Plug-In . SVG Version: 6.00 Build 0)  -->
<!DOCTYPE svg PUBLIC "-//W3C//DTD SVG 1.1//EN" "http://www.w3.org/Graphics/SVG/1.1/DTD/svg11.dtd">
<svg version="1.1" id="Capa_1" xmlns="http://www.w3.org/2000/svg" xmlns:xlink="http://www.w3.org/1999/xlink" x="0px" y="0px"
	 width="125.317px" height="31.705px" viewBox="0 0 125.317 31.705" style="enable-background:new 0 0 125.317 31.705;"
	 xml:space="preserve">
<g>
	<g>
		<path style="fill:#6FC2D8;" d="M14.047,28.086c3.156,0,6.258-1.083,8.732-3.049c6.063-4.816,7.076-13.667,2.261-19.729
			C22.359,1.935,18.35,0,14.04,0c-3.157,0-6.258,1.084-8.731,3.049c-2.937,2.333-4.789,5.67-5.216,9.396
			c-0.202,1.774-0.075,3.537,0.382,5.24c0.285,1.062,0.697,2.092,1.225,3.061c0.244,0.445,0.805,0.61,1.252,0.367
			c0.447-0.244,0.611-0.804,0.367-1.251c-0.459-0.841-0.816-1.733-1.064-2.654c-0.396-1.477-0.507-3.01-0.33-4.553
			c0.369-3.237,1.98-6.138,4.531-8.164c2.149-1.707,4.842-2.648,7.585-2.648c3.745,0,7.227,1.681,9.554,4.61
			c4.186,5.267,3.305,12.956-1.961,17.14c-2.15,1.709-4.844,2.649-7.586,2.649c-0.51,0-0.922,0.412-0.922,0.922
			C13.125,27.673,13.538,28.086,14.047,28.086"/>
		<path style="fill:#6FC2D8;" d="M14.047,23.938c2.225,0,4.409-0.762,6.152-2.146c4.271-3.395,4.986-9.632,1.592-13.904
			c-1.889-2.376-4.713-3.738-7.751-3.738c-2.226,0-4.409,0.762-6.151,2.147c-2.07,1.645-3.375,3.996-3.676,6.623
			c-0.15,1.313-0.043,2.615,0.318,3.87c0.142,0.488,0.652,0.771,1.142,0.63c0.489-0.143,0.771-0.652,0.63-1.142
			c-0.294-1.02-0.381-2.079-0.259-3.149c0.245-2.137,1.306-4.05,2.99-5.389c1.419-1.127,3.196-1.747,5.006-1.747
			c2.472,0,4.771,1.108,6.31,3.043c2.76,3.476,2.178,8.551-1.297,11.313c-1.42,1.127-3.197,1.748-5.006,1.748
			c-0.51,0-0.922,0.412-0.922,0.922C13.125,23.525,13.538,23.938,14.047,23.938"/>
		<path style="fill:#FFFFFF;" d="M9.217,14.043c0,2.665,2.162,4.826,4.826,4.826c2.666,0,4.827-2.161,4.827-4.826
			c0-2.665-2.161-4.826-4.827-4.826C11.379,9.217,9.217,11.378,9.217,14.043"/>
		<circle style="fill:none;stroke:#FFFFFF;stroke-width:0.115;stroke-miterlimit:10;" cx="14.044" cy="14.043" r="4.827"/>
		<path style="fill:#6FC2D8;" d="M14.047,19.791c-1.766,0-3.406-0.792-4.504-2.172c-1.971-2.481-1.558-6.105,0.925-8.076
			c1.014-0.805,2.28-1.248,3.572-1.248c1.767,0,3.407,0.792,4.504,2.172c1.972,2.482,1.557,6.105-0.925,8.076
			C16.607,19.348,15.338,19.791,14.047,19.791 M14.04,10.139c-0.89,0-1.727,0.293-2.425,0.848c-1.687,1.339-1.969,3.801-0.629,5.486
			c0.744,0.938,1.861,1.475,3.061,1.475c0.889,0,1.729-0.293,2.426-0.848c1.686-1.338,1.967-3.8,0.629-5.486
			C16.356,10.676,15.242,10.139,14.04,10.139"/>
		<path style="fill:#FFFFFF;" d="M8.018,30.848c-1.309,0-2.368-1.061-2.368-2.369v-6.056c0-1.766,1.431-3.196,3.195-3.196
			l3.237-0.006v-4.734c0-0.999,0.776-1.85,1.776-1.887c1.048-0.037,1.91,0.803,1.91,1.843v8.272l0.483-1.008
			c0.264-0.55,0.76-0.861,1.273-0.861c0.237,0,0.476,0.065,0.697,0.203c0.703,0.441,0.962,1.448,0.575,2.252
			c0,0-1.595,3.733-2.734,6.179c-0.387,0.835-1.225,1.368-2.146,1.368H8.018z"/>
		<path style="fill:none;stroke:#6FC2D8;stroke-width:1.714;stroke-miterlimit:10;" d="M8.018,30.848
			c-1.309,0-2.368-1.061-2.368-2.369v-6.056c0-1.766,1.431-3.196,3.195-3.196l3.237-0.006v-4.734c0-0.999,0.776-1.85,1.776-1.887
			c1.048-0.037,1.91,0.803,1.91,1.843v8.272l0.483-1.008c0.264-0.55,0.76-0.861,1.273-0.861c0.237,0,0.476,0.065,0.697,0.203
			c0.703,0.441,0.962,1.448,0.575,2.252c0,0-1.595,3.733-2.734,6.179c-0.387,0.835-1.225,1.368-2.146,1.368H8.018z"/>
	</g>
	<g>
		<path style="fill:#FFFFFF;" d="M40.961,11.914l0.947,0.239c-0.198,0.778-0.556,1.371-1.072,1.78
			c-0.516,0.408-1.146,0.612-1.892,0.612c-0.771,0-1.399-0.157-1.882-0.472c-0.484-0.313-0.852-0.769-1.104-1.364
			c-0.253-0.596-0.379-1.235-0.379-1.919c0-0.745,0.143-1.396,0.428-1.951c0.284-0.555,0.689-0.977,1.215-1.264
			c0.526-0.289,1.104-0.433,1.736-0.433c0.716,0,1.318,0.183,1.807,0.547c0.488,0.364,0.828,0.877,1.021,1.538l-0.933,0.22
			c-0.166-0.521-0.407-0.9-0.723-1.138s-0.713-0.356-1.191-0.356c-0.55,0-1.01,0.132-1.379,0.396
			c-0.37,0.264-0.63,0.617-0.779,1.063c-0.149,0.443-0.225,0.902-0.225,1.374c0,0.608,0.089,1.14,0.266,1.595
			c0.178,0.453,0.454,0.793,0.828,1.018s0.779,0.337,1.216,0.337c0.53,0,0.979-0.153,1.348-0.459S40.831,12.517,40.961,11.914z"/>
		<path style="fill:#FFFFFF;" d="M42.654,14.424V7.266h0.879v7.158H42.654z"/>
		<path style="fill:#FFFFFF;" d="M44.61,8.276V7.266h0.879v1.011H44.61z M44.61,14.424V9.238h0.879v5.186H44.61z"/>
		<path style="fill:#FFFFFF;" d="M49.92,12.524l0.864,0.112c-0.095,0.596-0.336,1.063-0.726,1.398
			c-0.389,0.338-0.866,0.506-1.433,0.506c-0.71,0-1.28-0.232-1.712-0.695c-0.431-0.465-0.646-1.129-0.646-1.995
			c0-0.56,0.093-1.05,0.278-1.47s0.468-0.734,0.847-0.945c0.38-0.209,0.792-0.314,1.238-0.314c0.563,0,1.023,0.143,1.382,0.428
			c0.358,0.284,0.588,0.688,0.688,1.213l-0.854,0.132c-0.081-0.349-0.226-0.61-0.433-0.786c-0.206-0.176-0.456-0.264-0.749-0.264
			c-0.442,0-0.803,0.158-1.079,0.477c-0.276,0.316-0.415,0.819-0.415,1.506c0,0.696,0.134,1.203,0.4,1.519s0.615,0.474,1.045,0.474
			c0.345,0,0.633-0.105,0.864-0.317S49.859,12.964,49.92,12.524z"/>
		<path style="fill:#FFFFFF;" d="M53.383,12.876l0.869-0.137c0.049,0.349,0.185,0.615,0.407,0.801
			c0.224,0.186,0.535,0.278,0.936,0.278c0.403,0,0.703-0.082,0.898-0.246c0.195-0.165,0.293-0.357,0.293-0.579
			c0-0.198-0.086-0.354-0.259-0.469c-0.12-0.078-0.42-0.178-0.898-0.298c-0.645-0.163-1.091-0.304-1.341-0.422
			c-0.248-0.119-0.438-0.283-0.566-0.494c-0.128-0.209-0.192-0.441-0.192-0.695c0-0.231,0.053-0.445,0.159-0.643
			c0.105-0.196,0.249-0.36,0.432-0.49c0.137-0.101,0.323-0.187,0.559-0.256c0.236-0.07,0.489-0.105,0.76-0.105
			c0.407,0,0.764,0.059,1.072,0.176c0.307,0.117,0.534,0.275,0.681,0.477c0.146,0.199,0.247,0.468,0.303,0.803l-0.859,0.117
			c-0.039-0.267-0.152-0.476-0.339-0.625c-0.188-0.149-0.452-0.225-0.794-0.225c-0.403,0-0.691,0.066-0.864,0.2
			s-0.259,0.29-0.259,0.469c0,0.114,0.036,0.217,0.107,0.308c0.071,0.095,0.184,0.173,0.337,0.234
			c0.088,0.032,0.347,0.107,0.776,0.225c0.622,0.166,1.056,0.302,1.302,0.408c0.245,0.105,0.438,0.259,0.578,0.461
			s0.21,0.452,0.21,0.752c0,0.293-0.085,0.568-0.257,0.828c-0.17,0.258-0.417,0.459-0.739,0.6c-0.322,0.143-0.687,0.213-1.094,0.213
			c-0.674,0-1.188-0.14-1.54-0.42C53.706,13.841,53.481,13.426,53.383,12.876z"/>
		<path style="fill:#FFFFFF;" d="M58.118,11.831c0-0.96,0.267-1.672,0.801-2.134c0.446-0.384,0.989-0.576,1.631-0.576
			c0.713,0,1.296,0.233,1.748,0.701c0.452,0.467,0.679,1.112,0.679,1.936c0,0.667-0.101,1.192-0.3,1.574
			c-0.201,0.383-0.492,0.68-0.875,0.892c-0.382,0.212-0.8,0.317-1.252,0.317c-0.726,0-1.313-0.232-1.76-0.698
			C58.341,13.377,58.118,12.707,58.118,11.831z M59.021,11.831c0,0.664,0.145,1.161,0.435,1.491c0.29,0.331,0.654,0.496,1.094,0.496
			c0.437,0,0.799-0.166,1.089-0.498s0.435-0.838,0.435-1.519c0-0.642-0.146-1.127-0.438-1.458c-0.291-0.33-0.653-0.495-1.086-0.495
			c-0.439,0-0.804,0.164-1.094,0.493S59.021,11.167,59.021,11.831z"/>
		<path style="fill:#FFFFFF;" d="M64.527,14.424h-0.815V7.266h0.879v2.554c0.371-0.466,0.845-0.698,1.421-0.698
			c0.319,0,0.621,0.064,0.905,0.193c0.285,0.128,0.52,0.309,0.703,0.541c0.185,0.233,0.328,0.514,0.433,0.843
			s0.156,0.681,0.156,1.055c0,0.889-0.22,1.575-0.659,2.061s-0.967,0.728-1.582,0.728c-0.612,0-1.092-0.256-1.44-0.767V14.424z
			 M64.517,11.792c0,0.622,0.085,1.071,0.254,1.348c0.276,0.452,0.651,0.679,1.123,0.679c0.384,0,0.716-0.167,0.996-0.5
			c0.28-0.334,0.42-0.831,0.42-1.492c0-0.677-0.134-1.177-0.403-1.499c-0.268-0.322-0.593-0.483-0.974-0.483
			c-0.384,0-0.716,0.167-0.996,0.5C64.657,10.678,64.517,11.16,64.517,11.792z"/>
		<path style="fill:#FFFFFF;" d="M68.978,14.424V9.238h0.791v0.786c0.202-0.368,0.388-0.61,0.56-0.728
			c0.17-0.117,0.358-0.176,0.563-0.176c0.296,0,0.598,0.095,0.903,0.283l-0.303,0.815c-0.215-0.127-0.43-0.19-0.645-0.19
			c-0.192,0-0.364,0.058-0.518,0.174c-0.153,0.115-0.262,0.275-0.327,0.48c-0.098,0.313-0.146,0.654-0.146,1.025v2.715H68.978z"/>
		<path style="fill:#FFFFFF;" d="M75.578,12.754l0.908,0.112c-0.144,0.53-0.408,0.942-0.796,1.235s-0.882,0.439-1.484,0.439
			c-0.759,0-1.36-0.233-1.804-0.701c-0.445-0.467-0.667-1.122-0.667-1.965c0-0.872,0.225-1.55,0.674-2.031s1.032-0.723,1.748-0.723
			c0.693,0,1.26,0.236,1.699,0.708s0.659,1.136,0.659,1.992c0,0.052-0.002,0.13-0.005,0.234h-3.867
			c0.032,0.569,0.193,1.006,0.483,1.309s0.651,0.454,1.084,0.454c0.322,0,0.598-0.085,0.825-0.254S75.444,13.125,75.578,12.754z
			 M72.692,11.333h2.896c-0.039-0.437-0.149-0.764-0.332-0.981c-0.28-0.339-0.643-0.508-1.089-0.508
			c-0.403,0-0.743,0.135-1.019,0.405C72.873,10.52,72.721,10.881,72.692,11.333z"/>
		<path style="fill:#FFFFFF;" d="M83.171,12.524l0.864,0.112c-0.095,0.596-0.336,1.063-0.726,1.398
			c-0.389,0.338-0.866,0.506-1.433,0.506c-0.71,0-1.28-0.232-1.712-0.695c-0.431-0.465-0.646-1.129-0.646-1.995
			c0-0.56,0.093-1.05,0.278-1.47s0.468-0.734,0.847-0.945c0.38-0.209,0.792-0.314,1.238-0.314c0.563,0,1.023,0.143,1.382,0.428
			c0.358,0.284,0.588,0.688,0.688,1.213l-0.854,0.132c-0.081-0.349-0.226-0.61-0.433-0.786c-0.206-0.176-0.456-0.264-0.749-0.264
			c-0.442,0-0.803,0.158-1.079,0.477c-0.276,0.316-0.415,0.819-0.415,1.506c0,0.696,0.134,1.203,0.4,1.519s0.615,0.474,1.045,0.474
			c0.345,0,0.633-0.105,0.864-0.317S83.11,12.964,83.171,12.524z"/>
		<path style="fill:#FFFFFF;" d="M87.881,13.784c-0.325,0.276-0.639,0.472-0.939,0.586c-0.302,0.114-0.625,0.171-0.97,0.171
			c-0.569,0-1.008-0.139-1.313-0.418c-0.306-0.277-0.459-0.634-0.459-1.066c0-0.254,0.058-0.486,0.174-0.695
			c0.115-0.211,0.267-0.379,0.453-0.506c0.188-0.127,0.398-0.223,0.633-0.288c0.173-0.046,0.433-0.09,0.781-0.132
			c0.71-0.085,1.232-0.186,1.567-0.303c0.003-0.12,0.005-0.197,0.005-0.229c0-0.358-0.083-0.61-0.249-0.757
			c-0.225-0.198-0.559-0.298-1.001-0.298c-0.413,0-0.719,0.072-0.916,0.218c-0.196,0.145-0.342,0.4-0.437,0.769l-0.859-0.117
			c0.078-0.368,0.207-0.665,0.386-0.892c0.179-0.226,0.438-0.4,0.776-0.521c0.339-0.123,0.73-0.184,1.177-0.184
			c0.442,0,0.803,0.052,1.079,0.156s0.48,0.235,0.61,0.393c0.13,0.158,0.222,0.357,0.273,0.599c0.029,0.149,0.044,0.42,0.044,0.811
			v1.172c0,0.817,0.019,1.334,0.056,1.55c0.038,0.217,0.112,0.425,0.223,0.623h-0.918C87.966,14.241,87.908,14.028,87.881,13.784z
			 M87.808,11.821c-0.319,0.13-0.798,0.241-1.436,0.332c-0.361,0.052-0.617,0.11-0.767,0.176s-0.266,0.16-0.347,0.286
			c-0.081,0.125-0.122,0.264-0.122,0.417c0,0.234,0.089,0.43,0.266,0.586c0.178,0.156,0.438,0.234,0.779,0.234
			c0.339,0,0.64-0.074,0.903-0.222c0.264-0.148,0.457-0.352,0.581-0.608c0.095-0.198,0.142-0.491,0.142-0.879V11.821z"/>
		<path style="fill:#FFFFFF;" d="M93.134,14.424V13.77c-0.329,0.515-0.813,0.771-1.45,0.771c-0.413,0-0.794-0.114-1.14-0.342
			c-0.348-0.228-0.615-0.546-0.807-0.955c-0.189-0.408-0.285-0.878-0.285-1.408c0-0.518,0.086-0.987,0.259-1.408
			c0.173-0.422,0.432-0.745,0.776-0.97s0.73-0.337,1.157-0.337c0.313,0,0.591,0.066,0.835,0.197
			c0.244,0.133,0.442,0.304,0.596,0.516V7.266h0.874v7.158H93.134z M90.356,11.836c0,0.664,0.14,1.16,0.42,1.489
			s0.61,0.493,0.991,0.493c0.384,0,0.711-0.157,0.979-0.471c0.27-0.314,0.403-0.794,0.403-1.438c0-0.71-0.137-1.23-0.41-1.563
			s-0.61-0.498-1.011-0.498c-0.391,0-0.717,0.159-0.979,0.479C90.487,10.646,90.356,11.149,90.356,11.836z"/>
		<path style="fill:#FFFFFF;" d="M98.425,13.784c-0.324,0.276-0.639,0.472-0.939,0.586s-0.625,0.171-0.969,0.171
			c-0.57,0-1.008-0.139-1.314-0.418c-0.305-0.277-0.459-0.634-0.459-1.066c0-0.254,0.059-0.486,0.174-0.695
			c0.115-0.211,0.268-0.379,0.453-0.506c0.188-0.127,0.398-0.223,0.633-0.288c0.174-0.046,0.434-0.09,0.781-0.132
			c0.711-0.085,1.232-0.186,1.568-0.303c0.002-0.12,0.004-0.197,0.004-0.229c0-0.358-0.082-0.61-0.248-0.757
			c-0.225-0.198-0.559-0.298-1.002-0.298c-0.412,0-0.719,0.072-0.916,0.218c-0.195,0.145-0.342,0.4-0.436,0.769l-0.859-0.117
			c0.078-0.368,0.207-0.665,0.385-0.892c0.18-0.226,0.438-0.4,0.777-0.521c0.338-0.123,0.73-0.184,1.176-0.184
			c0.443,0,0.803,0.052,1.08,0.156c0.275,0.104,0.48,0.235,0.609,0.393c0.131,0.158,0.223,0.357,0.273,0.599
			c0.029,0.149,0.045,0.42,0.045,0.811v1.172c0,0.817,0.018,1.334,0.055,1.55c0.039,0.217,0.113,0.425,0.223,0.623H98.6
			C98.511,14.241,98.452,14.028,98.425,13.784z M98.352,11.821c-0.32,0.13-0.799,0.241-1.436,0.332
			c-0.361,0.052-0.617,0.11-0.768,0.176c-0.148,0.065-0.266,0.16-0.346,0.286c-0.082,0.125-0.123,0.264-0.123,0.417
			c0,0.234,0.09,0.43,0.266,0.586c0.178,0.156,0.438,0.234,0.779,0.234c0.34,0,0.641-0.074,0.904-0.222
			c0.264-0.148,0.457-0.352,0.58-0.608c0.096-0.198,0.143-0.491,0.143-0.879V11.821z"/>
		<path style="fill:#FFFFFF;" d="M103.612,14.424h-0.816V7.266h0.879v2.554c0.371-0.466,0.846-0.698,1.422-0.698
			c0.318,0,0.621,0.064,0.904,0.193c0.285,0.128,0.52,0.309,0.703,0.541c0.186,0.233,0.328,0.514,0.434,0.843
			c0.104,0.329,0.156,0.681,0.156,1.055c0,0.889-0.221,1.575-0.66,2.061s-0.967,0.728-1.582,0.728c-0.611,0-1.092-0.256-1.439-0.767
			V14.424z M103.602,11.792c0,0.622,0.084,1.071,0.254,1.348c0.275,0.452,0.65,0.679,1.123,0.679c0.383,0,0.715-0.167,0.996-0.5
			c0.279-0.334,0.42-0.831,0.42-1.492c0-0.677-0.135-1.177-0.404-1.499c-0.268-0.322-0.592-0.483-0.973-0.483
			c-0.385,0-0.717,0.167-0.996,0.5C103.741,10.678,103.602,11.16,103.602,11.792z"/>
		<path style="fill:#FFFFFF;" d="M107.745,11.831c0-0.96,0.268-1.672,0.801-2.134c0.447-0.384,0.99-0.576,1.631-0.576
			c0.713,0,1.297,0.233,1.748,0.701c0.453,0.467,0.68,1.112,0.68,1.936c0,0.667-0.102,1.192-0.301,1.574
			c-0.201,0.383-0.492,0.68-0.875,0.892c-0.381,0.212-0.799,0.317-1.252,0.317c-0.725,0-1.313-0.232-1.76-0.698
			S107.745,12.707,107.745,11.831z M108.649,11.831c0,0.664,0.145,1.161,0.434,1.491c0.291,0.331,0.654,0.496,1.094,0.496
			c0.438,0,0.799-0.166,1.09-0.498c0.289-0.332,0.434-0.838,0.434-1.519c0-0.642-0.145-1.127-0.438-1.458
			c-0.291-0.33-0.652-0.495-1.086-0.495c-0.439,0-0.803,0.164-1.094,0.493C108.794,10.671,108.649,11.167,108.649,11.831z"/>
		<path style="fill:#FFFFFF;" d="M115.263,13.638l0.127,0.776c-0.246,0.052-0.469,0.078-0.664,0.078
			c-0.318,0-0.566-0.051-0.742-0.151s-0.299-0.233-0.371-0.397c-0.07-0.165-0.107-0.511-0.107-1.038V9.922h-0.645V9.238h0.645V7.954
			l0.875-0.527v1.812h0.883v0.684h-0.883v3.032c0,0.251,0.016,0.412,0.045,0.483c0.031,0.071,0.082,0.129,0.152,0.171
			s0.17,0.063,0.301,0.063C114.975,13.672,115.104,13.66,115.263,13.638z"/>
		<path style="fill:#FFFFFF;" d="M115.505,11.831c0-0.96,0.268-1.672,0.801-2.134c0.447-0.384,0.99-0.576,1.631-0.576
			c0.713,0,1.297,0.233,1.748,0.701c0.453,0.467,0.68,1.112,0.68,1.936c0,0.667-0.102,1.192-0.301,1.574
			c-0.201,0.383-0.492,0.68-0.875,0.892c-0.381,0.212-0.799,0.317-1.252,0.317c-0.725,0-1.313-0.232-1.76-0.698
			S115.505,12.707,115.505,11.831z M116.409,11.831c0,0.664,0.145,1.161,0.434,1.491c0.291,0.331,0.654,0.496,1.094,0.496
			c0.438,0,0.799-0.166,1.09-0.498c0.289-0.332,0.434-0.838,0.434-1.519c0-0.642-0.145-1.127-0.438-1.458
			c-0.291-0.33-0.652-0.495-1.086-0.495c-0.439,0-0.803,0.164-1.094,0.493C116.554,10.671,116.409,11.167,116.409,11.831z
			 M117.448,8.594l0.65-1.367h1.152l-1.074,1.367H117.448z"/>
		<path style="fill:#FFFFFF;" d="M121.104,14.424V9.238h0.791v0.737c0.381-0.569,0.93-0.854,1.65-0.854
			c0.313,0,0.6,0.057,0.861,0.168c0.262,0.113,0.459,0.26,0.588,0.442c0.131,0.183,0.223,0.398,0.273,0.649
			c0.033,0.163,0.049,0.447,0.049,0.854v3.188h-0.879V11.27c0-0.358-0.033-0.626-0.102-0.803c-0.068-0.178-0.189-0.319-0.365-0.426
			c-0.174-0.105-0.377-0.158-0.611-0.158c-0.375,0-0.697,0.119-0.971,0.356c-0.271,0.237-0.406,0.688-0.406,1.353v2.832H121.104z"/>
		<path style="fill:#FFFFFF;" d="M35.882,28.411v-7.173h0.801v0.674c0.188-0.264,0.402-0.461,0.64-0.594
			c0.237-0.131,0.525-0.197,0.864-0.197c0.442,0,0.833,0.114,1.172,0.342s0.594,0.549,0.767,0.965
			c0.173,0.414,0.259,0.869,0.259,1.364c0,0.53-0.095,1.009-0.286,1.433c-0.189,0.426-0.467,0.751-0.83,0.977
			c-0.362,0.227-0.744,0.34-1.145,0.34c-0.293,0-0.556-0.062-0.789-0.186c-0.232-0.124-0.424-0.28-0.573-0.469v2.524H35.882z
			 M36.678,23.86c0,0.667,0.135,1.16,0.405,1.479s0.598,0.479,0.981,0.479c0.391,0,0.725-0.165,1.004-0.496
			c0.277-0.33,0.417-0.842,0.417-1.535c0-0.661-0.136-1.155-0.407-1.484c-0.272-0.329-0.597-0.493-0.975-0.493
			c-0.374,0-0.705,0.175-0.994,0.524C36.823,22.685,36.678,23.193,36.678,23.86z"/>
		<path style="fill:#FFFFFF;" d="M44.538,25.784c-0.325,0.276-0.639,0.472-0.939,0.586c-0.302,0.114-0.625,0.171-0.97,0.171
			c-0.569,0-1.008-0.139-1.313-0.418c-0.306-0.277-0.459-0.634-0.459-1.066c0-0.254,0.058-0.486,0.174-0.695
			c0.115-0.211,0.267-0.379,0.453-0.506c0.188-0.127,0.398-0.223,0.633-0.288c0.173-0.046,0.433-0.09,0.781-0.132
			c0.71-0.085,1.232-0.186,1.567-0.303c0.003-0.12,0.005-0.197,0.005-0.229c0-0.358-0.083-0.61-0.249-0.757
			c-0.225-0.198-0.559-0.298-1.001-0.298c-0.413,0-0.719,0.072-0.916,0.218c-0.196,0.145-0.342,0.4-0.437,0.769l-0.859-0.117
			c0.078-0.368,0.207-0.665,0.386-0.892c0.179-0.226,0.438-0.4,0.776-0.521c0.339-0.123,0.73-0.184,1.177-0.184
			c0.442,0,0.803,0.052,1.079,0.156s0.48,0.235,0.61,0.393c0.13,0.158,0.222,0.357,0.273,0.599c0.029,0.149,0.044,0.42,0.044,0.811
			v1.172c0,0.817,0.019,1.334,0.056,1.55c0.038,0.217,0.112,0.425,0.223,0.623h-0.918C44.622,26.241,44.564,26.028,44.538,25.784z
			 M44.464,23.821c-0.319,0.13-0.798,0.241-1.436,0.332c-0.361,0.052-0.617,0.11-0.767,0.176s-0.266,0.16-0.347,0.286
			c-0.081,0.125-0.122,0.264-0.122,0.417c0,0.234,0.089,0.43,0.266,0.586c0.178,0.156,0.438,0.234,0.779,0.234
			c0.339,0,0.64-0.074,0.903-0.222c0.264-0.148,0.457-0.352,0.581-0.608c0.095-0.198,0.142-0.491,0.142-0.879V23.821z"/>
		<path style="fill:#FFFFFF;" d="M46.415,26.424v-5.186h0.791v0.786c0.202-0.368,0.388-0.61,0.56-0.728
			c0.17-0.117,0.358-0.176,0.563-0.176c0.296,0,0.598,0.095,0.903,0.283L48.93,22.22c-0.215-0.127-0.43-0.19-0.645-0.19
			c-0.192,0-0.364,0.058-0.518,0.174c-0.153,0.115-0.262,0.275-0.327,0.48c-0.098,0.313-0.146,0.654-0.146,1.025v2.715H46.415z"/>
		<path style="fill:#FFFFFF;" d="M52.849,25.784c-0.325,0.276-0.639,0.472-0.939,0.586c-0.302,0.114-0.625,0.171-0.97,0.171
			c-0.569,0-1.008-0.139-1.313-0.418c-0.306-0.277-0.459-0.634-0.459-1.066c0-0.254,0.058-0.486,0.174-0.695
			c0.115-0.211,0.267-0.379,0.453-0.506c0.188-0.127,0.398-0.223,0.633-0.288c0.173-0.046,0.433-0.09,0.781-0.132
			c0.71-0.085,1.232-0.186,1.567-0.303c0.003-0.12,0.005-0.197,0.005-0.229c0-0.358-0.083-0.61-0.249-0.757
			c-0.225-0.198-0.559-0.298-1.001-0.298c-0.413,0-0.719,0.072-0.916,0.218c-0.196,0.145-0.342,0.4-0.437,0.769l-0.859-0.117
			c0.078-0.368,0.207-0.665,0.386-0.892c0.179-0.226,0.438-0.4,0.776-0.521c0.339-0.123,0.73-0.184,1.177-0.184
			c0.442,0,0.803,0.052,1.079,0.156s0.48,0.235,0.61,0.393c0.13,0.158,0.222,0.357,0.273,0.599c0.029,0.149,0.044,0.42,0.044,0.811
			v1.172c0,0.817,0.019,1.334,0.056,1.55c0.038,0.217,0.112,0.425,0.223,0.623h-0.918C52.934,26.241,52.875,26.028,52.849,25.784z
			 M52.776,23.821c-0.319,0.13-0.798,0.241-1.436,0.332c-0.361,0.052-0.617,0.11-0.767,0.176s-0.266,0.16-0.347,0.286
			c-0.081,0.125-0.122,0.264-0.122,0.417c0,0.234,0.089,0.43,0.266,0.586c0.178,0.156,0.438,0.234,0.779,0.234
			c0.339,0,0.64-0.074,0.903-0.222c0.264-0.148,0.457-0.352,0.581-0.608c0.095-0.198,0.142-0.491,0.142-0.879V23.821z"/>
		<path style="fill:#FFFFFF;" d="M57.225,26.424v-5.186h0.786v0.728c0.163-0.254,0.379-0.458,0.649-0.612
			c0.271-0.155,0.578-0.232,0.923-0.232c0.384,0,0.699,0.08,0.945,0.239c0.245,0.159,0.419,0.383,0.52,0.669
			c0.41-0.605,0.944-0.908,1.602-0.908c0.515,0,0.91,0.143,1.187,0.428c0.276,0.284,0.415,0.723,0.415,1.315v3.56h-0.874v-3.267
			c0-0.352-0.028-0.604-0.085-0.759c-0.058-0.155-0.161-0.279-0.311-0.374s-0.325-0.142-0.527-0.142
			c-0.364,0-0.667,0.121-0.908,0.363c-0.241,0.243-0.361,0.631-0.361,1.165v3.013h-0.879v-3.369c0-0.391-0.071-0.684-0.215-0.879
			s-0.378-0.293-0.703-0.293c-0.247,0-0.477,0.065-0.686,0.195c-0.211,0.13-0.362,0.32-0.457,0.571s-0.142,0.612-0.142,1.084v2.69
			H57.225z"/>
		<path style="fill:#FFFFFF;" d="M68.649,25.784c-0.325,0.276-0.639,0.472-0.939,0.586c-0.302,0.114-0.625,0.171-0.97,0.171
			c-0.569,0-1.008-0.139-1.313-0.418c-0.306-0.277-0.459-0.634-0.459-1.066c0-0.254,0.058-0.486,0.174-0.695
			c0.115-0.211,0.267-0.379,0.453-0.506c0.188-0.127,0.398-0.223,0.633-0.288c0.173-0.046,0.433-0.09,0.781-0.132
			c0.71-0.085,1.232-0.186,1.567-0.303c0.003-0.12,0.005-0.197,0.005-0.229c0-0.358-0.083-0.61-0.249-0.757
			c-0.225-0.198-0.559-0.298-1.001-0.298c-0.413,0-0.719,0.072-0.916,0.218c-0.196,0.145-0.342,0.4-0.437,0.769l-0.859-0.117
			c0.078-0.368,0.207-0.665,0.386-0.892c0.179-0.226,0.438-0.4,0.776-0.521c0.339-0.123,0.73-0.184,1.177-0.184
			c0.442,0,0.803,0.052,1.079,0.156s0.48,0.235,0.61,0.393c0.13,0.158,0.222,0.357,0.273,0.599c0.029,0.149,0.044,0.42,0.044,0.811
			v1.172c0,0.817,0.019,1.334,0.056,1.55c0.038,0.217,0.112,0.425,0.223,0.623h-0.918C68.734,26.241,68.675,26.028,68.649,25.784z
			 M68.576,23.821c-0.319,0.13-0.798,0.241-1.436,0.332c-0.361,0.052-0.617,0.11-0.767,0.176s-0.266,0.16-0.347,0.286
			c-0.081,0.125-0.122,0.264-0.122,0.417c0,0.234,0.089,0.43,0.266,0.586c0.178,0.156,0.438,0.234,0.779,0.234
			c0.339,0,0.64-0.074,0.903-0.222c0.264-0.148,0.457-0.352,0.581-0.608c0.095-0.198,0.142-0.491,0.142-0.879V23.821z"/>
		<path style="fill:#FFFFFF;" d="M70.185,24.876l0.869-0.137c0.049,0.349,0.185,0.615,0.407,0.801
			c0.224,0.186,0.535,0.278,0.936,0.278c0.403,0,0.703-0.082,0.898-0.246c0.195-0.165,0.293-0.357,0.293-0.579
			c0-0.198-0.086-0.354-0.259-0.469c-0.12-0.078-0.42-0.178-0.898-0.298c-0.645-0.163-1.091-0.304-1.341-0.422
			c-0.248-0.119-0.438-0.283-0.566-0.494c-0.128-0.209-0.192-0.441-0.192-0.695c0-0.231,0.053-0.445,0.159-0.643
			c0.105-0.196,0.249-0.36,0.432-0.49c0.137-0.101,0.323-0.187,0.559-0.256c0.236-0.07,0.489-0.105,0.76-0.105
			c0.407,0,0.764,0.059,1.072,0.176c0.307,0.117,0.534,0.275,0.681,0.477c0.146,0.199,0.247,0.468,0.303,0.803l-0.859,0.117
			c-0.039-0.267-0.152-0.476-0.339-0.625c-0.188-0.149-0.452-0.225-0.794-0.225c-0.403,0-0.691,0.066-0.864,0.2
			s-0.259,0.29-0.259,0.469c0,0.114,0.036,0.217,0.107,0.308c0.071,0.095,0.184,0.173,0.337,0.234
			c0.088,0.032,0.347,0.107,0.776,0.225c0.622,0.166,1.056,0.302,1.302,0.408c0.245,0.105,0.438,0.259,0.578,0.461
			s0.21,0.452,0.21,0.752c0,0.293-0.085,0.568-0.257,0.828c-0.17,0.258-0.417,0.459-0.739,0.6c-0.322,0.143-0.687,0.213-1.094,0.213
			c-0.674,0-1.188-0.14-1.54-0.42C70.508,25.841,70.283,25.426,70.185,24.876z"/>
		<path style="fill:#FFFFFF;" d="M77.74,20.276v-1.011h0.879v1.011H77.74z M77.74,26.424v-5.186h0.879v5.186H77.74z"/>
		<path style="fill:#FFFFFF;" d="M79.666,26.424v-5.186h0.791v0.737c0.381-0.569,0.931-0.854,1.65-0.854
			c0.313,0,0.6,0.057,0.862,0.168c0.262,0.113,0.458,0.26,0.588,0.442s0.222,0.398,0.273,0.649c0.032,0.163,0.049,0.447,0.049,0.854
			v3.188h-0.879V23.27c0-0.358-0.034-0.626-0.103-0.803c-0.068-0.178-0.189-0.319-0.364-0.426c-0.174-0.105-0.378-0.158-0.612-0.158
			c-0.374,0-0.697,0.119-0.97,0.356c-0.271,0.237-0.407,0.688-0.407,1.353v2.832H79.666z"/>
		<path style="fill:#FFFFFF;" d="M85.148,26.424v-4.502h-0.776v-0.684h0.776v-0.552c0-0.349,0.031-0.607,0.093-0.776
			c0.085-0.228,0.233-0.412,0.446-0.555c0.214-0.141,0.513-0.212,0.896-0.212c0.247,0,0.521,0.029,0.82,0.088l-0.132,0.767
			c-0.183-0.032-0.354-0.049-0.518-0.049c-0.267,0-0.456,0.057-0.566,0.171s-0.166,0.327-0.166,0.64v0.479h1.011v0.684h-1.011v4.502
			H85.148z"/>
		<path style="fill:#FFFFFF;" d="M87.099,23.831c0-0.96,0.267-1.672,0.801-2.134c0.446-0.384,0.989-0.576,1.631-0.576
			c0.713,0,1.296,0.233,1.748,0.701c0.452,0.467,0.679,1.112,0.679,1.936c0,0.667-0.101,1.192-0.3,1.574
			c-0.201,0.383-0.492,0.68-0.875,0.892c-0.382,0.212-0.8,0.317-1.252,0.317c-0.726,0-1.313-0.232-1.76-0.698
			C87.323,25.377,87.099,24.707,87.099,23.831z M88.002,23.831c0,0.664,0.145,1.161,0.435,1.491c0.29,0.331,0.654,0.496,1.094,0.496
			c0.437,0,0.799-0.166,1.089-0.498s0.435-0.838,0.435-1.519c0-0.642-0.146-1.127-0.438-1.458c-0.291-0.33-0.653-0.495-1.086-0.495
			c-0.439,0-0.804,0.164-1.094,0.493S88.002,23.167,88.002,23.831z"/>
		<path style="fill:#FFFFFF;" d="M92.689,26.424v-5.186h0.791v0.786c0.202-0.368,0.388-0.61,0.56-0.728
			c0.17-0.117,0.358-0.176,0.563-0.176c0.297,0,0.598,0.095,0.904,0.283l-0.303,0.815c-0.215-0.127-0.43-0.19-0.645-0.19
			c-0.193,0-0.365,0.058-0.518,0.174c-0.153,0.115-0.262,0.275-0.327,0.48c-0.098,0.313-0.146,0.654-0.146,1.025v2.715H92.689z"/>
		<path style="fill:#FFFFFF;" d="M95.739,26.424v-5.186h0.785v0.728c0.164-0.254,0.379-0.458,0.65-0.612
			c0.27-0.155,0.578-0.232,0.922-0.232c0.385,0,0.699,0.08,0.945,0.239s0.42,0.383,0.52,0.669c0.41-0.605,0.945-0.908,1.602-0.908
			c0.516,0,0.91,0.143,1.188,0.428c0.275,0.284,0.414,0.723,0.414,1.315v3.56h-0.873v-3.267c0-0.352-0.029-0.604-0.086-0.759
			c-0.057-0.155-0.16-0.279-0.311-0.374c-0.148-0.095-0.324-0.142-0.527-0.142c-0.363,0-0.666,0.121-0.908,0.363
			c-0.24,0.243-0.361,0.631-0.361,1.165v3.013h-0.879v-3.369c0-0.391-0.07-0.684-0.215-0.879c-0.143-0.195-0.377-0.293-0.703-0.293
			c-0.246,0-0.477,0.065-0.686,0.195c-0.211,0.13-0.361,0.32-0.457,0.571c-0.094,0.251-0.141,0.612-0.141,1.084v2.69H95.739z"/>
		<path style="fill:#FFFFFF;" d="M107.163,25.784c-0.326,0.276-0.639,0.472-0.939,0.586c-0.303,0.114-0.625,0.171-0.971,0.171
			c-0.568,0-1.008-0.139-1.313-0.418c-0.307-0.277-0.459-0.634-0.459-1.066c0-0.254,0.057-0.486,0.174-0.695
			c0.115-0.211,0.266-0.379,0.453-0.506s0.398-0.223,0.633-0.288c0.172-0.046,0.432-0.09,0.781-0.132
			c0.709-0.085,1.232-0.186,1.566-0.303c0.004-0.12,0.006-0.197,0.006-0.229c0-0.358-0.084-0.61-0.25-0.757
			c-0.225-0.198-0.559-0.298-1-0.298c-0.414,0-0.719,0.072-0.916,0.218c-0.197,0.145-0.342,0.4-0.438,0.769l-0.859-0.117
			c0.078-0.368,0.207-0.665,0.387-0.892c0.178-0.226,0.438-0.4,0.775-0.521c0.34-0.123,0.73-0.184,1.178-0.184
			c0.441,0,0.803,0.052,1.078,0.156c0.277,0.104,0.48,0.235,0.611,0.393c0.129,0.158,0.221,0.357,0.273,0.599
			c0.029,0.149,0.043,0.42,0.043,0.811v1.172c0,0.817,0.02,1.334,0.057,1.55c0.037,0.217,0.111,0.425,0.223,0.623h-0.918
			C107.247,26.241,107.188,26.028,107.163,25.784z M107.089,23.821c-0.318,0.13-0.797,0.241-1.436,0.332
			c-0.361,0.052-0.617,0.11-0.766,0.176c-0.15,0.065-0.266,0.16-0.348,0.286c-0.08,0.125-0.121,0.264-0.121,0.417
			c0,0.234,0.088,0.43,0.266,0.586s0.438,0.234,0.779,0.234c0.338,0,0.639-0.074,0.902-0.222c0.264-0.148,0.457-0.352,0.582-0.608
			c0.094-0.198,0.141-0.491,0.141-0.879V23.821z"/>
		<path style="fill:#FFFFFF;" d="M112.434,24.524l0.863,0.112c-0.094,0.596-0.336,1.063-0.725,1.398
			c-0.389,0.338-0.867,0.506-1.434,0.506c-0.709,0-1.279-0.232-1.711-0.695c-0.432-0.465-0.646-1.129-0.646-1.995
			c0-0.56,0.092-1.05,0.277-1.47s0.469-0.734,0.848-0.945c0.379-0.209,0.791-0.314,1.238-0.314c0.563,0,1.023,0.143,1.381,0.428
			c0.359,0.284,0.588,0.688,0.689,1.213l-0.855,0.132c-0.08-0.349-0.225-0.61-0.432-0.786s-0.457-0.264-0.75-0.264
			c-0.441,0-0.803,0.158-1.078,0.477c-0.277,0.316-0.416,0.819-0.416,1.506c0,0.696,0.135,1.203,0.4,1.519
			c0.268,0.315,0.615,0.474,1.045,0.474c0.346,0,0.633-0.105,0.865-0.317C112.225,25.289,112.372,24.964,112.434,24.524z"/>
		<path style="fill:#FFFFFF;" d="M113.765,20.276v-1.011h0.879v1.011H113.765z M113.765,26.424v-5.186h0.879v5.186H113.765z"/>
		<path style="fill:#FFFFFF;" d="M115.364,23.831c0-0.96,0.268-1.672,0.801-2.134c0.447-0.384,0.99-0.576,1.631-0.576
			c0.713,0,1.297,0.233,1.748,0.701c0.453,0.467,0.68,1.112,0.68,1.936c0,0.667-0.102,1.192-0.301,1.574
			c-0.201,0.383-0.492,0.68-0.875,0.892c-0.381,0.212-0.799,0.317-1.252,0.317c-0.725,0-1.313-0.232-1.76-0.698
			S115.364,24.707,115.364,23.831z M116.268,23.831c0,0.664,0.145,1.161,0.434,1.491c0.291,0.331,0.654,0.496,1.094,0.496
			c0.438,0,0.799-0.166,1.09-0.498c0.289-0.332,0.434-0.838,0.434-1.519c0-0.642-0.145-1.127-0.438-1.458
			c-0.291-0.33-0.652-0.495-1.086-0.495c-0.439,0-0.803,0.164-1.094,0.493C116.413,22.671,116.268,23.167,116.268,23.831z
			 M117.308,20.594l0.65-1.367h1.152l-1.074,1.367H117.308z"/>
		<path style="fill:#FFFFFF;" d="M120.964,26.424v-5.186h0.791v0.737c0.381-0.569,0.93-0.854,1.65-0.854
			c0.313,0,0.6,0.057,0.861,0.168c0.262,0.113,0.459,0.26,0.588,0.442c0.131,0.183,0.223,0.398,0.273,0.649
			c0.033,0.163,0.049,0.447,0.049,0.854v3.188h-0.879V23.27c0-0.358-0.033-0.626-0.102-0.803c-0.068-0.178-0.189-0.319-0.365-0.426
			c-0.174-0.105-0.377-0.158-0.611-0.158c-0.375,0-0.697,0.119-0.971,0.356c-0.271,0.237-0.406,0.688-0.406,1.353v2.832H120.964z"/>
	</g>
</g>
</svg>
