<?xml version="1.0" encoding="utf-8"?>
<!-- Generator: Adobe Illustrator 17.0.0, SVG Export Plug-In . SVG Version: 6.00 Build 0)  -->
<!DOCTYPE svg PUBLIC "-//W3C//DTD SVG 1.1//EN" "http://www.w3.org/Graphics/SVG/1.1/DTD/svg11.dtd">
<svg version="1.1" id="Capa_1" xmlns="http://www.w3.org/2000/svg" xmlns:xlink="http://www.w3.org/1999/xlink" x="0px" y="0px"
	 width="447.419px" height="339.009px" viewBox="0 0 447.419 339.009" style="enable-background:new 0 0 447.419 339.009;"
	 xml:space="preserve">
<g>
	<g>
		<g>
			<path d="M15.18,39.175V27.722h4.32c0.761,0,1.341,0.036,1.742,0.109c0.563,0.094,1.034,0.272,1.414,0.535
				s0.687,0.632,0.918,1.105s0.348,0.995,0.348,1.563c0,0.974-0.31,1.798-0.93,2.473s-1.739,1.012-3.359,1.012h-2.938v4.656H15.18z
				 M16.695,33.167h2.961c0.979,0,1.675-0.183,2.086-0.547s0.617-0.878,0.617-1.539c0-0.479-0.121-0.89-0.363-1.23
				s-0.562-0.566-0.957-0.676c-0.255-0.067-0.727-0.102-1.414-0.102h-2.93V33.167z"/>
			<path d="M30.462,38.151c-0.521,0.442-1.022,0.755-1.504,0.938s-0.999,0.273-1.551,0.273c-0.911,0-1.612-0.223-2.102-0.668
				s-0.734-1.015-0.734-1.707c0-0.406,0.093-0.777,0.277-1.113s0.427-0.605,0.727-0.809s0.637-0.356,1.012-0.461
				c0.276-0.073,0.692-0.144,1.25-0.211c1.136-0.136,1.972-0.297,2.508-0.484c0.005-0.192,0.008-0.315,0.008-0.367
				c0-0.573-0.133-0.977-0.398-1.211c-0.359-0.317-0.894-0.477-1.602-0.477c-0.661,0-1.149,0.116-1.465,0.348
				c-0.315,0.231-0.548,0.642-0.699,1.23l-1.375-0.188c0.125-0.589,0.331-1.063,0.617-1.426c0.286-0.362,0.7-0.641,1.242-0.836
				s1.169-0.293,1.883-0.293c0.708,0,1.284,0.083,1.727,0.25s0.769,0.376,0.977,0.629s0.354,0.571,0.438,0.957
				c0.047,0.239,0.07,0.672,0.07,1.297v1.875c0,1.308,0.03,2.134,0.09,2.48s0.179,0.679,0.355,0.996h-1.469
				C30.598,38.883,30.504,38.542,30.462,38.151z M30.345,35.011c-0.511,0.208-1.276,0.386-2.297,0.531
				c-0.578,0.083-0.987,0.177-1.227,0.281s-0.425,0.257-0.555,0.457s-0.195,0.423-0.195,0.668c0,0.375,0.142,0.688,0.426,0.938
				s0.699,0.375,1.246,0.375c0.542,0,1.023-0.118,1.445-0.355s0.731-0.562,0.93-0.973c0.151-0.317,0.227-0.786,0.227-1.406V35.011z"
				/>
			<path d="M32.76,36.698l1.391-0.219c0.078,0.558,0.296,0.984,0.652,1.281s0.855,0.445,1.496,0.445
				c0.646,0,1.125-0.132,1.438-0.395s0.469-0.571,0.469-0.926c0-0.317-0.138-0.567-0.414-0.75c-0.192-0.125-0.672-0.284-1.438-0.477
				c-1.031-0.261-1.746-0.485-2.145-0.676s-0.7-0.453-0.906-0.789s-0.309-0.707-0.309-1.113c0-0.37,0.085-0.712,0.254-1.027
				c0.169-0.315,0.399-0.577,0.691-0.785c0.219-0.161,0.517-0.298,0.895-0.41s0.782-0.168,1.215-0.168
				c0.651,0,1.223,0.094,1.715,0.281s0.855,0.441,1.09,0.762c0.234,0.32,0.396,0.749,0.484,1.285l-1.375,0.188
				c-0.063-0.427-0.243-0.761-0.543-1c-0.3-0.239-0.723-0.359-1.27-0.359c-0.646,0-1.106,0.106-1.383,0.32
				c-0.276,0.214-0.414,0.464-0.414,0.75c0,0.183,0.058,0.347,0.172,0.492c0.114,0.151,0.294,0.276,0.539,0.375
				c0.141,0.052,0.555,0.172,1.242,0.359c0.995,0.266,1.688,0.483,2.082,0.652s0.702,0.415,0.926,0.738s0.336,0.724,0.336,1.203
				c0,0.469-0.137,0.91-0.41,1.324s-0.668,0.734-1.184,0.961s-1.099,0.34-1.75,0.34c-1.078,0-1.899-0.224-2.465-0.672
				S32.916,37.578,32.76,36.698z"/>
			<path d="M46.112,38.151c-0.521,0.442-1.022,0.755-1.504,0.938s-0.999,0.273-1.551,0.273c-0.911,0-1.612-0.223-2.102-0.668
				s-0.734-1.015-0.734-1.707c0-0.406,0.093-0.777,0.277-1.113s0.427-0.605,0.727-0.809s0.637-0.356,1.012-0.461
				c0.276-0.073,0.692-0.144,1.25-0.211c1.136-0.136,1.972-0.297,2.508-0.484c0.005-0.192,0.008-0.315,0.008-0.367
				c0-0.573-0.133-0.977-0.398-1.211c-0.359-0.317-0.894-0.477-1.602-0.477c-0.661,0-1.149,0.116-1.465,0.348
				c-0.315,0.231-0.548,0.642-0.699,1.23l-1.375-0.188c0.125-0.589,0.331-1.063,0.617-1.426c0.286-0.362,0.7-0.641,1.242-0.836
				s1.169-0.293,1.883-0.293c0.708,0,1.284,0.083,1.727,0.25s0.769,0.376,0.977,0.629s0.354,0.571,0.438,0.957
				c0.047,0.239,0.07,0.672,0.07,1.297v1.875c0,1.308,0.03,2.134,0.09,2.48s0.179,0.679,0.355,0.996h-1.469
				C46.248,38.883,46.154,38.542,46.112,38.151z M45.995,35.011c-0.511,0.208-1.276,0.386-2.297,0.531
				c-0.578,0.083-0.987,0.177-1.227,0.281s-0.425,0.257-0.555,0.457s-0.195,0.423-0.195,0.668c0,0.375,0.142,0.688,0.426,0.938
				s0.699,0.375,1.246,0.375c0.542,0,1.023-0.118,1.445-0.355s0.731-0.562,0.93-0.973c0.151-0.317,0.227-0.786,0.227-1.406V35.011z"
				/>
			<path d="M48.973,39.175v-8.297h1.266v1.18c0.609-0.911,1.489-1.367,2.641-1.367c0.5,0,0.96,0.09,1.379,0.27
				s0.733,0.415,0.941,0.707s0.354,0.638,0.438,1.039c0.052,0.261,0.078,0.716,0.078,1.367v5.102h-1.406v-5.047
				c0-0.573-0.055-1.001-0.164-1.285s-0.304-0.511-0.582-0.68c-0.278-0.169-0.605-0.254-0.98-0.254c-0.599,0-1.116,0.19-1.551,0.57
				s-0.652,1.102-0.652,2.164v4.531H48.973z"/>
			<path d="M62.63,39.175v-1.047c-0.526,0.823-1.3,1.234-2.32,1.234c-0.661,0-1.27-0.183-1.824-0.547s-0.984-0.874-1.289-1.527
				s-0.457-1.405-0.457-2.254c0-0.828,0.138-1.579,0.414-2.254s0.69-1.191,1.242-1.551s1.169-0.539,1.852-0.539
				c0.5,0,0.945,0.105,1.336,0.316s0.708,0.485,0.953,0.824v-4.109h1.398v11.453H62.63z M58.185,35.034
				c0,1.063,0.224,1.856,0.672,2.383s0.977,0.789,1.586,0.789c0.614,0,1.137-0.251,1.566-0.754s0.645-1.27,0.645-2.301
				c0-1.136-0.219-1.969-0.656-2.5s-0.977-0.797-1.617-0.797c-0.625,0-1.147,0.255-1.566,0.766S58.185,33.936,58.185,35.034z"/>
			<path d="M64.998,35.026c0-1.536,0.427-2.675,1.281-3.414c0.714-0.614,1.583-0.922,2.609-0.922c1.141,0,2.073,0.374,2.797,1.121
				c0.724,0.747,1.086,1.78,1.086,3.098c0,1.067-0.16,1.907-0.48,2.52s-0.786,1.087-1.398,1.426s-1.28,0.508-2.004,0.508
				c-1.161,0-2.101-0.372-2.816-1.117S64.998,36.428,64.998,35.026z M66.443,35.026c0,1.063,0.231,1.858,0.695,2.387
				s1.047,0.793,1.75,0.793c0.698,0,1.278-0.266,1.742-0.797s0.695-1.341,0.695-2.43c0-1.026-0.233-1.804-0.699-2.332
				s-1.046-0.793-1.738-0.793c-0.703,0-1.286,0.263-1.75,0.789S66.443,33.964,66.443,35.026z"/>
			<path d="M84.877,38.151c-0.521,0.442-1.022,0.755-1.504,0.938s-0.999,0.273-1.551,0.273c-0.911,0-1.612-0.223-2.102-0.668
				s-0.734-1.015-0.734-1.707c0-0.406,0.093-0.777,0.277-1.113s0.427-0.605,0.727-0.809s0.637-0.356,1.012-0.461
				c0.276-0.073,0.692-0.144,1.25-0.211c1.136-0.136,1.972-0.297,2.508-0.484c0.005-0.192,0.008-0.315,0.008-0.367
				c0-0.573-0.133-0.977-0.398-1.211c-0.359-0.317-0.894-0.477-1.602-0.477c-0.661,0-1.149,0.116-1.465,0.348
				c-0.315,0.231-0.548,0.642-0.699,1.23l-1.375-0.188c0.125-0.589,0.331-1.063,0.617-1.426c0.286-0.362,0.7-0.641,1.242-0.836
				s1.169-0.293,1.883-0.293c0.708,0,1.284,0.083,1.727,0.25s0.769,0.376,0.977,0.629s0.354,0.571,0.438,0.957
				c0.047,0.239,0.07,0.672,0.07,1.297v1.875c0,1.308,0.03,2.134,0.09,2.48s0.179,0.679,0.355,0.996h-1.469
				C85.013,38.883,84.919,38.542,84.877,38.151z M84.76,35.011c-0.511,0.208-1.276,0.386-2.297,0.531
				c-0.578,0.083-0.987,0.177-1.227,0.281s-0.425,0.257-0.555,0.457s-0.195,0.423-0.195,0.668c0,0.375,0.142,0.688,0.426,0.938
				s0.699,0.375,1.246,0.375c0.542,0,1.023-0.118,1.445-0.355s0.731-0.562,0.93-0.973c0.151-0.317,0.227-0.786,0.227-1.406V35.011z"
				/>
			<path d="M87.707,39.175V27.722h1.406v11.453H87.707z"/>
			<path d="M96.336,42.355V30.878h1.281v1.078c0.302-0.422,0.644-0.738,1.023-0.949s0.841-0.316,1.383-0.316
				c0.708,0,1.333,0.183,1.875,0.547s0.95,0.879,1.227,1.543s0.414,1.392,0.414,2.184c0,0.849-0.152,1.613-0.457,2.293
				s-0.747,1.2-1.328,1.563s-1.191,0.543-1.832,0.543c-0.469,0-0.89-0.099-1.262-0.297s-0.679-0.448-0.918-0.75v4.039H96.336z
				 M97.609,35.073c0,1.067,0.216,1.856,0.648,2.367s0.956,0.766,1.57,0.766c0.625,0,1.16-0.265,1.605-0.793
				s0.668-1.348,0.668-2.457c0-1.058-0.218-1.849-0.652-2.375s-0.954-0.789-1.559-0.789c-0.599,0-1.129,0.28-1.59,0.84
				S97.609,34.006,97.609,35.073z"/>
			<path d="M104.595,39.175v-8.297h1.266v1.258c0.323-0.589,0.621-0.977,0.895-1.164s0.574-0.281,0.902-0.281
				c0.474,0,0.956,0.151,1.445,0.453l-0.484,1.305c-0.344-0.203-0.688-0.305-1.031-0.305c-0.308,0-0.583,0.093-0.828,0.277
				s-0.419,0.441-0.523,0.77c-0.156,0.5-0.234,1.047-0.234,1.641v4.344H104.595z"/>
			<path d="M109.322,29.339v-1.617h1.406v1.617H109.322z M109.322,39.175v-8.297h1.406v8.297H109.322z"/>
			<path d="M112.245,39.175v-8.297h1.258v1.164c0.261-0.406,0.606-0.733,1.039-0.98s0.925-0.371,1.477-0.371
				c0.614,0,1.118,0.128,1.512,0.383s0.671,0.612,0.832,1.07c0.656-0.969,1.511-1.453,2.563-1.453c0.823,0,1.456,0.228,1.898,0.684
				s0.664,1.157,0.664,2.105v5.695h-1.398v-5.227c0-0.563-0.046-0.968-0.137-1.215s-0.257-0.446-0.496-0.598
				c-0.239-0.151-0.521-0.227-0.844-0.227c-0.583,0-1.067,0.194-1.453,0.582s-0.578,1.009-0.578,1.863v4.82h-1.406v-5.391
				c0-0.625-0.114-1.094-0.344-1.406s-0.604-0.469-1.125-0.469c-0.396,0-0.762,0.104-1.098,0.313s-0.579,0.513-0.73,0.914
				s-0.227,0.979-0.227,1.734v4.305H112.245z"/>
			<path d="M130.629,36.503l1.453,0.18c-0.229,0.849-0.653,1.508-1.273,1.977s-1.411,0.703-2.375,0.703
				c-1.214,0-2.176-0.374-2.887-1.121s-1.066-1.796-1.066-3.145c0-1.396,0.359-2.479,1.078-3.25
				c0.719-0.771,1.651-1.156,2.797-1.156c1.109,0,2.016,0.378,2.719,1.133c0.703,0.755,1.055,1.817,1.055,3.188
				c0,0.083-0.003,0.208-0.008,0.375h-6.187c0.052,0.911,0.31,1.609,0.773,2.094s1.042,0.727,1.734,0.727
				c0.516,0,0.956-0.136,1.32-0.406S130.415,37.097,130.629,36.503z M126.012,34.23h4.633c-0.063-0.698-0.239-1.222-0.531-1.57
				c-0.448-0.542-1.028-0.813-1.742-0.813c-0.646,0-1.188,0.216-1.629,0.648S126.059,33.506,126.012,34.23z"/>
			<path d="M133.208,39.175v-8.297h1.266v1.258c0.323-0.589,0.621-0.977,0.895-1.164s0.574-0.281,0.902-0.281
				c0.474,0,0.956,0.151,1.445,0.453l-0.484,1.305c-0.344-0.203-0.688-0.305-1.031-0.305c-0.308,0-0.583,0.093-0.828,0.277
				s-0.419,0.441-0.523,0.77c-0.156,0.5-0.234,1.047-0.234,1.641v4.344H133.208z"/>
			<path d="M143.728,39.175V27.722h2.281l2.711,8.109c0.25,0.755,0.433,1.32,0.547,1.695c0.13-0.417,0.333-1.028,0.609-1.836
				l2.742-7.969h2.039v11.453h-1.461v-9.586l-3.328,9.586h-1.367l-3.313-9.75v9.75H143.728z"/>
			<path d="M161.713,38.151c-0.521,0.442-1.022,0.755-1.504,0.938s-0.999,0.273-1.551,0.273c-0.911,0-1.612-0.223-2.102-0.668
				s-0.734-1.015-0.734-1.707c0-0.406,0.093-0.777,0.277-1.113s0.427-0.605,0.727-0.809s0.637-0.356,1.012-0.461
				c0.276-0.073,0.692-0.144,1.25-0.211c1.136-0.136,1.972-0.297,2.508-0.484c0.005-0.192,0.008-0.315,0.008-0.367
				c0-0.573-0.133-0.977-0.398-1.211c-0.359-0.317-0.894-0.477-1.602-0.477c-0.661,0-1.149,0.116-1.465,0.348
				c-0.315,0.231-0.548,0.642-0.699,1.23l-1.375-0.188c0.125-0.589,0.331-1.063,0.617-1.426c0.286-0.362,0.7-0.641,1.242-0.836
				s1.169-0.293,1.883-0.293c0.708,0,1.284,0.083,1.727,0.25s0.769,0.376,0.977,0.629s0.354,0.571,0.438,0.957
				c0.047,0.239,0.07,0.672,0.07,1.297v1.875c0,1.308,0.03,2.134,0.09,2.48s0.179,0.679,0.355,0.996h-1.469
				C161.849,38.883,161.755,38.542,161.713,38.151z M161.596,35.011c-0.511,0.208-1.276,0.386-2.297,0.531
				c-0.578,0.083-0.987,0.177-1.227,0.281s-0.425,0.257-0.555,0.457s-0.195,0.423-0.195,0.668c0,0.375,0.142,0.688,0.426,0.938
				s0.699,0.375,1.246,0.375c0.542,0,1.023-0.118,1.445-0.355s0.731-0.562,0.93-0.973c0.151-0.317,0.227-0.786,0.227-1.406V35.011z"
				/>
			<path d="M164.573,42.355V30.878h1.281v1.078c0.302-0.422,0.644-0.738,1.023-0.949s0.841-0.316,1.383-0.316
				c0.708,0,1.333,0.183,1.875,0.547s0.95,0.879,1.227,1.543s0.414,1.392,0.414,2.184c0,0.849-0.152,1.613-0.457,2.293
				s-0.747,1.2-1.328,1.563s-1.191,0.543-1.832,0.543c-0.469,0-0.89-0.099-1.262-0.297s-0.679-0.448-0.918-0.75v4.039H164.573z
				 M165.847,35.073c0,1.067,0.216,1.856,0.648,2.367s0.956,0.766,1.57,0.766c0.625,0,1.16-0.265,1.605-0.793
				s0.668-1.348,0.668-2.457c0-1.058-0.218-1.849-0.652-2.375s-0.954-0.789-1.559-0.789c-0.599,0-1.129,0.28-1.59,0.84
				S165.847,34.006,165.847,35.073z"/>
			<path d="M178.262,38.151c-0.521,0.442-1.022,0.755-1.504,0.938s-0.999,0.273-1.551,0.273c-0.911,0-1.612-0.223-2.102-0.668
				s-0.734-1.015-0.734-1.707c0-0.406,0.093-0.777,0.277-1.113s0.427-0.605,0.727-0.809s0.637-0.356,1.012-0.461
				c0.276-0.073,0.692-0.144,1.25-0.211c1.136-0.136,1.972-0.297,2.508-0.484c0.005-0.192,0.008-0.315,0.008-0.367
				c0-0.573-0.133-0.977-0.398-1.211c-0.359-0.317-0.894-0.477-1.602-0.477c-0.661,0-1.149,0.116-1.465,0.348
				c-0.315,0.231-0.548,0.642-0.699,1.23l-1.375-0.188c0.125-0.589,0.331-1.063,0.617-1.426c0.286-0.362,0.7-0.641,1.242-0.836
				s1.169-0.293,1.883-0.293c0.708,0,1.284,0.083,1.727,0.25s0.769,0.376,0.977,0.629s0.354,0.571,0.438,0.957
				c0.047,0.239,0.07,0.672,0.07,1.297v1.875c0,1.308,0.03,2.134,0.09,2.48s0.179,0.679,0.355,0.996h-1.469
				C178.397,38.883,178.304,38.542,178.262,38.151z M178.145,35.011c-0.511,0.208-1.276,0.386-2.297,0.531
				c-0.578,0.083-0.987,0.177-1.227,0.281s-0.425,0.257-0.555,0.457s-0.195,0.423-0.195,0.668c0,0.375,0.142,0.688,0.426,0.938
				s0.699,0.375,1.246,0.375c0.542,0,1.023-0.118,1.445-0.355s0.731-0.562,0.93-0.973c0.151-0.317,0.227-0.786,0.227-1.406V35.011z"
				/>
			<path d="M192.173,39.175v-1.047c-0.526,0.823-1.3,1.234-2.32,1.234c-0.661,0-1.27-0.183-1.824-0.547s-0.984-0.874-1.289-1.527
				s-0.457-1.405-0.457-2.254c0-0.828,0.138-1.579,0.414-2.254s0.69-1.191,1.242-1.551s1.169-0.539,1.852-0.539
				c0.5,0,0.945,0.105,1.336,0.316s0.708,0.485,0.953,0.824v-4.109h1.398v11.453H192.173z M187.728,35.034
				c0,1.063,0.224,1.856,0.672,2.383s0.977,0.789,1.586,0.789c0.614,0,1.137-0.251,1.566-0.754s0.645-1.27,0.645-2.301
				c0-1.136-0.219-1.969-0.656-2.5s-0.977-0.797-1.617-0.797c-0.625,0-1.147,0.255-1.566,0.766S187.728,33.936,187.728,35.034z"/>
			<path d="M200.744,36.503l1.453,0.18c-0.229,0.849-0.653,1.508-1.273,1.977s-1.411,0.703-2.375,0.703
				c-1.214,0-2.176-0.374-2.887-1.121s-1.066-1.796-1.066-3.145c0-1.396,0.359-2.479,1.078-3.25
				c0.719-0.771,1.651-1.156,2.797-1.156c1.109,0,2.016,0.378,2.719,1.133c0.703,0.755,1.055,1.817,1.055,3.188
				c0,0.083-0.003,0.208-0.008,0.375h-6.188c0.052,0.911,0.31,1.609,0.773,2.094s1.042,0.727,1.734,0.727
				c0.516,0,0.956-0.136,1.32-0.406S200.53,37.097,200.744,36.503z M196.127,34.23h4.633c-0.063-0.698-0.239-1.222-0.531-1.57
				c-0.448-0.542-1.028-0.813-1.742-0.813c-0.646,0-1.188,0.216-1.629,0.648S196.174,33.506,196.127,34.23z"/>
			<path d="M209.186,39.175V27.722h4.32c0.761,0,1.341,0.036,1.742,0.109c0.563,0.094,1.034,0.272,1.414,0.535
				s0.687,0.632,0.918,1.105s0.348,0.995,0.348,1.563c0,0.974-0.31,1.798-0.93,2.473s-1.739,1.012-3.359,1.012h-2.938v4.656H209.186
				z M210.701,33.167h2.961c0.979,0,1.675-0.183,2.086-0.547s0.617-0.878,0.617-1.539c0-0.479-0.121-0.89-0.363-1.23
				s-0.562-0.566-0.957-0.676c-0.255-0.067-0.727-0.102-1.414-0.102h-2.93V33.167z"/>
			<path d="M219.038,39.175v-8.297h1.266v1.258c0.323-0.589,0.621-0.977,0.895-1.164s0.574-0.281,0.902-0.281
				c0.474,0,0.956,0.151,1.445,0.453l-0.484,1.305c-0.344-0.203-0.688-0.305-1.031-0.305c-0.308,0-0.583,0.093-0.828,0.277
				s-0.419,0.441-0.523,0.77c-0.156,0.5-0.234,1.047-0.234,1.641v4.344H219.038z"/>
			<path d="M223.234,35.026c0-1.536,0.427-2.675,1.281-3.414c0.714-0.614,1.583-0.922,2.609-0.922c1.141,0,2.073,0.374,2.797,1.121
				c0.724,0.747,1.086,1.78,1.086,3.098c0,1.067-0.16,1.907-0.48,2.52s-0.786,1.087-1.398,1.426s-1.28,0.508-2.004,0.508
				c-1.161,0-2.101-0.372-2.816-1.117S223.234,36.428,223.234,35.026z M224.68,35.026c0,1.063,0.231,1.858,0.695,2.387
				s1.047,0.793,1.75,0.793c0.698,0,1.278-0.266,1.742-0.797s0.695-1.341,0.695-2.43c0-1.026-0.233-1.804-0.699-2.332
				s-1.046-0.793-1.738-0.793c-0.703,0-1.286,0.263-1.75,0.789S224.68,33.964,224.68,35.026z"/>
			<path d="M237.446,36.136l1.383,0.18c-0.151,0.953-0.538,1.699-1.16,2.238s-1.387,0.809-2.293,0.809
				c-1.136,0-2.048-0.371-2.738-1.113s-1.035-1.806-1.035-3.191c0-0.896,0.148-1.68,0.445-2.352s0.749-1.176,1.355-1.512
				s1.267-0.504,1.98-0.504c0.901,0,1.638,0.228,2.211,0.684s0.94,1.103,1.102,1.941l-1.367,0.211
				c-0.13-0.558-0.36-0.977-0.691-1.258c-0.331-0.281-0.73-0.422-1.199-0.422c-0.708,0-1.284,0.254-1.727,0.762
				s-0.664,1.312-0.664,2.41c0,1.114,0.214,1.925,0.641,2.43s0.984,0.758,1.672,0.758c0.552,0,1.013-0.169,1.383-0.508
				S237.348,36.839,237.446,36.136z"/>
			<path d="M245.088,36.503l1.453,0.18c-0.229,0.849-0.653,1.508-1.273,1.977s-1.411,0.703-2.375,0.703
				c-1.214,0-2.176-0.374-2.887-1.121s-1.066-1.796-1.066-3.145c0-1.396,0.359-2.479,1.078-3.25
				c0.719-0.771,1.651-1.156,2.797-1.156c1.109,0,2.016,0.378,2.719,1.133c0.703,0.755,1.055,1.817,1.055,3.188
				c0,0.083-0.003,0.208-0.008,0.375h-6.188c0.052,0.911,0.31,1.609,0.773,2.094s1.042,0.727,1.734,0.727
				c0.516,0,0.956-0.136,1.32-0.406S244.874,37.097,245.088,36.503z M240.471,34.23h4.633c-0.063-0.698-0.239-1.222-0.531-1.57
				c-0.448-0.542-1.028-0.813-1.742-0.813c-0.646,0-1.188,0.216-1.629,0.648S240.518,33.506,240.471,34.23z"/>
			<path d="M247.12,36.698l1.391-0.219c0.078,0.558,0.296,0.984,0.652,1.281s0.855,0.445,1.496,0.445
				c0.646,0,1.125-0.132,1.438-0.395s0.469-0.571,0.469-0.926c0-0.317-0.138-0.567-0.414-0.75c-0.192-0.125-0.672-0.284-1.438-0.477
				c-1.031-0.261-1.746-0.485-2.145-0.676s-0.7-0.453-0.906-0.789s-0.309-0.707-0.309-1.113c0-0.37,0.085-0.712,0.254-1.027
				c0.169-0.315,0.399-0.577,0.691-0.785c0.219-0.161,0.517-0.298,0.895-0.41s0.782-0.168,1.215-0.168
				c0.651,0,1.223,0.094,1.715,0.281s0.855,0.441,1.09,0.762c0.234,0.32,0.396,0.749,0.484,1.285l-1.375,0.188
				c-0.063-0.427-0.243-0.761-0.543-1c-0.3-0.239-0.723-0.359-1.27-0.359c-0.646,0-1.106,0.106-1.383,0.32
				c-0.276,0.214-0.414,0.464-0.414,0.75c0,0.183,0.058,0.347,0.172,0.492c0.114,0.151,0.294,0.276,0.539,0.375
				c0.141,0.052,0.555,0.172,1.242,0.359c0.995,0.266,1.688,0.483,2.082,0.652s0.702,0.415,0.926,0.738s0.336,0.724,0.336,1.203
				c0,0.469-0.137,0.91-0.41,1.324s-0.668,0.734-1.184,0.961s-1.099,0.34-1.75,0.34c-1.078,0-1.899-0.224-2.465-0.672
				S247.276,37.578,247.12,36.698z"/>
			<path d="M254.535,35.026c0-1.536,0.427-2.675,1.281-3.414c0.714-0.614,1.583-0.922,2.609-0.922c1.141,0,2.073,0.374,2.797,1.121
				c0.724,0.747,1.086,1.78,1.086,3.098c0,1.067-0.16,1.907-0.48,2.52s-0.786,1.087-1.398,1.426s-1.28,0.508-2.004,0.508
				c-1.161,0-2.101-0.372-2.816-1.117S254.535,36.428,254.535,35.026z M255.98,35.026c0,1.063,0.231,1.858,0.695,2.387
				s1.047,0.793,1.75,0.793c0.698,0,1.278-0.266,1.742-0.797s0.695-1.341,0.695-2.43c0-1.026-0.233-1.804-0.699-2.332
				s-1.046-0.793-1.738-0.793c-0.703,0-1.286,0.263-1.75,0.789S255.98,33.964,255.98,35.026z"/>
			<path d="M262.771,36.698l1.391-0.219c0.078,0.558,0.296,0.984,0.652,1.281s0.855,0.445,1.496,0.445
				c0.646,0,1.125-0.132,1.438-0.395s0.469-0.571,0.469-0.926c0-0.317-0.138-0.567-0.414-0.75c-0.192-0.125-0.672-0.284-1.438-0.477
				c-1.031-0.261-1.746-0.485-2.145-0.676s-0.7-0.453-0.906-0.789s-0.309-0.707-0.309-1.113c0-0.37,0.085-0.712,0.254-1.027
				c0.169-0.315,0.399-0.577,0.691-0.785c0.219-0.161,0.517-0.298,0.895-0.41s0.782-0.168,1.215-0.168
				c0.651,0,1.223,0.094,1.715,0.281s0.855,0.441,1.09,0.762c0.234,0.32,0.396,0.749,0.484,1.285l-1.375,0.188
				c-0.063-0.427-0.243-0.761-0.543-1c-0.3-0.239-0.723-0.359-1.27-0.359c-0.646,0-1.106,0.106-1.383,0.32
				c-0.276,0.214-0.414,0.464-0.414,0.75c0,0.183,0.058,0.347,0.172,0.492c0.114,0.151,0.294,0.276,0.539,0.375
				c0.141,0.052,0.555,0.172,1.242,0.359c0.995,0.266,1.688,0.483,2.082,0.652s0.702,0.415,0.926,0.738s0.336,0.724,0.336,1.203
				c0,0.469-0.137,0.91-0.41,1.324s-0.668,0.734-1.184,0.961s-1.099,0.34-1.75,0.34c-1.078,0-1.899-0.224-2.465-0.672
				S262.927,37.578,262.771,36.698z"/>
			<path d="M281.76,39.175v-1.047c-0.526,0.823-1.3,1.234-2.32,1.234c-0.661,0-1.27-0.183-1.824-0.547s-0.984-0.874-1.289-1.527
				s-0.457-1.405-0.457-2.254c0-0.828,0.138-1.579,0.414-2.254s0.69-1.191,1.242-1.551s1.169-0.539,1.852-0.539
				c0.5,0,0.945,0.105,1.336,0.316s0.708,0.485,0.953,0.824v-4.109h1.398v11.453H281.76z M277.314,35.034
				c0,1.063,0.224,1.856,0.672,2.383s0.977,0.789,1.586,0.789c0.614,0,1.137-0.251,1.566-0.754s0.645-1.27,0.645-2.301
				c0-1.136-0.219-1.969-0.656-2.5s-0.977-0.797-1.617-0.797c-0.625,0-1.147,0.255-1.566,0.766S277.314,33.936,277.314,35.034z"/>
			<path d="M290.331,36.503l1.453,0.18c-0.229,0.849-0.653,1.508-1.273,1.977s-1.411,0.703-2.375,0.703
				c-1.214,0-2.176-0.374-2.887-1.121s-1.066-1.796-1.066-3.145c0-1.396,0.359-2.479,1.078-3.25
				c0.719-0.771,1.651-1.156,2.797-1.156c1.109,0,2.016,0.378,2.719,1.133c0.703,0.755,1.055,1.817,1.055,3.188
				c0,0.083-0.003,0.208-0.008,0.375h-6.188c0.052,0.911,0.31,1.609,0.773,2.094s1.042,0.727,1.734,0.727
				c0.516,0,0.956-0.136,1.32-0.406S290.117,37.097,290.331,36.503z M285.714,34.23h4.633c-0.063-0.698-0.239-1.222-0.531-1.57
				c-0.448-0.542-1.028-0.813-1.742-0.813c-0.646,0-1.188,0.216-1.629,0.648S285.761,33.506,285.714,34.23z"/>
			<path d="M292.895,39.175V27.722h1.406v11.453H292.895z"/>
			<path d="M306.938,36.136l1.383,0.18c-0.151,0.953-0.538,1.699-1.16,2.238s-1.387,0.809-2.293,0.809
				c-1.136,0-2.048-0.371-2.738-1.113s-1.035-1.806-1.035-3.191c0-0.896,0.148-1.68,0.445-2.352s0.749-1.176,1.355-1.512
				s1.267-0.504,1.98-0.504c0.901,0,1.638,0.228,2.211,0.684s0.94,1.103,1.102,1.941l-1.367,0.211
				c-0.13-0.558-0.36-0.977-0.691-1.258c-0.331-0.281-0.73-0.422-1.199-0.422c-0.708,0-1.284,0.254-1.727,0.762
				s-0.664,1.312-0.664,2.41c0,1.114,0.214,1.925,0.641,2.43s0.984,0.758,1.672,0.758c0.552,0,1.013-0.169,1.383-0.508
				S306.839,36.839,306.938,36.136z"/>
			<path d="M314.314,38.151c-0.521,0.442-1.022,0.755-1.504,0.938s-0.999,0.273-1.551,0.273c-0.911,0-1.612-0.223-2.102-0.668
				s-0.734-1.015-0.734-1.707c0-0.406,0.093-0.777,0.277-1.113s0.427-0.605,0.727-0.809s0.637-0.356,1.012-0.461
				c0.276-0.073,0.692-0.144,1.25-0.211c1.136-0.136,1.972-0.297,2.508-0.484c0.005-0.192,0.008-0.315,0.008-0.367
				c0-0.573-0.133-0.977-0.398-1.211c-0.359-0.317-0.894-0.477-1.602-0.477c-0.661,0-1.149,0.116-1.465,0.348
				c-0.315,0.231-0.548,0.642-0.699,1.23l-1.375-0.188c0.125-0.589,0.331-1.063,0.617-1.426c0.286-0.362,0.7-0.641,1.242-0.836
				s1.169-0.293,1.883-0.293c0.708,0,1.284,0.083,1.727,0.25s0.769,0.376,0.977,0.629s0.354,0.571,0.438,0.957
				c0.047,0.239,0.07,0.672,0.07,1.297v1.875c0,1.308,0.03,2.134,0.09,2.48s0.179,0.679,0.355,0.996h-1.469
				C314.449,38.883,314.355,38.542,314.314,38.151z M314.196,35.011c-0.511,0.208-1.276,0.386-2.297,0.531
				c-0.578,0.083-0.987,0.177-1.227,0.281s-0.425,0.257-0.555,0.457s-0.195,0.423-0.195,0.668c0,0.375,0.142,0.688,0.426,0.938
				s0.699,0.375,1.246,0.375c0.542,0,1.023-0.118,1.445-0.355s0.731-0.562,0.93-0.973c0.151-0.317,0.227-0.786,0.227-1.406V35.011z"
				/>
			<path d="M316.611,36.698l1.391-0.219c0.078,0.558,0.296,0.984,0.652,1.281s0.855,0.445,1.496,0.445
				c0.646,0,1.125-0.132,1.438-0.395s0.469-0.571,0.469-0.926c0-0.317-0.138-0.567-0.414-0.75c-0.192-0.125-0.672-0.284-1.438-0.477
				c-1.031-0.261-1.746-0.485-2.145-0.676s-0.7-0.453-0.906-0.789s-0.309-0.707-0.309-1.113c0-0.37,0.085-0.712,0.254-1.027
				c0.169-0.315,0.399-0.577,0.691-0.785c0.219-0.161,0.517-0.298,0.895-0.41s0.782-0.168,1.215-0.168
				c0.651,0,1.223,0.094,1.715,0.281s0.855,0.441,1.09,0.762c0.234,0.32,0.396,0.749,0.484,1.285l-1.375,0.188
				c-0.063-0.427-0.243-0.761-0.543-1c-0.3-0.239-0.723-0.359-1.27-0.359c-0.646,0-1.106,0.106-1.383,0.32
				c-0.276,0.214-0.414,0.464-0.414,0.75c0,0.183,0.058,0.347,0.172,0.492c0.114,0.151,0.294,0.276,0.539,0.375
				c0.141,0.052,0.555,0.172,1.242,0.359c0.995,0.266,1.688,0.483,2.082,0.652s0.702,0.415,0.926,0.738s0.336,0.724,0.336,1.203
				c0,0.469-0.137,0.91-0.41,1.324s-0.668,0.734-1.184,0.961s-1.099,0.34-1.75,0.34c-1.078,0-1.899-0.224-2.465-0.672
				S316.768,37.578,316.611,36.698z"/>
			<path d="M324.026,35.026c0-1.536,0.427-2.675,1.281-3.414c0.714-0.614,1.583-0.922,2.609-0.922c1.141,0,2.073,0.374,2.797,1.121
				c0.724,0.747,1.086,1.78,1.086,3.098c0,1.067-0.16,1.907-0.48,2.52s-0.786,1.087-1.398,1.426s-1.28,0.508-2.004,0.508
				c-1.161,0-2.101-0.372-2.816-1.117S324.026,36.428,324.026,35.026z M325.472,35.026c0,1.063,0.231,1.858,0.695,2.387
				s1.047,0.793,1.75,0.793c0.698,0,1.278-0.266,1.742-0.797s0.695-1.341,0.695-2.43c0-1.026-0.233-1.804-0.699-2.332
				s-1.046-0.793-1.738-0.793c-0.703,0-1.286,0.263-1.75,0.789S325.472,33.964,325.472,35.026z"/>
			<path d="M339.594,29.644v1.633h-1.508v-1.289c0-0.698,0.083-1.203,0.25-1.516c0.219-0.417,0.565-0.731,1.039-0.945l0.344,0.547
				c-0.286,0.12-0.497,0.298-0.633,0.535s-0.211,0.582-0.227,1.035H339.594z M342.016,29.644v1.633h-1.508v-1.289
				c0-0.698,0.083-1.203,0.25-1.516c0.219-0.417,0.565-0.731,1.039-0.945l0.344,0.547c-0.286,0.12-0.497,0.298-0.633,0.535
				s-0.211,0.582-0.227,1.035H342.016z"/>
			<path d="M343.314,39.175V27.722h1.516v10.102h5.641v1.352H343.314z"/>
			<path d="M356.885,38.151c-0.521,0.442-1.022,0.755-1.504,0.938s-0.999,0.273-1.551,0.273c-0.911,0-1.612-0.223-2.102-0.668
				s-0.734-1.015-0.734-1.707c0-0.406,0.093-0.777,0.277-1.113s0.427-0.605,0.727-0.809s0.637-0.356,1.012-0.461
				c0.276-0.073,0.692-0.144,1.25-0.211c1.136-0.136,1.972-0.297,2.508-0.484c0.005-0.192,0.008-0.315,0.008-0.367
				c0-0.573-0.133-0.977-0.398-1.211c-0.359-0.317-0.894-0.477-1.602-0.477c-0.661,0-1.149,0.116-1.465,0.348
				c-0.315,0.231-0.548,0.642-0.699,1.23l-1.375-0.188c0.125-0.589,0.331-1.063,0.617-1.426c0.286-0.362,0.7-0.641,1.242-0.836
				s1.169-0.293,1.883-0.293c0.708,0,1.284,0.083,1.727,0.25s0.769,0.376,0.977,0.629s0.354,0.571,0.438,0.957
				c0.047,0.239,0.07,0.672,0.07,1.297v1.875c0,1.308,0.03,2.134,0.09,2.48s0.179,0.679,0.355,0.996h-1.469
				C357.021,38.883,356.927,38.542,356.885,38.151z M356.768,35.011c-0.511,0.208-1.276,0.386-2.297,0.531
				c-0.578,0.083-0.987,0.177-1.227,0.281s-0.425,0.257-0.555,0.457s-0.195,0.423-0.195,0.668c0,0.375,0.142,0.688,0.426,0.938
				s0.699,0.375,1.246,0.375c0.542,0,1.023-0.118,1.445-0.355s0.731-0.562,0.93-0.973c0.151-0.317,0.227-0.786,0.227-1.406V35.011z"
				/>
			<path d="M370.85,39.175v-1.219c-0.646,0.938-1.523,1.406-2.633,1.406c-0.489,0-0.946-0.094-1.371-0.281s-0.739-0.423-0.945-0.707
				s-0.351-0.632-0.434-1.043c-0.058-0.276-0.086-0.714-0.086-1.313v-5.141h1.406v4.602c0,0.734,0.028,1.229,0.086,1.484
				c0.089,0.37,0.276,0.66,0.563,0.871s0.641,0.316,1.063,0.316s0.817-0.108,1.188-0.324s0.632-0.511,0.785-0.883
				s0.23-0.913,0.23-1.621v-4.445h1.406v8.297H370.85z"/>
			<path d="M373.687,39.175v-8.297h1.266v1.18c0.609-0.911,1.489-1.367,2.641-1.367c0.5,0,0.96,0.09,1.379,0.27
				s0.733,0.415,0.941,0.707s0.354,0.638,0.438,1.039c0.052,0.261,0.078,0.716,0.078,1.367v5.102h-1.406v-5.047
				c0-0.573-0.055-1.001-0.164-1.285s-0.304-0.511-0.582-0.68c-0.278-0.169-0.605-0.254-0.98-0.254c-0.599,0-1.116,0.19-1.551,0.57
				s-0.652,1.102-0.652,2.164v4.531H373.687z"/>
			<path d="M381.969,29.339v-1.617h1.406v1.617H381.969z M381.969,39.175v-8.297h1.406v8.297H381.969z"/>
			<path d="M387.196,39.175l-3.156-8.297h1.484l1.781,4.969c0.192,0.536,0.37,1.094,0.531,1.672c0.125-0.438,0.3-0.964,0.523-1.578
				l1.844-5.063h1.445l-3.141,8.297H387.196z"/>
			<path d="M397.947,36.503l1.453,0.18c-0.229,0.849-0.653,1.508-1.273,1.977s-1.411,0.703-2.375,0.703
				c-1.214,0-2.176-0.374-2.887-1.121s-1.066-1.796-1.066-3.145c0-1.396,0.359-2.479,1.078-3.25
				c0.719-0.771,1.651-1.156,2.797-1.156c1.109,0,2.016,0.378,2.719,1.133c0.703,0.755,1.055,1.817,1.055,3.188
				c0,0.083-0.003,0.208-0.008,0.375h-6.188c0.052,0.911,0.31,1.609,0.773,2.094s1.042,0.727,1.734,0.727
				c0.516,0,0.956-0.136,1.32-0.406S397.733,37.097,397.947,36.503z M393.33,34.23h4.633c-0.063-0.698-0.239-1.222-0.531-1.57
				c-0.448-0.542-1.028-0.813-1.742-0.813c-0.646,0-1.188,0.216-1.629,0.648S393.377,33.506,393.33,34.23z"/>
			<path d="M400.526,39.175v-8.297h1.266v1.258c0.323-0.589,0.621-0.977,0.895-1.164s0.574-0.281,0.902-0.281
				c0.474,0,0.956,0.151,1.445,0.453l-0.484,1.305c-0.344-0.203-0.688-0.305-1.031-0.305c-0.308,0-0.583,0.093-0.828,0.277
				s-0.419,0.441-0.523,0.77c-0.156,0.5-0.234,1.047-0.234,1.641v4.344H400.526z"/>
			<path d="M404.684,36.698l1.391-0.219c0.078,0.558,0.296,0.984,0.652,1.281s0.855,0.445,1.496,0.445
				c0.646,0,1.125-0.132,1.438-0.395s0.469-0.571,0.469-0.926c0-0.317-0.138-0.567-0.414-0.75c-0.192-0.125-0.672-0.284-1.438-0.477
				c-1.031-0.261-1.746-0.485-2.145-0.676s-0.7-0.453-0.906-0.789s-0.309-0.707-0.309-1.113c0-0.37,0.085-0.712,0.254-1.027
				c0.169-0.315,0.399-0.577,0.691-0.785c0.219-0.161,0.517-0.298,0.895-0.41s0.782-0.168,1.215-0.168
				c0.651,0,1.223,0.094,1.715,0.281s0.855,0.441,1.09,0.762c0.234,0.32,0.396,0.749,0.484,1.285l-1.375,0.188
				c-0.063-0.427-0.243-0.761-0.543-1c-0.3-0.239-0.723-0.359-1.27-0.359c-0.646,0-1.106,0.106-1.383,0.32
				c-0.276,0.214-0.414,0.464-0.414,0.75c0,0.183,0.058,0.347,0.172,0.492c0.114,0.151,0.294,0.276,0.539,0.375
				c0.141,0.052,0.555,0.172,1.242,0.359c0.995,0.266,1.688,0.483,2.082,0.652s0.702,0.415,0.926,0.738s0.336,0.724,0.336,1.203
				c0,0.469-0.137,0.91-0.41,1.324s-0.668,0.734-1.184,0.961s-1.099,0.34-1.75,0.34c-1.078,0-1.899-0.224-2.465-0.672
				S404.84,37.578,404.684,36.698z"/>
			<path d="M412.63,29.339v-1.617h1.406v1.617H412.63z M412.63,39.175v-8.297h1.406v8.297H412.63z"/>
			<path d="M420.936,39.175v-1.047c-0.526,0.823-1.3,1.234-2.32,1.234c-0.661,0-1.27-0.183-1.824-0.547s-0.984-0.874-1.289-1.527
				s-0.457-1.405-0.457-2.254c0-0.828,0.138-1.579,0.414-2.254s0.69-1.191,1.242-1.551s1.169-0.539,1.852-0.539
				c0.5,0,0.945,0.105,1.336,0.316s0.708,0.485,0.953,0.824v-4.109h1.398v11.453H420.936z M416.49,35.034
				c0,1.063,0.224,1.856,0.672,2.383s0.977,0.789,1.586,0.789c0.614,0,1.137-0.251,1.566-0.754s0.645-1.27,0.645-2.301
				c0-1.136-0.219-1.969-0.656-2.5s-0.977-0.797-1.617-0.797c-0.625,0-1.147,0.255-1.566,0.766S416.49,33.936,416.49,35.034z"/>
			<path d="M429.241,38.151c-0.521,0.442-1.022,0.755-1.504,0.938s-0.999,0.273-1.551,0.273c-0.911,0-1.612-0.223-2.102-0.668
				s-0.734-1.015-0.734-1.707c0-0.406,0.093-0.777,0.277-1.113s0.427-0.605,0.727-0.809s0.637-0.356,1.012-0.461
				c0.276-0.073,0.692-0.144,1.25-0.211c1.136-0.136,1.972-0.297,2.508-0.484c0.005-0.192,0.008-0.315,0.008-0.367
				c0-0.573-0.133-0.977-0.398-1.211c-0.359-0.317-0.894-0.477-1.602-0.477c-0.661,0-1.149,0.116-1.465,0.348
				c-0.315,0.231-0.548,0.642-0.699,1.23l-1.375-0.188c0.125-0.589,0.331-1.063,0.617-1.426c0.286-0.362,0.7-0.641,1.242-0.836
				s1.169-0.293,1.883-0.293c0.708,0,1.284,0.083,1.727,0.25s0.769,0.376,0.977,0.629s0.354,0.571,0.438,0.957
				c0.047,0.239,0.07,0.672,0.07,1.297v1.875c0,1.308,0.03,2.134,0.09,2.48s0.179,0.679,0.355,0.996h-1.469
				C429.377,38.883,429.283,38.542,429.241,38.151z M429.124,35.011c-0.511,0.208-1.276,0.386-2.297,0.531
				c-0.578,0.083-0.987,0.177-1.227,0.281s-0.425,0.257-0.555,0.457s-0.195,0.423-0.195,0.668c0,0.375,0.142,0.688,0.426,0.938
				s0.699,0.375,1.246,0.375c0.542,0,1.023-0.118,1.445-0.355s0.731-0.562,0.93-0.973c0.151-0.317,0.227-0.786,0.227-1.406V35.011z"
				/>
			<path d="M437.484,39.175v-1.047c-0.526,0.823-1.3,1.234-2.32,1.234c-0.661,0-1.27-0.183-1.824-0.547s-0.984-0.874-1.289-1.527
				s-0.457-1.405-0.457-2.254c0-0.828,0.138-1.579,0.414-2.254s0.69-1.191,1.242-1.551s1.169-0.539,1.852-0.539
				c0.5,0,0.945,0.105,1.336,0.316s0.708,0.485,0.953,0.824v-4.109h1.398v11.453H437.484z M433.039,35.034
				c0,1.063,0.224,1.856,0.672,2.383s0.977,0.789,1.586,0.789c0.614,0,1.137-0.251,1.566-0.754s0.645-1.27,0.645-2.301
				c0-1.136-0.219-1.969-0.656-2.5s-0.977-0.797-1.617-0.797c-0.625,0-1.147,0.255-1.566,0.766S433.039,33.936,433.039,35.034z"/>
			<path d="M14.016,56.175l4.43-5.969l-3.906-5.484h1.805l2.078,2.938c0.433,0.609,0.739,1.078,0.922,1.406
				c0.255-0.417,0.558-0.852,0.906-1.305l2.305-3.039h1.648L20.18,50.12l4.336,6.055h-1.875l-2.883-4.086
				c-0.161-0.234-0.328-0.489-0.5-0.766c-0.255,0.417-0.438,0.703-0.547,0.859l-2.875,3.992H14.016z"/>
			<path d="M28.454,56.175v-4.852l-4.414-6.602h1.844l2.258,3.453c0.417,0.646,0.805,1.292,1.164,1.938
				c0.344-0.599,0.761-1.273,1.25-2.023l2.219-3.367h1.766l-4.57,6.602v4.852H28.454z"/>
			<path d="M34.361,56.175v-1.406l5.867-7.336c0.417-0.521,0.813-0.974,1.188-1.359h-6.391v-1.352h8.203v1.352l-6.43,7.945
				l-0.695,0.805h7.313v1.352H34.361z"/>
			<path d="M43.87,46.237v-1.633h1.508v1.289c0,0.698-0.081,1.2-0.242,1.508c-0.224,0.422-0.573,0.739-1.047,0.953L43.745,47.8
				c0.281-0.114,0.491-0.296,0.629-0.543s0.215-0.587,0.23-1.02H43.87z M46.292,46.237v-1.633H47.8v1.289
				c0,0.698-0.081,1.2-0.242,1.508c-0.224,0.422-0.573,0.739-1.047,0.953L46.167,47.8c0.281-0.114,0.491-0.296,0.629-0.543
				s0.215-0.587,0.23-1.02H46.292z"/>
			<path d="M49.348,56.175v-1.602h1.602v1.602H49.348z"/>
		</g>
	</g>
	<g>
		<g>
			<path style="fill:#2C6882;" d="M14.741,90.65V79.913h7.961v1.816h-5.793v2.38H22.3v1.81h-5.391v2.923h5.998v1.809H14.741z"/>
			<path style="fill:#2C6882;" d="M28.088,82.872v1.641h-1.406v3.135c0,0.635,0.014,1.005,0.04,1.109
				c0.027,0.105,0.088,0.192,0.184,0.261c0.095,0.068,0.211,0.102,0.348,0.102c0.19,0,0.466-0.065,0.828-0.197l0.176,1.597
				c-0.479,0.205-1.021,0.308-1.627,0.308c-0.371,0-0.705-0.063-1.003-0.187c-0.298-0.125-0.517-0.286-0.655-0.483
				c-0.14-0.198-0.236-0.465-0.289-0.803c-0.045-0.238-0.066-0.722-0.066-1.449v-3.392h-0.945v-1.641h0.945v-1.546l2.065-1.201
				v2.747H28.088z"/>
			<path style="fill:#2C6882;" d="M30.845,85.245l-1.868-0.337c0.21-0.752,0.571-1.309,1.084-1.67s1.274-0.542,2.285-0.542
				c0.918,0,1.602,0.108,2.051,0.326c0.449,0.217,0.766,0.493,0.948,0.827c0.184,0.335,0.275,0.949,0.275,1.842l-0.022,2.402
				c0,0.685,0.033,1.188,0.099,1.513c0.066,0.325,0.189,0.673,0.37,1.044H34.03c-0.054-0.137-0.12-0.339-0.197-0.607
				c-0.035-0.122-0.059-0.203-0.074-0.242c-0.352,0.342-0.728,0.599-1.127,0.77c-0.401,0.17-0.828,0.256-1.282,0.256
				c-0.801,0-1.432-0.217-1.894-0.652c-0.461-0.434-0.691-0.983-0.691-1.647c0-0.439,0.104-0.831,0.314-1.176
				c0.21-0.344,0.504-0.607,0.883-0.791c0.378-0.183,0.924-0.343,1.637-0.479c0.962-0.181,1.628-0.349,2-0.506v-0.205
				c0-0.395-0.099-0.677-0.293-0.846c-0.196-0.168-0.564-0.252-1.106-0.252c-0.366,0-0.651,0.071-0.856,0.216
				C31.138,84.631,30.971,84.884,30.845,85.245z M33.599,86.915c-0.264,0.088-0.682,0.193-1.253,0.315s-0.944,0.241-1.12,0.358
				c-0.27,0.19-0.403,0.433-0.403,0.726c0,0.288,0.107,0.537,0.322,0.746c0.215,0.211,0.488,0.315,0.82,0.315
				c0.371,0,0.726-0.122,1.062-0.366c0.25-0.186,0.413-0.412,0.491-0.682c0.054-0.176,0.081-0.51,0.081-1.003V86.915z"/>
			<path style="fill:#2C6882;" d="M37.38,82.872h1.92v1.143c0.248-0.391,0.586-0.708,1.01-0.952
				c0.426-0.244,0.896-0.366,1.414-0.366c0.903,0,1.67,0.354,2.3,1.062c0.63,0.709,0.944,1.695,0.944,2.959
				c0,1.3-0.317,2.309-0.951,3.029c-0.636,0.72-1.404,1.08-2.308,1.08c-0.43,0-0.819-0.086-1.168-0.256
				c-0.35-0.171-0.717-0.464-1.103-0.879v3.918H37.38V82.872z M39.417,86.629c0,0.875,0.173,1.521,0.52,1.938
				c0.347,0.418,0.77,0.627,1.268,0.627c0.478,0,0.876-0.192,1.193-0.575c0.317-0.384,0.477-1.012,0.477-1.886
				c0-0.815-0.164-1.422-0.491-1.816c-0.327-0.396-0.732-0.594-1.216-0.594c-0.503,0-0.921,0.194-1.252,0.582
				C39.582,85.293,39.417,85.867,39.417,86.629z"/>
			<path style="fill:#2C6882;" d="M47.93,85.245l-1.868-0.337c0.21-0.752,0.571-1.309,1.084-1.67s1.274-0.542,2.285-0.542
				c0.918,0,1.602,0.108,2.051,0.326c0.449,0.217,0.766,0.493,0.948,0.827c0.184,0.335,0.275,0.949,0.275,1.842l-0.022,2.402
				c0,0.685,0.033,1.188,0.099,1.513c0.066,0.325,0.189,0.673,0.37,1.044h-2.036c-0.054-0.137-0.12-0.339-0.197-0.607
				c-0.035-0.122-0.059-0.203-0.074-0.242c-0.352,0.342-0.728,0.599-1.127,0.77c-0.401,0.17-0.828,0.256-1.282,0.256
				c-0.801,0-1.432-0.217-1.894-0.652c-0.461-0.434-0.691-0.983-0.691-1.647c0-0.439,0.104-0.831,0.314-1.176
				c0.21-0.344,0.504-0.607,0.883-0.791c0.378-0.183,0.924-0.343,1.637-0.479c0.962-0.181,1.628-0.349,2-0.506v-0.205
				c0-0.395-0.099-0.677-0.293-0.846c-0.196-0.168-0.564-0.252-1.106-0.252c-0.366,0-0.651,0.071-0.856,0.216
				C48.223,84.631,48.056,84.884,47.93,85.245z M50.684,86.915c-0.264,0.088-0.682,0.193-1.253,0.315s-0.944,0.241-1.12,0.358
				c-0.27,0.19-0.403,0.433-0.403,0.726c0,0.288,0.107,0.537,0.322,0.746c0.215,0.211,0.488,0.315,0.82,0.315
				c0.371,0,0.726-0.122,1.062-0.366c0.25-0.186,0.413-0.412,0.491-0.682c0.054-0.176,0.081-0.51,0.081-1.003V86.915z"/>
			<path style="fill:#2C6882;" d="M62.077,90.65v-2.16h-4.395v-1.803l4.658-6.818h1.729v6.812h1.333v1.81h-1.333v2.16H62.077z
				 M62.077,86.681v-3.669l-2.468,3.669H62.077z"/>
			<path style="fill:#2C6882;" d="M67.009,84.93v-2.058h2.058v2.058H67.009z M67.009,90.65v-2.059h2.058v2.059H67.009z"/>
			<path style="fill:#2C6882;" d="M75.341,90.65V79.913h3.244l1.948,7.324l1.927-7.324h3.252V90.65h-2.015v-8.452l-2.132,8.452
				h-2.087l-2.124-8.452v8.452H75.341z"/>
			<path style="fill:#2C6882;" d="M89.179,85.245l-1.868-0.337c0.21-0.752,0.571-1.309,1.084-1.67s1.274-0.542,2.285-0.542
				c0.918,0,1.602,0.108,2.051,0.326c0.449,0.217,0.766,0.493,0.948,0.827c0.184,0.335,0.275,0.949,0.275,1.842l-0.022,2.402
				c0,0.685,0.033,1.188,0.099,1.513c0.066,0.325,0.189,0.673,0.37,1.044h-2.036c-0.054-0.137-0.12-0.339-0.197-0.607
				c-0.035-0.122-0.059-0.203-0.074-0.242c-0.352,0.342-0.728,0.599-1.127,0.77c-0.401,0.17-0.828,0.256-1.282,0.256
				c-0.801,0-1.432-0.217-1.894-0.652c-0.461-0.434-0.691-0.983-0.691-1.647c0-0.439,0.104-0.831,0.314-1.176
				c0.21-0.344,0.504-0.607,0.883-0.791c0.378-0.183,0.924-0.343,1.637-0.479c0.962-0.181,1.628-0.349,2-0.506v-0.205
				c0-0.395-0.099-0.677-0.293-0.846c-0.196-0.168-0.564-0.252-1.106-0.252c-0.366,0-0.651,0.071-0.856,0.216
				C89.472,84.631,89.305,84.884,89.179,85.245z M91.933,86.915c-0.264,0.088-0.682,0.193-1.253,0.315s-0.944,0.241-1.12,0.358
				c-0.27,0.19-0.403,0.433-0.403,0.726c0,0.288,0.107,0.537,0.322,0.746c0.215,0.211,0.488,0.315,0.82,0.315
				c0.371,0,0.726-0.122,1.062-0.366c0.25-0.186,0.413-0.412,0.491-0.682c0.054-0.176,0.081-0.51,0.081-1.003V86.915z"/>
			<path style="fill:#2C6882;" d="M95.714,82.872h1.92v1.143c0.248-0.391,0.586-0.708,1.01-0.952
				c0.426-0.244,0.896-0.366,1.414-0.366c0.903,0,1.67,0.354,2.3,1.062c0.63,0.709,0.944,1.695,0.944,2.959
				c0,1.3-0.317,2.309-0.951,3.029c-0.636,0.72-1.404,1.08-2.308,1.08c-0.43,0-0.819-0.086-1.168-0.256
				c-0.35-0.171-0.717-0.464-1.103-0.879v3.918h-2.059V82.872z M97.751,86.629c0,0.875,0.173,1.521,0.52,1.938
				c0.347,0.418,0.77,0.627,1.268,0.627c0.478,0,0.876-0.192,1.193-0.575c0.317-0.384,0.477-1.012,0.477-1.886
				c0-0.815-0.164-1.422-0.491-1.816c-0.327-0.396-0.732-0.594-1.216-0.594c-0.503,0-0.921,0.194-1.252,0.582
				C97.916,85.293,97.751,85.867,97.751,86.629z"/>
			<path style="fill:#2C6882;" d="M106.264,85.245l-1.868-0.337c0.21-0.752,0.571-1.309,1.084-1.67s1.274-0.542,2.285-0.542
				c0.918,0,1.602,0.108,2.051,0.326c0.449,0.217,0.766,0.493,0.948,0.827c0.184,0.335,0.275,0.949,0.275,1.842l-0.022,2.402
				c0,0.685,0.033,1.188,0.099,1.513c0.066,0.325,0.189,0.673,0.37,1.044h-2.036c-0.054-0.137-0.12-0.339-0.197-0.607
				c-0.035-0.122-0.059-0.203-0.074-0.242c-0.352,0.342-0.728,0.599-1.127,0.77c-0.401,0.17-0.828,0.256-1.282,0.256
				c-0.801,0-1.432-0.217-1.894-0.652c-0.461-0.434-0.691-0.983-0.691-1.647c0-0.439,0.104-0.831,0.314-1.176
				c0.21-0.344,0.504-0.607,0.883-0.791c0.378-0.183,0.924-0.343,1.637-0.479c0.962-0.181,1.628-0.349,2-0.506v-0.205
				c0-0.395-0.099-0.677-0.293-0.846c-0.196-0.168-0.564-0.252-1.106-0.252c-0.366,0-0.651,0.071-0.856,0.216
				C106.557,84.631,106.39,84.884,106.264,85.245z M109.018,86.915c-0.264,0.088-0.682,0.193-1.253,0.315s-0.944,0.241-1.12,0.358
				c-0.27,0.19-0.403,0.433-0.403,0.726c0,0.288,0.107,0.537,0.322,0.746c0.215,0.211,0.488,0.315,0.82,0.315
				c0.371,0,0.726-0.122,1.062-0.366c0.25-0.186,0.413-0.412,0.491-0.682c0.054-0.176,0.081-0.51,0.081-1.003V86.915z"/>
			<path style="fill:#2C6882;" d="M123.948,90.65h-1.912v-1.143c-0.317,0.444-0.692,0.775-1.124,0.992
				c-0.433,0.218-0.868,0.326-1.308,0.326c-0.894,0-1.659-0.36-2.296-1.08c-0.638-0.721-0.956-1.725-0.956-3.014
				c0-1.318,0.31-2.321,0.93-3.007c0.62-0.687,1.404-1.029,2.352-1.029c0.869,0,1.621,0.361,2.256,1.084v-3.867h2.059V90.65z
				 M118.454,86.593c0,0.83,0.115,1.431,0.345,1.802c0.332,0.537,0.796,0.806,1.392,0.806c0.474,0,0.876-0.201,1.209-0.604
				c0.331-0.402,0.498-1.004,0.498-1.805c0-0.895-0.162-1.537-0.484-1.931c-0.322-0.393-0.734-0.589-1.237-0.589
				c-0.488,0-0.897,0.193-1.227,0.582C118.619,85.241,118.454,85.821,118.454,86.593z"/>
			<path style="fill:#2C6882;" d="M130.271,88.175l2.051,0.345c-0.264,0.752-0.68,1.324-1.249,1.717
				c-0.568,0.394-1.28,0.59-2.135,0.59c-1.353,0-2.354-0.441-3.003-1.326c-0.513-0.707-0.769-1.601-0.769-2.68
				c0-1.289,0.336-2.299,1.01-3.029c0.674-0.729,1.526-1.095,2.557-1.095c1.157,0,2.07,0.382,2.739,1.146
				c0.669,0.764,0.989,1.935,0.96,3.512h-5.156c0.014,0.61,0.18,1.085,0.498,1.425c0.316,0.339,0.712,0.509,1.186,0.509
				c0.322,0,0.594-0.088,0.813-0.264S130.158,88.565,130.271,88.175z M130.388,86.095c-0.015-0.596-0.169-1.049-0.462-1.358
				c-0.293-0.311-0.649-0.465-1.068-0.465c-0.45,0-0.82,0.163-1.113,0.49c-0.293,0.327-0.438,0.771-0.433,1.333H130.388z"/>
			<path style="fill:#2C6882;" d="M137.871,90.65V79.913h3.479c1.318,0,2.178,0.054,2.578,0.161c0.615,0.161,1.13,0.512,1.545,1.051
				c0.415,0.54,0.623,1.237,0.623,2.092c0,0.658-0.12,1.213-0.359,1.662s-0.543,0.802-0.911,1.059
				c-0.369,0.256-0.743,0.426-1.124,0.509c-0.519,0.103-1.268,0.153-2.249,0.153h-1.413v4.051H137.871z M140.039,81.729v3.047h1.186
				c0.854,0,1.426-0.056,1.715-0.169c0.287-0.111,0.514-0.287,0.677-0.527c0.164-0.238,0.245-0.517,0.245-0.834
				c0-0.391-0.114-0.713-0.344-0.967s-0.52-0.413-0.871-0.477c-0.26-0.049-0.779-0.073-1.561-0.073H140.039z"/>
			<path style="fill:#2C6882;" d="M149.621,90.65h-2.059v-7.778h1.912v1.106c0.327-0.522,0.621-0.867,0.883-1.033
				c0.261-0.166,0.558-0.249,0.89-0.249c0.469,0,0.92,0.13,1.354,0.388l-0.637,1.795c-0.347-0.225-0.669-0.337-0.967-0.337
				c-0.288,0-0.532,0.079-0.732,0.238c-0.2,0.158-0.357,0.445-0.473,0.86c-0.114,0.415-0.172,1.284-0.172,2.607V90.65z"/>
			<path style="fill:#2C6882;" d="M152.802,86.651c0-0.684,0.169-1.345,0.505-1.985c0.338-0.639,0.814-1.127,1.433-1.465
				c0.617-0.336,1.308-0.505,2.069-0.505c1.176,0,2.141,0.382,2.893,1.146c0.752,0.764,1.128,1.729,1.128,2.896
				c0,1.177-0.38,2.152-1.139,2.926c-0.76,0.774-1.716,1.161-2.868,1.161c-0.713,0-1.393-0.161-2.039-0.483
				c-0.647-0.322-1.139-0.795-1.477-1.417C152.971,88.303,152.802,87.545,152.802,86.651z M154.911,86.762
				c0,0.771,0.183,1.361,0.55,1.771c0.365,0.41,0.817,0.615,1.354,0.615s0.987-0.205,1.352-0.615
				c0.363-0.41,0.546-1.005,0.546-1.787c0-0.762-0.183-1.348-0.546-1.758c-0.364-0.41-0.814-0.615-1.352-0.615
				s-0.989,0.205-1.354,0.615C155.094,85.398,154.911,85.99,154.911,86.762z"/>
			<path style="fill:#2C6882;" d="M169.013,85.172l-2.029,0.366c-0.068-0.405-0.224-0.71-0.465-0.915
				c-0.242-0.205-0.556-0.309-0.941-0.309c-0.513,0-0.922,0.178-1.227,0.531c-0.306,0.354-0.458,0.946-0.458,1.776
				c0,0.923,0.155,1.575,0.465,1.956c0.311,0.381,0.727,0.57,1.249,0.57c0.391,0,0.711-0.11,0.959-0.333
				c0.25-0.222,0.426-0.604,0.527-1.146l2.021,0.344c-0.21,0.928-0.612,1.629-1.208,2.102c-0.596,0.475-1.395,0.711-2.396,0.711
				c-1.138,0-2.044-0.359-2.721-1.076c-0.676-0.719-1.014-1.712-1.014-2.981c0-1.284,0.339-2.284,1.018-2.999
				c0.679-0.716,1.597-1.073,2.754-1.073c0.947,0,1.7,0.204,2.26,0.611C168.366,83.716,168.768,84.337,169.013,85.172z"/>
			<path style="fill:#2C6882;" d="M174.866,88.175l2.051,0.345c-0.264,0.752-0.68,1.324-1.249,1.717
				c-0.568,0.394-1.28,0.59-2.135,0.59c-1.353,0-2.354-0.441-3.003-1.326c-0.513-0.707-0.769-1.601-0.769-2.68
				c0-1.289,0.336-2.299,1.01-3.029c0.674-0.729,1.526-1.095,2.557-1.095c1.157,0,2.07,0.382,2.739,1.146
				c0.669,0.764,0.989,1.935,0.96,3.512h-5.156c0.014,0.61,0.18,1.085,0.498,1.425c0.316,0.339,0.712,0.509,1.186,0.509
				c0.322,0,0.594-0.088,0.813-0.264S174.754,88.565,174.866,88.175z M174.983,86.095c-0.015-0.596-0.169-1.049-0.462-1.358
				c-0.293-0.311-0.649-0.465-1.068-0.465c-0.45,0-0.82,0.163-1.113,0.49s-0.438,0.771-0.433,1.333H174.983z"/>
			<path style="fill:#2C6882;" d="M177.769,88.432l2.065-0.315c0.088,0.4,0.266,0.704,0.534,0.912
				c0.269,0.207,0.645,0.312,1.129,0.312c0.531,0,0.932-0.098,1.201-0.293c0.18-0.137,0.271-0.32,0.271-0.55
				c0-0.156-0.049-0.286-0.146-0.388c-0.103-0.098-0.332-0.188-0.688-0.271c-1.66-0.366-2.713-0.7-3.156-1.004
				c-0.615-0.419-0.924-1.003-0.924-1.75c0-0.674,0.267-1.24,0.799-1.699s1.357-0.688,2.476-0.688c1.064,0,1.855,0.174,2.373,0.521
				s0.874,0.859,1.069,1.537l-1.941,0.359c-0.083-0.303-0.24-0.535-0.472-0.695c-0.232-0.162-0.563-0.242-0.993-0.242
				c-0.541,0-0.93,0.076-1.164,0.227c-0.156,0.108-0.234,0.247-0.234,0.418c0,0.146,0.068,0.271,0.205,0.373
				c0.186,0.138,0.826,0.33,1.923,0.579c1.096,0.249,1.861,0.555,2.296,0.915c0.43,0.367,0.645,0.877,0.645,1.531
				c0,0.713-0.298,1.326-0.894,1.838c-0.596,0.514-1.478,0.77-2.644,0.77c-1.061,0-1.898-0.215-2.517-0.645
				C178.363,89.752,177.959,89.169,177.769,88.432z"/>
			<path style="fill:#2C6882;" d="M186.149,86.651c0-0.684,0.169-1.345,0.505-1.985c0.338-0.639,0.814-1.127,1.433-1.465
				c0.617-0.336,1.308-0.505,2.069-0.505c1.176,0,2.141,0.382,2.893,1.146c0.752,0.764,1.128,1.729,1.128,2.896
				c0,1.177-0.38,2.152-1.139,2.926c-0.76,0.774-1.716,1.161-2.868,1.161c-0.713,0-1.393-0.161-2.039-0.483
				c-0.647-0.322-1.139-0.795-1.477-1.417C186.318,88.303,186.149,87.545,186.149,86.651z M188.259,86.762
				c0,0.771,0.183,1.361,0.55,1.771c0.365,0.41,0.817,0.615,1.354,0.615s0.987-0.205,1.352-0.615
				c0.363-0.41,0.546-1.005,0.546-1.787c0-0.762-0.183-1.348-0.546-1.758c-0.364-0.41-0.814-0.615-1.352-0.615
				s-0.989,0.205-1.354,0.615C188.441,85.398,188.259,85.99,188.259,86.762z"/>
			<path style="fill:#2C6882;" d="M194.853,88.432l2.065-0.315c0.088,0.4,0.266,0.704,0.534,0.912
				c0.269,0.207,0.645,0.312,1.129,0.312c0.531,0,0.932-0.098,1.201-0.293c0.18-0.137,0.271-0.32,0.271-0.55
				c0-0.156-0.049-0.286-0.146-0.388c-0.103-0.098-0.332-0.188-0.688-0.271c-1.66-0.366-2.713-0.7-3.156-1.004
				c-0.615-0.419-0.924-1.003-0.924-1.75c0-0.674,0.267-1.24,0.799-1.699s1.357-0.688,2.476-0.688c1.064,0,1.855,0.174,2.373,0.521
				s0.874,0.859,1.069,1.537l-1.941,0.359c-0.083-0.303-0.24-0.535-0.472-0.695c-0.232-0.162-0.563-0.242-0.993-0.242
				c-0.541,0-0.93,0.076-1.164,0.227c-0.156,0.108-0.234,0.247-0.234,0.418c0,0.146,0.068,0.271,0.205,0.373
				c0.186,0.138,0.826,0.33,1.923,0.579c1.096,0.249,1.861,0.555,2.296,0.915c0.43,0.367,0.645,0.877,0.645,1.531
				c0,0.713-0.298,1.326-0.894,1.838c-0.596,0.514-1.478,0.77-2.644,0.77c-1.061,0-1.898-0.215-2.517-0.645
				C195.447,89.752,195.043,89.169,194.853,88.432z"/>
			<path style="fill:#2C6882;" d="M214.802,90.65h-1.912v-1.143c-0.317,0.444-0.692,0.775-1.124,0.992
				c-0.433,0.218-0.868,0.326-1.308,0.326c-0.894,0-1.659-0.36-2.296-1.08c-0.638-0.721-0.956-1.725-0.956-3.014
				c0-1.318,0.31-2.321,0.93-3.007c0.62-0.687,1.404-1.029,2.352-1.029c0.869,0,1.621,0.361,2.256,1.084v-3.867h2.059V90.65z
				 M209.308,86.593c0,0.83,0.115,1.431,0.345,1.802c0.332,0.537,0.796,0.806,1.392,0.806c0.474,0,0.876-0.201,1.209-0.604
				c0.331-0.402,0.498-1.004,0.498-1.805c0-0.895-0.162-1.537-0.484-1.931c-0.322-0.393-0.734-0.589-1.237-0.589
				c-0.488,0-0.897,0.193-1.227,0.582C209.473,85.241,209.308,85.821,209.308,86.593z"/>
			<path style="fill:#2C6882;" d="M221.124,88.175l2.051,0.345c-0.264,0.752-0.68,1.324-1.249,1.717
				c-0.568,0.394-1.28,0.59-2.135,0.59c-1.353,0-2.354-0.441-3.003-1.326c-0.513-0.707-0.769-1.601-0.769-2.68
				c0-1.289,0.336-2.299,1.01-3.029c0.674-0.729,1.526-1.095,2.557-1.095c1.157,0,2.07,0.382,2.739,1.146
				c0.669,0.764,0.989,1.935,0.96,3.512h-5.156c0.014,0.61,0.18,1.085,0.498,1.425c0.316,0.339,0.712,0.509,1.186,0.509
				c0.322,0,0.594-0.088,0.813-0.264S221.012,88.565,221.124,88.175z M221.241,86.095c-0.015-0.596-0.169-1.049-0.462-1.358
				c-0.293-0.311-0.649-0.465-1.068-0.465c-0.45,0-0.82,0.163-1.113,0.49s-0.438,0.771-0.433,1.333H221.241z"/>
			<path style="fill:#2C6882;" d="M230.658,84.264H228.6v-1.473c0-0.595,0.053-1.065,0.157-1.409
				c0.105-0.345,0.299-0.653,0.583-0.927c0.282-0.273,0.645-0.488,1.084-0.645l0.402,0.85c-0.41,0.137-0.704,0.327-0.883,0.571
				c-0.178,0.244-0.272,0.569-0.281,0.974h0.996V84.264z M234.093,84.264h-2.058v-1.473c0-0.6,0.052-1.071,0.157-1.413
				c0.104-0.342,0.3-0.649,0.586-0.923c0.285-0.273,0.646-0.488,1.08-0.645l0.403,0.85c-0.41,0.137-0.705,0.327-0.883,0.571
				c-0.179,0.244-0.272,0.569-0.282,0.974h0.996V84.264z"/>
			<path style="fill:#2C6882;" d="M236.073,90.65V80.001h2.168v8.841h5.391v1.809H236.073z"/>
			<path style="fill:#2C6882;" d="M246.49,85.245l-1.868-0.337c0.21-0.752,0.571-1.309,1.084-1.67s1.274-0.542,2.285-0.542
				c0.918,0,1.602,0.108,2.051,0.326c0.449,0.217,0.766,0.493,0.948,0.827c0.184,0.335,0.275,0.949,0.275,1.842l-0.022,2.402
				c0,0.685,0.033,1.188,0.099,1.513c0.066,0.325,0.189,0.673,0.37,1.044h-2.036c-0.054-0.137-0.12-0.339-0.197-0.607
				c-0.035-0.122-0.059-0.203-0.074-0.242c-0.352,0.342-0.728,0.599-1.127,0.77c-0.401,0.17-0.828,0.256-1.282,0.256
				c-0.801,0-1.432-0.217-1.894-0.652c-0.461-0.434-0.691-0.983-0.691-1.647c0-0.439,0.104-0.831,0.314-1.176
				c0.21-0.344,0.504-0.607,0.883-0.791c0.378-0.183,0.924-0.343,1.637-0.479c0.962-0.181,1.628-0.349,2-0.506v-0.205
				c0-0.395-0.099-0.677-0.293-0.846c-0.196-0.168-0.564-0.252-1.106-0.252c-0.366,0-0.651,0.071-0.856,0.216
				C246.783,84.631,246.616,84.884,246.49,85.245z M249.244,86.915c-0.264,0.088-0.682,0.193-1.253,0.315s-0.944,0.241-1.12,0.358
				c-0.27,0.19-0.403,0.433-0.403,0.726c0,0.288,0.107,0.537,0.322,0.746c0.215,0.211,0.488,0.315,0.82,0.315
				c0.371,0,0.726-0.122,1.062-0.366c0.25-0.186,0.413-0.412,0.491-0.682c0.054-0.176,0.081-0.51,0.081-1.003V86.915z"/>
			<path style="fill:#2C6882;" d="M262.161,90.65v-1.164c-0.283,0.415-0.655,0.742-1.117,0.98c-0.461,0.239-0.948,0.359-1.461,0.359
				c-0.522,0-0.991-0.115-1.406-0.344c-0.415-0.229-0.716-0.552-0.901-0.967s-0.277-0.989-0.277-1.722v-4.922h2.058v3.574
				c0,1.094,0.038,1.764,0.113,2.011c0.076,0.246,0.214,0.441,0.414,0.586c0.2,0.144,0.454,0.216,0.762,0.216
				c0.352,0,0.667-0.097,0.944-0.289c0.279-0.193,0.469-0.433,0.572-0.718c0.102-0.286,0.153-0.985,0.153-2.099v-3.281h2.058v7.778
				H262.161z"/>
			<path style="fill:#2C6882;" d="M273.069,90.65h-2.059v-3.97c0-0.84-0.044-1.383-0.132-1.63c-0.088-0.246-0.23-0.438-0.429-0.574
				c-0.197-0.137-0.436-0.205-0.714-0.205c-0.356,0-0.677,0.098-0.96,0.293s-0.477,0.453-0.582,0.775
				c-0.104,0.322-0.157,0.919-0.157,1.787v3.523h-2.058v-7.778h1.911v1.143c0.679-0.879,1.533-1.318,2.563-1.318
				c0.454,0,0.869,0.082,1.245,0.245c0.376,0.164,0.66,0.373,0.854,0.627c0.192,0.254,0.327,0.541,0.402,0.863
				c0.076,0.322,0.114,0.784,0.114,1.385V90.65z"/>
			<path style="fill:#2C6882;" d="M274.945,81.817v-1.904h2.059v1.904H274.945z M274.945,90.65v-7.778h2.059v7.778H274.945z"/>
			<path style="fill:#2C6882;" d="M281.042,90.65l-3.135-7.778h2.161l1.465,3.97l0.425,1.326c0.112-0.338,0.184-0.56,0.213-0.667
				c0.067-0.22,0.141-0.439,0.219-0.659l1.48-3.97h2.116l-3.091,7.778H281.042z"/>
			<path style="fill:#2C6882;" d="M291.54,88.175l2.051,0.345c-0.264,0.752-0.68,1.324-1.249,1.717
				c-0.568,0.394-1.28,0.59-2.135,0.59c-1.353,0-2.354-0.441-3.003-1.326c-0.513-0.707-0.769-1.601-0.769-2.68
				c0-1.289,0.336-2.299,1.01-3.029c0.674-0.729,1.526-1.095,2.557-1.095c1.157,0,2.07,0.382,2.739,1.146
				c0.669,0.764,0.989,1.935,0.96,3.512h-5.156c0.014,0.61,0.18,1.085,0.498,1.425c0.316,0.339,0.712,0.509,1.186,0.509
				c0.322,0,0.594-0.088,0.813-0.264S291.428,88.565,291.54,88.175z M291.657,86.095c-0.015-0.596-0.169-1.049-0.462-1.358
				c-0.293-0.311-0.649-0.465-1.068-0.465c-0.45,0-0.82,0.163-1.113,0.49s-0.438,0.771-0.433,1.333H291.657z"/>
			<path style="fill:#2C6882;" d="M297.137,90.65h-2.059v-7.778h1.912v1.106c0.327-0.522,0.621-0.867,0.883-1.033
				c0.261-0.166,0.558-0.249,0.89-0.249c0.469,0,0.92,0.13,1.354,0.388l-0.637,1.795c-0.347-0.225-0.669-0.337-0.967-0.337
				c-0.288,0-0.532,0.079-0.732,0.238c-0.2,0.158-0.357,0.445-0.473,0.86c-0.114,0.415-0.172,1.284-0.172,2.607V90.65z"/>
			<path style="fill:#2C6882;" d="M300.069,88.432l2.065-0.315c0.088,0.4,0.266,0.704,0.534,0.912
				c0.269,0.207,0.645,0.312,1.129,0.312c0.531,0,0.932-0.098,1.201-0.293c0.18-0.137,0.271-0.32,0.271-0.55
				c0-0.156-0.049-0.286-0.146-0.388c-0.103-0.098-0.332-0.188-0.688-0.271c-1.66-0.366-2.713-0.7-3.156-1.004
				c-0.615-0.419-0.924-1.003-0.924-1.75c0-0.674,0.267-1.24,0.799-1.699s1.357-0.688,2.476-0.688c1.064,0,1.855,0.174,2.373,0.521
				s0.874,0.859,1.069,1.537l-1.941,0.359c-0.083-0.303-0.24-0.535-0.472-0.695c-0.232-0.162-0.563-0.242-0.993-0.242
				c-0.541,0-0.93,0.076-1.164,0.227c-0.156,0.108-0.234,0.247-0.234,0.418c0,0.146,0.068,0.271,0.205,0.373
				c0.186,0.138,0.826,0.33,1.923,0.579c1.096,0.249,1.861,0.555,2.296,0.915c0.43,0.367,0.645,0.877,0.645,1.531
				c0,0.713-0.298,1.326-0.894,1.838c-0.596,0.514-1.478,0.77-2.644,0.77c-1.061,0-1.898-0.215-2.517-0.645
				C300.664,89.752,300.26,89.169,300.069,88.432z"/>
			<path style="fill:#2C6882;" d="M308.926,81.817v-1.904h2.059v1.904H308.926z M308.926,90.65v-7.778h2.059v7.778H308.926z"/>
			<path style="fill:#2C6882;" d="M320.019,90.65h-1.912v-1.143c-0.317,0.444-0.692,0.775-1.124,0.992
				c-0.433,0.218-0.868,0.326-1.308,0.326c-0.894,0-1.659-0.36-2.296-1.08c-0.638-0.721-0.956-1.725-0.956-3.014
				c0-1.318,0.31-2.321,0.93-3.007c0.62-0.687,1.404-1.029,2.352-1.029c0.869,0,1.621,0.361,2.256,1.084v-3.867h2.059V90.65z
				 M314.524,86.593c0,0.83,0.115,1.431,0.345,1.802c0.332,0.537,0.796,0.806,1.392,0.806c0.474,0,0.876-0.201,1.209-0.604
				c0.331-0.402,0.498-1.004,0.498-1.805c0-0.895-0.162-1.537-0.484-1.931c-0.322-0.393-0.734-0.589-1.237-0.589
				c-0.488,0-0.897,0.193-1.227,0.582C314.689,85.241,314.524,85.821,314.524,86.593z"/>
			<path style="fill:#2C6882;" d="M323.375,85.245l-1.868-0.337c0.21-0.752,0.571-1.309,1.084-1.67s1.274-0.542,2.285-0.542
				c0.918,0,1.602,0.108,2.051,0.326c0.449,0.217,0.766,0.493,0.948,0.827c0.184,0.335,0.275,0.949,0.275,1.842l-0.022,2.402
				c0,0.685,0.033,1.188,0.099,1.513c0.066,0.325,0.189,0.673,0.37,1.044h-2.036c-0.054-0.137-0.12-0.339-0.197-0.607
				c-0.035-0.122-0.059-0.203-0.074-0.242c-0.352,0.342-0.728,0.599-1.127,0.77c-0.401,0.17-0.828,0.256-1.282,0.256
				c-0.801,0-1.432-0.217-1.894-0.652c-0.461-0.434-0.691-0.983-0.691-1.647c0-0.439,0.104-0.831,0.314-1.176
				c0.21-0.344,0.504-0.607,0.883-0.791c0.378-0.183,0.924-0.343,1.637-0.479c0.962-0.181,1.628-0.349,2-0.506v-0.205
				c0-0.395-0.099-0.677-0.293-0.846c-0.196-0.168-0.564-0.252-1.106-0.252c-0.366,0-0.651,0.071-0.856,0.216
				C323.668,84.631,323.501,84.884,323.375,85.245z M326.129,86.915c-0.264,0.088-0.682,0.193-1.253,0.315s-0.944,0.241-1.12,0.358
				c-0.27,0.19-0.403,0.433-0.403,0.726c0,0.288,0.107,0.537,0.322,0.746c0.215,0.211,0.488,0.315,0.82,0.315
				c0.371,0,0.726-0.122,1.062-0.366c0.25-0.186,0.413-0.412,0.491-0.682c0.054-0.176,0.081-0.51,0.081-1.003V86.915z"/>
			<path style="fill:#2C6882;" d="M337.103,90.65h-1.912v-1.143c-0.317,0.444-0.692,0.775-1.124,0.992
				c-0.433,0.218-0.868,0.326-1.308,0.326c-0.894,0-1.659-0.36-2.296-1.08c-0.638-0.721-0.956-1.725-0.956-3.014
				c0-1.318,0.31-2.321,0.93-3.007c0.62-0.687,1.404-1.029,2.352-1.029c0.869,0,1.621,0.361,2.256,1.084v-3.867h2.059V90.65z
				 M331.608,86.593c0,0.83,0.115,1.431,0.345,1.802c0.332,0.537,0.796,0.806,1.392,0.806c0.474,0,0.876-0.201,1.209-0.604
				c0.331-0.402,0.498-1.004,0.498-1.805c0-0.895-0.162-1.537-0.484-1.931c-0.322-0.393-0.734-0.589-1.237-0.589
				c-0.488,0-0.897,0.193-1.227,0.582C331.773,85.241,331.608,85.821,331.608,86.593z"/>
			<path style="fill:#2C6882;" d="M341.802,90.65l3.67-5.604l-3.326-5.134h2.535l2.152,3.45l2.109-3.45h2.513l-3.34,5.215
				l3.669,5.522h-2.614l-2.38-3.713l-2.389,3.713H341.802z"/>
			<path style="fill:#2C6882;" d="M355.508,90.65v-4.52l-3.933-6.218h2.541l2.527,4.248l2.475-4.248h2.498l-3.947,6.233v4.504
				H355.508z"/>
			<path style="fill:#2C6882;" d="M361.553,90.65v-1.955l5.64-6.966h-5.002v-1.816h7.858v1.685l-5.882,7.244h6.109v1.809H361.553z"
				/>
			<path style="fill:#2C6882;" d="M371.281,79.913h2.059v1.479c0,0.596-0.052,1.064-0.154,1.406s-0.297,0.65-0.582,0.927
				c-0.286,0.275-0.648,0.492-1.088,0.647l-0.402-0.856c0.414-0.137,0.71-0.327,0.886-0.571s0.269-0.568,0.278-0.975h-0.996V79.913z
				 M374.738,79.913h2.059v1.479c0,0.596-0.053,1.064-0.158,1.406c-0.104,0.342-0.3,0.65-0.586,0.927
				c-0.285,0.275-0.646,0.492-1.08,0.647l-0.402-0.856c0.41-0.137,0.704-0.327,0.882-0.571c0.179-0.244,0.27-0.568,0.274-0.975
				h-0.988V79.913z"/>
			<path style="fill:#2C6882;" d="M378.71,90.65v-2.059h2.059v2.059H378.71z"/>
		</g>
	</g>
	<g>
		
			<line style="fill:none;stroke:#393939;stroke-width:1.0444;stroke-miterlimit:10;" x1="1.022" y1="12.756" x2="285.693" y2="12.756"/>
		<circle style="fill:#393939;" cx="286.131" cy="12.776" r="1.02"/>
		<circle style="fill:#393939;" cx="1.024" cy="12.776" r="1.021"/>
	</g>
	<g>
		
			<line style="fill:none;stroke:#393939;stroke-width:1.0444;stroke-miterlimit:10;" x1="1.02" y1="337.968" x2="446.398" y2="337.968"/>
		<circle style="fill:#393939;" cx="1.024" cy="337.988" r="1.021"/>
		<circle style="fill:#393939;" cx="446.398" cy="337.968" r="1.02"/>
	</g>
	<g>
		
			<line style="fill:none;stroke:#393939;stroke-width:1.0444;stroke-miterlimit:10;" x1="1.02" y1="17.788" x2="1.02" y2="332.276"/>
		<circle style="fill:#393939;" cx="1.024" cy="17.798" r="1.021"/>
		<circle style="fill:#393939;" cx="1.021" cy="331.404" r="1.021"/>
	</g>
	<g>
		
			<line style="fill:none;stroke:#393939;stroke-width:1.0444;stroke-miterlimit:10;" x1="446.354" y1="17.788" x2="446.354" y2="334.156"/>
		<circle style="fill:#393939;" cx="446.357" cy="17.798" r="1.02"/>
		<circle style="fill:#393939;" cx="446.357" cy="333.934" r="1.02"/>
	</g>
	<g>
		
			<line style="fill:none;stroke:#393939;stroke-width:1.0444;stroke-miterlimit:10;" x1="320.461" y1="12.756" x2="445.378" y2="12.756"/>
		<circle style="fill:#393939;" cx="320.256" cy="12.776" r="1.02"/>
		<circle style="fill:#393939;" cx="445.378" cy="12.776" r="1.02"/>
	</g>
	<line style="fill:none;stroke:#393939;stroke-width:1.0444;stroke-miterlimit:10;" x1="302.502" y1="0" x2="302.502" y2="13.376"/>
	<circle style="fill:#393939;" cx="302.502" cy="12.776" r="1.02"/>
</g>
</svg>
