<?xml version="1.0" encoding="utf-8"?>
<!-- Generator: Adobe Illustrator 17.0.0, SVG Export Plug-In . SVG Version: 6.00 Build 0)  -->
<!DOCTYPE svg PUBLIC "-//W3C//DTD SVG 1.1//EN" "http://www.w3.org/Graphics/SVG/1.1/DTD/svg11.dtd">
<svg version="1.1" id="Capa_1" xmlns="http://www.w3.org/2000/svg" xmlns:xlink="http://www.w3.org/1999/xlink" x="0px" y="0px"
	 width="77.222px" height="76.891px" viewBox="0 0 77.222 76.891" style="enable-background:new 0 0 77.222 76.891;"
	 xml:space="preserve">
<g>
	<g>
		<g>
			<circle style="fill:#6FC2D8;" cx="38.452" cy="38.446" r="30.346"/>
			<circle style="fill:#393939;" cx="38.452" cy="38.446" r="26.426"/>
			<g>
				<circle style="fill:#FFFFFF;" cx="38.453" cy="38.446" r="24.628"/>
			</g>
			<g>
				<path style="fill:none;stroke:#393939;stroke-width:1.0444;stroke-miterlimit:10;" d="M5.167,45.431
					C4.696,43.178,4.45,40.84,4.45,38.446c0-11.932,6.145-22.428,15.444-28.494"/>
				<path style="fill:none;stroke:#393939;stroke-width:1.0444;stroke-miterlimit:10;" d="M14.138,62.212
					c-2.998-3.064-5.42-6.693-7.092-10.713"/>
				<path style="fill:none;stroke:#393939;stroke-width:1.0444;stroke-miterlimit:10;" d="M36.409,72.381
					c-7.424-0.439-14.205-3.259-19.596-7.708"/>
				<path style="fill:none;stroke:#393939;stroke-width:1.0444;stroke-miterlimit:10;" d="M71.098,28.945
					c0.875,3.016,1.345,6.204,1.345,9.501c0,17.352-13.002,31.668-29.795,33.738"/>
				<path style="fill:none;stroke:#393939;stroke-width:1.0444;stroke-miterlimit:10;" d="M26.263,6.697
					c3.783-1.452,7.89-2.248,12.184-2.248c12.908,0,24.137,7.194,29.893,17.791"/>
				<path style="fill:none;stroke:#393939;stroke-width:1.0444;stroke-miterlimit:10;" d="M76.202,42.026
					c-0.773,8.252-4.191,15.736-9.396,21.594"/>
				<path style="fill:none;stroke:#393939;stroke-width:1.0444;stroke-miterlimit:10;" d="M58.431,6.21
					c10.025,6.228,16.93,17.002,17.836,29.438"/>
				<path style="fill:none;stroke:#393939;stroke-width:1.0444;stroke-miterlimit:10;" d="M3.141,24.572
					c5.538-14.081,19.259-24.05,35.306-24.05c4.543,0,8.899,0.799,12.938,2.266"/>
				<path style="fill:none;stroke:#393939;stroke-width:1.0444;stroke-miterlimit:10;" d="M3.759,53.796
					c-2.08-4.693-3.236-9.887-3.236-15.35c0-2.604,0.262-5.148,0.764-7.603"/>
				<path style="fill:none;stroke:#393939;stroke-width:1.0444;stroke-miterlimit:10;" d="M18.438,70.667
					c-5.117-3.185-9.42-7.554-12.527-12.725"/>
				<path style="fill:none;stroke:#393939;stroke-width:1.0444;stroke-miterlimit:10;" d="M62.933,67.403
					c-6.605,5.594-15.152,8.966-24.486,8.966c-5.639,0-10.99-1.231-15.801-3.439"/>
				<circle style="fill:#393939;" cx="7.046" cy="51.499" r="1.02"/>
				<circle style="fill:#393939;" cx="3.758" cy="53.796" r="1.021"/>
				<circle style="fill:#393939;" cx="5.232" cy="45.431" r="1.021"/>
				<circle style="fill:#393939;" cx="1.289" cy="30.842" r="1.02"/>
				<circle style="fill:#393939;" cx="3.14" cy="24.572" r="1.021"/>
				<circle style="fill:#393939;" cx="19.895" cy="9.952" r="1.02"/>
				<circle style="fill:#393939;" cx="26.264" cy="6.804" r="1.02"/>
				<circle style="fill:#393939;" cx="51.384" cy="2.948" r="1.021"/>
				<circle style="fill:#393939;" cx="68.339" cy="22.24" r="1.021"/>
				<circle style="fill:#393939;" cx="58.432" cy="6.21" r="1.02"/>
				<circle style="fill:#393939;" cx="71.111" cy="28.945" r="1.02"/>
				<circle style="fill:#393939;" cx="76.202" cy="35.575" r="1.021"/>
				<circle style="fill:#393939;" cx="76.202" cy="42.026" r="1.021"/>
				<circle style="fill:#393939;" cx="14.138" cy="62.212" r="1.02"/>
				<circle style="fill:#393939;" cx="16.814" cy="64.673" r="1.02"/>
				<circle style="fill:#393939;" cx="18.437" cy="70.667" r="1.02"/>
				<circle style="fill:#393939;" cx="5.911" cy="57.942" r="1.02"/>
				<circle style="fill:#393939;" cx="36.409" cy="72.381" r="1.021"/>
				<circle style="fill:#393939;" cx="22.645" cy="72.906" r="1.02"/>
				<circle style="fill:#393939;" cx="42.646" cy="72.184" r="1.02"/>
				<circle style="fill:#393939;" cx="66.807" cy="63.652" r="1.02"/>
				<circle style="fill:#393939;" cx="62.933" cy="67.403" r="1.021"/>
			</g>
		</g>
	</g>
	<g>
		<path style="fill:#2C6882;" d="M42.522,50.498h-4.836V32.274c-1.767,1.651-3.85,2.874-6.247,3.665V31.55
			c1.262-0.412,2.633-1.195,4.113-2.349c1.479-1.153,2.495-2.498,3.046-4.036h3.924V50.498z"/>
	</g>
</g>
</svg>
