<?xml version="1.0" encoding="utf-8"?>
<!-- Generator: Adobe Illustrator 17.0.0, SVG Export Plug-In . SVG Version: 6.00 Build 0)  -->
<!DOCTYPE svg PUBLIC "-//W3C//DTD SVG 1.1//EN" "http://www.w3.org/Graphics/SVG/1.1/DTD/svg11.dtd">
<svg version="1.1" id="Capa_1" xmlns="http://www.w3.org/2000/svg" xmlns:xlink="http://www.w3.org/1999/xlink" x="0px" y="0px"
	 width="430.914px" height="63.012px" viewBox="0 0 430.914 63.012" style="enable-background:new 0 0 430.914 63.012;"
	 xml:space="preserve">
<g>
	<g>
		<path style="fill:#2C6882;" d="M56.685,21.006V0h11.821v1.802h-9.932v7.808h8.042v1.802h-8.042v7.793h9.932v1.802H56.685z"/>
		<path style="fill:#2C6882;" d="M72.11,21.006V0h1.802v21.006H72.11z"/>
		<path style="fill:#2C6882;" d="M87.535,21.006l-0.996-1.494c-0.41,0.537-0.923,0.969-1.538,1.296s-1.289,0.491-2.021,0.491h-0.454
			c-0.605,0-1.177-0.115-1.714-0.344s-1.006-0.544-1.406-0.945s-0.715-0.869-0.945-1.406s-0.344-1.108-0.344-1.714v-0.146
			c0-0.605,0.115-1.177,0.344-1.714s0.544-1.006,0.945-1.406s0.869-0.715,1.406-0.945s1.108-0.344,1.714-0.344h3.809V10.02
			c0-0.361-0.068-0.701-0.205-1.018s-0.322-0.593-0.557-0.828s-0.51-0.42-0.828-0.557s-0.657-0.205-1.018-0.205h-1.055
			c-0.361,0-0.701,0.068-1.018,0.205s-0.593,0.322-0.828,0.557s-0.42,0.51-0.557,0.828s-0.205,0.657-0.205,1.018v0.542l-1.802-0.293
			v-0.146c0-0.605,0.115-1.177,0.344-1.714s0.544-1.006,0.945-1.406s0.869-0.715,1.406-0.945s1.108-0.344,1.714-0.344h1.055
			c0.605,0,1.177,0.115,1.714,0.344s1.006,0.544,1.406,0.945s0.715,0.869,0.945,1.406s0.344,1.108,0.344,1.714v10.884H87.535z
			 M86.334,13.74h-3.809c-0.361,0-0.701,0.068-1.018,0.205s-0.593,0.325-0.828,0.564s-0.42,0.518-0.557,0.835
			s-0.205,0.657-0.205,1.018v0.63c0,0.361,0.068,0.701,0.205,1.018s0.322,0.593,0.557,0.828s0.51,0.42,0.828,0.557
			s0.657,0.205,1.018,0.205h1.201c0.361,0,0.701-0.068,1.018-0.205s0.593-0.322,0.828-0.557s0.42-0.51,0.557-0.828
			s0.205-0.657,0.205-1.018V13.74z"/>
		<path style="fill:#2C6882;" d="M101.414,18.604c-0.229,0.537-0.544,1.006-0.945,1.406s-0.869,0.715-1.406,0.945
			s-1.108,0.344-1.714,0.344h-1.201c-0.605,0-1.177-0.115-1.714-0.344s-1.006-0.544-1.406-0.945s-0.715-0.869-0.945-1.406
			s-0.344-1.108-0.344-1.714V0h1.802v7.266c0.41-0.488,0.903-0.869,1.479-1.143s1.201-0.41,1.875-0.41h0.454
			c0.605,0,1.177,0.115,1.714,0.344s1.006,0.544,1.406,0.945s0.715,0.869,0.945,1.406s0.344,1.108,0.344,1.714v6.768
			C101.758,17.495,101.644,18.066,101.414,18.604z M99.957,10.02c0-0.361-0.068-0.701-0.205-1.018s-0.322-0.593-0.557-0.828
			s-0.51-0.42-0.828-0.557s-0.657-0.205-1.018-0.205h-1.201c-0.361,0-0.701,0.068-1.018,0.205s-0.593,0.322-0.828,0.557
			s-0.42,0.51-0.557,0.828s-0.205,0.657-0.205,1.018v6.973c0,0.361,0.068,0.701,0.205,1.018s0.322,0.593,0.557,0.828
			s0.51,0.42,0.828,0.557s0.657,0.205,1.018,0.205h1.201c0.361,0,0.701-0.068,1.018-0.205s0.593-0.322,0.828-0.557
			s0.42-0.51,0.557-0.828s0.205-0.657,0.205-1.018V10.02z"/>
		<path style="fill:#2C6882;" d="M115.037,18.604c-0.229,0.537-0.544,1.006-0.945,1.406s-0.869,0.715-1.406,0.945
			s-1.108,0.344-1.714,0.344h-1.201c-0.605,0-1.177-0.115-1.714-0.344s-1.006-0.544-1.406-0.945s-0.715-0.869-0.945-1.406
			s-0.344-1.108-0.344-1.714v-6.768c0-0.605,0.115-1.177,0.344-1.714s0.544-1.006,0.945-1.406s0.869-0.715,1.406-0.945
			s1.108-0.344,1.714-0.344h1.201c0.605,0,1.177,0.115,1.714,0.344s1.006,0.544,1.406,0.945s0.715,0.869,0.945,1.406
			s0.344,1.108,0.344,1.714v6.768C115.381,17.495,115.267,18.066,115.037,18.604z M113.58,10.02c0-0.361-0.068-0.701-0.205-1.018
			s-0.322-0.593-0.557-0.828s-0.51-0.42-0.828-0.557s-0.657-0.205-1.018-0.205h-1.201c-0.361,0-0.701,0.068-1.018,0.205
			s-0.593,0.322-0.828,0.557s-0.42,0.51-0.557,0.828s-0.205,0.657-0.205,1.018v6.973c0,0.361,0.068,0.701,0.205,1.018
			s0.322,0.593,0.557,0.828s0.51,0.42,0.828,0.557s0.657,0.205,1.018,0.205h1.201c0.361,0,0.701-0.068,1.018-0.205
			s0.593-0.322,0.828-0.557s0.42-0.51,0.557-0.828s0.205-0.657,0.205-1.018V10.02z"/>
		<path style="fill:#2C6882;" d="M123.394,7.72c-0.361,0-0.701,0.068-1.018,0.205s-0.593,0.322-0.828,0.557s-0.42,0.51-0.557,0.828
			s-0.205,0.657-0.205,1.018v10.679h-1.802v-15h0.601l0.981,1.523c0.41-0.557,0.925-0.999,1.545-1.326s1.296-0.491,2.029-0.491
			h1.055V7.72H123.394z"/>
		<path style="fill:#2C6882;" d="M137.017,21.006l-0.996-1.494c-0.41,0.537-0.923,0.969-1.538,1.296s-1.289,0.491-2.021,0.491
			h-0.454c-0.605,0-1.177-0.115-1.714-0.344s-1.006-0.544-1.406-0.945s-0.715-0.869-0.945-1.406s-0.344-1.108-0.344-1.714v-0.146
			c0-0.605,0.115-1.177,0.344-1.714s0.544-1.006,0.945-1.406s0.869-0.715,1.406-0.945s1.108-0.344,1.714-0.344h3.809V10.02
			c0-0.361-0.068-0.701-0.205-1.018s-0.322-0.593-0.557-0.828s-0.51-0.42-0.828-0.557s-0.657-0.205-1.018-0.205h-1.055
			c-0.361,0-0.701,0.068-1.018,0.205s-0.593,0.322-0.828,0.557s-0.42,0.51-0.557,0.828s-0.205,0.657-0.205,1.018v0.542l-1.802-0.293
			v-0.146c0-0.605,0.115-1.177,0.344-1.714s0.544-1.006,0.945-1.406s0.869-0.715,1.406-0.945s1.108-0.344,1.714-0.344h1.055
			c0.605,0,1.177,0.115,1.714,0.344s1.006,0.544,1.406,0.945s0.715,0.869,0.945,1.406s0.344,1.108,0.344,1.714v10.884H137.017z
			 M135.816,13.74h-3.809c-0.361,0-0.701,0.068-1.018,0.205s-0.593,0.325-0.828,0.564s-0.42,0.518-0.557,0.835
			s-0.205,0.657-0.205,1.018v0.63c0,0.361,0.068,0.701,0.205,1.018s0.322,0.593,0.557,0.828s0.51,0.42,0.828,0.557
			s0.657,0.205,1.018,0.205h1.201c0.361,0,0.701-0.068,1.018-0.205s0.593-0.322,0.828-0.557s0.42-0.51,0.557-0.828
			s0.205-0.657,0.205-1.018V13.74z"/>
		<path style="fill:#2C6882;" d="M150.896,18.604c-0.229,0.537-0.544,1.006-0.945,1.406s-0.869,0.715-1.406,0.945
			s-1.108,0.344-1.714,0.344h-1.201c-0.605,0-1.177-0.115-1.714-0.344s-1.006-0.544-1.406-0.945s-0.715-0.869-0.945-1.406
			s-0.344-1.108-0.344-1.714v-6.768c0-0.605,0.115-1.177,0.344-1.714s0.544-1.006,0.945-1.406s0.869-0.715,1.406-0.945
			s1.108-0.344,1.714-0.344h1.201c0.605,0,1.177,0.115,1.714,0.344s1.006,0.544,1.406,0.945s0.715,0.869,0.945,1.406
			s0.344,1.108,0.344,1.714v0.601l-1.802,0.293V10.02c0-0.361-0.068-0.701-0.205-1.018s-0.322-0.593-0.557-0.828
			s-0.51-0.42-0.828-0.557s-0.657-0.205-1.018-0.205h-1.201c-0.361,0-0.701,0.068-1.018,0.205s-0.593,0.322-0.828,0.557
			s-0.42,0.51-0.557,0.828s-0.205,0.657-0.205,1.018v6.973c0,0.361,0.068,0.701,0.205,1.018s0.322,0.593,0.557,0.828
			s0.51,0.42,0.828,0.557s0.657,0.205,1.018,0.205h1.201c0.361,0,0.701-0.068,1.018-0.205s0.593-0.322,0.828-0.557
			s0.42-0.51,0.557-0.828s0.205-0.657,0.205-1.018v-0.996l1.802,0.293v0.601C151.241,17.495,151.126,18.066,150.896,18.604z"/>
		<path style="fill:#2C6882;" d="M155.298,2.402V0h2.095v2.402H155.298z M155.445,21.006v-15h1.802v15H155.445z"/>
		<path style="fill:#2C6882;" d="M171.126,18.604c-0.229,0.537-0.544,1.006-0.945,1.406s-0.869,0.715-1.406,0.945
			s-1.108,0.344-1.714,0.344h-1.201c-0.605,0-1.177-0.115-1.714-0.344s-1.006-0.544-1.406-0.945s-0.715-0.869-0.945-1.406
			s-0.344-1.108-0.344-1.714v-6.768c0-0.605,0.115-1.177,0.344-1.714s0.544-1.006,0.945-1.406s0.869-0.715,1.406-0.945
			s1.108-0.344,1.714-0.344h1.201c0.605,0,1.177,0.115,1.714,0.344s1.006,0.544,1.406,0.945s0.715,0.869,0.945,1.406
			s0.344,1.108,0.344,1.714v6.768C171.47,17.495,171.355,18.066,171.126,18.604z M169.668,10.02c0-0.361-0.068-0.701-0.205-1.018
			s-0.322-0.593-0.557-0.828s-0.51-0.42-0.828-0.557s-0.657-0.205-1.018-0.205h-1.201c-0.361,0-0.701,0.068-1.018,0.205
			s-0.593,0.322-0.828,0.557s-0.42,0.51-0.557,0.828s-0.205,0.657-0.205,1.018v6.973c0,0.361,0.068,0.701,0.205,1.018
			s0.322,0.593,0.557,0.828s0.51,0.42,0.828,0.557s0.657,0.205,1.018,0.205h1.201c0.361,0,0.701-0.068,1.018-0.205
			s0.593-0.322,0.828-0.557s0.42-0.51,0.557-0.828s0.205-0.657,0.205-1.018V10.02z M165.713,3.604h-1.348L166.753,0h3.003
			L165.713,3.604z"/>
		<path style="fill:#2C6882;" d="M183.292,21.006V10.02c0-0.361-0.068-0.701-0.205-1.018s-0.322-0.593-0.557-0.828
			s-0.51-0.42-0.828-0.557s-0.657-0.205-1.018-0.205h-1.201c-0.361,0-0.701,0.068-1.018,0.205s-0.593,0.322-0.828,0.557
			s-0.42,0.51-0.557,0.828s-0.205,0.657-0.205,1.018v10.986h-1.802v-15h0.601l0.981,1.523c0.41-0.557,0.925-0.999,1.545-1.326
			s1.296-0.491,2.029-0.491h0.454c0.605,0,1.177,0.115,1.714,0.344s1.006,0.544,1.406,0.945s0.715,0.869,0.945,1.406
			s0.344,1.108,0.344,1.714v10.884H183.292z"/>
		<path style="fill:#2C6882;" d="M205.015,21.006l-0.996-1.523c-0.41,0.557-0.923,0.999-1.538,1.326s-1.289,0.491-2.021,0.491
			h-0.454c-0.605,0-1.177-0.115-1.714-0.344s-1.006-0.544-1.406-0.945s-0.715-0.869-0.945-1.406s-0.344-1.108-0.344-1.714v-6.768
			c0-0.605,0.115-1.177,0.344-1.714s0.544-1.006,0.945-1.406s0.869-0.715,1.406-0.945s1.108-0.344,1.714-0.344h0.454
			c0.674,0,1.299,0.137,1.875,0.41s1.069,0.654,1.479,1.143V0h1.802v21.006H205.015z M203.814,10.02
			c0-0.361-0.068-0.701-0.205-1.018s-0.322-0.593-0.557-0.828s-0.51-0.42-0.828-0.557s-0.657-0.205-1.018-0.205h-1.201
			c-0.361,0-0.701,0.068-1.018,0.205s-0.593,0.322-0.828,0.557s-0.42,0.51-0.557,0.828s-0.205,0.657-0.205,1.018v6.973
			c0,0.361,0.068,0.701,0.205,1.018s0.322,0.593,0.557,0.828s0.51,0.42,0.828,0.557s0.657,0.205,1.018,0.205h1.201
			c0.361,0,0.701-0.068,1.018-0.205s0.593-0.322,0.828-0.557s0.42-0.51,0.557-0.828s0.205-0.657,0.205-1.018V10.02z"/>
		<path style="fill:#2C6882;" d="M218.895,18.604c-0.229,0.537-0.544,1.006-0.945,1.406s-0.869,0.715-1.406,0.945
			s-1.108,0.344-1.714,0.344h-1.201c-0.605,0-1.177-0.115-1.714-0.344s-1.006-0.544-1.406-0.945s-0.715-0.869-0.945-1.406
			s-0.344-1.108-0.344-1.714v-6.768c0-0.605,0.115-1.177,0.344-1.714s0.544-1.006,0.945-1.406s0.869-0.715,1.406-0.945
			s1.108-0.344,1.714-0.344h1.201c0.605,0,1.177,0.115,1.714,0.344s1.006,0.544,1.406,0.945s0.715,0.869,0.945,1.406
			s0.344,1.108,0.344,1.714v3.53h-8.218v3.34c0,0.361,0.068,0.701,0.205,1.018s0.322,0.593,0.557,0.828s0.51,0.42,0.828,0.557
			s0.657,0.205,1.018,0.205h1.201c0.361,0,0.701-0.068,1.018-0.205s0.593-0.322,0.828-0.557s0.42-0.51,0.557-0.828
			s0.205-0.657,0.205-1.018v-0.996l1.802,0.293v0.601C219.239,17.495,219.124,18.066,218.895,18.604z M217.437,10.02
			c0-0.361-0.068-0.701-0.205-1.018s-0.322-0.593-0.557-0.828s-0.51-0.42-0.828-0.557s-0.657-0.205-1.018-0.205h-1.201
			c-0.361,0-0.701,0.068-1.018,0.205s-0.593,0.322-0.828,0.557s-0.42,0.51-0.557,0.828s-0.205,0.657-0.205,1.018v2.227h6.416V10.02z
			"/>
		<path style="fill:#2C6882;" d="M223.443,21.006V0h1.802v21.006H223.443z"/>
		<path style="fill:#2C6882;" d="M69.62,57.006V42.606L69.488,43.5L64.61,57.006h-0.996L58.692,43.5l-0.117-0.894v14.399h-1.89V36
			h0.981l6.372,17.227l0.059,0.776l0.059-0.776L70.513,36h0.996v21.006H69.62z"/>
		<path style="fill:#2C6882;" d="M85.118,57.006l-0.996-1.494c-0.41,0.537-0.923,0.969-1.538,1.296s-1.289,0.491-2.021,0.491h-0.454
			c-0.605,0-1.177-0.115-1.714-0.344s-1.006-0.544-1.406-0.945s-0.715-0.869-0.945-1.406s-0.344-1.108-0.344-1.714v-0.146
			c0-0.605,0.115-1.177,0.344-1.714s0.544-1.006,0.945-1.406s0.869-0.715,1.406-0.945s1.108-0.344,1.714-0.344h3.809V46.02
			c0-0.361-0.068-0.701-0.205-1.018s-0.322-0.593-0.557-0.828s-0.51-0.42-0.828-0.557s-0.657-0.205-1.018-0.205h-1.055
			c-0.361,0-0.701,0.068-1.018,0.205s-0.593,0.322-0.828,0.557s-0.42,0.51-0.557,0.828s-0.205,0.657-0.205,1.018v0.542l-1.802-0.293
			v-0.146c0-0.605,0.115-1.177,0.344-1.714s0.544-1.006,0.945-1.406s0.869-0.715,1.406-0.945s1.108-0.344,1.714-0.344h1.055
			c0.605,0,1.177,0.115,1.714,0.344s1.006,0.544,1.406,0.945s0.715,0.869,0.945,1.406s0.344,1.108,0.344,1.714v10.884H85.118z
			 M83.917,49.74h-3.809c-0.361,0-0.701,0.068-1.018,0.205s-0.593,0.325-0.828,0.564s-0.42,0.518-0.557,0.835
			s-0.205,0.657-0.205,1.018v0.63c0,0.361,0.068,0.701,0.205,1.018s0.322,0.593,0.557,0.828s0.51,0.42,0.828,0.557
			s0.657,0.205,1.018,0.205h1.201c0.361,0,0.701-0.068,1.018-0.205s0.593-0.322,0.828-0.557s0.42-0.51,0.557-0.828
			s0.205-0.657,0.205-1.018V49.74z"/>
		<path style="fill:#2C6882;" d="M98.997,54.604c-0.229,0.537-0.544,1.006-0.945,1.406s-0.869,0.715-1.406,0.945
			s-1.108,0.344-1.714,0.344h-0.454c-0.674,0-1.299-0.137-1.875-0.41s-1.069-0.654-1.479-1.143v7.266h-1.802V42.006h0.601
			l0.981,1.523c0.41-0.557,0.925-0.999,1.545-1.326s1.296-0.491,2.029-0.491h0.454c0.605,0,1.177,0.115,1.714,0.344
			s1.006,0.544,1.406,0.945s0.715,0.869,0.945,1.406s0.344,1.108,0.344,1.714v6.768C99.341,53.495,99.227,54.066,98.997,54.604z
			 M97.54,46.02c0-0.361-0.068-0.701-0.205-1.018s-0.322-0.593-0.557-0.828s-0.51-0.42-0.828-0.557s-0.657-0.205-1.018-0.205h-1.201
			c-0.361,0-0.701,0.068-1.018,0.205s-0.593,0.322-0.828,0.557s-0.42,0.51-0.557,0.828s-0.205,0.657-0.205,1.018v6.973
			c0,0.361,0.068,0.701,0.205,1.018s0.322,0.593,0.557,0.828s0.51,0.42,0.828,0.557S93.37,55.6,93.731,55.6h1.201
			c0.361,0,0.701-0.068,1.018-0.205s0.593-0.322,0.828-0.557s0.42-0.51,0.557-0.828s0.205-0.657,0.205-1.018V46.02z"/>
		<path style="fill:#2C6882;" d="M112.364,57.006l-0.996-1.494c-0.41,0.537-0.923,0.969-1.538,1.296s-1.289,0.491-2.021,0.491
			h-0.454c-0.605,0-1.177-0.115-1.714-0.344s-1.006-0.544-1.406-0.945s-0.715-0.869-0.945-1.406s-0.344-1.108-0.344-1.714v-0.146
			c0-0.605,0.115-1.177,0.344-1.714s0.544-1.006,0.945-1.406s0.869-0.715,1.406-0.945s1.108-0.344,1.714-0.344h3.809V46.02
			c0-0.361-0.068-0.701-0.205-1.018s-0.322-0.593-0.557-0.828s-0.51-0.42-0.828-0.557s-0.657-0.205-1.018-0.205h-1.055
			c-0.361,0-0.701,0.068-1.018,0.205s-0.593,0.322-0.828,0.557s-0.42,0.51-0.557,0.828s-0.205,0.657-0.205,1.018v0.542l-1.802-0.293
			v-0.146c0-0.605,0.115-1.177,0.344-1.714s0.544-1.006,0.945-1.406s0.869-0.715,1.406-0.945s1.108-0.344,1.714-0.344h1.055
			c0.605,0,1.177,0.115,1.714,0.344s1.006,0.544,1.406,0.945s0.715,0.869,0.945,1.406s0.344,1.108,0.344,1.714v10.884H112.364z
			 M111.163,49.74h-3.809c-0.361,0-0.701,0.068-1.018,0.205s-0.593,0.325-0.828,0.564s-0.42,0.518-0.557,0.835
			s-0.205,0.657-0.205,1.018v0.63c0,0.361,0.068,0.701,0.205,1.018s0.322,0.593,0.557,0.828s0.51,0.42,0.828,0.557
			s0.657,0.205,1.018,0.205h1.201c0.361,0,0.701-0.068,1.018-0.205s0.593-0.322,0.828-0.557s0.42-0.51,0.557-0.828
			s0.205-0.657,0.205-1.018V49.74z"/>
		<path style="fill:#2C6882;" d="M132.886,57.006l-0.996-1.523c-0.41,0.557-0.923,0.999-1.538,1.326s-1.289,0.491-2.021,0.491
			h-0.454c-0.605,0-1.177-0.115-1.714-0.344s-1.006-0.544-1.406-0.945s-0.715-0.869-0.945-1.406s-0.344-1.108-0.344-1.714v-6.768
			c0-0.605,0.115-1.177,0.344-1.714s0.544-1.006,0.945-1.406s0.869-0.715,1.406-0.945s1.108-0.344,1.714-0.344h0.454
			c0.674,0,1.299,0.137,1.875,0.41s1.069,0.654,1.479,1.143V36h1.802v21.006H132.886z M131.685,46.02
			c0-0.361-0.068-0.701-0.205-1.018s-0.322-0.593-0.557-0.828s-0.51-0.42-0.828-0.557s-0.657-0.205-1.018-0.205h-1.201
			c-0.361,0-0.701,0.068-1.018,0.205s-0.593,0.322-0.828,0.557s-0.42,0.51-0.557,0.828s-0.205,0.657-0.205,1.018v6.973
			c0,0.361,0.068,0.701,0.205,1.018s0.322,0.593,0.557,0.828s0.51,0.42,0.828,0.557s0.657,0.205,1.018,0.205h1.201
			c0.361,0,0.701-0.068,1.018-0.205s0.593-0.322,0.828-0.557s0.42-0.51,0.557-0.828s0.205-0.657,0.205-1.018V46.02z"/>
		<path style="fill:#2C6882;" d="M146.766,54.604c-0.229,0.537-0.544,1.006-0.945,1.406s-0.869,0.715-1.406,0.945
			s-1.108,0.344-1.714,0.344H141.5c-0.605,0-1.177-0.115-1.714-0.344s-1.006-0.544-1.406-0.945s-0.715-0.869-0.945-1.406
			s-0.344-1.108-0.344-1.714v-6.768c0-0.605,0.115-1.177,0.344-1.714s0.544-1.006,0.945-1.406s0.869-0.715,1.406-0.945
			s1.108-0.344,1.714-0.344h1.201c0.605,0,1.177,0.115,1.714,0.344s1.006,0.544,1.406,0.945s0.715,0.869,0.945,1.406
			s0.344,1.108,0.344,1.714v3.53h-8.218v3.34c0,0.361,0.068,0.701,0.205,1.018s0.322,0.593,0.557,0.828s0.51,0.42,0.828,0.557
			s0.657,0.205,1.018,0.205h1.201c0.361,0,0.701-0.068,1.018-0.205s0.593-0.322,0.828-0.557s0.42-0.51,0.557-0.828
			s0.205-0.657,0.205-1.018v-0.996l1.802,0.293v0.601C147.11,53.495,146.995,54.066,146.766,54.604z M145.308,46.02
			c0-0.361-0.068-0.701-0.205-1.018s-0.322-0.593-0.557-0.828s-0.51-0.42-0.828-0.557s-0.657-0.205-1.018-0.205H141.5
			c-0.361,0-0.701,0.068-1.018,0.205s-0.593,0.322-0.828,0.557s-0.42,0.51-0.557,0.828s-0.205,0.657-0.205,1.018v2.227h6.416V46.02z
			"/>
		<path style="fill:#2C6882;" d="M169.632,45.785c-0.269,0.625-0.637,1.172-1.106,1.641s-1.018,0.837-1.648,1.106
			s-1.301,0.403-2.014,0.403h-4.761v8.071h-1.89V36h6.65c0.713,0,1.384,0.134,2.014,0.403s1.179,0.637,1.648,1.106
			s0.837,1.018,1.106,1.648s0.403,1.301,0.403,2.014v2.607C170.035,44.491,169.9,45.16,169.632,45.785z M168.145,41.171
			c0-0.469-0.088-0.906-0.264-1.311s-0.417-0.762-0.725-1.069s-0.664-0.549-1.069-0.725s-0.842-0.264-1.311-0.264h-4.673v9.331
			h4.673c0.469,0,0.906-0.088,1.311-0.264s0.762-0.415,1.069-0.718s0.549-0.657,0.725-1.062s0.264-0.842,0.264-1.311V41.171z"/>
		<path style="fill:#2C6882;" d="M177.447,43.72c-0.361,0-0.701,0.068-1.018,0.205s-0.593,0.322-0.828,0.557s-0.42,0.51-0.557,0.828
			s-0.205,0.657-0.205,1.018v10.679h-1.802v-15h0.601l0.981,1.523c0.41-0.557,0.925-0.999,1.545-1.326s1.296-0.491,2.029-0.491
			h1.055v2.007H177.447z"/>
		<path style="fill:#2C6882;" d="M191.326,54.604c-0.229,0.537-0.544,1.006-0.945,1.406s-0.869,0.715-1.406,0.945
			s-1.108,0.344-1.714,0.344h-1.201c-0.605,0-1.177-0.115-1.714-0.344s-1.006-0.544-1.406-0.945s-0.715-0.869-0.945-1.406
			s-0.344-1.108-0.344-1.714v-6.768c0-0.605,0.115-1.177,0.344-1.714s0.544-1.006,0.945-1.406s0.869-0.715,1.406-0.945
			s1.108-0.344,1.714-0.344h1.201c0.605,0,1.177,0.115,1.714,0.344s1.006,0.544,1.406,0.945s0.715,0.869,0.945,1.406
			s0.344,1.108,0.344,1.714v6.768C191.67,53.495,191.556,54.066,191.326,54.604z M189.869,46.02c0-0.361-0.068-0.701-0.205-1.018
			s-0.322-0.593-0.557-0.828s-0.51-0.42-0.828-0.557s-0.657-0.205-1.018-0.205h-1.201c-0.361,0-0.701,0.068-1.018,0.205
			s-0.593,0.322-0.828,0.557s-0.42,0.51-0.557,0.828s-0.205,0.657-0.205,1.018v6.973c0,0.361,0.068,0.701,0.205,1.018
			s0.322,0.593,0.557,0.828s0.51,0.42,0.828,0.557s0.657,0.205,1.018,0.205h1.201c0.361,0,0.701-0.068,1.018-0.205
			s0.593-0.322,0.828-0.557s0.42-0.51,0.557-0.828s0.205-0.657,0.205-1.018V46.02z"/>
		<path style="fill:#2C6882;" d="M204.949,54.604c-0.229,0.537-0.544,1.006-0.945,1.406s-0.869,0.715-1.406,0.945
			s-1.108,0.344-1.714,0.344h-1.201c-0.605,0-1.177-0.115-1.714-0.344s-1.006-0.544-1.406-0.945s-0.715-0.869-0.945-1.406
			s-0.344-1.108-0.344-1.714v-6.768c0-0.605,0.115-1.177,0.344-1.714s0.544-1.006,0.945-1.406s0.869-0.715,1.406-0.945
			s1.108-0.344,1.714-0.344h1.201c0.605,0,1.177,0.115,1.714,0.344s1.006,0.544,1.406,0.945s0.715,0.869,0.945,1.406
			s0.344,1.108,0.344,1.714v0.601l-1.802,0.293V46.02c0-0.361-0.068-0.701-0.205-1.018s-0.322-0.593-0.557-0.828
			s-0.51-0.42-0.828-0.557s-0.657-0.205-1.018-0.205h-1.201c-0.361,0-0.701,0.068-1.018,0.205s-0.593,0.322-0.828,0.557
			s-0.42,0.51-0.557,0.828s-0.205,0.657-0.205,1.018v6.973c0,0.361,0.068,0.701,0.205,1.018s0.322,0.593,0.557,0.828
			s0.51,0.42,0.828,0.557s0.657,0.205,1.018,0.205h1.201c0.361,0,0.701-0.068,1.018-0.205s0.593-0.322,0.828-0.557
			s0.42-0.51,0.557-0.828s0.205-0.657,0.205-1.018v-0.996l1.802,0.293v0.601C205.293,53.495,205.179,54.066,204.949,54.604z"/>
		<path style="fill:#2C6882;" d="M218.572,54.604c-0.229,0.537-0.544,1.006-0.945,1.406s-0.869,0.715-1.406,0.945
			s-1.108,0.344-1.714,0.344h-1.201c-0.605,0-1.177-0.115-1.714-0.344s-1.006-0.544-1.406-0.945s-0.715-0.869-0.945-1.406
			s-0.344-1.108-0.344-1.714v-6.768c0-0.605,0.115-1.177,0.344-1.714s0.544-1.006,0.945-1.406s0.869-0.715,1.406-0.945
			s1.108-0.344,1.714-0.344h1.201c0.605,0,1.177,0.115,1.714,0.344s1.006,0.544,1.406,0.945s0.715,0.869,0.945,1.406
			s0.344,1.108,0.344,1.714v3.53h-8.218v3.34c0,0.361,0.068,0.701,0.205,1.018s0.322,0.593,0.557,0.828s0.51,0.42,0.828,0.557
			s0.657,0.205,1.018,0.205h1.201c0.361,0,0.701-0.068,1.018-0.205s0.593-0.322,0.828-0.557s0.42-0.51,0.557-0.828
			s0.205-0.657,0.205-1.018v-0.996l1.802,0.293v0.601C218.917,53.495,218.802,54.066,218.572,54.604z M217.115,46.02
			c0-0.361-0.068-0.701-0.205-1.018s-0.322-0.593-0.557-0.828s-0.51-0.42-0.828-0.557s-0.657-0.205-1.018-0.205h-1.201
			c-0.361,0-0.701,0.068-1.018,0.205s-0.593,0.322-0.828,0.557s-0.42,0.51-0.557,0.828s-0.205,0.657-0.205,1.018v2.227h6.416V46.02z
			"/>
		<path style="fill:#2C6882;" d="M232.833,53.197c0,0.605-0.122,1.16-0.366,1.663s-0.576,0.935-0.996,1.296
			s-0.906,0.642-1.458,0.842s-1.13,0.3-1.736,0.3h-1.201c-0.605,0-1.184-0.115-1.736-0.344s-1.035-0.544-1.45-0.945
			s-0.747-0.869-0.996-1.406s-0.374-1.108-0.374-1.714v-0.601l1.802-0.293v0.996c0,0.361,0.076,0.701,0.227,1.018
			s0.354,0.593,0.608,0.828s0.547,0.42,0.879,0.557s0.679,0.205,1.04,0.205h1.201c0.361,0,0.708-0.054,1.04-0.161
			s0.627-0.261,0.886-0.461s0.464-0.442,0.615-0.725s0.227-0.605,0.227-0.967c0-0.537-0.117-0.977-0.352-1.318
			s-0.544-0.627-0.93-0.857s-0.825-0.42-1.318-0.571s-0.999-0.303-1.516-0.454s-1.023-0.325-1.516-0.52s-0.933-0.452-1.318-0.769
			s-0.696-0.715-0.93-1.194s-0.352-1.074-0.352-1.787c0-0.605,0.117-1.16,0.352-1.663s0.552-0.935,0.952-1.296
			s0.867-0.642,1.399-0.842s1.101-0.3,1.707-0.3h1.055c0.605,0,1.177,0.115,1.714,0.344s1.006,0.544,1.406,0.945
			s0.715,0.869,0.945,1.406s0.344,1.108,0.344,1.714v0.059l-1.802,0.293V46.02c0-0.361-0.068-0.701-0.205-1.018
			s-0.322-0.593-0.557-0.828s-0.51-0.42-0.828-0.557s-0.657-0.205-1.018-0.205h-1.055c-0.361,0-0.701,0.054-1.018,0.161
			s-0.593,0.261-0.828,0.461s-0.42,0.442-0.557,0.725s-0.205,0.605-0.205,0.967c0,0.518,0.117,0.94,0.352,1.267
			s0.544,0.603,0.93,0.828s0.825,0.413,1.318,0.564s0.996,0.308,1.509,0.469s1.016,0.344,1.509,0.549s0.933,0.469,1.318,0.791
			s0.696,0.725,0.93,1.208S232.833,52.484,232.833,53.197z"/>
		<path style="fill:#2C6882;" d="M245.965,54.604c-0.229,0.537-0.544,1.006-0.944,1.406s-0.87,0.715-1.407,0.945
			s-1.108,0.344-1.714,0.344h-1.201c-0.605,0-1.177-0.115-1.714-0.344s-1.006-0.544-1.406-0.945s-0.715-0.869-0.945-1.406
			s-0.344-1.108-0.344-1.714v-6.768c0-0.605,0.115-1.177,0.344-1.714s0.544-1.006,0.945-1.406s0.869-0.715,1.406-0.945
			s1.108-0.344,1.714-0.344h1.201c0.605,0,1.177,0.115,1.714,0.344s1.006,0.544,1.407,0.945s0.715,0.869,0.944,1.406
			s0.345,1.108,0.345,1.714v6.768C246.31,53.495,246.194,54.066,245.965,54.604z M244.508,46.02c0-0.361-0.068-0.701-0.205-1.018
			c-0.137-0.317-0.323-0.593-0.557-0.828s-0.51-0.42-0.828-0.557s-0.657-0.205-1.018-0.205h-1.201c-0.361,0-0.701,0.068-1.018,0.205
			s-0.593,0.322-0.828,0.557s-0.42,0.51-0.557,0.828s-0.205,0.657-0.205,1.018v6.973c0,0.361,0.068,0.701,0.205,1.018
			s0.322,0.593,0.557,0.828s0.51,0.42,0.828,0.557s0.657,0.205,1.018,0.205h1.201c0.361,0,0.701-0.068,1.018-0.205
			s0.593-0.322,0.828-0.557s0.42-0.51,0.557-0.828c0.137-0.317,0.205-0.657,0.205-1.018V46.02z"/>
	</g>
	<circle style="fill:none;stroke:#445061;stroke-linecap:round;stroke-linejoin:round;" cx="4.414" cy="10.912" r="3.914"/>
	<circle style="fill:none;stroke:#445061;stroke-linecap:round;stroke-linejoin:round;" cx="426.5" cy="50.912" r="3.914"/>
	
		<line style="fill:none;stroke:#445061;stroke-linecap:round;stroke-linejoin:round;" x1="254.18" y1="50.913" x2="422.127" y2="50.913"/>
	
		<line style="fill:none;stroke:#445061;stroke-linecap:round;stroke-linejoin:round;" x1="7.92" y1="10.912" x2="48.502" y2="10.912"/>
</g>
</svg>
