<?xml version="1.0" encoding="utf-8"?>
<!-- Generator: Adobe Illustrator 17.0.0, SVG Export Plug-In . SVG Version: 6.00 Build 0)  -->
<!DOCTYPE svg PUBLIC "-//W3C//DTD SVG 1.1//EN" "http://www.w3.org/Graphics/SVG/1.1/DTD/svg11.dtd">
<svg version="1.1" id="Capa_1" xmlns="http://www.w3.org/2000/svg" xmlns:xlink="http://www.w3.org/1999/xlink" x="0px" y="0px"
	 width="380.275px" height="174.983px" viewBox="0 0 380.275 174.983" style="enable-background:new 0 0 380.275 174.983;"
	 xml:space="preserve">
<g>
	
		<rect x="99.096" y="33.764" style="fill:#6FC2D8;stroke:#000000;stroke-width:0.75;stroke-miterlimit:10;" width="227.754" height="37.639"/>
	<g>
		<defs>
			<rect id="SVGID_1_" x="0.375" y="0.375" width="379.525" height="27.407"/>
		</defs>
		<use xlink:href="#SVGID_1_"  style="overflow:visible;fill:#6FC2D8;"/>
		<clipPath id="SVGID_2_">
			<use xlink:href="#SVGID_1_"  style="overflow:visible;"/>
		</clipPath>
		
			<rect x="0.375" y="0.375" style="clip-path:url(#SVGID_2_);fill:#6FC2D8;stroke:#000000;stroke-width:0.75;stroke-miterlimit:10;" width="379.525" height="27.407"/>
		<use xlink:href="#SVGID_1_"  style="overflow:visible;fill:none;stroke:#000000;stroke-width:0.75;stroke-miterlimit:10;"/>
	</g>
	<g>
		<defs>
			<rect id="SVGID_3_" x="0.375" y="71.763" width="91.854" height="102.772"/>
		</defs>
		<use xlink:href="#SVGID_3_"  style="overflow:visible;fill:#6FC2D8;"/>
		<clipPath id="SVGID_4_">
			<use xlink:href="#SVGID_3_"  style="overflow:visible;"/>
		</clipPath>
		
			<rect x="0.375" y="71.763" style="clip-path:url(#SVGID_4_);fill:#6FC2D8;stroke:#000000;stroke-width:0.75;stroke-miterlimit:10;" width="91.854" height="102.772"/>
		<use xlink:href="#SVGID_3_"  style="overflow:visible;fill:none;stroke:#000000;stroke-width:0.75;stroke-miterlimit:10;"/>
	</g>
	<g>
		<path style="fill:#2C6882;" d="M10.328,18.394V8.455h1.315v8.767h4.896v1.173H10.328z"/>
		<path style="fill:#2C6882;" d="M17.014,18.394l3.817-9.939h1.417l4.067,9.939h-1.498l-1.159-3.01h-4.156l-1.092,3.01H17.014z
			 M19.882,14.313h3.369l-1.037-2.753c-0.316-0.836-0.552-1.523-0.705-2.062c-0.127,0.638-0.305,1.271-0.535,1.898L19.882,14.313z"
			/>
		<path style="fill:#2C6882;" d="M30.824,13.553c0-1.649,0.443-2.941,1.329-3.875c0.886-0.933,2.029-1.399,3.431-1.399
			c0.917,0,1.744,0.219,2.481,0.657c0.736,0.438,1.298,1.05,1.685,1.834s0.58,1.674,0.58,2.668c0,1.008-0.204,1.91-0.61,2.705
			c-0.407,0.796-0.983,1.397-1.729,1.807c-0.746,0.409-1.551,0.614-2.414,0.614c-0.936,0-1.771-0.227-2.509-0.679
			c-0.736-0.451-1.295-1.068-1.675-1.851C31.014,15.253,30.824,14.425,30.824,13.553z M32.18,13.574c0,1.197,0.322,2.142,0.966,2.83
			c0.645,0.689,1.452,1.034,2.424,1.034c0.99,0,1.805-0.348,2.444-1.044s0.959-1.684,0.959-2.963c0-0.809-0.137-1.516-0.41-2.118
			c-0.273-0.604-0.673-1.071-1.2-1.404c-0.526-0.332-1.117-0.498-1.772-0.498c-0.932,0-1.732,0.32-2.403,0.96
			C32.515,11.009,32.18,12.078,32.18,13.574z"/>
		<path style="fill:#2C6882;" d="M42.045,18.394V8.455h4.406c0.886,0,1.56,0.09,2.021,0.268c0.461,0.179,0.83,0.494,1.105,0.946
			s0.413,0.951,0.413,1.498c0,0.705-0.228,1.3-0.685,1.783c-0.456,0.483-1.161,0.791-2.115,0.922
			c0.348,0.168,0.612,0.333,0.793,0.495c0.385,0.353,0.748,0.793,1.092,1.322l1.729,2.705h-1.654l-1.315-2.067
			c-0.385-0.597-0.701-1.054-0.949-1.37c-0.249-0.316-0.472-0.538-0.668-0.664c-0.196-0.127-0.396-0.215-0.601-0.265
			c-0.148-0.031-0.393-0.048-0.731-0.048h-1.525v4.414H42.045z M43.361,12.841h2.827c0.601,0,1.071-0.063,1.41-0.187
			s0.597-0.323,0.772-0.597c0.177-0.273,0.265-0.57,0.265-0.892c0-0.47-0.171-0.856-0.512-1.159
			c-0.342-0.303-0.881-0.454-1.617-0.454h-3.146V12.841z"/>
		<path style="fill:#2C6882;" d="M56.703,14.496V13.33l4.21-0.007v3.688c-0.646,0.515-1.313,0.902-2,1.162
			c-0.688,0.26-1.393,0.391-2.115,0.391c-0.977,0-1.863-0.209-2.661-0.628c-0.798-0.418-1.4-1.022-1.807-1.813
			c-0.407-0.791-0.61-1.675-0.61-2.65c0-0.968,0.202-1.87,0.606-2.709c0.404-0.838,0.986-1.461,1.746-1.867
			c0.759-0.407,1.634-0.61,2.624-0.61c0.718,0,1.368,0.116,1.949,0.349c0.58,0.233,1.036,0.558,1.365,0.973
			c0.33,0.416,0.581,0.959,0.753,1.628l-1.187,0.325c-0.149-0.506-0.334-0.904-0.556-1.193s-0.538-0.521-0.949-0.695
			c-0.411-0.174-0.868-0.261-1.369-0.261c-0.602,0-1.121,0.092-1.56,0.274c-0.438,0.184-0.792,0.424-1.062,0.723
			c-0.269,0.298-0.478,0.626-0.627,0.982c-0.253,0.615-0.38,1.281-0.38,2c0,0.887,0.152,1.628,0.458,2.225
			c0.305,0.597,0.749,1.039,1.332,1.328c0.583,0.29,1.202,0.435,1.857,0.435c0.57,0,1.126-0.11,1.668-0.329
			c0.543-0.22,0.954-0.453,1.234-0.702v-1.851H56.703z"/>
		<path style="fill:#2C6882;" d="M61.76,18.394l3.817-9.939h1.417l4.067,9.939h-1.498l-1.159-3.01h-4.156l-1.092,3.01H61.76z
			 M64.628,14.313h3.369L66.96,11.56c-0.316-0.836-0.552-1.523-0.705-2.062c-0.127,0.638-0.305,1.271-0.535,1.898L64.628,14.313z"/>
		<path style="fill:#2C6882;" d="M72.1,18.394V8.455h1.35l5.22,7.804V8.455h1.262v9.939h-1.35l-5.221-7.811v7.811H72.1z"/>
		<path style="fill:#2C6882;" d="M82.365,18.394V8.455h1.315v9.939H82.365z"/>
		<path style="fill:#2C6882;" d="M85.205,18.394v-1.221l5.091-6.366c0.362-0.451,0.706-0.845,1.031-1.18h-5.546V8.455H92.9v1.173
			l-5.579,6.896l-0.604,0.698h6.346v1.173H85.205z"/>
		<path style="fill:#2C6882;" d="M93.388,18.394l3.817-9.939h1.417l4.067,9.939h-1.498l-1.159-3.01h-4.156l-1.092,3.01H93.388z
			 M96.256,14.313h3.369l-1.037-2.753c-0.316-0.836-0.552-1.523-0.705-2.062c-0.127,0.638-0.305,1.271-0.535,1.898L96.256,14.313z"
			/>
		<path style="fill:#2C6882;" d="M110.833,14.91l1.315,0.332c-0.276,1.08-0.772,1.903-1.488,2.471
			c-0.717,0.567-1.593,0.852-2.627,0.852c-1.071,0-1.942-0.219-2.614-0.654c-0.671-0.437-1.182-1.068-1.532-1.896
			s-0.525-1.715-0.525-2.664c0-1.035,0.198-1.938,0.594-2.709s0.958-1.355,1.688-1.756c0.73-0.4,1.533-0.6,2.41-0.6
			c0.995,0,1.831,0.253,2.509,0.759c0.678,0.507,1.15,1.219,1.417,2.136l-1.295,0.306c-0.23-0.724-0.565-1.25-1.003-1.58
			c-0.438-0.33-0.99-0.495-1.654-0.495c-0.765,0-1.402,0.184-1.916,0.549c-0.513,0.366-0.873,0.858-1.081,1.475
			c-0.208,0.617-0.312,1.254-0.312,1.909c0,0.845,0.123,1.583,0.369,2.214c0.246,0.63,0.629,1.102,1.149,1.413
			c0.52,0.312,1.082,0.468,1.688,0.468c0.737,0,1.361-0.212,1.872-0.637S110.653,15.746,110.833,14.91z"/>
		<path style="fill:#2C6882;" d="M113.992,18.394V8.455h1.315v9.939H113.992z"/>
		<path style="fill:#2C6882;" d="M117.226,13.553c0-1.649,0.443-2.941,1.329-3.875c0.886-0.933,2.029-1.399,3.431-1.399
			c0.917,0,1.744,0.219,2.481,0.657c0.736,0.438,1.298,1.05,1.685,1.834s0.58,1.674,0.58,2.668c0,1.008-0.204,1.91-0.61,2.705
			c-0.407,0.796-0.983,1.397-1.729,1.807c-0.746,0.409-1.551,0.614-2.414,0.614c-0.936,0-1.771-0.227-2.509-0.679
			c-0.736-0.451-1.295-1.068-1.675-1.851C117.416,15.253,117.226,14.425,117.226,13.553z M118.582,13.574
			c0,1.197,0.322,2.142,0.966,2.83c0.645,0.689,1.452,1.034,2.424,1.034c0.99,0,1.805-0.348,2.444-1.044s0.959-1.684,0.959-2.963
			c0-0.809-0.137-1.516-0.41-2.118c-0.273-0.604-0.673-1.071-1.2-1.404c-0.526-0.332-1.117-0.498-1.772-0.498
			c-0.932,0-1.732,0.32-2.403,0.96C118.917,11.009,118.582,12.078,118.582,13.574z M121.145,7.844l0.901-1.898h1.601l-1.491,1.898
			H121.145z"/>
		<path style="fill:#2C6882;" d="M128.413,18.394V8.455h1.35l5.22,7.804V8.455h1.262v9.939h-1.35l-5.221-7.811v7.811H128.413z"/>
		<path style="fill:#2C6882;" d="M149.404,14.91l1.315,0.332c-0.276,1.08-0.772,1.903-1.488,2.471
			c-0.717,0.567-1.593,0.852-2.627,0.852c-1.071,0-1.942-0.219-2.614-0.654c-0.671-0.437-1.182-1.068-1.532-1.896
			s-0.525-1.715-0.525-2.664c0-1.035,0.198-1.938,0.594-2.709s0.958-1.355,1.688-1.756c0.73-0.4,1.533-0.6,2.41-0.6
			c0.995,0,1.831,0.253,2.509,0.759c0.678,0.507,1.15,1.219,1.417,2.136l-1.295,0.306c-0.23-0.724-0.565-1.25-1.003-1.58
			c-0.438-0.33-0.99-0.495-1.654-0.495c-0.765,0-1.402,0.184-1.916,0.549c-0.513,0.366-0.873,0.858-1.081,1.475
			c-0.208,0.617-0.312,1.254-0.312,1.909c0,0.845,0.123,1.583,0.369,2.214c0.246,0.63,0.629,1.102,1.149,1.413
			c0.52,0.312,1.082,0.468,1.688,0.468c0.737,0,1.361-0.212,1.872-0.637S149.223,15.746,149.404,14.91z"/>
		<path style="fill:#2C6882;" d="M151.939,13.553c0-1.649,0.443-2.941,1.329-3.875c0.886-0.933,2.029-1.399,3.431-1.399
			c0.917,0,1.744,0.219,2.481,0.657c0.736,0.438,1.298,1.05,1.685,1.834s0.58,1.674,0.58,2.668c0,1.008-0.204,1.91-0.61,2.705
			c-0.407,0.796-0.983,1.397-1.729,1.807c-0.746,0.409-1.551,0.614-2.414,0.614c-0.936,0-1.771-0.227-2.509-0.679
			c-0.736-0.451-1.295-1.068-1.675-1.851C152.129,15.253,151.939,14.425,151.939,13.553z M153.295,13.574
			c0,1.197,0.322,2.142,0.966,2.83c0.645,0.689,1.452,1.034,2.424,1.034c0.99,0,1.805-0.348,2.444-1.044s0.959-1.684,0.959-2.963
			c0-0.809-0.137-1.516-0.41-2.118c-0.273-0.604-0.673-1.071-1.2-1.404c-0.526-0.332-1.117-0.498-1.772-0.498
			c-0.932,0-1.732,0.32-2.403,0.96C153.63,11.009,153.295,12.078,153.295,13.574z"/>
		<path style="fill:#2C6882;" d="M163.098,18.394V8.455h1.979l2.354,7.038c0.217,0.655,0.375,1.146,0.475,1.471
			c0.112-0.361,0.289-0.893,0.528-1.593l2.38-6.916h1.77v9.939h-1.268v-8.318l-2.889,8.318h-1.187l-2.874-8.461v8.461H163.098z"/>
		<path style="fill:#2C6882;" d="M174.305,13.553c0-1.649,0.443-2.941,1.329-3.875c0.886-0.933,2.029-1.399,3.431-1.399
			c0.917,0,1.744,0.219,2.481,0.657c0.736,0.438,1.298,1.05,1.685,1.834s0.58,1.674,0.58,2.668c0,1.008-0.204,1.91-0.61,2.705
			c-0.407,0.796-0.983,1.397-1.729,1.807c-0.746,0.409-1.551,0.614-2.414,0.614c-0.936,0-1.771-0.227-2.509-0.679
			c-0.736-0.451-1.295-1.068-1.675-1.851C174.495,15.253,174.305,14.425,174.305,13.553z M175.661,13.574
			c0,1.197,0.322,2.142,0.966,2.83c0.645,0.689,1.452,1.034,2.424,1.034c0.99,0,1.805-0.348,2.444-1.044s0.959-1.684,0.959-2.963
			c0-0.809-0.137-1.516-0.41-2.118c-0.273-0.604-0.673-1.071-1.2-1.404c-0.526-0.332-1.117-0.498-1.772-0.498
			c-0.932,0-1.732,0.32-2.403,0.96C175.996,11.009,175.661,12.078,175.661,13.574z"/>
		<path style="fill:#2C6882;" d="M196.455,14.91l1.315,0.332c-0.276,1.08-0.772,1.903-1.488,2.471
			c-0.717,0.567-1.593,0.852-2.627,0.852c-1.071,0-1.942-0.219-2.614-0.654c-0.671-0.437-1.182-1.068-1.532-1.896
			s-0.525-1.715-0.525-2.664c0-1.035,0.198-1.938,0.594-2.709s0.958-1.355,1.688-1.756c0.73-0.4,1.533-0.6,2.41-0.6
			c0.995,0,1.831,0.253,2.509,0.759c0.678,0.507,1.15,1.219,1.417,2.136l-1.295,0.306c-0.23-0.724-0.565-1.25-1.003-1.58
			c-0.438-0.33-0.99-0.495-1.654-0.495c-0.765,0-1.402,0.184-1.916,0.549c-0.513,0.366-0.873,0.858-1.081,1.475
			c-0.208,0.617-0.312,1.254-0.312,1.909c0,0.845,0.123,1.583,0.369,2.214c0.246,0.63,0.629,1.102,1.149,1.413
			c0.52,0.312,1.082,0.468,1.688,0.468c0.737,0,1.361-0.212,1.872-0.637S196.275,15.746,196.455,14.91z"/>
		<path style="fill:#2C6882;" d="M198.99,13.553c0-1.649,0.443-2.941,1.329-3.875c0.886-0.933,2.029-1.399,3.431-1.399
			c0.917,0,1.744,0.219,2.481,0.657c0.736,0.438,1.298,1.05,1.685,1.834s0.58,1.674,0.58,2.668c0,1.008-0.204,1.91-0.61,2.705
			c-0.407,0.796-0.983,1.397-1.729,1.807c-0.746,0.409-1.551,0.614-2.414,0.614c-0.936,0-1.771-0.227-2.509-0.679
			c-0.736-0.451-1.295-1.068-1.675-1.851C199.181,15.253,198.99,14.425,198.99,13.553z M200.347,13.574
			c0,1.197,0.322,2.142,0.966,2.83c0.645,0.689,1.452,1.034,2.424,1.034c0.99,0,1.805-0.348,2.444-1.044s0.959-1.684,0.959-2.963
			c0-0.809-0.137-1.516-0.41-2.118c-0.273-0.604-0.673-1.071-1.2-1.404c-0.526-0.332-1.117-0.498-1.772-0.498
			c-0.932,0-1.732,0.32-2.403,0.96C200.682,11.009,200.347,12.078,200.347,13.574z"/>
		<path style="fill:#2C6882;" d="M210.178,18.394V8.455h1.35l5.22,7.804V8.455h1.262v9.939h-1.35l-5.221-7.811v7.811H210.178z"/>
		<path style="fill:#2C6882;" d="M219.548,15.574l1.187-0.163c0.031,0.76,0.174,1.279,0.427,1.56s0.604,0.421,1.051,0.421
			c0.33,0,0.614-0.076,0.854-0.228c0.239-0.151,0.404-0.357,0.495-0.617c0.09-0.26,0.135-0.675,0.135-1.244V8.455h1.315v6.773
			c0,0.831-0.101,1.476-0.302,1.932c-0.201,0.457-0.52,0.805-0.956,1.045c-0.436,0.239-0.947,0.359-1.535,0.359
			c-0.872,0-1.54-0.251-2.004-0.753C219.752,17.309,219.53,16.564,219.548,15.574z"/>
		<path style="fill:#2C6882;" d="M233.684,8.455h1.314v5.743c0,0.999-0.112,1.792-0.339,2.379c-0.226,0.588-0.634,1.066-1.224,1.435
			s-1.363,0.553-2.322,0.553c-0.931,0-1.692-0.161-2.284-0.481c-0.593-0.321-1.015-0.785-1.268-1.394
			c-0.254-0.607-0.38-1.438-0.38-2.491V8.455h1.315v5.736c0,0.863,0.08,1.499,0.24,1.908s0.437,0.725,0.827,0.945
			c0.391,0.222,0.869,0.333,1.434,0.333c0.968,0,1.657-0.22,2.068-0.658s0.617-1.281,0.617-2.528V8.455z"/>
		<path style="fill:#2C6882;" d="M237.175,18.394V8.455h1.35l5.22,7.804V8.455h1.262v9.939h-1.35l-5.221-7.811v7.811H237.175z"/>
		<path style="fill:#2C6882;" d="M249.744,18.394V9.628h-3.274V8.455h7.878v1.173h-3.288v8.767H249.744z"/>
		<path style="fill:#2C6882;" d="M255.297,13.553c0-1.649,0.443-2.941,1.329-3.875c0.886-0.933,2.029-1.399,3.431-1.399
			c0.917,0,1.744,0.219,2.481,0.657c0.736,0.438,1.298,1.05,1.685,1.834s0.58,1.674,0.58,2.668c0,1.008-0.204,1.91-0.61,2.705
			c-0.407,0.796-0.983,1.397-1.729,1.807c-0.746,0.409-1.551,0.614-2.414,0.614c-0.936,0-1.771-0.227-2.509-0.679
			c-0.736-0.451-1.295-1.068-1.675-1.851C255.488,15.253,255.297,14.425,255.297,13.553z M256.654,13.574
			c0,1.197,0.322,2.142,0.966,2.83c0.645,0.689,1.452,1.034,2.424,1.034c0.99,0,1.805-0.348,2.444-1.044s0.959-1.684,0.959-2.963
			c0-0.809-0.137-1.516-0.41-2.118c-0.273-0.604-0.673-1.071-1.2-1.404c-0.526-0.332-1.117-0.498-1.772-0.498
			c-0.932,0-1.732,0.32-2.403,0.96C256.989,11.009,256.654,12.078,256.654,13.574z"/>
		<path style="fill:#2C6882;" d="M270.356,18.394V8.455h3.424c0.772,0,1.362,0.048,1.77,0.143c0.569,0.131,1.056,0.368,1.458,0.712
			c0.523,0.443,0.916,1.009,1.176,1.698s0.39,1.477,0.39,2.363c0,0.755-0.088,1.424-0.264,2.007
			c-0.177,0.583-0.402,1.065-0.679,1.447c-0.275,0.382-0.577,0.683-0.905,0.901c-0.327,0.22-0.723,0.386-1.187,0.498
			c-0.463,0.113-0.995,0.17-1.596,0.17H270.356z M271.671,17.221h2.122c0.655,0,1.169-0.062,1.542-0.184
			c0.373-0.121,0.67-0.293,0.892-0.515c0.313-0.312,0.555-0.731,0.729-1.258c0.175-0.526,0.262-1.165,0.262-1.915
			c0-1.04-0.171-1.839-0.512-2.396c-0.342-0.559-0.756-0.933-1.244-1.122c-0.353-0.136-0.92-0.204-1.702-0.204h-2.088V17.221z"/>
		<path style="fill:#2C6882;" d="M280.41,18.394V8.455h7.187v1.173h-5.871v3.044h5.498v1.167h-5.498v3.383h6.102v1.173H280.41z"/>
		<path style="fill:#2C6882;" d="M293.501,18.394V8.455h3.749c0.66,0,1.164,0.032,1.512,0.095c0.488,0.082,0.897,0.236,1.228,0.465
			s0.596,0.548,0.797,0.959c0.201,0.412,0.302,0.863,0.302,1.356c0,0.845-0.27,1.561-0.808,2.146
			c-0.537,0.586-1.509,0.878-2.915,0.878h-2.549v4.041H293.501z M294.817,13.18h2.569c0.85,0,1.453-0.158,1.811-0.475
			c0.356-0.316,0.535-0.762,0.535-1.335c0-0.416-0.104-0.772-0.315-1.068c-0.21-0.296-0.486-0.491-0.83-0.586
			c-0.222-0.06-0.631-0.089-1.228-0.089h-2.542V13.18z"/>
		<path style="fill:#2C6882;" d="M302.783,18.394V8.455h4.406c0.886,0,1.56,0.09,2.021,0.268c0.461,0.179,0.83,0.494,1.105,0.946
			s0.413,0.951,0.413,1.498c0,0.705-0.228,1.3-0.685,1.783c-0.456,0.483-1.161,0.791-2.115,0.922
			c0.348,0.168,0.612,0.333,0.793,0.495c0.385,0.353,0.748,0.793,1.092,1.322l1.729,2.705h-1.654l-1.315-2.067
			c-0.385-0.597-0.701-1.054-0.949-1.37c-0.249-0.316-0.472-0.538-0.668-0.664c-0.196-0.127-0.396-0.215-0.601-0.265
			c-0.148-0.031-0.393-0.048-0.731-0.048h-1.525v4.414H302.783z M304.099,12.841h2.827c0.601,0,1.071-0.063,1.41-0.187
			s0.597-0.323,0.772-0.597c0.177-0.273,0.265-0.57,0.265-0.892c0-0.47-0.171-0.856-0.512-1.159
			c-0.342-0.303-0.881-0.454-1.617-0.454h-3.146V12.841z"/>
		<path style="fill:#2C6882;" d="M312.39,13.553c0-1.649,0.443-2.941,1.329-3.875c0.886-0.933,2.029-1.399,3.431-1.399
			c0.917,0,1.744,0.219,2.481,0.657c0.736,0.438,1.298,1.05,1.685,1.834s0.58,1.674,0.58,2.668c0,1.008-0.204,1.91-0.61,2.705
			c-0.407,0.796-0.983,1.397-1.729,1.807c-0.746,0.409-1.551,0.614-2.414,0.614c-0.936,0-1.771-0.227-2.509-0.679
			c-0.736-0.451-1.295-1.068-1.675-1.851C312.58,15.253,312.39,14.425,312.39,13.553z M313.746,13.574
			c0,1.197,0.322,2.142,0.966,2.83c0.645,0.689,1.452,1.034,2.424,1.034c0.99,0,1.805-0.348,2.444-1.044s0.959-1.684,0.959-2.963
			c0-0.809-0.137-1.516-0.41-2.118c-0.273-0.604-0.673-1.071-1.2-1.404c-0.526-0.332-1.117-0.498-1.772-0.498
			c-0.932,0-1.732,0.32-2.403,0.96C314.081,11.009,313.746,12.078,313.746,13.574z"/>
		<path style="fill:#2C6882;" d="M330.682,14.91l1.315,0.332c-0.276,1.08-0.772,1.903-1.488,2.471
			c-0.717,0.567-1.593,0.852-2.627,0.852c-1.071,0-1.942-0.219-2.614-0.654c-0.671-0.437-1.182-1.068-1.532-1.896
			s-0.525-1.715-0.525-2.664c0-1.035,0.198-1.938,0.594-2.709s0.958-1.355,1.688-1.756c0.73-0.4,1.533-0.6,2.41-0.6
			c0.995,0,1.831,0.253,2.509,0.759c0.678,0.507,1.15,1.219,1.417,2.136l-1.295,0.306c-0.23-0.724-0.565-1.25-1.003-1.58
			c-0.438-0.33-0.99-0.495-1.654-0.495c-0.765,0-1.402,0.184-1.916,0.549c-0.513,0.366-0.873,0.858-1.081,1.475
			c-0.208,0.617-0.312,1.254-0.312,1.909c0,0.845,0.123,1.583,0.369,2.214c0.246,0.63,0.629,1.102,1.149,1.413
			c0.52,0.312,1.082,0.468,1.688,0.468c0.737,0,1.361-0.212,1.872-0.637S330.501,15.746,330.682,14.91z"/>
		<path style="fill:#2C6882;" d="M333.645,18.394V8.455h7.187v1.173h-5.871v3.044h5.498v1.167h-5.498v3.383h6.102v1.173H333.645z"/>
		<path style="fill:#2C6882;" d="M342.432,15.201l1.24-0.108c0.059,0.497,0.195,0.905,0.41,1.224s0.548,0.576,1,0.773
			c0.452,0.196,0.961,0.295,1.525,0.295c0.502,0,0.945-0.075,1.329-0.225c0.384-0.148,0.67-0.354,0.857-0.613
			s0.281-0.543,0.281-0.851c0-0.312-0.09-0.584-0.271-0.817c-0.181-0.232-0.479-0.428-0.896-0.586
			c-0.267-0.104-0.856-0.266-1.77-0.485c-0.913-0.219-1.553-0.426-1.918-0.62c-0.475-0.248-0.829-0.557-1.062-0.926
			c-0.232-0.368-0.35-0.78-0.35-1.237c0-0.501,0.143-0.97,0.428-1.406c0.284-0.437,0.7-0.768,1.247-0.993
			c0.547-0.227,1.155-0.339,1.824-0.339c0.736,0,1.387,0.118,1.949,0.355s0.995,0.587,1.298,1.048s0.466,0.982,0.488,1.566
			l-1.261,0.095c-0.068-0.629-0.298-1.104-0.688-1.424c-0.391-0.321-0.968-0.481-1.732-0.481c-0.795,0-1.375,0.146-1.738,0.438
			c-0.364,0.291-0.546,0.643-0.546,1.054c0,0.357,0.129,0.651,0.386,0.882c0.254,0.23,0.915,0.467,1.983,0.708
			c1.069,0.242,1.803,0.453,2.2,0.634c0.578,0.268,1.006,0.604,1.281,1.014s0.414,0.881,0.414,1.414
			c0,0.528-0.151,1.027-0.454,1.495c-0.304,0.468-0.738,0.831-1.306,1.091s-1.206,0.391-1.915,0.391
			c-0.899,0-1.653-0.132-2.262-0.394c-0.607-0.262-1.084-0.656-1.43-1.184C342.632,16.461,342.449,15.865,342.432,15.201z"/>
		<path style="fill:#2C6882;" d="M351.74,13.553c0-1.649,0.443-2.941,1.329-3.875c0.886-0.933,2.029-1.399,3.431-1.399
			c0.917,0,1.744,0.219,2.481,0.657c0.736,0.438,1.298,1.05,1.685,1.834s0.58,1.674,0.58,2.668c0,1.008-0.204,1.91-0.61,2.705
			c-0.407,0.796-0.983,1.397-1.729,1.807c-0.746,0.409-1.551,0.614-2.414,0.614c-0.936,0-1.771-0.227-2.509-0.679
			c-0.736-0.451-1.295-1.068-1.675-1.851C351.93,15.253,351.74,14.425,351.74,13.553z M353.096,13.574
			c0,1.197,0.322,2.142,0.966,2.83c0.645,0.689,1.452,1.034,2.424,1.034c0.99,0,1.805-0.348,2.444-1.044s0.959-1.684,0.959-2.963
			c0-0.809-0.137-1.516-0.41-2.118c-0.273-0.604-0.673-1.071-1.2-1.404c-0.526-0.332-1.117-0.498-1.772-0.498
			c-0.932,0-1.732,0.32-2.403,0.96C353.431,11.009,353.096,12.078,353.096,13.574z"/>
		<path style="fill:#2C6882;" d="M362.493,15.201l1.24-0.108c0.059,0.497,0.195,0.905,0.41,1.224s0.548,0.576,1,0.773
			c0.452,0.196,0.961,0.295,1.525,0.295c0.502,0,0.945-0.075,1.329-0.225c0.384-0.148,0.67-0.354,0.857-0.613
			s0.281-0.543,0.281-0.851c0-0.312-0.09-0.584-0.271-0.817c-0.181-0.232-0.479-0.428-0.896-0.586
			c-0.267-0.104-0.856-0.266-1.77-0.485c-0.913-0.219-1.553-0.426-1.918-0.62c-0.475-0.248-0.829-0.557-1.062-0.926
			c-0.232-0.368-0.35-0.78-0.35-1.237c0-0.501,0.143-0.97,0.428-1.406c0.284-0.437,0.7-0.768,1.247-0.993
			c0.547-0.227,1.155-0.339,1.824-0.339c0.736,0,1.387,0.118,1.949,0.355s0.995,0.587,1.298,1.048s0.466,0.982,0.488,1.566
			l-1.261,0.095c-0.068-0.629-0.298-1.104-0.688-1.424c-0.391-0.321-0.968-0.481-1.732-0.481c-0.795,0-1.375,0.146-1.738,0.438
			c-0.364,0.291-0.546,0.643-0.546,1.054c0,0.357,0.129,0.651,0.386,0.882c0.254,0.23,0.915,0.467,1.983,0.708
			c1.069,0.242,1.803,0.453,2.2,0.634c0.578,0.268,1.006,0.604,1.281,1.014s0.414,0.881,0.414,1.414
			c0,0.528-0.151,1.027-0.454,1.495c-0.304,0.468-0.738,0.831-1.306,1.091s-1.206,0.391-1.915,0.391
			c-0.899,0-1.653-0.132-2.262-0.394c-0.607-0.262-1.084-0.656-1.43-1.184C362.694,16.461,362.511,15.865,362.493,15.201z"/>
	</g>
	
		<rect x="134.75" y="85.511" style="fill:#6FC2D8;stroke:#000000;stroke-width:0.75;stroke-miterlimit:10;" width="192.1" height="37.639"/>
	<g>
		<path style="fill:#2C6882;" d="M204.986,101.217v-8.005h3.02c0.531,0,0.938,0.026,1.218,0.077c0.394,0.065,0.723,0.19,0.988,0.374
			s0.479,0.441,0.642,0.772s0.243,0.695,0.243,1.092c0,0.681-0.217,1.257-0.65,1.729c-0.433,0.471-1.216,0.707-2.348,0.707h-2.053
			v3.254H204.986z M206.045,97.018h2.069c0.685,0,1.17-0.127,1.458-0.382c0.287-0.255,0.432-0.613,0.432-1.075
			c0-0.335-0.085-0.622-0.254-0.86c-0.17-0.238-0.393-0.396-0.669-0.473c-0.179-0.047-0.508-0.07-0.988-0.07h-2.048V97.018z"/>
		<path style="fill:#2C6882;" d="M212.597,101.217v-1.119h1.119v1.119H212.597z"/>
		<path style="fill:#2C6882;" d="M227.476,98.411l1.059,0.268c-0.222,0.87-0.621,1.533-1.198,1.99s-1.282,0.686-2.115,0.686
			c-0.863,0-1.564-0.176-2.105-0.527c-0.54-0.351-0.952-0.859-1.233-1.525c-0.282-0.667-0.424-1.382-0.424-2.146
			c0-0.833,0.159-1.561,0.479-2.181c0.318-0.621,0.771-1.093,1.359-1.414c0.588-0.322,1.234-0.483,1.94-0.483
			c0.801,0,1.475,0.204,2.021,0.611s0.927,0.98,1.142,1.72l-1.043,0.246c-0.186-0.583-0.455-1.007-0.809-1.272
			c-0.353-0.266-0.797-0.398-1.332-0.398c-0.615,0-1.13,0.147-1.543,0.442s-0.703,0.69-0.87,1.188
			c-0.168,0.497-0.251,1.009-0.251,1.537c0,0.681,0.099,1.274,0.297,1.782s0.507,0.888,0.926,1.139
			c0.418,0.251,0.872,0.377,1.359,0.377c0.594,0,1.096-0.171,1.507-0.514C227.051,99.592,227.33,99.085,227.476,98.411z"/>
		<path style="fill:#2C6882;" d="M229.796,101.217v-8.005h1.059v7.061h3.942v0.944H229.796z"/>
		<path style="fill:#2C6882;" d="M235.18,101.217l3.074-8.005h1.142l3.275,8.005h-1.206l-0.935-2.424h-3.347l-0.879,2.424H235.18z
			 M237.49,97.93h2.714l-0.835-2.217c-0.255-0.673-0.444-1.227-0.568-1.659c-0.102,0.513-0.245,1.022-0.432,1.528L237.49,97.93z"/>
		<path style="fill:#2C6882;" d="M245.805,101.217l-3.102-8.005h1.146l2.081,5.815c0.167,0.466,0.308,0.902,0.42,1.311
			c0.124-0.437,0.268-0.874,0.432-1.311l2.162-5.815h1.081l-3.134,8.005H245.805z"/>
		<path style="fill:#2C6882;" d="M250.998,101.217v-8.005h5.787v0.945h-4.729v2.451h4.429v0.939h-4.429v2.725h4.914v0.944H250.998z"
			/>
	</g>
	<g>
		<path style="fill:#2C6882;" d="M140.821,118.757c-0.542-0.685-1.001-1.485-1.376-2.402c-0.375-0.918-0.563-1.867-0.563-2.851
			c0-0.866,0.141-1.696,0.421-2.489c0.327-0.921,0.833-1.839,1.518-2.752h0.704c-0.44,0.757-0.731,1.298-0.873,1.621
			c-0.223,0.503-0.397,1.026-0.524,1.572c-0.156,0.682-0.234,1.365-0.234,2.054c0,1.751,0.544,3.5,1.632,5.247H140.821z"/>
		<path style="fill:#2C6882;" d="M141.912,116.404l3.074-8.005h1.142l3.275,8.005h-1.206l-0.935-2.424h-3.347l-0.879,2.424H141.912z
			 M144.222,113.117h2.714l-0.835-2.217c-0.255-0.673-0.444-1.227-0.568-1.659c-0.102,0.513-0.245,1.022-0.432,1.528
			L144.222,113.117z"/>
		<path style="fill:#2C6882;" d="M152.286,116.404v-7.06h-2.638v-0.945h6.345v0.945h-2.647v7.06H152.286z"/>
		<path style="fill:#2C6882;" d="M157.103,116.404v-8.005h5.787v0.945h-4.729v2.451h4.429v0.939h-4.429v2.725h4.914v0.944H157.103z"
			/>
		<path style="fill:#2C6882;" d="M164.528,116.404v-8.005h1.087l4.204,6.285v-6.285h1.016v8.005h-1.087l-4.204-6.29v6.29H164.528z"
			/>
		<path style="fill:#2C6882;" d="M178.325,113.597l1.059,0.268c-0.222,0.87-0.621,1.533-1.198,1.99s-1.282,0.686-2.115,0.686
			c-0.863,0-1.564-0.176-2.105-0.527c-0.54-0.351-0.952-0.859-1.233-1.525c-0.282-0.667-0.424-1.382-0.424-2.146
			c0-0.833,0.159-1.561,0.479-2.181c0.318-0.621,0.771-1.093,1.359-1.414c0.588-0.322,1.234-0.483,1.94-0.483
			c0.801,0,1.475,0.204,2.021,0.611s0.927,0.98,1.142,1.72l-1.043,0.246c-0.186-0.583-0.455-1.007-0.809-1.272
			c-0.353-0.266-0.797-0.398-1.332-0.398c-0.615,0-1.13,0.147-1.543,0.442s-0.703,0.69-0.87,1.188
			c-0.168,0.497-0.251,1.009-0.251,1.537c0,0.681,0.099,1.274,0.297,1.782s0.507,0.888,0.926,1.139
			c0.418,0.251,0.872,0.377,1.359,0.377c0.594,0,1.096-0.171,1.507-0.514C177.901,114.779,178.18,114.271,178.325,113.597z"/>
		<path style="fill:#2C6882;" d="M180.87,116.404v-8.005h1.06v8.005H180.87z"/>
		<path style="fill:#2C6882;" d="M183.475,112.506c0-1.328,0.356-2.369,1.069-3.12c0.714-0.752,1.635-1.128,2.763-1.128
			c0.739,0,1.405,0.177,1.999,0.529c0.593,0.354,1.045,0.846,1.356,1.478s0.467,1.348,0.467,2.148c0,0.812-0.164,1.538-0.491,2.179
			s-0.792,1.125-1.393,1.455c-0.601,0.329-1.248,0.494-1.943,0.494c-0.754,0-1.427-0.183-2.021-0.546
			c-0.593-0.364-1.043-0.861-1.349-1.491C183.627,113.875,183.475,113.208,183.475,112.506z M184.567,112.522
			c0,0.965,0.259,1.725,0.777,2.279c0.52,0.555,1.17,0.833,1.952,0.833c0.798,0,1.453-0.28,1.969-0.841
			c0.515-0.561,0.772-1.356,0.772-2.387c0-0.651-0.11-1.22-0.33-1.706c-0.221-0.485-0.543-0.862-0.967-1.13s-0.9-0.401-1.428-0.401
			c-0.75,0-1.395,0.258-1.936,0.772S184.567,111.317,184.567,112.522z M186.63,107.908l0.727-1.528h1.288l-1.201,1.528H186.63z"/>
		<path style="fill:#2C6882;" d="M192.484,116.404v-8.005h1.087l4.204,6.285v-6.285h1.016v8.005h-1.087l-4.204-6.29v6.29H192.484z"
			/>
		<path style="fill:#2C6882;" d="M203.676,116.404v-8.005h2.758c0.622,0,1.098,0.039,1.425,0.115
			c0.459,0.105,0.85,0.297,1.174,0.573c0.423,0.356,0.738,0.813,0.947,1.368c0.21,0.555,0.314,1.189,0.314,1.902
			c0,0.608-0.071,1.146-0.213,1.616c-0.143,0.47-0.324,0.858-0.546,1.166c-0.223,0.308-0.466,0.55-0.729,0.726
			c-0.264,0.177-0.582,0.311-0.955,0.401s-0.802,0.137-1.286,0.137H203.676z M204.736,115.46h1.709c0.527,0,0.942-0.05,1.242-0.147
			c0.301-0.099,0.54-0.236,0.718-0.415c0.251-0.251,0.447-0.589,0.587-1.013c0.141-0.424,0.211-0.938,0.211-1.543
			c0-0.837-0.138-1.48-0.413-1.93c-0.274-0.449-0.608-0.751-1.002-0.904c-0.283-0.108-0.74-0.163-1.37-0.163h-1.682V115.46z"/>
		<path style="fill:#2C6882;" d="M211.932,116.404v-8.005h1.06v8.005H211.932z"/>
		<path style="fill:#2C6882;" d="M214.874,116.404v-8.005h3.549c0.714,0,1.256,0.072,1.627,0.216
			c0.372,0.145,0.668,0.398,0.891,0.762c0.222,0.364,0.333,0.767,0.333,1.207c0,0.567-0.184,1.047-0.552,1.436
			c-0.367,0.39-0.936,0.638-1.703,0.743c0.28,0.135,0.493,0.268,0.639,0.398c0.31,0.284,0.603,0.639,0.879,1.064l1.393,2.179h-1.332
			l-1.06-1.665c-0.31-0.48-0.564-0.849-0.765-1.104s-0.379-0.433-0.538-0.535c-0.158-0.102-0.319-0.173-0.482-0.213
			c-0.12-0.025-0.317-0.038-0.59-0.038h-1.229v3.555H214.874z M215.934,111.932h2.276c0.484,0,0.863-0.05,1.136-0.15
			c0.273-0.1,0.48-0.26,0.623-0.48c0.142-0.22,0.213-0.459,0.213-0.718c0-0.379-0.138-0.689-0.412-0.934
			c-0.275-0.244-0.709-0.366-1.303-0.366h-2.533V111.932z"/>
		<path style="fill:#2C6882;" d="M222.956,116.404v-8.005h5.787v0.945h-4.729v2.451h4.429v0.939h-4.429v2.725h4.914v0.944H222.956z"
			/>
		<path style="fill:#2C6882;" d="M236.104,113.597l1.059,0.268c-0.222,0.87-0.621,1.533-1.198,1.99s-1.282,0.686-2.115,0.686
			c-0.863,0-1.564-0.176-2.105-0.527c-0.54-0.351-0.952-0.859-1.233-1.525c-0.282-0.667-0.424-1.382-0.424-2.146
			c0-0.833,0.159-1.561,0.479-2.181c0.318-0.621,0.771-1.093,1.359-1.414c0.588-0.322,1.234-0.483,1.94-0.483
			c0.801,0,1.475,0.204,2.021,0.611s0.927,0.98,1.142,1.72l-1.043,0.246c-0.186-0.583-0.455-1.007-0.809-1.272
			c-0.353-0.266-0.797-0.398-1.332-0.398c-0.615,0-1.13,0.147-1.543,0.442s-0.703,0.69-0.87,1.188
			c-0.168,0.497-0.251,1.009-0.251,1.537c0,0.681,0.099,1.274,0.297,1.782s0.507,0.888,0.926,1.139
			c0.418,0.251,0.872,0.377,1.359,0.377c0.594,0,1.096-0.171,1.507-0.514C235.679,114.779,235.958,114.271,236.104,113.597z"/>
		<path style="fill:#2C6882;" d="M240.504,116.404v-7.06h-2.638v-0.945h6.345v0.945h-2.647v7.06H240.504z"/>
		<path style="fill:#2C6882;" d="M244.419,116.404l3.074-8.005h1.142l3.275,8.005h-1.206l-0.935-2.424h-3.347l-0.879,2.424H244.419z
			 M246.729,113.117h2.714l-0.835-2.217c-0.255-0.673-0.444-1.227-0.568-1.659c-0.102,0.513-0.245,1.022-0.432,1.528
			L246.729,113.117z"/>
		<path style="fill:#2C6882;" d="M254.984,116.404l3.074-8.005h1.142l3.275,8.005h-1.206l-0.935-2.424h-3.347l-0.879,2.424H254.984z
			 M257.293,113.117h2.714l-0.835-2.217c-0.255-0.673-0.444-1.227-0.568-1.659c-0.102,0.513-0.245,1.022-0.432,1.528
			L257.293,113.117z"/>
		<path style="fill:#2C6882;" d="M263.279,116.404v-8.005h1.059v7.061h3.942v0.944H263.279z"/>
		<path style="fill:#2C6882;" d="M278.359,113.597l1.059,0.268c-0.222,0.87-0.621,1.533-1.198,1.99s-1.282,0.686-2.115,0.686
			c-0.863,0-1.564-0.176-2.105-0.527c-0.54-0.351-0.952-0.859-1.233-1.525c-0.282-0.667-0.424-1.382-0.424-2.146
			c0-0.833,0.159-1.561,0.479-2.181c0.318-0.621,0.771-1.093,1.359-1.414c0.588-0.322,1.234-0.483,1.94-0.483
			c0.801,0,1.475,0.204,2.021,0.611s0.927,0.98,1.142,1.72l-1.043,0.246c-0.186-0.583-0.455-1.007-0.809-1.272
			c-0.353-0.266-0.797-0.398-1.332-0.398c-0.615,0-1.13,0.147-1.543,0.442s-0.703,0.69-0.87,1.188
			c-0.168,0.497-0.251,1.009-0.251,1.537c0,0.681,0.099,1.274,0.297,1.782s0.507,0.888,0.926,1.139
			c0.418,0.251,0.872,0.377,1.359,0.377c0.594,0,1.096-0.171,1.507-0.514C277.934,114.779,278.213,114.271,278.359,113.597z"/>
		<path style="fill:#2C6882;" d="M280.679,116.404v-8.005h1.059v7.061h3.942v0.944H280.679z"/>
		<path style="fill:#2C6882;" d="M287.122,116.404v-8.005h1.06v8.005H287.122z"/>
		<path style="fill:#2C6882;" d="M290.071,116.404v-8.005h5.787v0.945h-4.729v2.451h4.429v0.939h-4.429v2.725h4.914v0.944H290.071z"
			/>
		<path style="fill:#2C6882;" d="M297.495,116.404v-8.005h1.087l4.204,6.285v-6.285h1.016v8.005h-1.087l-4.204-6.29v6.29H297.495z"
			/>
		<path style="fill:#2C6882;" d="M307.619,116.404v-7.06h-2.638v-0.945h6.345v0.945h-2.647v7.06H307.619z"/>
		<path style="fill:#2C6882;" d="M312.435,116.404v-8.005h5.787v0.945h-4.729v2.451h4.429v0.939h-4.429v2.725h4.914v0.944H312.435z"
			/>
		<path style="fill:#2C6882;" d="M320.39,118.757h-0.705c1.089-1.747,1.633-3.496,1.633-5.247c0-0.685-0.078-1.363-0.234-2.037
			c-0.124-0.546-0.297-1.07-0.52-1.572c-0.142-0.327-0.435-0.874-0.879-1.638h0.705c0.684,0.913,1.189,1.831,1.518,2.752
			c0.28,0.793,0.42,1.623,0.42,2.489c0,0.983-0.188,1.933-0.564,2.851C321.386,117.272,320.928,118.073,320.39,118.757z"/>
	</g>
	<g>
		<path style="fill:#2C6882;" d="M161.362,49.073v-8.005h3.02c0.531,0,0.938,0.026,1.218,0.077c0.394,0.065,0.723,0.19,0.988,0.374
			s0.479,0.441,0.642,0.772s0.243,0.695,0.243,1.092c0,0.681-0.217,1.257-0.65,1.729c-0.433,0.471-1.216,0.707-2.348,0.707h-2.053
			v3.254H161.362z M162.421,44.874h2.069c0.685,0,1.17-0.127,1.458-0.382c0.287-0.255,0.432-0.613,0.432-1.075
			c0-0.335-0.085-0.622-0.254-0.86c-0.17-0.238-0.393-0.396-0.669-0.473c-0.179-0.047-0.508-0.07-0.988-0.07h-2.048V44.874z"/>
		<path style="fill:#2C6882;" d="M168.973,49.073v-1.119h1.119v1.119H168.973z"/>
		<path style="fill:#2C6882;" d="M178.162,49.073v-8.005h5.787v0.945h-4.729v2.451h4.429v0.939h-4.429v2.725h4.914v0.944H178.162z"
			/>
		<path style="fill:#2C6882;" d="M185.239,46.502l1-0.088c0.047,0.4,0.157,0.729,0.33,0.985c0.173,0.257,0.441,0.465,0.805,0.623
			c0.364,0.158,0.773,0.237,1.229,0.237c0.404,0,0.761-0.061,1.07-0.181s0.54-0.284,0.691-0.494c0.15-0.209,0.227-0.438,0.227-0.685
			c0-0.251-0.073-0.471-0.219-0.658s-0.386-0.345-0.721-0.473c-0.215-0.083-0.689-0.214-1.425-0.39
			c-0.735-0.177-1.251-0.344-1.546-0.5c-0.382-0.2-0.667-0.448-0.854-0.745s-0.281-0.629-0.281-0.996
			c0-0.404,0.115-0.782,0.345-1.134c0.229-0.351,0.563-0.617,1.004-0.8c0.44-0.182,0.931-0.272,1.469-0.272
			c0.594,0,1.117,0.096,1.57,0.286c0.453,0.191,0.802,0.473,1.046,0.844c0.243,0.371,0.374,0.792,0.393,1.262l-1.016,0.076
			c-0.055-0.506-0.239-0.889-0.554-1.146c-0.315-0.259-0.78-0.388-1.396-0.388c-0.641,0-1.107,0.117-1.4,0.352
			c-0.293,0.235-0.439,0.519-0.439,0.85c0,0.287,0.104,0.524,0.312,0.71c0.203,0.186,0.736,0.376,1.597,0.57
			c0.861,0.194,1.451,0.365,1.771,0.511c0.466,0.215,0.811,0.486,1.032,0.816c0.222,0.329,0.333,0.709,0.333,1.138
			c0,0.426-0.122,0.827-0.365,1.204c-0.244,0.377-0.595,0.67-1.052,0.879c-0.457,0.21-0.971,0.314-1.542,0.314
			c-0.725,0-1.332-0.105-1.821-0.317c-0.489-0.211-0.873-0.528-1.152-0.952C185.4,47.516,185.253,47.037,185.239,46.502z"/>
		<path style="fill:#2C6882;" d="M195.094,49.073v-7.06h-2.638v-0.945h6.345v0.945h-2.647v7.06H195.094z"/>
		<path style="fill:#2C6882;" d="M199.905,49.073v-8.005h3.549c0.714,0,1.256,0.072,1.627,0.216
			c0.372,0.145,0.668,0.398,0.891,0.762c0.222,0.364,0.333,0.767,0.333,1.207c0,0.567-0.184,1.047-0.552,1.436
			c-0.367,0.39-0.936,0.638-1.703,0.743c0.28,0.135,0.493,0.268,0.639,0.398c0.31,0.284,0.603,0.639,0.879,1.064l1.393,2.179h-1.332
			l-1.06-1.665c-0.31-0.48-0.564-0.849-0.765-1.104s-0.379-0.433-0.538-0.535c-0.158-0.102-0.319-0.173-0.482-0.213
			c-0.12-0.025-0.317-0.038-0.59-0.038h-1.229v3.555H199.905z M200.964,44.601h2.276c0.484,0,0.863-0.05,1.136-0.15
			c0.273-0.1,0.48-0.26,0.623-0.48c0.142-0.22,0.213-0.459,0.213-0.718c0-0.379-0.138-0.689-0.412-0.934
			c-0.275-0.244-0.709-0.366-1.303-0.366h-2.533V44.601z"/>
		<path style="fill:#2C6882;" d="M207.084,49.073l3.074-8.005h1.142l3.275,8.005h-1.206l-0.935-2.424h-3.347l-0.879,2.424H207.084z
			 M209.394,45.786h2.714l-0.835-2.217c-0.255-0.673-0.444-1.227-0.568-1.659c-0.102,0.513-0.245,1.022-0.432,1.528L209.394,45.786z
			"/>
		<path style="fill:#2C6882;" d="M217.458,49.073v-7.06h-2.638v-0.945h6.345v0.945h-2.647v7.06H217.458z"/>
		<path style="fill:#2C6882;" d="M222.275,49.073v-8.005h5.787v0.945h-4.729v2.451h4.429v0.939h-4.429v2.725h4.914v0.944H222.275z
			 M224.458,40.577l0.727-1.528h1.288l-1.201,1.528H224.458z"/>
		<path style="fill:#2C6882;" d="M233.456,45.933v-0.939l3.391-0.005v2.97c-0.521,0.415-1.058,0.728-1.61,0.937
			c-0.554,0.21-1.122,0.314-1.704,0.314c-0.786,0-1.501-0.169-2.143-0.505c-0.643-0.337-1.128-0.824-1.455-1.461
			c-0.328-0.637-0.492-1.349-0.492-2.135c0-0.779,0.163-1.506,0.489-2.182c0.325-0.675,0.794-1.177,1.406-1.504
			c0.611-0.328,1.315-0.491,2.112-0.491c0.579,0,1.103,0.094,1.57,0.281s0.834,0.448,1.1,0.783s0.468,0.771,0.606,1.311
			l-0.956,0.262c-0.12-0.407-0.269-0.728-0.447-0.961c-0.179-0.232-0.434-0.419-0.765-0.56c-0.331-0.14-0.698-0.21-1.103-0.21
			c-0.484,0-0.903,0.073-1.256,0.221c-0.354,0.147-0.638,0.342-0.854,0.582s-0.385,0.504-0.505,0.791
			c-0.204,0.495-0.306,1.032-0.306,1.611c0,0.713,0.122,1.311,0.368,1.791s0.604,0.837,1.073,1.07
			c0.47,0.232,0.968,0.349,1.496,0.349c0.458,0,0.906-0.088,1.343-0.265s0.768-0.364,0.994-0.565v-1.49H233.456z"/>
		<path style="fill:#2C6882;" d="M238.588,49.073v-8.005h1.06v8.005H238.588z"/>
		<path style="fill:#2C6882;" d="M247.227,46.266l1.059,0.268c-0.222,0.87-0.621,1.533-1.198,1.99s-1.282,0.686-2.115,0.686
			c-0.863,0-1.564-0.176-2.105-0.527c-0.54-0.351-0.952-0.859-1.233-1.525c-0.282-0.667-0.424-1.382-0.424-2.146
			c0-0.833,0.159-1.561,0.479-2.181c0.318-0.621,0.771-1.093,1.359-1.414c0.588-0.322,1.234-0.483,1.94-0.483
			c0.801,0,1.475,0.204,2.021,0.611s0.927,0.98,1.142,1.72l-1.043,0.246c-0.186-0.583-0.455-1.007-0.809-1.272
			c-0.353-0.266-0.797-0.398-1.332-0.398c-0.615,0-1.13,0.147-1.543,0.442s-0.703,0.69-0.87,1.188
			c-0.168,0.497-0.251,1.009-0.251,1.537c0,0.681,0.099,1.274,0.297,1.782s0.507,0.888,0.926,1.139
			c0.418,0.251,0.872,0.377,1.359,0.377c0.594,0,1.096-0.171,1.507-0.514C246.802,47.448,247.081,46.94,247.227,46.266z"/>
		<path style="fill:#2C6882;" d="M249.269,45.174c0-1.328,0.356-2.369,1.069-3.12c0.714-0.752,1.635-1.128,2.763-1.128
			c0.739,0,1.405,0.177,1.999,0.529c0.593,0.354,1.045,0.846,1.356,1.478s0.467,1.348,0.467,2.148c0,0.812-0.164,1.538-0.491,2.179
			s-0.792,1.125-1.393,1.455c-0.601,0.329-1.248,0.494-1.943,0.494c-0.754,0-1.427-0.183-2.021-0.546
			c-0.593-0.364-1.043-0.861-1.349-1.491C249.421,46.544,249.269,45.877,249.269,45.174z M250.361,45.191
			c0,0.965,0.259,1.725,0.777,2.279c0.52,0.555,1.17,0.833,1.952,0.833c0.798,0,1.453-0.28,1.969-0.841
			c0.515-0.561,0.772-1.356,0.772-2.387c0-0.651-0.11-1.22-0.33-1.706c-0.221-0.485-0.543-0.862-0.967-1.13s-0.9-0.401-1.428-0.401
			c-0.75,0-1.395,0.258-1.936,0.772S250.361,43.986,250.361,45.191z"/>
		<path style="fill:#2C6882;" d="M257.928,46.502l1-0.088c0.047,0.4,0.157,0.729,0.33,0.985c0.173,0.257,0.441,0.465,0.805,0.623
			c0.364,0.158,0.773,0.237,1.229,0.237c0.404,0,0.761-0.061,1.07-0.181s0.54-0.284,0.691-0.494c0.15-0.209,0.227-0.438,0.227-0.685
			c0-0.251-0.073-0.471-0.219-0.658s-0.386-0.345-0.721-0.473c-0.215-0.083-0.689-0.214-1.425-0.39
			c-0.735-0.177-1.251-0.344-1.546-0.5c-0.382-0.2-0.667-0.448-0.854-0.745s-0.281-0.629-0.281-0.996
			c0-0.404,0.115-0.782,0.345-1.134c0.229-0.351,0.563-0.617,1.004-0.8c0.44-0.182,0.931-0.272,1.469-0.272
			c0.594,0,1.117,0.096,1.57,0.286c0.453,0.191,0.802,0.473,1.046,0.844c0.243,0.371,0.374,0.792,0.393,1.262l-1.016,0.076
			c-0.055-0.506-0.239-0.889-0.554-1.146c-0.315-0.259-0.78-0.388-1.396-0.388c-0.641,0-1.107,0.117-1.4,0.352
			c-0.293,0.235-0.439,0.519-0.439,0.85c0,0.287,0.104,0.524,0.312,0.71c0.203,0.186,0.736,0.376,1.597,0.57
			c0.861,0.194,1.451,0.365,1.771,0.511c0.466,0.215,0.811,0.486,1.032,0.816c0.222,0.329,0.333,0.709,0.333,1.138
			c0,0.426-0.122,0.827-0.365,1.204c-0.244,0.377-0.595,0.67-1.052,0.879c-0.457,0.21-0.971,0.314-1.542,0.314
			c-0.725,0-1.332-0.105-1.821-0.317c-0.489-0.211-0.873-0.528-1.152-0.952C258.089,47.516,257.943,47.037,257.928,46.502z"/>
	</g>
	<g>
		<path style="fill:#2C6882;" d="M168.474,66.612c-0.542-0.685-1.001-1.485-1.376-2.402c-0.375-0.918-0.563-1.867-0.563-2.851
			c0-0.866,0.141-1.696,0.421-2.489c0.327-0.921,0.833-1.839,1.518-2.752h0.704c-0.44,0.757-0.731,1.298-0.873,1.621
			c-0.223,0.503-0.397,1.026-0.524,1.572c-0.156,0.682-0.234,1.365-0.234,2.054c0,1.751,0.544,3.5,1.632,5.247H168.474z"/>
		<path style="fill:#2C6882;" d="M170.445,64.258v-8.005h3.02c0.531,0,0.938,0.026,1.218,0.077c0.394,0.065,0.723,0.19,0.988,0.374
			s0.479,0.441,0.642,0.772s0.243,0.695,0.243,1.092c0,0.681-0.217,1.257-0.65,1.729c-0.433,0.471-1.216,0.707-2.348,0.707h-2.053
			v3.254H170.445z M171.504,60.059h2.069c0.685,0,1.17-0.127,1.458-0.382c0.287-0.255,0.432-0.613,0.432-1.075
			c0-0.335-0.085-0.622-0.254-0.86c-0.17-0.238-0.393-0.396-0.669-0.473c-0.179-0.047-0.508-0.07-0.988-0.07h-2.048V60.059z"/>
		<path style="fill:#2C6882;" d="M177.86,64.258v-8.005h1.059v7.061h3.942v0.944H177.86z"/>
		<path style="fill:#2C6882;" d="M183.243,64.258l3.074-8.005h1.142l3.275,8.005h-1.206l-0.935-2.424h-3.347l-0.879,2.424H183.243z
			 M185.553,60.971h2.714l-0.835-2.217c-0.255-0.673-0.444-1.227-0.568-1.659c-0.102,0.513-0.245,1.022-0.432,1.528L185.553,60.971z
			"/>
		<path style="fill:#2C6882;" d="M191.57,64.258v-8.005h1.087l4.204,6.285v-6.285h1.016v8.005h-1.087l-4.204-6.29v6.29H191.57z"/>
		<path style="fill:#2C6882;" d="M199.836,64.258v-8.005h1.06v8.005H199.836z"/>
		<path style="fill:#2C6882;" d="M202.818,64.258v-8.005h5.4v0.945h-4.341v2.479h3.757v0.944h-3.757v3.637H202.818z"/>
		<path style="fill:#2C6882;" d="M209.774,64.258v-8.005h1.06v8.005H209.774z"/>
		<path style="fill:#2C6882;" d="M218.411,61.452l1.059,0.268c-0.222,0.87-0.621,1.533-1.198,1.99
			c-0.577,0.457-1.282,0.686-2.115,0.686c-0.863,0-1.564-0.176-2.105-0.527c-0.54-0.351-0.952-0.859-1.233-1.525
			c-0.282-0.667-0.424-1.382-0.424-2.146c0-0.833,0.159-1.561,0.479-2.181c0.318-0.621,0.771-1.093,1.359-1.414
			c0.588-0.322,1.234-0.483,1.94-0.483c0.801,0,1.475,0.204,2.021,0.611s0.927,0.98,1.142,1.72l-1.043,0.246
			c-0.186-0.583-0.455-1.007-0.809-1.272c-0.353-0.266-0.797-0.398-1.332-0.398c-0.615,0-1.13,0.147-1.543,0.442
			s-0.703,0.69-0.87,1.188c-0.168,0.497-0.251,1.009-0.251,1.537c0,0.681,0.099,1.274,0.297,1.782s0.507,0.888,0.926,1.139
			c0.418,0.251,0.872,0.377,1.359,0.377c0.594,0,1.096-0.171,1.507-0.514C217.987,62.633,218.266,62.126,218.411,61.452z"/>
		<path style="fill:#2C6882;" d="M219.896,64.258l3.074-8.005h1.142l3.275,8.005h-1.206l-0.935-2.424H221.9l-0.879,2.424H219.896z
			 M222.205,60.971h2.714l-0.835-2.217c-0.255-0.673-0.444-1.227-0.568-1.659c-0.102,0.513-0.245,1.022-0.432,1.528L222.205,60.971z
			"/>
		<path style="fill:#2C6882;" d="M233.946,61.452l1.059,0.268c-0.222,0.87-0.621,1.533-1.198,1.99
			c-0.577,0.457-1.282,0.686-2.115,0.686c-0.863,0-1.564-0.176-2.105-0.527c-0.54-0.351-0.952-0.859-1.233-1.525
			c-0.282-0.667-0.424-1.382-0.424-2.146c0-0.833,0.159-1.561,0.479-2.181c0.318-0.621,0.771-1.093,1.359-1.414
			c0.588-0.322,1.234-0.483,1.94-0.483c0.801,0,1.475,0.204,2.021,0.611s0.927,0.98,1.142,1.72l-1.043,0.246
			c-0.186-0.583-0.455-1.007-0.809-1.272c-0.353-0.266-0.797-0.398-1.332-0.398c-0.615,0-1.13,0.147-1.543,0.442
			s-0.703,0.69-0.87,1.188c-0.168,0.497-0.251,1.009-0.251,1.537c0,0.681,0.099,1.274,0.297,1.782s0.507,0.888,0.926,1.139
			c0.418,0.251,0.872,0.377,1.359,0.377c0.594,0,1.096-0.171,1.507-0.514C233.521,62.633,233.8,62.126,233.946,61.452z"/>
		<path style="fill:#2C6882;" d="M236.49,64.258v-8.005h1.06v8.005H236.49z"/>
		<path style="fill:#2C6882;" d="M239.094,60.36c0-1.328,0.356-2.369,1.069-3.12c0.714-0.752,1.635-1.128,2.763-1.128
			c0.739,0,1.405,0.177,1.999,0.529c0.593,0.354,1.045,0.846,1.356,1.478s0.467,1.348,0.467,2.148c0,0.812-0.164,1.538-0.491,2.179
			s-0.792,1.125-1.393,1.455c-0.601,0.329-1.248,0.494-1.943,0.494c-0.754,0-1.427-0.183-2.021-0.546
			c-0.593-0.364-1.043-0.861-1.349-1.491C239.246,61.729,239.094,61.062,239.094,60.36z M240.186,60.377
			c0,0.965,0.259,1.725,0.777,2.279c0.52,0.555,1.17,0.833,1.952,0.833c0.798,0,1.453-0.28,1.969-0.841
			c0.515-0.561,0.772-1.356,0.772-2.387c0-0.651-0.11-1.22-0.33-1.706c-0.221-0.485-0.543-0.862-0.967-1.13s-0.9-0.401-1.428-0.401
			c-0.75,0-1.395,0.258-1.936,0.772S240.186,59.172,240.186,60.377z M242.249,55.762l0.727-1.528h1.288l-1.201,1.528H242.249z"/>
		<path style="fill:#2C6882;" d="M248.103,64.258v-8.005h1.087l4.204,6.285v-6.285h1.016v8.005h-1.087l-4.204-6.29v6.29H248.103z"/>
		<path style="fill:#2C6882;" d="M256.708,66.612h-0.705c1.089-1.747,1.633-3.496,1.633-5.247c0-0.685-0.078-1.363-0.234-2.037
			c-0.124-0.546-0.297-1.07-0.52-1.572c-0.142-0.327-0.435-0.874-0.879-1.638h0.705c0.684,0.913,1.189,1.831,1.518,2.752
			c0.28,0.793,0.42,1.623,0.42,2.489c0,0.983-0.188,1.933-0.564,2.851C257.704,65.127,257.246,65.927,256.708,66.612z"/>
	</g>
	
		<rect x="134.75" y="137.26" style="fill:#6FC2D8;stroke:#000000;stroke-width:0.75;stroke-miterlimit:10;" width="192.1" height="37.349"/>
	<g>
		<path style="fill:#2C6882;" d="M10.39,112.409v-1.038h3.171v1.038H10.39z"/>
		<path style="fill:#2C6882;" d="M20.83,111.984l1.112,0.281c-0.232,0.913-0.652,1.61-1.258,2.09
			c-0.606,0.479-1.347,0.72-2.223,0.72c-0.905,0-1.643-0.185-2.21-0.554s-1-0.903-1.296-1.603s-0.444-1.45-0.444-2.253
			c0-0.876,0.167-1.64,0.502-2.291c0.334-0.651,0.81-1.146,1.428-1.485c0.617-0.338,1.297-0.507,2.038-0.507
			c0.841,0,1.548,0.214,2.121,0.642c0.574,0.429,0.974,1.03,1.199,1.807l-1.096,0.258c-0.194-0.611-0.478-1.057-0.849-1.336
			s-0.837-0.419-1.398-0.419c-0.646,0-1.187,0.155-1.62,0.465c-0.435,0.31-0.739,0.726-0.915,1.247s-0.264,1.06-0.264,1.614
			c0,0.715,0.104,1.339,0.313,1.872c0.209,0.533,0.532,0.932,0.972,1.195c0.44,0.264,0.916,0.396,1.428,0.396
			c0.623,0,1.151-0.18,1.583-0.539S20.678,112.691,20.83,111.984z"/>
		<path style="fill:#2C6882;" d="M23.158,114.931v-8.406h1.032v8.406H23.158z"/>
		<path style="fill:#2C6882;" d="M25.797,107.713v-1.188h1.031v1.188H25.797z M25.797,114.931v-6.09h1.031v6.09H25.797z"/>
		<path style="fill:#2C6882;" d="M32.568,112.97l1.066,0.132c-0.168,0.623-0.479,1.106-0.935,1.45
			c-0.455,0.345-1.036,0.517-1.743,0.517c-0.891,0-1.597-0.274-2.118-0.823c-0.521-0.548-0.783-1.317-0.783-2.308
			c0-1.024,0.264-1.819,0.792-2.386c0.527-0.565,1.211-0.848,2.053-0.848c0.813,0,1.479,0.276,1.995,0.831
			c0.516,0.554,0.774,1.334,0.774,2.339c0,0.062-0.002,0.153-0.006,0.275h-4.542c0.039,0.669,0.228,1.182,0.568,1.537
			c0.34,0.355,0.765,0.533,1.272,0.533c0.379,0,0.701-0.1,0.97-0.298C32.199,113.723,32.411,113.406,32.568,112.97z M29.179,111.301
			h3.4c-0.046-0.512-0.176-0.896-0.39-1.152c-0.329-0.397-0.755-0.597-1.279-0.597c-0.474,0-0.872,0.159-1.195,0.477
			S29.213,110.77,29.179,111.301z"/>
		<path style="fill:#2C6882;" d="M34.931,114.931v-6.09h0.929v0.866c0.447-0.669,1.093-1.003,1.938-1.003
			c0.367,0,0.705,0.065,1.013,0.197s0.538,0.305,0.69,0.519c0.153,0.215,0.26,0.469,0.321,0.763
			c0.038,0.191,0.058,0.526,0.058,1.004v3.744h-1.032v-3.704c0-0.421-0.04-0.734-0.12-0.943c-0.081-0.208-0.223-0.374-0.428-0.499
			c-0.204-0.124-0.444-0.187-0.72-0.187c-0.439,0-0.818,0.14-1.138,0.419s-0.479,0.809-0.479,1.589v3.325H34.931z"/>
		<path style="fill:#2C6882;" d="M43.715,114.008l0.149,0.911c-0.291,0.062-0.551,0.092-0.78,0.092c-0.374,0-0.665-0.06-0.871-0.178
			c-0.207-0.118-0.352-0.274-0.436-0.467c-0.085-0.193-0.127-0.6-0.127-1.219v-3.504h-0.757v-0.803h0.757v-1.508l1.026-0.619v2.127
			h1.038v0.803h-1.038v3.562c0,0.294,0.019,0.483,0.055,0.567s0.096,0.151,0.178,0.2c0.082,0.05,0.2,0.075,0.353,0.075
			C43.377,114.049,43.528,114.035,43.715,114.008z"/>
		<path style="fill:#2C6882;" d="M48.893,112.97l1.066,0.132c-0.168,0.623-0.479,1.106-0.935,1.45
			c-0.455,0.345-1.036,0.517-1.743,0.517c-0.891,0-1.597-0.274-2.118-0.823c-0.521-0.548-0.783-1.317-0.783-2.308
			c0-1.024,0.264-1.819,0.792-2.386c0.527-0.565,1.211-0.848,2.053-0.848c0.813,0,1.479,0.276,1.995,0.831
			c0.516,0.554,0.774,1.334,0.774,2.339c0,0.062-0.002,0.153-0.006,0.275h-4.542c0.039,0.669,0.228,1.182,0.568,1.537
			c0.34,0.355,0.765,0.533,1.272,0.533c0.379,0,0.701-0.1,0.97-0.298C48.524,113.723,48.737,113.406,48.893,112.97z M45.504,111.301
			h3.4c-0.046-0.512-0.176-0.896-0.39-1.152c-0.329-0.397-0.755-0.597-1.279-0.597c-0.474,0-0.872,0.159-1.195,0.477
			S45.538,110.77,45.504,111.301z"/>
		<path style="fill:#2C6882;" d="M50.842,113.114l1.021-0.161c0.058,0.409,0.217,0.723,0.479,0.94s0.628,0.327,1.099,0.327
			c0.474,0,0.825-0.097,1.055-0.29c0.229-0.192,0.344-0.419,0.344-0.679c0-0.233-0.101-0.417-0.304-0.551
			c-0.142-0.092-0.493-0.208-1.055-0.35c-0.757-0.191-1.281-0.356-1.574-0.496c-0.292-0.14-0.514-0.333-0.665-0.579
			c-0.151-0.247-0.227-0.519-0.227-0.817c0-0.271,0.063-0.522,0.187-0.754s0.293-0.423,0.508-0.576
			c0.16-0.118,0.379-0.219,0.656-0.301s0.574-0.123,0.892-0.123c0.478,0,0.897,0.068,1.259,0.206s0.628,0.324,0.8,0.559
			c0.172,0.235,0.29,0.55,0.355,0.943l-1.01,0.138c-0.046-0.313-0.179-0.558-0.398-0.733s-0.53-0.265-0.932-0.265
			c-0.474,0-0.813,0.079-1.015,0.235c-0.203,0.157-0.304,0.341-0.304,0.551c0,0.134,0.042,0.254,0.126,0.361
			c0.084,0.11,0.216,0.202,0.396,0.275c0.104,0.038,0.407,0.126,0.912,0.264c0.729,0.194,1.239,0.354,1.527,0.479
			c0.289,0.124,0.516,0.305,0.68,0.542s0.247,0.531,0.247,0.883c0,0.344-0.101,0.668-0.302,0.972c-0.2,0.304-0.49,0.539-0.868,0.706
			c-0.379,0.166-0.807,0.249-1.284,0.249c-0.792,0-1.395-0.164-1.81-0.493S50.956,113.759,50.842,113.114z"/>
		<path style="fill:#2C6882;" d="M57.419,114.931v-1.176h1.176v1.176H57.419z"/>
	</g>
	<g>
		<path style="fill:#2C6882;" d="M10.39,124.15v-1.038h3.171v1.038H10.39z"/>
		<path style="fill:#2C6882;" d="M14.833,126.673v-8.406h3.171c0.558,0,0.984,0.027,1.278,0.081
			c0.413,0.068,0.759,0.199,1.038,0.393c0.278,0.192,0.503,0.463,0.674,0.812c0.17,0.348,0.255,0.729,0.255,1.146
			c0,0.715-0.228,1.319-0.683,1.814s-1.276,0.743-2.466,0.743h-2.155v3.417H14.833z M15.946,122.263h2.173
			c0.719,0,1.229-0.134,1.531-0.401s0.453-0.645,0.453-1.13c0-0.352-0.089-0.652-0.267-0.903c-0.178-0.25-0.412-0.415-0.703-0.496
			c-0.187-0.049-0.533-0.074-1.037-0.074h-2.15V122.263z"/>
		<path style="fill:#2C6882;" d="M26.702,124.712l1.066,0.132c-0.168,0.623-0.479,1.106-0.935,1.45
			c-0.455,0.345-1.036,0.517-1.743,0.517c-0.891,0-1.597-0.274-2.118-0.823c-0.521-0.548-0.783-1.317-0.783-2.308
			c0-1.024,0.264-1.819,0.792-2.386c0.527-0.565,1.211-0.848,2.053-0.848c0.813,0,1.479,0.276,1.995,0.831
			c0.516,0.554,0.774,1.334,0.774,2.339c0,0.062-0.002,0.153-0.006,0.275h-4.542c0.039,0.669,0.228,1.182,0.568,1.537
			c0.34,0.355,0.765,0.533,1.272,0.533c0.379,0,0.701-0.1,0.97-0.298C26.333,125.465,26.546,125.147,26.702,124.712z
			 M23.314,123.043h3.4c-0.046-0.512-0.176-0.896-0.39-1.152c-0.329-0.397-0.755-0.597-1.279-0.597
			c-0.474,0-0.872,0.159-1.195,0.477S23.348,122.511,23.314,123.043z"/>
		<path style="fill:#2C6882;" d="M29.054,126.673v-6.09h0.929v0.924c0.237-0.433,0.456-0.717,0.656-0.854
			c0.201-0.138,0.422-0.206,0.663-0.206c0.348,0,0.701,0.11,1.061,0.332l-0.355,0.958c-0.253-0.149-0.505-0.224-0.757-0.224
			c-0.226,0-0.429,0.067-0.608,0.203s-0.308,0.324-0.384,0.564c-0.114,0.367-0.172,0.769-0.172,1.204v3.188H29.054z"/>
		<path style="fill:#2C6882;" d="M32.563,124.855l1.021-0.161c0.058,0.409,0.217,0.723,0.479,0.94s0.628,0.327,1.099,0.327
			c0.474,0,0.825-0.097,1.055-0.29c0.229-0.192,0.344-0.419,0.344-0.679c0-0.233-0.101-0.417-0.304-0.551
			c-0.142-0.092-0.493-0.208-1.055-0.35c-0.757-0.191-1.281-0.356-1.574-0.496c-0.292-0.14-0.514-0.333-0.665-0.579
			c-0.151-0.247-0.227-0.519-0.227-0.817c0-0.271,0.063-0.522,0.187-0.754s0.293-0.423,0.508-0.576
			c0.16-0.118,0.379-0.219,0.656-0.301s0.574-0.123,0.892-0.123c0.478,0,0.897,0.068,1.259,0.206s0.628,0.324,0.8,0.559
			c0.172,0.235,0.29,0.55,0.355,0.943l-1.01,0.138c-0.046-0.313-0.179-0.558-0.398-0.733s-0.53-0.265-0.932-0.265
			c-0.474,0-0.813,0.079-1.015,0.235c-0.203,0.157-0.304,0.341-0.304,0.551c0,0.134,0.042,0.254,0.126,0.361
			c0.084,0.11,0.216,0.202,0.396,0.275c0.104,0.038,0.407,0.126,0.912,0.264c0.729,0.194,1.239,0.354,1.527,0.479
			c0.289,0.124,0.516,0.305,0.68,0.542s0.247,0.531,0.247,0.883c0,0.344-0.101,0.668-0.302,0.972c-0.2,0.304-0.49,0.539-0.868,0.706
			c-0.379,0.166-0.807,0.249-1.284,0.249c-0.792,0-1.395-0.164-1.81-0.493S32.677,125.501,32.563,124.855z"/>
		<path style="fill:#2C6882;" d="M38.462,123.628c0-1.127,0.313-1.963,0.94-2.506c0.523-0.45,1.162-0.676,1.915-0.676
			c0.838,0,1.521,0.273,2.053,0.822s0.797,1.307,0.797,2.273c0,0.784-0.117,1.4-0.353,1.85c-0.234,0.449-0.577,0.798-1.026,1.046
			c-0.449,0.249-0.939,0.373-1.471,0.373c-0.853,0-1.541-0.273-2.066-0.82C38.725,125.444,38.462,124.656,38.462,123.628z
			 M39.523,123.628c0,0.78,0.171,1.364,0.511,1.752s0.769,0.582,1.284,0.582c0.513,0,0.938-0.195,1.279-0.585
			c0.34-0.39,0.51-0.984,0.51-1.783c0-0.753-0.171-1.323-0.513-1.712c-0.343-0.388-0.768-0.582-1.276-0.582
			c-0.516,0-0.944,0.193-1.284,0.579C39.694,122.265,39.523,122.848,39.523,123.628z"/>
		<path style="fill:#2C6882;" d="M45.378,126.673v-6.09h0.929v0.866c0.447-0.669,1.093-1.003,1.938-1.003
			c0.367,0,0.705,0.065,1.013,0.197s0.538,0.305,0.69,0.519c0.153,0.215,0.26,0.469,0.321,0.763
			c0.038,0.191,0.058,0.526,0.058,1.004v3.744h-1.032v-3.704c0-0.421-0.04-0.734-0.12-0.943c-0.081-0.208-0.223-0.374-0.428-0.499
			c-0.204-0.124-0.444-0.187-0.72-0.187c-0.439,0-0.818,0.14-1.138,0.419s-0.479,0.809-0.479,1.589v3.325H45.378z"/>
		<path style="fill:#2C6882;" d="M55.883,125.922c-0.383,0.325-0.751,0.554-1.104,0.688s-0.732,0.201-1.138,0.201
			c-0.669,0-1.184-0.163-1.543-0.49s-0.539-0.744-0.539-1.253c0-0.298,0.068-0.57,0.204-0.817c0.136-0.246,0.313-0.444,0.533-0.593
			c0.22-0.149,0.468-0.263,0.742-0.339c0.203-0.054,0.509-0.104,0.918-0.154c0.833-0.1,1.446-0.219,1.841-0.355
			c0.003-0.142,0.005-0.231,0.005-0.27c0-0.421-0.097-0.717-0.292-0.889c-0.264-0.233-0.655-0.351-1.176-0.351
			c-0.485,0-0.844,0.086-1.075,0.256c-0.23,0.17-0.402,0.471-0.513,0.902l-1.009-0.137c0.091-0.433,0.242-0.781,0.452-1.047
			c0.211-0.266,0.515-0.471,0.912-0.613c0.397-0.144,0.858-0.215,1.382-0.215c0.52,0,0.942,0.061,1.268,0.183
			c0.324,0.123,0.563,0.276,0.717,0.462c0.152,0.186,0.26,0.42,0.32,0.702c0.035,0.176,0.052,0.493,0.052,0.952v1.376
			c0,0.96,0.022,1.566,0.066,1.82c0.044,0.255,0.131,0.498,0.261,0.731h-1.078C55.982,126.459,55.913,126.208,55.883,125.922z
			 M55.797,123.616c-0.375,0.153-0.938,0.283-1.687,0.391c-0.424,0.061-0.725,0.13-0.9,0.206s-0.312,0.188-0.406,0.336
			c-0.096,0.146-0.144,0.311-0.144,0.49c0,0.274,0.104,0.504,0.313,0.688c0.208,0.184,0.513,0.275,0.914,0.275
			c0.397,0,0.752-0.087,1.062-0.261s0.536-0.412,0.682-0.714c0.111-0.233,0.167-0.577,0.167-1.032V123.616z"/>
		<path style="fill:#2C6882;" d="M58.417,126.673v-8.406h1.032v8.406H58.417z"/>
		<path style="fill:#2C6882;" d="M61.341,126.673v-1.176h1.176v1.176H61.341z"/>
	</g>
	<g>
		<path style="fill:#2C6882;" d="M10.401,135.895v-1.038h3.171v1.038H10.401z"/>
		<path style="fill:#2C6882;" d="M14.844,138.418v-8.406h3.171c0.558,0,0.984,0.027,1.278,0.081
			c0.413,0.068,0.759,0.199,1.038,0.393c0.278,0.192,0.503,0.463,0.674,0.812c0.17,0.348,0.255,0.729,0.255,1.146
			c0,0.715-0.228,1.319-0.683,1.814s-1.276,0.743-2.466,0.743h-2.155v3.417H14.844z M15.956,134.008h2.173
			c0.719,0,1.229-0.134,1.531-0.401s0.453-0.645,0.453-1.13c0-0.352-0.089-0.652-0.267-0.903c-0.178-0.25-0.412-0.415-0.703-0.496
			c-0.187-0.049-0.533-0.074-1.037-0.074h-2.15V134.008z"/>
		<path style="fill:#2C6882;" d="M22.533,138.418v-6.09h0.929v0.924c0.237-0.433,0.456-0.717,0.656-0.854
			c0.201-0.138,0.422-0.206,0.663-0.206c0.348,0,0.701,0.11,1.061,0.332l-0.355,0.958c-0.253-0.149-0.505-0.224-0.757-0.224
			c-0.226,0-0.429,0.067-0.608,0.203s-0.308,0.324-0.384,0.564c-0.114,0.367-0.172,0.769-0.172,1.204v3.188H22.533z"/>
		<path style="fill:#2C6882;" d="M26.071,135.373c0-1.127,0.313-1.963,0.94-2.506c0.523-0.45,1.162-0.676,1.915-0.676
			c0.838,0,1.521,0.273,2.053,0.822s0.797,1.307,0.797,2.273c0,0.784-0.117,1.4-0.353,1.85c-0.234,0.449-0.577,0.798-1.026,1.046
			c-0.449,0.249-0.939,0.373-1.471,0.373c-0.853,0-1.541-0.273-2.066-0.82C26.333,137.189,26.071,136.401,26.071,135.373z
			 M27.131,135.373c0,0.78,0.171,1.364,0.511,1.752s0.769,0.582,1.284,0.582c0.513,0,0.938-0.195,1.279-0.585
			c0.34-0.39,0.51-0.984,0.51-1.783c0-0.753-0.171-1.323-0.513-1.712c-0.343-0.388-0.768-0.582-1.276-0.582
			c-0.516,0-0.944,0.193-1.284,0.579C27.302,134.01,27.131,134.593,27.131,135.373z"/>
		<path style="fill:#2C6882;" d="M32.987,140.752v-8.424h0.94v0.792c0.222-0.31,0.472-0.542,0.751-0.697
			c0.278-0.154,0.617-0.231,1.015-0.231c0.52,0,0.979,0.134,1.376,0.401s0.698,0.645,0.9,1.132s0.304,1.021,0.304,1.603
			c0,0.623-0.111,1.185-0.335,1.684c-0.224,0.498-0.549,0.881-0.975,1.146c-0.427,0.266-0.875,0.398-1.345,0.398
			c-0.345,0-0.653-0.072-0.927-0.218c-0.272-0.146-0.497-0.329-0.673-0.551v2.965H32.987z M33.921,135.407
			c0,0.784,0.158,1.363,0.476,1.738c0.317,0.374,0.701,0.562,1.152,0.562c0.459,0,0.852-0.194,1.179-0.582s0.49-0.989,0.49-1.804
			c0-0.775-0.16-1.356-0.479-1.743c-0.319-0.386-0.701-0.579-1.145-0.579c-0.439,0-0.828,0.206-1.167,0.617
			C34.09,134.026,33.921,134.624,33.921,135.407z"/>
		<path style="fill:#2C6882;" d="M39.524,131.199v-1.188h1.031v1.188H39.524z M39.524,138.418v-6.09h1.031v6.09H39.524z"/>
		<path style="fill:#2C6882;" d="M46.294,136.457l1.066,0.132c-0.168,0.623-0.479,1.106-0.935,1.45
			c-0.455,0.345-1.036,0.517-1.743,0.517c-0.891,0-1.597-0.274-2.118-0.823c-0.521-0.548-0.783-1.317-0.783-2.308
			c0-1.024,0.264-1.819,0.792-2.386c0.527-0.565,1.211-0.848,2.053-0.848c0.813,0,1.479,0.276,1.995,0.831
			c0.516,0.554,0.774,1.334,0.774,2.339c0,0.062-0.002,0.153-0.006,0.275h-4.542c0.039,0.669,0.228,1.182,0.568,1.537
			c0.34,0.355,0.765,0.533,1.272,0.533c0.379,0,0.701-0.1,0.97-0.298C45.925,137.21,46.138,136.892,46.294,136.457z M42.906,134.788
			h3.4c-0.046-0.512-0.176-0.896-0.39-1.152c-0.329-0.397-0.755-0.597-1.279-0.597c-0.474,0-0.872,0.159-1.195,0.477
			S42.94,134.257,42.906,134.788z"/>
		<path style="fill:#2C6882;" d="M52.608,138.418v-0.769c-0.386,0.604-0.954,0.906-1.703,0.906c-0.485,0-0.932-0.134-1.339-0.401
			s-0.723-0.642-0.946-1.121c-0.223-0.479-0.335-1.031-0.335-1.654c0-0.607,0.102-1.159,0.304-1.654
			c0.203-0.495,0.507-0.874,0.912-1.138s0.857-0.396,1.358-0.396c0.367,0,0.694,0.077,0.98,0.231c0.287,0.155,0.521,0.356,0.7,0.605
			v-3.017h1.026v8.406H52.608z M49.345,135.379c0,0.78,0.164,1.363,0.493,1.749s0.717,0.579,1.164,0.579
			c0.451,0,0.834-0.185,1.149-0.554c0.315-0.368,0.474-0.932,0.474-1.688c0-0.833-0.161-1.444-0.481-1.835
			c-0.321-0.39-0.717-0.585-1.188-0.585c-0.459,0-0.842,0.188-1.149,0.563C49.499,133.981,49.345,134.572,49.345,135.379z"/>
		<path style="fill:#2C6882;" d="M59.162,137.667c-0.383,0.325-0.751,0.554-1.104,0.688s-0.732,0.201-1.138,0.201
			c-0.669,0-1.184-0.163-1.543-0.49s-0.539-0.744-0.539-1.253c0-0.298,0.068-0.57,0.204-0.817c0.136-0.246,0.313-0.444,0.533-0.593
			c0.22-0.149,0.468-0.263,0.742-0.339c0.203-0.054,0.509-0.104,0.918-0.154c0.833-0.1,1.446-0.219,1.841-0.355
			c0.003-0.142,0.005-0.231,0.005-0.27c0-0.421-0.097-0.717-0.292-0.889c-0.264-0.233-0.655-0.351-1.176-0.351
			c-0.485,0-0.844,0.086-1.075,0.256c-0.23,0.17-0.402,0.471-0.513,0.902l-1.009-0.137c0.091-0.433,0.242-0.781,0.452-1.047
			c0.211-0.266,0.515-0.471,0.912-0.613c0.397-0.144,0.858-0.215,1.382-0.215c0.52,0,0.942,0.061,1.268,0.183
			c0.324,0.123,0.563,0.276,0.717,0.462c0.152,0.186,0.26,0.42,0.32,0.702c0.035,0.176,0.052,0.493,0.052,0.952v1.376
			c0,0.96,0.022,1.566,0.066,1.82c0.044,0.255,0.131,0.498,0.261,0.731h-1.078C59.261,138.204,59.193,137.953,59.162,137.667z
			 M59.076,135.361c-0.375,0.153-0.938,0.283-1.687,0.391c-0.424,0.061-0.725,0.13-0.9,0.206s-0.312,0.188-0.406,0.336
			c-0.096,0.146-0.144,0.311-0.144,0.49c0,0.274,0.104,0.504,0.313,0.688c0.208,0.184,0.513,0.275,0.914,0.275
			c0.397,0,0.752-0.087,1.062-0.261s0.536-0.412,0.682-0.714c0.111-0.233,0.167-0.577,0.167-1.032V135.361z"/>
		<path style="fill:#2C6882;" d="M65.669,138.418v-0.769c-0.386,0.604-0.954,0.906-1.703,0.906c-0.485,0-0.932-0.134-1.339-0.401
			s-0.723-0.642-0.946-1.121c-0.223-0.479-0.335-1.031-0.335-1.654c0-0.607,0.102-1.159,0.304-1.654
			c0.203-0.495,0.507-0.874,0.912-1.138s0.857-0.396,1.358-0.396c0.367,0,0.694,0.077,0.98,0.231c0.287,0.155,0.521,0.356,0.7,0.605
			v-3.017h1.026v8.406H65.669z M62.407,135.379c0,0.78,0.164,1.363,0.493,1.749s0.717,0.579,1.164,0.579
			c0.451,0,0.834-0.185,1.149-0.554c0.315-0.368,0.474-0.932,0.474-1.688c0-0.833-0.161-1.444-0.481-1.835
			c-0.321-0.39-0.717-0.585-1.188-0.585c-0.459,0-0.842,0.188-1.149,0.563C62.561,133.981,62.407,134.572,62.407,135.379z"/>
		<path style="fill:#2C6882;" d="M68.542,138.418v-1.176h1.176v1.176H68.542z"/>
	</g>
	<g>
		<path style="fill:#2C6882;" d="M10.401,147.638V146.6h3.171v1.038H10.401z"/>
		<path style="fill:#2C6882;" d="M14.465,147.461l1.05-0.092c0.049,0.42,0.165,0.765,0.347,1.034s0.463,0.487,0.846,0.654
			c0.382,0.166,0.813,0.249,1.29,0.249c0.425,0,0.799-0.063,1.124-0.189c0.325-0.126,0.566-0.299,0.726-0.519
			c0.158-0.22,0.237-0.46,0.237-0.72c0-0.264-0.076-0.494-0.229-0.69c-0.152-0.197-0.405-0.362-0.757-0.496
			c-0.226-0.088-0.724-0.225-1.496-0.41s-1.313-0.36-1.623-0.524c-0.401-0.211-0.7-0.472-0.897-0.783
			c-0.196-0.312-0.295-0.66-0.295-1.046c0-0.425,0.12-0.821,0.361-1.19c0.24-0.368,0.593-0.648,1.055-0.84
			c0.463-0.191,0.977-0.286,1.543-0.286c0.623,0,1.172,0.1,1.648,0.301c0.476,0.2,0.842,0.496,1.098,0.886s0.394,0.831,0.413,1.324
			l-1.066,0.08c-0.058-0.531-0.252-0.933-0.582-1.204c-0.331-0.271-0.819-0.406-1.465-0.406c-0.673,0-1.163,0.123-1.471,0.369
			c-0.309,0.247-0.462,0.544-0.462,0.892c0,0.303,0.109,0.551,0.327,0.746c0.214,0.194,0.772,0.395,1.677,0.599
			c0.904,0.205,1.524,0.384,1.86,0.536c0.489,0.226,0.851,0.512,1.084,0.857s0.35,0.744,0.35,1.195c0,0.447-0.128,0.869-0.384,1.265
			s-0.624,0.703-1.104,0.923c-0.48,0.22-1.021,0.33-1.62,0.33c-0.761,0-1.398-0.111-1.912-0.333c-0.515-0.222-0.918-0.555-1.21-1
			C14.634,148.526,14.481,148.022,14.465,147.461z"/>
		<path style="fill:#2C6882;" d="M22.16,147.116c0-1.127,0.313-1.963,0.94-2.506c0.523-0.45,1.162-0.676,1.915-0.676
			c0.838,0,1.521,0.273,2.053,0.822s0.797,1.307,0.797,2.273c0,0.784-0.117,1.4-0.353,1.85c-0.234,0.449-0.577,0.798-1.026,1.046
			c-0.449,0.249-0.939,0.373-1.471,0.373c-0.853,0-1.541-0.273-2.066-0.82C22.423,148.932,22.16,148.144,22.16,147.116z
			 M23.221,147.116c0,0.78,0.171,1.364,0.511,1.752s0.769,0.582,1.284,0.582c0.513,0,0.938-0.195,1.279-0.585
			c0.34-0.39,0.51-0.984,0.51-1.783c0-0.753-0.171-1.323-0.513-1.712c-0.343-0.388-0.768-0.582-1.276-0.582
			c-0.516,0-0.944,0.193-1.284,0.579C23.392,145.754,23.221,146.337,23.221,147.116z"/>
		<path style="fill:#2C6882;" d="M33.05,147.93l1.015,0.132c-0.111,0.699-0.395,1.247-0.852,1.643s-1.018,0.594-1.683,0.594
			c-0.834,0-1.504-0.272-2.01-0.817c-0.507-0.545-0.76-1.325-0.76-2.342c0-0.658,0.108-1.233,0.326-1.727
			c0.219-0.493,0.55-0.862,0.995-1.109c0.445-0.246,0.93-0.369,1.454-0.369c0.661,0,1.202,0.167,1.622,0.501
			c0.421,0.335,0.69,0.81,0.809,1.425l-1.003,0.155c-0.096-0.409-0.266-0.717-0.508-0.923c-0.243-0.207-0.536-0.311-0.88-0.311
			c-0.521,0-0.942,0.187-1.268,0.56s-0.487,0.962-0.487,1.769c0,0.818,0.156,1.413,0.47,1.783c0.313,0.371,0.723,0.557,1.228,0.557
			c0.405,0,0.743-0.124,1.015-0.373C32.805,148.829,32.977,148.446,33.05,147.93z"/>
		<path style="fill:#2C6882;" d="M34.953,142.942v-1.188h1.031v1.188H34.953z M34.953,150.161v-6.09h1.031v6.09H34.953z"/>
		<path style="fill:#2C6882;" d="M41.725,148.2l1.066,0.132c-0.168,0.623-0.479,1.106-0.935,1.45
			c-0.455,0.345-1.036,0.517-1.743,0.517c-0.891,0-1.597-0.274-2.118-0.823c-0.521-0.548-0.783-1.317-0.783-2.308
			c0-1.024,0.264-1.819,0.792-2.386c0.527-0.565,1.211-0.848,2.053-0.848c0.813,0,1.479,0.276,1.995,0.831
			c0.516,0.554,0.774,1.334,0.774,2.339c0,0.062-0.002,0.153-0.006,0.275h-4.542c0.039,0.669,0.228,1.182,0.568,1.537
			c0.34,0.355,0.765,0.533,1.272,0.533c0.379,0,0.701-0.1,0.97-0.298C41.356,148.953,41.569,148.635,41.725,148.2z M38.336,146.531
			h3.4c-0.046-0.512-0.176-0.896-0.39-1.152c-0.329-0.397-0.755-0.597-1.279-0.597c-0.474,0-0.872,0.159-1.195,0.477
			S38.37,146,38.336,146.531z"/>
		<path style="fill:#2C6882;" d="M48.037,150.161v-0.769c-0.386,0.604-0.954,0.906-1.703,0.906c-0.485,0-0.932-0.134-1.339-0.401
			s-0.723-0.642-0.946-1.121c-0.223-0.479-0.335-1.031-0.335-1.654c0-0.607,0.102-1.159,0.304-1.654
			c0.203-0.495,0.507-0.874,0.912-1.138s0.857-0.396,1.358-0.396c0.367,0,0.694,0.077,0.98,0.231c0.287,0.155,0.521,0.356,0.7,0.605
			v-3.017h1.026v8.406H48.037z M44.775,147.122c0,0.78,0.164,1.363,0.493,1.749s0.717,0.579,1.164,0.579
			c0.451,0,0.834-0.185,1.149-0.554c0.315-0.368,0.474-0.932,0.474-1.688c0-0.833-0.161-1.444-0.481-1.835
			c-0.321-0.39-0.717-0.585-1.188-0.585c-0.459,0-0.842,0.188-1.149,0.563C44.929,145.724,44.775,146.315,44.775,147.122z"/>
		<path style="fill:#2C6882;" d="M54.592,149.41c-0.383,0.325-0.751,0.554-1.104,0.688s-0.732,0.201-1.138,0.201
			c-0.669,0-1.184-0.163-1.543-0.49s-0.539-0.744-0.539-1.253c0-0.298,0.068-0.57,0.204-0.817c0.136-0.246,0.313-0.444,0.533-0.593
			c0.22-0.149,0.468-0.263,0.742-0.339c0.203-0.054,0.509-0.104,0.918-0.154c0.833-0.1,1.446-0.219,1.841-0.355
			c0.003-0.142,0.005-0.231,0.005-0.27c0-0.421-0.097-0.717-0.292-0.889c-0.264-0.233-0.655-0.351-1.176-0.351
			c-0.485,0-0.844,0.086-1.075,0.256c-0.23,0.17-0.402,0.471-0.513,0.902l-1.009-0.137c0.091-0.433,0.242-0.781,0.452-1.047
			c0.211-0.266,0.515-0.471,0.912-0.613c0.397-0.144,0.858-0.215,1.382-0.215c0.52,0,0.942,0.061,1.268,0.183
			c0.324,0.123,0.563,0.276,0.717,0.462c0.152,0.186,0.26,0.42,0.32,0.702c0.035,0.176,0.052,0.493,0.052,0.952v1.376
			c0,0.96,0.022,1.566,0.066,1.82c0.044,0.255,0.131,0.498,0.261,0.731h-1.078C54.691,149.947,54.622,149.696,54.592,149.41z
			 M54.506,147.104c-0.375,0.153-0.938,0.283-1.687,0.391c-0.424,0.061-0.725,0.13-0.9,0.206s-0.312,0.188-0.406,0.336
			c-0.096,0.146-0.144,0.311-0.144,0.49c0,0.274,0.104,0.504,0.313,0.688c0.208,0.184,0.513,0.275,0.914,0.275
			c0.397,0,0.752-0.087,1.062-0.261s0.536-0.412,0.682-0.714c0.111-0.233,0.167-0.577,0.167-1.032V147.104z"/>
		<path style="fill:#2C6882;" d="M61.1,150.161v-0.769c-0.386,0.604-0.954,0.906-1.703,0.906c-0.485,0-0.932-0.134-1.339-0.401
			s-0.723-0.642-0.946-1.121c-0.223-0.479-0.335-1.031-0.335-1.654c0-0.607,0.102-1.159,0.304-1.654
			c0.203-0.495,0.507-0.874,0.912-1.138s0.857-0.396,1.358-0.396c0.367,0,0.694,0.077,0.98,0.231c0.287,0.155,0.521,0.356,0.7,0.605
			v-3.017h1.026v8.406H61.1z M57.837,147.122c0,0.78,0.164,1.363,0.493,1.749s0.717,0.579,1.164,0.579
			c0.451,0,0.834-0.185,1.149-0.554c0.315-0.368,0.474-0.932,0.474-1.688c0-0.833-0.161-1.444-0.481-1.835
			c-0.321-0.39-0.717-0.585-1.188-0.585c-0.459,0-0.842,0.188-1.149,0.563C57.991,145.724,57.837,146.315,57.837,147.122z"/>
		<path style="fill:#2C6882;" d="M63.972,150.161v-1.176h1.176v1.176H63.972z"/>
	</g>
	<g>
		<path style="fill:#2C6882;" d="M10.401,159.381v-1.038h3.171v1.038H10.401z"/>
		<path style="fill:#2C6882;" d="M14.798,161.903v-8.406h1.112v7.414h4.14v0.992H14.798z"/>
		<path style="fill:#2C6882;" d="M25.411,159.942l1.066,0.132c-0.168,0.623-0.479,1.106-0.935,1.45
			c-0.455,0.345-1.036,0.517-1.743,0.517c-0.891,0-1.597-0.274-2.118-0.823c-0.521-0.548-0.783-1.317-0.783-2.308
			c0-1.024,0.264-1.819,0.792-2.386c0.527-0.565,1.211-0.848,2.053-0.848c0.813,0,1.479,0.276,1.995,0.831
			c0.516,0.554,0.774,1.334,0.774,2.339c0,0.062-0.002,0.153-0.006,0.275h-4.542c0.039,0.669,0.228,1.182,0.568,1.537
			c0.34,0.355,0.765,0.533,1.272,0.533c0.379,0,0.701-0.1,0.97-0.298C25.042,160.695,25.255,160.378,25.411,159.942z
			 M22.023,158.273h3.4c-0.046-0.512-0.176-0.896-0.39-1.152c-0.329-0.397-0.755-0.597-1.279-0.597
			c-0.474,0-0.872,0.159-1.195,0.477S22.057,157.742,22.023,158.273z"/>
		<path style="fill:#2C6882;" d="M27.585,162.408l1.003,0.148c0.042,0.31,0.159,0.535,0.351,0.677
			c0.256,0.191,0.605,0.287,1.049,0.287c0.478,0,0.847-0.096,1.106-0.287s0.437-0.459,0.527-0.803
			c0.054-0.21,0.079-0.651,0.075-1.324c-0.451,0.531-1.014,0.797-1.686,0.797c-0.838,0-1.485-0.302-1.944-0.906
			c-0.459-0.604-0.688-1.328-0.688-2.173c0-0.581,0.104-1.117,0.314-1.608c0.211-0.491,0.516-0.87,0.915-1.138
			s0.869-0.401,1.407-0.401c0.719,0,1.312,0.29,1.778,0.871v-0.734h0.951v5.264c0,0.948-0.097,1.62-0.289,2.016
			c-0.193,0.396-0.499,0.708-0.918,0.938c-0.418,0.229-0.934,0.345-1.545,0.345c-0.727,0-1.313-0.164-1.761-0.49
			C27.785,163.557,27.57,163.065,27.585,162.408z M28.44,158.75c0,0.799,0.158,1.382,0.476,1.748
			c0.317,0.367,0.715,0.551,1.192,0.551c0.475,0,0.872-0.183,1.193-0.548c0.32-0.364,0.481-0.938,0.481-1.717
			c0-0.745-0.165-1.308-0.496-1.686c-0.331-0.379-0.729-0.568-1.195-0.568c-0.459,0-0.849,0.187-1.17,0.56
			C28.6,157.462,28.44,158.015,28.44,158.75z"/>
		<path style="fill:#2C6882;" d="M34.311,154.684v-1.188h1.031v1.188H34.311z M34.311,161.903v-6.09h1.031v6.09H34.311z"/>
		<path style="fill:#2C6882;" d="M36.501,160.086l1.021-0.161c0.058,0.409,0.217,0.723,0.479,0.94s0.628,0.327,1.099,0.327
			c0.474,0,0.825-0.097,1.055-0.29c0.229-0.192,0.344-0.419,0.344-0.679c0-0.233-0.101-0.417-0.304-0.551
			c-0.142-0.092-0.493-0.208-1.055-0.35c-0.757-0.191-1.281-0.356-1.574-0.496c-0.292-0.14-0.514-0.333-0.665-0.579
			c-0.151-0.247-0.227-0.519-0.227-0.817c0-0.271,0.063-0.522,0.187-0.754s0.293-0.423,0.508-0.576
			c0.16-0.118,0.379-0.219,0.656-0.301s0.574-0.123,0.892-0.123c0.478,0,0.897,0.068,1.259,0.206s0.628,0.324,0.8,0.559
			c0.172,0.235,0.29,0.55,0.355,0.943l-1.01,0.138c-0.046-0.313-0.179-0.558-0.398-0.733s-0.53-0.265-0.932-0.265
			c-0.474,0-0.813,0.079-1.015,0.235c-0.203,0.157-0.304,0.341-0.304,0.551c0,0.134,0.042,0.254,0.126,0.361
			c0.084,0.11,0.216,0.202,0.396,0.275c0.104,0.038,0.407,0.126,0.912,0.264c0.729,0.194,1.239,0.354,1.527,0.479
			c0.289,0.124,0.516,0.305,0.68,0.542s0.247,0.531,0.247,0.883c0,0.344-0.101,0.668-0.302,0.972c-0.2,0.304-0.49,0.539-0.868,0.706
			c-0.379,0.166-0.807,0.249-1.284,0.249c-0.792,0-1.395-0.164-1.81-0.493S36.615,160.731,36.501,160.086z"/>
		<path style="fill:#2C6882;" d="M42.762,161.903v-8.406h1.032v8.406H42.762z"/>
		<path style="fill:#2C6882;" d="M49.368,161.152c-0.383,0.325-0.751,0.554-1.104,0.688s-0.732,0.201-1.138,0.201
			c-0.669,0-1.184-0.163-1.543-0.49s-0.539-0.744-0.539-1.253c0-0.298,0.068-0.57,0.204-0.817c0.136-0.246,0.313-0.444,0.533-0.593
			c0.22-0.149,0.468-0.263,0.742-0.339c0.203-0.054,0.509-0.104,0.918-0.154c0.833-0.1,1.446-0.219,1.841-0.355
			c0.003-0.142,0.005-0.231,0.005-0.27c0-0.421-0.097-0.717-0.292-0.889c-0.264-0.233-0.655-0.351-1.176-0.351
			c-0.485,0-0.844,0.086-1.075,0.256c-0.23,0.17-0.402,0.471-0.513,0.902l-1.009-0.137c0.091-0.433,0.242-0.781,0.452-1.047
			c0.211-0.266,0.515-0.471,0.912-0.613c0.397-0.144,0.858-0.215,1.382-0.215c0.52,0,0.942,0.061,1.268,0.183
			c0.324,0.123,0.563,0.276,0.717,0.462c0.152,0.186,0.26,0.42,0.32,0.702c0.035,0.176,0.052,0.493,0.052,0.952v1.376
			c0,0.96,0.022,1.566,0.066,1.82c0.044,0.255,0.131,0.498,0.261,0.731h-1.078C49.467,161.689,49.399,161.438,49.368,161.152z
			 M49.282,158.846c-0.375,0.153-0.938,0.283-1.687,0.391c-0.424,0.061-0.725,0.13-0.9,0.206s-0.312,0.188-0.406,0.336
			c-0.096,0.146-0.144,0.311-0.144,0.49c0,0.274,0.104,0.504,0.313,0.688c0.208,0.184,0.513,0.275,0.914,0.275
			c0.397,0,0.752-0.087,1.062-0.261s0.536-0.412,0.682-0.714c0.111-0.233,0.167-0.577,0.167-1.032V158.846z"/>
		<path style="fill:#2C6882;" d="M55.9,159.673l1.015,0.132c-0.111,0.699-0.395,1.247-0.852,1.643s-1.018,0.594-1.683,0.594
			c-0.834,0-1.504-0.272-2.01-0.817c-0.507-0.545-0.76-1.325-0.76-2.342c0-0.658,0.108-1.233,0.326-1.727
			c0.219-0.493,0.55-0.862,0.995-1.109c0.445-0.246,0.93-0.369,1.454-0.369c0.661,0,1.202,0.167,1.622,0.501
			c0.421,0.335,0.69,0.81,0.809,1.425l-1.003,0.155c-0.096-0.409-0.266-0.717-0.508-0.923c-0.243-0.207-0.536-0.311-0.88-0.311
			c-0.521,0-0.942,0.187-1.268,0.56s-0.487,0.962-0.487,1.769c0,0.818,0.156,1.413,0.47,1.783c0.313,0.371,0.723,0.557,1.228,0.557
			c0.405,0,0.743-0.124,1.015-0.373C55.655,160.571,55.826,160.188,55.9,159.673z"/>
		<path style="fill:#2C6882;" d="M57.803,154.684v-1.188h1.031v1.188H57.803z M57.803,161.903v-6.09h1.031v6.09H57.803z"/>
		<path style="fill:#2C6882;" d="M60.022,158.858c0-1.127,0.313-1.963,0.94-2.506c0.523-0.45,1.162-0.676,1.915-0.676
			c0.838,0,1.521,0.273,2.053,0.822s0.797,1.307,0.797,2.273c0,0.784-0.117,1.4-0.353,1.85c-0.234,0.449-0.577,0.798-1.026,1.046
			c-0.449,0.249-0.939,0.373-1.471,0.373c-0.853,0-1.541-0.273-2.066-0.82C60.284,160.674,60.022,159.886,60.022,158.858z
			 M61.082,158.858c0,0.78,0.171,1.364,0.511,1.752s0.769,0.582,1.284,0.582c0.513,0,0.938-0.195,1.279-0.585
			c0.34-0.39,0.51-0.984,0.51-1.783c0-0.753-0.171-1.323-0.513-1.712c-0.343-0.388-0.768-0.582-1.276-0.582
			c-0.516,0-0.944,0.193-1.284,0.579C61.253,157.496,61.082,158.079,61.082,158.858z M62.304,155.056l0.763-1.605h1.354
			l-1.262,1.605H62.304z"/>
		<path style="fill:#2C6882;" d="M66.937,161.903v-6.09h0.929v0.866c0.447-0.669,1.093-1.003,1.938-1.003
			c0.367,0,0.705,0.065,1.013,0.197s0.538,0.305,0.69,0.519c0.153,0.215,0.26,0.469,0.321,0.763
			c0.038,0.191,0.058,0.526,0.058,1.004v3.744h-1.032v-3.704c0-0.421-0.04-0.734-0.12-0.943c-0.081-0.208-0.223-0.374-0.428-0.499
			c-0.204-0.124-0.444-0.187-0.72-0.187c-0.439,0-0.818,0.14-1.138,0.419s-0.479,0.809-0.479,1.589v3.325H66.937z"/>
		<path style="fill:#2C6882;" d="M73.76,161.903v-1.176h1.176v1.176H73.76z"/>
	</g>
	<g>
		<defs>
			<rect id="SVGID_5_" x="349.657" y="33.764" width="30.241" height="140.845"/>
		</defs>
		<use xlink:href="#SVGID_5_"  style="overflow:visible;fill:#6FC2D8;"/>
		<clipPath id="SVGID_6_">
			<use xlink:href="#SVGID_5_"  style="overflow:visible;"/>
		</clipPath>
		
			<rect x="349.657" y="33.764" style="clip-path:url(#SVGID_6_);fill:#6FC2D8;stroke:#000000;stroke-width:0.75;stroke-miterlimit:10;" width="30.241" height="140.845"/>
		<use xlink:href="#SVGID_5_"  style="overflow:visible;fill:none;stroke:#000000;stroke-width:0.75;stroke-miterlimit:10;"/>
	</g>
	<g>
		<g>
			<path style="fill:#2C6882;" d="M361.419,59.302v-10.23h7.396v1.207h-6.043v3.134h5.659v1.2h-5.659v3.482h6.28v1.207H361.419z"/>
		</g>
	</g>
	<g>
		<path style="fill:#2C6882;" d="M359.951,73.594l3.957-5.332l-3.489-4.898h1.612l1.856,2.624c0.386,0.544,0.66,0.963,0.823,1.256
			c0.228-0.372,0.498-0.761,0.81-1.165l2.059-2.715h1.473l-3.594,4.822l3.873,5.408h-1.675l-2.575-3.649
			c-0.145-0.21-0.293-0.438-0.447-0.685c-0.228,0.373-0.391,0.628-0.488,0.768l-2.568,3.566H359.951z"/>
	</g>
	<g>
		<g>
			<path style="fill:#2C6882;" d="M364.137,87.887v-9.023h-3.371v-1.207h8.109v1.207h-3.385v9.023H364.137z"/>
		</g>
	</g>
	<g>
		<g>
			<path style="fill:#2C6882;" d="M361.419,102.179v-10.23h7.396v1.207h-6.043v3.134h5.659v1.2h-5.659v3.482h6.28v1.207H361.419z"/>
		</g>
	</g>
	<g>
		<g>
			<path style="fill:#2C6882;" d="M360.883,116.471v-10.23h4.535c0.912,0,1.605,0.092,2.08,0.275s0.854,0.509,1.138,0.974
				c0.283,0.465,0.426,0.979,0.426,1.542c0,0.727-0.235,1.338-0.705,1.836s-1.195,0.813-2.178,0.949
				c0.358,0.172,0.631,0.342,0.816,0.509c0.396,0.363,0.771,0.816,1.124,1.361l1.779,2.784h-1.702l-1.354-2.129
				c-0.396-0.613-0.721-1.084-0.977-1.409s-0.485-0.554-0.688-0.684c-0.202-0.131-0.408-0.222-0.618-0.272
				c-0.153-0.032-0.404-0.049-0.753-0.049h-1.57v4.543H360.883z M362.237,110.756h2.91c0.618,0,1.103-0.063,1.451-0.191
				s0.614-0.333,0.796-0.614s0.271-0.587,0.271-0.918c0-0.483-0.175-0.881-0.526-1.193c-0.352-0.312-0.906-0.467-1.664-0.467h-3.238
				V110.756z"/>
		</g>
	</g>
	<g>
		<g>
			<path style="fill:#2C6882;" d="M363.208,130.763v-10.23h1.354v10.23H363.208z"/>
		</g>
	</g>
	<g>
		<g>
			<path style="fill:#2C6882;" d="M360.449,140.074c0-1.698,0.456-3.027,1.368-3.988s2.089-1.441,3.531-1.441
				c0.944,0,1.796,0.226,2.554,0.677c0.759,0.451,1.337,1.081,1.734,1.888c0.398,0.808,0.597,1.723,0.597,2.746
				c0,1.038-0.209,1.966-0.628,2.785c-0.419,0.818-1.012,1.438-1.779,1.859s-1.596,0.632-2.484,0.632
				c-0.963,0-1.824-0.233-2.582-0.698c-0.759-0.465-1.333-1.101-1.724-1.905S360.449,140.971,360.449,140.074z M361.846,140.094
				c0,1.233,0.331,2.204,0.994,2.914c0.663,0.709,1.494,1.063,2.495,1.063c1.019,0,1.857-0.357,2.516-1.074s0.987-1.733,0.987-3.05
				c0-0.833-0.141-1.56-0.422-2.181c-0.282-0.621-0.693-1.103-1.235-1.444s-1.15-0.514-1.825-0.514c-0.958,0-1.783,0.33-2.474,0.988
				C362.191,137.456,361.846,138.554,361.846,140.094z"/>
		</g>
	</g>
	<g>
		<g>
			<path style="fill:#2C6882;" d="M360.883,159.346v-10.23h4.535c0.912,0,1.605,0.092,2.08,0.275s0.854,0.509,1.138,0.974
				c0.283,0.465,0.426,0.979,0.426,1.542c0,0.727-0.235,1.338-0.705,1.836s-1.195,0.813-2.178,0.949
				c0.358,0.172,0.631,0.342,0.816,0.509c0.396,0.363,0.771,0.816,1.124,1.361l1.779,2.784h-1.702l-1.354-2.129
				c-0.396-0.613-0.721-1.084-0.977-1.409s-0.485-0.554-0.688-0.684c-0.202-0.131-0.408-0.222-0.618-0.272
				c-0.153-0.032-0.404-0.049-0.753-0.049h-1.57v4.543H360.883z M362.237,153.631h2.91c0.618,0,1.103-0.063,1.451-0.191
				s0.614-0.333,0.796-0.614s0.271-0.587,0.271-0.918c0-0.483-0.175-0.881-0.526-1.193c-0.352-0.312-0.906-0.467-1.664-0.467h-3.238
				V153.631z"/>
		</g>
	</g>
	<polygon style="fill:#0F1317;" points="134.75,155.297 115.586,144.229 115.586,153.076 110.404,153.076 110.404,71.207 
		105.965,71.207 105.965,157.514 115.586,157.514 115.586,166.358 	"/>
	<polygon style="fill:#0F1317;" points="98.767,51.093 79.604,40.026 79.604,48.872 43.879,48.872 43.879,71.012 48.316,71.012 
		48.316,53.31 79.604,53.31 79.604,62.156 	"/>
	<polygon style="fill:#0F1317;" points="228.962,75.269 228.962,71.402 224.523,71.402 224.523,75.269 216.5,75.269 226.744,85.511 
		236.99,75.269 	"/>
	<polygon style="fill:#0F1317;" points="349.657,104.75 335.092,96.341 335.092,102.53 328.503,102.53 328.503,106.97 
		335.092,106.97 335.092,113.159 	"/>
	<polygon style="fill:#0F1317;" points="226.746,123.149 216.498,133.391 224.523,133.391 224.523,137.26 228.962,137.26 
		228.962,133.391 236.99,133.391 	"/>
	<polygon style="fill:#0F1317;" points="175.311,123.149 165.064,133.391 173.091,133.391 173.091,137.26 177.527,137.26 
		177.527,133.391 185.555,133.391 	"/>
	<polygon style="fill:#0F1317;" points="290.306,133.391 280.062,123.151 269.816,133.391 277.844,133.391 277.844,137.26 
		282.279,137.26 282.279,133.391 	"/>
	<g>
		<path style="fill:#2C6882;" d="M11.048,87.722v-8.406h2.896c0.653,0,1.152,0.04,1.496,0.121c0.482,0.11,0.893,0.312,1.233,0.602
			c0.443,0.375,0.774,0.854,0.994,1.437s0.33,1.249,0.33,1.998c0,0.639-0.074,1.204-0.224,1.697s-0.34,0.901-0.573,1.225
			s-0.488,0.577-0.766,0.763s-0.611,0.325-1.004,0.421c-0.392,0.096-0.842,0.144-1.35,0.144H11.048z M12.16,86.73h1.795
			c0.554,0,0.988-0.052,1.304-0.154c0.315-0.104,0.567-0.249,0.754-0.437c0.265-0.264,0.47-0.618,0.617-1.063
			c0.146-0.445,0.221-0.985,0.221-1.619c0-0.88-0.145-1.556-0.434-2.027c-0.288-0.472-0.639-0.788-1.052-0.949
			c-0.298-0.114-0.778-0.172-1.439-0.172H12.16V86.73z"/>
		<path style="fill:#2C6882;" d="M23.565,85.761l1.066,0.132c-0.168,0.623-0.479,1.106-0.935,1.45
			c-0.455,0.345-1.036,0.517-1.743,0.517c-0.891,0-1.597-0.274-2.118-0.823c-0.521-0.548-0.783-1.317-0.783-2.308
			c0-1.024,0.264-1.819,0.792-2.386c0.527-0.565,1.211-0.848,2.053-0.848c0.813,0,1.479,0.276,1.995,0.831
			c0.516,0.554,0.774,1.334,0.774,2.339c0,0.062-0.002,0.153-0.006,0.275h-4.542c0.039,0.669,0.228,1.182,0.568,1.537
			c0.34,0.355,0.765,0.533,1.272,0.533c0.379,0,0.701-0.1,0.97-0.298C23.196,86.514,23.408,86.197,23.565,85.761z M20.176,84.092
			h3.4c-0.046-0.512-0.176-0.896-0.39-1.152c-0.329-0.397-0.755-0.597-1.279-0.597c-0.474,0-0.872,0.159-1.195,0.477
			S20.21,83.561,20.176,84.092z"/>
		<path style="fill:#2C6882;" d="M25.928,87.722v-6.09h0.923v0.854c0.191-0.298,0.445-0.538,0.763-0.72
			c0.317-0.181,0.679-0.271,1.084-0.271c0.45,0,0.82,0.093,1.109,0.28c0.288,0.188,0.492,0.449,0.61,0.786
			c0.481-0.711,1.108-1.066,1.881-1.066c0.604,0,1.068,0.167,1.394,0.501c0.324,0.335,0.487,0.85,0.487,1.546v4.18h-1.026v-3.836
			c0-0.413-0.034-0.71-0.101-0.892s-0.188-0.328-0.364-0.438c-0.176-0.111-0.382-0.167-0.619-0.167
			c-0.428,0-0.783,0.143-1.066,0.428s-0.425,0.74-0.425,1.367v3.538h-1.031v-3.956c0-0.459-0.085-0.803-0.253-1.032
			s-0.443-0.345-0.825-0.345c-0.291,0-0.56,0.077-0.806,0.229c-0.247,0.153-0.426,0.377-0.536,0.671
			c-0.111,0.295-0.166,0.719-0.166,1.273v3.159H25.928z"/>
		<path style="fill:#2C6882;" d="M39.684,86.971c-0.383,0.325-0.751,0.554-1.104,0.688s-0.732,0.201-1.138,0.201
			c-0.669,0-1.184-0.163-1.543-0.49s-0.539-0.744-0.539-1.253c0-0.298,0.068-0.57,0.204-0.817c0.136-0.246,0.313-0.444,0.533-0.593
			c0.22-0.149,0.468-0.263,0.742-0.339c0.203-0.054,0.509-0.104,0.918-0.154c0.833-0.1,1.446-0.219,1.841-0.355
			c0.003-0.142,0.005-0.231,0.005-0.27c0-0.421-0.097-0.717-0.292-0.889c-0.264-0.233-0.655-0.351-1.176-0.351
			c-0.485,0-0.844,0.086-1.075,0.256c-0.23,0.17-0.402,0.471-0.513,0.902l-1.009-0.137c0.091-0.433,0.242-0.781,0.452-1.047
			c0.211-0.266,0.515-0.471,0.912-0.613c0.397-0.144,0.858-0.215,1.382-0.215c0.52,0,0.942,0.061,1.268,0.183
			c0.324,0.123,0.563,0.276,0.717,0.462c0.152,0.186,0.26,0.42,0.32,0.702c0.035,0.176,0.052,0.493,0.052,0.952v1.376
			c0,0.96,0.022,1.566,0.066,1.82c0.044,0.255,0.131,0.498,0.261,0.731H39.89C39.782,87.508,39.714,87.257,39.684,86.971z
			 M39.598,84.666c-0.375,0.153-0.938,0.283-1.687,0.391c-0.424,0.061-0.725,0.13-0.9,0.206s-0.312,0.188-0.406,0.336
			c-0.096,0.146-0.144,0.311-0.144,0.49c0,0.274,0.104,0.504,0.313,0.688c0.208,0.184,0.513,0.275,0.914,0.275
			c0.397,0,0.752-0.087,1.062-0.261s0.536-0.412,0.682-0.714c0.111-0.233,0.167-0.577,0.167-1.032V84.666z"/>
		<path style="fill:#2C6882;" d="M42.241,87.722v-6.09h0.929v0.866c0.447-0.669,1.093-1.003,1.938-1.003
			c0.367,0,0.705,0.065,1.013,0.197s0.538,0.305,0.69,0.519c0.153,0.215,0.26,0.469,0.321,0.763
			c0.038,0.191,0.058,0.526,0.058,1.004v3.744h-1.032v-3.704c0-0.421-0.04-0.734-0.12-0.943c-0.081-0.208-0.223-0.374-0.428-0.499
			c-0.204-0.124-0.444-0.187-0.72-0.187c-0.439,0-0.818,0.14-1.138,0.419s-0.479,0.809-0.479,1.589v3.325H42.241z"/>
		<path style="fill:#2C6882;" d="M52.723,87.722v-0.769c-0.386,0.604-0.954,0.906-1.703,0.906c-0.485,0-0.932-0.134-1.339-0.401
			s-0.723-0.642-0.946-1.121c-0.223-0.479-0.335-1.031-0.335-1.654c0-0.607,0.102-1.159,0.304-1.654
			c0.203-0.495,0.507-0.874,0.912-1.138s0.857-0.396,1.358-0.396c0.367,0,0.694,0.077,0.98,0.231c0.287,0.155,0.521,0.356,0.7,0.605
			v-3.017h1.026v8.406H52.723z M49.46,84.683c0,0.78,0.164,1.363,0.493,1.749s0.717,0.579,1.164,0.579
			c0.451,0,0.834-0.185,1.149-0.554c0.315-0.368,0.474-0.932,0.474-1.688c0-0.833-0.161-1.444-0.481-1.835
			c-0.321-0.39-0.717-0.585-1.188-0.585c-0.459,0-0.842,0.188-1.149,0.563C49.615,83.286,49.46,83.877,49.46,84.683z"/>
		<path style="fill:#2C6882;" d="M59.278,86.971c-0.383,0.325-0.751,0.554-1.104,0.688s-0.732,0.201-1.138,0.201
			c-0.669,0-1.184-0.163-1.543-0.49s-0.539-0.744-0.539-1.253c0-0.298,0.068-0.57,0.204-0.817c0.136-0.246,0.313-0.444,0.533-0.593
			c0.22-0.149,0.468-0.263,0.742-0.339c0.203-0.054,0.509-0.104,0.918-0.154c0.833-0.1,1.446-0.219,1.841-0.355
			c0.003-0.142,0.005-0.231,0.005-0.27c0-0.421-0.097-0.717-0.292-0.889c-0.264-0.233-0.655-0.351-1.176-0.351
			c-0.485,0-0.844,0.086-1.075,0.256c-0.23,0.17-0.402,0.471-0.513,0.902l-1.009-0.137c0.091-0.433,0.242-0.781,0.452-1.047
			c0.211-0.266,0.515-0.471,0.912-0.613c0.397-0.144,0.858-0.215,1.382-0.215c0.52,0,0.942,0.061,1.268,0.183
			c0.324,0.123,0.563,0.276,0.717,0.462c0.152,0.186,0.26,0.42,0.32,0.702c0.035,0.176,0.052,0.493,0.052,0.952v1.376
			c0,0.96,0.022,1.566,0.066,1.82c0.044,0.255,0.131,0.498,0.261,0.731h-1.078C59.376,87.508,59.308,87.257,59.278,86.971z
			 M59.192,84.666c-0.375,0.153-0.938,0.283-1.687,0.391c-0.424,0.061-0.725,0.13-0.9,0.206s-0.312,0.188-0.406,0.336
			c-0.096,0.146-0.144,0.311-0.144,0.49c0,0.274,0.104,0.504,0.313,0.688c0.208,0.184,0.513,0.275,0.914,0.275
			c0.397,0,0.752-0.087,1.062-0.261s0.536-0.412,0.682-0.714c0.111-0.233,0.167-0.577,0.167-1.032V84.666z"/>
		<path style="fill:#2C6882;" d="M61.422,85.905l1.021-0.161c0.058,0.409,0.217,0.723,0.479,0.94s0.628,0.327,1.099,0.327
			c0.474,0,0.825-0.097,1.055-0.29c0.229-0.192,0.344-0.419,0.344-0.679c0-0.233-0.101-0.417-0.304-0.551
			c-0.142-0.092-0.493-0.208-1.055-0.35c-0.757-0.191-1.281-0.356-1.574-0.496c-0.292-0.14-0.514-0.333-0.665-0.579
			c-0.151-0.247-0.227-0.519-0.227-0.817c0-0.271,0.063-0.522,0.187-0.754s0.293-0.423,0.508-0.576
			c0.16-0.118,0.379-0.219,0.656-0.301s0.574-0.123,0.892-0.123c0.478,0,0.897,0.068,1.259,0.206s0.628,0.324,0.8,0.559
			c0.172,0.235,0.29,0.55,0.355,0.943l-1.01,0.138c-0.046-0.313-0.179-0.558-0.398-0.733s-0.53-0.265-0.932-0.265
			c-0.474,0-0.813,0.079-1.015,0.235c-0.203,0.157-0.304,0.341-0.304,0.551c0,0.134,0.042,0.254,0.126,0.361
			c0.084,0.11,0.216,0.202,0.396,0.275c0.104,0.038,0.407,0.126,0.912,0.264c0.729,0.194,1.239,0.354,1.527,0.479
			c0.289,0.124,0.516,0.305,0.68,0.542s0.247,0.531,0.247,0.883c0,0.344-0.101,0.668-0.302,0.972c-0.2,0.304-0.49,0.539-0.868,0.706
			c-0.379,0.166-0.807,0.249-1.284,0.249c-0.792,0-1.395-0.164-1.81-0.493S61.536,86.55,61.422,85.905z"/>
		<path style="fill:#2C6882;" d="M10.727,99.335l1.003,0.148c0.042,0.31,0.159,0.535,0.351,0.677
			c0.256,0.191,0.605,0.287,1.049,0.287c0.478,0,0.847-0.096,1.106-0.287s0.437-0.459,0.527-0.803
			c0.054-0.21,0.079-0.651,0.075-1.324c-0.451,0.531-1.014,0.797-1.686,0.797c-0.838,0-1.485-0.302-1.944-0.906
			c-0.459-0.604-0.688-1.328-0.688-2.173c0-0.581,0.104-1.117,0.314-1.608c0.211-0.491,0.516-0.87,0.915-1.138
			s0.869-0.401,1.407-0.401c0.719,0,1.312,0.29,1.778,0.871V92.74h0.951v5.264c0,0.948-0.097,1.62-0.289,2.016
			c-0.193,0.396-0.499,0.708-0.918,0.938c-0.418,0.229-0.934,0.345-1.545,0.345c-0.727,0-1.313-0.164-1.761-0.49
			C10.927,100.484,10.711,99.992,10.727,99.335z M11.581,95.676c0,0.799,0.158,1.382,0.476,1.748
			c0.317,0.367,0.715,0.551,1.192,0.551c0.475,0,0.872-0.183,1.193-0.548c0.32-0.364,0.481-0.938,0.481-1.717
			c0-0.745-0.165-1.308-0.496-1.686c-0.331-0.379-0.729-0.568-1.195-0.568c-0.459,0-0.849,0.187-1.17,0.56
			C11.741,94.388,11.581,94.942,11.581,95.676z"/>
		<path style="fill:#2C6882;" d="M17.436,98.83v-6.09h0.929v0.924c0.237-0.433,0.456-0.717,0.656-0.854
			c0.201-0.138,0.422-0.206,0.663-0.206c0.348,0,0.701,0.11,1.061,0.332l-0.355,0.958c-0.253-0.149-0.505-0.224-0.757-0.224
			c-0.226,0-0.429,0.067-0.608,0.203s-0.308,0.324-0.384,0.564c-0.114,0.367-0.172,0.769-0.172,1.204v3.188H17.436z"/>
		<path style="fill:#2C6882;" d="M25.348,98.83v-0.895c-0.474,0.688-1.118,1.032-1.932,1.032c-0.359,0-0.695-0.069-1.007-0.206
			c-0.312-0.138-0.543-0.311-0.693-0.52c-0.151-0.208-0.258-0.463-0.318-0.766c-0.042-0.202-0.063-0.523-0.063-0.963V92.74h1.032
			v3.378c0,0.539,0.021,0.902,0.063,1.089c0.064,0.271,0.202,0.484,0.412,0.64c0.211,0.155,0.471,0.232,0.78,0.232
			s0.6-0.079,0.871-0.238c0.271-0.158,0.464-0.374,0.576-0.647c0.113-0.273,0.17-0.67,0.17-1.19V92.74h1.032v6.09H25.348z"/>
		<path style="fill:#2C6882;" d="M27.889,101.164V92.74h0.94v0.792c0.222-0.31,0.472-0.542,0.751-0.697
			c0.278-0.154,0.617-0.231,1.015-0.231c0.52,0,0.979,0.134,1.376,0.401c0.397,0.268,0.698,0.645,0.9,1.132s0.304,1.021,0.304,1.603
			c0,0.623-0.111,1.185-0.335,1.684c-0.224,0.498-0.549,0.881-0.975,1.146c-0.427,0.266-0.875,0.398-1.345,0.398
			c-0.345,0-0.653-0.072-0.927-0.218c-0.272-0.146-0.497-0.329-0.673-0.551v2.965H27.889z M28.824,95.819
			c0,0.784,0.158,1.363,0.476,1.738c0.317,0.374,0.701,0.562,1.152,0.562c0.459,0,0.852-0.194,1.179-0.582s0.49-0.989,0.49-1.804
			c0-0.775-0.16-1.356-0.479-1.743c-0.319-0.386-0.701-0.579-1.145-0.579c-0.439,0-0.828,0.206-1.167,0.617
			C28.992,94.438,28.824,95.036,28.824,95.819z"/>
		<path style="fill:#2C6882;" d="M34.035,95.785c0-1.127,0.313-1.963,0.94-2.506c0.523-0.45,1.162-0.676,1.915-0.676
			c0.838,0,1.521,0.273,2.053,0.822s0.797,1.307,0.797,2.273c0,0.784-0.117,1.4-0.353,1.85c-0.234,0.449-0.577,0.798-1.026,1.046
			c-0.449,0.249-0.939,0.373-1.471,0.373c-0.853,0-1.541-0.273-2.066-0.82C34.298,97.601,34.035,96.813,34.035,95.785z
			 M35.096,95.785c0,0.78,0.171,1.364,0.511,1.752s0.769,0.582,1.284,0.582c0.513,0,0.938-0.195,1.279-0.585
			c0.34-0.39,0.51-0.984,0.51-1.783c0-0.753-0.171-1.323-0.513-1.712c-0.343-0.388-0.768-0.582-1.276-0.582
			c-0.516,0-0.944,0.193-1.284,0.579C35.267,94.423,35.096,95.006,35.096,95.785z"/>
		<path style="fill:#2C6882;" d="M40.538,97.012l1.021-0.161c0.058,0.409,0.217,0.723,0.479,0.94s0.628,0.327,1.099,0.327
			c0.474,0,0.825-0.097,1.055-0.29c0.229-0.192,0.344-0.419,0.344-0.679c0-0.233-0.101-0.417-0.304-0.551
			c-0.142-0.092-0.493-0.208-1.055-0.35c-0.757-0.191-1.281-0.356-1.574-0.496c-0.292-0.14-0.514-0.333-0.665-0.579
			c-0.151-0.247-0.227-0.519-0.227-0.817c0-0.271,0.063-0.522,0.187-0.754s0.293-0.423,0.508-0.576
			c0.16-0.118,0.379-0.219,0.656-0.301s0.574-0.123,0.892-0.123c0.478,0,0.897,0.068,1.259,0.206s0.628,0.324,0.8,0.559
			c0.172,0.235,0.29,0.55,0.355,0.943l-1.01,0.138c-0.046-0.313-0.179-0.558-0.398-0.733s-0.53-0.265-0.932-0.265
			c-0.474,0-0.813,0.079-1.015,0.235c-0.203,0.157-0.304,0.341-0.304,0.551c0,0.134,0.042,0.254,0.126,0.361
			c0.084,0.11,0.216,0.202,0.396,0.275c0.104,0.038,0.407,0.126,0.912,0.264c0.729,0.194,1.239,0.354,1.527,0.479
			c0.289,0.124,0.516,0.305,0.68,0.542s0.247,0.531,0.247,0.883c0,0.344-0.101,0.668-0.302,0.972c-0.2,0.304-0.49,0.539-0.868,0.706
			c-0.379,0.166-0.807,0.249-1.284,0.249c-0.792,0-1.395-0.164-1.81-0.493S40.653,97.658,40.538,97.012z"/>
		<path style="fill:#2C6882;" d="M50.091,91.611v-1.188h1.031v1.188H50.091z M50.091,98.83v-6.09h1.031v6.09H50.091z"/>
		<path style="fill:#2C6882;" d="M52.695,98.83v-6.09h0.929v0.866c0.447-0.669,1.093-1.003,1.938-1.003
			c0.367,0,0.705,0.065,1.013,0.197s0.538,0.305,0.69,0.519c0.153,0.215,0.26,0.469,0.321,0.763
			c0.038,0.191,0.058,0.526,0.058,1.004v3.744h-1.032v-3.704c0-0.421-0.04-0.734-0.12-0.943c-0.081-0.208-0.223-0.374-0.428-0.499
			c-0.204-0.124-0.444-0.187-0.72-0.187c-0.439,0-0.818,0.14-1.138,0.419s-0.479,0.809-0.479,1.589v3.325H52.695z"/>
		<path style="fill:#2C6882;" d="M61.479,97.907l0.149,0.911c-0.291,0.062-0.551,0.092-0.78,0.092c-0.374,0-0.665-0.06-0.871-0.178
			c-0.207-0.118-0.352-0.274-0.436-0.467c-0.085-0.193-0.127-0.6-0.127-1.219v-3.504h-0.757V92.74h0.757v-1.508l1.026-0.619v2.127
			h1.038v0.803h-1.038v3.562c0,0.294,0.019,0.483,0.055,0.567s0.096,0.151,0.178,0.2c0.082,0.05,0.2,0.075,0.353,0.075
			C61.141,97.947,61.291,97.933,61.479,97.907z"/>
		<path style="fill:#2C6882;" d="M66.657,96.869l1.066,0.132c-0.168,0.623-0.479,1.106-0.935,1.45
			c-0.455,0.345-1.036,0.517-1.743,0.517c-0.891,0-1.597-0.274-2.118-0.823c-0.521-0.548-0.783-1.317-0.783-2.308
			c0-1.024,0.264-1.819,0.792-2.386c0.527-0.565,1.211-0.848,2.053-0.848c0.813,0,1.479,0.276,1.995,0.831
			c0.516,0.554,0.774,1.334,0.774,2.339c0,0.062-0.002,0.153-0.006,0.275H63.21c0.039,0.669,0.228,1.182,0.568,1.537
			c0.34,0.355,0.765,0.533,1.272,0.533c0.379,0,0.701-0.1,0.97-0.298C66.287,97.622,66.5,97.304,66.657,96.869z M63.268,95.2h3.4
			c-0.046-0.512-0.176-0.896-0.39-1.152c-0.329-0.397-0.755-0.597-1.279-0.597c-0.474,0-0.872,0.159-1.195,0.477
			C63.481,94.245,63.302,94.669,63.268,95.2z"/>
		<path style="fill:#2C6882;" d="M69.008,98.83v-6.09h0.929v0.924c0.237-0.433,0.456-0.717,0.656-0.854
			c0.201-0.138,0.422-0.206,0.663-0.206c0.348,0,0.701,0.11,1.061,0.332l-0.355,0.958c-0.253-0.149-0.505-0.224-0.757-0.224
			c-0.226,0-0.429,0.067-0.608,0.203s-0.308,0.324-0.384,0.564c-0.114,0.367-0.172,0.769-0.172,1.204v3.188H69.008z"/>
		<path style="fill:#2C6882;" d="M77.098,96.869l1.066,0.132c-0.168,0.623-0.479,1.106-0.935,1.45
			c-0.455,0.345-1.036,0.517-1.743,0.517c-0.891,0-1.597-0.274-2.118-0.823c-0.521-0.548-0.783-1.317-0.783-2.308
			c0-1.024,0.264-1.819,0.792-2.386c0.527-0.565,1.211-0.848,2.053-0.848c0.813,0,1.479,0.276,1.995,0.831
			c0.516,0.554,0.774,1.334,0.774,2.339c0,0.062-0.002,0.153-0.006,0.275h-4.542c0.039,0.669,0.228,1.182,0.568,1.537
			c0.34,0.355,0.765,0.533,1.272,0.533c0.379,0,0.701-0.1,0.97-0.298C76.729,97.622,76.942,97.304,77.098,96.869z M73.709,95.2h3.4
			c-0.046-0.512-0.176-0.896-0.39-1.152c-0.329-0.397-0.755-0.597-1.279-0.597c-0.474,0-0.872,0.159-1.195,0.477
			S73.743,94.669,73.709,95.2z M74.822,91.983l0.763-1.605h1.354l-1.262,1.605H74.822z"/>
		<path style="fill:#2C6882;" d="M79.048,97.012l1.021-0.161c0.058,0.409,0.217,0.723,0.479,0.94s0.628,0.327,1.099,0.327
			c0.474,0,0.825-0.097,1.055-0.29c0.229-0.192,0.344-0.419,0.344-0.679c0-0.233-0.101-0.417-0.304-0.551
			c-0.142-0.092-0.493-0.208-1.055-0.35c-0.757-0.191-1.281-0.356-1.574-0.496c-0.292-0.14-0.514-0.333-0.665-0.579
			c-0.151-0.247-0.227-0.519-0.227-0.817c0-0.271,0.063-0.522,0.187-0.754s0.293-0.423,0.508-0.576
			c0.16-0.118,0.379-0.219,0.656-0.301s0.574-0.123,0.892-0.123c0.478,0,0.897,0.068,1.259,0.206s0.628,0.324,0.8,0.559
			c0.172,0.235,0.29,0.55,0.355,0.943l-1.01,0.138c-0.046-0.313-0.179-0.558-0.398-0.733s-0.53-0.265-0.932-0.265
			c-0.474,0-0.813,0.079-1.015,0.235c-0.203,0.157-0.304,0.341-0.304,0.551c0,0.134,0.042,0.254,0.126,0.361
			c0.084,0.11,0.216,0.202,0.396,0.275c0.104,0.038,0.407,0.126,0.912,0.264c0.729,0.194,1.239,0.354,1.527,0.479
			c0.289,0.124,0.516,0.305,0.68,0.542s0.247,0.531,0.247,0.883c0,0.344-0.101,0.668-0.302,0.972c-0.2,0.304-0.49,0.539-0.868,0.706
			c-0.379,0.166-0.807,0.249-1.284,0.249c-0.792,0-1.395-0.164-1.81-0.493S79.162,97.658,79.048,97.012z"/>
		<path style="fill:#2C6882;" d="M85.618,93.916V92.74h1.176v1.176H85.618z M85.618,98.83v-1.176h1.176v1.176H85.618z"/>
	</g>
	<g>
		<path style="fill:#2C6882;" d="M194.805,152.867v-8.005h3.02c0.531,0,0.938,0.026,1.218,0.077c0.394,0.065,0.723,0.19,0.988,0.374
			s0.479,0.441,0.642,0.772s0.243,0.695,0.243,1.092c0,0.681-0.217,1.257-0.65,1.729c-0.433,0.471-1.216,0.707-2.348,0.707h-2.053
			v3.254H194.805z M195.865,148.668h2.069c0.685,0,1.17-0.127,1.458-0.382c0.287-0.255,0.432-0.613,0.432-1.075
			c0-0.335-0.085-0.622-0.254-0.86c-0.17-0.238-0.393-0.396-0.669-0.473c-0.179-0.047-0.508-0.07-0.988-0.07h-2.048V148.668z"/>
		<path style="fill:#2C6882;" d="M202.416,152.867v-1.119h1.119v1.119H202.416z"/>
		<path style="fill:#2C6882;" d="M211.223,150.296l1-0.088c0.047,0.4,0.157,0.729,0.33,0.985c0.173,0.257,0.441,0.465,0.805,0.623
			c0.364,0.158,0.773,0.237,1.229,0.237c0.404,0,0.761-0.061,1.07-0.181s0.54-0.284,0.691-0.494c0.15-0.209,0.227-0.438,0.227-0.685
			c0-0.251-0.073-0.471-0.219-0.658s-0.386-0.345-0.721-0.473c-0.215-0.083-0.689-0.214-1.425-0.39
			c-0.735-0.177-1.251-0.344-1.546-0.5c-0.382-0.2-0.667-0.448-0.854-0.745s-0.281-0.629-0.281-0.996
			c0-0.404,0.115-0.782,0.345-1.134c0.229-0.351,0.563-0.617,1.004-0.8c0.44-0.182,0.931-0.272,1.469-0.272
			c0.594,0,1.117,0.096,1.57,0.286c0.453,0.191,0.802,0.473,1.046,0.844c0.243,0.371,0.374,0.792,0.393,1.262l-1.016,0.076
			c-0.055-0.506-0.239-0.889-0.554-1.146c-0.315-0.259-0.78-0.388-1.396-0.388c-0.641,0-1.107,0.117-1.4,0.352
			c-0.293,0.235-0.439,0.519-0.439,0.85c0,0.287,0.104,0.524,0.312,0.71c0.203,0.186,0.736,0.376,1.597,0.57
			c0.861,0.194,1.451,0.365,1.771,0.511c0.466,0.215,0.811,0.486,1.032,0.816c0.222,0.329,0.333,0.709,0.333,1.138
			c0,0.426-0.122,0.827-0.365,1.204c-0.244,0.377-0.595,0.67-1.052,0.879c-0.457,0.21-0.971,0.314-1.542,0.314
			c-0.725,0-1.332-0.105-1.821-0.317c-0.489-0.211-0.873-0.528-1.152-0.952C211.384,151.31,211.238,150.831,211.223,150.296z"/>
		<path style="fill:#2C6882;" d="M218.721,148.968c0-1.328,0.356-2.369,1.069-3.12c0.714-0.752,1.635-1.128,2.763-1.128
			c0.739,0,1.405,0.177,1.999,0.529c0.593,0.354,1.045,0.846,1.356,1.478s0.467,1.348,0.467,2.148c0,0.812-0.164,1.538-0.491,2.179
			s-0.792,1.125-1.393,1.455c-0.601,0.329-1.248,0.494-1.943,0.494c-0.754,0-1.427-0.183-2.021-0.546
			c-0.593-0.364-1.043-0.861-1.349-1.491C218.873,150.338,218.721,149.671,218.721,148.968z M219.813,148.985
			c0,0.965,0.259,1.725,0.777,2.279c0.52,0.555,1.17,0.833,1.952,0.833c0.798,0,1.453-0.28,1.969-0.841
			c0.515-0.561,0.772-1.356,0.772-2.387c0-0.651-0.11-1.22-0.33-1.706c-0.221-0.485-0.543-0.862-0.967-1.13s-0.9-0.401-1.428-0.401
			c-0.75,0-1.395,0.258-1.936,0.772S219.813,147.78,219.813,148.985z"/>
		<path style="fill:#2C6882;" d="M227.74,152.867v-8.005h3.02c0.531,0,0.938,0.026,1.218,0.077c0.394,0.065,0.723,0.19,0.988,0.374
			s0.479,0.441,0.642,0.772s0.243,0.695,0.243,1.092c0,0.681-0.217,1.257-0.65,1.729c-0.433,0.471-1.216,0.707-2.348,0.707h-2.053
			v3.254H227.74z M228.799,148.668h2.069c0.685,0,1.17-0.127,1.458-0.382c0.287-0.255,0.432-0.613,0.432-1.075
			c0-0.335-0.085-0.622-0.254-0.86c-0.17-0.238-0.393-0.396-0.669-0.473c-0.179-0.047-0.508-0.07-0.988-0.07h-2.048V148.668z"/>
		<path style="fill:#2C6882;" d="M234.877,148.968c0-1.328,0.356-2.369,1.069-3.12c0.714-0.752,1.635-1.128,2.763-1.128
			c0.739,0,1.405,0.177,1.999,0.529c0.593,0.354,1.045,0.846,1.356,1.478s0.467,1.348,0.467,2.148c0,0.812-0.164,1.538-0.491,2.179
			s-0.792,1.125-1.393,1.455c-0.601,0.329-1.248,0.494-1.943,0.494c-0.754,0-1.427-0.183-2.021-0.546
			c-0.593-0.364-1.043-0.861-1.349-1.491C235.03,150.338,234.877,149.671,234.877,148.968z M235.969,148.985
			c0,0.965,0.259,1.725,0.777,2.279c0.52,0.555,1.17,0.833,1.952,0.833c0.798,0,1.453-0.28,1.969-0.841
			c0.515-0.561,0.772-1.356,0.772-2.387c0-0.651-0.11-1.22-0.33-1.706c-0.221-0.485-0.543-0.862-0.967-1.13s-0.9-0.401-1.428-0.401
			c-0.75,0-1.395,0.258-1.936,0.772S235.969,147.78,235.969,148.985z"/>
		<path style="fill:#2C6882;" d="M243.912,152.867v-8.005h3.549c0.714,0,1.256,0.072,1.627,0.216
			c0.372,0.145,0.668,0.398,0.891,0.762c0.222,0.364,0.333,0.767,0.333,1.207c0,0.567-0.184,1.047-0.552,1.436
			c-0.367,0.39-0.936,0.638-1.703,0.743c0.28,0.135,0.493,0.268,0.639,0.398c0.31,0.284,0.603,0.639,0.879,1.064l1.393,2.179h-1.332
			l-1.06-1.665c-0.31-0.48-0.564-0.849-0.765-1.104s-0.379-0.433-0.538-0.535c-0.158-0.102-0.319-0.173-0.482-0.213
			c-0.12-0.025-0.317-0.038-0.59-0.038h-1.229v3.555H243.912z M244.972,148.395h2.276c0.484,0,0.863-0.05,1.136-0.15
			c0.273-0.1,0.48-0.26,0.623-0.48c0.142-0.22,0.213-0.459,0.213-0.718c0-0.379-0.138-0.689-0.412-0.934
			c-0.275-0.244-0.709-0.366-1.303-0.366h-2.533V148.395z"/>
		<path style="fill:#2C6882;" d="M254.008,152.867v-7.06h-2.638v-0.945h6.345v0.945h-2.647v7.06H254.008z"/>
		<path style="fill:#2C6882;" d="M258.824,152.867v-8.005h5.787v0.945h-4.729v2.451h4.429v0.939h-4.429v2.725h4.914v0.944H258.824z"
			/>
	</g>
	<g>
		<path style="fill:#2C6882;" d="M204.692,170.409c-0.542-0.685-1.001-1.485-1.376-2.402c-0.375-0.918-0.563-1.867-0.563-2.851
			c0-0.866,0.141-1.696,0.421-2.489c0.327-0.921,0.833-1.839,1.518-2.752h0.704c-0.44,0.757-0.731,1.298-0.873,1.621
			c-0.223,0.503-0.397,1.026-0.524,1.572c-0.156,0.682-0.234,1.365-0.234,2.054c0,1.751,0.544,3.5,1.632,5.247H204.692z"/>
		<path style="fill:#2C6882;" d="M210.408,164.916v-0.939l3.391-0.005v2.97c-0.521,0.415-1.058,0.728-1.61,0.937
			c-0.554,0.21-1.122,0.314-1.704,0.314c-0.786,0-1.501-0.169-2.143-0.505c-0.643-0.337-1.128-0.824-1.455-1.461
			c-0.328-0.637-0.492-1.349-0.492-2.135c0-0.779,0.163-1.506,0.489-2.182c0.325-0.675,0.794-1.177,1.406-1.504
			c0.611-0.328,1.315-0.491,2.112-0.491c0.579,0,1.103,0.094,1.57,0.281s0.834,0.448,1.1,0.783s0.468,0.771,0.606,1.311
			l-0.956,0.262c-0.12-0.407-0.269-0.728-0.447-0.961c-0.179-0.232-0.434-0.419-0.765-0.56c-0.331-0.14-0.698-0.21-1.103-0.21
			c-0.484,0-0.903,0.073-1.256,0.221c-0.354,0.147-0.638,0.342-0.854,0.582s-0.385,0.504-0.505,0.791
			c-0.204,0.495-0.306,1.032-0.306,1.611c0,0.713,0.122,1.311,0.368,1.791s0.604,0.837,1.073,1.07
			c0.47,0.232,0.968,0.349,1.496,0.349c0.458,0,0.906-0.088,1.343-0.265s0.768-0.364,0.994-0.565v-1.49H210.408z"/>
		<path style="fill:#2C6882;" d="M215.383,168.055v-8.005h5.787v0.945h-4.729v2.451h4.429v0.939h-4.429v2.725h4.914v0.944H215.383z"
			/>
		<path style="fill:#2C6882;" d="M222.458,165.484l1-0.088c0.047,0.4,0.157,0.729,0.33,0.985c0.173,0.257,0.441,0.465,0.805,0.623
			c0.364,0.158,0.773,0.237,1.229,0.237c0.404,0,0.761-0.061,1.07-0.181s0.54-0.284,0.691-0.494c0.15-0.209,0.227-0.438,0.227-0.685
			c0-0.251-0.073-0.471-0.219-0.658s-0.386-0.345-0.721-0.473c-0.215-0.083-0.689-0.214-1.425-0.39
			c-0.735-0.177-1.251-0.344-1.546-0.5c-0.382-0.2-0.667-0.448-0.854-0.745s-0.281-0.629-0.281-0.996
			c0-0.404,0.115-0.782,0.345-1.134c0.229-0.351,0.563-0.617,1.004-0.8c0.44-0.182,0.931-0.272,1.469-0.272
			c0.594,0,1.117,0.096,1.57,0.286c0.453,0.191,0.802,0.473,1.046,0.844c0.243,0.371,0.374,0.792,0.393,1.262l-1.016,0.076
			c-0.055-0.506-0.239-0.889-0.554-1.146c-0.315-0.259-0.78-0.388-1.396-0.388c-0.641,0-1.107,0.117-1.4,0.352
			c-0.293,0.235-0.439,0.519-0.439,0.85c0,0.287,0.104,0.524,0.312,0.71c0.203,0.186,0.736,0.376,1.597,0.57
			c0.861,0.194,1.451,0.365,1.771,0.511c0.466,0.215,0.811,0.486,1.032,0.816c0.222,0.329,0.333,0.709,0.333,1.138
			c0,0.426-0.122,0.827-0.365,1.204c-0.244,0.377-0.595,0.67-1.052,0.879c-0.457,0.21-0.971,0.314-1.542,0.314
			c-0.725,0-1.332-0.105-1.821-0.317c-0.489-0.211-0.873-0.528-1.152-0.952C222.619,166.499,222.473,166.019,222.458,165.484z"/>
		<path style="fill:#2C6882;" d="M232.314,168.055v-7.06h-2.638v-0.945h6.345v0.945h-2.647v7.06H232.314z"/>
		<path style="fill:#2C6882;" d="M237.288,168.055v-8.005h1.06v8.005H237.288z"/>
		<path style="fill:#2C6882;" d="M239.893,164.157c0-1.328,0.356-2.369,1.069-3.12c0.714-0.752,1.635-1.128,2.763-1.128
			c0.739,0,1.405,0.177,1.999,0.529c0.593,0.354,1.045,0.846,1.356,1.478s0.467,1.348,0.467,2.148c0,0.812-0.164,1.538-0.491,2.179
			s-0.792,1.125-1.393,1.455c-0.601,0.329-1.248,0.494-1.943,0.494c-0.754,0-1.427-0.183-2.021-0.546
			c-0.593-0.364-1.043-0.861-1.349-1.491C240.045,165.526,239.893,164.859,239.893,164.157z M240.985,164.174
			c0,0.965,0.259,1.725,0.777,2.279c0.52,0.555,1.17,0.833,1.952,0.833c0.798,0,1.453-0.28,1.969-0.841
			c0.515-0.561,0.772-1.356,0.772-2.387c0-0.651-0.11-1.22-0.33-1.706c-0.221-0.485-0.543-0.862-0.967-1.13s-0.9-0.401-1.428-0.401
			c-0.75,0-1.395,0.258-1.936,0.772S240.985,162.968,240.985,164.174z M243.048,159.559l0.727-1.528h1.288l-1.201,1.528H243.048z"/>
		<path style="fill:#2C6882;" d="M248.902,168.055v-8.005h1.087l4.204,6.285v-6.285h1.016v8.005h-1.087l-4.204-6.29v6.29H248.902z"
			/>
		<path style="fill:#2C6882;" d="M257.507,170.409h-0.705c1.089-1.747,1.633-3.496,1.633-5.247c0-0.685-0.078-1.363-0.234-2.037
			c-0.124-0.546-0.297-1.07-0.52-1.572c-0.142-0.327-0.435-0.874-0.879-1.638h0.705c0.684,0.913,1.189,1.831,1.518,2.752
			c0.28,0.793,0.42,1.623,0.42,2.489c0,0.983-0.188,1.933-0.564,2.851C258.503,168.924,258.045,169.724,257.507,170.409z"/>
	</g>
</g>
</svg>
