<?xml version="1.0" encoding="utf-8"?>
<!-- Generator: Adobe Illustrator 17.0.0, SVG Export Plug-In . SVG Version: 6.00 Build 0)  -->
<!DOCTYPE svg PUBLIC "-//W3C//DTD SVG 1.1//EN" "http://www.w3.org/Graphics/SVG/1.1/DTD/svg11.dtd">
<svg version="1.1" id="Capa_1" xmlns="http://www.w3.org/2000/svg" xmlns:xlink="http://www.w3.org/1999/xlink" x="0px" y="0px"
	 width="396.582px" height="160.749px" viewBox="0 0 396.582 160.749" style="enable-background:new 0 0 396.582 160.749;"
	 xml:space="preserve">
<g>
	<polygon style="fill:#01637C;stroke:#000000;stroke-miterlimit:10;" points="396.082,0.5 0.5,0.5 0.5,116.723 41.314,116.723 
		72.108,116.723 53.339,159.079 106.27,116.723 396.082,116.723 	"/>
	<g>
		<polygon style="fill:#FFFFFF;" points="80.482,112.522 5.791,112.522 5.791,4.648 391.589,4.648 391.589,112.522 104.713,112.522 
			63.795,143.907 		"/>
		<g>
			<polyline style="fill:none;stroke:#000000;stroke-width:0.75;stroke-miterlimit:10;" points="80.012,113.405 80.482,112.522 
				79.482,112.522 			"/>
			
				<line style="fill:none;stroke:#000000;stroke-width:0.75;stroke-miterlimit:10;stroke-dasharray:1.9646,1.9646;" x1="77.517" y1="112.522" x2="7.774" y2="112.522"/>
			<polyline style="fill:none;stroke:#000000;stroke-width:0.75;stroke-miterlimit:10;" points="6.791,112.522 5.791,112.522 
				5.791,111.522 			"/>
			
				<line style="fill:none;stroke:#000000;stroke-width:0.75;stroke-miterlimit:10;stroke-dasharray:1.9976,1.9976;" x1="5.791" y1="109.525" x2="5.791" y2="6.647"/>
			<polyline style="fill:none;stroke:#000000;stroke-width:0.75;stroke-miterlimit:10;" points="5.791,5.648 5.791,4.648 
				6.791,4.648 			"/>
			
				<line style="fill:none;stroke:#000000;stroke-width:0.75;stroke-miterlimit:10;stroke-dasharray:2.0094,2.0094;" x1="8.801" y1="4.648" x2="389.584" y2="4.648"/>
			<polyline style="fill:none;stroke:#000000;stroke-width:0.75;stroke-miterlimit:10;" points="390.589,4.648 391.589,4.648 
				391.589,5.648 			"/>
			
				<line style="fill:none;stroke:#000000;stroke-width:0.75;stroke-miterlimit:10;stroke-dasharray:1.9976,1.9976;" x1="391.589" y1="7.646" x2="391.589" y2="110.523"/>
			<polyline style="fill:none;stroke:#000000;stroke-width:0.75;stroke-miterlimit:10;" points="391.589,111.522 391.589,112.522 
				390.589,112.522 			"/>
			<polyline style="fill:none;stroke:#000000;stroke-width:0.75;stroke-miterlimit:10;stroke-dasharray:1.9908,1.9908;" points="
				388.598,112.522 104.713,112.522 65.378,142.693 			"/>
			<polyline style="fill:none;stroke:#000000;stroke-width:0.75;stroke-miterlimit:10;" points="64.589,143.299 63.795,143.907 
				64.265,143.024 			"/>
			
				<line style="fill:none;stroke:#000000;stroke-width:0.75;stroke-miterlimit:10;stroke-dasharray:1.9732,1.9732;" x1="65.191" y1="141.282" x2="79.549" y2="114.276"/>
		</g>
	</g>
	<g>
		<g>
			<path style="fill:#2C6882;" d="M16.746,29.332V19.31h3.028l1.818,6.836l1.798-6.836h3.035v10.021h-1.88v-7.889l-1.989,7.889
				h-1.948l-1.982-7.889v7.889H16.746z"/>
			<path style="fill:#2C6882;" d="M29.661,24.287l-1.743-0.314c0.196-0.702,0.533-1.222,1.012-1.559s1.189-0.506,2.133-0.506
				c0.856,0,1.495,0.102,1.914,0.305c0.419,0.202,0.715,0.46,0.885,0.771c0.172,0.313,0.257,0.886,0.257,1.72l-0.021,2.242
				c0,0.638,0.031,1.108,0.092,1.411c0.063,0.304,0.177,0.628,0.346,0.975h-1.9c-0.05-0.128-0.111-0.316-0.185-0.567
				c-0.032-0.114-0.055-0.189-0.068-0.226c-0.328,0.319-0.679,0.559-1.053,0.718s-0.772,0.239-1.196,0.239
				c-0.747,0-1.336-0.203-1.768-0.608c-0.43-0.405-0.646-0.918-0.646-1.538c0-0.41,0.098-0.775,0.294-1.098
				c0.196-0.32,0.471-0.566,0.824-0.738c0.353-0.17,0.862-0.319,1.527-0.447c0.897-0.169,1.52-0.326,1.866-0.472v-0.191
				c0-0.369-0.091-0.632-0.273-0.79c-0.183-0.156-0.526-0.235-1.032-0.235c-0.342,0-0.608,0.067-0.8,0.202
				C29.934,23.714,29.779,23.95,29.661,24.287z M32.231,25.845c-0.246,0.082-0.636,0.18-1.169,0.294s-0.882,0.226-1.046,0.335
				c-0.251,0.178-0.376,0.403-0.376,0.677c0,0.269,0.101,0.501,0.301,0.697s0.456,0.294,0.766,0.294
				c0.347,0,0.677-0.114,0.991-0.342c0.232-0.173,0.385-0.385,0.458-0.636c0.05-0.164,0.075-0.477,0.075-0.937V25.845z"/>
			<path style="fill:#2C6882;" d="M42.146,24.219l-1.894,0.342c-0.063-0.378-0.209-0.663-0.434-0.854
				c-0.227-0.191-0.519-0.287-0.879-0.287c-0.479,0-0.86,0.165-1.145,0.495c-0.285,0.331-0.428,0.884-0.428,1.658
				c0,0.861,0.145,1.47,0.434,1.825c0.29,0.355,0.679,0.533,1.166,0.533c0.364,0,0.663-0.104,0.896-0.312
				c0.232-0.207,0.396-0.563,0.492-1.069l1.887,0.321c-0.196,0.866-0.572,1.52-1.128,1.962s-1.301,0.663-2.235,0.663
				c-1.062,0-1.908-0.335-2.54-1.005c-0.631-0.67-0.946-1.598-0.946-2.782c0-1.198,0.316-2.132,0.95-2.799
				c0.634-0.668,1.49-1.002,2.57-1.002c0.884,0,1.587,0.19,2.109,0.57C41.544,22.859,41.919,23.439,42.146,24.219z"/>
			<path style="fill:#2C6882;" d="M45.245,29.332h-1.921v-7.26h1.784v1.032c0.306-0.487,0.58-0.809,0.824-0.964
				c0.243-0.155,0.521-0.232,0.83-0.232c0.438,0,0.859,0.121,1.265,0.362l-0.595,1.675c-0.323-0.21-0.624-0.314-0.902-0.314
				c-0.269,0-0.497,0.074-0.684,0.223c-0.187,0.147-0.334,0.415-0.441,0.803c-0.106,0.388-0.16,1.198-0.16,2.434V29.332z"/>
			<path style="fill:#2C6882;" d="M48.214,25.599c0-0.638,0.157-1.256,0.472-1.853s0.76-1.053,1.337-1.367
				c0.576-0.314,1.22-0.472,1.931-0.472c1.099,0,1.998,0.356,2.7,1.07c0.702,0.713,1.053,1.614,1.053,2.703
				c0,1.099-0.354,2.009-1.063,2.73c-0.709,0.723-1.602,1.084-2.677,1.084c-0.665,0-1.3-0.15-1.903-0.451
				c-0.604-0.301-1.063-0.742-1.378-1.322C48.371,27.14,48.214,26.433,48.214,25.599z M50.183,25.702
				c0,0.72,0.171,1.271,0.513,1.654s0.764,0.574,1.265,0.574s0.922-0.191,1.262-0.574c0.339-0.383,0.509-0.938,0.509-1.668
				c0-0.711-0.17-1.258-0.509-1.641c-0.34-0.383-0.761-0.574-1.262-0.574s-0.923,0.191-1.265,0.574S50.183,24.982,50.183,25.702z"/>
			<path style="fill:#2C6882;" d="M60.489,26.659v-1.921h3.773v1.921H60.489z"/>
			<path style="fill:#2C6882;" d="M68.881,29.332V19.31h3.247c1.23,0,2.032,0.05,2.406,0.15c0.574,0.15,1.055,0.478,1.442,0.98
				c0.388,0.504,0.581,1.154,0.581,1.952c0,0.615-0.111,1.133-0.335,1.552s-0.507,0.748-0.851,0.988
				c-0.345,0.238-0.694,0.397-1.05,0.475c-0.483,0.096-1.183,0.144-2.099,0.144h-1.319v3.78H68.881z M70.904,21.006v2.844h1.107
				c0.798,0,1.331-0.053,1.6-0.157s0.479-0.269,0.632-0.492c0.153-0.224,0.229-0.483,0.229-0.779c0-0.364-0.107-0.665-0.321-0.902
				s-0.485-0.385-0.813-0.444c-0.241-0.046-0.727-0.068-1.456-0.068H70.904z"/>
			<path style="fill:#2C6882;" d="M79.849,29.332h-1.921v-7.26h1.784v1.032c0.306-0.487,0.58-0.809,0.824-0.964
				c0.243-0.155,0.521-0.232,0.83-0.232c0.438,0,0.859,0.121,1.265,0.362l-0.595,1.675c-0.323-0.21-0.624-0.314-0.902-0.314
				c-0.269,0-0.497,0.074-0.684,0.223c-0.187,0.147-0.334,0.415-0.441,0.803c-0.106,0.388-0.16,1.198-0.16,2.434V29.332z"/>
			<path style="fill:#2C6882;" d="M82.817,25.599c0-0.638,0.157-1.256,0.472-1.853s0.76-1.053,1.337-1.367
				c0.576-0.314,1.22-0.472,1.931-0.472c1.099,0,1.998,0.356,2.7,1.07c0.702,0.713,1.053,1.614,1.053,2.703
				c0,1.099-0.354,2.009-1.063,2.73c-0.709,0.723-1.602,1.084-2.677,1.084c-0.665,0-1.3-0.15-1.903-0.451
				c-0.604-0.301-1.063-0.742-1.378-1.322C82.975,27.14,82.817,26.433,82.817,25.599z M84.786,25.702
				c0,0.72,0.171,1.271,0.513,1.654s0.764,0.574,1.265,0.574s0.922-0.191,1.262-0.574c0.339-0.383,0.509-0.938,0.509-1.668
				c0-0.711-0.17-1.258-0.509-1.641c-0.34-0.383-0.761-0.574-1.262-0.574s-0.923,0.191-1.265,0.574S84.786,24.982,84.786,25.702z"/>
			<path style="fill:#2C6882;" d="M97.947,24.219l-1.894,0.342c-0.063-0.378-0.209-0.663-0.434-0.854
				c-0.227-0.191-0.519-0.287-0.879-0.287c-0.479,0-0.86,0.165-1.145,0.495c-0.285,0.331-0.428,0.884-0.428,1.658
				c0,0.861,0.145,1.47,0.434,1.825c0.29,0.355,0.679,0.533,1.166,0.533c0.364,0,0.663-0.104,0.896-0.312
				c0.232-0.207,0.396-0.563,0.492-1.069l1.887,0.321c-0.196,0.866-0.572,1.52-1.128,1.962s-1.301,0.663-2.235,0.663
				c-1.062,0-1.908-0.335-2.54-1.005c-0.631-0.67-0.946-1.598-0.946-2.782c0-1.198,0.316-2.132,0.95-2.799
				c0.634-0.668,1.49-1.002,2.57-1.002c0.884,0,1.587,0.19,2.109,0.57C97.345,22.859,97.72,23.439,97.947,24.219z"/>
			<path style="fill:#2C6882;" d="M103.412,27.021l1.914,0.321c-0.246,0.702-0.635,1.236-1.166,1.603
				c-0.53,0.367-1.194,0.551-1.992,0.551c-1.263,0-2.196-0.412-2.803-1.237c-0.479-0.661-0.718-1.495-0.718-2.502
				c0-1.203,0.314-2.146,0.943-2.827c0.629-0.681,1.424-1.021,2.386-1.021c1.08,0,1.933,0.356,2.557,1.07
				c0.624,0.713,0.923,1.806,0.896,3.277h-4.813c0.014,0.569,0.169,1.013,0.465,1.33c0.296,0.316,0.665,0.475,1.107,0.475
				c0.301,0,0.554-0.082,0.759-0.246S103.308,27.386,103.412,27.021z M103.521,25.08c-0.014-0.556-0.157-0.979-0.431-1.268
				c-0.273-0.29-0.606-0.435-0.998-0.435c-0.419,0-0.766,0.152-1.039,0.458s-0.408,0.72-0.403,1.244H103.521z"/>
			<path style="fill:#2C6882;" d="M106.121,27.261l1.928-0.294c0.082,0.374,0.248,0.657,0.499,0.852
				c0.251,0.193,0.602,0.29,1.053,0.29c0.497,0,0.87-0.091,1.121-0.273c0.169-0.128,0.253-0.299,0.253-0.513
				c0-0.146-0.046-0.267-0.137-0.362c-0.096-0.091-0.31-0.176-0.643-0.253c-1.55-0.342-2.531-0.654-2.946-0.937
				c-0.574-0.392-0.861-0.937-0.861-1.634c0-0.629,0.248-1.157,0.745-1.586s1.267-0.643,2.311-0.643
				c0.993,0,1.731,0.162,2.215,0.485s0.815,0.802,0.998,1.436l-1.812,0.335c-0.077-0.282-0.225-0.499-0.44-0.649
				c-0.217-0.15-0.525-0.226-0.927-0.226c-0.506,0-0.868,0.07-1.087,0.212c-0.146,0.101-0.219,0.23-0.219,0.39
				c0,0.137,0.063,0.253,0.191,0.349c0.173,0.128,0.771,0.308,1.795,0.54c1.022,0.232,1.737,0.518,2.143,0.854
				c0.401,0.342,0.602,0.818,0.602,1.429c0,0.665-0.278,1.237-0.834,1.716s-1.379,0.718-2.468,0.718c-0.989,0-1.771-0.2-2.349-0.602
				C106.676,28.493,106.299,27.949,106.121,27.261z"/>
			<path style="fill:#2C6882;" d="M113.943,25.599c0-0.638,0.157-1.256,0.472-1.853s0.76-1.053,1.337-1.367
				c0.576-0.314,1.22-0.472,1.931-0.472c1.099,0,1.998,0.356,2.7,1.07c0.702,0.713,1.053,1.614,1.053,2.703
				c0,1.099-0.354,2.009-1.063,2.73c-0.709,0.723-1.602,1.084-2.677,1.084c-0.665,0-1.3-0.15-1.903-0.451
				c-0.604-0.301-1.063-0.742-1.378-1.322C114.1,27.14,113.943,26.433,113.943,25.599z M115.912,25.702
				c0,0.72,0.171,1.271,0.513,1.654s0.764,0.574,1.265,0.574s0.922-0.191,1.262-0.574c0.339-0.383,0.509-0.938,0.509-1.668
				c0-0.711-0.17-1.258-0.509-1.641c-0.34-0.383-0.761-0.574-1.262-0.574s-0.923,0.191-1.265,0.574S115.912,24.982,115.912,25.702z"
				/>
			<path style="fill:#2C6882;" d="M122.066,27.261l1.928-0.294c0.082,0.374,0.248,0.657,0.499,0.852
				c0.251,0.193,0.602,0.29,1.053,0.29c0.497,0,0.87-0.091,1.121-0.273c0.169-0.128,0.253-0.299,0.253-0.513
				c0-0.146-0.046-0.267-0.137-0.362c-0.096-0.091-0.31-0.176-0.643-0.253c-1.55-0.342-2.531-0.654-2.946-0.937
				c-0.574-0.392-0.861-0.937-0.861-1.634c0-0.629,0.248-1.157,0.745-1.586s1.267-0.643,2.311-0.643
				c0.993,0,1.731,0.162,2.215,0.485c0.483,0.323,0.815,0.802,0.998,1.436l-1.812,0.335c-0.077-0.282-0.225-0.499-0.44-0.649
				c-0.217-0.15-0.525-0.226-0.927-0.226c-0.506,0-0.868,0.07-1.087,0.212c-0.146,0.101-0.219,0.23-0.219,0.39
				c0,0.137,0.063,0.253,0.191,0.349c0.173,0.128,0.771,0.308,1.795,0.54c1.022,0.232,1.737,0.518,2.143,0.854
				c0.401,0.342,0.602,0.818,0.602,1.429c0,0.665-0.278,1.237-0.834,1.716c-0.556,0.479-1.379,0.718-2.468,0.718
				c-0.989,0-1.771-0.2-2.349-0.602C122.621,28.493,122.244,27.949,122.066,27.261z"/>
			<path style="fill:#2C6882;" d="M140.685,29.332h-1.784v-1.066c-0.296,0.415-0.646,0.724-1.049,0.926
				c-0.404,0.203-0.811,0.305-1.221,0.305c-0.834,0-1.549-0.336-2.143-1.008c-0.596-0.673-0.893-1.61-0.893-2.813
				c0-1.23,0.289-2.166,0.868-2.806c0.579-0.641,1.311-0.961,2.194-0.961c0.812,0,1.513,0.337,2.105,1.012V19.31h1.921V29.332z
				 M135.558,25.545c0,0.774,0.107,1.335,0.321,1.682c0.31,0.501,0.743,0.752,1.299,0.752c0.442,0,0.818-0.188,1.128-0.564
				c0.31-0.375,0.465-0.938,0.465-1.685c0-0.834-0.15-1.435-0.451-1.802c-0.301-0.366-0.686-0.55-1.155-0.55
				c-0.456,0-0.838,0.181-1.145,0.544C135.712,24.283,135.558,24.825,135.558,25.545z"/>
			<path style="fill:#2C6882;" d="M146.587,27.021l1.914,0.321c-0.246,0.702-0.635,1.236-1.166,1.603
				c-0.53,0.367-1.194,0.551-1.992,0.551c-1.263,0-2.196-0.412-2.803-1.237c-0.479-0.661-0.718-1.495-0.718-2.502
				c0-1.203,0.314-2.146,0.943-2.827c0.629-0.681,1.424-1.021,2.386-1.021c1.08,0,1.933,0.356,2.557,1.07
				c0.624,0.713,0.923,1.806,0.896,3.277h-4.813c0.014,0.569,0.169,1.013,0.465,1.33c0.296,0.316,0.665,0.475,1.107,0.475
				c0.301,0,0.554-0.082,0.759-0.246S146.482,27.386,146.587,27.021z M146.696,25.08c-0.014-0.556-0.157-0.979-0.431-1.268
				c-0.273-0.29-0.606-0.435-0.998-0.435c-0.419,0-0.766,0.152-1.039,0.458s-0.408,0.72-0.403,1.244H146.696z"/>
			<path style="fill:#2C6882;" d="M162.198,29.332h-2.201l-0.875-2.276h-4.006l-0.827,2.276h-2.146l3.903-10.021h2.14
				L162.198,29.332z M158.473,25.367l-1.381-3.719l-1.354,3.719H158.473z"/>
			<path style="fill:#2C6882;" d="M163.007,22.072h1.791v1.066c0.232-0.364,0.547-0.661,0.943-0.889s0.836-0.342,1.319-0.342
				c0.843,0,1.559,0.33,2.146,0.991s0.882,1.581,0.882,2.762c0,1.212-0.296,2.154-0.889,2.827c-0.593,0.672-1.311,1.008-2.153,1.008
				c-0.401,0-0.765-0.08-1.09-0.239c-0.326-0.159-0.669-0.433-1.029-0.82v3.657h-1.921V22.072z M164.907,25.579
				c0,0.815,0.162,1.419,0.485,1.808c0.323,0.391,0.718,0.585,1.183,0.585c0.446,0,0.818-0.179,1.114-0.536
				c0.296-0.358,0.444-0.945,0.444-1.761c0-0.761-0.152-1.326-0.458-1.695s-0.684-0.554-1.135-0.554
				c-0.47,0-0.859,0.182-1.169,0.543C165.062,24.332,164.907,24.868,164.907,25.579z"/>
			<path style="fill:#2C6882;" d="M170.974,25.599c0-0.638,0.157-1.256,0.472-1.853s0.76-1.053,1.337-1.367
				c0.576-0.314,1.22-0.472,1.931-0.472c1.099,0,1.998,0.356,2.7,1.07c0.702,0.713,1.053,1.614,1.053,2.703
				c0,1.099-0.354,2.009-1.063,2.73c-0.709,0.723-1.602,1.084-2.677,1.084c-0.665,0-1.3-0.15-1.903-0.451
				c-0.604-0.301-1.063-0.742-1.378-1.322C171.131,27.14,170.974,26.433,170.974,25.599z M172.942,25.702
				c0,0.72,0.171,1.271,0.513,1.654s0.764,0.574,1.265,0.574s0.922-0.191,1.262-0.574c0.339-0.383,0.509-0.938,0.509-1.668
				c0-0.711-0.17-1.258-0.509-1.641c-0.34-0.383-0.761-0.574-1.262-0.574s-0.923,0.191-1.265,0.574S172.942,24.982,172.942,25.702z"
				/>
			<path style="fill:#2C6882;" d="M178.864,22.072h2.044l1.736,5.154l1.695-5.154h1.989l-2.563,6.986l-0.458,1.265
				c-0.169,0.424-0.329,0.747-0.482,0.971c-0.152,0.224-0.328,0.404-0.525,0.544c-0.199,0.139-0.442,0.247-0.732,0.324
				c-0.289,0.077-0.616,0.116-0.98,0.116c-0.369,0-0.731-0.039-1.087-0.116l-0.171-1.504c0.301,0.06,0.572,0.089,0.813,0.089
				c0.446,0,0.777-0.131,0.991-0.394c0.214-0.262,0.378-0.596,0.492-1.001L178.864,22.072z"/>
			<path style="fill:#2C6882;" d="M186.919,25.599c0-0.638,0.157-1.256,0.472-1.853s0.76-1.053,1.337-1.367
				c0.576-0.314,1.22-0.472,1.931-0.472c1.099,0,1.998,0.356,2.7,1.07c0.702,0.713,1.053,1.614,1.053,2.703
				c0,1.099-0.354,2.009-1.063,2.73c-0.709,0.723-1.602,1.084-2.677,1.084c-0.665,0-1.3-0.15-1.903-0.451
				c-0.604-0.301-1.063-0.742-1.378-1.322C187.076,27.14,186.919,26.433,186.919,25.599z M188.888,25.702
				c0,0.72,0.171,1.271,0.513,1.654s0.764,0.574,1.265,0.574s0.922-0.191,1.262-0.574c0.339-0.383,0.509-0.938,0.509-1.668
				c0-0.711-0.17-1.258-0.509-1.641c-0.34-0.383-0.761-0.574-1.262-0.574s-0.923,0.191-1.265,0.574S188.888,24.982,188.888,25.702z"
				/>
			<path style="fill:#2C6882;" d="M195.719,29.332v-1.921h1.921v1.921H195.719z"/>
		</g>
	</g>
	<g>
		<g>
			<path d="M15.989,58.285V46.832h4.32c0.761,0,1.341,0.036,1.742,0.109c0.563,0.094,1.034,0.272,1.414,0.535
				s0.687,0.632,0.918,1.105s0.348,0.995,0.348,1.563c0,0.974-0.31,1.798-0.93,2.473s-1.739,1.012-3.359,1.012h-2.938v4.656H15.989z
				 M17.505,52.277h2.961c0.979,0,1.675-0.183,2.086-0.547s0.617-0.878,0.617-1.539c0-0.479-0.121-0.89-0.363-1.23
				s-0.562-0.566-0.957-0.676c-0.255-0.067-0.727-0.102-1.414-0.102h-2.93V52.277z"/>
			<path d="M25.842,58.285v-8.297h1.266v1.258c0.323-0.589,0.621-0.977,0.895-1.164s0.574-0.281,0.902-0.281
				c0.474,0,0.956,0.151,1.445,0.453l-0.484,1.305c-0.344-0.203-0.688-0.305-1.031-0.305c-0.308,0-0.583,0.093-0.828,0.277
				s-0.419,0.441-0.523,0.77c-0.156,0.5-0.234,1.047-0.234,1.641v4.344H25.842z"/>
			<path d="M30.038,54.137c0-1.536,0.427-2.675,1.281-3.414c0.714-0.614,1.583-0.922,2.609-0.922c1.141,0,2.073,0.374,2.797,1.121
				s1.086,1.78,1.086,3.098c0,1.067-0.16,1.907-0.48,2.52s-0.786,1.087-1.398,1.426s-1.28,0.508-2.004,0.508
				c-1.161,0-2.101-0.372-2.816-1.117S30.038,55.538,30.038,54.137z M31.483,54.137c0,1.063,0.231,1.858,0.695,2.387
				c0.464,0.528,1.047,0.793,1.75,0.793c0.698,0,1.278-0.266,1.742-0.797s0.695-1.341,0.695-2.43c0-1.026-0.233-1.804-0.699-2.332
				s-1.046-0.793-1.738-0.793c-0.703,0-1.286,0.263-1.75,0.789C31.715,52.28,31.483,53.074,31.483,54.137z"/>
			<path d="M44.25,55.246l1.383,0.18c-0.151,0.953-0.538,1.699-1.16,2.238s-1.387,0.809-2.293,0.809
				c-1.136,0-2.048-0.371-2.738-1.113s-1.035-1.806-1.035-3.191c0-0.896,0.148-1.68,0.445-2.352s0.749-1.176,1.355-1.512
				s1.267-0.504,1.98-0.504c0.901,0,1.638,0.228,2.211,0.684s0.94,1.103,1.102,1.941l-1.367,0.211
				c-0.13-0.558-0.36-0.977-0.691-1.258s-0.73-0.422-1.199-0.422c-0.708,0-1.284,0.254-1.727,0.762s-0.664,1.312-0.664,2.41
				c0,1.114,0.214,1.925,0.641,2.43s0.984,0.758,1.672,0.758c0.552,0,1.013-0.169,1.383-0.508S44.151,55.949,44.25,55.246z"/>
			<path d="M51.891,55.613l1.453,0.18c-0.229,0.849-0.653,1.508-1.273,1.977s-1.411,0.703-2.375,0.703
				c-1.214,0-2.176-0.374-2.887-1.121s-1.066-1.796-1.066-3.145c0-1.396,0.359-2.479,1.078-3.25s1.651-1.156,2.797-1.156
				c1.109,0,2.016,0.378,2.719,1.133s1.055,1.817,1.055,3.188c0,0.083-0.003,0.208-0.008,0.375h-6.188
				c0.052,0.911,0.31,1.609,0.773,2.094s1.042,0.727,1.734,0.727c0.516,0,0.956-0.136,1.32-0.406S51.678,56.207,51.891,55.613z
				 M47.274,53.34h4.633c-0.063-0.698-0.239-1.222-0.531-1.57c-0.448-0.542-1.028-0.813-1.742-0.813
				c-0.646,0-1.188,0.216-1.629,0.648S47.321,52.616,47.274,53.34z"/>
			<path d="M53.924,55.808l1.391-0.219c0.078,0.558,0.296,0.984,0.652,1.281s0.855,0.445,1.496,0.445
				c0.646,0,1.125-0.132,1.438-0.395s0.469-0.571,0.469-0.926c0-0.317-0.138-0.567-0.414-0.75c-0.192-0.125-0.672-0.284-1.438-0.477
				c-1.031-0.261-1.746-0.485-2.145-0.676s-0.7-0.453-0.906-0.789s-0.309-0.707-0.309-1.113c0-0.37,0.085-0.712,0.254-1.027
				s0.399-0.577,0.691-0.785c0.219-0.161,0.517-0.298,0.895-0.41s0.782-0.168,1.215-0.168c0.651,0,1.223,0.094,1.715,0.281
				s0.855,0.441,1.09,0.762s0.396,0.749,0.484,1.285l-1.375,0.188c-0.063-0.427-0.243-0.761-0.543-1s-0.723-0.359-1.27-0.359
				c-0.646,0-1.106,0.106-1.383,0.32s-0.414,0.464-0.414,0.75c0,0.183,0.058,0.347,0.172,0.492c0.114,0.151,0.294,0.276,0.539,0.375
				c0.141,0.052,0.555,0.172,1.242,0.359c0.995,0.266,1.688,0.483,2.082,0.652s0.702,0.415,0.926,0.738s0.336,0.724,0.336,1.203
				c0,0.469-0.137,0.91-0.41,1.324s-0.668,0.734-1.184,0.961s-1.099,0.34-1.75,0.34c-1.078,0-1.899-0.224-2.465-0.672
				S54.08,56.688,53.924,55.808z"/>
			<path d="M61.339,54.137c0-1.536,0.427-2.675,1.281-3.414c0.714-0.614,1.583-0.922,2.609-0.922c1.141,0,2.073,0.374,2.797,1.121
				s1.086,1.78,1.086,3.098c0,1.067-0.16,1.907-0.48,2.52s-0.786,1.087-1.398,1.426s-1.28,0.508-2.004,0.508
				c-1.161,0-2.101-0.372-2.816-1.117S61.339,55.538,61.339,54.137z M62.784,54.137c0,1.063,0.231,1.858,0.695,2.387
				s1.047,0.793,1.75,0.793c0.698,0,1.278-0.266,1.742-0.797s0.695-1.341,0.695-2.43c0-1.026-0.233-1.804-0.699-2.332
				s-1.046-0.793-1.738-0.793c-0.703,0-1.286,0.263-1.75,0.789S62.784,53.074,62.784,54.137z"/>
			<path d="M69.574,55.808l1.391-0.219c0.078,0.558,0.296,0.984,0.652,1.281s0.855,0.445,1.496,0.445
				c0.646,0,1.125-0.132,1.438-0.395s0.469-0.571,0.469-0.926c0-0.317-0.138-0.567-0.414-0.75c-0.192-0.125-0.672-0.284-1.438-0.477
				c-1.031-0.261-1.746-0.485-2.145-0.676s-0.7-0.453-0.906-0.789s-0.309-0.707-0.309-1.113c0-0.37,0.085-0.712,0.254-1.027
				s0.399-0.577,0.691-0.785c0.219-0.161,0.517-0.298,0.895-0.41s0.782-0.168,1.215-0.168c0.651,0,1.223,0.094,1.715,0.281
				s0.855,0.441,1.09,0.762s0.396,0.749,0.484,1.285l-1.375,0.188c-0.063-0.427-0.243-0.761-0.543-1s-0.723-0.359-1.27-0.359
				c-0.646,0-1.106,0.106-1.383,0.32s-0.414,0.464-0.414,0.75c0,0.183,0.058,0.347,0.172,0.492c0.114,0.151,0.294,0.276,0.539,0.375
				c0.141,0.052,0.555,0.172,1.242,0.359c0.995,0.266,1.688,0.483,2.082,0.652s0.702,0.415,0.926,0.738s0.336,0.724,0.336,1.203
				c0,0.469-0.137,0.91-0.41,1.324s-0.668,0.734-1.184,0.961s-1.099,0.34-1.75,0.34c-1.078,0-1.899-0.224-2.465-0.672
				S69.73,56.688,69.574,55.808z"/>
			<path d="M81.371,58.285v-8.297h1.266v1.258c0.323-0.589,0.621-0.977,0.895-1.164s0.574-0.281,0.902-0.281
				c0.474,0,0.956,0.151,1.445,0.453l-0.484,1.305c-0.344-0.203-0.688-0.305-1.031-0.305c-0.308,0-0.583,0.093-0.828,0.277
				s-0.419,0.441-0.523,0.77c-0.156,0.5-0.234,1.047-0.234,1.641v4.344H81.371z"/>
			<path d="M91.77,55.613l1.453,0.18c-0.229,0.849-0.653,1.508-1.273,1.977s-1.411,0.703-2.375,0.703
				c-1.214,0-2.176-0.374-2.887-1.121s-1.066-1.796-1.066-3.145c0-1.396,0.359-2.479,1.078-3.25s1.651-1.156,2.797-1.156
				c1.109,0,2.016,0.378,2.719,1.133s1.055,1.817,1.055,3.188c0,0.083-0.003,0.208-0.008,0.375h-6.188
				c0.052,0.911,0.31,1.609,0.773,2.094s1.042,0.727,1.734,0.727c0.516,0,0.956-0.136,1.32-0.406S91.557,56.207,91.77,55.613z
				 M87.153,53.34h4.633c-0.063-0.698-0.239-1.222-0.531-1.57c-0.448-0.542-1.028-0.813-1.742-0.813
				c-0.646,0-1.188,0.216-1.629,0.648S87.2,52.616,87.153,53.34z"/>
			<path d="M93.803,55.808l1.391-0.219c0.078,0.558,0.296,0.984,0.652,1.281s0.855,0.445,1.496,0.445
				c0.646,0,1.125-0.132,1.438-0.395s0.469-0.571,0.469-0.926c0-0.317-0.138-0.567-0.414-0.75c-0.192-0.125-0.672-0.284-1.438-0.477
				c-1.031-0.261-1.746-0.485-2.145-0.676s-0.7-0.453-0.906-0.789s-0.309-0.707-0.309-1.113c0-0.37,0.085-0.712,0.254-1.027
				s0.399-0.577,0.691-0.785c0.219-0.161,0.517-0.298,0.895-0.41s0.782-0.168,1.215-0.168c0.651,0,1.223,0.094,1.715,0.281
				s0.855,0.441,1.09,0.762s0.396,0.749,0.484,1.285l-1.375,0.188c-0.063-0.427-0.243-0.761-0.543-1s-0.723-0.359-1.27-0.359
				c-0.646,0-1.106,0.106-1.383,0.32s-0.414,0.464-0.414,0.75c0,0.183,0.058,0.347,0.172,0.492c0.114,0.151,0.294,0.276,0.539,0.375
				c0.141,0.052,0.555,0.172,1.242,0.359c0.995,0.266,1.688,0.483,2.082,0.652s0.702,0.415,0.926,0.738s0.336,0.724,0.336,1.203
				c0,0.469-0.137,0.91-0.41,1.324s-0.668,0.734-1.184,0.961s-1.099,0.34-1.75,0.34c-1.078,0-1.899-0.224-2.465-0.672
				S93.959,56.688,93.803,55.808z"/>
			<path d="M101.741,61.465V49.988h1.281v1.078c0.302-0.422,0.644-0.738,1.023-0.949s0.841-0.316,1.383-0.316
				c0.708,0,1.333,0.183,1.875,0.547s0.95,0.879,1.227,1.543s0.414,1.392,0.414,2.184c0,0.849-0.152,1.613-0.457,2.293
				s-0.747,1.2-1.328,1.563s-1.191,0.543-1.832,0.543c-0.469,0-0.89-0.099-1.262-0.297s-0.679-0.448-0.918-0.75v4.039H101.741z
				 M103.015,54.183c0,1.067,0.216,1.856,0.648,2.367s0.956,0.766,1.57,0.766c0.625,0,1.16-0.265,1.605-0.793
				s0.668-1.348,0.668-2.457c0-1.058-0.218-1.849-0.652-2.375s-0.954-0.789-1.559-0.789c-0.599,0-1.129,0.28-1.59,0.84
				S103.015,53.116,103.015,54.183z"/>
			<path d="M109.492,54.137c0-1.536,0.427-2.675,1.281-3.414c0.714-0.614,1.583-0.922,2.609-0.922c1.141,0,2.073,0.374,2.797,1.121
				s1.086,1.78,1.086,3.098c0,1.067-0.16,1.907-0.48,2.52s-0.786,1.087-1.398,1.426s-1.28,0.508-2.004,0.508
				c-1.161,0-2.101-0.372-2.816-1.117S109.492,55.538,109.492,54.137z M110.937,54.137c0,1.063,0.231,1.858,0.695,2.387
				s1.047,0.793,1.75,0.793c0.698,0,1.278-0.266,1.742-0.797s0.695-1.341,0.695-2.43c0-1.026-0.233-1.804-0.699-2.332
				s-1.046-0.793-1.738-0.793c-0.703,0-1.286,0.263-1.75,0.789S110.937,53.074,110.937,54.137z"/>
			<path d="M118.29,58.285v-8.297h1.266v1.18c0.609-0.911,1.489-1.367,2.641-1.367c0.5,0,0.96,0.09,1.379,0.27
				s0.733,0.415,0.941,0.707s0.354,0.638,0.438,1.039c0.052,0.261,0.078,0.716,0.078,1.367v5.102h-1.406v-5.047
				c0-0.573-0.055-1.001-0.164-1.285s-0.304-0.511-0.582-0.68s-0.605-0.254-0.98-0.254c-0.599,0-1.116,0.19-1.551,0.57
				s-0.652,1.102-0.652,2.164v4.531H118.29z"/>
			<path d="M126.002,55.808l1.391-0.219c0.078,0.558,0.296,0.984,0.652,1.281c0.356,0.297,0.855,0.445,1.496,0.445
				c0.646,0,1.125-0.132,1.438-0.395s0.469-0.571,0.469-0.926c0-0.317-0.138-0.567-0.414-0.75c-0.192-0.125-0.672-0.284-1.438-0.477
				c-1.031-0.261-1.746-0.485-2.145-0.676s-0.7-0.453-0.906-0.789s-0.309-0.707-0.309-1.113c0-0.37,0.085-0.712,0.254-1.027
				s0.399-0.577,0.691-0.785c0.219-0.161,0.517-0.298,0.895-0.41c0.378-0.112,0.782-0.168,1.215-0.168
				c0.651,0,1.223,0.094,1.715,0.281s0.855,0.441,1.09,0.762s0.396,0.749,0.484,1.285l-1.375,0.188
				c-0.063-0.427-0.243-0.761-0.543-1s-0.723-0.359-1.27-0.359c-0.646,0-1.106,0.106-1.383,0.32
				c-0.276,0.214-0.414,0.464-0.414,0.75c0,0.183,0.058,0.347,0.172,0.492c0.114,0.151,0.294,0.276,0.539,0.375
				c0.141,0.052,0.555,0.172,1.242,0.359c0.995,0.266,1.688,0.483,2.082,0.652s0.702,0.415,0.926,0.738s0.336,0.724,0.336,1.203
				c0,0.469-0.137,0.91-0.41,1.324s-0.668,0.734-1.184,0.961s-1.099,0.34-1.75,0.34c-1.078,0-1.899-0.224-2.465-0.672
				S126.158,56.688,126.002,55.808z"/>
			<path d="M139.354,57.262c-0.521,0.442-1.022,0.755-1.504,0.938s-0.999,0.273-1.551,0.273c-0.911,0-1.612-0.223-2.102-0.668
				s-0.734-1.015-0.734-1.707c0-0.406,0.093-0.777,0.277-1.113s0.427-0.605,0.727-0.809s0.637-0.356,1.012-0.461
				c0.276-0.073,0.692-0.144,1.25-0.211c1.136-0.136,1.972-0.297,2.508-0.484c0.005-0.192,0.008-0.315,0.008-0.367
				c0-0.573-0.133-0.977-0.398-1.211c-0.359-0.317-0.894-0.477-1.602-0.477c-0.661,0-1.149,0.116-1.465,0.348
				s-0.548,0.642-0.699,1.23l-1.375-0.188c0.125-0.589,0.331-1.063,0.617-1.426s0.7-0.641,1.242-0.836s1.169-0.293,1.883-0.293
				c0.708,0,1.284,0.083,1.727,0.25s0.769,0.376,0.977,0.629s0.354,0.571,0.438,0.957c0.047,0.239,0.07,0.672,0.07,1.297v1.875
				c0,1.308,0.03,2.134,0.09,2.48s0.179,0.679,0.355,0.996h-1.469C139.49,57.993,139.396,57.652,139.354,57.262z M139.237,54.121
				c-0.511,0.208-1.276,0.386-2.297,0.531c-0.578,0.083-0.987,0.177-1.227,0.281s-0.425,0.257-0.555,0.457s-0.195,0.423-0.195,0.668
				c0,0.375,0.142,0.688,0.426,0.938s0.699,0.375,1.246,0.375c0.542,0,1.023-0.118,1.445-0.355s0.731-0.562,0.93-0.973
				c0.151-0.317,0.227-0.786,0.227-1.406V54.121z"/>
			<path d="M143.512,58.285h-1.305V46.832h1.406v4.086c0.594-0.745,1.352-1.117,2.273-1.117c0.511,0,0.993,0.103,1.449,0.309
				s0.831,0.495,1.125,0.867s0.524,0.821,0.691,1.348s0.25,1.089,0.25,1.688c0,1.422-0.352,2.521-1.055,3.297
				s-1.547,1.164-2.531,1.164c-0.979,0-1.747-0.409-2.305-1.227V58.285z M143.496,54.074c0,0.995,0.136,1.714,0.406,2.156
				c0.442,0.724,1.042,1.086,1.797,1.086c0.614,0,1.146-0.267,1.594-0.801s0.672-1.329,0.672-2.387c0-1.083-0.215-1.883-0.645-2.398
				s-0.949-0.773-1.559-0.773c-0.614,0-1.146,0.267-1.594,0.801S143.496,53.063,143.496,54.074z"/>
			<path d="M150.458,58.285V46.832h1.406v11.453H150.458z"/>
			<path d="M159.1,55.613l1.453,0.18c-0.229,0.849-0.653,1.508-1.273,1.977s-1.411,0.703-2.375,0.703
				c-1.214,0-2.176-0.374-2.887-1.121s-1.066-1.796-1.066-3.145c0-1.396,0.359-2.479,1.078-3.25s1.651-1.156,2.797-1.156
				c1.109,0,2.016,0.378,2.719,1.133s1.055,1.817,1.055,3.188c0,0.083-0.003,0.208-0.008,0.375h-6.188
				c0.052,0.911,0.31,1.609,0.773,2.094s1.042,0.727,1.734,0.727c0.516,0,0.956-0.136,1.32-0.406S158.886,56.207,159.1,55.613z
				 M154.482,53.34h4.633c-0.063-0.698-0.239-1.222-0.531-1.57c-0.448-0.542-1.028-0.813-1.742-0.813
				c-0.646,0-1.188,0.216-1.629,0.648S154.529,52.616,154.482,53.34z"/>
			<path d="M161.132,55.808l1.391-0.219c0.078,0.558,0.296,0.984,0.652,1.281s0.855,0.445,1.496,0.445
				c0.646,0,1.125-0.132,1.438-0.395s0.469-0.571,0.469-0.926c0-0.317-0.138-0.567-0.414-0.75c-0.192-0.125-0.672-0.284-1.438-0.477
				c-1.031-0.261-1.746-0.485-2.145-0.676s-0.7-0.453-0.906-0.789s-0.309-0.707-0.309-1.113c0-0.37,0.085-0.712,0.254-1.027
				s0.399-0.577,0.691-0.785c0.219-0.161,0.517-0.298,0.895-0.41s0.782-0.168,1.215-0.168c0.651,0,1.223,0.094,1.715,0.281
				s0.855,0.441,1.09,0.762s0.396,0.749,0.484,1.285l-1.375,0.188c-0.063-0.427-0.243-0.761-0.543-1s-0.723-0.359-1.27-0.359
				c-0.646,0-1.106,0.106-1.383,0.32s-0.414,0.464-0.414,0.75c0,0.183,0.058,0.347,0.172,0.492c0.114,0.151,0.294,0.276,0.539,0.375
				c0.141,0.052,0.555,0.172,1.242,0.359c0.995,0.266,1.688,0.483,2.082,0.652s0.702,0.415,0.926,0.738s0.336,0.724,0.336,1.203
				c0,0.469-0.137,0.91-0.41,1.324s-0.668,0.734-1.184,0.961s-1.099,0.34-1.75,0.34c-1.078,0-1.899-0.224-2.465-0.672
				S161.288,56.688,161.132,55.808z"/>
			<path d="M178.327,58.285v-1.047c-0.526,0.823-1.3,1.234-2.32,1.234c-0.661,0-1.27-0.183-1.824-0.547s-0.984-0.874-1.289-1.527
				s-0.457-1.405-0.457-2.254c0-0.828,0.138-1.579,0.414-2.254s0.69-1.191,1.242-1.551s1.169-0.539,1.852-0.539
				c0.5,0,0.945,0.105,1.336,0.316s0.708,0.485,0.953,0.824v-4.109h1.398v11.453H178.327z M173.882,54.144
				c0,1.063,0.224,1.856,0.672,2.383s0.977,0.789,1.586,0.789c0.614,0,1.137-0.251,1.566-0.754s0.645-1.27,0.645-2.301
				c0-1.136-0.219-1.969-0.656-2.5s-0.977-0.797-1.617-0.797c-0.625,0-1.147,0.255-1.566,0.766S173.882,53.046,173.882,54.144z"/>
			<path d="M186.899,55.613l1.453,0.18c-0.229,0.849-0.653,1.508-1.273,1.977s-1.411,0.703-2.375,0.703
				c-1.214,0-2.176-0.374-2.887-1.121s-1.066-1.796-1.066-3.145c0-1.396,0.359-2.479,1.078-3.25s1.651-1.156,2.797-1.156
				c1.109,0,2.016,0.378,2.719,1.133s1.055,1.817,1.055,3.188c0,0.083-0.003,0.208-0.008,0.375h-6.188
				c0.052,0.911,0.31,1.609,0.773,2.094s1.042,0.727,1.734,0.727c0.516,0,0.956-0.136,1.32-0.406S186.685,56.207,186.899,55.613z
				 M182.282,53.34h4.633c-0.063-0.698-0.239-1.222-0.531-1.57c-0.448-0.542-1.028-0.813-1.742-0.813
				c-0.646,0-1.188,0.216-1.629,0.648S182.329,52.616,182.282,53.34z"/>
			<path d="M193.368,61.465V49.988h1.281v1.078c0.302-0.422,0.644-0.738,1.023-0.949s0.841-0.316,1.383-0.316
				c0.708,0,1.333,0.183,1.875,0.547s0.95,0.879,1.227,1.543s0.414,1.392,0.414,2.184c0,0.849-0.152,1.613-0.457,2.293
				s-0.747,1.2-1.328,1.563s-1.191,0.543-1.832,0.543c-0.469,0-0.89-0.099-1.262-0.297s-0.679-0.448-0.918-0.75v4.039H193.368z
				 M194.641,54.183c0,1.067,0.216,1.856,0.648,2.367s0.956,0.766,1.57,0.766c0.625,0,1.16-0.265,1.605-0.793
				s0.668-1.348,0.668-2.457c0-1.058-0.218-1.849-0.652-2.375s-0.954-0.789-1.559-0.789c-0.599,0-1.129,0.28-1.59,0.84
				S194.641,53.116,194.641,54.183z"/>
			<path d="M201.627,58.285v-8.297h1.266v1.258c0.323-0.589,0.621-0.977,0.895-1.164s0.574-0.281,0.902-0.281
				c0.474,0,0.956,0.151,1.445,0.453l-0.484,1.305c-0.344-0.203-0.688-0.305-1.031-0.305c-0.308,0-0.583,0.093-0.828,0.277
				s-0.419,0.441-0.523,0.77c-0.156,0.5-0.234,1.047-0.234,1.641v4.344H201.627z"/>
			<path d="M205.823,54.137c0-1.536,0.427-2.675,1.281-3.414c0.714-0.614,1.583-0.922,2.609-0.922c1.141,0,2.073,0.374,2.797,1.121
				s1.086,1.78,1.086,3.098c0,1.067-0.16,1.907-0.48,2.52s-0.786,1.087-1.398,1.426s-1.28,0.508-2.004,0.508
				c-1.161,0-2.101-0.372-2.816-1.117S205.823,55.538,205.823,54.137z M207.268,54.137c0,1.063,0.231,1.858,0.695,2.387
				s1.047,0.793,1.75,0.793c0.698,0,1.278-0.266,1.742-0.797s0.695-1.341,0.695-2.43c0-1.026-0.233-1.804-0.699-2.332
				s-1.046-0.793-1.738-0.793c-0.703,0-1.286,0.263-1.75,0.789S207.268,53.074,207.268,54.137z"/>
			<path d="M216.926,58.285l-3.156-8.297h1.484l1.781,4.969c0.192,0.536,0.37,1.094,0.531,1.672c0.125-0.438,0.3-0.964,0.523-1.578
				l1.844-5.063h1.445l-3.141,8.297H216.926z"/>
			<path d="M227.677,55.613l1.453,0.18c-0.229,0.849-0.653,1.508-1.273,1.977s-1.411,0.703-2.375,0.703
				c-1.214,0-2.176-0.374-2.887-1.121s-1.066-1.796-1.066-3.145c0-1.396,0.359-2.479,1.078-3.25s1.651-1.156,2.797-1.156
				c1.109,0,2.016,0.378,2.719,1.133s1.055,1.817,1.055,3.188c0,0.083-0.003,0.208-0.008,0.375h-6.188
				c0.052,0.911,0.31,1.609,0.773,2.094s1.042,0.727,1.734,0.727c0.516,0,0.956-0.136,1.32-0.406S227.463,56.207,227.677,55.613z
				 M223.059,53.34h4.633c-0.063-0.698-0.239-1.222-0.531-1.57c-0.448-0.542-1.028-0.813-1.742-0.813
				c-0.646,0-1.188,0.216-1.629,0.648S223.106,52.616,223.059,53.34z"/>
			<path d="M235.951,55.613l1.453,0.18c-0.229,0.849-0.653,1.508-1.273,1.977s-1.411,0.703-2.375,0.703
				c-1.214,0-2.176-0.374-2.887-1.121s-1.066-1.796-1.066-3.145c0-1.396,0.359-2.479,1.078-3.25s1.651-1.156,2.797-1.156
				c1.109,0,2.016,0.378,2.719,1.133s1.055,1.817,1.055,3.188c0,0.083-0.003,0.208-0.008,0.375h-6.188
				c0.052,0.911,0.31,1.609,0.773,2.094s1.042,0.727,1.734,0.727c0.516,0,0.956-0.136,1.32-0.406S235.737,56.207,235.951,55.613z
				 M231.334,53.34h4.633c-0.063-0.698-0.239-1.222-0.531-1.57c-0.448-0.542-1.028-0.813-1.742-0.813
				c-0.646,0-1.188,0.216-1.629,0.648S231.381,52.616,231.334,53.34z"/>
			<path d="M238.53,58.285v-8.297h1.266v1.258c0.323-0.589,0.621-0.977,0.895-1.164s0.574-0.281,0.902-0.281
				c0.474,0,0.956,0.151,1.445,0.453l-0.484,1.305c-0.344-0.203-0.688-0.305-1.031-0.305c-0.308,0-0.583,0.093-0.828,0.277
				s-0.419,0.441-0.523,0.77c-0.156,0.5-0.234,1.047-0.234,1.641v4.344H238.53z"/>
			<path d="M252.538,57.262c-0.521,0.442-1.022,0.755-1.504,0.938s-0.999,0.273-1.551,0.273c-0.911,0-1.612-0.223-2.102-0.668
				s-0.734-1.015-0.734-1.707c0-0.406,0.093-0.777,0.277-1.113s0.427-0.605,0.727-0.809s0.637-0.356,1.012-0.461
				c0.276-0.073,0.692-0.144,1.25-0.211c1.136-0.136,1.972-0.297,2.508-0.484c0.005-0.192,0.008-0.315,0.008-0.367
				c0-0.573-0.133-0.977-0.398-1.211c-0.359-0.317-0.894-0.477-1.602-0.477c-0.661,0-1.149,0.116-1.465,0.348
				s-0.548,0.642-0.699,1.23l-1.375-0.188c0.125-0.589,0.331-1.063,0.617-1.426s0.7-0.641,1.242-0.836s1.169-0.293,1.883-0.293
				c0.708,0,1.284,0.083,1.727,0.25s0.769,0.376,0.977,0.629s0.354,0.571,0.438,0.957c0.047,0.239,0.07,0.672,0.07,1.297v1.875
				c0,1.308,0.03,2.134,0.09,2.48s0.179,0.679,0.355,0.996h-1.469C252.674,57.993,252.58,57.652,252.538,57.262z M252.421,54.121
				c-0.511,0.208-1.276,0.386-2.297,0.531c-0.578,0.083-0.987,0.177-1.227,0.281s-0.425,0.257-0.555,0.457s-0.195,0.423-0.195,0.668
				c0,0.375,0.142,0.688,0.426,0.938s0.699,0.375,1.246,0.375c0.542,0,1.023-0.118,1.445-0.355s0.731-0.562,0.93-0.973
				c0.151-0.317,0.227-0.786,0.227-1.406V54.121z"/>
			<path d="M259.241,58.285V46.832h1.406v11.453H259.241z"/>
			<path d="M267.617,57.262c-0.521,0.442-1.022,0.755-1.504,0.938s-0.999,0.273-1.551,0.273c-0.911,0-1.612-0.223-2.102-0.668
				s-0.734-1.015-0.734-1.707c0-0.406,0.093-0.777,0.277-1.113s0.427-0.605,0.727-0.809s0.637-0.356,1.012-0.461
				c0.276-0.073,0.692-0.144,1.25-0.211c1.136-0.136,1.972-0.297,2.508-0.484c0.005-0.192,0.008-0.315,0.008-0.367
				c0-0.573-0.133-0.977-0.398-1.211c-0.359-0.317-0.894-0.477-1.602-0.477c-0.661,0-1.149,0.116-1.465,0.348
				s-0.548,0.642-0.699,1.23l-1.375-0.188c0.125-0.589,0.331-1.063,0.617-1.426s0.7-0.641,1.242-0.836s1.169-0.293,1.883-0.293
				c0.708,0,1.284,0.083,1.727,0.25s0.769,0.376,0.977,0.629s0.354,0.571,0.438,0.957c0.047,0.239,0.07,0.672,0.07,1.297v1.875
				c0,1.308,0.03,2.134,0.09,2.48s0.179,0.679,0.355,0.996h-1.469C267.753,57.993,267.659,57.652,267.617,57.262z M267.5,54.121
				c-0.511,0.208-1.276,0.386-2.297,0.531c-0.578,0.083-0.987,0.177-1.227,0.281s-0.425,0.257-0.555,0.457s-0.195,0.423-0.195,0.668
				c0,0.375,0.142,0.688,0.426,0.938s0.699,0.375,1.246,0.375c0.542,0,1.023-0.118,1.445-0.355s0.731-0.562,0.93-0.973
				c0.151-0.317,0.227-0.786,0.227-1.406V54.121z"/>
			<path d="M273.828,54.137c0-1.536,0.427-2.675,1.281-3.414c0.714-0.614,1.583-0.922,2.609-0.922c1.141,0,2.073,0.374,2.797,1.121
				s1.086,1.78,1.086,3.098c0,1.067-0.16,1.907-0.48,2.52s-0.786,1.087-1.398,1.426s-1.28,0.508-2.004,0.508
				c-1.161,0-2.101-0.372-2.816-1.117S273.828,55.538,273.828,54.137z M275.273,54.137c0,1.063,0.231,1.858,0.695,2.387
				s1.047,0.793,1.75,0.793c0.698,0,1.278-0.266,1.742-0.797s0.695-1.341,0.695-2.43c0-1.026-0.233-1.804-0.699-2.332
				s-1.046-0.793-1.738-0.793c-0.703,0-1.286,0.263-1.75,0.789S275.273,53.074,275.273,54.137z"/>
			<path d="M282.61,58.285v-8.297h1.266v1.258c0.323-0.589,0.621-0.977,0.895-1.164s0.574-0.281,0.902-0.281
				c0.474,0,0.956,0.151,1.445,0.453l-0.484,1.305c-0.344-0.203-0.688-0.305-1.031-0.305c-0.308,0-0.583,0.093-0.828,0.277
				s-0.419,0.441-0.523,0.77c-0.156,0.5-0.234,1.047-0.234,1.641v4.344H282.61z"/>
			<path d="M287.072,58.972l1.367,0.203c0.058,0.422,0.216,0.729,0.477,0.922c0.349,0.261,0.825,0.391,1.43,0.391
				c0.651,0,1.153-0.13,1.508-0.391s0.594-0.625,0.719-1.094c0.073-0.286,0.106-0.888,0.102-1.805
				c-0.614,0.724-1.38,1.086-2.297,1.086c-1.141,0-2.023-0.411-2.648-1.234s-0.938-1.81-0.938-2.961c0-0.792,0.144-1.522,0.43-2.191
				s0.702-1.187,1.246-1.551s1.184-0.547,1.918-0.547c0.979,0,1.786,0.396,2.422,1.188v-1h1.297v7.172
				c0,1.292-0.132,2.207-0.395,2.746s-0.68,0.965-1.25,1.277s-1.272,0.469-2.105,0.469c-0.989,0-1.789-0.223-2.398-0.668
				S287.052,59.868,287.072,58.972z M288.236,53.988c0,1.089,0.216,1.883,0.648,2.383s0.974,0.75,1.625,0.75
				c0.646,0,1.188-0.249,1.625-0.746s0.656-1.277,0.656-2.34c0-1.016-0.226-1.781-0.676-2.297s-0.993-0.773-1.629-0.773
				c-0.625,0-1.156,0.254-1.594,0.762S288.236,52.988,288.236,53.988z"/>
			<path d="M301.018,57.262c-0.521,0.442-1.022,0.755-1.504,0.938s-0.999,0.273-1.551,0.273c-0.911,0-1.612-0.223-2.102-0.668
				s-0.734-1.015-0.734-1.707c0-0.406,0.093-0.777,0.277-1.113s0.427-0.605,0.727-0.809s0.637-0.356,1.012-0.461
				c0.276-0.073,0.692-0.144,1.25-0.211c1.136-0.136,1.972-0.297,2.508-0.484c0.005-0.192,0.008-0.315,0.008-0.367
				c0-0.573-0.133-0.977-0.398-1.211c-0.359-0.317-0.894-0.477-1.602-0.477c-0.661,0-1.149,0.116-1.465,0.348
				s-0.548,0.642-0.699,1.23l-1.375-0.188c0.125-0.589,0.331-1.063,0.617-1.426s0.7-0.641,1.242-0.836s1.169-0.293,1.883-0.293
				c0.708,0,1.284,0.083,1.727,0.25s0.769,0.376,0.977,0.629s0.354,0.571,0.438,0.957c0.047,0.239,0.07,0.672,0.07,1.297v1.875
				c0,1.308,0.03,2.134,0.09,2.48s0.179,0.679,0.355,0.996H301.3C301.154,57.993,301.06,57.652,301.018,57.262z M300.901,54.121
				c-0.511,0.208-1.276,0.386-2.297,0.531c-0.578,0.083-0.987,0.177-1.227,0.281s-0.425,0.257-0.555,0.457s-0.195,0.423-0.195,0.668
				c0,0.375,0.142,0.688,0.426,0.938s0.699,0.375,1.246,0.375c0.542,0,1.023-0.118,1.445-0.355s0.731-0.562,0.93-0.973
				c0.151-0.317,0.227-0.786,0.227-1.406V54.121z"/>
			<path d="M303.879,58.285v-8.297h1.266v1.18c0.609-0.911,1.489-1.367,2.641-1.367c0.5,0,0.96,0.09,1.379,0.27
				s0.733,0.415,0.941,0.707s0.354,0.638,0.438,1.039c0.052,0.261,0.078,0.716,0.078,1.367v5.102h-1.406v-5.047
				c0-0.573-0.055-1.001-0.164-1.285s-0.304-0.511-0.582-0.68s-0.605-0.254-0.98-0.254c-0.599,0-1.116,0.19-1.551,0.57
				s-0.652,1.102-0.652,2.164v4.531H303.879z"/>
			<path d="M312.161,48.449v-1.617h1.406v1.617H312.161z M312.161,58.285v-8.297h1.406v8.297H312.161z"/>
			<path d="M314.342,58.285v-1.141l5.281-6.063c-0.599,0.031-1.128,0.047-1.586,0.047h-3.383v-1.141h6.781v0.93l-4.492,5.266
				l-0.867,0.961c0.63-0.047,1.222-0.07,1.773-0.07h3.836v1.211H314.342z"/>
			<path d="M327.874,57.262c-0.521,0.442-1.022,0.755-1.504,0.938s-0.999,0.273-1.551,0.273c-0.911,0-1.612-0.223-2.102-0.668
				s-0.734-1.015-0.734-1.707c0-0.406,0.093-0.777,0.277-1.113s0.427-0.605,0.727-0.809s0.637-0.356,1.012-0.461
				c0.276-0.073,0.692-0.144,1.25-0.211c1.136-0.136,1.972-0.297,2.508-0.484c0.005-0.192,0.008-0.315,0.008-0.367
				c0-0.573-0.133-0.977-0.398-1.211c-0.359-0.317-0.894-0.477-1.602-0.477c-0.661,0-1.149,0.116-1.465,0.348
				s-0.548,0.642-0.699,1.23l-1.375-0.188c0.125-0.589,0.331-1.063,0.617-1.426s0.7-0.641,1.242-0.836s1.169-0.293,1.883-0.293
				c0.708,0,1.284,0.083,1.727,0.25s0.769,0.376,0.977,0.629s0.354,0.571,0.438,0.957c0.047,0.239,0.07,0.672,0.07,1.297v1.875
				c0,1.308,0.03,2.134,0.09,2.48s0.179,0.679,0.355,0.996h-1.469C328.01,57.993,327.916,57.652,327.874,57.262z M327.757,54.121
				c-0.511,0.208-1.276,0.386-2.297,0.531c-0.578,0.083-0.987,0.177-1.227,0.281s-0.425,0.257-0.555,0.457s-0.195,0.423-0.195,0.668
				c0,0.375,0.142,0.688,0.426,0.938s0.699,0.375,1.246,0.375c0.542,0,1.023-0.118,1.445-0.355s0.731-0.562,0.93-0.973
				c0.151-0.317,0.227-0.786,0.227-1.406V54.121z"/>
			<path d="M336.148,55.246l1.383,0.18c-0.151,0.953-0.538,1.699-1.16,2.238s-1.387,0.809-2.293,0.809
				c-1.136,0-2.048-0.371-2.738-1.113s-1.035-1.806-1.035-3.191c0-0.896,0.148-1.68,0.445-2.352s0.749-1.176,1.355-1.512
				s1.267-0.504,1.98-0.504c0.901,0,1.638,0.228,2.211,0.684s0.94,1.103,1.102,1.941l-1.367,0.211
				c-0.13-0.558-0.36-0.977-0.691-1.258s-0.73-0.422-1.199-0.422c-0.708,0-1.284,0.254-1.727,0.762s-0.664,1.312-0.664,2.41
				c0,1.114,0.214,1.925,0.641,2.43s0.984,0.758,1.672,0.758c0.552,0,1.013-0.169,1.383-0.508S336.05,55.949,336.148,55.246z"/>
			<path d="M338.118,48.449v-1.617h1.406v1.617H338.118z M338.118,58.285v-8.297h1.406v8.297H338.118z"/>
			<path d="M340.517,54.137c0-1.536,0.427-2.675,1.281-3.414c0.714-0.614,1.583-0.922,2.609-0.922c1.141,0,2.073,0.374,2.797,1.121
				s1.086,1.78,1.086,3.098c0,1.067-0.16,1.907-0.48,2.52s-0.786,1.087-1.398,1.426s-1.28,0.508-2.004,0.508
				c-1.161,0-2.101-0.372-2.816-1.117S340.517,55.538,340.517,54.137z M341.963,54.137c0,1.063,0.231,1.858,0.695,2.387
				s1.047,0.793,1.75,0.793c0.698,0,1.278-0.266,1.742-0.797s0.695-1.341,0.695-2.43c0-1.026-0.233-1.804-0.699-2.332
				s-1.046-0.793-1.738-0.793c-0.703,0-1.286,0.263-1.75,0.789S341.963,53.074,341.963,54.137z M343.627,48.957l1.039-2.188h1.844
				l-1.719,2.188H343.627z"/>
			<path d="M349.315,58.285v-8.297h1.266v1.18c0.609-0.911,1.489-1.367,2.641-1.367c0.5,0,0.96,0.09,1.379,0.27
				s0.733,0.415,0.941,0.707s0.354,0.638,0.438,1.039c0.052,0.261,0.078,0.716,0.078,1.367v5.102h-1.406v-5.047
				c0-0.573-0.055-1.001-0.164-1.285s-0.304-0.511-0.582-0.68s-0.605-0.254-0.98-0.254c-0.599,0-1.116,0.19-1.551,0.57
				s-0.652,1.102-0.652,2.164v4.531H349.315z"/>
			<path d="M366.847,58.285v-1.047c-0.526,0.823-1.3,1.234-2.32,1.234c-0.661,0-1.27-0.183-1.824-0.547s-0.984-0.874-1.289-1.527
				s-0.457-1.405-0.457-2.254c0-0.828,0.138-1.579,0.414-2.254s0.69-1.191,1.242-1.551s1.169-0.539,1.852-0.539
				c0.5,0,0.945,0.105,1.336,0.316s0.708,0.485,0.953,0.824v-4.109h1.398v11.453H366.847z M362.401,54.144
				c0,1.063,0.224,1.856,0.672,2.383s0.977,0.789,1.586,0.789c0.614,0,1.137-0.251,1.566-0.754s0.645-1.27,0.645-2.301
				c0-1.136-0.219-1.969-0.656-2.5s-0.977-0.797-1.617-0.797c-0.625,0-1.147,0.255-1.566,0.766S362.401,53.046,362.401,54.144z"/>
			<path d="M375.418,55.613l1.453,0.18c-0.229,0.849-0.653,1.508-1.273,1.977s-1.411,0.703-2.375,0.703
				c-1.214,0-2.176-0.374-2.887-1.121s-1.066-1.796-1.066-3.145c0-1.396,0.359-2.479,1.078-3.25s1.651-1.156,2.797-1.156
				c1.109,0,2.016,0.378,2.719,1.133s1.055,1.817,1.055,3.188c0,0.083-0.003,0.208-0.008,0.375h-6.188
				c0.052,0.911,0.31,1.609,0.773,2.094s1.042,0.727,1.734,0.727c0.516,0,0.956-0.136,1.32-0.406S375.204,56.207,375.418,55.613z
				 M370.801,53.34h4.633c-0.063-0.698-0.239-1.222-0.531-1.57c-0.448-0.542-1.028-0.813-1.742-0.813
				c-0.646,0-1.188,0.216-1.629,0.648S370.848,52.616,370.801,53.34z"/>
			<path d="M18.88,75.027l0.203,1.242c-0.396,0.083-0.75,0.125-1.063,0.125c-0.511,0-0.906-0.081-1.188-0.242
				s-0.479-0.374-0.594-0.637s-0.172-0.816-0.172-1.66v-4.773h-1.031v-1.094h1.031v-2.055l1.398-0.844v2.898h1.414v1.094h-1.414
				v4.852c0,0.401,0.024,0.659,0.074,0.773s0.13,0.206,0.242,0.273s0.272,0.102,0.48,0.102
				C18.419,75.082,18.625,75.063,18.88,75.027z"/>
			<path d="M19.107,72.137c0-1.536,0.427-2.675,1.281-3.414c0.714-0.614,1.583-0.922,2.609-0.922c1.141,0,2.073,0.374,2.797,1.121
				s1.086,1.78,1.086,3.098c0,1.067-0.16,1.907-0.48,2.52s-0.786,1.087-1.398,1.426s-1.28,0.508-2.004,0.508
				c-1.161,0-2.101-0.372-2.816-1.117S19.107,73.538,19.107,72.137z M20.553,72.137c0,1.063,0.231,1.858,0.695,2.387
				s1.047,0.793,1.75,0.793c0.698,0,1.278-0.266,1.742-0.797s0.695-1.341,0.695-2.43c0-1.026-0.233-1.804-0.699-2.332
				s-1.046-0.793-1.738-0.793c-0.703,0-1.286,0.263-1.75,0.789S20.553,71.074,20.553,72.137z"/>
			<path d="M33.288,76.285v-1.047c-0.526,0.823-1.3,1.234-2.32,1.234c-0.661,0-1.27-0.183-1.824-0.547s-0.984-0.874-1.289-1.527
				s-0.457-1.405-0.457-2.254c0-0.828,0.138-1.579,0.414-2.254s0.69-1.191,1.242-1.551s1.169-0.539,1.852-0.539
				c0.5,0,0.945,0.105,1.336,0.316c0.391,0.211,0.708,0.485,0.953,0.824v-4.109h1.398v11.453H33.288z M28.843,72.144
				c0,1.063,0.224,1.856,0.672,2.383s0.977,0.789,1.586,0.789c0.614,0,1.137-0.251,1.566-0.754s0.645-1.27,0.645-2.301
				c0-1.136-0.219-1.969-0.656-2.5s-0.977-0.797-1.617-0.797c-0.625,0-1.147,0.255-1.566,0.766S28.843,71.046,28.843,72.144z"/>
			<path d="M35.656,72.137c0-1.536,0.427-2.675,1.281-3.414c0.714-0.614,1.583-0.922,2.609-0.922c1.141,0,2.073,0.374,2.797,1.121
				s1.086,1.78,1.086,3.098c0,1.067-0.16,1.907-0.48,2.52s-0.786,1.087-1.398,1.426s-1.28,0.508-2.004,0.508
				c-1.161,0-2.101-0.372-2.816-1.117S35.656,73.538,35.656,72.137z M37.101,72.137c0,1.063,0.231,1.858,0.695,2.387
				s1.047,0.793,1.75,0.793c0.698,0,1.278-0.266,1.742-0.797s0.695-1.341,0.695-2.43c0-1.026-0.233-1.804-0.699-2.332
				s-1.046-0.793-1.738-0.793c-0.703,0-1.286,0.263-1.75,0.789S37.101,71.074,37.101,72.137z"/>
			<path d="M43.891,73.808l1.391-0.219c0.078,0.558,0.296,0.984,0.652,1.281s0.855,0.445,1.496,0.445
				c0.646,0,1.125-0.132,1.438-0.395s0.469-0.571,0.469-0.926c0-0.317-0.138-0.567-0.414-0.75c-0.192-0.125-0.672-0.284-1.438-0.477
				c-1.031-0.261-1.746-0.485-2.145-0.676s-0.7-0.453-0.906-0.789s-0.309-0.707-0.309-1.113c0-0.37,0.085-0.712,0.254-1.027
				s0.399-0.577,0.691-0.785c0.219-0.161,0.517-0.298,0.895-0.41s0.782-0.168,1.215-0.168c0.651,0,1.223,0.094,1.715,0.281
				s0.855,0.441,1.09,0.762s0.396,0.749,0.484,1.285l-1.375,0.188c-0.063-0.427-0.243-0.761-0.543-1s-0.723-0.359-1.27-0.359
				c-0.646,0-1.106,0.106-1.383,0.32s-0.414,0.464-0.414,0.75c0,0.183,0.058,0.347,0.172,0.492c0.114,0.151,0.294,0.276,0.539,0.375
				c0.141,0.052,0.555,0.172,1.242,0.359c0.995,0.266,1.688,0.483,2.082,0.652s0.702,0.415,0.926,0.738s0.336,0.724,0.336,1.203
				c0,0.469-0.137,0.91-0.41,1.324s-0.668,0.734-1.184,0.961s-1.099,0.34-1.75,0.34c-1.078,0-1.899-0.224-2.465-0.672
				S44.048,74.688,43.891,73.808z"/>
			<path d="M58.509,76.285V64.832h1.406v11.453H58.509z"/>
			<path d="M60.947,72.137c0-1.536,0.427-2.675,1.281-3.414c0.714-0.614,1.583-0.922,2.609-0.922c1.141,0,2.073,0.374,2.797,1.121
				s1.086,1.78,1.086,3.098c0,1.067-0.16,1.907-0.48,2.52s-0.786,1.087-1.398,1.426s-1.28,0.508-2.004,0.508
				c-1.161,0-2.101-0.372-2.816-1.117S60.947,73.538,60.947,72.137z M62.392,72.137c0,1.063,0.231,1.858,0.695,2.387
				s1.047,0.793,1.75,0.793c0.698,0,1.278-0.266,1.742-0.797s0.695-1.341,0.695-2.43c0-1.026-0.233-1.804-0.699-2.332
				s-1.046-0.793-1.738-0.793c-0.703,0-1.286,0.263-1.75,0.789S62.392,71.074,62.392,72.137z"/>
			<path d="M69.183,73.808l1.391-0.219c0.078,0.558,0.296,0.984,0.652,1.281s0.855,0.445,1.496,0.445
				c0.646,0,1.125-0.132,1.438-0.395s0.469-0.571,0.469-0.926c0-0.317-0.138-0.567-0.414-0.75c-0.192-0.125-0.672-0.284-1.438-0.477
				c-1.031-0.261-1.746-0.485-2.145-0.676s-0.7-0.453-0.906-0.789s-0.309-0.707-0.309-1.113c0-0.37,0.085-0.712,0.254-1.027
				s0.399-0.577,0.691-0.785c0.219-0.161,0.517-0.298,0.895-0.41s0.782-0.168,1.215-0.168c0.651,0,1.223,0.094,1.715,0.281
				s0.855,0.441,1.09,0.762s0.396,0.749,0.484,1.285l-1.375,0.188c-0.063-0.427-0.243-0.761-0.543-1s-0.723-0.359-1.27-0.359
				c-0.646,0-1.106,0.106-1.383,0.32s-0.414,0.464-0.414,0.75c0,0.183,0.058,0.347,0.172,0.492c0.114,0.151,0.294,0.276,0.539,0.375
				c0.141,0.052,0.555,0.172,1.242,0.359c0.995,0.266,1.688,0.483,2.082,0.652s0.702,0.415,0.926,0.738s0.336,0.724,0.336,1.203
				c0,0.469-0.137,0.91-0.41,1.324s-0.668,0.734-1.184,0.961s-1.099,0.34-1.75,0.34c-1.078,0-1.899-0.224-2.465-0.672
				S69.339,74.688,69.183,73.808z"/>
			<path d="M83.816,76.285v-8.297h1.266v1.258c0.323-0.589,0.621-0.977,0.895-1.164s0.574-0.281,0.902-0.281
				c0.474,0,0.956,0.151,1.445,0.453l-0.484,1.305c-0.344-0.203-0.688-0.305-1.031-0.305c-0.308,0-0.583,0.093-0.828,0.277
				s-0.419,0.441-0.523,0.77c-0.156,0.5-0.234,1.047-0.234,1.641v4.344H83.816z"/>
			<path d="M94.216,73.613l1.453,0.18c-0.229,0.849-0.653,1.508-1.273,1.977s-1.411,0.703-2.375,0.703
				c-1.214,0-2.176-0.374-2.887-1.121s-1.066-1.796-1.066-3.145c0-1.396,0.359-2.479,1.078-3.25s1.651-1.156,2.797-1.156
				c1.109,0,2.016,0.378,2.719,1.133s1.055,1.817,1.055,3.188c0,0.083-0.003,0.208-0.008,0.375H89.52
				c0.052,0.911,0.31,1.609,0.773,2.094s1.042,0.727,1.734,0.727c0.516,0,0.956-0.136,1.32-0.406S94.002,74.207,94.216,73.613z
				 M89.599,71.34h4.633c-0.063-0.698-0.239-1.222-0.531-1.57c-0.448-0.542-1.028-0.813-1.742-0.813
				c-0.646,0-1.188,0.216-1.629,0.648S89.645,70.616,89.599,71.34z"/>
			<path d="M102.225,73.246l1.383,0.18c-0.151,0.953-0.538,1.699-1.16,2.238s-1.387,0.809-2.293,0.809
				c-1.136,0-2.048-0.371-2.738-1.113s-1.035-1.806-1.035-3.191c0-0.896,0.148-1.68,0.445-2.352s0.749-1.176,1.355-1.512
				s1.267-0.504,1.98-0.504c0.901,0,1.638,0.228,2.211,0.684s0.94,1.103,1.102,1.941l-1.367,0.211
				c-0.13-0.558-0.36-0.977-0.691-1.258s-0.73-0.422-1.199-0.422c-0.708,0-1.284,0.254-1.727,0.762s-0.664,1.312-0.664,2.41
				c0,1.114,0.214,1.925,0.641,2.43s0.984,0.758,1.672,0.758c0.552,0,1.013-0.169,1.383-0.508S102.126,73.949,102.225,73.246z"/>
			<path d="M109.624,76.285v-1.219c-0.646,0.938-1.523,1.406-2.633,1.406c-0.489,0-0.946-0.094-1.371-0.281
				s-0.739-0.423-0.945-0.707s-0.351-0.632-0.434-1.043c-0.058-0.276-0.086-0.714-0.086-1.313v-5.141h1.406v4.602
				c0,0.734,0.028,1.229,0.086,1.484c0.089,0.37,0.276,0.66,0.563,0.871s0.641,0.316,1.063,0.316s0.817-0.108,1.188-0.324
				s0.632-0.511,0.785-0.883s0.23-0.913,0.23-1.621v-4.445h1.406v8.297H109.624z"/>
			<path d="M112.445,76.285v-8.297h1.266v1.258c0.323-0.589,0.621-0.977,0.895-1.164s0.574-0.281,0.902-0.281
				c0.474,0,0.956,0.151,1.445,0.453l-0.484,1.305c-0.344-0.203-0.688-0.305-1.031-0.305c-0.308,0-0.583,0.093-0.828,0.277
				s-0.419,0.441-0.523,0.77c-0.156,0.5-0.234,1.047-0.234,1.641v4.344H112.445z"/>
			<path d="M116.602,73.808l1.391-0.219c0.078,0.558,0.296,0.984,0.652,1.281s0.855,0.445,1.496,0.445
				c0.646,0,1.125-0.132,1.438-0.395s0.469-0.571,0.469-0.926c0-0.317-0.138-0.567-0.414-0.75c-0.192-0.125-0.672-0.284-1.438-0.477
				c-1.031-0.261-1.746-0.485-2.145-0.676s-0.7-0.453-0.906-0.789s-0.309-0.707-0.309-1.113c0-0.37,0.085-0.712,0.254-1.027
				s0.399-0.577,0.691-0.785c0.219-0.161,0.517-0.298,0.895-0.41s0.782-0.168,1.215-0.168c0.651,0,1.223,0.094,1.715,0.281
				s0.855,0.441,1.09,0.762s0.396,0.749,0.484,1.285l-1.375,0.188c-0.063-0.427-0.243-0.761-0.543-1s-0.723-0.359-1.27-0.359
				c-0.646,0-1.106,0.106-1.383,0.32s-0.414,0.464-0.414,0.75c0,0.183,0.058,0.347,0.172,0.492c0.114,0.151,0.294,0.276,0.539,0.375
				c0.141,0.052,0.555,0.172,1.242,0.359c0.995,0.266,1.688,0.483,2.082,0.652s0.702,0.415,0.926,0.738s0.336,0.724,0.336,1.203
				c0,0.469-0.137,0.91-0.41,1.324s-0.668,0.734-1.184,0.961s-1.099,0.34-1.75,0.34c-1.078,0-1.899-0.224-2.465-0.672
				S116.759,74.688,116.602,73.808z"/>
			<path d="M124.017,72.137c0-1.536,0.427-2.675,1.281-3.414c0.714-0.614,1.583-0.922,2.609-0.922c1.141,0,2.073,0.374,2.797,1.121
				s1.086,1.78,1.086,3.098c0,1.067-0.16,1.907-0.48,2.52s-0.786,1.087-1.398,1.426s-1.28,0.508-2.004,0.508
				c-1.161,0-2.101-0.372-2.816-1.117S124.017,73.538,124.017,72.137z M125.463,72.137c0,1.063,0.231,1.858,0.695,2.387
				s1.047,0.793,1.75,0.793c0.698,0,1.278-0.266,1.742-0.797s0.695-1.341,0.695-2.43c0-1.026-0.233-1.804-0.699-2.332
				s-1.046-0.793-1.738-0.793c-0.703,0-1.286,0.263-1.75,0.789S125.463,71.074,125.463,72.137z"/>
			<path d="M132.253,73.808l1.391-0.219c0.078,0.558,0.296,0.984,0.652,1.281s0.855,0.445,1.496,0.445
				c0.646,0,1.125-0.132,1.438-0.395s0.469-0.571,0.469-0.926c0-0.317-0.138-0.567-0.414-0.75c-0.192-0.125-0.672-0.284-1.438-0.477
				c-1.031-0.261-1.746-0.485-2.145-0.676s-0.7-0.453-0.906-0.789s-0.309-0.707-0.309-1.113c0-0.37,0.085-0.712,0.254-1.027
				s0.399-0.577,0.691-0.785c0.219-0.161,0.517-0.298,0.895-0.41s0.782-0.168,1.215-0.168c0.651,0,1.223,0.094,1.715,0.281
				s0.855,0.441,1.09,0.762s0.396,0.749,0.484,1.285l-1.375,0.188c-0.063-0.427-0.243-0.761-0.543-1s-0.723-0.359-1.27-0.359
				c-0.646,0-1.106,0.106-1.383,0.32s-0.414,0.464-0.414,0.75c0,0.183,0.058,0.347,0.172,0.492c0.114,0.151,0.294,0.276,0.539,0.375
				c0.141,0.052,0.555,0.172,1.242,0.359c0.995,0.266,1.688,0.483,2.082,0.652s0.702,0.415,0.926,0.738s0.336,0.724,0.336,1.203
				c0,0.469-0.137,0.91-0.41,1.324s-0.668,0.734-1.184,0.961s-1.099,0.34-1.75,0.34c-1.078,0-1.899-0.224-2.465-0.672
				S132.409,74.688,132.253,73.808z"/>
			<path d="M146.901,76.285v-8.297h1.266v1.18c0.609-0.911,1.489-1.367,2.641-1.367c0.5,0,0.96,0.09,1.379,0.27
				s0.733,0.415,0.941,0.707s0.354,0.638,0.438,1.039c0.052,0.261,0.078,0.716,0.078,1.367v5.102h-1.406v-5.047
				c0-0.573-0.055-1.001-0.164-1.285s-0.304-0.511-0.582-0.68s-0.605-0.254-0.98-0.254c-0.599,0-1.116,0.19-1.551,0.57
				s-0.652,1.102-0.652,2.164v4.531H146.901z"/>
			<path d="M160.855,73.613l1.453,0.18c-0.229,0.849-0.653,1.508-1.273,1.977s-1.411,0.703-2.375,0.703
				c-1.214,0-2.176-0.374-2.887-1.121s-1.066-1.796-1.066-3.145c0-1.396,0.359-2.479,1.078-3.25s1.651-1.156,2.797-1.156
				c1.109,0,2.016,0.378,2.719,1.133s1.055,1.817,1.055,3.188c0,0.083-0.003,0.208-0.008,0.375h-6.188
				c0.052,0.911,0.31,1.609,0.773,2.094s1.042,0.727,1.734,0.727c0.516,0,0.956-0.136,1.32-0.406S160.641,74.207,160.855,73.613z
				 M156.238,71.34h4.633c-0.063-0.698-0.239-1.222-0.531-1.57c-0.448-0.542-1.028-0.813-1.742-0.813
				c-0.646,0-1.188,0.216-1.629,0.648S156.285,70.616,156.238,71.34z"/>
			<path d="M168.864,73.246l1.383,0.18c-0.151,0.953-0.538,1.699-1.16,2.238s-1.387,0.809-2.293,0.809
				c-1.136,0-2.048-0.371-2.738-1.113s-1.035-1.806-1.035-3.191c0-0.896,0.148-1.68,0.445-2.352s0.749-1.176,1.355-1.512
				s1.267-0.504,1.98-0.504c0.901,0,1.638,0.228,2.211,0.684s0.94,1.103,1.102,1.941l-1.367,0.211
				c-0.13-0.558-0.36-0.977-0.691-1.258s-0.73-0.422-1.199-0.422c-0.708,0-1.284,0.254-1.727,0.762s-0.664,1.312-0.664,2.41
				c0,1.114,0.214,1.925,0.641,2.43s0.984,0.758,1.672,0.758c0.552,0,1.013-0.169,1.383-0.508S168.766,73.949,168.864,73.246z"/>
			<path d="M176.506,73.613l1.453,0.18c-0.229,0.849-0.653,1.508-1.273,1.977s-1.411,0.703-2.375,0.703
				c-1.214,0-2.176-0.374-2.887-1.121s-1.066-1.796-1.066-3.145c0-1.396,0.359-2.479,1.078-3.25s1.651-1.156,2.797-1.156
				c1.109,0,2.016,0.378,2.719,1.133s1.055,1.817,1.055,3.188c0,0.083-0.003,0.208-0.008,0.375h-6.188
				c0.052,0.911,0.31,1.609,0.773,2.094s1.042,0.727,1.734,0.727c0.516,0,0.956-0.136,1.32-0.406S176.292,74.207,176.506,73.613z
				 M171.889,71.34h4.633c-0.063-0.698-0.239-1.222-0.531-1.57c-0.448-0.542-1.028-0.813-1.742-0.813
				c-0.646,0-1.188,0.216-1.629,0.648S171.935,70.616,171.889,71.34z"/>
			<path d="M178.538,73.808l1.391-0.219c0.078,0.558,0.296,0.984,0.652,1.281s0.855,0.445,1.496,0.445
				c0.646,0,1.125-0.132,1.438-0.395s0.469-0.571,0.469-0.926c0-0.317-0.138-0.567-0.414-0.75c-0.192-0.125-0.672-0.284-1.438-0.477
				c-1.031-0.261-1.746-0.485-2.145-0.676s-0.7-0.453-0.906-0.789s-0.309-0.707-0.309-1.113c0-0.37,0.085-0.712,0.254-1.027
				s0.399-0.577,0.691-0.785c0.219-0.161,0.517-0.298,0.895-0.41s0.782-0.168,1.215-0.168c0.651,0,1.223,0.094,1.715,0.281
				s0.855,0.441,1.09,0.762s0.396,0.749,0.484,1.285l-1.375,0.188c-0.063-0.427-0.243-0.761-0.543-1s-0.723-0.359-1.27-0.359
				c-0.646,0-1.106,0.106-1.383,0.32s-0.414,0.464-0.414,0.75c0,0.183,0.058,0.347,0.172,0.492c0.114,0.151,0.294,0.276,0.539,0.375
				c0.141,0.052,0.555,0.172,1.242,0.359c0.995,0.266,1.688,0.483,2.082,0.652s0.702,0.415,0.926,0.738s0.336,0.724,0.336,1.203
				c0,0.469-0.137,0.91-0.41,1.324s-0.668,0.734-1.184,0.961s-1.099,0.34-1.75,0.34c-1.078,0-1.899-0.224-2.465-0.672
				S178.694,74.688,178.538,73.808z"/>
			<path d="M191.891,75.262c-0.521,0.442-1.022,0.755-1.504,0.938s-0.999,0.273-1.551,0.273c-0.911,0-1.612-0.223-2.102-0.668
				S186,74.79,186,74.097c0-0.406,0.093-0.777,0.277-1.113s0.427-0.605,0.727-0.809s0.637-0.356,1.012-0.461
				c0.276-0.073,0.692-0.144,1.25-0.211c1.136-0.136,1.972-0.297,2.508-0.484c0.005-0.192,0.008-0.315,0.008-0.367
				c0-0.573-0.133-0.977-0.398-1.211c-0.359-0.317-0.894-0.477-1.602-0.477c-0.661,0-1.149,0.116-1.465,0.348
				s-0.548,0.642-0.699,1.23l-1.375-0.188c0.125-0.589,0.331-1.063,0.617-1.426s0.7-0.641,1.242-0.836s1.169-0.293,1.883-0.293
				c0.708,0,1.284,0.083,1.727,0.25s0.769,0.376,0.977,0.629s0.354,0.571,0.438,0.957c0.047,0.239,0.07,0.672,0.07,1.297v1.875
				c0,1.308,0.03,2.134,0.09,2.48s0.179,0.679,0.355,0.996h-1.469C192.026,75.993,191.933,75.652,191.891,75.262z M191.773,72.121
				c-0.511,0.208-1.276,0.386-2.297,0.531c-0.578,0.083-0.987,0.177-1.227,0.281s-0.425,0.257-0.555,0.457s-0.195,0.423-0.195,0.668
				c0,0.375,0.142,0.688,0.426,0.938s0.699,0.375,1.246,0.375c0.542,0,1.023-0.118,1.445-0.355s0.731-0.562,0.93-0.973
				c0.151-0.317,0.227-0.786,0.227-1.406V72.121z"/>
			<path d="M194.735,76.285v-8.297h1.266v1.258c0.323-0.589,0.621-0.977,0.895-1.164s0.574-0.281,0.902-0.281
				c0.474,0,0.956,0.151,1.445,0.453l-0.484,1.305c-0.344-0.203-0.688-0.305-1.031-0.305c-0.308,0-0.583,0.093-0.828,0.277
				s-0.419,0.441-0.523,0.77c-0.156,0.5-0.234,1.047-0.234,1.641v4.344H194.735z"/>
			<path d="M199.463,66.449v-1.617h1.406v1.617H199.463z M199.463,76.285v-8.297h1.406v8.297H199.463z"/>
			<path d="M201.862,72.137c0-1.536,0.427-2.675,1.281-3.414c0.714-0.614,1.583-0.922,2.609-0.922c1.141,0,2.073,0.374,2.797,1.121
				s1.086,1.78,1.086,3.098c0,1.067-0.16,1.907-0.48,2.52s-0.786,1.087-1.398,1.426s-1.28,0.508-2.004,0.508
				c-1.161,0-2.101-0.372-2.816-1.117S201.862,73.538,201.862,72.137z M203.308,72.137c0,1.063,0.231,1.858,0.695,2.387
				s1.047,0.793,1.75,0.793c0.698,0,1.278-0.266,1.742-0.797s0.695-1.341,0.695-2.43c0-1.026-0.233-1.804-0.699-2.332
				s-1.046-0.793-1.738-0.793c-0.703,0-1.286,0.263-1.75,0.789S203.308,71.074,203.308,72.137z"/>
			<path d="M210.098,73.808l1.391-0.219c0.078,0.558,0.296,0.984,0.652,1.281s0.855,0.445,1.496,0.445
				c0.646,0,1.125-0.132,1.438-0.395s0.469-0.571,0.469-0.926c0-0.317-0.138-0.567-0.414-0.75c-0.192-0.125-0.672-0.284-1.438-0.477
				c-1.031-0.261-1.746-0.485-2.145-0.676s-0.7-0.453-0.906-0.789s-0.309-0.707-0.309-1.113c0-0.37,0.085-0.712,0.254-1.027
				s0.399-0.577,0.691-0.785c0.219-0.161,0.517-0.298,0.895-0.41s0.782-0.168,1.215-0.168c0.651,0,1.223,0.094,1.715,0.281
				s0.855,0.441,1.09,0.762s0.396,0.749,0.484,1.285l-1.375,0.188c-0.063-0.427-0.243-0.761-0.543-1s-0.723-0.359-1.27-0.359
				c-0.646,0-1.106,0.106-1.383,0.32s-0.414,0.464-0.414,0.75c0,0.183,0.058,0.347,0.172,0.492c0.114,0.151,0.294,0.276,0.539,0.375
				c0.141,0.052,0.555,0.172,1.242,0.359c0.995,0.266,1.688,0.483,2.082,0.652s0.702,0.415,0.926,0.738s0.336,0.724,0.336,1.203
				c0,0.469-0.137,0.91-0.41,1.324s-0.668,0.734-1.184,0.961s-1.099,0.34-1.75,0.34c-1.078,0-1.899-0.224-2.465-0.672
				S210.254,74.688,210.098,73.808z"/>
			<path d="M218.403,76.285v-1.602h1.602v1.602c0,0.589-0.104,1.063-0.313,1.426s-0.539,0.642-0.992,0.84l-0.391-0.602
				c0.297-0.13,0.516-0.321,0.656-0.574s0.219-0.616,0.234-1.09H218.403z"/>
			<path d="M228.567,79.465V67.988h1.281v1.078c0.302-0.422,0.644-0.738,1.023-0.949s0.841-0.316,1.383-0.316
				c0.708,0,1.333,0.183,1.875,0.547s0.95,0.879,1.227,1.543s0.414,1.392,0.414,2.184c0,0.849-0.152,1.613-0.457,2.293
				s-0.747,1.2-1.328,1.563s-1.191,0.543-1.832,0.543c-0.469,0-0.89-0.099-1.262-0.297s-0.679-0.448-0.918-0.75v4.039H228.567z
				 M229.841,72.183c0,1.067,0.216,1.856,0.648,2.367s0.956,0.766,1.57,0.766c0.625,0,1.16-0.265,1.605-0.793
				s0.668-1.348,0.668-2.457c0-1.058-0.218-1.849-0.652-2.375s-0.954-0.789-1.559-0.789c-0.599,0-1.129,0.28-1.59,0.84
				S229.841,71.116,229.841,72.183z"/>
			<path d="M242.256,75.262c-0.521,0.442-1.022,0.755-1.504,0.938s-0.999,0.273-1.551,0.273c-0.911,0-1.612-0.223-2.102-0.668
				s-0.734-1.015-0.734-1.707c0-0.406,0.093-0.777,0.277-1.113s0.427-0.605,0.727-0.809s0.637-0.356,1.012-0.461
				c0.276-0.073,0.692-0.144,1.25-0.211c1.136-0.136,1.972-0.297,2.508-0.484c0.005-0.192,0.008-0.315,0.008-0.367
				c0-0.573-0.133-0.977-0.398-1.211c-0.359-0.317-0.894-0.477-1.602-0.477c-0.661,0-1.149,0.116-1.465,0.348
				s-0.548,0.642-0.699,1.23l-1.375-0.188c0.125-0.589,0.331-1.063,0.617-1.426s0.7-0.641,1.242-0.836s1.169-0.293,1.883-0.293
				c0.708,0,1.284,0.083,1.727,0.25s0.769,0.376,0.977,0.629s0.354,0.571,0.438,0.957c0.047,0.239,0.07,0.672,0.07,1.297v1.875
				c0,1.308,0.03,2.134,0.09,2.48s0.179,0.679,0.355,0.996h-1.469C242.391,75.993,242.298,75.652,242.256,75.262z M242.139,72.121
				c-0.511,0.208-1.276,0.386-2.297,0.531c-0.578,0.083-0.987,0.177-1.227,0.281s-0.425,0.257-0.555,0.457s-0.195,0.423-0.195,0.668
				c0,0.375,0.142,0.688,0.426,0.938s0.699,0.375,1.246,0.375c0.542,0,1.023-0.118,1.445-0.355s0.731-0.562,0.93-0.973
				c0.151-0.317,0.227-0.786,0.227-1.406V72.121z"/>
			<path d="M245.1,76.285v-8.297h1.266v1.258c0.323-0.589,0.621-0.977,0.895-1.164s0.574-0.281,0.902-0.281
				c0.474,0,0.956,0.151,1.445,0.453l-0.484,1.305c-0.344-0.203-0.688-0.305-1.031-0.305c-0.308,0-0.583,0.093-0.828,0.277
				s-0.419,0.441-0.523,0.77c-0.156,0.5-0.234,1.047-0.234,1.641v4.344H245.1z"/>
			<path d="M255.234,75.262c-0.521,0.442-1.022,0.755-1.504,0.938s-0.999,0.273-1.551,0.273c-0.911,0-1.612-0.223-2.102-0.668
				s-0.734-1.015-0.734-1.707c0-0.406,0.093-0.777,0.277-1.113s0.427-0.605,0.727-0.809s0.637-0.356,1.012-0.461
				c0.276-0.073,0.692-0.144,1.25-0.211c1.136-0.136,1.972-0.297,2.508-0.484c0.005-0.192,0.008-0.315,0.008-0.367
				c0-0.573-0.133-0.977-0.398-1.211c-0.359-0.317-0.894-0.477-1.602-0.477c-0.661,0-1.149,0.116-1.465,0.348
				s-0.548,0.642-0.699,1.23l-1.375-0.188c0.125-0.589,0.331-1.063,0.617-1.426s0.7-0.641,1.242-0.836s1.169-0.293,1.883-0.293
				c0.708,0,1.284,0.083,1.727,0.25s0.769,0.376,0.977,0.629c0.208,0.253,0.354,0.571,0.438,0.957
				c0.047,0.239,0.07,0.672,0.07,1.297v1.875c0,1.308,0.03,2.134,0.09,2.48s0.179,0.679,0.355,0.996h-1.469
				C255.37,75.993,255.276,75.652,255.234,75.262z M255.117,72.121c-0.511,0.208-1.276,0.386-2.297,0.531
				c-0.578,0.083-0.987,0.177-1.227,0.281s-0.425,0.257-0.555,0.457s-0.195,0.423-0.195,0.668c0,0.375,0.142,0.688,0.426,0.938
				s0.699,0.375,1.246,0.375c0.542,0,1.023-0.118,1.445-0.355s0.731-0.562,0.93-0.973c0.151-0.317,0.227-0.786,0.227-1.406V72.121z"
				/>
			<path d="M264.806,79.465V67.988h1.281v1.078c0.302-0.422,0.644-0.738,1.023-0.949s0.841-0.316,1.383-0.316
				c0.708,0,1.333,0.183,1.875,0.547s0.95,0.879,1.227,1.543s0.414,1.392,0.414,2.184c0,0.849-0.152,1.613-0.457,2.293
				s-0.747,1.2-1.328,1.563s-1.191,0.543-1.832,0.543c-0.469,0-0.89-0.099-1.262-0.297s-0.679-0.448-0.918-0.75v4.039H264.806z
				 M266.079,72.183c0,1.067,0.216,1.856,0.648,2.367s0.956,0.766,1.57,0.766c0.625,0,1.16-0.265,1.605-0.793
				s0.668-1.348,0.668-2.457c0-1.058-0.218-1.849-0.652-2.375s-0.954-0.789-1.559-0.789c-0.599,0-1.129,0.28-1.59,0.84
				S266.079,71.116,266.079,72.183z"/>
			<path d="M272.557,72.137c0-1.536,0.427-2.675,1.281-3.414c0.714-0.614,1.583-0.922,2.609-0.922c1.141,0,2.073,0.374,2.797,1.121
				s1.086,1.78,1.086,3.098c0,1.067-0.16,1.907-0.48,2.52s-0.786,1.087-1.398,1.426s-1.28,0.508-2.004,0.508
				c-1.161,0-2.101-0.372-2.816-1.117S272.557,73.538,272.557,72.137z M274.002,72.137c0,1.063,0.231,1.858,0.695,2.387
				s1.047,0.793,1.75,0.793c0.698,0,1.278-0.266,1.742-0.797s0.695-1.341,0.695-2.43c0-1.026-0.233-1.804-0.699-2.332
				s-1.046-0.793-1.738-0.793c-0.703,0-1.286,0.263-1.75,0.789S274.002,71.074,274.002,72.137z"/>
			<path d="M286.737,76.285v-1.047c-0.526,0.823-1.3,1.234-2.32,1.234c-0.661,0-1.27-0.183-1.824-0.547s-0.984-0.874-1.289-1.527
				s-0.457-1.405-0.457-2.254c0-0.828,0.138-1.579,0.414-2.254s0.69-1.191,1.242-1.551s1.169-0.539,1.852-0.539
				c0.5,0,0.945,0.105,1.336,0.316s0.708,0.485,0.953,0.824v-4.109h1.398v11.453H286.737z M282.292,72.144
				c0,1.063,0.224,1.856,0.672,2.383s0.977,0.789,1.586,0.789c0.614,0,1.137-0.251,1.566-0.754s0.645-1.27,0.645-2.301
				c0-1.136-0.219-1.969-0.656-2.5s-0.977-0.797-1.617-0.797c-0.625,0-1.147,0.255-1.566,0.766S282.292,71.046,282.292,72.144z"/>
			<path d="M295.309,73.613l1.453,0.18c-0.229,0.849-0.653,1.508-1.273,1.977s-1.411,0.703-2.375,0.703
				c-1.214,0-2.176-0.374-2.887-1.121s-1.066-1.796-1.066-3.145c0-1.396,0.359-2.479,1.078-3.25s1.651-1.156,2.797-1.156
				c1.109,0,2.016,0.378,2.719,1.133s1.055,1.817,1.055,3.188c0,0.083-0.003,0.208-0.008,0.375h-6.188
				c0.052,0.911,0.31,1.609,0.773,2.094s1.042,0.727,1.734,0.727c0.516,0,0.956-0.136,1.32-0.406S295.095,74.207,295.309,73.613z
				 M290.691,71.34h4.633c-0.063-0.698-0.239-1.222-0.531-1.57c-0.448-0.542-1.028-0.813-1.742-0.813
				c-0.646,0-1.188,0.216-1.629,0.648S290.738,70.616,290.691,71.34z"/>
			<path d="M297.888,76.285v-8.297h1.266v1.258c0.323-0.589,0.621-0.977,0.895-1.164s0.574-0.281,0.902-0.281
				c0.474,0,0.956,0.151,1.445,0.453l-0.484,1.305c-0.344-0.203-0.688-0.305-1.031-0.305c-0.308,0-0.583,0.093-0.828,0.277
				s-0.419,0.441-0.523,0.77c-0.156,0.5-0.234,1.047-0.234,1.641v4.344H297.888z"/>
			<path d="M309.059,76.972l1.367,0.203c0.058,0.422,0.216,0.729,0.477,0.922c0.349,0.261,0.825,0.391,1.43,0.391
				c0.651,0,1.153-0.13,1.508-0.391s0.594-0.625,0.719-1.094c0.073-0.286,0.106-0.888,0.102-1.805
				c-0.614,0.724-1.38,1.086-2.297,1.086c-1.141,0-2.023-0.411-2.648-1.234s-0.938-1.81-0.938-2.961c0-0.792,0.144-1.522,0.43-2.191
				s0.702-1.187,1.246-1.551s1.184-0.547,1.918-0.547c0.979,0,1.786,0.396,2.422,1.188v-1h1.297v7.172
				c0,1.292-0.132,2.207-0.395,2.746s-0.68,0.965-1.25,1.277s-1.272,0.469-2.105,0.469c-0.989,0-1.789-0.223-2.398-0.668
				S309.039,77.868,309.059,76.972z M310.224,71.988c0,1.089,0.216,1.883,0.648,2.383s0.974,0.75,1.625,0.75
				c0.646,0,1.188-0.249,1.625-0.746s0.656-1.277,0.656-2.34c0-1.016-0.226-1.781-0.676-2.297s-0.993-0.773-1.629-0.773
				c-0.625,0-1.156,0.254-1.594,0.762S310.224,70.988,310.224,71.988z"/>
			<path d="M323.271,73.613l1.453,0.18c-0.229,0.849-0.653,1.508-1.273,1.977s-1.411,0.703-2.375,0.703
				c-1.214,0-2.176-0.374-2.887-1.121s-1.066-1.796-1.066-3.145c0-1.396,0.359-2.479,1.078-3.25s1.651-1.156,2.797-1.156
				c1.109,0,2.016,0.378,2.719,1.133s1.055,1.817,1.055,3.188c0,0.083-0.003,0.208-0.008,0.375h-6.188
				c0.052,0.911,0.31,1.609,0.773,2.094s1.042,0.727,1.734,0.727c0.516,0,0.956-0.136,1.32-0.406S323.058,74.207,323.271,73.613z
				 M318.654,71.34h4.633c-0.063-0.698-0.239-1.222-0.531-1.57c-0.448-0.542-1.028-0.813-1.742-0.813
				c-0.646,0-1.188,0.216-1.629,0.648S318.701,70.616,318.654,71.34z"/>
			<path d="M325.866,76.285v-8.297h1.266v1.18c0.609-0.911,1.489-1.367,2.641-1.367c0.5,0,0.96,0.09,1.379,0.27
				s0.733,0.415,0.941,0.707s0.354,0.638,0.438,1.039c0.052,0.261,0.078,0.716,0.078,1.367v5.102h-1.406v-5.047
				c0-0.573-0.055-1.001-0.164-1.285s-0.304-0.511-0.582-0.68s-0.605-0.254-0.98-0.254c-0.599,0-1.116,0.19-1.551,0.57
				s-0.652,1.102-0.652,2.164v4.531H325.866z"/>
			<path d="M339.82,73.613l1.453,0.18c-0.229,0.849-0.653,1.508-1.273,1.977s-1.411,0.703-2.375,0.703
				c-1.214,0-2.176-0.374-2.887-1.121s-1.066-1.796-1.066-3.145c0-1.396,0.359-2.479,1.078-3.25s1.651-1.156,2.797-1.156
				c1.109,0,2.016,0.378,2.719,1.133s1.055,1.817,1.055,3.188c0,0.083-0.003,0.208-0.008,0.375h-6.188
				c0.052,0.911,0.31,1.609,0.773,2.094s1.042,0.727,1.734,0.727c0.516,0,0.956-0.136,1.32-0.406S339.606,74.207,339.82,73.613z
				 M335.203,71.34h4.633c-0.063-0.698-0.239-1.222-0.531-1.57c-0.448-0.542-1.028-0.813-1.742-0.813
				c-0.646,0-1.188,0.216-1.629,0.648S335.25,70.616,335.203,71.34z"/>
			<path d="M342.399,76.285v-8.297h1.266v1.258c0.323-0.589,0.621-0.977,0.895-1.164s0.574-0.281,0.902-0.281
				c0.474,0,0.956,0.151,1.445,0.453l-0.484,1.305c-0.344-0.203-0.688-0.305-1.031-0.305c-0.308,0-0.583,0.093-0.828,0.277
				s-0.419,0.441-0.523,0.77c-0.156,0.5-0.234,1.047-0.234,1.641v4.344H342.399z"/>
			<path d="M352.533,75.262c-0.521,0.442-1.022,0.755-1.504,0.938s-0.999,0.273-1.551,0.273c-0.911,0-1.612-0.223-2.102-0.668
				s-0.734-1.015-0.734-1.707c0-0.406,0.093-0.777,0.277-1.113s0.427-0.605,0.727-0.809s0.637-0.356,1.012-0.461
				c0.276-0.073,0.692-0.144,1.25-0.211c1.136-0.136,1.972-0.297,2.508-0.484c0.005-0.192,0.008-0.315,0.008-0.367
				c0-0.573-0.133-0.977-0.398-1.211c-0.359-0.317-0.894-0.477-1.602-0.477c-0.661,0-1.149,0.116-1.465,0.348
				s-0.548,0.642-0.699,1.23l-1.375-0.188c0.125-0.589,0.331-1.063,0.617-1.426s0.7-0.641,1.242-0.836s1.169-0.293,1.883-0.293
				c0.708,0,1.284,0.083,1.727,0.25s0.769,0.376,0.977,0.629s0.354,0.571,0.438,0.957c0.047,0.239,0.07,0.672,0.07,1.297v1.875
				c0,1.308,0.03,2.134,0.09,2.48s0.179,0.679,0.355,0.996h-1.469C352.669,75.993,352.575,75.652,352.533,75.262z M352.416,72.121
				c-0.511,0.208-1.276,0.386-2.297,0.531c-0.578,0.083-0.987,0.177-1.227,0.281s-0.425,0.257-0.555,0.457s-0.195,0.423-0.195,0.668
				c0,0.375,0.142,0.688,0.426,0.938s0.699,0.375,1.246,0.375c0.542,0,1.023-0.118,1.445-0.355s0.731-0.562,0.93-0.973
				c0.151-0.317,0.227-0.786,0.227-1.406V72.121z"/>
			<path d="M355.378,76.285v-8.297h1.266v1.258c0.323-0.589,0.621-0.977,0.895-1.164s0.574-0.281,0.902-0.281
				c0.474,0,0.956,0.151,1.445,0.453l-0.484,1.305c-0.344-0.203-0.688-0.305-1.031-0.305c-0.308,0-0.583,0.093-0.828,0.277
				s-0.419,0.441-0.523,0.77c-0.156,0.5-0.234,1.047-0.234,1.641v4.344H355.378z"/>
			<path d="M372.487,73.613l1.453,0.18c-0.229,0.849-0.653,1.508-1.273,1.977s-1.411,0.703-2.375,0.703
				c-1.214,0-2.176-0.374-2.887-1.121s-1.066-1.796-1.066-3.145c0-1.396,0.359-2.479,1.078-3.25s1.651-1.156,2.797-1.156
				c1.109,0,2.016,0.378,2.719,1.133s1.055,1.817,1.055,3.188c0,0.083-0.003,0.208-0.008,0.375h-6.188
				c0.052,0.911,0.31,1.609,0.773,2.094s1.042,0.727,1.734,0.727c0.516,0,0.956-0.136,1.32-0.406S372.273,74.207,372.487,73.613z
				 M367.87,71.34h4.633c-0.063-0.698-0.239-1.222-0.531-1.57c-0.448-0.542-1.028-0.813-1.742-0.813
				c-0.646,0-1.188,0.216-1.629,0.648S367.917,70.616,367.87,71.34z"/>
			<path d="M375.051,76.285V64.832h1.406v11.453H375.051z"/>
			<path d="M18.114,94.285l-3.156-8.297h1.484l1.781,4.969c0.192,0.536,0.37,1.094,0.531,1.672c0.125-0.438,0.3-0.964,0.523-1.578
				l1.844-5.063h1.445l-3.141,8.297H18.114z"/>
			<path d="M28.6,93.262c-0.521,0.442-1.022,0.755-1.504,0.938s-0.999,0.273-1.551,0.273c-0.911,0-1.612-0.223-2.102-0.668
				s-0.734-1.015-0.734-1.707c0-0.406,0.093-0.777,0.277-1.113s0.427-0.605,0.727-0.809s0.637-0.356,1.012-0.461
				c0.276-0.073,0.692-0.144,1.25-0.211c1.136-0.136,1.972-0.297,2.508-0.484c0.005-0.192,0.008-0.315,0.008-0.367
				c0-0.573-0.133-0.977-0.398-1.211c-0.359-0.317-0.894-0.477-1.602-0.477c-0.661,0-1.149,0.116-1.465,0.348
				s-0.548,0.642-0.699,1.23l-1.375-0.188c0.125-0.589,0.331-1.063,0.617-1.426s0.7-0.641,1.242-0.836s1.169-0.293,1.883-0.293
				c0.708,0,1.284,0.083,1.727,0.25s0.769,0.376,0.977,0.629s0.354,0.571,0.438,0.957c0.047,0.239,0.07,0.672,0.07,1.297v1.875
				c0,1.308,0.03,2.134,0.09,2.48s0.179,0.679,0.355,0.996h-1.469C28.735,93.993,28.642,93.652,28.6,93.262z M28.482,90.121
				c-0.511,0.208-1.276,0.386-2.297,0.531c-0.578,0.083-0.987,0.177-1.227,0.281s-0.425,0.257-0.555,0.457s-0.195,0.423-0.195,0.668
				c0,0.375,0.142,0.688,0.426,0.938s0.699,0.375,1.246,0.375c0.542,0,1.023-0.118,1.445-0.355s0.731-0.562,0.93-0.973
				c0.151-0.317,0.227-0.786,0.227-1.406V90.121z"/>
			<path d="M31.429,94.285V82.832h1.406v11.453H31.429z"/>
			<path d="M33.867,90.137c0-1.536,0.427-2.675,1.281-3.414c0.714-0.614,1.583-0.922,2.609-0.922c1.141,0,2.073,0.374,2.797,1.121
				s1.086,1.78,1.086,3.098c0,1.067-0.16,1.907-0.48,2.52s-0.786,1.087-1.398,1.426s-1.28,0.508-2.004,0.508
				c-1.161,0-2.101-0.372-2.816-1.117S33.867,91.538,33.867,90.137z M35.312,90.137c0,1.063,0.231,1.858,0.695,2.387
				s1.047,0.793,1.75,0.793c0.698,0,1.278-0.266,1.742-0.797s0.695-1.341,0.695-2.43c0-1.026-0.233-1.804-0.699-2.332
				s-1.046-0.793-1.738-0.793c-0.703,0-1.286,0.263-1.75,0.789S35.312,89.074,35.312,90.137z"/>
			<path d="M42.649,94.285v-8.297h1.266v1.258c0.323-0.589,0.621-0.977,0.895-1.164s0.574-0.281,0.902-0.281
				c0.474,0,0.956,0.151,1.445,0.453l-0.484,1.305c-0.344-0.203-0.688-0.305-1.031-0.305c-0.308,0-0.583,0.093-0.828,0.277
				s-0.419,0.441-0.523,0.77c-0.156,0.5-0.234,1.047-0.234,1.641v4.344H42.649z"/>
			<path d="M56.604,93.262c-0.521,0.442-1.022,0.755-1.504,0.938s-0.999,0.273-1.551,0.273c-0.911,0-1.612-0.223-2.102-0.668
				s-0.734-1.015-0.734-1.707c0-0.406,0.093-0.777,0.277-1.113s0.427-0.605,0.727-0.809s0.637-0.356,1.012-0.461
				c0.276-0.073,0.692-0.144,1.25-0.211c1.136-0.136,1.972-0.297,2.508-0.484c0.005-0.192,0.008-0.315,0.008-0.367
				c0-0.573-0.133-0.977-0.398-1.211c-0.359-0.317-0.894-0.477-1.602-0.477c-0.661,0-1.149,0.116-1.465,0.348
				s-0.548,0.642-0.699,1.23l-1.375-0.188c0.125-0.589,0.331-1.063,0.617-1.426s0.7-0.641,1.242-0.836s1.169-0.293,1.883-0.293
				c0.708,0,1.284,0.083,1.727,0.25s0.769,0.376,0.977,0.629s0.354,0.571,0.438,0.957c0.047,0.239,0.07,0.672,0.07,1.297v1.875
				c0,1.308,0.03,2.134,0.09,2.48s0.179,0.679,0.355,0.996h-1.469C56.74,93.993,56.646,93.652,56.604,93.262z M56.487,90.121
				c-0.511,0.208-1.276,0.386-2.297,0.531c-0.578,0.083-0.987,0.177-1.227,0.281s-0.425,0.257-0.555,0.457s-0.195,0.423-0.195,0.668
				c0,0.375,0.142,0.688,0.426,0.938s0.699,0.375,1.246,0.375c0.542,0,1.023-0.118,1.445-0.355s0.731-0.562,0.93-0.973
				c0.151-0.317,0.227-0.786,0.227-1.406V90.121z"/>
			<path d="M59.465,94.285v-8.297h1.266v1.18c0.609-0.911,1.489-1.367,2.641-1.367c0.5,0,0.96,0.09,1.379,0.27
				s0.733,0.415,0.941,0.707s0.354,0.638,0.438,1.039c0.052,0.261,0.078,0.716,0.078,1.367v5.102h-1.406v-5.047
				c0-0.573-0.055-1.001-0.164-1.285s-0.304-0.511-0.582-0.68c-0.278-0.169-0.605-0.254-0.98-0.254c-0.599,0-1.116,0.19-1.551,0.57
				s-0.652,1.102-0.652,2.164v4.531H59.465z M60.457,84.762c-0.005-0.542,0.144-0.974,0.445-1.297
				c0.297-0.323,0.677-0.484,1.141-0.484c0.323,0,0.763,0.141,1.32,0.422c0.308,0.156,0.552,0.234,0.734,0.234
				c0.167,0,0.294-0.046,0.383-0.137s0.151-0.272,0.188-0.543h1.016c-0.016,0.594-0.165,1.039-0.449,1.336s-0.645,0.445-1.082,0.445
				c-0.328,0-0.761-0.146-1.297-0.438c-0.349-0.188-0.604-0.281-0.766-0.281c-0.177,0-0.32,0.063-0.43,0.188
				c-0.114,0.125-0.169,0.31-0.164,0.555H60.457z"/>
			<path d="M73.153,93.262c-0.521,0.442-1.022,0.755-1.504,0.938s-0.999,0.273-1.551,0.273c-0.911,0-1.612-0.223-2.102-0.668
				s-0.734-1.015-0.734-1.707c0-0.406,0.093-0.777,0.277-1.113s0.427-0.605,0.727-0.809s0.637-0.356,1.012-0.461
				c0.276-0.073,0.692-0.144,1.25-0.211c1.136-0.136,1.972-0.297,2.508-0.484c0.005-0.192,0.008-0.315,0.008-0.367
				c0-0.573-0.133-0.977-0.398-1.211c-0.359-0.317-0.894-0.477-1.602-0.477c-0.661,0-1.149,0.116-1.465,0.348
				s-0.548,0.642-0.699,1.23l-1.375-0.188c0.125-0.589,0.331-1.063,0.617-1.426s0.7-0.641,1.242-0.836s1.169-0.293,1.883-0.293
				c0.708,0,1.284,0.083,1.727,0.25s0.769,0.376,0.977,0.629s0.354,0.571,0.438,0.957c0.047,0.239,0.07,0.672,0.07,1.297v1.875
				c0,1.308,0.03,2.134,0.09,2.48s0.179,0.679,0.355,0.996h-1.469C73.289,93.993,73.195,93.652,73.153,93.262z M73.036,90.121
				c-0.511,0.208-1.276,0.386-2.297,0.531c-0.578,0.083-0.987,0.177-1.227,0.281s-0.425,0.257-0.555,0.457s-0.195,0.423-0.195,0.668
				c0,0.375,0.142,0.688,0.426,0.938s0.699,0.375,1.246,0.375c0.542,0,1.023-0.118,1.445-0.355s0.731-0.562,0.93-0.973
				c0.151-0.317,0.227-0.786,0.227-1.406V90.121z"/>
			<path d="M81.396,94.285v-1.047c-0.526,0.823-1.3,1.234-2.32,1.234c-0.661,0-1.27-0.183-1.824-0.547s-0.984-0.874-1.289-1.527
				s-0.457-1.405-0.457-2.254c0-0.828,0.138-1.579,0.414-2.254s0.69-1.191,1.242-1.551s1.169-0.539,1.852-0.539
				c0.5,0,0.945,0.105,1.336,0.316s0.708,0.485,0.953,0.824v-4.109h1.398v11.453H81.396z M76.951,90.144
				c0,1.063,0.224,1.856,0.672,2.383s0.977,0.789,1.586,0.789c0.614,0,1.137-0.251,1.566-0.754s0.645-1.27,0.645-2.301
				c0-1.136-0.219-1.969-0.656-2.5s-0.977-0.797-1.617-0.797c-0.625,0-1.147,0.255-1.566,0.766S76.951,89.046,76.951,90.144z"/>
			<path d="M84.296,84.449v-1.617h1.406v1.617H84.296z M84.296,94.285v-8.297h1.406v8.297H84.296z"/>
			<path d="M92.601,94.285v-1.047c-0.526,0.823-1.3,1.234-2.32,1.234c-0.661,0-1.27-0.183-1.824-0.547s-0.984-0.874-1.289-1.527
				s-0.457-1.405-0.457-2.254c0-0.828,0.138-1.579,0.414-2.254s0.69-1.191,1.242-1.551s1.169-0.539,1.852-0.539
				c0.5,0,0.945,0.105,1.336,0.316s0.708,0.485,0.953,0.824v-4.109h1.398v11.453H92.601z M88.156,90.144
				c0,1.063,0.224,1.856,0.672,2.383s0.977,0.789,1.586,0.789c0.614,0,1.137-0.251,1.566-0.754s0.645-1.27,0.645-2.301
				c0-1.136-0.219-1.969-0.656-2.5s-0.977-0.797-1.617-0.797c-0.625,0-1.147,0.255-1.566,0.766S88.156,89.046,88.156,90.144z"/>
			<path d="M94.97,90.137c0-1.536,0.427-2.675,1.281-3.414c0.714-0.614,1.583-0.922,2.609-0.922c1.141,0,2.073,0.374,2.797,1.121
				s1.086,1.78,1.086,3.098c0,1.067-0.16,1.907-0.48,2.52s-0.786,1.087-1.398,1.426s-1.28,0.508-2.004,0.508
				c-1.161,0-2.101-0.372-2.816-1.117S94.97,91.538,94.97,90.137z M96.415,90.137c0,1.063,0.231,1.858,0.695,2.387
				s1.047,0.793,1.75,0.793c0.698,0,1.278-0.266,1.742-0.797s0.695-1.341,0.695-2.43c0-1.026-0.233-1.804-0.699-2.332
				s-1.046-0.793-1.738-0.793c-0.703,0-1.286,0.263-1.75,0.789S96.415,89.074,96.415,90.137z"/>
			<path d="M112.972,94.285v-1.047c-0.526,0.823-1.3,1.234-2.32,1.234c-0.661,0-1.27-0.183-1.824-0.547s-0.984-0.874-1.289-1.527
				s-0.457-1.405-0.457-2.254c0-0.828,0.138-1.579,0.414-2.254s0.69-1.191,1.242-1.551s1.169-0.539,1.852-0.539
				c0.5,0,0.945,0.105,1.336,0.316s0.708,0.485,0.953,0.824v-4.109h1.398v11.453H112.972z M108.526,90.144
				c0,1.063,0.224,1.856,0.672,2.383s0.977,0.789,1.586,0.789c0.614,0,1.137-0.251,1.566-0.754s0.645-1.27,0.645-2.301
				c0-1.136-0.219-1.969-0.656-2.5s-0.977-0.797-1.617-0.797c-0.625,0-1.147,0.255-1.566,0.766S108.526,89.046,108.526,90.144z"/>
			<path d="M121.543,91.613l1.453,0.18c-0.229,0.849-0.653,1.508-1.273,1.977s-1.411,0.703-2.375,0.703
				c-1.214,0-2.176-0.374-2.887-1.121s-1.066-1.796-1.066-3.145c0-1.396,0.359-2.479,1.078-3.25s1.651-1.156,2.797-1.156
				c1.109,0,2.016,0.378,2.719,1.133s1.055,1.817,1.055,3.188c0,0.083-0.003,0.208-0.008,0.375h-6.188
				c0.052,0.911,0.31,1.609,0.773,2.094s1.042,0.727,1.734,0.727c0.516,0,0.956-0.136,1.32-0.406S121.329,92.207,121.543,91.613z
				 M116.926,89.34h4.633c-0.063-0.698-0.239-1.222-0.531-1.57c-0.448-0.542-1.028-0.813-1.742-0.813
				c-0.646,0-1.188,0.216-1.629,0.648S116.973,88.616,116.926,89.34z"/>
			<path d="M123.575,91.808l1.391-0.219c0.078,0.558,0.296,0.984,0.652,1.281s0.855,0.445,1.496,0.445
				c0.646,0,1.125-0.132,1.437-0.395s0.469-0.571,0.469-0.926c0-0.317-0.138-0.567-0.414-0.75c-0.192-0.125-0.672-0.284-1.437-0.477
				c-1.031-0.261-1.746-0.485-2.145-0.676s-0.7-0.453-0.906-0.789s-0.309-0.707-0.309-1.113c0-0.37,0.085-0.712,0.254-1.027
				s0.399-0.577,0.691-0.785c0.219-0.161,0.517-0.298,0.895-0.41s0.782-0.168,1.215-0.168c0.651,0,1.223,0.094,1.715,0.281
				s0.855,0.441,1.09,0.762s0.396,0.749,0.484,1.285l-1.375,0.188c-0.063-0.427-0.243-0.761-0.543-1
				c-0.3-0.239-0.723-0.359-1.27-0.359c-0.646,0-1.106,0.106-1.383,0.32s-0.414,0.464-0.414,0.75c0,0.183,0.058,0.347,0.172,0.492
				c0.114,0.151,0.294,0.276,0.539,0.375c0.141,0.052,0.555,0.172,1.242,0.359c0.995,0.266,1.688,0.483,2.082,0.652
				s0.702,0.415,0.926,0.738s0.336,0.724,0.336,1.203c0,0.469-0.137,0.91-0.41,1.324s-0.668,0.734-1.184,0.961
				s-1.099,0.34-1.75,0.34c-1.078,0-1.899-0.224-2.465-0.672S123.731,92.688,123.575,91.808z"/>
			<path d="M137.193,91.613l1.453,0.18c-0.229,0.849-0.653,1.508-1.273,1.977s-1.411,0.703-2.375,0.703
				c-1.214,0-2.176-0.374-2.887-1.121s-1.066-1.796-1.066-3.145c0-1.396,0.359-2.479,1.078-3.25s1.651-1.156,2.797-1.156
				c1.109,0,2.016,0.378,2.719,1.133s1.055,1.817,1.055,3.188c0,0.083-0.003,0.208-0.008,0.375h-6.188
				c0.052,0.911,0.31,1.609,0.773,2.094s1.042,0.727,1.734,0.727c0.516,0,0.956-0.136,1.32-0.406S136.979,92.207,137.193,91.613z
				 M132.576,89.34h4.633c-0.063-0.698-0.239-1.222-0.531-1.57c-0.448-0.542-1.028-0.813-1.742-0.813
				c-0.646,0-1.188,0.216-1.629,0.648S132.623,88.616,132.576,89.34z"/>
			<path d="M145.202,93.262c-0.521,0.442-1.022,0.755-1.504,0.938s-0.999,0.273-1.551,0.273c-0.911,0-1.612-0.223-2.102-0.668
				s-0.734-1.015-0.734-1.707c0-0.406,0.093-0.777,0.277-1.113s0.427-0.605,0.727-0.809s0.637-0.356,1.012-0.461
				c0.276-0.073,0.692-0.144,1.25-0.211c1.136-0.136,1.972-0.297,2.508-0.484c0.005-0.192,0.008-0.315,0.008-0.367
				c0-0.573-0.133-0.977-0.398-1.211c-0.359-0.317-0.894-0.477-1.602-0.477c-0.661,0-1.149,0.116-1.465,0.348
				s-0.548,0.642-0.699,1.23l-1.375-0.188c0.125-0.589,0.331-1.063,0.617-1.426s0.7-0.641,1.242-0.836s1.169-0.293,1.883-0.293
				c0.708,0,1.284,0.083,1.727,0.25s0.769,0.376,0.977,0.629s0.354,0.571,0.438,0.957c0.047,0.239,0.07,0.672,0.07,1.297v1.875
				c0,1.308,0.03,2.134,0.09,2.48s0.179,0.679,0.355,0.996h-1.469C145.338,93.993,145.244,93.652,145.202,93.262z M145.085,90.121
				c-0.511,0.208-1.276,0.386-2.297,0.531c-0.578,0.083-0.987,0.177-1.227,0.281s-0.425,0.257-0.555,0.457s-0.195,0.423-0.195,0.668
				c0,0.375,0.142,0.688,0.426,0.938s0.699,0.375,1.246,0.375c0.542,0,1.023-0.118,1.445-0.355s0.731-0.562,0.93-0.973
				c0.151-0.317,0.227-0.786,0.227-1.406V90.121z"/>
			<path d="M153.445,94.285v-1.047c-0.526,0.823-1.3,1.234-2.32,1.234c-0.661,0-1.27-0.183-1.824-0.547s-0.984-0.874-1.289-1.527
				s-0.457-1.405-0.457-2.254c0-0.828,0.138-1.579,0.414-2.254s0.69-1.191,1.242-1.551s1.169-0.539,1.852-0.539
				c0.5,0,0.945,0.105,1.336,0.316s0.708,0.485,0.953,0.824v-4.109h1.398v11.453H153.445z M149,90.144
				c0,1.063,0.224,1.856,0.672,2.383s0.977,0.789,1.586,0.789c0.614,0,1.137-0.251,1.566-0.754s0.645-1.27,0.645-2.301
				c0-1.136-0.219-1.969-0.656-2.5s-0.977-0.797-1.617-0.797c-0.625,0-1.147,0.255-1.566,0.766S149,89.046,149,90.144z"/>
			<path d="M155.813,90.137c0-1.536,0.427-2.675,1.281-3.414c0.714-0.614,1.583-0.922,2.609-0.922c1.141,0,2.073,0.374,2.797,1.121
				s1.086,1.78,1.086,3.098c0,1.067-0.16,1.907-0.48,2.52s-0.786,1.087-1.398,1.426s-1.28,0.508-2.004,0.508
				c-1.161,0-2.101-0.372-2.816-1.117S155.813,91.538,155.813,90.137z M157.259,90.137c0,1.063,0.231,1.858,0.695,2.387
				s1.047,0.793,1.75,0.793c0.698,0,1.278-0.266,1.742-0.797s0.695-1.341,0.695-2.43c0-1.026-0.233-1.804-0.699-2.332
				s-1.046-0.793-1.738-0.793c-0.703,0-1.286,0.263-1.75,0.789S157.259,89.074,157.259,90.137z"/>
			<path d="M168.433,97.465V85.988h1.281v1.078c0.302-0.422,0.644-0.738,1.023-0.949s0.841-0.316,1.383-0.316
				c0.708,0,1.333,0.183,1.875,0.547s0.95,0.879,1.227,1.543s0.414,1.392,0.414,2.184c0,0.849-0.152,1.613-0.457,2.293
				s-0.747,1.2-1.328,1.563s-1.191,0.543-1.832,0.543c-0.469,0-0.89-0.099-1.262-0.297s-0.679-0.448-0.918-0.75v4.039H168.433z
				 M169.707,90.183c0,1.067,0.216,1.856,0.648,2.367s0.956,0.766,1.57,0.766c0.625,0,1.16-0.265,1.605-0.793
				s0.668-1.348,0.668-2.457c0-1.058-0.218-1.849-0.652-2.375s-0.954-0.789-1.559-0.789c-0.599,0-1.129,0.28-1.59,0.84
				S169.707,89.116,169.707,90.183z"/>
			<path d="M176.184,90.137c0-1.536,0.427-2.675,1.281-3.414c0.714-0.614,1.583-0.922,2.609-0.922c1.141,0,2.073,0.374,2.797,1.121
				s1.086,1.78,1.086,3.098c0,1.067-0.16,1.907-0.48,2.52s-0.786,1.087-1.398,1.426s-1.28,0.508-2.004,0.508
				c-1.161,0-2.101-0.372-2.816-1.117S176.184,91.538,176.184,90.137z M177.63,90.137c0,1.063,0.231,1.858,0.695,2.387
				s1.047,0.793,1.75,0.793c0.698,0,1.278-0.266,1.742-0.797s0.695-1.341,0.695-2.43c0-1.026-0.233-1.804-0.699-2.332
				s-1.046-0.793-1.738-0.793c-0.703,0-1.286,0.263-1.75,0.789S177.63,89.074,177.63,90.137z"/>
			<path d="M184.967,94.285v-8.297h1.266v1.258c0.323-0.589,0.621-0.977,0.895-1.164s0.574-0.281,0.902-0.281
				c0.474,0,0.956,0.151,1.445,0.453l-0.484,1.305c-0.344-0.203-0.688-0.305-1.031-0.305c-0.308,0-0.583,0.093-0.828,0.277
				s-0.419,0.441-0.523,0.77c-0.156,0.5-0.234,1.047-0.234,1.641v4.344H184.967z"/>
			<path d="M199.187,91.613l1.453,0.18c-0.229,0.849-0.653,1.508-1.273,1.977s-1.411,0.703-2.375,0.703
				c-1.214,0-2.176-0.374-2.887-1.121s-1.066-1.796-1.066-3.145c0-1.396,0.359-2.479,1.078-3.25s1.651-1.156,2.797-1.156
				c1.109,0,2.016,0.378,2.719,1.133s1.055,1.817,1.055,3.188c0,0.083-0.003,0.208-0.008,0.375h-6.188
				c0.052,0.911,0.31,1.609,0.773,2.094s1.042,0.727,1.734,0.727c0.516,0,0.956-0.136,1.32-0.406S198.974,92.207,199.187,91.613z
				 M194.57,89.34h4.633c-0.063-0.698-0.239-1.222-0.531-1.57c-0.448-0.542-1.028-0.813-1.742-0.813
				c-0.646,0-1.188,0.216-1.629,0.648S194.617,88.616,194.57,89.34z"/>
			<path d="M201.751,94.285V82.832h1.406v11.453H201.751z"/>
			<path d="M213.948,91.246l1.383,0.18c-0.151,0.953-0.538,1.699-1.16,2.238s-1.387,0.809-2.293,0.809
				c-1.136,0-2.048-0.371-2.738-1.113s-1.035-1.806-1.035-3.191c0-0.896,0.148-1.68,0.445-2.352s0.749-1.176,1.355-1.512
				s1.267-0.504,1.98-0.504c0.901,0,1.638,0.228,2.211,0.684s0.94,1.103,1.102,1.941l-1.367,0.211
				c-0.13-0.558-0.36-0.977-0.691-1.258s-0.73-0.422-1.199-0.422c-0.708,0-1.284,0.254-1.727,0.762s-0.664,1.312-0.664,2.41
				c0,1.114,0.214,1.925,0.641,2.43s0.984,0.758,1.672,0.758c0.552,0,1.013-0.169,1.383-0.508S213.85,91.949,213.948,91.246z"/>
			<path d="M215.879,94.285V82.832h1.406v11.453H215.879z"/>
			<path d="M218.849,84.449v-1.617h1.406v1.617H218.849z M218.849,94.285v-8.297h1.406v8.297H218.849z"/>
			<path d="M227.451,91.613l1.453,0.18c-0.229,0.849-0.653,1.508-1.273,1.977s-1.411,0.703-2.375,0.703
				c-1.214,0-2.176-0.374-2.887-1.121s-1.066-1.796-1.066-3.145c0-1.396,0.359-2.479,1.078-3.25s1.651-1.156,2.797-1.156
				c1.109,0,2.016,0.378,2.719,1.133s1.055,1.817,1.055,3.188c0,0.083-0.003,0.208-0.008,0.375h-6.188
				c0.052,0.911,0.31,1.609,0.773,2.094s1.042,0.727,1.734,0.727c0.516,0,0.956-0.136,1.32-0.406S227.237,92.207,227.451,91.613z
				 M222.834,89.34h4.633c-0.063-0.698-0.239-1.222-0.531-1.57c-0.448-0.542-1.028-0.813-1.742-0.813
				c-0.646,0-1.188,0.216-1.629,0.648S222.881,88.616,222.834,89.34z"/>
			<path d="M230.046,94.285v-8.297h1.266v1.18c0.609-0.911,1.489-1.367,2.641-1.367c0.5,0,0.96,0.09,1.379,0.27
				s0.733,0.415,0.941,0.707s0.354,0.638,0.438,1.039c0.052,0.261,0.078,0.716,0.078,1.367v5.102h-1.406v-5.047
				c0-0.573-0.055-1.001-0.164-1.285s-0.304-0.511-0.582-0.68s-0.605-0.254-0.98-0.254c-0.599,0-1.116,0.19-1.551,0.57
				s-0.652,1.102-0.652,2.164v4.531H230.046z"/>
			<path d="M241.391,93.027l0.203,1.242c-0.396,0.083-0.75,0.125-1.063,0.125c-0.511,0-0.906-0.081-1.188-0.242
				s-0.479-0.374-0.594-0.637s-0.172-0.816-0.172-1.66v-4.773h-1.031v-1.094h1.031v-2.055l1.398-0.844v2.898h1.414v1.094h-1.414
				v4.852c0,0.401,0.024,0.659,0.074,0.773s0.13,0.206,0.242,0.273s0.272,0.102,0.48,0.102
				C240.93,93.082,241.136,93.063,241.391,93.027z"/>
			<path d="M247.821,91.613l1.453,0.18c-0.229,0.849-0.653,1.508-1.273,1.977s-1.411,0.703-2.375,0.703
				c-1.214,0-2.176-0.374-2.887-1.121s-1.066-1.796-1.066-3.145c0-1.396,0.359-2.479,1.078-3.25s1.651-1.156,2.797-1.156
				c1.109,0,2.016,0.378,2.719,1.133s1.055,1.817,1.055,3.188c0,0.083-0.003,0.208-0.008,0.375h-6.188
				c0.052,0.911,0.31,1.609,0.773,2.094s1.042,0.727,1.734,0.727c0.516,0,0.956-0.136,1.32-0.406S247.607,92.207,247.821,91.613z
				 M243.204,89.34h4.633c-0.063-0.698-0.239-1.222-0.531-1.57c-0.448-0.542-1.028-0.813-1.742-0.813
				c-0.646,0-1.188,0.216-1.629,0.648S243.251,88.616,243.204,89.34z"/>
			<path d="M250.814,94.285v-1.602h1.602v1.602H250.814z"/>
		</g>
	</g>
</g>
</svg>
