<?xml version="1.0" encoding="utf-8"?>
<!-- Generator: Adobe Illustrator 17.0.0, SVG Export Plug-In . SVG Version: 6.00 Build 0)  -->
<!DOCTYPE svg PUBLIC "-//W3C//DTD SVG 1.1//EN" "http://www.w3.org/Graphics/SVG/1.1/DTD/svg11.dtd">
<svg version="1.1" id="Capa_1" xmlns="http://www.w3.org/2000/svg" xmlns:xlink="http://www.w3.org/1999/xlink" x="0px" y="0px"
	 width="77.22px" height="76.891px" viewBox="0 0 77.22 76.891" style="enable-background:new 0 0 77.22 76.891;"
	 xml:space="preserve">
<g>
	<g>
		<g>
			<circle style="fill:#6FC2D8;" cx="38.452" cy="38.446" r="30.345"/>
			<circle style="fill:#393939;" cx="38.453" cy="38.446" r="26.426"/>
			<g>
				<circle style="fill:#FFFFFF;" cx="38.453" cy="38.446" r="24.627"/>
			</g>
			<g>
				<path style="fill:none;stroke:#393939;stroke-width:1.0444;stroke-miterlimit:10;" d="M5.169,45.431
					c-0.474-2.253-0.72-4.591-0.72-6.985c0-11.932,6.147-22.428,15.445-28.494"/>
				<path style="fill:none;stroke:#393939;stroke-width:1.0444;stroke-miterlimit:10;" d="M14.139,62.212
					c-2.998-3.064-5.42-6.693-7.093-10.713"/>
				<path style="fill:none;stroke:#393939;stroke-width:1.0444;stroke-miterlimit:10;" d="M36.409,72.381
					c-7.424-0.439-14.206-3.259-19.595-7.708"/>
				<path style="fill:none;stroke:#393939;stroke-width:1.0444;stroke-miterlimit:10;" d="M71.098,28.945
					c0.875,3.016,1.345,6.204,1.345,9.501c0,17.352-13.002,31.668-29.796,33.738"/>
				<path style="fill:none;stroke:#393939;stroke-width:1.0444;stroke-miterlimit:10;" d="M26.264,6.697
					c3.781-1.452,7.889-2.248,12.182-2.248c12.91,0,24.137,7.194,29.893,17.791"/>
				<path style="fill:none;stroke:#393939;stroke-width:1.0444;stroke-miterlimit:10;" d="M76.202,42.026
					c-0.772,8.252-4.191,15.736-9.396,21.594"/>
				<path style="fill:none;stroke:#393939;stroke-width:1.0444;stroke-miterlimit:10;" d="M58.432,6.21
					c10.023,6.228,16.93,17.002,17.836,29.438"/>
				<path style="fill:none;stroke:#393939;stroke-width:1.0444;stroke-miterlimit:10;" d="M3.139,24.572
					c5.541-14.081,19.26-24.05,35.307-24.05c4.543,0,8.9,0.799,12.938,2.266"/>
				<path style="fill:none;stroke:#393939;stroke-width:1.0444;stroke-miterlimit:10;" d="M3.758,53.796
					c-2.078-4.693-3.235-9.887-3.235-15.35c0-2.604,0.262-5.148,0.763-7.603"/>
				<path style="fill:none;stroke:#393939;stroke-width:1.0444;stroke-miterlimit:10;" d="M18.438,70.667
					c-5.117-3.185-9.42-7.554-12.525-12.725"/>
				<path style="fill:none;stroke:#393939;stroke-width:1.0444;stroke-miterlimit:10;" d="M62.934,67.403
					c-6.608,5.594-15.154,8.966-24.488,8.966c-5.639,0-10.988-1.231-15.799-3.439"/>
				<circle style="fill:#393939;" cx="7.046" cy="51.499" r="1.02"/>
				<circle style="fill:#393939;" cx="3.759" cy="53.796" r="1.02"/>
				<circle style="fill:#393939;" cx="5.231" cy="45.431" r="1.02"/>
				<circle style="fill:#393939;" cx="1.289" cy="30.842" r="1.02"/>
				<circle style="fill:#393939;" cx="3.14" cy="24.572" r="1.021"/>
				<circle style="fill:#393939;" cx="19.894" cy="9.952" r="1.02"/>
				<circle style="fill:#393939;" cx="26.263" cy="6.804" r="1.02"/>
				<circle style="fill:#393939;" cx="51.383" cy="2.948" r="1.02"/>
				<circle style="fill:#393939;" cx="68.338" cy="22.24" r="1.021"/>
				<circle style="fill:#393939;" cx="58.432" cy="6.21" r="1.02"/>
				<circle style="fill:#393939;" cx="71.11" cy="28.945" r="1.02"/>
				<circle style="fill:#393939;" cx="76.201" cy="35.575" r="1.02"/>
				<circle style="fill:#393939;" cx="76.201" cy="42.026" r="1.02"/>
				<circle style="fill:#393939;" cx="14.138" cy="62.212" r="1.02"/>
				<circle style="fill:#393939;" cx="16.813" cy="64.673" r="1.021"/>
				<circle style="fill:#393939;" cx="18.438" cy="70.667" r="1.021"/>
				<circle style="fill:#393939;" cx="5.912" cy="57.942" r="1.02"/>
				<circle style="fill:#393939;" cx="36.409" cy="72.381" r="1.021"/>
				<circle style="fill:#393939;" cx="22.646" cy="72.906" r="1.02"/>
				<circle style="fill:#393939;" cx="42.647" cy="72.184" r="1.021"/>
				<circle style="fill:#393939;" cx="66.807" cy="63.652" r="1.02"/>
				<circle style="fill:#393939;" cx="62.933" cy="67.403" r="1.02"/>
			</g>
		</g>
	</g>
	<g>
		<path style="fill:#2C6882;" d="M29.958,43.804l4.681-0.568c0.149,1.193,0.551,2.105,1.205,2.736
			c0.654,0.632,1.445,0.946,2.375,0.946c0.998,0,1.838-0.378,2.521-1.136c0.682-0.757,1.023-1.778,1.023-3.063
			c0-1.217-0.327-2.18-0.98-2.892c-0.654-0.711-1.452-1.067-2.393-1.067c-0.619,0-1.359,0.121-2.22,0.361l0.533-3.94
			c1.308,0.034,2.306-0.25,2.994-0.852c0.688-0.603,1.033-1.403,1.033-2.401c0-0.849-0.253-1.525-0.758-2.03
			s-1.176-0.758-2.014-0.758c-0.825,0-1.531,0.287-2.116,0.86c-0.585,0.574-0.941,1.412-1.067,2.513l-4.457-0.757
			c0.31-1.525,0.777-2.745,1.402-3.657s1.497-1.629,2.616-2.151c1.118-0.521,2.372-0.783,3.76-0.783
			c2.375,0,4.279,0.758,5.714,2.272c1.182,1.239,1.772,2.639,1.772,4.199c0,2.214-1.21,3.98-3.631,5.3
			c1.445,0.311,2.602,1.005,3.468,2.083s1.299,2.381,1.299,3.906c0,2.215-0.809,4.102-2.426,5.662
			c-1.618,1.561-3.632,2.341-6.041,2.341c-2.283,0-4.176-0.657-5.679-1.971C31.07,47.645,30.199,45.926,29.958,43.804z"/>
	</g>
</g>
</svg>
