<?xml version="1.0" encoding="utf-8"?>
<!-- Generator: Adobe Illustrator 17.0.0, SVG Export Plug-In . SVG Version: 6.00 Build 0)  -->
<!DOCTYPE svg PUBLIC "-//W3C//DTD SVG 1.1//EN" "http://www.w3.org/Graphics/SVG/1.1/DTD/svg11.dtd">
<svg version="1.1" id="Capa_1" xmlns="http://www.w3.org/2000/svg" xmlns:xlink="http://www.w3.org/1999/xlink" x="0px" y="0px"
	 width="77.22px" height="76.891px" viewBox="0 0 77.22 76.891" style="enable-background:new 0 0 77.22 76.891;"
	 xml:space="preserve">
<g>
	<g>
		<g>
			<circle style="fill:#6FC2D8;" cx="38.451" cy="38.446" r="30.345"/>
			<circle style="fill:#393939;" cx="38.451" cy="38.446" r="26.426"/>
			<g>
				<circle style="fill:#FFFFFF;" cx="38.451" cy="38.446" r="24.628"/>
			</g>
			<g>
				<path style="fill:none;stroke:#393939;stroke-width:1.0444;stroke-miterlimit:10;" d="M5.166,45.431
					c-0.472-2.253-0.719-4.591-0.719-6.985c0-11.932,6.147-22.428,15.446-28.494"/>
				<path style="fill:none;stroke:#393939;stroke-width:1.0444;stroke-miterlimit:10;" d="M14.136,62.212
					c-2.996-3.064-5.418-6.693-7.092-10.713"/>
				<path style="fill:none;stroke:#393939;stroke-width:1.0444;stroke-miterlimit:10;" d="M36.407,72.381
					c-7.425-0.439-14.206-3.259-19.595-7.708"/>
				<path style="fill:none;stroke:#393939;stroke-width:1.0444;stroke-miterlimit:10;" d="M71.094,28.945
					c0.878,3.016,1.347,6.204,1.347,9.501c0,17.352-13.001,31.668-29.795,33.738"/>
				<path style="fill:none;stroke:#393939;stroke-width:1.0444;stroke-miterlimit:10;" d="M26.262,6.697
					c3.782-1.452,7.889-2.248,12.184-2.248c12.908,0,24.135,7.194,29.892,17.791"/>
				<path style="fill:none;stroke:#393939;stroke-width:1.0444;stroke-miterlimit:10;" d="M76.199,42.026
					c-0.771,8.252-4.19,15.736-9.395,21.594"/>
				<path style="fill:none;stroke:#393939;stroke-width:1.0444;stroke-miterlimit:10;" d="M58.43,6.21
					c10.024,6.228,16.929,17.002,17.836,29.438"/>
				<path style="fill:none;stroke:#393939;stroke-width:1.0444;stroke-miterlimit:10;" d="M3.139,24.572
					c5.539-14.081,19.259-24.05,35.307-24.05c4.543,0,8.897,0.799,12.936,2.266"/>
				<path style="fill:none;stroke:#393939;stroke-width:1.0444;stroke-miterlimit:10;" d="M3.756,53.796
					c-2.079-4.693-3.233-9.887-3.233-15.35c0-2.604,0.259-5.148,0.761-7.603"/>
				<path style="fill:none;stroke:#393939;stroke-width:1.0444;stroke-miterlimit:10;" d="M18.436,70.667
					c-5.117-3.185-9.421-7.554-12.527-12.725"/>
				<path style="fill:none;stroke:#393939;stroke-width:1.0444;stroke-miterlimit:10;" d="M62.93,67.403
					c-6.604,5.594-15.15,8.966-24.484,8.966c-5.64,0-10.991-1.231-15.802-3.439"/>
				<circle style="fill:#393939;" cx="7.044" cy="51.499" r="1.02"/>
				<circle style="fill:#393939;" cx="3.757" cy="53.796" r="1.019"/>
				<circle style="fill:#393939;" cx="5.23" cy="45.431" r="1.02"/>
				<circle style="fill:#393939;" cx="1.288" cy="30.842" r="1.02"/>
				<circle style="fill:#393939;" cx="3.139" cy="24.572" r="1.02"/>
				<circle style="fill:#393939;" cx="19.893" cy="9.952" r="1.019"/>
				<circle style="fill:#393939;" cx="26.261" cy="6.804" r="1.02"/>
				<circle style="fill:#393939;" cx="51.383" cy="2.948" r="1.02"/>
				<circle style="fill:#393939;" cx="68.336" cy="22.24" r="1.022"/>
				<circle style="fill:#393939;" cx="58.43" cy="6.21" r="1.02"/>
				<circle style="fill:#393939;" cx="71.109" cy="28.945" r="1.02"/>
				<circle style="fill:#393939;" cx="76.2" cy="35.575" r="1.02"/>
				<circle style="fill:#393939;" cx="76.2" cy="42.026" r="1.02"/>
				<circle style="fill:#393939;" cx="14.136" cy="62.212" r="1.02"/>
				<circle style="fill:#393939;" cx="16.812" cy="64.673" r="1.02"/>
				<circle style="fill:#393939;" cx="18.436" cy="70.667" r="1.021"/>
				<circle style="fill:#393939;" cx="5.91" cy="57.942" r="1.02"/>
				<circle style="fill:#393939;" cx="36.408" cy="72.381" r="1.02"/>
				<circle style="fill:#393939;" cx="22.644" cy="72.906" r="1.02"/>
				<circle style="fill:#393939;" cx="42.645" cy="72.184" r="1.021"/>
				<circle style="fill:#393939;" cx="66.804" cy="63.652" r="1.021"/>
				<circle style="fill:#393939;" cx="62.931" cy="67.403" r="1.02"/>
			</g>
		</g>
	</g>
	<g>
		<path style="fill:#2C6882;" d="M30.194,44.01l4.818-0.499c0.138,1.09,0.545,1.953,1.222,2.59s1.457,0.955,2.341,0.955
			c1.01,0,1.864-0.409,2.564-1.23c0.699-0.819,1.05-2.056,1.05-3.708c0-1.549-0.348-2.711-1.042-3.485s-1.598-1.161-2.71-1.161
			c-1.389,0-2.633,0.613-3.734,1.841l-3.924-0.567l2.478-13.131h12.787v4.525h-9.121l-0.757,4.285
			c1.078-0.539,2.18-0.809,3.304-0.809c2.146,0,3.964,0.78,5.456,2.341c1.491,1.561,2.237,3.585,2.237,6.075
			c0,2.076-0.603,3.93-1.808,5.559c-1.641,2.226-3.918,3.339-6.832,3.339c-2.329,0-4.228-0.626-5.696-1.876
			C31.358,47.802,30.48,46.121,30.194,44.01z"/>
	</g>
</g>
</svg>
