<?xml version="1.0" encoding="utf-8"?>
<!-- Generator: Adobe Illustrator 17.0.0, SVG Export Plug-In . SVG Version: 6.00 Build 0)  -->
<!DOCTYPE svg PUBLIC "-//W3C//DTD SVG 1.1//EN" "http://www.w3.org/Graphics/SVG/1.1/DTD/svg11.dtd">
<svg version="1.1" id="Capa_1" xmlns="http://www.w3.org/2000/svg" xmlns:xlink="http://www.w3.org/1999/xlink" x="0px" y="0px"
	 width="77.221px" height="76.891px" viewBox="0 0 77.221 76.891" style="enable-background:new 0 0 77.221 76.891;"
	 xml:space="preserve">
<g>
	<g>
		<g>
			<circle style="fill:#6FC2D8;" cx="38.452" cy="38.446" r="30.344"/>
			<circle style="fill:#393939;" cx="38.453" cy="38.446" r="26.426"/>
			<g>
				<circle style="fill:#FFFFFF;" cx="38.452" cy="38.446" r="24.629"/>
			</g>
			<g>
				<path style="fill:none;stroke:#393939;stroke-width:1.0444;stroke-miterlimit:10;" d="M5.167,45.431
					C4.696,43.178,4.45,40.84,4.45,38.446c0-11.932,6.145-22.428,15.443-28.494"/>
				<path style="fill:none;stroke:#393939;stroke-width:1.0444;stroke-miterlimit:10;" d="M14.137,62.212
					c-2.997-3.064-5.419-6.693-7.093-10.713"/>
				<path style="fill:none;stroke:#393939;stroke-width:1.0444;stroke-miterlimit:10;" d="M36.409,72.381
					c-7.424-0.439-14.207-3.259-19.596-7.708"/>
				<path style="fill:none;stroke:#393939;stroke-width:1.0444;stroke-miterlimit:10;" d="M71.097,28.945
					c0.875,3.016,1.344,6.204,1.344,9.501c0,17.352-13,31.668-29.795,33.738"/>
				<path style="fill:none;stroke:#393939;stroke-width:1.0444;stroke-miterlimit:10;" d="M26.263,6.697
					c3.783-1.452,7.891-2.248,12.183-2.248c12.909,0,24.137,7.194,29.893,17.791"/>
				<path style="fill:none;stroke:#393939;stroke-width:1.0444;stroke-miterlimit:10;" d="M76.202,42.026
					c-0.773,8.252-4.191,15.736-9.396,21.594"/>
				<path style="fill:none;stroke:#393939;stroke-width:1.0444;stroke-miterlimit:10;" d="M58.431,6.21
					c10.024,6.228,16.929,17.002,17.836,29.438"/>
				<path style="fill:none;stroke:#393939;stroke-width:1.0444;stroke-miterlimit:10;" d="M3.14,24.572
					c5.538-14.081,19.26-24.05,35.306-24.05c4.544,0,8.899,0.799,12.938,2.266"/>
				<path style="fill:none;stroke:#393939;stroke-width:1.0444;stroke-miterlimit:10;" d="M3.757,53.796
					c-2.079-4.693-3.234-9.887-3.234-15.35c0-2.604,0.262-5.148,0.762-7.603"/>
				<path style="fill:none;stroke:#393939;stroke-width:1.0444;stroke-miterlimit:10;" d="M18.437,70.667
					c-5.116-3.185-9.419-7.554-12.525-12.725"/>
				<path style="fill:none;stroke:#393939;stroke-width:1.0444;stroke-miterlimit:10;" d="M62.933,67.403
					c-6.608,5.594-15.152,8.966-24.487,8.966c-5.638,0-10.99-1.231-15.8-3.439"/>
				<circle style="fill:#393939;" cx="7.046" cy="51.499" r="1.02"/>
				<circle style="fill:#393939;" cx="3.758" cy="53.796" r="1.019"/>
				<circle style="fill:#393939;" cx="5.231" cy="45.431" r="1.021"/>
				<circle style="fill:#393939;" cx="1.287" cy="30.842" r="1.021"/>
				<circle style="fill:#393939;" cx="3.14" cy="24.572" r="1.021"/>
				<circle style="fill:#393939;" cx="19.894" cy="9.952" r="1.02"/>
				<circle style="fill:#393939;" cx="26.264" cy="6.804" r="1.02"/>
				<circle style="fill:#393939;" cx="51.383" cy="2.948" r="1.021"/>
				<circle style="fill:#393939;" cx="68.338" cy="22.24" r="1.021"/>
				<circle style="fill:#393939;" cx="58.431" cy="6.21" r="1.021"/>
				<path style="fill:#393939;" d="M72.13,28.945c0,0.565-0.457,1.021-1.019,1.021c-0.566,0-1.021-0.457-1.021-1.021
					c0-0.563,0.454-1.021,1.021-1.021C71.673,27.924,72.13,28.381,72.13,28.945z"/>
				<circle style="fill:#393939;" cx="76.201" cy="35.575" r="1.021"/>
				<circle style="fill:#393939;" cx="76.201" cy="42.026" r="1.021"/>
				<circle style="fill:#393939;" cx="14.137" cy="62.212" r="1.02"/>
				<circle style="fill:#393939;" cx="16.813" cy="64.673" r="1.02"/>
				<circle style="fill:#393939;" cx="18.437" cy="70.667" r="1.021"/>
				<circle style="fill:#393939;" cx="5.911" cy="57.942" r="1.02"/>
				<circle style="fill:#393939;" cx="36.408" cy="72.381" r="1.021"/>
				<circle style="fill:#393939;" cx="22.645" cy="72.906" r="1.02"/>
				<circle style="fill:#393939;" cx="42.646" cy="72.184" r="1.02"/>
				<circle style="fill:#393939;" cx="66.806" cy="63.652" r="1.021"/>
				<circle style="fill:#393939;" cx="62.932" cy="67.403" r="1.02"/>
			</g>
		</g>
	</g>
	<g>
		<path style="fill:#2C6882;" d="M46.458,46.006v4.492H29.507c0.184-1.698,0.733-3.307,1.652-4.827
			c0.917-1.521,2.729-3.537,5.438-6.049c2.18-2.031,3.517-3.408,4.01-4.131c0.666-0.998,0.998-1.984,0.998-2.96
			c0-1.078-0.289-1.907-0.868-2.486c-0.58-0.58-1.38-0.869-2.401-0.869c-1.01,0-1.813,0.304-2.409,0.912
			c-0.597,0.607-0.94,1.617-1.032,3.028l-4.819-0.481c0.287-2.662,1.188-4.572,2.702-5.731c1.515-1.158,3.407-1.738,5.68-1.738
			c2.489,0,4.445,0.672,5.868,2.014c1.422,1.343,2.134,3.012,2.134,5.009c0,1.136-0.204,2.217-0.611,3.243
			c-0.407,1.027-1.053,2.103-1.936,3.228c-0.585,0.745-1.641,1.818-3.167,3.218c-1.525,1.4-2.492,2.329-2.899,2.788
			s-0.737,0.906-0.989,1.342H46.458z"/>
	</g>
</g>
</svg>
