<?xml version="1.0" encoding="utf-8"?>
<!-- Generator: Adobe Illustrator 17.0.0, SVG Export Plug-In . SVG Version: 6.00 Build 0)  -->
<!DOCTYPE svg PUBLIC "-//W3C//DTD SVG 1.1//EN" "http://www.w3.org/Graphics/SVG/1.1/DTD/svg11.dtd">
<svg version="1.1" id="Capa_1" xmlns="http://www.w3.org/2000/svg" xmlns:xlink="http://www.w3.org/1999/xlink" x="0px" y="0px"
	 width="149.411px" height="50.535px" viewBox="0 0 149.411 50.535" enable-background="new 0 0 149.411 50.535"
	 xml:space="preserve">
<polygon fill="#2C6882" stroke="#000000" stroke-width="0.75" stroke-miterlimit="10" points="0.814,0.375 127.563,0.375 
	148.921,25.269 128.307,50.16 1.548,50.16 22.176,25.336 "/>
<polygon fill="#FFFFFF" stroke="#000000" stroke-width="0.75" stroke-miterlimit="10" points="3.381,3.133 130.14,3.133 
	148.921,25.027 130.79,46.918 4.056,46.918 22.175,25.094 "/>
<g>
	<g>
		<path fill="#2C6882" d="M32.787,29.199l1.648-7.874h3.287c0.57,0,0.997,0.065,1.281,0.196c0.285,0.131,0.521,0.354,0.707,0.671
			s0.279,0.673,0.279,1.066c0,0.326-0.066,0.657-0.199,0.993c-0.133,0.337-0.3,0.614-0.502,0.833s-0.407,0.383-0.615,0.494
			s-0.43,0.193-0.666,0.247c-0.505,0.118-1.016,0.178-1.531,0.178h-1.971l-0.666,3.195h-1.052V29.199z M34.693,25.111h1.735
			c0.673,0,1.167-0.072,1.482-0.217c0.315-0.146,0.567-0.366,0.757-0.664c0.19-0.297,0.285-0.611,0.285-0.945
			c0-0.258-0.05-0.468-0.15-0.631s-0.242-0.282-0.424-0.359c-0.184-0.077-0.534-0.115-1.053-0.115h-2.02L34.693,25.111z"/>
		<path fill="#2C6882" d="M40.017,29.199l1.192-5.704h0.859l-0.241,1.165c0.293-0.439,0.58-0.766,0.861-0.977
			c0.281-0.212,0.568-0.317,0.862-0.317c0.193,0,0.432,0.069,0.714,0.21l-0.396,0.902c-0.169-0.122-0.354-0.184-0.554-0.184
			c-0.34,0-0.689,0.19-1.048,0.57c-0.357,0.379-0.639,1.062-0.843,2.046l-0.483,2.288L40.017,29.199L40.017,29.199z"/>
		<path fill="#2C6882" d="M43.852,27.035c0-1.114,0.328-2.036,0.982-2.767c0.541-0.602,1.25-0.902,2.127-0.902
			c0.688,0,1.242,0.215,1.663,0.645s0.631,1.01,0.631,1.74c0,0.655-0.133,1.265-0.397,1.829c-0.265,0.563-0.642,0.996-1.131,1.297
			c-0.488,0.301-1.003,0.451-1.544,0.451c-0.444,0-0.848-0.095-1.211-0.285c-0.363-0.189-0.642-0.458-0.833-0.805
			C43.947,27.891,43.852,27.489,43.852,27.035z M44.824,26.937c0,0.537,0.129,0.945,0.387,1.223s0.585,0.416,0.982,0.416
			c0.208,0,0.414-0.042,0.617-0.126c0.205-0.084,0.395-0.212,0.57-0.384s0.324-0.368,0.448-0.589
			c0.123-0.22,0.223-0.457,0.298-0.712c0.111-0.354,0.166-0.694,0.166-1.02c0-0.516-0.129-0.916-0.389-1.201
			c-0.26-0.284-0.587-0.427-0.98-0.427c-0.305,0-0.582,0.072-0.832,0.218c-0.251,0.145-0.478,0.357-0.68,0.637
			s-0.352,0.604-0.446,0.975C44.871,26.317,44.824,26.648,44.824,26.937z"/>
		<path fill="#2C6882" d="M53.735,27.121l0.972,0.102c-0.243,0.713-0.59,1.241-1.039,1.587s-0.961,0.519-1.534,0.519
			c-0.619,0-1.121-0.2-1.506-0.602s-0.578-0.961-0.578-1.682c0-0.623,0.124-1.234,0.371-1.836s0.601-1.06,1.061-1.373
			s0.986-0.47,1.576-0.47c0.613,0,1.098,0.173,1.456,0.519s0.537,0.803,0.537,1.372l-0.956,0.064
			c-0.004-0.361-0.108-0.645-0.314-0.849s-0.477-0.307-0.813-0.307c-0.391,0-0.729,0.124-1.015,0.371
			c-0.287,0.247-0.512,0.622-0.675,1.125s-0.244,0.987-0.244,1.453c0,0.487,0.107,0.853,0.322,1.096s0.479,0.365,0.795,0.365
			s0.617-0.12,0.905-0.359C53.344,27.976,53.57,27.611,53.735,27.121z"/>
		<path fill="#2C6882" d="M59.487,27.26l0.945,0.098c-0.136,0.469-0.448,0.914-0.938,1.337c-0.488,0.423-1.071,0.634-1.748,0.634
			c-0.423,0-0.811-0.098-1.163-0.293s-0.621-0.479-0.806-0.852c-0.185-0.372-0.276-0.796-0.276-1.272
			c0-0.623,0.145-1.228,0.433-1.813c0.288-0.586,0.661-1.021,1.119-1.306c0.459-0.284,0.955-0.427,1.488-0.427
			c0.681,0,1.224,0.211,1.63,0.634s0.61,0.999,0.61,1.729c0,0.279-0.025,0.565-0.076,0.859h-4.199
			c-0.015,0.111-0.021,0.211-0.021,0.301c0,0.533,0.122,0.94,0.367,1.222s0.545,0.422,0.9,0.422c0.332,0,0.66-0.109,0.982-0.328
			C59.058,27.987,59.309,27.672,59.487,27.26z M56.662,25.848h3.201c0.004-0.101,0.005-0.172,0.005-0.215
			c0-0.487-0.121-0.86-0.365-1.12c-0.243-0.26-0.557-0.39-0.939-0.39c-0.415,0-0.794,0.144-1.136,0.43
			C57.086,24.84,56.83,25.271,56.662,25.848z"/>
		<path fill="#2C6882" d="M61.507,27.25l0.972-0.06c0,0.279,0.043,0.518,0.129,0.714c0.086,0.197,0.244,0.358,0.476,0.484
			c0.23,0.125,0.5,0.188,0.809,0.188c0.43,0,0.752-0.086,0.967-0.258s0.322-0.374,0.322-0.607c0-0.168-0.064-0.327-0.193-0.478
			c-0.133-0.15-0.456-0.336-0.97-0.556c-0.514-0.221-0.843-0.375-0.985-0.465c-0.24-0.146-0.421-0.319-0.543-0.519
			c-0.122-0.198-0.183-0.427-0.183-0.685c0-0.451,0.179-0.838,0.537-1.16s0.859-0.483,1.504-0.483c0.716,0,1.262,0.166,1.636,0.497
			s0.568,0.767,0.582,1.308l-0.95,0.064c-0.015-0.344-0.136-0.616-0.365-0.816s-0.554-0.301-0.972-0.301
			c-0.337,0-0.599,0.077-0.785,0.231c-0.186,0.153-0.279,0.32-0.279,0.499s0.081,0.337,0.242,0.473
			c0.107,0.093,0.385,0.236,0.832,0.43c0.745,0.322,1.215,0.576,1.408,0.763c0.308,0.297,0.461,0.659,0.461,1.085
			c0,0.283-0.086,0.561-0.26,0.833c-0.174,0.271-0.438,0.489-0.795,0.652s-0.776,0.244-1.26,0.244c-0.659,0-1.219-0.163-1.682-0.488
			C61.7,28.514,61.481,27.983,61.507,27.25z"/>
		<path fill="#2C6882" d="M67.087,27.035c0-1.114,0.328-2.036,0.982-2.767c0.541-0.602,1.25-0.902,2.127-0.902
			c0.688,0,1.242,0.215,1.663,0.645s0.631,1.01,0.631,1.74c0,0.655-0.133,1.265-0.397,1.829c-0.265,0.563-0.642,0.996-1.131,1.297
			c-0.488,0.301-1.003,0.451-1.544,0.451c-0.444,0-0.848-0.095-1.211-0.285c-0.363-0.189-0.642-0.458-0.833-0.805
			S67.087,27.489,67.087,27.035z M68.06,26.937c0,0.537,0.129,0.945,0.387,1.223s0.585,0.416,0.982,0.416
			c0.208,0,0.414-0.042,0.617-0.126c0.205-0.084,0.395-0.212,0.57-0.384s0.324-0.368,0.448-0.589
			c0.123-0.22,0.223-0.457,0.298-0.712c0.111-0.354,0.166-0.694,0.166-1.02c0-0.516-0.129-0.916-0.389-1.201
			c-0.26-0.284-0.587-0.427-0.98-0.427c-0.305,0-0.582,0.072-0.832,0.218c-0.251,0.145-0.478,0.357-0.68,0.637
			s-0.352,0.604-0.446,0.975C68.106,26.317,68.06,26.648,68.06,26.937z"/>
		<path fill="#2C6882" d="M73.124,27.25l0.972-0.06c0,0.279,0.043,0.518,0.129,0.714c0.086,0.197,0.244,0.358,0.476,0.484
			c0.23,0.125,0.5,0.188,0.809,0.188c0.43,0,0.752-0.086,0.967-0.258s0.322-0.374,0.322-0.607c0-0.168-0.064-0.327-0.193-0.478
			c-0.133-0.15-0.456-0.336-0.97-0.556c-0.514-0.221-0.843-0.375-0.985-0.465c-0.24-0.146-0.421-0.319-0.543-0.519
			c-0.122-0.198-0.183-0.427-0.183-0.685c0-0.451,0.179-0.838,0.537-1.16s0.859-0.483,1.504-0.483c0.716,0,1.262,0.166,1.636,0.497
			s0.568,0.767,0.582,1.308l-0.95,0.064c-0.015-0.344-0.136-0.616-0.365-0.816s-0.554-0.301-0.972-0.301
			c-0.337,0-0.599,0.077-0.785,0.231c-0.186,0.153-0.279,0.32-0.279,0.499s0.081,0.337,0.242,0.473
			c0.107,0.093,0.385,0.236,0.832,0.43c0.745,0.322,1.215,0.576,1.408,0.763c0.308,0.297,0.461,0.659,0.461,1.085
			c0,0.283-0.086,0.561-0.26,0.833c-0.174,0.271-0.438,0.489-0.795,0.652s-0.776,0.244-1.26,0.244c-0.659,0-1.219-0.163-1.682-0.488
			C73.317,28.514,73.099,27.983,73.124,27.25z"/>
		<path fill="#2C6882" d="M81.583,29.199l1.193-5.704h0.972l-0.198,0.94c0.361-0.405,0.685-0.685,0.969-0.838
			c0.285-0.154,0.594-0.231,0.927-0.231c0.354,0,0.65,0.094,0.889,0.282c0.238,0.188,0.396,0.45,0.47,0.787
			c0.291-0.358,0.596-0.626,0.916-0.804c0.32-0.177,0.658-0.266,1.013-0.266c0.477,0,0.833,0.112,1.071,0.339
			c0.238,0.225,0.357,0.542,0.357,0.95c0,0.176-0.041,0.466-0.123,0.87l-0.769,3.674h-0.972l0.783-3.771
			c0.068-0.308,0.103-0.528,0.103-0.661c0-0.186-0.06-0.332-0.177-0.439c-0.119-0.107-0.285-0.162-0.5-0.162
			c-0.29,0-0.586,0.088-0.887,0.264s-0.534,0.405-0.7,0.69c-0.167,0.284-0.313,0.722-0.438,1.313l-0.58,2.766H84.93l0.806-3.852
			c0.058-0.261,0.086-0.447,0.086-0.559c0-0.186-0.059-0.336-0.175-0.451c-0.116-0.114-0.268-0.172-0.454-0.172
			c-0.275,0-0.564,0.088-0.867,0.264s-0.549,0.42-0.738,0.733s-0.346,0.76-0.467,1.34l-0.564,2.696h-0.974V29.199z"/>
		<path fill="#2C6882" d="M90.715,29.199l1.191-5.704h0.973l-1.192,5.704H90.715z M92.133,22.426l0.23-1.101h0.967l-0.23,1.101
			H92.133z"/>
		<path fill="#2C6882" d="M93.288,27.25l0.972-0.06c0,0.279,0.043,0.518,0.129,0.714c0.086,0.197,0.244,0.358,0.476,0.484
			c0.23,0.125,0.5,0.188,0.809,0.188c0.43,0,0.752-0.086,0.967-0.258s0.322-0.374,0.322-0.607c0-0.168-0.064-0.327-0.193-0.478
			c-0.133-0.15-0.456-0.336-0.97-0.556c-0.514-0.221-0.843-0.375-0.985-0.465c-0.24-0.146-0.421-0.319-0.543-0.519
			c-0.122-0.198-0.183-0.427-0.183-0.685c0-0.451,0.179-0.838,0.537-1.16s0.859-0.483,1.504-0.483c0.716,0,1.262,0.166,1.636,0.497
			s0.568,0.767,0.582,1.308l-0.95,0.064c-0.015-0.344-0.136-0.616-0.365-0.816s-0.554-0.301-0.972-0.301
			c-0.337,0-0.599,0.077-0.785,0.231c-0.186,0.153-0.279,0.32-0.279,0.499s0.081,0.337,0.242,0.473
			c0.107,0.093,0.385,0.236,0.832,0.43c0.745,0.322,1.215,0.576,1.408,0.763c0.308,0.297,0.461,0.659,0.461,1.085
			c0,0.283-0.086,0.561-0.26,0.833c-0.174,0.271-0.438,0.489-0.795,0.652s-0.776,0.244-1.26,0.244c-0.659,0-1.219-0.163-1.682-0.488
			C93.481,28.514,93.263,27.983,93.288,27.25z"/>
		<path fill="#2C6882" d="M98.659,29.199l1.191-5.704h0.973l-1.192,5.704H98.659z M100.077,22.426l0.23-1.101h0.967l-0.23,1.101
			H100.077z"/>
		<path fill="#2C6882" d="M101.311,27.035c0-1.114,0.328-2.036,0.982-2.767c0.541-0.602,1.25-0.902,2.127-0.902
			c0.688,0,1.242,0.215,1.663,0.645s0.631,1.01,0.631,1.74c0,0.655-0.133,1.265-0.397,1.829c-0.265,0.563-0.642,0.996-1.131,1.297
			c-0.488,0.301-1.003,0.451-1.544,0.451c-0.444,0-0.848-0.095-1.211-0.285c-0.363-0.189-0.642-0.458-0.833-0.805
			S101.311,27.489,101.311,27.035z M102.284,26.937c0,0.537,0.129,0.945,0.387,1.223s0.585,0.416,0.982,0.416
			c0.208,0,0.414-0.042,0.617-0.126c0.205-0.084,0.395-0.212,0.57-0.384s0.324-0.368,0.448-0.589
			c0.123-0.22,0.223-0.457,0.298-0.712c0.111-0.354,0.166-0.694,0.166-1.02c0-0.516-0.129-0.916-0.389-1.201
			c-0.26-0.284-0.587-0.427-0.98-0.427c-0.305,0-0.582,0.072-0.832,0.218c-0.251,0.145-0.478,0.357-0.68,0.637
			s-0.352,0.604-0.446,0.975C102.331,26.317,102.284,26.648,102.284,26.937z"/>
		<path fill="#2C6882" d="M107.257,29.199l1.192-5.704h0.881l-0.21,0.993c0.384-0.39,0.742-0.675,1.074-0.854
			c0.334-0.179,0.674-0.269,1.021-0.269c0.461,0,0.824,0.125,1.087,0.376c0.264,0.251,0.396,0.586,0.396,1.004
			c0,0.212-0.047,0.545-0.141,1l-0.725,3.453h-0.973l0.758-3.615c0.075-0.351,0.113-0.61,0.113-0.778
			c0-0.189-0.065-0.344-0.196-0.462s-0.319-0.178-0.567-0.178c-0.497,0-0.94,0.18-1.329,0.537c-0.389,0.358-0.674,0.973-0.856,1.843
			l-0.553,2.653L107.257,29.199L107.257,29.199z"/>
		<path fill="#2C6882" d="M117.221,28.49c-0.337,0.29-0.66,0.502-0.973,0.637c-0.311,0.134-0.645,0.201-0.998,0.201
			c-0.527,0-0.951-0.155-1.273-0.465s-0.483-0.706-0.483-1.189c0-0.318,0.072-0.601,0.218-0.846
			c0.145-0.245,0.337-0.442,0.577-0.591s0.533-0.255,0.881-0.319c0.219-0.043,0.633-0.077,1.243-0.103s1.049-0.09,1.313-0.193
			c0.075-0.265,0.112-0.485,0.112-0.661c0-0.225-0.082-0.402-0.246-0.531c-0.227-0.179-0.556-0.269-0.988-0.269
			c-0.408,0-0.742,0.091-1.002,0.271s-0.449,0.438-0.566,0.771l-0.983-0.086c0.2-0.565,0.519-0.999,0.953-1.3
			c0.436-0.301,0.984-0.451,1.646-0.451c0.705,0,1.264,0.168,1.676,0.505c0.315,0.251,0.473,0.576,0.473,0.978
			c0,0.305-0.045,0.657-0.134,1.058l-0.317,1.418c-0.101,0.451-0.15,0.818-0.15,1.102c0,0.179,0.039,0.437,0.118,0.773h-0.982
			C117.279,29.013,117.242,28.776,117.221,28.49z M117.58,26.309c-0.136,0.054-0.281,0.095-0.438,0.124
			c-0.155,0.028-0.416,0.059-0.781,0.091c-0.565,0.05-0.965,0.113-1.197,0.19c-0.233,0.077-0.408,0.2-0.527,0.368
			c-0.117,0.168-0.177,0.354-0.177,0.559c0,0.272,0.094,0.496,0.282,0.671c0.188,0.176,0.455,0.264,0.803,0.264
			c0.322,0,0.632-0.085,0.93-0.255c0.297-0.17,0.531-0.407,0.703-0.712S117.484,26.872,117.58,26.309z"/>
		<path fill="#2C6882" d="M119.418,29.199l1.644-7.874h0.973l-1.645,7.874H119.418z"/>
		<path fill="#2C6882" d="M126.126,27.26l0.945,0.098c-0.136,0.469-0.448,0.914-0.938,1.337c-0.488,0.423-1.071,0.634-1.748,0.634
			c-0.423,0-0.811-0.098-1.163-0.293s-0.621-0.479-0.806-0.852c-0.185-0.372-0.276-0.796-0.276-1.272
			c0-0.623,0.145-1.228,0.433-1.813c0.288-0.586,0.661-1.021,1.119-1.306c0.459-0.284,0.955-0.427,1.488-0.427
			c0.681,0,1.224,0.211,1.63,0.634s0.61,0.999,0.61,1.729c0,0.279-0.025,0.565-0.076,0.859h-4.199
			c-0.015,0.111-0.021,0.211-0.021,0.301c0,0.533,0.122,0.94,0.367,1.222s0.545,0.422,0.9,0.422c0.332,0,0.66-0.109,0.982-0.328
			C125.696,27.987,125.947,27.672,126.126,27.26z M123.301,25.848h3.201c0.004-0.101,0.005-0.172,0.005-0.215
			c0-0.487-0.121-0.86-0.365-1.12c-0.243-0.26-0.557-0.39-0.939-0.39c-0.415,0-0.794,0.144-1.136,0.43
			C123.725,24.84,123.469,25.271,123.301,25.848z"/>
		<path fill="#2C6882" d="M128.145,27.25l0.972-0.06c0,0.279,0.043,0.518,0.129,0.714c0.086,0.197,0.244,0.358,0.476,0.484
			c0.23,0.125,0.5,0.188,0.809,0.188c0.43,0,0.752-0.086,0.967-0.258s0.322-0.374,0.322-0.607c0-0.168-0.064-0.327-0.193-0.478
			c-0.133-0.15-0.456-0.336-0.97-0.556c-0.514-0.221-0.843-0.375-0.985-0.465c-0.24-0.146-0.421-0.319-0.543-0.519
			c-0.122-0.198-0.183-0.427-0.183-0.685c0-0.451,0.179-0.838,0.537-1.16s0.859-0.483,1.504-0.483c0.716,0,1.262,0.166,1.636,0.497
			s0.568,0.767,0.582,1.308l-0.95,0.064c-0.015-0.344-0.136-0.616-0.365-0.816s-0.554-0.301-0.972-0.301
			c-0.337,0-0.599,0.077-0.785,0.231c-0.186,0.153-0.279,0.32-0.279,0.499s0.081,0.337,0.242,0.473
			c0.107,0.093,0.385,0.236,0.832,0.43c0.745,0.322,1.215,0.576,1.408,0.763c0.308,0.297,0.461,0.659,0.461,1.085
			c0,0.283-0.086,0.561-0.26,0.833c-0.174,0.271-0.438,0.489-0.795,0.652s-0.776,0.244-1.26,0.244c-0.659,0-1.219-0.163-1.682-0.488
			C128.339,28.514,128.12,27.983,128.145,27.25z"/>
	</g>
</g>
</svg>
