<?xml version="1.0" encoding="utf-8"?>
<!-- Generator: Adobe Illustrator 17.0.0, SVG Export Plug-In . SVG Version: 6.00 Build 0)  -->
<!DOCTYPE svg PUBLIC "-//W3C//DTD SVG 1.1//EN" "http://www.w3.org/Graphics/SVG/1.1/DTD/svg11.dtd">
<svg version="1.1" id="Capa_1" xmlns="http://www.w3.org/2000/svg" xmlns:xlink="http://www.w3.org/1999/xlink" x="0px" y="0px"
	 width="166.861px" height="58.948px" viewBox="0 0 166.861 58.948" style="enable-background:new 0 0 166.861 58.948;"
	 xml:space="preserve">
<g>
	<polyline style="fill:none;stroke:#6FC2D8;stroke-width:1.5977;stroke-miterlimit:10;" points="46.878,57.318 1.63,57.318 
		1.63,38.36 	"/>
	
		<line style="fill:none;stroke:#6FC2D8;stroke-width:1.5977;stroke-miterlimit:10;" x1="103.741" y1="57.318" x2="61.307" y2="57.318"/>
	<circle style="fill:#2C6882;" cx="46.879" cy="57.318" r="1.63"/>
	<circle style="fill:#2C6882;" cx="61.308" cy="57.318" r="1.63"/>
	<circle style="fill:#2C6882;" cx="103.74" cy="57.318" r="1.63"/>
	<circle style="fill:#2C6882;" cx="1.63" cy="38.36" r="1.63"/>
	<polyline style="fill:none;stroke:#6FC2D8;stroke-width:1.5977;stroke-miterlimit:10;" points="119.984,57.318 165.232,57.318 
		165.232,38.36 	"/>
	<g>
		<polyline style="fill:#6FC2D8;" points="156.559,10.394 156.559,49.434 9.732,49.434 9.732,10.394 		"/>
		<g>
			<rect x="15.966" y="16.49" style="fill:#FFFFFF;" width="134.524" height="26.515"/>
		</g>
	</g>
	<circle style="fill:#2C6882;" cx="119.983" cy="57.318" r="1.63"/>
	<circle style="fill:#2C6882;" cx="165.232" cy="38.36" r="1.63"/>
	<polyline style="fill:none;stroke:#6FC2D8;stroke-width:1.5977;stroke-miterlimit:10;" points="119.984,1.63 165.232,1.63 
		165.232,20.588 	"/>
	<line style="fill:none;stroke:#6FC2D8;stroke-width:1.5977;stroke-miterlimit:10;" x1="63.12" y1="1.63" x2="105.554" y2="1.63"/>
	<circle style="fill:#2C6882;" cx="119.983" cy="1.63" r="1.63"/>
	<circle style="fill:#2C6882;" cx="105.553" cy="1.63" r="1.629"/>
	<circle style="fill:#2C6882;" cx="63.121" cy="1.63" r="1.63"/>
	<circle style="fill:#2C6882;" cx="165.232" cy="20.588" r="1.63"/>
	<polyline style="fill:none;stroke:#6FC2D8;stroke-width:1.5977;stroke-miterlimit:10;" points="46.878,1.63 1.63,1.63 1.63,20.588 
			"/>
	<circle style="fill:#2C6882;" cx="46.879" cy="1.63" r="1.63"/>
	<circle style="fill:#2C6882;" cx="1.63" cy="20.588" r="1.63"/>
</g>
<g>
	<path style="fill:#2C6882;" d="M26.935,28.509V21.35h5.308v1.211H28.38v1.587h3.594v1.206H28.38v1.948h3.999v1.206H26.935z"/>
	<path style="fill:#2C6882;" d="M33.595,28.509V21.35h1.372v7.158H33.595z"/>
	<path style="fill:#2C6882;" d="M37.399,24.905l-1.245-0.225c0.14-0.501,0.381-0.872,0.723-1.113s0.85-0.361,1.523-0.361
		c0.612,0,1.067,0.072,1.367,0.217c0.3,0.146,0.51,0.329,0.633,0.553c0.121,0.223,0.183,0.632,0.183,1.228l-0.015,1.602
		c0,0.456,0.021,0.792,0.066,1.009c0.043,0.216,0.126,0.448,0.246,0.695h-1.357c-0.036-0.091-0.08-0.227-0.132-0.405
		c-0.022-0.081-0.039-0.135-0.049-0.161c-0.234,0.228-0.485,0.398-0.752,0.513s-0.552,0.171-0.854,0.171
		c-0.534,0-0.955-0.145-1.262-0.435c-0.309-0.29-0.462-0.656-0.462-1.099c0-0.293,0.07-0.555,0.21-0.783
		c0.14-0.23,0.336-0.406,0.588-0.527c0.253-0.123,0.616-0.229,1.092-0.32c0.642-0.12,1.086-0.232,1.333-0.337v-0.137
		c0-0.264-0.065-0.452-0.195-0.563c-0.13-0.113-0.376-0.169-0.737-0.169c-0.244,0-0.435,0.048-0.571,0.144
		C37.594,24.496,37.484,24.664,37.399,24.905z M39.234,26.018c-0.176,0.059-0.454,0.129-0.835,0.21s-0.63,0.161-0.747,0.239
		c-0.179,0.127-0.269,0.288-0.269,0.483c0,0.192,0.071,0.358,0.215,0.498s0.325,0.21,0.547,0.21c0.247,0,0.483-0.081,0.708-0.244
		c0.166-0.124,0.275-0.275,0.327-0.454c0.036-0.117,0.054-0.34,0.054-0.669V26.018z"/>
	<path style="fill:#2C6882;" d="M41.876,28.509V21.35h1.372v2.578c0.423-0.481,0.925-0.723,1.504-0.723
		c0.632,0,1.154,0.229,1.567,0.686c0.413,0.458,0.62,1.114,0.62,1.971c0,0.886-0.211,1.567-0.633,2.046
		c-0.421,0.479-0.933,0.718-1.535,0.718c-0.296,0-0.588-0.074-0.877-0.223c-0.287-0.147-0.536-0.366-0.744-0.656v0.762H41.876z
		 M43.238,25.804c0,0.537,0.085,0.935,0.254,1.191c0.237,0.364,0.554,0.547,0.947,0.547c0.303,0,0.561-0.129,0.773-0.389
		c0.214-0.258,0.32-0.666,0.32-1.223c0-0.593-0.107-1.02-0.322-1.281c-0.215-0.263-0.49-0.394-0.825-0.394
		c-0.329,0-0.603,0.128-0.82,0.384C43.348,24.894,43.238,25.283,43.238,25.804z"/>
	<path style="fill:#2C6882;" d="M48.043,28.509v-1.372h1.372v1.372H48.043z"/>
	<path style="fill:#2C6882;" d="M53.59,28.509V21.35h2.163l1.299,4.883l1.284-4.883h2.168v7.158h-1.343v-5.635l-1.421,5.635h-1.392
		l-1.416-5.635v5.635H53.59z"/>
	<path style="fill:#2C6882;" d="M62.955,24.905l-1.245-0.225c0.14-0.501,0.381-0.872,0.723-1.113s0.85-0.361,1.523-0.361
		c0.612,0,1.067,0.072,1.367,0.217c0.3,0.146,0.51,0.329,0.633,0.553c0.121,0.223,0.183,0.632,0.183,1.228l-0.015,1.602
		c0,0.456,0.021,0.792,0.066,1.009c0.043,0.216,0.126,0.448,0.246,0.695h-1.357c-0.036-0.091-0.08-0.227-0.132-0.405
		c-0.022-0.081-0.039-0.135-0.049-0.161c-0.234,0.228-0.485,0.398-0.752,0.513s-0.552,0.171-0.854,0.171
		c-0.534,0-0.955-0.145-1.262-0.435c-0.309-0.29-0.462-0.656-0.462-1.099c0-0.293,0.07-0.555,0.21-0.783
		c0.14-0.23,0.336-0.406,0.588-0.527c0.253-0.123,0.616-0.229,1.092-0.32c0.642-0.12,1.086-0.232,1.333-0.337v-0.137
		c0-0.264-0.065-0.452-0.195-0.563c-0.13-0.113-0.376-0.169-0.737-0.169c-0.244,0-0.435,0.048-0.571,0.144
		C63.15,24.496,63.04,24.664,62.955,24.905z M64.791,26.018c-0.176,0.059-0.454,0.129-0.835,0.21s-0.63,0.161-0.747,0.239
		c-0.179,0.127-0.269,0.288-0.269,0.483c0,0.192,0.071,0.358,0.215,0.498s0.325,0.21,0.547,0.21c0.247,0,0.483-0.081,0.708-0.244
		c0.166-0.124,0.275-0.275,0.327-0.454c0.036-0.117,0.054-0.34,0.054-0.669V26.018z"/>
	<path style="fill:#2C6882;" d="M67.452,23.323h1.279v0.762c0.166-0.261,0.391-0.472,0.674-0.635s0.598-0.244,0.942-0.244
		c0.603,0,1.113,0.236,1.533,0.708s0.63,1.13,0.63,1.973c0,0.866-0.212,1.539-0.635,2.019c-0.423,0.48-0.936,0.721-1.538,0.721
		c-0.286,0-0.546-0.057-0.779-0.171c-0.232-0.114-0.478-0.31-0.734-0.586v2.612h-1.372V23.323z M68.81,25.828
		c0,0.583,0.115,1.013,0.347,1.292c0.231,0.277,0.513,0.417,0.845,0.417c0.319,0,0.584-0.128,0.796-0.384
		c0.212-0.255,0.317-0.674,0.317-1.257c0-0.544-0.109-0.947-0.327-1.211s-0.488-0.396-0.811-0.396c-0.335,0-0.613,0.129-0.835,0.389
		C68.92,24.936,68.81,25.32,68.81,25.828z"/>
	<path style="fill:#2C6882;" d="M74.625,24.905l-1.245-0.225c0.14-0.501,0.381-0.872,0.723-1.113s0.85-0.361,1.523-0.361
		c0.612,0,1.067,0.072,1.367,0.217c0.3,0.146,0.51,0.329,0.633,0.553c0.121,0.223,0.183,0.632,0.183,1.228l-0.015,1.602
		c0,0.456,0.021,0.792,0.066,1.009c0.043,0.216,0.126,0.448,0.246,0.695h-1.357c-0.036-0.091-0.08-0.227-0.132-0.405
		c-0.022-0.081-0.039-0.135-0.049-0.161c-0.234,0.228-0.485,0.398-0.752,0.513s-0.552,0.171-0.854,0.171
		c-0.534,0-0.955-0.145-1.262-0.435c-0.309-0.29-0.462-0.656-0.462-1.099c0-0.293,0.07-0.555,0.21-0.783
		c0.14-0.23,0.336-0.406,0.588-0.527c0.253-0.123,0.616-0.229,1.092-0.32c0.642-0.12,1.086-0.232,1.333-0.337v-0.137
		c0-0.264-0.065-0.452-0.195-0.563c-0.13-0.113-0.376-0.169-0.737-0.169c-0.244,0-0.435,0.048-0.571,0.144
		C74.82,24.496,74.71,24.664,74.625,24.905z M76.461,26.018c-0.176,0.059-0.454,0.129-0.835,0.21s-0.63,0.161-0.747,0.239
		c-0.179,0.127-0.269,0.288-0.269,0.483c0,0.192,0.071,0.358,0.215,0.498s0.325,0.21,0.547,0.21c0.247,0,0.483-0.081,0.708-0.244
		c0.166-0.124,0.275-0.275,0.327-0.454c0.036-0.117,0.054-0.34,0.054-0.669V26.018z"/>
	<path style="fill:#2C6882;" d="M86.695,28.509h-1.274v-0.762c-0.212,0.296-0.461,0.517-0.75,0.662
		c-0.287,0.145-0.578,0.217-0.871,0.217c-0.596,0-1.105-0.24-1.531-0.721c-0.424-0.479-0.637-1.149-0.637-2.009
		c0-0.879,0.207-1.547,0.62-2.005c0.413-0.457,0.936-0.686,1.567-0.686c0.579,0,1.081,0.241,1.504,0.723V21.35h1.372V28.509z
		 M83.033,25.804c0,0.554,0.076,0.954,0.229,1.201c0.222,0.358,0.53,0.537,0.928,0.537c0.315,0,0.584-0.135,0.806-0.402
		c0.222-0.27,0.332-0.67,0.332-1.204c0-0.596-0.107-1.024-0.322-1.286c-0.215-0.263-0.49-0.394-0.825-0.394
		c-0.325,0-0.598,0.13-0.818,0.388C83.144,24.903,83.033,25.289,83.033,25.804z"/>
	<path style="fill:#2C6882;" d="M91.051,26.858l1.367,0.229c-0.176,0.501-0.453,0.883-0.832,1.146
		c-0.38,0.262-0.854,0.393-1.424,0.393c-0.901,0-1.569-0.295-2.002-0.884c-0.342-0.472-0.513-1.067-0.513-1.787
		c0-0.859,0.225-1.532,0.674-2.019c0.449-0.487,1.018-0.73,1.704-0.73c0.771,0,1.38,0.255,1.826,0.764
		c0.446,0.51,0.659,1.29,0.64,2.342h-3.438c0.01,0.407,0.12,0.724,0.332,0.949c0.212,0.227,0.476,0.34,0.791,0.34
		c0.215,0,0.396-0.059,0.542-0.176S90.976,27.119,91.051,26.858z M91.129,25.472c-0.01-0.397-0.112-0.699-0.308-0.906
		c-0.195-0.206-0.433-0.31-0.713-0.31c-0.3,0-0.547,0.109-0.742,0.327s-0.291,0.515-0.288,0.889H91.129z"/>
	<path style="fill:#2C6882;" d="M96.349,23.323h1.279v0.762c0.166-0.261,0.391-0.472,0.674-0.635s0.598-0.244,0.942-0.244
		c0.603,0,1.113,0.236,1.533,0.708s0.63,1.13,0.63,1.973c0,0.866-0.212,1.539-0.635,2.019c-0.423,0.48-0.936,0.721-1.538,0.721
		c-0.286,0-0.546-0.057-0.779-0.171c-0.232-0.114-0.478-0.31-0.734-0.586v2.612h-1.372V23.323z M97.706,25.828
		c0,0.583,0.115,1.013,0.347,1.292c0.231,0.277,0.513,0.417,0.845,0.417c0.319,0,0.584-0.128,0.796-0.384
		c0.212-0.255,0.317-0.674,0.317-1.257c0-0.544-0.109-0.947-0.327-1.211s-0.488-0.396-0.811-0.396c-0.335,0-0.613,0.129-0.835,0.389
		C97.817,24.936,97.706,25.32,97.706,25.828z"/>
	<path style="fill:#2C6882;" d="M103.81,28.509h-1.372v-5.186h1.274v0.737c0.218-0.349,0.414-0.578,0.588-0.688
		c0.175-0.11,0.372-0.166,0.594-0.166c0.313,0,0.613,0.086,0.903,0.259l-0.425,1.196c-0.231-0.149-0.446-0.225-0.645-0.225
		c-0.192,0-0.354,0.053-0.488,0.158c-0.134,0.106-0.238,0.298-0.314,0.574c-0.077,0.276-0.115,0.856-0.115,1.738V28.509z"/>
	<path style="fill:#2C6882;" d="M106.07,25.843c0-0.456,0.112-0.896,0.337-1.323s0.543-0.752,0.954-0.977
		c0.412-0.225,0.872-0.337,1.38-0.337c0.784,0,1.428,0.255,1.929,0.764c0.501,0.51,0.752,1.153,0.752,1.932
		c0,0.784-0.253,1.435-0.76,1.951c-0.506,0.516-1.143,0.773-1.911,0.773c-0.476,0-0.929-0.107-1.36-0.322
		c-0.431-0.215-0.759-0.529-0.983-0.945C106.183,26.944,106.07,26.438,106.07,25.843z M107.477,25.916
		c0,0.515,0.122,0.908,0.366,1.182s0.545,0.41,0.903,0.41s0.658-0.137,0.9-0.41c0.243-0.273,0.364-0.671,0.364-1.191
		c0-0.508-0.121-0.898-0.364-1.172c-0.242-0.273-0.542-0.41-0.9-0.41s-0.659,0.137-0.903,0.41S107.477,25.401,107.477,25.916z"/>
	<path style="fill:#2C6882;" d="M117.018,24.856l-1.353,0.244c-0.046-0.271-0.148-0.474-0.311-0.61
		c-0.16-0.137-0.37-0.205-0.627-0.205c-0.342,0-0.614,0.118-0.818,0.354c-0.203,0.235-0.305,0.63-0.305,1.184
		c0,0.615,0.104,1.05,0.311,1.304c0.206,0.254,0.483,0.381,0.832,0.381c0.261,0,0.474-0.074,0.64-0.222
		c0.166-0.148,0.283-0.403,0.352-0.765l1.348,0.229c-0.14,0.618-0.408,1.086-0.806,1.401s-0.93,0.474-1.597,0.474
		c-0.759,0-1.363-0.239-1.813-0.718c-0.451-0.479-0.677-1.141-0.677-1.987c0-0.856,0.227-1.522,0.679-2
		c0.452-0.477,1.064-0.715,1.836-0.715c0.632,0,1.134,0.136,1.506,0.408C116.587,23.886,116.855,24.3,117.018,24.856z"/>
	<path style="fill:#2C6882;" d="M121.061,26.858l1.367,0.229c-0.176,0.501-0.453,0.883-0.832,1.146
		c-0.38,0.262-0.854,0.393-1.424,0.393c-0.901,0-1.569-0.295-2.002-0.884c-0.342-0.472-0.513-1.067-0.513-1.787
		c0-0.859,0.225-1.532,0.674-2.019c0.449-0.487,1.018-0.73,1.704-0.73c0.771,0,1.38,0.255,1.826,0.764
		c0.446,0.51,0.659,1.29,0.64,2.342h-3.438c0.01,0.407,0.12,0.724,0.332,0.949c0.212,0.227,0.476,0.34,0.791,0.34
		c0.215,0,0.396-0.059,0.542-0.176S120.985,27.119,121.061,26.858z M121.139,25.472c-0.01-0.397-0.112-0.699-0.308-0.906
		c-0.195-0.206-0.433-0.31-0.713-0.31c-0.3,0-0.547,0.109-0.742,0.327s-0.291,0.515-0.288,0.889H121.139z"/>
	<path style="fill:#2C6882;" d="M123.136,27.029l1.377-0.21c0.059,0.267,0.178,0.47,0.356,0.607c0.179,0.139,0.43,0.208,0.752,0.208
		c0.354,0,0.622-0.065,0.801-0.195c0.12-0.091,0.181-0.213,0.181-0.366c0-0.104-0.032-0.19-0.098-0.259
		c-0.068-0.065-0.222-0.125-0.459-0.181c-1.106-0.244-1.809-0.467-2.104-0.669c-0.41-0.28-0.615-0.669-0.615-1.167
		c0-0.449,0.178-0.827,0.532-1.133s0.905-0.459,1.65-0.459c0.71,0,1.237,0.115,1.582,0.347s0.583,0.573,0.713,1.025l-1.294,0.239
		c-0.056-0.202-0.16-0.356-0.315-0.464c-0.154-0.107-0.375-0.161-0.661-0.161c-0.361,0-0.62,0.051-0.776,0.151
		c-0.104,0.071-0.156,0.164-0.156,0.278c0,0.098,0.046,0.181,0.137,0.249c0.124,0.091,0.551,0.22,1.281,0.386
		c0.731,0.166,1.241,0.369,1.531,0.61c0.286,0.244,0.43,0.584,0.43,1.021c0,0.476-0.198,0.884-0.596,1.226s-0.984,0.513-1.763,0.513
		c-0.706,0-1.266-0.144-1.677-0.43C123.532,27.91,123.263,27.52,123.136,27.029z"/>
	<path style="fill:#2C6882;" d="M128.863,25.843c0-0.456,0.112-0.896,0.337-1.323s0.543-0.752,0.954-0.977
		c0.412-0.225,0.872-0.337,1.38-0.337c0.784,0,1.428,0.255,1.929,0.764c0.501,0.51,0.752,1.153,0.752,1.932
		c0,0.784-0.253,1.435-0.76,1.951c-0.506,0.516-1.143,0.773-1.911,0.773c-0.476,0-0.929-0.107-1.36-0.322
		c-0.431-0.215-0.759-0.529-0.983-0.945C128.976,26.944,128.863,26.438,128.863,25.843z M130.27,25.916
		c0,0.515,0.122,0.908,0.366,1.182s0.545,0.41,0.903,0.41s0.658-0.137,0.9-0.41c0.243-0.273,0.364-0.671,0.364-1.191
		c0-0.508-0.121-0.898-0.364-1.172c-0.242-0.273-0.542-0.41-0.9-0.41s-0.659,0.137-0.903,0.41S130.27,25.401,130.27,25.916z"/>
	<path style="fill:#2C6882;" d="M134.806,27.029l1.377-0.21c0.059,0.267,0.178,0.47,0.356,0.607c0.179,0.139,0.43,0.208,0.752,0.208
		c0.354,0,0.622-0.065,0.801-0.195c0.12-0.091,0.181-0.213,0.181-0.366c0-0.104-0.032-0.19-0.098-0.259
		c-0.068-0.065-0.222-0.125-0.459-0.181c-1.106-0.244-1.809-0.467-2.104-0.669c-0.41-0.28-0.615-0.669-0.615-1.167
		c0-0.449,0.178-0.827,0.532-1.133s0.905-0.459,1.65-0.459c0.71,0,1.237,0.115,1.582,0.347s0.583,0.573,0.713,1.025l-1.294,0.239
		c-0.056-0.202-0.16-0.356-0.315-0.464c-0.154-0.107-0.375-0.161-0.661-0.161c-0.361,0-0.62,0.051-0.776,0.151
		c-0.104,0.071-0.156,0.164-0.156,0.278c0,0.098,0.046,0.181,0.137,0.249c0.124,0.091,0.551,0.22,1.281,0.386
		c0.731,0.166,1.241,0.369,1.531,0.61c0.286,0.244,0.43,0.584,0.43,1.021c0,0.476-0.198,0.884-0.596,1.226s-0.984,0.513-1.763,0.513
		c-0.706,0-1.266-0.144-1.677-0.43C135.202,27.91,134.933,27.52,134.806,27.029z"/>
	<path style="fill:#2C6882;" d="M22.192,34.973c0-0.729,0.109-1.341,0.327-1.836c0.163-0.364,0.385-0.691,0.666-0.981
		c0.282-0.29,0.591-0.505,0.926-0.645c0.446-0.188,0.96-0.283,1.543-0.283c1.055,0,1.898,0.327,2.531,0.981
		c0.634,0.654,0.95,1.564,0.95,2.729c0,1.155-0.314,2.06-0.942,2.712c-0.628,0.653-1.468,0.979-2.52,0.979
		c-1.064,0-1.911-0.325-2.539-0.974C22.506,37.007,22.192,36.113,22.192,34.973z M23.681,34.925c0,0.811,0.188,1.425,0.562,1.844
		c0.374,0.418,0.85,0.627,1.426,0.627s1.049-0.207,1.419-0.623c0.369-0.414,0.554-1.037,0.554-1.867c0-0.82-0.18-1.433-0.54-1.836
		c-0.359-0.403-0.837-0.605-1.433-0.605s-1.076,0.204-1.44,0.613C23.863,33.485,23.681,34.101,23.681,34.925z"/>
	<path style="fill:#2C6882;" d="M31.567,38.509h-1.372v-5.186h1.274v0.737c0.218-0.349,0.414-0.578,0.588-0.688
		c0.175-0.11,0.372-0.166,0.594-0.166c0.313,0,0.613,0.086,0.903,0.259l-0.425,1.196c-0.231-0.149-0.446-0.225-0.645-0.225
		c-0.192,0-0.354,0.053-0.488,0.158c-0.134,0.106-0.238,0.298-0.314,0.574c-0.077,0.276-0.115,0.856-0.115,1.738V38.509z"/>
	<path style="fill:#2C6882;" d="M34.018,38.85l1.567,0.19c0.026,0.183,0.086,0.308,0.181,0.376c0.13,0.098,0.335,0.146,0.615,0.146
		c0.358,0,0.627-0.054,0.806-0.161c0.12-0.071,0.212-0.188,0.273-0.347c0.042-0.114,0.063-0.324,0.063-0.63v-0.757
		c-0.41,0.56-0.928,0.84-1.553,0.84c-0.696,0-1.248-0.295-1.655-0.884c-0.319-0.466-0.479-1.045-0.479-1.738
		c0-0.869,0.209-1.533,0.627-1.992c0.419-0.459,0.938-0.688,1.561-0.688c0.642,0,1.17,0.281,1.587,0.845v-0.728h1.284v4.653
		c0,0.612-0.051,1.069-0.151,1.372s-0.242,0.54-0.425,0.713s-0.426,0.308-0.73,0.405c-0.304,0.098-0.688,0.146-1.154,0.146
		c-0.879,0-1.502-0.15-1.87-0.452c-0.368-0.301-0.552-0.683-0.552-1.145C34.013,38.971,34.015,38.916,34.018,38.85z M35.243,35.808
		c0,0.55,0.106,0.953,0.32,1.208c0.213,0.256,0.476,0.384,0.788,0.384c0.335,0,0.618-0.131,0.85-0.394
		c0.231-0.262,0.347-0.649,0.347-1.164c0-0.537-0.11-0.936-0.332-1.196s-0.501-0.391-0.84-0.391c-0.329,0-0.6,0.128-0.813,0.384
		C35.35,34.894,35.243,35.284,35.243,35.808z"/>
	<path style="fill:#2C6882;" d="M41.278,34.905l-1.245-0.225c0.14-0.501,0.381-0.872,0.723-1.113s0.85-0.361,1.523-0.361
		c0.612,0,1.067,0.072,1.367,0.217c0.3,0.146,0.51,0.329,0.633,0.553c0.121,0.223,0.183,0.632,0.183,1.228l-0.015,1.602
		c0,0.456,0.021,0.792,0.066,1.009c0.043,0.216,0.126,0.448,0.246,0.695h-1.357c-0.036-0.091-0.08-0.227-0.132-0.405
		c-0.022-0.081-0.039-0.135-0.049-0.161c-0.234,0.228-0.485,0.398-0.752,0.513s-0.552,0.171-0.854,0.171
		c-0.534,0-0.955-0.145-1.262-0.435c-0.309-0.29-0.462-0.656-0.462-1.099c0-0.293,0.07-0.555,0.21-0.783
		c0.14-0.23,0.336-0.406,0.588-0.527c0.253-0.123,0.616-0.229,1.092-0.32c0.642-0.12,1.086-0.232,1.333-0.337v-0.137
		c0-0.264-0.065-0.452-0.195-0.563c-0.13-0.113-0.376-0.169-0.737-0.169c-0.244,0-0.435,0.048-0.571,0.144
		C41.474,34.496,41.363,34.664,41.278,34.905z M43.114,36.018c-0.176,0.059-0.454,0.129-0.835,0.21s-0.63,0.161-0.747,0.239
		c-0.179,0.127-0.269,0.288-0.269,0.483c0,0.192,0.071,0.358,0.215,0.498s0.325,0.21,0.547,0.21c0.247,0,0.483-0.081,0.708-0.244
		c0.166-0.124,0.275-0.275,0.327-0.454c0.036-0.117,0.054-0.34,0.054-0.669V36.018z"/>
	<path style="fill:#2C6882;" d="M50.531,38.509h-1.372v-2.646c0-0.56-0.029-0.922-0.088-1.086c-0.059-0.165-0.154-0.293-0.285-0.384
		c-0.133-0.091-0.291-0.137-0.477-0.137c-0.237,0-0.451,0.065-0.64,0.195s-0.318,0.303-0.388,0.518
		c-0.07,0.215-0.105,0.612-0.105,1.191v2.349h-1.372v-5.186h1.274v0.762c0.452-0.586,1.022-0.879,1.709-0.879
		c0.303,0,0.579,0.055,0.83,0.164c0.251,0.108,0.44,0.248,0.568,0.417c0.129,0.169,0.219,0.361,0.27,0.576
		c0.05,0.215,0.075,0.522,0.075,0.923V38.509z"/>
	<path style="fill:#2C6882;" d="M51.923,32.62v-1.27h1.372v1.27H51.923z M51.923,38.509v-5.186h1.372v5.186H51.923z"/>
	<path style="fill:#2C6882;" d="M54.15,38.509v-1.069l1.943-2.231c0.319-0.364,0.555-0.623,0.708-0.776
		c-0.159,0.01-0.369,0.017-0.63,0.02l-1.831,0.01v-1.138h4.287v0.972l-1.982,2.285l-0.698,0.757
		c0.381-0.022,0.617-0.034,0.708-0.034h2.124v1.206H54.15z"/>
	<path style="fill:#2C6882;" d="M60.727,34.905l-1.245-0.225c0.14-0.501,0.381-0.872,0.723-1.113s0.85-0.361,1.523-0.361
		c0.612,0,1.067,0.072,1.367,0.217c0.3,0.146,0.51,0.329,0.633,0.553c0.121,0.223,0.183,0.632,0.183,1.228l-0.015,1.602
		c0,0.456,0.021,0.792,0.066,1.009c0.043,0.216,0.126,0.448,0.246,0.695h-1.357c-0.036-0.091-0.08-0.227-0.132-0.405
		c-0.022-0.081-0.039-0.135-0.049-0.161c-0.234,0.228-0.485,0.398-0.752,0.513s-0.552,0.171-0.854,0.171
		c-0.534,0-0.955-0.145-1.262-0.435c-0.309-0.29-0.462-0.656-0.462-1.099c0-0.293,0.07-0.555,0.21-0.783
		c0.14-0.23,0.336-0.406,0.588-0.527c0.253-0.123,0.616-0.229,1.092-0.32c0.642-0.12,1.086-0.232,1.333-0.337v-0.137
		c0-0.264-0.065-0.452-0.195-0.563c-0.13-0.113-0.376-0.169-0.737-0.169c-0.244,0-0.435,0.048-0.571,0.144
		C60.922,34.496,60.812,34.664,60.727,34.905z M62.563,36.018c-0.176,0.059-0.454,0.129-0.835,0.21s-0.63,0.161-0.747,0.239
		c-0.179,0.127-0.269,0.288-0.269,0.483c0,0.192,0.071,0.358,0.215,0.498s0.325,0.21,0.547,0.21c0.247,0,0.483-0.081,0.708-0.244
		c0.166-0.124,0.275-0.275,0.327-0.454c0.036-0.117,0.054-0.34,0.054-0.669V36.018z"/>
	<path style="fill:#2C6882;" d="M69.784,34.856L68.432,35.1c-0.046-0.271-0.148-0.474-0.311-0.61
		c-0.16-0.137-0.37-0.205-0.627-0.205c-0.342,0-0.614,0.118-0.818,0.354c-0.203,0.235-0.305,0.63-0.305,1.184
		c0,0.615,0.104,1.05,0.311,1.304c0.206,0.254,0.483,0.381,0.832,0.381c0.261,0,0.474-0.074,0.64-0.222
		c0.166-0.148,0.283-0.403,0.352-0.765l1.348,0.229c-0.14,0.618-0.408,1.086-0.806,1.401s-0.93,0.474-1.597,0.474
		c-0.759,0-1.363-0.239-1.813-0.718c-0.451-0.479-0.677-1.141-0.677-1.987c0-0.856,0.227-1.522,0.679-2
		c0.452-0.477,1.064-0.715,1.836-0.715c0.632,0,1.134,0.136,1.506,0.408C69.354,33.886,69.621,34.3,69.784,34.856z"/>
	<path style="fill:#2C6882;" d="M70.824,32.62v-1.27h1.372v1.27H70.824z M70.824,38.509v-5.186h1.372v5.186H70.824z"/>
	<path style="fill:#2C6882;" d="M73.285,35.843c0-0.456,0.112-0.896,0.337-1.323s0.543-0.752,0.954-0.977
		c0.412-0.225,0.872-0.337,1.38-0.337c0.784,0,1.428,0.255,1.929,0.764c0.501,0.51,0.752,1.153,0.752,1.932
		c0,0.784-0.253,1.435-0.76,1.951c-0.506,0.516-1.143,0.773-1.911,0.773c-0.476,0-0.929-0.107-1.36-0.322
		c-0.431-0.215-0.759-0.529-0.983-0.945C73.398,36.944,73.285,36.438,73.285,35.843z M74.692,35.916
		c0,0.515,0.122,0.908,0.366,1.182s0.545,0.41,0.903,0.41s0.658-0.137,0.9-0.41c0.243-0.273,0.364-0.671,0.364-1.191
		c0-0.508-0.121-0.898-0.364-1.172c-0.242-0.273-0.542-0.41-0.9-0.41s-0.659,0.137-0.903,0.41S74.692,35.401,74.692,35.916z"/>
	<path style="fill:#2C6882;" d="M84.428,38.509h-1.372v-2.646c0-0.56-0.029-0.922-0.088-1.086c-0.059-0.165-0.154-0.293-0.285-0.384
		c-0.133-0.091-0.291-0.137-0.477-0.137c-0.237,0-0.451,0.065-0.64,0.195s-0.318,0.303-0.388,0.518
		c-0.07,0.215-0.105,0.612-0.105,1.191v2.349h-1.372v-5.186h1.274v0.762c0.452-0.586,1.022-0.879,1.709-0.879
		c0.303,0,0.579,0.055,0.83,0.164c0.251,0.108,0.44,0.248,0.568,0.417c0.129,0.169,0.219,0.361,0.27,0.576
		c0.05,0.215,0.075,0.522,0.075,0.923V38.509z"/>
	<path style="fill:#2C6882;" d="M86.845,34.905L85.6,34.681c0.14-0.501,0.381-0.872,0.723-1.113s0.85-0.361,1.523-0.361
		c0.612,0,1.067,0.072,1.367,0.217c0.3,0.146,0.51,0.329,0.633,0.553c0.121,0.223,0.183,0.632,0.183,1.228l-0.015,1.602
		c0,0.456,0.021,0.792,0.066,1.009c0.043,0.216,0.126,0.448,0.246,0.695h-1.357c-0.036-0.091-0.08-0.227-0.132-0.405
		c-0.022-0.081-0.039-0.135-0.049-0.161c-0.234,0.228-0.485,0.398-0.752,0.513s-0.552,0.171-0.854,0.171
		c-0.534,0-0.955-0.145-1.262-0.435c-0.309-0.29-0.462-0.656-0.462-1.099c0-0.293,0.07-0.555,0.21-0.783
		c0.14-0.23,0.336-0.406,0.588-0.527c0.253-0.123,0.616-0.229,1.092-0.32c0.642-0.12,1.086-0.232,1.333-0.337v-0.137
		c0-0.264-0.065-0.452-0.195-0.563c-0.13-0.113-0.376-0.169-0.737-0.169c-0.244,0-0.435,0.048-0.571,0.144
		C87.04,34.496,86.93,34.664,86.845,34.905z M88.681,36.018c-0.176,0.059-0.454,0.129-0.835,0.21s-0.63,0.161-0.747,0.239
		c-0.179,0.127-0.269,0.288-0.269,0.483c0,0.192,0.071,0.358,0.215,0.498s0.325,0.21,0.547,0.21c0.247,0,0.483-0.081,0.708-0.244
		c0.166-0.124,0.275-0.275,0.327-0.454c0.036-0.117,0.054-0.34,0.054-0.669V36.018z"/>
	<path style="fill:#2C6882;" d="M91.381,38.509V31.35h1.372v7.158H91.381z"/>
	<path style="fill:#2C6882;" d="M97.162,36.858l1.367,0.229c-0.176,0.501-0.453,0.883-0.832,1.146
		c-0.38,0.262-0.854,0.393-1.424,0.393c-0.901,0-1.569-0.295-2.002-0.884c-0.342-0.472-0.513-1.067-0.513-1.787
		c0-0.859,0.225-1.532,0.674-2.019c0.449-0.487,1.018-0.73,1.704-0.73c0.771,0,1.38,0.255,1.826,0.764
		c0.446,0.51,0.659,1.29,0.64,2.342h-3.438c0.01,0.407,0.12,0.724,0.332,0.949c0.212,0.227,0.476,0.34,0.791,0.34
		c0.215,0,0.396-0.059,0.542-0.176S97.087,37.119,97.162,36.858z M97.24,35.472c-0.01-0.397-0.112-0.699-0.308-0.906
		c-0.195-0.206-0.433-0.31-0.713-0.31c-0.3,0-0.547,0.109-0.742,0.327s-0.291,0.515-0.288,0.889H97.24z"/>
	<path style="fill:#2C6882;" d="M99.237,37.029l1.377-0.21c0.059,0.267,0.178,0.47,0.356,0.607c0.179,0.139,0.43,0.208,0.752,0.208
		c0.354,0,0.622-0.065,0.801-0.195c0.12-0.091,0.181-0.213,0.181-0.366c0-0.104-0.032-0.19-0.098-0.259
		c-0.068-0.065-0.222-0.125-0.459-0.181c-1.106-0.244-1.809-0.467-2.104-0.669c-0.41-0.28-0.615-0.669-0.615-1.167
		c0-0.449,0.178-0.827,0.532-1.133s0.905-0.459,1.65-0.459c0.71,0,1.237,0.115,1.582,0.347s0.583,0.573,0.713,1.025l-1.294,0.239
		c-0.056-0.202-0.16-0.356-0.315-0.464c-0.154-0.107-0.375-0.161-0.661-0.161c-0.361,0-0.62,0.051-0.776,0.151
		c-0.104,0.071-0.156,0.164-0.156,0.278c0,0.098,0.046,0.181,0.137,0.249c0.124,0.091,0.551,0.22,1.281,0.386
		c0.731,0.166,1.241,0.369,1.531,0.61c0.286,0.244,0.43,0.584,0.43,1.021c0,0.476-0.198,0.884-0.596,1.226s-0.984,0.513-1.763,0.513
		c-0.706,0-1.266-0.144-1.677-0.43C99.634,37.91,99.364,37.52,99.237,37.029z"/>
	<path style="fill:#2C6882;" d="M107.577,37.029l1.377-0.21c0.059,0.267,0.178,0.47,0.356,0.607c0.179,0.139,0.43,0.208,0.752,0.208
		c0.354,0,0.622-0.065,0.801-0.195c0.12-0.091,0.181-0.213,0.181-0.366c0-0.104-0.032-0.19-0.098-0.259
		c-0.068-0.065-0.222-0.125-0.459-0.181c-1.106-0.244-1.809-0.467-2.104-0.669c-0.41-0.28-0.615-0.669-0.615-1.167
		c0-0.449,0.178-0.827,0.532-1.133s0.905-0.459,1.65-0.459c0.71,0,1.237,0.115,1.582,0.347s0.583,0.573,0.713,1.025l-1.294,0.239
		c-0.056-0.202-0.16-0.356-0.315-0.464c-0.154-0.107-0.375-0.161-0.661-0.161c-0.361,0-0.62,0.051-0.776,0.151
		c-0.104,0.071-0.156,0.164-0.156,0.278c0,0.098,0.046,0.181,0.137,0.249c0.124,0.091,0.551,0.22,1.281,0.386
		c0.731,0.166,1.241,0.369,1.531,0.61c0.286,0.244,0.43,0.584,0.43,1.021c0,0.476-0.198,0.884-0.596,1.226s-0.984,0.513-1.763,0.513
		c-0.706,0-1.266-0.144-1.677-0.43C107.974,37.91,107.704,37.52,107.577,37.029z"/>
	<path style="fill:#2C6882;" d="M116.625,36.858l1.367,0.229c-0.176,0.501-0.453,0.883-0.832,1.146
		c-0.38,0.262-0.854,0.393-1.424,0.393c-0.901,0-1.569-0.295-2.002-0.884c-0.342-0.472-0.513-1.067-0.513-1.787
		c0-0.859,0.225-1.532,0.674-2.019c0.449-0.487,1.018-0.73,1.704-0.73c0.771,0,1.38,0.255,1.826,0.764
		c0.446,0.51,0.659,1.29,0.64,2.342h-3.438c0.01,0.407,0.12,0.724,0.332,0.949c0.212,0.227,0.476,0.34,0.791,0.34
		c0.215,0,0.396-0.059,0.542-0.176S116.55,37.119,116.625,36.858z M116.703,35.472c-0.01-0.397-0.112-0.699-0.308-0.906
		c-0.195-0.206-0.433-0.31-0.713-0.31c-0.3,0-0.547,0.109-0.742,0.327s-0.291,0.515-0.288,0.889H116.703z"/>
	<path style="fill:#2C6882;" d="M126.718,38.509h-1.274v-0.762c-0.212,0.296-0.461,0.517-0.75,0.662
		c-0.287,0.145-0.578,0.217-0.871,0.217c-0.596,0-1.105-0.24-1.531-0.721c-0.424-0.479-0.637-1.149-0.637-2.009
		c0-0.879,0.207-1.547,0.62-2.005c0.413-0.457,0.936-0.686,1.567-0.686c0.579,0,1.081,0.241,1.504,0.723V31.35h1.372V38.509z
		 M123.056,35.804c0,0.554,0.076,0.954,0.229,1.201c0.222,0.358,0.53,0.537,0.928,0.537c0.315,0,0.584-0.135,0.806-0.402
		c0.222-0.27,0.332-0.67,0.332-1.204c0-0.596-0.107-1.024-0.322-1.286c-0.215-0.263-0.49-0.394-0.825-0.394
		c-0.325,0-0.598,0.13-0.818,0.388C123.166,34.903,123.056,35.289,123.056,35.804z"/>
	<path style="fill:#2C6882;" d="M131.073,36.858l1.367,0.229c-0.176,0.501-0.453,0.883-0.832,1.146
		c-0.38,0.262-0.854,0.393-1.424,0.393c-0.901,0-1.569-0.295-2.002-0.884c-0.342-0.472-0.513-1.067-0.513-1.787
		c0-0.859,0.225-1.532,0.674-2.019c0.449-0.487,1.018-0.73,1.704-0.73c0.771,0,1.38,0.255,1.826,0.764
		c0.446,0.51,0.659,1.29,0.64,2.342h-3.438c0.01,0.407,0.12,0.724,0.332,0.949c0.212,0.227,0.476,0.34,0.791,0.34
		c0.215,0,0.396-0.059,0.542-0.176S130.998,37.119,131.073,36.858z M131.151,35.472c-0.01-0.397-0.112-0.699-0.308-0.906
		c-0.195-0.206-0.433-0.31-0.713-0.31c-0.3,0-0.547,0.109-0.742,0.327s-0.291,0.515-0.288,0.889H131.151z"/>
	<path style="fill:#2C6882;" d="M133.573,38.509V31.35h1.372v2.578c0.423-0.481,0.925-0.723,1.504-0.723
		c0.632,0,1.154,0.229,1.567,0.686c0.413,0.458,0.62,1.114,0.62,1.971c0,0.886-0.211,1.567-0.633,2.046
		c-0.421,0.479-0.933,0.718-1.535,0.718c-0.296,0-0.588-0.074-0.877-0.223c-0.287-0.147-0.536-0.366-0.744-0.656v0.762H133.573z
		 M134.936,35.804c0,0.537,0.085,0.935,0.254,1.191c0.237,0.364,0.554,0.547,0.947,0.547c0.303,0,0.561-0.129,0.773-0.389
		c0.214-0.258,0.32-0.666,0.32-1.223c0-0.593-0.107-1.02-0.322-1.281c-0.215-0.263-0.49-0.394-0.825-0.394
		c-0.329,0-0.603,0.128-0.82,0.384C135.045,34.894,134.936,35.283,134.936,35.804z"/>
	<path style="fill:#2C6882;" d="M142.743,36.858l1.367,0.229c-0.176,0.501-0.453,0.883-0.832,1.146
		c-0.38,0.262-0.854,0.393-1.424,0.393c-0.901,0-1.569-0.295-2.002-0.884c-0.342-0.472-0.513-1.067-0.513-1.787
		c0-0.859,0.225-1.532,0.674-2.019c0.449-0.487,1.018-0.73,1.704-0.73c0.771,0,1.38,0.255,1.826,0.764
		c0.446,0.51,0.659,1.29,0.64,2.342h-3.438c0.01,0.407,0.12,0.724,0.332,0.949c0.212,0.227,0.476,0.34,0.791,0.34
		c0.215,0,0.396-0.059,0.542-0.176S142.668,37.119,142.743,36.858z M142.821,35.472c-0.01-0.397-0.112-0.699-0.308-0.906
		c-0.195-0.206-0.433-0.31-0.713-0.31c-0.3,0-0.547,0.109-0.742,0.327s-0.291,0.515-0.288,0.889H142.821z"/>
</g>
</svg>
