<?xml version="1.0" encoding="utf-8"?>
<!-- Generator: Adobe Illustrator 17.0.0, SVG Export Plug-In . SVG Version: 6.00 Build 0)  -->
<!DOCTYPE svg PUBLIC "-//W3C//DTD SVG 1.1//EN" "http://www.w3.org/Graphics/SVG/1.1/DTD/svg11.dtd">
<svg version="1.1" id="Capa_1" xmlns="http://www.w3.org/2000/svg" xmlns:xlink="http://www.w3.org/1999/xlink" x="0px" y="0px"
	 width="166.861px" height="58.948px" viewBox="0 0 166.861 58.948" style="enable-background:new 0 0 166.861 58.948;"
	 xml:space="preserve">
<g>
	<polyline style="fill:none;stroke:#6FC2D8;stroke-width:1.5977;stroke-miterlimit:10;" points="46.878,57.318 1.629,57.318 
		1.629,38.36 	"/>
	
		<line style="fill:none;stroke:#6FC2D8;stroke-width:1.5977;stroke-miterlimit:10;" x1="103.741" y1="57.318" x2="61.308" y2="57.318"/>
	<circle style="fill:#2C6882;" cx="46.878" cy="57.318" r="1.63"/>
	<circle style="fill:#2C6882;" cx="61.308" cy="57.318" r="1.63"/>
	<circle style="fill:#2C6882;" cx="103.74" cy="57.318" r="1.63"/>
	<circle style="fill:#2C6882;" cx="1.63" cy="38.36" r="1.63"/>
	<polyline style="fill:none;stroke:#6FC2D8;stroke-width:1.5977;stroke-miterlimit:10;" points="119.983,57.318 165.231,57.318 
		165.231,38.36 	"/>
	<g>
		<polyline style="fill:#6FC2D8;" points="156.56,10.394 156.56,49.434 9.731,49.434 9.731,10.394 		"/>
		<g>
			<rect x="15.965" y="16.49" style="fill:#FFFFFF;" width="134.525" height="26.515"/>
		</g>
	</g>
	<circle style="fill:#2C6882;" cx="119.982" cy="57.318" r="1.63"/>
	<circle style="fill:#2C6882;" cx="165.232" cy="38.36" r="1.63"/>
	<polyline style="fill:none;stroke:#6FC2D8;stroke-width:1.5977;stroke-miterlimit:10;" points="119.983,1.63 165.231,1.63 
		165.231,20.588 	"/>
	<line style="fill:none;stroke:#6FC2D8;stroke-width:1.5977;stroke-miterlimit:10;" x1="63.12" y1="1.63" x2="105.554" y2="1.63"/>
	<circle style="fill:#2C6882;" cx="119.982" cy="1.63" r="1.63"/>
	<circle style="fill:#2C6882;" cx="105.554" cy="1.63" r="1.63"/>
	<circle style="fill:#2C6882;" cx="63.121" cy="1.63" r="1.63"/>
	<circle style="fill:#2C6882;" cx="165.232" cy="20.588" r="1.63"/>
	<polyline style="fill:none;stroke:#6FC2D8;stroke-width:1.5977;stroke-miterlimit:10;" points="46.878,1.63 1.629,1.63 
		1.629,20.588 	"/>
	<circle style="fill:#2C6882;" cx="46.878" cy="1.63" r="1.63"/>
	<circle style="fill:#2C6882;" cx="1.63" cy="20.588" r="1.63"/>
</g>
<g>
	<path style="fill:#2C6882;" d="M23.229,26.18l1.406-0.137c0.085,0.472,0.256,0.818,0.516,1.04c0.258,0.222,0.607,0.332,1.047,0.332
		c0.466,0,0.816-0.099,1.053-0.295c0.235-0.197,0.354-0.428,0.354-0.691c0-0.169-0.05-0.313-0.148-0.432
		c-0.1-0.119-0.273-0.223-0.521-0.311c-0.169-0.059-0.555-0.163-1.157-0.313c-0.774-0.192-1.318-0.428-1.631-0.708
		c-0.439-0.394-0.659-0.874-0.659-1.44c0-0.364,0.104-0.705,0.31-1.023c0.207-0.316,0.505-0.559,0.895-0.725
		c0.389-0.166,0.858-0.249,1.408-0.249c0.898,0,1.574,0.197,2.029,0.591c0.453,0.394,0.692,0.92,0.715,1.577l-1.445,0.063
		c-0.062-0.368-0.194-0.633-0.398-0.793c-0.203-0.162-0.508-0.242-0.915-0.242c-0.42,0-0.749,0.086-0.986,0.259
		c-0.153,0.11-0.229,0.259-0.229,0.444c0,0.169,0.071,0.314,0.215,0.435c0.183,0.153,0.625,0.313,1.328,0.479
		s1.223,0.338,1.561,0.515c0.336,0.178,0.6,0.42,0.791,0.729c0.189,0.307,0.285,0.688,0.285,1.14c0,0.41-0.114,0.794-0.342,1.152
		s-0.55,0.624-0.967,0.798c-0.417,0.175-0.936,0.262-1.558,0.262c-0.905,0-1.6-0.209-2.085-0.627
		C23.612,27.59,23.323,26.98,23.229,26.18z"/>
	<path style="fill:#2C6882;" d="M33.258,26.858l1.367,0.229c-0.176,0.501-0.453,0.883-0.832,1.146
		c-0.38,0.262-0.854,0.393-1.424,0.393c-0.901,0-1.569-0.295-2.002-0.884c-0.342-0.472-0.513-1.067-0.513-1.787
		c0-0.859,0.225-1.532,0.674-2.019c0.449-0.487,1.018-0.73,1.704-0.73c0.771,0,1.38,0.255,1.826,0.764
		c0.446,0.51,0.659,1.29,0.64,2.342h-3.438c0.01,0.407,0.12,0.724,0.332,0.949c0.212,0.227,0.476,0.34,0.791,0.34
		c0.215,0,0.396-0.059,0.542-0.176S33.183,27.119,33.258,26.858z M33.336,25.472c-0.01-0.397-0.112-0.699-0.308-0.906
		c-0.195-0.206-0.433-0.31-0.713-0.31c-0.3,0-0.547,0.109-0.742,0.327s-0.291,0.515-0.288,0.889H33.336z"/>
	<path style="fill:#2C6882;" d="M38.111,27.029l1.377-0.21c0.059,0.267,0.178,0.47,0.356,0.607c0.179,0.139,0.43,0.208,0.752,0.208
		c0.354,0,0.622-0.065,0.801-0.195c0.12-0.091,0.181-0.213,0.181-0.366c0-0.104-0.032-0.19-0.098-0.259
		c-0.068-0.065-0.222-0.125-0.459-0.181c-1.106-0.244-1.809-0.467-2.104-0.669c-0.41-0.28-0.615-0.669-0.615-1.167
		c0-0.449,0.178-0.827,0.532-1.133s0.905-0.459,1.65-0.459c0.71,0,1.237,0.115,1.582,0.347s0.583,0.573,0.713,1.025l-1.294,0.239
		c-0.056-0.202-0.16-0.356-0.315-0.464c-0.154-0.107-0.375-0.161-0.661-0.161c-0.361,0-0.62,0.051-0.776,0.151
		c-0.104,0.071-0.156,0.164-0.156,0.278c0,0.098,0.046,0.181,0.137,0.249c0.124,0.091,0.551,0.22,1.281,0.386
		c0.731,0.166,1.241,0.369,1.531,0.61c0.286,0.244,0.43,0.584,0.43,1.021c0,0.476-0.198,0.884-0.596,1.226s-0.984,0.513-1.763,0.513
		c-0.706,0-1.266-0.144-1.677-0.43C38.508,27.91,38.238,27.52,38.111,27.029z"/>
	<path style="fill:#2C6882;" d="M47.569,28.509v-0.776c-0.188,0.276-0.438,0.495-0.744,0.654c-0.309,0.159-0.633,0.239-0.975,0.239
		c-0.349,0-0.661-0.076-0.938-0.229s-0.477-0.368-0.601-0.645s-0.186-0.659-0.186-1.147v-3.281h1.372v2.383
		c0,0.729,0.025,1.176,0.076,1.34c0.05,0.165,0.142,0.295,0.275,0.391c0.134,0.097,0.303,0.145,0.508,0.145
		c0.234,0,0.444-0.064,0.63-0.193c0.186-0.128,0.313-0.287,0.381-0.479c0.068-0.189,0.103-0.656,0.103-1.398v-2.188h1.372v5.186
		H47.569z"/>
	<path style="fill:#2C6882;" d="M50.138,28.85l1.567,0.19c0.026,0.183,0.086,0.308,0.181,0.376c0.13,0.098,0.335,0.146,0.615,0.146
		c0.358,0,0.627-0.054,0.806-0.161c0.12-0.071,0.212-0.188,0.273-0.347c0.042-0.114,0.063-0.324,0.063-0.63v-0.757
		c-0.41,0.56-0.928,0.84-1.553,0.84c-0.696,0-1.248-0.295-1.655-0.884c-0.319-0.466-0.479-1.045-0.479-1.738
		c0-0.869,0.209-1.533,0.627-1.992c0.419-0.459,0.938-0.688,1.561-0.688c0.642,0,1.17,0.281,1.587,0.845v-0.728h1.284v4.653
		c0,0.612-0.051,1.069-0.151,1.372s-0.242,0.54-0.425,0.713s-0.426,0.308-0.73,0.405c-0.304,0.098-0.688,0.146-1.154,0.146
		c-0.879,0-1.502-0.15-1.87-0.452c-0.368-0.301-0.552-0.683-0.552-1.145C50.133,28.971,50.135,28.916,50.138,28.85z M51.363,25.808
		c0,0.55,0.106,0.953,0.32,1.208c0.213,0.256,0.476,0.384,0.788,0.384c0.335,0,0.618-0.131,0.85-0.394
		c0.231-0.262,0.347-0.649,0.347-1.164c0-0.537-0.11-0.936-0.332-1.196s-0.501-0.391-0.84-0.391c-0.329,0-0.6,0.128-0.813,0.384
		C51.47,24.894,51.363,25.284,51.363,25.808z"/>
	<path style="fill:#2C6882;" d="M56.373,22.62v-1.27h1.372v1.27H56.373z M56.373,28.509v-5.186h1.372v5.186H56.373z"/>
	<path style="fill:#2C6882;" d="M62.154,26.858l1.367,0.229c-0.176,0.501-0.453,0.883-0.832,1.146
		c-0.38,0.262-0.854,0.393-1.424,0.393c-0.901,0-1.569-0.295-2.002-0.884c-0.342-0.472-0.513-1.067-0.513-1.787
		c0-0.859,0.225-1.532,0.674-2.019c0.449-0.487,1.018-0.73,1.704-0.73c0.771,0,1.38,0.255,1.826,0.764
		c0.446,0.51,0.659,1.29,0.64,2.342h-3.438c0.01,0.407,0.12,0.724,0.332,0.949c0.212,0.227,0.476,0.34,0.791,0.34
		c0.215,0,0.396-0.059,0.542-0.176S62.079,27.119,62.154,26.858z M62.232,25.472c-0.01-0.397-0.112-0.699-0.308-0.906
		c-0.195-0.206-0.433-0.31-0.713-0.31c-0.3,0-0.547,0.109-0.742,0.327s-0.291,0.515-0.288,0.889H62.232z"/>
	<path style="fill:#2C6882;" d="M66.026,28.509h-1.372v-5.186h1.274v0.737c0.218-0.349,0.414-0.578,0.588-0.688
		c0.175-0.11,0.372-0.166,0.594-0.166c0.313,0,0.613,0.086,0.903,0.259l-0.425,1.196c-0.231-0.149-0.446-0.225-0.645-0.225
		c-0.192,0-0.354,0.053-0.488,0.158c-0.134,0.106-0.238,0.298-0.314,0.574c-0.077,0.276-0.115,0.856-0.115,1.738V28.509z"/>
	<path style="fill:#2C6882;" d="M71.607,26.858l1.367,0.229c-0.176,0.501-0.453,0.883-0.832,1.146
		c-0.38,0.262-0.854,0.393-1.424,0.393c-0.901,0-1.569-0.295-2.002-0.884c-0.342-0.472-0.513-1.067-0.513-1.787
		c0-0.859,0.225-1.532,0.674-2.019c0.449-0.487,1.018-0.73,1.704-0.73c0.771,0,1.38,0.255,1.826,0.764
		c0.446,0.51,0.659,1.29,0.64,2.342H69.61c0.01,0.407,0.12,0.724,0.332,0.949c0.212,0.227,0.476,0.34,0.791,0.34
		c0.215,0,0.396-0.059,0.542-0.176S71.532,27.119,71.607,26.858z M71.686,25.472c-0.01-0.397-0.112-0.699-0.308-0.906
		c-0.195-0.206-0.433-0.31-0.713-0.31c-0.3,0-0.547,0.109-0.742,0.327s-0.291,0.515-0.288,0.889H71.686z"/>
	<path style="fill:#2C6882;" d="M76.461,27.029l1.377-0.21c0.059,0.267,0.178,0.47,0.356,0.607c0.179,0.139,0.43,0.208,0.752,0.208
		c0.354,0,0.622-0.065,0.801-0.195c0.12-0.091,0.181-0.213,0.181-0.366c0-0.104-0.032-0.19-0.098-0.259
		c-0.068-0.065-0.222-0.125-0.459-0.181c-1.106-0.244-1.809-0.467-2.104-0.669c-0.41-0.28-0.615-0.669-0.615-1.167
		c0-0.449,0.178-0.827,0.532-1.133s0.905-0.459,1.65-0.459c0.71,0,1.237,0.115,1.582,0.347s0.583,0.573,0.713,1.025l-1.294,0.239
		c-0.056-0.202-0.16-0.356-0.315-0.464c-0.154-0.107-0.375-0.161-0.661-0.161c-0.361,0-0.62,0.051-0.776,0.151
		c-0.104,0.071-0.156,0.164-0.156,0.278c0,0.098,0.046,0.181,0.137,0.249c0.124,0.091,0.551,0.22,1.281,0.386
		c0.731,0.166,1.241,0.369,1.531,0.61c0.286,0.244,0.43,0.584,0.43,1.021c0,0.476-0.198,0.884-0.596,1.226s-0.984,0.513-1.763,0.513
		c-0.706,0-1.266-0.144-1.677-0.43C76.857,27.91,76.588,27.52,76.461,27.029z"/>
	<path style="fill:#2C6882;" d="M85.509,26.858l1.367,0.229c-0.176,0.501-0.453,0.883-0.832,1.146
		c-0.38,0.262-0.854,0.393-1.424,0.393c-0.901,0-1.569-0.295-2.002-0.884c-0.342-0.472-0.513-1.067-0.513-1.787
		c0-0.859,0.225-1.532,0.674-2.019c0.449-0.487,1.018-0.73,1.704-0.73c0.771,0,1.38,0.255,1.826,0.764
		c0.446,0.51,0.659,1.29,0.64,2.342h-3.438c0.01,0.407,0.12,0.724,0.332,0.949c0.212,0.227,0.476,0.34,0.791,0.34
		c0.215,0,0.396-0.059,0.542-0.176S85.434,27.119,85.509,26.858z M85.587,25.472c-0.01-0.397-0.112-0.699-0.308-0.906
		c-0.195-0.206-0.433-0.31-0.713-0.31c-0.3,0-0.547,0.109-0.742,0.327s-0.291,0.515-0.288,0.889H85.587z"/>
	<path style="fill:#2C6882;" d="M87.941,28.85l1.567,0.19c0.026,0.183,0.086,0.308,0.181,0.376c0.13,0.098,0.335,0.146,0.615,0.146
		c0.358,0,0.627-0.054,0.806-0.161c0.12-0.071,0.212-0.188,0.273-0.347c0.042-0.114,0.063-0.324,0.063-0.63v-0.757
		c-0.41,0.56-0.928,0.84-1.553,0.84c-0.696,0-1.248-0.295-1.655-0.884c-0.319-0.466-0.479-1.045-0.479-1.738
		c0-0.869,0.209-1.533,0.627-1.992c0.419-0.459,0.938-0.688,1.561-0.688c0.642,0,1.17,0.281,1.587,0.845v-0.728h1.284v4.653
		c0,0.612-0.051,1.069-0.151,1.372s-0.242,0.54-0.425,0.713s-0.426,0.308-0.73,0.405c-0.304,0.098-0.688,0.146-1.154,0.146
		c-0.879,0-1.502-0.15-1.87-0.452c-0.368-0.301-0.552-0.683-0.552-1.145C87.936,28.971,87.938,28.916,87.941,28.85z M89.166,25.808
		c0,0.55,0.106,0.953,0.32,1.208c0.213,0.256,0.476,0.384,0.788,0.384c0.335,0,0.618-0.131,0.85-0.394
		c0.231-0.262,0.347-0.649,0.347-1.164c0-0.537-0.11-0.936-0.332-1.196s-0.501-0.391-0.84-0.391c-0.329,0-0.6,0.128-0.813,0.384
		C89.273,24.894,89.166,25.284,89.166,25.808z"/>
	<path style="fill:#2C6882;" d="M97.589,28.509v-0.776c-0.188,0.276-0.438,0.495-0.744,0.654c-0.309,0.159-0.633,0.239-0.975,0.239
		c-0.349,0-0.661-0.076-0.938-0.229s-0.477-0.368-0.601-0.645s-0.186-0.659-0.186-1.147v-3.281h1.372v2.383
		c0,0.729,0.025,1.176,0.076,1.34c0.05,0.165,0.142,0.295,0.275,0.391c0.134,0.097,0.303,0.145,0.508,0.145
		c0.234,0,0.444-0.064,0.63-0.193c0.186-0.128,0.313-0.287,0.381-0.479c0.068-0.189,0.103-0.656,0.103-1.398v-2.188h1.372v5.186
		H97.589z"/>
	<path style="fill:#2C6882;" d="M100.284,22.62v-1.27h1.372v1.27H100.284z M100.284,28.509v-5.186h1.372v5.186H100.284z"/>
	<path style="fill:#2C6882;" d="M104.376,28.509h-1.372v-5.186h1.274v0.737c0.218-0.349,0.414-0.578,0.588-0.688
		c0.175-0.11,0.372-0.166,0.594-0.166c0.313,0,0.613,0.086,0.903,0.259l-0.425,1.196c-0.231-0.149-0.446-0.225-0.645-0.225
		c-0.192,0-0.354,0.053-0.488,0.158c-0.134,0.106-0.238,0.298-0.314,0.574c-0.077,0.276-0.115,0.856-0.115,1.738V28.509z"/>
	<path style="fill:#2C6882;" d="M109.732,28.509V21.35h1.372v7.158H109.732z"/>
	<path style="fill:#2C6882;" d="M113.536,24.905l-1.245-0.225c0.14-0.501,0.381-0.872,0.723-1.113s0.85-0.361,1.523-0.361
		c0.612,0,1.067,0.072,1.367,0.217c0.3,0.146,0.51,0.329,0.633,0.553c0.121,0.223,0.183,0.632,0.183,1.228l-0.015,1.602
		c0,0.456,0.021,0.792,0.066,1.009c0.043,0.216,0.126,0.448,0.246,0.695h-1.357c-0.036-0.091-0.08-0.227-0.132-0.405
		c-0.022-0.081-0.039-0.135-0.049-0.161c-0.234,0.228-0.485,0.398-0.752,0.513s-0.552,0.171-0.854,0.171
		c-0.534,0-0.955-0.145-1.262-0.435c-0.309-0.29-0.462-0.656-0.462-1.099c0-0.293,0.07-0.555,0.21-0.783
		c0.14-0.23,0.336-0.406,0.588-0.527c0.253-0.123,0.616-0.229,1.092-0.32c0.642-0.12,1.086-0.232,1.333-0.337v-0.137
		c0-0.264-0.065-0.452-0.195-0.563c-0.13-0.113-0.376-0.169-0.737-0.169c-0.244,0-0.435,0.048-0.571,0.144
		C113.732,24.496,113.621,24.664,113.536,24.905z M115.372,26.018c-0.176,0.059-0.454,0.129-0.835,0.21s-0.63,0.161-0.747,0.239
		c-0.179,0.127-0.269,0.288-0.269,0.483c0,0.192,0.071,0.358,0.215,0.498s0.325,0.21,0.547,0.21c0.247,0,0.483-0.081,0.708-0.244
		c0.166-0.124,0.275-0.275,0.327-0.454c0.036-0.117,0.054-0.34,0.054-0.669V26.018z"/>
	<path style="fill:#2C6882;" d="M120.367,27.029l1.377-0.21c0.059,0.267,0.178,0.47,0.356,0.607c0.179,0.139,0.43,0.208,0.752,0.208
		c0.354,0,0.622-0.065,0.801-0.195c0.12-0.091,0.181-0.213,0.181-0.366c0-0.104-0.032-0.19-0.098-0.259
		c-0.068-0.065-0.222-0.125-0.459-0.181c-1.106-0.244-1.809-0.467-2.104-0.669c-0.41-0.28-0.615-0.669-0.615-1.167
		c0-0.449,0.178-0.827,0.532-1.133s0.905-0.459,1.65-0.459c0.71,0,1.237,0.115,1.582,0.347s0.583,0.573,0.713,1.025l-1.294,0.239
		c-0.056-0.202-0.16-0.356-0.315-0.464c-0.154-0.107-0.375-0.161-0.661-0.161c-0.361,0-0.62,0.051-0.776,0.151
		c-0.104,0.071-0.156,0.164-0.156,0.278c0,0.098,0.046,0.181,0.137,0.249c0.124,0.091,0.551,0.22,1.281,0.386
		c0.731,0.166,1.241,0.369,1.531,0.61c0.286,0.244,0.43,0.584,0.43,1.021c0,0.476-0.198,0.884-0.596,1.226s-0.984,0.513-1.763,0.513
		c-0.706,0-1.266-0.144-1.677-0.43C120.764,27.91,120.494,27.52,120.367,27.029z"/>
	<path style="fill:#2C6882;" d="M126.285,28.85l1.567,0.19c0.026,0.183,0.086,0.308,0.181,0.376c0.13,0.098,0.335,0.146,0.615,0.146
		c0.358,0,0.627-0.054,0.806-0.161c0.12-0.071,0.212-0.188,0.273-0.347c0.042-0.114,0.063-0.324,0.063-0.63v-0.757
		c-0.41,0.56-0.928,0.84-1.553,0.84c-0.696,0-1.248-0.295-1.655-0.884c-0.319-0.466-0.479-1.045-0.479-1.738
		c0-0.869,0.209-1.533,0.627-1.992c0.419-0.459,0.938-0.688,1.561-0.688c0.642,0,1.17,0.281,1.587,0.845v-0.728h1.284v4.653
		c0,0.612-0.051,1.069-0.151,1.372s-0.242,0.54-0.425,0.713s-0.426,0.308-0.73,0.405c-0.304,0.098-0.688,0.146-1.154,0.146
		c-0.879,0-1.502-0.15-1.87-0.452c-0.368-0.301-0.552-0.683-0.552-1.145C126.28,28.971,126.282,28.916,126.285,28.85z
		 M127.511,25.808c0,0.55,0.106,0.953,0.32,1.208c0.213,0.256,0.476,0.384,0.788,0.384c0.335,0,0.618-0.131,0.85-0.394
		c0.231-0.262,0.347-0.649,0.347-1.164c0-0.537-0.11-0.936-0.332-1.196s-0.501-0.391-0.84-0.391c-0.329,0-0.6,0.128-0.813,0.384
		C127.617,24.894,127.511,25.284,127.511,25.808z"/>
	<path style="fill:#2C6882;" d="M134.899,23.323v1.094h-0.938v2.09c0,0.423,0.009,0.67,0.027,0.74
		c0.018,0.069,0.059,0.127,0.121,0.173c0.064,0.046,0.142,0.068,0.232,0.068c0.127,0,0.311-0.044,0.552-0.132l0.117,1.064
		c-0.319,0.137-0.681,0.205-1.084,0.205c-0.247,0-0.471-0.041-0.669-0.125c-0.198-0.082-0.344-0.189-0.438-0.322
		c-0.092-0.131-0.156-0.31-0.192-0.534c-0.029-0.159-0.044-0.481-0.044-0.967v-2.261h-0.63v-1.094h0.63v-1.03l1.377-0.801v1.831
		H134.899z"/>
	<path style="fill:#2C6882;" d="M138.854,26.858l1.367,0.229c-0.176,0.501-0.453,0.883-0.832,1.146
		c-0.38,0.262-0.854,0.393-1.424,0.393c-0.901,0-1.569-0.295-2.002-0.884c-0.342-0.472-0.513-1.067-0.513-1.787
		c0-0.859,0.225-1.532,0.674-2.019c0.449-0.487,1.018-0.73,1.704-0.73c0.771,0,1.38,0.255,1.826,0.764
		c0.446,0.51,0.659,1.29,0.64,2.342h-3.438c0.01,0.407,0.12,0.724,0.332,0.949c0.212,0.227,0.476,0.34,0.791,0.34
		c0.215,0,0.396-0.059,0.542-0.176S138.778,27.119,138.854,26.858z M138.932,25.472c-0.01-0.397-0.112-0.699-0.308-0.906
		c-0.195-0.206-0.433-0.31-0.713-0.31c-0.3,0-0.547,0.109-0.742,0.327s-0.291,0.515-0.288,0.889H138.932z"/>
	<path style="fill:#2C6882;" d="M141.412,28.509v-1.372h1.372v1.372H141.412z"/>
	<path style="fill:#2C6882;" d="M22.987,33.323h0.762v-0.391c0-0.437,0.047-0.762,0.139-0.977c0.094-0.215,0.264-0.39,0.514-0.525
		c0.248-0.135,0.563-0.202,0.944-0.202c0.391,0,0.773,0.059,1.147,0.176l-0.186,0.957c-0.218-0.052-0.428-0.078-0.63-0.078
		c-0.198,0-0.341,0.046-0.427,0.14c-0.087,0.092-0.13,0.271-0.13,0.534v0.366h1.025v1.079h-1.025v4.106h-1.372v-4.106h-0.762V33.323
		z"/>
	<path style="fill:#2C6882;" d="M26.601,35.843c0-0.456,0.112-0.896,0.337-1.323s0.543-0.752,0.954-0.977
		c0.412-0.225,0.872-0.337,1.38-0.337c0.784,0,1.428,0.255,1.929,0.764c0.501,0.51,0.752,1.153,0.752,1.932
		c0,0.784-0.253,1.435-0.76,1.951c-0.506,0.516-1.143,0.773-1.911,0.773c-0.476,0-0.929-0.107-1.36-0.322
		c-0.431-0.215-0.759-0.529-0.983-0.945C26.713,36.944,26.601,36.438,26.601,35.843z M28.007,35.916
		c0,0.515,0.122,0.908,0.366,1.182s0.545,0.41,0.903,0.41s0.658-0.137,0.9-0.41c0.243-0.273,0.364-0.671,0.364-1.191
		c0-0.508-0.121-0.898-0.364-1.172c-0.242-0.273-0.542-0.41-0.9-0.41s-0.659,0.137-0.903,0.41S28.007,35.401,28.007,35.916z"/>
	<path style="fill:#2C6882;" d="M34.34,38.509h-1.372v-5.186h1.274v0.737c0.218-0.349,0.414-0.578,0.588-0.688
		c0.175-0.11,0.372-0.166,0.594-0.166c0.313,0,0.613,0.086,0.903,0.259l-0.425,1.196c-0.231-0.149-0.446-0.225-0.645-0.225
		c-0.192,0-0.354,0.053-0.488,0.158c-0.134,0.106-0.238,0.298-0.314,0.574c-0.077,0.276-0.115,0.856-0.115,1.738V38.509z"/>
	<path style="fill:#2C6882;" d="M36.816,33.323h1.265v0.708c0.452-0.55,0.991-0.825,1.616-0.825c0.332,0,0.62,0.068,0.864,0.205
		s0.444,0.344,0.601,0.62c0.228-0.276,0.474-0.483,0.737-0.62s0.545-0.205,0.845-0.205c0.381,0,0.703,0.077,0.967,0.232
		c0.264,0.154,0.461,0.381,0.591,0.681c0.095,0.222,0.142,0.579,0.142,1.074v3.315H43.07v-2.964c0-0.515-0.047-0.847-0.142-0.996
		c-0.127-0.195-0.322-0.293-0.586-0.293c-0.192,0-0.373,0.059-0.542,0.176s-0.291,0.289-0.366,0.515
		c-0.075,0.227-0.112,0.584-0.112,1.072v2.49H39.95v-2.842c0-0.505-0.024-0.83-0.073-0.977s-0.124-0.256-0.228-0.327
		c-0.102-0.071-0.241-0.107-0.417-0.107c-0.212,0-0.402,0.057-0.571,0.171s-0.291,0.278-0.363,0.493
		c-0.074,0.215-0.11,0.571-0.11,1.069v2.52h-1.372V33.323z"/>
	<path style="fill:#2C6882;" d="M46.835,34.905l-1.245-0.225c0.14-0.501,0.381-0.872,0.723-1.113s0.85-0.361,1.523-0.361
		c0.612,0,1.067,0.072,1.367,0.217c0.3,0.146,0.51,0.329,0.633,0.553c0.121,0.223,0.183,0.632,0.183,1.228l-0.015,1.602
		c0,0.456,0.021,0.792,0.066,1.009c0.043,0.216,0.126,0.448,0.246,0.695h-1.357c-0.036-0.091-0.08-0.227-0.132-0.405
		c-0.022-0.081-0.039-0.135-0.049-0.161c-0.234,0.228-0.485,0.398-0.752,0.513s-0.552,0.171-0.854,0.171
		c-0.534,0-0.955-0.145-1.262-0.435c-0.309-0.29-0.462-0.656-0.462-1.099c0-0.293,0.07-0.555,0.21-0.783
		c0.14-0.23,0.336-0.406,0.588-0.527c0.253-0.123,0.616-0.229,1.092-0.32c0.642-0.12,1.086-0.232,1.333-0.337v-0.137
		c0-0.264-0.065-0.452-0.195-0.563c-0.13-0.113-0.376-0.169-0.737-0.169c-0.244,0-0.435,0.048-0.571,0.144
		C47.03,34.496,46.92,34.664,46.835,34.905z M48.671,36.018c-0.176,0.059-0.454,0.129-0.835,0.21s-0.63,0.161-0.747,0.239
		c-0.179,0.127-0.269,0.288-0.269,0.483c0,0.192,0.071,0.358,0.215,0.498s0.325,0.21,0.547,0.21c0.247,0,0.483-0.081,0.708-0.244
		c0.166-0.124,0.275-0.275,0.327-0.454c0.036-0.117,0.054-0.34,0.054-0.669V36.018z"/>
	<path style="fill:#2C6882;" d="M55.175,34.905l-1.245-0.225c0.14-0.501,0.381-0.872,0.723-1.113s0.85-0.361,1.523-0.361
		c0.612,0,1.067,0.072,1.367,0.217c0.3,0.146,0.51,0.329,0.633,0.553c0.121,0.223,0.183,0.632,0.183,1.228l-0.015,1.602
		c0,0.456,0.021,0.792,0.066,1.009c0.043,0.216,0.126,0.448,0.246,0.695h-1.357c-0.036-0.091-0.08-0.227-0.132-0.405
		c-0.022-0.081-0.039-0.135-0.049-0.161c-0.234,0.228-0.485,0.398-0.752,0.513s-0.552,0.171-0.854,0.171
		c-0.534,0-0.955-0.145-1.262-0.435c-0.309-0.29-0.462-0.656-0.462-1.099c0-0.293,0.07-0.555,0.21-0.783
		c0.14-0.23,0.336-0.406,0.588-0.527c0.253-0.123,0.616-0.229,1.092-0.32c0.642-0.12,1.086-0.232,1.333-0.337v-0.137
		c0-0.264-0.065-0.452-0.195-0.563c-0.13-0.113-0.376-0.169-0.737-0.169c-0.244,0-0.435,0.048-0.571,0.144
		C55.37,34.496,55.26,34.664,55.175,34.905z M57.011,36.018c-0.176,0.059-0.454,0.129-0.835,0.21s-0.63,0.161-0.747,0.239
		c-0.179,0.127-0.269,0.288-0.269,0.483c0,0.192,0.071,0.358,0.215,0.498s0.325,0.21,0.547,0.21c0.247,0,0.483-0.081,0.708-0.244
		c0.166-0.124,0.275-0.275,0.327-0.454c0.036-0.117,0.054-0.34,0.054-0.669V36.018z"/>
	<path style="fill:#2C6882;" d="M59.711,38.509V31.35h1.372v7.158H59.711z"/>
	<path style="fill:#2C6882;" d="M66.581,38.509h-1.372v-5.186h1.274v0.737c0.218-0.349,0.414-0.578,0.588-0.688
		c0.175-0.11,0.372-0.166,0.594-0.166c0.313,0,0.613,0.086,0.903,0.259l-0.425,1.196c-0.231-0.149-0.446-0.225-0.645-0.225
		c-0.192,0-0.354,0.053-0.488,0.158c-0.134,0.106-0.238,0.298-0.314,0.574c-0.077,0.276-0.115,0.856-0.115,1.738V38.509z"/>
	<path style="fill:#2C6882;" d="M72.162,36.858l1.367,0.229c-0.176,0.501-0.453,0.883-0.832,1.146
		c-0.38,0.262-0.854,0.393-1.424,0.393c-0.901,0-1.569-0.295-2.002-0.884c-0.342-0.472-0.513-1.067-0.513-1.787
		c0-0.859,0.225-1.532,0.674-2.019c0.449-0.487,1.018-0.73,1.704-0.73c0.771,0,1.38,0.255,1.826,0.764
		c0.446,0.51,0.659,1.29,0.64,2.342h-3.438c0.01,0.407,0.12,0.724,0.332,0.949c0.212,0.227,0.476,0.34,0.791,0.34
		c0.215,0,0.396-0.059,0.542-0.176S72.087,37.119,72.162,36.858z M72.24,35.472c-0.01-0.397-0.112-0.699-0.308-0.906
		c-0.195-0.206-0.433-0.31-0.713-0.31c-0.3,0-0.547,0.109-0.742,0.327s-0.291,0.515-0.288,0.889H72.24z"/>
	<path style="fill:#2C6882;" d="M75.746,34.905l-1.245-0.225c0.14-0.501,0.381-0.872,0.723-1.113s0.85-0.361,1.523-0.361
		c0.612,0,1.067,0.072,1.367,0.217c0.3,0.146,0.51,0.329,0.633,0.553c0.121,0.223,0.183,0.632,0.183,1.228l-0.015,1.602
		c0,0.456,0.021,0.792,0.066,1.009c0.043,0.216,0.126,0.448,0.246,0.695H77.87c-0.036-0.091-0.08-0.227-0.132-0.405
		c-0.022-0.081-0.039-0.135-0.049-0.161c-0.234,0.228-0.485,0.398-0.752,0.513s-0.552,0.171-0.854,0.171
		c-0.534,0-0.955-0.145-1.262-0.435c-0.309-0.29-0.462-0.656-0.462-1.099c0-0.293,0.07-0.555,0.21-0.783
		c0.14-0.23,0.336-0.406,0.588-0.527c0.253-0.123,0.616-0.229,1.092-0.32c0.642-0.12,1.086-0.232,1.333-0.337v-0.137
		c0-0.264-0.065-0.452-0.195-0.563c-0.13-0.113-0.376-0.169-0.737-0.169c-0.244,0-0.435,0.048-0.571,0.144
		C75.941,34.496,75.831,34.664,75.746,34.905z M77.582,36.018c-0.176,0.059-0.454,0.129-0.835,0.21S76.117,36.39,76,36.468
		c-0.179,0.127-0.269,0.288-0.269,0.483c0,0.192,0.071,0.358,0.215,0.498s0.325,0.21,0.547,0.21c0.247,0,0.483-0.081,0.708-0.244
		c0.166-0.124,0.275-0.275,0.327-0.454c0.036-0.117,0.054-0.34,0.054-0.669V36.018z"/>
	<path style="fill:#2C6882;" d="M80.282,38.509V31.35h1.372v7.158H80.282z"/>
	<path style="fill:#2C6882;" d="M83.061,32.62v-1.27h1.372v1.27H83.061z M83.061,38.509v-5.186h1.372v5.186H83.061z"/>
	<path style="fill:#2C6882;" d="M85.287,38.509v-1.069l1.943-2.231c0.319-0.364,0.555-0.623,0.708-0.776
		c-0.159,0.01-0.369,0.017-0.63,0.02l-1.831,0.01v-1.138h4.287v0.972l-1.982,2.285l-0.698,0.757
		c0.381-0.022,0.617-0.034,0.708-0.034h2.124v1.206H85.287z"/>
	<path style="fill:#2C6882;" d="M91.864,34.905l-1.245-0.225c0.14-0.501,0.381-0.872,0.723-1.113s0.85-0.361,1.523-0.361
		c0.612,0,1.067,0.072,1.367,0.217c0.3,0.146,0.51,0.329,0.633,0.553c0.121,0.223,0.183,0.632,0.183,1.228l-0.015,1.602
		c0,0.456,0.021,0.792,0.066,1.009c0.043,0.216,0.126,0.448,0.246,0.695h-1.357c-0.036-0.091-0.08-0.227-0.132-0.405
		c-0.022-0.081-0.039-0.135-0.049-0.161c-0.234,0.228-0.485,0.398-0.752,0.513s-0.552,0.171-0.854,0.171
		c-0.534,0-0.955-0.145-1.262-0.435c-0.309-0.29-0.462-0.656-0.462-1.099c0-0.293,0.07-0.555,0.21-0.783
		c0.14-0.23,0.336-0.406,0.588-0.527c0.253-0.123,0.616-0.229,1.092-0.32c0.642-0.12,1.086-0.232,1.333-0.337v-0.137
		c0-0.264-0.065-0.452-0.195-0.563c-0.13-0.113-0.376-0.169-0.737-0.169c-0.244,0-0.435,0.048-0.571,0.144
		C92.06,34.496,91.949,34.664,91.864,34.905z M93.7,36.018c-0.176,0.059-0.454,0.129-0.835,0.21s-0.63,0.161-0.747,0.239
		c-0.179,0.127-0.269,0.288-0.269,0.483c0,0.192,0.071,0.358,0.215,0.498s0.325,0.21,0.547,0.21c0.247,0,0.483-0.081,0.708-0.244
		c0.166-0.124,0.275-0.275,0.327-0.454c0.036-0.117,0.054-0.34,0.054-0.669V36.018z"/>
	<path style="fill:#2C6882;" d="M97.714,38.509h-1.372v-5.186h1.274v0.737c0.218-0.349,0.414-0.578,0.588-0.688
		c0.175-0.11,0.372-0.166,0.594-0.166c0.313,0,0.613,0.086,0.903,0.259l-0.425,1.196c-0.231-0.149-0.446-0.225-0.645-0.225
		c-0.192,0-0.354,0.053-0.488,0.158c-0.134,0.106-0.238,0.298-0.314,0.574c-0.077,0.276-0.115,0.856-0.115,1.738V38.509z"/>
	<path style="fill:#2C6882;" d="M106.483,38.509v-0.776c-0.188,0.276-0.438,0.495-0.744,0.654c-0.309,0.159-0.633,0.239-0.975,0.239
		c-0.349,0-0.661-0.076-0.938-0.229s-0.477-0.368-0.601-0.645s-0.186-0.659-0.186-1.147v-3.281h1.372v2.383
		c0,0.729,0.025,1.176,0.076,1.34c0.05,0.165,0.142,0.295,0.275,0.391c0.134,0.097,0.303,0.145,0.508,0.145
		c0.234,0,0.444-0.064,0.63-0.193c0.186-0.128,0.313-0.287,0.381-0.479c0.068-0.189,0.103-0.656,0.103-1.398v-2.188h1.372v5.186
		H106.483z"/>
	<path style="fill:#2C6882;" d="M113.896,38.509h-1.372v-2.646c0-0.56-0.029-0.922-0.088-1.086
		c-0.059-0.165-0.154-0.293-0.285-0.384c-0.133-0.091-0.291-0.137-0.477-0.137c-0.237,0-0.451,0.065-0.64,0.195
		s-0.318,0.303-0.388,0.518c-0.07,0.215-0.105,0.612-0.105,1.191v2.349h-1.372v-5.186h1.274v0.762
		c0.452-0.586,1.022-0.879,1.709-0.879c0.303,0,0.579,0.055,0.83,0.164c0.251,0.108,0.44,0.248,0.568,0.417
		c0.129,0.169,0.219,0.361,0.27,0.576c0.05,0.215,0.075,0.522,0.075,0.923V38.509z"/>
	<path style="fill:#2C6882;" d="M117.963,33.323h1.265v0.708c0.452-0.55,0.991-0.825,1.616-0.825c0.332,0,0.62,0.068,0.864,0.205
		s0.444,0.344,0.601,0.62c0.228-0.276,0.474-0.483,0.737-0.62s0.545-0.205,0.845-0.205c0.381,0,0.703,0.077,0.967,0.232
		c0.264,0.154,0.461,0.381,0.591,0.681c0.095,0.222,0.142,0.579,0.142,1.074v3.315h-1.372v-2.964c0-0.515-0.047-0.847-0.142-0.996
		c-0.127-0.195-0.322-0.293-0.586-0.293c-0.192,0-0.373,0.059-0.542,0.176s-0.291,0.289-0.366,0.515
		c-0.075,0.227-0.112,0.584-0.112,1.072v2.49h-1.372v-2.842c0-0.505-0.024-0.83-0.073-0.977s-0.124-0.256-0.228-0.327
		c-0.102-0.071-0.241-0.107-0.417-0.107c-0.212,0-0.402,0.057-0.571,0.171s-0.291,0.278-0.363,0.493
		c-0.074,0.215-0.11,0.571-0.11,1.069v2.52h-1.372V33.323z"/>
	<path style="fill:#2C6882;" d="M127.982,34.905l-1.245-0.225c0.14-0.501,0.381-0.872,0.723-1.113s0.85-0.361,1.523-0.361
		c0.612,0,1.067,0.072,1.367,0.217c0.3,0.146,0.51,0.329,0.633,0.553c0.121,0.223,0.183,0.632,0.183,1.228l-0.015,1.602
		c0,0.456,0.021,0.792,0.066,1.009c0.043,0.216,0.126,0.448,0.246,0.695h-1.357c-0.036-0.091-0.08-0.227-0.132-0.405
		c-0.022-0.081-0.039-0.135-0.049-0.161c-0.234,0.228-0.485,0.398-0.752,0.513s-0.552,0.171-0.854,0.171
		c-0.534,0-0.955-0.145-1.262-0.435c-0.309-0.29-0.462-0.656-0.462-1.099c0-0.293,0.07-0.555,0.21-0.783
		c0.14-0.23,0.336-0.406,0.588-0.527c0.253-0.123,0.616-0.229,1.092-0.32c0.642-0.12,1.086-0.232,1.333-0.337v-0.137
		c0-0.264-0.065-0.452-0.195-0.563c-0.13-0.113-0.376-0.169-0.737-0.169c-0.244,0-0.435,0.048-0.571,0.144
		C128.178,34.496,128.067,34.664,127.982,34.905z M129.818,36.018c-0.176,0.059-0.454,0.129-0.835,0.21s-0.63,0.161-0.747,0.239
		c-0.179,0.127-0.269,0.288-0.269,0.483c0,0.192,0.071,0.358,0.215,0.498s0.325,0.21,0.547,0.21c0.247,0,0.483-0.081,0.708-0.244
		c0.166-0.124,0.275-0.275,0.327-0.454c0.036-0.117,0.054-0.34,0.054-0.669V36.018z"/>
	<path style="fill:#2C6882;" d="M132.48,33.323h1.279v0.762c0.166-0.261,0.391-0.472,0.674-0.635s0.598-0.244,0.942-0.244
		c0.603,0,1.113,0.236,1.533,0.708s0.63,1.13,0.63,1.973c0,0.866-0.212,1.539-0.635,2.019c-0.423,0.48-0.936,0.721-1.538,0.721
		c-0.286,0-0.546-0.057-0.779-0.171c-0.232-0.114-0.478-0.31-0.734-0.586v2.612h-1.372V33.323z M133.837,35.828
		c0,0.583,0.115,1.013,0.347,1.292c0.231,0.277,0.513,0.417,0.845,0.417c0.319,0,0.584-0.128,0.796-0.384
		c0.212-0.255,0.317-0.674,0.317-1.257c0-0.544-0.109-0.947-0.327-1.211s-0.488-0.396-0.811-0.396c-0.335,0-0.613,0.129-0.835,0.389
		C133.947,34.936,133.837,35.32,133.837,35.828z"/>
	<path style="fill:#2C6882;" d="M139.652,34.905l-1.245-0.225c0.14-0.501,0.381-0.872,0.723-1.113s0.85-0.361,1.523-0.361
		c0.612,0,1.067,0.072,1.367,0.217c0.3,0.146,0.51,0.329,0.633,0.553c0.121,0.223,0.183,0.632,0.183,1.228l-0.015,1.602
		c0,0.456,0.021,0.792,0.066,1.009c0.043,0.216,0.126,0.448,0.246,0.695h-1.357c-0.036-0.091-0.08-0.227-0.132-0.405
		c-0.022-0.081-0.039-0.135-0.049-0.161c-0.234,0.228-0.485,0.398-0.752,0.513s-0.552,0.171-0.854,0.171
		c-0.534,0-0.955-0.145-1.262-0.435c-0.309-0.29-0.462-0.656-0.462-1.099c0-0.293,0.07-0.555,0.21-0.783
		c0.14-0.23,0.336-0.406,0.588-0.527c0.253-0.123,0.616-0.229,1.092-0.32c0.642-0.12,1.086-0.232,1.333-0.337v-0.137
		c0-0.264-0.065-0.452-0.195-0.563c-0.13-0.113-0.376-0.169-0.737-0.169c-0.244,0-0.435,0.048-0.571,0.144
		C139.848,34.496,139.737,34.664,139.652,34.905z M141.488,36.018c-0.176,0.059-0.454,0.129-0.835,0.21s-0.63,0.161-0.747,0.239
		c-0.179,0.127-0.269,0.288-0.269,0.483c0,0.192,0.071,0.358,0.215,0.498s0.325,0.21,0.547,0.21c0.247,0,0.483-0.081,0.708-0.244
		c0.166-0.124,0.275-0.275,0.327-0.454c0.036-0.117,0.054-0.34,0.054-0.669V36.018z"/>
</g>
</svg>
