<?xml version="1.0" encoding="utf-8"?>
<!-- Generator: Adobe Illustrator 17.0.0, SVG Export Plug-In . SVG Version: 6.00 Build 0)  -->
<!DOCTYPE svg PUBLIC "-//W3C//DTD SVG 1.1//EN" "http://www.w3.org/Graphics/SVG/1.1/DTD/svg11.dtd">
<svg version="1.1" id="Capa_1" xmlns="http://www.w3.org/2000/svg" xmlns:xlink="http://www.w3.org/1999/xlink" x="0px" y="0px"
	 width="77.22px" height="76.891px" viewBox="0 0 77.22 76.891" style="enable-background:new 0 0 77.22 76.891;"
	 xml:space="preserve">
<g>
	<g>
		<g>
			<circle style="fill:#6FC2D8;" cx="38.451" cy="38.446" r="30.345"/>
			<circle style="fill:#393939;" cx="38.451" cy="38.446" r="26.427"/>
			<g>
				<circle style="fill:#FFFFFF;" cx="38.451" cy="38.446" r="24.628"/>
			</g>
			<g>
				<path style="fill:none;stroke:#393939;stroke-width:1.0444;stroke-miterlimit:10;" d="M5.167,45.431
					c-0.473-2.253-0.72-4.591-0.72-6.985c0-11.932,6.147-22.428,15.446-28.494"/>
				<path style="fill:none;stroke:#393939;stroke-width:1.0444;stroke-miterlimit:10;" d="M14.136,62.212
					c-2.996-3.064-5.418-6.693-7.092-10.713"/>
				<path style="fill:none;stroke:#393939;stroke-width:1.0444;stroke-miterlimit:10;" d="M36.407,72.381
					c-7.424-0.439-14.206-3.259-19.595-7.708"/>
				<path style="fill:none;stroke:#393939;stroke-width:1.0444;stroke-miterlimit:10;" d="M71.095,28.945
					c0.877,3.016,1.346,6.204,1.346,9.501c0,17.352-13.001,31.668-29.795,33.738"/>
				<path style="fill:none;stroke:#393939;stroke-width:1.0444;stroke-miterlimit:10;" d="M26.262,6.697
					c3.782-1.452,7.889-2.248,12.184-2.248c12.908,0,24.136,7.194,29.892,17.791"/>
				<path style="fill:none;stroke:#393939;stroke-width:1.0444;stroke-miterlimit:10;" d="M76.2,42.026
					c-0.772,8.252-4.191,15.736-9.396,21.594"/>
				<path style="fill:none;stroke:#393939;stroke-width:1.0444;stroke-miterlimit:10;" d="M58.431,6.21
					c10.023,6.228,16.928,17.002,17.836,29.438"/>
				<path style="fill:none;stroke:#393939;stroke-width:1.0444;stroke-miterlimit:10;" d="M3.14,24.572
					c5.538-14.081,19.258-24.05,35.306-24.05c4.542,0,8.897,0.799,12.937,2.266"/>
				<path style="fill:none;stroke:#393939;stroke-width:1.0444;stroke-miterlimit:10;" d="M3.755,53.796
					c-2.078-4.693-3.232-9.887-3.232-15.35c0-2.604,0.26-5.148,0.761-7.603"/>
				<path style="fill:none;stroke:#393939;stroke-width:1.0444;stroke-miterlimit:10;" d="M18.437,70.667
					c-5.117-3.185-9.42-7.554-12.527-12.725"/>
				<path style="fill:none;stroke:#393939;stroke-width:1.0444;stroke-miterlimit:10;" d="M62.931,67.403
					c-6.606,5.594-15.152,8.966-24.485,8.966c-5.64,0-10.991-1.231-15.802-3.439"/>
				<circle style="fill:#393939;" cx="7.044" cy="51.499" r="1.02"/>
				<circle style="fill:#393939;" cx="3.757" cy="53.796" r="1.02"/>
				<circle style="fill:#393939;" cx="5.23" cy="45.431" r="1.02"/>
				<circle style="fill:#393939;" cx="1.288" cy="30.842" r="1.02"/>
				<circle style="fill:#393939;" cx="3.139" cy="24.572" r="1.02"/>
				<circle style="fill:#393939;" cx="19.893" cy="9.952" r="1.019"/>
				<circle style="fill:#393939;" cx="26.262" cy="6.804" r="1.02"/>
				<circle style="fill:#393939;" cx="51.383" cy="2.948" r="1.02"/>
				<circle style="fill:#393939;" cx="68.337" cy="22.24" r="1.021"/>
				<circle style="fill:#393939;" cx="58.43" cy="6.21" r="1.02"/>
				<circle style="fill:#393939;" cx="71.109" cy="28.945" r="1.02"/>
				<circle style="fill:#393939;" cx="76.2" cy="35.575" r="1.021"/>
				<circle style="fill:#393939;" cx="76.2" cy="42.026" r="1.021"/>
				<circle style="fill:#393939;" cx="14.136" cy="62.212" r="1.02"/>
				<circle style="fill:#393939;" cx="16.812" cy="64.673" r="1.021"/>
				<circle style="fill:#393939;" cx="18.436" cy="70.667" r="1.021"/>
				<circle style="fill:#393939;" cx="5.91" cy="57.942" r="1.02"/>
				<circle style="fill:#393939;" cx="36.408" cy="72.381" r="1.021"/>
				<circle style="fill:#393939;" cx="22.645" cy="72.906" r="1.02"/>
				<circle style="fill:#393939;" cx="42.645" cy="72.184" r="1.021"/>
				<circle style="fill:#393939;" cx="66.805" cy="63.652" r="1.02"/>
				<circle style="fill:#393939;" cx="62.931" cy="67.403" r="1.02"/>
			</g>
		</g>
	</g>
	<g>
		<path style="fill:#2C6882;" d="M38.566,50.498v-5.077H28.241v-4.233l10.945-16.022h4.062v16.006h3.132v4.25h-3.132v5.077H38.566z
			 M38.566,41.171v-8.622l-5.8,8.622H38.566z"/>
	</g>
</g>
</svg>
