<?xml version="1.0" encoding="utf-8"?>
<!-- Generator: Adobe Illustrator 17.0.0, SVG Export Plug-In . SVG Version: 6.00 Build 0)  -->
<!DOCTYPE svg PUBLIC "-//W3C//DTD SVG 1.1//EN" "http://www.w3.org/Graphics/SVG/1.1/DTD/svg11.dtd">
<svg version="1.1" id="Capa_1" xmlns="http://www.w3.org/2000/svg" xmlns:xlink="http://www.w3.org/1999/xlink" x="0px" y="0px"
	 width="447.42px" height="339.009px" viewBox="0 0 447.42 339.009" style="enable-background:new 0 0 447.42 339.009;"
	 xml:space="preserve">
<g>
	<line style="fill:none;stroke:#393939;stroke-width:1.0444;stroke-miterlimit:10;" x1="391.801" y1="0" x2="391.801" y2="13.376"/>
	<circle style="fill:#393939;" cx="391.801" cy="12.776" r="1.02"/>
	<g>
		
			<line style="fill:none;stroke:#393939;stroke-width:1.0444;stroke-miterlimit:10;" x1="1.024" y1="12.756" x2="377.569" y2="12.756"/>
		<circle style="fill:#393939;" cx="377.571" cy="12.776" r="1.02"/>
		<circle style="fill:#393939;" cx="1.025" cy="12.776" r="1.021"/>
	</g>
	<g>
		
			<line style="fill:none;stroke:#393939;stroke-width:1.0444;stroke-miterlimit:10;" x1="1.021" y1="337.968" x2="446.399" y2="337.968"/>
		<circle style="fill:#393939;" cx="1.025" cy="337.988" r="1.021"/>
		<circle style="fill:#393939;" cx="446.4" cy="337.968" r="1.02"/>
	</g>
	<g>
		
			<line style="fill:none;stroke:#393939;stroke-width:1.0444;stroke-miterlimit:10;" x1="1.021" y1="17.788" x2="1.021" y2="332.276"/>
		<circle style="fill:#393939;" cx="1.025" cy="17.798" r="1.021"/>
		<circle style="fill:#393939;" cx="1.021" cy="331.404" r="1.021"/>
	</g>
	<g>
		
			<line style="fill:none;stroke:#393939;stroke-width:1.0444;stroke-miterlimit:10;" x1="446.356" y1="17.788" x2="446.356" y2="334.156"/>
		<circle style="fill:#393939;" cx="446.359" cy="17.798" r="1.02"/>
		<circle style="fill:#393939;" cx="446.359" cy="333.934" r="1.02"/>
	</g>
	<g>
		
			<line style="fill:none;stroke:#393939;stroke-width:1.0444;stroke-miterlimit:10;" x1="405.916" y1="12.756" x2="445.38" y2="12.756"/>
		<circle style="fill:#393939;" cx="405.691" cy="12.776" r="1.02"/>
		<circle style="fill:#393939;" cx="445.378" cy="12.776" r="1.021"/>
	</g>
</g>
</svg>
