<?xml version="1.0" encoding="utf-8"?>
<!-- Generator: Adobe Illustrator 17.0.0, SVG Export Plug-In . SVG Version: 6.00 Build 0)  -->
<!DOCTYPE svg PUBLIC "-//W3C//DTD SVG 1.1//EN" "http://www.w3.org/Graphics/SVG/1.1/DTD/svg11.dtd">
<svg version="1.1" id="Capa_1" xmlns="http://www.w3.org/2000/svg" xmlns:xlink="http://www.w3.org/1999/xlink" x="0px" y="0px"
	 width="246.89px" height="202.06px" viewBox="0 0 246.89 202.06" style="enable-background:new 0 0 246.89 202.06;"
	 xml:space="preserve">
<g>
	<polygon style="fill:#DDDFDF;stroke:#000000;stroke-width:0.5;stroke-miterlimit:10;" points="50.106,157.463 50.106,193.424 
		184.144,193.424 197.227,175.442 184.144,157.463 	"/>
	<polygon style="fill:#DDDFDF;stroke:#000000;stroke-width:0.5;stroke-miterlimit:10;" points="50.106,99.648 50.106,135.608 
		184.144,135.608 197.227,117.629 184.144,99.648 	"/>
	<g>
		<defs>
			<polygon id="SVGID_1_" points="54.237,104.054 64.104,117.633 54.237,131.213 93.87,131.213 103.736,117.633 93.87,104.054 			
				"/>
		</defs>
		<use xlink:href="#SVGID_1_"  style="overflow:visible;fill:#2C6882;"/>
		<clipPath id="SVGID_2_">
			<use xlink:href="#SVGID_1_"  style="overflow:visible;"/>
		</clipPath>
		
			<rect x="54.237" y="104.054" style="clip-path:url(#SVGID_2_);fill:#2C6882;stroke:#000000;stroke-width:0.75;stroke-miterlimit:10;" width="49.499" height="27.159"/>
		<use xlink:href="#SVGID_1_"  style="overflow:visible;fill:none;stroke:#000000;stroke-width:0.75;stroke-miterlimit:10;"/>
	</g>
	<g>
		<defs>
			<polygon id="SVGID_3_" points="97.651,104.054 107.517,117.633 97.651,131.213 137.283,131.213 147.15,117.633 137.283,104.054 
							"/>
		</defs>
		<use xlink:href="#SVGID_3_"  style="overflow:visible;fill:#2C6882;"/>
		<clipPath id="SVGID_4_">
			<use xlink:href="#SVGID_3_"  style="overflow:visible;"/>
		</clipPath>
		
			<rect x="97.652" y="104.054" style="clip-path:url(#SVGID_4_);fill:#2C6882;stroke:#000000;stroke-width:0.75;stroke-miterlimit:10;" width="49.499" height="27.159"/>
		<use xlink:href="#SVGID_3_"  style="overflow:visible;fill:none;stroke:#000000;stroke-width:0.75;stroke-miterlimit:10;"/>
	</g>
	<g>
		<defs>
			<polygon id="SVGID_5_" points="140.764,104.054 150.63,117.633 140.764,131.213 180.397,131.213 190.263,117.633 
				180.397,104.054 			"/>
		</defs>
		<use xlink:href="#SVGID_5_"  style="overflow:visible;fill:#2C6882;"/>
		<clipPath id="SVGID_6_">
			<use xlink:href="#SVGID_5_"  style="overflow:visible;"/>
		</clipPath>
		
			<rect x="140.764" y="104.054" style="clip-path:url(#SVGID_6_);fill:#2C6882;stroke:#000000;stroke-width:0.75;stroke-miterlimit:10;" width="49.499" height="27.159"/>
		<use xlink:href="#SVGID_5_"  style="overflow:visible;fill:none;stroke:#000000;stroke-width:0.75;stroke-miterlimit:10;"/>
	</g>
	<g>
		<defs>
			<polygon id="SVGID_7_" points="54.237,161.863 64.104,175.443 54.237,189.023 93.87,189.023 103.736,175.443 93.87,161.863 			
				"/>
		</defs>
		<use xlink:href="#SVGID_7_"  style="overflow:visible;fill:#2C6882;"/>
		<clipPath id="SVGID_8_">
			<use xlink:href="#SVGID_7_"  style="overflow:visible;"/>
		</clipPath>
		
			<rect x="54.237" y="161.863" style="clip-path:url(#SVGID_8_);fill:#6FC2D8;stroke:#000000;stroke-width:0.75;stroke-miterlimit:10;" width="49.499" height="27.16"/>
		<use xlink:href="#SVGID_7_"  style="overflow:visible;fill:none;stroke:#000000;stroke-width:0.75;stroke-miterlimit:10;"/>
	</g>
	<g>
		<defs>
			<polygon id="SVGID_9_" points="97.651,161.863 107.517,175.443 97.651,189.023 137.283,189.023 147.15,175.443 137.283,161.863 
							"/>
		</defs>
		<use xlink:href="#SVGID_9_"  style="overflow:visible;fill:#2C6882;"/>
		<clipPath id="SVGID_10_">
			<use xlink:href="#SVGID_9_"  style="overflow:visible;"/>
		</clipPath>
		
			<rect x="97.652" y="161.863" style="clip-path:url(#SVGID_10_);fill:#6FC2D8;stroke:#000000;stroke-width:0.75;stroke-miterlimit:10;" width="49.499" height="27.16"/>
		<use xlink:href="#SVGID_9_"  style="overflow:visible;fill:none;stroke:#000000;stroke-width:0.75;stroke-miterlimit:10;"/>
	</g>
	<g>
		<defs>
			<polygon id="SVGID_11_" points="140.764,161.863 150.63,175.443 140.764,189.023 180.397,189.023 190.263,175.443 
				180.397,161.863 			"/>
		</defs>
		<use xlink:href="#SVGID_11_"  style="overflow:visible;fill:#2C6882;"/>
		<clipPath id="SVGID_12_">
			<use xlink:href="#SVGID_11_"  style="overflow:visible;"/>
		</clipPath>
		
			<rect x="140.764" y="161.863" style="clip-path:url(#SVGID_12_);fill:#6FC2D8;stroke:#000000;stroke-width:0.75;stroke-miterlimit:10;" width="49.499" height="27.16"/>
		<use xlink:href="#SVGID_11_"  style="overflow:visible;fill:none;stroke:#000000;stroke-width:0.75;stroke-miterlimit:10;"/>
	</g>
	<polygon style="fill:#DDDFDF;stroke:#000000;stroke-width:0.5;stroke-miterlimit:10;" points="179.536,77.795 50.106,77.795 
		50.106,29.171 179.536,29.171 197.227,53.483 	"/>
	<g>
		<defs>
			<polygon id="SVGID_13_" points="118.132,33.488 132.681,53.483 118.132,73.475 176.577,73.475 191.125,53.483 176.577,33.488 			
				"/>
		</defs>
		<use xlink:href="#SVGID_13_"  style="overflow:visible;fill:#6FC2D8;"/>
		<clipPath id="SVGID_14_">
			<use xlink:href="#SVGID_13_"  style="overflow:visible;"/>
		</clipPath>
		
			<rect x="118.132" y="33.488" style="clip-path:url(#SVGID_14_);fill:#6FC2D8;stroke:#000000;stroke-width:0.75;stroke-miterlimit:10;" width="72.992" height="39.986"/>
		<use xlink:href="#SVGID_13_"  style="overflow:visible;fill:none;stroke:#000000;stroke-width:0.75;stroke-miterlimit:10;"/>
	</g>
	<g>
		<defs>
			<polygon id="SVGID_15_" points="54.159,33.488 68.707,53.483 54.159,73.475 112.603,73.475 127.152,53.483 112.603,33.488 			"/>
		</defs>
		<use xlink:href="#SVGID_15_"  style="overflow:visible;fill:#6FC2D8;"/>
		<clipPath id="SVGID_16_">
			<use xlink:href="#SVGID_15_"  style="overflow:visible;"/>
		</clipPath>
		
			<rect x="54.159" y="33.488" style="clip-path:url(#SVGID_16_);fill:#6FC2D8;stroke:#000000;stroke-width:0.75;stroke-miterlimit:10;" width="72.993" height="39.986"/>
		<use xlink:href="#SVGID_15_"  style="overflow:visible;fill:none;stroke:#000000;stroke-width:0.75;stroke-miterlimit:10;"/>
	</g>
	<polygon points="42.821,44.207 42.821,50.383 31.408,50.383 31.408,56.584 42.821,56.584 42.821,62.759 58.885,53.484 	"/>
	<polygon points="162.431,77.795 156.231,77.795 156.231,88.94 153.147,88.94 159.329,99.649 165.514,88.94 162.431,88.94 	"/>
	<polygon points="74.027,77.795 67.826,77.795 67.826,88.94 64.742,88.94 70.926,99.649 77.108,88.94 74.027,88.94 	"/>
	<polygon points="70.926,135.608 64.742,146.319 67.825,146.319 67.825,157.463 74.026,157.463 74.026,146.319 77.108,146.319 	"/>
	<polygon points="159.33,135.608 153.147,146.319 156.23,146.319 156.23,157.463 162.43,157.463 162.43,146.319 165.513,146.319 	
		"/>
	<g>
		<g>
			<path d="M47.435,0.188h2.214v5.937c0,0.942,0.027,1.553,0.082,1.832c0.095,0.448,0.32,0.809,0.677,1.08s0.844,0.407,1.462,0.407
				c0.628,0,1.102-0.128,1.421-0.385c0.318-0.257,0.511-0.572,0.575-0.946c0.064-0.373,0.098-0.994,0.098-1.861V0.188h2.213v5.757
				c0,1.316-0.06,2.246-0.18,2.789c-0.119,0.543-0.34,1.002-0.661,1.376c-0.322,0.374-0.752,0.672-1.29,0.894
				s-1.241,0.332-2.108,0.332c-1.047,0-1.841-0.12-2.382-0.362c-0.541-0.241-0.968-0.556-1.282-0.942
				c-0.314-0.386-0.521-0.791-0.62-1.215c-0.146-0.628-0.218-1.555-0.218-2.781V0.188z"/>
			<path d="M58.531,11.148V0.188h2.153l4.486,7.319V0.188h2.056v10.961h-2.221L60.587,4v7.148H58.531z"/>
			<path d="M69.5,11.148V0.188h2.213v10.961H69.5z"/>
			<path d="M76.617,11.148L72.699,0.188h2.4L77.874,8.3l2.684-8.112h2.348L78.98,11.148H76.617z"/>
			<path d="M84.035,11.148V0.188h8.127v1.854h-5.914v2.431h5.503v1.847h-5.503v2.983h6.124v1.847H84.035z"/>
			<path d="M94.256,11.148V0.188h4.658c1.172,0,2.023,0.098,2.554,0.295c0.531,0.197,0.956,0.547,1.275,1.051
				c0.318,0.503,0.479,1.079,0.479,1.727c0,0.823-0.242,1.502-0.726,2.038s-1.206,0.873-2.168,1.013
				c0.479,0.279,0.873,0.586,1.185,0.92s0.731,0.927,1.26,1.779l1.339,2.139h-2.647l-1.6-2.385c-0.568-0.853-0.957-1.39-1.167-1.611
				c-0.209-0.222-0.431-0.374-0.665-0.456c-0.234-0.083-0.605-0.124-1.114-0.124H96.47v4.576H94.256z M96.47,4.823h1.638
				c1.062,0,1.725-0.045,1.988-0.135c0.265-0.09,0.472-0.244,0.621-0.464c0.149-0.219,0.224-0.493,0.224-0.822
				c0-0.369-0.099-0.667-0.295-0.894c-0.197-0.227-0.475-0.37-0.834-0.43c-0.18-0.025-0.718-0.038-1.615-0.038H96.47V4.823z"/>
			<path d="M104.747,7.582l2.153-0.21c0.129,0.724,0.393,1.254,0.788,1.593c0.396,0.339,0.932,0.509,1.604,0.509
				c0.713,0,1.25-0.15,1.611-0.452s0.542-0.654,0.542-1.059c0-0.259-0.076-0.479-0.229-0.661c-0.152-0.183-0.417-0.341-0.796-0.475
				c-0.26-0.09-0.85-0.25-1.772-0.479c-1.187-0.295-2.019-0.656-2.497-1.085c-0.673-0.603-1.01-1.338-1.01-2.205
				c0-0.559,0.158-1.081,0.476-1.566c0.316-0.486,0.772-0.856,1.368-1.11C107.582,0.127,108.301,0,109.144,0
				c1.375,0,2.411,0.302,3.106,0.905c0.695,0.603,1.061,1.408,1.096,2.415l-2.214,0.097c-0.095-0.563-0.298-0.968-0.609-1.215
				s-0.778-0.37-1.401-0.37c-0.644,0-1.146,0.132-1.511,0.396c-0.234,0.169-0.352,0.396-0.352,0.681c0,0.259,0.109,0.48,0.329,0.665
				c0.279,0.234,0.957,0.479,2.034,0.732c1.076,0.255,1.873,0.518,2.389,0.789s0.92,0.644,1.211,1.114
				c0.292,0.471,0.438,1.053,0.438,1.746c0,0.628-0.175,1.216-0.523,1.765c-0.349,0.548-0.843,0.955-1.48,1.222
				s-1.433,0.4-2.385,0.4c-1.386,0-2.45-0.32-3.193-0.961C105.335,9.741,104.892,8.809,104.747,7.582z"/>
			<path d="M115.453,11.148V0.188h2.213v10.961H115.453z"/>
			<path d="M119.768,0.188h4.045c0.912,0,1.607,0.069,2.086,0.209c0.644,0.189,1.194,0.526,1.653,1.01
				c0.458,0.483,0.807,1.075,1.046,1.775s0.359,1.564,0.359,2.591c0,0.902-0.112,1.68-0.337,2.333
				c-0.273,0.798-0.665,1.443-1.174,1.937c-0.384,0.374-0.902,0.665-1.555,0.875c-0.489,0.154-1.142,0.231-1.959,0.231h-4.165V0.188
				z M121.98,2.041v7.261h1.653c0.617,0,1.063-0.035,1.338-0.104c0.359-0.09,0.656-0.242,0.894-0.456
				c0.236-0.215,0.43-0.567,0.579-1.059c0.149-0.49,0.225-1.16,0.225-2.008c0-0.847-0.075-1.497-0.225-1.951
				c-0.149-0.453-0.358-0.808-0.628-1.062c-0.269-0.254-0.61-0.426-1.024-0.516c-0.309-0.07-0.914-0.105-1.816-0.105H121.98z"/>
			<path d="M140.719,11.148h-2.408l-0.957-2.49h-4.381l-0.905,2.49h-2.348l4.27-10.961h2.34L140.719,11.148z M136.644,6.812
				l-1.511-4.067l-1.48,4.067H136.644z"/>
			<path d="M141.885,0.188h4.045c0.912,0,1.607,0.069,2.086,0.209c0.644,0.189,1.194,0.526,1.653,1.01
				c0.458,0.483,0.807,1.075,1.046,1.775s0.359,1.564,0.359,2.591c0,0.902-0.112,1.68-0.337,2.333
				c-0.273,0.798-0.665,1.443-1.174,1.937c-0.384,0.374-0.902,0.665-1.555,0.875c-0.489,0.154-1.142,0.231-1.959,0.231h-4.165V0.188
				z M144.098,2.041v7.261h1.653c0.617,0,1.063-0.035,1.338-0.104c0.359-0.09,0.656-0.242,0.894-0.456
				c0.236-0.215,0.43-0.567,0.579-1.059c0.149-0.49,0.225-1.16,0.225-2.008c0-0.847-0.075-1.497-0.225-1.951
				c-0.149-0.453-0.358-0.808-0.628-1.062c-0.269-0.254-0.61-0.426-1.024-0.516c-0.309-0.07-0.914-0.105-1.816-0.105H144.098z"/>
			<path d="M156.091,11.148l3.746-5.72l-3.395-5.241h2.587l2.198,3.521l2.153-3.521h2.564l-3.409,5.323l3.746,5.638h-2.67
				l-2.43-3.791l-2.438,3.791H156.091z"/>
			<path d="M170.298,11.148V6.535l-4.016-6.348h2.595l2.579,4.336l2.527-4.336h2.55l-4.03,6.362v4.599H170.298z"/>
			<path d="M176.682,11.148V9.152l5.758-7.111h-5.106V0.188h8.022v1.72l-6.004,7.395h6.235v1.847H176.682z"/>
		</g>
	</g>
	<g>
		<g>
			<path style="fill:#2C6882;" d="M80.437,55.408v-3.132h1.181c0.208,0,0.367,0.01,0.477,0.03c0.154,0.025,0.283,0.074,0.387,0.146
				c0.104,0.071,0.188,0.172,0.251,0.302s0.096,0.272,0.096,0.428c0,0.266-0.085,0.491-0.255,0.676
				c-0.169,0.185-0.476,0.276-0.918,0.276h-0.804v1.273H80.437z M80.851,53.766h0.81c0.268,0,0.458-0.05,0.57-0.149
				s0.169-0.24,0.169-0.421c0-0.131-0.033-0.243-0.1-0.337c-0.066-0.093-0.153-0.154-0.262-0.185
				c-0.069-0.019-0.198-0.028-0.387-0.028h-0.801V53.766z"/>
			<path style="fill:#2C6882;" d="M83.337,55.408v-3.132h0.415v2.763h1.542v0.369H83.337z"/>
			<path style="fill:#2C6882;" d="M85.443,55.408l1.203-3.132h0.446l1.282,3.132h-0.473l-0.365-0.948h-1.31l-0.344,0.948H85.443z
				 M86.348,54.122h1.062l-0.327-0.867c-0.1-0.264-0.174-0.48-0.222-0.649c-0.04,0.201-0.097,0.4-0.169,0.598L86.348,54.122z"/>
			<path style="fill:#2C6882;" d="M88.701,55.408v-3.132h0.426l1.645,2.459v-2.459h0.397v3.132h-0.425l-1.646-2.461v2.461H88.701z"
				/>
			<path style="fill:#2C6882;" d="M91.873,55.408v-3.132h2.265v0.369h-1.85v0.96h1.732v0.367h-1.732v1.066h1.923v0.369H91.873z"/>
			<path style="fill:#2C6882;" d="M94.439,55.408l1.203-3.132h0.446l1.282,3.132h-0.473l-0.365-0.948h-1.31l-0.344,0.948H94.439z
				 M95.344,54.122h1.062l-0.327-0.867c-0.1-0.264-0.174-0.48-0.222-0.649c-0.04,0.201-0.097,0.4-0.169,0.598L95.344,54.122z"/>
			<path style="fill:#2C6882;" d="M99.937,54.311l0.414,0.104c-0.087,0.34-0.243,0.6-0.469,0.778s-0.502,0.269-0.828,0.269
				c-0.337,0-0.611-0.069-0.823-0.206c-0.212-0.138-0.372-0.337-0.482-0.598s-0.166-0.54-0.166-0.84c0-0.325,0.063-0.61,0.188-0.853
				c0.124-0.243,0.302-0.428,0.531-0.554c0.23-0.126,0.483-0.189,0.76-0.189c0.313,0,0.577,0.08,0.79,0.239
				c0.214,0.16,0.362,0.384,0.447,0.673l-0.408,0.097c-0.073-0.228-0.179-0.394-0.316-0.498c-0.139-0.104-0.312-0.156-0.521-0.156
				c-0.24,0-0.441,0.059-0.604,0.174c-0.161,0.115-0.275,0.27-0.341,0.464c-0.065,0.195-0.098,0.396-0.098,0.602
				c0,0.267,0.038,0.499,0.116,0.698c0.077,0.198,0.198,0.347,0.362,0.445c0.163,0.098,0.341,0.147,0.531,0.147
				c0.232,0,0.429-0.067,0.59-0.201S99.879,54.573,99.937,54.311z"/>
			<path style="fill:#2C6882;" d="M100.932,55.408v-3.132h0.414v3.132H100.932z"/>
			<path style="fill:#2C6882;" d="M101.951,53.883c0-0.52,0.139-0.927,0.418-1.221s0.64-0.441,1.081-0.441
				c0.289,0,0.55,0.069,0.782,0.207c0.232,0.139,0.409,0.331,0.53,0.578c0.122,0.247,0.184,0.527,0.184,0.841
				c0,0.317-0.064,0.602-0.192,0.853c-0.129,0.25-0.311,0.44-0.545,0.569c-0.235,0.129-0.488,0.193-0.761,0.193
				c-0.295,0-0.559-0.071-0.79-0.214c-0.232-0.143-0.408-0.337-0.528-0.583C102.011,54.418,101.951,54.158,101.951,53.883z
				 M102.378,53.89c0,0.377,0.102,0.675,0.305,0.892s0.457,0.326,0.764,0.326c0.312,0,0.568-0.11,0.77-0.329
				c0.202-0.22,0.303-0.531,0.303-0.934c0-0.255-0.043-0.478-0.129-0.668c-0.087-0.19-0.213-0.338-0.379-0.442
				c-0.165-0.104-0.352-0.157-0.559-0.157c-0.293,0-0.545,0.102-0.757,0.303S102.378,53.418,102.378,53.89z M103.186,52.084
				l0.284-0.598h0.504l-0.47,0.598H103.186z"/>
			<path style="fill:#2C6882;" d="M105.476,55.408v-3.132h0.426l1.645,2.459v-2.459h0.397v3.132h-0.425l-1.646-2.461v2.461H105.476z
				"/>
		</g>
	</g>
	<g>
		<g>
			<path d="M75.064,25.875v-4.176h1.575c0.277,0,0.488,0.014,0.635,0.04c0.205,0.034,0.377,0.1,0.516,0.195s0.25,0.229,0.335,0.402
				c0.084,0.173,0.127,0.363,0.127,0.57c0,0.354-0.113,0.655-0.339,0.901c-0.227,0.246-0.635,0.369-1.226,0.369h-1.07v1.697H75.064z
				 M75.617,23.685h1.079c0.357,0,0.61-0.066,0.761-0.199c0.149-0.133,0.225-0.32,0.225-0.562c0-0.175-0.044-0.324-0.132-0.448
				c-0.089-0.124-0.205-0.207-0.35-0.246c-0.093-0.025-0.265-0.037-0.516-0.037h-1.067V23.685z"/>
			<path d="M78.964,25.875v-4.176h1.851c0.373,0,0.655,0.037,0.85,0.112c0.193,0.075,0.348,0.208,0.464,0.397
				c0.116,0.19,0.174,0.399,0.174,0.63c0,0.296-0.096,0.546-0.288,0.749c-0.191,0.203-0.487,0.332-0.889,0.388
				c0.146,0.069,0.258,0.139,0.334,0.207c0.161,0.148,0.313,0.334,0.458,0.556l0.727,1.137h-0.695l-0.553-0.869
				c-0.161-0.25-0.294-0.442-0.398-0.575s-0.198-0.226-0.28-0.279c-0.083-0.053-0.167-0.09-0.252-0.11
				c-0.063-0.014-0.165-0.021-0.308-0.021h-0.642v1.854H78.964z M79.516,23.542h1.188c0.252,0,0.45-0.026,0.592-0.078
				c0.143-0.052,0.251-0.136,0.325-0.251c0.074-0.114,0.111-0.239,0.111-0.374c0-0.197-0.072-0.36-0.216-0.487
				c-0.143-0.127-0.369-0.19-0.679-0.19h-1.322V23.542z"/>
			<path d="M83,23.841c0-0.692,0.186-1.235,0.558-1.627c0.373-0.393,0.854-0.589,1.441-0.589c0.386,0,0.733,0.093,1.043,0.276
				c0.31,0.185,0.545,0.441,0.708,0.771c0.162,0.33,0.243,0.703,0.243,1.121c0,0.423-0.085,0.802-0.256,1.137
				c-0.171,0.334-0.413,0.587-0.727,0.759s-0.651,0.258-1.015,0.258c-0.393,0-0.744-0.095-1.054-0.285
				c-0.31-0.189-0.544-0.449-0.703-0.777C83.079,24.556,83,24.208,83,23.841z M83.569,23.85c0,0.504,0.136,0.899,0.406,1.189
				c0.271,0.289,0.609,0.435,1.018,0.435c0.416,0,0.759-0.146,1.027-0.438c0.269-0.293,0.403-0.708,0.403-1.245
				c0-0.34-0.058-0.637-0.173-0.891c-0.114-0.253-0.283-0.449-0.504-0.589c-0.222-0.14-0.47-0.21-0.745-0.21
				c-0.391,0-0.728,0.135-1.01,0.403S83.569,23.222,83.569,23.85z"/>
			<path d="M90.686,24.411l0.553,0.14c-0.116,0.453-0.324,0.8-0.626,1.038c-0.301,0.238-0.669,0.357-1.104,0.357
				c-0.45,0-0.816-0.092-1.098-0.275c-0.282-0.183-0.497-0.448-0.644-0.796c-0.147-0.348-0.221-0.721-0.221-1.119
				c0-0.435,0.083-0.814,0.249-1.138c0.166-0.324,0.402-0.57,0.709-0.738s0.645-0.252,1.013-0.252c0.418,0,0.769,0.106,1.054,0.319
				s0.483,0.512,0.596,0.897l-0.544,0.128c-0.098-0.304-0.238-0.525-0.422-0.664c-0.185-0.139-0.416-0.208-0.695-0.208
				c-0.32,0-0.589,0.077-0.805,0.231c-0.215,0.153-0.367,0.36-0.454,0.619s-0.131,0.526-0.131,0.802c0,0.355,0.052,0.665,0.155,0.93
				c0.104,0.266,0.265,0.463,0.482,0.594c0.219,0.132,0.455,0.197,0.709,0.197c0.31,0,0.572-0.09,0.786-0.268
				C90.464,25.027,90.609,24.763,90.686,24.411z"/>
			<path d="M91.93,25.875v-4.176h3.019v0.493h-2.467v1.278h2.311v0.49h-2.311v1.421h2.563v0.493H91.93z"/>
			<path d="M95.621,24.533l0.521-0.045c0.024,0.208,0.082,0.38,0.173,0.514c0.09,0.134,0.229,0.242,0.42,0.325
				c0.189,0.082,0.403,0.123,0.641,0.123c0.211,0,0.396-0.031,0.559-0.094c0.161-0.063,0.281-0.148,0.36-0.258
				c0.078-0.109,0.118-0.229,0.118-0.357c0-0.131-0.038-0.245-0.114-0.343s-0.201-0.181-0.376-0.247
				c-0.112-0.043-0.359-0.111-0.743-0.203s-0.652-0.179-0.807-0.261c-0.199-0.104-0.348-0.234-0.445-0.389
				c-0.098-0.155-0.146-0.328-0.146-0.521c0-0.21,0.06-0.407,0.179-0.591c0.12-0.183,0.295-0.322,0.524-0.417
				s0.485-0.143,0.767-0.143c0.31,0,0.582,0.05,0.818,0.149s0.419,0.247,0.546,0.44s0.195,0.413,0.205,0.658l-0.53,0.04
				c-0.028-0.265-0.125-0.464-0.289-0.599s-0.406-0.202-0.728-0.202c-0.334,0-0.578,0.062-0.73,0.184
				c-0.153,0.122-0.229,0.271-0.229,0.443c0,0.149,0.055,0.273,0.162,0.37c0.106,0.097,0.385,0.196,0.834,0.298
				c0.448,0.102,0.757,0.19,0.924,0.266c0.243,0.112,0.423,0.254,0.538,0.426c0.116,0.172,0.174,0.37,0.174,0.594
				c0,0.223-0.063,0.432-0.19,0.629c-0.128,0.196-0.311,0.349-0.549,0.458s-0.506,0.164-0.805,0.164
				c-0.378,0-0.694-0.056-0.949-0.165c-0.256-0.11-0.456-0.276-0.602-0.497C95.705,25.063,95.629,24.813,95.621,24.533z"/>
			<path d="M99.532,23.841c0-0.692,0.186-1.235,0.558-1.627c0.373-0.393,0.854-0.589,1.441-0.589c0.386,0,0.733,0.093,1.043,0.276
				c0.31,0.185,0.545,0.441,0.708,0.771c0.162,0.33,0.243,0.703,0.243,1.121c0,0.423-0.085,0.802-0.256,1.137
				c-0.171,0.334-0.413,0.587-0.727,0.759s-0.651,0.258-1.015,0.258c-0.393,0-0.744-0.095-1.054-0.285
				c-0.31-0.189-0.544-0.449-0.703-0.777C99.611,24.556,99.532,24.208,99.532,23.841z M100.102,23.85
				c0,0.504,0.136,0.899,0.406,1.189c0.271,0.289,0.609,0.435,1.018,0.435c0.416,0,0.759-0.146,1.027-0.438
				c0.269-0.293,0.403-0.708,0.403-1.245c0-0.34-0.058-0.637-0.173-0.891c-0.114-0.253-0.283-0.449-0.504-0.589
				c-0.222-0.14-0.47-0.21-0.745-0.21c-0.391,0-0.728,0.135-1.01,0.403S100.102,23.222,100.102,23.85z"/>
			<path d="M104.049,24.533l0.521-0.045c0.024,0.208,0.082,0.38,0.173,0.514c0.09,0.134,0.229,0.242,0.42,0.325
				c0.189,0.082,0.403,0.123,0.641,0.123c0.211,0,0.396-0.031,0.559-0.094c0.161-0.063,0.281-0.148,0.36-0.258
				c0.078-0.109,0.118-0.229,0.118-0.357c0-0.131-0.038-0.245-0.114-0.343s-0.201-0.181-0.376-0.247
				c-0.112-0.043-0.359-0.111-0.743-0.203s-0.652-0.179-0.807-0.261c-0.199-0.104-0.348-0.234-0.445-0.389
				c-0.098-0.155-0.146-0.328-0.146-0.521c0-0.21,0.06-0.407,0.179-0.591c0.12-0.183,0.295-0.322,0.524-0.417
				s0.485-0.143,0.767-0.143c0.31,0,0.582,0.05,0.818,0.149s0.419,0.247,0.546,0.44s0.195,0.413,0.205,0.658l-0.53,0.04
				c-0.028-0.265-0.125-0.464-0.289-0.599s-0.406-0.202-0.728-0.202c-0.334,0-0.578,0.062-0.73,0.184
				c-0.153,0.122-0.229,0.271-0.229,0.443c0,0.149,0.055,0.273,0.162,0.37c0.106,0.097,0.385,0.196,0.834,0.298
				c0.448,0.102,0.757,0.19,0.924,0.266c0.243,0.112,0.423,0.254,0.538,0.426c0.116,0.172,0.174,0.37,0.174,0.594
				c0,0.223-0.063,0.432-0.19,0.629c-0.128,0.196-0.311,0.349-0.549,0.458s-0.506,0.164-0.805,0.164
				c-0.378,0-0.694-0.056-0.949-0.165c-0.256-0.11-0.456-0.276-0.602-0.497C104.133,25.063,104.057,24.813,104.049,24.533z"/>
			<path d="M109.761,25.875v-4.176h3.019v0.493h-2.467v1.278h2.311v0.49h-2.311v1.421h2.563v0.493H109.761z"/>
			<path d="M113.451,24.533l0.521-0.045c0.024,0.208,0.082,0.38,0.173,0.514c0.09,0.134,0.229,0.242,0.42,0.325
				c0.189,0.082,0.403,0.123,0.641,0.123c0.211,0,0.396-0.031,0.559-0.094c0.161-0.063,0.281-0.148,0.36-0.258
				c0.078-0.109,0.118-0.229,0.118-0.357c0-0.131-0.038-0.245-0.114-0.343s-0.201-0.181-0.376-0.247
				c-0.112-0.043-0.359-0.111-0.743-0.203s-0.652-0.179-0.807-0.261c-0.199-0.104-0.348-0.234-0.445-0.389
				c-0.098-0.155-0.146-0.328-0.146-0.521c0-0.21,0.06-0.407,0.179-0.591c0.12-0.183,0.295-0.322,0.524-0.417
				s0.485-0.143,0.767-0.143c0.31,0,0.582,0.05,0.818,0.149s0.419,0.247,0.546,0.44s0.195,0.413,0.205,0.658l-0.53,0.04
				c-0.028-0.265-0.125-0.464-0.289-0.599s-0.406-0.202-0.728-0.202c-0.334,0-0.578,0.062-0.73,0.184
				c-0.153,0.122-0.229,0.271-0.229,0.443c0,0.149,0.055,0.273,0.162,0.37c0.106,0.097,0.385,0.196,0.834,0.298
				c0.448,0.102,0.757,0.19,0.924,0.266c0.243,0.112,0.423,0.254,0.538,0.426c0.116,0.172,0.174,0.37,0.174,0.594
				c0,0.223-0.063,0.432-0.19,0.629c-0.128,0.196-0.311,0.349-0.549,0.458s-0.506,0.164-0.805,0.164
				c-0.378,0-0.694-0.056-0.949-0.165c-0.256-0.11-0.456-0.276-0.602-0.497C113.535,25.063,113.459,24.813,113.451,24.533z"/>
			<path d="M118.594,25.875v-3.683h-1.376v-0.493h3.31v0.493h-1.381v3.683H118.594z"/>
			<path d="M121.104,25.875v-4.176h1.851c0.373,0,0.655,0.037,0.85,0.112c0.193,0.075,0.348,0.208,0.464,0.397
				c0.116,0.19,0.174,0.399,0.174,0.63c0,0.296-0.096,0.546-0.288,0.749c-0.191,0.203-0.487,0.332-0.889,0.388
				c0.146,0.069,0.258,0.139,0.334,0.207c0.161,0.148,0.313,0.334,0.458,0.556l0.727,1.137h-0.695l-0.553-0.869
				c-0.161-0.25-0.294-0.442-0.398-0.575s-0.198-0.226-0.28-0.279c-0.083-0.053-0.167-0.09-0.252-0.11
				c-0.063-0.014-0.165-0.021-0.308-0.021h-0.642v1.854H121.104z M121.655,23.542h1.188c0.252,0,0.45-0.026,0.592-0.078
				c0.143-0.052,0.251-0.136,0.325-0.251c0.074-0.114,0.111-0.239,0.111-0.374c0-0.197-0.072-0.36-0.216-0.487
				c-0.143-0.127-0.369-0.19-0.679-0.19h-1.322V23.542z"/>
			<path d="M124.848,25.875l1.604-4.176h0.596l1.709,4.176h-0.63l-0.486-1.265h-1.746l-0.459,1.265H124.848z M126.053,24.16h1.416
				l-0.437-1.156c-0.133-0.352-0.231-0.64-0.296-0.866c-0.053,0.268-0.128,0.534-0.225,0.798L126.053,24.16z"/>
			<path d="M130.261,25.875v-3.683h-1.376v-0.493h3.31v0.493h-1.381v3.683H130.261z"/>
			<path d="M132.772,25.875v-4.176h3.019v0.493h-2.467v1.278h2.311v0.49h-2.311v1.421h2.563v0.493H132.772z M133.911,21.443
				l0.379-0.798h0.672l-0.626,0.798H133.911z"/>
			<path d="M138.606,24.237v-0.49l1.769-0.003v1.55c-0.271,0.217-0.552,0.379-0.84,0.488c-0.289,0.109-0.585,0.164-0.889,0.164
				c-0.41,0-0.783-0.088-1.118-0.264s-0.589-0.43-0.76-0.762s-0.256-0.704-0.256-1.114c0-0.406,0.085-0.785,0.255-1.138
				c0.17-0.352,0.414-0.613,0.733-0.784s0.687-0.257,1.103-0.257c0.302,0,0.574,0.049,0.818,0.146
				c0.244,0.099,0.436,0.234,0.574,0.409s0.244,0.402,0.316,0.684l-0.499,0.137c-0.063-0.213-0.14-0.38-0.233-0.501
				c-0.093-0.122-0.226-0.22-0.398-0.292c-0.173-0.073-0.364-0.11-0.575-0.11c-0.253,0-0.472,0.039-0.655,0.115
				c-0.185,0.077-0.333,0.179-0.446,0.304c-0.112,0.125-0.2,0.263-0.263,0.413c-0.106,0.258-0.16,0.538-0.16,0.84
				c0,0.373,0.064,0.684,0.192,0.935s0.314,0.437,0.56,0.559c0.245,0.121,0.506,0.182,0.78,0.182c0.239,0,0.474-0.046,0.701-0.138
				s0.4-0.19,0.519-0.295v-0.777H138.606z"/>
			<path d="M141.283,25.875v-4.176h0.553v4.176H141.283z"/>
			<path d="M145.79,24.411l0.553,0.14c-0.116,0.453-0.324,0.8-0.626,1.038c-0.301,0.238-0.669,0.357-1.104,0.357
				c-0.45,0-0.816-0.092-1.098-0.275c-0.282-0.183-0.497-0.448-0.644-0.796c-0.147-0.348-0.221-0.721-0.221-1.119
				c0-0.435,0.083-0.814,0.249-1.138c0.166-0.324,0.402-0.57,0.709-0.738s0.645-0.252,1.013-0.252c0.418,0,0.769,0.106,1.054,0.319
				s0.483,0.512,0.596,0.897l-0.544,0.128c-0.098-0.304-0.238-0.525-0.422-0.664c-0.185-0.139-0.416-0.208-0.695-0.208
				c-0.32,0-0.589,0.077-0.805,0.231c-0.215,0.153-0.367,0.36-0.454,0.619s-0.131,0.526-0.131,0.802c0,0.355,0.052,0.665,0.155,0.93
				c0.104,0.266,0.265,0.463,0.482,0.594c0.219,0.132,0.455,0.197,0.709,0.197c0.31,0,0.572-0.09,0.786-0.268
				C145.568,25.027,145.714,24.763,145.79,24.411z"/>
			<path d="M146.855,23.841c0-0.692,0.186-1.235,0.558-1.627c0.373-0.393,0.854-0.589,1.441-0.589c0.386,0,0.733,0.093,1.043,0.276
				c0.31,0.185,0.545,0.441,0.708,0.771c0.162,0.33,0.243,0.703,0.243,1.121c0,0.423-0.085,0.802-0.256,1.137
				c-0.171,0.334-0.413,0.587-0.727,0.759s-0.651,0.258-1.015,0.258c-0.393,0-0.744-0.095-1.054-0.285
				c-0.31-0.189-0.544-0.449-0.703-0.777C146.935,24.556,146.855,24.208,146.855,23.841z M147.425,23.85
				c0,0.504,0.136,0.899,0.406,1.189c0.271,0.289,0.609,0.435,1.018,0.435c0.416,0,0.759-0.146,1.027-0.438
				c0.269-0.293,0.403-0.708,0.403-1.245c0-0.34-0.058-0.637-0.173-0.891c-0.114-0.253-0.283-0.449-0.504-0.589
				c-0.222-0.14-0.47-0.21-0.745-0.21c-0.391,0-0.728,0.135-1.01,0.403S147.425,23.222,147.425,23.85z"/>
			<path d="M151.372,24.533l0.521-0.045c0.024,0.208,0.082,0.38,0.173,0.514c0.09,0.134,0.229,0.242,0.42,0.325
				c0.189,0.082,0.403,0.123,0.641,0.123c0.211,0,0.396-0.031,0.559-0.094c0.161-0.063,0.281-0.148,0.36-0.258
				c0.078-0.109,0.118-0.229,0.118-0.357c0-0.131-0.038-0.245-0.114-0.343s-0.201-0.181-0.376-0.247
				c-0.112-0.043-0.359-0.111-0.743-0.203s-0.652-0.179-0.807-0.261c-0.199-0.104-0.348-0.234-0.445-0.389
				c-0.098-0.155-0.146-0.328-0.146-0.521c0-0.21,0.06-0.407,0.179-0.591c0.12-0.183,0.295-0.322,0.524-0.417
				s0.485-0.143,0.767-0.143c0.31,0,0.582,0.05,0.818,0.149s0.419,0.247,0.546,0.44s0.195,0.413,0.205,0.658l-0.53,0.04
				c-0.028-0.265-0.125-0.464-0.289-0.599s-0.406-0.202-0.728-0.202c-0.334,0-0.578,0.062-0.73,0.184
				c-0.153,0.122-0.229,0.271-0.229,0.443c0,0.149,0.055,0.273,0.162,0.37c0.106,0.097,0.385,0.196,0.834,0.298
				c0.448,0.102,0.757,0.19,0.924,0.266c0.243,0.112,0.423,0.254,0.538,0.426c0.116,0.172,0.174,0.37,0.174,0.594
				c0,0.223-0.063,0.432-0.19,0.629c-0.128,0.196-0.311,0.349-0.549,0.458s-0.506,0.164-0.805,0.164
				c-0.378,0-0.694-0.056-0.949-0.165c-0.256-0.11-0.456-0.276-0.602-0.497C151.456,25.063,151.38,24.813,151.372,24.533z"/>
		</g>
	</g>
	<g>
		<g>
			<path d="M80.65,96.971v-4.176h1.575c0.277,0,0.488,0.014,0.635,0.04c0.205,0.034,0.377,0.1,0.516,0.195s0.25,0.229,0.335,0.402
				c0.084,0.173,0.127,0.363,0.127,0.57c0,0.354-0.113,0.655-0.339,0.901c-0.227,0.246-0.635,0.369-1.226,0.369h-1.07v1.697H80.65z
				 M81.203,94.78h1.079c0.357,0,0.61-0.066,0.761-0.199c0.149-0.133,0.225-0.32,0.225-0.562c0-0.175-0.044-0.324-0.132-0.448
				c-0.089-0.124-0.205-0.207-0.35-0.246c-0.093-0.025-0.265-0.037-0.516-0.037h-1.067V94.78z"/>
			<path d="M84.55,96.971v-4.176H86.4c0.373,0,0.655,0.037,0.85,0.112c0.193,0.075,0.348,0.208,0.464,0.397
				c0.116,0.19,0.174,0.399,0.174,0.63c0,0.296-0.096,0.546-0.288,0.749c-0.191,0.203-0.487,0.332-0.889,0.388
				c0.146,0.069,0.258,0.139,0.334,0.207c0.161,0.148,0.313,0.334,0.458,0.556l0.727,1.137h-0.695l-0.553-0.869
				c-0.161-0.25-0.294-0.442-0.398-0.575s-0.198-0.226-0.28-0.279c-0.083-0.053-0.167-0.09-0.252-0.11
				c-0.063-0.014-0.165-0.021-0.308-0.021h-0.642v1.854H84.55z M85.102,94.638h1.188c0.252,0,0.45-0.026,0.592-0.078
				c0.143-0.052,0.251-0.136,0.325-0.251c0.074-0.114,0.111-0.239,0.111-0.374c0-0.197-0.072-0.36-0.216-0.487
				c-0.143-0.127-0.369-0.19-0.679-0.19h-1.322V94.638z"/>
			<path d="M88.586,94.937c0-0.692,0.186-1.235,0.558-1.627c0.373-0.393,0.854-0.589,1.441-0.589c0.386,0,0.733,0.093,1.043,0.276
				c0.31,0.185,0.545,0.441,0.708,0.771c0.162,0.33,0.243,0.703,0.243,1.121c0,0.423-0.085,0.802-0.256,1.137
				c-0.171,0.334-0.413,0.587-0.727,0.759s-0.651,0.258-1.015,0.258c-0.393,0-0.744-0.095-1.054-0.285
				c-0.31-0.189-0.544-0.449-0.703-0.777C88.665,95.651,88.586,95.304,88.586,94.937z M89.155,94.945
				c0,0.504,0.136,0.899,0.406,1.189c0.271,0.289,0.609,0.435,1.018,0.435c0.416,0,0.759-0.146,1.027-0.438
				c0.269-0.293,0.403-0.708,0.403-1.245c0-0.34-0.058-0.637-0.173-0.891c-0.114-0.253-0.283-0.449-0.504-0.589
				c-0.222-0.14-0.47-0.21-0.745-0.21c-0.391,0-0.728,0.135-1.01,0.403S89.155,94.317,89.155,94.945z"/>
			<path d="M96.271,95.507l0.553,0.14c-0.116,0.453-0.324,0.8-0.626,1.038c-0.301,0.238-0.669,0.357-1.104,0.357
				c-0.45,0-0.816-0.092-1.098-0.275c-0.282-0.183-0.497-0.448-0.644-0.796c-0.147-0.348-0.221-0.721-0.221-1.119
				c0-0.435,0.083-0.814,0.249-1.138c0.166-0.324,0.402-0.57,0.709-0.738s0.645-0.252,1.013-0.252c0.418,0,0.769,0.106,1.054,0.319
				s0.483,0.512,0.596,0.897l-0.544,0.128c-0.098-0.304-0.238-0.525-0.422-0.664c-0.185-0.139-0.416-0.208-0.695-0.208
				c-0.32,0-0.589,0.077-0.805,0.231c-0.215,0.153-0.367,0.36-0.454,0.619s-0.131,0.526-0.131,0.802c0,0.355,0.052,0.665,0.155,0.93
				c0.104,0.266,0.265,0.463,0.482,0.594c0.219,0.132,0.455,0.197,0.709,0.197c0.31,0,0.572-0.09,0.786-0.268
				C96.05,96.123,96.195,95.858,96.271,95.507z"/>
			<path d="M97.516,96.971v-4.176h3.019v0.493h-2.467v1.278h2.311v0.49h-2.311v1.421h2.563v0.493H97.516z"/>
			<path d="M101.207,95.629l0.521-0.045c0.024,0.208,0.082,0.38,0.173,0.514c0.09,0.134,0.229,0.242,0.42,0.325
				c0.189,0.082,0.403,0.123,0.641,0.123c0.211,0,0.396-0.031,0.559-0.094c0.161-0.063,0.281-0.148,0.36-0.258
				c0.078-0.109,0.118-0.229,0.118-0.357c0-0.131-0.038-0.245-0.114-0.343s-0.201-0.181-0.376-0.247
				c-0.112-0.043-0.359-0.111-0.743-0.203s-0.652-0.179-0.807-0.261c-0.199-0.104-0.348-0.234-0.445-0.389
				c-0.098-0.155-0.146-0.328-0.146-0.521c0-0.21,0.06-0.407,0.179-0.591c0.12-0.183,0.295-0.322,0.524-0.417
				s0.485-0.143,0.767-0.143c0.31,0,0.582,0.05,0.818,0.149s0.419,0.247,0.546,0.44s0.195,0.413,0.205,0.658l-0.53,0.04
				c-0.028-0.265-0.125-0.464-0.289-0.599s-0.406-0.202-0.728-0.202c-0.334,0-0.578,0.062-0.73,0.184
				c-0.153,0.122-0.229,0.271-0.229,0.443c0,0.149,0.055,0.273,0.162,0.37c0.106,0.097,0.385,0.196,0.834,0.298
				c0.448,0.102,0.757,0.19,0.924,0.266c0.243,0.112,0.423,0.254,0.538,0.426c0.116,0.172,0.174,0.37,0.174,0.594
				c0,0.223-0.063,0.432-0.19,0.629c-0.128,0.196-0.311,0.349-0.549,0.458s-0.506,0.164-0.805,0.164
				c-0.378,0-0.694-0.056-0.949-0.165c-0.256-0.11-0.456-0.276-0.602-0.497C101.291,96.158,101.215,95.908,101.207,95.629z"/>
			<path d="M105.118,94.937c0-0.692,0.186-1.235,0.558-1.627c0.373-0.393,0.854-0.589,1.441-0.589c0.386,0,0.733,0.093,1.043,0.276
				c0.31,0.185,0.545,0.441,0.708,0.771c0.162,0.33,0.243,0.703,0.243,1.121c0,0.423-0.085,0.802-0.256,1.137
				c-0.171,0.334-0.413,0.587-0.727,0.759s-0.651,0.258-1.015,0.258c-0.393,0-0.744-0.095-1.054-0.285
				c-0.31-0.189-0.544-0.449-0.703-0.777C105.197,95.651,105.118,95.304,105.118,94.937z M105.688,94.945
				c0,0.504,0.136,0.899,0.406,1.189c0.271,0.289,0.609,0.435,1.018,0.435c0.416,0,0.759-0.146,1.027-0.438
				c0.269-0.293,0.403-0.708,0.403-1.245c0-0.34-0.058-0.637-0.173-0.891c-0.114-0.253-0.283-0.449-0.504-0.589
				c-0.222-0.14-0.47-0.21-0.745-0.21c-0.391,0-0.728,0.135-1.01,0.403S105.688,94.317,105.688,94.945z"/>
			<path d="M109.635,95.629l0.521-0.045c0.024,0.208,0.082,0.38,0.173,0.514c0.09,0.134,0.229,0.242,0.42,0.325
				c0.189,0.082,0.403,0.123,0.641,0.123c0.211,0,0.396-0.031,0.559-0.094c0.161-0.063,0.281-0.148,0.36-0.258
				c0.078-0.109,0.118-0.229,0.118-0.357c0-0.131-0.038-0.245-0.114-0.343s-0.201-0.181-0.376-0.247
				c-0.112-0.043-0.359-0.111-0.743-0.203s-0.652-0.179-0.807-0.261c-0.199-0.104-0.348-0.234-0.445-0.389
				c-0.098-0.155-0.146-0.328-0.146-0.521c0-0.21,0.06-0.407,0.179-0.591c0.12-0.183,0.295-0.322,0.524-0.417
				s0.485-0.143,0.767-0.143c0.31,0,0.582,0.05,0.818,0.149s0.419,0.247,0.546,0.44s0.195,0.413,0.205,0.658l-0.53,0.04
				c-0.028-0.265-0.125-0.464-0.289-0.599s-0.406-0.202-0.728-0.202c-0.334,0-0.578,0.062-0.73,0.184
				c-0.153,0.122-0.229,0.271-0.229,0.443c0,0.149,0.055,0.273,0.162,0.37c0.106,0.097,0.385,0.196,0.834,0.298
				c0.448,0.102,0.757,0.19,0.924,0.266c0.243,0.112,0.423,0.254,0.538,0.426c0.116,0.172,0.174,0.37,0.174,0.594
				c0,0.223-0.063,0.432-0.19,0.629c-0.128,0.196-0.311,0.349-0.549,0.458s-0.506,0.164-0.805,0.164
				c-0.378,0-0.694-0.056-0.949-0.165c-0.256-0.11-0.456-0.276-0.602-0.497C109.719,96.158,109.643,95.908,109.635,95.629z"/>
			<path d="M115.317,96.971v-4.176h0.832l0.988,2.957c0.091,0.275,0.158,0.481,0.199,0.618c0.048-0.152,0.122-0.375,0.223-0.67
				l1-2.905h0.743v4.176h-0.533v-3.495l-1.213,3.495h-0.499l-1.207-3.555v3.555H115.317z"/>
			<path d="M120.288,96.971v-4.176h0.553v4.176H120.288z"/>
			<path d="M121.627,95.629l0.521-0.045c0.024,0.208,0.082,0.38,0.173,0.514c0.09,0.134,0.229,0.242,0.42,0.325
				c0.189,0.082,0.403,0.123,0.641,0.123c0.211,0,0.396-0.031,0.559-0.094c0.161-0.063,0.281-0.148,0.36-0.258
				c0.078-0.109,0.118-0.229,0.118-0.357c0-0.131-0.038-0.245-0.114-0.343s-0.201-0.181-0.376-0.247
				c-0.112-0.043-0.359-0.111-0.743-0.203s-0.652-0.179-0.807-0.261c-0.199-0.104-0.348-0.234-0.445-0.389
				c-0.098-0.155-0.146-0.328-0.146-0.521c0-0.21,0.06-0.407,0.179-0.591c0.12-0.183,0.295-0.322,0.524-0.417
				s0.485-0.143,0.767-0.143c0.31,0,0.582,0.05,0.818,0.149s0.419,0.247,0.546,0.44s0.195,0.413,0.205,0.658l-0.53,0.04
				c-0.028-0.265-0.125-0.464-0.289-0.599s-0.406-0.202-0.728-0.202c-0.334,0-0.578,0.062-0.73,0.184
				c-0.153,0.122-0.229,0.271-0.229,0.443c0,0.149,0.055,0.273,0.162,0.37c0.106,0.097,0.385,0.196,0.834,0.298
				c0.448,0.102,0.757,0.19,0.924,0.266c0.243,0.112,0.423,0.254,0.538,0.426c0.116,0.172,0.174,0.37,0.174,0.594
				c0,0.223-0.063,0.432-0.19,0.629c-0.128,0.196-0.311,0.349-0.549,0.458s-0.506,0.164-0.805,0.164
				c-0.378,0-0.694-0.056-0.949-0.165c-0.256-0.11-0.456-0.276-0.602-0.497C121.711,96.158,121.635,95.908,121.627,95.629z"/>
			<path d="M125.8,96.971v-4.176h0.553v4.176H125.8z"/>
			<path d="M127.159,94.937c0-0.692,0.186-1.235,0.558-1.627c0.373-0.393,0.854-0.589,1.441-0.589c0.386,0,0.733,0.093,1.043,0.276
				c0.31,0.185,0.545,0.441,0.708,0.771c0.162,0.33,0.243,0.703,0.243,1.121c0,0.423-0.085,0.802-0.256,1.137
				c-0.171,0.334-0.413,0.587-0.727,0.759s-0.651,0.258-1.015,0.258c-0.393,0-0.744-0.095-1.054-0.285
				c-0.31-0.189-0.544-0.449-0.703-0.777C127.238,95.651,127.159,95.304,127.159,94.937z M127.729,94.945
				c0,0.504,0.136,0.899,0.406,1.189c0.271,0.289,0.609,0.435,1.018,0.435c0.416,0,0.759-0.146,1.027-0.438
				c0.269-0.293,0.403-0.708,0.403-1.245c0-0.34-0.058-0.637-0.173-0.891c-0.114-0.253-0.283-0.449-0.504-0.589
				c-0.222-0.14-0.47-0.21-0.745-0.21c-0.391,0-0.728,0.135-1.01,0.403S127.729,94.317,127.729,94.945z"/>
			<path d="M131.858,96.971v-4.176h0.566l2.193,3.278v-3.278h0.53v4.176h-0.567l-2.192-3.281v3.281H131.858z"/>
			<path d="M135.618,96.971l1.604-4.176h0.596l1.709,4.176h-0.63l-0.486-1.265h-1.746l-0.459,1.265H135.618z M136.823,95.256h1.416
				l-0.437-1.156c-0.133-0.352-0.231-0.64-0.296-0.866c-0.053,0.268-0.128,0.534-0.225,0.798L136.823,95.256z"/>
			<path d="M139.945,96.971v-4.176h0.552v3.683h2.057v0.493H139.945z"/>
			<path d="M143.224,96.971v-4.176h3.019v0.493h-2.467v1.278h2.311v0.49h-2.311v1.421h2.563v0.493H143.224z"/>
			<path d="M146.915,95.629l0.521-0.045c0.024,0.208,0.082,0.38,0.173,0.514c0.09,0.134,0.229,0.242,0.42,0.325
				c0.189,0.082,0.403,0.123,0.641,0.123c0.211,0,0.396-0.031,0.559-0.094c0.161-0.063,0.281-0.148,0.36-0.258
				c0.078-0.109,0.118-0.229,0.118-0.357c0-0.131-0.038-0.245-0.114-0.343s-0.201-0.181-0.376-0.247
				c-0.112-0.043-0.359-0.111-0.743-0.203s-0.652-0.179-0.807-0.261c-0.199-0.104-0.348-0.234-0.445-0.389
				c-0.098-0.155-0.146-0.328-0.146-0.521c0-0.21,0.06-0.407,0.179-0.591c0.12-0.183,0.295-0.322,0.524-0.417
				s0.485-0.143,0.767-0.143c0.31,0,0.582,0.05,0.818,0.149s0.419,0.247,0.546,0.44s0.195,0.413,0.205,0.658l-0.53,0.04
				c-0.028-0.265-0.125-0.464-0.289-0.599s-0.406-0.202-0.728-0.202c-0.334,0-0.578,0.062-0.73,0.184
				c-0.153,0.122-0.229,0.271-0.229,0.443c0,0.149,0.055,0.273,0.162,0.37c0.106,0.097,0.385,0.196,0.834,0.298
				c0.448,0.102,0.757,0.19,0.924,0.266c0.243,0.112,0.423,0.254,0.538,0.426c0.116,0.172,0.174,0.37,0.174,0.594
				c0,0.223-0.063,0.432-0.19,0.629c-0.128,0.196-0.311,0.349-0.549,0.458s-0.506,0.164-0.805,0.164
				c-0.378,0-0.694-0.056-0.949-0.165c-0.256-0.11-0.456-0.276-0.602-0.497C146.999,96.158,146.923,95.908,146.915,95.629z"/>
		</g>
	</g>
	<g>
		<path d="M21.107,43.712h-2.102l-2.961-7.365l-1.54,7.365h-2.102l2.288-10.961H16.8l2.969,7.335l1.533-7.335h2.093L21.107,43.712z"
			/>
	</g>
	<g>
		<path d="M13.049,58.259l2.288-10.961h8.128l-0.382,1.831h-5.869l-0.523,2.49h5.675l-0.381,1.832h-5.676l-0.688,2.976h6.378
			l-0.389,1.832H13.049z"/>
	</g>
	<g>
		<path d="M20.713,68.859l2.273,0.345c-0.444,1.23-1.109,2.172-1.996,2.822c-0.888,0.65-1.927,0.976-3.118,0.976
			c-1.341,0-2.389-0.403-3.145-1.211c-0.755-0.808-1.133-1.979-1.133-3.515c0-1.246,0.253-2.386,0.759-3.421
			c0.506-1.034,1.208-1.825,2.105-2.374c0.897-0.548,1.874-0.822,2.931-0.822c1.187,0,2.146,0.318,2.879,0.953
			c0.732,0.636,1.164,1.502,1.293,2.599l-2.16,0.209c-0.12-0.638-0.351-1.1-0.692-1.387c-0.341-0.286-0.796-0.43-1.364-0.43
			c-0.623,0-1.205,0.189-1.746,0.568s-0.973,0.971-1.297,1.775c-0.324,0.806-0.486,1.609-0.486,2.411
			c0,0.878,0.211,1.556,0.632,2.034c0.422,0.479,0.946,0.718,1.574,0.718c0.583,0,1.118-0.189,1.604-0.568
			C20.111,70.163,20.474,69.603,20.713,68.859z"/>
	</g>
	<g>
		<path d="M13.049,87.354l2.288-10.961h8.128l-0.382,1.831h-5.869l-0.523,2.49h5.675l-0.381,1.832h-5.676l-0.688,2.976h6.378
			l-0.389,1.832H13.049z"/>
	</g>
	<g>
		<path d="M13.116,98.349l2.146-0.112c0.029,0.684,0.146,1.145,0.352,1.384c0.328,0.389,0.937,0.583,1.824,0.583
			c0.737,0,1.271-0.132,1.6-0.396c0.329-0.264,0.494-0.583,0.494-0.957c0-0.324-0.135-0.598-0.404-0.822
			c-0.189-0.164-0.709-0.431-1.559-0.8c-0.851-0.369-1.471-0.677-1.862-0.924c-0.391-0.247-0.699-0.566-0.923-0.961
			c-0.225-0.394-0.337-0.854-0.337-1.383c0-0.922,0.334-1.688,1.002-2.296c0.668-0.607,1.635-0.912,2.901-0.912
			c1.286,0,2.281,0.302,2.987,0.905c0.705,0.603,1.093,1.405,1.162,2.407l-2.161,0.098c-0.055-0.523-0.244-0.925-0.567-1.204
			c-0.324-0.279-0.803-0.419-1.436-0.419c-0.624,0-1.068,0.109-1.335,0.329s-0.4,0.496-0.4,0.83c0,0.313,0.122,0.573,0.366,0.777
			c0.244,0.21,0.785,0.496,1.623,0.86c1.261,0.543,2.063,0.984,2.407,1.323c0.514,0.498,0.771,1.139,0.771,1.922
			c0,0.967-0.383,1.793-1.147,2.479c-0.766,0.686-1.831,1.027-3.197,1.027c-0.941,0-1.758-0.158-2.448-0.475
			s-1.178-0.756-1.462-1.319S13.097,99.082,13.116,98.349z"/>
	</g>
	<g>
		<path d="M14.651,116.448l2.295-10.961h2.251l-2.288,10.961H14.651z"/>
	</g>
	<g>
		<path d="M12.519,130.995l2.296-10.961h2.953c0.822,0,1.349,0.012,1.578,0.037c0.453,0.045,0.858,0.137,1.215,0.276
			s0.681,0.336,0.972,0.587c0.292,0.252,0.544,0.555,0.756,0.908c0.211,0.354,0.375,0.762,0.489,1.223
			c0.114,0.462,0.172,0.966,0.172,1.515c0,1.181-0.226,2.229-0.677,3.144c-0.451,0.915-1.018,1.642-1.701,2.18
			c-0.523,0.419-1.198,0.728-2.025,0.928c-0.469,0.109-1.189,0.164-2.161,0.164H12.519z M15.144,129.23h1.144
			c0.828,0,1.427-0.051,1.799-0.153c0.371-0.102,0.711-0.293,1.021-0.572c0.443-0.403,0.817-0.941,1.121-1.614
			c0.305-0.673,0.456-1.466,0.456-2.378c0-0.777-0.126-1.362-0.377-1.754c-0.252-0.391-0.563-0.651-0.932-0.781
			c-0.259-0.09-0.72-0.135-1.383-0.135h-1.309L15.144,129.23z"/>
	</g>
	<g>
		<path d="M19.659,143.121h-4.344l-1.316,2.423h-2.317l6.198-10.961h2.505l1.779,10.961h-2.138L19.659,143.121z M19.383,141.297
			l-0.636-4.411l-2.646,4.411H19.383z"/>
	</g>
	<g>
		<path d="M12.519,160.09l2.296-10.961h2.953c0.822,0,1.349,0.012,1.578,0.037c0.453,0.045,0.858,0.137,1.215,0.276
			s0.681,0.336,0.972,0.587c0.292,0.252,0.544,0.555,0.756,0.908c0.211,0.354,0.375,0.762,0.489,1.223
			c0.114,0.462,0.172,0.966,0.172,1.515c0,1.181-0.226,2.229-0.677,3.144c-0.451,0.915-1.018,1.642-1.701,2.18
			c-0.523,0.419-1.198,0.728-2.025,0.928c-0.469,0.109-1.189,0.164-2.161,0.164H12.519z M15.144,158.325h1.144
			c0.828,0,1.427-0.051,1.799-0.153c0.371-0.102,0.711-0.293,1.021-0.572c0.443-0.403,0.817-0.941,1.121-1.614
			c0.305-0.673,0.456-1.466,0.456-2.378c0-0.777-0.126-1.362-0.377-1.754c-0.252-0.391-0.563-0.651-0.932-0.781
			c-0.259-0.09-0.72-0.135-1.383-0.135h-1.309L15.144,158.325z"/>
	</g>
	<g>
		<path d="M13.049,174.637l2.288-10.961h8.128l-0.382,1.831h-5.869l-0.523,2.49h5.675l-0.381,1.832h-5.676l-0.688,2.976h6.378
			l-0.389,1.832H13.049z"/>
	</g>
	<g>
		<path d="M13.116,185.633l2.146-0.112c0.029,0.684,0.146,1.145,0.352,1.384c0.328,0.389,0.937,0.583,1.824,0.583
			c0.737,0,1.271-0.132,1.6-0.396c0.329-0.264,0.494-0.583,0.494-0.957c0-0.324-0.135-0.598-0.404-0.822
			c-0.189-0.164-0.709-0.431-1.559-0.8c-0.851-0.369-1.471-0.677-1.862-0.924c-0.391-0.247-0.699-0.566-0.923-0.961
			c-0.225-0.394-0.337-0.854-0.337-1.383c0-0.922,0.334-1.688,1.002-2.296c0.668-0.607,1.635-0.912,2.901-0.912
			c1.286,0,2.281,0.302,2.987,0.905c0.705,0.603,1.093,1.405,1.162,2.407l-2.161,0.098c-0.055-0.523-0.244-0.925-0.567-1.204
			c-0.324-0.279-0.803-0.419-1.436-0.419c-0.624,0-1.068,0.109-1.335,0.329s-0.4,0.496-0.4,0.83c0,0.313,0.122,0.573,0.366,0.777
			c0.244,0.21,0.785,0.496,1.623,0.86c1.261,0.543,2.063,0.984,2.407,1.323c0.514,0.498,0.771,1.139,0.771,1.922
			c0,0.967-0.383,1.793-1.147,2.479c-0.766,0.686-1.831,1.027-3.197,1.027c-0.941,0-1.758-0.158-2.448-0.475
			s-1.178-0.756-1.462-1.319S13.097,186.366,13.116,185.633z"/>
	</g>
	<g>
		<path d="M8.311,61.585l2.273,0.345c-0.444,1.23-1.109,2.172-1.996,2.822c-0.888,0.65-1.927,0.976-3.118,0.976
			c-1.341,0-2.389-0.403-3.145-1.211c-0.755-0.808-1.133-1.979-1.133-3.515c0-1.246,0.253-2.386,0.759-3.421
			c0.506-1.034,1.208-1.825,2.105-2.374c0.897-0.548,1.874-0.822,2.931-0.822c1.187,0,2.146,0.318,2.879,0.953
			c0.732,0.636,1.164,1.502,1.293,2.599l-2.16,0.209c-0.12-0.638-0.351-1.1-0.692-1.387c-0.341-0.286-0.796-0.43-1.364-0.43
			c-0.623,0-1.205,0.189-1.746,0.568s-0.973,0.971-1.297,1.775c-0.324,0.806-0.486,1.609-0.486,2.411
			c0,0.878,0.211,1.556,0.632,2.034c0.422,0.479,0.946,0.718,1.574,0.718c0.583,0,1.118-0.189,1.604-0.568
			C7.709,62.889,8.071,62.328,8.311,61.585z"/>
	</g>
	<g>
		<path d="M0.996,80.08l2.296-10.961h2.251l-1.907,9.129h5.578L8.832,80.08H0.996z"/>
	</g>
	<g>
		<path d="M2.247,94.628l2.295-10.961h2.251L4.505,94.628H2.247z"/>
	</g>
	<g>
		<path d="M0.646,109.175l2.288-10.961h8.128l-0.382,1.831H4.811l-0.523,2.49h5.675l-0.381,1.832H3.905l-0.688,2.976h6.378
			l-0.389,1.832H0.646z"/>
	</g>
	<g>
		<path d="M8.704,123.723H6.603l-2.961-7.365l-1.54,7.365H0l2.288-10.961h2.108l2.969,7.335l1.533-7.335h2.093L8.704,123.723z"/>
	</g>
	<g>
		<path d="M5.569,138.27H3.312l1.914-9.13H2.01l0.382-1.831h8.636l-0.381,1.831H7.476L5.569,138.27z"/>
	</g>
	<g>
		<path d="M0.646,152.815l2.288-10.961h8.128l-0.382,1.831H4.811l-0.523,2.49h5.675l-0.381,1.832H3.905l-0.688,2.976h6.378
			l-0.389,1.832H0.646z"/>
	</g>
	<g>
		<path d="M0.697,163.813l2.146-0.112c0.029,0.684,0.146,1.145,0.352,1.384c0.328,0.389,0.937,0.583,1.824,0.583
			c0.737,0,1.271-0.132,1.6-0.396c0.329-0.264,0.494-0.583,0.494-0.957c0-0.324-0.135-0.598-0.404-0.822
			c-0.189-0.164-0.709-0.431-1.559-0.8c-0.851-0.369-1.471-0.677-1.862-0.924c-0.391-0.247-0.699-0.566-0.923-0.961
			c-0.225-0.394-0.337-0.854-0.337-1.383c0-0.922,0.334-1.688,1.002-2.296c0.668-0.607,1.635-0.912,2.901-0.912
			c1.286,0,2.281,0.302,2.987,0.905c0.705,0.603,1.093,1.405,1.162,2.407l-2.161,0.098c-0.055-0.523-0.244-0.925-0.567-1.204
			c-0.324-0.279-0.803-0.419-1.436-0.419c-0.624,0-1.068,0.109-1.335,0.329s-0.4,0.496-0.4,0.83c0,0.313,0.122,0.573,0.366,0.777
			c0.244,0.21,0.785,0.496,1.623,0.86c1.261,0.543,2.063,0.984,2.407,1.323c0.514,0.498,0.771,1.139,0.771,1.922
			c0,0.967-0.383,1.793-1.147,2.479c-0.766,0.686-1.831,1.027-3.197,1.027c-0.941,0-1.758-0.158-2.448-0.475
			s-1.178-0.756-1.462-1.319S0.678,164.546,0.697,163.813z"/>
	</g>
	<g>
		<g>
			<path d="M236.104,36.224l2.146-0.112c0.029,0.684,0.146,1.145,0.352,1.384c0.328,0.389,0.937,0.583,1.824,0.583
				c0.737,0,1.271-0.132,1.6-0.396c0.329-0.264,0.494-0.583,0.494-0.957c0-0.324-0.135-0.598-0.404-0.822
				c-0.189-0.164-0.709-0.431-1.559-0.8c-0.851-0.369-1.471-0.677-1.862-0.924c-0.391-0.247-0.699-0.566-0.923-0.961
				c-0.225-0.394-0.337-0.854-0.337-1.383c0-0.922,0.334-1.688,1.002-2.296c0.668-0.607,1.635-0.912,2.901-0.912
				c1.286,0,2.281,0.302,2.987,0.905c0.705,0.603,1.093,1.405,1.162,2.407l-2.161,0.098c-0.055-0.523-0.244-0.925-0.567-1.204
				c-0.324-0.279-0.803-0.419-1.436-0.419c-0.624,0-1.068,0.109-1.335,0.329s-0.4,0.496-0.4,0.83c0,0.313,0.122,0.573,0.366,0.777
				c0.244,0.21,0.785,0.496,1.623,0.86c1.261,0.543,2.063,0.984,2.407,1.323c0.514,0.498,0.771,1.139,0.771,1.922
				c0,0.967-0.383,1.793-1.147,2.479c-0.766,0.686-1.831,1.027-3.197,1.027c-0.941,0-1.758-0.158-2.448-0.475
				s-1.178-0.756-1.462-1.319S236.084,36.957,236.104,36.224z"/>
		</g>
	</g>
	<g>
		<g>
			<path d="M242.688,49.821h-4.344l-1.316,2.423h-2.317l6.198-10.961h2.505l1.779,10.961h-2.138L242.688,49.821z M242.411,47.997
				l-0.636-4.411l-2.646,4.411H242.411z"/>
		</g>
	</g>
	<g>
		<g>
			<path d="M240.897,64.713h-2.258l1.914-9.13h-3.216l0.382-1.831h8.636l-0.381,1.831h-3.171L240.897,64.713z"/>
		</g>
	</g>
	<g>
		<g>
			<path d="M237.355,77.182l2.295-10.961h2.251l-2.288,10.961H237.355z"/>
		</g>
	</g>
	<g>
		<g>
			<path d="M236.091,86.099l2.146-0.112c0.029,0.684,0.146,1.145,0.352,1.384c0.328,0.389,0.937,0.583,1.824,0.583
				c0.737,0,1.271-0.132,1.6-0.396c0.329-0.264,0.494-0.583,0.494-0.957c0-0.324-0.135-0.598-0.404-0.822
				c-0.189-0.164-0.709-0.431-1.559-0.8c-0.851-0.369-1.471-0.677-1.862-0.924c-0.391-0.247-0.699-0.566-0.923-0.961
				c-0.225-0.394-0.337-0.854-0.337-1.383c0-0.922,0.334-1.688,1.002-2.296c0.668-0.607,1.635-0.912,2.901-0.912
				c1.286,0,2.281,0.302,2.987,0.905c0.705,0.603,1.093,1.405,1.162,2.407l-2.161,0.098c-0.055-0.523-0.244-0.925-0.567-1.204
				c-0.324-0.279-0.803-0.419-1.436-0.419c-0.624,0-1.068,0.109-1.335,0.329s-0.4,0.496-0.4,0.83c0,0.313,0.122,0.573,0.366,0.777
				c0.244,0.21,0.785,0.496,1.623,0.86c1.261,0.543,2.063,0.984,2.407,1.323c0.514,0.498,0.771,1.139,0.771,1.922
				c0,0.967-0.383,1.793-1.147,2.479c-0.766,0.686-1.831,1.027-3.197,1.027c-0.941,0-1.758-0.158-2.448-0.475
				s-1.178-0.756-1.462-1.319S236.071,86.832,236.091,86.099z"/>
		</g>
	</g>
	<g>
		<g>
			<path d="M236.085,102.119l2.295-10.961h7.672l-0.39,1.831h-5.413l-0.553,2.633h5.309l-0.382,1.831h-5.309l-0.972,4.666H236.085z"
				/>
		</g>
	</g>
	<g>
		<g>
			<path d="M242.675,112.165h-4.344l-1.316,2.423h-2.317l6.198-10.961h2.505l1.779,10.961h-2.138L242.675,112.165z M242.398,110.341
				l-0.636-4.411l-2.646,4.411H242.398z"/>
		</g>
	</g>
	<g>
		<g>
			<path d="M243.688,123.11l2.273,0.345c-0.444,1.23-1.109,2.172-1.996,2.822c-0.888,0.65-1.927,0.976-3.118,0.976
				c-1.341,0-2.389-0.403-3.145-1.211c-0.755-0.808-1.133-1.979-1.133-3.515c0-1.246,0.253-2.386,0.759-3.421
				c0.506-1.034,1.208-1.825,2.105-2.374c0.897-0.548,1.874-0.822,2.931-0.822c1.187,0,2.146,0.318,2.879,0.953
				c0.732,0.636,1.164,1.502,1.293,2.599l-2.16,0.209c-0.12-0.638-0.351-1.1-0.692-1.387c-0.341-0.286-0.796-0.43-1.364-0.43
				c-0.623,0-1.205,0.189-1.746,0.568s-0.973,0.971-1.297,1.775c-0.324,0.806-0.486,1.609-0.486,2.411
				c0,0.878,0.211,1.556,0.632,2.034c0.422,0.479,0.946,0.718,1.574,0.718c0.583,0,1.118-0.189,1.604-0.568
				C243.086,124.414,243.448,123.854,243.688,123.11z"/>
		</g>
	</g>
	<g>
		<g>
			<path d="M243.688,135.579l2.273,0.345c-0.444,1.23-1.109,2.172-1.996,2.822c-0.888,0.65-1.927,0.976-3.118,0.976
				c-1.341,0-2.389-0.403-3.145-1.211c-0.755-0.808-1.133-1.979-1.133-3.515c0-1.246,0.253-2.386,0.759-3.421
				c0.506-1.034,1.208-1.825,2.105-2.374c0.897-0.548,1.874-0.822,2.931-0.822c1.187,0,2.146,0.318,2.879,0.953
				c0.732,0.636,1.164,1.502,1.293,2.599l-2.16,0.209c-0.12-0.638-0.351-1.1-0.692-1.387c-0.341-0.286-0.796-0.43-1.364-0.43
				c-0.623,0-1.205,0.189-1.746,0.568s-0.973,0.971-1.297,1.775c-0.324,0.806-0.486,1.609-0.486,2.411
				c0,0.878,0.211,1.556,0.632,2.034c0.422,0.479,0.946,0.718,1.574,0.718c0.583,0,1.118-0.189,1.604-0.568
				C243.086,136.883,243.448,136.322,243.688,135.579z"/>
		</g>
	</g>
	<g>
		<g>
			<path d="M237.355,151.996l2.295-10.961h2.251l-2.288,10.961H237.355z"/>
		</g>
	</g>
	<g>
		<g>
			<path d="M236.221,160.166c0-0.648,0.097-1.331,0.291-2.049c0.254-0.962,0.642-1.797,1.163-2.505
				c0.521-0.708,1.178-1.268,1.97-1.679c0.793-0.411,1.695-0.617,2.707-0.617c1.355,0,2.451,0.422,3.286,1.264
				c0.835,0.843,1.252,1.959,1.252,3.35c0,1.156-0.271,2.275-0.814,3.357c-0.544,1.082-1.281,1.914-2.214,2.497
				c-0.932,0.583-1.986,0.875-3.162,0.875c-1.022,0-1.88-0.231-2.572-0.695c-0.693-0.464-1.184-1.038-1.473-1.724
				C236.364,161.555,236.221,160.863,236.221,160.166z M238.448,160.121c0,0.752,0.229,1.383,0.688,1.892
				c0.458,0.508,1.062,0.763,1.809,0.763c0.608,0,1.193-0.201,1.754-0.603s1.024-1.009,1.391-1.824
				c0.366-0.814,0.55-1.608,0.55-2.381c0-0.862-0.232-1.539-0.695-2.03c-0.464-0.491-1.055-0.736-1.772-0.736
				c-1.102,0-1.998,0.513-2.688,1.54C238.794,157.768,238.448,158.895,238.448,160.121z"/>
		</g>
	</g>
	<g>
		<g>
			<path d="M244.143,176.934h-2.102l-2.961-7.365l-1.54,7.365h-2.102l2.288-10.961h2.108l2.969,7.335l1.533-7.335h2.093
				L244.143,176.934z"/>
		</g>
	</g>
	<g>
		<g>
			<path d="M235.996,189.404l2.288-10.961h8.128l-0.382,1.831h-5.869l-0.523,2.49h5.675l-0.381,1.832h-5.676l-0.688,2.976h6.378
				l-0.389,1.832H235.996z"/>
		</g>
	</g>
	<g>
		<g>
			<path d="M236.091,198.321l2.146-0.112c0.029,0.684,0.146,1.145,0.352,1.384c0.328,0.389,0.937,0.583,1.824,0.583
				c0.737,0,1.271-0.132,1.6-0.396c0.329-0.264,0.494-0.583,0.494-0.957c0-0.324-0.135-0.598-0.404-0.822
				c-0.189-0.164-0.709-0.431-1.559-0.8c-0.851-0.369-1.471-0.677-1.862-0.924c-0.391-0.247-0.699-0.566-0.923-0.961
				c-0.225-0.394-0.337-0.854-0.337-1.383c0-0.922,0.334-1.688,1.002-2.296c0.668-0.607,1.635-0.912,2.901-0.912
				c1.286,0,2.281,0.302,2.987,0.905c0.705,0.603,1.093,1.405,1.162,2.407l-2.161,0.098c-0.055-0.523-0.244-0.925-0.567-1.204
				c-0.324-0.279-0.803-0.419-1.436-0.419c-0.624,0-1.068,0.109-1.335,0.329s-0.4,0.496-0.4,0.83c0,0.313,0.122,0.573,0.366,0.777
				c0.244,0.21,0.785,0.496,1.623,0.86c1.261,0.543,2.063,0.984,2.407,1.323c0.514,0.498,0.771,1.139,0.771,1.922
				c0,0.967-0.383,1.793-1.147,2.479c-0.766,0.686-1.831,1.027-3.197,1.027c-0.941,0-1.758-0.158-2.448-0.475
				s-1.178-0.756-1.462-1.319S236.071,199.055,236.091,198.321z"/>
		</g>
	</g>
	<g>
		<g>
			<path d="M231.296,73.233l2.273,0.345c-0.444,1.23-1.109,2.172-1.996,2.822c-0.888,0.65-1.927,0.976-3.118,0.976
				c-1.341,0-2.389-0.403-3.145-1.211c-0.755-0.808-1.133-1.979-1.133-3.515c0-1.246,0.253-2.386,0.759-3.421
				c0.506-1.034,1.208-1.825,2.105-2.374c0.897-0.548,1.874-0.822,2.931-0.822c1.187,0,2.146,0.318,2.879,0.953
				c0.732,0.636,1.164,1.502,1.293,2.599l-2.16,0.209c-0.12-0.638-0.351-1.1-0.692-1.387c-0.341-0.286-0.796-0.43-1.364-0.43
				c-0.623,0-1.205,0.189-1.746,0.568s-0.973,0.971-1.297,1.775c-0.324,0.806-0.486,1.609-0.486,2.411
				c0,0.878,0.211,1.556,0.632,2.034c0.422,0.479,0.946,0.718,1.574,0.718c0.583,0,1.118-0.189,1.604-0.568
				C230.694,74.537,231.057,73.977,231.296,73.233z"/>
		</g>
	</g>
	<g>
		<g>
			<path d="M223.9,89.65l2.296-10.961h2.251l-1.907,9.129h5.578l-0.382,1.832H223.9z"/>
		</g>
	</g>
	<g>
		<g>
			<path d="M224.967,102.119l2.295-10.961h2.251l-2.288,10.961H224.967z"/>
		</g>
	</g>
	<g>
		<g>
			<path d="M223.606,114.588l2.288-10.961h8.128l-0.382,1.831h-5.869l-0.523,2.49h5.675l-0.381,1.832h-5.676l-0.688,2.976h6.378
				l-0.389,1.832H223.606z"/>
		</g>
	</g>
	<g>
		<g>
			<path d="M231.752,127.059h-2.102l-2.961-7.365l-1.54,7.365h-2.102l2.288-10.961h2.108l2.969,7.335l1.533-7.335h2.093
				L231.752,127.059z"/>
		</g>
	</g>
	<g>
		<g>
			<path d="M228.508,139.527h-2.258l1.914-9.13h-3.216l0.382-1.831h8.636l-0.381,1.831h-3.171L228.508,139.527z"/>
		</g>
	</g>
	<g>
		<g>
			<path d="M223.606,151.996l2.288-10.961h8.128l-0.382,1.831h-5.869l-0.523,2.49h5.675l-0.381,1.832h-5.676l-0.688,2.976h6.378
				l-0.389,1.832H223.606z"/>
		</g>
	</g>
	<g>
		<g>
			<path d="M223.699,160.913l2.146-0.112c0.029,0.684,0.146,1.145,0.352,1.384c0.328,0.389,0.937,0.583,1.824,0.583
				c0.737,0,1.271-0.132,1.6-0.396c0.329-0.264,0.494-0.583,0.494-0.957c0-0.324-0.135-0.598-0.404-0.822
				c-0.189-0.164-0.709-0.431-1.559-0.8c-0.851-0.369-1.471-0.677-1.862-0.924c-0.391-0.247-0.699-0.566-0.923-0.961
				c-0.225-0.394-0.337-0.854-0.337-1.383c0-0.922,0.334-1.688,1.002-2.296c0.668-0.607,1.635-0.912,2.901-0.912
				c1.286,0,2.281,0.302,2.987,0.905c0.705,0.603,1.093,1.405,1.162,2.407l-2.161,0.098c-0.055-0.523-0.244-0.925-0.567-1.204
				c-0.324-0.279-0.803-0.419-1.436-0.419c-0.624,0-1.068,0.109-1.335,0.329s-0.4,0.496-0.4,0.83c0,0.313,0.122,0.573,0.366,0.777
				c0.244,0.21,0.785,0.496,1.623,0.86c1.261,0.543,2.063,0.984,2.407,1.323c0.514,0.498,0.771,1.139,0.771,1.922
				c0,0.967-0.383,1.793-1.147,2.479c-0.766,0.686-1.831,1.027-3.197,1.027c-0.941,0-1.758-0.158-2.448-0.475
				s-1.178-0.756-1.462-1.319S223.68,161.646,223.699,160.913z"/>
		</g>
	</g>
	<g>
		<g>
			<path d="M82.188,155.994v-4.176h1.575c0.277,0,0.488,0.014,0.635,0.04c0.205,0.034,0.377,0.1,0.516,0.195s0.25,0.229,0.335,0.402
				c0.084,0.173,0.127,0.363,0.127,0.57c0,0.354-0.113,0.655-0.339,0.901c-0.227,0.246-0.635,0.369-1.226,0.369h-1.07v1.697H82.188z
				 M82.74,153.804h1.079c0.357,0,0.61-0.066,0.761-0.199c0.149-0.133,0.225-0.32,0.225-0.562c0-0.175-0.044-0.324-0.132-0.448
				c-0.089-0.124-0.205-0.207-0.35-0.246c-0.093-0.025-0.265-0.037-0.516-0.037H82.74V153.804z"/>
			<path d="M86.087,155.994v-4.176h1.851c0.373,0,0.655,0.037,0.85,0.112c0.193,0.075,0.348,0.208,0.464,0.397
				c0.116,0.19,0.174,0.399,0.174,0.63c0,0.296-0.096,0.546-0.288,0.749c-0.191,0.203-0.487,0.332-0.889,0.388
				c0.146,0.069,0.258,0.139,0.334,0.207c0.161,0.148,0.313,0.334,0.458,0.556l0.727,1.137h-0.695l-0.553-0.869
				c-0.161-0.25-0.294-0.442-0.398-0.575s-0.198-0.226-0.28-0.279c-0.083-0.053-0.167-0.09-0.252-0.11
				c-0.063-0.014-0.165-0.021-0.308-0.021h-0.642v1.854H86.087z M86.639,153.661h1.188c0.252,0,0.45-0.026,0.592-0.078
				c0.143-0.052,0.251-0.136,0.325-0.251c0.074-0.114,0.111-0.239,0.111-0.374c0-0.197-0.072-0.36-0.216-0.487
				c-0.143-0.127-0.369-0.19-0.679-0.19h-1.322V153.661z"/>
			<path d="M90.123,153.96c0-0.692,0.186-1.235,0.558-1.627c0.373-0.393,0.854-0.589,1.441-0.589c0.386,0,0.733,0.093,1.043,0.276
				c0.31,0.185,0.545,0.441,0.708,0.771c0.162,0.33,0.243,0.703,0.243,1.121c0,0.423-0.085,0.802-0.256,1.137
				c-0.171,0.334-0.413,0.587-0.727,0.759s-0.651,0.258-1.015,0.258c-0.393,0-0.744-0.095-1.054-0.285
				c-0.31-0.189-0.544-0.449-0.703-0.777C90.202,154.675,90.123,154.327,90.123,153.96z M90.692,153.969
				c0,0.504,0.136,0.899,0.406,1.189c0.271,0.289,0.609,0.435,1.018,0.435c0.416,0,0.759-0.146,1.027-0.438
				c0.269-0.293,0.403-0.708,0.403-1.245c0-0.34-0.058-0.637-0.173-0.891c-0.114-0.253-0.283-0.449-0.504-0.589
				c-0.222-0.14-0.47-0.21-0.745-0.21c-0.391,0-0.728,0.135-1.01,0.403S90.692,153.341,90.692,153.969z"/>
			<path d="M97.809,154.53l0.553,0.14c-0.116,0.453-0.324,0.8-0.626,1.038c-0.301,0.238-0.669,0.357-1.104,0.357
				c-0.45,0-0.816-0.092-1.098-0.275c-0.282-0.183-0.497-0.448-0.644-0.796c-0.147-0.348-0.221-0.721-0.221-1.119
				c0-0.435,0.083-0.814,0.249-1.138c0.166-0.324,0.402-0.57,0.709-0.738s0.645-0.252,1.013-0.252c0.418,0,0.769,0.106,1.054,0.319
				s0.483,0.512,0.596,0.897l-0.544,0.128c-0.098-0.304-0.238-0.525-0.422-0.664c-0.185-0.139-0.416-0.208-0.695-0.208
				c-0.32,0-0.589,0.077-0.805,0.231c-0.215,0.153-0.367,0.36-0.454,0.619s-0.131,0.526-0.131,0.802c0,0.355,0.052,0.665,0.155,0.93
				c0.104,0.266,0.265,0.463,0.482,0.594c0.219,0.132,0.455,0.197,0.709,0.197c0.31,0,0.572-0.09,0.786-0.268
				C97.587,155.146,97.732,154.882,97.809,154.53z"/>
			<path d="M99.053,155.994v-4.176h3.019v0.493h-2.467v1.278h2.311v0.49h-2.311v1.421h2.563v0.493H99.053z"/>
			<path d="M102.744,154.652l0.521-0.045c0.024,0.208,0.082,0.38,0.173,0.514c0.09,0.134,0.229,0.242,0.42,0.325
				c0.189,0.082,0.403,0.123,0.641,0.123c0.211,0,0.396-0.031,0.559-0.094c0.161-0.063,0.281-0.148,0.36-0.258
				c0.078-0.109,0.118-0.229,0.118-0.357c0-0.131-0.038-0.245-0.114-0.343s-0.201-0.181-0.376-0.247
				c-0.112-0.043-0.359-0.111-0.743-0.203s-0.652-0.179-0.807-0.261c-0.199-0.104-0.348-0.234-0.445-0.389
				c-0.098-0.155-0.146-0.328-0.146-0.521c0-0.21,0.06-0.407,0.179-0.591c0.12-0.183,0.295-0.322,0.524-0.417
				s0.485-0.143,0.767-0.143c0.31,0,0.582,0.05,0.818,0.149s0.419,0.247,0.546,0.44s0.195,0.413,0.205,0.658l-0.53,0.04
				c-0.028-0.265-0.125-0.464-0.289-0.599s-0.406-0.202-0.728-0.202c-0.334,0-0.578,0.062-0.73,0.184
				c-0.153,0.122-0.229,0.271-0.229,0.443c0,0.149,0.055,0.273,0.162,0.37c0.106,0.097,0.385,0.196,0.834,0.298
				c0.448,0.102,0.757,0.19,0.924,0.266c0.243,0.112,0.423,0.254,0.538,0.426c0.116,0.172,0.174,0.37,0.174,0.594
				c0,0.223-0.063,0.432-0.19,0.629c-0.128,0.196-0.311,0.349-0.549,0.458s-0.506,0.164-0.805,0.164
				c-0.378,0-0.694-0.056-0.949-0.165c-0.256-0.11-0.456-0.276-0.602-0.497C102.828,155.182,102.752,154.932,102.744,154.652z"/>
			<path d="M106.655,153.96c0-0.692,0.186-1.235,0.558-1.627c0.373-0.393,0.854-0.589,1.441-0.589c0.386,0,0.733,0.093,1.043,0.276
				c0.31,0.185,0.545,0.441,0.708,0.771c0.162,0.33,0.243,0.703,0.243,1.121c0,0.423-0.085,0.802-0.256,1.137
				c-0.171,0.334-0.413,0.587-0.727,0.759s-0.651,0.258-1.015,0.258c-0.393,0-0.744-0.095-1.054-0.285
				c-0.31-0.189-0.544-0.449-0.703-0.777C106.734,154.675,106.655,154.327,106.655,153.96z M107.225,153.969
				c0,0.504,0.136,0.899,0.406,1.189c0.271,0.289,0.609,0.435,1.018,0.435c0.416,0,0.759-0.146,1.027-0.438
				c0.269-0.293,0.403-0.708,0.403-1.245c0-0.34-0.058-0.637-0.173-0.891c-0.114-0.253-0.283-0.449-0.504-0.589
				c-0.222-0.14-0.47-0.21-0.745-0.21c-0.391,0-0.728,0.135-1.01,0.403S107.225,153.341,107.225,153.969z"/>
			<path d="M111.172,154.652l0.521-0.045c0.024,0.208,0.082,0.38,0.173,0.514c0.09,0.134,0.229,0.242,0.42,0.325
				c0.189,0.082,0.403,0.123,0.641,0.123c0.211,0,0.396-0.031,0.559-0.094c0.161-0.063,0.281-0.148,0.36-0.258
				c0.078-0.109,0.118-0.229,0.118-0.357c0-0.131-0.038-0.245-0.114-0.343s-0.201-0.181-0.376-0.247
				c-0.112-0.043-0.359-0.111-0.743-0.203s-0.652-0.179-0.807-0.261c-0.199-0.104-0.348-0.234-0.445-0.389
				c-0.098-0.155-0.146-0.328-0.146-0.521c0-0.21,0.06-0.407,0.179-0.591c0.12-0.183,0.295-0.322,0.524-0.417
				s0.485-0.143,0.767-0.143c0.31,0,0.582,0.05,0.818,0.149s0.419,0.247,0.546,0.44s0.195,0.413,0.205,0.658l-0.53,0.04
				c-0.028-0.265-0.125-0.464-0.289-0.599s-0.406-0.202-0.728-0.202c-0.334,0-0.578,0.062-0.73,0.184
				c-0.153,0.122-0.229,0.271-0.229,0.443c0,0.149,0.055,0.273,0.162,0.37c0.106,0.097,0.385,0.196,0.834,0.298
				c0.448,0.102,0.757,0.19,0.924,0.266c0.243,0.112,0.423,0.254,0.538,0.426c0.116,0.172,0.174,0.37,0.174,0.594
				c0,0.223-0.063,0.432-0.19,0.629c-0.128,0.196-0.311,0.349-0.549,0.458s-0.506,0.164-0.805,0.164
				c-0.378,0-0.694-0.056-0.949-0.165c-0.256-0.11-0.456-0.276-0.602-0.497C111.256,155.182,111.18,154.932,111.172,154.652z"/>
			<path d="M116.872,155.994v-4.176h1.438c0.324,0,0.572,0.02,0.743,0.06c0.239,0.056,0.443,0.155,0.612,0.3
				c0.221,0.186,0.385,0.424,0.494,0.713c0.109,0.29,0.164,0.621,0.164,0.993c0,0.316-0.037,0.598-0.111,0.843
				s-0.169,0.447-0.284,0.608c-0.116,0.16-0.243,0.286-0.381,0.379c-0.138,0.092-0.304,0.161-0.498,0.209
				c-0.195,0.048-0.419,0.071-0.671,0.071H116.872z M117.425,155.501h0.892c0.275,0,0.491-0.025,0.647-0.076
				c0.157-0.052,0.281-0.124,0.375-0.217c0.131-0.131,0.232-0.308,0.306-0.528c0.073-0.222,0.11-0.489,0.11-0.805
				c0-0.437-0.072-0.772-0.216-1.007c-0.143-0.234-0.317-0.392-0.522-0.472c-0.148-0.057-0.387-0.085-0.715-0.085h-0.877V155.501z"
				/>
			<path d="M121.097,155.994v-4.176h3.019v0.493h-2.467v1.278h2.311v0.49h-2.311v1.421h2.563v0.493H121.097z"/>
			<path d="M126.138,155.994l1.604-4.176h0.596l1.709,4.176h-0.63l-0.486-1.265h-1.746l-0.459,1.265H126.138z M127.343,154.279
				h1.416l-0.437-1.156c-0.133-0.352-0.231-0.64-0.296-0.866c-0.053,0.268-0.128,0.534-0.225,0.798L127.343,154.279z"/>
			<path d="M130.487,155.994v-4.176h1.575c0.277,0,0.488,0.014,0.635,0.04c0.205,0.034,0.377,0.1,0.516,0.195
				s0.25,0.229,0.335,0.402c0.084,0.173,0.127,0.363,0.127,0.57c0,0.354-0.113,0.655-0.339,0.901
				c-0.227,0.246-0.635,0.369-1.226,0.369h-1.07v1.697H130.487z M131.04,153.804h1.079c0.357,0,0.61-0.066,0.761-0.199
				c0.149-0.133,0.225-0.32,0.225-0.562c0-0.175-0.044-0.324-0.132-0.448c-0.089-0.124-0.205-0.207-0.35-0.246
				c-0.093-0.025-0.265-0.037-0.516-0.037h-1.067V153.804z"/>
			<path d="M134.21,153.96c0-0.692,0.186-1.235,0.558-1.627c0.373-0.393,0.854-0.589,1.441-0.589c0.386,0,0.733,0.093,1.043,0.276
				c0.31,0.185,0.545,0.441,0.708,0.771c0.162,0.33,0.243,0.703,0.243,1.121c0,0.423-0.085,0.802-0.256,1.137
				c-0.171,0.334-0.413,0.587-0.727,0.759s-0.651,0.258-1.015,0.258c-0.393,0-0.744-0.095-1.054-0.285
				c-0.31-0.189-0.544-0.449-0.703-0.777C134.289,154.675,134.21,154.327,134.21,153.96z M134.779,153.969
				c0,0.504,0.136,0.899,0.406,1.189c0.271,0.289,0.609,0.435,1.018,0.435c0.416,0,0.759-0.146,1.027-0.438
				c0.269-0.293,0.403-0.708,0.403-1.245c0-0.34-0.058-0.637-0.173-0.891c-0.114-0.253-0.283-0.449-0.504-0.589
				c-0.222-0.14-0.47-0.21-0.745-0.21c-0.391,0-0.728,0.135-1.01,0.403S134.779,153.341,134.779,153.969z"/>
			<path d="M140.092,155.994v-1.769l-1.608-2.407h0.672l0.823,1.259c0.151,0.235,0.293,0.472,0.424,0.707
				c0.126-0.219,0.277-0.465,0.456-0.738l0.809-1.228h0.645l-1.667,2.407v1.769H140.092z"/>
			<path d="M142.639,153.96c0-0.692,0.186-1.235,0.558-1.627c0.373-0.393,0.854-0.589,1.441-0.589c0.386,0,0.733,0.093,1.043,0.276
				c0.31,0.185,0.545,0.441,0.708,0.771c0.162,0.33,0.243,0.703,0.243,1.121c0,0.423-0.085,0.802-0.256,1.137
				c-0.171,0.334-0.413,0.587-0.727,0.759s-0.651,0.258-1.015,0.258c-0.393,0-0.744-0.095-1.054-0.285
				c-0.31-0.189-0.544-0.449-0.703-0.777C142.718,154.675,142.639,154.327,142.639,153.96z M143.208,153.969
				c0,0.504,0.136,0.899,0.406,1.189c0.271,0.289,0.609,0.435,1.018,0.435c0.416,0,0.759-0.146,1.027-0.438
				c0.269-0.293,0.403-0.708,0.403-1.245c0-0.34-0.058-0.637-0.173-0.891c-0.114-0.253-0.283-0.449-0.504-0.589
				c-0.222-0.14-0.47-0.21-0.745-0.21c-0.391,0-0.728,0.135-1.01,0.403S143.208,153.341,143.208,153.969z"/>
		</g>
	</g>
	<g>
		<path style="fill:#FFFFFF;" d="M67.787,120.176v-3.132h1.181c0.208,0,0.367,0.01,0.477,0.03c0.154,0.025,0.283,0.074,0.387,0.146
			c0.104,0.071,0.188,0.172,0.251,0.302s0.096,0.272,0.096,0.428c0,0.266-0.085,0.491-0.255,0.676
			c-0.169,0.185-0.476,0.276-0.918,0.276h-0.804v1.273H67.787z M68.201,118.533h0.81c0.268,0,0.458-0.05,0.57-0.149
			s0.169-0.24,0.169-0.421c0-0.131-0.033-0.243-0.1-0.337c-0.066-0.093-0.153-0.154-0.262-0.185
			c-0.069-0.019-0.198-0.028-0.387-0.028h-0.801V118.533z"/>
		<path style="fill:#FFFFFF;" d="M70.711,120.176v-3.132H72.1c0.279,0,0.491,0.028,0.637,0.084c0.146,0.057,0.262,0.156,0.349,0.299
			c0.087,0.142,0.13,0.3,0.13,0.472c0,0.223-0.072,0.409-0.216,0.562s-0.366,0.25-0.666,0.291c0.109,0.053,0.192,0.104,0.249,0.156
			c0.121,0.11,0.236,0.25,0.345,0.416l0.545,0.853H72.95l-0.415-0.651c-0.121-0.188-0.221-0.332-0.299-0.432s-0.148-0.17-0.21-0.209
			c-0.063-0.04-0.125-0.068-0.189-0.084c-0.047-0.01-0.124-0.015-0.23-0.015h-0.48v1.391H70.711z M71.126,118.426h0.891
			c0.189,0,0.337-0.02,0.444-0.059c0.106-0.039,0.188-0.102,0.243-0.188s0.084-0.18,0.084-0.281c0-0.148-0.055-0.27-0.162-0.365
			s-0.277-0.144-0.509-0.144h-0.991V118.426z"/>
		<path style="fill:#FFFFFF;" d="M73.739,118.65c0-0.52,0.139-0.927,0.418-1.221s0.64-0.441,1.081-0.441
			c0.289,0,0.55,0.069,0.782,0.207c0.232,0.139,0.409,0.331,0.53,0.578c0.122,0.247,0.184,0.527,0.184,0.841
			c0,0.317-0.064,0.602-0.192,0.853c-0.129,0.25-0.311,0.44-0.545,0.569c-0.235,0.129-0.488,0.193-0.761,0.193
			c-0.295,0-0.559-0.071-0.79-0.214c-0.232-0.143-0.408-0.337-0.528-0.583C73.799,119.186,73.739,118.926,73.739,118.65z
			 M74.166,118.657c0,0.377,0.102,0.675,0.305,0.892s0.457,0.326,0.764,0.326c0.312,0,0.568-0.11,0.77-0.329
			c0.202-0.22,0.303-0.531,0.303-0.934c0-0.255-0.043-0.478-0.129-0.668c-0.087-0.19-0.213-0.338-0.379-0.442
			c-0.165-0.104-0.352-0.157-0.559-0.157c-0.293,0-0.545,0.102-0.757,0.303S74.166,118.186,74.166,118.657z"/>
		<path style="fill:#FFFFFF;" d="M78.149,120.176v-1.326l-1.207-1.806h0.504l0.618,0.944c0.113,0.177,0.22,0.354,0.318,0.529
			c0.094-0.163,0.207-0.348,0.342-0.553l0.606-0.921h0.482l-1.25,1.806v1.326H78.149z"/>
		<path style="fill:#FFFFFF;" d="M80.194,120.176v-3.132h2.265v0.369h-1.85v0.96h1.732v0.367h-1.732v1.066h1.923v0.369H80.194z"/>
		<path style="fill:#FFFFFF;" d="M85.339,119.078l0.414,0.104c-0.087,0.34-0.243,0.6-0.469,0.778s-0.502,0.269-0.828,0.269
			c-0.337,0-0.611-0.069-0.823-0.206c-0.212-0.138-0.372-0.337-0.482-0.598s-0.166-0.54-0.166-0.84c0-0.325,0.063-0.61,0.188-0.853
			c0.124-0.243,0.302-0.428,0.531-0.554c0.23-0.126,0.483-0.189,0.76-0.189c0.313,0,0.577,0.08,0.79,0.239
			c0.214,0.16,0.362,0.384,0.447,0.673l-0.408,0.097c-0.073-0.228-0.179-0.394-0.316-0.498c-0.139-0.104-0.312-0.156-0.521-0.156
			c-0.24,0-0.441,0.059-0.604,0.174c-0.161,0.115-0.275,0.27-0.341,0.464c-0.065,0.195-0.098,0.396-0.098,0.602
			c0,0.267,0.038,0.499,0.116,0.698c0.077,0.198,0.198,0.347,0.362,0.445c0.163,0.098,0.341,0.147,0.531,0.147
			c0.232,0,0.429-0.067,0.59-0.201S85.281,119.341,85.339,119.078z"/>
		<path style="fill:#FFFFFF;" d="M88.498,119.078l0.414,0.104c-0.087,0.34-0.243,0.6-0.469,0.778s-0.502,0.269-0.828,0.269
			c-0.337,0-0.611-0.069-0.823-0.206c-0.212-0.138-0.372-0.337-0.482-0.598s-0.166-0.54-0.166-0.84c0-0.325,0.063-0.61,0.188-0.853
			c0.124-0.243,0.302-0.428,0.531-0.554c0.23-0.126,0.483-0.189,0.76-0.189c0.313,0,0.577,0.08,0.79,0.239
			c0.214,0.16,0.362,0.384,0.447,0.673l-0.408,0.097c-0.073-0.228-0.179-0.394-0.316-0.498c-0.139-0.104-0.312-0.156-0.521-0.156
			c-0.24,0-0.441,0.059-0.604,0.174c-0.161,0.115-0.275,0.27-0.341,0.464c-0.065,0.195-0.098,0.396-0.098,0.602
			c0,0.267,0.038,0.499,0.116,0.698c0.077,0.198,0.198,0.347,0.362,0.445c0.163,0.098,0.341,0.147,0.531,0.147
			c0.232,0,0.429-0.067,0.59-0.201S88.44,119.341,88.498,119.078z"/>
		<path style="fill:#FFFFFF;" d="M89.494,120.176v-3.132h0.414v3.132H89.494z"/>
		<path style="fill:#FFFFFF;" d="M90.513,118.65c0-0.52,0.139-0.927,0.418-1.221s0.64-0.441,1.081-0.441
			c0.289,0,0.55,0.069,0.782,0.207c0.232,0.139,0.409,0.331,0.53,0.578c0.122,0.247,0.184,0.527,0.184,0.841
			c0,0.317-0.064,0.602-0.192,0.853c-0.129,0.25-0.311,0.44-0.545,0.569c-0.235,0.129-0.488,0.193-0.761,0.193
			c-0.295,0-0.559-0.071-0.79-0.214c-0.232-0.143-0.408-0.337-0.528-0.583C90.572,119.186,90.513,118.926,90.513,118.65z
			 M90.939,118.657c0,0.377,0.102,0.675,0.305,0.892s0.457,0.326,0.764,0.326c0.312,0,0.568-0.11,0.77-0.329
			c0.202-0.22,0.303-0.531,0.303-0.934c0-0.255-0.043-0.478-0.129-0.668c-0.087-0.19-0.213-0.338-0.379-0.442
			c-0.165-0.104-0.352-0.157-0.559-0.157c-0.293,0-0.545,0.102-0.757,0.303S90.939,118.186,90.939,118.657z M91.747,116.852
			l0.284-0.598h0.504l-0.47,0.598H91.747z"/>
		<path style="fill:#FFFFFF;" d="M94.037,120.176v-3.132h0.426l1.645,2.459v-2.459h0.397v3.132H96.08l-1.646-2.461v2.461H94.037z"/>
	</g>
	<g>
		<g>
			<path style="fill:#FFFFFF;" d="M109.86,120.176v-3.132h0.414v3.132H109.86z"/>
			<path style="fill:#FFFFFF;" d="M111.001,120.176v-3.132h0.426l1.645,2.459v-2.459h0.397v3.132h-0.425l-1.646-2.461v2.461H111.001
				z"/>
			<path style="fill:#FFFFFF;" d="M115.06,120.176l-1.213-3.132h0.448l0.814,2.275c0.065,0.182,0.12,0.353,0.164,0.513
				c0.049-0.171,0.104-0.342,0.169-0.513l0.846-2.275h0.423l-1.226,3.132H115.06z"/>
			<path style="fill:#FFFFFF;" d="M117.091,120.176v-3.132h2.265v0.369h-1.85v0.96h1.732v0.367h-1.732v1.066h1.923v0.369H117.091z"
				/>
			<path style="fill:#FFFFFF;" d="M119.86,119.17l0.392-0.034c0.019,0.156,0.062,0.285,0.129,0.386
				c0.067,0.1,0.173,0.181,0.315,0.243c0.142,0.062,0.302,0.093,0.48,0.093c0.158,0,0.298-0.023,0.419-0.07
				c0.12-0.047,0.211-0.111,0.27-0.193c0.06-0.082,0.089-0.171,0.089-0.269s-0.028-0.184-0.085-0.257
				c-0.058-0.073-0.151-0.135-0.282-0.185c-0.084-0.033-0.271-0.084-0.558-0.153c-0.288-0.069-0.489-0.134-0.604-0.195
				c-0.149-0.078-0.261-0.176-0.335-0.292c-0.073-0.115-0.109-0.246-0.109-0.39c0-0.158,0.045-0.306,0.135-0.443
				c0.089-0.138,0.221-0.241,0.393-0.313c0.173-0.071,0.364-0.107,0.575-0.107c0.231,0,0.437,0.038,0.613,0.112
				c0.178,0.075,0.314,0.185,0.409,0.33c0.096,0.146,0.147,0.31,0.154,0.493l-0.397,0.03c-0.021-0.198-0.094-0.348-0.217-0.448
				c-0.123-0.102-0.306-0.152-0.546-0.152c-0.251,0-0.434,0.046-0.548,0.139c-0.114,0.092-0.172,0.202-0.172,0.332
				c0,0.112,0.04,0.205,0.122,0.277c0.079,0.072,0.287,0.147,0.624,0.224s0.568,0.143,0.693,0.199
				c0.183,0.084,0.317,0.19,0.404,0.319s0.13,0.277,0.13,0.445c0,0.167-0.048,0.324-0.143,0.472
				c-0.096,0.147-0.233,0.262-0.412,0.344s-0.38,0.123-0.604,0.123c-0.283,0-0.521-0.042-0.712-0.124
				c-0.191-0.083-0.342-0.207-0.451-0.373C119.924,119.566,119.866,119.379,119.86,119.17z"/>
			<path style="fill:#FFFFFF;" d="M123.717,120.176v-2.763h-1.032v-0.369h2.482v0.369h-1.036v2.763H123.717z"/>
			<path style="fill:#FFFFFF;" d="M125.662,120.176v-3.132h0.414v3.132H125.662z"/>
			<path style="fill:#FFFFFF;" d="M128.272,118.947v-0.367l1.327-0.002v1.162c-0.204,0.162-0.414,0.284-0.631,0.366
				c-0.216,0.082-0.438,0.123-0.666,0.123c-0.308,0-0.587-0.066-0.839-0.198c-0.251-0.132-0.44-0.322-0.569-0.571
				c-0.128-0.249-0.192-0.527-0.192-0.835c0-0.305,0.064-0.59,0.191-0.854c0.128-0.265,0.312-0.461,0.551-0.589
				s0.515-0.192,0.826-0.192c0.227,0,0.432,0.037,0.614,0.11s0.326,0.176,0.431,0.307c0.104,0.131,0.183,0.302,0.237,0.513
				l-0.374,0.103c-0.047-0.159-0.105-0.285-0.176-0.376c-0.069-0.091-0.169-0.164-0.299-0.219s-0.273-0.083-0.432-0.083
				c-0.189,0-0.353,0.029-0.491,0.087c-0.138,0.058-0.249,0.134-0.334,0.228s-0.15,0.197-0.198,0.31
				c-0.079,0.194-0.119,0.404-0.119,0.631c0,0.278,0.048,0.513,0.145,0.7c0.096,0.188,0.235,0.328,0.419,0.419
				c0.185,0.091,0.379,0.137,0.586,0.137c0.18,0,0.354-0.034,0.525-0.104s0.301-0.143,0.389-0.222v-0.583H128.272z"/>
			<path style="fill:#FFFFFF;" d="M129.866,120.176l1.203-3.132h0.446l1.282,3.132h-0.473l-0.365-0.948h-1.31l-0.344,0.948H129.866z
				 M130.771,118.89h1.062l-0.327-0.867c-0.1-0.264-0.174-0.48-0.222-0.649c-0.04,0.201-0.097,0.4-0.169,0.598L130.771,118.89z"/>
			<path style="fill:#FFFFFF;" d="M135.363,119.078l0.414,0.104c-0.087,0.34-0.243,0.6-0.469,0.778s-0.502,0.269-0.828,0.269
				c-0.337,0-0.611-0.069-0.823-0.206c-0.212-0.138-0.372-0.337-0.482-0.598s-0.166-0.54-0.166-0.84c0-0.325,0.063-0.61,0.188-0.853
				c0.124-0.243,0.302-0.428,0.531-0.554c0.23-0.126,0.483-0.189,0.76-0.189c0.313,0,0.577,0.08,0.79,0.239
				c0.214,0.16,0.362,0.384,0.447,0.673l-0.408,0.097c-0.073-0.228-0.179-0.394-0.316-0.498c-0.139-0.104-0.312-0.156-0.521-0.156
				c-0.24,0-0.441,0.059-0.604,0.174c-0.161,0.115-0.275,0.27-0.341,0.464c-0.065,0.195-0.098,0.396-0.098,0.602
				c0,0.267,0.038,0.499,0.116,0.698c0.077,0.198,0.198,0.347,0.362,0.445c0.163,0.098,0.341,0.147,0.531,0.147
				c0.232,0,0.429-0.067,0.59-0.201S135.306,119.341,135.363,119.078z"/>
			<path style="fill:#FFFFFF;" d="M136.358,120.176v-3.132h0.414v3.132H136.358z"/>
			<path style="fill:#FFFFFF;" d="M137.378,118.65c0-0.52,0.139-0.927,0.418-1.221s0.64-0.441,1.081-0.441
				c0.289,0,0.55,0.069,0.782,0.207c0.232,0.139,0.409,0.331,0.53,0.578c0.122,0.247,0.184,0.527,0.184,0.841
				c0,0.317-0.064,0.602-0.192,0.853c-0.129,0.25-0.311,0.44-0.545,0.569c-0.235,0.129-0.488,0.193-0.761,0.193
				c-0.295,0-0.559-0.071-0.79-0.214c-0.232-0.143-0.408-0.337-0.528-0.583C137.438,119.186,137.378,118.926,137.378,118.65z
				 M137.805,118.657c0,0.377,0.102,0.675,0.305,0.892s0.457,0.326,0.764,0.326c0.312,0,0.568-0.11,0.77-0.329
				c0.202-0.22,0.303-0.531,0.303-0.934c0-0.255-0.043-0.478-0.129-0.668c-0.087-0.19-0.213-0.338-0.379-0.442
				c-0.165-0.104-0.352-0.157-0.559-0.157c-0.293,0-0.545,0.102-0.757,0.303S137.805,118.186,137.805,118.657z M138.612,116.852
				l0.284-0.598h0.504l-0.47,0.598H138.612z"/>
			<path style="fill:#FFFFFF;" d="M140.902,120.176v-3.132h0.426l1.645,2.459v-2.459h0.397v3.132h-0.425l-1.646-2.461v2.461H140.902
				z"/>
		</g>
	</g>
	<g>
		<g>
			<path style="fill:#FFFFFF;" d="M156.053,120.176v-3.132h2.112v0.369h-1.698v0.971h1.47v0.369h-1.47v1.423H156.053z"/>
			<path style="fill:#FFFFFF;" d="M158.578,118.65c0-0.52,0.139-0.927,0.418-1.221s0.64-0.441,1.081-0.441
				c0.289,0,0.55,0.069,0.782,0.207c0.232,0.139,0.409,0.331,0.53,0.578c0.122,0.247,0.184,0.527,0.184,0.841
				c0,0.317-0.064,0.602-0.192,0.853c-0.129,0.25-0.311,0.44-0.545,0.569c-0.235,0.129-0.488,0.193-0.761,0.193
				c-0.295,0-0.559-0.071-0.79-0.214c-0.232-0.143-0.408-0.337-0.528-0.583C158.638,119.186,158.578,118.926,158.578,118.65z
				 M159.005,118.657c0,0.377,0.102,0.675,0.305,0.892s0.457,0.326,0.764,0.326c0.312,0,0.568-0.11,0.77-0.329
				c0.202-0.22,0.303-0.531,0.303-0.934c0-0.255-0.043-0.478-0.129-0.668c-0.087-0.19-0.213-0.338-0.379-0.442
				c-0.165-0.104-0.352-0.157-0.559-0.157c-0.293,0-0.545,0.102-0.757,0.303S159.005,118.186,159.005,118.657z"/>
			<path style="fill:#FFFFFF;" d="M162.112,120.176v-3.132h1.389c0.279,0,0.491,0.028,0.637,0.084
				c0.146,0.057,0.262,0.156,0.349,0.299c0.087,0.142,0.13,0.3,0.13,0.472c0,0.223-0.072,0.409-0.216,0.562s-0.366,0.25-0.666,0.291
				c0.109,0.053,0.192,0.104,0.249,0.156c0.121,0.11,0.236,0.25,0.345,0.416l0.545,0.853h-0.521l-0.415-0.651
				c-0.121-0.188-0.221-0.332-0.299-0.432s-0.148-0.17-0.21-0.209c-0.063-0.04-0.125-0.068-0.189-0.084
				c-0.047-0.01-0.124-0.015-0.23-0.015h-0.48v1.391H162.112z M162.527,118.426h0.891c0.189,0,0.337-0.02,0.444-0.059
				c0.106-0.039,0.188-0.102,0.243-0.188s0.084-0.18,0.084-0.281c0-0.148-0.055-0.27-0.162-0.365s-0.277-0.144-0.509-0.144h-0.991
				V118.426z"/>
			<path style="fill:#FFFFFF;" d="M165.254,120.176v-3.132h0.623l0.741,2.218c0.068,0.206,0.118,0.36,0.149,0.463
				c0.036-0.113,0.092-0.281,0.167-0.502l0.75-2.179h0.558v3.132h-0.399v-2.621l-0.91,2.621h-0.374l-0.905-2.666v2.666H165.254z"/>
			<path style="fill:#FFFFFF;" d="M168.566,120.176l1.203-3.132h0.446l1.282,3.132h-0.473l-0.365-0.948h-1.31l-0.344,0.948H168.566z
				 M169.471,118.89h1.062l-0.327-0.867c-0.1-0.264-0.174-0.48-0.222-0.649c-0.04,0.201-0.097,0.4-0.169,0.598L169.471,118.89z"/>
			<path style="fill:#FFFFFF;" d="M174.063,119.078l0.414,0.104c-0.087,0.34-0.243,0.6-0.469,0.778s-0.502,0.269-0.828,0.269
				c-0.337,0-0.611-0.069-0.823-0.206c-0.212-0.138-0.372-0.337-0.482-0.598s-0.166-0.54-0.166-0.84c0-0.325,0.063-0.61,0.188-0.853
				c0.124-0.243,0.302-0.428,0.531-0.554c0.23-0.126,0.483-0.189,0.76-0.189c0.313,0,0.577,0.08,0.79,0.239
				c0.214,0.16,0.362,0.384,0.447,0.673l-0.408,0.097c-0.073-0.228-0.179-0.394-0.316-0.498c-0.139-0.104-0.312-0.156-0.521-0.156
				c-0.24,0-0.441,0.059-0.604,0.174c-0.161,0.115-0.275,0.27-0.341,0.464c-0.065,0.195-0.098,0.396-0.098,0.602
				c0,0.267,0.038,0.499,0.116,0.698c0.077,0.198,0.198,0.347,0.362,0.445c0.163,0.098,0.341,0.147,0.531,0.147
				c0.232,0,0.429-0.067,0.59-0.201S174.006,119.341,174.063,119.078z"/>
			<path style="fill:#FFFFFF;" d="M175.059,120.176v-3.132h0.414v3.132H175.059z"/>
			<path style="fill:#FFFFFF;" d="M176.078,118.65c0-0.52,0.139-0.927,0.418-1.221s0.64-0.441,1.081-0.441
				c0.289,0,0.55,0.069,0.782,0.207c0.232,0.139,0.409,0.331,0.53,0.578c0.122,0.247,0.184,0.527,0.184,0.841
				c0,0.317-0.064,0.602-0.192,0.853c-0.129,0.25-0.311,0.44-0.545,0.569c-0.235,0.129-0.488,0.193-0.761,0.193
				c-0.295,0-0.559-0.071-0.79-0.214c-0.232-0.143-0.408-0.337-0.528-0.583C176.138,119.186,176.078,118.926,176.078,118.65z
				 M176.505,118.657c0,0.377,0.102,0.675,0.305,0.892s0.457,0.326,0.764,0.326c0.312,0,0.568-0.11,0.77-0.329
				c0.202-0.22,0.303-0.531,0.303-0.934c0-0.255-0.043-0.478-0.129-0.668c-0.087-0.19-0.213-0.338-0.379-0.442
				c-0.165-0.104-0.352-0.157-0.559-0.157c-0.293,0-0.545,0.102-0.757,0.303S176.505,118.186,176.505,118.657z M177.313,116.852
				l0.284-0.598h0.504l-0.47,0.598H177.313z"/>
			<path style="fill:#FFFFFF;" d="M179.603,120.176v-3.132h0.426l1.645,2.459v-2.459h0.397v3.132h-0.425L180,117.715v2.461H179.603z
				"/>
		</g>
	</g>
	<g>
		<g>
			<path style="fill:#2C6882;" d="M73.378,172.904v-0.367l1.327-0.002v1.162c-0.204,0.162-0.414,0.284-0.631,0.366
				c-0.216,0.082-0.438,0.123-0.666,0.123c-0.308,0-0.587-0.066-0.839-0.198c-0.251-0.132-0.44-0.322-0.569-0.571
				c-0.128-0.249-0.192-0.527-0.192-0.835c0-0.305,0.064-0.59,0.191-0.854c0.128-0.265,0.312-0.461,0.551-0.589
				s0.515-0.192,0.826-0.192c0.227,0,0.432,0.037,0.614,0.11s0.326,0.176,0.431,0.307c0.104,0.131,0.183,0.302,0.237,0.513
				l-0.374,0.103c-0.047-0.159-0.105-0.285-0.176-0.376c-0.069-0.091-0.169-0.164-0.299-0.219s-0.273-0.083-0.432-0.083
				c-0.189,0-0.353,0.029-0.491,0.087c-0.138,0.058-0.249,0.134-0.334,0.228s-0.15,0.197-0.198,0.31
				c-0.079,0.194-0.119,0.404-0.119,0.631c0,0.278,0.048,0.513,0.145,0.7c0.096,0.188,0.235,0.328,0.419,0.419
				c0.185,0.091,0.379,0.137,0.586,0.137c0.18,0,0.354-0.034,0.525-0.104s0.301-0.143,0.389-0.222v-0.583H73.378z"/>
			<path style="fill:#2C6882;" d="M75.324,174.133v-3.132h2.265v0.369h-1.85v0.96h1.732v0.367h-1.732v1.066h1.923v0.369H75.324z"/>
			<path style="fill:#2C6882;" d="M78.093,173.127l0.392-0.034c0.019,0.156,0.062,0.285,0.129,0.386
				c0.067,0.1,0.173,0.181,0.315,0.243c0.142,0.062,0.302,0.093,0.48,0.093c0.158,0,0.298-0.023,0.419-0.07
				c0.12-0.047,0.211-0.111,0.27-0.193c0.06-0.082,0.089-0.171,0.089-0.269s-0.028-0.184-0.085-0.257
				c-0.058-0.073-0.151-0.135-0.282-0.185c-0.084-0.033-0.271-0.084-0.558-0.153c-0.288-0.069-0.489-0.134-0.604-0.195
				c-0.149-0.078-0.261-0.176-0.335-0.292c-0.073-0.115-0.109-0.246-0.109-0.39c0-0.158,0.045-0.306,0.135-0.443
				c0.089-0.138,0.221-0.241,0.393-0.313c0.173-0.071,0.364-0.107,0.575-0.107c0.231,0,0.437,0.038,0.613,0.112
				c0.178,0.075,0.314,0.185,0.409,0.33c0.096,0.146,0.147,0.31,0.154,0.493l-0.397,0.03c-0.021-0.198-0.094-0.348-0.217-0.448
				c-0.123-0.102-0.306-0.152-0.546-0.152c-0.251,0-0.434,0.046-0.548,0.139c-0.114,0.092-0.172,0.202-0.172,0.332
				c0,0.112,0.04,0.205,0.122,0.277c0.079,0.072,0.287,0.147,0.624,0.224s0.568,0.143,0.693,0.199
				c0.183,0.084,0.317,0.19,0.404,0.319s0.13,0.277,0.13,0.445c0,0.167-0.048,0.324-0.143,0.472
				c-0.096,0.147-0.233,0.262-0.412,0.344s-0.38,0.123-0.604,0.123c-0.283,0-0.521-0.042-0.712-0.124
				c-0.191-0.083-0.342-0.207-0.451-0.373C78.156,173.523,78.099,173.336,78.093,173.127z"/>
			<path style="fill:#2C6882;" d="M81.949,174.133v-2.763h-1.032v-0.369h2.482v0.369h-1.036v2.763H81.949z"/>
			<path style="fill:#2C6882;" d="M83.896,174.133v-3.132h0.414v3.132H83.896z"/>
			<path style="fill:#2C6882;" d="M84.915,172.607c0-0.52,0.139-0.927,0.418-1.221s0.64-0.441,1.081-0.441
				c0.289,0,0.55,0.069,0.782,0.207c0.232,0.139,0.409,0.331,0.53,0.578c0.122,0.247,0.184,0.527,0.184,0.841
				c0,0.317-0.064,0.602-0.192,0.853c-0.129,0.25-0.311,0.44-0.545,0.569c-0.235,0.129-0.488,0.193-0.761,0.193
				c-0.295,0-0.559-0.071-0.79-0.214c-0.232-0.143-0.408-0.337-0.528-0.583C84.975,173.143,84.915,172.883,84.915,172.607z
				 M85.342,172.614c0,0.377,0.102,0.675,0.305,0.892s0.457,0.326,0.764,0.326c0.312,0,0.568-0.11,0.77-0.329
				c0.202-0.22,0.303-0.531,0.303-0.934c0-0.255-0.043-0.478-0.129-0.668c-0.087-0.19-0.213-0.338-0.379-0.442
				c-0.165-0.104-0.352-0.157-0.559-0.157c-0.293,0-0.545,0.102-0.757,0.303S85.342,172.143,85.342,172.614z M86.149,170.809
				l0.284-0.598h0.504l-0.47,0.598H86.149z"/>
			<path style="fill:#2C6882;" d="M88.438,174.133v-3.132h0.426l1.645,2.459v-2.459h0.397v3.132h-0.425l-1.646-2.461v2.461H88.438z"
				/>
			<path style="fill:#2C6882;" d="M68.531,179.383v-3.132h2.112v0.369h-1.698v0.971h1.47v0.369h-1.47v1.423H68.531z"/>
			<path style="fill:#2C6882;" d="M71.253,179.383v-3.132h0.414v3.132H71.253z"/>
			<path style="fill:#2C6882;" d="M72.393,179.383v-3.132h0.426l1.645,2.459v-2.459h0.397v3.132h-0.425l-1.646-2.461v2.461H72.393z"
				/>
			<path style="fill:#2C6882;" d="M75.213,179.383l1.203-3.132h0.446l1.282,3.132h-0.473l-0.365-0.948h-1.31l-0.344,0.948H75.213z
				 M76.117,178.097h1.062l-0.327-0.867c-0.1-0.264-0.174-0.48-0.222-0.649c-0.04,0.201-0.097,0.4-0.169,0.598L76.117,178.097z"/>
			<path style="fill:#2C6882;" d="M78.471,179.383v-3.132h0.426l1.645,2.459v-2.459h0.397v3.132h-0.425l-1.646-2.461v2.461H78.471z"
				/>
			<path style="fill:#2C6882;" d="M83.869,178.285l0.414,0.104c-0.087,0.34-0.243,0.6-0.469,0.778s-0.502,0.269-0.828,0.269
				c-0.337,0-0.611-0.069-0.823-0.206c-0.212-0.138-0.372-0.337-0.482-0.598s-0.166-0.54-0.166-0.84c0-0.325,0.063-0.61,0.188-0.853
				c0.124-0.243,0.302-0.428,0.531-0.554c0.23-0.126,0.483-0.189,0.76-0.189c0.313,0,0.577,0.08,0.79,0.239
				c0.214,0.16,0.362,0.384,0.447,0.673l-0.408,0.097c-0.073-0.228-0.179-0.394-0.316-0.498c-0.139-0.104-0.312-0.156-0.521-0.156
				c-0.24,0-0.441,0.059-0.604,0.174c-0.161,0.115-0.275,0.27-0.341,0.464c-0.065,0.195-0.098,0.396-0.098,0.602
				c0,0.267,0.038,0.499,0.116,0.698c0.077,0.198,0.198,0.347,0.362,0.445c0.163,0.098,0.341,0.147,0.531,0.147
				c0.232,0,0.429-0.067,0.59-0.201S83.812,178.548,83.869,178.285z"/>
			<path style="fill:#2C6882;" d="M84.865,179.383v-3.132h0.414v3.132H84.865z"/>
			<path style="fill:#2C6882;" d="M86.018,179.383v-3.132h2.265v0.369h-1.85v0.96h1.732v0.367h-1.732v1.066h1.923v0.369H86.018z"/>
			<path style="fill:#2C6882;" d="M88.935,179.383v-3.132h1.389c0.279,0,0.491,0.028,0.637,0.084
				c0.146,0.057,0.262,0.156,0.349,0.299c0.087,0.142,0.13,0.3,0.13,0.472c0,0.223-0.072,0.409-0.216,0.562s-0.366,0.25-0.666,0.291
				c0.109,0.053,0.192,0.104,0.249,0.156c0.121,0.11,0.236,0.25,0.345,0.416l0.545,0.853h-0.521l-0.415-0.651
				c-0.121-0.188-0.221-0.332-0.299-0.432s-0.148-0.17-0.21-0.209c-0.063-0.04-0.125-0.068-0.189-0.084
				c-0.047-0.01-0.124-0.015-0.23-0.015h-0.48v1.391H88.935z M89.35,177.633h0.891c0.189,0,0.337-0.02,0.444-0.059
				c0.106-0.039,0.188-0.102,0.243-0.188s0.084-0.18,0.084-0.281c0-0.148-0.055-0.27-0.162-0.365s-0.277-0.144-0.509-0.144H89.35
				V177.633z"/>
			<path style="fill:#2C6882;" d="M91.743,179.383l1.203-3.132h0.446l1.282,3.132h-0.473l-0.365-0.948h-1.31l-0.344,0.948H91.743z
				 M92.647,178.097h1.062l-0.327-0.867c-0.1-0.264-0.174-0.48-0.222-0.649c-0.04,0.201-0.097,0.4-0.169,0.598L92.647,178.097z"/>
		</g>
	</g>
	<g>
		<g>
			<path style="fill:#2C6882;" d="M118.122,176.869v-3.132h1.389c0.279,0,0.491,0.028,0.637,0.084
				c0.146,0.057,0.262,0.156,0.349,0.299c0.087,0.142,0.13,0.3,0.13,0.472c0,0.223-0.072,0.409-0.216,0.562s-0.366,0.25-0.666,0.291
				c0.109,0.053,0.192,0.104,0.249,0.156c0.121,0.11,0.236,0.25,0.345,0.416l0.545,0.853h-0.521l-0.415-0.651
				c-0.121-0.188-0.221-0.332-0.299-0.432s-0.148-0.17-0.21-0.209c-0.063-0.04-0.125-0.068-0.189-0.084
				c-0.047-0.01-0.124-0.015-0.23-0.015h-0.48v1.391H118.122z M118.537,175.119h0.891c0.189,0,0.337-0.02,0.444-0.059
				c0.106-0.039,0.188-0.102,0.243-0.188s0.084-0.18,0.084-0.281c0-0.148-0.055-0.27-0.162-0.365s-0.277-0.144-0.509-0.144h-0.991
				V175.119z"/>
			<path style="fill:#2C6882;" d="M121.281,176.869v-3.132h1.389c0.279,0,0.491,0.028,0.637,0.084
				c0.146,0.057,0.262,0.156,0.349,0.299c0.087,0.142,0.13,0.3,0.13,0.472c0,0.223-0.072,0.409-0.216,0.562s-0.366,0.25-0.666,0.291
				c0.109,0.053,0.192,0.104,0.249,0.156c0.121,0.11,0.236,0.25,0.345,0.416l0.545,0.853h-0.521l-0.415-0.651
				c-0.121-0.188-0.221-0.332-0.299-0.432s-0.148-0.17-0.21-0.209c-0.063-0.04-0.125-0.068-0.189-0.084
				c-0.047-0.01-0.124-0.015-0.23-0.015h-0.48v1.391H121.281z M121.696,175.119h0.891c0.189,0,0.337-0.02,0.444-0.059
				c0.106-0.039,0.188-0.102,0.243-0.188s0.084-0.18,0.084-0.281c0-0.148-0.055-0.27-0.162-0.365s-0.277-0.144-0.509-0.144h-0.991
				V175.119z"/>
			<path style="fill:#2C6882;" d="M124.448,176.869v-3.132h0.414v1.286h1.628v-1.286h0.414v3.132h-0.414v-1.477h-1.628v1.477
				H124.448z"/>
			<path style="fill:#2C6882;" d="M127.607,176.869v-3.132h0.414v1.286h1.628v-1.286h0.414v3.132h-0.414v-1.477h-1.628v1.477
				H127.607z"/>
		</g>
	</g>
	<g>
		<g>
			<path style="fill:#2C6882;" d="M153.212,177.047v-2.763h-1.032v-0.369h2.482v0.369h-1.036v2.763H153.212z"/>
			<path style="fill:#2C6882;" d="M155.096,177.047v-3.132h2.265v0.369h-1.85v0.96h1.732v0.367h-1.732v1.066h1.923v0.369H155.096z"
				/>
			<path style="fill:#2C6882;" d="M160.24,175.949l0.414,0.104c-0.087,0.34-0.243,0.6-0.469,0.778s-0.502,0.269-0.828,0.269
				c-0.337,0-0.611-0.069-0.823-0.206c-0.212-0.138-0.372-0.337-0.482-0.598s-0.166-0.54-0.166-0.84c0-0.325,0.063-0.61,0.188-0.853
				c0.124-0.243,0.302-0.428,0.531-0.554c0.23-0.126,0.483-0.189,0.76-0.189c0.313,0,0.577,0.08,0.79,0.239
				c0.214,0.16,0.362,0.384,0.447,0.673l-0.408,0.097c-0.073-0.228-0.179-0.394-0.316-0.498c-0.139-0.104-0.312-0.156-0.521-0.156
				c-0.24,0-0.441,0.059-0.604,0.174c-0.161,0.115-0.275,0.27-0.341,0.464c-0.065,0.195-0.098,0.396-0.098,0.602
				c0,0.267,0.038,0.499,0.116,0.698c0.077,0.198,0.198,0.347,0.362,0.445c0.163,0.098,0.341,0.147,0.531,0.147
				c0.232,0,0.429-0.067,0.59-0.201S160.183,176.212,160.24,175.949z"/>
			<path style="fill:#2C6882;" d="M161.16,177.047v-3.132h0.426l1.645,2.459v-2.459h0.397v3.132h-0.425l-1.646-2.461v2.461H161.16z"
				/>
			<path style="fill:#2C6882;" d="M164.199,175.521c0-0.52,0.139-0.927,0.418-1.221s0.64-0.441,1.081-0.441
				c0.289,0,0.55,0.069,0.782,0.207c0.232,0.139,0.409,0.331,0.53,0.578c0.122,0.247,0.184,0.527,0.184,0.841
				c0,0.317-0.064,0.602-0.192,0.853c-0.129,0.25-0.311,0.44-0.545,0.569c-0.235,0.129-0.488,0.193-0.761,0.193
				c-0.295,0-0.559-0.071-0.79-0.214c-0.232-0.143-0.408-0.337-0.528-0.583C164.259,176.057,164.199,175.797,164.199,175.521z
				 M164.626,175.528c0,0.377,0.102,0.675,0.305,0.892s0.457,0.326,0.764,0.326c0.312,0,0.568-0.11,0.77-0.329
				c0.202-0.22,0.303-0.531,0.303-0.934c0-0.255-0.043-0.478-0.129-0.668c-0.087-0.19-0.213-0.338-0.379-0.442
				c-0.165-0.104-0.352-0.157-0.559-0.157c-0.293,0-0.545,0.102-0.757,0.303S164.626,175.057,164.626,175.528z"/>
			<path style="fill:#2C6882;" d="M167.71,177.047v-3.132h0.415v2.763h1.542v0.369H167.71z"/>
			<path style="fill:#2C6882;" d="M170.035,175.521c0-0.52,0.139-0.927,0.418-1.221s0.64-0.441,1.081-0.441
				c0.289,0,0.55,0.069,0.782,0.207c0.232,0.139,0.409,0.331,0.53,0.578c0.122,0.247,0.184,0.527,0.184,0.841
				c0,0.317-0.064,0.602-0.192,0.853c-0.129,0.25-0.311,0.44-0.545,0.569c-0.235,0.129-0.488,0.193-0.761,0.193
				c-0.295,0-0.559-0.071-0.79-0.214c-0.232-0.143-0.408-0.337-0.528-0.583C170.095,176.057,170.035,175.797,170.035,175.521z
				 M170.462,175.528c0,0.377,0.102,0.675,0.305,0.892s0.457,0.326,0.764,0.326c0.312,0,0.568-0.11,0.77-0.329
				c0.202-0.22,0.303-0.531,0.303-0.934c0-0.255-0.043-0.478-0.129-0.668c-0.087-0.19-0.213-0.338-0.379-0.442
				c-0.165-0.104-0.352-0.157-0.559-0.157c-0.293,0-0.545,0.102-0.757,0.303S170.462,175.057,170.462,175.528z M171.27,173.723
				l0.284-0.598h0.504l-0.47,0.598H171.27z"/>
			<path style="fill:#2C6882;" d="M175.029,175.818v-0.367l1.327-0.002v1.162c-0.204,0.162-0.414,0.284-0.631,0.366
				c-0.216,0.082-0.438,0.123-0.666,0.123c-0.308,0-0.587-0.066-0.839-0.198c-0.251-0.132-0.44-0.322-0.569-0.571
				c-0.128-0.249-0.192-0.527-0.192-0.835c0-0.305,0.064-0.59,0.191-0.854c0.128-0.265,0.312-0.461,0.551-0.589
				s0.515-0.192,0.826-0.192c0.227,0,0.432,0.037,0.614,0.11s0.326,0.176,0.431,0.307c0.104,0.131,0.183,0.302,0.237,0.513
				l-0.374,0.103c-0.047-0.159-0.105-0.285-0.176-0.376c-0.069-0.091-0.169-0.164-0.299-0.219s-0.273-0.083-0.432-0.083
				c-0.189,0-0.353,0.029-0.491,0.087c-0.138,0.058-0.249,0.134-0.334,0.228s-0.15,0.197-0.198,0.31
				c-0.079,0.194-0.119,0.404-0.119,0.631c0,0.278,0.048,0.513,0.145,0.7c0.096,0.188,0.235,0.328,0.419,0.419
				c0.185,0.091,0.379,0.137,0.586,0.137c0.18,0,0.354-0.034,0.525-0.104s0.301-0.143,0.389-0.222v-0.583H175.029z"/>
			<path style="fill:#2C6882;" d="M177.038,177.047v-3.132h0.414v3.132H177.038z"/>
			<path style="fill:#2C6882;" d="M180.417,175.949l0.414,0.104c-0.087,0.34-0.243,0.6-0.469,0.778s-0.502,0.269-0.828,0.269
				c-0.337,0-0.611-0.069-0.823-0.206c-0.212-0.138-0.372-0.337-0.482-0.598s-0.166-0.54-0.166-0.84c0-0.325,0.063-0.61,0.188-0.853
				c0.124-0.243,0.302-0.428,0.531-0.554c0.23-0.126,0.483-0.189,0.76-0.189c0.313,0,0.577,0.08,0.79,0.239
				c0.214,0.16,0.362,0.384,0.447,0.673l-0.408,0.097c-0.073-0.228-0.179-0.394-0.316-0.498c-0.139-0.104-0.312-0.156-0.521-0.156
				c-0.24,0-0.441,0.059-0.604,0.174c-0.161,0.115-0.275,0.27-0.341,0.464c-0.065,0.195-0.098,0.396-0.098,0.602
				c0,0.267,0.038,0.499,0.116,0.698c0.077,0.198,0.198,0.347,0.362,0.445c0.163,0.098,0.341,0.147,0.531,0.147
				c0.232,0,0.429-0.067,0.59-0.201S180.359,176.212,180.417,175.949z"/>
			<path style="fill:#2C6882;" d="M181.217,175.521c0-0.52,0.139-0.927,0.418-1.221s0.64-0.441,1.081-0.441
				c0.289,0,0.55,0.069,0.782,0.207c0.232,0.139,0.409,0.331,0.53,0.578c0.122,0.247,0.184,0.527,0.184,0.841
				c0,0.317-0.064,0.602-0.192,0.853c-0.129,0.25-0.311,0.44-0.545,0.569c-0.235,0.129-0.488,0.193-0.761,0.193
				c-0.295,0-0.559-0.071-0.79-0.214c-0.232-0.143-0.408-0.337-0.528-0.583C181.276,176.057,181.217,175.797,181.217,175.521z
				 M181.644,175.528c0,0.377,0.102,0.675,0.305,0.892s0.457,0.326,0.764,0.326c0.312,0,0.568-0.11,0.77-0.329
				c0.202-0.22,0.303-0.531,0.303-0.934c0-0.255-0.043-0.478-0.129-0.668c-0.087-0.19-0.213-0.338-0.379-0.442
				c-0.165-0.104-0.352-0.157-0.559-0.157c-0.293,0-0.545,0.102-0.757,0.303S181.644,175.057,181.644,175.528z"/>
			<path style="fill:#2C6882;" d="M184.604,176.041l0.392-0.034c0.019,0.156,0.062,0.285,0.129,0.386
				c0.067,0.1,0.173,0.181,0.315,0.243c0.142,0.062,0.302,0.093,0.48,0.093c0.158,0,0.298-0.023,0.419-0.07
				c0.12-0.047,0.211-0.111,0.27-0.193c0.06-0.082,0.089-0.171,0.089-0.269s-0.028-0.184-0.085-0.257
				c-0.058-0.073-0.151-0.135-0.282-0.185c-0.084-0.033-0.271-0.084-0.558-0.153c-0.288-0.069-0.489-0.134-0.604-0.195
				c-0.149-0.078-0.261-0.176-0.335-0.292c-0.073-0.115-0.109-0.246-0.109-0.39c0-0.158,0.045-0.306,0.135-0.443
				c0.089-0.138,0.221-0.241,0.393-0.313c0.173-0.071,0.364-0.107,0.575-0.107c0.231,0,0.437,0.038,0.613,0.112
				c0.178,0.075,0.314,0.185,0.409,0.33c0.096,0.146,0.147,0.31,0.154,0.493l-0.397,0.03c-0.021-0.198-0.094-0.348-0.217-0.448
				c-0.123-0.102-0.306-0.152-0.546-0.152c-0.251,0-0.434,0.046-0.548,0.139c-0.114,0.092-0.172,0.202-0.172,0.332
				c0,0.112,0.04,0.205,0.122,0.277c0.079,0.072,0.287,0.147,0.624,0.224s0.568,0.143,0.693,0.199
				c0.183,0.084,0.317,0.19,0.404,0.319s0.13,0.277,0.13,0.445c0,0.167-0.048,0.324-0.143,0.472
				c-0.096,0.147-0.233,0.262-0.412,0.344s-0.38,0.123-0.604,0.123c-0.283,0-0.521-0.042-0.712-0.124
				c-0.191-0.083-0.342-0.207-0.451-0.373C184.667,176.438,184.609,176.25,184.604,176.041z"/>
		</g>
	</g>
	<g>
		<g>
			<path style="fill:#2C6882;" d="M150.929,54.311l0.414,0.104c-0.087,0.34-0.243,0.6-0.469,0.778s-0.502,0.269-0.828,0.269
				c-0.337,0-0.611-0.069-0.823-0.206c-0.212-0.138-0.372-0.337-0.482-0.598s-0.166-0.54-0.166-0.84c0-0.325,0.063-0.61,0.188-0.853
				c0.124-0.243,0.302-0.428,0.531-0.554c0.23-0.126,0.483-0.189,0.76-0.189c0.313,0,0.577,0.08,0.79,0.239
				c0.214,0.16,0.362,0.384,0.447,0.673l-0.408,0.097c-0.073-0.228-0.179-0.394-0.316-0.498c-0.139-0.104-0.312-0.156-0.521-0.156
				c-0.24,0-0.441,0.059-0.604,0.174c-0.161,0.115-0.275,0.27-0.341,0.464c-0.065,0.195-0.098,0.396-0.098,0.602
				c0,0.267,0.038,0.499,0.116,0.698c0.077,0.198,0.198,0.347,0.362,0.445c0.163,0.098,0.341,0.147,0.531,0.147
				c0.232,0,0.429-0.067,0.59-0.201S150.871,54.573,150.929,54.311z"/>
			<path style="fill:#2C6882;" d="M151.728,53.883c0-0.52,0.139-0.927,0.418-1.221s0.64-0.441,1.081-0.441
				c0.289,0,0.55,0.069,0.782,0.207c0.232,0.139,0.409,0.331,0.53,0.578c0.122,0.247,0.184,0.527,0.184,0.841
				c0,0.317-0.064,0.602-0.192,0.853c-0.129,0.25-0.311,0.44-0.545,0.569c-0.235,0.129-0.488,0.193-0.761,0.193
				c-0.295,0-0.559-0.071-0.79-0.214c-0.232-0.143-0.408-0.337-0.528-0.583C151.787,54.418,151.728,54.158,151.728,53.883z
				 M152.154,53.89c0,0.377,0.102,0.675,0.305,0.892s0.457,0.326,0.764,0.326c0.312,0,0.568-0.11,0.77-0.329
				c0.202-0.22,0.303-0.531,0.303-0.934c0-0.255-0.043-0.478-0.129-0.668c-0.087-0.19-0.213-0.338-0.379-0.442
				c-0.165-0.104-0.352-0.157-0.559-0.157c-0.293,0-0.545,0.102-0.757,0.303S152.154,53.418,152.154,53.89z"/>
			<path style="fill:#2C6882;" d="M155.252,55.408v-3.132h0.426l1.645,2.459v-2.459h0.397v3.132h-0.425l-1.646-2.461v2.461H155.252z
				"/>
			<path style="fill:#2C6882;" d="M159.214,55.408v-2.763h-1.032v-0.369h2.482v0.369h-1.036v2.763H159.214z"/>
			<path style="fill:#2C6882;" d="M161.095,55.408v-3.132h1.389c0.279,0,0.491,0.028,0.637,0.084
				c0.146,0.057,0.262,0.156,0.349,0.299c0.087,0.142,0.13,0.3,0.13,0.472c0,0.223-0.072,0.409-0.216,0.562s-0.366,0.25-0.666,0.291
				c0.109,0.053,0.192,0.104,0.249,0.156c0.121,0.11,0.236,0.25,0.345,0.416l0.545,0.853h-0.521l-0.415-0.651
				c-0.121-0.188-0.221-0.332-0.299-0.432s-0.148-0.17-0.21-0.209c-0.063-0.04-0.125-0.068-0.189-0.084
				c-0.047-0.01-0.124-0.015-0.23-0.015h-0.48v1.391H161.095z M161.51,53.658h0.891c0.189,0,0.337-0.02,0.444-0.059
				c0.106-0.039,0.188-0.102,0.243-0.188s0.084-0.18,0.084-0.281c0-0.148-0.055-0.27-0.162-0.365s-0.277-0.144-0.509-0.144h-0.991
				V53.658z"/>
			<path style="fill:#2C6882;" d="M164.123,53.883c0-0.52,0.139-0.927,0.418-1.221s0.64-0.441,1.081-0.441
				c0.289,0,0.55,0.069,0.782,0.207c0.232,0.139,0.409,0.331,0.53,0.578c0.122,0.247,0.184,0.527,0.184,0.841
				c0,0.317-0.064,0.602-0.192,0.853c-0.129,0.25-0.311,0.44-0.545,0.569c-0.235,0.129-0.488,0.193-0.761,0.193
				c-0.295,0-0.559-0.071-0.79-0.214c-0.232-0.143-0.408-0.337-0.528-0.583C164.183,54.418,164.123,54.158,164.123,53.883z
				 M164.55,53.89c0,0.377,0.102,0.675,0.305,0.892s0.457,0.326,0.764,0.326c0.312,0,0.568-0.11,0.77-0.329
				c0.202-0.22,0.303-0.531,0.303-0.934c0-0.255-0.043-0.478-0.129-0.668c-0.087-0.19-0.213-0.338-0.379-0.442
				c-0.165-0.104-0.352-0.157-0.559-0.157c-0.293,0-0.545,0.102-0.757,0.303S164.55,53.418,164.55,53.89z"/>
			<path style="fill:#2C6882;" d="M167.634,55.408v-3.132h0.415v2.763h1.542v0.369H167.634z"/>
		</g>
	</g>
	<polygon points="200.022,108.357 200.022,114.533 192.872,114.533 192.872,120.733 200.022,120.733 200.022,126.908 
		216.085,117.635 	"/>
</g>
</svg>
