<?xml version="1.0" encoding="utf-8"?>
<!-- Generator: Adobe Illustrator 17.0.0, SVG Export Plug-In . SVG Version: 6.00 Build 0)  -->
<!DOCTYPE svg PUBLIC "-//W3C//DTD SVG 1.1//EN" "http://www.w3.org/Graphics/SVG/1.1/DTD/svg11.dtd">
<svg version="1.1" id="Capa_1" xmlns="http://www.w3.org/2000/svg" xmlns:xlink="http://www.w3.org/1999/xlink" x="0px" y="0px"
	 width="447.419px" height="339.009px" viewBox="0 0 447.419 339.009" style="enable-background:new 0 0 447.419 339.009;"
	 xml:space="preserve">
<g>
	<g>
		<g>
			<path d="M14.664,35.495l1.43-0.125c0.067,0.573,0.226,1.043,0.473,1.41s0.632,0.664,1.152,0.891s1.106,0.34,1.758,0.34
				c0.578,0,1.089-0.086,1.531-0.258s0.772-0.407,0.988-0.707s0.324-0.626,0.324-0.98c0-0.359-0.104-0.673-0.313-0.941
				s-0.552-0.493-1.031-0.676c-0.308-0.12-0.987-0.306-2.039-0.559s-1.789-0.491-2.211-0.715c-0.547-0.286-0.954-0.642-1.223-1.066
				c-0.269-0.425-0.402-0.899-0.402-1.426c0-0.578,0.164-1.118,0.492-1.621s0.808-0.884,1.437-1.145s1.331-0.391,2.102-0.391
				c0.849,0,1.598,0.137,2.246,0.41s1.147,0.676,1.496,1.207s0.536,1.133,0.563,1.805l-1.453,0.109
				c-0.078-0.724-0.343-1.271-0.793-1.641s-1.116-0.555-1.996-0.555c-0.917,0-1.585,0.168-2.004,0.504s-0.629,0.741-0.629,1.215
				c0,0.411,0.148,0.75,0.445,1.016c0.292,0.266,1.054,0.538,2.285,0.816s2.077,0.522,2.535,0.73
				c0.667,0.308,1.159,0.696,1.477,1.168s0.477,1.015,0.477,1.629c0,0.609-0.175,1.184-0.523,1.723s-0.851,0.958-1.504,1.258
				s-1.39,0.449-2.207,0.449c-1.036,0-1.905-0.151-2.605-0.453s-1.25-0.757-1.648-1.363S14.685,36.261,14.664,35.495z"/>
			<path d="M30.728,36.503l1.453,0.18c-0.229,0.849-0.653,1.508-1.273,1.977s-1.411,0.703-2.375,0.703
				c-1.214,0-2.176-0.374-2.887-1.121s-1.066-1.796-1.066-3.145c0-1.396,0.359-2.479,1.078-3.25
				c0.719-0.771,1.651-1.156,2.797-1.156c1.109,0,2.016,0.378,2.719,1.133c0.703,0.755,1.055,1.817,1.055,3.187
				c0,0.083-0.003,0.208-0.008,0.375h-6.188c0.052,0.911,0.31,1.609,0.773,2.094s1.042,0.727,1.734,0.727
				c0.516,0,0.956-0.136,1.32-0.406S30.514,37.097,30.728,36.503z M26.11,34.23h4.633c-0.063-0.698-0.239-1.222-0.531-1.57
				c-0.448-0.542-1.028-0.812-1.742-0.812c-0.646,0-1.188,0.216-1.629,0.648S26.157,33.506,26.11,34.23z"/>
			<path d="M33.291,39.175V27.722h1.406v11.453H33.291z"/>
			<path d="M41.933,36.503l1.453,0.18c-0.229,0.849-0.653,1.508-1.273,1.977s-1.411,0.703-2.375,0.703
				c-1.214,0-2.176-0.374-2.887-1.121s-1.066-1.796-1.066-3.145c0-1.396,0.359-2.479,1.078-3.25
				c0.719-0.771,1.651-1.156,2.797-1.156c1.109,0,2.016,0.378,2.719,1.133c0.703,0.755,1.055,1.817,1.055,3.187
				c0,0.083-0.003,0.208-0.008,0.375h-6.188c0.052,0.911,0.31,1.609,0.773,2.094s1.042,0.727,1.734,0.727
				c0.516,0,0.956-0.136,1.32-0.406S41.719,37.097,41.933,36.503z M37.316,34.23h4.633c-0.063-0.698-0.239-1.222-0.531-1.57
				c-0.448-0.542-1.028-0.812-1.742-0.812c-0.646,0-1.188,0.216-1.629,0.648S37.362,33.506,37.316,34.23z"/>
			<path d="M49.941,36.136l1.383,0.18c-0.151,0.953-0.538,1.699-1.16,2.238s-1.387,0.809-2.293,0.809
				c-1.136,0-2.048-0.371-2.738-1.113s-1.035-1.806-1.035-3.191c0-0.896,0.148-1.68,0.445-2.352s0.749-1.176,1.355-1.512
				s1.267-0.504,1.98-0.504c0.901,0,1.638,0.228,2.211,0.684s0.94,1.103,1.102,1.941l-1.367,0.211
				c-0.13-0.558-0.36-0.977-0.691-1.258c-0.331-0.281-0.73-0.422-1.199-0.422c-0.708,0-1.284,0.254-1.727,0.762
				s-0.664,1.312-0.664,2.41c0,1.114,0.214,1.925,0.641,2.43s0.984,0.758,1.672,0.758c0.552,0,1.013-0.169,1.383-0.508
				S49.843,36.839,49.941,36.136z"/>
			<path d="M57.317,36.136l1.383,0.18c-0.151,0.953-0.538,1.699-1.16,2.238s-1.387,0.809-2.293,0.809
				c-1.136,0-2.048-0.371-2.738-1.113s-1.035-1.806-1.035-3.191c0-0.896,0.148-1.68,0.445-2.352s0.749-1.176,1.355-1.512
				s1.267-0.504,1.98-0.504c0.901,0,1.638,0.228,2.211,0.684s0.94,1.103,1.102,1.941L57.2,33.526
				c-0.13-0.558-0.36-0.977-0.691-1.258c-0.331-0.281-0.73-0.422-1.199-0.422c-0.708,0-1.284,0.254-1.727,0.762
				s-0.664,1.312-0.664,2.41c0,1.114,0.214,1.925,0.641,2.43s0.984,0.758,1.672,0.758c0.552,0,1.013-0.169,1.383-0.508
				S57.219,36.839,57.317,36.136z"/>
			<path d="M59.287,29.339v-1.617h1.406v1.617H59.287z M59.287,39.175v-8.297h1.406v8.297H59.287z"/>
			<path d="M61.687,35.026c0-1.536,0.427-2.675,1.281-3.414c0.714-0.614,1.583-0.922,2.609-0.922c1.141,0,2.073,0.374,2.797,1.121
				c0.724,0.747,1.086,1.78,1.086,3.098c0,1.067-0.16,1.907-0.48,2.52s-0.786,1.087-1.398,1.426s-1.28,0.508-2.004,0.508
				c-1.161,0-2.101-0.372-2.816-1.117S61.687,36.428,61.687,35.026z M63.132,35.026c0,1.063,0.231,1.858,0.695,2.387
				c0.464,0.528,1.047,0.793,1.75,0.793c0.698,0,1.278-0.266,1.742-0.797s0.695-1.341,0.695-2.43c0-1.026-0.233-1.804-0.699-2.332
				s-1.046-0.793-1.738-0.793c-0.703,0-1.286,0.263-1.75,0.789C63.363,33.17,63.132,33.964,63.132,35.026z"/>
			<path d="M70.484,39.175v-8.297h1.266v1.18c0.609-0.911,1.489-1.367,2.641-1.367c0.5,0,0.96,0.09,1.379,0.27
				s0.733,0.415,0.941,0.707s0.354,0.638,0.438,1.039c0.052,0.261,0.078,0.716,0.078,1.367v5.102H75.82v-5.047
				c0-0.573-0.055-1.001-0.164-1.285s-0.304-0.511-0.582-0.68c-0.278-0.169-0.605-0.254-0.98-0.254c-0.599,0-1.116,0.19-1.551,0.57
				s-0.652,1.102-0.652,2.164v4.531H70.484z"/>
			<path d="M84.173,38.151c-0.521,0.442-1.022,0.755-1.504,0.938s-0.999,0.273-1.551,0.273c-0.911,0-1.612-0.223-2.102-0.668
				s-0.734-1.015-0.734-1.707c0-0.406,0.093-0.777,0.277-1.113s0.427-0.605,0.727-0.809s0.637-0.356,1.012-0.461
				c0.276-0.073,0.692-0.144,1.25-0.211c1.136-0.136,1.972-0.297,2.508-0.484c0.005-0.192,0.008-0.315,0.008-0.367
				c0-0.573-0.133-0.977-0.398-1.211c-0.359-0.317-0.894-0.477-1.602-0.477c-0.661,0-1.149,0.116-1.465,0.348
				c-0.315,0.231-0.548,0.642-0.699,1.23l-1.375-0.188c0.125-0.589,0.331-1.063,0.617-1.426c0.286-0.362,0.7-0.641,1.242-0.836
				s1.169-0.293,1.883-0.293c0.708,0,1.284,0.083,1.727,0.25s0.769,0.376,0.977,0.629s0.354,0.571,0.438,0.957
				c0.047,0.239,0.07,0.672,0.07,1.297v1.875c0,1.308,0.03,2.134,0.09,2.48s0.179,0.679,0.355,0.996h-1.469
				C84.309,38.883,84.215,38.542,84.173,38.151z M84.056,35.011c-0.511,0.208-1.276,0.386-2.297,0.531
				c-0.578,0.083-0.987,0.177-1.227,0.281s-0.425,0.257-0.555,0.457s-0.195,0.423-0.195,0.668c0,0.375,0.142,0.688,0.426,0.938
				s0.699,0.375,1.246,0.375c0.542,0,1.023-0.118,1.445-0.355s0.731-0.562,0.93-0.973c0.151-0.317,0.227-0.786,0.227-1.406V35.011z"
				/>
			<path d="M92.416,39.175v-1.047c-0.526,0.823-1.3,1.234-2.32,1.234c-0.661,0-1.27-0.183-1.824-0.547s-0.984-0.874-1.289-1.527
				s-0.457-1.405-0.457-2.254c0-0.828,0.138-1.579,0.414-2.254s0.69-1.191,1.242-1.551s1.169-0.539,1.852-0.539
				c0.5,0,0.945,0.105,1.336,0.316s0.708,0.485,0.953,0.824v-4.109h1.398v11.453H92.416z M87.971,35.034
				c0,1.063,0.224,1.856,0.672,2.383s0.977,0.789,1.586,0.789c0.614,0,1.137-0.251,1.566-0.754s0.645-1.27,0.645-2.301
				c0-1.136-0.219-1.969-0.656-2.5s-0.977-0.797-1.617-0.797c-0.625,0-1.147,0.255-1.566,0.766S87.971,33.936,87.971,35.034z"/>
			<path d="M94.784,35.026c0-1.536,0.427-2.675,1.281-3.414c0.714-0.614,1.583-0.922,2.609-0.922c1.141,0,2.073,0.374,2.797,1.121
				c0.724,0.747,1.086,1.78,1.086,3.098c0,1.067-0.16,1.907-0.48,2.52s-0.786,1.087-1.398,1.426s-1.28,0.508-2.004,0.508
				c-1.161,0-2.101-0.372-2.816-1.117S94.784,36.428,94.784,35.026z M96.23,35.026c0,1.063,0.231,1.858,0.695,2.387
				s1.047,0.793,1.75,0.793c0.698,0,1.278-0.266,1.742-0.797s0.695-1.341,0.695-2.43c0-1.026-0.233-1.804-0.699-2.332
				s-1.046-0.793-1.738-0.793c-0.703,0-1.286,0.263-1.75,0.789S96.23,33.964,96.23,35.026z"/>
			<path d="M113.083,36.503l1.453,0.18c-0.229,0.849-0.653,1.508-1.273,1.977s-1.411,0.703-2.375,0.703
				c-1.214,0-2.176-0.374-2.887-1.121s-1.066-1.796-1.066-3.145c0-1.396,0.359-2.479,1.078-3.25
				c0.719-0.771,1.651-1.156,2.797-1.156c1.109,0,2.016,0.378,2.719,1.133c0.703,0.755,1.055,1.817,1.055,3.187
				c0,0.083-0.003,0.208-0.008,0.375h-6.188c0.052,0.911,0.31,1.609,0.773,2.094s1.042,0.727,1.734,0.727
				c0.516,0,0.956-0.136,1.32-0.406S112.869,37.097,113.083,36.503z M108.466,34.23h4.633c-0.063-0.698-0.239-1.222-0.531-1.57
				c-0.448-0.542-1.028-0.812-1.742-0.812c-0.646,0-1.188,0.216-1.629,0.648S108.513,33.506,108.466,34.23z"/>
			<path d="M115.647,39.175V27.722h1.406v11.453H115.647z"/>
			<path d="M122.43,42.355V30.878h1.281v1.078c0.302-0.422,0.644-0.738,1.023-0.949s0.841-0.316,1.383-0.316
				c0.708,0,1.333,0.183,1.875,0.547c0.542,0.364,0.95,0.879,1.227,1.543s0.414,1.392,0.414,2.184c0,0.849-0.152,1.613-0.457,2.293
				s-0.747,1.2-1.328,1.563c-0.581,0.362-1.191,0.543-1.832,0.543c-0.469,0-0.89-0.099-1.262-0.297s-0.679-0.448-0.918-0.75v4.039
				H122.43z M123.703,35.073c0,1.067,0.216,1.856,0.648,2.367s0.956,0.766,1.57,0.766c0.625,0,1.16-0.265,1.605-0.793
				s0.668-1.348,0.668-2.457c0-1.058-0.218-1.849-0.652-2.375s-0.954-0.789-1.559-0.789c-0.599,0-1.129,0.28-1.59,0.84
				S123.703,34.006,123.703,35.073z"/>
			<path d="M130.689,39.175v-8.297h1.266v1.258c0.323-0.589,0.621-0.977,0.895-1.164s0.574-0.281,0.902-0.281
				c0.474,0,0.956,0.151,1.445,0.453l-0.484,1.305c-0.344-0.203-0.688-0.305-1.031-0.305c-0.308,0-0.583,0.093-0.828,0.277
				s-0.419,0.441-0.523,0.77c-0.156,0.5-0.234,1.047-0.234,1.641v4.344H130.689z"/>
			<path d="M134.885,35.026c0-1.536,0.427-2.675,1.281-3.414c0.714-0.614,1.583-0.922,2.609-0.922c1.141,0,2.073,0.374,2.797,1.121
				c0.724,0.747,1.086,1.78,1.086,3.098c0,1.067-0.16,1.907-0.48,2.52s-0.786,1.087-1.398,1.426s-1.28,0.508-2.004,0.508
				c-1.161,0-2.101-0.372-2.816-1.117S134.885,36.428,134.885,35.026z M136.33,35.026c0,1.063,0.231,1.858,0.695,2.387
				s1.047,0.793,1.75,0.793c0.698,0,1.278-0.266,1.742-0.797s0.695-1.341,0.695-2.43c0-1.026-0.233-1.804-0.699-2.332
				s-1.046-0.793-1.738-0.793c-0.703,0-1.286,0.263-1.75,0.789S136.33,33.964,136.33,35.026z"/>
			<path d="M149.097,36.136l1.383,0.18c-0.151,0.953-0.538,1.699-1.16,2.238s-1.387,0.809-2.293,0.809
				c-1.136,0-2.048-0.371-2.738-1.113s-1.035-1.806-1.035-3.191c0-0.896,0.148-1.68,0.445-2.352s0.749-1.176,1.355-1.512
				s1.267-0.504,1.98-0.504c0.901,0,1.638,0.228,2.211,0.684s0.94,1.103,1.102,1.941l-1.367,0.211
				c-0.13-0.558-0.36-0.977-0.691-1.258c-0.331-0.281-0.73-0.422-1.199-0.422c-0.708,0-1.284,0.254-1.727,0.762
				s-0.664,1.312-0.664,2.41c0,1.114,0.214,1.925,0.641,2.43s0.984,0.758,1.672,0.758c0.552,0,1.013-0.169,1.383-0.508
				S148.998,36.839,149.097,36.136z"/>
			<path d="M156.738,36.503l1.453,0.18c-0.229,0.849-0.653,1.508-1.273,1.977s-1.411,0.703-2.375,0.703
				c-1.214,0-2.176-0.374-2.887-1.121s-1.066-1.796-1.066-3.145c0-1.396,0.359-2.479,1.078-3.25
				c0.719-0.771,1.651-1.156,2.797-1.156c1.109,0,2.016,0.378,2.719,1.133c0.703,0.755,1.055,1.817,1.055,3.187
				c0,0.083-0.003,0.208-0.008,0.375h-6.188c0.052,0.911,0.31,1.609,0.773,2.094s1.042,0.727,1.734,0.727
				c0.516,0,0.956-0.136,1.32-0.406S156.525,37.097,156.738,36.503z M152.121,34.23h4.633c-0.063-0.698-0.239-1.222-0.531-1.57
				c-0.448-0.542-1.028-0.812-1.742-0.812c-0.646,0-1.188,0.216-1.629,0.648S152.168,33.506,152.121,34.23z"/>
			<path d="M158.772,36.698l1.391-0.219c0.078,0.558,0.296,0.984,0.652,1.281s0.855,0.445,1.496,0.445
				c0.646,0,1.125-0.132,1.438-0.395s0.469-0.571,0.469-0.926c0-0.317-0.138-0.567-0.414-0.75c-0.192-0.125-0.672-0.284-1.438-0.477
				c-1.031-0.261-1.746-0.485-2.145-0.676s-0.7-0.453-0.906-0.789s-0.309-0.707-0.309-1.113c0-0.37,0.085-0.712,0.254-1.027
				c0.169-0.315,0.399-0.577,0.691-0.785c0.219-0.161,0.517-0.298,0.895-0.41s0.782-0.168,1.215-0.168
				c0.651,0,1.223,0.094,1.715,0.281s0.855,0.441,1.09,0.762c0.234,0.32,0.396,0.749,0.484,1.285l-1.375,0.188
				c-0.063-0.427-0.243-0.761-0.543-1c-0.3-0.239-0.723-0.359-1.27-0.359c-0.646,0-1.106,0.106-1.383,0.32
				c-0.276,0.214-0.414,0.464-0.414,0.75c0,0.183,0.058,0.347,0.172,0.492c0.114,0.151,0.294,0.276,0.539,0.375
				c0.141,0.052,0.555,0.172,1.242,0.359c0.995,0.266,1.688,0.483,2.082,0.652s0.702,0.415,0.926,0.738s0.336,0.724,0.336,1.203
				c0,0.469-0.137,0.91-0.41,1.324s-0.668,0.734-1.184,0.961s-1.099,0.34-1.75,0.34c-1.078,0-1.899-0.224-2.465-0.672
				S158.928,37.578,158.772,36.698z"/>
			<path d="M166.187,35.026c0-1.536,0.427-2.675,1.281-3.414c0.714-0.614,1.583-0.922,2.609-0.922c1.141,0,2.073,0.374,2.797,1.121
				c0.724,0.747,1.086,1.78,1.086,3.098c0,1.067-0.16,1.907-0.48,2.52s-0.786,1.087-1.398,1.426s-1.28,0.508-2.004,0.508
				c-1.161,0-2.101-0.372-2.816-1.117S166.187,36.428,166.187,35.026z M167.632,35.026c0,1.063,0.231,1.858,0.695,2.387
				s1.047,0.793,1.75,0.793c0.698,0,1.278-0.266,1.742-0.797s0.695-1.341,0.695-2.43c0-1.026-0.233-1.804-0.699-2.332
				s-1.046-0.793-1.738-0.793c-0.703,0-1.286,0.263-1.75,0.789S167.632,33.964,167.632,35.026z"/>
			<path d="M178.243,36.698l1.391-0.219c0.078,0.558,0.296,0.984,0.652,1.281s0.855,0.445,1.496,0.445
				c0.646,0,1.125-0.132,1.438-0.395s0.469-0.571,0.469-0.926c0-0.317-0.138-0.567-0.414-0.75c-0.192-0.125-0.672-0.284-1.438-0.477
				c-1.031-0.261-1.746-0.485-2.145-0.676s-0.7-0.453-0.906-0.789s-0.309-0.707-0.309-1.113c0-0.37,0.085-0.712,0.254-1.027
				c0.169-0.315,0.399-0.577,0.691-0.785c0.219-0.161,0.517-0.298,0.895-0.41s0.782-0.168,1.215-0.168
				c0.651,0,1.223,0.094,1.715,0.281s0.855,0.441,1.09,0.762c0.234,0.32,0.396,0.749,0.484,1.285l-1.375,0.188
				c-0.063-0.427-0.243-0.761-0.543-1c-0.3-0.239-0.723-0.359-1.27-0.359c-0.646,0-1.106,0.106-1.383,0.32
				c-0.276,0.214-0.414,0.464-0.414,0.75c0,0.183,0.058,0.347,0.172,0.492c0.114,0.151,0.294,0.276,0.539,0.375
				c0.141,0.052,0.555,0.172,1.242,0.359c0.995,0.266,1.688,0.483,2.082,0.652s0.702,0.415,0.926,0.738s0.336,0.724,0.336,1.203
				c0,0.469-0.137,0.91-0.41,1.324s-0.668,0.734-1.184,0.961s-1.099,0.34-1.75,0.34c-1.078,0-1.899-0.224-2.465-0.672
				S178.4,37.578,178.243,36.698z"/>
			<path d="M191.861,36.503l1.453,0.18c-0.229,0.849-0.653,1.508-1.273,1.977s-1.411,0.703-2.375,0.703
				c-1.214,0-2.176-0.374-2.887-1.121s-1.066-1.796-1.066-3.145c0-1.396,0.359-2.479,1.078-3.25
				c0.719-0.771,1.651-1.156,2.797-1.156c1.109,0,2.016,0.378,2.719,1.133c0.703,0.755,1.055,1.817,1.055,3.187
				c0,0.083-0.003,0.208-0.008,0.375h-6.188c0.052,0.911,0.31,1.609,0.773,2.094s1.042,0.727,1.734,0.727
				c0.516,0,0.956-0.136,1.32-0.406S191.648,37.097,191.861,36.503z M187.244,34.23h4.633c-0.063-0.698-0.239-1.222-0.531-1.57
				c-0.448-0.542-1.028-0.812-1.742-0.812c-0.646,0-1.188,0.216-1.629,0.648S187.291,33.506,187.244,34.23z"/>
			<path d="M198.277,42.355V30.878h1.281v1.078c0.302-0.422,0.644-0.738,1.023-0.949s0.841-0.316,1.383-0.316
				c0.708,0,1.333,0.183,1.875,0.547s0.95,0.879,1.227,1.543s0.414,1.392,0.414,2.184c0,0.849-0.152,1.613-0.457,2.293
				s-0.747,1.2-1.328,1.563s-1.191,0.543-1.832,0.543c-0.469,0-0.89-0.099-1.262-0.297s-0.679-0.448-0.918-0.75v4.039H198.277z
				 M199.551,35.073c0,1.067,0.216,1.856,0.648,2.367s0.956,0.766,1.57,0.766c0.625,0,1.16-0.265,1.605-0.793
				s0.668-1.348,0.668-2.457c0-1.058-0.218-1.849-0.652-2.375s-0.954-0.789-1.559-0.789c-0.599,0-1.129,0.28-1.59,0.84
				S199.551,34.006,199.551,35.073z"/>
			<path d="M211.966,38.151c-0.521,0.442-1.022,0.755-1.504,0.938s-0.999,0.273-1.551,0.273c-0.911,0-1.612-0.223-2.102-0.668
				s-0.734-1.015-0.734-1.707c0-0.406,0.093-0.777,0.277-1.113s0.427-0.605,0.727-0.809s0.637-0.356,1.012-0.461
				c0.276-0.073,0.692-0.144,1.25-0.211c1.136-0.136,1.972-0.297,2.508-0.484c0.005-0.192,0.008-0.315,0.008-0.367
				c0-0.573-0.133-0.977-0.398-1.211c-0.359-0.317-0.894-0.477-1.602-0.477c-0.661,0-1.149,0.116-1.465,0.348
				c-0.315,0.231-0.548,0.642-0.699,1.23l-1.375-0.188c0.125-0.589,0.331-1.063,0.617-1.426c0.286-0.362,0.7-0.641,1.242-0.836
				s1.169-0.293,1.883-0.293c0.708,0,1.284,0.083,1.727,0.25s0.769,0.376,0.977,0.629s0.354,0.571,0.438,0.957
				c0.047,0.239,0.07,0.672,0.07,1.297v1.875c0,1.308,0.03,2.134,0.09,2.48s0.179,0.679,0.355,0.996h-1.469
				C212.102,38.883,212.008,38.542,211.966,38.151z M211.849,35.011c-0.511,0.208-1.276,0.386-2.297,0.531
				c-0.578,0.083-0.987,0.177-1.227,0.281s-0.425,0.257-0.555,0.457s-0.195,0.423-0.195,0.668c0,0.375,0.142,0.688,0.426,0.938
				s0.699,0.375,1.246,0.375c0.542,0,1.023-0.118,1.445-0.355s0.731-0.562,0.93-0.973c0.151-0.317,0.227-0.786,0.227-1.406V35.011z"
				/>
			<path d="M214.264,36.698l1.391-0.219c0.078,0.558,0.296,0.984,0.652,1.281s0.855,0.445,1.496,0.445
				c0.646,0,1.125-0.132,1.438-0.395s0.469-0.571,0.469-0.926c0-0.317-0.138-0.567-0.414-0.75c-0.192-0.125-0.672-0.284-1.438-0.477
				c-1.031-0.261-1.746-0.485-2.145-0.676s-0.7-0.453-0.906-0.789s-0.309-0.707-0.309-1.113c0-0.37,0.085-0.712,0.254-1.027
				c0.169-0.315,0.399-0.577,0.691-0.785c0.219-0.161,0.517-0.298,0.895-0.41s0.782-0.168,1.215-0.168
				c0.651,0,1.223,0.094,1.715,0.281s0.855,0.441,1.09,0.762c0.234,0.32,0.396,0.749,0.484,1.285l-1.375,0.188
				c-0.063-0.427-0.243-0.761-0.543-1c-0.3-0.239-0.723-0.359-1.27-0.359c-0.646,0-1.106,0.106-1.383,0.32
				c-0.276,0.214-0.414,0.464-0.414,0.75c0,0.183,0.058,0.347,0.172,0.492c0.114,0.151,0.294,0.276,0.539,0.375
				c0.141,0.052,0.555,0.172,1.242,0.359c0.995,0.266,1.688,0.483,2.082,0.652s0.702,0.415,0.926,0.738s0.336,0.724,0.336,1.203
				c0,0.469-0.137,0.91-0.41,1.324s-0.668,0.734-1.184,0.961s-1.099,0.34-1.75,0.34c-1.078,0-1.899-0.224-2.465-0.672
				S214.42,37.578,214.264,36.698z"/>
			<path d="M227.616,38.151c-0.521,0.442-1.022,0.755-1.504,0.938s-0.999,0.273-1.551,0.273c-0.911,0-1.612-0.223-2.102-0.668
				s-0.734-1.015-0.734-1.707c0-0.406,0.093-0.777,0.277-1.113s0.427-0.605,0.727-0.809s0.637-0.356,1.012-0.461
				c0.276-0.073,0.692-0.144,1.25-0.211c1.136-0.136,1.972-0.297,2.508-0.484c0.005-0.192,0.008-0.315,0.008-0.367
				c0-0.573-0.133-0.977-0.398-1.211c-0.359-0.317-0.894-0.477-1.602-0.477c-0.661,0-1.149,0.116-1.465,0.348
				c-0.315,0.231-0.548,0.642-0.699,1.23l-1.375-0.188c0.125-0.589,0.331-1.063,0.617-1.426c0.286-0.362,0.7-0.641,1.242-0.836
				s1.169-0.293,1.883-0.293c0.708,0,1.284,0.083,1.727,0.25s0.769,0.376,0.977,0.629s0.354,0.571,0.438,0.957
				c0.047,0.239,0.07,0.672,0.07,1.297v1.875c0,1.308,0.03,2.134,0.09,2.48s0.179,0.679,0.355,0.996h-1.469
				C227.752,38.883,227.658,38.542,227.616,38.151z M227.499,35.011c-0.511,0.208-1.276,0.386-2.297,0.531
				c-0.578,0.083-0.987,0.177-1.227,0.281s-0.425,0.257-0.555,0.457s-0.195,0.423-0.195,0.668c0,0.375,0.142,0.688,0.426,0.938
				s0.699,0.375,1.246,0.375c0.542,0,1.023-0.118,1.445-0.355s0.731-0.562,0.93-0.973c0.151-0.317,0.227-0.786,0.227-1.406V35.011z"
				/>
			<path d="M239.712,38.151c-0.521,0.442-1.022,0.755-1.504,0.938s-0.999,0.273-1.551,0.273c-0.911,0-1.612-0.223-2.102-0.668
				s-0.734-1.015-0.734-1.707c0-0.406,0.093-0.777,0.277-1.113s0.427-0.605,0.727-0.809s0.637-0.356,1.012-0.461
				c0.276-0.073,0.692-0.144,1.25-0.211c1.136-0.136,1.972-0.297,2.508-0.484c0.005-0.192,0.008-0.315,0.008-0.367
				c0-0.573-0.133-0.977-0.398-1.211c-0.359-0.317-0.894-0.477-1.602-0.477c-0.661,0-1.149,0.116-1.465,0.348
				c-0.315,0.231-0.548,0.642-0.699,1.23l-1.375-0.188c0.125-0.589,0.331-1.063,0.617-1.426c0.286-0.362,0.7-0.641,1.242-0.836
				s1.169-0.293,1.883-0.293c0.708,0,1.284,0.083,1.727,0.25s0.769,0.376,0.977,0.629s0.354,0.571,0.438,0.957
				c0.047,0.239,0.07,0.672,0.07,1.297v1.875c0,1.308,0.03,2.134,0.09,2.48s0.179,0.679,0.355,0.996h-1.469
				C239.848,38.883,239.754,38.542,239.712,38.151z M239.595,35.011c-0.511,0.208-1.276,0.386-2.297,0.531
				c-0.578,0.083-0.987,0.177-1.227,0.281s-0.425,0.257-0.555,0.457s-0.195,0.423-0.195,0.668c0,0.375,0.142,0.688,0.426,0.938
				s0.699,0.375,1.246,0.375c0.542,0,1.023-0.118,1.445-0.355s0.731-0.562,0.93-0.973c0.151-0.317,0.227-0.786,0.227-1.406V35.011z"
				/>
			<path d="M245.831,36.698l1.391-0.219c0.078,0.558,0.296,0.984,0.652,1.281s0.855,0.445,1.496,0.445
				c0.646,0,1.125-0.132,1.438-0.395s0.469-0.571,0.469-0.926c0-0.317-0.138-0.567-0.414-0.75c-0.192-0.125-0.672-0.284-1.438-0.477
				c-1.031-0.261-1.746-0.485-2.145-0.676s-0.7-0.453-0.906-0.789s-0.309-0.707-0.309-1.113c0-0.37,0.085-0.712,0.254-1.027
				c0.169-0.315,0.399-0.577,0.691-0.785c0.219-0.161,0.517-0.298,0.895-0.41s0.782-0.168,1.215-0.168
				c0.651,0,1.223,0.094,1.715,0.281s0.855,0.441,1.09,0.762c0.234,0.32,0.396,0.749,0.484,1.285l-1.375,0.188
				c-0.063-0.427-0.243-0.761-0.543-1c-0.3-0.239-0.723-0.359-1.27-0.359c-0.646,0-1.106,0.106-1.383,0.32
				c-0.276,0.214-0.414,0.464-0.414,0.75c0,0.183,0.058,0.347,0.172,0.492c0.114,0.151,0.294,0.276,0.539,0.375
				c0.141,0.052,0.555,0.172,1.242,0.359c0.995,0.266,1.688,0.483,2.082,0.652s0.702,0.415,0.926,0.738s0.336,0.724,0.336,1.203
				c0,0.469-0.137,0.91-0.41,1.324s-0.668,0.734-1.184,0.961s-1.099,0.34-1.75,0.34c-1.078,0-1.899-0.224-2.465-0.672
				S245.987,37.578,245.831,36.698z"/>
			<path d="M259.207,39.175v-1.219c-0.646,0.938-1.523,1.406-2.633,1.406c-0.489,0-0.946-0.094-1.371-0.281
				s-0.739-0.423-0.945-0.707s-0.351-0.632-0.434-1.043c-0.058-0.276-0.086-0.714-0.086-1.313v-5.141h1.406v4.602
				c0,0.734,0.028,1.229,0.086,1.484c0.089,0.37,0.276,0.66,0.563,0.871s0.641,0.316,1.063,0.316s0.817-0.108,1.188-0.324
				s0.632-0.511,0.785-0.883s0.23-0.913,0.23-1.621v-4.445h1.406v8.297H259.207z"/>
			<path d="M265.85,39.175v-8.297h1.266v1.258c0.323-0.589,0.621-0.977,0.895-1.164s0.574-0.281,0.902-0.281
				c0.474,0,0.956,0.151,1.445,0.453l-0.484,1.305c-0.344-0.203-0.688-0.305-1.031-0.305c-0.308,0-0.583,0.093-0.828,0.277
				s-0.419,0.441-0.523,0.77c-0.156,0.5-0.234,1.047-0.234,1.641v4.344H265.85z"/>
			<path d="M276.249,36.503l1.453,0.18c-0.229,0.849-0.653,1.508-1.273,1.977s-1.411,0.703-2.375,0.703
				c-1.214,0-2.176-0.374-2.887-1.121s-1.066-1.796-1.066-3.145c0-1.396,0.359-2.479,1.078-3.25
				c0.719-0.771,1.651-1.156,2.797-1.156c1.109,0,2.016,0.378,2.719,1.133c0.703,0.755,1.055,1.817,1.055,3.187
				c0,0.083-0.003,0.208-0.008,0.375h-6.188c0.052,0.911,0.31,1.609,0.773,2.094s1.042,0.727,1.734,0.727
				c0.516,0,0.956-0.136,1.32-0.406S276.035,37.097,276.249,36.503z M271.632,34.23h4.633c-0.063-0.698-0.239-1.222-0.531-1.57
				c-0.448-0.542-1.028-0.812-1.742-0.812c-0.646,0-1.188,0.216-1.629,0.648S271.679,33.506,271.632,34.23z"/>
			<path d="M278.281,36.698l1.391-0.219c0.078,0.558,0.296,0.984,0.652,1.281s0.855,0.445,1.496,0.445
				c0.646,0,1.125-0.132,1.438-0.395s0.469-0.571,0.469-0.926c0-0.317-0.138-0.567-0.414-0.75c-0.192-0.125-0.672-0.284-1.438-0.477
				c-1.031-0.261-1.746-0.485-2.145-0.676s-0.7-0.453-0.906-0.789s-0.309-0.707-0.309-1.113c0-0.37,0.085-0.712,0.254-1.027
				c0.169-0.315,0.399-0.577,0.691-0.785c0.219-0.161,0.517-0.298,0.895-0.41s0.782-0.168,1.215-0.168
				c0.651,0,1.223,0.094,1.715,0.281s0.855,0.441,1.09,0.762c0.234,0.32,0.396,0.749,0.484,1.285l-1.375,0.188
				c-0.063-0.427-0.243-0.761-0.543-1c-0.3-0.239-0.723-0.359-1.27-0.359c-0.646,0-1.106,0.106-1.383,0.32
				c-0.276,0.214-0.414,0.464-0.414,0.75c0,0.183,0.058,0.347,0.172,0.492c0.114,0.151,0.294,0.276,0.539,0.375
				c0.141,0.052,0.555,0.172,1.242,0.359c0.995,0.266,1.688,0.483,2.082,0.652s0.702,0.415,0.926,0.738s0.336,0.724,0.336,1.203
				c0,0.469-0.137,0.91-0.41,1.324s-0.668,0.734-1.184,0.961s-1.099,0.34-1.75,0.34c-1.078,0-1.899-0.224-2.465-0.672
				S278.438,37.578,278.281,36.698z"/>
			<path d="M286.22,42.355V30.878h1.281v1.078c0.302-0.422,0.644-0.738,1.023-0.949s0.841-0.316,1.383-0.316
				c0.708,0,1.333,0.183,1.875,0.547s0.95,0.879,1.227,1.543s0.414,1.392,0.414,2.184c0,0.849-0.152,1.613-0.457,2.293
				s-0.747,1.2-1.328,1.563s-1.191,0.543-1.832,0.543c-0.469,0-0.89-0.099-1.262-0.297s-0.679-0.448-0.918-0.75v4.039H286.22z
				 M287.493,35.073c0,1.067,0.216,1.856,0.648,2.367s0.956,0.766,1.57,0.766c0.625,0,1.16-0.265,1.605-0.793
				s0.668-1.348,0.668-2.457c0-1.058-0.218-1.849-0.652-2.375s-0.954-0.789-1.559-0.789c-0.599,0-1.129,0.28-1.59,0.84
				S287.493,34.006,287.493,35.073z"/>
			<path d="M300.174,36.503l1.453,0.18c-0.229,0.849-0.653,1.508-1.273,1.977s-1.411,0.703-2.375,0.703
				c-1.214,0-2.176-0.374-2.887-1.121s-1.066-1.796-1.066-3.145c0-1.396,0.359-2.479,1.078-3.25
				c0.719-0.771,1.651-1.156,2.797-1.156c1.109,0,2.016,0.378,2.719,1.133c0.703,0.755,1.055,1.817,1.055,3.187
				c0,0.083-0.003,0.208-0.008,0.375h-6.188c0.052,0.911,0.31,1.609,0.773,2.094s1.042,0.727,1.734,0.727
				c0.516,0,0.956-0.136,1.32-0.406S299.96,37.097,300.174,36.503z M295.557,34.23h4.633c-0.063-0.698-0.239-1.222-0.531-1.57
				c-0.448-0.542-1.028-0.812-1.742-0.812c-0.646,0-1.188,0.216-1.629,0.648S295.604,33.506,295.557,34.23z"/>
			<path d="M308.183,36.136l1.383,0.18c-0.151,0.953-0.538,1.699-1.16,2.238s-1.387,0.809-2.293,0.809
				c-1.136,0-2.048-0.371-2.738-1.113s-1.035-1.806-1.035-3.191c0-0.896,0.148-1.68,0.445-2.352s0.749-1.176,1.355-1.512
				s1.267-0.504,1.98-0.504c0.901,0,1.638,0.228,2.211,0.684s0.94,1.103,1.102,1.941l-1.367,0.211
				c-0.13-0.558-0.36-0.977-0.691-1.258c-0.331-0.281-0.73-0.422-1.199-0.422c-0.708,0-1.284,0.254-1.727,0.762
				s-0.664,1.312-0.664,2.41c0,1.114,0.214,1.925,0.641,2.43s0.984,0.758,1.672,0.758c0.552,0,1.013-0.169,1.383-0.508
				S308.084,36.839,308.183,36.136z"/>
			<path d="M313.215,37.917l0.203,1.242c-0.396,0.083-0.75,0.125-1.063,0.125c-0.511,0-0.906-0.081-1.188-0.242
				s-0.479-0.374-0.594-0.637s-0.172-0.816-0.172-1.66v-4.773h-1.031v-1.094h1.031v-2.055l1.398-0.844v2.898h1.414v1.094h-1.414
				v4.852c0,0.401,0.024,0.659,0.074,0.773s0.13,0.206,0.242,0.273s0.272,0.102,0.48,0.102
				C312.754,37.972,312.96,37.953,313.215,37.917z"/>
			<path d="M313.974,29.339v-1.617h1.406v1.617H313.974z M313.974,39.175v-8.297h1.406v8.297H313.974z"/>
			<path d="M319.201,39.175l-3.156-8.297h1.484l1.781,4.969c0.192,0.536,0.37,1.094,0.531,1.672c0.125-0.438,0.3-0.964,0.523-1.578
				l1.844-5.062h1.445l-3.141,8.297H319.201z"/>
			<path d="M329.687,38.151c-0.521,0.442-1.022,0.755-1.504,0.938s-0.999,0.273-1.551,0.273c-0.911,0-1.612-0.223-2.102-0.668
				s-0.734-1.015-0.734-1.707c0-0.406,0.093-0.777,0.277-1.113s0.427-0.605,0.727-0.809s0.637-0.356,1.012-0.461
				c0.276-0.073,0.692-0.144,1.25-0.211c1.136-0.136,1.972-0.297,2.508-0.484c0.005-0.192,0.008-0.315,0.008-0.367
				c0-0.573-0.133-0.977-0.398-1.211c-0.359-0.317-0.894-0.477-1.602-0.477c-0.661,0-1.149,0.116-1.465,0.348
				c-0.315,0.231-0.548,0.642-0.699,1.23l-1.375-0.188c0.125-0.589,0.331-1.063,0.617-1.426c0.286-0.362,0.7-0.641,1.242-0.836
				s1.169-0.293,1.883-0.293c0.708,0,1.284,0.083,1.727,0.25s0.769,0.376,0.977,0.629s0.354,0.571,0.438,0.957
				c0.047,0.239,0.07,0.672,0.07,1.297v1.875c0,1.308,0.03,2.134,0.09,2.48s0.179,0.679,0.355,0.996h-1.469
				C329.822,38.883,329.729,38.542,329.687,38.151z M329.569,35.011c-0.511,0.208-1.276,0.386-2.297,0.531
				c-0.578,0.083-0.987,0.177-1.227,0.281s-0.425,0.257-0.555,0.457s-0.195,0.423-0.195,0.668c0,0.375,0.142,0.688,0.426,0.938
				s0.699,0.375,1.246,0.375c0.542,0,1.023-0.118,1.445-0.355s0.731-0.562,0.93-0.973c0.151-0.317,0.227-0.786,0.227-1.406V35.011z"
				/>
			<path d="M341.782,36.136l1.383,0.18c-0.151,0.953-0.538,1.699-1.16,2.238s-1.387,0.809-2.293,0.809
				c-1.136,0-2.048-0.371-2.738-1.113s-1.035-1.806-1.035-3.191c0-0.896,0.148-1.68,0.445-2.352s0.749-1.176,1.355-1.512
				s1.267-0.504,1.98-0.504c0.901,0,1.638,0.228,2.211,0.684s0.94,1.103,1.102,1.941l-1.367,0.211
				c-0.13-0.558-0.36-0.977-0.691-1.258c-0.331-0.281-0.73-0.422-1.199-0.422c-0.708,0-1.284,0.254-1.727,0.762
				s-0.664,1.312-0.664,2.41c0,1.114,0.214,1.925,0.641,2.43s0.984,0.758,1.672,0.758c0.552,0,1.013-0.169,1.383-0.508
				S341.684,36.839,341.782,36.136z"/>
			<path d="M349.158,38.151c-0.521,0.442-1.022,0.755-1.504,0.938s-0.999,0.273-1.551,0.273c-0.911,0-1.612-0.223-2.102-0.668
				s-0.734-1.015-0.734-1.707c0-0.406,0.093-0.777,0.277-1.113s0.427-0.605,0.727-0.809s0.637-0.356,1.012-0.461
				c0.276-0.073,0.692-0.144,1.25-0.211c1.136-0.136,1.972-0.297,2.508-0.484c0.005-0.192,0.008-0.315,0.008-0.367
				c0-0.573-0.133-0.977-0.398-1.211c-0.359-0.317-0.894-0.477-1.602-0.477c-0.661,0-1.149,0.116-1.465,0.348
				c-0.315,0.231-0.548,0.642-0.699,1.23l-1.375-0.188c0.125-0.589,0.331-1.063,0.617-1.426c0.286-0.362,0.7-0.641,1.242-0.836
				s1.169-0.293,1.883-0.293c0.708,0,1.284,0.083,1.727,0.25s0.769,0.376,0.977,0.629s0.354,0.571,0.438,0.957
				c0.047,0.239,0.07,0.672,0.07,1.297v1.875c0,1.308,0.03,2.134,0.09,2.48s0.179,0.679,0.355,0.996h-1.469
				C349.294,38.883,349.2,38.542,349.158,38.151z M349.041,35.011c-0.511,0.208-1.276,0.386-2.297,0.531
				c-0.578,0.083-0.987,0.177-1.227,0.281s-0.425,0.257-0.555,0.457s-0.195,0.423-0.195,0.668c0,0.375,0.142,0.688,0.426,0.938
				s0.699,0.375,1.246,0.375c0.542,0,1.023-0.118,1.445-0.355s0.731-0.562,0.93-0.973c0.151-0.317,0.227-0.786,0.227-1.406V35.011z"
				/>
			<path d="M352.003,39.175v-8.297h1.266v1.258c0.323-0.589,0.621-0.977,0.895-1.164s0.574-0.281,0.902-0.281
				c0.474,0,0.956,0.151,1.445,0.453l-0.484,1.305c-0.344-0.203-0.688-0.305-1.031-0.305c-0.308,0-0.583,0.093-0.828,0.277
				s-0.419,0.441-0.523,0.77c-0.156,0.5-0.234,1.047-0.234,1.641v4.344H352.003z"/>
			<path d="M362.137,38.151c-0.521,0.442-1.022,0.755-1.504,0.938s-0.999,0.273-1.551,0.273c-0.911,0-1.612-0.223-2.102-0.668
				s-0.734-1.015-0.734-1.707c0-0.406,0.093-0.777,0.277-1.113s0.427-0.605,0.727-0.809s0.637-0.356,1.012-0.461
				c0.276-0.073,0.692-0.144,1.25-0.211c1.136-0.136,1.972-0.297,2.508-0.484c0.005-0.192,0.008-0.315,0.008-0.367
				c0-0.573-0.133-0.977-0.398-1.211c-0.359-0.317-0.894-0.477-1.602-0.477c-0.661,0-1.149,0.116-1.465,0.348
				c-0.315,0.231-0.548,0.642-0.699,1.23l-1.375-0.188c0.125-0.589,0.331-1.063,0.617-1.426c0.286-0.362,0.7-0.641,1.242-0.836
				s1.169-0.293,1.883-0.293c0.708,0,1.284,0.083,1.727,0.25s0.769,0.376,0.977,0.629s0.354,0.571,0.438,0.957
				c0.047,0.239,0.07,0.672,0.07,1.297v1.875c0,1.308,0.03,2.134,0.09,2.48s0.179,0.679,0.355,0.996h-1.469
				C362.273,38.883,362.179,38.542,362.137,38.151z M362.02,35.011c-0.511,0.208-1.276,0.386-2.297,0.531
				c-0.578,0.083-0.987,0.177-1.227,0.281s-0.425,0.257-0.555,0.457s-0.195,0.423-0.195,0.668c0,0.375,0.142,0.688,0.426,0.938
				s0.699,0.375,1.246,0.375c0.542,0,1.023-0.118,1.445-0.355s0.731-0.562,0.93-0.973c0.151-0.317,0.227-0.786,0.227-1.406V35.011z"
				/>
			<path d="M370.411,36.136l1.383,0.18c-0.151,0.953-0.538,1.699-1.16,2.238s-1.387,0.809-2.293,0.809
				c-1.136,0-2.048-0.371-2.738-1.113s-1.035-1.806-1.035-3.191c0-0.896,0.148-1.68,0.445-2.352s0.749-1.176,1.355-1.512
				s1.267-0.504,1.98-0.504c0.901,0,1.638,0.228,2.211,0.684s0.94,1.103,1.102,1.941l-1.367,0.211
				c-0.13-0.558-0.36-0.977-0.691-1.258c-0.331-0.281-0.73-0.422-1.199-0.422c-0.708,0-1.284,0.254-1.727,0.762
				s-0.664,1.312-0.664,2.41c0,1.114,0.214,1.925,0.641,2.43s0.984,0.758,1.672,0.758c0.552,0,1.013-0.169,1.383-0.508
				S370.313,36.839,370.411,36.136z"/>
			<path d="M375.443,37.917l0.203,1.242c-0.396,0.083-0.75,0.125-1.063,0.125c-0.511,0-0.906-0.081-1.188-0.242
				s-0.479-0.374-0.594-0.637s-0.172-0.816-0.172-1.66v-4.773H371.6v-1.094h1.031v-2.055l1.398-0.844v2.898h1.414v1.094h-1.414
				v4.852c0,0.401,0.024,0.659,0.074,0.773s0.13,0.206,0.242,0.273s0.272,0.102,0.48,0.102
				C374.983,37.972,375.189,37.953,375.443,37.917z"/>
			<path d="M381.874,36.503l1.453,0.18c-0.229,0.849-0.653,1.508-1.273,1.977s-1.411,0.703-2.375,0.703
				c-1.214,0-2.176-0.374-2.887-1.121s-1.066-1.796-1.066-3.145c0-1.396,0.359-2.479,1.078-3.25
				c0.719-0.771,1.651-1.156,2.797-1.156c1.109,0,2.016,0.378,2.719,1.133c0.703,0.755,1.055,1.817,1.055,3.187
				c0,0.083-0.003,0.208-0.008,0.375h-6.188c0.052,0.911,0.31,1.609,0.773,2.094s1.042,0.727,1.734,0.727
				c0.516,0,0.956-0.136,1.32-0.406S381.66,37.097,381.874,36.503z M377.257,34.23h4.633c-0.063-0.698-0.239-1.222-0.531-1.57
				c-0.448-0.542-1.028-0.812-1.742-0.812c-0.646,0-1.188,0.216-1.629,0.648S377.304,33.506,377.257,34.23z"/>
			<path d="M384.453,39.175v-8.297h1.266v1.258c0.323-0.589,0.621-0.977,0.895-1.164s0.574-0.281,0.902-0.281
				c0.474,0,0.956,0.151,1.445,0.453l-0.484,1.305c-0.344-0.203-0.688-0.305-1.031-0.305c-0.308,0-0.583,0.093-0.828,0.277
				s-0.419,0.441-0.523,0.77c-0.156,0.5-0.234,1.047-0.234,1.641v4.344H384.453z"/>
			<path d="M389.181,29.339v-1.617h1.406v1.617H389.181z M389.181,39.175v-8.297h1.406v8.297H389.181z"/>
			<path d="M391.361,39.175v-1.141l5.281-6.062c-0.599,0.031-1.128,0.047-1.586,0.047h-3.383v-1.141h6.781v0.93l-4.492,5.266
				l-0.867,0.961c0.63-0.047,1.222-0.07,1.773-0.07h3.836v1.211H391.361z"/>
			<path d="M404.894,38.151c-0.521,0.442-1.022,0.755-1.504,0.938s-0.999,0.273-1.551,0.273c-0.911,0-1.612-0.223-2.102-0.668
				s-0.734-1.015-0.734-1.707c0-0.406,0.093-0.777,0.277-1.113s0.427-0.605,0.727-0.809s0.637-0.356,1.012-0.461
				c0.276-0.073,0.692-0.144,1.25-0.211c1.136-0.136,1.972-0.297,2.508-0.484c0.005-0.192,0.008-0.315,0.008-0.367
				c0-0.573-0.133-0.977-0.398-1.211c-0.359-0.317-0.894-0.477-1.602-0.477c-0.661,0-1.149,0.116-1.465,0.348
				c-0.315,0.231-0.548,0.642-0.699,1.23l-1.375-0.188c0.125-0.589,0.331-1.063,0.617-1.426c0.286-0.362,0.7-0.641,1.242-0.836
				s1.169-0.293,1.883-0.293c0.708,0,1.284,0.083,1.727,0.25s0.769,0.376,0.977,0.629s0.354,0.571,0.438,0.957
				c0.047,0.239,0.07,0.672,0.07,1.297v1.875c0,1.308,0.03,2.134,0.09,2.48s0.179,0.679,0.355,0.996h-1.469
				C405.029,38.883,404.936,38.542,404.894,38.151z M404.776,35.011c-0.511,0.208-1.276,0.386-2.297,0.531
				c-0.578,0.083-0.987,0.177-1.227,0.281s-0.425,0.257-0.555,0.457s-0.195,0.423-0.195,0.668c0,0.375,0.142,0.688,0.426,0.938
				s0.699,0.375,1.246,0.375c0.542,0,1.023-0.118,1.445-0.355s0.731-0.562,0.93-0.973c0.151-0.317,0.227-0.786,0.227-1.406V35.011z"
				/>
			<path d="M413.168,36.136l1.383,0.18c-0.151,0.953-0.538,1.699-1.16,2.238s-1.387,0.809-2.293,0.809
				c-1.136,0-2.048-0.371-2.738-1.113s-1.035-1.806-1.035-3.191c0-0.896,0.148-1.68,0.445-2.352s0.749-1.176,1.355-1.512
				s1.267-0.504,1.98-0.504c0.901,0,1.638,0.228,2.211,0.684s0.94,1.103,1.102,1.941l-1.367,0.211
				c-0.13-0.558-0.36-0.977-0.691-1.258c-0.331-0.281-0.73-0.422-1.199-0.422c-0.708,0-1.284,0.254-1.727,0.762
				s-0.664,1.312-0.664,2.41c0,1.114,0.214,1.925,0.641,2.43s0.984,0.758,1.672,0.758c0.552,0,1.013-0.169,1.383-0.508
				S413.069,36.839,413.168,36.136z"/>
			<path d="M415.138,29.339v-1.617h1.406v1.617H415.138z M415.138,39.175v-8.297h1.406v8.297H415.138z"/>
			<path d="M417.537,35.026c0-1.536,0.427-2.675,1.281-3.414c0.714-0.614,1.583-0.922,2.609-0.922c1.141,0,2.073,0.374,2.797,1.121
				c0.724,0.747,1.086,1.78,1.086,3.098c0,1.067-0.16,1.907-0.48,2.52s-0.786,1.087-1.398,1.426s-1.28,0.508-2.004,0.508
				c-1.161,0-2.101-0.372-2.816-1.117S417.537,36.428,417.537,35.026z M418.983,35.026c0,1.063,0.231,1.858,0.695,2.387
				s1.047,0.793,1.75,0.793c0.698,0,1.278-0.266,1.742-0.797s0.695-1.341,0.695-2.43c0-1.026-0.233-1.804-0.699-2.332
				s-1.046-0.793-1.738-0.793c-0.703,0-1.286,0.263-1.75,0.789S418.983,33.964,418.983,35.026z M420.647,29.847l1.039-2.188h1.844
				l-1.719,2.188H420.647z"/>
			<path d="M426.335,39.175v-8.297h1.266v1.18c0.609-0.911,1.489-1.367,2.641-1.367c0.5,0,0.96,0.09,1.379,0.27
				s0.733,0.415,0.941,0.707s0.354,0.638,0.438,1.039c0.052,0.261,0.078,0.716,0.078,1.367v5.102h-1.406v-5.047
				c0-0.573-0.055-1.001-0.164-1.285s-0.304-0.511-0.582-0.68c-0.278-0.169-0.605-0.254-0.98-0.254c-0.599,0-1.116,0.19-1.551,0.57
				s-0.652,1.102-0.652,2.164v4.531H426.335z"/>
			<path d="M435.008,39.175v-1.602h1.602v1.602H435.008z"/>
		</g>
	</g>
	<g>
		<g>
			<path style="fill:#2C6882;" d="M14.741,65.98V55.242h7.961v1.816h-5.793v2.38H22.3v1.81h-5.391v2.923h5.998v1.809H14.741z"/>
			<path style="fill:#2C6882;" d="M28.088,58.201v1.641h-1.406v3.135c0,0.635,0.014,1.005,0.04,1.109
				c0.027,0.105,0.088,0.192,0.184,0.261c0.095,0.068,0.211,0.102,0.348,0.102c0.19,0,0.466-0.065,0.828-0.197l0.176,1.597
				c-0.479,0.205-1.021,0.308-1.627,0.308c-0.371,0-0.705-0.063-1.003-0.187c-0.298-0.125-0.517-0.286-0.655-0.483
				c-0.14-0.198-0.236-0.465-0.289-0.803c-0.045-0.238-0.066-0.722-0.066-1.449v-3.392h-0.945v-1.641h0.945v-1.546l2.065-1.201
				v2.747H28.088z"/>
			<path style="fill:#2C6882;" d="M30.845,60.574l-1.868-0.337c0.21-0.752,0.571-1.309,1.084-1.67s1.274-0.542,2.285-0.542
				c0.918,0,1.602,0.108,2.051,0.326c0.449,0.217,0.766,0.493,0.948,0.827c0.184,0.335,0.275,0.949,0.275,1.842l-0.022,2.402
				c0,0.685,0.033,1.188,0.099,1.513c0.066,0.325,0.189,0.673,0.37,1.044H34.03c-0.054-0.137-0.12-0.339-0.197-0.607
				c-0.035-0.122-0.059-0.203-0.074-0.242c-0.352,0.342-0.728,0.599-1.127,0.77c-0.401,0.17-0.828,0.256-1.282,0.256
				c-0.801,0-1.432-0.217-1.894-0.652c-0.461-0.434-0.691-0.983-0.691-1.647c0-0.439,0.104-0.831,0.314-1.176
				c0.21-0.344,0.504-0.607,0.883-0.791c0.378-0.183,0.924-0.343,1.637-0.479c0.962-0.181,1.628-0.349,2-0.506v-0.205
				c0-0.395-0.099-0.677-0.293-0.846c-0.196-0.168-0.564-0.252-1.106-0.252c-0.366,0-0.651,0.071-0.856,0.216
				C31.138,59.96,30.971,60.213,30.845,60.574z M33.599,62.244c-0.264,0.088-0.682,0.193-1.253,0.315
				c-0.571,0.122-0.944,0.241-1.12,0.358c-0.27,0.19-0.403,0.433-0.403,0.726c0,0.288,0.107,0.537,0.322,0.746
				c0.215,0.211,0.488,0.315,0.82,0.315c0.371,0,0.726-0.122,1.062-0.366c0.25-0.186,0.413-0.412,0.491-0.682
				c0.054-0.176,0.081-0.51,0.081-1.003V62.244z"/>
			<path style="fill:#2C6882;" d="M37.38,58.201h1.92v1.143c0.248-0.391,0.586-0.708,1.01-0.952
				c0.426-0.244,0.896-0.366,1.414-0.366c0.903,0,1.67,0.354,2.3,1.062c0.63,0.709,0.944,1.695,0.944,2.959
				c0,1.3-0.317,2.309-0.951,3.029c-0.636,0.72-1.404,1.08-2.308,1.08c-0.43,0-0.819-0.086-1.168-0.256
				c-0.35-0.171-0.717-0.464-1.103-0.879v3.918H37.38V58.201z M39.417,61.958c0,0.875,0.173,1.521,0.52,1.938
				c0.347,0.418,0.77,0.627,1.268,0.627c0.478,0,0.876-0.192,1.193-0.575c0.317-0.384,0.477-1.012,0.477-1.886
				c0-0.815-0.164-1.422-0.491-1.816c-0.327-0.396-0.732-0.594-1.216-0.594c-0.503,0-0.921,0.194-1.252,0.582
				C39.582,60.622,39.417,61.196,39.417,61.958z"/>
			<path style="fill:#2C6882;" d="M47.93,60.574l-1.868-0.337c0.21-0.752,0.571-1.309,1.084-1.67s1.274-0.542,2.285-0.542
				c0.918,0,1.602,0.108,2.051,0.326c0.449,0.217,0.766,0.493,0.948,0.827c0.184,0.335,0.275,0.949,0.275,1.842l-0.022,2.402
				c0,0.685,0.033,1.188,0.099,1.513c0.066,0.325,0.189,0.673,0.37,1.044h-2.036c-0.054-0.137-0.12-0.339-0.197-0.607
				c-0.035-0.122-0.059-0.203-0.074-0.242c-0.352,0.342-0.728,0.599-1.127,0.77c-0.401,0.17-0.828,0.256-1.282,0.256
				c-0.801,0-1.432-0.217-1.894-0.652c-0.461-0.434-0.691-0.983-0.691-1.647c0-0.439,0.104-0.831,0.314-1.176
				c0.21-0.344,0.504-0.607,0.883-0.791c0.378-0.183,0.924-0.343,1.637-0.479c0.962-0.181,1.628-0.349,2-0.506v-0.205
				c0-0.395-0.099-0.677-0.293-0.846c-0.196-0.168-0.564-0.252-1.106-0.252c-0.366,0-0.651,0.071-0.856,0.216
				C48.223,59.96,48.056,60.213,47.93,60.574z M50.684,62.244c-0.264,0.088-0.682,0.193-1.253,0.315s-0.944,0.241-1.12,0.358
				c-0.27,0.19-0.403,0.433-0.403,0.726c0,0.288,0.107,0.537,0.322,0.746c0.215,0.211,0.488,0.315,0.82,0.315
				c0.371,0,0.726-0.122,1.062-0.366c0.25-0.186,0.413-0.412,0.491-0.682c0.054-0.176,0.081-0.51,0.081-1.003V62.244z"/>
			<path style="fill:#2C6882;" d="M58.69,63.218l2.051-0.212c0.059,0.464,0.232,0.831,0.521,1.103
				c0.288,0.271,0.62,0.406,0.996,0.406c0.43,0,0.793-0.175,1.091-0.523c0.298-0.35,0.447-0.875,0.447-1.578
				c0-0.66-0.147-1.154-0.443-1.483c-0.295-0.33-0.68-0.495-1.153-0.495c-0.591,0-1.12,0.262-1.589,0.784l-1.67-0.241l1.055-5.589
				h5.441v1.927h-3.882l-0.322,1.823c0.459-0.229,0.928-0.345,1.406-0.345c0.913,0,1.687,0.333,2.321,0.996
				c0.635,0.665,0.953,1.526,0.953,2.586c0,0.884-0.257,1.673-0.77,2.365c-0.698,0.948-1.668,1.422-2.908,1.422
				c-0.991,0-1.799-0.267-2.424-0.799S58.812,64.117,58.69,63.218z"/>
			<path style="fill:#2C6882;" d="M67.628,60.259v-2.058h2.058v2.058H67.628z M67.628,65.98v-2.059h2.058v2.059H67.628z"/>
			<path style="fill:#2C6882;" d="M88.056,62.032l2.103,0.666c-0.322,1.172-0.858,2.042-1.607,2.611
				c-0.75,0.568-1.701,0.854-2.853,0.854c-1.427,0-2.599-0.487-3.516-1.462c-0.919-0.974-1.377-2.306-1.377-3.995
				c0-1.787,0.461-3.175,1.384-4.164c0.923-0.988,2.136-1.482,3.64-1.482c1.313,0,2.381,0.388,3.201,1.164
				c0.488,0.459,0.854,1.118,1.099,1.978l-2.146,0.513c-0.128-0.557-0.393-0.996-0.795-1.318c-0.403-0.322-0.893-0.483-1.469-0.483
				c-0.796,0-1.441,0.286-1.938,0.856c-0.495,0.572-0.743,1.497-0.743,2.776c0,1.357,0.244,2.324,0.732,2.9
				c0.488,0.576,1.123,0.864,1.904,0.864c0.576,0,1.071-0.184,1.487-0.549C87.577,63.394,87.875,62.818,88.056,62.032z"/>
			<path style="fill:#2C6882;" d="M93.332,60.574l-1.868-0.337c0.21-0.752,0.571-1.309,1.084-1.67s1.274-0.542,2.285-0.542
				c0.918,0,1.602,0.108,2.051,0.326c0.449,0.217,0.766,0.493,0.948,0.827c0.184,0.335,0.275,0.949,0.275,1.842l-0.022,2.402
				c0,0.685,0.033,1.188,0.099,1.513c0.066,0.325,0.189,0.673,0.37,1.044h-2.036c-0.054-0.137-0.12-0.339-0.197-0.607
				c-0.035-0.122-0.059-0.203-0.074-0.242c-0.352,0.342-0.728,0.599-1.127,0.77c-0.401,0.17-0.828,0.256-1.282,0.256
				c-0.801,0-1.432-0.217-1.894-0.652c-0.461-0.434-0.691-0.983-0.691-1.647c0-0.439,0.104-0.831,0.314-1.176
				c0.21-0.344,0.504-0.607,0.883-0.791c0.378-0.183,0.924-0.343,1.637-0.479c0.962-0.181,1.628-0.349,2-0.506v-0.205
				c0-0.395-0.099-0.677-0.293-0.846c-0.196-0.168-0.564-0.252-1.106-0.252c-0.366,0-0.651,0.071-0.856,0.216
				C93.625,59.96,93.458,60.213,93.332,60.574z M96.086,62.244c-0.264,0.088-0.682,0.193-1.253,0.315s-0.944,0.241-1.12,0.358
				c-0.27,0.19-0.403,0.433-0.403,0.726c0,0.288,0.107,0.537,0.322,0.746c0.215,0.211,0.488,0.315,0.82,0.315
				c0.371,0,0.726-0.122,1.062-0.366c0.25-0.186,0.413-0.412,0.491-0.682c0.054-0.176,0.081-0.51,0.081-1.003V62.244z"/>
			<path style="fill:#2C6882;" d="M101.896,65.98h-2.059v-7.778h1.912v1.106c0.327-0.522,0.621-0.867,0.883-1.033
				c0.261-0.166,0.558-0.249,0.89-0.249c0.469,0,0.92,0.13,1.354,0.388l-0.637,1.795c-0.347-0.225-0.669-0.337-0.967-0.337
				c-0.288,0-0.532,0.079-0.732,0.238c-0.2,0.158-0.357,0.445-0.473,0.86c-0.114,0.415-0.172,1.284-0.172,2.607V65.98z"/>
			<path style="fill:#2C6882;" d="M107.092,60.574l-1.868-0.337c0.21-0.752,0.571-1.309,1.084-1.67s1.274-0.542,2.285-0.542
				c0.918,0,1.602,0.108,2.051,0.326c0.449,0.217,0.766,0.493,0.948,0.827c0.184,0.335,0.275,0.949,0.275,1.842l-0.022,2.402
				c0,0.685,0.033,1.188,0.099,1.513c0.066,0.325,0.189,0.673,0.37,1.044h-2.036c-0.054-0.137-0.12-0.339-0.197-0.607
				c-0.035-0.122-0.059-0.203-0.074-0.242c-0.352,0.342-0.728,0.599-1.127,0.77c-0.401,0.17-0.828,0.256-1.282,0.256
				c-0.801,0-1.432-0.217-1.894-0.652c-0.461-0.434-0.691-0.983-0.691-1.647c0-0.439,0.104-0.831,0.314-1.176
				c0.21-0.344,0.504-0.607,0.883-0.791c0.378-0.183,0.924-0.343,1.637-0.479c0.962-0.181,1.628-0.349,2-0.506v-0.205
				c0-0.395-0.099-0.677-0.293-0.846c-0.196-0.168-0.564-0.252-1.106-0.252c-0.366,0-0.651,0.071-0.856,0.216
				C107.385,59.96,107.218,60.213,107.092,60.574z M109.846,62.244c-0.264,0.088-0.682,0.193-1.253,0.315s-0.944,0.241-1.12,0.358
				c-0.27,0.19-0.403,0.433-0.403,0.726c0,0.288,0.107,0.537,0.322,0.746c0.215,0.211,0.488,0.315,0.82,0.315
				c0.371,0,0.726-0.122,1.062-0.366c0.25-0.186,0.413-0.412,0.491-0.682c0.054-0.176,0.081-0.51,0.081-1.003V62.244z"/>
			<path style="fill:#2C6882;" d="M120.468,60.501l-2.029,0.366c-0.068-0.405-0.224-0.71-0.465-0.915
				c-0.242-0.205-0.556-0.309-0.941-0.309c-0.513,0-0.922,0.178-1.227,0.531c-0.306,0.354-0.458,0.946-0.458,1.776
				c0,0.923,0.155,1.575,0.465,1.956c0.311,0.381,0.727,0.57,1.249,0.57c0.391,0,0.711-0.11,0.959-0.333
				c0.25-0.222,0.426-0.604,0.527-1.146l2.021,0.344c-0.21,0.928-0.612,1.629-1.208,2.102c-0.596,0.475-1.395,0.711-2.396,0.711
				c-1.138,0-2.044-0.359-2.721-1.076c-0.676-0.719-1.014-1.712-1.014-2.981c0-1.284,0.339-2.284,1.018-2.999
				c0.679-0.716,1.597-1.073,2.754-1.073c0.947,0,1.7,0.204,2.26,0.611C119.821,59.045,120.223,59.666,120.468,60.501z"/>
			<path style="fill:#2C6882;" d="M125.384,58.201v1.641h-1.406v3.135c0,0.635,0.014,1.005,0.04,1.109
				c0.027,0.105,0.088,0.192,0.184,0.261c0.095,0.068,0.211,0.102,0.348,0.102c0.19,0,0.466-0.065,0.828-0.197l0.176,1.597
				c-0.479,0.205-1.021,0.308-1.627,0.308c-0.371,0-0.705-0.063-1.003-0.187c-0.298-0.125-0.517-0.286-0.655-0.483
				c-0.14-0.198-0.236-0.465-0.289-0.803c-0.045-0.238-0.066-0.722-0.066-1.449v-3.392h-0.945v-1.641h0.945v-1.546l2.065-1.201
				v2.747H125.384z"/>
			<path style="fill:#2C6882;" d="M131.106,63.504l2.051,0.345c-0.264,0.752-0.68,1.324-1.249,1.717
				c-0.568,0.394-1.28,0.59-2.135,0.59c-1.353,0-2.354-0.441-3.003-1.326c-0.513-0.707-0.769-1.601-0.769-2.68
				c0-1.289,0.336-2.299,1.01-3.029c0.674-0.729,1.526-1.095,2.557-1.095c1.157,0,2.07,0.382,2.739,1.146
				c0.669,0.764,0.989,1.935,0.96,3.512h-5.156c0.014,0.61,0.18,1.085,0.498,1.425c0.316,0.339,0.712,0.509,1.186,0.509
				c0.322,0,0.594-0.088,0.813-0.264S130.993,63.895,131.106,63.504z M131.223,61.424c-0.015-0.596-0.169-1.049-0.462-1.358
				c-0.293-0.311-0.649-0.465-1.068-0.465c-0.45,0-0.82,0.163-1.113,0.49s-0.438,0.771-0.433,1.333H131.223z"/>
			<path style="fill:#2C6882;" d="M136.704,65.98h-2.059v-7.778h1.912v1.106c0.327-0.522,0.621-0.867,0.883-1.033
				c0.261-0.166,0.558-0.249,0.89-0.249c0.469,0,0.92,0.13,1.354,0.388l-0.637,1.795c-0.347-0.225-0.669-0.337-0.967-0.337
				c-0.288,0-0.532,0.079-0.732,0.238c-0.2,0.158-0.357,0.445-0.473,0.86c-0.114,0.415-0.172,1.284-0.172,2.607V65.98z"/>
			<path style="fill:#2C6882;" d="M140.361,57.147v-1.904h2.059v1.904H140.361z M140.361,65.98v-7.778h2.059v7.778H140.361z"/>
			<path style="fill:#2C6882;" d="M143.492,65.98v-1.604l2.915-3.348c0.479-0.547,0.832-0.935,1.063-1.164
				c-0.24,0.014-0.555,0.024-0.945,0.029l-2.746,0.014v-1.706h6.43v1.458l-2.973,3.428l-1.048,1.135
				c0.571-0.034,0.925-0.051,1.062-0.051h3.187v1.809H143.492z"/>
			<path style="fill:#2C6882;" d="M153.149,60.574l-1.868-0.337c0.21-0.752,0.571-1.309,1.084-1.67s1.274-0.542,2.285-0.542
				c0.918,0,1.602,0.108,2.051,0.326c0.449,0.217,0.766,0.493,0.948,0.827c0.184,0.335,0.275,0.949,0.275,1.842l-0.022,2.402
				c0,0.685,0.033,1.188,0.099,1.513c0.066,0.325,0.189,0.673,0.37,1.044h-2.036c-0.054-0.137-0.12-0.339-0.197-0.607
				c-0.035-0.122-0.059-0.203-0.074-0.242c-0.352,0.342-0.728,0.599-1.127,0.77c-0.401,0.17-0.828,0.256-1.282,0.256
				c-0.801,0-1.432-0.217-1.894-0.652c-0.461-0.434-0.691-0.983-0.691-1.647c0-0.439,0.104-0.831,0.314-1.176
				c0.21-0.344,0.504-0.607,0.883-0.791c0.378-0.183,0.924-0.343,1.637-0.479c0.962-0.181,1.628-0.349,2-0.506v-0.205
				c0-0.395-0.099-0.677-0.293-0.846c-0.196-0.168-0.564-0.252-1.106-0.252c-0.366,0-0.651,0.071-0.856,0.216
				C153.441,59.96,153.275,60.213,153.149,60.574z M155.902,62.244c-0.264,0.088-0.682,0.193-1.253,0.315s-0.944,0.241-1.12,0.358
				c-0.27,0.19-0.403,0.433-0.403,0.726c0,0.288,0.107,0.537,0.322,0.746c0.215,0.211,0.488,0.315,0.82,0.315
				c0.371,0,0.726-0.122,1.062-0.366c0.25-0.186,0.413-0.412,0.491-0.682c0.054-0.176,0.081-0.51,0.081-1.003V62.244z"/>
			<path style="fill:#2C6882;" d="M166.525,60.501l-2.029,0.366c-0.068-0.405-0.224-0.71-0.465-0.915
				c-0.242-0.205-0.556-0.309-0.941-0.309c-0.513,0-0.922,0.178-1.227,0.531c-0.306,0.354-0.458,0.946-0.458,1.776
				c0,0.923,0.155,1.575,0.465,1.956c0.311,0.381,0.727,0.57,1.249,0.57c0.391,0,0.711-0.11,0.959-0.333
				c0.25-0.222,0.426-0.604,0.527-1.146l2.021,0.344c-0.21,0.928-0.612,1.629-1.208,2.102c-0.596,0.475-1.395,0.711-2.396,0.711
				c-1.138,0-2.044-0.359-2.721-1.076c-0.676-0.719-1.014-1.712-1.014-2.981c0-1.284,0.339-2.284,1.018-2.999
				c0.679-0.716,1.597-1.073,2.754-1.073c0.947,0,1.7,0.204,2.26,0.611C165.878,59.045,166.279,59.666,166.525,60.501z"/>
			<path style="fill:#2C6882;" d="M167.873,57.147v-1.904h2.059v1.904H167.873z M167.873,65.98v-7.778h2.059v7.778H167.873z"/>
			<path style="fill:#2C6882;" d="M171.356,61.981c0-0.684,0.169-1.345,0.505-1.985c0.338-0.639,0.814-1.127,1.433-1.465
				c0.617-0.336,1.308-0.505,2.069-0.505c1.176,0,2.141,0.382,2.893,1.146c0.752,0.764,1.128,1.729,1.128,2.896
				c0,1.177-0.38,2.152-1.139,2.926c-0.76,0.774-1.716,1.161-2.868,1.161c-0.713,0-1.393-0.161-2.039-0.483
				c-0.647-0.322-1.139-0.795-1.477-1.417C171.525,63.632,171.356,62.874,171.356,61.981z M173.465,62.091
				c0,0.771,0.183,1.361,0.55,1.771c0.365,0.41,0.817,0.615,1.354,0.615s0.987-0.205,1.352-0.615
				c0.363-0.41,0.546-1.005,0.546-1.787c0-0.762-0.183-1.348-0.546-1.758c-0.364-0.41-0.814-0.615-1.352-0.615
				s-0.989,0.205-1.354,0.615C173.648,60.728,173.465,61.319,173.465,62.091z M174.329,57.249l1.011-2.189h2.308l-2.015,2.189
				H174.329z"/>
			<path style="fill:#2C6882;" d="M187.859,65.98h-2.059v-3.97c0-0.84-0.044-1.383-0.132-1.63c-0.088-0.246-0.23-0.438-0.429-0.574
				c-0.197-0.137-0.436-0.205-0.714-0.205c-0.356,0-0.677,0.098-0.96,0.293s-0.477,0.453-0.582,0.775
				c-0.104,0.322-0.157,0.919-0.157,1.787v3.523h-2.058v-7.778h1.911v1.143c0.679-0.879,1.533-1.318,2.563-1.318
				c0.454,0,0.869,0.082,1.245,0.245c0.376,0.164,0.66,0.373,0.854,0.627c0.192,0.254,0.327,0.541,0.402,0.863
				c0.076,0.322,0.114,0.784,0.114,1.385V65.98z"/>
			<path style="fill:#2C6882;" d="M201.448,65.98h-1.912v-1.143c-0.317,0.444-0.692,0.775-1.124,0.992
				c-0.433,0.218-0.868,0.326-1.308,0.326c-0.894,0-1.659-0.36-2.296-1.08c-0.638-0.721-0.956-1.725-0.956-3.014
				c0-1.318,0.31-2.321,0.93-3.007c0.62-0.687,1.404-1.029,2.352-1.029c0.869,0,1.621,0.361,2.256,1.084v-3.867h2.059V65.98z
				 M195.954,61.922c0,0.83,0.115,1.431,0.345,1.802c0.332,0.537,0.796,0.806,1.392,0.806c0.474,0,0.876-0.201,1.209-0.604
				c0.331-0.402,0.498-1.004,0.498-1.805c0-0.895-0.162-1.537-0.484-1.931c-0.322-0.393-0.734-0.589-1.237-0.589
				c-0.488,0-0.897,0.193-1.227,0.582C196.119,60.57,195.954,61.15,195.954,61.922z"/>
			<path style="fill:#2C6882;" d="M207.77,63.504l2.051,0.345c-0.264,0.752-0.68,1.324-1.249,1.717
				c-0.568,0.394-1.28,0.59-2.135,0.59c-1.353,0-2.354-0.441-3.003-1.326c-0.513-0.707-0.769-1.601-0.769-2.68
				c0-1.289,0.336-2.299,1.01-3.029c0.674-0.729,1.526-1.095,2.557-1.095c1.157,0,2.07,0.382,2.739,1.146
				c0.669,0.764,0.989,1.935,0.96,3.512h-5.156c0.014,0.61,0.18,1.085,0.498,1.425c0.316,0.339,0.712,0.509,1.186,0.509
				c0.322,0,0.594-0.088,0.813-0.264S207.657,63.895,207.77,63.504z M207.887,61.424c-0.015-0.596-0.169-1.049-0.462-1.358
				c-0.293-0.311-0.649-0.465-1.068-0.465c-0.45,0-0.82,0.163-1.113,0.49s-0.438,0.771-0.433,1.333H207.887z"/>
			<path style="fill:#2C6882;" d="M211.397,65.98V55.242h2.059V65.98H211.397z"/>
			<path style="fill:#2C6882;" d="M219.948,65.98V55.242h3.479c1.318,0,2.178,0.054,2.578,0.161c0.615,0.161,1.13,0.512,1.545,1.051
				c0.415,0.54,0.623,1.237,0.623,2.092c0,0.658-0.12,1.213-0.359,1.662s-0.543,0.802-0.911,1.059
				c-0.369,0.256-0.743,0.426-1.124,0.509c-0.519,0.103-1.268,0.153-2.249,0.153h-1.413v4.051H219.948z M222.116,57.059v3.047h1.186
				c0.854,0,1.426-0.056,1.715-0.169c0.287-0.111,0.514-0.287,0.677-0.527c0.164-0.238,0.245-0.517,0.245-0.834
				c0-0.391-0.114-0.713-0.344-0.967s-0.52-0.413-0.871-0.477c-0.26-0.049-0.779-0.073-1.561-0.073H222.116z"/>
			<path style="fill:#2C6882;" d="M231.698,65.98h-2.059v-7.778h1.912v1.106c0.327-0.522,0.621-0.867,0.883-1.033
				c0.261-0.166,0.558-0.249,0.89-0.249c0.469,0,0.92,0.13,1.354,0.388l-0.637,1.795c-0.347-0.225-0.669-0.337-0.967-0.337
				c-0.288,0-0.532,0.079-0.732,0.238c-0.2,0.158-0.357,0.445-0.473,0.86c-0.114,0.415-0.172,1.284-0.172,2.607V65.98z"/>
			<path style="fill:#2C6882;" d="M234.879,61.981c0-0.684,0.169-1.345,0.505-1.985c0.338-0.639,0.814-1.127,1.433-1.465
				c0.617-0.336,1.308-0.505,2.069-0.505c1.176,0,2.141,0.382,2.893,1.146c0.752,0.764,1.128,1.729,1.128,2.896
				c0,1.177-0.38,2.152-1.139,2.926c-0.76,0.774-1.716,1.161-2.868,1.161c-0.713,0-1.393-0.161-2.039-0.483
				c-0.647-0.322-1.139-0.795-1.477-1.417C235.048,63.632,234.879,62.874,234.879,61.981z M236.988,62.091
				c0,0.771,0.183,1.361,0.55,1.771c0.365,0.41,0.817,0.615,1.354,0.615s0.987-0.205,1.352-0.615
				c0.363-0.41,0.546-1.005,0.546-1.787c0-0.762-0.183-1.348-0.546-1.758c-0.364-0.41-0.814-0.615-1.352-0.615
				s-0.989,0.205-1.354,0.615C237.171,60.728,236.988,61.319,236.988,62.091z"/>
			<path style="fill:#2C6882;" d="M251.09,60.501l-2.029,0.366c-0.068-0.405-0.224-0.71-0.465-0.915
				c-0.242-0.205-0.556-0.309-0.941-0.309c-0.513,0-0.922,0.178-1.227,0.531c-0.306,0.354-0.458,0.946-0.458,1.776
				c0,0.923,0.155,1.575,0.465,1.956c0.311,0.381,0.727,0.57,1.249,0.57c0.391,0,0.711-0.11,0.959-0.333
				c0.25-0.222,0.426-0.604,0.527-1.146l2.021,0.344c-0.21,0.928-0.612,1.629-1.208,2.102c-0.596,0.475-1.395,0.711-2.396,0.711
				c-1.138,0-2.044-0.359-2.721-1.076c-0.676-0.719-1.014-1.712-1.014-2.981c0-1.284,0.339-2.284,1.018-2.999
				c0.679-0.716,1.597-1.073,2.754-1.073c0.947,0,1.7,0.204,2.26,0.611C250.443,59.045,250.845,59.666,251.09,60.501z"/>
			<path style="fill:#2C6882;" d="M256.943,63.504l2.051,0.345c-0.264,0.752-0.68,1.324-1.249,1.717
				c-0.568,0.394-1.28,0.59-2.135,0.59c-1.353,0-2.354-0.441-3.003-1.326c-0.513-0.707-0.769-1.601-0.769-2.68
				c0-1.289,0.336-2.299,1.01-3.029c0.674-0.729,1.526-1.095,2.557-1.095c1.157,0,2.07,0.382,2.739,1.146
				c0.669,0.764,0.989,1.935,0.96,3.512h-5.156c0.014,0.61,0.18,1.085,0.498,1.425c0.316,0.339,0.712,0.509,1.186,0.509
				c0.322,0,0.594-0.088,0.813-0.264S256.831,63.895,256.943,63.504z M257.061,61.424c-0.015-0.596-0.169-1.049-0.462-1.358
				c-0.293-0.311-0.649-0.465-1.068-0.465c-0.45,0-0.82,0.163-1.113,0.49s-0.438,0.771-0.433,1.333H257.061z"/>
			<path style="fill:#2C6882;" d="M259.846,63.761l2.065-0.315c0.088,0.4,0.266,0.704,0.534,0.912
				c0.269,0.207,0.645,0.312,1.129,0.312c0.531,0,0.932-0.098,1.201-0.293c0.18-0.137,0.271-0.32,0.271-0.55
				c0-0.156-0.049-0.286-0.146-0.388c-0.103-0.098-0.332-0.188-0.688-0.271c-1.66-0.366-2.713-0.7-3.156-1.004
				c-0.615-0.419-0.924-1.003-0.924-1.75c0-0.674,0.267-1.24,0.799-1.699s1.357-0.688,2.476-0.688c1.064,0,1.855,0.174,2.373,0.521
				s0.874,0.859,1.069,1.537l-1.941,0.359c-0.083-0.303-0.24-0.535-0.472-0.695c-0.232-0.162-0.563-0.242-0.993-0.242
				c-0.541,0-0.93,0.076-1.164,0.227c-0.156,0.108-0.234,0.247-0.234,0.418c0,0.146,0.068,0.271,0.205,0.373
				c0.186,0.138,0.826,0.33,1.923,0.579c1.096,0.249,1.861,0.555,2.296,0.915c0.43,0.367,0.645,0.877,0.645,1.531
				c0,0.713-0.298,1.326-0.894,1.838c-0.596,0.514-1.478,0.77-2.644,0.77c-1.061,0-1.898-0.215-2.517-0.645
				C260.441,65.081,260.036,64.498,259.846,63.761z"/>
			<path style="fill:#2C6882;" d="M268.227,61.981c0-0.684,0.169-1.345,0.505-1.985c0.338-0.639,0.814-1.127,1.433-1.465
				c0.617-0.336,1.308-0.505,2.069-0.505c1.176,0,2.141,0.382,2.893,1.146c0.752,0.764,1.128,1.729,1.128,2.896
				c0,1.177-0.38,2.152-1.139,2.926c-0.76,0.774-1.716,1.161-2.868,1.161c-0.713,0-1.393-0.161-2.039-0.483
				c-0.647-0.322-1.139-0.795-1.477-1.417C268.396,63.632,268.227,62.874,268.227,61.981z M270.336,62.091
				c0,0.771,0.183,1.361,0.55,1.771c0.365,0.41,0.817,0.615,1.354,0.615s0.987-0.205,1.352-0.615
				c0.363-0.41,0.546-1.005,0.546-1.787c0-0.762-0.183-1.348-0.546-1.758c-0.364-0.41-0.814-0.615-1.352-0.615
				s-0.989,0.205-1.354,0.615C270.519,60.728,270.336,61.319,270.336,62.091z"/>
			<path style="fill:#2C6882;" d="M276.929,63.761l2.065-0.315c0.088,0.4,0.266,0.704,0.534,0.912
				c0.269,0.207,0.645,0.312,1.129,0.312c0.531,0,0.932-0.098,1.201-0.293c0.18-0.137,0.271-0.32,0.271-0.55
				c0-0.156-0.049-0.286-0.146-0.388c-0.103-0.098-0.332-0.188-0.688-0.271c-1.66-0.366-2.713-0.7-3.156-1.004
				c-0.615-0.419-0.924-1.003-0.924-1.75c0-0.674,0.267-1.24,0.799-1.699s1.357-0.688,2.476-0.688c1.064,0,1.855,0.174,2.373,0.521
				s0.874,0.859,1.069,1.537l-1.941,0.359c-0.083-0.303-0.24-0.535-0.472-0.695c-0.232-0.162-0.563-0.242-0.993-0.242
				c-0.541,0-0.93,0.076-1.164,0.227c-0.156,0.108-0.234,0.247-0.234,0.418c0,0.146,0.068,0.271,0.205,0.373
				c0.186,0.138,0.826,0.33,1.923,0.579c1.096,0.249,1.861,0.555,2.296,0.915c0.43,0.367,0.645,0.877,0.645,1.531
				c0,0.713-0.298,1.326-0.894,1.838c-0.596,0.514-1.478,0.77-2.644,0.77c-1.061,0-1.898-0.215-2.517-0.645
				C277.524,65.081,277.119,64.498,276.929,63.761z"/>
			<path style="fill:#2C6882;" d="M292.313,59.593h-2.059V58.12c0-0.595,0.053-1.065,0.157-1.409
				c0.105-0.345,0.299-0.653,0.583-0.927c0.282-0.273,0.645-0.488,1.084-0.645l0.402,0.85c-0.41,0.137-0.704,0.327-0.883,0.571
				c-0.178,0.244-0.272,0.569-0.281,0.974h0.996V59.593z M295.747,59.593h-2.058V58.12c0-0.6,0.052-1.071,0.157-1.413
				c0.104-0.342,0.3-0.649,0.586-0.923c0.285-0.273,0.646-0.488,1.08-0.645l0.403,0.85c-0.41,0.137-0.705,0.327-0.883,0.571
				c-0.179,0.244-0.272,0.569-0.282,0.974h0.996V59.593z"/>
			<path style="fill:#2C6882;" d="M302.663,62.032v-1.81h4.674V64.5c-0.455,0.439-1.112,0.826-1.975,1.161
				c-0.861,0.334-1.734,0.502-2.618,0.502c-1.123,0-2.103-0.236-2.937-0.707c-0.836-0.472-1.463-1.146-1.883-2.021
				c-0.42-0.877-0.63-1.83-0.63-2.86c0-1.118,0.234-2.111,0.703-2.981c0.469-0.868,1.154-1.535,2.058-1.999
				c0.689-0.356,1.546-0.534,2.571-0.534c1.333,0,2.374,0.279,3.124,0.838c0.749,0.56,1.231,1.332,1.446,2.318l-2.153,0.402
				c-0.151-0.527-0.436-0.943-0.854-1.248c-0.417-0.306-0.938-0.458-1.563-0.458c-0.947,0-1.7,0.3-2.26,0.901
				c-0.559,0.6-0.839,1.491-0.839,2.673c0,1.274,0.283,2.23,0.85,2.867c0.566,0.638,1.309,0.956,2.227,0.956
				c0.455,0,0.91-0.089,1.366-0.268c0.457-0.178,0.849-0.394,1.176-0.648v-1.361H302.663z"/>
			<path style="fill:#2C6882;" d="M313.616,63.504l2.051,0.345c-0.264,0.752-0.68,1.324-1.249,1.717
				c-0.568,0.394-1.28,0.59-2.135,0.59c-1.353,0-2.354-0.441-3.003-1.326c-0.513-0.707-0.769-1.601-0.769-2.68
				c0-1.289,0.336-2.299,1.01-3.029c0.674-0.729,1.526-1.095,2.557-1.095c1.157,0,2.07,0.382,2.739,1.146
				c0.669,0.764,0.989,1.935,0.96,3.512h-5.156c0.014,0.61,0.18,1.085,0.498,1.425c0.316,0.339,0.712,0.509,1.186,0.509
				c0.322,0,0.594-0.088,0.813-0.264S313.504,63.895,313.616,63.504z M313.733,61.424c-0.015-0.596-0.169-1.049-0.462-1.358
				c-0.293-0.311-0.649-0.465-1.068-0.465c-0.45,0-0.82,0.163-1.113,0.49s-0.438,0.771-0.433,1.333H313.733z"/>
			<path style="fill:#2C6882;" d="M316.519,63.761l2.065-0.315c0.088,0.4,0.266,0.704,0.534,0.912
				c0.269,0.207,0.645,0.312,1.129,0.312c0.531,0,0.932-0.098,1.201-0.293c0.18-0.137,0.271-0.32,0.271-0.55
				c0-0.156-0.049-0.286-0.146-0.388c-0.103-0.098-0.332-0.188-0.688-0.271c-1.66-0.366-2.713-0.7-3.156-1.004
				c-0.615-0.419-0.924-1.003-0.924-1.75c0-0.674,0.267-1.24,0.799-1.699s1.357-0.688,2.476-0.688c1.064,0,1.855,0.174,2.373,0.521
				s0.874,0.859,1.069,1.537l-1.941,0.359c-0.083-0.303-0.24-0.535-0.472-0.695c-0.232-0.162-0.563-0.242-0.993-0.242
				c-0.541,0-0.93,0.076-1.164,0.227c-0.156,0.108-0.234,0.247-0.234,0.418c0,0.146,0.068,0.271,0.205,0.373
				c0.186,0.138,0.826,0.33,1.923,0.579c1.096,0.249,1.861,0.555,2.296,0.915c0.43,0.367,0.645,0.877,0.645,1.531
				c0,0.713-0.298,1.326-0.894,1.838c-0.596,0.514-1.478,0.77-2.644,0.77c-1.061,0-1.898-0.215-2.517-0.645
				C317.113,65.081,316.709,64.498,316.519,63.761z"/>
			<path style="fill:#2C6882;" d="M328.942,58.201v1.641h-1.406v3.135c0,0.635,0.014,1.005,0.04,1.109
				c0.027,0.105,0.088,0.192,0.184,0.261c0.095,0.068,0.211,0.102,0.348,0.102c0.19,0,0.466-0.065,0.828-0.197l0.176,1.597
				c-0.479,0.205-1.021,0.308-1.627,0.308c-0.371,0-0.705-0.063-1.003-0.187c-0.298-0.125-0.517-0.286-0.655-0.483
				c-0.14-0.198-0.236-0.465-0.289-0.803c-0.045-0.238-0.066-0.722-0.066-1.449v-3.392h-0.945v-1.641h0.945v-1.546l2.065-1.201
				v2.747H328.942z"/>
			<path style="fill:#2C6882;" d="M330.16,57.147v-1.904h2.059v1.904H330.16z M330.16,65.98v-7.778h2.059v7.778H330.16z"/>
			<path style="fill:#2C6882;" d="M333.642,61.981c0-0.684,0.169-1.345,0.505-1.985c0.338-0.639,0.814-1.127,1.433-1.465
				c0.617-0.336,1.308-0.505,2.069-0.505c1.176,0,2.141,0.382,2.893,1.146c0.752,0.764,1.128,1.729,1.128,2.896
				c0,1.177-0.38,2.152-1.139,2.926c-0.76,0.774-1.716,1.161-2.868,1.161c-0.713,0-1.393-0.161-2.039-0.483
				c-0.647-0.322-1.139-0.795-1.477-1.417C333.811,63.632,333.642,62.874,333.642,61.981z M335.751,62.091
				c0,0.771,0.183,1.361,0.55,1.771c0.365,0.41,0.817,0.615,1.354,0.615s0.987-0.205,1.352-0.615
				c0.363-0.41,0.546-1.005,0.546-1.787c0-0.762-0.183-1.348-0.546-1.758c-0.364-0.41-0.814-0.615-1.352-0.615
				s-0.989,0.205-1.354,0.615C335.934,60.728,335.751,61.319,335.751,62.091z M336.615,57.249l1.011-2.189h2.308l-2.015,2.189
				H336.615z"/>
			<path style="fill:#2C6882;" d="M350.146,65.98h-2.059v-3.97c0-0.84-0.044-1.383-0.132-1.63c-0.088-0.246-0.23-0.438-0.429-0.574
				c-0.197-0.137-0.436-0.205-0.714-0.205c-0.356,0-0.677,0.098-0.96,0.293s-0.477,0.453-0.582,0.775
				c-0.104,0.322-0.157,0.919-0.157,1.787v3.523h-2.058v-7.778h1.911v1.143c0.679-0.879,1.533-1.318,2.563-1.318
				c0.454,0,0.869,0.082,1.245,0.245c0.376,0.164,0.66,0.373,0.854,0.627c0.192,0.254,0.327,0.541,0.402,0.863
				c0.076,0.322,0.114,0.784,0.114,1.385V65.98z"/>
			<path style="fill:#2C6882;" d="M356.628,65.98V55.242h7.361v1.816h-5.193v2.542h4.482v1.816h-4.482v4.563H356.628z"/>
			<path style="fill:#2C6882;" d="M365.551,57.147v-1.904h2.059v1.904H365.551z M365.551,65.98v-7.778h2.059v7.778H365.551z"/>
			<path style="fill:#2C6882;" d="M376.585,65.98h-2.059v-3.97c0-0.84-0.044-1.383-0.132-1.63c-0.088-0.246-0.23-0.438-0.429-0.574
				c-0.197-0.137-0.436-0.205-0.714-0.205c-0.356,0-0.677,0.098-0.96,0.293s-0.477,0.453-0.582,0.775
				c-0.104,0.322-0.157,0.919-0.157,1.787v3.523h-2.058v-7.778h1.911v1.143c0.679-0.879,1.533-1.318,2.563-1.318
				c0.454,0,0.869,0.082,1.245,0.245c0.376,0.164,0.66,0.373,0.854,0.627c0.192,0.254,0.327,0.541,0.402,0.863
				c0.076,0.322,0.114,0.784,0.114,1.385V65.98z"/>
			<path style="fill:#2C6882;" d="M380,60.574l-1.868-0.337c0.21-0.752,0.571-1.309,1.084-1.67s1.274-0.542,2.285-0.542
				c0.918,0,1.602,0.108,2.051,0.326c0.449,0.217,0.766,0.493,0.948,0.827c0.184,0.335,0.275,0.949,0.275,1.842l-0.022,2.402
				c0,0.685,0.033,1.188,0.099,1.513c0.066,0.325,0.189,0.673,0.37,1.044h-2.036c-0.054-0.137-0.12-0.339-0.197-0.607
				c-0.035-0.122-0.059-0.203-0.074-0.242c-0.352,0.342-0.728,0.599-1.127,0.77c-0.401,0.17-0.828,0.256-1.282,0.256
				c-0.801,0-1.432-0.217-1.894-0.652c-0.461-0.434-0.691-0.983-0.691-1.647c0-0.439,0.104-0.831,0.314-1.176
				c0.21-0.344,0.504-0.607,0.883-0.791c0.378-0.183,0.924-0.343,1.637-0.479c0.962-0.181,1.628-0.349,2-0.506v-0.205
				c0-0.395-0.099-0.677-0.293-0.846c-0.196-0.168-0.564-0.252-1.106-0.252c-0.366,0-0.651,0.071-0.856,0.216
				C380.293,59.96,380.126,60.213,380,60.574z M382.754,62.244c-0.264,0.088-0.682,0.193-1.253,0.315s-0.944,0.241-1.12,0.358
				c-0.27,0.19-0.403,0.433-0.403,0.726c0,0.288,0.107,0.537,0.322,0.746c0.215,0.211,0.488,0.315,0.82,0.315
				c0.371,0,0.726-0.122,1.062-0.366c0.25-0.186,0.413-0.412,0.491-0.682c0.054-0.176,0.081-0.51,0.081-1.003V62.244z"/>
			<path style="fill:#2C6882;" d="M393.669,65.98h-2.059v-3.97c0-0.84-0.044-1.383-0.132-1.63c-0.088-0.246-0.23-0.438-0.429-0.574
				c-0.197-0.137-0.436-0.205-0.714-0.205c-0.356,0-0.677,0.098-0.96,0.293s-0.477,0.453-0.582,0.775
				c-0.104,0.322-0.157,0.919-0.157,1.787v3.523h-2.058v-7.778h1.911v1.143c0.679-0.879,1.533-1.318,2.563-1.318
				c0.454,0,0.869,0.082,1.245,0.245c0.376,0.164,0.66,0.373,0.854,0.627c0.192,0.254,0.327,0.541,0.402,0.863
				c0.076,0.322,0.114,0.784,0.114,1.385V65.98z"/>
			<path style="fill:#2C6882;" d="M402.328,60.501l-2.029,0.366c-0.068-0.405-0.224-0.71-0.465-0.915
				c-0.242-0.205-0.556-0.309-0.941-0.309c-0.513,0-0.922,0.178-1.227,0.531c-0.306,0.354-0.458,0.946-0.458,1.776
				c0,0.923,0.155,1.575,0.465,1.956c0.311,0.381,0.727,0.57,1.249,0.57c0.391,0,0.711-0.11,0.959-0.333
				c0.25-0.222,0.426-0.604,0.527-1.146l2.021,0.344c-0.21,0.928-0.612,1.629-1.208,2.102c-0.596,0.475-1.395,0.711-2.396,0.711
				c-1.138,0-2.044-0.359-2.721-1.076c-0.676-0.719-1.014-1.712-1.014-2.981c0-1.284,0.339-2.284,1.018-2.999
				c0.679-0.716,1.597-1.073,2.754-1.073c0.947,0,1.7,0.204,2.26,0.611C401.682,59.045,402.083,59.666,402.328,60.501z"/>
			<path style="fill:#2C6882;" d="M403.677,57.147v-1.904h2.059v1.904H403.677z M403.677,65.98v-7.778h2.059v7.778H403.677z"/>
			<path style="fill:#2C6882;" d="M412.14,63.504l2.051,0.345c-0.264,0.752-0.68,1.324-1.249,1.717
				c-0.568,0.394-1.28,0.59-2.135,0.59c-1.353,0-2.354-0.441-3.003-1.326c-0.513-0.707-0.769-1.601-0.769-2.68
				c0-1.289,0.336-2.299,1.01-3.029c0.674-0.729,1.526-1.095,2.557-1.095c1.157,0,2.07,0.382,2.739,1.146
				c0.669,0.764,0.989,1.935,0.96,3.512h-5.156c0.014,0.61,0.18,1.085,0.498,1.425c0.316,0.339,0.712,0.509,1.186,0.509
				c0.322,0,0.594-0.088,0.813-0.264S412.027,63.895,412.14,63.504z M412.257,61.424c-0.015-0.596-0.169-1.049-0.462-1.358
				c-0.293-0.311-0.649-0.465-1.068-0.465c-0.45,0-0.82,0.163-1.113,0.49s-0.438,0.771-0.433,1.333H412.257z"/>
			<path style="fill:#2C6882;" d="M417.737,65.98h-2.059v-7.778h1.912v1.106c0.327-0.522,0.621-0.867,0.883-1.033
				c0.261-0.166,0.558-0.249,0.89-0.249c0.469,0,0.92,0.13,1.354,0.388l-0.637,1.795c-0.347-0.225-0.669-0.337-0.967-0.337
				c-0.288,0-0.532,0.079-0.732,0.238c-0.2,0.158-0.357,0.445-0.473,0.86c-0.114,0.415-0.172,1.284-0.172,2.607V65.98z"/>
			<path style="fill:#2C6882;" d="M422.934,60.574l-1.868-0.337c0.21-0.752,0.571-1.309,1.084-1.67s1.274-0.542,2.285-0.542
				c0.918,0,1.602,0.108,2.051,0.326c0.449,0.217,0.766,0.493,0.948,0.827c0.184,0.335,0.275,0.949,0.275,1.842l-0.022,2.402
				c0,0.685,0.033,1.188,0.099,1.513c0.066,0.325,0.189,0.673,0.37,1.044h-2.036c-0.054-0.137-0.12-0.339-0.197-0.607
				c-0.035-0.122-0.059-0.203-0.074-0.242c-0.352,0.342-0.728,0.599-1.127,0.77c-0.401,0.17-0.828,0.256-1.282,0.256
				c-0.801,0-1.432-0.217-1.894-0.652c-0.461-0.434-0.691-0.983-0.691-1.647c0-0.439,0.104-0.831,0.314-1.176
				c0.21-0.344,0.504-0.607,0.883-0.791c0.378-0.183,0.924-0.343,1.637-0.479c0.962-0.181,1.628-0.349,2-0.506v-0.205
				c0-0.395-0.099-0.677-0.293-0.846c-0.196-0.168-0.564-0.252-1.106-0.252c-0.366,0-0.651,0.071-0.856,0.216
				C423.227,59.96,423.06,60.213,422.934,60.574z M425.688,62.244c-0.264,0.088-0.682,0.193-1.253,0.315s-0.944,0.241-1.12,0.358
				c-0.27,0.19-0.403,0.433-0.403,0.726c0,0.288,0.107,0.537,0.322,0.746c0.215,0.211,0.488,0.315,0.82,0.315
				c0.371,0,0.726-0.122,1.062-0.366c0.25-0.186,0.413-0.412,0.491-0.682c0.054-0.176,0.081-0.51,0.081-1.003V62.244z"/>
			<path style="fill:#2C6882;" d="M429.388,55.242h2.059v1.479c0,0.596-0.052,1.064-0.154,1.406s-0.297,0.65-0.582,0.927
				c-0.286,0.275-0.648,0.492-1.088,0.647l-0.402-0.856c0.414-0.137,0.71-0.327,0.886-0.571s0.269-0.568,0.278-0.975h-0.996V55.242z
				 M432.845,55.242h2.059v1.479c0,0.596-0.053,1.064-0.158,1.406c-0.104,0.342-0.3,0.65-0.586,0.927
				c-0.285,0.275-0.646,0.492-1.08,0.647l-0.402-0.856c0.41-0.137,0.704-0.327,0.882-0.571c0.179-0.244,0.27-0.568,0.274-0.975
				h-0.988V55.242z"/>
			<path style="fill:#2C6882;" d="M21.86,83.98h-1.912v-1.143c-0.317,0.444-0.692,0.775-1.124,0.992
				c-0.433,0.218-0.868,0.326-1.308,0.326c-0.894,0-1.659-0.36-2.296-1.08c-0.638-0.721-0.956-1.725-0.956-3.014
				c0-1.318,0.31-2.321,0.93-3.007c0.62-0.687,1.404-1.029,2.352-1.029c0.869,0,1.621,0.361,2.256,1.084v-3.867h2.059V83.98z
				 M16.366,79.922c0,0.83,0.115,1.431,0.345,1.802c0.332,0.537,0.796,0.806,1.392,0.806c0.474,0,0.876-0.201,1.209-0.604
				c0.331-0.402,0.498-1.004,0.498-1.805c0-0.895-0.162-1.537-0.484-1.931c-0.322-0.393-0.734-0.589-1.237-0.589
				c-0.488,0-0.897,0.193-1.227,0.582C16.531,78.57,16.366,79.15,16.366,79.922z"/>
			<path style="fill:#2C6882;" d="M28.184,81.504l2.051,0.345c-0.264,0.752-0.68,1.324-1.249,1.717
				c-0.568,0.394-1.28,0.59-2.135,0.59c-1.353,0-2.354-0.441-3.003-1.326c-0.513-0.707-0.769-1.601-0.769-2.68
				c0-1.289,0.336-2.299,1.01-3.029c0.674-0.729,1.526-1.095,2.557-1.095c1.157,0,2.07,0.382,2.739,1.146
				c0.669,0.764,0.989,1.935,0.96,3.512h-5.156c0.014,0.61,0.18,1.085,0.498,1.425c0.316,0.339,0.712,0.509,1.186,0.509
				c0.322,0,0.594-0.088,0.813-0.264S28.071,81.895,28.184,81.504z M28.301,79.424c-0.015-0.596-0.169-1.049-0.462-1.358
				c-0.293-0.311-0.649-0.465-1.068-0.465c-0.45,0-0.82,0.163-1.113,0.49s-0.438,0.771-0.433,1.333H28.301z"/>
			<path style="fill:#2C6882;" d="M37.718,77.593h-2.059V76.12c0-0.595,0.053-1.065,0.157-1.409
				c0.105-0.345,0.299-0.653,0.583-0.927c0.282-0.273,0.645-0.488,1.084-0.645l0.402,0.85c-0.41,0.137-0.704,0.327-0.883,0.571
				c-0.178,0.244-0.272,0.569-0.281,0.974h0.996V77.593z M41.152,77.593h-2.058V76.12c0-0.6,0.052-1.071,0.157-1.413
				c0.104-0.342,0.3-0.649,0.586-0.923c0.285-0.273,0.646-0.488,1.08-0.645l0.403,0.85c-0.41,0.137-0.705,0.327-0.883,0.571
				c-0.179,0.244-0.272,0.569-0.282,0.974h0.996V77.593z"/>
			<path style="fill:#2C6882;" d="M43.133,83.98V73.33h2.168v8.841h5.391v1.809H43.133z"/>
			<path style="fill:#2C6882;" d="M53.55,78.574l-1.868-0.337c0.21-0.752,0.571-1.309,1.084-1.67s1.274-0.542,2.285-0.542
				c0.918,0,1.602,0.108,2.051,0.326c0.449,0.217,0.766,0.493,0.948,0.827c0.184,0.335,0.275,0.949,0.275,1.842l-0.022,2.402
				c0,0.685,0.033,1.188,0.099,1.513c0.066,0.325,0.189,0.673,0.37,1.044h-2.036c-0.054-0.137-0.12-0.339-0.197-0.607
				c-0.035-0.122-0.059-0.203-0.074-0.242c-0.352,0.342-0.728,0.599-1.127,0.77c-0.401,0.17-0.828,0.256-1.282,0.256
				c-0.801,0-1.432-0.217-1.894-0.652c-0.461-0.434-0.691-0.983-0.691-1.647c0-0.439,0.104-0.831,0.314-1.176
				c0.21-0.344,0.504-0.607,0.883-0.791c0.378-0.183,0.924-0.343,1.637-0.479c0.962-0.181,1.628-0.349,2-0.506v-0.205
				c0-0.395-0.099-0.677-0.293-0.846c-0.196-0.168-0.564-0.252-1.106-0.252c-0.366,0-0.651,0.071-0.856,0.216
				C53.843,77.96,53.676,78.213,53.55,78.574z M56.304,80.244c-0.264,0.088-0.682,0.193-1.253,0.315s-0.944,0.241-1.12,0.358
				c-0.27,0.19-0.403,0.433-0.403,0.726c0,0.288,0.107,0.537,0.322,0.746c0.215,0.211,0.488,0.315,0.82,0.315
				c0.371,0,0.726-0.122,1.062-0.366c0.25-0.186,0.413-0.412,0.491-0.682c0.054-0.176,0.081-0.51,0.081-1.003V80.244z"/>
			<path style="fill:#2C6882;" d="M69.221,83.98v-1.164c-0.283,0.415-0.655,0.742-1.117,0.98c-0.461,0.239-0.948,0.359-1.461,0.359
				c-0.522,0-0.991-0.115-1.406-0.344c-0.415-0.229-0.716-0.552-0.901-0.967s-0.277-0.989-0.277-1.722v-4.922h2.058v3.574
				c0,1.094,0.038,1.764,0.113,2.011c0.076,0.246,0.214,0.441,0.414,0.586c0.2,0.144,0.454,0.216,0.762,0.216
				c0.352,0,0.667-0.097,0.944-0.289c0.279-0.193,0.469-0.433,0.572-0.718c0.102-0.286,0.153-0.985,0.153-2.099v-3.281h2.058v7.778
				H69.221z"/>
			<path style="fill:#2C6882;" d="M80.129,83.98H78.07v-3.97c0-0.84-0.044-1.383-0.132-1.63c-0.088-0.246-0.23-0.438-0.429-0.574
				c-0.197-0.137-0.436-0.205-0.714-0.205c-0.356,0-0.677,0.098-0.96,0.293s-0.477,0.453-0.582,0.775
				c-0.104,0.322-0.157,0.919-0.157,1.787v3.523h-2.058v-7.778h1.911v1.143c0.679-0.879,1.533-1.318,2.563-1.318
				c0.454,0,0.869,0.082,1.245,0.245c0.376,0.164,0.66,0.373,0.854,0.627c0.192,0.254,0.327,0.541,0.402,0.863
				c0.076,0.322,0.114,0.784,0.114,1.385V83.98z"/>
			<path style="fill:#2C6882;" d="M82.005,75.147v-1.904h2.059v1.904H82.005z M82.005,83.98v-7.778h2.059v7.778H82.005z"/>
			<path style="fill:#2C6882;" d="M88.102,83.98l-3.135-7.778h2.161l1.465,3.97l0.425,1.326c0.112-0.338,0.184-0.56,0.213-0.667
				c0.067-0.22,0.141-0.439,0.219-0.659l1.48-3.97h2.116l-3.091,7.778H88.102z"/>
			<path style="fill:#2C6882;" d="M98.6,81.504l2.051,0.345c-0.264,0.752-0.68,1.324-1.249,1.717c-0.568,0.394-1.28,0.59-2.135,0.59
				c-1.353,0-2.354-0.441-3.003-1.326c-0.513-0.707-0.769-1.601-0.769-2.68c0-1.289,0.336-2.299,1.01-3.029
				c0.674-0.729,1.526-1.095,2.557-1.095c1.157,0,2.07,0.382,2.739,1.146c0.669,0.764,0.989,1.935,0.96,3.512h-5.156
				c0.014,0.61,0.18,1.085,0.498,1.425c0.316,0.339,0.712,0.509,1.186,0.509c0.322,0,0.594-0.088,0.813-0.264
				S98.487,81.895,98.6,81.504z M98.717,79.424c-0.015-0.596-0.169-1.049-0.462-1.358c-0.293-0.311-0.649-0.465-1.068-0.465
				c-0.45,0-0.82,0.163-1.113,0.49s-0.438,0.771-0.433,1.333H98.717z"/>
			<path style="fill:#2C6882;" d="M104.197,83.98h-2.059v-7.778h1.912v1.106c0.327-0.522,0.621-0.867,0.883-1.033
				c0.261-0.166,0.558-0.249,0.89-0.249c0.469,0,0.92,0.13,1.354,0.388l-0.637,1.795c-0.347-0.225-0.669-0.337-0.967-0.337
				c-0.288,0-0.532,0.079-0.732,0.238c-0.2,0.158-0.357,0.445-0.473,0.86c-0.114,0.415-0.172,1.284-0.172,2.607V83.98z"/>
			<path style="fill:#2C6882;" d="M107.129,81.761l2.065-0.315c0.088,0.4,0.266,0.704,0.534,0.912
				c0.269,0.207,0.645,0.312,1.129,0.312c0.531,0,0.932-0.098,1.201-0.293c0.18-0.137,0.271-0.32,0.271-0.55
				c0-0.156-0.049-0.286-0.146-0.388c-0.103-0.098-0.332-0.188-0.688-0.271c-1.66-0.366-2.713-0.7-3.156-1.004
				c-0.615-0.419-0.924-1.003-0.924-1.75c0-0.674,0.267-1.24,0.799-1.699s1.357-0.688,2.476-0.688c1.064,0,1.855,0.174,2.373,0.521
				s0.874,0.859,1.069,1.537l-1.941,0.359c-0.083-0.303-0.24-0.535-0.472-0.695c-0.232-0.162-0.563-0.242-0.993-0.242
				c-0.541,0-0.93,0.076-1.164,0.227c-0.156,0.108-0.234,0.247-0.234,0.418c0,0.146,0.068,0.271,0.205,0.373
				c0.186,0.138,0.826,0.33,1.923,0.579c1.096,0.249,1.861,0.555,2.296,0.915c0.43,0.367,0.645,0.877,0.645,1.531
				c0,0.713-0.298,1.326-0.894,1.838c-0.596,0.514-1.478,0.77-2.644,0.77c-1.061,0-1.898-0.215-2.517-0.645
				C107.724,83.081,107.319,82.498,107.129,81.761z"/>
			<path style="fill:#2C6882;" d="M115.985,75.147v-1.904h2.059v1.904H115.985z M115.985,83.98v-7.778h2.059v7.778H115.985z"/>
			<path style="fill:#2C6882;" d="M127.078,83.98h-1.912v-1.143c-0.317,0.444-0.692,0.775-1.124,0.992
				c-0.433,0.218-0.868,0.326-1.308,0.326c-0.894,0-1.659-0.36-2.296-1.08c-0.638-0.721-0.956-1.725-0.956-3.014
				c0-1.318,0.31-2.321,0.93-3.007c0.62-0.687,1.404-1.029,2.352-1.029c0.869,0,1.621,0.361,2.256,1.084v-3.867h2.059V83.98z
				 M121.584,79.922c0,0.83,0.115,1.431,0.345,1.802c0.332,0.537,0.796,0.806,1.392,0.806c0.474,0,0.876-0.201,1.209-0.604
				c0.331-0.402,0.498-1.004,0.498-1.805c0-0.895-0.162-1.537-0.484-1.931c-0.322-0.393-0.734-0.589-1.237-0.589
				c-0.488,0-0.897,0.193-1.227,0.582C121.749,78.57,121.584,79.15,121.584,79.922z"/>
			<path style="fill:#2C6882;" d="M130.435,78.574l-1.868-0.337c0.21-0.752,0.571-1.309,1.084-1.67s1.274-0.542,2.285-0.542
				c0.918,0,1.602,0.108,2.051,0.326c0.449,0.217,0.766,0.493,0.948,0.827c0.184,0.335,0.275,0.949,0.275,1.842l-0.022,2.402
				c0,0.685,0.033,1.188,0.099,1.513c0.066,0.325,0.189,0.673,0.37,1.044h-2.036c-0.054-0.137-0.12-0.339-0.197-0.607
				c-0.035-0.122-0.059-0.203-0.074-0.242c-0.352,0.342-0.728,0.599-1.127,0.77c-0.401,0.17-0.828,0.256-1.282,0.256
				c-0.801,0-1.432-0.217-1.894-0.652c-0.461-0.434-0.691-0.983-0.691-1.647c0-0.439,0.104-0.831,0.314-1.176
				c0.21-0.344,0.504-0.607,0.883-0.791c0.378-0.183,0.924-0.343,1.637-0.479c0.962-0.181,1.628-0.349,2-0.506v-0.205
				c0-0.395-0.099-0.677-0.293-0.846c-0.196-0.168-0.564-0.252-1.106-0.252c-0.366,0-0.651,0.071-0.856,0.216
				C130.728,77.96,130.561,78.213,130.435,78.574z M133.189,80.244c-0.264,0.088-0.682,0.193-1.253,0.315s-0.944,0.241-1.12,0.358
				c-0.27,0.19-0.403,0.433-0.403,0.726c0,0.288,0.107,0.537,0.322,0.746c0.215,0.211,0.488,0.315,0.82,0.315
				c0.371,0,0.726-0.122,1.062-0.366c0.25-0.186,0.413-0.412,0.491-0.682c0.054-0.176,0.081-0.51,0.081-1.003V80.244z"/>
			<path style="fill:#2C6882;" d="M144.162,83.98h-1.912v-1.143c-0.317,0.444-0.692,0.775-1.124,0.992
				c-0.433,0.218-0.868,0.326-1.308,0.326c-0.894,0-1.659-0.36-2.296-1.08c-0.638-0.721-0.956-1.725-0.956-3.014
				c0-1.318,0.31-2.321,0.93-3.007c0.62-0.687,1.404-1.029,2.352-1.029c0.869,0,1.621,0.361,2.256,1.084v-3.867h2.059V83.98z
				 M138.668,79.922c0,0.83,0.115,1.431,0.345,1.802c0.332,0.537,0.796,0.806,1.392,0.806c0.474,0,0.876-0.201,1.209-0.604
				c0.331-0.402,0.498-1.004,0.498-1.805c0-0.895-0.162-1.537-0.484-1.931c-0.322-0.393-0.734-0.589-1.237-0.589
				c-0.488,0-0.897,0.193-1.227,0.582C138.833,78.57,138.668,79.15,138.668,79.922z"/>
			<path style="fill:#2C6882;" d="M148.861,83.98l3.67-5.604l-3.326-5.134h2.535l2.152,3.45l2.109-3.45h2.513l-3.34,5.215
				l3.669,5.522h-2.614l-2.38-3.713l-2.389,3.713H148.861z"/>
			<path style="fill:#2C6882;" d="M162.567,83.98v-4.52l-3.933-6.218h2.541l2.527,4.248l2.475-4.248h2.498l-3.947,6.233v4.504
				H162.567z"/>
			<path style="fill:#2C6882;" d="M168.612,83.98v-1.955l5.64-6.966h-5.002v-1.816h7.858v1.685l-5.882,7.244h6.109v1.809H168.612z"
				/>
			<path style="fill:#2C6882;" d="M178.341,73.242h2.059v1.479c0,0.596-0.052,1.064-0.154,1.406s-0.297,0.65-0.582,0.927
				c-0.286,0.275-0.648,0.492-1.088,0.647l-0.402-0.856c0.414-0.137,0.71-0.327,0.886-0.571s0.269-0.568,0.278-0.975h-0.996V73.242z
				 M181.798,73.242h2.059v1.479c0,0.596-0.053,1.064-0.158,1.406c-0.104,0.342-0.3,0.65-0.586,0.927
				c-0.285,0.275-0.646,0.492-1.08,0.647l-0.402-0.856c0.41-0.137,0.704-0.327,0.882-0.571c0.179-0.244,0.27-0.568,0.274-0.975
				h-0.988V73.242z"/>
			<path style="fill:#2C6882;" d="M185.77,83.98v-2.059h2.059v2.059H185.77z"/>
		</g>
	</g>
	<line style="fill:none;stroke:#393939;stroke-width:1.0444;stroke-miterlimit:10;" x1="391.8" y1="0" x2="391.8" y2="13.376"/>
	<circle style="fill:#393939;" cx="391.8" cy="12.776" r="1.02"/>
	<g>
		
			<line style="fill:none;stroke:#393939;stroke-width:1.0444;stroke-miterlimit:10;" x1="1.023" y1="12.756" x2="377.568" y2="12.756"/>
		<circle style="fill:#393939;" cx="377.568" cy="12.776" r="1.02"/>
		<circle style="fill:#393939;" cx="1.024" cy="12.776" r="1.02"/>
	</g>
	<g>
		
			<line style="fill:none;stroke:#393939;stroke-width:1.0444;stroke-miterlimit:10;" x1="1.021" y1="337.968" x2="446.398" y2="337.968"/>
		<circle style="fill:#393939;" cx="1.024" cy="337.988" r="1.02"/>
		<circle style="fill:#393939;" cx="446.398" cy="337.968" r="1.021"/>
	</g>
	<g>
		
			<line style="fill:none;stroke:#393939;stroke-width:1.0444;stroke-miterlimit:10;" x1="1.021" y1="17.788" x2="1.021" y2="332.276"/>
		<circle style="fill:#393939;" cx="1.024" cy="17.798" r="1.02"/>
		<circle style="fill:#393939;" cx="1.021" cy="331.404" r="1.02"/>
	</g>
	<g>
		
			<line style="fill:none;stroke:#393939;stroke-width:1.0444;stroke-miterlimit:10;" x1="446.355" y1="17.788" x2="446.355" y2="334.156"/>
		<circle style="fill:#393939;" cx="446.357" cy="17.798" r="1.02"/>
		<circle style="fill:#393939;" cx="446.357" cy="333.934" r="1.02"/>
	</g>
	<g>
		
			<line style="fill:none;stroke:#393939;stroke-width:1.0444;stroke-miterlimit:10;" x1="405.915" y1="12.756" x2="445.378" y2="12.756"/>
		<circle style="fill:#393939;" cx="405.69" cy="12.776" r="1.02"/>
		<circle style="fill:#393939;" cx="445.377" cy="12.776" r="1.02"/>
	</g>
</g>
</svg>
