<?xml version="1.0" encoding="utf-8"?>
<!-- Generator: Adobe Illustrator 17.0.0, SVG Export Plug-In . SVG Version: 6.00 Build 0)  -->
<!DOCTYPE svg PUBLIC "-//W3C//DTD SVG 1.1//EN" "http://www.w3.org/Graphics/SVG/1.1/DTD/svg11.dtd" [
	<!ENTITY ns_extend "http://ns.adobe.com/Extensibility/1.0/">
	<!ENTITY ns_ai "http://ns.adobe.com/AdobeIllustrator/10.0/">
	<!ENTITY ns_graphs "http://ns.adobe.com/Graphs/1.0/">
	<!ENTITY ns_vars "http://ns.adobe.com/Variables/1.0/">
	<!ENTITY ns_imrep "http://ns.adobe.com/ImageReplacement/1.0/">
	<!ENTITY ns_sfw "http://ns.adobe.com/SaveForWeb/1.0/">
	<!ENTITY ns_custom "http://ns.adobe.com/GenericCustomNamespace/1.0/">
	<!ENTITY ns_adobe_xpath "http://ns.adobe.com/XPath/1.0/">
]>
<svg version="1.1" id="Capa_1" xmlns:x="&ns_extend;" xmlns:i="&ns_ai;" xmlns:graph="&ns_graphs;"
	 xmlns="http://www.w3.org/2000/svg" xmlns:xlink="http://www.w3.org/1999/xlink" x="0px" y="0px" width="525.725px" height="269px"
	 viewBox="0 0 525.725 269" enable-background="new 0 0 525.725 269" xml:space="preserve">
<metadata>
	<sfw  xmlns="&ns_sfw;">
		<slices></slices>
		<sliceSourceBounds  width="525.725" height="269" y="546" x="204.638" bottomLeftOrigin="true"></sliceSourceBounds>
	</sfw>
</metadata>
<polyline fill="#FFFFFF" points="11.836,15.752 0.17,31.668 11.836,31.668 11.836,75.752 0.17,90.67 11.836,90.75 11.836,136.664 
	0,152.2 0,269 525.725,269 525.725,0 11.772,0 11.836,16 "/>
<g>
	<path fill="#2C6882" d="M77.315,19.099h1.736c0.009,0.301,0.014,0.474,0.014,0.52c0,0.52-0.099,0.967-0.298,1.344
		c-0.197,0.375-0.585,0.798-1.162,1.268c-0.576,0.47-0.921,0.798-1.035,0.984s-0.171,0.398-0.171,0.636
		c0,0.351,0.15,0.659,0.451,0.927c0.301,0.266,0.704,0.399,1.21,0.399c0.487,0,0.894-0.136,1.217-0.407
		c0.323-0.271,0.552-0.698,0.684-1.281l1.764,0.226c-0.077,0.569-0.239,1.044-0.485,1.422c-0.337,0.515-0.776,0.896-1.315,1.142
		c-0.541,0.246-1.137,0.369-1.788,0.369c-1.099,0-1.975-0.288-2.628-0.865c-0.654-0.576-0.981-1.242-0.981-1.999
		c0-0.292,0.058-0.575,0.175-0.851c0.115-0.276,0.298-0.553,0.547-0.831c0.248-0.278,0.644-0.641,1.186-1.087
		c0.396-0.319,0.644-0.584,0.742-0.797C77.273,20.005,77.32,19.632,77.315,19.099z M79.052,16.515v1.921h-1.921v-1.921H79.052z"/>
	<path fill="#2C6882" d="M83.21,23.775V13.753h3.247c1.23,0,2.032,0.05,2.406,0.15c0.574,0.15,1.055,0.478,1.442,0.98
		c0.388,0.504,0.581,1.154,0.581,1.952c0,0.615-0.111,1.133-0.335,1.552s-0.507,0.748-0.851,0.988
		c-0.345,0.238-0.694,0.397-1.05,0.475c-0.483,0.096-1.183,0.144-2.099,0.144h-1.319v3.78L83.21,23.775L83.21,23.775z
		 M85.233,15.448v2.844h1.107c0.798,0,1.331-0.053,1.6-0.157s0.479-0.269,0.632-0.492c0.153-0.224,0.229-0.483,0.229-0.779
		c0-0.364-0.107-0.665-0.321-0.902c-0.214-0.237-0.485-0.385-0.813-0.444c-0.241-0.046-0.727-0.068-1.456-0.068h-0.978V15.448z"/>
	<path fill="#2C6882" d="M91.894,20.042c0-0.638,0.157-1.256,0.472-1.853s0.76-1.053,1.337-1.367
		c0.576-0.314,1.22-0.472,1.931-0.472c1.099,0,1.998,0.356,2.7,1.07c0.702,0.713,1.053,1.614,1.053,2.703
		c0,1.099-0.354,2.009-1.063,2.73c-0.709,0.723-1.602,1.084-2.677,1.084c-0.665,0-1.3-0.15-1.903-0.451
		c-0.604-0.301-1.063-0.742-1.378-1.322C92.052,21.583,91.894,20.876,91.894,20.042z M93.863,20.145c0,0.72,0.171,1.271,0.513,1.654
		s0.764,0.574,1.265,0.574s0.922-0.191,1.262-0.574c0.339-0.383,0.509-0.938,0.509-1.668c0-0.711-0.17-1.258-0.509-1.641
		c-0.34-0.383-0.761-0.574-1.262-0.574s-0.923,0.191-1.265,0.574S93.863,19.425,93.863,20.145z"/>
	<path fill="#2C6882" d="M102.533,23.775h-1.921v-7.26h1.784v1.032c0.306-0.487,0.58-0.809,0.824-0.964
		c0.243-0.155,0.521-0.232,0.83-0.232c0.438,0,0.859,0.121,1.265,0.362l-0.595,1.675c-0.323-0.21-0.624-0.314-0.902-0.314
		c-0.269,0-0.497,0.074-0.684,0.223c-0.187,0.147-0.334,0.415-0.441,0.803c-0.106,0.388-0.16,1.198-0.16,2.434
		C102.533,21.534,102.533,23.775,102.533,23.775z"/>
	<path fill="#2C6882" d="M116.566,26.536v-3.65c-0.251,0.323-0.563,0.58-0.937,0.77c-0.374,0.188-0.777,0.283-1.21,0.283
		c-0.825,0-1.504-0.31-2.037-0.93c-0.629-0.725-0.943-1.707-0.943-2.946c0-1.167,0.295-2.077,0.886-2.731
		c0.59-0.653,1.322-0.98,2.197-0.98c0.483,0,0.901,0.103,1.254,0.308c0.354,0.205,0.667,0.515,0.94,0.93v-1.073h1.771v10.021h-1.921
		V26.536z M116.628,20.056c0-0.743-0.151-1.295-0.455-1.658c-0.303-0.361-0.682-0.543-1.138-0.543c-0.465,0-0.854,0.185-1.165,0.554
		c-0.313,0.369-0.469,0.955-0.469,1.757c0,0.798,0.15,1.373,0.451,1.727c0.301,0.353,0.672,0.529,1.114,0.529
		s0.829-0.198,1.162-0.595S116.628,20.84,116.628,20.056z"/>
	<path fill="#2C6882" d="M124.956,23.775v-1.087c-0.265,0.388-0.611,0.692-1.043,0.916c-0.43,0.224-0.885,0.335-1.363,0.335
		c-0.487,0-0.925-0.107-1.313-0.321s-0.668-0.515-0.841-0.902s-0.26-0.923-0.26-1.606v-4.594h1.921v3.336
		c0,1.021,0.035,1.646,0.105,1.877c0.071,0.229,0.2,0.412,0.387,0.547c0.187,0.134,0.424,0.201,0.711,0.201
		c0.328,0,0.622-0.09,0.882-0.27c0.26-0.181,0.438-0.404,0.533-0.67c0.096-0.268,0.144-0.92,0.144-1.959v-3.063h1.921v7.26
		C126.74,23.775,124.956,23.775,124.956,23.775z"/>
	<path fill="#2C6882" d="M132.738,21.464l1.914,0.321c-0.246,0.702-0.635,1.236-1.166,1.603c-0.53,0.367-1.194,0.551-1.992,0.551
		c-1.263,0-2.196-0.412-2.803-1.237c-0.479-0.661-0.718-1.495-0.718-2.502c0-1.203,0.314-2.146,0.943-2.827s1.424-1.021,2.386-1.021
		c1.08,0,1.933,0.356,2.557,1.07c0.624,0.713,0.923,1.806,0.896,3.277h-4.813c0.014,0.569,0.169,1.013,0.465,1.33
		c0.296,0.316,0.665,0.475,1.107,0.475c0.301,0,0.554-0.082,0.759-0.246S132.634,21.828,132.738,21.464z M132.848,19.523
		c-0.014-0.556-0.157-0.979-0.431-1.268c-0.273-0.29-0.606-0.435-0.998-0.435c-0.419,0-0.766,0.152-1.039,0.458
		s-0.408,0.72-0.403,1.244L132.848,19.523L132.848,19.523z M130.393,15.626l0.943-2.044h2.153l-1.88,2.044H130.393z"/>
	<path fill="#2C6882" d="M143.914,13.753v3.685c0.62-0.725,1.36-1.087,2.222-1.087c0.442,0,0.841,0.082,1.196,0.246
		s0.623,0.374,0.804,0.629c0.18,0.255,0.303,0.538,0.369,0.848c0.065,0.31,0.099,0.791,0.099,1.442v4.259h-1.921V19.94
		c0-0.761-0.036-1.244-0.109-1.449s-0.201-0.368-0.387-0.489c-0.184-0.12-0.415-0.181-0.693-0.181c-0.319,0-0.604,0.077-0.854,0.232
		s-0.435,0.389-0.55,0.7c-0.117,0.313-0.175,0.774-0.175,1.385v3.637h-1.921V13.753H143.914z"/>
	<path fill="#2C6882" d="M151.791,18.73l-1.743-0.314c0.196-0.702,0.533-1.222,1.012-1.559s1.189-0.506,2.133-0.506
		c0.856,0,1.495,0.102,1.914,0.305c0.419,0.202,0.715,0.46,0.885,0.771c0.172,0.313,0.257,0.886,0.257,1.72l-0.021,2.242
		c0,0.638,0.031,1.108,0.092,1.411c0.063,0.304,0.177,0.628,0.346,0.975h-1.9c-0.05-0.128-0.111-0.316-0.185-0.567
		c-0.032-0.114-0.055-0.189-0.068-0.226c-0.328,0.319-0.679,0.559-1.053,0.718s-0.772,0.239-1.196,0.239
		c-0.747,0-1.336-0.203-1.768-0.608c-0.43-0.405-0.646-0.918-0.646-1.538c0-0.41,0.098-0.775,0.294-1.098
		c0.196-0.32,0.471-0.566,0.824-0.738c0.353-0.17,0.862-0.319,1.527-0.447c0.897-0.169,1.52-0.326,1.866-0.472v-0.191
		c0-0.369-0.091-0.632-0.273-0.79c-0.183-0.156-0.526-0.235-1.032-0.235c-0.342,0-0.608,0.067-0.8,0.202
		C152.064,18.156,151.909,18.393,151.791,18.73z M154.361,20.288c-0.246,0.082-0.636,0.18-1.169,0.294s-0.882,0.226-1.046,0.335
		c-0.251,0.178-0.376,0.403-0.376,0.677c0,0.269,0.101,0.501,0.301,0.697s0.456,0.294,0.766,0.294c0.347,0,0.677-0.114,0.991-0.342
		c0.232-0.173,0.385-0.385,0.458-0.636c0.05-0.164,0.075-0.477,0.075-0.937L154.361,20.288L154.361,20.288z"/>
	<path fill="#2C6882" d="M164.275,18.661l-1.894,0.342c-0.063-0.378-0.209-0.663-0.434-0.854c-0.227-0.191-0.519-0.287-0.879-0.287
		c-0.479,0-0.86,0.165-1.145,0.495c-0.285,0.331-0.428,0.884-0.428,1.658c0,0.861,0.145,1.47,0.434,1.825
		c0.29,0.355,0.679,0.533,1.166,0.533c0.364,0,0.663-0.104,0.896-0.312c0.232-0.207,0.396-0.563,0.492-1.069l1.887,0.321
		c-0.196,0.866-0.572,1.52-1.128,1.962s-1.301,0.663-2.235,0.663c-1.062,0-1.908-0.335-2.54-1.005
		c-0.631-0.67-0.946-1.598-0.946-2.782c0-1.198,0.316-2.132,0.95-2.799c0.634-0.668,1.49-1.002,2.57-1.002
		c0.884,0,1.587,0.19,2.109,0.57C163.673,17.302,164.048,17.882,164.275,18.661z"/>
	<path fill="#2C6882" d="M169.74,21.464l1.914,0.321c-0.246,0.702-0.635,1.236-1.166,1.603c-0.53,0.367-1.194,0.551-1.992,0.551
		c-1.263,0-2.196-0.412-2.803-1.237c-0.479-0.661-0.718-1.495-0.718-2.502c0-1.203,0.314-2.146,0.943-2.827s1.424-1.021,2.386-1.021
		c1.08,0,1.933,0.356,2.557,1.07c0.624,0.713,0.923,1.806,0.896,3.277h-4.813c0.014,0.569,0.169,1.013,0.465,1.33
		c0.296,0.316,0.665,0.475,1.107,0.475c0.301,0,0.554-0.082,0.759-0.246S169.636,21.828,169.74,21.464z M169.849,19.523
		c-0.014-0.556-0.157-0.979-0.431-1.268c-0.273-0.29-0.606-0.435-0.998-0.435c-0.419,0-0.766,0.152-1.039,0.458
		s-0.408,0.72-0.403,1.244L169.849,19.523L169.849,19.523z"/>
	<path fill="#2C6882" d="M174.965,23.775h-1.921v-7.26h1.784v1.032c0.306-0.487,0.58-0.809,0.824-0.964
		c0.243-0.155,0.521-0.232,0.83-0.232c0.438,0,0.859,0.121,1.265,0.362l-0.595,1.675c-0.323-0.21-0.624-0.314-0.902-0.314
		c-0.269,0-0.497,0.074-0.684,0.223c-0.187,0.147-0.334,0.415-0.441,0.803c-0.106,0.388-0.16,1.198-0.16,2.434V23.775z"/>
	<path fill="#2C6882" d="M189.032,23.775v-1.087c-0.265,0.388-0.611,0.692-1.043,0.916c-0.43,0.224-0.885,0.335-1.363,0.335
		c-0.487,0-0.925-0.107-1.313-0.321s-0.668-0.515-0.841-0.902s-0.26-0.923-0.26-1.606v-4.594h1.921v3.336
		c0,1.021,0.035,1.646,0.105,1.877c0.071,0.229,0.2,0.412,0.387,0.547c0.187,0.134,0.424,0.201,0.711,0.201
		c0.328,0,0.622-0.09,0.882-0.27c0.26-0.181,0.438-0.404,0.533-0.67c0.096-0.268,0.144-0.92,0.144-1.959v-3.063h1.921v7.26
		C190.816,23.775,189.032,23.775,189.032,23.775z"/>
	<path fill="#2C6882" d="M191.933,21.703l1.928-0.294c0.082,0.374,0.248,0.657,0.499,0.852c0.251,0.193,0.602,0.29,1.053,0.29
		c0.497,0,0.87-0.091,1.121-0.273c0.169-0.128,0.253-0.299,0.253-0.513c0-0.146-0.046-0.267-0.137-0.362
		c-0.096-0.091-0.31-0.176-0.643-0.253c-1.55-0.342-2.531-0.654-2.946-0.937c-0.574-0.392-0.861-0.937-0.861-1.634
		c0-0.629,0.248-1.157,0.745-1.586s1.267-0.643,2.311-0.643c0.993,0,1.731,0.162,2.215,0.485s0.815,0.802,0.998,1.436l-1.812,0.335
		c-0.077-0.282-0.225-0.499-0.44-0.649c-0.217-0.15-0.525-0.226-0.927-0.226c-0.506,0-0.868,0.07-1.087,0.212
		c-0.146,0.101-0.219,0.23-0.219,0.39c0,0.137,0.063,0.253,0.191,0.349c0.173,0.128,0.771,0.308,1.795,0.54
		c1.022,0.232,1.737,0.518,2.143,0.854c0.401,0.342,0.602,0.818,0.602,1.429c0,0.665-0.278,1.237-0.834,1.716
		s-1.379,0.718-2.468,0.718c-0.989,0-1.771-0.2-2.349-0.602C192.488,22.936,192.111,22.392,191.933,21.703z"/>
	<path fill="#2C6882" d="M199.756,20.042c0-0.638,0.157-1.256,0.472-1.853s0.76-1.053,1.337-1.367
		c0.576-0.314,1.22-0.472,1.931-0.472c1.099,0,1.998,0.356,2.7,1.07c0.702,0.713,1.053,1.614,1.053,2.703
		c0,1.099-0.354,2.009-1.063,2.73c-0.709,0.723-1.602,1.084-2.677,1.084c-0.665,0-1.3-0.15-1.903-0.451
		c-0.604-0.301-1.063-0.742-1.378-1.322C199.913,21.583,199.756,20.876,199.756,20.042z M201.724,20.145
		c0,0.72,0.171,1.271,0.513,1.654s0.764,0.574,1.265,0.574s0.922-0.191,1.262-0.574c0.339-0.383,0.509-0.938,0.509-1.668
		c0-0.711-0.17-1.258-0.509-1.641c-0.34-0.383-0.761-0.574-1.262-0.574s-0.923,0.191-1.265,0.574S201.724,19.425,201.724,20.145z"/>
	<path fill="#2C6882" d="M221.09,23.775h-1.784v-1.066c-0.296,0.415-0.646,0.724-1.049,0.926c-0.404,0.203-0.811,0.305-1.221,0.305
		c-0.834,0-1.549-0.336-2.143-1.008c-0.596-0.673-0.893-1.61-0.893-2.813c0-1.23,0.289-2.166,0.868-2.806
		c0.579-0.641,1.311-0.961,2.194-0.961c0.812,0,1.513,0.337,2.105,1.012v-3.609h1.921v10.02H221.09z M215.963,19.987
		c0,0.774,0.107,1.335,0.321,1.682c0.31,0.501,0.743,0.752,1.299,0.752c0.442,0,0.818-0.188,1.128-0.564
		c0.31-0.375,0.465-0.938,0.465-1.685c0-0.834-0.15-1.435-0.451-1.802c-0.301-0.366-0.686-0.55-1.155-0.55
		c-0.456,0-0.838,0.181-1.145,0.544C216.116,18.726,215.963,19.268,215.963,19.987z"/>
	<path fill="#2C6882" d="M226.991,21.464l1.914,0.321c-0.246,0.702-0.635,1.236-1.166,1.603c-0.53,0.367-1.194,0.551-1.992,0.551
		c-1.263,0-2.196-0.412-2.803-1.237c-0.479-0.661-0.718-1.495-0.718-2.502c0-1.203,0.314-2.146,0.943-2.827s1.424-1.021,2.386-1.021
		c1.08,0,1.933,0.356,2.557,1.07c0.624,0.713,0.923,1.806,0.896,3.277h-4.813c0.014,0.569,0.169,1.013,0.465,1.33
		c0.296,0.316,0.665,0.475,1.107,0.475c0.301,0,0.554-0.082,0.759-0.246S226.887,21.828,226.991,21.464z M227.1,19.523
		c-0.014-0.556-0.157-0.979-0.431-1.268c-0.273-0.29-0.606-0.435-0.998-0.435c-0.419,0-0.766,0.152-1.039,0.458
		s-0.408,0.72-0.403,1.244L227.1,19.523L227.1,19.523z"/>
	<path fill="#2C6882" d="M230.378,23.775V13.753h1.921v10.021L230.378,23.775L230.378,23.775z"/>
	<path fill="#2C6882" d="M244.151,21.464l1.914,0.321c-0.246,0.702-0.635,1.236-1.166,1.603c-0.53,0.367-1.194,0.551-1.992,0.551
		c-1.263,0-2.196-0.412-2.803-1.237c-0.479-0.661-0.718-1.495-0.718-2.502c0-1.203,0.314-2.146,0.943-2.827s1.424-1.021,2.386-1.021
		c1.08,0,1.933,0.356,2.557,1.07c0.624,0.713,0.923,1.806,0.896,3.277h-4.813c0.014,0.569,0.169,1.013,0.465,1.33
		c0.296,0.316,0.665,0.475,1.107,0.475c0.301,0,0.554-0.082,0.759-0.246S244.047,21.828,244.151,21.464z M244.261,19.523
		c-0.014-0.556-0.157-0.979-0.431-1.268c-0.273-0.29-0.606-0.435-0.998-0.435c-0.419,0-0.766,0.152-1.039,0.458
		s-0.408,0.72-0.403,1.244L244.261,19.523L244.261,19.523z"/>
	<path fill="#2C6882" d="M254.141,23.775h-1.921V20.07c0-0.784-0.041-1.291-0.123-1.521c-0.082-0.229-0.215-0.408-0.4-0.536
		c-0.184-0.128-0.406-0.191-0.666-0.191c-0.333,0-0.631,0.091-0.896,0.273s-0.445,0.424-0.544,0.725
		c-0.098,0.301-0.146,0.856-0.146,1.668v3.288h-1.921v-7.26h1.784v1.066c0.634-0.82,1.431-1.23,2.393-1.23
		c0.424,0,0.812,0.076,1.162,0.229c0.351,0.153,0.616,0.348,0.797,0.585c0.18,0.237,0.305,0.506,0.375,0.807
		c0.071,0.301,0.106,0.731,0.106,1.292V23.775z"/>
	<path fill="#2C6882" d="M255.052,16.515h1.066v-0.547c0-0.61,0.064-1.066,0.195-1.367c0.129-0.301,0.369-0.546,0.717-0.734
		c0.35-0.189,0.79-0.284,1.323-0.284c0.547,0,1.082,0.082,1.606,0.246l-0.26,1.34c-0.306-0.073-0.6-0.109-0.882-0.109
		c-0.278,0-0.478,0.065-0.599,0.194c-0.12,0.131-0.181,0.38-0.181,0.749v0.513h1.436v1.511h-1.436v5.749h-1.921v-5.749h-1.066
		v-1.512H255.052z"/>
	<path fill="#2C6882" d="M259.915,20.042c0-0.638,0.157-1.256,0.472-1.853s0.76-1.053,1.337-1.367
		c0.576-0.314,1.22-0.472,1.931-0.472c1.099,0,1.998,0.356,2.7,1.07c0.702,0.713,1.053,1.614,1.053,2.703
		c0,1.099-0.354,2.009-1.063,2.73c-0.709,0.723-1.602,1.084-2.677,1.084c-0.665,0-1.3-0.15-1.903-0.451
		c-0.604-0.301-1.063-0.742-1.378-1.322C260.072,21.583,259.915,20.876,259.915,20.042z M261.884,20.145
		c0,0.72,0.171,1.271,0.513,1.654s0.764,0.574,1.265,0.574s0.922-0.191,1.262-0.574c0.339-0.383,0.509-0.938,0.509-1.668
		c0-0.711-0.17-1.258-0.509-1.641c-0.34-0.383-0.761-0.574-1.262-0.574s-0.923,0.191-1.265,0.574S261.884,19.425,261.884,20.145z"/>
	<path fill="#2C6882" d="M273.459,26.536v-3.65c-0.251,0.323-0.563,0.58-0.937,0.77c-0.374,0.188-0.777,0.283-1.21,0.283
		c-0.825,0-1.504-0.31-2.037-0.93c-0.629-0.725-0.943-1.707-0.943-2.946c0-1.167,0.295-2.077,0.886-2.731
		c0.59-0.653,1.322-0.98,2.197-0.98c0.483,0,0.901,0.103,1.254,0.308c0.354,0.205,0.667,0.515,0.94,0.93v-1.073h1.771v10.021h-1.921
		V26.536z M273.52,20.056c0-0.743-0.151-1.295-0.455-1.658c-0.303-0.361-0.682-0.543-1.138-0.543c-0.465,0-0.854,0.185-1.165,0.554
		c-0.313,0.369-0.469,0.955-0.469,1.757c0,0.798,0.15,1.373,0.451,1.727c0.301,0.353,0.672,0.529,1.114,0.529
		s0.829-0.198,1.162-0.595S273.52,20.84,273.52,20.056z"/>
	<path fill="#2C6882" d="M281.849,23.775v-1.087c-0.265,0.388-0.611,0.692-1.043,0.916c-0.43,0.224-0.885,0.335-1.363,0.335
		c-0.487,0-0.925-0.107-1.313-0.321s-0.668-0.515-0.841-0.902s-0.26-0.923-0.26-1.606v-4.594h1.921v3.336
		c0,1.021,0.035,1.646,0.105,1.877c0.071,0.229,0.2,0.412,0.387,0.547c0.187,0.134,0.424,0.201,0.711,0.201
		c0.328,0,0.622-0.09,0.882-0.27c0.26-0.181,0.438-0.404,0.533-0.67c0.096-0.268,0.144-0.92,0.144-1.959v-3.063h1.921v7.26
		C283.633,23.775,281.849,23.775,281.849,23.775z"/>
	<path fill="#2C6882" d="M289.631,21.464l1.914,0.321c-0.246,0.702-0.635,1.236-1.166,1.603c-0.53,0.367-1.194,0.551-1.992,0.551
		c-1.263,0-2.196-0.412-2.803-1.237c-0.479-0.661-0.718-1.495-0.718-2.502c0-1.203,0.314-2.146,0.943-2.827s1.424-1.021,2.386-1.021
		c1.08,0,1.933,0.356,2.557,1.07c0.624,0.713,0.923,1.806,0.896,3.277h-4.813c0.014,0.569,0.169,1.013,0.465,1.33
		c0.296,0.316,0.665,0.475,1.107,0.475c0.301,0,0.554-0.082,0.759-0.246S289.526,21.828,289.631,21.464z M289.74,19.523
		c-0.014-0.556-0.157-0.979-0.431-1.268c-0.273-0.29-0.606-0.435-0.998-0.435c-0.419,0-0.766,0.152-1.039,0.458
		s-0.408,0.72-0.403,1.244L289.74,19.523L289.74,19.523z"/>
	<path fill="#2C6882" d="M298.838,16.515h1.791v1.066c0.232-0.364,0.547-0.661,0.943-0.889s0.836-0.342,1.319-0.342
		c0.843,0,1.559,0.33,2.146,0.991s0.882,1.581,0.882,2.762c0,1.212-0.296,2.154-0.889,2.827c-0.593,0.672-1.311,1.008-2.153,1.008
		c-0.401,0-0.765-0.08-1.09-0.239c-0.326-0.159-0.669-0.433-1.029-0.82v3.657h-1.921V16.515H298.838z M300.738,20.022
		c0,0.815,0.162,1.419,0.485,1.808c0.323,0.391,0.718,0.585,1.183,0.585c0.446,0,0.818-0.179,1.114-0.536
		c0.296-0.358,0.444-0.945,0.444-1.761c0-0.761-0.152-1.326-0.458-1.695s-0.684-0.554-1.135-0.554c-0.47,0-0.859,0.182-1.169,0.543
		C300.893,18.775,300.738,19.311,300.738,20.022z"/>
	<path fill="#2C6882" d="M306.804,20.042c0-0.638,0.157-1.256,0.472-1.853s0.76-1.053,1.337-1.367
		c0.576-0.314,1.22-0.472,1.931-0.472c1.099,0,1.998,0.356,2.7,1.07c0.702,0.713,1.053,1.614,1.053,2.703
		c0,1.099-0.354,2.009-1.063,2.73c-0.709,0.723-1.602,1.084-2.677,1.084c-0.665,0-1.3-0.15-1.903-0.451
		c-0.604-0.301-1.063-0.742-1.378-1.322C306.961,21.583,306.804,20.876,306.804,20.042z M308.772,20.145
		c0,0.72,0.171,1.271,0.513,1.654s0.764,0.574,1.265,0.574s0.922-0.191,1.262-0.574c0.339-0.383,0.509-0.938,0.509-1.668
		c0-0.711-0.17-1.258-0.509-1.641c-0.34-0.383-0.761-0.574-1.262-0.574s-0.923,0.191-1.265,0.574S308.772,19.425,308.772,20.145z"/>
	<path fill="#2C6882" d="M317.442,23.775h-1.921v-7.26h1.784v1.032c0.306-0.487,0.58-0.809,0.824-0.964
		c0.243-0.155,0.521-0.232,0.83-0.232c0.438,0,0.859,0.121,1.265,0.362l-0.595,1.675c-0.323-0.21-0.624-0.314-0.902-0.314
		c-0.269,0-0.497,0.074-0.684,0.223c-0.187,0.147-0.334,0.415-0.441,0.803c-0.106,0.388-0.16,1.198-0.16,2.434V23.775z"/>
	<path fill="#2C6882" d="M326.678,16.515h1.791v1.066c0.232-0.364,0.547-0.661,0.943-0.889s0.836-0.342,1.319-0.342
		c0.843,0,1.559,0.33,2.146,0.991s0.882,1.581,0.882,2.762c0,1.212-0.296,2.154-0.889,2.827c-0.593,0.672-1.311,1.008-2.153,1.008
		c-0.401,0-0.765-0.08-1.09-0.239c-0.326-0.159-0.669-0.433-1.029-0.82v3.657h-1.921V16.515H326.678z M328.578,20.022
		c0,0.815,0.162,1.419,0.485,1.808c0.323,0.391,0.718,0.585,1.183,0.585c0.446,0,0.818-0.179,1.114-0.536
		c0.296-0.358,0.444-0.945,0.444-1.761c0-0.761-0.152-1.326-0.458-1.695s-0.684-0.554-1.135-0.554c-0.47,0-0.859,0.182-1.169,0.543
		C328.733,18.775,328.578,19.311,328.578,20.022z"/>
	<path fill="#2C6882" d="M336.927,23.775h-1.921v-7.26h1.784v1.032c0.306-0.487,0.58-0.809,0.824-0.964
		c0.243-0.155,0.521-0.232,0.83-0.232c0.438,0,0.859,0.121,1.265,0.362l-0.595,1.675c-0.323-0.21-0.624-0.314-0.902-0.314
		c-0.269,0-0.497,0.074-0.684,0.223c-0.187,0.147-0.334,0.415-0.441,0.803c-0.106,0.388-0.16,1.198-0.16,2.434V23.775z"/>
	<path fill="#2C6882" d="M339.895,20.042c0-0.638,0.157-1.256,0.472-1.853s0.76-1.053,1.337-1.367
		c0.576-0.314,1.22-0.472,1.931-0.472c1.099,0,1.998,0.356,2.7,1.07c0.702,0.713,1.053,1.614,1.053,2.703
		c0,1.099-0.354,2.009-1.063,2.73c-0.709,0.723-1.602,1.084-2.677,1.084c-0.665,0-1.3-0.15-1.903-0.451
		c-0.604-0.301-1.063-0.742-1.378-1.322C340.053,21.583,339.895,20.876,339.895,20.042z M341.864,20.145
		c0,0.72,0.171,1.271,0.513,1.654s0.764,0.574,1.265,0.574s0.922-0.191,1.262-0.574c0.339-0.383,0.509-0.938,0.509-1.668
		c0-0.711-0.17-1.258-0.509-1.641c-0.34-0.383-0.761-0.574-1.262-0.574s-0.923,0.191-1.265,0.574S341.864,19.425,341.864,20.145z"/>
	<path fill="#2C6882" d="M355.025,18.661l-1.894,0.342c-0.063-0.378-0.209-0.663-0.434-0.854c-0.227-0.191-0.519-0.287-0.879-0.287
		c-0.479,0-0.86,0.165-1.145,0.495c-0.285,0.331-0.428,0.884-0.428,1.658c0,0.861,0.145,1.47,0.434,1.825
		c0.29,0.355,0.679,0.533,1.166,0.533c0.364,0,0.663-0.104,0.896-0.312c0.232-0.207,0.396-0.563,0.492-1.069l1.887,0.321
		c-0.196,0.866-0.572,1.52-1.128,1.962s-1.301,0.663-2.235,0.663c-1.062,0-1.908-0.335-2.54-1.005
		c-0.631-0.67-0.946-1.598-0.946-2.782c0-1.198,0.316-2.132,0.95-2.799c0.634-0.668,1.49-1.002,2.57-1.002
		c0.884,0,1.587,0.19,2.109,0.57C354.423,17.302,354.798,17.882,355.025,18.661z"/>
	<path fill="#2C6882" d="M360.49,21.464l1.914,0.321c-0.246,0.702-0.635,1.236-1.166,1.603c-0.53,0.367-1.194,0.551-1.992,0.551
		c-1.263,0-2.196-0.412-2.803-1.237c-0.479-0.661-0.718-1.495-0.718-2.502c0-1.203,0.314-2.146,0.943-2.827s1.424-1.021,2.386-1.021
		c1.08,0,1.933,0.356,2.557,1.07c0.624,0.713,0.923,1.806,0.896,3.277h-4.813c0.014,0.569,0.169,1.013,0.465,1.33
		c0.296,0.316,0.665,0.475,1.107,0.475c0.301,0,0.554-0.082,0.759-0.246S360.386,21.828,360.49,21.464z M360.599,19.523
		c-0.014-0.556-0.157-0.979-0.431-1.268c-0.273-0.29-0.606-0.435-0.998-0.435c-0.419,0-0.766,0.152-1.039,0.458
		s-0.408,0.72-0.403,1.244L360.599,19.523L360.599,19.523z"/>
	<path fill="#2C6882" d="M363.199,21.703l1.928-0.294c0.082,0.374,0.248,0.657,0.499,0.852c0.251,0.193,0.602,0.29,1.053,0.29
		c0.497,0,0.87-0.091,1.121-0.273c0.169-0.128,0.253-0.299,0.253-0.513c0-0.146-0.046-0.267-0.137-0.362
		c-0.096-0.091-0.31-0.176-0.643-0.253c-1.55-0.342-2.531-0.654-2.946-0.937c-0.574-0.392-0.861-0.937-0.861-1.634
		c0-0.629,0.248-1.157,0.745-1.586s1.267-0.643,2.311-0.643c0.993,0,1.731,0.162,2.215,0.485s0.815,0.802,0.998,1.436l-1.812,0.335
		c-0.077-0.282-0.225-0.499-0.44-0.649c-0.217-0.15-0.525-0.226-0.927-0.226c-0.506,0-0.868,0.07-1.087,0.212
		c-0.146,0.101-0.219,0.23-0.219,0.39c0,0.137,0.063,0.253,0.191,0.349c0.173,0.128,0.771,0.308,1.795,0.54
		c1.022,0.232,1.737,0.518,2.143,0.854c0.401,0.342,0.602,0.818,0.602,1.429c0,0.665-0.278,1.237-0.834,1.716
		s-1.379,0.718-2.468,0.718c-0.989,0-1.771-0.2-2.349-0.602C363.754,22.936,363.377,22.392,363.199,21.703z"/>
	<path fill="#2C6882" d="M371.021,20.042c0-0.638,0.157-1.256,0.472-1.853s0.76-1.053,1.337-1.367
		c0.576-0.314,1.22-0.472,1.931-0.472c1.099,0,1.998,0.356,2.7,1.07c0.702,0.713,1.053,1.614,1.053,2.703
		c0,1.099-0.354,2.009-1.063,2.73c-0.709,0.723-1.602,1.084-2.677,1.084c-0.665,0-1.3-0.15-1.903-0.451
		c-0.604-0.301-1.063-0.742-1.378-1.322C371.179,21.583,371.021,20.876,371.021,20.042z M372.99,20.145
		c0,0.72,0.171,1.271,0.513,1.654s0.764,0.574,1.265,0.574s0.922-0.191,1.262-0.574c0.339-0.383,0.509-0.938,0.509-1.668
		c0-0.711-0.17-1.258-0.509-1.641c-0.34-0.383-0.761-0.574-1.262-0.574s-0.923,0.191-1.265,0.574S372.99,19.425,372.99,20.145z"/>
	<path fill="#2C6882" d="M379.145,21.703l1.928-0.294c0.082,0.374,0.248,0.657,0.499,0.852c0.251,0.193,0.602,0.29,1.053,0.29
		c0.497,0,0.87-0.091,1.121-0.273c0.169-0.128,0.253-0.299,0.253-0.513c0-0.146-0.046-0.267-0.137-0.362
		c-0.096-0.091-0.31-0.176-0.643-0.253c-1.55-0.342-2.531-0.654-2.946-0.937c-0.574-0.392-0.861-0.937-0.861-1.634
		c0-0.629,0.248-1.157,0.745-1.586s1.267-0.643,2.311-0.643c0.993,0,1.731,0.162,2.215,0.485s0.815,0.802,0.998,1.436l-1.812,0.335
		c-0.077-0.282-0.225-0.499-0.44-0.649c-0.217-0.15-0.525-0.226-0.927-0.226c-0.506,0-0.868,0.07-1.087,0.212
		c-0.146,0.101-0.219,0.23-0.219,0.39c0,0.137,0.063,0.253,0.191,0.349c0.173,0.128,0.771,0.308,1.795,0.54
		c1.022,0.232,1.737,0.518,2.143,0.854c0.401,0.342,0.602,0.818,0.602,1.429c0,0.665-0.278,1.237-0.834,1.716
		s-1.379,0.718-2.468,0.718c-0.989,0-1.771-0.2-2.349-0.602C379.7,22.936,379.323,22.392,379.145,21.703z"/>
	<path fill="#2C6882" d="M393.233,16.515h1.791v1.066c0.232-0.364,0.547-0.661,0.943-0.889s0.836-0.342,1.319-0.342
		c0.843,0,1.559,0.33,2.146,0.991s0.882,1.581,0.882,2.762c0,1.212-0.296,2.154-0.889,2.827c-0.593,0.672-1.311,1.008-2.153,1.008
		c-0.401,0-0.765-0.08-1.09-0.239c-0.326-0.159-0.669-0.433-1.029-0.82v3.657h-1.921V16.515H393.233z M395.134,20.022
		c0,0.815,0.162,1.419,0.485,1.808c0.323,0.391,0.718,0.585,1.183,0.585c0.446,0,0.818-0.179,1.114-0.536
		c0.296-0.358,0.444-0.945,0.444-1.761c0-0.761-0.152-1.326-0.458-1.695s-0.684-0.554-1.135-0.554c-0.47,0-0.859,0.182-1.169,0.543
		C395.289,18.775,395.134,19.311,395.134,20.022z"/>
	<path fill="#2C6882" d="M403.079,18.73l-1.743-0.314c0.196-0.702,0.533-1.222,1.012-1.559s1.189-0.506,2.133-0.506
		c0.856,0,1.495,0.102,1.914,0.305c0.419,0.202,0.715,0.46,0.885,0.771c0.172,0.313,0.257,0.886,0.257,1.72l-0.021,2.242
		c0,0.638,0.031,1.108,0.092,1.411c0.063,0.304,0.177,0.628,0.346,0.975h-1.9c-0.05-0.128-0.111-0.316-0.185-0.567
		c-0.032-0.114-0.055-0.189-0.068-0.226c-0.328,0.319-0.679,0.559-1.053,0.718s-0.772,0.239-1.196,0.239
		c-0.747,0-1.336-0.203-1.768-0.608c-0.43-0.405-0.646-0.918-0.646-1.538c0-0.41,0.098-0.775,0.294-1.098
		c0.196-0.32,0.471-0.566,0.824-0.738c0.353-0.17,0.862-0.319,1.527-0.447c0.897-0.169,1.52-0.326,1.866-0.472v-0.191
		c0-0.369-0.091-0.632-0.273-0.79c-0.183-0.156-0.526-0.235-1.032-0.235c-0.342,0-0.608,0.067-0.8,0.202
		C403.352,18.156,403.197,18.393,403.079,18.73z M405.649,20.288c-0.246,0.082-0.636,0.18-1.169,0.294s-0.882,0.226-1.046,0.335
		c-0.251,0.178-0.376,0.403-0.376,0.677c0,0.269,0.101,0.501,0.301,0.697s0.456,0.294,0.766,0.294c0.347,0,0.677-0.114,0.991-0.342
		c0.232-0.173,0.385-0.385,0.458-0.636c0.05-0.164,0.075-0.477,0.075-0.937V20.288z"/>
	<path fill="#2C6882" d="M411.072,23.775h-1.921v-7.26h1.784v1.032c0.306-0.487,0.58-0.809,0.824-0.964
		c0.243-0.155,0.521-0.232,0.83-0.232c0.438,0,0.859,0.121,1.265,0.362l-0.595,1.675c-0.323-0.21-0.624-0.314-0.902-0.314
		c-0.269,0-0.497,0.074-0.684,0.223c-0.187,0.147-0.334,0.415-0.441,0.803c-0.106,0.388-0.16,1.198-0.16,2.434V23.775z"/>
	<path fill="#2C6882" d="M415.922,18.73l-1.743-0.314c0.196-0.702,0.533-1.222,1.012-1.559s1.189-0.506,2.133-0.506
		c0.856,0,1.495,0.102,1.914,0.305c0.419,0.202,0.715,0.46,0.885,0.771c0.172,0.313,0.257,0.886,0.257,1.72l-0.021,2.242
		c0,0.638,0.031,1.108,0.092,1.411c0.063,0.304,0.177,0.628,0.346,0.975h-1.9c-0.05-0.128-0.111-0.316-0.185-0.567
		c-0.032-0.114-0.055-0.189-0.068-0.226c-0.328,0.319-0.679,0.559-1.053,0.718s-0.772,0.239-1.196,0.239
		c-0.747,0-1.336-0.203-1.768-0.608c-0.43-0.405-0.646-0.918-0.646-1.538c0-0.41,0.098-0.775,0.294-1.098
		c0.196-0.32,0.471-0.566,0.824-0.738c0.353-0.17,0.862-0.319,1.527-0.447c0.897-0.169,1.52-0.326,1.866-0.472v-0.191
		c0-0.369-0.091-0.632-0.273-0.79c-0.183-0.156-0.526-0.235-1.032-0.235c-0.342,0-0.608,0.067-0.8,0.202
		C416.195,18.156,416.04,18.393,415.922,18.73z M418.492,20.288c-0.246,0.082-0.636,0.18-1.169,0.294s-0.882,0.226-1.046,0.335
		c-0.251,0.178-0.376,0.403-0.376,0.677c0,0.269,0.101,0.501,0.301,0.697s0.456,0.294,0.766,0.294c0.347,0,0.677-0.114,0.991-0.342
		c0.232-0.173,0.385-0.385,0.458-0.636c0.05-0.164,0.075-0.477,0.075-0.937V20.288z"/>
	<path fill="#2C6882" d="M427.952,23.775V13.753h1.921v10.021L427.952,23.775L427.952,23.775z"/>
	<path fill="#2C6882" d="M435.849,21.464l1.914,0.321c-0.246,0.702-0.635,1.236-1.166,1.603c-0.53,0.367-1.194,0.551-1.992,0.551
		c-1.263,0-2.196-0.412-2.803-1.237c-0.479-0.661-0.718-1.495-0.718-2.502c0-1.203,0.314-2.146,0.943-2.827s1.424-1.021,2.386-1.021
		c1.08,0,1.933,0.356,2.557,1.07c0.624,0.713,0.923,1.806,0.896,3.277h-4.813c0.014,0.569,0.169,1.013,0.465,1.33
		c0.296,0.316,0.665,0.475,1.107,0.475c0.301,0,0.554-0.082,0.759-0.246S435.745,21.828,435.849,21.464z M435.959,19.523
		c-0.014-0.556-0.157-0.979-0.431-1.268c-0.273-0.29-0.606-0.435-0.998-0.435c-0.419,0-0.766,0.152-1.039,0.458
		s-0.408,0.72-0.403,1.244L435.959,19.523L435.959,19.523z"/>
	<path fill="#2C6882" d="M441.232,23.775l-2.926-7.26h2.017l1.367,3.705l0.396,1.237c0.104-0.314,0.171-0.521,0.198-0.622
		c0.063-0.205,0.132-0.41,0.205-0.615l1.381-3.705h1.976l-2.885,7.26H441.232z"/>
	<path fill="#2C6882" d="M448.262,18.73l-1.743-0.314c0.196-0.702,0.533-1.222,1.012-1.559s1.189-0.506,2.133-0.506
		c0.856,0,1.495,0.102,1.914,0.305c0.419,0.202,0.715,0.46,0.885,0.771c0.172,0.313,0.257,0.886,0.257,1.72l-0.021,2.242
		c0,0.638,0.031,1.108,0.092,1.411c0.063,0.304,0.177,0.628,0.346,0.975h-1.9c-0.05-0.128-0.111-0.316-0.185-0.567
		c-0.032-0.114-0.055-0.189-0.068-0.226c-0.328,0.319-0.679,0.559-1.053,0.718s-0.772,0.239-1.196,0.239
		c-0.747,0-1.336-0.203-1.768-0.608c-0.43-0.405-0.646-0.918-0.646-1.538c0-0.41,0.098-0.775,0.294-1.098
		c0.196-0.32,0.471-0.566,0.824-0.738c0.353-0.17,0.862-0.319,1.527-0.447c0.897-0.169,1.52-0.326,1.866-0.472v-0.191
		c0-0.369-0.091-0.632-0.273-0.79c-0.183-0.156-0.526-0.235-1.032-0.235c-0.342,0-0.608,0.067-0.8,0.202
		C448.535,18.156,448.38,18.393,448.262,18.73z M450.832,20.288c-0.246,0.082-0.636,0.18-1.169,0.294s-0.882,0.226-1.046,0.335
		c-0.251,0.178-0.376,0.403-0.376,0.677c0,0.269,0.101,0.501,0.301,0.697s0.456,0.294,0.766,0.294c0.347,0,0.677-0.114,0.991-0.342
		c0.232-0.173,0.385-0.385,0.458-0.636c0.05-0.164,0.075-0.477,0.075-0.937V20.288z"/>
	<path fill="#2C6882" d="M461.019,23.775h-1.921V20.07c0-0.784-0.041-1.291-0.123-1.521c-0.082-0.229-0.215-0.408-0.4-0.536
		c-0.184-0.128-0.406-0.191-0.666-0.191c-0.333,0-0.631,0.091-0.896,0.273s-0.445,0.424-0.544,0.725
		c-0.098,0.301-0.146,0.856-0.146,1.668v3.288h-1.921v-7.26h1.784v1.066c0.634-0.82,1.431-1.23,2.393-1.23
		c0.424,0,0.812,0.076,1.162,0.229c0.351,0.153,0.616,0.348,0.797,0.585c0.18,0.237,0.305,0.506,0.375,0.807
		c0.071,0.301,0.106,0.731,0.106,1.292L461.019,23.775L461.019,23.775z"/>
	<path fill="#2C6882" d="M466.1,16.515v1.531h-1.313v2.926c0,0.593,0.013,0.938,0.037,1.035c0.025,0.099,0.082,0.18,0.172,0.243
		c0.088,0.063,0.196,0.096,0.324,0.096c0.178,0,0.436-0.062,0.772-0.185l0.164,1.49c-0.446,0.191-0.952,0.287-1.518,0.287
		c-0.347,0-0.658-0.059-0.937-0.174c-0.278-0.117-0.482-0.268-0.611-0.451c-0.131-0.186-0.221-0.435-0.271-0.749
		c-0.041-0.224-0.062-0.675-0.062-1.354v-3.165h-0.882v-1.531h0.882v-1.442l1.928-1.121v2.563L466.1,16.515L466.1,16.515z"/>
	<path fill="#2C6882" d="M468.674,18.73l-1.743-0.314c0.196-0.702,0.533-1.222,1.012-1.559s1.189-0.506,2.133-0.506
		c0.856,0,1.495,0.102,1.914,0.305c0.419,0.202,0.715,0.46,0.885,0.771c0.172,0.313,0.257,0.886,0.257,1.72l-0.021,2.242
		c0,0.638,0.031,1.108,0.092,1.411c0.063,0.304,0.177,0.628,0.346,0.975h-1.9c-0.05-0.128-0.111-0.316-0.185-0.567
		c-0.032-0.114-0.055-0.189-0.068-0.226c-0.328,0.319-0.679,0.559-1.053,0.718s-0.772,0.239-1.196,0.239
		c-0.747,0-1.336-0.203-1.768-0.608c-0.43-0.405-0.646-0.918-0.646-1.538c0-0.41,0.098-0.775,0.294-1.098
		c0.196-0.32,0.471-0.566,0.824-0.738c0.353-0.17,0.862-0.319,1.527-0.447c0.897-0.169,1.52-0.326,1.866-0.472v-0.191
		c0-0.369-0.091-0.632-0.273-0.79c-0.183-0.156-0.526-0.235-1.032-0.235c-0.342,0-0.608,0.067-0.8,0.202
		C468.947,18.156,468.792,18.393,468.674,18.73z M471.244,20.288c-0.246,0.082-0.636,0.18-1.169,0.294s-0.882,0.226-1.046,0.335
		c-0.251,0.178-0.376,0.403-0.376,0.677c0,0.269,0.101,0.501,0.301,0.697s0.456,0.294,0.766,0.294c0.347,0,0.677-0.114,0.991-0.342
		c0.232-0.173,0.385-0.385,0.458-0.636c0.05-0.164,0.075-0.477,0.075-0.937V20.288z"/>
	<path fill="#2C6882" d="M476.667,23.775h-1.921v-7.26h1.784v1.032c0.306-0.487,0.58-0.809,0.824-0.964
		c0.243-0.155,0.521-0.232,0.83-0.232c0.438,0,0.859,0.121,1.265,0.362l-0.595,1.675c-0.323-0.21-0.624-0.314-0.902-0.314
		c-0.269,0-0.497,0.074-0.684,0.223c-0.187,0.147-0.334,0.415-0.441,0.803c-0.106,0.388-0.16,1.198-0.16,2.434V23.775z"/>
	<path fill="#2C6882" d="M76.68,40.575h-1.921v-7.26h1.784v1.032c0.306-0.487,0.58-0.809,0.824-0.964
		c0.243-0.155,0.521-0.232,0.83-0.232c0.438,0,0.859,0.121,1.265,0.362l-0.595,1.675c-0.323-0.21-0.624-0.314-0.902-0.314
		c-0.269,0-0.497,0.074-0.684,0.223c-0.187,0.147-0.334,0.415-0.441,0.803c-0.106,0.388-0.16,1.198-0.16,2.434
		C76.68,38.334,76.68,40.575,76.68,40.575z"/>
	<path fill="#2C6882" d="M84.297,38.265l1.914,0.321c-0.246,0.702-0.635,1.236-1.166,1.603c-0.53,0.367-1.194,0.551-1.992,0.551
		c-1.263,0-2.196-0.412-2.803-1.237c-0.479-0.661-0.718-1.495-0.718-2.502c0-1.203,0.314-2.146,0.943-2.827s1.424-1.021,2.386-1.021
		c1.08,0,1.933,0.356,2.557,1.07c0.624,0.713,0.923,1.806,0.896,3.277h-4.813c0.014,0.569,0.169,1.013,0.465,1.33
		c0.296,0.316,0.665,0.475,1.107,0.475c0.301,0,0.554-0.082,0.759-0.246S84.192,38.629,84.297,38.265z M84.406,36.323
		c-0.014-0.556-0.157-0.979-0.431-1.268c-0.273-0.29-0.606-0.435-0.998-0.435c-0.419,0-0.766,0.152-1.039,0.458
		s-0.408,0.72-0.403,1.244h2.871V36.323z"/>
	<path fill="#2C6882" d="M92.428,43.337v-3.65c-0.251,0.323-0.563,0.58-0.937,0.77c-0.374,0.188-0.777,0.283-1.21,0.283
		c-0.825,0-1.504-0.31-2.037-0.93c-0.629-0.725-0.943-1.707-0.943-2.946c0-1.167,0.295-2.077,0.886-2.731
		c0.59-0.653,1.322-0.98,2.197-0.98c0.483,0,0.901,0.103,1.254,0.308c0.354,0.205,0.667,0.515,0.94,0.93v-1.073h1.771v10.021h-1.921
		V43.337z M92.489,36.857c0-0.743-0.151-1.295-0.455-1.658c-0.303-0.361-0.682-0.543-1.138-0.543c-0.465,0-0.854,0.185-1.165,0.554
		c-0.313,0.369-0.469,0.955-0.469,1.757c0,0.798,0.15,1.373,0.451,1.727c0.301,0.353,0.672,0.529,1.114,0.529
		s0.829-0.198,1.162-0.595S92.489,37.641,92.489,36.857z"/>
	<path fill="#2C6882" d="M100.817,40.575v-1.087c-0.265,0.388-0.611,0.692-1.043,0.916c-0.43,0.224-0.885,0.335-1.363,0.335
		c-0.487,0-0.925-0.107-1.313-0.321s-0.668-0.515-0.841-0.902s-0.26-0.923-0.26-1.606v-4.594h1.921v3.336
		c0,1.021,0.035,1.646,0.105,1.877c0.071,0.229,0.2,0.412,0.387,0.547c0.187,0.134,0.424,0.201,0.711,0.201
		c0.328,0,0.622-0.09,0.882-0.27c0.26-0.181,0.438-0.404,0.533-0.67c0.096-0.268,0.144-0.92,0.144-1.959v-3.063h1.921v7.26
		C102.601,40.575,100.817,40.575,100.817,40.575z"/>
	<path fill="#2C6882" d="M108.599,38.265l1.914,0.321c-0.246,0.702-0.635,1.236-1.166,1.603c-0.53,0.367-1.194,0.551-1.992,0.551
		c-1.263,0-2.196-0.412-2.803-1.237c-0.479-0.661-0.718-1.495-0.718-2.502c0-1.203,0.314-2.146,0.943-2.827s1.424-1.021,2.386-1.021
		c1.08,0,1.933,0.356,2.557,1.07c0.624,0.713,0.923,1.806,0.896,3.277h-4.813c0.014,0.569,0.169,1.013,0.465,1.33
		c0.296,0.316,0.665,0.475,1.107,0.475c0.301,0,0.554-0.082,0.759-0.246S108.494,38.629,108.599,38.265z M108.708,36.323
		c-0.014-0.556-0.157-0.979-0.431-1.268c-0.273-0.29-0.606-0.435-0.998-0.435c-0.419,0-0.766,0.152-1.039,0.458
		s-0.408,0.72-0.403,1.244h2.871V36.323z"/>
	<path fill="#2C6882" d="M113.823,40.575h-1.921v-7.26h1.784v1.032c0.306-0.487,0.58-0.809,0.824-0.964
		c0.243-0.155,0.521-0.232,0.83-0.232c0.438,0,0.859,0.121,1.265,0.362l-0.595,1.675c-0.323-0.21-0.624-0.314-0.902-0.314
		c-0.269,0-0.497,0.074-0.684,0.223c-0.187,0.147-0.334,0.415-0.441,0.803c-0.106,0.388-0.16,1.198-0.16,2.434
		C113.823,38.334,113.823,40.575,113.823,40.575z"/>
	<path fill="#2C6882" d="M117.237,32.331v-1.777h1.921v1.777H117.237z M117.237,40.575v-7.26h1.921v7.26
		C119.158,40.575,117.237,40.575,117.237,40.575z"/>
	<path fill="#2C6882" d="M120.787,33.316h1.771v0.991c0.634-0.771,1.388-1.155,2.263-1.155c0.465,0,0.868,0.096,1.21,0.287
		s0.622,0.48,0.841,0.868c0.319-0.388,0.663-0.677,1.032-0.868c0.369-0.191,0.764-0.287,1.183-0.287
		c0.533,0,0.984,0.108,1.354,0.324c0.369,0.217,0.645,0.535,0.827,0.954c0.132,0.31,0.198,0.812,0.198,1.504v4.642h-1.921v-4.149
		c0-0.72-0.066-1.185-0.198-1.395c-0.178-0.273-0.451-0.41-0.82-0.41c-0.269,0-0.521,0.082-0.759,0.246s-0.408,0.404-0.513,0.722
		c-0.104,0.316-0.157,0.816-0.157,1.5v3.486h-1.921v-3.979c0-0.706-0.034-1.162-0.103-1.367s-0.175-0.357-0.317-0.458
		c-0.145-0.101-0.339-0.15-0.585-0.15c-0.296,0-0.563,0.08-0.8,0.239s-0.406,0.39-0.51,0.69c-0.102,0.301-0.153,0.8-0.153,1.497
		v3.527h-1.921L120.787,33.316L120.787,33.316z"/>
	<path fill="#2C6882" d="M133.182,32.331v-1.777h1.921v1.777H133.182z M133.182,40.575v-7.26h1.921v7.26
		C135.103,40.575,133.182,40.575,133.182,40.575z"/>
	<path fill="#2C6882" d="M141.081,38.265l1.914,0.321c-0.246,0.702-0.635,1.236-1.166,1.603c-0.53,0.367-1.194,0.551-1.992,0.551
		c-1.263,0-2.196-0.412-2.803-1.237c-0.479-0.661-0.718-1.495-0.718-2.502c0-1.203,0.314-2.146,0.943-2.827s1.424-1.021,2.386-1.021
		c1.08,0,1.933,0.356,2.557,1.07c0.624,0.713,0.923,1.806,0.896,3.277h-4.813c0.014,0.569,0.169,1.013,0.465,1.33
		c0.296,0.316,0.665,0.475,1.107,0.475c0.301,0,0.554-0.082,0.759-0.246S140.976,38.629,141.081,38.265z M141.19,36.323
		c-0.014-0.556-0.157-0.979-0.431-1.268c-0.273-0.29-0.606-0.435-0.998-0.435c-0.419,0-0.766,0.152-1.039,0.458
		s-0.408,0.72-0.403,1.244h2.871V36.323z"/>
	<path fill="#2C6882" d="M151.07,40.575h-1.921V36.87c0-0.784-0.041-1.291-0.123-1.521c-0.082-0.229-0.215-0.408-0.4-0.536
		c-0.184-0.128-0.406-0.191-0.666-0.191c-0.333,0-0.631,0.091-0.896,0.273s-0.445,0.424-0.544,0.725
		c-0.098,0.301-0.146,0.856-0.146,1.668v3.288h-1.921v-7.26h1.784v1.066c0.634-0.82,1.431-1.23,2.393-1.23
		c0.424,0,0.812,0.076,1.162,0.229c0.351,0.153,0.616,0.348,0.797,0.585c0.18,0.237,0.305,0.506,0.375,0.807
		c0.071,0.301,0.106,0.731,0.106,1.292V40.575z"/>
	<path fill="#2C6882" d="M156.151,33.316v1.531h-1.313v2.926c0,0.593,0.013,0.938,0.037,1.035c0.025,0.099,0.082,0.18,0.172,0.243
		c0.088,0.063,0.196,0.096,0.324,0.096c0.178,0,0.436-0.062,0.772-0.185l0.164,1.49c-0.446,0.191-0.952,0.287-1.518,0.287
		c-0.347,0-0.658-0.059-0.937-0.174c-0.278-0.117-0.482-0.268-0.611-0.451c-0.131-0.186-0.221-0.435-0.271-0.749
		c-0.041-0.224-0.062-0.675-0.062-1.354v-3.165h-0.882v-1.531h0.882v-1.442l1.928-1.121v2.563h1.315V33.316z"/>
	<path fill="#2C6882" d="M156.845,36.843c0-0.638,0.157-1.256,0.472-1.853s0.76-1.053,1.337-1.367
		c0.576-0.314,1.22-0.472,1.931-0.472c1.099,0,1.998,0.356,2.7,1.07c0.702,0.713,1.053,1.614,1.053,2.703
		c0,1.099-0.354,2.009-1.063,2.73c-0.709,0.723-1.602,1.084-2.677,1.084c-0.665,0-1.3-0.15-1.903-0.451
		c-0.604-0.301-1.063-0.742-1.378-1.322C157.002,38.384,156.845,37.677,156.845,36.843z M158.813,36.945
		c0,0.72,0.171,1.271,0.513,1.654s0.764,0.574,1.265,0.574s0.922-0.191,1.262-0.574c0.339-0.383,0.509-0.938,0.509-1.668
		c0-0.711-0.17-1.258-0.509-1.641c-0.34-0.383-0.761-0.574-1.262-0.574s-0.923,0.191-1.265,0.574S158.813,36.226,158.813,36.945z"/>
	<path fill="#2C6882" d="M164.968,38.504l1.928-0.294c0.082,0.374,0.248,0.657,0.499,0.852c0.251,0.193,0.602,0.29,1.053,0.29
		c0.497,0,0.87-0.091,1.121-0.273c0.169-0.128,0.253-0.299,0.253-0.513c0-0.146-0.046-0.267-0.137-0.362
		c-0.096-0.091-0.31-0.176-0.643-0.253c-1.55-0.342-2.531-0.654-2.946-0.937c-0.574-0.392-0.861-0.937-0.861-1.634
		c0-0.629,0.248-1.157,0.745-1.586s1.267-0.643,2.311-0.643c0.993,0,1.731,0.162,2.215,0.485s0.815,0.802,0.998,1.436l-1.812,0.335
		c-0.077-0.282-0.225-0.499-0.44-0.649c-0.217-0.15-0.525-0.226-0.927-0.226c-0.506,0-0.868,0.07-1.087,0.212
		c-0.146,0.101-0.219,0.23-0.219,0.39c0,0.137,0.063,0.253,0.191,0.349c0.173,0.128,0.771,0.308,1.795,0.54
		c1.022,0.232,1.737,0.518,2.143,0.854c0.401,0.342,0.602,0.818,0.602,1.429c0,0.665-0.278,1.237-0.834,1.716
		s-1.379,0.718-2.468,0.718c-0.989,0-1.771-0.2-2.349-0.602C165.522,39.736,165.145,39.192,164.968,38.504z"/>
	<path fill="#2C6882" d="M181.132,38.265l1.914,0.321c-0.246,0.702-0.635,1.236-1.166,1.603c-0.53,0.367-1.194,0.551-1.992,0.551
		c-1.263,0-2.196-0.412-2.803-1.237c-0.479-0.661-0.718-1.495-0.718-2.502c0-1.203,0.314-2.146,0.943-2.827s1.424-1.021,2.386-1.021
		c1.08,0,1.933,0.356,2.557,1.07c0.624,0.713,0.923,1.806,0.896,3.277h-4.813c0.014,0.569,0.169,1.013,0.465,1.33
		c0.296,0.316,0.665,0.475,1.107,0.475c0.301,0,0.554-0.082,0.759-0.246S181.027,38.629,181.132,38.265z M181.241,36.323
		c-0.014-0.556-0.157-0.979-0.431-1.268c-0.273-0.29-0.606-0.435-0.998-0.435c-0.419,0-0.766,0.152-1.039,0.458
		s-0.408,0.72-0.403,1.244h2.871V36.323z"/>
	<path fill="#2C6882" d="M191.122,40.575h-1.921V36.87c0-0.784-0.041-1.291-0.123-1.521c-0.082-0.229-0.215-0.408-0.4-0.536
		c-0.184-0.128-0.406-0.191-0.666-0.191c-0.333,0-0.631,0.091-0.896,0.273s-0.445,0.424-0.544,0.725
		c-0.098,0.301-0.146,0.856-0.146,1.668v3.288h-1.921v-7.26h1.784v1.066c0.634-0.82,1.431-1.23,2.393-1.23
		c0.424,0,0.812,0.076,1.162,0.229c0.351,0.153,0.616,0.348,0.797,0.585c0.18,0.237,0.305,0.506,0.375,0.807
		c0.071,0.301,0.106,0.731,0.106,1.292V40.575z"/>
	<path fill="#2C6882" d="M201.346,40.575v-1.087c-0.265,0.388-0.611,0.692-1.043,0.916c-0.43,0.224-0.885,0.335-1.363,0.335
		c-0.487,0-0.925-0.107-1.313-0.321s-0.668-0.515-0.841-0.902s-0.26-0.923-0.26-1.606v-4.594h1.921v3.336
		c0,1.021,0.035,1.646,0.105,1.877c0.071,0.229,0.2,0.412,0.387,0.547c0.187,0.134,0.424,0.201,0.711,0.201
		c0.328,0,0.622-0.09,0.882-0.27c0.26-0.181,0.438-0.404,0.533-0.67c0.096-0.268,0.144-0.92,0.144-1.959v-3.063h1.921v7.26
		C203.13,40.575,201.346,40.575,201.346,40.575z"/>
	<path fill="#2C6882" d="M211.527,40.575h-1.921V36.87c0-0.784-0.041-1.291-0.123-1.521c-0.082-0.229-0.215-0.408-0.4-0.536
		c-0.184-0.128-0.406-0.191-0.666-0.191c-0.333,0-0.631,0.091-0.896,0.273s-0.445,0.424-0.544,0.725
		c-0.098,0.301-0.146,0.856-0.146,1.668v3.288h-1.921v-7.26h1.784v1.066c0.634-0.82,1.431-1.23,2.393-1.23
		c0.424,0,0.812,0.076,1.162,0.229c0.351,0.153,0.616,0.348,0.797,0.585c0.18,0.237,0.305,0.506,0.375,0.807
		c0.071,0.301,0.106,0.731,0.106,1.292V40.575z"/>
	<path fill="#2C6882" d="M214.715,35.53l-1.743-0.314c0.196-0.702,0.533-1.222,1.012-1.559s1.189-0.506,2.133-0.506
		c0.856,0,1.495,0.102,1.914,0.305c0.419,0.202,0.715,0.46,0.885,0.771c0.172,0.313,0.257,0.886,0.257,1.72l-0.021,2.242
		c0,0.638,0.031,1.108,0.092,1.411c0.063,0.304,0.177,0.628,0.346,0.975h-1.9c-0.05-0.128-0.111-0.316-0.185-0.567
		c-0.032-0.114-0.055-0.189-0.068-0.226c-0.328,0.319-0.679,0.559-1.053,0.718s-0.772,0.239-1.196,0.239
		c-0.747,0-1.336-0.203-1.768-0.608c-0.43-0.405-0.646-0.918-0.646-1.538c0-0.41,0.098-0.775,0.294-1.098
		c0.196-0.32,0.471-0.566,0.824-0.738c0.353-0.17,0.862-0.319,1.527-0.447c0.897-0.169,1.52-0.326,1.866-0.472v-0.191
		c0-0.369-0.091-0.632-0.273-0.79c-0.183-0.156-0.526-0.235-1.032-0.235c-0.342,0-0.608,0.067-0.8,0.202
		C214.988,34.957,214.833,35.193,214.715,35.53z M217.285,37.089c-0.246,0.082-0.636,0.18-1.169,0.294s-0.882,0.226-1.046,0.335
		c-0.251,0.178-0.376,0.403-0.376,0.677c0,0.269,0.101,0.501,0.301,0.697s0.456,0.294,0.766,0.294c0.347,0,0.677-0.114,0.991-0.342
		c0.232-0.173,0.385-0.385,0.458-0.636c0.05-0.164,0.075-0.477,0.075-0.937L217.285,37.089L217.285,37.089z"/>
	<path fill="#2C6882" d="M224.167,35.626c0-1.021,0.152-1.878,0.458-2.57c0.228-0.511,0.539-0.969,0.934-1.374
		c0.394-0.405,0.825-0.706,1.295-0.902c0.624-0.265,1.345-0.396,2.16-0.396c1.477,0,2.658,0.458,3.545,1.374
		c0.886,0.916,1.329,2.189,1.329,3.821c0,1.618-0.439,2.884-1.319,3.798c-0.88,0.913-2.056,1.37-3.527,1.37
		c-1.49,0-2.675-0.454-3.555-1.364C224.606,38.474,224.167,37.221,224.167,35.626z M226.252,35.558c0,1.135,0.262,1.995,0.786,2.58
		c0.524,0.586,1.189,0.879,1.996,0.879s1.469-0.291,1.985-0.871c0.518-0.582,0.776-1.453,0.776-2.615
		c0-1.148-0.252-2.005-0.755-2.57c-0.504-0.565-1.173-0.848-2.007-0.848s-1.506,0.286-2.017,0.857
		C226.507,33.542,226.252,34.404,226.252,35.558z"/>
	<path fill="#2C6882" d="M237.096,40.575h-1.921v-7.26h1.784v1.032c0.306-0.487,0.58-0.809,0.824-0.964
		c0.243-0.155,0.521-0.232,0.83-0.232c0.438,0,0.859,0.121,1.265,0.362l-0.595,1.675c-0.323-0.21-0.624-0.314-0.902-0.314
		c-0.269,0-0.497,0.074-0.684,0.223c-0.187,0.147-0.334,0.415-0.441,0.803c-0.106,0.388-0.16,1.198-0.16,2.434V40.575z"/>
	<path fill="#2C6882" d="M240.331,41.054l2.194,0.267c0.036,0.255,0.121,0.431,0.253,0.526c0.183,0.137,0.47,0.205,0.861,0.205
		c0.501,0,0.877-0.075,1.128-0.226c0.169-0.101,0.296-0.262,0.383-0.485c0.06-0.159,0.089-0.453,0.089-0.882V39.4
		c-0.574,0.784-1.299,1.176-2.174,1.176c-0.976,0-1.748-0.412-2.317-1.237c-0.446-0.651-0.67-1.463-0.67-2.434
		c0-1.217,0.293-2.146,0.879-2.789c0.585-0.643,1.313-0.964,2.184-0.964c0.897,0,1.639,0.395,2.222,1.183v-1.019h1.798v6.515
		c0,0.856-0.07,1.497-0.212,1.921s-0.34,0.757-0.595,0.998s-0.596,0.431-1.021,0.567c-0.427,0.137-0.966,0.205-1.617,0.205
		c-1.23,0-2.104-0.211-2.618-0.632c-0.515-0.422-0.772-0.956-0.772-1.604C240.324,41.223,240.326,41.145,240.331,41.054z
		 M242.047,36.795c0,0.771,0.149,1.334,0.447,1.692c0.299,0.357,0.667,0.536,1.104,0.536c0.47,0,0.866-0.184,1.189-0.55
		c0.323-0.367,0.485-0.911,0.485-1.631c0-0.752-0.155-1.311-0.465-1.675s-0.702-0.547-1.176-0.547c-0.46,0-0.84,0.179-1.139,0.536
		C242.196,35.516,242.047,36.062,242.047,36.795z"/>
	<path fill="#2C6882" d="M250.3,35.53l-1.743-0.314c0.196-0.702,0.533-1.222,1.012-1.559s1.189-0.506,2.133-0.506
		c0.856,0,1.495,0.102,1.914,0.305c0.419,0.202,0.715,0.46,0.885,0.771c0.172,0.313,0.257,0.886,0.257,1.72l-0.021,2.242
		c0,0.638,0.031,1.108,0.092,1.411c0.063,0.304,0.177,0.628,0.346,0.975h-1.9c-0.05-0.128-0.111-0.316-0.185-0.567
		c-0.032-0.114-0.055-0.189-0.068-0.226c-0.328,0.319-0.679,0.559-1.053,0.718s-0.772,0.239-1.196,0.239
		c-0.747,0-1.336-0.203-1.768-0.608c-0.43-0.405-0.646-0.918-0.646-1.538c0-0.41,0.098-0.775,0.294-1.098
		c0.196-0.32,0.471-0.566,0.824-0.738c0.353-0.17,0.862-0.319,1.527-0.447c0.897-0.169,1.52-0.326,1.866-0.472v-0.191
		c0-0.369-0.091-0.632-0.273-0.79c-0.183-0.156-0.526-0.235-1.032-0.235c-0.342,0-0.608,0.067-0.8,0.202
		C250.573,34.957,250.418,35.193,250.3,35.53z M252.87,37.089c-0.246,0.082-0.636,0.18-1.169,0.294s-0.882,0.226-1.046,0.335
		c-0.251,0.178-0.376,0.403-0.376,0.677c0,0.269,0.101,0.501,0.301,0.697s0.456,0.294,0.766,0.294c0.347,0,0.677-0.114,0.991-0.342
		c0.232-0.173,0.385-0.385,0.458-0.636c0.05-0.164,0.075-0.477,0.075-0.937L252.87,37.089L252.87,37.089z"/>
	<path fill="#2C6882" d="M263.058,40.575h-1.921V36.87c0-0.784-0.041-1.291-0.123-1.521c-0.082-0.229-0.215-0.408-0.4-0.536
		c-0.184-0.128-0.406-0.191-0.666-0.191c-0.333,0-0.631,0.091-0.896,0.273s-0.445,0.424-0.544,0.725
		c-0.098,0.301-0.146,0.856-0.146,1.668v3.288h-1.921v-7.26h1.784v1.066c0.634-0.82,1.431-1.23,2.393-1.23
		c0.424,0,0.812,0.076,1.162,0.229c0.351,0.153,0.616,0.348,0.797,0.585c0.18,0.237,0.305,0.506,0.375,0.807
		c0.071,0.301,0.106,0.731,0.106,1.292L263.058,40.575L263.058,40.575z"/>
	<path fill="#2C6882" d="M264.81,32.331v-1.777h1.921v1.777H264.81z M264.81,40.575v-7.26h1.921v7.26
		C266.731,40.575,264.81,40.575,264.81,40.575z"/>
	<path fill="#2C6882" d="M267.731,40.575v-1.497l2.721-3.124c0.446-0.511,0.777-0.873,0.991-1.087
		c-0.224,0.014-0.518,0.022-0.882,0.027l-2.563,0.014v-1.593H274v1.36l-2.775,3.199l-0.978,1.06
		c0.533-0.032,0.863-0.048,0.991-0.048h2.974v1.688L267.731,40.575L267.731,40.575z"/>
	<path fill="#2C6882" d="M276.744,35.53l-1.743-0.314c0.196-0.702,0.533-1.222,1.012-1.559s1.189-0.506,2.133-0.506
		c0.856,0,1.495,0.102,1.914,0.305c0.419,0.202,0.715,0.46,0.885,0.771c0.172,0.313,0.257,0.886,0.257,1.72l-0.021,2.242
		c0,0.638,0.031,1.108,0.092,1.411c0.063,0.304,0.177,0.628,0.346,0.975h-1.9c-0.05-0.128-0.111-0.316-0.185-0.567
		c-0.032-0.114-0.055-0.189-0.068-0.226c-0.328,0.319-0.679,0.559-1.053,0.718s-0.772,0.239-1.196,0.239
		c-0.747,0-1.336-0.203-1.768-0.608c-0.43-0.405-0.646-0.918-0.646-1.538c0-0.41,0.098-0.775,0.294-1.098
		c0.196-0.32,0.471-0.566,0.824-0.738c0.353-0.17,0.862-0.319,1.527-0.447c0.897-0.169,1.52-0.326,1.866-0.472v-0.191
		c0-0.369-0.091-0.632-0.273-0.79c-0.183-0.156-0.526-0.235-1.032-0.235c-0.342,0-0.608,0.067-0.8,0.202
		C277.017,34.957,276.862,35.193,276.744,35.53z M279.314,37.089c-0.246,0.082-0.636,0.18-1.169,0.294s-0.882,0.226-1.046,0.335
		c-0.251,0.178-0.376,0.403-0.376,0.677c0,0.269,0.101,0.501,0.301,0.697s0.456,0.294,0.766,0.294c0.347,0,0.677-0.114,0.991-0.342
		c0.232-0.173,0.385-0.385,0.458-0.636c0.05-0.164,0.075-0.477,0.075-0.937V37.089z"/>
	<path fill="#2C6882" d="M289.228,35.462l-1.894,0.342c-0.063-0.378-0.209-0.663-0.434-0.854c-0.227-0.191-0.519-0.287-0.879-0.287
		c-0.479,0-0.86,0.165-1.145,0.495c-0.285,0.331-0.428,0.884-0.428,1.658c0,0.861,0.145,1.47,0.434,1.825
		c0.29,0.355,0.679,0.533,1.166,0.533c0.364,0,0.663-0.104,0.896-0.312c0.232-0.207,0.396-0.563,0.492-1.069l1.887,0.321
		c-0.196,0.866-0.572,1.52-1.128,1.962s-1.301,0.663-2.235,0.663c-1.062,0-1.908-0.335-2.54-1.005
		c-0.631-0.67-0.946-1.598-0.946-2.782c0-1.198,0.316-2.132,0.95-2.799c0.634-0.668,1.49-1.002,2.57-1.002
		c0.884,0,1.587,0.19,2.109,0.57C288.626,34.103,289.001,34.683,289.228,35.462z"/>
	<path fill="#2C6882" d="M290.488,32.331v-1.777h1.921v1.777H290.488z M290.488,40.575v-7.26h1.921v7.26
		C292.409,40.575,290.488,40.575,290.488,40.575z"/>
	<path fill="#2C6882" d="M293.737,36.843c0-0.638,0.157-1.256,0.472-1.853s0.76-1.053,1.337-1.367
		c0.576-0.314,1.22-0.472,1.931-0.472c1.099,0,1.998,0.356,2.7,1.07c0.702,0.713,1.053,1.614,1.053,2.703
		c0,1.099-0.354,2.009-1.063,2.73c-0.709,0.723-1.602,1.084-2.677,1.084c-0.665,0-1.3-0.15-1.903-0.451
		c-0.604-0.301-1.063-0.742-1.378-1.322C293.894,38.384,293.737,37.677,293.737,36.843z M295.706,36.945
		c0,0.72,0.171,1.271,0.513,1.654s0.764,0.574,1.265,0.574s0.922-0.191,1.262-0.574c0.339-0.383,0.509-0.938,0.509-1.668
		c0-0.711-0.17-1.258-0.509-1.641c-0.34-0.383-0.761-0.574-1.262-0.574s-0.923,0.191-1.265,0.574S295.706,36.226,295.706,36.945z
		 M296.513,32.427l0.943-2.044h2.153l-1.88,2.044H296.513z"/>
	<path fill="#2C6882" d="M309.141,40.575h-1.921V36.87c0-0.784-0.041-1.291-0.123-1.521c-0.082-0.229-0.215-0.408-0.4-0.536
		c-0.184-0.128-0.406-0.191-0.666-0.191c-0.333,0-0.631,0.091-0.896,0.273s-0.445,0.424-0.544,0.725
		c-0.098,0.301-0.146,0.856-0.146,1.668v3.288h-1.921v-7.26h1.784v1.066c0.634-0.82,1.431-1.23,2.393-1.23
		c0.424,0,0.812,0.076,1.162,0.229c0.351,0.153,0.616,0.348,0.797,0.585c0.18,0.237,0.305,0.506,0.375,0.807
		c0.071,0.301,0.106,0.731,0.106,1.292L309.141,40.575L309.141,40.575z"/>
	<path fill="#2C6882" d="M314.6,40.575V30.554h7.431v1.695h-5.407v2.222h5.031v1.688h-5.031v2.728h5.599v1.688H314.6z"/>
	<path fill="#2C6882" d="M323.586,33.316h1.771v0.991c0.634-0.771,1.388-1.155,2.263-1.155c0.465,0,0.868,0.096,1.21,0.287
		s0.622,0.48,0.841,0.868c0.319-0.388,0.663-0.677,1.032-0.868s0.764-0.287,1.183-0.287c0.533,0,0.984,0.108,1.354,0.324
		c0.369,0.217,0.645,0.535,0.827,0.954c0.132,0.31,0.198,0.812,0.198,1.504v4.642h-1.921v-4.149c0-0.72-0.066-1.185-0.198-1.395
		c-0.178-0.273-0.451-0.41-0.82-0.41c-0.269,0-0.521,0.082-0.759,0.246s-0.408,0.404-0.513,0.722
		c-0.104,0.316-0.157,0.816-0.157,1.5v3.486h-1.921v-3.979c0-0.706-0.034-1.162-0.103-1.367s-0.175-0.357-0.317-0.458
		c-0.145-0.101-0.339-0.15-0.585-0.15c-0.296,0-0.563,0.08-0.8,0.239s-0.406,0.39-0.51,0.69c-0.102,0.301-0.153,0.8-0.153,1.497
		v3.527h-1.921v-7.259H323.586z"/>
	<path fill="#2C6882" d="M335.927,33.316h1.791v1.066c0.232-0.364,0.547-0.661,0.943-0.889s0.836-0.342,1.319-0.342
		c0.843,0,1.559,0.33,2.146,0.991s0.882,1.581,0.882,2.762c0,1.212-0.296,2.154-0.889,2.827c-0.593,0.672-1.311,1.008-2.153,1.008
		c-0.401,0-0.765-0.08-1.09-0.239c-0.326-0.159-0.669-0.433-1.029-0.82v3.657h-1.921V33.316H335.927z M337.827,36.822
		c0,0.815,0.162,1.419,0.485,1.808c0.323,0.391,0.718,0.585,1.183,0.585c0.446,0,0.818-0.179,1.114-0.536
		c0.296-0.358,0.444-0.945,0.444-1.761c0-0.761-0.152-1.326-0.458-1.695s-0.684-0.554-1.135-0.554c-0.47,0-0.859,0.182-1.169,0.543
		C337.982,35.575,337.827,36.111,337.827,36.822z"/>
	<path fill="#2C6882" d="M346.176,40.575h-1.921v-7.26h1.784v1.032c0.306-0.487,0.58-0.809,0.824-0.964
		c0.243-0.155,0.521-0.232,0.83-0.232c0.438,0,0.859,0.121,1.265,0.362l-0.595,1.675c-0.323-0.21-0.624-0.314-0.902-0.314
		c-0.269,0-0.497,0.074-0.684,0.223c-0.187,0.147-0.334,0.415-0.441,0.803c-0.106,0.388-0.16,1.198-0.16,2.434V40.575z"/>
	<path fill="#2C6882" d="M353.794,38.265l1.914,0.321c-0.246,0.702-0.635,1.236-1.166,1.603c-0.53,0.367-1.194,0.551-1.992,0.551
		c-1.263,0-2.196-0.412-2.803-1.237c-0.479-0.661-0.718-1.495-0.718-2.502c0-1.203,0.314-2.146,0.943-2.827s1.424-1.021,2.386-1.021
		c1.08,0,1.933,0.356,2.557,1.07c0.624,0.713,0.923,1.806,0.896,3.277h-4.813c0.014,0.569,0.169,1.013,0.465,1.33
		c0.296,0.316,0.665,0.475,1.107,0.475c0.301,0,0.554-0.082,0.759-0.246S353.689,38.629,353.794,38.265z M353.903,36.323
		c-0.014-0.556-0.157-0.979-0.431-1.268c-0.273-0.29-0.606-0.435-0.998-0.435c-0.419,0-0.766,0.152-1.039,0.458
		s-0.408,0.72-0.403,1.244h2.871V36.323z"/>
	<path fill="#2C6882" d="M356.503,38.504l1.928-0.294c0.082,0.374,0.248,0.657,0.499,0.852c0.251,0.193,0.602,0.29,1.053,0.29
		c0.497,0,0.87-0.091,1.121-0.273c0.169-0.128,0.253-0.299,0.253-0.513c0-0.146-0.046-0.267-0.137-0.362
		c-0.096-0.091-0.31-0.176-0.643-0.253c-1.55-0.342-2.531-0.654-2.946-0.937c-0.574-0.392-0.861-0.937-0.861-1.634
		c0-0.629,0.248-1.157,0.745-1.586s1.267-0.643,2.311-0.643c0.993,0,1.731,0.162,2.215,0.485s0.815,0.802,0.998,1.436l-1.812,0.335
		c-0.077-0.282-0.225-0.499-0.44-0.649c-0.217-0.15-0.525-0.226-0.927-0.226c-0.506,0-0.868,0.07-1.087,0.212
		c-0.146,0.101-0.219,0.23-0.219,0.39c0,0.137,0.063,0.253,0.191,0.349c0.173,0.128,0.771,0.308,1.795,0.54
		c1.022,0.232,1.737,0.518,2.143,0.854c0.401,0.342,0.602,0.818,0.602,1.429c0,0.665-0.278,1.237-0.834,1.716
		s-1.379,0.718-2.468,0.718c-0.989,0-1.771-0.2-2.349-0.602C357.057,39.736,356.681,39.192,356.503,38.504z"/>
	<path fill="#2C6882" d="M366.205,35.53l-1.743-0.314c0.196-0.702,0.533-1.222,1.012-1.559s1.189-0.506,2.133-0.506
		c0.856,0,1.495,0.102,1.914,0.305c0.419,0.202,0.715,0.46,0.885,0.771c0.172,0.313,0.257,0.886,0.257,1.72l-0.021,2.242
		c0,0.638,0.031,1.108,0.092,1.411c0.063,0.304,0.177,0.628,0.346,0.975h-1.9c-0.05-0.128-0.111-0.316-0.185-0.567
		c-0.032-0.114-0.055-0.189-0.068-0.226c-0.328,0.319-0.679,0.559-1.053,0.718s-0.772,0.239-1.196,0.239
		c-0.747,0-1.336-0.203-1.768-0.608c-0.43-0.405-0.646-0.918-0.646-1.538c0-0.41,0.098-0.775,0.294-1.098
		c0.196-0.32,0.471-0.566,0.824-0.738c0.353-0.17,0.862-0.319,1.527-0.447c0.897-0.169,1.52-0.326,1.866-0.472v-0.191
		c0-0.369-0.091-0.632-0.273-0.79c-0.183-0.156-0.526-0.235-1.032-0.235c-0.342,0-0.608,0.067-0.8,0.202
		C366.478,34.957,366.323,35.193,366.205,35.53z M368.775,37.089c-0.246,0.082-0.636,0.18-1.169,0.294s-0.882,0.226-1.046,0.335
		c-0.251,0.178-0.376,0.403-0.376,0.677c0,0.269,0.101,0.501,0.301,0.697s0.456,0.294,0.766,0.294c0.347,0,0.677-0.114,0.991-0.342
		c0.232-0.173,0.385-0.385,0.458-0.636c0.05-0.164,0.075-0.477,0.075-0.937V37.089z"/>
	<path fill="#2C6882" d="M374.198,40.575h-1.921v-7.26h1.784v1.032c0.306-0.487,0.58-0.809,0.824-0.964
		c0.243-0.155,0.521-0.232,0.83-0.232c0.438,0,0.859,0.121,1.265,0.362l-0.595,1.675c-0.323-0.21-0.624-0.314-0.902-0.314
		c-0.269,0-0.497,0.074-0.684,0.223c-0.187,0.147-0.334,0.415-0.441,0.803c-0.106,0.388-0.16,1.198-0.16,2.434V40.575z"/>
	<path fill="#2C6882" d="M377.612,32.331v-1.777h1.921v1.777H377.612z M377.612,40.575v-7.26h1.921v7.26
		C379.533,40.575,377.612,40.575,377.612,40.575z"/>
	<path fill="#2C6882" d="M382.741,35.53l-1.743-0.314c0.196-0.702,0.533-1.222,1.012-1.559s1.189-0.506,2.133-0.506
		c0.856,0,1.495,0.102,1.914,0.305c0.419,0.202,0.715,0.46,0.885,0.771c0.172,0.313,0.257,0.886,0.257,1.72l-0.021,2.242
		c0,0.638,0.031,1.108,0.092,1.411c0.063,0.304,0.177,0.628,0.346,0.975h-1.9c-0.05-0.128-0.111-0.316-0.185-0.567
		c-0.032-0.114-0.055-0.189-0.068-0.226c-0.328,0.319-0.679,0.559-1.053,0.718s-0.772,0.239-1.196,0.239
		c-0.747,0-1.336-0.203-1.768-0.608c-0.43-0.405-0.646-0.918-0.646-1.538c0-0.41,0.098-0.775,0.294-1.098
		c0.196-0.32,0.471-0.566,0.824-0.738c0.353-0.17,0.862-0.319,1.527-0.447c0.897-0.169,1.52-0.326,1.866-0.472v-0.191
		c0-0.369-0.091-0.632-0.273-0.79c-0.183-0.156-0.526-0.235-1.032-0.235c-0.342,0-0.608,0.067-0.8,0.202
		C383.015,34.957,382.859,35.193,382.741,35.53z M385.311,37.089c-0.246,0.082-0.636,0.18-1.169,0.294s-0.882,0.226-1.046,0.335
		c-0.251,0.178-0.376,0.403-0.376,0.677c0,0.269,0.101,0.501,0.301,0.697s0.456,0.294,0.766,0.294c0.347,0,0.677-0.114,0.991-0.342
		c0.232-0.173,0.385-0.385,0.458-0.636c0.05-0.164,0.075-0.477,0.075-0.937V37.089z"/>
	<path fill="#2C6882" d="M388.895,40.575V30.554h1.921v10.021H388.895z"/>
	<path fill="#2C6882" d="M396.719,37.991h-1.743c-0.005-0.251-0.007-0.403-0.007-0.458c0-0.565,0.094-1.03,0.28-1.395
		s0.561-0.774,1.121-1.23s0.896-0.754,1.005-0.896c0.169-0.224,0.253-0.47,0.253-0.738c0-0.374-0.149-0.693-0.447-0.961
		c-0.299-0.266-0.701-0.399-1.207-0.399c-0.487,0-0.896,0.139-1.224,0.417s-0.554,0.702-0.677,1.271l-1.764-0.219
		c0.05-0.815,0.397-1.509,1.043-2.078c0.645-0.569,1.491-0.854,2.539-0.854c1.103,0,1.98,0.288,2.632,0.864
		c0.651,0.577,0.978,1.248,0.978,2.014c0,0.424-0.119,0.825-0.359,1.203c-0.238,0.378-0.75,0.894-1.534,1.545
		c-0.405,0.337-0.657,0.608-0.755,0.813C396.754,37.096,396.71,37.463,396.719,37.991z M394.975,40.575v-1.921h1.921v1.921H394.975z
		"/>
</g>
<polyline fill="none" stroke="#6FC2D8" stroke-width="1.5977" stroke-miterlimit="10" points="136.027,258.861 63.386,258.861 
	63.386,236.289 "/>
<line fill="none" stroke="#6FC2D8" stroke-width="1.5977" stroke-miterlimit="10" x1="244.037" y1="258.861" x2="175.916" y2="258.861"/>
<line fill="none" stroke="#6FC2D8" stroke-width="1.5977" stroke-miterlimit="10" x1="416.01" y1="258.861" x2="328.421" y2="258.861"/>
<polyline fill="none" stroke="#6FC2D8" stroke-width="1.5977" stroke-miterlimit="10" points="509.285,235.023 509.285,258.861 
	460.086,258.861 "/>
</svg>
