<?xml version="1.0" encoding="utf-8"?>
<!-- Generator: Adobe Illustrator 17.0.0, SVG Export Plug-In . SVG Version: 6.00 Build 0)  -->
<!DOCTYPE svg PUBLIC "-//W3C//DTD SVG 1.1//EN" "http://www.w3.org/Graphics/SVG/1.1/DTD/svg11.dtd">
<svg version="1.1" id="Capa_1" xmlns="http://www.w3.org/2000/svg" xmlns:xlink="http://www.w3.org/1999/xlink" x="0px" y="0px"
	 width="430.914px" height="63.305px" viewBox="0 0 430.914 63.305" style="enable-background:new 0 0 430.914 63.305;"
	 xml:space="preserve">
<g>
	<g>
		<path style="fill:#2C6882;" d="M67.795,18.442c-0.269,0.625-0.637,1.172-1.106,1.641s-1.016,0.837-1.641,1.106
			s-1.294,0.403-2.007,0.403h-1.494c-0.713,0-1.384-0.134-2.014-0.403s-1.179-0.637-1.648-1.106s-0.837-1.016-1.106-1.641
			s-0.403-1.294-0.403-2.007V5.156c0-0.713,0.134-1.382,0.403-2.007s0.637-1.172,1.106-1.641s1.018-0.837,1.648-1.106
			S60.834,0,61.547,0h1.494c0.713,0,1.382,0.134,2.007,0.403s1.172,0.637,1.641,1.106s0.837,1.016,1.106,1.641
			s0.403,1.294,0.403,2.007v11.279C68.198,17.148,68.063,17.817,67.795,18.442z M66.308,5.156c0-0.469-0.088-0.906-0.264-1.311
			s-0.415-0.759-0.718-1.062s-0.657-0.542-1.062-0.718s-0.842-0.264-1.311-0.264h-1.318c-0.469,0-0.906,0.088-1.311,0.264
			s-0.762,0.415-1.069,0.718S58.706,3.44,58.53,3.845s-0.264,0.842-0.264,1.311v11.279c0,0.469,0.088,0.906,0.264,1.311
			s0.417,0.762,0.725,1.069s0.664,0.549,1.069,0.725s0.842,0.264,1.311,0.264h1.318c0.469,0,0.906-0.088,1.311-0.264
			s0.759-0.417,1.062-0.725s0.542-0.664,0.718-1.069s0.264-0.842,0.264-1.311V5.156z"/>
		<path style="fill:#2C6882;" d="M76.518,8.013c-0.361,0-0.701,0.068-1.018,0.205s-0.593,0.322-0.828,0.557s-0.42,0.51-0.557,0.828
			s-0.205,0.657-0.205,1.018v10.679h-1.802v-15h0.601l0.981,1.523c0.41-0.557,0.925-0.999,1.545-1.326s1.296-0.491,2.029-0.491
			h1.055v2.007H76.518z"/>
		<path style="fill:#2C6882;" d="M90.544,24.858c-0.229,0.508-0.544,0.942-0.945,1.304s-0.869,0.642-1.406,0.842
			s-1.108,0.3-1.714,0.3h-0.747c-0.605,0-1.177-0.1-1.714-0.3s-1.006-0.481-1.406-0.842s-0.715-0.796-0.945-1.304
			s-0.344-1.064-0.344-1.67V23.13c0-0.586,0.107-1.123,0.322-1.611s0.508-0.913,0.879-1.274c-0.469-0.283-0.842-0.667-1.121-1.15
			s-0.417-1.018-0.417-1.604c0-0.527,0.112-1.018,0.337-1.472s0.532-0.823,0.923-1.106c-0.469-0.41-0.84-0.903-1.113-1.479
			s-0.41-1.206-0.41-1.89v-1.128c0-0.605,0.115-1.177,0.344-1.714s0.544-1.006,0.945-1.406S82.88,6.58,83.417,6.35
			s1.108-0.344,1.714-0.344h0.747c0.732,0,1.409,0.164,2.029,0.491s1.135,0.769,1.545,1.326l0.981-1.523h0.601v5.244
			c0,0.605-0.115,1.177-0.344,1.714s-0.544,1.006-0.945,1.406s-0.869,0.715-1.406,0.945s-1.108,0.344-1.714,0.344h-2.607
			c-0.205,0-0.4,0.042-0.586,0.125s-0.349,0.193-0.491,0.33s-0.251,0.3-0.33,0.491s-0.117,0.388-0.117,0.593s0.039,0.4,0.117,0.586
			s0.188,0.349,0.33,0.491s0.305,0.251,0.491,0.33s0.381,0.117,0.586,0.117h2.461c0.605,0,1.177,0.1,1.714,0.3
			s1.006,0.481,1.406,0.842s0.715,0.796,0.945,1.304s0.344,1.064,0.344,1.67v0.059C90.888,23.794,90.773,24.351,90.544,24.858z
			 M89.248,10.313c0-0.361-0.068-0.701-0.205-1.018s-0.325-0.593-0.564-0.828s-0.518-0.42-0.835-0.557s-0.657-0.205-1.018-0.205
			h-1.494c-0.361,0-0.701,0.068-1.018,0.205s-0.593,0.322-0.828,0.557s-0.42,0.51-0.557,0.828s-0.205,0.657-0.205,1.018v1.333
			c0,0.361,0.068,0.701,0.205,1.018s0.322,0.593,0.557,0.828s0.51,0.42,0.828,0.557s0.657,0.205,1.018,0.205h1.494
			c0.361,0,0.701-0.068,1.018-0.205s0.596-0.322,0.835-0.557s0.427-0.51,0.564-0.828s0.205-0.657,0.205-1.018V10.313z
			 M89.174,23.042c0-0.361-0.068-0.686-0.205-0.974s-0.322-0.53-0.557-0.725s-0.51-0.347-0.828-0.454s-0.657-0.161-1.018-0.161
			h-0.923c-0.361,0-0.701,0.054-1.018,0.161s-0.593,0.259-0.828,0.454s-0.42,0.437-0.557,0.725s-0.205,0.613-0.205,0.974v0.234
			c0,0.361,0.068,0.684,0.205,0.967s0.322,0.525,0.557,0.725s0.51,0.354,0.828,0.461s0.657,0.161,1.018,0.161h0.923
			c0.361,0,0.701-0.054,1.018-0.161s0.593-0.261,0.828-0.461s0.42-0.442,0.557-0.725s0.205-0.605,0.205-0.967V23.042z"/>
		<path style="fill:#2C6882;" d="M103.764,21.299l-0.996-1.494c-0.41,0.537-0.923,0.969-1.538,1.296s-1.289,0.491-2.021,0.491
			h-0.454c-0.605,0-1.177-0.115-1.714-0.344s-1.006-0.544-1.406-0.945s-0.715-0.869-0.945-1.406s-0.344-1.108-0.344-1.714v-0.146
			c0-0.605,0.115-1.177,0.344-1.714s0.544-1.006,0.945-1.406s0.869-0.715,1.406-0.945s1.108-0.344,1.714-0.344h3.809v-2.314
			c0-0.361-0.068-0.701-0.205-1.018s-0.322-0.593-0.557-0.828s-0.51-0.42-0.828-0.557s-0.657-0.205-1.018-0.205h-1.055
			c-0.361,0-0.701,0.068-1.018,0.205s-0.593,0.322-0.828,0.557s-0.42,0.51-0.557,0.828s-0.205,0.657-0.205,1.018v0.542l-1.802-0.293
			v-0.146c0-0.605,0.115-1.177,0.344-1.714s0.544-1.006,0.945-1.406S96.65,6.58,97.187,6.35s1.108-0.344,1.714-0.344h1.055
			c0.605,0,1.177,0.115,1.714,0.344s1.006,0.544,1.406,0.945s0.715,0.869,0.945,1.406s0.344,1.108,0.344,1.714v10.884H103.764z
			 M102.563,14.033h-3.809c-0.361,0-0.701,0.068-1.018,0.205s-0.593,0.325-0.828,0.564s-0.42,0.518-0.557,0.835
			s-0.205,0.657-0.205,1.018v0.63c0,0.361,0.068,0.701,0.205,1.018s0.322,0.593,0.557,0.828s0.51,0.42,0.828,0.557
			s0.657,0.205,1.018,0.205h1.201c0.361,0,0.701-0.068,1.018-0.205s0.593-0.322,0.828-0.557s0.42-0.51,0.557-0.828
			s0.205-0.657,0.205-1.018V14.033z"/>
		<path style="fill:#2C6882;" d="M116.186,21.299V10.313c0-0.361-0.068-0.701-0.205-1.018s-0.322-0.593-0.557-0.828
			s-0.51-0.42-0.828-0.557s-0.657-0.205-1.018-0.205h-1.201c-0.361,0-0.701,0.068-1.018,0.205s-0.593,0.322-0.828,0.557
			s-0.42,0.51-0.557,0.828s-0.205,0.657-0.205,1.018v10.986h-1.802v-15h0.601l0.981,1.523c0.41-0.557,0.925-0.999,1.545-1.326
			s1.296-0.491,2.029-0.491h0.454c0.605,0,1.177,0.115,1.714,0.344s1.006,0.544,1.406,0.945s0.715,0.869,0.945,1.406
			s0.344,1.108,0.344,1.714v10.884H116.186z"/>
		<path style="fill:#2C6882;" d="M122.045,2.695V0.293h2.095v2.402H122.045z M122.192,21.299v-15h1.802v15H122.192z"/>
		<path style="fill:#2C6882;" d="M127.597,21.299v-0.806l7.559-12.48h-7.266V6.299h9.727v0.806l-7.559,12.48h7.559v1.714H127.597z"
			/>
		<path style="fill:#2C6882;" d="M150.039,21.299l-0.996-1.494c-0.41,0.537-0.923,0.969-1.538,1.296s-1.289,0.491-2.021,0.491
			h-0.454c-0.605,0-1.177-0.115-1.714-0.344s-1.006-0.544-1.406-0.945s-0.715-0.869-0.945-1.406s-0.344-1.108-0.344-1.714v-0.146
			c0-0.605,0.115-1.177,0.344-1.714s0.544-1.006,0.945-1.406s0.869-0.715,1.406-0.945s1.108-0.344,1.714-0.344h3.809v-2.314
			c0-0.361-0.068-0.701-0.205-1.018s-0.322-0.593-0.557-0.828s-0.51-0.42-0.828-0.557s-0.657-0.205-1.018-0.205h-1.055
			c-0.361,0-0.701,0.068-1.018,0.205s-0.593,0.322-0.828,0.557s-0.42,0.51-0.557,0.828s-0.205,0.657-0.205,1.018v0.542l-1.802-0.293
			v-0.146c0-0.605,0.115-1.177,0.344-1.714s0.544-1.006,0.945-1.406s0.869-0.715,1.406-0.945s1.108-0.344,1.714-0.344h1.055
			c0.605,0,1.177,0.115,1.714,0.344s1.006,0.544,1.406,0.945s0.715,0.869,0.945,1.406s0.344,1.108,0.344,1.714v10.884H150.039z
			 M148.837,14.033h-3.809c-0.361,0-0.701,0.068-1.018,0.205s-0.593,0.325-0.828,0.564s-0.42,0.518-0.557,0.835
			s-0.205,0.657-0.205,1.018v0.63c0,0.361,0.068,0.701,0.205,1.018s0.322,0.593,0.557,0.828s0.51,0.42,0.828,0.557
			s0.657,0.205,1.018,0.205h1.201c0.361,0,0.701-0.068,1.018-0.205s0.593-0.322,0.828-0.557s0.42-0.51,0.557-0.828
			s0.205-0.657,0.205-1.018V14.033z"/>
		<path style="fill:#2C6882;" d="M163.918,18.896c-0.229,0.537-0.544,1.006-0.945,1.406s-0.869,0.715-1.406,0.945
			s-1.108,0.344-1.714,0.344h-1.201c-0.605,0-1.177-0.115-1.714-0.344s-1.006-0.544-1.406-0.945s-0.715-0.869-0.945-1.406
			s-0.344-1.108-0.344-1.714v-6.768c0-0.605,0.115-1.177,0.344-1.714s0.544-1.006,0.945-1.406s0.869-0.715,1.406-0.945
			s1.108-0.344,1.714-0.344h1.201c0.605,0,1.177,0.115,1.714,0.344s1.006,0.544,1.406,0.945s0.715,0.869,0.945,1.406
			s0.344,1.108,0.344,1.714v0.601l-1.802,0.293v-0.996c0-0.361-0.068-0.701-0.205-1.018s-0.322-0.593-0.557-0.828
			s-0.51-0.42-0.828-0.557s-0.657-0.205-1.018-0.205h-1.201c-0.361,0-0.701,0.068-1.018,0.205s-0.593,0.322-0.828,0.557
			s-0.42,0.51-0.557,0.828s-0.205,0.657-0.205,1.018v6.973c0,0.361,0.068,0.701,0.205,1.018s0.322,0.593,0.557,0.828
			s0.51,0.42,0.828,0.557s0.657,0.205,1.018,0.205h1.201c0.361,0,0.701-0.068,1.018-0.205s0.593-0.322,0.828-0.557
			s0.42-0.51,0.557-0.828s0.205-0.657,0.205-1.018v-0.996l1.802,0.293v0.601C164.262,17.788,164.147,18.359,163.918,18.896z"/>
		<path style="fill:#2C6882;" d="M168.32,2.695V0.293h2.095v2.402H168.32z M168.466,21.299v-15h1.802v15H168.466z"/>
		<path style="fill:#2C6882;" d="M184.147,18.896c-0.229,0.537-0.544,1.006-0.945,1.406s-0.869,0.715-1.406,0.945
			s-1.108,0.344-1.714,0.344h-1.201c-0.605,0-1.177-0.115-1.714-0.344s-1.006-0.544-1.406-0.945s-0.715-0.869-0.945-1.406
			s-0.344-1.108-0.344-1.714v-6.768c0-0.605,0.115-1.177,0.344-1.714s0.544-1.006,0.945-1.406s0.869-0.715,1.406-0.945
			s1.108-0.344,1.714-0.344h1.201c0.605,0,1.177,0.115,1.714,0.344s1.006,0.544,1.406,0.945s0.715,0.869,0.945,1.406
			s0.344,1.108,0.344,1.714v6.768C184.492,17.788,184.377,18.359,184.147,18.896z M182.69,10.313c0-0.361-0.068-0.701-0.205-1.018
			s-0.322-0.593-0.557-0.828s-0.51-0.42-0.828-0.557s-0.657-0.205-1.018-0.205h-1.201c-0.361,0-0.701,0.068-1.018,0.205
			s-0.593,0.322-0.828,0.557s-0.42,0.51-0.557,0.828s-0.205,0.657-0.205,1.018v6.973c0,0.361,0.068,0.701,0.205,1.018
			s0.322,0.593,0.557,0.828s0.51,0.42,0.828,0.557s0.657,0.205,1.018,0.205h1.201c0.361,0,0.701-0.068,1.018-0.205
			s0.593-0.322,0.828-0.557s0.42-0.51,0.557-0.828s0.205-0.657,0.205-1.018V10.313z M178.735,3.896h-1.348l2.388-3.604h3.003
			L178.735,3.896z"/>
		<path style="fill:#2C6882;" d="M196.313,21.299V10.313c0-0.361-0.068-0.701-0.205-1.018s-0.322-0.593-0.557-0.828
			s-0.51-0.42-0.828-0.557s-0.657-0.205-1.018-0.205h-1.201c-0.361,0-0.701,0.068-1.018,0.205s-0.593,0.322-0.828,0.557
			s-0.42,0.51-0.557,0.828s-0.205,0.657-0.205,1.018v10.986h-1.802v-15h0.601l0.981,1.523c0.41-0.557,0.925-0.999,1.545-1.326
			s1.296-0.491,2.029-0.491h0.454c0.605,0,1.177,0.115,1.714,0.344s1.006,0.544,1.406,0.945s0.715,0.869,0.945,1.406
			s0.344,1.108,0.344,1.714v10.884H196.313z"/>
		<path style="fill:#2C6882;" d="M211.108,2.095v7.808h8.042v1.802h-8.042v9.595h-1.89V0.293h11.821v1.802H211.108z"/>
		<path style="fill:#2C6882;" d="M232.86,21.299l-0.996-1.523c-0.41,0.557-0.923,0.999-1.538,1.326s-1.289,0.491-2.021,0.491h-0.454
			c-0.605,0-1.177-0.115-1.714-0.344s-1.006-0.544-1.406-0.945s-0.715-0.869-0.944-1.406s-0.345-1.108-0.345-1.714V6.299h1.802
			v10.986c0,0.361,0.068,0.701,0.205,1.018s0.322,0.593,0.557,0.828s0.511,0.42,0.828,0.557s0.656,0.205,1.018,0.205h1.201
			c0.361,0,0.701-0.068,1.019-0.205s0.593-0.322,0.827-0.557s0.42-0.51,0.557-0.828s0.205-0.657,0.205-1.018V6.299h1.802v15H232.86z
			"/>
		<path style="fill:#2C6882;" d="M245.282,21.299V10.313c0-0.361-0.068-0.701-0.205-1.018s-0.322-0.593-0.557-0.828
			s-0.51-0.42-0.827-0.557s-0.657-0.205-1.019-0.205h-1.201c-0.361,0-0.7,0.068-1.018,0.205s-0.594,0.322-0.828,0.557
			s-0.42,0.51-0.557,0.828s-0.205,0.657-0.205,1.018v10.986h-1.802v-15h0.601l0.981,1.523c0.41-0.557,0.926-0.999,1.546-1.326
			s1.296-0.491,2.028-0.491h0.454c0.605,0,1.177,0.115,1.714,0.344s1.006,0.544,1.406,0.945s0.716,0.869,0.945,1.406
			s0.344,1.108,0.344,1.714v10.884H245.282z"/>
		<path style="fill:#2C6882;" d="M260.363,18.896c-0.229,0.537-0.545,1.006-0.945,1.406s-0.869,0.715-1.406,0.945
			s-1.108,0.344-1.714,0.344h-1.201c-0.605,0-1.177-0.115-1.714-0.344s-1.006-0.544-1.406-0.945s-0.715-0.869-0.944-1.406
			s-0.345-1.108-0.345-1.714v-6.768c0-0.605,0.115-1.177,0.345-1.714s0.544-1.006,0.944-1.406s0.869-0.715,1.406-0.945
			s1.108-0.344,1.714-0.344h1.201c0.605,0,1.177,0.115,1.714,0.344s1.006,0.544,1.406,0.945s0.716,0.869,0.945,1.406
			s0.344,1.108,0.344,1.714v0.601l-1.802,0.293v-0.996c0-0.361-0.068-0.701-0.205-1.018s-0.322-0.593-0.557-0.828
			s-0.51-0.42-0.827-0.557s-0.657-0.205-1.019-0.205h-1.201c-0.361,0-0.7,0.068-1.018,0.205s-0.594,0.322-0.828,0.557
			s-0.42,0.51-0.557,0.828s-0.205,0.657-0.205,1.018v6.973c0,0.361,0.068,0.701,0.205,1.018s0.322,0.593,0.557,0.828
			s0.511,0.42,0.828,0.557s0.656,0.205,1.018,0.205h1.201c0.361,0,0.701-0.068,1.019-0.205s0.593-0.322,0.827-0.557
			s0.42-0.51,0.557-0.828s0.205-0.657,0.205-1.018v-0.996l1.802,0.293v0.601C260.707,17.788,260.593,18.359,260.363,18.896z"/>
		<path style="fill:#2C6882;" d="M264.765,2.695V0.293h2.095v2.402H264.765z M264.911,21.299v-15h1.802v15H264.911z"/>
		<path style="fill:#2C6882;" d="M280.593,18.896c-0.229,0.537-0.545,1.006-0.945,1.406s-0.869,0.715-1.406,0.945
			s-1.108,0.344-1.714,0.344h-1.201c-0.605,0-1.177-0.115-1.714-0.344s-1.006-0.544-1.406-0.945s-0.715-0.869-0.944-1.406
			s-0.345-1.108-0.345-1.714v-6.768c0-0.605,0.115-1.177,0.345-1.714s0.544-1.006,0.944-1.406s0.869-0.715,1.406-0.945
			s1.108-0.344,1.714-0.344h1.201c0.605,0,1.177,0.115,1.714,0.344s1.006,0.544,1.406,0.945s0.716,0.869,0.945,1.406
			s0.344,1.108,0.344,1.714v6.768C280.937,17.788,280.822,18.359,280.593,18.896z M279.135,10.313c0-0.361-0.068-0.701-0.205-1.018
			s-0.322-0.593-0.557-0.828s-0.51-0.42-0.827-0.557s-0.657-0.205-1.019-0.205h-1.201c-0.361,0-0.7,0.068-1.018,0.205
			s-0.594,0.322-0.828,0.557s-0.42,0.51-0.557,0.828s-0.205,0.657-0.205,1.018v6.973c0,0.361,0.068,0.701,0.205,1.018
			s0.322,0.593,0.557,0.828s0.511,0.42,0.828,0.557s0.656,0.205,1.018,0.205h1.201c0.361,0,0.701-0.068,1.019-0.205
			s0.593-0.322,0.827-0.557s0.42-0.51,0.557-0.828s0.205-0.657,0.205-1.018V10.313z"/>
		<path style="fill:#2C6882;" d="M292.758,21.299V10.313c0-0.361-0.068-0.701-0.205-1.018s-0.322-0.593-0.557-0.828
			s-0.51-0.42-0.827-0.557s-0.657-0.205-1.019-0.205h-1.201c-0.361,0-0.7,0.068-1.018,0.205s-0.594,0.322-0.828,0.557
			s-0.42,0.51-0.557,0.828s-0.205,0.657-0.205,1.018v10.986h-1.802v-15h0.601l0.981,1.523c0.41-0.557,0.926-0.999,1.546-1.326
			s1.296-0.491,2.028-0.491h0.454c0.605,0,1.177,0.115,1.714,0.344s1.006,0.544,1.406,0.945s0.716,0.869,0.945,1.406
			s0.344,1.108,0.344,1.714v10.884H292.758z"/>
		<path style="fill:#2C6882;" d="M307.582,21.299l-0.996-1.494c-0.41,0.537-0.923,0.969-1.538,1.296s-1.289,0.491-2.021,0.491
			h-0.454c-0.605,0-1.177-0.115-1.714-0.344s-1.006-0.544-1.406-0.945s-0.715-0.869-0.944-1.406s-0.345-1.108-0.345-1.714v-0.146
			c0-0.605,0.115-1.177,0.345-1.714s0.544-1.006,0.944-1.406s0.869-0.715,1.406-0.945s1.108-0.344,1.714-0.344h3.809v-2.314
			c0-0.361-0.068-0.701-0.205-1.018s-0.322-0.593-0.557-0.828s-0.51-0.42-0.827-0.557s-0.657-0.205-1.019-0.205h-1.055
			c-0.361,0-0.7,0.068-1.018,0.205s-0.594,0.322-0.828,0.557s-0.42,0.51-0.557,0.828s-0.205,0.657-0.205,1.018v0.542l-1.802-0.293
			v-0.146c0-0.605,0.115-1.177,0.345-1.714s0.544-1.006,0.944-1.406s0.869-0.715,1.406-0.945s1.108-0.344,1.714-0.344h1.055
			c0.605,0,1.177,0.115,1.714,0.344s1.006,0.544,1.406,0.945s0.716,0.869,0.945,1.406s0.344,1.108,0.344,1.714v10.884H307.582z
			 M306.381,14.033h-3.809c-0.361,0-0.7,0.068-1.018,0.205s-0.594,0.325-0.828,0.564s-0.42,0.518-0.557,0.835
			s-0.205,0.657-0.205,1.018v0.63c0,0.361,0.068,0.701,0.205,1.018s0.322,0.593,0.557,0.828s0.511,0.42,0.828,0.557
			s0.656,0.205,1.018,0.205h1.201c0.361,0,0.701-0.068,1.019-0.205s0.593-0.322,0.827-0.557s0.42-0.51,0.557-0.828
			s0.205-0.657,0.205-1.018V14.033z"/>
		<path style="fill:#2C6882;" d="M312.387,21.299V0.293h1.802v21.006H312.387z"/>
		<path style="fill:#2C6882;" d="M60.786,57.299h-0.894l-5.317-15h1.802l3.911,11.367l0.059,0.776l0.059-0.776l3.896-11.367h1.802
			L60.786,57.299z"/>
		<path style="fill:#2C6882;" d="M78.51,53.49c0,0.605-0.122,1.16-0.366,1.662c-0.244,0.504-0.576,0.936-0.996,1.297
			s-0.906,0.643-1.458,0.842c-0.552,0.201-1.13,0.301-1.736,0.301h-1.201c-0.605,0-1.184-0.115-1.736-0.344
			c-0.552-0.23-1.035-0.545-1.45-0.945s-0.747-0.869-0.996-1.406s-0.374-1.108-0.374-1.714v-0.601L70,52.289v0.996
			c0,0.361,0.076,0.701,0.227,1.018c0.151,0.318,0.354,0.594,0.608,0.828s0.547,0.42,0.879,0.557s0.679,0.205,1.04,0.205h1.201
			c0.361,0,0.708-0.054,1.04-0.161s0.627-0.261,0.886-0.462c0.259-0.199,0.464-0.441,0.615-0.725s0.227-0.605,0.227-0.967
			c0-0.537-0.117-0.977-0.352-1.318s-0.544-0.627-0.93-0.857c-0.386-0.229-0.825-0.42-1.318-0.57
			c-0.493-0.152-0.999-0.303-1.516-0.455c-0.518-0.15-1.023-0.324-1.516-0.52s-0.933-0.451-1.318-0.77
			c-0.386-0.316-0.696-0.715-0.93-1.193s-0.352-1.074-0.352-1.787c0-0.605,0.117-1.16,0.352-1.662
			c0.234-0.504,0.552-0.936,0.952-1.297s0.867-0.643,1.399-0.842c0.532-0.201,1.101-0.301,1.707-0.301h1.055
			c0.605,0,1.177,0.115,1.714,0.344c0.537,0.23,1.006,0.545,1.406,0.945s0.715,0.869,0.945,1.406s0.344,1.108,0.344,1.714v0.059
			l-1.802,0.293v-0.454c0-0.361-0.068-0.701-0.205-1.018c-0.137-0.318-0.322-0.594-0.557-0.828s-0.51-0.42-0.828-0.557
			s-0.657-0.205-1.018-0.205H72.9c-0.361,0-0.701,0.054-1.018,0.161s-0.593,0.261-0.828,0.462c-0.234,0.199-0.42,0.441-0.557,0.725
			s-0.205,0.605-0.205,0.967c0,0.518,0.117,0.939,0.352,1.268c0.234,0.326,0.544,0.603,0.93,0.827s0.825,0.413,1.318,0.563
			c0.493,0.152,0.996,0.309,1.509,0.469c0.513,0.162,1.016,0.345,1.509,0.55s0.933,0.469,1.318,0.791s0.696,0.726,0.93,1.208
			C78.393,52.18,78.51,52.777,78.51,53.49z"/>
		<path style="fill:#2C6882;" d="M100.578,54.442c-0.269,0.625-0.637,1.172-1.106,1.641s-1.016,0.837-1.641,1.106
			c-0.625,0.268-1.294,0.402-2.007,0.402h-1.494c-0.713,0-1.384-0.135-2.014-0.402c-0.63-0.27-1.179-0.638-1.648-1.106
			s-0.837-1.016-1.106-1.641s-0.403-1.294-0.403-2.007V41.156c0-0.713,0.134-1.382,0.403-2.007s0.637-1.172,1.106-1.641
			s1.018-0.837,1.648-1.106C92.946,36.135,93.618,36,94.331,36h1.494c0.713,0,1.382,0.135,2.007,0.402
			c0.625,0.27,1.172,0.638,1.641,1.106s0.837,1.016,1.106,1.641s0.403,1.294,0.403,2.007v11.279
			C100.981,53.148,100.847,53.817,100.578,54.442z M99.091,41.156c0-0.469-0.088-0.906-0.264-1.311
			c-0.176-0.406-0.415-0.76-0.718-1.063s-0.657-0.542-1.062-0.718s-0.842-0.264-1.311-0.264h-1.318
			c-0.469,0-0.906,0.088-1.311,0.264s-0.762,0.415-1.069,0.718s-0.549,0.656-0.725,1.063c-0.176,0.404-0.264,0.842-0.264,1.311
			v11.279c0,0.469,0.088,0.906,0.264,1.311c0.176,0.406,0.417,0.762,0.725,1.07c0.308,0.307,0.664,0.549,1.069,0.725
			s0.842,0.264,1.311,0.264h1.318c0.469,0,0.906-0.088,1.311-0.264s0.759-0.418,1.062-0.725c0.303-0.309,0.542-0.664,0.718-1.07
			c0.176-0.404,0.264-0.842,0.264-1.311V41.156z"/>
		<path style="fill:#2C6882;" d="M109.301,44.013c-0.361,0-0.701,0.068-1.018,0.205s-0.593,0.322-0.828,0.557
			s-0.42,0.511-0.557,0.827c-0.137,0.318-0.205,0.657-0.205,1.019v10.679h-1.802v-15h0.601l0.981,1.523
			c0.41-0.557,0.925-0.998,1.545-1.326c0.62-0.326,1.296-0.49,2.029-0.49h1.055v2.007H109.301z"/>
		<path style="fill:#2C6882;" d="M123.327,60.858c-0.229,0.508-0.544,0.942-0.945,1.304s-0.869,0.643-1.406,0.842
			c-0.537,0.201-1.108,0.301-1.714,0.301h-0.747c-0.605,0-1.177-0.1-1.714-0.301c-0.537-0.199-1.006-0.48-1.406-0.842
			s-0.715-0.796-0.945-1.304s-0.344-1.064-0.344-1.67V59.13c0-0.586,0.107-1.123,0.322-1.611s0.508-0.913,0.879-1.274
			c-0.469-0.283-0.842-0.666-1.121-1.15c-0.278-0.482-0.417-1.018-0.417-1.604c0-0.527,0.112-1.018,0.337-1.473
			c0.225-0.453,0.532-0.822,0.923-1.105c-0.469-0.41-0.84-0.903-1.113-1.479s-0.41-1.206-0.41-1.89v-1.128
			c0-0.605,0.115-1.177,0.344-1.714s0.544-1.006,0.945-1.406s0.869-0.715,1.406-0.945c0.537-0.229,1.108-0.344,1.714-0.344h0.747
			c0.732,0,1.409,0.164,2.029,0.49c0.62,0.328,1.135,0.77,1.545,1.326l0.981-1.523h0.601v5.244c0,0.605-0.115,1.177-0.344,1.714
			s-0.544,1.006-0.945,1.406s-0.869,0.716-1.406,0.944c-0.537,0.23-1.108,0.345-1.714,0.345h-2.607c-0.205,0-0.4,0.042-0.586,0.124
			c-0.186,0.084-0.349,0.193-0.491,0.33s-0.251,0.301-0.33,0.49c-0.078,0.191-0.117,0.389-0.117,0.594s0.039,0.4,0.117,0.586
			s0.188,0.35,0.33,0.49c0.142,0.143,0.305,0.252,0.491,0.33s0.381,0.117,0.586,0.117h2.461c0.605,0,1.177,0.1,1.714,0.301
			c0.537,0.199,1.006,0.48,1.406,0.842s0.715,0.796,0.945,1.304s0.344,1.064,0.344,1.67v0.059
			C123.671,59.794,123.557,60.351,123.327,60.858z M122.031,46.313c0-0.361-0.068-0.701-0.205-1.018
			c-0.137-0.318-0.325-0.594-0.564-0.828s-0.518-0.42-0.835-0.557s-0.657-0.205-1.018-0.205h-1.494
			c-0.361,0-0.701,0.068-1.018,0.205s-0.593,0.322-0.828,0.557s-0.42,0.51-0.557,0.828c-0.137,0.316-0.205,0.656-0.205,1.018v1.333
			c0,0.361,0.068,0.7,0.205,1.019c0.137,0.316,0.322,0.593,0.557,0.827s0.51,0.42,0.828,0.557s0.657,0.205,1.018,0.205h1.494
			c0.361,0,0.701-0.068,1.018-0.205s0.596-0.322,0.835-0.557s0.427-0.511,0.564-0.827c0.137-0.318,0.205-0.657,0.205-1.019V46.313z
			 M121.958,59.042c0-0.361-0.068-0.687-0.205-0.974c-0.137-0.289-0.322-0.53-0.557-0.726s-0.51-0.347-0.828-0.454
			s-0.657-0.161-1.018-0.161h-0.923c-0.361,0-0.701,0.054-1.018,0.161s-0.593,0.259-0.828,0.454s-0.42,0.437-0.557,0.726
			c-0.137,0.287-0.205,0.612-0.205,0.974v0.234c0,0.361,0.068,0.684,0.205,0.967s0.322,0.524,0.557,0.726
			c0.234,0.199,0.51,0.354,0.828,0.461s0.657,0.161,1.018,0.161h0.923c0.361,0,0.701-0.054,1.018-0.161s0.593-0.262,0.828-0.461
			c0.234-0.201,0.42-0.442,0.557-0.726s0.205-0.605,0.205-0.967V59.042z"/>
		<path style="fill:#2C6882;" d="M136.547,57.299l-0.996-1.494c-0.41,0.537-0.923,0.969-1.538,1.297
			c-0.615,0.326-1.289,0.49-2.021,0.49h-0.454c-0.605,0-1.177-0.115-1.714-0.344c-0.537-0.23-1.006-0.545-1.406-0.945
			s-0.715-0.869-0.945-1.406s-0.344-1.108-0.344-1.714v-0.146c0-0.605,0.115-1.177,0.344-1.714s0.544-1.006,0.945-1.406
			s0.869-0.715,1.406-0.945c0.537-0.229,1.108-0.344,1.714-0.344h3.809v-2.314c0-0.361-0.068-0.701-0.205-1.018
			c-0.137-0.318-0.322-0.594-0.557-0.828s-0.51-0.42-0.828-0.557s-0.657-0.205-1.018-0.205h-1.055c-0.361,0-0.701,0.068-1.018,0.205
			s-0.593,0.322-0.828,0.557s-0.42,0.51-0.557,0.828c-0.137,0.316-0.205,0.656-0.205,1.018v0.542l-1.802-0.293v-0.146
			c0-0.605,0.115-1.177,0.344-1.714s0.544-1.006,0.945-1.406s0.869-0.715,1.406-0.945c0.537-0.229,1.108-0.344,1.714-0.344h1.055
			c0.605,0,1.177,0.115,1.714,0.344c0.537,0.23,1.006,0.545,1.406,0.945s0.715,0.869,0.945,1.406s0.344,1.108,0.344,1.714v10.884
			H136.547z M135.346,50.033h-3.809c-0.361,0-0.701,0.068-1.018,0.205s-0.593,0.324-0.828,0.564
			c-0.234,0.238-0.42,0.518-0.557,0.834c-0.137,0.318-0.205,0.657-0.205,1.019v0.63c0,0.361,0.068,0.701,0.205,1.018
			c0.137,0.318,0.322,0.594,0.557,0.828s0.51,0.42,0.828,0.557s0.657,0.205,1.018,0.205h1.201c0.361,0,0.701-0.068,1.018-0.205
			s0.593-0.322,0.828-0.557s0.42-0.51,0.557-0.828c0.137-0.316,0.205-0.656,0.205-1.018V50.033z"/>
		<path style="fill:#2C6882;" d="M148.969,57.299V46.313c0-0.361-0.068-0.701-0.205-1.018c-0.137-0.318-0.322-0.594-0.557-0.828
			s-0.51-0.42-0.828-0.557s-0.657-0.205-1.018-0.205h-1.201c-0.361,0-0.701,0.068-1.018,0.205s-0.593,0.322-0.828,0.557
			s-0.42,0.51-0.557,0.828c-0.137,0.316-0.205,0.656-0.205,1.018v10.986h-1.802v-15h0.601l0.981,1.523
			c0.41-0.557,0.925-0.998,1.545-1.326c0.62-0.326,1.296-0.49,2.029-0.49h0.454c0.605,0,1.177,0.115,1.714,0.344
			c0.537,0.23,1.006,0.545,1.406,0.945s0.715,0.869,0.945,1.406s0.344,1.108,0.344,1.714v10.884H148.969z"/>
		<path style="fill:#2C6882;" d="M154.829,38.695v-2.402h2.095v2.402H154.829z M154.975,57.299v-15h1.802v15H154.975z"/>
		<path style="fill:#2C6882;" d="M160.38,57.299v-0.806l7.559-12.48h-7.266v-1.714h9.727v0.806l-7.559,12.48h7.559v1.714H160.38z"/>
		<path style="fill:#2C6882;" d="M182.822,57.299l-0.996-1.494c-0.41,0.537-0.923,0.969-1.538,1.297
			c-0.615,0.326-1.289,0.49-2.021,0.49h-0.454c-0.605,0-1.177-0.115-1.714-0.344c-0.537-0.23-1.006-0.545-1.406-0.945
			s-0.715-0.869-0.945-1.406s-0.344-1.108-0.344-1.714v-0.146c0-0.605,0.115-1.177,0.344-1.714s0.544-1.006,0.945-1.406
			s0.869-0.715,1.406-0.945c0.537-0.229,1.108-0.344,1.714-0.344h3.809v-2.314c0-0.361-0.068-0.701-0.205-1.018
			c-0.137-0.318-0.322-0.594-0.557-0.828s-0.51-0.42-0.828-0.557s-0.657-0.205-1.018-0.205h-1.055c-0.361,0-0.701,0.068-1.018,0.205
			s-0.593,0.322-0.828,0.557s-0.42,0.51-0.557,0.828c-0.137,0.316-0.205,0.656-0.205,1.018v0.542l-1.802-0.293v-0.146
			c0-0.605,0.115-1.177,0.344-1.714s0.544-1.006,0.945-1.406s0.869-0.715,1.406-0.945c0.537-0.229,1.108-0.344,1.714-0.344h1.055
			c0.605,0,1.177,0.115,1.714,0.344c0.537,0.23,1.006,0.545,1.406,0.945s0.715,0.869,0.945,1.406s0.344,1.108,0.344,1.714v10.884
			H182.822z M181.621,50.033h-3.809c-0.361,0-0.701,0.068-1.018,0.205s-0.593,0.324-0.828,0.564
			c-0.234,0.238-0.42,0.518-0.557,0.834c-0.137,0.318-0.205,0.657-0.205,1.019v0.63c0,0.361,0.068,0.701,0.205,1.018
			c0.137,0.318,0.322,0.594,0.557,0.828s0.51,0.42,0.828,0.557s0.657,0.205,1.018,0.205h1.201c0.361,0,0.701-0.068,1.018-0.205
			s0.593-0.322,0.828-0.557s0.42-0.51,0.557-0.828c0.137-0.316,0.205-0.656,0.205-1.018V50.033z"/>
		<path style="fill:#2C6882;" d="M196.701,54.896c-0.229,0.537-0.544,1.006-0.945,1.406s-0.869,0.715-1.406,0.945
			c-0.537,0.229-1.108,0.344-1.714,0.344h-1.201c-0.605,0-1.177-0.115-1.714-0.344c-0.537-0.23-1.006-0.545-1.406-0.945
			s-0.715-0.869-0.945-1.406s-0.344-1.108-0.344-1.714v-6.768c0-0.605,0.115-1.177,0.344-1.714s0.544-1.006,0.945-1.406
			s0.869-0.715,1.406-0.945c0.537-0.229,1.108-0.344,1.714-0.344h1.201c0.605,0,1.177,0.115,1.714,0.344
			c0.537,0.23,1.006,0.545,1.406,0.945s0.715,0.869,0.945,1.406s0.344,1.108,0.344,1.714v0.601l-1.802,0.293v-0.996
			c0-0.361-0.068-0.701-0.205-1.018c-0.137-0.318-0.322-0.594-0.557-0.828s-0.51-0.42-0.828-0.557s-0.657-0.205-1.018-0.205h-1.201
			c-0.361,0-0.701,0.068-1.018,0.205s-0.593,0.322-0.828,0.557s-0.42,0.51-0.557,0.828c-0.137,0.316-0.205,0.656-0.205,1.018v6.973
			c0,0.361,0.068,0.701,0.205,1.018c0.137,0.318,0.322,0.594,0.557,0.828s0.51,0.42,0.828,0.557s0.657,0.205,1.018,0.205h1.201
			c0.361,0,0.701-0.068,1.018-0.205s0.593-0.322,0.828-0.557s0.42-0.51,0.557-0.828c0.137-0.316,0.205-0.656,0.205-1.018v-0.996
			l1.802,0.293v0.601C197.045,53.788,196.931,54.359,196.701,54.896z"/>
		<path style="fill:#2C6882;" d="M201.103,38.695v-2.402h2.095v2.402H201.103z M201.25,57.299v-15h1.802v15H201.25z"/>
		<path style="fill:#2C6882;" d="M216.931,54.896c-0.229,0.537-0.545,1.006-0.945,1.406s-0.869,0.715-1.406,0.945
			c-0.537,0.229-1.108,0.344-1.713,0.344h-1.201c-0.605,0-1.177-0.115-1.714-0.344c-0.537-0.23-1.006-0.545-1.406-0.945
			s-0.715-0.869-0.945-1.406s-0.344-1.108-0.344-1.714v-6.768c0-0.605,0.115-1.177,0.344-1.714s0.544-1.006,0.945-1.406
			s0.869-0.715,1.406-0.945c0.537-0.229,1.108-0.344,1.714-0.344h1.201c0.605,0,1.176,0.115,1.713,0.344
			c0.537,0.23,1.006,0.545,1.406,0.945s0.716,0.869,0.945,1.406s0.344,1.108,0.344,1.714v6.768
			C217.274,53.788,217.16,54.359,216.931,54.896z M215.473,46.313c0-0.361-0.068-0.701-0.205-1.018
			c-0.137-0.318-0.322-0.594-0.557-0.828s-0.51-0.42-0.827-0.557s-0.657-0.205-1.018-0.205h-1.201c-0.361,0-0.701,0.068-1.018,0.205
			s-0.593,0.322-0.828,0.557s-0.42,0.51-0.557,0.828c-0.137,0.316-0.205,0.656-0.205,1.018v6.973c0,0.361,0.068,0.701,0.205,1.018
			c0.137,0.318,0.322,0.594,0.557,0.828s0.51,0.42,0.828,0.557s0.657,0.205,1.018,0.205h1.201c0.361,0,0.701-0.068,1.018-0.205
			s0.593-0.322,0.827-0.557s0.42-0.51,0.557-0.828c0.137-0.316,0.205-0.656,0.205-1.018V46.313z M211.518,39.896h-1.348l2.388-3.604
			h3.002L211.518,39.896z"/>
		<path style="fill:#2C6882;" d="M229.096,57.299V46.313c0-0.361-0.068-0.701-0.205-1.018c-0.137-0.318-0.322-0.594-0.557-0.828
			s-0.51-0.42-0.827-0.557s-0.657-0.205-1.019-0.205h-1.201c-0.361,0-0.7,0.068-1.018,0.205s-0.594,0.322-0.828,0.557
			s-0.42,0.51-0.557,0.828c-0.137,0.316-0.205,0.656-0.205,1.018v10.986h-1.802v-15h0.601l0.981,1.523
			c0.41-0.557,0.926-0.998,1.546-1.326c0.62-0.326,1.296-0.49,2.028-0.49h0.454c0.605,0,1.177,0.115,1.714,0.344
			c0.537,0.23,1.006,0.545,1.406,0.945s0.716,0.869,0.945,1.406s0.344,1.108,0.344,1.714v10.884H229.096z"/>
		<path style="fill:#2C6882;" d="M251.076,54.896c-0.229,0.537-0.545,1.006-0.945,1.406s-0.869,0.715-1.406,0.945
			c-0.537,0.229-1.108,0.344-1.714,0.344h-0.454c-0.674,0-1.299-0.137-1.875-0.41s-1.069-0.654-1.479-1.143v7.266H241.4V42.299
			h0.601l0.981,1.523c0.41-0.557,0.926-0.998,1.546-1.326c0.62-0.326,1.296-0.49,2.028-0.49h0.454c0.605,0,1.177,0.115,1.714,0.344
			c0.537,0.23,1.006,0.545,1.406,0.945s0.716,0.869,0.945,1.406s0.344,1.108,0.344,1.714v6.768
			C251.42,53.788,251.306,54.359,251.076,54.896z M249.618,46.313c0-0.361-0.068-0.701-0.205-1.018
			c-0.137-0.318-0.322-0.594-0.557-0.828s-0.51-0.42-0.827-0.557s-0.657-0.205-1.019-0.205h-1.201c-0.361,0-0.7,0.068-1.018,0.205
			s-0.594,0.322-0.828,0.557s-0.42,0.51-0.557,0.828c-0.137,0.316-0.205,0.656-0.205,1.018v6.973c0,0.361,0.068,0.701,0.205,1.018
			c0.137,0.318,0.322,0.594,0.557,0.828s0.511,0.42,0.828,0.557s0.656,0.205,1.018,0.205h1.201c0.361,0,0.701-0.068,1.019-0.205
			s0.593-0.322,0.827-0.557s0.42-0.51,0.557-0.828c0.137-0.316,0.205-0.656,0.205-1.018V46.313z"/>
		<path style="fill:#2C6882;" d="M264.699,54.896c-0.229,0.537-0.545,1.006-0.945,1.406s-0.869,0.715-1.406,0.945
			c-0.537,0.229-1.108,0.344-1.714,0.344h-1.201c-0.605,0-1.177-0.115-1.714-0.344c-0.537-0.23-1.006-0.545-1.406-0.945
			s-0.715-0.869-0.944-1.406s-0.345-1.108-0.345-1.714v-6.768c0-0.605,0.115-1.177,0.345-1.714s0.544-1.006,0.944-1.406
			s0.869-0.715,1.406-0.945c0.537-0.229,1.108-0.344,1.714-0.344h1.201c0.605,0,1.177,0.115,1.714,0.344
			c0.537,0.23,1.006,0.545,1.406,0.945s0.716,0.869,0.945,1.406s0.344,1.108,0.344,1.714v6.768
			C265.043,53.788,264.929,54.359,264.699,54.896z M263.241,46.313c0-0.361-0.068-0.701-0.205-1.018
			c-0.137-0.318-0.322-0.594-0.557-0.828s-0.51-0.42-0.827-0.557s-0.657-0.205-1.019-0.205h-1.201c-0.361,0-0.7,0.068-1.018,0.205
			s-0.594,0.322-0.828,0.557s-0.42,0.51-0.557,0.828c-0.137,0.316-0.205,0.656-0.205,1.018v6.973c0,0.361,0.068,0.701,0.205,1.018
			c0.137,0.318,0.322,0.594,0.557,0.828s0.511,0.42,0.828,0.557s0.656,0.205,1.018,0.205h1.201c0.361,0,0.701-0.068,1.019-0.205
			s0.593-0.322,0.827-0.557s0.42-0.51,0.557-0.828c0.137-0.316,0.205-0.656,0.205-1.018V46.313z"/>
		<path style="fill:#2C6882;" d="M273.056,44.013c-0.361,0-0.7,0.068-1.018,0.205s-0.594,0.322-0.828,0.557s-0.42,0.511-0.557,0.827
			c-0.137,0.318-0.205,0.657-0.205,1.019v10.679h-1.802v-15h0.601l0.981,1.523c0.41-0.557,0.926-0.998,1.546-1.326
			c0.62-0.326,1.296-0.49,2.028-0.49h1.055v2.007H273.056z"/>
		<path style="fill:#2C6882;" d="M296.179,46.078c-0.269,0.625-0.638,1.172-1.106,1.641s-1.018,0.838-1.647,1.105
			c-0.63,0.27-1.302,0.403-2.015,0.403h-4.761v8.071h-1.89V36.293h6.65c0.713,0,1.385,0.135,2.015,0.402
			c0.63,0.27,1.179,0.638,1.647,1.106s0.838,1.019,1.106,1.647c0.269,0.631,0.402,1.302,0.402,2.015v2.607
			C296.581,44.784,296.447,45.453,296.179,46.078z M294.691,41.464c0-0.469-0.088-0.905-0.264-1.312
			c-0.176-0.404-0.417-0.762-0.725-1.068c-0.308-0.309-0.664-0.55-1.069-0.726s-0.843-0.264-1.312-0.264h-4.673v9.331h4.673
			c0.469,0,0.906-0.088,1.312-0.264s0.762-0.415,1.069-0.718s0.549-0.657,0.725-1.062c0.176-0.406,0.264-0.843,0.264-1.312V41.464z"
			/>
		<path style="fill:#2C6882;" d="M303.993,44.013c-0.361,0-0.7,0.068-1.018,0.205s-0.594,0.322-0.828,0.557s-0.42,0.511-0.557,0.827
			c-0.137,0.318-0.205,0.657-0.205,1.019v10.679h-1.802v-15h0.601l0.981,1.523c0.41-0.557,0.926-0.998,1.546-1.326
			c0.62-0.326,1.296-0.49,2.028-0.49h1.055v2.007H303.993z"/>
		<path style="fill:#2C6882;" d="M317.873,54.896c-0.229,0.537-0.545,1.006-0.945,1.406s-0.869,0.715-1.406,0.945
			c-0.537,0.229-1.108,0.344-1.714,0.344h-1.201c-0.605,0-1.177-0.115-1.714-0.344c-0.537-0.23-1.006-0.545-1.406-0.945
			s-0.715-0.869-0.944-1.406s-0.345-1.108-0.345-1.714v-6.768c0-0.605,0.115-1.177,0.345-1.714s0.544-1.006,0.944-1.406
			s0.869-0.715,1.406-0.945c0.537-0.229,1.108-0.344,1.714-0.344h1.201c0.605,0,1.177,0.115,1.714,0.344
			c0.537,0.23,1.006,0.545,1.406,0.945s0.716,0.869,0.945,1.406s0.344,1.108,0.344,1.714v6.768
			C318.217,53.788,318.103,54.359,317.873,54.896z M316.415,46.313c0-0.361-0.068-0.701-0.205-1.018
			c-0.137-0.318-0.322-0.594-0.557-0.828s-0.51-0.42-0.827-0.557s-0.657-0.205-1.019-0.205h-1.201c-0.361,0-0.7,0.068-1.018,0.205
			s-0.594,0.322-0.828,0.557s-0.42,0.51-0.557,0.828c-0.137,0.316-0.205,0.656-0.205,1.018v6.973c0,0.361,0.068,0.701,0.205,1.018
			c0.137,0.318,0.322,0.594,0.557,0.828s0.511,0.42,0.828,0.557s0.656,0.205,1.018,0.205h1.201c0.361,0,0.701-0.068,1.019-0.205
			s0.593-0.322,0.827-0.557s0.42-0.51,0.557-0.828c0.137-0.316,0.205-0.656,0.205-1.018V46.313z"/>
		<path style="fill:#2C6882;" d="M331.496,54.896c-0.229,0.537-0.545,1.006-0.945,1.406s-0.869,0.715-1.406,0.945
			c-0.537,0.229-1.108,0.344-1.714,0.344h-1.201c-0.605,0-1.177-0.115-1.714-0.344c-0.537-0.23-1.006-0.545-1.406-0.945
			s-0.715-0.869-0.944-1.406s-0.345-1.108-0.345-1.714v-6.768c0-0.605,0.115-1.177,0.345-1.714s0.544-1.006,0.944-1.406
			s0.869-0.715,1.406-0.945c0.537-0.229,1.108-0.344,1.714-0.344h1.201c0.605,0,1.177,0.115,1.714,0.344
			c0.537,0.23,1.006,0.545,1.406,0.945s0.716,0.869,0.945,1.406s0.344,1.108,0.344,1.714v0.601l-1.802,0.293v-0.996
			c0-0.361-0.068-0.701-0.205-1.018c-0.137-0.318-0.322-0.594-0.557-0.828s-0.51-0.42-0.827-0.557s-0.657-0.205-1.019-0.205h-1.201
			c-0.361,0-0.7,0.068-1.018,0.205s-0.594,0.322-0.828,0.557s-0.42,0.51-0.557,0.828c-0.137,0.316-0.205,0.656-0.205,1.018v6.973
			c0,0.361,0.068,0.701,0.205,1.018c0.137,0.318,0.322,0.594,0.557,0.828s0.511,0.42,0.828,0.557s0.656,0.205,1.018,0.205h1.201
			c0.361,0,0.701-0.068,1.019-0.205s0.593-0.322,0.827-0.557s0.42-0.51,0.557-0.828c0.137-0.316,0.205-0.656,0.205-1.018v-0.996
			l1.802,0.293v0.601C331.84,53.788,331.726,54.359,331.496,54.896z"/>
		<path style="fill:#2C6882;" d="M345.119,54.896c-0.229,0.537-0.545,1.006-0.945,1.406s-0.869,0.715-1.406,0.945
			c-0.537,0.229-1.108,0.344-1.714,0.344h-1.201c-0.605,0-1.177-0.115-1.714-0.344c-0.537-0.23-1.006-0.545-1.406-0.945
			s-0.715-0.869-0.944-1.406s-0.345-1.108-0.345-1.714v-6.768c0-0.605,0.115-1.177,0.345-1.714s0.544-1.006,0.944-1.406
			s0.869-0.715,1.406-0.945c0.537-0.229,1.108-0.344,1.714-0.344h1.201c0.605,0,1.177,0.115,1.714,0.344
			c0.537,0.23,1.006,0.545,1.406,0.945s0.716,0.869,0.945,1.406s0.344,1.108,0.344,1.714v3.53h-8.218v3.34
			c0,0.361,0.068,0.701,0.205,1.018c0.137,0.318,0.322,0.594,0.557,0.828s0.511,0.42,0.828,0.557s0.656,0.205,1.018,0.205h1.201
			c0.361,0,0.701-0.068,1.019-0.205s0.593-0.322,0.827-0.557s0.42-0.51,0.557-0.828c0.137-0.316,0.205-0.656,0.205-1.018v-0.996
			l1.802,0.293v0.601C345.463,53.788,345.349,54.359,345.119,54.896z M343.661,46.313c0-0.361-0.068-0.701-0.205-1.018
			c-0.137-0.318-0.322-0.594-0.557-0.828s-0.51-0.42-0.827-0.557s-0.657-0.205-1.019-0.205h-1.201c-0.361,0-0.7,0.068-1.018,0.205
			s-0.594,0.322-0.828,0.557s-0.42,0.51-0.557,0.828c-0.137,0.316-0.205,0.656-0.205,1.018v2.227h6.416V46.313z"/>
		<path style="fill:#2C6882;" d="M359.38,53.49c0,0.605-0.123,1.16-0.367,1.662c-0.244,0.504-0.576,0.936-0.996,1.297
			s-0.906,0.643-1.457,0.842c-0.553,0.201-1.131,0.301-1.736,0.301h-1.201c-0.605,0-1.184-0.115-1.735-0.344
			c-0.552-0.23-1.035-0.545-1.45-0.945s-0.747-0.869-0.996-1.406s-0.374-1.108-0.374-1.714v-0.601l1.802-0.293v0.996
			c0,0.361,0.076,0.701,0.228,1.018c0.151,0.318,0.354,0.594,0.607,0.828s0.547,0.42,0.879,0.557s0.679,0.205,1.04,0.205h1.201
			c0.361,0,0.709-0.054,1.041-0.161s0.627-0.261,0.885-0.462c0.26-0.199,0.465-0.441,0.615-0.725
			c0.152-0.283,0.229-0.605,0.229-0.967c0-0.537-0.117-0.977-0.352-1.318s-0.545-0.627-0.932-0.857
			c-0.385-0.229-0.824-0.42-1.318-0.57c-0.492-0.152-0.998-0.303-1.516-0.455c-0.518-0.15-1.022-0.324-1.516-0.52
			s-0.933-0.451-1.318-0.77c-0.386-0.316-0.696-0.715-0.931-1.193s-0.352-1.074-0.352-1.787c0-0.605,0.117-1.16,0.352-1.662
			c0.234-0.504,0.552-0.936,0.952-1.297s0.867-0.643,1.399-0.842c0.532-0.201,1.101-0.301,1.706-0.301h1.055
			c0.605,0,1.178,0.115,1.715,0.344c0.537,0.23,1.006,0.545,1.406,0.945s0.715,0.869,0.943,1.406
			c0.23,0.537,0.346,1.108,0.346,1.714v0.059l-1.803,0.293v-0.454c0-0.361-0.068-0.701-0.205-1.018
			c-0.137-0.318-0.322-0.594-0.557-0.828s-0.51-0.42-0.828-0.557c-0.316-0.137-0.656-0.205-1.018-0.205h-1.055
			c-0.361,0-0.7,0.054-1.018,0.161s-0.594,0.261-0.828,0.462c-0.234,0.199-0.42,0.441-0.557,0.725s-0.205,0.605-0.205,0.967
			c0,0.518,0.117,0.939,0.352,1.268c0.234,0.326,0.545,0.603,0.931,0.827s0.825,0.413,1.317,0.563
			c0.494,0.152,0.996,0.309,1.51,0.469c0.512,0.162,1.016,0.345,1.508,0.55c0.494,0.205,0.934,0.469,1.318,0.791
			c0.387,0.322,0.697,0.726,0.932,1.208C359.263,52.18,359.38,52.777,359.38,53.49z"/>
		<path style="fill:#2C6882;" d="M372.511,54.896c-0.229,0.537-0.544,1.006-0.944,1.406s-0.869,0.715-1.406,0.945
			c-0.537,0.229-1.108,0.344-1.714,0.344h-1.201c-0.605,0-1.177-0.115-1.714-0.344c-0.537-0.23-1.006-0.545-1.406-0.945
			s-0.716-0.869-0.944-1.406c-0.23-0.537-0.345-1.108-0.345-1.714v-6.768c0-0.605,0.114-1.177,0.345-1.714
			c0.229-0.537,0.544-1.006,0.944-1.406s0.869-0.715,1.406-0.945c0.537-0.229,1.108-0.344,1.714-0.344h1.201
			c0.605,0,1.177,0.115,1.714,0.344c0.537,0.23,1.006,0.545,1.406,0.945s0.715,0.869,0.944,1.406s0.345,1.108,0.345,1.714v6.768
			C372.855,53.788,372.74,54.359,372.511,54.896z M371.054,46.313c0-0.361-0.068-0.701-0.205-1.018
			c-0.137-0.318-0.322-0.594-0.557-0.828s-0.511-0.42-0.828-0.557s-0.656-0.205-1.018-0.205h-1.201
			c-0.361,0-0.701,0.068-1.018,0.205c-0.318,0.137-0.594,0.322-0.828,0.557s-0.42,0.51-0.557,0.828
			c-0.137,0.316-0.205,0.656-0.205,1.018v6.973c0,0.361,0.068,0.701,0.205,1.018c0.137,0.318,0.322,0.594,0.557,0.828
			s0.51,0.42,0.828,0.557c0.316,0.137,0.656,0.205,1.018,0.205h1.201c0.361,0,0.7-0.068,1.018-0.205s0.594-0.322,0.828-0.557
			s0.42-0.51,0.557-0.828c0.137-0.316,0.205-0.656,0.205-1.018V46.313z"/>
		<path style="fill:#2C6882;" d="M386.771,53.49c0,0.605-0.122,1.16-0.366,1.662c-0.244,0.504-0.576,0.936-0.996,1.297
			s-0.906,0.643-1.457,0.842c-0.553,0.201-1.131,0.301-1.736,0.301h-1.201c-0.605,0-1.185-0.115-1.736-0.344
			c-0.552-0.23-1.035-0.545-1.449-0.945c-0.416-0.4-0.748-0.869-0.996-1.406c-0.25-0.537-0.374-1.108-0.374-1.714v-0.601
			l1.802-0.293v0.996c0,0.361,0.075,0.701,0.227,1.018c0.151,0.318,0.354,0.594,0.608,0.828s0.547,0.42,0.879,0.557
			s0.679,0.205,1.04,0.205h1.201c0.361,0,0.708-0.054,1.04-0.161s0.627-0.261,0.886-0.462c0.259-0.199,0.464-0.441,0.615-0.725
			s0.228-0.605,0.228-0.967c0-0.537-0.117-0.977-0.352-1.318s-0.545-0.627-0.931-0.857c-0.386-0.229-0.825-0.42-1.318-0.57
			c-0.493-0.152-0.998-0.303-1.516-0.455c-0.518-0.15-1.023-0.324-1.516-0.52c-0.494-0.195-0.934-0.451-1.318-0.77
			c-0.387-0.316-0.696-0.715-0.931-1.193s-0.352-1.074-0.352-1.787c0-0.605,0.117-1.16,0.352-1.662
			c0.234-0.504,0.552-0.936,0.952-1.297s0.866-0.643,1.398-0.842c0.532-0.201,1.102-0.301,1.707-0.301h1.055
			c0.605,0,1.177,0.115,1.714,0.344c0.537,0.23,1.006,0.545,1.406,0.945s0.715,0.869,0.944,1.406s0.345,1.108,0.345,1.714v0.059
			l-1.802,0.293v-0.454c0-0.361-0.068-0.701-0.205-1.018c-0.137-0.318-0.322-0.594-0.557-0.828s-0.511-0.42-0.828-0.557
			s-0.656-0.205-1.018-0.205h-1.055c-0.361,0-0.701,0.054-1.018,0.161c-0.318,0.107-0.594,0.261-0.828,0.462
			c-0.234,0.199-0.42,0.441-0.557,0.725s-0.205,0.605-0.205,0.967c0,0.518,0.117,0.939,0.352,1.268
			c0.234,0.326,0.544,0.603,0.93,0.827s0.825,0.413,1.318,0.563c0.493,0.152,0.996,0.309,1.51,0.469
			c0.512,0.162,1.015,0.345,1.508,0.55s0.933,0.469,1.318,0.791s0.696,0.726,0.931,1.208
			C386.654,52.18,386.771,52.777,386.771,53.49z"/>
	</g>
	<circle style="fill:none;stroke:#445061;stroke-linecap:round;stroke-linejoin:round;" cx="4.414" cy="11.205" r="3.914"/>
	<circle style="fill:none;stroke:#445061;stroke-linecap:round;stroke-linejoin:round;" cx="426.5" cy="51.205" r="3.914"/>
	
		<line style="fill:none;stroke:#445061;stroke-linecap:round;stroke-linejoin:round;" x1="393" y1="51.204" x2="422.126" y2="51.204"/>
	
		<line style="fill:none;stroke:#445061;stroke-linecap:round;stroke-linejoin:round;" x1="7.92" y1="11.205" x2="48.501" y2="11.205"/>
</g>
</svg>
