<?xml version="1.0" encoding="utf-8"?>
<!-- Generator: Adobe Illustrator 17.0.0, SVG Export Plug-In . SVG Version: 6.00 Build 0)  -->
<!DOCTYPE svg PUBLIC "-//W3C//DTD SVG 1.1//EN" "http://www.w3.org/Graphics/SVG/1.1/DTD/svg11.dtd">
<svg version="1.1" id="Capa_1" xmlns="http://www.w3.org/2000/svg" xmlns:xlink="http://www.w3.org/1999/xlink" x="0px" y="0px"
	 width="122.67px" height="86.336px" viewBox="0 0 122.67 86.336" enable-background="new 0 0 122.67 86.336" xml:space="preserve">
<rect x="0" fill="#6FC2D8" width="122.67" height="86.336"/>
<rect x="3.901" y="3.265" fill="#FFFFFF" width="114.867" height="79.807"/>
<g enable-background="new    ">
	<path fill="#2C6882" d="M30.31,47.982l-5.117-14.316h3.135l3.623,10.596l3.506-10.596h3.066l-5.127,14.316H30.31z"/>
	<path fill="#2C6882" d="M44.88,44.682l2.734,0.459c-0.352,1.003-0.907,1.766-1.665,2.29s-1.708,0.786-2.847,0.786
		c-1.803,0-3.138-0.589-4.004-1.768c-0.684-0.944-1.025-2.136-1.025-3.574c0-1.719,0.449-3.064,1.348-4.038s2.035-1.46,3.408-1.46
		c1.543,0,2.76,0.51,3.652,1.528s1.318,2.58,1.279,4.683h-6.875c0.02,0.813,0.241,1.447,0.664,1.899s0.951,0.679,1.582,0.679
		c0.43,0,0.791-0.117,1.084-0.352S44.73,45.202,44.88,44.682z M45.036,41.908c-0.02-0.794-0.225-1.398-0.615-1.812
		s-0.866-0.62-1.426-0.62c-0.599,0-1.094,0.218-1.484,0.654s-0.583,1.028-0.576,1.777H45.036z"/>
	<path fill="#2C6882" d="M52.624,47.982H49.88V37.611h2.549v1.475c0.436-0.696,0.829-1.155,1.177-1.377s0.744-0.332,1.187-0.332
		c0.625,0,1.227,0.173,1.807,0.518l-0.85,2.393c-0.462-0.3-0.892-0.449-1.289-0.449c-0.384,0-0.709,0.105-0.977,0.317
		s-0.477,0.594-0.63,1.147s-0.229,1.712-0.229,3.477V47.982z"/>
	<path fill="#2C6882" d="M62.536,37.611v2.188h-1.875v4.18c0,0.847,0.018,1.34,0.054,1.479s0.117,0.256,0.244,0.347
		s0.282,0.137,0.464,0.137c0.254,0,0.621-0.088,1.104-0.264l0.234,2.129c-0.639,0.273-1.361,0.41-2.168,0.41
		c-0.495,0-0.941-0.083-1.338-0.249s-0.688-0.381-0.874-0.645s-0.314-0.62-0.386-1.069c-0.059-0.319-0.088-0.964-0.088-1.934v-4.521
		h-1.26v-2.188h1.26v-2.061l2.754-1.602v3.662H62.536z"/>
	<path fill="#2C6882" d="M64.44,36.205v-2.539h2.744v2.539H64.44z M64.44,47.982V37.611h2.744v10.371H64.44z"/>
	<path fill="#2C6882" d="M79.04,40.678l-2.705,0.488c-0.092-0.54-0.298-0.947-0.62-1.221s-0.741-0.41-1.255-0.41
		c-0.684,0-1.229,0.236-1.636,0.708c-0.407,0.472-0.61,1.262-0.61,2.368c0,1.23,0.206,2.1,0.62,2.607
		c0.413,0.508,0.968,0.762,1.665,0.762c0.521,0,0.947-0.148,1.279-0.444s0.566-0.806,0.703-1.528l2.695,0.459
		c-0.28,1.237-0.817,2.171-1.611,2.803c-0.795,0.632-1.859,0.947-3.193,0.947c-1.518,0-2.727-0.479-3.628-1.436
		c-0.902-0.957-1.353-2.282-1.353-3.975c0-1.712,0.452-3.045,1.357-3.999c0.904-0.954,2.129-1.431,3.672-1.431
		c1.263,0,2.267,0.271,3.013,0.815C78.179,38.736,78.714,39.564,79.04,40.678z"/>
	<path fill="#2C6882" d="M83.171,40.775l-2.49-0.449c0.279-1.003,0.762-1.745,1.445-2.227s1.699-0.723,3.047-0.723
		c1.224,0,2.135,0.145,2.734,0.435c0.599,0.29,1.021,0.657,1.265,1.104s0.366,1.265,0.366,2.456l-0.029,3.203
		c0,0.911,0.044,1.584,0.132,2.017s0.252,0.896,0.493,1.392h-2.715c-0.072-0.183-0.16-0.452-0.264-0.811
		c-0.046-0.163-0.078-0.271-0.098-0.322c-0.469,0.456-0.971,0.798-1.504,1.025c-0.534,0.228-1.104,0.342-1.709,0.342
		c-1.068,0-1.909-0.29-2.524-0.869s-0.923-1.312-0.923-2.197c0-0.586,0.14-1.108,0.42-1.567c0.279-0.459,0.672-0.811,1.177-1.055
		c0.504-0.244,1.231-0.457,2.183-0.64c1.282-0.241,2.171-0.466,2.666-0.674v-0.273c0-0.527-0.131-0.903-0.391-1.128
		c-0.261-0.225-0.752-0.337-1.475-0.337c-0.488,0-0.869,0.096-1.143,0.288S83.34,40.294,83.171,40.775z M86.843,43.002
		c-0.352,0.117-0.908,0.257-1.67,0.42s-1.26,0.322-1.494,0.479c-0.358,0.254-0.537,0.576-0.537,0.967
		c0,0.384,0.143,0.716,0.43,0.996c0.286,0.28,0.65,0.42,1.094,0.42c0.494,0,0.967-0.163,1.416-0.488
		c0.332-0.247,0.55-0.55,0.654-0.908c0.071-0.234,0.107-0.681,0.107-1.338V43.002z"/>
	<path fill="#2C6882" d="M92.243,47.982V33.666h2.744v14.316H92.243z"/>
</g>
</svg>
