<?xml version="1.0" encoding="utf-8"?>
<!-- Generator: Adobe Illustrator 17.0.0, SVG Export Plug-In . SVG Version: 6.00 Build 0)  -->
<!DOCTYPE svg PUBLIC "-//W3C//DTD SVG 1.1//EN" "http://www.w3.org/Graphics/SVG/1.1/DTD/svg11.dtd">
<svg version="1.1" id="Capa_1" xmlns="http://www.w3.org/2000/svg" xmlns:xlink="http://www.w3.org/1999/xlink" x="0px" y="0px"
	 width="122.67px" height="86.336px" viewBox="0 0 122.67 86.336" style="enable-background:new 0 0 122.67 86.336;"
	 xml:space="preserve">
<rect x="0" y="0" style="fill:#6FC2D8;" width="122.67" height="86.336"/>
<rect x="3.901" y="3.265" style="fill:#FFFFFF;stroke:#000000;stroke-width:0;stroke-linecap:round;stroke-linejoin:round;" width="114.867" height="79.807"/>
<g>
	<polygon points="58.416,11.361 58.416,12.421 89.693,12.421 89.693,21.089 90.754,21.089 90.754,11.361 	"/>
	<polygon points="59.607,11.361 59.607,12.421 28.332,12.421 28.332,21.089 27.271,21.089 27.271,11.361 	"/>
	<g>
		<defs>
			<polygon id="SVGID_1_" points="19.879,24.301 19.879,57.548 15.776,57.548 28.094,69.484 40.412,57.548 36.297,57.548 
				36.297,24.301 			"/>
		</defs>
		<use xlink:href="#SVGID_1_"  style="overflow:visible;fill:#6FC2D8;"/>
		<clipPath id="SVGID_2_">
			<use xlink:href="#SVGID_1_"  style="overflow:visible;"/>
		</clipPath>
		<rect x="15.776" y="24.301" style="clip-path:url(#SVGID_2_);fill:#6FC2D8;" width="24.636" height="45.184"/>
	</g>
	<path d="M33.425,34.563v-0.821h-6.156v-4.925h-0.413v4.833v0.635v8.953c0,0.176,0.11,0.355,0.286,0.355h6.283v-0.819h-6.156v-8.211
		H33.425z"/>
	<path style="fill:#2C6882;" d="M33.425,27.546c0,0.701-0.569,1.271-1.27,1.271h-8.544c-0.701,0-1.267-0.569-1.267-1.271v-5.259
		c0-0.701,0.566-1.271,1.267-1.271h8.544c0.7,0,1.27,0.569,1.27,1.271V27.546z"/>
	<path style="fill:#2C6882;" d="M44.507,36.166c0,0.701-0.567,1.27-1.271,1.27h-8.542c-0.702,0-1.27-0.568-1.27-1.27v-5.259
		c0-0.701,0.567-1.271,1.27-1.271h8.542c0.703,0,1.271,0.569,1.271,1.271V36.166z"/>
	<path style="fill:#A8A8A8;" d="M44.507,45.606c0,0.701-0.567,1.269-1.271,1.269h-8.542c-0.702,0-1.27-0.567-1.27-1.269v-5.259
		c0-0.701,0.567-1.27,1.27-1.27h8.542c0.703,0,1.271,0.568,1.271,1.27V45.606z"/>
	<path d="M36.707,68.632h-0.82v-2.464h-4.926v-0.821h5.197c0.176,0,0.549,0.321,0.549,0.497V68.632z"/>
	<path d="M19.057,68.632h0.822v-2.464h4.926v-0.821h-5.197c-0.176,0-0.551,0.321-0.551,0.497V68.632z"/>
	<rect x="27.678" y="60.832" width="0.82" height="2.462"/>
	<rect x="27.678" y="54.265" width="0.82" height="2.054"/>
	<path style="fill:#A8A8A8;" d="M30.961,53.623c0,0.396-0.139,0.642-0.559,0.642h-4.75c-0.42,0-0.847-0.245-0.847-0.642v-3.126
		c0-0.395,0.427-0.747,0.847-0.747h4.75c0.421,0,0.559,0.353,0.559,0.747V53.623z"/>
	<path style="fill:#2C6882;" d="M30.961,60.177c0,0.396-0.139,0.655-0.559,0.655h-4.75c-0.42,0-0.847-0.259-0.847-0.655v-3.126
		c0-0.396,0.427-0.733,0.847-0.733h4.75c0.421,0,0.559,0.337,0.559,0.733V60.177z"/>
	<path style="fill:#2C6882;" d="M30.961,67.301c0,0.396-0.139,0.919-0.559,0.919h-4.75c-0.42,0-0.847-0.523-0.847-0.919v-3.125
		c0-0.397,0.427-0.882,0.847-0.882h4.75c0.421,0,0.559,0.484,0.559,0.882V67.301z"/>
	<path style="fill:#A8A8A8;" d="M39.58,72.429c0,0.396-0.494,0.717-0.914,0.717h-4.751c-0.419,0-0.901-0.32-0.901-0.717v-3.125
		c0-0.396,0.482-0.672,0.901-0.672h4.751c0.42,0,0.914,0.276,0.914,0.672V72.429z"/>
	<path style="fill:#A8A8A8;" d="M23.162,72.429c0,0.396-0.319,0.717-0.737,0.717h-4.752c-0.419,0-0.667-0.32-0.667-0.717v-3.125
		c0-0.396,0.248-0.672,0.667-0.672h4.752c0.418,0,0.737,0.276,0.737,0.672V72.429z"/>
	<rect x="58.591" y="11.987" width="0.975" height="9.03"/>
	<path style="fill:#2C6882;" d="M73.239,15.293c0,0.894-0.725,1.619-1.619,1.619H46.126c-0.896,0-1.619-0.725-1.619-1.619V8.269
		c0-0.894,0.724-1.619,1.619-1.619H71.62c0.895,0,1.619,0.725,1.619,1.619V15.293z"/>
	<g>
		<defs>
			<polygon id="SVGID_3_" points="51.073,24.301 51.073,57.548 46.89,57.548 59.209,69.484 71.529,57.548 67.492,57.548 
				67.492,24.301 			"/>
		</defs>
		<use xlink:href="#SVGID_3_"  style="overflow:visible;fill:#6FC2D8;"/>
		<clipPath id="SVGID_4_">
			<use xlink:href="#SVGID_3_"  style="overflow:visible;"/>
		</clipPath>
		<rect x="46.89" y="24.301" style="clip-path:url(#SVGID_4_);fill:#6FC2D8;" width="24.64" height="45.184"/>
	</g>
	<path d="M64.619,34.563v-0.821h-6.156v-4.925h-0.41v4.833v0.635v8.953c0,0.176,0.027,0.355,0.203,0.355h6.363v-0.819h-6.156v-8.211
		H64.619z"/>
	<path style="fill:#A8A8A8;" d="M64.619,27.546c0,0.701-0.568,1.271-1.271,1.271h-8.541c-0.702,0-1.271-0.569-1.271-1.271v-5.259
		c0-0.701,0.568-1.271,1.271-1.271h8.541c0.702,0,1.271,0.569,1.271,1.271V27.546z"/>
	<path style="fill:#2C6882;" d="M75.701,36.166c0,0.701-0.568,1.27-1.269,1.27h-8.544c-0.701,0-1.27-0.568-1.27-1.27v-5.259
		c0-0.701,0.568-1.271,1.27-1.271h8.544c0.7,0,1.269,0.569,1.269,1.271V36.166z"/>
	<path style="fill:#A8A8A8;" d="M75.701,45.606c0,0.701-0.568,1.269-1.269,1.269h-8.544c-0.701,0-1.27-0.567-1.27-1.269v-5.259
		c0-0.701,0.568-1.27,1.27-1.27h8.544c0.7,0,1.269,0.568,1.269,1.27V45.606z"/>
	<path d="M51.484,68.632h-0.82v-2.788c0-0.176,0.306-0.497,0.48-0.497H56v0.821h-4.516V68.632z"/>
	<path d="M66.673,68.632h0.82v-2.788c0-0.176-0.308-0.497-0.481-0.497h-4.854v0.821h4.516V68.632z"/>
	<rect x="58.872" y="60.832" width="0.411" height="2.462"/>
	<rect x="58.872" y="54.265" width="0.411" height="2.054"/>
	<path style="fill:#2C6882;" d="M62.157,53.623c0,0.396-0.278,0.642-0.696,0.642h-4.75c-0.42,0-0.711-0.245-0.711-0.642v-3.126
		c0-0.395,0.291-0.747,0.711-0.747h4.75c0.418,0,0.696,0.353,0.696,0.747V53.623z"/>
	<path style="fill:#A8A8A8;" d="M62.157,60.177c0,0.396-0.278,0.655-0.696,0.655h-4.75c-0.42,0-0.711-0.259-0.711-0.655v-3.126
		c0-0.396,0.291-0.733,0.711-0.733h4.75c0.418,0,0.696,0.337,0.696,0.733V60.177z"/>
	<path style="fill:#2C6882;" d="M62.157,67.301c0,0.396-0.278,0.919-0.696,0.919h-4.75c-0.42,0-0.711-0.523-0.711-0.919v-3.125
		c0-0.397,0.291-0.882,0.711-0.882h4.75c0.418,0,0.696,0.484,0.696,0.882V67.301z"/>
	<path style="fill:#A8A8A8;" d="M70.365,72.429c0,0.396-0.223,0.717-0.642,0.717h-4.75c-0.42,0-0.766-0.32-0.766-0.717v-3.125
		c0-0.396,0.346-0.672,0.766-0.672h4.75c0.419,0,0.642,0.276,0.642,0.672V72.429z"/>
	<path style="fill:#2C6882;" d="M54.358,72.429c0,0.396-0.457,0.717-0.877,0.717h-4.749c-0.42,0-0.942-0.32-0.942-0.717v-3.125
		c0-0.396,0.522-0.672,0.942-0.672h4.749c0.42,0,0.877,0.276,0.877,0.672V72.429z"/>
	<g>
		<defs>
			<polygon id="SVGID_5_" points="82.269,24.301 82.269,57.548 78.259,57.548 90.578,69.484 102.897,57.548 98.688,57.548 
				98.688,24.301 			"/>
		</defs>
		<clipPath id="SVGID_6_">
			<use xlink:href="#SVGID_5_"  style="overflow:visible;"/>
		</clipPath>
		<rect x="78.259" y="24.301" style="clip-path:url(#SVGID_6_);fill:#6FC2D8;" width="24.638" height="45.184"/>
	</g>
	<path d="M96.225,33.763v-0.411h-6.566v-4.925h-0.41v4.707v0.635v8.952c0,0.175,0.201,0.483,0.377,0.483h6.6v-0.821h-6.566v-8.62
		H96.225z"/>
	<path style="fill:#2C6882;" d="M95.815,27.136c0,0.701-0.568,1.27-1.269,1.27h-8.543c-0.702,0-1.27-0.568-1.27-1.27v-5.26
		c0-0.701,0.567-1.27,1.27-1.27h8.543c0.7,0,1.269,0.568,1.269,1.27V27.136z"/>
	<path style="fill:#A8A8A8;" d="M107.309,36.166c0,0.701-0.568,1.27-1.271,1.27h-8.541c-0.703,0-1.271-0.568-1.271-1.27v-5.259
		c0-0.701,0.568-1.271,1.271-1.271h8.541c0.703,0,1.271,0.569,1.271,1.271V36.166z"/>
	<path style="fill:#2C6882;" d="M107.309,45.606c0,0.701-0.568,1.269-1.271,1.269h-8.541c-0.703,0-1.271-0.567-1.271-1.269v-5.259
		c0-0.701,0.568-1.27,1.271-1.27h8.541c0.703,0,1.271,0.568,1.271,1.27V45.606z"/>
	<path d="M99.1,68.632h-0.822v-2.464h-4.516v-0.821h4.882c0.174,0,0.456,0.321,0.456,0.497V68.632z"/>
	<path d="M81.859,68.632h0.821v-2.464h4.514v-0.821h-4.88c-0.174,0-0.455,0.321-0.455,0.497V68.632z"/>
	<rect x="90.068" y="60.832" width="0.821" height="2.462"/>
	<rect x="90.068" y="54.265" width="0.821" height="2.054"/>
	<g>
		<path style="fill:#A8A8A8;" d="M93.763,53.623c0,0.396-0.54,0.642-0.958,0.642h-4.752c-0.418,0-0.858-0.245-0.858-0.642v-3.126
			c0-0.395,0.44-0.747,0.858-0.747h4.752c0.418,0,0.958,0.353,0.958,0.747V53.623z"/>
		<path style="fill:#2C6882;" d="M93.763,60.177c0,0.396-0.54,0.655-0.958,0.655h-4.752c-0.418,0-0.858-0.259-0.858-0.655v-3.126
			c0-0.396,0.44-0.733,0.858-0.733h4.752c0.418,0,0.958,0.337,0.958,0.733V60.177z"/>
		<path style="fill:#A8A8A8;" d="M93.763,67.301c0,0.396-0.54,0.919-0.958,0.919h-4.752c-0.418,0-0.858-0.523-0.858-0.919v-3.125
			c0-0.397,0.44-0.882,0.858-0.882h4.752c0.418,0,0.958,0.484,0.958,0.882V67.301z"/>
		<path style="fill:#A8A8A8;" d="M101.971,72.429c0,0.396-0.485,0.717-0.904,0.717h-4.75c-0.42,0-0.912-0.32-0.912-0.717v-3.125
			c0-0.396,0.492-0.672,0.912-0.672h4.75c0.419,0,0.904,0.276,0.904,0.672V72.429z"/>
		<path style="fill:#2C6882;" d="M85.554,72.429c0,0.396-0.31,0.717-0.728,0.717h-4.752c-0.419,0-0.678-0.32-0.678-0.717v-3.125
			c0-0.396,0.259-0.672,0.678-0.672h4.752c0.418,0,0.728,0.276,0.728,0.672V72.429z"/>
	</g>
</g>
</svg>
