<?xml version="1.0" encoding="utf-8"?>
<!-- Generator: Adobe Illustrator 17.0.0, SVG Export Plug-In . SVG Version: 6.00 Build 0)  -->
<!DOCTYPE svg PUBLIC "-//W3C//DTD SVG 1.1//EN" "http://www.w3.org/Graphics/SVG/1.1/DTD/svg11.dtd">
<svg version="1.1" id="Capa_1" xmlns="http://www.w3.org/2000/svg" xmlns:xlink="http://www.w3.org/1999/xlink" x="0px" y="0px"
	 width="392.132px" height="96.807px" viewBox="0 0 392.132 96.807" style="enable-background:new 0 0 392.132 96.807;"
	 xml:space="preserve">
<g>
	<polyline style="fill:none;stroke:#6FC2D8;stroke-width:1.5977;stroke-miterlimit:10;" points="75.257,94.189 2.616,94.189 
		2.616,71.617 	"/>
	
		<line style="fill:none;stroke:#6FC2D8;stroke-width:1.5977;stroke-miterlimit:10;" x1="183.266" y1="94.189" x2="115.145" y2="94.189"/>
	
		<line style="fill:none;stroke:#6FC2D8;stroke-width:1.5977;stroke-miterlimit:10;" x1="296.239" y1="94.189" x2="208.651" y2="94.189"/>
	<polyline style="fill:none;stroke:#6FC2D8;stroke-width:1.5977;stroke-miterlimit:10;" points="389.515,70.352 389.515,94.189 
		340.315,94.189 	"/>
	<circle style="fill:#2C6882;" cx="75.257" cy="94.189" r="2.617"/>
	<circle style="fill:#2C6882;" cx="115.145" cy="94.189" r="2.617"/>
	<circle style="fill:#2C6882;" cx="183.266" cy="94.189" r="2.617"/>
	<circle style="fill:#2C6882;" cx="208.651" cy="94.189" r="2.617"/>
	<circle style="fill:#2C6882;" cx="296.239" cy="94.189" r="2.617"/>
	<circle style="fill:#2C6882;" cx="339.792" cy="94.189" r="2.617"/>
	<circle style="fill:#2C6882;" cx="389.514" cy="72.317" r="2.617"/>
	<circle style="fill:#2C6882;" cx="2.617" cy="70.962" r="2.617"/>
	<polyline style="fill:none;stroke:#6FC2D8;stroke-width:1.5977;stroke-miterlimit:10;" points="316.874,2.617 389.515,2.617 
		389.515,25.189 	"/>
	
		<line style="fill:none;stroke:#6FC2D8;stroke-width:1.5977;stroke-miterlimit:10;" x1="97.202" y1="2.617" x2="271.534" y2="2.617"/>
	<polyline style="fill:none;stroke:#6FC2D8;stroke-width:1.5977;stroke-miterlimit:10;" points="2.616,26.455 2.616,2.617 
		51.815,2.617 	"/>
	<circle style="fill:#2C6882;" cx="316.873" cy="2.617" r="2.616"/>
	<circle style="fill:#2C6882;" cx="273.237" cy="2.617" r="2.617"/>
	<circle style="fill:#2C6882;" cx="97.202" cy="2.617" r="2.617"/>
	<circle style="fill:#2C6882;" cx="52.338" cy="2.617" r="2.617"/>
	<circle style="fill:#2C6882;" cx="2.617" cy="24.49" r="2.617"/>
	<circle style="fill:#2C6882;" cx="389.514" cy="25.845" r="2.617"/>
	<g>
		<rect x="17.622" y="14.72" style="fill:#6FC2D8;" width="356.887" height="67.813"/>
		<g>
			<rect x="35.013" y="30.467" style="fill:#FFFFFF;" width="322.107" height="36.319"/>
		</g>
	</g>
</g>
<g>
	<path style="fill:#2C6882;" d="M92.769,43.053h1.24c0.007,0.215,0.01,0.339,0.01,0.371c0,0.371-0.071,0.691-0.212,0.959
		c-0.143,0.27-0.419,0.571-0.83,0.906c-0.412,0.335-0.659,0.569-0.74,0.703s-0.122,0.285-0.122,0.454
		c0,0.251,0.107,0.472,0.322,0.661c0.215,0.191,0.503,0.286,0.864,0.286c0.349,0,0.638-0.097,0.869-0.29
		c0.231-0.194,0.394-0.499,0.488-0.916l1.26,0.161c-0.056,0.407-0.171,0.745-0.347,1.016c-0.241,0.368-0.554,0.64-0.94,0.815
		c-0.385,0.176-0.811,0.264-1.276,0.264c-0.784,0-1.41-0.206-1.878-0.617c-0.467-0.412-0.7-0.889-0.7-1.429
		c0-0.208,0.042-0.411,0.124-0.608c0.084-0.196,0.214-0.395,0.391-0.593c0.178-0.198,0.46-0.457,0.848-0.776
		c0.283-0.228,0.46-0.418,0.529-0.568C92.739,43.699,92.772,43.434,92.769,43.053z M94.01,41.207v1.372h-1.372v-1.372H94.01z"/>
	<path style="fill:#2C6882;" d="M96.98,46.393v-7.158H99.3c0.879,0,1.452,0.036,1.719,0.107c0.41,0.107,0.754,0.341,1.03,0.701
		c0.276,0.359,0.415,0.824,0.415,1.394c0,0.439-0.08,0.809-0.239,1.108s-0.362,0.535-0.608,0.705
		c-0.245,0.172-0.495,0.284-0.749,0.34c-0.345,0.068-0.845,0.103-1.499,0.103h-0.942v2.7H96.98z M98.426,40.445v2.031h0.791
		c0.569,0,0.95-0.037,1.143-0.112s0.343-0.192,0.452-0.352c0.108-0.159,0.163-0.345,0.163-0.557c0-0.261-0.076-0.476-0.229-0.645
		s-0.347-0.275-0.581-0.317c-0.173-0.032-0.52-0.049-1.04-0.049H98.426z"/>
	<path style="fill:#2C6882;" d="M103.182,43.727c0-0.456,0.112-0.896,0.337-1.323s0.543-0.752,0.954-0.977
		c0.412-0.225,0.872-0.337,1.38-0.337c0.784,0,1.428,0.255,1.929,0.764c0.501,0.51,0.752,1.153,0.752,1.932
		c0,0.784-0.253,1.435-0.76,1.951c-0.506,0.516-1.143,0.773-1.911,0.773c-0.476,0-0.929-0.107-1.36-0.322
		c-0.431-0.215-0.759-0.529-0.983-0.945C103.295,44.828,103.182,44.322,103.182,43.727z M104.589,43.8
		c0,0.515,0.122,0.908,0.366,1.182s0.545,0.41,0.903,0.41s0.658-0.137,0.9-0.41c0.243-0.273,0.364-0.671,0.364-1.191
		c0-0.508-0.121-0.898-0.364-1.172c-0.242-0.273-0.542-0.41-0.9-0.41s-0.659,0.137-0.903,0.41S104.589,43.285,104.589,43.8z"/>
	<path style="fill:#2C6882;" d="M110.782,46.393h-1.372v-5.186h1.274v0.737c0.218-0.349,0.414-0.578,0.588-0.688
		c0.175-0.11,0.372-0.166,0.594-0.166c0.313,0,0.613,0.086,0.903,0.259l-0.425,1.196c-0.231-0.149-0.446-0.225-0.645-0.225
		c-0.192,0-0.354,0.053-0.488,0.158c-0.134,0.106-0.238,0.298-0.314,0.574c-0.077,0.276-0.115,0.856-0.115,1.738V46.393z"/>
	<path style="fill:#2C6882;" d="M119.247,48.365v-2.607c-0.179,0.231-0.402,0.414-0.669,0.549c-0.267,0.136-0.555,0.203-0.864,0.203
		c-0.589,0-1.074-0.222-1.455-0.664c-0.449-0.518-0.674-1.219-0.674-2.104c0-0.833,0.211-1.483,0.632-1.95
		c0.422-0.468,0.945-0.701,1.57-0.701c0.345,0,0.644,0.073,0.896,0.22c0.252,0.146,0.476,0.368,0.671,0.664v-0.767h1.265v7.158
		H119.247z M119.291,43.736c0-0.53-0.108-0.926-0.324-1.184c-0.217-0.26-0.488-0.389-0.813-0.389c-0.332,0-0.609,0.132-0.833,0.396
		c-0.223,0.264-0.334,0.682-0.334,1.255c0,0.569,0.107,0.98,0.322,1.232c0.215,0.253,0.48,0.379,0.796,0.379s0.593-0.142,0.83-0.425
		S119.291,44.296,119.291,43.736z"/>
	<path style="fill:#2C6882;" d="M125.24,46.393v-0.776c-0.188,0.276-0.438,0.495-0.744,0.654c-0.309,0.159-0.633,0.239-0.975,0.239
		c-0.349,0-0.661-0.076-0.938-0.229s-0.477-0.368-0.601-0.645s-0.186-0.659-0.186-1.147v-3.281h1.372v2.383
		c0,0.729,0.025,1.176,0.076,1.34c0.05,0.165,0.142,0.295,0.275,0.391c0.134,0.097,0.303,0.145,0.508,0.145
		c0.234,0,0.444-0.064,0.63-0.193c0.186-0.128,0.313-0.287,0.381-0.479c0.068-0.189,0.103-0.656,0.103-1.398v-2.188h1.372v5.186
		H125.24z"/>
	<path style="fill:#2C6882;" d="M130.798,44.742l1.367,0.229c-0.176,0.501-0.453,0.883-0.832,1.146
		c-0.38,0.262-0.854,0.393-1.424,0.393c-0.901,0-1.569-0.295-2.002-0.884c-0.342-0.472-0.513-1.067-0.513-1.787
		c0-0.859,0.225-1.532,0.674-2.019c0.449-0.487,1.018-0.73,1.704-0.73c0.771,0,1.38,0.255,1.826,0.764
		c0.446,0.51,0.659,1.29,0.64,2.342h-3.438c0.01,0.407,0.12,0.724,0.332,0.949c0.212,0.227,0.476,0.34,0.791,0.34
		c0.215,0,0.396-0.059,0.542-0.176S130.723,45.003,130.798,44.742z M130.876,43.356c-0.01-0.397-0.112-0.699-0.308-0.906
		c-0.195-0.206-0.433-0.31-0.713-0.31c-0.3,0-0.547,0.109-0.742,0.327s-0.291,0.515-0.288,0.889H130.876z M129.123,40.572
		l0.674-1.46h1.538l-1.343,1.46H129.123z"/>
	<path style="fill:#2C6882;" d="M137.223,39.235v2.632c0.442-0.518,0.972-0.776,1.587-0.776c0.315,0,0.601,0.059,0.854,0.176
		s0.445,0.267,0.573,0.449c0.129,0.183,0.217,0.384,0.264,0.605c0.048,0.222,0.071,0.564,0.071,1.03v3.042H139.2v-2.739
		c0-0.544-0.026-0.889-0.078-1.035s-0.145-0.263-0.275-0.349c-0.133-0.087-0.298-0.13-0.496-0.13c-0.228,0-0.432,0.056-0.61,0.166
		s-0.31,0.277-0.394,0.501c-0.082,0.223-0.124,0.552-0.124,0.988v2.598h-1.372v-7.158H137.223z"/>
	<path style="fill:#2C6882;" d="M142.848,42.789l-1.245-0.225c0.14-0.501,0.381-0.872,0.723-1.113s0.85-0.361,1.523-0.361
		c0.612,0,1.067,0.072,1.367,0.217c0.3,0.146,0.51,0.329,0.633,0.553c0.121,0.223,0.183,0.632,0.183,1.228l-0.015,1.602
		c0,0.456,0.021,0.792,0.066,1.009c0.043,0.216,0.126,0.448,0.246,0.695h-1.357c-0.036-0.091-0.08-0.227-0.132-0.405
		c-0.022-0.081-0.039-0.135-0.049-0.161c-0.234,0.228-0.485,0.398-0.752,0.513s-0.552,0.171-0.854,0.171
		c-0.534,0-0.955-0.145-1.262-0.435c-0.309-0.29-0.462-0.656-0.462-1.099c0-0.293,0.07-0.555,0.21-0.783
		c0.14-0.23,0.336-0.406,0.588-0.527c0.253-0.123,0.616-0.229,1.092-0.32c0.642-0.12,1.086-0.232,1.333-0.337v-0.137
		c0-0.264-0.065-0.452-0.195-0.563c-0.13-0.113-0.376-0.169-0.737-0.169c-0.244,0-0.435,0.048-0.571,0.144
		C143.044,42.38,142.933,42.548,142.848,42.789z M144.684,43.902c-0.176,0.059-0.454,0.129-0.835,0.21s-0.63,0.161-0.747,0.239
		c-0.179,0.127-0.269,0.288-0.269,0.483c0,0.192,0.071,0.358,0.215,0.498s0.325,0.21,0.547,0.21c0.247,0,0.483-0.081,0.708-0.244
		c0.166-0.124,0.275-0.275,0.327-0.454c0.036-0.117,0.054-0.34,0.054-0.669V43.902z"/>
	<path style="fill:#2C6882;" d="M151.766,42.74l-1.353,0.244c-0.046-0.271-0.148-0.474-0.311-0.61
		c-0.16-0.137-0.37-0.205-0.627-0.205c-0.342,0-0.614,0.118-0.818,0.354c-0.203,0.235-0.305,0.63-0.305,1.184
		c0,0.615,0.104,1.05,0.311,1.304c0.206,0.254,0.483,0.381,0.832,0.381c0.261,0,0.474-0.074,0.64-0.222
		c0.166-0.148,0.283-0.403,0.352-0.765l1.348,0.229c-0.14,0.618-0.408,1.086-0.806,1.401s-0.93,0.474-1.597,0.474
		c-0.759,0-1.363-0.239-1.813-0.718c-0.451-0.479-0.677-1.141-0.677-1.987c0-0.856,0.227-1.522,0.679-2
		c0.452-0.477,1.064-0.715,1.836-0.715c0.632,0,1.134,0.136,1.506,0.408C151.336,41.77,151.603,42.184,151.766,42.74z"/>
	<path style="fill:#2C6882;" d="M155.67,44.742l1.367,0.229c-0.176,0.501-0.453,0.883-0.832,1.146
		c-0.38,0.262-0.854,0.393-1.424,0.393c-0.901,0-1.569-0.295-2.002-0.884c-0.342-0.472-0.513-1.067-0.513-1.787
		c0-0.859,0.225-1.532,0.674-2.019c0.449-0.487,1.018-0.73,1.704-0.73c0.771,0,1.38,0.255,1.826,0.764
		c0.446,0.51,0.659,1.29,0.64,2.342h-3.438c0.01,0.407,0.12,0.724,0.332,0.949c0.212,0.227,0.476,0.34,0.791,0.34
		c0.215,0,0.396-0.059,0.542-0.176S155.595,45.003,155.67,44.742z M155.748,43.356c-0.01-0.397-0.112-0.699-0.308-0.906
		c-0.195-0.206-0.433-0.31-0.713-0.31c-0.3,0-0.547,0.109-0.742,0.327s-0.291,0.515-0.288,0.889H155.748z"/>
	<path style="fill:#2C6882;" d="M159.401,46.393h-1.372v-5.186h1.274v0.737c0.218-0.349,0.414-0.578,0.588-0.688
		c0.175-0.11,0.372-0.166,0.594-0.166c0.313,0,0.613,0.086,0.903,0.259l-0.425,1.196c-0.231-0.149-0.446-0.225-0.645-0.225
		c-0.192,0-0.354,0.053-0.488,0.158c-0.134,0.106-0.238,0.298-0.314,0.574c-0.077,0.276-0.115,0.856-0.115,1.738V46.393z"/>
	<path style="fill:#2C6882;" d="M167.891,46.393v-0.776c-0.188,0.276-0.438,0.495-0.744,0.654c-0.309,0.159-0.633,0.239-0.975,0.239
		c-0.349,0-0.661-0.076-0.938-0.229s-0.477-0.368-0.601-0.645s-0.186-0.659-0.186-1.147v-3.281h1.372v2.383
		c0,0.729,0.025,1.176,0.076,1.34c0.05,0.165,0.142,0.295,0.275,0.391c0.134,0.097,0.303,0.145,0.508,0.145
		c0.234,0,0.444-0.064,0.63-0.193c0.186-0.128,0.313-0.287,0.381-0.479c0.068-0.189,0.103-0.656,0.103-1.398v-2.188h1.372v5.186
		H167.891z"/>
	<path style="fill:#2C6882;" d="M169.963,44.913l1.377-0.21c0.059,0.267,0.178,0.47,0.356,0.607c0.179,0.139,0.43,0.208,0.752,0.208
		c0.354,0,0.622-0.065,0.801-0.195c0.12-0.091,0.181-0.213,0.181-0.366c0-0.104-0.032-0.19-0.098-0.259
		c-0.068-0.065-0.222-0.125-0.459-0.181c-1.106-0.244-1.809-0.467-2.104-0.669c-0.41-0.28-0.615-0.669-0.615-1.167
		c0-0.449,0.178-0.827,0.532-1.133s0.905-0.459,1.65-0.459c0.71,0,1.237,0.115,1.582,0.347s0.583,0.573,0.713,1.025l-1.294,0.239
		c-0.056-0.202-0.16-0.356-0.315-0.464c-0.154-0.107-0.375-0.161-0.661-0.161c-0.361,0-0.62,0.051-0.776,0.151
		c-0.104,0.071-0.156,0.164-0.156,0.278c0,0.098,0.046,0.181,0.137,0.249c0.124,0.091,0.551,0.22,1.281,0.386
		c0.731,0.166,1.241,0.369,1.531,0.61c0.286,0.244,0.43,0.584,0.43,1.021c0,0.476-0.198,0.884-0.596,1.226s-0.984,0.513-1.763,0.513
		c-0.706,0-1.266-0.144-1.677-0.43C170.359,45.794,170.09,45.404,169.963,44.913z"/>
	<path style="fill:#2C6882;" d="M175.551,43.727c0-0.456,0.112-0.896,0.337-1.323s0.543-0.752,0.954-0.977
		c0.412-0.225,0.872-0.337,1.38-0.337c0.784,0,1.428,0.255,1.929,0.764c0.501,0.51,0.752,1.153,0.752,1.932
		c0,0.784-0.253,1.435-0.76,1.951c-0.506,0.516-1.143,0.773-1.911,0.773c-0.476,0-0.929-0.107-1.36-0.322
		c-0.431-0.215-0.759-0.529-0.983-0.945C175.663,44.828,175.551,44.322,175.551,43.727z M176.957,43.8
		c0,0.515,0.122,0.908,0.366,1.182s0.545,0.41,0.903,0.41s0.658-0.137,0.9-0.41c0.243-0.273,0.364-0.671,0.364-1.191
		c0-0.508-0.121-0.898-0.364-1.172c-0.242-0.273-0.542-0.41-0.9-0.41s-0.659,0.137-0.903,0.41S176.957,43.285,176.957,43.8z"/>
	<path style="fill:#2C6882;" d="M189.23,46.393h-1.274v-0.762c-0.212,0.296-0.461,0.517-0.75,0.662
		c-0.287,0.145-0.578,0.217-0.871,0.217c-0.596,0-1.105-0.24-1.531-0.721c-0.424-0.479-0.637-1.149-0.637-2.009
		c0-0.879,0.207-1.547,0.62-2.005c0.413-0.457,0.936-0.686,1.567-0.686c0.579,0,1.081,0.241,1.504,0.723v-2.578h1.372V46.393z
		 M185.568,43.688c0,0.554,0.076,0.954,0.229,1.201c0.222,0.358,0.53,0.537,0.928,0.537c0.315,0,0.584-0.135,0.806-0.402
		c0.222-0.27,0.332-0.67,0.332-1.204c0-0.596-0.107-1.024-0.322-1.286c-0.215-0.263-0.49-0.394-0.825-0.394
		c-0.325,0-0.598,0.13-0.818,0.388C185.679,42.787,185.568,43.173,185.568,43.688z"/>
	<path style="fill:#2C6882;" d="M193.446,44.742l1.367,0.229c-0.176,0.501-0.453,0.883-0.832,1.146
		c-0.38,0.262-0.854,0.393-1.424,0.393c-0.901,0-1.569-0.295-2.002-0.884c-0.342-0.472-0.513-1.067-0.513-1.787
		c0-0.859,0.225-1.532,0.674-2.019c0.449-0.487,1.018-0.73,1.704-0.73c0.771,0,1.38,0.255,1.826,0.764
		c0.446,0.51,0.659,1.29,0.64,2.342h-3.438c0.01,0.407,0.12,0.724,0.332,0.949c0.212,0.227,0.476,0.34,0.791,0.34
		c0.215,0,0.396-0.059,0.542-0.176S193.371,45.003,193.446,44.742z M193.524,43.356c-0.01-0.397-0.112-0.699-0.308-0.906
		c-0.195-0.206-0.433-0.31-0.713-0.31c-0.3,0-0.547,0.109-0.742,0.327s-0.291,0.515-0.288,0.889H193.524z"/>
	<path style="fill:#2C6882;" d="M195.864,46.393v-7.158h1.372v7.158H195.864z"/>
	<path style="fill:#2C6882;" d="M204.144,44.742l1.367,0.229c-0.176,0.501-0.453,0.883-0.832,1.146
		c-0.38,0.262-0.854,0.393-1.424,0.393c-0.901,0-1.569-0.295-2.002-0.884c-0.342-0.472-0.513-1.067-0.513-1.787
		c0-0.859,0.225-1.532,0.674-2.019c0.449-0.487,1.018-0.73,1.704-0.73c0.771,0,1.38,0.255,1.826,0.764
		c0.446,0.51,0.659,1.29,0.64,2.342h-3.438c0.01,0.407,0.12,0.724,0.332,0.949c0.212,0.227,0.476,0.34,0.791,0.34
		c0.215,0,0.396-0.059,0.542-0.176S204.069,45.003,204.144,44.742z M204.223,43.356c-0.01-0.397-0.112-0.699-0.308-0.906
		c-0.195-0.206-0.433-0.31-0.713-0.31c-0.3,0-0.547,0.109-0.742,0.327s-0.291,0.515-0.288,0.889H204.223z"/>
	<path style="fill:#2C6882;" d="M211.279,46.393h-1.372v-2.646c0-0.56-0.029-0.922-0.088-1.086
		c-0.059-0.165-0.154-0.293-0.285-0.384c-0.133-0.091-0.291-0.137-0.477-0.137c-0.237,0-0.451,0.065-0.64,0.195
		s-0.318,0.303-0.388,0.518c-0.07,0.215-0.105,0.612-0.105,1.191v2.349h-1.372v-5.186h1.274v0.762
		c0.452-0.586,1.022-0.879,1.709-0.879c0.303,0,0.579,0.055,0.83,0.164c0.251,0.108,0.44,0.248,0.568,0.417
		c0.129,0.169,0.219,0.361,0.27,0.576c0.05,0.215,0.075,0.522,0.075,0.923V46.393z"/>
	<path style="fill:#2C6882;" d="M211.931,41.207h0.762v-0.391c0-0.437,0.047-0.762,0.139-0.977c0.094-0.215,0.264-0.39,0.514-0.525
		c0.248-0.135,0.563-0.202,0.944-0.202c0.391,0,0.773,0.059,1.147,0.176l-0.186,0.957c-0.218-0.052-0.428-0.078-0.63-0.078
		c-0.198,0-0.341,0.046-0.427,0.14c-0.087,0.092-0.13,0.271-0.13,0.534v0.366h1.025v1.079h-1.025v4.106h-1.372v-4.106h-0.762V41.207
		z"/>
	<path style="fill:#2C6882;" d="M215.404,43.727c0-0.456,0.112-0.896,0.337-1.323s0.543-0.752,0.954-0.977
		c0.412-0.225,0.872-0.337,1.38-0.337c0.784,0,1.428,0.255,1.929,0.764c0.501,0.51,0.752,1.153,0.752,1.932
		c0,0.784-0.253,1.435-0.76,1.951c-0.506,0.516-1.143,0.773-1.911,0.773c-0.476,0-0.929-0.107-1.36-0.322
		c-0.431-0.215-0.759-0.529-0.983-0.945C215.516,44.828,215.404,44.322,215.404,43.727z M216.81,43.8
		c0,0.515,0.122,0.908,0.366,1.182s0.545,0.41,0.903,0.41s0.658-0.137,0.9-0.41c0.243-0.273,0.364-0.671,0.364-1.191
		c0-0.508-0.121-0.898-0.364-1.172c-0.242-0.273-0.542-0.41-0.9-0.41s-0.659,0.137-0.903,0.41S216.81,43.285,216.81,43.8z"/>
	<path style="fill:#2C6882;" d="M225.078,48.365v-2.607c-0.179,0.231-0.402,0.414-0.669,0.549c-0.267,0.136-0.555,0.203-0.864,0.203
		c-0.589,0-1.074-0.222-1.455-0.664c-0.449-0.518-0.674-1.219-0.674-2.104c0-0.833,0.211-1.483,0.632-1.95
		c0.422-0.468,0.945-0.701,1.57-0.701c0.345,0,0.644,0.073,0.896,0.22c0.252,0.146,0.476,0.368,0.671,0.664v-0.767h1.265v7.158
		H225.078z M225.122,43.736c0-0.53-0.108-0.926-0.324-1.184c-0.217-0.26-0.488-0.389-0.813-0.389c-0.332,0-0.609,0.132-0.833,0.396
		c-0.223,0.264-0.334,0.682-0.334,1.255c0,0.569,0.107,0.98,0.322,1.232c0.215,0.253,0.48,0.379,0.796,0.379s0.593-0.142,0.83-0.425
		S225.122,44.296,225.122,43.736z"/>
	<path style="fill:#2C6882;" d="M231.071,46.393v-0.776c-0.188,0.276-0.438,0.495-0.744,0.654c-0.309,0.159-0.633,0.239-0.975,0.239
		c-0.349,0-0.661-0.076-0.938-0.229s-0.477-0.368-0.601-0.645s-0.186-0.659-0.186-1.147v-3.281h1.372v2.383
		c0,0.729,0.025,1.176,0.076,1.34c0.05,0.165,0.142,0.295,0.275,0.391c0.134,0.097,0.303,0.145,0.508,0.145
		c0.234,0,0.444-0.064,0.63-0.193c0.186-0.128,0.313-0.287,0.381-0.479c0.068-0.189,0.103-0.656,0.103-1.398v-2.188h1.372v5.186
		H231.071z"/>
	<path style="fill:#2C6882;" d="M236.63,44.742l1.367,0.229c-0.176,0.501-0.453,0.883-0.832,1.146
		c-0.38,0.262-0.854,0.393-1.424,0.393c-0.901,0-1.569-0.295-2.002-0.884c-0.342-0.472-0.513-1.067-0.513-1.787
		c0-0.859,0.225-1.532,0.674-2.019c0.449-0.487,1.018-0.73,1.704-0.73c0.771,0,1.38,0.255,1.826,0.764
		c0.446,0.51,0.659,1.29,0.64,2.342h-3.438c0.01,0.407,0.12,0.724,0.332,0.949c0.212,0.227,0.476,0.34,0.791,0.34
		c0.215,0,0.396-0.059,0.542-0.176S236.555,45.003,236.63,44.742z M236.708,43.356c-0.01-0.397-0.112-0.699-0.308-0.906
		c-0.195-0.206-0.433-0.31-0.713-0.31c-0.3,0-0.547,0.109-0.742,0.327s-0.291,0.515-0.288,0.889H236.708z"/>
	<path style="fill:#2C6882;" d="M241.647,41.207h1.279v0.762c0.166-0.261,0.391-0.472,0.674-0.635s0.598-0.244,0.942-0.244
		c0.603,0,1.113,0.236,1.533,0.708s0.63,1.13,0.63,1.973c0,0.866-0.212,1.539-0.635,2.019c-0.423,0.48-0.936,0.721-1.538,0.721
		c-0.286,0-0.546-0.057-0.779-0.171c-0.232-0.114-0.478-0.31-0.734-0.586v2.612h-1.372V41.207z M243.005,43.712
		c0,0.583,0.115,1.013,0.347,1.292c0.231,0.277,0.513,0.417,0.845,0.417c0.319,0,0.584-0.128,0.796-0.384
		c0.212-0.255,0.317-0.674,0.317-1.257c0-0.544-0.109-0.947-0.327-1.211s-0.488-0.396-0.811-0.396c-0.335,0-0.613,0.129-0.835,0.389
		C243.115,42.82,243.005,43.204,243.005,43.712z"/>
	<path style="fill:#2C6882;" d="M247.337,43.727c0-0.456,0.112-0.896,0.337-1.323s0.543-0.752,0.954-0.977
		c0.412-0.225,0.872-0.337,1.38-0.337c0.784,0,1.428,0.255,1.929,0.764c0.501,0.51,0.752,1.153,0.752,1.932
		c0,0.784-0.253,1.435-0.76,1.951c-0.506,0.516-1.143,0.773-1.911,0.773c-0.476,0-0.929-0.107-1.36-0.322
		c-0.431-0.215-0.759-0.529-0.983-0.945C247.449,44.828,247.337,44.322,247.337,43.727z M248.743,43.8
		c0,0.515,0.122,0.908,0.366,1.182s0.545,0.41,0.903,0.41s0.658-0.137,0.9-0.41c0.243-0.273,0.364-0.671,0.364-1.191
		c0-0.508-0.121-0.898-0.364-1.172c-0.242-0.273-0.542-0.41-0.9-0.41s-0.659,0.137-0.903,0.41S248.743,43.285,248.743,43.8z"/>
	<path style="fill:#2C6882;" d="M254.936,46.393h-1.372v-5.186h1.274v0.737c0.218-0.349,0.414-0.578,0.588-0.688
		c0.175-0.11,0.372-0.166,0.594-0.166c0.313,0,0.613,0.086,0.903,0.259l-0.425,1.196c-0.231-0.149-0.446-0.225-0.645-0.225
		c-0.192,0-0.354,0.053-0.488,0.158c-0.134,0.106-0.238,0.298-0.314,0.574c-0.077,0.276-0.115,0.856-0.115,1.738V46.393z"/>
	<path style="fill:#2C6882;" d="M259.973,41.207h1.279v0.762c0.166-0.261,0.391-0.472,0.674-0.635s0.598-0.244,0.942-0.244
		c0.603,0,1.113,0.236,1.533,0.708s0.63,1.13,0.63,1.973c0,0.866-0.212,1.539-0.635,2.019c-0.423,0.48-0.936,0.721-1.538,0.721
		c-0.286,0-0.546-0.057-0.779-0.171c-0.232-0.114-0.478-0.31-0.734-0.586v2.612h-1.372V41.207z M261.331,43.712
		c0,0.583,0.115,1.013,0.347,1.292c0.231,0.277,0.513,0.417,0.845,0.417c0.319,0,0.584-0.128,0.796-0.384
		c0.212-0.255,0.317-0.674,0.317-1.257c0-0.544-0.109-0.947-0.327-1.211s-0.488-0.396-0.811-0.396c-0.335,0-0.613,0.129-0.835,0.389
		C261.441,42.82,261.331,43.204,261.331,43.712z"/>
	<path style="fill:#2C6882;" d="M267.295,46.393h-1.372v-5.186h1.274v0.737c0.218-0.349,0.414-0.578,0.588-0.688
		c0.175-0.11,0.372-0.166,0.594-0.166c0.313,0,0.613,0.086,0.903,0.259l-0.425,1.196c-0.231-0.149-0.446-0.225-0.645-0.225
		c-0.192,0-0.354,0.053-0.488,0.158c-0.134,0.106-0.238,0.298-0.314,0.574c-0.077,0.276-0.115,0.856-0.115,1.738V46.393z"/>
	<path style="fill:#2C6882;" d="M269.416,43.727c0-0.456,0.112-0.896,0.337-1.323s0.543-0.752,0.954-0.977
		c0.412-0.225,0.872-0.337,1.38-0.337c0.784,0,1.428,0.255,1.929,0.764c0.501,0.51,0.752,1.153,0.752,1.932
		c0,0.784-0.253,1.435-0.76,1.951c-0.506,0.516-1.143,0.773-1.911,0.773c-0.476,0-0.929-0.107-1.36-0.322
		c-0.431-0.215-0.759-0.529-0.983-0.945C269.528,44.828,269.416,44.322,269.416,43.727z M270.822,43.8
		c0,0.515,0.122,0.908,0.366,1.182s0.545,0.41,0.903,0.41s0.658-0.137,0.9-0.41c0.243-0.273,0.364-0.671,0.364-1.191
		c0-0.508-0.121-0.898-0.364-1.172c-0.242-0.273-0.542-0.41-0.9-0.41s-0.659,0.137-0.903,0.41S270.822,43.285,270.822,43.8z"/>
	<path style="fill:#2C6882;" d="M280.223,42.74l-1.353,0.244c-0.046-0.271-0.148-0.474-0.311-0.61
		c-0.16-0.137-0.37-0.205-0.627-0.205c-0.342,0-0.614,0.118-0.818,0.354c-0.203,0.235-0.305,0.63-0.305,1.184
		c0,0.615,0.104,1.05,0.311,1.304c0.206,0.254,0.483,0.381,0.832,0.381c0.261,0,0.474-0.074,0.64-0.222
		c0.166-0.148,0.283-0.403,0.352-0.765l1.348,0.229c-0.14,0.618-0.408,1.086-0.806,1.401s-0.93,0.474-1.597,0.474
		c-0.759,0-1.363-0.239-1.813-0.718c-0.451-0.479-0.677-1.141-0.677-1.987c0-0.856,0.227-1.522,0.679-2
		c0.452-0.477,1.064-0.715,1.836-0.715c0.632,0,1.134,0.136,1.506,0.408C279.792,41.77,280.059,42.184,280.223,42.74z"/>
	<path style="fill:#2C6882;" d="M284.126,44.742l1.367,0.229c-0.176,0.501-0.453,0.883-0.832,1.146
		c-0.38,0.262-0.854,0.393-1.424,0.393c-0.901,0-1.569-0.295-2.002-0.884c-0.342-0.472-0.513-1.067-0.513-1.787
		c0-0.859,0.225-1.532,0.674-2.019c0.449-0.487,1.018-0.73,1.704-0.73c0.771,0,1.38,0.255,1.826,0.764
		c0.446,0.51,0.659,1.29,0.64,2.342h-3.438c0.01,0.407,0.12,0.724,0.332,0.949c0.212,0.227,0.476,0.34,0.791,0.34
		c0.215,0,0.396-0.059,0.542-0.176S284.051,45.003,284.126,44.742z M284.204,43.356c-0.01-0.397-0.112-0.699-0.308-0.906
		c-0.195-0.206-0.433-0.31-0.713-0.31c-0.3,0-0.547,0.109-0.742,0.327s-0.291,0.515-0.288,0.889H284.204z"/>
	<path style="fill:#2C6882;" d="M286.061,44.913l1.377-0.21c0.059,0.267,0.178,0.47,0.356,0.607c0.179,0.139,0.43,0.208,0.752,0.208
		c0.354,0,0.622-0.065,0.801-0.195c0.12-0.091,0.181-0.213,0.181-0.366c0-0.104-0.032-0.19-0.098-0.259
		c-0.068-0.065-0.222-0.125-0.459-0.181c-1.106-0.244-1.809-0.467-2.104-0.669c-0.41-0.28-0.615-0.669-0.615-1.167
		c0-0.449,0.178-0.827,0.532-1.133s0.905-0.459,1.65-0.459c0.71,0,1.237,0.115,1.582,0.347s0.583,0.573,0.713,1.025l-1.294,0.239
		c-0.056-0.202-0.16-0.356-0.315-0.464c-0.154-0.107-0.375-0.161-0.661-0.161c-0.361,0-0.62,0.051-0.776,0.151
		c-0.104,0.071-0.156,0.164-0.156,0.278c0,0.098,0.046,0.181,0.137,0.249c0.124,0.091,0.551,0.22,1.281,0.386
		c0.731,0.166,1.241,0.369,1.531,0.61c0.286,0.244,0.43,0.584,0.43,1.021c0,0.476-0.198,0.884-0.596,1.226s-0.984,0.513-1.763,0.513
		c-0.706,0-1.266-0.144-1.677-0.43C286.458,45.794,286.188,45.404,286.061,44.913z"/>
	<path style="fill:#2C6882;" d="M291.648,43.727c0-0.456,0.112-0.896,0.337-1.323s0.543-0.752,0.954-0.977
		c0.412-0.225,0.872-0.337,1.38-0.337c0.784,0,1.428,0.255,1.929,0.764c0.501,0.51,0.752,1.153,0.752,1.932
		c0,0.784-0.253,1.435-0.76,1.951c-0.506,0.516-1.143,0.773-1.911,0.773c-0.476,0-0.929-0.107-1.36-0.322
		c-0.431-0.215-0.759-0.529-0.983-0.945C291.761,44.828,291.648,44.322,291.648,43.727z M293.055,43.8
		c0,0.515,0.122,0.908,0.366,1.182s0.545,0.41,0.903,0.41s0.658-0.137,0.9-0.41c0.243-0.273,0.364-0.671,0.364-1.191
		c0-0.508-0.121-0.898-0.364-1.172c-0.242-0.273-0.542-0.41-0.9-0.41s-0.659,0.137-0.903,0.41S293.055,43.285,293.055,43.8z"/>
	<path style="fill:#2C6882;" d="M297.451,44.913l1.377-0.21c0.059,0.267,0.178,0.47,0.356,0.607c0.179,0.139,0.43,0.208,0.752,0.208
		c0.354,0,0.622-0.065,0.801-0.195c0.12-0.091,0.181-0.213,0.181-0.366c0-0.104-0.032-0.19-0.098-0.259
		c-0.068-0.065-0.222-0.125-0.459-0.181c-1.106-0.244-1.809-0.467-2.104-0.669c-0.41-0.28-0.615-0.669-0.615-1.167
		c0-0.449,0.178-0.827,0.532-1.133s0.905-0.459,1.65-0.459c0.71,0,1.237,0.115,1.582,0.347s0.583,0.573,0.713,1.025l-1.294,0.239
		c-0.056-0.202-0.16-0.356-0.315-0.464c-0.154-0.107-0.375-0.161-0.661-0.161c-0.361,0-0.62,0.051-0.776,0.151
		c-0.104,0.071-0.156,0.164-0.156,0.278c0,0.098,0.046,0.181,0.137,0.249c0.124,0.091,0.551,0.22,1.281,0.386
		c0.731,0.166,1.241,0.369,1.531,0.61c0.286,0.244,0.43,0.584,0.43,1.021c0,0.476-0.198,0.884-0.596,1.226s-0.984,0.513-1.763,0.513
		c-0.706,0-1.266-0.144-1.677-0.43C297.848,45.794,297.578,45.404,297.451,44.913z"/>
	<path style="fill:#2C6882;" d="M49.137,53.207h1.279v0.762c0.166-0.261,0.391-0.472,0.674-0.635s0.598-0.244,0.942-0.244
		c0.603,0,1.113,0.236,1.533,0.708s0.63,1.13,0.63,1.973c0,0.866-0.212,1.539-0.635,2.019c-0.423,0.48-0.936,0.721-1.538,0.721
		c-0.286,0-0.546-0.057-0.779-0.171c-0.232-0.114-0.478-0.31-0.734-0.586v2.612h-1.372V53.207z M50.494,55.712
		c0,0.583,0.115,1.013,0.347,1.292c0.231,0.277,0.513,0.417,0.845,0.417c0.319,0,0.584-0.128,0.796-0.384
		c0.212-0.255,0.317-0.674,0.317-1.257c0-0.544-0.109-0.947-0.327-1.211s-0.488-0.396-0.811-0.396c-0.335,0-0.613,0.129-0.835,0.389
		C50.604,54.82,50.494,55.204,50.494,55.712z"/>
	<path style="fill:#2C6882;" d="M56.17,54.789l-1.245-0.225c0.14-0.501,0.381-0.872,0.723-1.113s0.85-0.361,1.523-0.361
		c0.612,0,1.067,0.072,1.367,0.217c0.3,0.146,0.51,0.329,0.633,0.553c0.121,0.223,0.183,0.632,0.183,1.228l-0.015,1.602
		c0,0.456,0.021,0.792,0.066,1.009c0.043,0.216,0.126,0.448,0.246,0.695h-1.357c-0.036-0.091-0.08-0.227-0.132-0.405
		c-0.022-0.081-0.039-0.135-0.049-0.161c-0.234,0.228-0.485,0.398-0.752,0.513s-0.552,0.171-0.854,0.171
		c-0.534,0-0.955-0.145-1.262-0.435c-0.309-0.29-0.462-0.656-0.462-1.099c0-0.293,0.07-0.555,0.21-0.783
		c0.14-0.23,0.336-0.406,0.588-0.527c0.253-0.123,0.616-0.229,1.092-0.32c0.642-0.12,1.086-0.232,1.333-0.337v-0.137
		c0-0.264-0.065-0.452-0.195-0.563c-0.13-0.113-0.376-0.169-0.737-0.169c-0.244,0-0.435,0.048-0.571,0.144
		C56.365,54.38,56.255,54.548,56.17,54.789z M58.006,55.902c-0.176,0.059-0.454,0.129-0.835,0.21s-0.63,0.161-0.747,0.239
		c-0.179,0.127-0.269,0.288-0.269,0.483c0,0.192,0.071,0.358,0.215,0.498s0.325,0.21,0.547,0.21c0.247,0,0.483-0.081,0.708-0.244
		c0.166-0.124,0.275-0.275,0.327-0.454c0.036-0.117,0.054-0.34,0.054-0.669V55.902z"/>
	<path style="fill:#2C6882;" d="M61.879,58.393h-1.372v-5.186h1.274v0.737c0.218-0.349,0.414-0.578,0.588-0.688
		c0.175-0.11,0.372-0.166,0.594-0.166c0.313,0,0.613,0.086,0.903,0.259l-0.425,1.196c-0.231-0.149-0.446-0.225-0.645-0.225
		c-0.192,0-0.354,0.053-0.488,0.158c-0.134,0.106-0.238,0.298-0.314,0.574c-0.077,0.276-0.115,0.856-0.115,1.738V58.393z"/>
	<path style="fill:#2C6882;" d="M65.343,54.789l-1.245-0.225c0.14-0.501,0.381-0.872,0.723-1.113s0.85-0.361,1.523-0.361
		c0.612,0,1.067,0.072,1.367,0.217c0.3,0.146,0.51,0.329,0.633,0.553c0.121,0.223,0.183,0.632,0.183,1.228l-0.015,1.602
		c0,0.456,0.021,0.792,0.066,1.009c0.043,0.216,0.126,0.448,0.246,0.695h-1.357c-0.036-0.091-0.08-0.227-0.132-0.405
		c-0.022-0.081-0.039-0.135-0.049-0.161c-0.234,0.228-0.485,0.398-0.752,0.513s-0.552,0.171-0.854,0.171
		c-0.534,0-0.955-0.145-1.262-0.435c-0.309-0.29-0.462-0.656-0.462-1.099c0-0.293,0.07-0.555,0.21-0.783
		c0.14-0.23,0.336-0.406,0.588-0.527c0.253-0.123,0.616-0.229,1.092-0.32c0.642-0.12,1.086-0.232,1.333-0.337v-0.137
		c0-0.264-0.065-0.452-0.195-0.563c-0.13-0.113-0.376-0.169-0.737-0.169c-0.244,0-0.435,0.048-0.571,0.144
		C65.538,54.38,65.428,54.548,65.343,54.789z M67.179,55.902c-0.176,0.059-0.454,0.129-0.835,0.21s-0.63,0.161-0.747,0.239
		c-0.179,0.127-0.269,0.288-0.269,0.483c0,0.192,0.071,0.358,0.215,0.498s0.325,0.21,0.547,0.21c0.247,0,0.483-0.081,0.708-0.244
		c0.166-0.124,0.275-0.275,0.327-0.454c0.036-0.117,0.054-0.34,0.054-0.669V55.902z"/>
	<path style="fill:#2C6882;" d="M72.377,58.393v-7.158h1.372v7.158H72.377z"/>
	<path style="fill:#2C6882;" d="M78.018,56.742l1.367,0.229c-0.176,0.501-0.453,0.883-0.832,1.146
		c-0.38,0.262-0.854,0.393-1.424,0.393c-0.901,0-1.569-0.295-2.002-0.884c-0.342-0.472-0.513-1.067-0.513-1.787
		c0-0.859,0.225-1.532,0.674-2.019c0.449-0.487,1.018-0.73,1.704-0.73c0.771,0,1.38,0.255,1.826,0.764
		c0.446,0.51,0.659,1.29,0.64,2.342h-3.438c0.01,0.407,0.12,0.724,0.332,0.949c0.212,0.227,0.476,0.34,0.791,0.34
		c0.215,0,0.396-0.059,0.542-0.176S77.943,57.003,78.018,56.742z M78.097,55.356c-0.01-0.397-0.112-0.699-0.308-0.906
		c-0.195-0.206-0.433-0.31-0.713-0.31c-0.3,0-0.547,0.109-0.742,0.327s-0.291,0.515-0.288,0.889H78.097z"/>
	<path style="fill:#2C6882;" d="M81.862,58.393l-2.09-5.186h1.44l0.977,2.646l0.283,0.884c0.075-0.225,0.122-0.373,0.142-0.444
		c0.046-0.146,0.095-0.293,0.146-0.439l0.986-2.646h1.411l-2.061,5.186H81.862z"/>
	<path style="fill:#2C6882;" d="M86.884,54.789l-1.245-0.225c0.14-0.501,0.381-0.872,0.723-1.113s0.85-0.361,1.523-0.361
		c0.612,0,1.067,0.072,1.367,0.217c0.3,0.146,0.51,0.329,0.633,0.553c0.121,0.223,0.183,0.632,0.183,1.228l-0.015,1.602
		c0,0.456,0.021,0.792,0.066,1.009c0.043,0.216,0.126,0.448,0.246,0.695h-1.357c-0.036-0.091-0.08-0.227-0.132-0.405
		c-0.022-0.081-0.039-0.135-0.049-0.161c-0.234,0.228-0.485,0.398-0.752,0.513s-0.552,0.171-0.854,0.171
		c-0.534,0-0.955-0.145-1.262-0.435c-0.309-0.29-0.462-0.656-0.462-1.099c0-0.293,0.07-0.555,0.21-0.783
		c0.14-0.23,0.336-0.406,0.588-0.527c0.253-0.123,0.616-0.229,1.092-0.32c0.642-0.12,1.086-0.232,1.333-0.337v-0.137
		c0-0.264-0.065-0.452-0.195-0.563c-0.13-0.113-0.376-0.169-0.737-0.169c-0.244,0-0.435,0.048-0.571,0.144
		C87.079,54.38,86.969,54.548,86.884,54.789z M88.72,55.902c-0.176,0.059-0.454,0.129-0.835,0.21s-0.63,0.161-0.747,0.239
		c-0.179,0.127-0.269,0.288-0.269,0.483c0,0.192,0.071,0.358,0.215,0.498s0.325,0.21,0.547,0.21c0.247,0,0.483-0.081,0.708-0.244
		c0.166-0.124,0.275-0.275,0.327-0.454c0.036-0.117,0.054-0.34,0.054-0.669V55.902z"/>
	<path style="fill:#2C6882;" d="M95.997,58.393h-1.372v-2.646c0-0.56-0.029-0.922-0.088-1.086c-0.059-0.165-0.154-0.293-0.285-0.384
		c-0.133-0.091-0.291-0.137-0.477-0.137c-0.237,0-0.451,0.065-0.64,0.195s-0.318,0.303-0.388,0.518
		c-0.07,0.215-0.105,0.612-0.105,1.191v2.349H91.27v-5.186h1.274v0.762c0.452-0.586,1.022-0.879,1.709-0.879
		c0.303,0,0.579,0.055,0.83,0.164c0.251,0.108,0.44,0.248,0.568,0.417c0.129,0.169,0.219,0.361,0.27,0.576
		c0.05,0.215,0.075,0.522,0.075,0.923V58.393z"/>
	<path style="fill:#2C6882;" d="M99.626,53.207v1.094h-0.938v2.09c0,0.423,0.009,0.67,0.027,0.74
		c0.018,0.069,0.059,0.127,0.121,0.173c0.064,0.046,0.142,0.068,0.232,0.068c0.127,0,0.311-0.044,0.552-0.132l0.117,1.064
		c-0.319,0.137-0.681,0.205-1.084,0.205c-0.247,0-0.471-0.041-0.669-0.125c-0.198-0.082-0.344-0.189-0.438-0.322
		c-0.092-0.131-0.156-0.31-0.192-0.534c-0.029-0.159-0.044-0.481-0.044-0.967v-2.261h-0.63v-1.094h0.63v-1.03l1.377-0.801v1.831
		H99.626z"/>
	<path style="fill:#2C6882;" d="M101.464,54.789l-1.245-0.225c0.14-0.501,0.381-0.872,0.723-1.113s0.85-0.361,1.523-0.361
		c0.612,0,1.067,0.072,1.367,0.217c0.3,0.146,0.51,0.329,0.633,0.553c0.121,0.223,0.183,0.632,0.183,1.228l-0.015,1.602
		c0,0.456,0.021,0.792,0.066,1.009c0.043,0.216,0.126,0.448,0.246,0.695h-1.357c-0.036-0.091-0.08-0.227-0.132-0.405
		c-0.022-0.081-0.039-0.135-0.049-0.161c-0.234,0.228-0.485,0.398-0.752,0.513s-0.552,0.171-0.854,0.171
		c-0.534,0-0.955-0.145-1.262-0.435c-0.309-0.29-0.462-0.656-0.462-1.099c0-0.293,0.07-0.555,0.21-0.783
		c0.14-0.23,0.336-0.406,0.588-0.527c0.253-0.123,0.616-0.229,1.092-0.32c0.642-0.12,1.086-0.232,1.333-0.337v-0.137
		c0-0.264-0.065-0.452-0.195-0.563c-0.13-0.113-0.376-0.169-0.737-0.169c-0.244,0-0.435,0.048-0.571,0.144
		C101.659,54.38,101.549,54.548,101.464,54.789z M103.3,55.902c-0.176,0.059-0.454,0.129-0.835,0.21s-0.63,0.161-0.747,0.239
		c-0.179,0.127-0.269,0.288-0.269,0.483c0,0.192,0.071,0.358,0.215,0.498s0.325,0.21,0.547,0.21c0.247,0,0.483-0.081,0.708-0.244
		c0.166-0.124,0.275-0.275,0.327-0.454c0.036-0.117,0.054-0.34,0.054-0.669V55.902z"/>
	<path style="fill:#2C6882;" d="M107.174,58.393h-1.372v-5.186h1.274v0.737c0.218-0.349,0.414-0.578,0.588-0.688
		c0.175-0.11,0.372-0.166,0.594-0.166c0.313,0,0.613,0.086,0.903,0.259l-0.425,1.196c-0.231-0.149-0.446-0.225-0.645-0.225
		c-0.192,0-0.354,0.053-0.488,0.158c-0.134,0.106-0.238,0.298-0.314,0.574c-0.077,0.276-0.115,0.856-0.115,1.738V58.393z"/>
	<path style="fill:#2C6882;" d="M113.563,58.393h-1.372v-5.186h1.274v0.737c0.218-0.349,0.414-0.578,0.588-0.688
		c0.175-0.11,0.372-0.166,0.594-0.166c0.313,0,0.613,0.086,0.903,0.259l-0.425,1.196c-0.231-0.149-0.446-0.225-0.645-0.225
		c-0.192,0-0.354,0.053-0.488,0.158c-0.134,0.106-0.238,0.298-0.314,0.574c-0.077,0.276-0.115,0.856-0.115,1.738V58.393z"/>
	<path style="fill:#2C6882;" d="M119.005,56.742l1.367,0.229c-0.176,0.501-0.453,0.883-0.832,1.146
		c-0.38,0.262-0.854,0.393-1.424,0.393c-0.901,0-1.569-0.295-2.002-0.884c-0.342-0.472-0.513-1.067-0.513-1.787
		c0-0.859,0.225-1.532,0.674-2.019c0.449-0.487,1.018-0.73,1.704-0.73c0.771,0,1.38,0.255,1.826,0.764
		c0.446,0.51,0.659,1.29,0.64,2.342h-3.438c0.01,0.407,0.12,0.724,0.332,0.949c0.212,0.227,0.476,0.34,0.791,0.34
		c0.215,0,0.396-0.059,0.542-0.176S118.93,57.003,119.005,56.742z M119.083,55.356c-0.01-0.397-0.112-0.699-0.308-0.906
		c-0.195-0.206-0.433-0.31-0.713-0.31c-0.3,0-0.547,0.109-0.742,0.327s-0.291,0.515-0.288,0.889H119.083z"/>
	<path style="fill:#2C6882;" d="M124.811,60.365v-2.607c-0.179,0.231-0.402,0.414-0.669,0.549c-0.267,0.136-0.555,0.203-0.864,0.203
		c-0.589,0-1.074-0.222-1.455-0.664c-0.449-0.518-0.674-1.219-0.674-2.104c0-0.833,0.211-1.483,0.632-1.95
		c0.422-0.468,0.945-0.701,1.57-0.701c0.345,0,0.644,0.073,0.896,0.22c0.252,0.146,0.476,0.368,0.671,0.664v-0.767h1.265v7.158
		H124.811z M124.855,55.736c0-0.53-0.108-0.926-0.324-1.184c-0.217-0.26-0.488-0.389-0.813-0.389c-0.332,0-0.609,0.132-0.833,0.396
		c-0.223,0.264-0.334,0.682-0.334,1.255c0,0.569,0.107,0.98,0.322,1.232c0.215,0.253,0.48,0.379,0.796,0.379s0.593-0.142,0.83-0.425
		S124.855,56.296,124.855,55.736z"/>
	<path style="fill:#2C6882;" d="M130.805,58.393v-0.776c-0.188,0.276-0.438,0.495-0.744,0.654c-0.309,0.159-0.633,0.239-0.975,0.239
		c-0.349,0-0.661-0.076-0.938-0.229s-0.477-0.368-0.601-0.645s-0.186-0.659-0.186-1.147v-3.281h1.372v2.383
		c0,0.729,0.025,1.176,0.076,1.34c0.05,0.165,0.142,0.295,0.275,0.391c0.134,0.097,0.303,0.145,0.508,0.145
		c0.234,0,0.444-0.064,0.63-0.193c0.186-0.128,0.313-0.287,0.381-0.479c0.068-0.189,0.103-0.656,0.103-1.398v-2.188h1.372v5.186
		H130.805z"/>
	<path style="fill:#2C6882;" d="M136.363,56.742l1.367,0.229c-0.176,0.501-0.453,0.883-0.832,1.146
		c-0.38,0.262-0.854,0.393-1.424,0.393c-0.901,0-1.569-0.295-2.002-0.884c-0.342-0.472-0.513-1.067-0.513-1.787
		c0-0.859,0.225-1.532,0.674-2.019c0.449-0.487,1.018-0.73,1.704-0.73c0.771,0,1.38,0.255,1.826,0.764
		c0.446,0.51,0.659,1.29,0.64,2.342h-3.438c0.01,0.407,0.12,0.724,0.332,0.949c0.212,0.227,0.476,0.34,0.791,0.34
		c0.215,0,0.396-0.059,0.542-0.176S136.288,57.003,136.363,56.742z M136.441,55.356c-0.01-0.397-0.112-0.699-0.308-0.906
		c-0.195-0.206-0.433-0.31-0.713-0.31c-0.3,0-0.547,0.109-0.742,0.327s-0.291,0.515-0.288,0.889H136.441z"/>
	<path style="fill:#2C6882;" d="M140.095,58.393h-1.372v-5.186h1.274v0.737c0.218-0.349,0.414-0.578,0.588-0.688
		c0.175-0.11,0.372-0.166,0.594-0.166c0.313,0,0.613,0.086,0.903,0.259l-0.425,1.196c-0.231-0.149-0.446-0.225-0.645-0.225
		c-0.192,0-0.354,0.053-0.488,0.158c-0.134,0.106-0.238,0.298-0.314,0.574c-0.077,0.276-0.115,0.856-0.115,1.738V58.393z"/>
	<path style="fill:#2C6882;" d="M142.533,52.504v-1.27h1.372v1.27H142.533z M142.533,58.393v-5.186h1.372v5.186H142.533z"/>
	<path style="fill:#2C6882;" d="M145.068,53.207h1.265v0.708c0.452-0.55,0.991-0.825,1.616-0.825c0.332,0,0.62,0.068,0.864,0.205
		s0.444,0.344,0.601,0.62c0.228-0.276,0.474-0.483,0.737-0.62s0.545-0.205,0.845-0.205c0.381,0,0.703,0.077,0.967,0.232
		c0.264,0.154,0.461,0.381,0.591,0.681c0.095,0.222,0.142,0.579,0.142,1.074v3.315h-1.372v-2.964c0-0.515-0.047-0.847-0.142-0.996
		c-0.127-0.195-0.322-0.293-0.586-0.293c-0.192,0-0.373,0.059-0.542,0.176s-0.291,0.289-0.366,0.515
		c-0.075,0.227-0.112,0.584-0.112,1.072v2.49h-1.372v-2.842c0-0.505-0.024-0.83-0.073-0.977s-0.124-0.256-0.228-0.327
		c-0.102-0.071-0.241-0.107-0.417-0.107c-0.212,0-0.402,0.057-0.571,0.171s-0.291,0.278-0.363,0.493
		c-0.074,0.215-0.11,0.571-0.11,1.069v2.52h-1.372V53.207z"/>
	<path style="fill:#2C6882;" d="M153.923,52.504v-1.27h1.372v1.27H153.923z M153.923,58.393v-5.186h1.372v5.186H153.923z"/>
	<path style="fill:#2C6882;" d="M159.564,56.742l1.367,0.229c-0.176,0.501-0.453,0.883-0.832,1.146
		c-0.38,0.262-0.854,0.393-1.424,0.393c-0.901,0-1.569-0.295-2.002-0.884c-0.342-0.472-0.513-1.067-0.513-1.787
		c0-0.859,0.225-1.532,0.674-2.019c0.449-0.487,1.018-0.73,1.704-0.73c0.771,0,1.38,0.255,1.826,0.764
		c0.446,0.51,0.659,1.29,0.64,2.342h-3.438c0.01,0.407,0.12,0.724,0.332,0.949c0.212,0.227,0.476,0.34,0.791,0.34
		c0.215,0,0.396-0.059,0.542-0.176S159.489,57.003,159.564,56.742z M159.642,55.356c-0.01-0.397-0.112-0.699-0.308-0.906
		c-0.195-0.206-0.433-0.31-0.713-0.31c-0.3,0-0.547,0.109-0.742,0.327s-0.291,0.515-0.288,0.889H159.642z"/>
	<path style="fill:#2C6882;" d="M166.699,58.393h-1.372v-2.646c0-0.56-0.029-0.922-0.088-1.086
		c-0.059-0.165-0.154-0.293-0.285-0.384c-0.133-0.091-0.291-0.137-0.477-0.137c-0.237,0-0.451,0.065-0.64,0.195
		s-0.318,0.303-0.388,0.518c-0.07,0.215-0.105,0.612-0.105,1.191v2.349h-1.372v-5.186h1.274v0.762
		c0.452-0.586,1.022-0.879,1.709-0.879c0.303,0,0.579,0.055,0.83,0.164c0.251,0.108,0.44,0.248,0.568,0.417
		c0.129,0.169,0.219,0.361,0.27,0.576c0.05,0.215,0.075,0.522,0.075,0.923V58.393z"/>
	<path style="fill:#2C6882;" d="M170.329,53.207v1.094h-0.938v2.09c0,0.423,0.009,0.67,0.027,0.74
		c0.018,0.069,0.059,0.127,0.121,0.173c0.064,0.046,0.142,0.068,0.232,0.068c0.127,0,0.311-0.044,0.552-0.132l0.117,1.064
		c-0.319,0.137-0.681,0.205-1.084,0.205c-0.247,0-0.471-0.041-0.669-0.125c-0.198-0.082-0.344-0.189-0.438-0.322
		c-0.092-0.131-0.156-0.31-0.192-0.534c-0.029-0.159-0.044-0.481-0.044-0.967v-2.261h-0.63v-1.094h0.63v-1.03l1.377-0.801v1.831
		H170.329z"/>
	<path style="fill:#2C6882;" d="M170.824,55.727c0-0.456,0.112-0.896,0.337-1.323s0.543-0.752,0.954-0.977
		c0.412-0.225,0.872-0.337,1.38-0.337c0.784,0,1.428,0.255,1.929,0.764c0.501,0.51,0.752,1.153,0.752,1.932
		c0,0.784-0.253,1.435-0.76,1.951c-0.506,0.516-1.143,0.773-1.911,0.773c-0.476,0-0.929-0.107-1.36-0.322
		c-0.431-0.215-0.759-0.529-0.983-0.945C170.936,56.828,170.824,56.322,170.824,55.727z M172.23,55.8
		c0,0.515,0.122,0.908,0.366,1.182s0.545,0.41,0.903,0.41s0.658-0.137,0.9-0.41c0.243-0.273,0.364-0.671,0.364-1.191
		c0-0.508-0.121-0.898-0.364-1.172c-0.242-0.273-0.542-0.41-0.9-0.41s-0.659,0.137-0.903,0.41S172.23,55.285,172.23,55.8z"/>
	<path style="fill:#2C6882;" d="M176.626,56.913l1.377-0.21c0.059,0.267,0.178,0.47,0.356,0.607c0.179,0.139,0.43,0.208,0.752,0.208
		c0.354,0,0.622-0.065,0.801-0.195c0.12-0.091,0.181-0.213,0.181-0.366c0-0.104-0.032-0.19-0.098-0.259
		c-0.068-0.065-0.222-0.125-0.459-0.181c-1.106-0.244-1.809-0.467-2.104-0.669c-0.41-0.28-0.615-0.669-0.615-1.167
		c0-0.449,0.178-0.827,0.532-1.133s0.905-0.459,1.65-0.459c0.71,0,1.237,0.115,1.582,0.347s0.583,0.573,0.713,1.025L180,54.701
		c-0.056-0.202-0.16-0.356-0.315-0.464c-0.154-0.107-0.375-0.161-0.661-0.161c-0.361,0-0.62,0.051-0.776,0.151
		c-0.104,0.071-0.156,0.164-0.156,0.278c0,0.098,0.046,0.181,0.137,0.249c0.124,0.091,0.551,0.22,1.281,0.386
		c0.731,0.166,1.241,0.369,1.531,0.61c0.286,0.244,0.43,0.584,0.43,1.021c0,0.476-0.198,0.884-0.596,1.226s-0.984,0.513-1.763,0.513
		c-0.706,0-1.266-0.144-1.677-0.43C177.022,57.794,176.753,57.404,176.626,56.913z"/>
	<path style="fill:#2C6882;" d="M188.173,56.742l1.367,0.229c-0.176,0.501-0.453,0.883-0.832,1.146
		c-0.38,0.262-0.854,0.393-1.424,0.393c-0.901,0-1.569-0.295-2.002-0.884c-0.342-0.472-0.513-1.067-0.513-1.787
		c0-0.859,0.225-1.532,0.674-2.019c0.449-0.487,1.018-0.73,1.704-0.73c0.771,0,1.38,0.255,1.826,0.764
		c0.446,0.51,0.659,1.29,0.64,2.342h-3.438c0.01,0.407,0.12,0.724,0.332,0.949c0.212,0.227,0.476,0.34,0.791,0.34
		c0.215,0,0.396-0.059,0.542-0.176S188.098,57.003,188.173,56.742z M188.251,55.356c-0.01-0.397-0.112-0.699-0.308-0.906
		c-0.195-0.206-0.433-0.31-0.713-0.31c-0.3,0-0.547,0.109-0.742,0.327s-0.291,0.515-0.288,0.889H188.251z"/>
	<path style="fill:#2C6882;" d="M195.307,58.393h-1.372v-2.646c0-0.56-0.029-0.922-0.088-1.086
		c-0.059-0.165-0.154-0.293-0.285-0.384c-0.133-0.091-0.291-0.137-0.477-0.137c-0.237,0-0.451,0.065-0.64,0.195
		s-0.318,0.303-0.388,0.518c-0.07,0.215-0.105,0.612-0.105,1.191v2.349h-1.372v-5.186h1.274v0.762
		c0.452-0.586,1.022-0.879,1.709-0.879c0.303,0,0.579,0.055,0.83,0.164c0.251,0.108,0.44,0.248,0.568,0.417
		c0.129,0.169,0.219,0.361,0.27,0.576c0.05,0.215,0.075,0.522,0.075,0.923V58.393z"/>
	<path style="fill:#2C6882;" d="M202.61,58.393v-0.776c-0.188,0.276-0.438,0.495-0.744,0.654c-0.309,0.159-0.633,0.239-0.975,0.239
		c-0.349,0-0.661-0.076-0.938-0.229s-0.477-0.368-0.601-0.645s-0.186-0.659-0.186-1.147v-3.281h1.372v2.383
		c0,0.729,0.025,1.176,0.076,1.34c0.05,0.165,0.142,0.295,0.275,0.391c0.134,0.097,0.303,0.145,0.508,0.145
		c0.234,0,0.444-0.064,0.63-0.193c0.186-0.128,0.313-0.287,0.381-0.479c0.068-0.189,0.103-0.656,0.103-1.398v-2.188h1.372v5.186
		H202.61z"/>
	<path style="fill:#2C6882;" d="M209.883,58.393h-1.372v-2.646c0-0.56-0.029-0.922-0.088-1.086
		c-0.059-0.165-0.154-0.293-0.285-0.384c-0.133-0.091-0.291-0.137-0.477-0.137c-0.237,0-0.451,0.065-0.64,0.195
		s-0.318,0.303-0.388,0.518c-0.07,0.215-0.105,0.612-0.105,1.191v2.349h-1.372v-5.186h1.274v0.762
		c0.452-0.586,1.022-0.879,1.709-0.879c0.303,0,0.579,0.055,0.83,0.164c0.251,0.108,0.44,0.248,0.568,0.417
		c0.129,0.169,0.219,0.361,0.27,0.576c0.05,0.215,0.075,0.522,0.075,0.923V58.393z"/>
	<path style="fill:#2C6882;" d="M212.16,54.789l-1.245-0.225c0.14-0.501,0.381-0.872,0.723-1.113s0.85-0.361,1.523-0.361
		c0.612,0,1.067,0.072,1.367,0.217c0.3,0.146,0.51,0.329,0.633,0.553c0.121,0.223,0.183,0.632,0.183,1.228l-0.015,1.602
		c0,0.456,0.021,0.792,0.066,1.009c0.043,0.216,0.126,0.448,0.246,0.695h-1.357c-0.036-0.091-0.08-0.227-0.132-0.405
		c-0.022-0.081-0.039-0.135-0.049-0.161c-0.234,0.228-0.485,0.398-0.752,0.513s-0.552,0.171-0.854,0.171
		c-0.534,0-0.955-0.145-1.262-0.435c-0.309-0.29-0.462-0.656-0.462-1.099c0-0.293,0.07-0.555,0.21-0.783
		c0.14-0.23,0.336-0.406,0.588-0.527c0.253-0.123,0.616-0.229,1.092-0.32c0.642-0.12,1.086-0.232,1.333-0.337v-0.137
		c0-0.264-0.065-0.452-0.195-0.563c-0.13-0.113-0.376-0.169-0.737-0.169c-0.244,0-0.435,0.048-0.571,0.144
		C212.355,54.38,212.245,54.548,212.16,54.789z M213.996,55.902c-0.176,0.059-0.454,0.129-0.835,0.21s-0.63,0.161-0.747,0.239
		c-0.179,0.127-0.269,0.288-0.269,0.483c0,0.192,0.071,0.358,0.215,0.498s0.325,0.21,0.547,0.21c0.247,0,0.483-0.081,0.708-0.244
		c0.166-0.124,0.275-0.275,0.327-0.454c0.036-0.117,0.054-0.34,0.054-0.669V55.902z"/>
	<path style="fill:#2C6882;" d="M218.911,54.858c0-0.729,0.109-1.341,0.327-1.836c0.163-0.364,0.385-0.691,0.666-0.981
		c0.282-0.29,0.591-0.505,0.926-0.645c0.446-0.188,0.96-0.283,1.543-0.283c1.055,0,1.898,0.327,2.531,0.981
		c0.634,0.654,0.95,1.564,0.95,2.729c0,1.155-0.314,2.06-0.942,2.712c-0.628,0.653-1.468,0.979-2.52,0.979
		c-1.064,0-1.911-0.325-2.539-0.974C219.225,56.891,218.911,55.997,218.911,54.858z M220.4,54.809c0,0.811,0.188,1.425,0.562,1.844
		c0.374,0.418,0.85,0.627,1.426,0.627s1.049-0.207,1.419-0.623c0.369-0.414,0.554-1.037,0.554-1.867c0-0.82-0.18-1.433-0.54-1.836
		c-0.359-0.403-0.837-0.605-1.433-0.605s-1.076,0.204-1.44,0.613C220.583,53.369,220.4,53.985,220.4,54.809z"/>
	<path style="fill:#2C6882;" d="M228.146,58.393h-1.372v-5.186h1.274v0.737c0.218-0.349,0.414-0.578,0.588-0.688
		c0.175-0.11,0.372-0.166,0.594-0.166c0.313,0,0.613,0.086,0.903,0.259l-0.425,1.196c-0.231-0.149-0.446-0.225-0.645-0.225
		c-0.192,0-0.354,0.053-0.488,0.158c-0.134,0.106-0.238,0.298-0.314,0.574c-0.077,0.276-0.115,0.856-0.115,1.738V58.393z"/>
	<path style="fill:#2C6882;" d="M230.457,58.735l1.567,0.19c0.026,0.183,0.086,0.308,0.181,0.376
		c0.13,0.098,0.335,0.146,0.615,0.146c0.358,0,0.627-0.054,0.806-0.161c0.12-0.071,0.212-0.188,0.273-0.347
		c0.042-0.114,0.063-0.324,0.063-0.63v-0.757c-0.41,0.56-0.928,0.84-1.553,0.84c-0.696,0-1.248-0.295-1.655-0.884
		c-0.319-0.466-0.479-1.045-0.479-1.738c0-0.869,0.209-1.533,0.627-1.992c0.419-0.459,0.938-0.688,1.561-0.688
		c0.642,0,1.17,0.281,1.587,0.845v-0.728h1.284v4.653c0,0.612-0.051,1.069-0.151,1.372s-0.242,0.54-0.425,0.713
		s-0.426,0.308-0.73,0.405c-0.304,0.098-0.688,0.146-1.154,0.146c-0.879,0-1.502-0.15-1.87-0.452
		c-0.368-0.301-0.552-0.683-0.552-1.145C230.452,58.855,230.454,58.8,230.457,58.735z M231.682,55.693
		c0,0.55,0.106,0.953,0.32,1.208c0.213,0.256,0.476,0.384,0.788,0.384c0.335,0,0.618-0.131,0.85-0.394
		c0.231-0.262,0.347-0.649,0.347-1.164c0-0.537-0.11-0.936-0.332-1.196s-0.501-0.391-0.84-0.391c-0.329,0-0.6,0.128-0.813,0.384
		C231.789,54.778,231.682,55.168,231.682,55.693z"/>
	<path style="fill:#2C6882;" d="M237.578,54.789l-1.245-0.225c0.14-0.501,0.381-0.872,0.723-1.113s0.85-0.361,1.523-0.361
		c0.612,0,1.067,0.072,1.367,0.217c0.3,0.146,0.51,0.329,0.633,0.553c0.121,0.223,0.183,0.632,0.183,1.228l-0.015,1.602
		c0,0.456,0.021,0.792,0.066,1.009c0.043,0.216,0.126,0.448,0.246,0.695h-1.357c-0.036-0.091-0.08-0.227-0.132-0.405
		c-0.022-0.081-0.039-0.135-0.049-0.161c-0.234,0.228-0.485,0.398-0.752,0.513s-0.552,0.171-0.854,0.171
		c-0.534,0-0.955-0.145-1.262-0.435c-0.309-0.29-0.462-0.656-0.462-1.099c0-0.293,0.07-0.555,0.21-0.783
		c0.14-0.23,0.336-0.406,0.588-0.527c0.253-0.123,0.616-0.229,1.092-0.32c0.642-0.12,1.086-0.232,1.333-0.337v-0.137
		c0-0.264-0.065-0.452-0.195-0.563c-0.13-0.113-0.376-0.169-0.737-0.169c-0.244,0-0.435,0.048-0.571,0.144
		C237.773,54.38,237.663,54.548,237.578,54.789z M239.414,55.902c-0.176,0.059-0.454,0.129-0.835,0.21s-0.63,0.161-0.747,0.239
		c-0.179,0.127-0.269,0.288-0.269,0.483c0,0.192,0.071,0.358,0.215,0.498s0.325,0.21,0.547,0.21c0.247,0,0.483-0.081,0.708-0.244
		c0.166-0.124,0.275-0.275,0.327-0.454c0.036-0.117,0.054-0.34,0.054-0.669V55.902z"/>
	<path style="fill:#2C6882;" d="M246.691,58.393h-1.372v-2.646c0-0.56-0.029-0.922-0.088-1.086
		c-0.059-0.165-0.154-0.293-0.285-0.384c-0.133-0.091-0.291-0.137-0.477-0.137c-0.237,0-0.451,0.065-0.64,0.195
		s-0.318,0.303-0.388,0.518c-0.07,0.215-0.105,0.612-0.105,1.191v2.349h-1.372v-5.186h1.274v0.762
		c0.452-0.586,1.022-0.879,1.709-0.879c0.303,0,0.579,0.055,0.83,0.164c0.251,0.108,0.44,0.248,0.568,0.417
		c0.129,0.169,0.219,0.361,0.27,0.576c0.05,0.215,0.075,0.522,0.075,0.923V58.393z"/>
	<path style="fill:#2C6882;" d="M247.942,52.504v-1.27h1.372v1.27H247.942z M247.942,58.393v-5.186h1.372v5.186H247.942z"/>
	<path style="fill:#2C6882;" d="M250.029,58.393v-1.069l1.943-2.231c0.319-0.364,0.555-0.623,0.708-0.776
		c-0.159,0.01-0.369,0.017-0.63,0.02l-1.831,0.01v-1.138h4.287v0.972l-1.982,2.285l-0.698,0.757
		c0.381-0.022,0.617-0.034,0.708-0.034h2.124v1.206H250.029z"/>
	<path style="fill:#2C6882;" d="M256.467,54.789l-1.245-0.225c0.14-0.501,0.381-0.872,0.723-1.113s0.85-0.361,1.523-0.361
		c0.612,0,1.067,0.072,1.367,0.217c0.3,0.146,0.51,0.329,0.633,0.553c0.121,0.223,0.183,0.632,0.183,1.228l-0.015,1.602
		c0,0.456,0.021,0.792,0.066,1.009c0.043,0.216,0.126,0.448,0.246,0.695h-1.357c-0.036-0.091-0.08-0.227-0.132-0.405
		c-0.022-0.081-0.039-0.135-0.049-0.161c-0.234,0.228-0.485,0.398-0.752,0.513s-0.552,0.171-0.854,0.171
		c-0.534,0-0.955-0.145-1.262-0.435c-0.309-0.29-0.462-0.656-0.462-1.099c0-0.293,0.07-0.555,0.21-0.783
		c0.14-0.23,0.336-0.406,0.588-0.527c0.253-0.123,0.616-0.229,1.092-0.32c0.642-0.12,1.086-0.232,1.333-0.337v-0.137
		c0-0.264-0.065-0.452-0.195-0.563c-0.13-0.113-0.376-0.169-0.737-0.169c-0.244,0-0.435,0.048-0.571,0.144
		C256.662,54.38,256.552,54.548,256.467,54.789z M258.303,55.902c-0.176,0.059-0.454,0.129-0.835,0.21s-0.63,0.161-0.747,0.239
		c-0.179,0.127-0.269,0.288-0.269,0.483c0,0.192,0.071,0.358,0.215,0.498s0.325,0.21,0.547,0.21c0.247,0,0.483-0.081,0.708-0.244
		c0.166-0.124,0.275-0.275,0.327-0.454c0.036-0.117,0.054-0.34,0.054-0.669V55.902z"/>
	<path style="fill:#2C6882;" d="M265.384,54.74l-1.353,0.244c-0.046-0.271-0.148-0.474-0.311-0.61
		c-0.16-0.137-0.37-0.205-0.627-0.205c-0.342,0-0.614,0.118-0.818,0.354c-0.203,0.235-0.305,0.63-0.305,1.184
		c0,0.615,0.104,1.05,0.311,1.304c0.206,0.254,0.483,0.381,0.832,0.381c0.261,0,0.474-0.074,0.64-0.222
		c0.166-0.148,0.283-0.403,0.352-0.765l1.348,0.229c-0.14,0.618-0.408,1.086-0.806,1.401s-0.93,0.474-1.597,0.474
		c-0.759,0-1.363-0.239-1.813-0.718c-0.451-0.479-0.677-1.141-0.677-1.987c0-0.856,0.227-1.522,0.679-2
		c0.452-0.477,1.064-0.715,1.836-0.715c0.632,0,1.134,0.136,1.506,0.408C264.953,53.77,265.221,54.184,265.384,54.74z"/>
	<path style="fill:#2C6882;" d="M266.284,52.504v-1.27h1.372v1.27H266.284z M266.284,58.393v-5.186h1.372v5.186H266.284z"/>
	<path style="fill:#2C6882;" d="M268.604,55.727c0-0.456,0.112-0.896,0.337-1.323s0.543-0.752,0.954-0.977
		c0.412-0.225,0.872-0.337,1.38-0.337c0.784,0,1.428,0.255,1.929,0.764c0.501,0.51,0.752,1.153,0.752,1.932
		c0,0.784-0.253,1.435-0.76,1.951c-0.506,0.516-1.143,0.773-1.911,0.773c-0.476,0-0.929-0.107-1.36-0.322
		c-0.431-0.215-0.759-0.529-0.983-0.945C268.717,56.828,268.604,56.322,268.604,55.727z M270.011,55.8
		c0,0.515,0.122,0.908,0.366,1.182s0.545,0.41,0.903,0.41s0.658-0.137,0.9-0.41c0.243-0.273,0.364-0.671,0.364-1.191
		c0-0.508-0.121-0.898-0.364-1.172c-0.242-0.273-0.542-0.41-0.9-0.41s-0.659,0.137-0.903,0.41S270.011,55.285,270.011,55.8z
		 M270.587,52.572l0.674-1.46h1.538l-1.343,1.46H270.587z"/>
	<path style="fill:#2C6882;" d="M279.607,58.393h-1.372v-2.646c0-0.56-0.029-0.922-0.088-1.086
		c-0.059-0.165-0.154-0.293-0.285-0.384c-0.133-0.091-0.291-0.137-0.477-0.137c-0.237,0-0.451,0.065-0.64,0.195
		s-0.318,0.303-0.388,0.518c-0.07,0.215-0.105,0.612-0.105,1.191v2.349h-1.372v-5.186h1.274v0.762
		c0.452-0.586,1.022-0.879,1.709-0.879c0.303,0,0.579,0.055,0.83,0.164c0.251,0.108,0.44,0.248,0.568,0.417
		c0.129,0.169,0.219,0.361,0.27,0.576c0.05,0.215,0.075,0.522,0.075,0.923V58.393z"/>
	<path style="fill:#2C6882;" d="M283.507,58.393v-7.158h5.308v1.211h-3.862v1.587h3.594v1.206h-3.594v1.948h3.999v1.206H283.507z"/>
	<path style="fill:#2C6882;" d="M289.925,53.207h1.265v0.708c0.452-0.55,0.991-0.825,1.616-0.825c0.332,0,0.62,0.068,0.864,0.205
		s0.444,0.344,0.601,0.62c0.228-0.276,0.474-0.483,0.737-0.62s0.545-0.205,0.845-0.205c0.381,0,0.703,0.077,0.967,0.232
		c0.264,0.154,0.461,0.381,0.591,0.681c0.095,0.222,0.142,0.579,0.142,1.074v3.315h-1.372v-2.964c0-0.515-0.047-0.847-0.142-0.996
		c-0.127-0.195-0.322-0.293-0.586-0.293c-0.192,0-0.373,0.059-0.542,0.176s-0.291,0.289-0.366,0.515
		c-0.075,0.227-0.112,0.584-0.112,1.072v2.49h-1.372v-2.842c0-0.505-0.024-0.83-0.073-0.977s-0.124-0.256-0.228-0.327
		c-0.102-0.071-0.241-0.107-0.417-0.107c-0.212,0-0.402,0.057-0.571,0.171s-0.291,0.278-0.363,0.493
		c-0.074,0.215-0.11,0.571-0.11,1.069v2.52h-1.372V53.207z"/>
	<path style="fill:#2C6882;" d="M298.74,53.207h1.279v0.762c0.166-0.261,0.391-0.472,0.674-0.635s0.598-0.244,0.942-0.244
		c0.603,0,1.113,0.236,1.533,0.708s0.63,1.13,0.63,1.973c0,0.866-0.212,1.539-0.635,2.019c-0.423,0.48-0.936,0.721-1.538,0.721
		c-0.286,0-0.546-0.057-0.779-0.171c-0.232-0.114-0.478-0.31-0.734-0.586v2.612h-1.372V53.207z M300.098,55.712
		c0,0.583,0.115,1.013,0.347,1.292c0.231,0.277,0.513,0.417,0.845,0.417c0.319,0,0.584-0.128,0.796-0.384
		c0.212-0.255,0.317-0.674,0.317-1.257c0-0.544-0.109-0.947-0.327-1.211s-0.488-0.396-0.811-0.396c-0.335,0-0.613,0.129-0.835,0.389
		C300.208,54.82,300.098,55.204,300.098,55.712z"/>
	<path style="fill:#2C6882;" d="M306.06,58.393h-1.372v-5.186h1.274v0.737c0.218-0.349,0.414-0.578,0.588-0.688
		c0.175-0.11,0.372-0.166,0.594-0.166c0.313,0,0.613,0.086,0.903,0.259l-0.425,1.196c-0.231-0.149-0.446-0.225-0.645-0.225
		c-0.192,0-0.354,0.053-0.488,0.158c-0.134,0.106-0.238,0.298-0.314,0.574c-0.077,0.276-0.115,0.856-0.115,1.738V58.393z"/>
	<path style="fill:#2C6882;" d="M311.502,56.742l1.367,0.229c-0.176,0.501-0.453,0.883-0.832,1.146
		c-0.38,0.262-0.854,0.393-1.424,0.393c-0.901,0-1.569-0.295-2.002-0.884c-0.342-0.472-0.513-1.067-0.513-1.787
		c0-0.859,0.225-1.532,0.674-2.019c0.449-0.487,1.018-0.73,1.704-0.73c0.771,0,1.38,0.255,1.826,0.764
		c0.446,0.51,0.659,1.29,0.64,2.342h-3.438c0.01,0.407,0.12,0.724,0.332,0.949c0.212,0.227,0.476,0.34,0.791,0.34
		c0.215,0,0.396-0.059,0.542-0.176S311.427,57.003,311.502,56.742z M311.58,55.356c-0.01-0.397-0.112-0.699-0.308-0.906
		c-0.195-0.206-0.433-0.31-0.713-0.31c-0.3,0-0.547,0.109-0.742,0.327s-0.291,0.515-0.288,0.889H311.58z"/>
	<path style="fill:#2C6882;" d="M313.437,56.913l1.377-0.21c0.059,0.267,0.178,0.47,0.356,0.607c0.179,0.139,0.43,0.208,0.752,0.208
		c0.354,0,0.622-0.065,0.801-0.195c0.12-0.091,0.181-0.213,0.181-0.366c0-0.104-0.032-0.19-0.098-0.259
		c-0.068-0.065-0.222-0.125-0.459-0.181c-1.106-0.244-1.809-0.467-2.104-0.669c-0.41-0.28-0.615-0.669-0.615-1.167
		c0-0.449,0.178-0.827,0.532-1.133s0.905-0.459,1.65-0.459c0.71,0,1.237,0.115,1.582,0.347s0.583,0.573,0.713,1.025l-1.294,0.239
		c-0.056-0.202-0.16-0.356-0.315-0.464c-0.154-0.107-0.375-0.161-0.661-0.161c-0.361,0-0.62,0.051-0.776,0.151
		c-0.104,0.071-0.156,0.164-0.156,0.278c0,0.098,0.046,0.181,0.137,0.249c0.124,0.091,0.551,0.22,1.281,0.386
		c0.731,0.166,1.241,0.369,1.531,0.61c0.286,0.244,0.43,0.584,0.43,1.021c0,0.476-0.198,0.884-0.596,1.226s-0.984,0.513-1.763,0.513
		c-0.706,0-1.266-0.144-1.677-0.43C313.834,57.794,313.564,57.404,313.437,56.913z"/>
	<path style="fill:#2C6882;" d="M320.367,54.789l-1.245-0.225c0.14-0.501,0.381-0.872,0.723-1.113s0.85-0.361,1.523-0.361
		c0.612,0,1.067,0.072,1.367,0.217c0.3,0.146,0.51,0.329,0.633,0.553c0.121,0.223,0.183,0.632,0.183,1.228l-0.015,1.602
		c0,0.456,0.021,0.792,0.066,1.009c0.043,0.216,0.126,0.448,0.246,0.695h-1.357c-0.036-0.091-0.08-0.227-0.132-0.405
		c-0.022-0.081-0.039-0.135-0.049-0.161c-0.234,0.228-0.485,0.398-0.752,0.513s-0.552,0.171-0.854,0.171
		c-0.534,0-0.955-0.145-1.262-0.435c-0.309-0.29-0.462-0.656-0.462-1.099c0-0.293,0.07-0.555,0.21-0.783
		c0.14-0.23,0.336-0.406,0.588-0.527c0.253-0.123,0.616-0.229,1.092-0.32c0.642-0.12,1.086-0.232,1.333-0.337v-0.137
		c0-0.264-0.065-0.452-0.195-0.563c-0.13-0.113-0.376-0.169-0.737-0.169c-0.244,0-0.435,0.048-0.571,0.144
		C320.562,54.38,320.452,54.548,320.367,54.789z M322.203,55.902c-0.176,0.059-0.454,0.129-0.835,0.21s-0.63,0.161-0.747,0.239
		c-0.179,0.127-0.269,0.288-0.269,0.483c0,0.192,0.071,0.358,0.215,0.498s0.325,0.21,0.547,0.21c0.247,0,0.483-0.081,0.708-0.244
		c0.166-0.124,0.275-0.275,0.327-0.454c0.036-0.117,0.054-0.34,0.054-0.669V55.902z"/>
	<path style="fill:#2C6882;" d="M326.077,58.393h-1.372v-5.186h1.274v0.737c0.218-0.349,0.414-0.578,0.588-0.688
		c0.175-0.11,0.372-0.166,0.594-0.166c0.313,0,0.613,0.086,0.903,0.259l-0.425,1.196c-0.231-0.149-0.446-0.225-0.645-0.225
		c-0.192,0-0.354,0.053-0.488,0.158c-0.134,0.106-0.238,0.298-0.314,0.574c-0.077,0.276-0.115,0.856-0.115,1.738V58.393z"/>
	<path style="fill:#2C6882;" d="M328.514,52.504v-1.27h1.372v1.27H328.514z M328.514,58.393v-5.186h1.372v5.186H328.514z"/>
	<path style="fill:#2C6882;" d="M332.179,54.789l-1.245-0.225c0.14-0.501,0.381-0.872,0.723-1.113s0.85-0.361,1.523-0.361
		c0.612,0,1.067,0.072,1.367,0.217c0.3,0.146,0.51,0.329,0.633,0.553c0.121,0.223,0.183,0.632,0.183,1.228l-0.015,1.602
		c0,0.456,0.021,0.792,0.066,1.009c0.043,0.216,0.126,0.448,0.246,0.695h-1.357c-0.036-0.091-0.08-0.227-0.132-0.405
		c-0.022-0.081-0.039-0.135-0.049-0.161c-0.234,0.228-0.485,0.398-0.752,0.513s-0.552,0.171-0.854,0.171
		c-0.534,0-0.955-0.145-1.262-0.435c-0.309-0.29-0.462-0.656-0.462-1.099c0-0.293,0.07-0.555,0.21-0.783
		c0.14-0.23,0.336-0.406,0.588-0.527c0.253-0.123,0.616-0.229,1.092-0.32c0.642-0.12,1.086-0.232,1.333-0.337v-0.137
		c0-0.264-0.065-0.452-0.195-0.563c-0.13-0.113-0.376-0.169-0.737-0.169c-0.244,0-0.435,0.048-0.571,0.144
		C332.374,54.38,332.264,54.548,332.179,54.789z M334.014,55.902c-0.176,0.059-0.454,0.129-0.835,0.21s-0.63,0.161-0.747,0.239
		c-0.179,0.127-0.269,0.288-0.269,0.483c0,0.192,0.071,0.358,0.215,0.498s0.325,0.21,0.547,0.21c0.247,0,0.483-0.081,0.708-0.244
		c0.166-0.124,0.275-0.275,0.327-0.454c0.036-0.117,0.054-0.34,0.054-0.669V55.902z"/>
	<path style="fill:#2C6882;" d="M336.575,58.393v-7.158h1.372v7.158H336.575z"/>
	<path style="fill:#2C6882;" d="M342.162,56.547h-1.245c-0.003-0.179-0.005-0.288-0.005-0.327c0-0.403,0.066-0.735,0.2-0.996
		s0.4-0.554,0.801-0.879s0.64-0.539,0.718-0.64c0.12-0.159,0.181-0.335,0.181-0.527c0-0.267-0.106-0.496-0.32-0.686
		c-0.213-0.191-0.5-0.286-0.861-0.286c-0.349,0-0.64,0.1-0.874,0.298s-0.396,0.501-0.483,0.908l-1.26-0.156
		c0.036-0.583,0.284-1.077,0.744-1.484c0.461-0.407,1.065-0.61,1.814-0.61c0.788,0,1.414,0.206,1.88,0.618
		c0.466,0.411,0.698,0.891,0.698,1.438c0,0.303-0.086,0.589-0.256,0.859c-0.172,0.271-0.537,0.638-1.097,1.104
		c-0.29,0.241-0.47,0.435-0.54,0.581C342.187,55.907,342.155,56.169,342.162,56.547z M340.917,58.393v-1.372h1.372v1.372H340.917z"
		/>
</g>
</svg>
