<?xml version="1.0" encoding="utf-8"?>
<!-- Generator: Adobe Illustrator 17.0.0, SVG Export Plug-In . SVG Version: 6.00 Build 0)  -->
<!DOCTYPE svg PUBLIC "-//W3C//DTD SVG 1.1//EN" "http://www.w3.org/Graphics/SVG/1.1/DTD/svg11.dtd">
<svg version="1.1" id="Capa_1" xmlns="http://www.w3.org/2000/svg" xmlns:xlink="http://www.w3.org/1999/xlink" x="0px" y="0px"
	 width="122.669px" height="86.336px" viewBox="0 0 122.669 86.336" enable-background="new 0 0 122.669 86.336"
	 xml:space="preserve">
<rect x="0" fill="#6FC2D8" width="122.669" height="86.336"/>
<rect x="3.9" y="3.265" fill="#FFFFFF" width="114.868" height="79.807"/>
<g enable-background="new    ">
	<path fill="#2C6882" d="M13.912,47.982V33.666h2.891v5.635h5.664v-5.635h2.891v14.316h-2.891v-6.26h-5.664v6.26H13.912z"/>
	<path fill="#2C6882" d="M27.691,42.65c0-0.911,0.225-1.794,0.674-2.646s1.085-1.504,1.909-1.953s1.743-0.674,2.759-0.674
		c1.569,0,2.855,0.51,3.857,1.528s1.504,2.307,1.504,3.862c0,1.569-0.506,2.869-1.519,3.901s-2.287,1.548-3.823,1.548
		c-0.951,0-1.857-0.215-2.72-0.645s-1.519-1.06-1.968-1.89S27.691,43.842,27.691,42.65z M30.504,42.797
		c0,1.028,0.244,1.816,0.732,2.363s1.09,0.82,1.807,0.82s1.317-0.273,1.802-0.82s0.728-1.341,0.728-2.383
		c0-1.016-0.243-1.797-0.728-2.344s-1.085-0.82-1.802-0.82s-1.318,0.273-1.807,0.82S30.504,41.769,30.504,42.797z"/>
	<path fill="#2C6882" d="M43.17,47.982h-2.744V37.611h2.549v1.475c0.436-0.696,0.829-1.155,1.177-1.377s0.744-0.332,1.187-0.332
		c0.625,0,1.227,0.173,1.807,0.518l-0.85,2.393c-0.462-0.3-0.892-0.449-1.289-0.449c-0.384,0-0.709,0.105-0.977,0.317
		s-0.477,0.594-0.63,1.147s-0.229,1.712-0.229,3.477V47.982z"/>
	<path fill="#2C6882" d="M48.326,36.205v-2.539h2.744v2.539H48.326z M48.326,47.982V37.611h2.744v10.371H48.326z"/>
	<path fill="#2C6882" d="M52.779,47.982v-2.139l3.887-4.463c0.638-0.729,1.11-1.247,1.416-1.553c-0.319,0.02-0.739,0.032-1.26,0.039
		l-3.662,0.02v-2.275h8.574v1.943l-3.965,4.57l-1.396,1.514c0.762-0.046,1.234-0.068,1.416-0.068h4.249v2.412H52.779z"/>
	<path fill="#2C6882" d="M63.249,42.65c0-0.911,0.225-1.794,0.674-2.646s1.085-1.504,1.909-1.953
		c0.823-0.449,1.743-0.674,2.759-0.674c1.568,0,2.854,0.51,3.857,1.528c1.002,1.019,1.504,2.307,1.504,3.862
		c0,1.569-0.507,2.869-1.519,3.901c-1.013,1.032-2.287,1.548-3.823,1.548c-0.951,0-1.857-0.215-2.72-0.645
		c-0.863-0.43-1.519-1.06-1.968-1.89S63.249,43.842,63.249,42.65z M66.061,42.797c0,1.028,0.244,1.816,0.732,2.363
		s1.09,0.82,1.807,0.82c0.716,0,1.316-0.273,1.802-0.82c0.484-0.547,0.728-1.341,0.728-2.383c0-1.016-0.243-1.797-0.728-2.344
		c-0.485-0.547-1.086-0.82-1.802-0.82c-0.717,0-1.318,0.273-1.807,0.82S66.061,41.769,66.061,42.797z"/>
	<path fill="#2C6882" d="M85.534,47.982H82.79v-5.293c0-1.12-0.059-1.844-0.176-2.173s-0.308-0.584-0.571-0.767
		s-0.581-0.273-0.952-0.273c-0.476,0-0.902,0.13-1.279,0.391c-0.378,0.261-0.637,0.605-0.776,1.035
		c-0.141,0.43-0.21,1.224-0.21,2.383v4.697h-2.744V37.611h2.549v1.523c0.904-1.172,2.044-1.758,3.418-1.758
		c0.605,0,1.158,0.109,1.66,0.327c0.501,0.218,0.88,0.496,1.138,0.835c0.257,0.339,0.436,0.723,0.537,1.152
		c0.101,0.43,0.151,1.045,0.151,1.846V47.982z"/>
	<path fill="#2C6882" d="M93.073,37.611v2.188h-1.875v4.18c0,0.847,0.018,1.34,0.054,1.479c0.035,0.14,0.117,0.256,0.244,0.347
		s0.281,0.137,0.464,0.137c0.254,0,0.621-0.088,1.104-0.264l0.234,2.129c-0.639,0.273-1.361,0.41-2.168,0.41
		c-0.495,0-0.941-0.083-1.338-0.249c-0.397-0.166-0.688-0.381-0.874-0.645s-0.314-0.62-0.386-1.069
		c-0.059-0.319-0.088-0.964-0.088-1.934v-4.521h-1.26v-2.188h1.26v-2.061l2.754-1.602v3.662H93.073z"/>
	<path fill="#2C6882" d="M97.028,40.775l-2.49-0.449c0.279-1.003,0.762-1.745,1.445-2.227s1.699-0.723,3.047-0.723
		c1.224,0,2.135,0.145,2.734,0.435c0.599,0.29,1.021,0.657,1.265,1.104s0.366,1.265,0.366,2.456l-0.029,3.203
		c0,0.911,0.044,1.584,0.132,2.017s0.252,0.896,0.493,1.392h-2.715c-0.072-0.183-0.16-0.452-0.264-0.811
		c-0.046-0.163-0.078-0.271-0.098-0.322c-0.469,0.456-0.971,0.798-1.504,1.025c-0.534,0.228-1.104,0.342-1.709,0.342
		c-1.068,0-1.909-0.29-2.524-0.869s-0.923-1.312-0.923-2.197c0-0.586,0.14-1.108,0.42-1.567c0.279-0.459,0.672-0.811,1.177-1.055
		c0.504-0.244,1.231-0.457,2.183-0.64c1.282-0.241,2.171-0.466,2.666-0.674v-0.273c0-0.527-0.131-0.903-0.391-1.128
		c-0.261-0.225-0.752-0.337-1.475-0.337c-0.488,0-0.869,0.096-1.143,0.288S97.197,40.294,97.028,40.775z M100.7,43.002
		c-0.352,0.117-0.908,0.257-1.67,0.42s-1.26,0.322-1.494,0.479c-0.358,0.254-0.537,0.576-0.537,0.967
		c0,0.384,0.143,0.716,0.43,0.996c0.286,0.28,0.65,0.42,1.094,0.42c0.494,0,0.967-0.163,1.416-0.488
		c0.332-0.247,0.55-0.55,0.654-0.908c0.071-0.234,0.107-0.681,0.107-1.338V43.002z"/>
	<path fill="#2C6882" d="M106.1,47.982V33.666h2.744v14.316H106.1z"/>
</g>
</svg>
