<?xml version="1.0" encoding="utf-8"?>
<!-- Generator: Adobe Illustrator 17.0.0, SVG Export Plug-In . SVG Version: 6.00 Build 0)  -->
<!DOCTYPE svg PUBLIC "-//W3C//DTD SVG 1.1//EN" "http://www.w3.org/Graphics/SVG/1.1/DTD/svg11.dtd">
<svg version="1.1" id="Capa_1" xmlns="http://www.w3.org/2000/svg" xmlns:xlink="http://www.w3.org/1999/xlink" x="0px" y="0px"
	 width="95.342px" height="94.808px" viewBox="0 0 95.342 94.808" style="enable-background:new 0 0 95.342 94.808;"
	 xml:space="preserve">
<g>
	<circle style="fill:#6FC2D8;" cx="47.414" cy="47.404" r="37.515"/>
	<circle style="fill:#FFFFFF;" cx="47.414" cy="47.404" r="32.669"/>
	<g>
		<circle style="fill:#2C6882;" cx="47.413" cy="47.404" r="30.445"/>
	</g>
	<g>
		<path style="fill:none;stroke:#393939;stroke-width:1.0444;stroke-miterlimit:10;" d="M6.264,56.041
			c-0.581-2.786-0.889-5.677-0.889-8.637c0-14.749,7.598-27.724,19.094-35.223"/>
		<path style="fill:none;stroke:#393939;stroke-width:1.0444;stroke-miterlimit:10;" d="M17.354,76.786
			c-3.705-3.789-6.699-8.275-8.768-13.244"/>
		<path style="fill:none;stroke:#393939;stroke-width:1.0444;stroke-miterlimit:10;" d="M44.887,89.358
			c-9.177-0.543-17.563-4.03-24.225-9.53"/>
		<path style="fill:none;stroke:#393939;stroke-width:1.0444;stroke-miterlimit:10;" d="M87.769,35.66
			c1.082,3.728,1.663,7.669,1.663,11.744c0,21.453-16.074,39.151-36.836,41.71"/>
		<path style="fill:none;stroke:#393939;stroke-width:1.0444;stroke-miterlimit:10;" d="M32.344,8.156
			c4.677-1.795,9.752-2.779,15.061-2.779c15.957,0,29.838,8.894,36.953,21.995"/>
		<path style="fill:none;stroke:#393939;stroke-width:1.0444;stroke-miterlimit:10;" d="M94.079,51.831
			c-0.955,10.203-5.18,19.455-11.613,26.696"/>
		<path style="fill:none;stroke:#393939;stroke-width:1.0444;stroke-miterlimit:10;" d="M72.113,7.554
			c12.391,7.699,20.927,21.018,22.046,36.393"/>
		<path style="fill:none;stroke:#393939;stroke-width:1.0444;stroke-miterlimit:10;" d="M3.76,30.256
			c6.845-17.41,23.806-29.733,43.645-29.733c5.616,0,11.002,0.988,15.994,2.8"/>
		<path style="fill:none;stroke:#393939;stroke-width:1.0444;stroke-miterlimit:10;" d="M4.522,66.381
			c-2.571-5.801-4-12.222-4-18.977c0-3.219,0.325-6.362,0.945-9.398"/>
		<path style="fill:none;stroke:#393939;stroke-width:1.0444;stroke-miterlimit:10;" d="M22.671,87.238
			c-6.326-3.937-11.645-9.338-15.485-15.73"/>
		<path style="fill:none;stroke:#393939;stroke-width:1.0444;stroke-miterlimit:10;" d="M77.678,83.204
			c-8.168,6.914-18.736,11.082-30.273,11.082c-6.972,0-13.586-1.521-19.533-4.25"/>
		<circle style="fill:#393939;" cx="8.587" cy="63.542" r="1.261"/>
		<circle style="fill:#393939;" cx="4.522" cy="66.381" r="1.261"/>
		<circle style="fill:#393939;" cx="6.344" cy="56.041" r="1.262"/>
		<circle style="fill:#393939;" cx="1.469" cy="38.006" r="1.262"/>
		<circle style="fill:#393939;" cx="3.759" cy="30.256" r="1.262"/>
		<circle style="fill:#393939;" cx="24.469" cy="12.181" r="1.262"/>
		<circle style="fill:#393939;" cx="32.345" cy="8.29" r="1.261"/>
		<circle style="fill:#393939;" cx="63.398" cy="3.522" r="1.261"/>
		<circle style="fill:#393939;" cx="84.358" cy="27.372" r="1.262"/>
		<circle style="fill:#393939;" cx="72.112" cy="7.554" r="1.262"/>
		<circle style="fill:#393939;" cx="87.786" cy="35.66" r="1.261"/>
		<circle style="fill:#393939;" cx="94.08" cy="43.856" r="1.262"/>
		<circle style="fill:#393939;" cx="94.08" cy="51.831" r="1.262"/>
		<circle style="fill:#393939;" cx="17.355" cy="76.786" r="1.261"/>
		<circle style="fill:#393939;" cx="20.663" cy="79.828" r="1.261"/>
		<circle style="fill:#393939;" cx="22.669" cy="87.238" r="1.262"/>
		<circle style="fill:#393939;" cx="7.185" cy="71.508" r="1.261"/>
		<circle style="fill:#393939;" cx="44.887" cy="89.358" r="1.261"/>
		<circle style="fill:#393939;" cx="27.872" cy="90.006" r="1.262"/>
		<circle style="fill:#393939;" cx="52.597" cy="89.114" r="1.261"/>
		<circle style="fill:#393939;" cx="82.466" cy="78.566" r="1.262"/>
		<circle style="fill:#393939;" cx="77.677" cy="83.204" r="1.261"/>
	</g>
</g>
<g>
	<g>
		<path style="fill:#FFFFFF;" d="M31.571,44.947v-5.794h1.75l1.051,3.952l1.039-3.952h1.756v5.794h-1.088v-4.561l-1.148,4.561
			h-1.127l-1.146-4.561v4.561H31.571z"/>
		<path style="fill:#FFFFFF;" d="M37.857,42.085c0-0.59,0.088-1.085,0.264-1.485c0.133-0.296,0.313-0.561,0.541-0.795
			c0.227-0.234,0.477-0.408,0.748-0.521c0.361-0.152,0.777-0.229,1.248-0.229c0.854,0,1.537,0.265,2.051,0.795
			c0.512,0.529,0.768,1.266,0.768,2.209c0,0.936-0.254,1.667-0.762,2.195c-0.51,0.528-1.189,0.792-2.039,0.792
			c-0.863,0-1.547-0.263-2.057-0.788C38.11,43.732,37.857,43.007,37.857,42.085z M39.062,42.046c0,0.655,0.152,1.153,0.455,1.491
			c0.303,0.339,0.688,0.508,1.152,0.508c0.467,0,0.85-0.168,1.148-0.504s0.449-0.84,0.449-1.512c0-0.663-0.146-1.159-0.438-1.485
			c-0.291-0.327-0.678-0.49-1.16-0.49c-0.48,0-0.869,0.165-1.164,0.496C39.208,40.881,39.062,41.379,39.062,42.046z"/>
		<path style="fill:#FFFFFF;" d="M44.151,39.153h2.137c0.482,0,0.85,0.037,1.104,0.111c0.34,0.1,0.631,0.277,0.873,0.533
			s0.428,0.568,0.553,0.938c0.127,0.37,0.189,0.827,0.189,1.369c0,0.478-0.059,0.889-0.178,1.233
			c-0.145,0.422-0.352,0.763-0.619,1.023c-0.203,0.197-0.477,0.352-0.822,0.463c-0.258,0.081-0.604,0.122-1.035,0.122h-2.201V39.153
			z M45.321,40.133v3.837h0.873c0.326,0,0.563-0.018,0.707-0.055c0.189-0.048,0.348-0.128,0.473-0.241s0.227-0.3,0.307-0.56
			c0.078-0.259,0.117-0.613,0.117-1.061c0-0.448-0.039-0.792-0.117-1.031c-0.08-0.24-0.191-0.427-0.332-0.562
			c-0.143-0.135-0.324-0.226-0.543-0.272c-0.162-0.037-0.482-0.056-0.959-0.056H45.321z"/>
		<path style="fill:#FFFFFF;" d="M49.765,44.947v-5.794h4.295v0.98h-3.125v1.284h2.908v0.977h-2.908v1.576h3.236v0.977H49.765z"/>
		<path style="fill:#FFFFFF;" d="M54.96,44.947V39.2h1.17v4.77h2.908v0.977H54.96z"/>
		<path style="fill:#FFFFFF;" d="M59.4,42.085c0-0.59,0.09-1.085,0.266-1.485c0.131-0.296,0.311-0.561,0.539-0.795
			s0.479-0.408,0.75-0.521c0.359-0.152,0.775-0.229,1.248-0.229c0.854,0,1.537,0.265,2.049,0.795c0.512,0.529,0.77,1.266,0.77,2.209
			c0,0.936-0.256,1.667-0.764,2.195s-1.188,0.792-2.039,0.792c-0.861,0-1.547-0.263-2.055-0.788
			C59.653,43.732,59.4,43.007,59.4,42.085z M60.605,42.046c0,0.655,0.152,1.153,0.455,1.491c0.303,0.339,0.688,0.508,1.154,0.508
			s0.85-0.168,1.148-0.504s0.447-0.84,0.447-1.512c0-0.663-0.145-1.159-0.436-1.485c-0.291-0.327-0.678-0.49-1.16-0.49
			s-0.871,0.165-1.166,0.496S60.605,41.379,60.605,42.046z"/>
		<path style="fill:#FFFFFF;" d="M37.261,54.658h-1.271l-0.506-1.316h-2.316l-0.479,1.316h-1.24l2.256-5.794h1.236L37.261,54.658z
			 M35.107,52.367l-0.797-2.15l-0.783,2.15H35.107z"/>
		<path style="fill:#FFFFFF;" d="M37.679,54.658v-5.746h1.17v4.77h2.908v0.977H37.679z"/>
		<path style="fill:#FFFFFF;" d="M42.357,54.658v-5.794h4.295v0.98h-3.125v1.284h2.908v0.977h-2.908v1.576h3.236v0.977H42.357z"/>
		<path style="fill:#FFFFFF;" d="M47.505,54.658v-5.794h1.75l1.051,3.952l1.039-3.952h1.756v5.794h-1.088v-4.561l-1.148,4.561
			h-1.127l-1.146-4.561v4.561H47.505z"/>
		<path style="fill:#FFFFFF;" d="M59.251,54.658H57.98l-0.506-1.316h-2.316l-0.479,1.316h-1.24l2.256-5.794h1.236L59.251,54.658z
			 M57.097,52.367l-0.797-2.15l-0.783,2.15H57.097z M55.628,48.533l0.545-1.181h1.244l-1.086,1.181H55.628z"/>
		<path style="fill:#FFFFFF;" d="M59.65,54.658v-5.794h1.139l2.371,3.869v-3.869h1.086v5.794h-1.174l-2.336-3.778v3.778H59.65z"/>
	</g>
</g>
</svg>
