<?xml version="1.0" encoding="utf-8"?>
<!-- Generator: Adobe Illustrator 17.0.0, SVG Export Plug-In . SVG Version: 6.00 Build 0)  -->
<!DOCTYPE svg PUBLIC "-//W3C//DTD SVG 1.1//EN" "http://www.w3.org/Graphics/SVG/1.1/DTD/svg11.dtd">
<svg version="1.1" id="Capa_1" xmlns="http://www.w3.org/2000/svg" xmlns:xlink="http://www.w3.org/1999/xlink" x="0px" y="0px"
	 width="95.341px" height="94.808px" viewBox="0 0 95.341 94.808" style="enable-background:new 0 0 95.341 94.808;"
	 xml:space="preserve">
<g>
	<circle style="fill:#6FC2D8;" cx="47.412" cy="47.404" r="37.513"/>
	<circle style="fill:#FFFFFF;" cx="47.413" cy="47.404" r="32.669"/>
	<g>
		<circle style="fill:#2C6882;" cx="47.413" cy="47.404" r="30.446"/>
	</g>
	<g>
		<path style="fill:none;stroke:#393939;stroke-width:1.0444;stroke-miterlimit:10;" d="M6.265,56.04
			c-0.583-2.785-0.889-5.676-0.889-8.636c0-14.749,7.598-27.725,19.094-35.224"/>
		<path style="fill:none;stroke:#393939;stroke-width:1.0444;stroke-miterlimit:10;" d="M17.353,76.785
			c-3.705-3.788-6.699-8.274-8.768-13.243"/>
		<path style="fill:none;stroke:#393939;stroke-width:1.0444;stroke-miterlimit:10;" d="M44.886,89.357
			c-9.178-0.543-17.563-4.029-24.225-9.529"/>
		<path style="fill:none;stroke:#393939;stroke-width:1.0444;stroke-miterlimit:10;" d="M87.769,35.66
			c1.082,3.728,1.662,7.669,1.662,11.744c0,21.452-16.073,39.15-36.834,41.71"/>
		<path style="fill:none;stroke:#393939;stroke-width:1.0444;stroke-miterlimit:10;" d="M32.343,8.156
			c4.676-1.795,9.753-2.779,15.061-2.779c15.959,0,29.839,8.894,36.954,21.994"/>
		<path style="fill:none;stroke:#393939;stroke-width:1.0444;stroke-miterlimit:10;" d="M94.08,51.831
			c-0.956,10.202-5.181,19.454-11.615,26.695"/>
		<path style="fill:none;stroke:#393939;stroke-width:1.0444;stroke-miterlimit:10;" d="M72.111,7.554
			c12.392,7.698,20.928,21.017,22.049,36.392"/>
		<path style="fill:none;stroke:#393939;stroke-width:1.0444;stroke-miterlimit:10;" d="M3.758,30.255
			C10.605,12.845,27.566,0.522,47.404,0.522c5.616,0,11.002,0.987,15.994,2.8"/>
		<path style="fill:none;stroke:#393939;stroke-width:1.0444;stroke-miterlimit:10;" d="M4.521,66.381
			c-2.57-5.802-3.999-12.222-3.999-18.977c0-3.219,0.323-6.363,0.942-9.398"/>
		<path style="fill:none;stroke:#393939;stroke-width:1.0444;stroke-miterlimit:10;" d="M22.67,87.238
			c-6.326-3.938-11.645-9.338-15.485-15.73"/>
		<path style="fill:none;stroke:#393939;stroke-width:1.0444;stroke-miterlimit:10;" d="M77.676,83.203
			c-8.168,6.915-18.733,11.083-30.272,11.083c-6.971,0-13.586-1.521-19.533-4.251"/>
		<circle style="fill:#393939;" cx="8.587" cy="63.542" r="1.261"/>
		<circle style="fill:#393939;" cx="4.522" cy="66.381" r="1.261"/>
		<circle style="fill:#393939;" cx="6.343" cy="56.04" r="1.262"/>
		<circle style="fill:#393939;" cx="1.469" cy="38.006" r="1.261"/>
		<circle style="fill:#393939;" cx="3.758" cy="30.255" r="1.262"/>
		<circle style="fill:#393939;" cx="24.47" cy="12.18" r="1.261"/>
		<circle style="fill:#393939;" cx="32.344" cy="8.29" r="1.261"/>
		<circle style="fill:#393939;" cx="63.398" cy="3.521" r="1.262"/>
		<circle style="fill:#393939;" cx="84.359" cy="27.371" r="1.262"/>
		<circle style="fill:#393939;" cx="72.111" cy="7.554" r="1.262"/>
		<circle style="fill:#393939;" cx="87.785" cy="35.66" r="1.261"/>
		<circle style="fill:#393939;" cx="94.079" cy="43.856" r="1.262"/>
		<circle style="fill:#393939;" cx="94.079" cy="51.831" r="1.262"/>
		<circle style="fill:#393939;" cx="17.353" cy="76.785" r="1.262"/>
		<circle style="fill:#393939;" cx="20.662" cy="79.828" r="1.262"/>
		<circle style="fill:#393939;" cx="22.669" cy="87.238" r="1.262"/>
		<circle style="fill:#393939;" cx="7.184" cy="71.508" r="1.261"/>
		<circle style="fill:#393939;" cx="44.886" cy="89.357" r="1.262"/>
		<circle style="fill:#393939;" cx="27.871" cy="90.006" r="1.261"/>
		<circle style="fill:#393939;" cx="52.597" cy="89.114" r="1.262"/>
		<circle style="fill:#393939;" cx="82.465" cy="78.566" r="1.262"/>
		<circle style="fill:#393939;" cx="77.676" cy="83.203" r="1.262"/>
	</g>
</g>
<g>
	<g>
		<path style="fill:#FFFFFF;" d="M30.729,44.869v-5.793h1.751l1.051,3.951l1.039-3.951h1.755v5.793h-1.087v-4.561l-1.149,4.561
			h-1.127l-1.146-4.561v4.561H30.729z"/>
		<path style="fill:#FFFFFF;" d="M37.014,42.008c0-0.59,0.089-1.084,0.265-1.484c0.132-0.297,0.312-0.561,0.54-0.795
			c0.228-0.234,0.478-0.408,0.749-0.521c0.36-0.152,0.776-0.23,1.248-0.23c0.854,0,1.537,0.266,2.05,0.795
			c0.512,0.529,0.769,1.266,0.769,2.209c0,0.936-0.255,1.668-0.763,2.195c-0.509,0.529-1.188,0.793-2.039,0.793
			c-0.862,0-1.547-0.264-2.056-0.789S37.014,42.93,37.014,42.008z M38.22,41.969c0,0.656,0.152,1.154,0.455,1.492
			s0.688,0.508,1.153,0.508c0.467,0,0.85-0.168,1.148-0.504s0.448-0.84,0.448-1.512c0-0.664-0.146-1.16-0.437-1.486
			s-0.678-0.49-1.16-0.49c-0.481,0-0.87,0.166-1.165,0.496C38.367,40.805,38.22,41.303,38.22,41.969z"/>
		<path style="fill:#FFFFFF;" d="M43.309,39.076h2.138c0.482,0,0.85,0.037,1.103,0.111c0.34,0.1,0.631,0.277,0.874,0.533
			c0.242,0.256,0.427,0.568,0.553,0.938c0.127,0.371,0.189,0.828,0.189,1.369c0,0.479-0.059,0.889-0.178,1.234
			c-0.145,0.422-0.352,0.762-0.62,1.023c-0.203,0.197-0.477,0.352-0.822,0.463c-0.258,0.08-0.604,0.121-1.035,0.121h-2.201V39.076z
			 M44.479,40.057v3.836h0.873c0.327,0,0.563-0.018,0.707-0.055c0.19-0.047,0.348-0.127,0.473-0.24s0.228-0.301,0.307-0.561
			c0.079-0.258,0.118-0.613,0.118-1.061s-0.039-0.791-0.118-1.031s-0.19-0.426-0.332-0.561c-0.143-0.135-0.323-0.227-0.542-0.273
			c-0.163-0.037-0.483-0.055-0.96-0.055H44.479z"/>
		<path style="fill:#FFFFFF;" d="M48.923,44.869v-5.793h4.296v0.98h-3.126v1.283h2.908v0.977h-2.908v1.576h3.236v0.977H48.923z"/>
		<path style="fill:#FFFFFF;" d="M54.118,44.869v-5.746h1.17v4.77h2.909v0.977H54.118z"/>
		<path style="fill:#FFFFFF;" d="M58.558,42.008c0-0.59,0.089-1.084,0.265-1.484c0.132-0.297,0.312-0.561,0.54-0.795
			c0.228-0.234,0.478-0.408,0.749-0.521c0.36-0.152,0.776-0.23,1.248-0.23c0.854,0,1.537,0.266,2.05,0.795
			c0.512,0.529,0.769,1.266,0.769,2.209c0,0.936-0.255,1.668-0.763,2.195c-0.509,0.529-1.188,0.793-2.039,0.793
			c-0.862,0-1.547-0.264-2.056-0.789S58.558,42.93,58.558,42.008z M59.763,41.969c0,0.656,0.152,1.154,0.455,1.492
			s0.688,0.508,1.153,0.508c0.467,0,0.85-0.168,1.148-0.504s0.448-0.84,0.448-1.512c0-0.664-0.146-1.16-0.437-1.486
			s-0.678-0.49-1.16-0.49c-0.481,0-0.87,0.166-1.165,0.496C59.911,40.805,59.763,41.303,59.763,41.969z"/>
		<path style="fill:#FFFFFF;" d="M25.548,54.582v-5.795h1.169v5.795H25.548z"/>
		<path style="fill:#FFFFFF;" d="M27.608,54.582v-5.795h1.139l2.371,3.869v-3.869h1.087v5.795h-1.174l-2.336-3.779v3.779H27.608z"/>
		<path style="fill:#FFFFFF;" d="M34.511,54.582v-4.814h-1.719v-0.98h4.604v0.98H35.68v4.814H34.511z"/>
		<path style="fill:#FFFFFF;" d="M37.916,54.582v-5.795h4.296v0.98h-3.126v1.285h2.908v0.977h-2.908v1.576h3.236v0.977H37.916z"/>
		<path style="fill:#FFFFFF;" d="M45.775,52.451v-0.977h2.521v2.309c-0.245,0.236-0.601,0.445-1.065,0.627
			c-0.465,0.18-0.936,0.27-1.413,0.27c-0.605,0-1.134-0.127-1.584-0.381c-0.451-0.254-0.789-0.617-1.016-1.09
			s-0.34-0.988-0.34-1.545c0-0.602,0.126-1.139,0.379-1.607s0.623-0.828,1.11-1.078c0.372-0.193,0.834-0.289,1.388-0.289
			c0.719,0,1.28,0.15,1.686,0.453c0.404,0.301,0.664,0.717,0.78,1.25l-1.162,0.217c-0.082-0.283-0.235-0.508-0.46-0.674
			c-0.226-0.164-0.507-0.246-0.844-0.246c-0.512,0-0.918,0.162-1.22,0.486s-0.452,0.805-0.452,1.441
			c0,0.688,0.152,1.203,0.458,1.547s0.706,0.516,1.201,0.516c0.245,0,0.491-0.047,0.737-0.143c0.246-0.098,0.458-0.213,0.635-0.352
			v-0.734H45.775z"/>
		<path style="fill:#FFFFFF;" d="M49.144,54.582v-5.795h2.462c0.619,0,1.069,0.053,1.35,0.156c0.28,0.105,0.505,0.289,0.674,0.557
			c0.169,0.266,0.253,0.57,0.253,0.912c0,0.436-0.128,0.793-0.383,1.076c-0.256,0.283-0.638,0.463-1.146,0.537
			c0.253,0.146,0.462,0.309,0.626,0.484c0.165,0.178,0.387,0.49,0.666,0.941l0.708,1.131h-1.399l-0.846-1.262
			c-0.3-0.449-0.506-0.734-0.616-0.852c-0.111-0.117-0.229-0.197-0.352-0.24c-0.124-0.043-0.32-0.066-0.589-0.066h-0.237v2.42
			H49.144z M50.314,51.239h0.865c0.562,0,0.912-0.023,1.052-0.07c0.14-0.049,0.248-0.131,0.327-0.246s0.119-0.26,0.119-0.434
			c0-0.195-0.052-0.354-0.156-0.473c-0.104-0.121-0.251-0.195-0.44-0.229c-0.095-0.012-0.38-0.02-0.854-0.02h-0.913V51.239z"/>
		<path style="fill:#FFFFFF;" d="M59.975,54.582h-1.272l-0.506-1.316h-2.316l-0.478,1.316h-1.241l2.257-5.795h1.236L59.975,54.582z
			 M57.821,52.289l-0.798-2.15l-0.782,2.15H57.821z"/>
		<path style="fill:#FFFFFF;" d="M60.357,48.787h2.138c0.482,0,0.85,0.037,1.103,0.111c0.34,0.1,0.631,0.277,0.874,0.533
			c0.242,0.256,0.427,0.568,0.553,0.939c0.127,0.369,0.189,0.826,0.189,1.369c0,0.477-0.059,0.889-0.178,1.232
			c-0.145,0.422-0.352,0.764-0.62,1.023c-0.203,0.197-0.477,0.352-0.822,0.463c-0.258,0.082-0.604,0.123-1.035,0.123h-2.201V48.787z
			 M61.527,49.768v3.838H62.4c0.327,0,0.563-0.018,0.707-0.055c0.19-0.049,0.348-0.129,0.473-0.242s0.228-0.299,0.307-0.559
			s0.118-0.613,0.118-1.061c0-0.449-0.039-0.793-0.118-1.031c-0.079-0.24-0.19-0.428-0.332-0.563
			c-0.143-0.135-0.323-0.225-0.542-0.271c-0.163-0.037-0.483-0.057-0.96-0.057H61.527z"/>
		<path style="fill:#FFFFFF;" d="M65.733,51.721c0-0.59,0.089-1.086,0.265-1.486c0.132-0.295,0.312-0.561,0.54-0.795
			c0.228-0.234,0.478-0.408,0.749-0.521c0.36-0.152,0.776-0.229,1.248-0.229c0.854,0,1.537,0.264,2.05,0.795
			c0.512,0.529,0.769,1.266,0.769,2.209c0,0.936-0.255,1.666-0.763,2.195c-0.509,0.527-1.188,0.791-2.039,0.791
			c-0.862,0-1.547-0.262-2.056-0.787S65.733,52.643,65.733,51.721z M66.938,51.682c0,0.654,0.152,1.152,0.455,1.49
			c0.303,0.34,0.688,0.508,1.153,0.508c0.467,0,0.85-0.168,1.148-0.504s0.448-0.84,0.448-1.512c0-0.662-0.146-1.158-0.437-1.484
			c-0.291-0.328-0.678-0.49-1.16-0.49c-0.481,0-0.87,0.164-1.165,0.496C67.086,50.516,66.938,51.014,66.938,51.682z"/>
	</g>
</g>
</svg>
