<?xml version="1.0" encoding="utf-8"?>
<!-- Generator: Adobe Illustrator 17.0.0, SVG Export Plug-In . SVG Version: 6.00 Build 0)  -->
<!DOCTYPE svg PUBLIC "-//W3C//DTD SVG 1.1//EN" "http://www.w3.org/Graphics/SVG/1.1/DTD/svg11.dtd">
<svg version="1.1" id="Capa_1" xmlns="http://www.w3.org/2000/svg" xmlns:xlink="http://www.w3.org/1999/xlink" x="0px" y="0px"
	 width="188.689px" height="114.229px" viewBox="0 0 188.689 114.229" style="enable-background:new 0 0 188.689 114.229;"
	 xml:space="preserve">
<g>
	<polygon style="fill:#6FC2D8;stroke:#000000;stroke-width:0.75;stroke-miterlimit:10;" points="6.485,17.616 83.621,17.616 
		96.619,43.508 84.067,69.399 6.937,69.399 19.486,43.583 	"/>
	<polygon style="fill:#6FC2D8;stroke:#000000;stroke-width:0.75;stroke-miterlimit:10;" points="91.507,17.616 168.643,17.616 
		181.641,43.508 169.088,69.399 91.959,69.399 104.508,43.583 	"/>
	
		<rect x="0.375" y="0.375" style="fill:none;stroke:#000000;stroke-width:0.75;stroke-miterlimit:10;" width="187.939" height="113.479"/>
	<g>
		<path style="fill:#2C6882;" d="M43.082,94.142v-1.753h4.53v4.146c-0.44,0.427-1.078,0.802-1.914,1.126
			c-0.835,0.324-1.681,0.486-2.538,0.486c-1.088,0-2.037-0.229-2.847-0.686c-0.81-0.456-1.418-1.109-1.824-1.959
			c-0.407-0.85-0.611-1.774-0.611-2.772c0-1.084,0.228-2.048,0.682-2.89c0.455-0.843,1.12-1.488,1.995-1.938
			c0.668-0.346,1.498-0.519,2.492-0.519c1.292,0,2.302,0.271,3.028,0.813s1.193,1.291,1.402,2.247l-2.088,0.391
			c-0.146-0.512-0.422-0.915-0.827-1.211c-0.404-0.296-0.91-0.443-1.516-0.443c-0.918,0-1.648,0.291-2.19,0.873
			s-0.813,1.446-0.813,2.591c0,1.235,0.274,2.162,0.823,2.78c0.549,0.617,1.269,0.926,2.158,0.926c0.44,0,0.882-0.086,1.324-0.259
			s0.822-0.382,1.14-0.628v-1.321H43.082z"/>
		<path style="fill:#2C6882;" d="M53.48,95.57l1.987,0.333c-0.255,0.729-0.659,1.284-1.21,1.665
			c-0.552,0.381-1.241,0.571-2.069,0.571c-1.312,0-2.282-0.428-2.911-1.284c-0.497-0.687-0.745-1.553-0.745-2.599
			c0-1.25,0.326-2.229,0.979-2.936c0.653-0.708,1.479-1.062,2.478-1.062c1.122,0,2.007,0.37,2.655,1.11
			c0.648,0.741,0.959,1.876,0.93,3.404h-4.998c0.015,0.592,0.176,1.053,0.483,1.381c0.308,0.329,0.69,0.494,1.149,0.494
			c0.313,0,0.575-0.085,0.788-0.256C53.211,96.223,53.371,95.948,53.48,95.57z M53.594,93.553c-0.014-0.577-0.163-1.017-0.447-1.317
			c-0.284-0.3-0.63-0.45-1.036-0.45c-0.436,0-0.796,0.158-1.079,0.476c-0.284,0.317-0.424,0.748-0.419,1.292H53.594z"/>
		<path style="fill:#2C6882;" d="M56.076,95.818l2.002-0.305c0.085,0.388,0.258,0.683,0.519,0.884
			c0.26,0.201,0.625,0.302,1.093,0.302c0.517,0,0.904-0.095,1.165-0.284c0.175-0.133,0.263-0.311,0.263-0.532
			c0-0.151-0.048-0.277-0.143-0.377c-0.099-0.095-0.321-0.182-0.667-0.263c-1.609-0.354-2.629-0.679-3.06-0.973
			c-0.597-0.407-0.896-0.973-0.896-1.696c0-0.653,0.259-1.202,0.774-1.647c0.516-0.444,1.315-0.667,2.399-0.667
			c1.032,0,1.799,0.168,2.301,0.504c0.501,0.336,0.847,0.833,1.036,1.491l-1.881,0.348c-0.081-0.294-0.233-0.519-0.458-0.675
			c-0.226-0.156-0.546-0.234-0.962-0.234c-0.525,0-0.902,0.073-1.129,0.221c-0.152,0.104-0.228,0.238-0.228,0.404
			c0,0.142,0.066,0.263,0.199,0.362c0.18,0.133,0.801,0.319,1.863,0.561s1.805,0.537,2.226,0.888
			c0.417,0.354,0.625,0.85,0.625,1.483c0,0.691-0.289,1.285-0.866,1.782s-1.432,0.745-2.563,0.745c-1.026,0-1.84-0.208-2.438-0.624
			C56.652,97.098,56.261,96.532,56.076,95.818z"/>
		<path style="fill:#2C6882;" d="M67.901,90.429v1.591h-1.363v3.038c0,0.615,0.014,0.975,0.039,1.076
			c0.026,0.102,0.086,0.186,0.178,0.252c0.093,0.066,0.205,0.1,0.337,0.1c0.185,0,0.452-0.064,0.803-0.192l0.17,1.548
			c-0.464,0.199-0.989,0.298-1.576,0.298c-0.359,0-0.684-0.06-0.973-0.181c-0.288-0.12-0.5-0.276-0.635-0.469
			c-0.135-0.191-0.229-0.45-0.28-0.777c-0.043-0.231-0.064-0.7-0.064-1.405V92.02H63.62v-1.591h0.916v-1.498l2.002-1.164v2.662
			H67.901z"/>
		<path style="fill:#2C6882;" d="M68.865,89.407v-1.846h1.995v1.846H68.865z M68.865,97.969v-7.54h1.995v7.54H68.865z"/>
		<path style="fill:#2C6882;" d="M72.021,94.093c0-0.663,0.163-1.305,0.49-1.925c0.326-0.62,0.789-1.093,1.388-1.42
			c0.599-0.326,1.268-0.489,2.006-0.489c1.141,0,2.075,0.37,2.805,1.11c0.729,0.741,1.093,1.677,1.093,2.809
			c0,1.141-0.368,2.086-1.104,2.836c-0.736,0.75-1.663,1.125-2.78,1.125c-0.69,0-1.35-0.155-1.977-0.468
			c-0.628-0.313-1.104-0.771-1.431-1.374C72.184,95.694,72.021,94.958,72.021,94.093z M74.066,94.199
			c0,0.747,0.178,1.32,0.532,1.718c0.355,0.397,0.793,0.597,1.313,0.597s0.957-0.199,1.31-0.597
			c0.354-0.397,0.529-0.975,0.529-1.732c0-0.738-0.176-1.307-0.529-1.704c-0.353-0.397-0.789-0.596-1.31-0.596
			s-0.958,0.198-1.313,0.596C74.244,92.878,74.066,93.451,74.066,94.199z M74.904,89.506l0.979-2.123h2.236l-1.952,2.123H74.904z"/>
		<path style="fill:#2C6882;" d="M87.802,97.969h-1.995v-3.848c0-0.814-0.043-1.341-0.128-1.58s-0.224-0.425-0.415-0.558
			c-0.192-0.132-0.423-0.198-0.692-0.198c-0.346,0-0.656,0.095-0.931,0.284c-0.274,0.188-0.462,0.439-0.564,0.752
			c-0.102,0.313-0.152,0.89-0.152,1.732v3.415h-1.995v-7.54h1.854v1.107c0.657-0.852,1.485-1.277,2.484-1.277
			c0.44,0,0.843,0.079,1.207,0.237c0.364,0.159,0.641,0.361,0.827,0.607s0.317,0.525,0.391,0.838s0.11,0.76,0.11,1.342V97.969z"/>
		<path style="fill:#2C6882;" d="M99.936,97.969h-1.854v-1.107c-0.308,0.431-0.671,0.751-1.09,0.962s-0.841,0.315-1.267,0.315
			c-0.866,0-1.608-0.349-2.227-1.047c-0.617-0.698-0.926-1.672-0.926-2.922c0-1.277,0.3-2.249,0.901-2.914
			c0.601-0.665,1.36-0.997,2.279-0.997c0.842,0,1.571,0.35,2.187,1.051v-3.749h1.995V97.969z M94.611,94.035
			c0,0.805,0.111,1.388,0.334,1.747c0.321,0.521,0.771,0.781,1.349,0.781c0.459,0,0.85-0.195,1.172-0.586
			c0.321-0.391,0.482-0.974,0.482-1.75c0-0.866-0.156-1.49-0.469-1.871s-0.712-0.571-1.199-0.571c-0.474,0-0.87,0.188-1.189,0.564
			C94.771,92.726,94.611,93.288,94.611,94.035z"/>
		<path style="fill:#2C6882;" d="M101.019,94.093c0-0.663,0.163-1.305,0.49-1.925c0.326-0.62,0.789-1.093,1.388-1.42
			c0.599-0.326,1.268-0.489,2.006-0.489c1.141,0,2.075,0.37,2.805,1.11c0.729,0.741,1.093,1.677,1.093,2.809
			c0,1.141-0.368,2.086-1.104,2.836c-0.736,0.75-1.663,1.125-2.78,1.125c-0.69,0-1.35-0.155-1.977-0.468
			c-0.628-0.313-1.104-0.771-1.431-1.374C101.182,95.694,101.019,94.958,101.019,94.093z M103.064,94.199
			c0,0.747,0.178,1.32,0.532,1.718c0.355,0.397,0.793,0.597,1.313,0.597s0.957-0.199,1.31-0.597
			c0.354-0.397,0.529-0.975,0.529-1.732c0-0.738-0.176-1.307-0.529-1.704c-0.353-0.397-0.789-0.596-1.31-0.596
			s-0.958,0.198-1.313,0.596C103.242,92.878,103.064,93.451,103.064,94.199z"/>
		<path style="fill:#2C6882;" d="M116.515,92.658l-1.967,0.354c-0.066-0.393-0.217-0.688-0.451-0.887
			c-0.234-0.199-0.538-0.299-0.912-0.299c-0.497,0-0.894,0.172-1.189,0.515c-0.296,0.344-0.443,0.918-0.443,1.722
			c0,0.895,0.15,1.527,0.451,1.896c0.3,0.369,0.704,0.554,1.21,0.554c0.379,0,0.688-0.108,0.931-0.323
			c0.241-0.216,0.411-0.586,0.511-1.111l1.96,0.334c-0.204,0.899-0.595,1.578-1.172,2.037s-1.352,0.688-2.321,0.688
			c-1.104,0-1.982-0.348-2.638-1.043c-0.655-0.696-0.983-1.659-0.983-2.89c0-1.245,0.329-2.214,0.987-2.907
			c0.657-0.693,1.547-1.04,2.669-1.04c0.918,0,1.648,0.197,2.19,0.593C115.889,91.246,116.278,91.849,116.515,92.658z"/>
		<path style="fill:#2C6882;" d="M121.972,95.57l1.987,0.333c-0.255,0.729-0.659,1.284-1.21,1.665
			c-0.552,0.381-1.241,0.571-2.069,0.571c-1.312,0-2.282-0.428-2.911-1.284c-0.497-0.687-0.745-1.553-0.745-2.599
			c0-1.25,0.326-2.229,0.979-2.936c0.653-0.708,1.479-1.062,2.478-1.062c1.122,0,2.007,0.37,2.655,1.11
			c0.648,0.741,0.959,1.876,0.93,3.404h-4.998c0.015,0.592,0.176,1.053,0.483,1.381c0.308,0.329,0.69,0.494,1.149,0.494
			c0.313,0,0.575-0.085,0.788-0.256C121.703,96.223,121.863,95.948,121.972,95.57z M122.086,93.553
			c-0.014-0.577-0.163-1.017-0.447-1.317c-0.284-0.3-0.63-0.45-1.036-0.45c-0.436,0-0.796,0.158-1.079,0.476
			c-0.284,0.317-0.424,0.748-0.419,1.292H122.086z"/>
		<path style="fill:#2C6882;" d="M132.13,97.969h-1.995v-3.848c0-0.814-0.043-1.341-0.128-1.58s-0.224-0.425-0.415-0.558
			c-0.192-0.132-0.423-0.198-0.692-0.198c-0.346,0-0.656,0.095-0.931,0.284c-0.274,0.188-0.462,0.439-0.564,0.752
			c-0.102,0.313-0.152,0.89-0.152,1.732v3.415h-1.995v-7.54h1.854v1.107c0.657-0.852,1.485-1.277,2.484-1.277
			c0.44,0,0.843,0.079,1.207,0.237c0.364,0.159,0.641,0.361,0.827,0.607s0.317,0.525,0.391,0.838s0.11,0.76,0.11,1.342V97.969z"/>
		<path style="fill:#2C6882;" d="M137.188,90.429v1.591h-1.363v3.038c0,0.615,0.014,0.975,0.039,1.076
			c0.026,0.102,0.086,0.186,0.178,0.252c0.093,0.066,0.205,0.1,0.337,0.1c0.185,0,0.452-0.064,0.803-0.192l0.17,1.548
			c-0.464,0.199-0.989,0.298-1.576,0.298c-0.359,0-0.684-0.06-0.973-0.181c-0.288-0.12-0.5-0.276-0.635-0.469
			c-0.135-0.191-0.229-0.45-0.28-0.777c-0.043-0.231-0.064-0.7-0.064-1.405V92.02h-0.916v-1.591h0.916v-1.498l2.002-1.164v2.662
			H137.188z"/>
		<path style="fill:#2C6882;" d="M142.517,95.57l1.987,0.333c-0.255,0.729-0.659,1.284-1.21,1.665
			c-0.552,0.381-1.241,0.571-2.069,0.571c-1.312,0-2.282-0.428-2.911-1.284c-0.497-0.687-0.745-1.553-0.745-2.599
			c0-1.25,0.326-2.229,0.979-2.936c0.653-0.708,1.479-1.062,2.478-1.062c1.122,0,2.007,0.37,2.655,1.11
			c0.648,0.741,0.959,1.876,0.93,3.404h-4.998c0.015,0.592,0.176,1.053,0.483,1.381c0.308,0.329,0.69,0.494,1.149,0.494
			c0.313,0,0.575-0.085,0.788-0.256C142.248,96.223,142.408,95.948,142.517,95.57z M142.631,93.553
			c-0.014-0.577-0.163-1.017-0.447-1.317c-0.284-0.3-0.63-0.45-1.036-0.45c-0.436,0-0.796,0.158-1.079,0.476
			c-0.284,0.317-0.424,0.748-0.419,1.292H142.631z"/>
	</g>
	<g>
		<g>
			<path style="fill:#2C6882;" d="M33.277,48.283v-9.205h6.825v1.557h-4.967v2.041h4.622v1.551h-4.622v2.506h5.143v1.551H33.277z"/>
			<path style="fill:#2C6882;" d="M43.676,48.283l-2.688-6.669h1.853l1.256,3.403l0.363,1.137c0.097-0.289,0.157-0.479,0.183-0.571
				c0.059-0.188,0.121-0.377,0.188-0.565l1.269-3.403h1.814l-2.65,6.669H43.676z"/>
			<path style="fill:#2C6882;" d="M50.312,43.65l-1.601-0.289c0.18-0.645,0.489-1.122,0.929-1.432c0.44-0.31,1.093-0.465,1.96-0.465
				c0.786,0,1.373,0.094,1.758,0.279c0.385,0.187,0.656,0.423,0.813,0.71c0.156,0.286,0.235,0.813,0.235,1.579l-0.02,2.06
				c0,0.586,0.028,1.019,0.085,1.297s0.162,0.576,0.317,0.895h-1.746c-0.046-0.117-0.103-0.291-0.169-0.521
				c-0.029-0.104-0.051-0.174-0.063-0.207c-0.302,0.293-0.624,0.513-0.968,0.659c-0.343,0.146-0.709,0.22-1.099,0.22
				c-0.687,0-1.228-0.186-1.623-0.559c-0.396-0.372-0.594-0.844-0.594-1.413c0-0.376,0.091-0.712,0.271-1.008
				c0.18-0.295,0.432-0.521,0.757-0.678c0.324-0.157,0.792-0.294,1.403-0.411c0.824-0.155,1.396-0.3,1.714-0.434v-0.176
				c0-0.339-0.084-0.581-0.251-0.726c-0.168-0.145-0.483-0.216-0.948-0.216c-0.313,0-0.559,0.062-0.734,0.185
				C50.564,43.123,50.422,43.34,50.312,43.65z M52.674,45.081c-0.226,0.075-0.584,0.165-1.073,0.27
				c-0.49,0.104-0.811,0.207-0.961,0.308c-0.23,0.163-0.346,0.371-0.346,0.622c0,0.247,0.092,0.46,0.276,0.641
				c0.185,0.18,0.419,0.27,0.703,0.27c0.318,0,0.622-0.104,0.911-0.313c0.213-0.159,0.354-0.354,0.42-0.584
				c0.047-0.151,0.069-0.438,0.069-0.86V45.081z"/>
			<path style="fill:#2C6882;" d="M56.146,48.283v-9.205h1.765v9.205H56.146z"/>
			<path style="fill:#2C6882;" d="M64.108,48.283v-0.998c-0.243,0.355-0.563,0.636-0.958,0.841s-0.813,0.308-1.253,0.308
				c-0.447,0-0.85-0.098-1.205-0.295c-0.356-0.196-0.613-0.473-0.772-0.829c-0.159-0.355-0.238-0.848-0.238-1.476v-4.22h1.764v3.064
				c0,0.938,0.033,1.513,0.098,1.724c0.064,0.212,0.184,0.379,0.354,0.503c0.172,0.123,0.39,0.185,0.653,0.185
				c0.302,0,0.571-0.082,0.811-0.248c0.238-0.165,0.401-0.37,0.489-0.615s0.132-0.845,0.132-1.799v-2.813h1.765v6.669H64.108z"/>
			<path style="fill:#2C6882;" d="M68.892,43.65l-1.601-0.289c0.18-0.645,0.489-1.122,0.929-1.432c0.44-0.31,1.093-0.465,1.96-0.465
				c0.786,0,1.373,0.094,1.758,0.279c0.385,0.187,0.656,0.423,0.813,0.71c0.156,0.286,0.235,0.813,0.235,1.579l-0.02,2.06
				c0,0.586,0.028,1.019,0.085,1.297s0.162,0.576,0.317,0.895h-1.746c-0.046-0.117-0.103-0.291-0.169-0.521
				c-0.029-0.104-0.051-0.174-0.063-0.207c-0.302,0.293-0.624,0.513-0.968,0.659c-0.343,0.146-0.709,0.22-1.099,0.22
				c-0.687,0-1.228-0.186-1.623-0.559c-0.396-0.372-0.594-0.844-0.594-1.413c0-0.376,0.091-0.712,0.271-1.008
				c0.18-0.295,0.432-0.521,0.757-0.678c0.324-0.157,0.792-0.294,1.403-0.411c0.824-0.155,1.396-0.3,1.714-0.434v-0.176
				c0-0.339-0.084-0.581-0.251-0.726c-0.168-0.145-0.483-0.216-0.948-0.216c-0.313,0-0.559,0.062-0.734,0.185
				C69.144,43.123,69.002,43.34,68.892,43.65z M71.254,45.081c-0.226,0.075-0.584,0.165-1.073,0.27
				c-0.49,0.104-0.811,0.207-0.961,0.308c-0.23,0.163-0.346,0.371-0.346,0.622c0,0.247,0.092,0.46,0.276,0.641
				c0.185,0.18,0.419,0.27,0.703,0.27c0.318,0,0.622-0.104,0.911-0.313c0.213-0.159,0.354-0.354,0.42-0.584
				c0.047-0.151,0.069-0.438,0.069-0.86V45.081z"/>
			<path style="fill:#2C6882;" d="M76.416,48.283h-1.765v-6.669h1.639v0.948c0.28-0.447,0.533-0.742,0.757-0.885
				s0.479-0.214,0.763-0.214c0.402,0,0.789,0.111,1.162,0.333l-0.547,1.538c-0.297-0.192-0.573-0.289-0.828-0.289
				c-0.247,0-0.457,0.068-0.628,0.204c-0.172,0.137-0.307,0.383-0.405,0.738s-0.147,1.101-0.147,2.235V48.283z"/>
		</g>
	</g>
	<g>
		<g>
			<path style="fill:#2C6882;" d="M122.24,44.899l1.803,0.571c-0.276,1.005-0.736,1.751-1.379,2.239
				c-0.643,0.487-1.458,0.731-2.445,0.731c-1.223,0-2.228-0.418-3.014-1.253c-0.787-0.835-1.181-1.977-1.181-3.426
				c0-1.531,0.396-2.722,1.187-3.569s1.831-1.271,3.121-1.271c1.126,0,2.04,0.333,2.743,0.998c0.419,0.394,0.733,0.959,0.942,1.695
				l-1.84,0.44c-0.109-0.478-0.336-0.854-0.682-1.131c-0.345-0.276-0.765-0.414-1.259-0.414c-0.683,0-1.236,0.245-1.661,0.734
				c-0.425,0.49-0.637,1.283-0.637,2.38c0,1.164,0.209,1.993,0.628,2.486c0.418,0.494,0.963,0.741,1.633,0.741
				c0.493,0,0.918-0.157,1.274-0.471C121.83,46.067,122.086,45.573,122.24,44.899z"/>
			<path style="fill:#2C6882;" d="M126.943,43.65l-1.601-0.289c0.18-0.645,0.489-1.122,0.929-1.432
				c0.44-0.31,1.093-0.465,1.96-0.465c0.786,0,1.373,0.094,1.758,0.279c0.385,0.187,0.656,0.423,0.813,0.71
				c0.156,0.286,0.235,0.813,0.235,1.579l-0.02,2.06c0,0.586,0.028,1.019,0.085,1.297s0.162,0.576,0.317,0.895h-1.746
				c-0.046-0.117-0.103-0.291-0.169-0.521c-0.029-0.104-0.051-0.174-0.063-0.207c-0.302,0.293-0.624,0.513-0.968,0.659
				c-0.343,0.146-0.709,0.22-1.099,0.22c-0.687,0-1.228-0.186-1.623-0.559c-0.396-0.372-0.594-0.844-0.594-1.413
				c0-0.376,0.091-0.712,0.271-1.008c0.18-0.295,0.432-0.521,0.757-0.678c0.324-0.157,0.792-0.294,1.403-0.411
				c0.824-0.155,1.396-0.3,1.714-0.434v-0.176c0-0.339-0.084-0.581-0.251-0.726c-0.168-0.145-0.483-0.216-0.948-0.216
				c-0.313,0-0.559,0.062-0.734,0.185C127.195,43.123,127.053,43.34,126.943,43.65z M129.305,45.081
				c-0.226,0.075-0.584,0.165-1.073,0.27c-0.49,0.104-0.811,0.207-0.961,0.308c-0.23,0.163-0.346,0.371-0.346,0.622
				c0,0.247,0.092,0.46,0.276,0.641c0.185,0.18,0.419,0.27,0.703,0.27c0.318,0,0.622-0.104,0.911-0.313
				c0.213-0.159,0.354-0.354,0.42-0.584c0.047-0.151,0.069-0.438,0.069-0.86V45.081z"/>
			<path style="fill:#2C6882;" d="M132.776,48.283v-9.205h1.765v9.205H132.776z"/>
			<path style="fill:#2C6882;" d="M136.349,40.711v-1.633h1.765v1.633H136.349z M136.349,48.283v-6.669h1.765v6.669H136.349z"/>
			<path style="fill:#2C6882;" d="M139.15,41.615h0.979v-0.502c0-0.561,0.06-0.979,0.18-1.256c0.119-0.276,0.339-0.501,0.659-0.675
				s0.725-0.261,1.215-0.261c0.502,0,0.994,0.075,1.476,0.226l-0.238,1.231c-0.281-0.067-0.551-0.101-0.811-0.101
				c-0.255,0-0.438,0.06-0.549,0.179c-0.111,0.119-0.167,0.349-0.167,0.688v0.471h1.318v1.388h-1.318v5.281h-1.765v-5.281h-0.979
				V41.615z"/>
			<path style="fill:#2C6882;" d="M144.205,40.711v-1.633h1.765v1.633H144.205z M144.205,48.283v-6.669h1.765v6.669H144.205z"/>
			<path style="fill:#2C6882;" d="M153.593,43.586l-1.739,0.314c-0.059-0.348-0.191-0.609-0.398-0.785s-0.477-0.264-0.807-0.264
				c-0.439,0-0.791,0.152-1.052,0.455c-0.262,0.304-0.393,0.812-0.393,1.523c0,0.791,0.133,1.35,0.398,1.676
				c0.266,0.327,0.623,0.49,1.07,0.49c0.335,0,0.609-0.096,0.823-0.286c0.213-0.19,0.364-0.518,0.452-0.982l1.732,0.295
				c-0.18,0.796-0.525,1.396-1.036,1.803c-0.511,0.405-1.195,0.608-2.053,0.608c-0.976,0-1.753-0.308-2.333-0.923
				s-0.869-1.467-0.869-2.556c0-1.101,0.29-1.958,0.872-2.571s1.369-0.92,2.361-0.92c0.813,0,1.458,0.175,1.938,0.524
				C153.039,42.338,153.384,42.87,153.593,43.586z"/>
			<path style="fill:#2C6882;" d="M156.248,43.65l-1.601-0.289c0.18-0.645,0.489-1.122,0.929-1.432
				c0.44-0.31,1.093-0.465,1.96-0.465c0.786,0,1.373,0.094,1.758,0.279c0.385,0.187,0.656,0.423,0.813,0.71
				c0.156,0.286,0.235,0.813,0.235,1.579l-0.02,2.06c0,0.586,0.028,1.019,0.085,1.297s0.162,0.576,0.317,0.895h-1.746
				c-0.046-0.117-0.103-0.291-0.169-0.521c-0.029-0.104-0.051-0.174-0.063-0.207c-0.302,0.293-0.624,0.513-0.968,0.659
				c-0.343,0.146-0.709,0.22-1.099,0.22c-0.687,0-1.228-0.186-1.623-0.559c-0.396-0.372-0.594-0.844-0.594-1.413
				c0-0.376,0.091-0.712,0.271-1.008c0.18-0.295,0.432-0.521,0.757-0.678c0.324-0.157,0.792-0.294,1.403-0.411
				c0.824-0.155,1.396-0.3,1.714-0.434v-0.176c0-0.339-0.084-0.581-0.251-0.726c-0.168-0.145-0.483-0.216-0.948-0.216
				c-0.313,0-0.559,0.062-0.734,0.185C156.5,43.123,156.357,43.34,156.248,43.65z M158.609,45.081
				c-0.226,0.075-0.584,0.165-1.073,0.27c-0.49,0.104-0.811,0.207-0.961,0.308c-0.23,0.163-0.346,0.371-0.346,0.622
				c0,0.247,0.092,0.46,0.276,0.641c0.185,0.18,0.419,0.27,0.703,0.27c0.318,0,0.622-0.104,0.911-0.313
				c0.213-0.159,0.354-0.354,0.42-0.584c0.047-0.151,0.069-0.438,0.069-0.86V45.081z"/>
			<path style="fill:#2C6882;" d="M163.771,48.283h-1.765v-6.669h1.639v0.948c0.28-0.447,0.533-0.742,0.757-0.885
				s0.479-0.214,0.763-0.214c0.402,0,0.789,0.111,1.162,0.333l-0.547,1.538c-0.297-0.192-0.573-0.289-0.828-0.289
				c-0.247,0-0.457,0.068-0.628,0.204c-0.172,0.137-0.307,0.383-0.405,0.738s-0.147,1.101-0.147,2.235V48.283z"/>
		</g>
	</g>
</g>
</svg>
