<?xml version="1.0" encoding="utf-8"?>
<!-- Generator: Adobe Illustrator 17.0.0, SVG Export Plug-In . SVG Version: 6.00 Build 0)  -->
<!DOCTYPE svg PUBLIC "-//W3C//DTD SVG 1.1//EN" "http://www.w3.org/Graphics/SVG/1.1/DTD/svg11.dtd">
<svg version="1.1" id="Capa_1" xmlns="http://www.w3.org/2000/svg" xmlns:xlink="http://www.w3.org/1999/xlink" x="0px" y="0px"
	 width="101.865px" height="58.681px" viewBox="0 0 101.865 58.681" style="enable-background:new 0 0 101.865 58.681;"
	 xml:space="preserve">
<polygon style="fill:#6FC2D8;stroke:#000000;stroke-width:0.75;stroke-miterlimit:10;" points="0.607,0.375 86.902,0.375 
	101.447,29.34 87.405,58.306 1.108,58.306 15.149,29.419 "/>
<g>
	<g>
		<path style="fill:#2C6882;" d="M32.211,32.312v-9.506h7.049v1.608h-5.129v2.107h4.771v1.602h-4.771v2.587h5.311v1.602H32.211z"/>
		<path style="fill:#2C6882;" d="M42.949,32.312l-2.775-6.886h1.913l1.297,3.514l0.376,1.174c0.1-0.298,0.162-0.495,0.188-0.59
			c0.061-0.194,0.126-0.389,0.195-0.584l1.31-3.514h1.874l-2.736,6.886H42.949z"/>
		<path style="fill:#2C6882;" d="M49.802,27.527l-1.653-0.299c0.187-0.665,0.506-1.158,0.96-1.478c0.454-0.32,1.128-0.48,2.022-0.48
			c0.813,0,1.418,0.097,1.816,0.289c0.397,0.192,0.677,0.437,0.839,0.732s0.243,0.84,0.243,1.631l-0.019,2.127
			c0,0.605,0.028,1.052,0.087,1.339s0.168,0.596,0.327,0.924h-1.802c-0.048-0.121-0.106-0.301-0.176-0.538
			c-0.03-0.108-0.052-0.18-0.064-0.214c-0.312,0.303-0.645,0.529-0.999,0.681s-0.732,0.227-1.134,0.227
			c-0.71,0-1.269-0.192-1.677-0.577c-0.408-0.384-0.612-0.87-0.612-1.459c0-0.389,0.093-0.735,0.278-1.04s0.446-0.538,0.781-0.7
			s0.818-0.304,1.449-0.425c0.852-0.16,1.441-0.31,1.771-0.447v-0.182c0-0.351-0.087-0.6-0.26-0.749s-0.499-0.224-0.979-0.224
			c-0.324,0-0.577,0.063-0.759,0.191C50.061,26.983,49.914,27.206,49.802,27.527z M52.24,29.005
			c-0.233,0.077-0.604,0.171-1.109,0.278c-0.505,0.108-0.836,0.214-0.991,0.318c-0.238,0.168-0.357,0.382-0.357,0.642
			c0,0.255,0.096,0.476,0.286,0.661c0.189,0.187,0.432,0.279,0.726,0.279c0.329,0,0.643-0.108,0.94-0.324
			c0.221-0.164,0.365-0.365,0.435-0.604c0.048-0.155,0.071-0.451,0.071-0.888V29.005z"/>
		<path style="fill:#2C6882;" d="M55.826,32.312v-9.506h1.822v9.506H55.826z"/>
		<path style="fill:#2C6882;" d="M64.048,32.312v-1.031c-0.251,0.368-0.58,0.657-0.988,0.869c-0.409,0.212-0.84,0.317-1.294,0.317
			c-0.463,0-0.878-0.102-1.245-0.305c-0.367-0.203-0.633-0.488-0.797-0.855c-0.165-0.367-0.247-0.876-0.247-1.523v-4.357h1.822
			v3.164c0,0.968,0.033,1.562,0.101,1.779c0.066,0.219,0.188,0.392,0.366,0.52c0.177,0.127,0.402,0.19,0.675,0.19
			c0.311,0,0.59-0.085,0.836-0.256s0.415-0.383,0.506-0.635c0.091-0.253,0.136-0.873,0.136-1.858v-2.904h1.822v6.886H64.048z"/>
		<path style="fill:#2C6882;" d="M68.988,27.527l-1.653-0.299c0.187-0.665,0.506-1.158,0.96-1.478c0.454-0.32,1.128-0.48,2.022-0.48
			c0.813,0,1.418,0.097,1.816,0.289c0.397,0.192,0.677,0.437,0.839,0.732s0.243,0.84,0.243,1.631l-0.019,2.127
			c0,0.605,0.028,1.052,0.087,1.339s0.168,0.596,0.327,0.924h-1.802c-0.048-0.121-0.106-0.301-0.176-0.538
			c-0.03-0.108-0.052-0.18-0.064-0.214c-0.312,0.303-0.645,0.529-0.999,0.681s-0.732,0.227-1.134,0.227
			c-0.71,0-1.269-0.192-1.677-0.577c-0.408-0.384-0.612-0.87-0.612-1.459c0-0.389,0.093-0.735,0.278-1.04s0.446-0.538,0.781-0.7
			s0.818-0.304,1.449-0.425c0.852-0.16,1.441-0.31,1.771-0.447v-0.182c0-0.351-0.087-0.6-0.26-0.749s-0.499-0.224-0.979-0.224
			c-0.324,0-0.577,0.063-0.759,0.191C69.248,26.983,69.1,27.206,68.988,27.527z M71.427,29.005
			c-0.233,0.077-0.604,0.171-1.109,0.278c-0.505,0.108-0.836,0.214-0.991,0.318c-0.238,0.168-0.357,0.382-0.357,0.642
			c0,0.255,0.096,0.476,0.286,0.661c0.189,0.187,0.432,0.279,0.726,0.279c0.329,0,0.643-0.108,0.94-0.324
			c0.221-0.164,0.365-0.365,0.435-0.604c0.048-0.155,0.071-0.451,0.071-0.888V29.005z"/>
		<path style="fill:#2C6882;" d="M76.757,32.312h-1.822v-6.886h1.692v0.979c0.29-0.462,0.551-0.767,0.781-0.914
			c0.231-0.146,0.494-0.221,0.788-0.221c0.415,0,0.814,0.115,1.199,0.344l-0.563,1.589c-0.308-0.199-0.593-0.298-0.856-0.298
			c-0.255,0-0.471,0.07-0.648,0.21c-0.177,0.141-0.316,0.395-0.418,0.762c-0.102,0.368-0.152,1.138-0.152,2.309V32.312z"/>
	</g>
</g>
</svg>
