<?xml version="1.0" encoding="utf-8"?>
<!-- Generator: Adobe Illustrator 17.0.0, SVG Export Plug-In . SVG Version: 6.00 Build 0)  -->
<!DOCTYPE svg PUBLIC "-//W3C//DTD SVG 1.1//EN" "http://www.w3.org/Graphics/SVG/1.1/DTD/svg11.dtd">
<svg version="1.1" id="Capa_1" xmlns="http://www.w3.org/2000/svg" xmlns:xlink="http://www.w3.org/1999/xlink" x="0px" y="0px"
	 width="95.341px" height="94.808px" viewBox="0 0 95.341 94.808" style="enable-background:new 0 0 95.341 94.808;"
	 xml:space="preserve">
<g>
	<circle style="fill:#6FC2D8;" cx="47.413" cy="47.404" r="37.514"/>
	<circle style="fill:#FFFFFF;" cx="47.413" cy="47.404" r="32.669"/>
	<g>
		<circle style="fill:#FFFFFF;" cx="47.412" cy="47.404" r="30.446"/>
	</g>
	<g>
		<circle style="fill:#2C6882;" cx="47.412" cy="47.404" r="30.446"/>
	</g>
	<g>
		<path style="fill:#FFFFFF;" d="M26.748,38.545h2.138c0.482,0,0.85,0.037,1.103,0.111c0.34,0.1,0.631,0.277,0.874,0.533
			c0.242,0.256,0.427,0.568,0.553,0.938c0.127,0.37,0.189,0.827,0.189,1.369c0,0.478-0.059,0.889-0.178,1.233
			c-0.145,0.422-0.352,0.763-0.62,1.023c-0.203,0.197-0.477,0.352-0.822,0.463c-0.258,0.081-0.604,0.122-1.035,0.122h-2.201V38.545z
			 M27.918,39.526v3.837h0.873c0.327,0,0.563-0.018,0.707-0.055c0.19-0.048,0.348-0.128,0.473-0.241s0.228-0.3,0.307-0.56
			c0.079-0.259,0.118-0.613,0.118-1.061c0-0.448-0.039-0.792-0.118-1.031c-0.079-0.24-0.19-0.427-0.332-0.562
			c-0.143-0.135-0.323-0.226-0.542-0.272c-0.163-0.037-0.483-0.056-0.96-0.056H27.918z"/>
		<path style="fill:#FFFFFF;" d="M32.327,44.339v-5.794h1.169v5.794H32.327z"/>
		<path style="fill:#FFFFFF;" d="M39.601,44.339h-1.272l-0.506-1.316h-2.316l-0.478,1.316h-1.241l2.257-5.794h1.236L39.601,44.339z
			 M37.446,42.047l-0.798-2.15l-0.782,2.15H37.446z"/>
		<path style="fill:#FFFFFF;" d="M42.682,42.209v-0.977h2.521v2.309c-0.245,0.236-0.601,0.445-1.065,0.626s-0.936,0.271-1.413,0.271
			c-0.605,0-1.134-0.127-1.584-0.381c-0.451-0.255-0.789-0.618-1.016-1.091s-0.34-0.987-0.34-1.544c0-0.603,0.126-1.139,0.379-1.608
			c0.253-0.469,0.623-0.828,1.11-1.078c0.372-0.192,0.834-0.289,1.388-0.289c0.719,0,1.28,0.151,1.686,0.453
			c0.404,0.302,0.664,0.718,0.78,1.25l-1.162,0.218c-0.082-0.284-0.235-0.509-0.46-0.674c-0.226-0.165-0.507-0.247-0.844-0.247
			c-0.512,0-0.918,0.162-1.22,0.486s-0.452,0.805-0.452,1.442c0,0.688,0.152,1.203,0.458,1.547s0.706,0.516,1.201,0.516
			c0.245,0,0.491-0.048,0.737-0.144c0.246-0.097,0.458-0.213,0.635-0.351v-0.734H42.682z"/>
		<path style="fill:#FFFFFF;" d="M46.051,44.339v-5.794h2.462c0.619,0,1.069,0.053,1.35,0.156c0.28,0.104,0.505,0.289,0.674,0.556
			c0.169,0.266,0.253,0.57,0.253,0.913c0,0.435-0.128,0.793-0.383,1.076c-0.256,0.283-0.638,0.462-1.146,0.536
			c0.253,0.147,0.462,0.31,0.626,0.485c0.165,0.177,0.387,0.49,0.666,0.941l0.708,1.13H49.86l-0.846-1.261
			c-0.3-0.45-0.506-0.734-0.616-0.852c-0.111-0.117-0.229-0.197-0.352-0.241c-0.124-0.043-0.32-0.065-0.589-0.065h-0.237v2.419
			H46.051z M47.221,40.995h0.865c0.562,0,0.912-0.023,1.052-0.07c0.14-0.048,0.248-0.13,0.327-0.245
			c0.079-0.116,0.119-0.261,0.119-0.435c0-0.195-0.052-0.353-0.156-0.473s-0.251-0.195-0.44-0.228
			c-0.095-0.013-0.38-0.02-0.854-0.02h-0.913V40.995z"/>
		<path style="fill:#FFFFFF;" d="M56.882,44.339h-1.272l-0.506-1.316h-2.316l-0.478,1.316h-1.241l2.257-5.794h1.236L56.882,44.339z
			 M54.728,42.047l-0.798-2.15l-0.782,2.15H54.728z"/>
		<path style="fill:#FFFFFF;" d="M57.252,44.339v-5.794h1.751l1.051,3.952l1.039-3.952h1.755v5.794h-1.087v-4.561l-1.149,4.561
			h-1.127l-1.146-4.561v4.561H57.252z"/>
		<path style="fill:#FFFFFF;" d="M68.999,44.339h-1.272l-0.506-1.316h-2.316l-0.478,1.316h-1.241l2.257-5.794h1.236L68.999,44.339z
			 M66.845,42.047l-0.798-2.15l-0.782,2.15H66.845z"/>
		<path style="fill:#FFFFFF;" d="M22.481,48.257h2.138c0.482,0,0.85,0.037,1.103,0.111c0.34,0.1,0.631,0.277,0.874,0.533
			c0.242,0.256,0.427,0.568,0.553,0.938c0.127,0.37,0.189,0.827,0.189,1.369c0,0.478-0.059,0.889-0.178,1.233
			c-0.145,0.422-0.352,0.763-0.62,1.023c-0.203,0.197-0.477,0.352-0.822,0.463c-0.258,0.081-0.604,0.122-1.035,0.122h-2.201V48.257z
			 M23.651,49.238v3.837h0.873c0.327,0,0.563-0.018,0.707-0.055c0.19-0.048,0.348-0.128,0.473-0.241s0.228-0.3,0.307-0.56
			c0.079-0.259,0.118-0.613,0.118-1.061c0-0.448-0.039-0.792-0.118-1.031c-0.079-0.24-0.19-0.427-0.332-0.562
			c-0.143-0.135-0.323-0.226-0.542-0.272c-0.163-0.037-0.483-0.056-0.96-0.056H23.651z"/>
		<path style="fill:#FFFFFF;" d="M28.096,54.051v-5.794h4.296v0.98h-3.126v1.284h2.908v0.977h-2.908v1.576h3.236v0.977H28.096z"/>
		<path style="fill:#FFFFFF;" d="M35.277,48.257h2.315c0.459,0,0.801,0.02,1.026,0.058c0.225,0.038,0.427,0.118,0.604,0.239
			s0.326,0.282,0.444,0.484c0.118,0.201,0.178,0.427,0.178,0.678c0,0.271-0.073,0.521-0.22,0.747
			c-0.146,0.227-0.344,0.396-0.595,0.51c0.354,0.103,0.625,0.277,0.814,0.525c0.189,0.247,0.284,0.539,0.284,0.873
			c0,0.264-0.061,0.52-0.184,0.769c-0.122,0.249-0.29,0.448-0.502,0.597c-0.212,0.149-0.474,0.241-0.784,0.275
			c-0.195,0.021-0.665,0.034-1.411,0.039h-1.972V48.257z M36.447,49.222v1.34h0.767c0.456,0,0.739-0.007,0.85-0.021
			c0.2-0.023,0.357-0.093,0.473-0.207c0.114-0.114,0.172-0.266,0.172-0.452c0-0.18-0.05-0.325-0.148-0.438
			c-0.099-0.111-0.246-0.18-0.44-0.203c-0.116-0.013-0.449-0.02-1-0.02H36.447z M36.447,51.526v1.549h1.083
			c0.421,0,0.688-0.012,0.802-0.035c0.174-0.031,0.315-0.108,0.425-0.231c0.109-0.122,0.164-0.286,0.164-0.492
			c0-0.174-0.042-0.321-0.126-0.442c-0.085-0.121-0.206-0.209-0.366-0.265c-0.159-0.056-0.505-0.083-1.037-0.083H36.447z"/>
		<path style="fill:#FFFFFF;" d="M40.914,54.051v-5.746h1.17v4.77h2.909v0.977H40.914z"/>
		<path style="fill:#FFFFFF;" d="M45.355,51.19c0-0.59,0.089-1.085,0.265-1.485c0.132-0.296,0.312-0.561,0.54-0.795
			c0.228-0.234,0.478-0.408,0.749-0.521c0.36-0.152,0.776-0.229,1.248-0.229c0.854,0,1.537,0.265,2.05,0.795
			c0.512,0.529,0.769,1.266,0.769,2.209c0,0.936-0.255,1.667-0.763,2.195c-0.509,0.528-1.188,0.792-2.039,0.792
			c-0.862,0-1.547-0.263-2.056-0.788S45.355,52.112,45.355,51.19z M46.561,51.151c0,0.655,0.152,1.153,0.455,1.491
			c0.303,0.339,0.688,0.508,1.153,0.508c0.467,0,0.85-0.168,1.148-0.504s0.448-0.84,0.448-1.512c0-0.663-0.146-1.159-0.437-1.485
			c-0.291-0.327-0.678-0.49-1.16-0.49c-0.481,0-0.87,0.165-1.165,0.496C46.708,49.986,46.561,50.484,46.561,51.151z"/>
		<path style="fill:#FFFFFF;" d="M56.316,53.316c0.287,0.206,0.6,0.369,0.937,0.49l-0.431,0.826
			c-0.177-0.053-0.349-0.125-0.518-0.218c-0.037-0.019-0.296-0.189-0.778-0.514c-0.38,0.166-0.8,0.249-1.261,0.249
			c-0.891,0-1.588-0.262-2.093-0.786s-0.757-1.261-0.757-2.209c0-0.946,0.253-1.682,0.759-2.207c0.506-0.526,1.192-0.789,2.06-0.789
			c0.858,0,1.539,0.263,2.043,0.789c0.503,0.525,0.755,1.261,0.755,2.207c0,0.5-0.07,0.94-0.21,1.319
			C56.717,52.764,56.549,53.044,56.316,53.316z M55.376,52.656c0.15-0.176,0.263-0.39,0.338-0.64s0.112-0.537,0.112-0.861
			c0-0.67-0.147-1.169-0.442-1.5s-0.681-0.496-1.158-0.496c-0.477,0-0.863,0.166-1.159,0.498c-0.297,0.332-0.445,0.831-0.445,1.498
			c0,0.677,0.148,1.184,0.445,1.52c0.296,0.336,0.671,0.504,1.124,0.504c0.169,0,0.328-0.028,0.479-0.083
			c-0.237-0.155-0.479-0.277-0.724-0.364l0.328-0.668C54.658,52.195,55.025,52.393,55.376,52.656z"/>
		<path style="fill:#FFFFFF;" d="M57.706,48.257h1.17v3.139c0,0.497,0.015,0.82,0.043,0.968c0.05,0.237,0.17,0.428,0.357,0.571
			c0.188,0.144,0.446,0.215,0.773,0.215c0.332,0,0.582-0.067,0.751-0.203c0.168-0.136,0.27-0.303,0.304-0.5s0.052-0.525,0.052-0.984
			v-3.205h1.17V51.3c0,0.696-0.032,1.188-0.096,1.475c-0.063,0.287-0.18,0.529-0.35,0.727c-0.17,0.198-0.396,0.355-0.682,0.473
			c-0.284,0.117-0.656,0.176-1.114,0.176c-0.554,0-0.973-0.063-1.259-0.191s-0.512-0.294-0.678-0.498s-0.275-0.418-0.328-0.643
			c-0.076-0.332-0.114-0.821-0.114-1.47V48.257z"/>
		<path style="fill:#FFFFFF;" d="M63.324,54.051v-5.794h4.296v0.98h-3.126v1.284h2.908v0.977h-2.908v1.576h3.236v0.977H63.324z"/>
		<path style="fill:#FFFFFF;" d="M68.19,52.166l1.139-0.111c0.068,0.383,0.207,0.663,0.417,0.842c0.209,0.18,0.492,0.27,0.848,0.27
			c0.377,0,0.66-0.08,0.852-0.239c0.191-0.16,0.286-0.346,0.286-0.56c0-0.137-0.04-0.254-0.12-0.35
			c-0.08-0.097-0.221-0.18-0.421-0.251c-0.137-0.048-0.449-0.132-0.937-0.253c-0.627-0.155-1.067-0.347-1.32-0.573
			c-0.355-0.318-0.533-0.707-0.533-1.166c0-0.295,0.084-0.57,0.251-0.827s0.408-0.453,0.723-0.587
			c0.315-0.135,0.695-0.202,1.141-0.202c0.728,0,1.274,0.16,1.642,0.479c0.368,0.318,0.561,0.744,0.579,1.276l-1.17,0.052
			c-0.05-0.298-0.157-0.512-0.321-0.643c-0.165-0.131-0.412-0.195-0.741-0.195c-0.34,0-0.606,0.069-0.799,0.209
			c-0.123,0.09-0.186,0.21-0.186,0.359c0,0.138,0.058,0.255,0.174,0.353c0.147,0.123,0.506,0.253,1.075,0.387
			c0.569,0.135,0.99,0.273,1.263,0.417s0.486,0.34,0.64,0.589c0.154,0.249,0.231,0.557,0.231,0.923c0,0.332-0.092,0.643-0.276,0.933
			s-0.445,0.505-0.782,0.646c-0.338,0.141-0.758,0.211-1.261,0.211c-0.732,0-1.295-0.169-1.688-0.508
			C68.502,53.308,68.268,52.814,68.19,52.166z"/>
	</g>
	<g>
		<path style="fill:none;stroke:#393939;stroke-width:1.0444;stroke-miterlimit:10;" d="M6.264,56.041
			c-0.582-2.786-0.888-5.677-0.888-8.637c0-14.749,7.597-27.724,19.093-35.223"/>
		<path style="fill:none;stroke:#393939;stroke-width:1.0444;stroke-miterlimit:10;" d="M17.353,76.786
			c-3.705-3.789-6.699-8.275-8.768-13.244"/>
		<path style="fill:none;stroke:#393939;stroke-width:1.0444;stroke-miterlimit:10;" d="M44.887,89.358
			c-9.177-0.543-17.563-4.03-24.225-9.53"/>
		<path style="fill:none;stroke:#393939;stroke-width:1.0444;stroke-miterlimit:10;" d="M87.769,35.66
			c1.081,3.728,1.662,7.669,1.662,11.744c0,21.453-16.073,39.151-36.834,41.71"/>
		<path style="fill:none;stroke:#393939;stroke-width:1.0444;stroke-miterlimit:10;" d="M32.345,8.156
			c4.676-1.795,9.752-2.779,15.06-2.779c15.958,0,29.839,8.894,36.954,21.995"/>
		<path style="fill:none;stroke:#393939;stroke-width:1.0444;stroke-miterlimit:10;" d="M94.079,51.831
			c-0.955,10.203-5.18,19.455-11.614,26.696"/>
		<path style="fill:none;stroke:#393939;stroke-width:1.0444;stroke-miterlimit:10;" d="M72.112,7.554
			c12.391,7.699,20.928,21.018,22.047,36.393"/>
		<path style="fill:none;stroke:#393939;stroke-width:1.0444;stroke-miterlimit:10;" d="M3.759,30.256
			c6.847-17.41,23.807-29.733,43.646-29.733c5.616,0,11.002,0.988,15.994,2.8"/>
		<path style="fill:none;stroke:#393939;stroke-width:1.0444;stroke-miterlimit:10;" d="M4.521,66.381
			C1.95,60.58,0.522,54.159,0.522,47.404c0-3.219,0.324-6.362,0.943-9.398"/>
		<path style="fill:none;stroke:#393939;stroke-width:1.0444;stroke-miterlimit:10;" d="M22.67,87.238
			c-6.326-3.937-11.645-9.338-15.485-15.73"/>
		<path style="fill:none;stroke:#393939;stroke-width:1.0444;stroke-miterlimit:10;" d="M77.677,83.204
			c-8.168,6.914-18.734,11.082-30.272,11.082c-6.971,0-13.586-1.521-19.532-4.25"/>
		<circle style="fill:#393939;" cx="8.586" cy="63.542" r="1.261"/>
		<circle style="fill:#393939;" cx="4.522" cy="66.381" r="1.261"/>
		<circle style="fill:#393939;" cx="6.343" cy="56.041" r="1.262"/>
		<circle style="fill:#393939;" cx="1.47" cy="38.006" r="1.262"/>
		<circle style="fill:#393939;" cx="3.759" cy="30.256" r="1.262"/>
		<circle style="fill:#393939;" cx="24.47" cy="12.181" r="1.262"/>
		<circle style="fill:#393939;" cx="32.344" cy="8.29" r="1.261"/>
		<circle style="fill:#393939;" cx="63.398" cy="3.522" r="1.262"/>
		<circle style="fill:#393939;" cx="84.358" cy="27.372" r="1.262"/>
		<circle style="fill:#393939;" cx="72.111" cy="7.554" r="1.262"/>
		<circle style="fill:#393939;" cx="87.785" cy="35.66" r="1.261"/>
		<circle style="fill:#393939;" cx="94.079" cy="43.856" r="1.262"/>
		<circle style="fill:#393939;" cx="94.079" cy="51.831" r="1.262"/>
		<circle style="fill:#393939;" cx="17.354" cy="76.786" r="1.261"/>
		<circle style="fill:#393939;" cx="20.662" cy="79.828" r="1.261"/>
		<circle style="fill:#393939;" cx="22.669" cy="87.238" r="1.262"/>
		<circle style="fill:#393939;" cx="7.184" cy="71.508" r="1.262"/>
		<circle style="fill:#393939;" cx="44.887" cy="89.358" r="1.262"/>
		<circle style="fill:#393939;" cx="27.871" cy="90.006" r="1.261"/>
		<circle style="fill:#393939;" cx="52.597" cy="89.114" r="1.261"/>
		<circle style="fill:#393939;" cx="82.465" cy="78.566" r="1.261"/>
		<circle style="fill:#393939;" cx="77.676" cy="83.204" r="1.261"/>
	</g>
</g>
</svg>
