<?xml version="1.0" encoding="utf-8"?>
<!-- Generator: Adobe Illustrator 17.0.0, SVG Export Plug-In . SVG Version: 6.00 Build 0)  -->
<!DOCTYPE svg PUBLIC "-//W3C//DTD SVG 1.1//EN" "http://www.w3.org/Graphics/SVG/1.1/DTD/svg11.dtd">
<svg version="1.1" id="Capa_1" xmlns="http://www.w3.org/2000/svg" xmlns:xlink="http://www.w3.org/1999/xlink" x="0px" y="0px"
	 width="95.34px" height="94.808px" viewBox="0 0 95.34 94.808" style="enable-background:new 0 0 95.34 94.808;"
	 xml:space="preserve">
<g>
	<g>
		<circle style="fill:#6FC2D8;" cx="47.413" cy="47.404" r="37.513"/>
		<circle style="fill:#393939;" cx="47.414" cy="47.404" r="32.669"/>
		<g>
			<circle style="fill:#FFFFFF;" cx="47.413" cy="47.404" r="30.445"/>
		</g>
		<g>
			<path style="fill:none;stroke:#393939;stroke-width:1.0444;stroke-miterlimit:10;" d="M6.265,56.041
				c-0.582-2.786-0.888-5.677-0.888-8.637c0-14.749,7.596-27.724,19.093-35.223"/>
			<path style="fill:none;stroke:#393939;stroke-width:1.0444;stroke-miterlimit:10;" d="M17.354,76.786
				c-3.705-3.789-6.699-8.275-8.768-13.244"/>
			<path style="fill:none;stroke:#393939;stroke-width:1.0444;stroke-miterlimit:10;" d="M44.887,89.358
				c-9.178-0.543-17.563-4.03-24.225-9.53"/>
			<path style="fill:none;stroke:#393939;stroke-width:1.0444;stroke-miterlimit:10;" d="M87.77,35.66
				c1.081,3.728,1.662,7.669,1.662,11.744c0,21.453-16.074,39.151-36.834,41.71"/>
			<path style="fill:none;stroke:#393939;stroke-width:1.0444;stroke-miterlimit:10;" d="M32.345,8.156
				c4.676-1.795,9.752-2.779,15.06-2.779c15.958,0,29.838,8.894,36.953,21.995"/>
			<path style="fill:none;stroke:#393939;stroke-width:1.0444;stroke-miterlimit:10;" d="M94.08,51.831
				c-0.955,10.203-5.18,19.455-11.614,26.696"/>
			<path style="fill:none;stroke:#393939;stroke-width:1.0444;stroke-miterlimit:10;" d="M72.113,7.554
				c12.391,7.699,20.928,21.018,22.046,36.393"/>
			<path style="fill:none;stroke:#393939;stroke-width:1.0444;stroke-miterlimit:10;" d="M3.76,30.256
				c6.847-17.41,23.807-29.733,43.646-29.733c5.616,0,11.002,0.988,15.994,2.8"/>
			<path style="fill:none;stroke:#393939;stroke-width:1.0444;stroke-miterlimit:10;" d="M4.522,66.381
				c-2.571-5.801-4-12.222-4-18.977c0-3.219,0.325-6.362,0.944-9.398"/>
			<path style="fill:none;stroke:#393939;stroke-width:1.0444;stroke-miterlimit:10;" d="M22.671,87.238
				c-6.326-3.937-11.646-9.338-15.485-15.73"/>
			<path style="fill:none;stroke:#393939;stroke-width:1.0444;stroke-miterlimit:10;" d="M77.677,83.204
				c-8.168,6.914-18.734,11.082-30.271,11.082c-6.971,0-13.586-1.521-19.532-4.25"/>
			<circle style="fill:#393939;" cx="8.587" cy="63.542" r="1.261"/>
			<circle style="fill:#393939;" cx="4.522" cy="66.381" r="1.262"/>
			<circle style="fill:#393939;" cx="6.344" cy="56.041" r="1.262"/>
			<circle style="fill:#393939;" cx="1.47" cy="38.006" r="1.262"/>
			<circle style="fill:#393939;" cx="3.76" cy="30.256" r="1.262"/>
			<circle style="fill:#393939;" cx="24.47" cy="12.181" r="1.262"/>
			<circle style="fill:#393939;" cx="32.345" cy="8.29" r="1.261"/>
			<circle style="fill:#393939;" cx="63.399" cy="3.522" r="1.262"/>
			<circle style="fill:#393939;" cx="84.359" cy="27.372" r="1.262"/>
			<circle style="fill:#393939;" cx="72.112" cy="7.554" r="1.262"/>
			<circle style="fill:#393939;" cx="87.786" cy="35.66" r="1.261"/>
			<circle style="fill:#393939;" cx="94.079" cy="43.856" r="1.261"/>
			<circle style="fill:#393939;" cx="94.079" cy="51.831" r="1.261"/>
			<circle style="fill:#393939;" cx="17.354" cy="76.786" r="1.262"/>
			<circle style="fill:#393939;" cx="20.663" cy="79.828" r="1.261"/>
			<circle style="fill:#393939;" cx="22.669" cy="87.238" r="1.262"/>
			<circle style="fill:#393939;" cx="7.185" cy="71.507" r="1.262"/>
			<circle style="fill:#393939;" cx="44.887" cy="89.358" r="1.262"/>
			<circle style="fill:#393939;" cx="27.872" cy="90.006" r="1.262"/>
			<circle style="fill:#393939;" cx="52.597" cy="89.114" r="1.261"/>
			<circle style="fill:#393939;" cx="82.466" cy="78.566" r="1.261"/>
			<circle style="fill:#393939;" cx="77.677" cy="83.204" r="1.261"/>
		</g>
	</g>
	<g>
		<polygon style="fill:#6FC2D8;stroke:#000000;stroke-width:0.75;stroke-miterlimit:10;" points="22.249,40.773 45.311,40.773 
			49.198,48.514 45.446,56.256 22.383,56.256 26.136,48.536 		"/>
		<polygon style="fill:#6FC2D8;stroke:#000000;stroke-width:0.75;stroke-miterlimit:10;" points="47.893,40.773 70.956,40.773 
			74.841,48.514 71.091,56.256 48.026,56.256 51.78,48.536 		"/>
	</g>
</g>
</svg>
