<?xml version="1.0" encoding="utf-8"?>
<!-- Generator: Adobe Illustrator 17.0.0, SVG Export Plug-In . SVG Version: 6.00 Build 0)  -->
<!DOCTYPE svg PUBLIC "-//W3C//DTD SVG 1.1//EN" "http://www.w3.org/Graphics/SVG/1.1/DTD/svg11.dtd">
<svg version="1.1" id="Capa_1" xmlns="http://www.w3.org/2000/svg" xmlns:xlink="http://www.w3.org/1999/xlink" x="0px" y="0px"
	 width="101.864px" height="58.681px" viewBox="0 0 101.864 58.681" style="enable-background:new 0 0 101.864 58.681;"
	 xml:space="preserve">
<polygon style="fill:#6FC2D8;stroke:#000000;stroke-width:0.75;stroke-miterlimit:10;" points="0.607,0.375 86.904,0.375 
	101.446,29.34 87.406,58.306 1.107,58.306 15.149,29.419 "/>
<g>
	<path style="fill:#2C6882;" d="M30.113,28.286l1.861,0.59c-0.285,1.038-0.76,1.809-1.423,2.312
		c-0.664,0.504-1.506,0.756-2.526,0.756c-1.262,0-2.3-0.432-3.112-1.294s-1.219-2.041-1.219-3.537c0-1.582,0.408-2.811,1.226-3.686
		c0.817-0.876,1.891-1.313,3.223-1.313c1.163,0,2.107,0.344,2.833,1.031c0.433,0.406,0.757,0.99,0.973,1.751l-1.899,0.453
		c-0.112-0.492-0.347-0.882-0.703-1.167c-0.357-0.285-0.79-0.428-1.301-0.428c-0.704,0-1.276,0.253-1.715,0.759
		s-0.658,1.325-0.658,2.457c0,1.202,0.216,2.058,0.648,2.568c0.433,0.51,0.994,0.765,1.686,0.765c0.511,0,0.949-0.162,1.316-0.486
		S29.954,28.983,30.113,28.286z"/>
	<path style="fill:#2C6882;" d="M33.186,28.242c0-0.605,0.149-1.191,0.448-1.758c0.298-0.565,0.721-0.998,1.268-1.297
		c0.547-0.298,1.157-0.447,1.831-0.447c1.042,0,1.896,0.339,2.562,1.015c0.666,0.677,0.999,1.532,0.999,2.564
		c0,1.042-0.337,1.905-1.009,2.591s-1.519,1.027-2.538,1.027c-0.632,0-1.233-0.143-1.807-0.428
		c-0.572-0.285-1.008-0.703-1.306-1.255C33.336,29.703,33.186,29.033,33.186,28.242z M35.054,28.338
		c0,0.684,0.162,1.206,0.486,1.569s0.724,0.545,1.199,0.545s0.874-0.182,1.196-0.545s0.483-0.891,0.483-1.582
		c0-0.674-0.161-1.193-0.483-1.556c-0.322-0.363-0.721-0.545-1.196-0.545s-0.875,0.182-1.199,0.545
		C35.217,27.132,35.054,27.656,35.054,28.338z"/>
	<path style="fill:#2C6882;" d="M47.983,31.782h-1.822v-3.515c0-0.743-0.039-1.224-0.116-1.442c-0.078-0.218-0.204-0.388-0.38-0.509
		c-0.175-0.121-0.386-0.182-0.632-0.182c-0.315,0-0.599,0.086-0.85,0.259c-0.251,0.174-0.423,0.402-0.516,0.688
		s-0.139,0.813-0.139,1.582v3.119h-1.822v-6.886h1.692v1.011c0.601-0.777,1.357-1.167,2.27-1.167c0.401,0,0.769,0.072,1.102,0.218
		c0.333,0.145,0.585,0.329,0.756,0.554c0.171,0.226,0.289,0.48,0.356,0.766s0.101,0.693,0.101,1.226V31.782z"/>
	<path style="fill:#2C6882;" d="M49.19,29.817l1.828-0.278c0.078,0.354,0.235,0.623,0.474,0.807c0.237,0.185,0.57,0.275,0.998,0.275
		c0.472,0,0.826-0.086,1.063-0.259c0.16-0.121,0.24-0.283,0.24-0.486c0-0.139-0.043-0.253-0.13-0.344
		c-0.091-0.086-0.294-0.166-0.609-0.24c-1.47-0.324-2.401-0.62-2.795-0.888c-0.544-0.372-0.816-0.889-0.816-1.55
		c0-0.597,0.235-1.098,0.706-1.505c0.472-0.406,1.202-0.609,2.192-0.609c0.942,0,1.643,0.153,2.101,0.461
		c0.458,0.307,0.773,0.761,0.946,1.361l-1.718,0.317c-0.074-0.268-0.213-0.473-0.419-0.615c-0.205-0.143-0.498-0.214-0.878-0.214
		c-0.48,0-0.823,0.066-1.031,0.2c-0.139,0.096-0.207,0.219-0.207,0.37c0,0.13,0.061,0.239,0.182,0.33
		c0.164,0.121,0.731,0.292,1.701,0.513c0.971,0.221,1.648,0.49,2.033,0.811c0.38,0.324,0.57,0.776,0.57,1.355
		c0,0.631-0.264,1.173-0.791,1.627s-1.308,0.681-2.341,0.681c-0.938,0-1.681-0.189-2.227-0.57
		C49.717,30.987,49.358,30.47,49.19,29.817z"/>
	<path style="fill:#2C6882;" d="M57.217,23.962v-1.687h1.822v1.687H57.217z M57.217,31.782v-6.886h1.822v6.886H57.217z"/>
	<path style="fill:#2C6882;" d="M60.737,32.236l2.082,0.253c0.034,0.242,0.114,0.408,0.239,0.499
		c0.173,0.13,0.445,0.194,0.817,0.194c0.476,0,0.832-0.071,1.07-0.214c0.159-0.095,0.28-0.249,0.362-0.46
		c0.057-0.151,0.085-0.431,0.085-0.837v-1.005c-0.545,0.743-1.232,1.115-2.062,1.115c-0.925,0-1.657-0.392-2.198-1.174
		c-0.423-0.618-0.635-1.388-0.635-2.309c0-1.153,0.277-2.035,0.833-2.645c0.556-0.61,1.246-0.915,2.071-0.915
		c0.852,0,1.555,0.374,2.107,1.122v-0.966h1.705v6.179c0,0.813-0.066,1.42-0.2,1.822c-0.135,0.402-0.322,0.718-0.564,0.946
		c-0.242,0.229-0.565,0.409-0.97,0.539c-0.404,0.129-0.915,0.194-1.533,0.194c-1.167,0-1.995-0.2-2.483-0.6
		c-0.488-0.4-0.732-0.907-0.732-1.521C60.731,32.395,60.733,32.322,60.737,32.236z M62.365,28.196c0,0.73,0.142,1.266,0.425,1.605
		c0.283,0.339,0.632,0.509,1.047,0.509c0.445,0,0.821-0.174,1.128-0.522c0.308-0.348,0.461-0.863,0.461-1.546
		c0-0.714-0.147-1.243-0.441-1.589s-0.665-0.519-1.115-0.519c-0.437,0-0.796,0.17-1.079,0.509
		C62.507,26.983,62.365,27.5,62.365,28.196z"/>
	<path style="fill:#2C6882;" d="M75.281,31.782h-1.822v-3.515c0-0.743-0.039-1.224-0.116-1.442c-0.078-0.218-0.204-0.388-0.38-0.509
		c-0.175-0.121-0.386-0.182-0.632-0.182c-0.315,0-0.599,0.086-0.85,0.259c-0.251,0.174-0.423,0.402-0.516,0.688
		s-0.139,0.813-0.139,1.582v3.119h-1.822v-6.886h1.692v1.011c0.601-0.777,1.357-1.167,2.27-1.167c0.401,0,0.769,0.072,1.102,0.218
		c0.333,0.145,0.585,0.329,0.756,0.554c0.171,0.226,0.289,0.48,0.356,0.766s0.101,0.693,0.101,1.226V31.782z"/>
	<path style="fill:#2C6882;" d="M78.491,26.996l-1.653-0.299c0.187-0.665,0.506-1.158,0.96-1.478c0.454-0.32,1.128-0.48,2.022-0.48
		c0.813,0,1.418,0.097,1.816,0.289c0.397,0.192,0.677,0.437,0.839,0.732s0.243,0.84,0.243,1.631L82.7,29.519
		c0,0.605,0.028,1.052,0.087,1.339s0.168,0.596,0.327,0.924h-1.802c-0.048-0.121-0.106-0.301-0.176-0.538
		c-0.03-0.108-0.052-0.18-0.064-0.214c-0.312,0.303-0.645,0.529-0.999,0.681s-0.732,0.227-1.134,0.227
		c-0.71,0-1.269-0.192-1.677-0.577c-0.408-0.384-0.612-0.87-0.612-1.459c0-0.389,0.093-0.735,0.278-1.04s0.446-0.538,0.781-0.7
		s0.818-0.304,1.449-0.425c0.852-0.16,1.441-0.31,1.771-0.447v-0.182c0-0.351-0.087-0.6-0.26-0.749s-0.499-0.224-0.979-0.224
		c-0.324,0-0.577,0.063-0.759,0.191C78.751,26.452,78.603,26.676,78.491,26.996z M80.929,28.475
		c-0.233,0.077-0.604,0.171-1.109,0.278c-0.505,0.108-0.836,0.214-0.991,0.318c-0.238,0.168-0.357,0.382-0.357,0.642
		c0,0.255,0.096,0.476,0.286,0.661c0.189,0.187,0.432,0.279,0.726,0.279c0.329,0,0.643-0.108,0.94-0.324
		c0.221-0.164,0.365-0.365,0.435-0.604c0.048-0.155,0.071-0.451,0.071-0.888V28.475z"/>
	<path style="fill:#2C6882;" d="M86.259,31.782h-1.822v-6.886h1.692v0.979c0.29-0.462,0.551-0.767,0.781-0.914
		c0.231-0.146,0.494-0.221,0.788-0.221c0.415,0,0.814,0.115,1.199,0.344l-0.563,1.589c-0.308-0.199-0.593-0.298-0.856-0.298
		c-0.255,0-0.471,0.07-0.648,0.21c-0.177,0.141-0.316,0.395-0.418,0.762c-0.102,0.368-0.152,1.138-0.152,2.309V31.782z"/>
</g>
</svg>
