<?xml version="1.0" encoding="utf-8"?>
<!-- Generator: Adobe Illustrator 17.0.0, SVG Export Plug-In . SVG Version: 6.00 Build 0)  -->
<!DOCTYPE svg PUBLIC "-//W3C//DTD SVG 1.1//EN" "http://www.w3.org/Graphics/SVG/1.1/DTD/svg11.dtd">
<svg version="1.1" id="Capa_1" xmlns="http://www.w3.org/2000/svg" xmlns:xlink="http://www.w3.org/1999/xlink" x="0px" y="0px"
	 width="95.341px" height="94.808px" viewBox="0 0 95.341 94.808" style="enable-background:new 0 0 95.341 94.808;"
	 xml:space="preserve">
<g>
	<circle style="fill:#6FC2D8;" cx="47.413" cy="47.404" r="37.514"/>
	<circle style="fill:#393939;" cx="47.413" cy="47.404" r="32.669"/>
	<g>
		<circle style="fill:#FFFFFF;" cx="47.413" cy="47.404" r="30.446"/>
	</g>
	<g>
		<path style="fill:none;stroke:#393939;stroke-width:1.0444;stroke-miterlimit:10;" d="M6.265,56.04
			c-0.583-2.785-0.889-5.676-0.889-8.636c0-14.749,7.598-27.725,19.094-35.224"/>
		<path style="fill:none;stroke:#393939;stroke-width:1.0444;stroke-miterlimit:10;" d="M17.353,76.785
			c-3.705-3.788-6.699-8.274-8.768-13.243"/>
		<path style="fill:none;stroke:#393939;stroke-width:1.0444;stroke-miterlimit:10;" d="M44.887,89.357
			c-9.178-0.543-17.563-4.029-24.225-9.529"/>
		<path style="fill:none;stroke:#393939;stroke-width:1.0444;stroke-miterlimit:10;" d="M87.769,35.66
			c1.082,3.728,1.662,7.669,1.662,11.744c0,21.452-16.073,39.15-36.834,41.71"/>
		<path style="fill:none;stroke:#393939;stroke-width:1.0444;stroke-miterlimit:10;" d="M32.344,8.156
			c4.676-1.795,9.753-2.779,15.061-2.779c15.958,0,29.839,8.894,36.954,21.994"/>
		<path style="fill:none;stroke:#393939;stroke-width:1.0444;stroke-miterlimit:10;" d="M94.08,51.831
			c-0.956,10.202-5.181,19.454-11.615,26.695"/>
		<path style="fill:none;stroke:#393939;stroke-width:1.0444;stroke-miterlimit:10;" d="M72.111,7.554
			c12.392,7.698,20.928,21.017,22.049,36.393"/>
		<path style="fill:none;stroke:#393939;stroke-width:1.0444;stroke-miterlimit:10;" d="M3.758,30.255
			C10.605,12.845,27.566,0.522,47.404,0.522c5.616,0,11.002,0.987,15.994,2.8"/>
		<path style="fill:none;stroke:#393939;stroke-width:1.0444;stroke-miterlimit:10;" d="M4.521,66.381
			c-2.57-5.802-3.999-12.222-3.999-18.977c0-3.219,0.324-6.363,0.942-9.399"/>
		<path style="fill:none;stroke:#393939;stroke-width:1.0444;stroke-miterlimit:10;" d="M22.67,87.238
			c-6.326-3.938-11.646-9.338-15.485-15.73"/>
		<path style="fill:none;stroke:#393939;stroke-width:1.0444;stroke-miterlimit:10;" d="M77.677,83.203
			c-8.168,6.915-18.733,11.083-30.272,11.083c-6.971,0-13.586-1.521-19.533-4.251"/>
		<circle style="fill:#393939;" cx="8.587" cy="63.542" r="1.261"/>
		<circle style="fill:#393939;" cx="4.522" cy="66.381" r="1.261"/>
		<circle style="fill:#393939;" cx="6.344" cy="56.04" r="1.262"/>
		<circle style="fill:#393939;" cx="1.469" cy="38.006" r="1.261"/>
		<circle style="fill:#393939;" cx="3.759" cy="30.255" r="1.262"/>
		<circle style="fill:#393939;" cx="24.47" cy="12.18" r="1.261"/>
		<circle style="fill:#393939;" cx="32.344" cy="8.29" r="1.261"/>
		<circle style="fill:#393939;" cx="63.398" cy="3.521" r="1.262"/>
		<circle style="fill:#393939;" cx="84.359" cy="27.371" r="1.262"/>
		<circle style="fill:#393939;" cx="72.111" cy="7.554" r="1.262"/>
		<circle style="fill:#393939;" cx="87.785" cy="35.66" r="1.261"/>
		<circle style="fill:#393939;" cx="94.079" cy="43.856" r="1.262"/>
		<circle style="fill:#393939;" cx="94.079" cy="51.831" r="1.262"/>
		<circle style="fill:#393939;" cx="17.353" cy="76.785" r="1.262"/>
		<circle style="fill:#393939;" cx="20.662" cy="79.828" r="1.262"/>
		<circle style="fill:#393939;" cx="22.669" cy="87.238" r="1.262"/>
		<circle style="fill:#393939;" cx="7.184" cy="71.508" r="1.261"/>
		<circle style="fill:#393939;" cx="44.887" cy="89.357" r="1.262"/>
		<circle style="fill:#393939;" cx="27.871" cy="90.006" r="1.261"/>
		<circle style="fill:#393939;" cx="52.597" cy="89.114" r="1.262"/>
		<circle style="fill:#393939;" cx="82.465" cy="78.566" r="1.262"/>
		<circle style="fill:#393939;" cx="77.676" cy="83.203" r="1.262"/>
	</g>
</g>
<g>
	<polygon style="fill:#6FC2D8;stroke:#000000;stroke-width:0.75;stroke-miterlimit:10;" points="22.245,41.449 42.262,41.449 
		45.635,48.168 42.378,54.886 22.362,54.886 25.619,48.187 	"/>
	
		<rect x="20.729" y="38.802" style="fill:none;stroke:#000000;stroke-width:0.75;stroke-miterlimit:10;" width="25.944" height="18.51"/>
	<polygon style="fill:#6FC2D8;stroke:#000000;stroke-width:0.75;stroke-miterlimit:10;" points="49.852,41.449 69.868,41.449 
		73.24,48.168 69.984,54.886 49.969,54.886 53.225,48.187 	"/>
	
		<rect x="48.336" y="38.802" style="fill:none;stroke:#000000;stroke-width:0.75;stroke-miterlimit:10;" width="25.944" height="18.51"/>
</g>
</svg>
