<?xml version="1.0" encoding="utf-8"?>
<!-- Generator: Adobe Illustrator 17.0.0, SVG Export Plug-In . SVG Version: 6.00 Build 0)  -->
<!DOCTYPE svg PUBLIC "-//W3C//DTD SVG 1.1//EN" "http://www.w3.org/Graphics/SVG/1.1/DTD/svg11.dtd">
<svg version="1.1" id="Capa_1" xmlns="http://www.w3.org/2000/svg" xmlns:xlink="http://www.w3.org/1999/xlink" x="0px" y="0px"
	 width="101.866px" height="58.681px" viewBox="0 0 101.866 58.681" style="enable-background:new 0 0 101.866 58.681;"
	 xml:space="preserve">
<polygon style="fill:#6FC2D8;stroke:#000000;stroke-width:0.75;stroke-miterlimit:10;" points="0.607,0.375 86.903,0.375 
	101.448,29.34 87.404,58.306 1.11,58.306 15.151,29.419 "/>
<g>
	<g>
		<path style="fill:#2C6882;" d="M30.969,32.312v-9.506h1.919v9.506H30.969z"/>
		<path style="fill:#2C6882;" d="M40.967,32.312h-1.822v-3.515c0-0.743-0.039-1.224-0.116-1.442
			c-0.078-0.218-0.204-0.388-0.38-0.509c-0.175-0.121-0.386-0.182-0.632-0.182c-0.315,0-0.599,0.086-0.85,0.259
			c-0.251,0.174-0.423,0.402-0.516,0.688s-0.139,0.813-0.139,1.582v3.119H34.69v-6.886h1.692v1.011
			c0.601-0.777,1.357-1.167,2.27-1.167c0.401,0,0.769,0.072,1.102,0.218c0.333,0.145,0.585,0.329,0.756,0.554
			c0.171,0.226,0.289,0.48,0.356,0.766s0.101,0.693,0.101,1.226V32.312z"/>
		<path style="fill:#2C6882;" d="M42.173,30.347l1.828-0.278c0.078,0.354,0.235,0.623,0.474,0.807
			c0.237,0.185,0.57,0.275,0.998,0.275c0.472,0,0.826-0.086,1.063-0.259c0.16-0.121,0.24-0.283,0.24-0.486
			c0-0.139-0.043-0.253-0.13-0.344c-0.091-0.086-0.294-0.166-0.609-0.24c-1.47-0.324-2.401-0.62-2.795-0.888
			c-0.544-0.372-0.816-0.889-0.816-1.55c0-0.597,0.235-1.098,0.706-1.505c0.472-0.406,1.202-0.609,2.192-0.609
			c0.942,0,1.643,0.153,2.101,0.461c0.458,0.307,0.773,0.761,0.946,1.361l-1.718,0.317c-0.074-0.268-0.213-0.473-0.419-0.615
			c-0.205-0.143-0.498-0.214-0.878-0.214c-0.48,0-0.823,0.066-1.031,0.2c-0.139,0.096-0.207,0.219-0.207,0.37
			c0,0.13,0.061,0.239,0.182,0.33c0.164,0.121,0.731,0.292,1.701,0.513c0.971,0.221,1.648,0.49,2.033,0.811
			c0.38,0.324,0.57,0.776,0.57,1.355c0,0.631-0.264,1.173-0.791,1.627c-0.527,0.454-1.308,0.681-2.341,0.681
			c-0.938,0-1.681-0.189-2.227-0.57C42.699,31.517,42.341,31,42.173,30.347z"/>
		<path style="fill:#2C6882;" d="M56.204,27.462l-1.796,0.324c-0.061-0.359-0.197-0.63-0.411-0.811
			c-0.215-0.182-0.492-0.272-0.834-0.272c-0.453,0-0.815,0.156-1.086,0.47c-0.27,0.313-0.405,0.838-0.405,1.572
			c0,0.817,0.138,1.395,0.412,1.731s0.643,0.506,1.105,0.506c0.346,0,0.629-0.099,0.85-0.295c0.22-0.197,0.376-0.535,0.467-1.015
			l1.789,0.305c-0.186,0.821-0.542,1.441-1.069,1.86c-0.527,0.42-1.234,0.629-2.12,0.629c-1.008,0-1.811-0.317-2.409-0.953
			c-0.599-0.635-0.898-1.515-0.898-2.639c0-1.137,0.301-2.021,0.901-2.655c0.601-0.633,1.414-0.95,2.438-0.95
			c0.839,0,1.505,0.181,2,0.542C55.633,26.172,55.988,26.723,56.204,27.462z"/>
		<path style="fill:#2C6882;" d="M59.329,32.312h-1.822v-6.886h1.692v0.979c0.29-0.462,0.551-0.767,0.781-0.914
			c0.231-0.146,0.494-0.221,0.788-0.221c0.415,0,0.814,0.115,1.199,0.344l-0.563,1.589c-0.308-0.199-0.593-0.298-0.856-0.298
			c-0.255,0-0.471,0.07-0.648,0.21c-0.177,0.141-0.316,0.395-0.418,0.762c-0.102,0.368-0.152,1.138-0.152,2.309V32.312z"/>
		<path style="fill:#2C6882;" d="M62.753,24.493v-1.687h1.822v1.687H62.753z M62.753,32.312v-6.886h1.822v6.886H62.753z"/>
		<path style="fill:#2C6882;" d="M66.364,32.312v-9.506h1.822v3.424c0.562-0.64,1.228-0.96,1.997-0.96
			c0.839,0,1.532,0.304,2.081,0.911c0.55,0.607,0.824,1.479,0.824,2.616c0,1.176-0.28,2.082-0.84,2.717
			c-0.56,0.636-1.239,0.953-2.039,0.953c-0.394,0-0.781-0.098-1.164-0.295c-0.383-0.196-0.712-0.487-0.989-0.872v1.012H66.364z
			 M68.174,28.72c0,0.713,0.112,1.24,0.337,1.582c0.315,0.483,0.735,0.726,1.258,0.726c0.402,0,0.745-0.172,1.028-0.516
			c0.282-0.343,0.424-0.885,0.424-1.624c0-0.786-0.143-1.354-0.428-1.702c-0.285-0.348-0.65-0.521-1.096-0.521
			c-0.437,0-0.8,0.17-1.089,0.509C68.318,27.513,68.174,28.028,68.174,28.72z"/>
		<path style="fill:#2C6882;" d="M74.554,24.493v-1.687h1.822v1.687H74.554z M74.554,32.312v-6.886h1.822v6.886H74.554z"/>
		<path style="fill:#2C6882;" d="M79.987,32.312h-1.822v-6.886h1.692v0.979c0.29-0.462,0.551-0.767,0.781-0.914
			c0.231-0.146,0.494-0.221,0.788-0.221c0.415,0,0.814,0.115,1.199,0.344l-0.563,1.589c-0.308-0.199-0.593-0.298-0.856-0.298
			c-0.255,0-0.471,0.07-0.648,0.21c-0.177,0.141-0.316,0.395-0.418,0.762c-0.102,0.368-0.152,1.138-0.152,2.309V32.312z"/>
	</g>
</g>
</svg>
