<?xml version="1.0" encoding="utf-8"?>
<!-- Generator: Adobe Illustrator 17.0.0, SVG Export Plug-In . SVG Version: 6.00 Build 0)  -->
<!DOCTYPE svg PUBLIC "-//W3C//DTD SVG 1.1//EN" "http://www.w3.org/Graphics/SVG/1.1/DTD/svg11.dtd">
<svg version="1.1" id="Capa_1" xmlns="http://www.w3.org/2000/svg" xmlns:xlink="http://www.w3.org/1999/xlink" x="0px" y="0px"
	 width="95.341px" height="94.808px" viewBox="0 0 95.341 94.808" style="enable-background:new 0 0 95.341 94.808;"
	 xml:space="preserve">
<g>
	<circle style="fill:#6FC2D8;" cx="47.413" cy="47.404" r="37.514"/>
	<circle style="fill:#393939;" cx="47.412" cy="47.404" r="32.669"/>
	<g>
		<circle style="fill:#FFFFFF;" cx="47.412" cy="47.404" r="30.446"/>
	</g>
	<g>
		<path style="fill:none;stroke:#393939;stroke-width:1.0444;stroke-miterlimit:10;" d="M6.264,56.041
			c-0.582-2.786-0.889-5.677-0.889-8.637c0-14.749,7.598-27.724,19.094-35.223"/>
		<path style="fill:none;stroke:#393939;stroke-width:1.0444;stroke-miterlimit:10;" d="M17.353,76.786
			c-3.705-3.789-6.699-8.275-8.768-13.244"/>
		<path style="fill:none;stroke:#393939;stroke-width:1.0444;stroke-miterlimit:10;" d="M44.887,89.358
			c-9.177-0.543-17.563-4.03-24.226-9.53"/>
		<path style="fill:none;stroke:#393939;stroke-width:1.0444;stroke-miterlimit:10;" d="M87.768,35.66
			c1.082,3.727,1.663,7.669,1.663,11.744c0,21.453-16.073,39.151-36.835,41.71"/>
		<path style="fill:none;stroke:#393939;stroke-width:1.0444;stroke-miterlimit:10;" d="M32.345,8.156
			c4.676-1.795,9.752-2.779,15.059-2.779c15.958,0,29.839,8.894,36.954,21.995"/>
		<path style="fill:none;stroke:#393939;stroke-width:1.0444;stroke-miterlimit:10;" d="M94.079,51.831
			c-0.955,10.203-5.18,19.455-11.614,26.696"/>
		<path style="fill:none;stroke:#393939;stroke-width:1.0444;stroke-miterlimit:10;" d="M72.112,7.554
			c12.391,7.699,20.928,21.018,22.047,36.393"/>
		<path style="fill:none;stroke:#393939;stroke-width:1.0444;stroke-miterlimit:10;" d="M3.759,30.256
			c6.846-17.41,23.807-29.733,43.646-29.733c5.616,0,11.002,0.988,15.994,2.8"/>
		<path style="fill:none;stroke:#393939;stroke-width:1.0444;stroke-miterlimit:10;" d="M4.521,66.381
			C1.95,60.58,0.522,54.159,0.522,47.404c0-3.219,0.324-6.362,0.943-9.398"/>
		<path style="fill:none;stroke:#393939;stroke-width:1.0444;stroke-miterlimit:10;" d="M22.67,87.238
			c-6.327-3.937-11.646-9.338-15.485-15.73"/>
		<path style="fill:none;stroke:#393939;stroke-width:1.0444;stroke-miterlimit:10;" d="M77.677,83.204
			c-8.168,6.914-18.734,11.082-30.272,11.082c-6.972,0-13.585-1.521-19.532-4.25"/>
		<circle style="fill:#393939;" cx="8.586" cy="63.542" r="1.261"/>
		<circle style="fill:#393939;" cx="4.521" cy="66.381" r="1.261"/>
		<circle style="fill:#393939;" cx="6.343" cy="56.041" r="1.262"/>
		<circle style="fill:#393939;" cx="1.469" cy="38.006" r="1.262"/>
		<circle style="fill:#393939;" cx="3.759" cy="30.256" r="1.262"/>
		<circle style="fill:#393939;" cx="24.469" cy="12.181" r="1.262"/>
		<circle style="fill:#393939;" cx="32.344" cy="8.29" r="1.261"/>
		<circle style="fill:#393939;" cx="63.398" cy="3.522" r="1.261"/>
		<circle style="fill:#393939;" cx="84.358" cy="27.372" r="1.262"/>
		<circle style="fill:#393939;" cx="72.111" cy="7.554" r="1.262"/>
		<circle style="fill:#393939;" cx="87.785" cy="35.66" r="1.261"/>
		<circle style="fill:#393939;" cx="94.079" cy="43.856" r="1.262"/>
		<circle style="fill:#393939;" cx="94.079" cy="51.831" r="1.262"/>
		<circle style="fill:#393939;" cx="17.354" cy="76.786" r="1.261"/>
		<circle style="fill:#393939;" cx="20.662" cy="79.828" r="1.261"/>
		<circle style="fill:#393939;" cx="22.669" cy="87.238" r="1.262"/>
		<circle style="fill:#393939;" cx="7.184" cy="71.508" r="1.262"/>
		<circle style="fill:#393939;" cx="44.886" cy="89.358" r="1.262"/>
		<circle style="fill:#393939;" cx="27.871" cy="90.006" r="1.261"/>
		<circle style="fill:#393939;" cx="52.597" cy="89.114" r="1.261"/>
		<circle style="fill:#393939;" cx="82.465" cy="78.566" r="1.261"/>
		<circle style="fill:#393939;" cx="77.676" cy="83.204" r="1.261"/>
	</g>
</g>
<g>
	<polygon style="fill:#6FC2D8;stroke:#000000;stroke-width:0.75;stroke-miterlimit:10;" points="34.444,41.52 55.906,41.52 
		59.522,47.584 56.031,53.645 34.567,53.645 38.06,47.599 	"/>
	
		<rect x="34.444" y="32.391" style="fill:#6FC2D8;stroke:#000000;stroke-width:0.75;stroke-linecap:round;stroke-linejoin:round;stroke-miterlimit:10;" width="25.076" height="6.159"/>
	
		<rect x="34.444" y="56.258" style="fill:#6FC2D8;stroke:#000000;stroke-width:0.75;stroke-linecap:round;stroke-linejoin:round;stroke-miterlimit:10;" width="25.076" height="6.16"/>
	
		<rect x="23.115" y="32.39" style="fill:#6FC2D8;stroke:#000000;stroke-width:0.75;stroke-linecap:round;stroke-linejoin:round;stroke-miterlimit:10;" width="9.019" height="30.027"/>
	
		<rect x="62.161" y="32.39" style="fill:#6FC2D8;stroke:#000000;stroke-width:0.75;stroke-linecap:round;stroke-linejoin:round;stroke-miterlimit:10;" width="9.017" height="30.027"/>
</g>
</svg>
