<?xml version="1.0" encoding="utf-8"?>
<!-- Generator: Adobe Illustrator 17.0.0, SVG Export Plug-In . SVG Version: 6.00 Build 0)  -->
<!DOCTYPE svg PUBLIC "-//W3C//DTD SVG 1.1//EN" "http://www.w3.org/Graphics/SVG/1.1/DTD/svg11.dtd">
<svg version="1.1" id="Capa_1" xmlns="http://www.w3.org/2000/svg" xmlns:xlink="http://www.w3.org/1999/xlink" x="0px" y="0px"
	 width="101.864px" height="58.681px" viewBox="0 0 101.864 58.681" style="enable-background:new 0 0 101.864 58.681;"
	 xml:space="preserve">
<polygon style="fill:#6FC2D8;stroke:#000000;stroke-width:0.75;stroke-miterlimit:10;" points="0.607,0.375 86.903,0.375 
	101.446,29.34 87.404,58.306 1.108,58.306 15.15,29.419 "/>
<g>
	<g>
		<path style="fill:#2C6882;" d="M36.43,28.817l1.861,0.59c-0.285,1.038-0.76,1.809-1.423,2.312
			c-0.664,0.504-1.506,0.756-2.526,0.756c-1.262,0-2.3-0.432-3.112-1.294c-0.813-0.862-1.219-2.041-1.219-3.537
			c0-1.582,0.408-2.811,1.226-3.686c0.817-0.876,1.891-1.313,3.223-1.313c1.163,0,2.107,0.344,2.833,1.031
			c0.433,0.406,0.757,0.99,0.973,1.751l-1.899,0.453c-0.112-0.492-0.347-0.882-0.703-1.167c-0.357-0.285-0.79-0.428-1.301-0.428
			c-0.704,0-1.276,0.253-1.715,0.759s-0.658,1.325-0.658,2.457c0,1.202,0.216,2.058,0.648,2.568c0.433,0.51,0.994,0.765,1.686,0.765
			c0.511,0,0.949-0.162,1.316-0.486S36.27,29.513,36.43,28.817z"/>
		<path style="fill:#2C6882;" d="M41.286,27.527l-1.653-0.299c0.187-0.665,0.506-1.158,0.96-1.478c0.454-0.32,1.128-0.48,2.022-0.48
			c0.813,0,1.418,0.097,1.816,0.289c0.397,0.192,0.677,0.437,0.839,0.732s0.243,0.84,0.243,1.631l-0.019,2.127
			c0,0.605,0.028,1.052,0.087,1.339s0.168,0.596,0.327,0.924h-1.802c-0.048-0.121-0.106-0.301-0.176-0.538
			c-0.03-0.108-0.052-0.18-0.064-0.214c-0.312,0.303-0.645,0.529-0.999,0.681s-0.732,0.227-1.134,0.227
			c-0.71,0-1.269-0.192-1.677-0.577c-0.408-0.384-0.612-0.87-0.612-1.459c0-0.389,0.093-0.735,0.278-1.04s0.446-0.538,0.781-0.7
			s0.818-0.304,1.449-0.425c0.852-0.16,1.441-0.31,1.771-0.447v-0.182c0-0.351-0.087-0.6-0.26-0.749s-0.499-0.224-0.979-0.224
			c-0.324,0-0.577,0.063-0.759,0.191C41.546,26.983,41.398,27.206,41.286,27.527z M43.724,29.005
			c-0.233,0.077-0.604,0.171-1.109,0.278c-0.505,0.108-0.836,0.214-0.991,0.318c-0.238,0.168-0.357,0.382-0.357,0.642
			c0,0.255,0.096,0.476,0.286,0.661c0.189,0.187,0.432,0.279,0.726,0.279c0.329,0,0.643-0.108,0.94-0.324
			c0.221-0.164,0.365-0.365,0.435-0.604c0.048-0.155,0.071-0.451,0.071-0.888V29.005z"/>
		<path style="fill:#2C6882;" d="M47.31,32.312v-9.506h1.822v9.506H47.31z"/>
		<path style="fill:#2C6882;" d="M51,24.493v-1.687h1.822v1.687H51z M51,32.312v-6.886h1.822v6.886H51z"/>
		<path style="fill:#2C6882;" d="M53.891,25.426h1.012v-0.52c0-0.579,0.062-1.011,0.185-1.296c0.124-0.286,0.351-0.518,0.682-0.697
			c0.33-0.18,0.748-0.27,1.254-0.27c0.519,0,1.027,0.078,1.524,0.233l-0.247,1.271c-0.289-0.069-0.568-0.104-0.836-0.104
			c-0.264,0-0.453,0.062-0.567,0.186c-0.114,0.123-0.172,0.359-0.172,0.71v0.486h1.361v1.433h-1.361v5.453h-1.822v-5.453h-1.012
			V25.426z"/>
		<path style="fill:#2C6882;" d="M59.111,24.493v-1.687h1.822v1.687H59.111z M59.111,32.312v-6.886h1.822v6.886H59.111z"/>
		<path style="fill:#2C6882;" d="M68.805,27.462l-1.796,0.324c-0.061-0.359-0.197-0.63-0.411-0.811
			c-0.215-0.182-0.492-0.272-0.834-0.272c-0.453,0-0.815,0.156-1.086,0.47c-0.27,0.313-0.405,0.838-0.405,1.572
			c0,0.817,0.138,1.395,0.412,1.731s0.643,0.506,1.105,0.506c0.346,0,0.629-0.099,0.85-0.295c0.22-0.197,0.376-0.535,0.467-1.015
			l1.789,0.305c-0.186,0.821-0.542,1.441-1.069,1.86c-0.527,0.42-1.234,0.629-2.12,0.629c-1.008,0-1.811-0.317-2.409-0.953
			c-0.599-0.635-0.898-1.515-0.898-2.639c0-1.137,0.301-2.021,0.901-2.655c0.601-0.633,1.414-0.95,2.438-0.95
			c0.839,0,1.505,0.181,2,0.542C68.233,26.172,68.589,26.723,68.805,27.462z"/>
		<path style="fill:#2C6882;" d="M71.547,27.527l-1.653-0.299c0.187-0.665,0.506-1.158,0.96-1.478c0.454-0.32,1.128-0.48,2.022-0.48
			c0.813,0,1.418,0.097,1.816,0.289c0.397,0.192,0.677,0.437,0.839,0.732s0.243,0.84,0.243,1.631l-0.019,2.127
			c0,0.605,0.028,1.052,0.087,1.339s0.168,0.596,0.327,0.924h-1.802c-0.048-0.121-0.106-0.301-0.176-0.538
			c-0.03-0.108-0.052-0.18-0.064-0.214c-0.312,0.303-0.645,0.529-0.999,0.681s-0.732,0.227-1.134,0.227
			c-0.71,0-1.269-0.192-1.677-0.577c-0.408-0.384-0.612-0.87-0.612-1.459c0-0.389,0.093-0.735,0.278-1.04s0.446-0.538,0.781-0.7
			s0.818-0.304,1.449-0.425c0.852-0.16,1.441-0.31,1.771-0.447v-0.182c0-0.351-0.087-0.6-0.26-0.749s-0.499-0.224-0.979-0.224
			c-0.324,0-0.577,0.063-0.759,0.191C71.806,26.983,71.659,27.206,71.547,27.527z M73.985,29.005
			c-0.233,0.077-0.604,0.171-1.109,0.278c-0.505,0.108-0.836,0.214-0.991,0.318c-0.238,0.168-0.357,0.382-0.357,0.642
			c0,0.255,0.096,0.476,0.286,0.661c0.189,0.187,0.432,0.279,0.726,0.279c0.329,0,0.643-0.108,0.94-0.324
			c0.221-0.164,0.365-0.365,0.435-0.604c0.048-0.155,0.071-0.451,0.071-0.888V29.005z"/>
		<path style="fill:#2C6882;" d="M79.315,32.312h-1.822v-6.886h1.692v0.979c0.29-0.462,0.551-0.767,0.781-0.914
			c0.231-0.146,0.494-0.221,0.788-0.221c0.415,0,0.814,0.115,1.199,0.344l-0.563,1.589c-0.308-0.199-0.593-0.298-0.856-0.298
			c-0.255,0-0.471,0.07-0.648,0.21c-0.177,0.141-0.316,0.395-0.418,0.762c-0.102,0.368-0.152,1.138-0.152,2.309V32.312z"/>
	</g>
</g>
</svg>
