<?xml version="1.0" encoding="utf-8"?>
<!-- Generator: Adobe Illustrator 17.0.0, SVG Export Plug-In . SVG Version: 6.00 Build 0)  -->
<!DOCTYPE svg PUBLIC "-//W3C//DTD SVG 1.1//EN" "http://www.w3.org/Graphics/SVG/1.1/DTD/svg11.dtd">
<svg version="1.1" id="Capa_1" xmlns="http://www.w3.org/2000/svg" xmlns:xlink="http://www.w3.org/1999/xlink" x="0px" y="0px"
	 width="430.915px" height="57.299px" viewBox="0 0 430.915 57.299" style="enable-background:new 0 0 430.915 57.299;"
	 xml:space="preserve">
<g>
	<g>
		<path style="fill:#2C6882;" d="M61.783,1.802v19.204h-1.89V1.802h-5.01V0h11.909v1.802H61.783z"/>
		<path style="fill:#2C6882;" d="M78.87,18.604c-0.229,0.537-0.544,1.006-0.945,1.406s-0.869,0.715-1.406,0.945
			s-1.108,0.344-1.714,0.344h-1.201c-0.605,0-1.177-0.115-1.714-0.344s-1.006-0.544-1.406-0.945s-0.715-0.869-0.945-1.406
			s-0.344-1.108-0.344-1.714v-6.768c0-0.605,0.115-1.177,0.344-1.714s0.544-1.006,0.945-1.406s0.869-0.715,1.406-0.945
			s1.108-0.344,1.714-0.344h1.201c0.605,0,1.177,0.115,1.714,0.344s1.006,0.544,1.406,0.945s0.715,0.869,0.945,1.406
			s0.344,1.108,0.344,1.714v3.53h-8.218v3.34c0,0.361,0.068,0.701,0.205,1.018s0.322,0.593,0.557,0.828s0.51,0.42,0.828,0.557
			s0.657,0.205,1.018,0.205h1.201c0.361,0,0.701-0.068,1.018-0.205s0.593-0.322,0.828-0.557s0.42-0.51,0.557-0.828
			s0.205-0.657,0.205-1.018v-0.996l1.802,0.293v0.601C79.214,17.495,79.1,18.066,78.87,18.604z M77.413,10.02
			c0-0.361-0.068-0.701-0.205-1.018s-0.322-0.593-0.557-0.828s-0.51-0.42-0.828-0.557s-0.657-0.205-1.018-0.205h-1.201
			c-0.361,0-0.701,0.068-1.018,0.205s-0.593,0.322-0.828,0.557s-0.42,0.51-0.557,0.828s-0.205,0.657-0.205,1.018v2.227h6.416V10.02z
			 M73.458,3.604H72.11L74.498,0h3.003L73.458,3.604z"/>
		<path style="fill:#2C6882;" d="M92.493,18.604c-0.229,0.537-0.544,1.006-0.945,1.406s-0.869,0.715-1.406,0.945
			s-1.108,0.344-1.714,0.344h-1.201c-0.605,0-1.177-0.115-1.714-0.344s-1.006-0.544-1.406-0.945s-0.715-0.869-0.945-1.406
			s-0.344-1.108-0.344-1.714v-6.768c0-0.605,0.115-1.177,0.344-1.714s0.544-1.006,0.945-1.406s0.869-0.715,1.406-0.945
			s1.108-0.344,1.714-0.344h1.201c0.605,0,1.177,0.115,1.714,0.344s1.006,0.544,1.406,0.945s0.715,0.869,0.945,1.406
			s0.344,1.108,0.344,1.714v0.601l-1.802,0.293V10.02c0-0.361-0.068-0.701-0.205-1.018s-0.322-0.593-0.557-0.828
			s-0.51-0.42-0.828-0.557s-0.657-0.205-1.018-0.205h-1.201c-0.361,0-0.701,0.068-1.018,0.205s-0.593,0.322-0.828,0.557
			s-0.42,0.51-0.557,0.828S84.62,9.658,84.62,10.02v6.973c0,0.361,0.068,0.701,0.205,1.018s0.322,0.593,0.557,0.828
			s0.51,0.42,0.828,0.557s0.657,0.205,1.018,0.205h1.201c0.361,0,0.701-0.068,1.018-0.205s0.593-0.322,0.828-0.557
			s0.42-0.51,0.557-0.828s0.205-0.657,0.205-1.018v-0.996l1.802,0.293v0.601C92.837,17.495,92.723,18.066,92.493,18.604z"/>
		<path style="fill:#2C6882;" d="M104.659,21.006V10.02c0-0.361-0.068-0.701-0.205-1.018s-0.322-0.593-0.557-0.828
			s-0.51-0.42-0.828-0.557s-0.657-0.205-1.018-0.205h-1.201c-0.361,0-0.701,0.068-1.018,0.205s-0.593,0.322-0.828,0.557
			s-0.42,0.51-0.557,0.828s-0.205,0.657-0.205,1.018v10.986h-1.802v-15h0.601l0.981,1.523c0.41-0.557,0.925-0.999,1.545-1.326
			s1.296-0.491,2.029-0.491h0.454c0.605,0,1.177,0.115,1.714,0.344s1.006,0.544,1.406,0.945s0.715,0.869,0.945,1.406
			s0.344,1.108,0.344,1.714v10.884H104.659z"/>
		<path style="fill:#2C6882;" d="M110.518,2.402V0h2.095v2.402H110.518z M110.665,21.006v-15h1.802v15H110.665z"/>
		<path style="fill:#2C6882;" d="M126.346,18.604c-0.229,0.537-0.544,1.006-0.945,1.406s-0.869,0.715-1.406,0.945
			s-1.108,0.344-1.714,0.344h-1.201c-0.605,0-1.177-0.115-1.714-0.344s-1.006-0.544-1.406-0.945s-0.715-0.869-0.945-1.406
			s-0.344-1.108-0.344-1.714v-6.768c0-0.605,0.115-1.177,0.344-1.714s0.544-1.006,0.945-1.406s0.869-0.715,1.406-0.945
			s1.108-0.344,1.714-0.344h1.201c0.605,0,1.177,0.115,1.714,0.344s1.006,0.544,1.406,0.945s0.715,0.869,0.945,1.406
			s0.344,1.108,0.344,1.714v0.601l-1.802,0.293V10.02c0-0.361-0.068-0.701-0.205-1.018s-0.322-0.593-0.557-0.828
			s-0.51-0.42-0.828-0.557s-0.657-0.205-1.018-0.205h-1.201c-0.361,0-0.701,0.068-1.018,0.205s-0.593,0.322-0.828,0.557
			s-0.42,0.51-0.557,0.828s-0.205,0.657-0.205,1.018v6.973c0,0.361,0.068,0.701,0.205,1.018s0.322,0.593,0.557,0.828
			s0.51,0.42,0.828,0.557s0.657,0.205,1.018,0.205h1.201c0.361,0,0.701-0.068,1.018-0.205s0.593-0.322,0.828-0.557
			s0.42-0.51,0.557-0.828s0.205-0.657,0.205-1.018v-0.996l1.802,0.293v0.601C126.69,17.495,126.575,18.066,126.346,18.604z"/>
		<path style="fill:#2C6882;" d="M139.712,21.006l-0.996-1.494c-0.41,0.537-0.923,0.969-1.538,1.296s-1.289,0.491-2.021,0.491
			h-0.454c-0.605,0-1.177-0.115-1.714-0.344s-1.006-0.544-1.406-0.945s-0.715-0.869-0.945-1.406s-0.344-1.108-0.344-1.714v-0.146
			c0-0.605,0.115-1.177,0.344-1.714s0.544-1.006,0.945-1.406s0.869-0.715,1.406-0.945s1.108-0.344,1.714-0.344h3.809V10.02
			c0-0.361-0.068-0.701-0.205-1.018s-0.322-0.593-0.557-0.828s-0.51-0.42-0.828-0.557s-0.657-0.205-1.018-0.205h-1.055
			c-0.361,0-0.701,0.068-1.018,0.205s-0.593,0.322-0.828,0.557s-0.42,0.51-0.557,0.828s-0.205,0.657-0.205,1.018v0.542l-1.802-0.293
			v-0.146c0-0.605,0.115-1.177,0.344-1.714s0.544-1.006,0.945-1.406s0.869-0.715,1.406-0.945s1.108-0.344,1.714-0.344h1.055
			c0.605,0,1.177,0.115,1.714,0.344s1.006,0.544,1.406,0.945s0.715,0.869,0.945,1.406s0.344,1.108,0.344,1.714v10.884H139.712z
			 M138.511,13.74h-3.809c-0.361,0-0.701,0.068-1.018,0.205s-0.593,0.325-0.828,0.564s-0.42,0.518-0.557,0.835
			s-0.205,0.657-0.205,1.018v0.63c0,0.361,0.068,0.701,0.205,1.018s0.322,0.593,0.557,0.828s0.51,0.42,0.828,0.557
			s0.657,0.205,1.018,0.205h1.201c0.361,0,0.701-0.068,1.018-0.205s0.593-0.322,0.828-0.557s0.42-0.51,0.557-0.828
			s0.205-0.657,0.205-1.018V13.74z"/>
		<path style="fill:#2C6882;" d="M154.229,17.197c0,0.605-0.122,1.16-0.366,1.663s-0.576,0.935-0.996,1.296
			s-0.906,0.642-1.458,0.842s-1.13,0.3-1.736,0.3h-1.201c-0.605,0-1.184-0.115-1.736-0.344s-1.035-0.544-1.45-0.945
			s-0.747-0.869-0.996-1.406s-0.374-1.108-0.374-1.714v-0.601l1.802-0.293v0.996c0,0.361,0.076,0.701,0.227,1.018
			s0.354,0.593,0.608,0.828s0.547,0.42,0.879,0.557s0.679,0.205,1.04,0.205h1.201c0.361,0,0.708-0.054,1.04-0.161
			s0.627-0.261,0.886-0.461s0.464-0.442,0.615-0.725s0.227-0.605,0.227-0.967c0-0.537-0.117-0.977-0.352-1.318
			s-0.544-0.627-0.93-0.857s-0.825-0.42-1.318-0.571s-0.999-0.303-1.516-0.454s-1.023-0.325-1.516-0.52s-0.933-0.452-1.318-0.769
			s-0.696-0.715-0.93-1.194s-0.352-1.074-0.352-1.787c0-0.605,0.117-1.16,0.352-1.663s0.552-0.935,0.952-1.296
			s0.867-0.642,1.399-0.842s1.101-0.3,1.707-0.3h1.055c0.605,0,1.177,0.115,1.714,0.344s1.006,0.544,1.406,0.945
			s0.715,0.869,0.945,1.406s0.344,1.108,0.344,1.714v0.059l-1.802,0.293V10.02c0-0.361-0.068-0.701-0.205-1.018
			s-0.322-0.593-0.557-0.828s-0.51-0.42-0.828-0.557s-0.657-0.205-1.018-0.205h-1.055c-0.361,0-0.701,0.054-1.018,0.161
			s-0.593,0.261-0.828,0.461s-0.42,0.442-0.557,0.725s-0.205,0.605-0.205,0.967c0,0.518,0.117,0.94,0.352,1.267
			s0.544,0.603,0.93,0.828s0.825,0.413,1.318,0.564s0.996,0.308,1.509,0.469s1.016,0.344,1.509,0.549s0.933,0.469,1.318,0.791
			s0.696,0.725,0.93,1.208S154.229,16.484,154.229,17.197z"/>
		<path style="fill:#2C6882;" d="M174.261,18.604c-0.229,0.537-0.544,1.006-0.945,1.406s-0.869,0.715-1.406,0.945
			s-1.108,0.344-1.714,0.344h-0.454c-0.674,0-1.299-0.137-1.875-0.41s-1.069-0.654-1.479-1.143v7.266h-1.802V6.006h0.601
			l0.981,1.523c0.41-0.557,0.925-0.999,1.545-1.326s1.296-0.491,2.029-0.491h0.454c0.605,0,1.177,0.115,1.714,0.344
			s1.006,0.544,1.406,0.945s0.715,0.869,0.945,1.406s0.344,1.108,0.344,1.714v6.768C174.605,17.495,174.49,18.066,174.261,18.604z
			 M172.803,10.02c0-0.361-0.068-0.701-0.205-1.018s-0.322-0.593-0.557-0.828s-0.51-0.42-0.828-0.557s-0.657-0.205-1.018-0.205
			h-1.201c-0.361,0-0.701,0.068-1.018,0.205s-0.593,0.322-0.828,0.557s-0.42,0.51-0.557,0.828s-0.205,0.657-0.205,1.018v6.973
			c0,0.361,0.068,0.701,0.205,1.018s0.322,0.593,0.557,0.828s0.51,0.42,0.828,0.557s0.657,0.205,1.018,0.205h1.201
			c0.361,0,0.701-0.068,1.018-0.205s0.593-0.322,0.828-0.557s0.42-0.51,0.557-0.828s0.205-0.657,0.205-1.018V10.02z"/>
		<path style="fill:#2C6882;" d="M187.627,21.006l-0.996-1.494c-0.41,0.537-0.923,0.969-1.538,1.296s-1.289,0.491-2.021,0.491
			h-0.454c-0.605,0-1.177-0.115-1.714-0.344s-1.006-0.544-1.406-0.945s-0.715-0.869-0.945-1.406s-0.344-1.108-0.344-1.714v-0.146
			c0-0.605,0.115-1.177,0.344-1.714s0.544-1.006,0.945-1.406s0.869-0.715,1.406-0.945s1.108-0.344,1.714-0.344h3.809V10.02
			c0-0.361-0.068-0.701-0.205-1.018s-0.322-0.593-0.557-0.828s-0.51-0.42-0.828-0.557s-0.657-0.205-1.018-0.205h-1.055
			c-0.361,0-0.701,0.068-1.018,0.205s-0.593,0.322-0.828,0.557s-0.42,0.51-0.557,0.828s-0.205,0.657-0.205,1.018v0.542l-1.802-0.293
			v-0.146c0-0.605,0.115-1.177,0.344-1.714s0.544-1.006,0.945-1.406s0.869-0.715,1.406-0.945s1.108-0.344,1.714-0.344h1.055
			c0.605,0,1.177,0.115,1.714,0.344s1.006,0.544,1.406,0.945s0.715,0.869,0.945,1.406s0.344,1.108,0.344,1.714v10.884H187.627z
			 M186.426,13.74h-3.809c-0.361,0-0.701,0.068-1.018,0.205s-0.593,0.325-0.828,0.564s-0.42,0.518-0.557,0.835
			s-0.205,0.657-0.205,1.018v0.63c0,0.361,0.068,0.701,0.205,1.018s0.322,0.593,0.557,0.828s0.51,0.42,0.828,0.557
			s0.657,0.205,1.018,0.205h1.201c0.361,0,0.701-0.068,1.018-0.205s0.593-0.322,0.828-0.557s0.42-0.51,0.557-0.828
			s0.205-0.657,0.205-1.018V13.74z"/>
		<path style="fill:#2C6882;" d="M196.241,7.72c-0.361,0-0.701,0.068-1.018,0.205s-0.593,0.322-0.828,0.557s-0.42,0.51-0.557,0.828
			s-0.205,0.657-0.205,1.018v10.679h-1.802v-15h0.601l0.981,1.523c0.41-0.557,0.925-0.999,1.545-1.326s1.296-0.491,2.029-0.491
			h1.055V7.72H196.241z"/>
		<path style="fill:#2C6882;" d="M209.864,21.006l-0.996-1.494c-0.41,0.537-0.923,0.969-1.538,1.296s-1.289,0.491-2.021,0.491
			h-0.454c-0.605,0-1.177-0.115-1.714-0.344s-1.006-0.544-1.406-0.945s-0.715-0.869-0.945-1.406s-0.344-1.108-0.344-1.714v-0.146
			c0-0.605,0.115-1.177,0.344-1.714s0.544-1.006,0.945-1.406s0.869-0.715,1.406-0.945s1.108-0.344,1.714-0.344h3.809V10.02
			c0-0.361-0.068-0.701-0.205-1.018s-0.322-0.593-0.557-0.828s-0.51-0.42-0.828-0.557s-0.657-0.205-1.018-0.205h-1.055
			c-0.361,0-0.701,0.068-1.018,0.205s-0.593,0.322-0.828,0.557s-0.42,0.51-0.557,0.828s-0.205,0.657-0.205,1.018v0.542l-1.802-0.293
			v-0.146c0-0.605,0.115-1.177,0.344-1.714s0.544-1.006,0.945-1.406s0.869-0.715,1.406-0.945s1.108-0.344,1.714-0.344h1.055
			c0.605,0,1.177,0.115,1.714,0.344s1.006,0.544,1.406,0.945s0.715,0.869,0.945,1.406s0.344,1.108,0.344,1.714v10.884H209.864z
			 M208.663,13.74h-3.809c-0.361,0-0.701,0.068-1.018,0.205s-0.593,0.325-0.828,0.564s-0.42,0.518-0.557,0.835
			s-0.205,0.657-0.205,1.018v0.63c0,0.361,0.068,0.701,0.205,1.018s0.322,0.593,0.557,0.828s0.51,0.42,0.828,0.557
			s0.657,0.205,1.018,0.205h1.201c0.361,0,0.701-0.068,1.018-0.205s0.593-0.322,0.828-0.557s0.42-0.51,0.557-0.828
			s0.205-0.657,0.205-1.018V13.74z"/>
		<path style="fill:#2C6882;" d="M56.685,57.006V36h1.89v21.006H56.685z"/>
		<path style="fill:#2C6882;" d="M72.198,57.006l-0.996-1.523c-0.41,0.557-0.923,0.999-1.538,1.326s-1.289,0.49-2.021,0.49h-0.454
			c-0.605,0-1.177-0.114-1.714-0.344s-1.006-0.545-1.406-0.945s-0.715-0.869-0.945-1.406s-0.344-1.108-0.344-1.714v-6.768
			c0-0.605,0.115-1.177,0.344-1.714s0.544-1.006,0.945-1.406s0.869-0.715,1.406-0.944s1.108-0.345,1.714-0.345h0.454
			c0.674,0,1.299,0.137,1.875,0.41s1.069,0.654,1.479,1.143V36h1.802v21.006H72.198z M70.997,46.02c0-0.361-0.068-0.7-0.205-1.018
			s-0.322-0.594-0.557-0.828s-0.51-0.42-0.828-0.557s-0.657-0.205-1.018-0.205h-1.201c-0.361,0-0.701,0.068-1.018,0.205
			s-0.593,0.322-0.828,0.557s-0.42,0.511-0.557,0.828s-0.205,0.656-0.205,1.018v6.973c0,0.361,0.068,0.701,0.205,1.019
			s0.322,0.593,0.557,0.827s0.51,0.42,0.828,0.557s0.657,0.205,1.018,0.205h1.201c0.361,0,0.701-0.068,1.018-0.205
			s0.593-0.322,0.828-0.557s0.42-0.51,0.557-0.827s0.205-0.657,0.205-1.019V46.02z"/>
		<path style="fill:#2C6882;" d="M86.077,54.604c-0.229,0.537-0.544,1.006-0.945,1.406s-0.869,0.716-1.406,0.945
			s-1.108,0.344-1.714,0.344h-1.201c-0.605,0-1.177-0.114-1.714-0.344s-1.006-0.545-1.406-0.945s-0.715-0.869-0.945-1.406
			s-0.344-1.108-0.344-1.714v-6.768c0-0.605,0.115-1.177,0.344-1.714s0.544-1.006,0.945-1.406s0.869-0.715,1.406-0.944
			s1.108-0.345,1.714-0.345h1.201c0.605,0,1.177,0.115,1.714,0.345s1.006,0.544,1.406,0.944s0.715,0.869,0.945,1.406
			s0.344,1.108,0.344,1.714v3.53h-8.218v3.34c0,0.361,0.068,0.701,0.205,1.019s0.322,0.593,0.557,0.827s0.51,0.42,0.828,0.557
			S80.45,55.6,80.811,55.6h1.201c0.361,0,0.701-0.068,1.018-0.205s0.593-0.322,0.828-0.557s0.42-0.51,0.557-0.827
			s0.205-0.657,0.205-1.019v-0.996l1.802,0.293v0.601C86.421,53.495,86.307,54.066,86.077,54.604z M84.62,46.02
			c0-0.361-0.068-0.7-0.205-1.018s-0.322-0.594-0.557-0.828s-0.51-0.42-0.828-0.557s-0.657-0.205-1.018-0.205h-1.201
			c-0.361,0-0.701,0.068-1.018,0.205s-0.593,0.322-0.828,0.557s-0.42,0.511-0.557,0.828s-0.205,0.656-0.205,1.018v2.227h6.416V46.02
			z"/>
		<path style="fill:#2C6882;" d="M98.243,57.006V46.02c0-0.361-0.068-0.7-0.205-1.018s-0.322-0.594-0.557-0.828
			s-0.51-0.42-0.828-0.557s-0.657-0.205-1.018-0.205h-1.201c-0.361,0-0.701,0.068-1.018,0.205s-0.593,0.322-0.828,0.557
			s-0.42,0.511-0.557,0.828s-0.205,0.656-0.205,1.018v10.986h-1.802v-15h0.601l0.981,1.523c0.41-0.557,0.925-0.998,1.545-1.325
			s1.296-0.491,2.029-0.491h0.454c0.605,0,1.177,0.115,1.714,0.345s1.006,0.544,1.406,0.944s0.715,0.869,0.945,1.406
			s0.344,1.108,0.344,1.714v10.884H98.243z"/>
		<path style="fill:#2C6882;" d="M109.112,57.006c-0.547,0-1.062-0.103-1.545-0.308s-0.903-0.488-1.26-0.85s-0.64-0.781-0.85-1.26
			s-0.315-0.991-0.315-1.538V43.72h-2.695v-1.714h2.695v-3.604l1.802-0.293v3.896h3.809v1.714h-3.809v9.419
			c0,0.303,0.056,0.584,0.168,0.843s0.266,0.485,0.461,0.681s0.425,0.35,0.688,0.462s0.547,0.168,0.85,0.168h1.641v1.714H109.112z"
			/>
		<path style="fill:#2C6882;" d="M114.517,38.402V36h2.095v2.402H114.517z M114.664,57.006v-15h1.802v15H114.664z"/>
		<path style="fill:#2C6882;" d="M125.826,37.714c-0.303,0-0.583,0.057-0.842,0.169s-0.486,0.266-0.681,0.461
			s-0.349,0.425-0.461,0.688s-0.168,0.547-0.168,0.85v2.124h3.501v1.714h-3.501v13.286h-1.802V43.72h-2.71v-1.714h2.71V39.97
			c0-0.547,0.103-1.062,0.308-1.545s0.488-0.906,0.85-1.268s0.781-0.645,1.26-0.85S125.279,36,125.826,36h1.655v1.714H125.826z"/>
		<path style="fill:#2C6882;" d="M129.737,38.402V36h2.095v2.402H129.737z M129.883,57.006v-15h1.802v15H129.883z"/>
		<path style="fill:#2C6882;" d="M145.564,54.604c-0.229,0.537-0.544,1.006-0.945,1.406s-0.869,0.716-1.406,0.945
			s-1.108,0.344-1.714,0.344h-1.201c-0.605,0-1.177-0.114-1.714-0.344s-1.006-0.545-1.406-0.945s-0.715-0.869-0.945-1.406
			s-0.344-1.108-0.344-1.714v-6.768c0-0.605,0.115-1.177,0.344-1.714s0.544-1.006,0.945-1.406s0.869-0.715,1.406-0.944
			s1.108-0.345,1.714-0.345h1.201c0.605,0,1.177,0.115,1.714,0.345s1.006,0.544,1.406,0.944s0.715,0.869,0.945,1.406
			s0.344,1.108,0.344,1.714v0.601l-1.802,0.293V46.02c0-0.361-0.068-0.7-0.205-1.018s-0.322-0.594-0.557-0.828
			s-0.51-0.42-0.828-0.557s-0.657-0.205-1.018-0.205h-1.201c-0.361,0-0.701,0.068-1.018,0.205s-0.593,0.322-0.828,0.557
			s-0.42,0.511-0.557,0.828s-0.205,0.656-0.205,1.018v6.973c0,0.361,0.068,0.701,0.205,1.019s0.322,0.593,0.557,0.827
			s0.51,0.42,0.828,0.557s0.657,0.205,1.018,0.205h1.201c0.361,0,0.701-0.068,1.018-0.205s0.593-0.322,0.828-0.557
			s0.42-0.51,0.557-0.827s0.205-0.657,0.205-1.019v-0.996l1.802,0.293v0.601C145.909,53.495,145.794,54.066,145.564,54.604z"/>
		<path style="fill:#2C6882;" d="M158.931,57.006l-0.996-1.494c-0.41,0.537-0.923,0.97-1.538,1.297s-1.289,0.49-2.021,0.49h-0.454
			c-0.605,0-1.177-0.114-1.714-0.344s-1.006-0.545-1.406-0.945s-0.715-0.869-0.945-1.406s-0.344-1.108-0.344-1.714v-0.146
			c0-0.605,0.115-1.177,0.344-1.714s0.544-1.006,0.945-1.406s0.869-0.715,1.406-0.944s1.108-0.345,1.714-0.345h3.809V46.02
			c0-0.361-0.068-0.7-0.205-1.018s-0.322-0.594-0.557-0.828s-0.51-0.42-0.828-0.557s-0.657-0.205-1.018-0.205h-1.055
			c-0.361,0-0.701,0.068-1.018,0.205s-0.593,0.322-0.828,0.557s-0.42,0.511-0.557,0.828s-0.205,0.656-0.205,1.018v0.542
			l-1.802-0.293v-0.146c0-0.605,0.115-1.177,0.344-1.714s0.544-1.006,0.945-1.406s0.869-0.715,1.406-0.944s1.108-0.345,1.714-0.345
			h1.055c0.605,0,1.177,0.115,1.714,0.345s1.006,0.544,1.406,0.944s0.715,0.869,0.945,1.406s0.344,1.108,0.344,1.714v10.884H158.931
			z M157.73,49.74h-3.809c-0.361,0-0.701,0.068-1.018,0.205s-0.593,0.325-0.828,0.564s-0.42,0.518-0.557,0.835
			s-0.205,0.656-0.205,1.018v0.63c0,0.361,0.068,0.701,0.205,1.019s0.322,0.593,0.557,0.827s0.51,0.42,0.828,0.557
			s0.657,0.205,1.018,0.205h1.201c0.361,0,0.701-0.068,1.018-0.205s0.593-0.322,0.828-0.557s0.42-0.51,0.557-0.827
			s0.205-0.657,0.205-1.019V49.74z"/>
		<path style="fill:#2C6882;" d="M167.544,43.72c-0.361,0-0.701,0.068-1.018,0.205s-0.593,0.322-0.828,0.557
			s-0.42,0.511-0.557,0.828s-0.205,0.656-0.205,1.018v10.679h-1.802v-15h0.601l0.981,1.523c0.41-0.557,0.925-0.998,1.545-1.325
			s1.296-0.491,2.029-0.491h1.055v2.007H167.544z"/>
		<path style="fill:#2C6882;" d="M190.667,45.785c-0.269,0.625-0.637,1.172-1.106,1.641s-1.018,0.838-1.648,1.106
			s-1.301,0.402-2.014,0.402h-4.761v8.071h-1.89V36h6.65c0.713,0,1.384,0.135,2.014,0.403s1.179,0.637,1.648,1.105
			s0.837,1.019,1.106,1.648s0.403,1.301,0.403,2.014v2.607C191.07,44.491,190.936,45.16,190.667,45.785z M189.18,41.171
			c0-0.469-0.088-0.905-0.264-1.311s-0.417-0.762-0.725-1.069s-0.664-0.55-1.069-0.726s-0.842-0.264-1.311-0.264h-4.673v9.331h4.673
			c0.469,0,0.906-0.088,1.311-0.264s0.762-0.415,1.069-0.718s0.549-0.656,0.725-1.062s0.264-0.843,0.264-1.312V41.171z"/>
		<path style="fill:#2C6882;" d="M198.482,43.72c-0.361,0-0.701,0.068-1.018,0.205s-0.593,0.322-0.828,0.557
			s-0.42,0.511-0.557,0.828s-0.205,0.656-0.205,1.018v10.679h-1.802v-15h0.601l0.981,1.523c0.41-0.557,0.925-0.998,1.545-1.325
			s1.296-0.491,2.029-0.491h1.055v2.007H198.482z"/>
		<path style="fill:#2C6882;" d="M212.361,54.604c-0.229,0.537-0.544,1.006-0.945,1.406s-0.869,0.716-1.406,0.945
			s-1.108,0.344-1.714,0.344h-1.201c-0.605,0-1.177-0.114-1.714-0.344s-1.006-0.545-1.406-0.945s-0.715-0.869-0.945-1.406
			s-0.344-1.108-0.344-1.714v-6.768c0-0.605,0.115-1.177,0.344-1.714s0.544-1.006,0.945-1.406s0.869-0.715,1.406-0.944
			s1.108-0.345,1.714-0.345h1.201c0.605,0,1.177,0.115,1.714,0.345s1.006,0.544,1.406,0.944s0.715,0.869,0.945,1.406
			s0.344,1.108,0.344,1.714v6.768C212.706,53.495,212.591,54.066,212.361,54.604z M210.904,46.02c0-0.361-0.068-0.7-0.205-1.018
			s-0.322-0.594-0.557-0.828s-0.51-0.42-0.828-0.557s-0.657-0.205-1.018-0.205h-1.201c-0.361,0-0.701,0.068-1.018,0.205
			s-0.593,0.322-0.828,0.557s-0.42,0.511-0.557,0.828s-0.205,0.656-0.205,1.018v6.973c0,0.361,0.068,0.701,0.205,1.019
			s0.322,0.593,0.557,0.827s0.51,0.42,0.828,0.557s0.657,0.205,1.018,0.205h1.201c0.361,0,0.701-0.068,1.018-0.205
			s0.593-0.322,0.828-0.557s0.42-0.51,0.557-0.827s0.205-0.657,0.205-1.019V46.02z"/>
		<path style="fill:#2C6882;" d="M225.984,54.604c-0.229,0.537-0.545,1.006-0.945,1.406s-0.869,0.716-1.406,0.945
			s-1.108,0.344-1.714,0.344h-1.201c-0.605,0-1.177-0.114-1.714-0.344s-1.006-0.545-1.406-0.945s-0.715-0.869-0.944-1.406
			s-0.345-1.108-0.345-1.714v-6.768c0-0.605,0.115-1.177,0.345-1.714s0.544-1.006,0.944-1.406s0.869-0.715,1.406-0.944
			s1.108-0.345,1.714-0.345h1.201c0.605,0,1.177,0.115,1.714,0.345s1.006,0.544,1.406,0.944s0.716,0.869,0.945,1.406
			s0.344,1.108,0.344,1.714v0.601l-1.802,0.293V46.02c0-0.361-0.068-0.7-0.205-1.018s-0.322-0.594-0.557-0.828
			s-0.51-0.42-0.827-0.557s-0.657-0.205-1.019-0.205h-1.201c-0.361,0-0.7,0.068-1.018,0.205s-0.594,0.322-0.828,0.557
			s-0.42,0.511-0.557,0.828s-0.205,0.656-0.205,1.018v6.973c0,0.361,0.068,0.701,0.205,1.019s0.322,0.593,0.557,0.827
			s0.511,0.42,0.828,0.557s0.656,0.205,1.018,0.205h1.201c0.361,0,0.701-0.068,1.019-0.205s0.593-0.322,0.827-0.557
			s0.42-0.51,0.557-0.827s0.205-0.657,0.205-1.019v-0.996l1.802,0.293v0.601C226.328,53.495,226.214,54.066,225.984,54.604z"/>
		<path style="fill:#2C6882;" d="M239.607,54.604c-0.229,0.537-0.545,1.006-0.945,1.406s-0.869,0.716-1.406,0.945
			s-1.108,0.344-1.714,0.344h-1.201c-0.605,0-1.177-0.114-1.714-0.344s-1.006-0.545-1.406-0.945s-0.715-0.869-0.944-1.406
			s-0.345-1.108-0.345-1.714v-6.768c0-0.605,0.115-1.177,0.345-1.714s0.544-1.006,0.944-1.406s0.869-0.715,1.406-0.944
			s1.108-0.345,1.714-0.345h1.201c0.605,0,1.177,0.115,1.714,0.345s1.006,0.544,1.406,0.944s0.716,0.869,0.945,1.406
			s0.344,1.108,0.344,1.714v3.53h-8.218v3.34c0,0.361,0.068,0.701,0.205,1.019s0.322,0.593,0.557,0.827s0.511,0.42,0.828,0.557
			s0.656,0.205,1.018,0.205h1.201c0.361,0,0.701-0.068,1.019-0.205s0.593-0.322,0.827-0.557s0.42-0.51,0.557-0.827
			s0.205-0.657,0.205-1.019v-0.996l1.802,0.293v0.601C239.951,53.495,239.837,54.066,239.607,54.604z M238.149,46.02
			c0-0.361-0.068-0.7-0.205-1.018s-0.322-0.594-0.557-0.828s-0.51-0.42-0.827-0.557s-0.657-0.205-1.019-0.205h-1.201
			c-0.361,0-0.7,0.068-1.018,0.205s-0.594,0.322-0.828,0.557s-0.42,0.511-0.557,0.828s-0.205,0.656-0.205,1.018v2.227h6.416V46.02z"
			/>
		<path style="fill:#2C6882;" d="M253.867,53.197c0,0.605-0.122,1.16-0.366,1.663s-0.576,0.935-0.996,1.296
			s-0.905,0.643-1.457,0.843s-1.131,0.3-1.736,0.3h-1.201c-0.605,0-1.184-0.114-1.735-0.344s-1.035-0.545-1.45-0.945
			s-0.747-0.869-0.996-1.406s-0.374-1.108-0.374-1.714v-0.601l1.802-0.293v0.996c0,0.361,0.076,0.701,0.228,1.019
			s0.354,0.593,0.607,0.827s0.547,0.42,0.879,0.557s0.679,0.205,1.04,0.205h1.201c0.361,0,0.708-0.054,1.04-0.161
			s0.628-0.261,0.887-0.461s0.464-0.442,0.615-0.726s0.227-0.605,0.227-0.967c0-0.537-0.117-0.977-0.352-1.318
			s-0.544-0.627-0.93-0.856s-0.825-0.42-1.318-0.571s-0.999-0.303-1.517-0.454s-1.022-0.325-1.516-0.521s-0.933-0.451-1.318-0.769
			s-0.696-0.716-0.931-1.194s-0.352-1.074-0.352-1.787c0-0.605,0.117-1.159,0.352-1.662s0.552-0.936,0.952-1.297
			s0.867-0.642,1.399-0.842s1.101-0.301,1.706-0.301h1.055c0.605,0,1.177,0.115,1.714,0.345s1.006,0.544,1.406,0.944
			s0.716,0.869,0.945,1.406s0.344,1.108,0.344,1.714v0.059l-1.802,0.293V46.02c0-0.361-0.068-0.7-0.205-1.018
			s-0.322-0.594-0.557-0.828s-0.51-0.42-0.827-0.557s-0.657-0.205-1.019-0.205h-1.055c-0.361,0-0.7,0.054-1.018,0.161
			s-0.594,0.262-0.828,0.462s-0.42,0.441-0.557,0.725s-0.205,0.605-0.205,0.967c0,0.518,0.117,0.94,0.352,1.268
			s0.545,0.603,0.931,0.827s0.825,0.413,1.318,0.564s0.996,0.308,1.509,0.469s1.016,0.344,1.509,0.549s0.933,0.469,1.318,0.791
			s0.695,0.726,0.93,1.209S253.867,52.484,253.867,53.197z"/>
		<path style="fill:#2C6882;" d="M267,54.604c-0.229,0.537-0.545,1.006-0.945,1.406s-0.869,0.716-1.406,0.945
			s-1.108,0.344-1.714,0.344h-1.201c-0.605,0-1.177-0.114-1.714-0.344s-1.006-0.545-1.406-0.945s-0.715-0.869-0.944-1.406
			s-0.345-1.108-0.345-1.714v-6.768c0-0.605,0.115-1.177,0.345-1.714s0.544-1.006,0.944-1.406s0.869-0.715,1.406-0.944
			s1.108-0.345,1.714-0.345h1.201c0.605,0,1.177,0.115,1.714,0.345s1.006,0.544,1.406,0.944s0.716,0.869,0.945,1.406
			s0.344,1.108,0.344,1.714v6.768C267.344,53.495,267.23,54.066,267,54.604z M265.542,46.02c0-0.361-0.068-0.7-0.205-1.018
			s-0.322-0.594-0.557-0.828s-0.51-0.42-0.827-0.557s-0.657-0.205-1.019-0.205h-1.201c-0.361,0-0.7,0.068-1.018,0.205
			s-0.594,0.322-0.828,0.557s-0.42,0.511-0.557,0.828s-0.205,0.656-0.205,1.018v6.973c0,0.361,0.068,0.701,0.205,1.019
			s0.322,0.593,0.557,0.827s0.511,0.42,0.828,0.557s0.656,0.205,1.018,0.205h1.201c0.361,0,0.701-0.068,1.019-0.205
			s0.593-0.322,0.827-0.557s0.42-0.51,0.557-0.827s0.205-0.657,0.205-1.019V46.02z"/>
		<path style="fill:#2C6882;" d="M281.26,53.197c0,0.605-0.122,1.16-0.366,1.663s-0.576,0.935-0.996,1.296s-0.905,0.643-1.457,0.843
			s-1.131,0.3-1.736,0.3h-1.201c-0.605,0-1.184-0.114-1.735-0.344s-1.035-0.545-1.45-0.945s-0.747-0.869-0.996-1.406
			s-0.374-1.108-0.374-1.714v-0.601l1.802-0.293v0.996c0,0.361,0.076,0.701,0.228,1.019s0.354,0.593,0.607,0.827
			s0.547,0.42,0.879,0.557s0.679,0.205,1.04,0.205h1.201c0.361,0,0.708-0.054,1.04-0.161s0.628-0.261,0.887-0.461
			s0.464-0.442,0.615-0.726s0.227-0.605,0.227-0.967c0-0.537-0.117-0.977-0.352-1.318s-0.544-0.627-0.93-0.856
			s-0.825-0.42-1.318-0.571s-0.999-0.303-1.517-0.454s-1.022-0.325-1.516-0.521s-0.933-0.451-1.318-0.769s-0.696-0.716-0.931-1.194
			s-0.352-1.074-0.352-1.787c0-0.605,0.117-1.159,0.352-1.662s0.552-0.936,0.952-1.297s0.867-0.642,1.399-0.842
			s1.101-0.301,1.706-0.301h1.055c0.605,0,1.177,0.115,1.714,0.345s1.006,0.544,1.406,0.944s0.716,0.869,0.945,1.406
			s0.344,1.108,0.344,1.714v0.059l-1.802,0.293V46.02c0-0.361-0.068-0.7-0.205-1.018s-0.322-0.594-0.557-0.828
			s-0.51-0.42-0.827-0.557s-0.657-0.205-1.019-0.205h-1.055c-0.361,0-0.7,0.054-1.018,0.161s-0.594,0.262-0.828,0.462
			s-0.42,0.441-0.557,0.725s-0.205,0.605-0.205,0.967c0,0.518,0.117,0.94,0.352,1.268s0.545,0.603,0.931,0.827
			s0.825,0.413,1.318,0.564s0.996,0.308,1.509,0.469s1.016,0.344,1.509,0.549s0.933,0.469,1.318,0.791s0.695,0.726,0.93,1.209
			S281.26,52.484,281.26,53.197z"/>
	</g>
	<circle style="fill:none;stroke:#445061;stroke-linecap:round;stroke-linejoin:round;" cx="4.414" cy="10.912" r="3.914"/>
	<circle style="fill:none;stroke:#445061;stroke-linecap:round;stroke-linejoin:round;" cx="426.501" cy="50.912" r="3.914"/>
	
		<line style="fill:none;stroke:#445061;stroke-linecap:round;stroke-linejoin:round;" x1="289.532" y1="50.912" x2="422.128" y2="50.912"/>
	
		<line style="fill:none;stroke:#445061;stroke-linecap:round;stroke-linejoin:round;" x1="7.919" y1="10.912" x2="48.502" y2="10.912"/>
</g>
</svg>
