<?xml version="1.0" encoding="utf-8"?>
<!-- Generator: Adobe Illustrator 17.0.0, SVG Export Plug-In . SVG Version: 6.00 Build 0)  -->
<!DOCTYPE svg PUBLIC "-//W3C//DTD SVG 1.1//EN" "http://www.w3.org/Graphics/SVG/1.1/DTD/svg11.dtd">
<svg version="1.1" id="Capa_1" xmlns="http://www.w3.org/2000/svg" xmlns:xlink="http://www.w3.org/1999/xlink" x="0px" y="0px"
	 width="95.341px" height="94.808px" viewBox="0 0 95.341 94.808" style="enable-background:new 0 0 95.341 94.808;"
	 xml:space="preserve">
<g>
	<circle style="fill:#6FC2D8;" cx="47.413" cy="47.404" r="37.514"/>
	<circle style="fill:#393939;" cx="47.414" cy="47.404" r="32.669"/>
	<g>
		<circle style="fill:#FFFFFF;" cx="47.412" cy="47.404" r="30.446"/>
	</g>
	<g>
		<path style="fill:none;stroke:#393939;stroke-width:1.0444;stroke-miterlimit:10;" d="M6.265,56.04
			c-0.583-2.785-0.89-5.676-0.89-8.636c0-14.749,7.598-27.725,19.094-35.224"/>
		<path style="fill:none;stroke:#393939;stroke-width:1.0444;stroke-miterlimit:10;" d="M17.354,76.785
			c-3.705-3.788-6.7-8.274-8.769-13.243"/>
		<path style="fill:none;stroke:#393939;stroke-width:1.0444;stroke-miterlimit:10;" d="M44.887,89.357
			c-9.177-0.543-17.564-4.029-24.224-9.529"/>
		<path style="fill:none;stroke:#393939;stroke-width:1.0444;stroke-miterlimit:10;" d="M87.769,35.66
			c1.082,3.728,1.662,7.669,1.662,11.744c0,21.452-16.073,39.15-36.834,41.71"/>
		<path style="fill:none;stroke:#393939;stroke-width:1.0444;stroke-miterlimit:10;" d="M32.345,8.156
			c4.676-1.795,9.752-2.779,15.06-2.779c15.958,0,29.839,8.894,36.954,21.994"/>
		<path style="fill:none;stroke:#393939;stroke-width:1.0444;stroke-miterlimit:10;" d="M94.08,51.831
			c-0.956,10.202-5.181,19.454-11.614,26.695"/>
		<path style="fill:none;stroke:#393939;stroke-width:1.0444;stroke-miterlimit:10;" d="M72.112,7.554
			c12.391,7.698,20.928,21.017,22.047,36.393"/>
		<path style="fill:none;stroke:#393939;stroke-width:1.0444;stroke-miterlimit:10;" d="M3.759,30.255
			C10.605,12.845,27.566,0.522,47.404,0.522c5.616,0,11.002,0.987,15.994,2.8"/>
		<path style="fill:none;stroke:#393939;stroke-width:1.0444;stroke-miterlimit:10;" d="M4.521,66.381
			c-2.57-5.802-3.999-12.222-3.999-18.976c0-3.219,0.324-6.363,0.943-9.398"/>
		<path style="fill:none;stroke:#393939;stroke-width:1.0444;stroke-miterlimit:10;" d="M22.67,87.238
			C16.343,83.301,11.024,77.9,7.184,71.508"/>
		<path style="fill:none;stroke:#393939;stroke-width:1.0444;stroke-miterlimit:10;" d="M77.677,83.203
			c-8.168,6.915-18.734,11.083-30.272,11.083c-6.971,0-13.586-1.521-19.532-4.251"/>
		<circle style="fill:#393939;" cx="8.586" cy="63.542" r="1.261"/>
		<circle style="fill:#393939;" cx="4.522" cy="66.381" r="1.261"/>
		<circle style="fill:#393939;" cx="6.344" cy="56.04" r="1.262"/>
		<circle style="fill:#393939;" cx="1.47" cy="38.006" r="1.262"/>
		<circle style="fill:#393939;" cx="3.759" cy="30.255" r="1.262"/>
		<circle style="fill:#393939;" cx="24.471" cy="12.18" r="1.261"/>
		<circle style="fill:#393939;" cx="32.345" cy="8.29" r="1.262"/>
		<circle style="fill:#393939;" cx="63.398" cy="3.521" r="1.261"/>
		<circle style="fill:#393939;" cx="84.359" cy="27.371" r="1.262"/>
		<circle style="fill:#393939;" cx="72.112" cy="7.554" r="1.262"/>
		<circle style="fill:#393939;" cx="87.785" cy="35.66" r="1.261"/>
		<circle style="fill:#393939;" cx="94.079" cy="43.856" r="1.262"/>
		<circle style="fill:#393939;" cx="94.079" cy="51.831" r="1.262"/>
		<circle style="fill:#393939;" cx="17.354" cy="76.785" r="1.261"/>
		<circle style="fill:#393939;" cx="20.662" cy="79.828" r="1.261"/>
		<circle style="fill:#393939;" cx="22.669" cy="87.238" r="1.262"/>
		<circle style="fill:#393939;" cx="7.184" cy="71.508" r="1.262"/>
		<circle style="fill:#393939;" cx="44.887" cy="89.357" r="1.261"/>
		<circle style="fill:#393939;" cx="27.872" cy="90.006" r="1.262"/>
		<circle style="fill:#393939;" cx="52.597" cy="89.114" r="1.261"/>
		<circle style="fill:#393939;" cx="82.465" cy="78.566" r="1.261"/>
		<circle style="fill:#393939;" cx="77.676" cy="83.203" r="1.261"/>
	</g>
</g>
<g>
	<polygon style="fill:#6FC2D8;stroke:#000000;stroke-width:0.75;stroke-miterlimit:10;" points="21.481,35.141 42.696,35.141 
		46.27,40.155 42.82,45.169 21.604,45.169 25.056,40.169 	"/>
	
		<rect x="21.481" y="52.543" style="fill:#6FC2D8;stroke:#000000;stroke-width:0.75;stroke-miterlimit:10;" width="24.789" height="6.865"/>
	
		<rect x="53.57" y="44.071" style="fill:#6FC2D8;stroke:#000000;stroke-width:0.75;stroke-miterlimit:10;" width="21.757" height="6.864"/>
	
		<line style="fill:#445061;stroke:#000000;stroke-width:0.5;stroke-linecap:round;stroke-miterlimit:10;stroke-dasharray:2;" x1="21.481" y1="48.871" x2="50.263" y2="48.871"/>
	
		<line style="fill:#445061;stroke:#000000;stroke-width:0.5;stroke-linecap:round;stroke-miterlimit:10;stroke-dasharray:2;" x1="50.239" y1="34.48" x2="50.239" y2="63.261"/>
</g>
</svg>
