<?xml version="1.0" encoding="utf-8"?>
<!-- Generator: Adobe Illustrator 17.0.0, SVG Export Plug-In . SVG Version: 6.00 Build 0)  -->
<!DOCTYPE svg PUBLIC "-//W3C//DTD SVG 1.1//EN" "http://www.w3.org/Graphics/SVG/1.1/DTD/svg11.dtd">
<svg version="1.1" id="Capa_1" xmlns="http://www.w3.org/2000/svg" xmlns:xlink="http://www.w3.org/1999/xlink" x="0px" y="0px"
	 width="95.341px" height="94.808px" viewBox="0 0 95.341 94.808" style="enable-background:new 0 0 95.341 94.808;"
	 xml:space="preserve">
<g>
	<circle style="fill:#6FC2D8;" cx="47.413" cy="47.404" r="37.514"/>
	<circle style="fill:#FFFFFF;" cx="47.414" cy="47.404" r="32.669"/>
	<g>
		<circle style="fill:#2C6882;" cx="47.412" cy="47.404" r="30.446"/>
	</g>
	<g>
		<path style="fill:none;stroke:#393939;stroke-width:1.0444;stroke-miterlimit:10;" d="M6.265,56.04
			c-0.583-2.785-0.89-5.676-0.89-8.636c0-14.749,7.598-27.725,19.094-35.224"/>
		<path style="fill:none;stroke:#393939;stroke-width:1.0444;stroke-miterlimit:10;" d="M17.354,76.785
			c-3.705-3.788-6.7-8.274-8.769-13.243"/>
		<path style="fill:none;stroke:#393939;stroke-width:1.0444;stroke-miterlimit:10;" d="M44.887,89.357
			c-9.177-0.543-17.564-4.029-24.224-9.529"/>
		<path style="fill:none;stroke:#393939;stroke-width:1.0444;stroke-miterlimit:10;" d="M87.769,35.66
			c1.082,3.728,1.662,7.669,1.662,11.744c0,21.452-16.073,39.15-36.834,41.71"/>
		<path style="fill:none;stroke:#393939;stroke-width:1.0444;stroke-miterlimit:10;" d="M32.345,8.156
			c4.676-1.795,9.752-2.779,15.06-2.779c15.958,0,29.839,8.894,36.954,21.994"/>
		<path style="fill:none;stroke:#393939;stroke-width:1.0444;stroke-miterlimit:10;" d="M94.08,51.831
			c-0.956,10.202-5.181,19.454-11.614,26.695"/>
		<path style="fill:none;stroke:#393939;stroke-width:1.0444;stroke-miterlimit:10;" d="M72.112,7.554
			c12.391,7.698,20.928,21.017,22.047,36.393"/>
		<path style="fill:none;stroke:#393939;stroke-width:1.0444;stroke-miterlimit:10;" d="M3.759,30.255
			C10.605,12.845,27.566,0.522,47.404,0.522c5.616,0,11.002,0.987,15.994,2.8"/>
		<path style="fill:none;stroke:#393939;stroke-width:1.0444;stroke-miterlimit:10;" d="M4.521,66.381
			c-2.57-5.802-3.999-12.222-3.999-18.976c0-3.219,0.324-6.363,0.943-9.398"/>
		<path style="fill:none;stroke:#393939;stroke-width:1.0444;stroke-miterlimit:10;" d="M22.67,87.238
			C16.343,83.301,11.024,77.9,7.184,71.508"/>
		<path style="fill:none;stroke:#393939;stroke-width:1.0444;stroke-miterlimit:10;" d="M77.677,83.203
			c-8.168,6.915-18.734,11.083-30.272,11.083c-6.971,0-13.586-1.521-19.532-4.251"/>
		<circle style="fill:#393939;" cx="8.586" cy="63.542" r="1.261"/>
		<circle style="fill:#393939;" cx="4.522" cy="66.381" r="1.261"/>
		<circle style="fill:#393939;" cx="6.345" cy="56.04" r="1.262"/>
		<circle style="fill:#393939;" cx="1.47" cy="38.006" r="1.262"/>
		<circle style="fill:#393939;" cx="3.759" cy="30.255" r="1.262"/>
		<circle style="fill:#393939;" cx="24.47" cy="12.18" r="1.261"/>
		<circle style="fill:#393939;" cx="32.345" cy="8.29" r="1.262"/>
		<circle style="fill:#393939;" cx="63.398" cy="3.521" r="1.261"/>
		<circle style="fill:#393939;" cx="84.359" cy="27.371" r="1.262"/>
		<circle style="fill:#393939;" cx="72.112" cy="7.554" r="1.262"/>
		<circle style="fill:#393939;" cx="87.785" cy="35.66" r="1.261"/>
		<circle style="fill:#393939;" cx="94.079" cy="43.856" r="1.262"/>
		<circle style="fill:#393939;" cx="94.079" cy="51.831" r="1.262"/>
		<circle style="fill:#393939;" cx="17.354" cy="76.785" r="1.261"/>
		<circle style="fill:#393939;" cx="20.662" cy="79.828" r="1.261"/>
		<circle style="fill:#393939;" cx="22.669" cy="87.238" r="1.262"/>
		<circle style="fill:#393939;" cx="7.184" cy="71.508" r="1.262"/>
		<circle style="fill:#393939;" cx="44.887" cy="89.357" r="1.261"/>
		<circle style="fill:#393939;" cx="27.872" cy="90.006" r="1.262"/>
		<circle style="fill:#393939;" cx="52.597" cy="89.114" r="1.261"/>
		<circle style="fill:#393939;" cx="82.465" cy="78.566" r="1.261"/>
		<circle style="fill:#393939;" cx="77.676" cy="83.203" r="1.261"/>
	</g>
</g>
<g>
	<g>
		<path style="fill:#FFFFFF;" d="M34.985,42.74l1.134,0.359c-0.174,0.633-0.463,1.102-0.867,1.409
			c-0.404,0.307-0.918,0.46-1.539,0.46c-0.77,0-1.401-0.263-1.897-0.788c-0.495-0.525-0.742-1.244-0.742-2.156
			c0-0.964,0.248-1.713,0.746-2.246c0.498-0.534,1.153-0.801,1.965-0.801c0.708,0,1.284,0.21,1.727,0.629
			c0.264,0.247,0.461,0.604,0.593,1.066l-1.158,0.277c-0.068-0.301-0.211-0.538-0.429-0.712c-0.217-0.174-0.481-0.261-0.792-0.261
			c-0.43,0-0.778,0.154-1.045,0.463c-0.268,0.308-0.401,0.807-0.401,1.497c0,0.732,0.132,1.255,0.395,1.565
			c0.264,0.311,0.606,0.466,1.028,0.466c0.311,0,0.578-0.099,0.802-0.296C34.726,43.474,34.888,43.164,34.985,42.74z"/>
		<path style="fill:#FFFFFF;" d="M42.113,44.87h-1.272l-0.506-1.316h-2.316l-0.478,1.316H36.3l2.257-5.794h1.236L42.113,44.87z
			 M39.959,42.578l-0.798-2.15l-0.782,2.15H39.959z"/>
		<path style="fill:#FFFFFF;" d="M42.495,39.076h2.138c0.482,0,0.85,0.037,1.103,0.111c0.34,0.1,0.631,0.277,0.874,0.533
			c0.242,0.256,0.427,0.568,0.553,0.938c0.127,0.37,0.189,0.827,0.189,1.369c0,0.478-0.059,0.889-0.178,1.233
			c-0.145,0.422-0.352,0.763-0.62,1.023c-0.203,0.197-0.477,0.352-0.822,0.463c-0.258,0.081-0.604,0.122-1.035,0.122h-2.201V39.076z
			 M43.665,40.056v3.837h0.873c0.327,0,0.563-0.018,0.707-0.055c0.19-0.048,0.348-0.128,0.473-0.241s0.228-0.3,0.307-0.56
			c0.079-0.259,0.118-0.613,0.118-1.061c0-0.448-0.039-0.792-0.118-1.031c-0.079-0.24-0.19-0.427-0.332-0.562
			c-0.143-0.135-0.323-0.226-0.542-0.272c-0.163-0.037-0.483-0.056-0.96-0.056H43.665z"/>
		<path style="fill:#FFFFFF;" d="M48.108,44.87v-5.794h4.296v0.98h-3.126v1.284h2.908v0.977h-2.908v1.576h3.236v0.977H48.108z"/>
		<path style="fill:#FFFFFF;" d="M53.284,44.87v-5.794h1.139l2.371,3.869v-3.869h1.087v5.794h-1.174l-2.336-3.778v3.778H53.284z"/>
		<path style="fill:#FFFFFF;" d="M64.107,44.87h-1.272l-0.506-1.316h-2.316l-0.478,1.316h-1.241l2.257-5.794h1.236L64.107,44.87z
			 M61.953,42.578l-0.798-2.15l-0.782,2.15H61.953z"/>
		<path style="fill:#FFFFFF;" d="M27.911,48.788h2.138c0.482,0,0.85,0.037,1.103,0.111c0.34,0.1,0.631,0.277,0.874,0.533
			c0.242,0.256,0.427,0.568,0.553,0.938c0.127,0.37,0.189,0.827,0.189,1.369c0,0.478-0.059,0.889-0.178,1.233
			c-0.145,0.422-0.352,0.763-0.62,1.023c-0.203,0.197-0.477,0.352-0.822,0.463c-0.258,0.081-0.604,0.122-1.035,0.122h-2.201V48.788z
			 M29.081,49.768v3.837h0.873c0.327,0,0.563-0.018,0.707-0.055c0.19-0.048,0.348-0.128,0.473-0.241s0.228-0.3,0.307-0.56
			c0.079-0.259,0.118-0.613,0.118-1.061c0-0.448-0.039-0.792-0.118-1.031c-0.079-0.24-0.19-0.427-0.332-0.562
			c-0.143-0.135-0.323-0.226-0.542-0.272c-0.163-0.037-0.483-0.056-0.96-0.056H29.081z"/>
		<path style="fill:#FFFFFF;" d="M33.525,54.582v-5.794h4.296v0.98h-3.126v1.284h2.908v0.977h-2.908v1.576h3.236v0.977H33.525z"/>
		<path style="fill:#FFFFFF;" d="M42.181,54.582l-2.07-5.794h1.269l1.466,4.288l1.419-4.288h1.241l-2.075,5.794H42.181z"/>
		<path style="fill:#FFFFFF;" d="M51.091,54.582h-1.272l-0.506-1.316h-2.316l-0.478,1.316h-1.241l2.257-5.794h1.236L51.091,54.582z
			 M48.936,52.29l-0.798-2.15l-0.782,2.15H48.936z"/>
		<path style="fill:#FFFFFF;" d="M51.508,54.582v-5.746h1.17v4.77h2.909v0.977H51.508z"/>
		<path style="fill:#FFFFFF;" d="M55.948,51.72c0-0.59,0.089-1.085,0.265-1.485c0.132-0.296,0.312-0.561,0.54-0.795
			c0.228-0.234,0.478-0.408,0.749-0.521c0.36-0.152,0.776-0.229,1.248-0.229c0.854,0,1.537,0.265,2.05,0.795
			c0.512,0.529,0.769,1.266,0.769,2.209c0,0.936-0.255,1.667-0.763,2.195c-0.509,0.528-1.188,0.792-2.039,0.792
			c-0.862,0-1.547-0.263-2.056-0.788S55.948,52.642,55.948,51.72z M57.153,51.681c0,0.655,0.152,1.153,0.455,1.491
			c0.303,0.339,0.688,0.508,1.153,0.508c0.467,0,0.85-0.168,1.148-0.504s0.448-0.84,0.448-1.512c0-0.663-0.146-1.159-0.437-1.485
			c-0.291-0.327-0.678-0.49-1.16-0.49c-0.481,0-0.87,0.165-1.165,0.496C57.301,50.516,57.153,51.014,57.153,51.681z"/>
		<path style="fill:#FFFFFF;" d="M62.25,54.582v-5.794h2.462c0.619,0,1.069,0.053,1.35,0.156c0.28,0.104,0.505,0.289,0.674,0.556
			c0.169,0.266,0.253,0.57,0.253,0.913c0,0.435-0.128,0.793-0.383,1.076c-0.256,0.283-0.638,0.462-1.146,0.536
			c0.253,0.147,0.462,0.31,0.626,0.485c0.165,0.177,0.387,0.49,0.666,0.941l0.708,1.13h-1.399l-0.846-1.261
			c-0.3-0.45-0.506-0.734-0.616-0.852c-0.111-0.117-0.229-0.197-0.352-0.241c-0.124-0.043-0.32-0.065-0.589-0.065H63.42v2.419H62.25
			z M63.42,51.238h0.865c0.562,0,0.912-0.023,1.052-0.07c0.14-0.048,0.248-0.13,0.327-0.245c0.079-0.116,0.119-0.261,0.119-0.435
			c0-0.195-0.052-0.353-0.156-0.473s-0.251-0.195-0.44-0.228c-0.095-0.013-0.38-0.02-0.854-0.02H63.42V51.238z"/>
	</g>
</g>
</svg>
