<?xml version="1.0" encoding="utf-8"?>
<!-- Generator: Adobe Illustrator 17.0.0, SVG Export Plug-In . SVG Version: 6.00 Build 0)  -->
<!DOCTYPE svg PUBLIC "-//W3C//DTD SVG 1.1//EN" "http://www.w3.org/Graphics/SVG/1.1/DTD/svg11.dtd">
<svg version="1.1" id="Capa_1" xmlns="http://www.w3.org/2000/svg" xmlns:xlink="http://www.w3.org/1999/xlink" x="0px" y="0px"
	 width="188.689px" height="114.229px" viewBox="0 0 188.689 114.229" style="enable-background:new 0 0 188.689 114.229;"
	 xml:space="preserve">
<g>
	<polygon style="fill:#6FC2D8;stroke:#000000;stroke-width:0.75;stroke-miterlimit:10;" points="6.485,17.616 83.621,17.616 
		96.619,43.508 84.067,69.399 6.936,69.399 19.487,43.583 	"/>
	<polygon style="fill:#6FC2D8;stroke:#000000;stroke-width:0.75;stroke-miterlimit:10;" points="91.506,17.616 168.641,17.616 
		181.641,43.508 169.088,69.399 91.957,69.399 104.508,43.583 	"/>
	
		<rect x="0.375" y="0.375" style="fill:none;stroke:#000000;stroke-width:0.75;stroke-miterlimit:10;" width="187.939" height="113.479"/>
	<g>
		<path style="fill:#2C6882;" d="M23.139,94.142v-1.753h4.53v4.146c-0.44,0.427-1.078,0.802-1.914,1.126
			c-0.835,0.324-1.681,0.486-2.538,0.486c-1.088,0-2.037-0.229-2.847-0.686c-0.81-0.456-1.418-1.109-1.824-1.959
			c-0.407-0.85-0.611-1.774-0.611-2.772c0-1.084,0.228-2.048,0.682-2.89c0.455-0.843,1.12-1.488,1.995-1.938
			c0.668-0.346,1.498-0.519,2.492-0.519c1.292,0,2.302,0.271,3.028,0.813s1.193,1.291,1.402,2.247l-2.088,0.391
			c-0.146-0.512-0.422-0.915-0.827-1.211c-0.404-0.296-0.91-0.443-1.516-0.443c-0.918,0-1.648,0.291-2.19,0.873
			S20.1,91.499,20.1,92.644c0,1.235,0.274,2.162,0.823,2.78c0.549,0.617,1.269,0.926,2.158,0.926c0.44,0,0.882-0.086,1.324-0.259
			s0.822-0.382,1.14-0.628v-1.321H23.139z"/>
		<path style="fill:#2C6882;" d="M33.537,95.57l1.987,0.333c-0.255,0.729-0.659,1.284-1.21,1.665
			c-0.552,0.381-1.241,0.571-2.069,0.571c-1.312,0-2.282-0.428-2.911-1.284c-0.497-0.687-0.745-1.553-0.745-2.599
			c0-1.25,0.326-2.229,0.979-2.936c0.653-0.708,1.479-1.062,2.478-1.062c1.122,0,2.007,0.37,2.655,1.11
			c0.648,0.741,0.959,1.876,0.93,3.404h-4.998c0.015,0.592,0.176,1.053,0.483,1.381c0.308,0.329,0.69,0.494,1.149,0.494
			c0.313,0,0.575-0.085,0.788-0.256C33.267,96.223,33.428,95.948,33.537,95.57z M33.65,93.553c-0.014-0.577-0.163-1.017-0.447-1.317
			c-0.284-0.3-0.63-0.45-1.036-0.45c-0.436,0-0.796,0.158-1.079,0.476c-0.284,0.317-0.424,0.748-0.419,1.292H33.65z"/>
		<path style="fill:#2C6882;" d="M36.133,95.818l2.002-0.305c0.085,0.388,0.258,0.683,0.519,0.884
			c0.26,0.201,0.625,0.302,1.093,0.302c0.517,0,0.904-0.095,1.165-0.284c0.175-0.133,0.263-0.311,0.263-0.532
			c0-0.151-0.048-0.277-0.143-0.377c-0.099-0.095-0.321-0.182-0.667-0.263c-1.609-0.354-2.629-0.679-3.06-0.973
			c-0.597-0.407-0.896-0.973-0.896-1.696c0-0.653,0.259-1.202,0.774-1.647c0.516-0.444,1.315-0.667,2.399-0.667
			c1.032,0,1.799,0.168,2.301,0.504c0.501,0.336,0.847,0.833,1.036,1.491l-1.881,0.348c-0.081-0.294-0.233-0.519-0.458-0.675
			c-0.226-0.156-0.546-0.234-0.962-0.234c-0.525,0-0.902,0.073-1.129,0.221c-0.152,0.104-0.228,0.238-0.228,0.404
			c0,0.142,0.066,0.263,0.199,0.362c0.18,0.133,0.801,0.319,1.863,0.561s1.805,0.537,2.226,0.888
			c0.417,0.354,0.625,0.85,0.625,1.483c0,0.691-0.289,1.285-0.866,1.782s-1.432,0.745-2.563,0.745c-1.026,0-1.84-0.208-2.438-0.624
			C36.709,97.098,36.317,96.532,36.133,95.818z"/>
		<path style="fill:#2C6882;" d="M47.958,90.429v1.591h-1.363v3.038c0,0.615,0.014,0.975,0.039,1.076
			c0.026,0.102,0.086,0.186,0.178,0.252c0.093,0.066,0.205,0.1,0.337,0.1c0.185,0,0.452-0.064,0.803-0.192l0.17,1.548
			c-0.464,0.199-0.989,0.298-1.576,0.298c-0.359,0-0.684-0.06-0.973-0.181c-0.288-0.12-0.5-0.276-0.635-0.469
			c-0.135-0.191-0.229-0.45-0.28-0.777c-0.043-0.231-0.064-0.7-0.064-1.405V92.02h-0.916v-1.591h0.916v-1.498l2.002-1.164v2.662
			H47.958z"/>
		<path style="fill:#2C6882;" d="M48.922,89.407v-1.846h1.995v1.846H48.922z M48.922,97.969v-7.54h1.995v7.54H48.922z"/>
		<path style="fill:#2C6882;" d="M52.078,94.093c0-0.663,0.163-1.305,0.49-1.925c0.326-0.62,0.789-1.093,1.388-1.42
			c0.599-0.326,1.268-0.489,2.006-0.489c1.141,0,2.075,0.37,2.805,1.11c0.729,0.741,1.093,1.677,1.093,2.809
			c0,1.141-0.368,2.086-1.104,2.836c-0.736,0.75-1.663,1.125-2.78,1.125c-0.69,0-1.35-0.155-1.977-0.468
			c-0.628-0.313-1.104-0.771-1.431-1.374C52.241,95.694,52.078,94.958,52.078,94.093z M54.123,94.199
			c0,0.747,0.178,1.32,0.532,1.718c0.355,0.397,0.793,0.597,1.313,0.597s0.957-0.199,1.31-0.597
			c0.354-0.397,0.529-0.975,0.529-1.732c0-0.738-0.176-1.307-0.529-1.704c-0.353-0.397-0.789-0.596-1.31-0.596
			s-0.958,0.198-1.313,0.596C54.301,92.878,54.123,93.451,54.123,94.199z M54.961,89.506l0.979-2.123h2.236l-1.952,2.123H54.961z"/>
		<path style="fill:#2C6882;" d="M67.858,97.969h-1.995v-3.848c0-0.814-0.043-1.341-0.128-1.58s-0.224-0.425-0.415-0.558
			c-0.192-0.132-0.423-0.198-0.692-0.198c-0.346,0-0.656,0.095-0.931,0.284c-0.274,0.188-0.462,0.439-0.564,0.752
			c-0.102,0.313-0.152,0.89-0.152,1.732v3.415h-1.995v-7.54h1.854v1.107c0.657-0.852,1.485-1.277,2.484-1.277
			c0.44,0,0.843,0.079,1.207,0.237c0.364,0.159,0.641,0.361,0.827,0.607s0.317,0.525,0.391,0.838s0.11,0.76,0.11,1.342V97.969z"/>
		<path style="fill:#2C6882;" d="M74.568,92.73l-1.81-0.327c0.203-0.729,0.554-1.269,1.051-1.618
			c0.496-0.351,1.235-0.525,2.215-0.525c0.89,0,1.552,0.105,1.987,0.315c0.436,0.211,0.742,0.479,0.92,0.803
			s0.267,0.919,0.267,1.785l-0.021,2.329c0,0.662,0.031,1.151,0.096,1.466c0.063,0.314,0.184,0.652,0.358,1.012h-1.974
			c-0.052-0.133-0.116-0.329-0.191-0.589c-0.033-0.119-0.058-0.196-0.071-0.234c-0.341,0.331-0.705,0.579-1.094,0.745
			c-0.388,0.166-0.802,0.248-1.242,0.248c-0.776,0-1.388-0.21-1.835-0.632c-0.447-0.421-0.671-0.953-0.671-1.597
			c0-0.427,0.102-0.806,0.305-1.14c0.204-0.334,0.489-0.59,0.855-0.767c0.367-0.178,0.896-0.333,1.587-0.466
			c0.933-0.175,1.579-0.338,1.938-0.489V92.85c0-0.383-0.095-0.656-0.284-0.819c-0.189-0.164-0.547-0.245-1.072-0.245
			c-0.354,0-0.632,0.069-0.83,0.209C74.852,92.134,74.691,92.379,74.568,92.73z M77.238,94.348c-0.256,0.085-0.66,0.188-1.214,0.306
			s-0.916,0.234-1.087,0.348c-0.26,0.185-0.39,0.419-0.39,0.703c0,0.279,0.104,0.521,0.312,0.724
			c0.209,0.204,0.474,0.306,0.796,0.306c0.359,0,0.702-0.118,1.029-0.355c0.241-0.18,0.399-0.399,0.476-0.66
			c0.052-0.17,0.078-0.494,0.078-0.973V94.348z"/>
		<path style="fill:#2C6882;" d="M87.657,97.969h-1.854v-1.107c-0.308,0.431-0.671,0.751-1.09,0.962s-0.841,0.315-1.267,0.315
			c-0.866,0-1.608-0.349-2.227-1.047c-0.617-0.698-0.926-1.672-0.926-2.922c0-1.277,0.3-2.249,0.901-2.914
			c0.601-0.665,1.36-0.997,2.279-0.997c0.842,0,1.571,0.35,2.187,1.051v-3.749h1.995V97.969z M82.332,94.035
			c0,0.805,0.111,1.388,0.334,1.747c0.321,0.521,0.771,0.781,1.349,0.781c0.459,0,0.85-0.195,1.172-0.586
			c0.321-0.391,0.482-0.974,0.482-1.75c0-0.866-0.156-1.49-0.469-1.871s-0.712-0.571-1.199-0.571c-0.474,0-0.87,0.188-1.189,0.564
			C82.492,92.726,82.332,93.288,82.332,94.035z"/>
		<path style="fill:#2C6882;" d="M89.054,90.429h1.839v1.029c0.658-0.8,1.441-1.199,2.35-1.199c0.483,0,0.902,0.099,1.257,0.298
			c0.355,0.199,0.646,0.499,0.873,0.901c0.332-0.402,0.689-0.702,1.072-0.901c0.384-0.199,0.793-0.298,1.229-0.298
			c0.554,0,1.022,0.112,1.405,0.337c0.384,0.225,0.67,0.555,0.859,0.99c0.138,0.322,0.206,0.843,0.206,1.563v4.82h-1.995v-4.31
			c0-0.748-0.068-1.23-0.206-1.448c-0.185-0.284-0.469-0.426-0.852-0.426c-0.279,0-0.542,0.085-0.788,0.255
			c-0.246,0.171-0.424,0.421-0.532,0.749c-0.109,0.329-0.164,0.849-0.164,1.559v3.621h-1.995v-4.132c0-0.733-0.035-1.207-0.106-1.42
			c-0.07-0.213-0.181-0.372-0.33-0.476c-0.148-0.104-0.352-0.156-0.606-0.156c-0.308,0-0.585,0.083-0.831,0.248
			c-0.246,0.166-0.422,0.405-0.528,0.717c-0.107,0.313-0.16,0.831-0.16,1.556v3.663h-1.995V90.429z"/>
		<path style="fill:#2C6882;" d="M101.71,89.407v-1.846h1.995v1.846H101.71z M101.71,97.969v-7.54h1.995v7.54H101.71z"/>
		<path style="fill:#2C6882;" d="M112.186,97.969h-1.995v-3.848c0-0.814-0.043-1.341-0.128-1.58s-0.224-0.425-0.415-0.558
			c-0.192-0.132-0.423-0.198-0.692-0.198c-0.346,0-0.656,0.095-0.931,0.284c-0.274,0.188-0.462,0.439-0.564,0.752
			c-0.102,0.313-0.152,0.89-0.152,1.732v3.415h-1.995v-7.54h1.854v1.107c0.657-0.852,1.485-1.277,2.484-1.277
			c0.44,0,0.843,0.079,1.207,0.237c0.364,0.159,0.641,0.361,0.827,0.607s0.317,0.525,0.391,0.838s0.11,0.76,0.11,1.342V97.969z"/>
		<path style="fill:#2C6882;" d="M113.788,89.407v-1.846h1.995v1.846H113.788z M113.788,97.969v-7.54h1.995v7.54H113.788z"/>
		<path style="fill:#2C6882;" d="M116.703,95.818l2.002-0.305c0.085,0.388,0.258,0.683,0.519,0.884
			c0.26,0.201,0.625,0.302,1.093,0.302c0.517,0,0.904-0.095,1.165-0.284c0.175-0.133,0.263-0.311,0.263-0.532
			c0-0.151-0.048-0.277-0.143-0.377c-0.099-0.095-0.321-0.182-0.667-0.263c-1.609-0.354-2.629-0.679-3.06-0.973
			c-0.597-0.407-0.896-0.973-0.896-1.696c0-0.653,0.259-1.202,0.774-1.647c0.516-0.444,1.315-0.667,2.399-0.667
			c1.032,0,1.799,0.168,2.301,0.504c0.501,0.336,0.847,0.833,1.036,1.491l-1.881,0.348c-0.081-0.294-0.233-0.519-0.458-0.675
			c-0.226-0.156-0.546-0.234-0.962-0.234c-0.525,0-0.902,0.073-1.129,0.221c-0.152,0.104-0.228,0.238-0.228,0.404
			c0,0.142,0.066,0.263,0.199,0.362c0.18,0.133,0.801,0.319,1.863,0.561s1.805,0.537,2.226,0.888
			c0.417,0.354,0.625,0.85,0.625,1.483c0,0.691-0.289,1.285-0.866,1.782s-1.432,0.745-2.563,0.745c-1.026,0-1.84-0.208-2.438-0.624
			C117.279,97.098,116.888,96.532,116.703,95.818z"/>
		<path style="fill:#2C6882;" d="M128.527,90.429v1.591h-1.363v3.038c0,0.615,0.014,0.975,0.039,1.076
			c0.026,0.102,0.086,0.186,0.178,0.252c0.093,0.066,0.205,0.1,0.337,0.1c0.185,0,0.452-0.064,0.803-0.192l0.17,1.548
			c-0.464,0.199-0.989,0.298-1.576,0.298c-0.359,0-0.684-0.06-0.973-0.181c-0.288-0.12-0.5-0.276-0.635-0.469
			c-0.135-0.191-0.229-0.45-0.28-0.777c-0.043-0.231-0.064-0.7-0.064-1.405V92.02h-0.916v-1.591h0.916v-1.498l2.002-1.164v2.662
			H128.527z"/>
		<path style="fill:#2C6882;" d="M131.4,97.969h-1.995v-7.54h1.854v1.072c0.317-0.507,0.603-0.84,0.855-1.001
			s0.541-0.241,0.862-0.241c0.455,0,0.893,0.125,1.313,0.376l-0.617,1.739c-0.336-0.218-0.648-0.326-0.938-0.326
			c-0.279,0-0.516,0.077-0.71,0.23c-0.194,0.154-0.347,0.432-0.458,0.834s-0.167,1.245-0.167,2.527V97.969z"/>
		<path style="fill:#2C6882;" d="M136.218,92.73l-1.81-0.327c0.203-0.729,0.554-1.269,1.051-1.618
			c0.496-0.351,1.235-0.525,2.215-0.525c0.89,0,1.552,0.105,1.987,0.315c0.436,0.211,0.742,0.479,0.92,0.803
			s0.267,0.919,0.267,1.785l-0.021,2.329c0,0.662,0.031,1.151,0.096,1.466c0.063,0.314,0.184,0.652,0.358,1.012h-1.974
			c-0.052-0.133-0.116-0.329-0.191-0.589c-0.033-0.119-0.058-0.196-0.071-0.234c-0.341,0.331-0.705,0.579-1.094,0.745
			c-0.388,0.166-0.802,0.248-1.242,0.248c-0.776,0-1.388-0.21-1.835-0.632c-0.447-0.421-0.671-0.953-0.671-1.597
			c0-0.427,0.102-0.806,0.305-1.14c0.204-0.334,0.489-0.59,0.855-0.767c0.367-0.178,0.896-0.333,1.587-0.466
			c0.933-0.175,1.579-0.338,1.938-0.489V92.85c0-0.383-0.095-0.656-0.284-0.819c-0.189-0.164-0.547-0.245-1.072-0.245
			c-0.354,0-0.632,0.069-0.83,0.209C136.502,92.134,136.341,92.379,136.218,92.73z M138.888,94.348
			c-0.256,0.085-0.66,0.188-1.214,0.306s-0.916,0.234-1.087,0.348c-0.26,0.185-0.39,0.419-0.39,0.703
			c0,0.279,0.104,0.521,0.312,0.724c0.209,0.204,0.474,0.306,0.796,0.306c0.359,0,0.702-0.118,1.029-0.355
			c0.241-0.18,0.399-0.399,0.476-0.66c0.052-0.17,0.078-0.494,0.078-0.973V94.348z"/>
		<path style="fill:#2C6882;" d="M145.85,90.429v1.591h-1.363v3.038c0,0.615,0.014,0.975,0.039,1.076
			c0.026,0.102,0.086,0.186,0.178,0.252c0.093,0.066,0.205,0.1,0.337,0.1c0.185,0,0.452-0.064,0.803-0.192l0.17,1.548
			c-0.464,0.199-0.989,0.298-1.576,0.298c-0.359,0-0.684-0.06-0.973-0.181c-0.288-0.12-0.5-0.276-0.635-0.469
			c-0.135-0.191-0.229-0.45-0.28-0.777c-0.043-0.231-0.064-0.7-0.064-1.405V92.02h-0.916v-1.591h0.916v-1.498l2.002-1.164v2.662
			H145.85z"/>
		<path style="fill:#2C6882;" d="M146.813,89.407v-1.846h1.995v1.846H146.813z M146.813,97.969v-7.54h1.995v7.54H146.813z"/>
		<path style="fill:#2C6882;" d="M152.504,97.969l-3.039-7.54h2.095l1.42,3.849l0.411,1.284c0.109-0.326,0.178-0.541,0.206-0.646
			c0.066-0.213,0.138-0.426,0.213-0.639l1.435-3.849h2.052l-2.996,7.54H152.504z"/>
		<path style="fill:#2C6882;" d="M159.586,92.73l-1.81-0.327c0.203-0.729,0.554-1.269,1.051-1.618
			c0.496-0.351,1.235-0.525,2.215-0.525c0.89,0,1.552,0.105,1.987,0.315c0.436,0.211,0.742,0.479,0.92,0.803
			s0.267,0.919,0.267,1.785l-0.021,2.329c0,0.662,0.031,1.151,0.096,1.466c0.063,0.314,0.184,0.652,0.358,1.012h-1.974
			c-0.052-0.133-0.116-0.329-0.191-0.589c-0.033-0.119-0.058-0.196-0.071-0.234c-0.341,0.331-0.705,0.579-1.094,0.745
			c-0.388,0.166-0.802,0.248-1.242,0.248c-0.776,0-1.388-0.21-1.835-0.632c-0.447-0.421-0.671-0.953-0.671-1.597
			c0-0.427,0.102-0.806,0.305-1.14c0.204-0.334,0.489-0.59,0.855-0.767c0.367-0.178,0.896-0.333,1.587-0.466
			c0.933-0.175,1.579-0.338,1.938-0.489V92.85c0-0.383-0.095-0.656-0.284-0.819c-0.189-0.164-0.547-0.245-1.072-0.245
			c-0.354,0-0.632,0.069-0.83,0.209C159.87,92.134,159.709,92.379,159.586,92.73z M162.256,94.348
			c-0.256,0.085-0.66,0.188-1.214,0.306s-0.916,0.234-1.087,0.348c-0.26,0.185-0.39,0.419-0.39,0.703
			c0,0.279,0.104,0.521,0.312,0.724c0.209,0.204,0.474,0.306,0.796,0.306c0.359,0,0.702-0.118,1.029-0.355
			c0.241-0.18,0.399-0.399,0.476-0.66c0.052-0.17,0.078-0.494,0.078-0.973V94.348z"/>
	</g>
	<g>
		<g>
			<path style="fill:#2C6882;" d="M31.684,44.899l1.803,0.571c-0.276,1.005-0.736,1.751-1.379,2.239
				c-0.643,0.487-1.458,0.731-2.445,0.731c-1.223,0-2.228-0.418-3.014-1.253c-0.787-0.835-1.181-1.977-1.181-3.426
				c0-1.531,0.396-2.722,1.187-3.569s1.831-1.271,3.121-1.271c1.126,0,2.04,0.333,2.743,0.998c0.419,0.394,0.733,0.959,0.942,1.695
				l-1.84,0.44c-0.109-0.478-0.336-0.854-0.682-1.131c-0.345-0.276-0.765-0.414-1.259-0.414c-0.683,0-1.236,0.245-1.661,0.734
				c-0.425,0.49-0.637,1.283-0.637,2.38c0,1.164,0.209,1.993,0.628,2.486c0.418,0.494,0.963,0.741,1.633,0.741
				c0.493,0,0.918-0.157,1.274-0.471C31.274,46.067,31.53,45.573,31.684,44.899z"/>
			<path style="fill:#2C6882;" d="M34.661,44.855c0-0.586,0.145-1.153,0.434-1.701c0.289-0.549,0.698-0.967,1.228-1.256
				s1.121-0.434,1.773-0.434c1.009,0,1.836,0.328,2.48,0.982c0.645,0.655,0.967,1.483,0.967,2.483c0,1.01-0.325,1.846-0.976,2.509
				c-0.651,0.664-1.471,0.995-2.459,0.995c-0.611,0-1.194-0.138-1.748-0.414c-0.556-0.276-0.977-0.682-1.266-1.215
				C34.806,46.271,34.661,45.621,34.661,44.855z M36.47,44.949c0,0.661,0.157,1.168,0.471,1.52c0.314,0.352,0.701,0.527,1.162,0.527
				c0.46,0,0.847-0.176,1.158-0.527s0.468-0.862,0.468-1.532c0-0.653-0.156-1.155-0.468-1.507s-0.698-0.527-1.158-0.527
				c-0.461,0-0.848,0.176-1.162,0.527C36.627,43.782,36.47,44.287,36.47,44.949z"/>
			<path style="fill:#2C6882;" d="M48.99,48.283h-1.764V44.88c0-0.72-0.038-1.186-0.113-1.397c-0.075-0.211-0.198-0.375-0.367-0.492
				c-0.17-0.117-0.374-0.176-0.612-0.176c-0.306,0-0.58,0.083-0.822,0.251c-0.243,0.167-0.409,0.389-0.5,0.665
				c-0.09,0.276-0.135,0.787-0.135,1.532v3.021h-1.765v-6.669h1.64v0.98c0.581-0.754,1.314-1.131,2.197-1.131
				c0.39,0,0.745,0.07,1.067,0.211c0.322,0.14,0.566,0.318,0.731,0.536s0.28,0.465,0.346,0.741c0.064,0.276,0.097,0.672,0.097,1.187
				V48.283z"/>
			<path style="fill:#2C6882;" d="M50.158,46.381l1.771-0.271c0.075,0.344,0.228,0.604,0.458,0.782s0.553,0.267,0.967,0.267
				c0.457,0,0.8-0.084,1.03-0.251c0.154-0.117,0.232-0.274,0.232-0.471c0-0.135-0.042-0.245-0.126-0.333
				c-0.088-0.084-0.284-0.161-0.59-0.232c-1.424-0.314-2.325-0.601-2.706-0.86c-0.528-0.36-0.792-0.86-0.792-1.501
				c0-0.577,0.229-1.063,0.685-1.456s1.164-0.591,2.123-0.591c0.912,0,1.59,0.148,2.034,0.446c0.443,0.297,0.749,0.736,0.917,1.318
				l-1.664,0.308c-0.071-0.26-0.206-0.458-0.405-0.597c-0.199-0.138-0.482-0.207-0.851-0.207c-0.465,0-0.798,0.064-0.999,0.194
				c-0.134,0.093-0.2,0.212-0.2,0.358c0,0.125,0.059,0.232,0.176,0.32c0.159,0.117,0.708,0.282,1.647,0.496
				c0.94,0.213,1.597,0.475,1.969,0.784c0.368,0.314,0.553,0.752,0.553,1.313c0,0.611-0.255,1.137-0.766,1.576
				s-1.267,0.659-2.268,0.659c-0.908,0-1.627-0.184-2.156-0.553C50.667,47.513,50.321,47.013,50.158,46.381z"/>
			<path style="fill:#2C6882;" d="M57.932,40.711v-1.633h1.765v1.633H57.932z M57.932,48.283v-6.669h1.765v6.669H57.932z"/>
			<path style="fill:#2C6882;" d="M61.342,48.723l2.016,0.245c0.033,0.234,0.111,0.396,0.232,0.483
				c0.167,0.126,0.431,0.188,0.791,0.188c0.461,0,0.806-0.069,1.036-0.207c0.155-0.093,0.272-0.241,0.352-0.446
				c0.055-0.146,0.082-0.416,0.082-0.81v-0.974c-0.527,0.72-1.193,1.08-1.997,1.08c-0.896,0-1.605-0.379-2.129-1.137
				c-0.41-0.599-0.615-1.344-0.615-2.235c0-1.117,0.269-1.972,0.807-2.562c0.538-0.591,1.207-0.886,2.007-0.886
				c0.824,0,1.505,0.362,2.04,1.086v-0.936h1.651v5.984c0,0.787-0.064,1.375-0.194,1.765s-0.312,0.694-0.546,0.917
				c-0.234,0.222-0.548,0.396-0.939,0.521c-0.391,0.126-0.886,0.188-1.484,0.188c-1.131,0-1.932-0.193-2.405-0.58
				c-0.473-0.388-0.709-0.879-0.709-1.473C61.336,48.878,61.338,48.807,61.342,48.723z M62.918,44.811
				c0,0.708,0.137,1.226,0.411,1.555c0.274,0.328,0.612,0.492,1.015,0.492c0.431,0,0.795-0.168,1.092-0.505
				c0.298-0.337,0.446-0.836,0.446-1.498c0-0.69-0.143-1.203-0.427-1.538c-0.285-0.335-0.646-0.502-1.08-0.502
				c-0.423,0-0.771,0.164-1.046,0.492C63.055,43.636,62.918,44.137,62.918,44.811z"/>
			<path style="fill:#2C6882;" d="M75.426,48.283h-1.764V44.88c0-0.72-0.038-1.186-0.113-1.397
				c-0.075-0.211-0.198-0.375-0.367-0.492c-0.17-0.117-0.374-0.176-0.612-0.176c-0.306,0-0.58,0.083-0.822,0.251
				c-0.243,0.167-0.409,0.389-0.5,0.665c-0.09,0.276-0.135,0.787-0.135,1.532v3.021h-1.765v-6.669h1.64v0.98
				c0.581-0.754,1.314-1.131,2.197-1.131c0.39,0,0.745,0.07,1.067,0.211c0.322,0.14,0.566,0.318,0.731,0.536s0.28,0.465,0.346,0.741
				c0.064,0.276,0.097,0.672,0.097,1.187V48.283z"/>
			<path style="fill:#2C6882;" d="M78.533,43.65l-1.601-0.289c0.18-0.645,0.489-1.122,0.929-1.432c0.44-0.31,1.093-0.465,1.96-0.465
				c0.786,0,1.373,0.094,1.758,0.279c0.385,0.187,0.656,0.423,0.813,0.71c0.156,0.286,0.235,0.813,0.235,1.579l-0.02,2.06
				c0,0.586,0.028,1.019,0.085,1.297s0.162,0.576,0.317,0.895h-1.746c-0.046-0.117-0.103-0.291-0.169-0.521
				c-0.029-0.104-0.051-0.174-0.063-0.207c-0.302,0.293-0.624,0.513-0.968,0.659c-0.343,0.146-0.709,0.22-1.099,0.22
				c-0.687,0-1.228-0.186-1.623-0.559c-0.396-0.372-0.594-0.844-0.594-1.413c0-0.376,0.091-0.712,0.271-1.008
				c0.18-0.295,0.432-0.521,0.757-0.678c0.324-0.157,0.792-0.294,1.403-0.411c0.824-0.155,1.396-0.3,1.714-0.434v-0.176
				c0-0.339-0.084-0.581-0.251-0.726c-0.168-0.145-0.483-0.216-0.948-0.216c-0.313,0-0.559,0.062-0.734,0.185
				C78.785,43.123,78.642,43.34,78.533,43.65z M80.894,45.081c-0.226,0.075-0.584,0.165-1.073,0.27
				c-0.49,0.104-0.811,0.207-0.961,0.308c-0.23,0.163-0.346,0.371-0.346,0.622c0,0.247,0.092,0.46,0.276,0.641
				c0.185,0.18,0.419,0.27,0.703,0.27c0.318,0,0.622-0.104,0.911-0.313c0.213-0.159,0.354-0.354,0.42-0.584
				c0.047-0.151,0.069-0.438,0.069-0.86V45.081z"/>
			<path style="fill:#2C6882;" d="M86.057,48.283h-1.765v-6.669h1.639v0.948c0.28-0.447,0.533-0.742,0.757-0.885
				s0.479-0.214,0.763-0.214c0.402,0,0.789,0.111,1.162,0.333l-0.547,1.538c-0.297-0.192-0.573-0.289-0.828-0.289
				c-0.247,0-0.457,0.068-0.628,0.204c-0.172,0.137-0.307,0.383-0.405,0.738s-0.147,1.101-0.147,2.235V48.283z"/>
		</g>
	</g>
	<g>
		<g>
			<path style="fill:#2C6882;" d="M116.297,48.283v-9.205h1.858v9.205H116.297z"/>
			<path style="fill:#2C6882;" d="M125.979,48.283h-1.764V44.88c0-0.72-0.038-1.186-0.113-1.397
				c-0.075-0.211-0.198-0.375-0.367-0.492c-0.17-0.117-0.374-0.176-0.612-0.176c-0.306,0-0.58,0.083-0.822,0.251
				c-0.243,0.167-0.409,0.389-0.5,0.665c-0.09,0.276-0.135,0.787-0.135,1.532v3.021h-1.765v-6.669h1.64v0.98
				c0.581-0.754,1.314-1.131,2.197-1.131c0.39,0,0.745,0.07,1.067,0.211c0.322,0.14,0.566,0.318,0.731,0.536s0.28,0.465,0.346,0.741
				c0.064,0.276,0.097,0.672,0.097,1.187V48.283z"/>
			<path style="fill:#2C6882;" d="M127.147,46.381l1.771-0.271c0.075,0.344,0.228,0.604,0.458,0.782s0.553,0.267,0.967,0.267
				c0.457,0,0.8-0.084,1.03-0.251c0.154-0.117,0.232-0.274,0.232-0.471c0-0.135-0.042-0.245-0.126-0.333
				c-0.088-0.084-0.284-0.161-0.59-0.232c-1.424-0.314-2.325-0.601-2.706-0.86c-0.528-0.36-0.792-0.86-0.792-1.501
				c0-0.577,0.229-1.063,0.685-1.456c0.456-0.394,1.164-0.591,2.123-0.591c0.912,0,1.59,0.148,2.034,0.446
				c0.443,0.297,0.749,0.736,0.917,1.318l-1.664,0.308c-0.071-0.26-0.206-0.458-0.405-0.597c-0.199-0.138-0.482-0.207-0.851-0.207
				c-0.465,0-0.798,0.064-0.999,0.194c-0.134,0.093-0.2,0.212-0.2,0.358c0,0.125,0.059,0.232,0.176,0.32
				c0.159,0.117,0.708,0.282,1.647,0.496c0.94,0.213,1.597,0.475,1.969,0.784c0.368,0.314,0.553,0.752,0.553,1.313
				c0,0.611-0.255,1.137-0.766,1.576s-1.267,0.659-2.268,0.659c-0.908,0-1.627-0.184-2.156-0.553
				C127.656,47.513,127.31,47.013,127.147,46.381z"/>
			<path style="fill:#2C6882;" d="M140.735,43.586l-1.739,0.314c-0.059-0.348-0.191-0.609-0.398-0.785s-0.477-0.264-0.807-0.264
				c-0.439,0-0.791,0.152-1.052,0.455c-0.262,0.304-0.393,0.812-0.393,1.523c0,0.791,0.133,1.35,0.398,1.676
				c0.266,0.327,0.623,0.49,1.07,0.49c0.335,0,0.609-0.096,0.823-0.286c0.213-0.19,0.364-0.518,0.452-0.982l1.732,0.295
				c-0.18,0.796-0.525,1.396-1.036,1.803c-0.511,0.405-1.195,0.608-2.053,0.608c-0.976,0-1.753-0.308-2.333-0.923
				s-0.869-1.467-0.869-2.556c0-1.101,0.29-1.958,0.872-2.571s1.369-0.92,2.361-0.92c0.813,0,1.458,0.175,1.938,0.524
				C140.182,42.338,140.526,42.87,140.735,43.586z"/>
			<path style="fill:#2C6882;" d="M143.763,48.283h-1.765v-6.669h1.639v0.948c0.28-0.447,0.533-0.742,0.757-0.885
				s0.479-0.214,0.763-0.214c0.402,0,0.789,0.111,1.162,0.333l-0.547,1.538c-0.297-0.192-0.573-0.289-0.828-0.289
				c-0.247,0-0.457,0.068-0.628,0.204c-0.172,0.137-0.307,0.383-0.405,0.738s-0.147,1.101-0.147,2.235V48.283z"/>
			<path style="fill:#2C6882;" d="M147.077,40.711v-1.633h1.765v1.633H147.077z M147.077,48.283v-6.669h1.765v6.669H147.077z"/>
			<path style="fill:#2C6882;" d="M150.575,48.283v-9.205h1.765v3.315c0.544-0.62,1.188-0.93,1.934-0.93
				c0.813,0,1.484,0.294,2.016,0.883c0.532,0.588,0.798,1.433,0.798,2.533c0,1.139-0.271,2.016-0.813,2.631s-1.2,0.923-1.975,0.923
				c-0.381,0-0.757-0.095-1.127-0.285c-0.371-0.19-0.689-0.472-0.958-0.845v0.979H150.575z M152.327,44.805
				c0,0.69,0.108,1.201,0.326,1.532c0.306,0.469,0.712,0.703,1.219,0.703c0.389,0,0.721-0.167,0.995-0.499
				c0.274-0.333,0.411-0.857,0.411-1.573c0-0.762-0.138-1.312-0.414-1.648s-0.631-0.505-1.062-0.505
				c-0.423,0-0.774,0.164-1.055,0.492C152.468,43.636,152.327,44.135,152.327,44.805z"/>
			<path style="fill:#2C6882;" d="M158.506,40.711v-1.633h1.765v1.633H158.506z M158.506,48.283v-6.669h1.765v6.669H158.506z"/>
			<path style="fill:#2C6882;" d="M163.767,48.283h-1.765v-6.669h1.639v0.948c0.28-0.447,0.533-0.742,0.757-0.885
				s0.479-0.214,0.763-0.214c0.402,0,0.789,0.111,1.162,0.333l-0.547,1.538c-0.297-0.192-0.573-0.289-0.828-0.289
				c-0.247,0-0.457,0.068-0.628,0.204c-0.172,0.137-0.307,0.383-0.405,0.738s-0.147,1.101-0.147,2.235V48.283z"/>
		</g>
	</g>
</g>
</svg>
