<?xml version="1.0" encoding="utf-8"?>
<!-- Generator: Adobe Illustrator 17.0.0, SVG Export Plug-In . SVG Version: 6.00 Build 0)  -->
<!DOCTYPE svg PUBLIC "-//W3C//DTD SVG 1.1//EN" "http://www.w3.org/Graphics/SVG/1.1/DTD/svg11.dtd">
<svg version="1.1" id="Capa_1" xmlns="http://www.w3.org/2000/svg" xmlns:xlink="http://www.w3.org/1999/xlink" x="0px" y="0px"
	 width="430.914px" height="21.299px" viewBox="0 0 430.914 21.299" style="enable-background:new 0 0 430.914 21.299;"
	 xml:space="preserve">
<g>
	<g>
		<path style="fill:#2C6882;" d="M55.684,21.006V0h1.89v21.006H55.684z"/>
		<path style="fill:#2C6882;" d="M69.996,21.006V10.02c0-0.361-0.068-0.701-0.205-1.018s-0.322-0.593-0.557-0.828
			s-0.51-0.42-0.828-0.557s-0.657-0.205-1.018-0.205h-1.201c-0.361,0-0.701,0.068-1.018,0.205s-0.593,0.322-0.828,0.557
			s-0.42,0.51-0.557,0.828S63.58,9.658,63.58,10.02v10.986h-1.802v-15h0.601l0.981,1.523c0.41-0.557,0.925-0.999,1.545-1.326
			s1.296-0.491,2.029-0.491h0.454c0.605,0,1.177,0.115,1.714,0.344s1.006,0.544,1.406,0.945s0.715,0.869,0.945,1.406
			s0.344,1.108,0.344,1.714v10.884H69.996z"/>
		<path style="fill:#2C6882;" d="M80.865,21.006c-0.547,0-1.062-0.103-1.545-0.308s-0.903-0.488-1.26-0.85s-0.64-0.781-0.85-1.26
			s-0.315-0.991-0.315-1.538V7.72H74.2V6.006h2.695V2.402l1.802-0.293v3.896h3.809V7.72h-3.809v9.419
			c0,0.303,0.056,0.583,0.168,0.842s0.266,0.486,0.461,0.681s0.425,0.349,0.688,0.461s0.547,0.168,0.85,0.168h1.641v1.714H80.865z"
			/>
		<path style="fill:#2C6882;" d="M90.225,7.72c-0.361,0-0.701,0.068-1.018,0.205s-0.593,0.322-0.828,0.557s-0.42,0.51-0.557,0.828
			s-0.205,0.657-0.205,1.018v10.679h-1.802v-15h0.601l0.981,1.523c0.41-0.557,0.925-0.999,1.545-1.326s1.296-0.491,2.029-0.491
			h1.055V7.72H90.225z"/>
		<path style="fill:#2C6882;" d="M104.105,18.604c-0.229,0.537-0.544,1.006-0.945,1.406s-0.869,0.715-1.406,0.945
			s-1.108,0.344-1.714,0.344h-1.201c-0.605,0-1.177-0.115-1.714-0.344s-1.006-0.544-1.406-0.945s-0.715-0.869-0.945-1.406
			s-0.344-1.108-0.344-1.714v-6.768c0-0.605,0.115-1.177,0.344-1.714s0.544-1.006,0.945-1.406s0.869-0.715,1.406-0.945
			s1.108-0.344,1.714-0.344h1.201c0.605,0,1.177,0.115,1.714,0.344s1.006,0.544,1.406,0.945s0.715,0.869,0.945,1.406
			s0.344,1.108,0.344,1.714v6.768C104.449,17.495,104.334,18.066,104.105,18.604z M102.647,10.02c0-0.361-0.068-0.701-0.205-1.018
			s-0.322-0.593-0.557-0.828s-0.51-0.42-0.828-0.557s-0.657-0.205-1.018-0.205h-1.201c-0.361,0-0.701,0.068-1.018,0.205
			s-0.593,0.322-0.828,0.557s-0.42,0.51-0.557,0.828s-0.205,0.657-0.205,1.018v6.973c0,0.361,0.068,0.701,0.205,1.018
			s0.322,0.593,0.557,0.828s0.51,0.42,0.828,0.557s0.657,0.205,1.018,0.205h1.201c0.361,0,0.701-0.068,1.018-0.205
			s0.593-0.322,0.828-0.557s0.42-0.51,0.557-0.828s0.205-0.657,0.205-1.018V10.02z"/>
		<path style="fill:#2C6882;" d="M117.471,21.006l-0.996-1.523c-0.41,0.557-0.923,0.999-1.538,1.326s-1.289,0.491-2.021,0.491
			h-0.454c-0.605,0-1.177-0.115-1.714-0.344s-1.006-0.544-1.406-0.945s-0.715-0.869-0.945-1.406s-0.344-1.108-0.344-1.714v-6.768
			c0-0.605,0.115-1.177,0.344-1.714s0.544-1.006,0.945-1.406s0.869-0.715,1.406-0.945s1.108-0.344,1.714-0.344h0.454
			c0.674,0,1.299,0.137,1.875,0.41s1.069,0.654,1.479,1.143V0h1.802v21.006H117.471z M116.27,10.02c0-0.361-0.068-0.701-0.205-1.018
			s-0.322-0.593-0.557-0.828s-0.51-0.42-0.828-0.557s-0.657-0.205-1.018-0.205h-1.201c-0.361,0-0.701,0.068-1.018,0.205
			s-0.593,0.322-0.828,0.557s-0.42,0.51-0.557,0.828s-0.205,0.657-0.205,1.018v6.973c0,0.361,0.068,0.701,0.205,1.018
			s0.322,0.593,0.557,0.828s0.51,0.42,0.828,0.557s0.657,0.205,1.018,0.205h1.201c0.361,0,0.701-0.068,1.018-0.205
			s0.593-0.322,0.828-0.557s0.42-0.51,0.557-0.828s0.205-0.657,0.205-1.018V10.02z"/>
		<path style="fill:#2C6882;" d="M131.094,21.006l-0.996-1.523c-0.41,0.557-0.923,0.999-1.538,1.326
			c-0.615,0.327-1.289,0.491-2.021,0.491h-0.454c-0.605,0-1.177-0.115-1.714-0.344s-1.006-0.544-1.406-0.945
			s-0.715-0.869-0.945-1.406s-0.344-1.108-0.344-1.714V6.006h1.802v10.986c0,0.361,0.068,0.701,0.205,1.018s0.322,0.593,0.557,0.828
			s0.51,0.42,0.828,0.557s0.657,0.205,1.018,0.205h1.201c0.361,0,0.701-0.068,1.018-0.205c0.317-0.137,0.593-0.322,0.828-0.557
			s0.42-0.51,0.557-0.828s0.205-0.657,0.205-1.018V6.006h1.802v15H131.094z"/>
		<path style="fill:#2C6882;" d="M144.974,18.604c-0.229,0.537-0.544,1.006-0.945,1.406s-0.869,0.715-1.406,0.945
			s-1.108,0.344-1.714,0.344h-1.201c-0.605,0-1.177-0.115-1.714-0.344s-1.006-0.544-1.406-0.945s-0.715-0.869-0.945-1.406
			s-0.344-1.108-0.344-1.714v-6.768c0-0.605,0.115-1.177,0.344-1.714s0.544-1.006,0.945-1.406s0.869-0.715,1.406-0.945
			s1.108-0.344,1.714-0.344h1.201c0.605,0,1.177,0.115,1.714,0.344s1.006,0.544,1.406,0.945s0.715,0.869,0.945,1.406
			s0.344,1.108,0.344,1.714v0.601l-1.802,0.293V10.02c0-0.361-0.068-0.701-0.205-1.018s-0.322-0.593-0.557-0.828
			s-0.51-0.42-0.828-0.557s-0.657-0.205-1.018-0.205h-1.201c-0.361,0-0.701,0.068-1.018,0.205s-0.593,0.322-0.828,0.557
			s-0.42,0.51-0.557,0.828S137.1,9.658,137.1,10.02v6.973c0,0.361,0.068,0.701,0.205,1.018s0.322,0.593,0.557,0.828
			s0.51,0.42,0.828,0.557s0.657,0.205,1.018,0.205h1.201c0.361,0,0.701-0.068,1.018-0.205s0.593-0.322,0.828-0.557
			s0.42-0.51,0.557-0.828s0.205-0.657,0.205-1.018v-0.996l1.802,0.293v0.601C145.318,17.495,145.203,18.066,144.974,18.604z"/>
		<path style="fill:#2C6882;" d="M158.597,18.604c-0.229,0.537-0.544,1.006-0.945,1.406s-0.869,0.715-1.406,0.945
			s-1.108,0.344-1.714,0.344h-1.201c-0.605,0-1.177-0.115-1.714-0.344s-1.006-0.544-1.406-0.945s-0.715-0.869-0.945-1.406
			s-0.344-1.108-0.344-1.714v-6.768c0-0.605,0.115-1.177,0.344-1.714s0.544-1.006,0.945-1.406s0.869-0.715,1.406-0.945
			s1.108-0.344,1.714-0.344h1.201c0.605,0,1.177,0.115,1.714,0.344s1.006,0.544,1.406,0.945s0.715,0.869,0.945,1.406
			s0.344,1.108,0.344,1.714v0.601l-1.802,0.293V10.02c0-0.361-0.068-0.701-0.205-1.018s-0.322-0.593-0.557-0.828
			s-0.51-0.42-0.828-0.557s-0.657-0.205-1.018-0.205h-1.201c-0.361,0-0.701,0.068-1.018,0.205s-0.593,0.322-0.828,0.557
			s-0.42,0.51-0.557,0.828s-0.205,0.657-0.205,1.018v6.973c0,0.361,0.068,0.701,0.205,1.018s0.322,0.593,0.557,0.828
			s0.51,0.42,0.828,0.557s0.657,0.205,1.018,0.205h1.201c0.361,0,0.701-0.068,1.018-0.205s0.593-0.322,0.828-0.557
			s0.42-0.51,0.557-0.828s0.205-0.657,0.205-1.018v-0.996l1.802,0.293v0.601C158.941,17.495,158.826,18.066,158.597,18.604z"/>
		<path style="fill:#2C6882;" d="M162.999,2.402V0h2.095v2.402H162.999z M163.145,21.006v-15h1.802v15H163.145z"/>
		<path style="fill:#2C6882;" d="M178.826,18.604c-0.229,0.537-0.544,1.006-0.945,1.406s-0.869,0.715-1.406,0.945
			s-1.108,0.344-1.714,0.344h-1.201c-0.605,0-1.177-0.115-1.714-0.344s-1.006-0.544-1.406-0.945s-0.715-0.869-0.945-1.406
			s-0.344-1.108-0.344-1.714v-6.768c0-0.605,0.115-1.177,0.344-1.714s0.544-1.006,0.945-1.406s0.869-0.715,1.406-0.945
			s1.108-0.344,1.714-0.344h1.201c0.605,0,1.177,0.115,1.714,0.344s1.006,0.544,1.406,0.945s0.715,0.869,0.945,1.406
			s0.344,1.108,0.344,1.714v6.768C179.171,17.495,179.056,18.066,178.826,18.604z M177.369,10.02c0-0.361-0.068-0.701-0.205-1.018
			s-0.322-0.593-0.557-0.828s-0.51-0.42-0.828-0.557s-0.657-0.205-1.018-0.205h-1.201c-0.361,0-0.701,0.068-1.018,0.205
			s-0.593,0.322-0.828,0.557s-0.42,0.51-0.557,0.828s-0.205,0.657-0.205,1.018v6.973c0,0.361,0.068,0.701,0.205,1.018
			s0.322,0.593,0.557,0.828s0.51,0.42,0.828,0.557s0.657,0.205,1.018,0.205h1.201c0.361,0,0.701-0.068,1.018-0.205
			s0.593-0.322,0.828-0.557s0.42-0.51,0.557-0.828s0.205-0.657,0.205-1.018V10.02z M173.414,3.604h-1.348L174.454,0h3.003
			L173.414,3.604z"/>
		<path style="fill:#2C6882;" d="M190.992,21.006V10.02c0-0.361-0.068-0.701-0.205-1.018s-0.322-0.593-0.557-0.828
			s-0.511-0.42-0.828-0.557s-0.656-0.205-1.018-0.205h-1.201c-0.361,0-0.701,0.068-1.019,0.205s-0.593,0.322-0.827,0.557
			s-0.42,0.51-0.557,0.828s-0.205,0.657-0.205,1.018v10.986h-1.802v-15h0.601l0.981,1.523c0.41-0.557,0.925-0.999,1.545-1.326
			s1.297-0.491,2.029-0.491h0.454c0.605,0,1.177,0.115,1.714,0.344s1.006,0.544,1.406,0.945s0.715,0.869,0.944,1.406
			s0.345,1.108,0.345,1.714v10.884H190.992z"/>
	</g>
	<circle style="fill:none;stroke:#445061;stroke-linecap:round;stroke-linejoin:round;" cx="4.414" cy="14.912" r="3.914"/>
	<circle style="fill:none;stroke:#445061;stroke-linecap:round;stroke-linejoin:round;" cx="426.5" cy="14.912" r="3.914"/>
	
		<line style="fill:none;stroke:#445061;stroke-linecap:round;stroke-linejoin:round;" x1="199.5" y1="14.912" x2="422.126" y2="14.912"/>
	
		<line style="fill:none;stroke:#445061;stroke-linecap:round;stroke-linejoin:round;" x1="7.92" y1="14.912" x2="48.501" y2="14.912"/>
</g>
</svg>
