<?xml version="1.0" encoding="utf-8"?>
<!-- Generator: Adobe Illustrator 17.0.0, SVG Export Plug-In . SVG Version: 6.00 Build 0)  -->
<!DOCTYPE svg PUBLIC "-//W3C//DTD SVG 1.1//EN" "http://www.w3.org/Graphics/SVG/1.1/DTD/svg11.dtd">
<svg version="1.1" id="Capa_1" xmlns="http://www.w3.org/2000/svg" xmlns:xlink="http://www.w3.org/1999/xlink" x="0px" y="0px"
	 width="76.511px" height="74.6px" viewBox="0 0 76.511 74.6" style="enable-background:new 0 0 76.511 74.6;" xml:space="preserve"
	>
<g>
	<path style="fill-rule:evenodd;clip-rule:evenodd;" d="M38.446,0c4.532,0,8.226,3.718,8.226,8.274c0,4.557-3.693,8.273-8.226,8.273
		c-4.53,0-8.228-3.716-8.228-8.273C30.219,3.718,33.916,0,38.446,0"/>
	<path style="fill-rule:evenodd;clip-rule:evenodd;" d="M8.486,26.703v0.031l-0.04,0.304c0,0.426,0.241,0.743,0.727,0.953
		c0.488,0.207,1.242,0.312,2.261,0.312c0.776,0,1.383-0.088,1.824-0.257c0.443-0.171,0.663-0.404,0.663-0.704
		c0-0.453-0.874-0.815-2.614-1.101c-0.203-0.032-0.355-0.057-0.455-0.072c-0.111-0.021-0.275-0.048-0.488-0.082
		c-2.766-0.453-4.545-0.942-5.33-1.472C4.65,24.354,4.357,24.052,4.16,23.7c-0.191-0.352-0.289-0.751-0.289-1.188
		c0-1.083,0.635-1.905,1.904-2.471c1.272-0.564,3.131-0.848,5.578-0.848c2.42,0,4.211,0.264,5.377,0.793
		c1.164,0.532,1.748,1.35,1.748,2.448v0.127h-4.582v-0.05c0-0.381-0.228-0.664-0.692-0.857c-0.464-0.196-1.144-0.295-2.038-0.295
		c-0.693,0-1.231,0.068-1.604,0.207c-0.379,0.139-0.566,0.339-0.566,0.594c0,0.458,0.998,0.846,2.995,1.169
		c0.384,0.057,0.686,0.106,0.905,0.139c1.423,0.238,2.437,0.443,3.039,0.614c0.602,0.17,1.123,0.373,1.561,0.605
		c0.485,0.266,0.867,0.604,1.129,1.012c0.265,0.407,0.397,0.852,0.397,1.339c0,1.114-0.693,1.97-2.076,2.571
		c-1.385,0.601-3.379,0.9-5.977,0.9c-2.57,0-4.43-0.289-5.58-0.864c-1.15-0.58-1.72-1.504-1.72-2.78v-0.162H8.486z M21.034,30.326
		V19.358h13.058v2.363h-8.154v1.748h7.541v2.334h-7.541v2.128h8.465v2.395H21.034z M36.448,30.326V19.358h6.206l6.641,7.357v-7.357
		h4.71v10.968H47.57l-6.426-7.385v7.385H36.448z M66.673,25.952l-2.347-3.986l-2.48,3.986H66.673z M59.203,30.326h-4.916
		l7.59-10.968h5.439l7.24,10.968h-5.461l-1.104-1.981h-7.607L59.203,30.326z"/>
	<path style="fill-rule:evenodd;clip-rule:evenodd;" d="M14.515,68.99l-4.38-4.116l13.334-23.142c0.727-1.263-0.184-2.84-1.641-2.84
		H0v-5.789h35.134L14.515,68.99z"/>
	<path style="fill-rule:evenodd;clip-rule:evenodd;" d="M61.996,68.99l4.381-4.116L53.043,41.732c-0.727-1.263,0.183-2.84,1.64-2.84
		h21.828v-5.789H41.377L61.996,68.99z"/>
	<path style="fill-rule:evenodd;clip-rule:evenodd;" d="M38.208,39.223l0.048-0.082l19.797,32.724L52.797,74.6L40.039,53.234
		c-0.752-1.259-2.575-1.261-3.322,0C32.465,60.402,24.043,74.6,24.043,74.6l-5.146-2.545C18.896,72.055,37.15,41.021,38.208,39.223"
		/>
</g>
</svg>
