<?xml version="1.0" encoding="utf-8"?>
<!-- Generator: Adobe Illustrator 17.0.0, SVG Export Plug-In . SVG Version: 6.00 Build 0)  -->
<!DOCTYPE svg PUBLIC "-//W3C//DTD SVG 1.1//EN" "http://www.w3.org/Graphics/SVG/1.1/DTD/svg11.dtd">
<svg version="1.1" id="Capa_1" xmlns="http://www.w3.org/2000/svg" xmlns:xlink="http://www.w3.org/1999/xlink" x="0px" y="0px"
	 width="26.544px" height="27.104px" viewBox="0 0 26.544 27.104" style="enable-background:new 0 0 26.544 27.104;"
	 xml:space="preserve">
<g>
	<path style="fill:#FFFFFF;" d="M18.22,15.364l6.949,7.173c0.878,0.877,0.878,2.314,0,3.191c-0.878,0.879-2.314,0.879-3.191,0
		l-7.092-7.313"/>
	<path style="fill:#6FC2D8;" d="M23.573,27.104c-0.762,0-1.524-0.289-2.104-0.869l-7.09-7.314c-0.28-0.279-0.28-0.733,0-1.013
		c0.279-0.279,0.732-0.279,1.012,0l7.092,7.313c0.6,0.602,1.578,0.602,2.18,0c0.601-0.601,0.601-1.579,0-2.18l-6.95-7.172
		c-0.279-0.28-0.279-0.734,0-1.013c0.28-0.28,0.732-0.28,1.013,0l6.95,7.173c1.158,1.158,1.158,3.045,0,4.203
		C25.095,26.815,24.334,27.104,23.573,27.104"/>
	<path style="fill:#FFFFFF;" d="M10.171,5.41c0.803,0,1.453,0.651,1.453,1.453V8.68h1.816c0.801,0,1.451,0.65,1.451,1.452
		c0,0.802-0.65,1.453-1.451,1.453h-1.816V13.4c0,0.802-0.65,1.453-1.453,1.453c-0.802,0-1.453-0.651-1.453-1.453v-1.815H6.902
		c-0.802,0-1.452-0.651-1.452-1.453c0-0.802,0.65-1.452,1.452-1.452h1.815V6.863C8.718,6.062,9.369,5.41,10.171,5.41"/>
	<path style="fill:none;stroke:#6FC2D8;stroke-width:1.714;stroke-miterlimit:10;" d="M10.171,5.41c0.803,0,1.453,0.651,1.453,1.453
		V8.68h1.816c0.801,0,1.451,0.65,1.451,1.452c0,0.802-0.65,1.453-1.451,1.453h-1.816V13.4c0,0.802-0.65,1.453-1.453,1.453
		c-0.802,0-1.453-0.651-1.453-1.453v-1.815H6.902c-0.802,0-1.452-0.651-1.452-1.453c0-0.802,0.65-1.452,1.452-1.452h1.815V6.863
		C8.718,6.062,9.369,5.41,10.171,5.41z"/>
	<path style="fill:#6FC2D8;" d="M10.171,20.342C4.564,20.342,0,15.779,0,10.172C0,4.563,4.564,0,10.171,0
		c5.608,0,10.172,4.563,10.172,10.172C20.343,15.779,15.779,20.342,10.171,20.342 M10.171,2.225c-4.382,0-7.946,3.564-7.946,7.947
		c0,4.381,3.565,7.945,7.946,7.945c4.382,0,7.947-3.564,7.947-7.945C18.118,5.789,14.553,2.225,10.171,2.225"/>
</g>
</svg>
