<?xml version="1.0" encoding="utf-8"?>
<!-- Generator: Adobe Illustrator 17.0.0, SVG Export Plug-In . SVG Version: 6.00 Build 0)  -->
<!DOCTYPE svg PUBLIC "-//W3C//DTD SVG 1.1//EN" "http://www.w3.org/Graphics/SVG/1.1/DTD/svg11.dtd">
<svg version="1.1" id="Capa_1" xmlns="http://www.w3.org/2000/svg" xmlns:xlink="http://www.w3.org/1999/xlink" x="0px" y="0px"
	 width="88.862px" height="51.21px" viewBox="0 0 88.862 51.21" style="enable-background:new 0 0 88.862 51.21;"
	 xml:space="preserve">
<polygon style="fill:#6FC2D8;stroke:#000000;stroke-width:0.75;stroke-miterlimit:10;" points="0.607,0.375 75.777,0.375 
	88.444,25.605 76.214,50.835 1.045,50.835 13.278,25.673 "/>
<g>
	<path style="fill:#2C6882;" d="M24.07,19.438l1.406-0.137c0.085,0.472,0.256,0.818,0.516,1.04c0.258,0.222,0.607,0.332,1.047,0.332
		c0.466,0,0.816-0.099,1.053-0.295c0.235-0.197,0.354-0.428,0.354-0.691c0-0.169-0.05-0.313-0.148-0.432
		c-0.1-0.119-0.273-0.223-0.521-0.311c-0.169-0.059-0.555-0.163-1.157-0.313c-0.774-0.192-1.318-0.428-1.631-0.708
		c-0.439-0.394-0.659-0.874-0.659-1.44c0-0.364,0.104-0.705,0.31-1.023c0.207-0.316,0.505-0.559,0.895-0.725
		c0.389-0.166,0.858-0.249,1.408-0.249c0.898,0,1.574,0.197,2.029,0.591c0.453,0.394,0.692,0.92,0.715,1.577l-1.445,0.063
		c-0.062-0.368-0.194-0.633-0.398-0.793c-0.203-0.162-0.508-0.242-0.915-0.242c-0.42,0-0.749,0.086-0.986,0.259
		c-0.153,0.11-0.229,0.259-0.229,0.444c0,0.169,0.071,0.314,0.215,0.435c0.183,0.153,0.625,0.313,1.328,0.479
		s1.223,0.338,1.561,0.515c0.336,0.178,0.6,0.42,0.791,0.729c0.189,0.307,0.285,0.688,0.285,1.14c0,0.41-0.114,0.794-0.342,1.152
		s-0.55,0.624-0.967,0.798c-0.417,0.175-0.936,0.262-1.558,0.262c-0.905,0-1.6-0.209-2.085-0.627
		C24.454,20.849,24.165,20.239,24.07,19.438z"/>
	<path style="fill:#2C6882;" d="M34.099,20.117l1.367,0.229c-0.176,0.501-0.453,0.883-0.832,1.146
		c-0.38,0.262-0.854,0.393-1.424,0.393c-0.901,0-1.569-0.295-2.002-0.884c-0.342-0.472-0.513-1.067-0.513-1.787
		c0-0.859,0.225-1.532,0.674-2.019c0.449-0.487,1.018-0.73,1.704-0.73c0.771,0,1.38,0.255,1.826,0.764
		c0.446,0.51,0.659,1.29,0.64,2.342h-3.438c0.01,0.407,0.12,0.724,0.332,0.949c0.212,0.227,0.476,0.34,0.791,0.34
		c0.215,0,0.396-0.059,0.542-0.176S34.024,20.378,34.099,20.117z M34.178,18.73c-0.01-0.397-0.112-0.699-0.308-0.906
		c-0.195-0.206-0.433-0.31-0.713-0.31c-0.3,0-0.547,0.109-0.742,0.327s-0.291,0.515-0.288,0.889H34.178z"/>
	<path style="fill:#2C6882;" d="M36.658,21.768v-7.158h1.372v7.158H36.658z"/>
	<path style="fill:#2C6882;" d="M42.439,20.117l1.367,0.229c-0.176,0.501-0.453,0.883-0.832,1.146
		c-0.38,0.262-0.854,0.393-1.424,0.393c-0.901,0-1.569-0.295-2.002-0.884c-0.342-0.472-0.513-1.067-0.513-1.787
		c0-0.859,0.225-1.532,0.674-2.019c0.449-0.487,1.018-0.73,1.704-0.73c0.771,0,1.38,0.255,1.826,0.764
		c0.446,0.51,0.659,1.29,0.64,2.342h-3.438c0.01,0.407,0.12,0.724,0.332,0.949c0.212,0.227,0.476,0.34,0.791,0.34
		c0.215,0,0.396-0.059,0.542-0.176S42.364,20.378,42.439,20.117z M42.517,18.73c-0.01-0.397-0.112-0.699-0.308-0.906
		c-0.195-0.206-0.433-0.31-0.713-0.31c-0.3,0-0.547,0.109-0.742,0.327s-0.291,0.515-0.288,0.889H42.517z"/>
	<path style="fill:#2C6882;" d="M49.519,18.115l-1.353,0.244c-0.046-0.271-0.148-0.474-0.311-0.61
		c-0.16-0.137-0.37-0.205-0.627-0.205c-0.342,0-0.614,0.118-0.818,0.354c-0.203,0.235-0.305,0.63-0.305,1.184
		c0,0.615,0.104,1.05,0.311,1.304c0.206,0.254,0.483,0.381,0.832,0.381c0.261,0,0.474-0.074,0.64-0.222
		c0.166-0.148,0.283-0.403,0.352-0.765l1.348,0.229c-0.14,0.618-0.408,1.086-0.806,1.401s-0.93,0.474-1.597,0.474
		c-0.759,0-1.363-0.239-1.813-0.718c-0.451-0.479-0.677-1.141-0.677-1.987c0-0.856,0.227-1.522,0.679-2
		c0.452-0.477,1.064-0.715,1.836-0.715c0.632,0,1.134,0.136,1.506,0.408C49.089,17.145,49.356,17.559,49.519,18.115z"/>
	<path style="fill:#2C6882;" d="M55.081,18.115l-1.353,0.244c-0.046-0.271-0.148-0.474-0.311-0.61
		c-0.16-0.137-0.37-0.205-0.627-0.205c-0.342,0-0.614,0.118-0.818,0.354c-0.203,0.235-0.305,0.63-0.305,1.184
		c0,0.615,0.104,1.05,0.311,1.304c0.206,0.254,0.483,0.381,0.832,0.381c0.261,0,0.474-0.074,0.64-0.222
		c0.166-0.148,0.283-0.403,0.352-0.765l1.348,0.229c-0.14,0.618-0.408,1.086-0.806,1.401s-0.93,0.474-1.597,0.474
		c-0.759,0-1.363-0.239-1.813-0.718c-0.451-0.479-0.677-1.141-0.677-1.987c0-0.856,0.227-1.522,0.679-2
		c0.452-0.477,1.064-0.715,1.836-0.715c0.632,0,1.134,0.136,1.506,0.408C54.65,17.145,54.918,17.559,55.081,18.115z"/>
	<path style="fill:#2C6882;" d="M56.121,15.879v-1.27h1.372v1.27H56.121z M56.121,21.768v-5.186h1.372v5.186H56.121z"/>
	<path style="fill:#2C6882;" d="M58.582,19.102c0-0.456,0.112-0.896,0.337-1.323s0.543-0.752,0.954-0.977
		c0.412-0.225,0.872-0.337,1.38-0.337c0.784,0,1.428,0.255,1.929,0.764c0.501,0.51,0.752,1.153,0.752,1.932
		c0,0.784-0.253,1.435-0.76,1.951c-0.506,0.516-1.143,0.773-1.911,0.773c-0.476,0-0.929-0.107-1.36-0.322
		c-0.431-0.215-0.759-0.529-0.983-0.945C58.694,20.203,58.582,19.697,58.582,19.102z M59.988,19.175
		c0,0.515,0.122,0.908,0.366,1.182s0.545,0.41,0.903,0.41s0.658-0.137,0.9-0.41c0.243-0.273,0.364-0.671,0.364-1.191
		c0-0.508-0.121-0.898-0.364-1.172c-0.242-0.273-0.542-0.41-0.9-0.41s-0.659,0.137-0.903,0.41S59.988,18.66,59.988,19.175z
		 M60.564,15.947l0.674-1.46h1.538l-1.343,1.46H60.564z"/>
	<path style="fill:#2C6882;" d="M69.724,21.768h-1.372v-2.646c0-0.56-0.029-0.922-0.088-1.086c-0.059-0.165-0.154-0.293-0.285-0.384
		c-0.133-0.091-0.291-0.137-0.477-0.137c-0.237,0-0.451,0.065-0.64,0.195s-0.318,0.303-0.388,0.518
		c-0.07,0.215-0.105,0.612-0.105,1.191v2.349h-1.372v-5.186h1.274v0.762c0.452-0.586,1.022-0.879,1.709-0.879
		c0.303,0,0.579,0.055,0.83,0.164c0.251,0.108,0.44,0.248,0.568,0.417c0.129,0.169,0.219,0.361,0.27,0.576
		c0.05,0.215,0.075,0.522,0.075,0.923V21.768z"/>
	<path style="fill:#2C6882;" d="M23.072,33.768h-1.274v-0.762c-0.212,0.296-0.461,0.517-0.75,0.662
		c-0.287,0.145-0.578,0.217-0.871,0.217c-0.596,0-1.105-0.24-1.531-0.721c-0.424-0.479-0.637-1.149-0.637-2.009
		c0-0.879,0.207-1.547,0.62-2.005c0.413-0.457,0.936-0.686,1.567-0.686c0.579,0,1.081,0.241,1.504,0.723v-2.578h1.372V33.768z
		 M19.41,31.063c0,0.554,0.076,0.954,0.229,1.201c0.222,0.358,0.53,0.537,0.928,0.537c0.315,0,0.584-0.135,0.806-0.402
		c0.222-0.27,0.332-0.67,0.332-1.204c0-0.596-0.107-1.024-0.322-1.286c-0.215-0.263-0.49-0.394-0.825-0.394
		c-0.325,0-0.598,0.13-0.818,0.388C19.52,30.162,19.41,30.548,19.41,31.063z"/>
	<path style="fill:#2C6882;" d="M27.428,32.117l1.367,0.229c-0.176,0.501-0.453,0.883-0.832,1.146
		c-0.38,0.262-0.854,0.393-1.424,0.393c-0.901,0-1.569-0.295-2.002-0.884c-0.342-0.472-0.513-1.067-0.513-1.787
		c0-0.859,0.225-1.532,0.674-2.019c0.449-0.487,1.018-0.73,1.704-0.73c0.771,0,1.38,0.255,1.826,0.764
		c0.446,0.51,0.659,1.29,0.64,2.342H25.43c0.01,0.407,0.12,0.724,0.332,0.949c0.212,0.227,0.476,0.34,0.791,0.34
		c0.215,0,0.396-0.059,0.542-0.176S27.352,32.378,27.428,32.117z M27.506,30.73c-0.01-0.397-0.112-0.699-0.308-0.906
		c-0.195-0.206-0.433-0.31-0.713-0.31c-0.3,0-0.547,0.109-0.742,0.327s-0.291,0.515-0.288,0.889H27.506z"/>
	<path style="fill:#2C6882;" d="M32.725,28.582h1.279v0.762c0.166-0.261,0.391-0.472,0.674-0.635s0.598-0.244,0.942-0.244
		c0.603,0,1.113,0.236,1.533,0.708s0.63,1.13,0.63,1.973c0,0.866-0.212,1.539-0.635,2.019c-0.423,0.48-0.936,0.721-1.538,0.721
		c-0.286,0-0.546-0.057-0.779-0.171c-0.232-0.114-0.478-0.31-0.734-0.586v2.612h-1.372V28.582z M34.083,31.087
		c0,0.583,0.115,1.013,0.347,1.292c0.231,0.277,0.513,0.417,0.845,0.417c0.319,0,0.584-0.128,0.796-0.384
		c0.212-0.255,0.317-0.674,0.317-1.257c0-0.544-0.109-0.947-0.327-1.211s-0.488-0.396-0.811-0.396c-0.335,0-0.613,0.129-0.835,0.389
		C34.193,30.195,34.083,30.579,34.083,31.087z"/>
	<path style="fill:#2C6882;" d="M40.186,33.768h-1.372v-5.186h1.274v0.737c0.218-0.349,0.414-0.578,0.588-0.688
		c0.175-0.11,0.372-0.166,0.594-0.166c0.313,0,0.613,0.086,0.903,0.259l-0.425,1.196c-0.231-0.149-0.446-0.225-0.645-0.225
		c-0.192,0-0.354,0.053-0.488,0.158c-0.134,0.106-0.238,0.298-0.314,0.574c-0.077,0.276-0.115,0.856-0.115,1.738V33.768z"/>
	<path style="fill:#2C6882;" d="M42.447,31.102c0-0.456,0.112-0.896,0.337-1.323s0.543-0.752,0.954-0.977
		c0.412-0.225,0.872-0.337,1.38-0.337c0.784,0,1.428,0.255,1.929,0.764c0.501,0.51,0.752,1.153,0.752,1.932
		c0,0.784-0.253,1.435-0.76,1.951c-0.506,0.516-1.143,0.773-1.911,0.773c-0.476,0-0.929-0.107-1.36-0.322
		c-0.431-0.215-0.759-0.529-0.983-0.945C42.559,32.203,42.447,31.697,42.447,31.102z M43.853,31.175
		c0,0.515,0.122,0.908,0.366,1.182s0.545,0.41,0.903,0.41s0.658-0.137,0.9-0.41c0.243-0.273,0.364-0.671,0.364-1.191
		c0-0.508-0.121-0.898-0.364-1.172c-0.242-0.273-0.542-0.41-0.9-0.41s-0.659,0.137-0.903,0.41S43.853,30.66,43.853,31.175z"/>
	<path style="fill:#2C6882;" d="M53.394,30.115l-1.353,0.244c-0.046-0.271-0.148-0.474-0.311-0.61
		c-0.16-0.137-0.37-0.205-0.627-0.205c-0.342,0-0.614,0.118-0.818,0.354c-0.203,0.235-0.305,0.63-0.305,1.184
		c0,0.615,0.104,1.05,0.311,1.304c0.206,0.254,0.483,0.381,0.832,0.381c0.261,0,0.474-0.074,0.64-0.222
		c0.166-0.148,0.283-0.403,0.352-0.765l1.348,0.229c-0.14,0.618-0.408,1.086-0.806,1.401s-0.93,0.474-1.597,0.474
		c-0.759,0-1.363-0.239-1.813-0.718c-0.451-0.479-0.677-1.141-0.677-1.987c0-0.856,0.227-1.522,0.679-2
		c0.452-0.477,1.064-0.715,1.836-0.715c0.632,0,1.134,0.136,1.506,0.408C52.964,29.145,53.231,29.559,53.394,30.115z"/>
	<path style="fill:#2C6882;" d="M57.437,32.117l1.367,0.229c-0.176,0.501-0.453,0.883-0.832,1.146
		c-0.38,0.262-0.854,0.393-1.424,0.393c-0.901,0-1.569-0.295-2.002-0.884c-0.342-0.472-0.513-1.067-0.513-1.787
		c0-0.859,0.225-1.532,0.674-2.019c0.449-0.487,1.018-0.73,1.704-0.73c0.771,0,1.38,0.255,1.826,0.764
		c0.446,0.51,0.659,1.29,0.64,2.342H55.44c0.01,0.407,0.12,0.724,0.332,0.949c0.212,0.227,0.476,0.34,0.791,0.34
		c0.215,0,0.396-0.059,0.542-0.176S57.362,32.378,57.437,32.117z M57.515,30.73c-0.01-0.397-0.112-0.699-0.308-0.906
		c-0.195-0.206-0.433-0.31-0.713-0.31c-0.3,0-0.547,0.109-0.742,0.327s-0.291,0.515-0.288,0.889H57.515z"/>
	<path style="fill:#2C6882;" d="M59.512,32.288l1.377-0.21c0.059,0.267,0.178,0.47,0.356,0.607c0.179,0.139,0.43,0.208,0.752,0.208
		c0.354,0,0.622-0.065,0.801-0.195c0.12-0.091,0.181-0.213,0.181-0.366c0-0.104-0.032-0.19-0.098-0.259
		c-0.068-0.065-0.222-0.125-0.459-0.181c-1.106-0.244-1.809-0.467-2.104-0.669c-0.41-0.28-0.615-0.669-0.615-1.167
		c0-0.449,0.178-0.827,0.532-1.133s0.905-0.459,1.65-0.459c0.71,0,1.237,0.115,1.582,0.347s0.583,0.573,0.713,1.025l-1.294,0.239
		c-0.056-0.202-0.16-0.356-0.315-0.464c-0.154-0.107-0.375-0.161-0.661-0.161c-0.361,0-0.62,0.051-0.776,0.151
		c-0.104,0.071-0.156,0.164-0.156,0.278c0,0.098,0.046,0.181,0.137,0.249c0.124,0.091,0.551,0.22,1.281,0.386
		c0.731,0.166,1.241,0.369,1.531,0.61c0.286,0.244,0.43,0.584,0.43,1.021c0,0.476-0.198,0.884-0.596,1.226s-0.984,0.513-1.763,0.513
		c-0.706,0-1.266-0.144-1.677-0.43C59.909,33.169,59.639,32.779,59.512,32.288z"/>
	<path style="fill:#2C6882;" d="M65.24,31.102c0-0.456,0.112-0.896,0.337-1.323s0.543-0.752,0.954-0.977
		c0.412-0.225,0.872-0.337,1.38-0.337c0.784,0,1.428,0.255,1.929,0.764c0.501,0.51,0.752,1.153,0.752,1.932
		c0,0.784-0.253,1.435-0.76,1.951c-0.506,0.516-1.143,0.773-1.911,0.773c-0.476,0-0.929-0.107-1.36-0.322
		c-0.431-0.215-0.759-0.529-0.983-0.945C65.352,32.203,65.24,31.697,65.24,31.102z M66.646,31.175c0,0.515,0.122,0.908,0.366,1.182
		s0.545,0.41,0.903,0.41s0.658-0.137,0.9-0.41c0.243-0.273,0.364-0.671,0.364-1.191c0-0.508-0.121-0.898-0.364-1.172
		c-0.242-0.273-0.542-0.41-0.9-0.41s-0.659,0.137-0.903,0.41S66.646,30.66,66.646,31.175z"/>
	<path style="fill:#2C6882;" d="M71.182,32.288l1.377-0.21c0.059,0.267,0.178,0.47,0.356,0.607c0.179,0.139,0.43,0.208,0.752,0.208
		c0.354,0,0.622-0.065,0.801-0.195c0.12-0.091,0.181-0.213,0.181-0.366c0-0.104-0.032-0.19-0.098-0.259
		c-0.068-0.065-0.222-0.125-0.459-0.181c-1.106-0.244-1.809-0.467-2.104-0.669c-0.41-0.28-0.615-0.669-0.615-1.167
		c0-0.449,0.178-0.827,0.532-1.133s0.905-0.459,1.65-0.459c0.71,0,1.237,0.115,1.582,0.347s0.583,0.573,0.713,1.025l-1.294,0.239
		c-0.056-0.202-0.16-0.356-0.315-0.464c-0.154-0.107-0.375-0.161-0.661-0.161c-0.361,0-0.62,0.051-0.776,0.151
		c-0.104,0.071-0.156,0.164-0.156,0.278c0,0.098,0.046,0.181,0.137,0.249c0.124,0.091,0.551,0.22,1.281,0.386
		c0.731,0.166,1.241,0.369,1.531,0.61c0.286,0.244,0.43,0.584,0.43,1.021c0,0.476-0.198,0.884-0.596,1.226s-0.984,0.513-1.763,0.513
		c-0.706,0-1.266-0.144-1.677-0.43C71.579,33.169,71.309,32.779,71.182,32.288z"/>
</g>
</svg>
