<?xml version="1.0" encoding="utf-8"?>
<!-- Generator: Adobe Illustrator 17.0.0, SVG Export Plug-In . SVG Version: 6.00 Build 0)  -->
<!DOCTYPE svg PUBLIC "-//W3C//DTD SVG 1.1//EN" "http://www.w3.org/Graphics/SVG/1.1/DTD/svg11.dtd">
<svg version="1.1" id="Capa_1" xmlns="http://www.w3.org/2000/svg" xmlns:xlink="http://www.w3.org/1999/xlink" x="0px" y="0px"
	 width="88.86px" height="51.21px" viewBox="0 0 88.86 51.21" style="enable-background:new 0 0 88.86 51.21;" xml:space="preserve"
	>
<polygon style="fill:#6FC2D8;stroke:#000000;stroke-width:0.75;stroke-miterlimit:10;" points="0.607,0.375 75.775,0.375 
	88.442,25.605 76.213,50.835 1.044,50.835 13.274,25.673 "/>
<g>
	<path style="fill:#2C6882;" d="M16.643,21.768v-7.158h1.445v7.158H16.643z"/>
	<path style="fill:#2C6882;" d="M24.212,21.768h-1.274v-0.762c-0.212,0.296-0.461,0.517-0.75,0.662
		c-0.287,0.145-0.578,0.217-0.871,0.217c-0.596,0-1.105-0.24-1.531-0.721c-0.424-0.479-0.637-1.149-0.637-2.009
		c0-0.879,0.207-1.547,0.62-2.005c0.413-0.457,0.936-0.686,1.567-0.686c0.579,0,1.081,0.241,1.504,0.723v-2.578h1.372V21.768z
		 M20.549,19.063c0,0.554,0.076,0.954,0.229,1.201c0.222,0.358,0.53,0.537,0.928,0.537c0.315,0,0.584-0.135,0.806-0.402
		c0.222-0.27,0.332-0.67,0.332-1.204c0-0.596-0.107-1.024-0.322-1.286c-0.215-0.263-0.49-0.394-0.825-0.394
		c-0.325,0-0.598,0.13-0.818,0.388C20.66,18.162,20.549,18.548,20.549,19.063z"/>
	<path style="fill:#2C6882;" d="M28.567,20.117l1.367,0.229c-0.176,0.501-0.453,0.883-0.832,1.146
		c-0.38,0.262-0.854,0.393-1.424,0.393c-0.901,0-1.569-0.295-2.002-0.884c-0.342-0.472-0.513-1.067-0.513-1.787
		c0-0.859,0.225-1.532,0.674-2.019c0.449-0.487,1.018-0.73,1.704-0.73c0.771,0,1.38,0.255,1.826,0.764
		c0.446,0.51,0.659,1.29,0.64,2.342H26.57c0.01,0.407,0.12,0.724,0.332,0.949c0.212,0.227,0.476,0.34,0.791,0.34
		c0.215,0,0.396-0.059,0.542-0.176S28.492,20.378,28.567,20.117z M28.645,18.73c-0.01-0.397-0.112-0.699-0.308-0.906
		c-0.195-0.206-0.433-0.31-0.713-0.31c-0.3,0-0.547,0.109-0.742,0.327s-0.291,0.515-0.288,0.889H28.645z"/>
	<path style="fill:#2C6882;" d="M35.842,21.768H34.47v-2.646c0-0.56-0.029-0.922-0.088-1.086c-0.059-0.165-0.154-0.293-0.285-0.384
		c-0.133-0.091-0.291-0.137-0.477-0.137c-0.237,0-0.451,0.065-0.64,0.195s-0.318,0.303-0.388,0.518
		c-0.07,0.215-0.105,0.612-0.105,1.191v2.349h-1.372v-5.186h1.274v0.762c0.452-0.586,1.022-0.879,1.709-0.879
		c0.303,0,0.579,0.055,0.83,0.164c0.251,0.108,0.44,0.248,0.568,0.417c0.129,0.169,0.219,0.361,0.27,0.576
		c0.05,0.215,0.075,0.522,0.075,0.923V21.768z"/>
	<path style="fill:#2C6882;" d="M39.612,16.582v1.094h-0.938v2.09c0,0.423,0.009,0.67,0.027,0.74
		c0.018,0.069,0.059,0.127,0.121,0.173c0.064,0.046,0.142,0.068,0.232,0.068c0.127,0,0.311-0.044,0.552-0.132l0.117,1.064
		c-0.319,0.137-0.681,0.205-1.084,0.205c-0.247,0-0.471-0.041-0.669-0.125c-0.198-0.082-0.344-0.189-0.438-0.322
		c-0.092-0.131-0.156-0.31-0.192-0.534c-0.029-0.159-0.044-0.481-0.044-0.967v-2.261h-0.63v-1.094h0.63v-1.03l1.377-0.801v1.831
		H39.612z"/>
	<path style="fill:#2C6882;" d="M40.564,15.879v-1.27h1.372v1.27H40.564z M40.564,21.768v-5.186h1.372v5.186H40.564z"/>
	<path style="fill:#2C6882;" d="M42.742,16.582h0.762v-0.391c0-0.437,0.047-0.762,0.139-0.977c0.094-0.215,0.264-0.39,0.514-0.525
		c0.248-0.135,0.563-0.202,0.944-0.202c0.391,0,0.773,0.059,1.147,0.176l-0.186,0.957c-0.218-0.052-0.428-0.078-0.63-0.078
		c-0.198,0-0.341,0.046-0.427,0.14c-0.087,0.092-0.13,0.271-0.13,0.534v0.366h1.025v1.079h-1.025v4.106h-1.372v-4.106h-0.762V16.582
		z"/>
	<path style="fill:#2C6882;" d="M46.673,15.879v-1.27h1.372v1.27H46.673z M46.673,21.768v-5.186h1.372v5.186H46.673z"/>
	<path style="fill:#2C6882;" d="M53.972,18.115l-1.353,0.244c-0.046-0.271-0.148-0.474-0.311-0.61
		c-0.16-0.137-0.37-0.205-0.627-0.205c-0.342,0-0.614,0.118-0.818,0.354c-0.203,0.235-0.305,0.63-0.305,1.184
		c0,0.615,0.104,1.05,0.311,1.304c0.206,0.254,0.483,0.381,0.832,0.381c0.261,0,0.474-0.074,0.64-0.222
		c0.166-0.148,0.283-0.403,0.352-0.765l1.348,0.229c-0.14,0.618-0.408,1.086-0.806,1.401s-0.93,0.474-1.597,0.474
		c-0.759,0-1.363-0.239-1.813-0.718c-0.451-0.479-0.677-1.141-0.677-1.987c0-0.856,0.227-1.522,0.679-2
		c0.452-0.477,1.064-0.715,1.836-0.715c0.632,0,1.134,0.136,1.506,0.408C53.542,17.145,53.809,17.559,53.972,18.115z"/>
	<path style="fill:#2C6882;" d="M56.038,18.164l-1.245-0.225c0.14-0.501,0.381-0.872,0.723-1.113s0.85-0.361,1.523-0.361
		c0.612,0,1.067,0.072,1.367,0.217c0.3,0.146,0.51,0.329,0.633,0.553c0.121,0.223,0.183,0.632,0.183,1.228l-0.015,1.602
		c0,0.456,0.021,0.792,0.066,1.009c0.043,0.216,0.126,0.448,0.246,0.695h-1.357c-0.036-0.091-0.08-0.227-0.132-0.405
		c-0.022-0.081-0.039-0.135-0.049-0.161c-0.234,0.228-0.485,0.398-0.752,0.513s-0.552,0.171-0.854,0.171
		c-0.534,0-0.955-0.145-1.262-0.435c-0.309-0.29-0.462-0.656-0.462-1.099c0-0.293,0.07-0.555,0.21-0.783
		c0.14-0.23,0.336-0.406,0.588-0.527c0.253-0.123,0.616-0.229,1.092-0.32c0.642-0.12,1.086-0.232,1.333-0.337v-0.137
		c0-0.264-0.065-0.452-0.195-0.563c-0.13-0.113-0.376-0.169-0.737-0.169c-0.244,0-0.435,0.048-0.571,0.144
		C56.233,17.755,56.123,17.923,56.038,18.164z M57.874,19.277c-0.176,0.059-0.454,0.129-0.835,0.21s-0.63,0.161-0.747,0.239
		c-0.179,0.127-0.269,0.288-0.269,0.483c0,0.192,0.071,0.358,0.215,0.498s0.325,0.21,0.547,0.21c0.247,0,0.483-0.081,0.708-0.244
		c0.166-0.124,0.275-0.275,0.327-0.454c0.036-0.117,0.054-0.34,0.054-0.669V19.277z"/>
	<path style="fill:#2C6882;" d="M65.095,18.115l-1.353,0.244c-0.046-0.271-0.148-0.474-0.311-0.61
		c-0.16-0.137-0.37-0.205-0.627-0.205c-0.342,0-0.614,0.118-0.818,0.354c-0.203,0.235-0.305,0.63-0.305,1.184
		c0,0.615,0.104,1.05,0.311,1.304c0.206,0.254,0.483,0.381,0.832,0.381c0.261,0,0.474-0.074,0.64-0.222
		c0.166-0.148,0.283-0.403,0.352-0.765l1.348,0.229c-0.14,0.618-0.408,1.086-0.806,1.401s-0.93,0.474-1.597,0.474
		c-0.759,0-1.363-0.239-1.813-0.718c-0.451-0.479-0.677-1.141-0.677-1.987c0-0.856,0.227-1.522,0.679-2
		c0.452-0.477,1.064-0.715,1.836-0.715c0.632,0,1.134,0.136,1.506,0.408C64.665,17.145,64.932,17.559,65.095,18.115z"/>
	<path style="fill:#2C6882;" d="M66.135,15.879v-1.27h1.372v1.27H66.135z M66.135,21.768v-5.186h1.372v5.186H66.135z"/>
	<path style="fill:#2C6882;" d="M68.596,19.102c0-0.456,0.112-0.896,0.337-1.323s0.543-0.752,0.954-0.977
		c0.412-0.225,0.872-0.337,1.38-0.337c0.784,0,1.428,0.255,1.929,0.764c0.501,0.51,0.752,1.153,0.752,1.932
		c0,0.784-0.253,1.435-0.76,1.951c-0.506,0.516-1.143,0.773-1.911,0.773c-0.476,0-0.929-0.107-1.36-0.322
		c-0.431-0.215-0.759-0.529-0.983-0.945C68.709,20.203,68.596,19.697,68.596,19.102z M70.003,19.175
		c0,0.515,0.122,0.908,0.366,1.182s0.545,0.41,0.903,0.41s0.658-0.137,0.9-0.41c0.243-0.273,0.364-0.671,0.364-1.191
		c0-0.508-0.121-0.898-0.364-1.172c-0.242-0.273-0.542-0.41-0.9-0.41s-0.659,0.137-0.903,0.41S70.003,18.66,70.003,19.175z
		 M70.579,15.947l0.674-1.46h1.538l-1.343,1.46H70.579z"/>
	<path style="fill:#2C6882;" d="M79.739,21.768h-1.372v-2.646c0-0.56-0.029-0.922-0.088-1.086c-0.059-0.165-0.154-0.293-0.285-0.384
		c-0.133-0.091-0.291-0.137-0.477-0.137c-0.237,0-0.451,0.065-0.64,0.195s-0.318,0.303-0.388,0.518
		c-0.07,0.215-0.105,0.612-0.105,1.191v2.349h-1.372v-5.186h1.274v0.762c0.452-0.586,1.022-0.879,1.709-0.879
		c0.303,0,0.579,0.055,0.83,0.164c0.251,0.108,0.44,0.248,0.568,0.417c0.129,0.169,0.219,0.361,0.27,0.576
		c0.05,0.215,0.075,0.522,0.075,0.923V21.768z"/>
	<path style="fill:#2C6882;" d="M25.593,33.768h-1.274v-0.762c-0.212,0.296-0.461,0.517-0.75,0.662
		c-0.287,0.145-0.578,0.217-0.871,0.217c-0.596,0-1.105-0.24-1.531-0.721c-0.424-0.479-0.637-1.149-0.637-2.009
		c0-0.879,0.207-1.547,0.62-2.005c0.413-0.457,0.936-0.686,1.567-0.686c0.579,0,1.081,0.241,1.504,0.723v-2.578h1.372V33.768z
		 M21.931,31.063c0,0.554,0.076,0.954,0.229,1.201c0.222,0.358,0.53,0.537,0.928,0.537c0.315,0,0.584-0.135,0.806-0.402
		c0.222-0.27,0.332-0.67,0.332-1.204c0-0.596-0.107-1.024-0.322-1.286c-0.215-0.263-0.49-0.394-0.825-0.394
		c-0.325,0-0.598,0.13-0.818,0.388C22.042,30.162,21.931,30.548,21.931,31.063z"/>
	<path style="fill:#2C6882;" d="M29.949,32.117l1.367,0.229c-0.176,0.501-0.453,0.883-0.832,1.146
		c-0.38,0.262-0.854,0.393-1.424,0.393c-0.901,0-1.569-0.295-2.002-0.884c-0.342-0.472-0.513-1.067-0.513-1.787
		c0-0.859,0.225-1.532,0.674-2.019c0.449-0.487,1.018-0.73,1.704-0.73c0.771,0,1.38,0.255,1.826,0.764
		c0.446,0.51,0.659,1.29,0.64,2.342h-3.438c0.01,0.407,0.12,0.724,0.332,0.949c0.212,0.227,0.476,0.34,0.791,0.34
		c0.215,0,0.396-0.059,0.542-0.176S29.874,32.378,29.949,32.117z M30.027,30.73c-0.01-0.397-0.112-0.699-0.308-0.906
		c-0.195-0.206-0.433-0.31-0.713-0.31c-0.3,0-0.547,0.109-0.742,0.327s-0.291,0.515-0.288,0.889H30.027z"/>
	<path style="fill:#2C6882;" d="M35.247,28.582h1.279v0.762c0.166-0.261,0.391-0.472,0.674-0.635s0.598-0.244,0.942-0.244
		c0.603,0,1.113,0.236,1.533,0.708s0.63,1.13,0.63,1.973c0,0.866-0.212,1.539-0.635,2.019c-0.423,0.48-0.936,0.721-1.538,0.721
		c-0.286,0-0.546-0.057-0.779-0.171c-0.232-0.114-0.478-0.31-0.734-0.586v2.612h-1.372V28.582z M36.604,31.087
		c0,0.583,0.115,1.013,0.347,1.292c0.231,0.277,0.513,0.417,0.845,0.417c0.319,0,0.584-0.128,0.796-0.384
		c0.212-0.255,0.317-0.674,0.317-1.257c0-0.544-0.109-0.947-0.327-1.211s-0.488-0.396-0.811-0.396c-0.335,0-0.613,0.129-0.835,0.389
		C36.715,30.195,36.604,30.579,36.604,31.087z"/>
	<path style="fill:#2C6882;" d="M42.708,33.768h-1.372v-5.186h1.274v0.737c0.218-0.349,0.414-0.578,0.588-0.688
		c0.175-0.11,0.372-0.166,0.594-0.166c0.313,0,0.613,0.086,0.903,0.259L44.27,29.92c-0.231-0.149-0.446-0.225-0.645-0.225
		c-0.192,0-0.354,0.053-0.488,0.158c-0.134,0.106-0.238,0.298-0.314,0.574c-0.077,0.276-0.115,0.856-0.115,1.738V33.768z"/>
	<path style="fill:#2C6882;" d="M44.968,31.102c0-0.456,0.112-0.896,0.337-1.323s0.543-0.752,0.954-0.977
		c0.412-0.225,0.872-0.337,1.38-0.337c0.784,0,1.428,0.255,1.929,0.764c0.501,0.51,0.752,1.153,0.752,1.932
		c0,0.784-0.253,1.435-0.76,1.951c-0.506,0.516-1.143,0.773-1.911,0.773c-0.476,0-0.929-0.107-1.36-0.322
		c-0.431-0.215-0.759-0.529-0.983-0.945C45.081,32.203,44.968,31.697,44.968,31.102z M46.375,31.175
		c0,0.515,0.122,0.908,0.366,1.182s0.545,0.41,0.903,0.41s0.658-0.137,0.9-0.41c0.243-0.273,0.364-0.671,0.364-1.191
		c0-0.508-0.121-0.898-0.364-1.172c-0.242-0.273-0.542-0.41-0.9-0.41s-0.659,0.137-0.903,0.41S46.375,30.66,46.375,31.175z"/>
	<path style="fill:#2C6882;" d="M55.916,30.115l-1.353,0.244c-0.046-0.271-0.148-0.474-0.311-0.61
		c-0.16-0.137-0.37-0.205-0.627-0.205c-0.342,0-0.614,0.118-0.818,0.354c-0.203,0.235-0.305,0.63-0.305,1.184
		c0,0.615,0.104,1.05,0.311,1.304c0.206,0.254,0.483,0.381,0.832,0.381c0.261,0,0.474-0.074,0.64-0.222
		c0.166-0.148,0.283-0.403,0.352-0.765l1.348,0.229c-0.14,0.618-0.408,1.086-0.806,1.401s-0.93,0.474-1.597,0.474
		c-0.759,0-1.363-0.239-1.813-0.718c-0.451-0.479-0.677-1.141-0.677-1.987c0-0.856,0.227-1.522,0.679-2
		c0.452-0.477,1.064-0.715,1.836-0.715c0.632,0,1.134,0.136,1.506,0.408C55.485,29.145,55.753,29.559,55.916,30.115z"/>
	<path style="fill:#2C6882;" d="M59.959,32.117l1.367,0.229c-0.176,0.501-0.453,0.883-0.832,1.146
		c-0.38,0.262-0.854,0.393-1.424,0.393c-0.901,0-1.569-0.295-2.002-0.884c-0.342-0.472-0.513-1.067-0.513-1.787
		c0-0.859,0.225-1.532,0.674-2.019c0.449-0.487,1.018-0.73,1.704-0.73c0.771,0,1.38,0.255,1.826,0.764
		c0.446,0.51,0.659,1.29,0.64,2.342h-3.438c0.01,0.407,0.12,0.724,0.332,0.949c0.212,0.227,0.476,0.34,0.791,0.34
		c0.215,0,0.396-0.059,0.542-0.176S59.883,32.378,59.959,32.117z M60.037,30.73c-0.01-0.397-0.112-0.699-0.308-0.906
		c-0.195-0.206-0.433-0.31-0.713-0.31c-0.3,0-0.547,0.109-0.742,0.327s-0.291,0.515-0.288,0.889H60.037z"/>
	<path style="fill:#2C6882;" d="M62.034,32.288l1.377-0.21c0.059,0.267,0.178,0.47,0.356,0.607c0.179,0.139,0.43,0.208,0.752,0.208
		c0.354,0,0.622-0.065,0.801-0.195c0.12-0.091,0.181-0.213,0.181-0.366c0-0.104-0.032-0.19-0.098-0.259
		c-0.068-0.065-0.222-0.125-0.459-0.181c-1.106-0.244-1.809-0.467-2.104-0.669c-0.41-0.28-0.615-0.669-0.615-1.167
		c0-0.449,0.178-0.827,0.532-1.133s0.905-0.459,1.65-0.459c0.71,0,1.237,0.115,1.582,0.347s0.583,0.573,0.713,1.025l-1.294,0.239
		c-0.056-0.202-0.16-0.356-0.315-0.464c-0.154-0.107-0.375-0.161-0.661-0.161c-0.361,0-0.62,0.051-0.776,0.151
		c-0.104,0.071-0.156,0.164-0.156,0.278c0,0.098,0.046,0.181,0.137,0.249c0.124,0.091,0.551,0.22,1.281,0.386
		c0.731,0.166,1.241,0.369,1.531,0.61c0.286,0.244,0.43,0.584,0.43,1.021c0,0.476-0.198,0.884-0.596,1.226s-0.984,0.513-1.763,0.513
		c-0.706,0-1.266-0.144-1.677-0.43C62.43,33.169,62.161,32.779,62.034,32.288z"/>
	<path style="fill:#2C6882;" d="M67.761,31.102c0-0.456,0.112-0.896,0.337-1.323s0.543-0.752,0.954-0.977
		c0.412-0.225,0.872-0.337,1.38-0.337c0.784,0,1.428,0.255,1.929,0.764c0.501,0.51,0.752,1.153,0.752,1.932
		c0,0.784-0.253,1.435-0.76,1.951c-0.506,0.516-1.143,0.773-1.911,0.773c-0.476,0-0.929-0.107-1.36-0.322
		c-0.431-0.215-0.759-0.529-0.983-0.945C67.874,32.203,67.761,31.697,67.761,31.102z M69.168,31.175
		c0,0.515,0.122,0.908,0.366,1.182s0.545,0.41,0.903,0.41s0.658-0.137,0.9-0.41c0.243-0.273,0.364-0.671,0.364-1.191
		c0-0.508-0.121-0.898-0.364-1.172c-0.242-0.273-0.542-0.41-0.9-0.41s-0.659,0.137-0.903,0.41S69.168,30.66,69.168,31.175z"/>
	<path style="fill:#2C6882;" d="M73.704,32.288l1.377-0.21c0.059,0.267,0.178,0.47,0.356,0.607c0.179,0.139,0.43,0.208,0.752,0.208
		c0.354,0,0.622-0.065,0.801-0.195c0.12-0.091,0.181-0.213,0.181-0.366c0-0.104-0.032-0.19-0.098-0.259
		c-0.068-0.065-0.222-0.125-0.459-0.181c-1.106-0.244-1.809-0.467-2.104-0.669c-0.41-0.28-0.615-0.669-0.615-1.167
		c0-0.449,0.178-0.827,0.532-1.133s0.905-0.459,1.65-0.459c0.71,0,1.237,0.115,1.582,0.347s0.583,0.573,0.713,1.025l-1.294,0.239
		c-0.056-0.202-0.16-0.356-0.315-0.464c-0.154-0.107-0.375-0.161-0.661-0.161c-0.361,0-0.62,0.051-0.776,0.151
		c-0.104,0.071-0.156,0.164-0.156,0.278c0,0.098,0.046,0.181,0.137,0.249c0.124,0.091,0.551,0.22,1.281,0.386
		c0.731,0.166,1.241,0.369,1.531,0.61c0.286,0.244,0.43,0.584,0.43,1.021c0,0.476-0.198,0.884-0.596,1.226s-0.984,0.513-1.763,0.513
		c-0.706,0-1.266-0.144-1.677-0.43C74.1,33.169,73.831,32.779,73.704,32.288z"/>
</g>
</svg>
