<?xml version="1.0" encoding="utf-8"?>
<!-- Generator: Adobe Illustrator 17.0.0, SVG Export Plug-In . SVG Version: 6.00 Build 0)  -->
<!DOCTYPE svg PUBLIC "-//W3C//DTD SVG 1.1//EN" "http://www.w3.org/Graphics/SVG/1.1/DTD/svg11.dtd">
<svg version="1.1" id="Capa_1" xmlns="http://www.w3.org/2000/svg" xmlns:xlink="http://www.w3.org/1999/xlink" x="0px" y="0px"
	 width="88.86px" height="51.21px" viewBox="0 0 88.86 51.21" style="enable-background:new 0 0 88.86 51.21;" xml:space="preserve"
	>
<polygon style="fill:#6FC2D8;stroke:#000000;stroke-width:0.75;stroke-miterlimit:10;" points="0.607,0.375 75.774,0.375 
	88.442,25.605 76.212,50.835 1.043,50.835 13.274,25.673 "/>
<g>
	<path style="fill:#2C6882;" d="M22.463,19.136l1.401,0.444c-0.215,0.781-0.572,1.361-1.072,1.74
		c-0.499,0.38-1.133,0.569-1.901,0.569c-0.95,0-1.731-0.325-2.344-0.974c-0.612-0.65-0.918-1.538-0.918-2.664
		c0-1.191,0.308-2.117,0.923-2.775c0.615-0.66,1.424-0.989,2.427-0.989c0.876,0,1.587,0.259,2.134,0.776
		c0.325,0.306,0.569,0.745,0.732,1.318l-1.431,0.342c-0.085-0.371-0.261-0.664-0.53-0.879c-0.268-0.215-0.595-0.322-0.979-0.322
		c-0.53,0-0.961,0.19-1.291,0.571c-0.331,0.381-0.496,0.998-0.496,1.851c0,0.905,0.163,1.55,0.488,1.934s0.749,0.576,1.27,0.576
		c0.384,0,0.715-0.122,0.991-0.366S22.343,19.66,22.463,19.136z"/>
	<path style="fill:#2C6882;" d="M25.095,21.768v-7.158h1.372v7.158H25.095z"/>
	<path style="fill:#2C6882;" d="M28.899,18.164l-1.245-0.225c0.14-0.501,0.381-0.872,0.723-1.113s0.85-0.361,1.523-0.361
		c0.612,0,1.067,0.072,1.367,0.217c0.3,0.146,0.51,0.329,0.633,0.553c0.121,0.223,0.183,0.632,0.183,1.228l-0.015,1.602
		c0,0.456,0.021,0.792,0.066,1.009c0.043,0.216,0.126,0.448,0.246,0.695h-1.357c-0.036-0.091-0.08-0.227-0.132-0.405
		c-0.022-0.081-0.039-0.135-0.049-0.161c-0.234,0.228-0.485,0.398-0.752,0.513s-0.552,0.171-0.854,0.171
		c-0.534,0-0.955-0.145-1.262-0.435c-0.309-0.29-0.462-0.656-0.462-1.099c0-0.293,0.07-0.555,0.21-0.783
		c0.14-0.23,0.336-0.406,0.588-0.527c0.253-0.123,0.616-0.229,1.092-0.32c0.642-0.12,1.086-0.232,1.333-0.337v-0.137
		c0-0.264-0.065-0.452-0.195-0.563c-0.13-0.113-0.376-0.169-0.737-0.169c-0.244,0-0.435,0.048-0.571,0.144
		C29.094,17.755,28.984,17.923,28.899,18.164z M30.735,19.277c-0.176,0.059-0.454,0.129-0.835,0.21s-0.63,0.161-0.747,0.239
		c-0.179,0.127-0.269,0.288-0.269,0.483c0,0.192,0.071,0.358,0.215,0.498s0.325,0.21,0.547,0.21c0.247,0,0.483-0.081,0.708-0.244
		c0.166-0.124,0.275-0.275,0.327-0.454c0.036-0.117,0.054-0.34,0.054-0.669V19.277z"/>
	<path style="fill:#2C6882;" d="M32.952,20.288l1.377-0.21c0.059,0.267,0.178,0.47,0.356,0.607c0.179,0.139,0.43,0.208,0.752,0.208
		c0.354,0,0.622-0.065,0.801-0.195c0.12-0.091,0.181-0.213,0.181-0.366c0-0.104-0.032-0.19-0.098-0.259
		c-0.068-0.065-0.222-0.125-0.459-0.181c-1.106-0.244-1.809-0.467-2.104-0.669c-0.41-0.28-0.615-0.669-0.615-1.167
		c0-0.449,0.178-0.827,0.532-1.133s0.905-0.459,1.65-0.459c0.71,0,1.237,0.115,1.582,0.347s0.583,0.573,0.713,1.025l-1.294,0.239
		c-0.056-0.202-0.16-0.356-0.315-0.464c-0.154-0.107-0.375-0.161-0.661-0.161c-0.361,0-0.62,0.051-0.776,0.151
		c-0.104,0.071-0.156,0.164-0.156,0.278c0,0.098,0.046,0.181,0.137,0.249c0.124,0.091,0.551,0.22,1.281,0.386
		c0.731,0.166,1.241,0.369,1.531,0.61c0.286,0.244,0.43,0.584,0.43,1.021c0,0.476-0.198,0.884-0.596,1.226s-0.984,0.513-1.763,0.513
		c-0.706,0-1.266-0.144-1.677-0.43C33.348,21.169,33.079,20.779,32.952,20.288z"/>
	<path style="fill:#2C6882;" d="M38.997,15.879v-1.27h1.372v1.27H38.997z M38.997,21.768v-5.186h1.372v5.186H38.997z"/>
	<path style="fill:#2C6882;" d="M41.174,16.582h0.762v-0.391c0-0.437,0.047-0.762,0.139-0.977c0.094-0.215,0.264-0.39,0.514-0.525
		c0.248-0.135,0.563-0.202,0.944-0.202c0.391,0,0.773,0.059,1.147,0.176l-0.186,0.957c-0.218-0.052-0.428-0.078-0.63-0.078
		c-0.198,0-0.341,0.046-0.427,0.14c-0.087,0.092-0.13,0.271-0.13,0.534v0.366h1.025v1.079h-1.025v4.106h-1.372v-4.106h-0.762V16.582
		z"/>
	<path style="fill:#2C6882;" d="M45.105,15.879v-1.27h1.372v1.27H45.105z M45.105,21.768v-5.186h1.372v5.186H45.105z"/>
	<path style="fill:#2C6882;" d="M52.405,18.115l-1.353,0.244c-0.046-0.271-0.148-0.474-0.311-0.61
		c-0.16-0.137-0.37-0.205-0.627-0.205c-0.342,0-0.614,0.118-0.818,0.354c-0.203,0.235-0.305,0.63-0.305,1.184
		c0,0.615,0.104,1.05,0.311,1.304c0.206,0.254,0.483,0.381,0.832,0.381c0.261,0,0.474-0.074,0.64-0.222
		c0.166-0.148,0.283-0.403,0.352-0.765l1.348,0.229c-0.14,0.618-0.408,1.086-0.806,1.401s-0.93,0.474-1.597,0.474
		c-0.759,0-1.363-0.239-1.813-0.718c-0.451-0.479-0.677-1.141-0.677-1.987c0-0.856,0.227-1.522,0.679-2
		c0.452-0.477,1.064-0.715,1.836-0.715c0.632,0,1.134,0.136,1.506,0.408C51.974,17.145,52.242,17.559,52.405,18.115z"/>
	<path style="fill:#2C6882;" d="M54.47,18.164l-1.245-0.225c0.14-0.501,0.381-0.872,0.723-1.113s0.85-0.361,1.523-0.361
		c0.612,0,1.067,0.072,1.367,0.217c0.3,0.146,0.51,0.329,0.633,0.553c0.121,0.223,0.183,0.632,0.183,1.228l-0.015,1.602
		c0,0.456,0.021,0.792,0.066,1.009c0.043,0.216,0.126,0.448,0.246,0.695h-1.357c-0.036-0.091-0.08-0.227-0.132-0.405
		c-0.022-0.081-0.039-0.135-0.049-0.161c-0.234,0.228-0.485,0.398-0.752,0.513s-0.552,0.171-0.854,0.171
		c-0.534,0-0.955-0.145-1.262-0.435c-0.309-0.29-0.462-0.656-0.462-1.099c0-0.293,0.07-0.555,0.21-0.783
		c0.14-0.23,0.336-0.406,0.588-0.527c0.253-0.123,0.616-0.229,1.092-0.32c0.642-0.12,1.086-0.232,1.333-0.337v-0.137
		c0-0.264-0.065-0.452-0.195-0.563c-0.13-0.113-0.376-0.169-0.737-0.169c-0.244,0-0.435,0.048-0.571,0.144
		C54.666,17.755,54.555,17.923,54.47,18.164z M56.306,19.277c-0.176,0.059-0.454,0.129-0.835,0.21s-0.63,0.161-0.747,0.239
		c-0.179,0.127-0.269,0.288-0.269,0.483c0,0.192,0.071,0.358,0.215,0.498s0.325,0.21,0.547,0.21c0.247,0,0.483-0.081,0.708-0.244
		c0.166-0.124,0.275-0.275,0.327-0.454c0.036-0.117,0.054-0.34,0.054-0.669V19.277z"/>
	<path style="fill:#2C6882;" d="M63.528,18.115l-1.353,0.244c-0.046-0.271-0.148-0.474-0.311-0.61
		c-0.16-0.137-0.37-0.205-0.627-0.205c-0.342,0-0.614,0.118-0.818,0.354c-0.203,0.235-0.305,0.63-0.305,1.184
		c0,0.615,0.104,1.05,0.311,1.304c0.206,0.254,0.483,0.381,0.832,0.381c0.261,0,0.474-0.074,0.64-0.222
		c0.166-0.148,0.283-0.403,0.352-0.765l1.348,0.229c-0.14,0.618-0.408,1.086-0.806,1.401s-0.93,0.474-1.597,0.474
		c-0.759,0-1.363-0.239-1.813-0.718c-0.451-0.479-0.677-1.141-0.677-1.987c0-0.856,0.227-1.522,0.679-2
		c0.452-0.477,1.064-0.715,1.836-0.715c0.632,0,1.134,0.136,1.506,0.408C63.097,17.145,63.365,17.559,63.528,18.115z"/>
	<path style="fill:#2C6882;" d="M64.568,15.879v-1.27h1.372v1.27H64.568z M64.568,21.768v-5.186h1.372v5.186H64.568z"/>
	<path style="fill:#2C6882;" d="M67.029,19.102c0-0.456,0.112-0.896,0.337-1.323s0.543-0.752,0.954-0.977
		c0.412-0.225,0.872-0.337,1.38-0.337c0.784,0,1.428,0.255,1.929,0.764c0.501,0.51,0.752,1.153,0.752,1.932
		c0,0.784-0.253,1.435-0.76,1.951c-0.506,0.516-1.143,0.773-1.911,0.773c-0.476,0-0.929-0.107-1.36-0.322
		c-0.431-0.215-0.759-0.529-0.983-0.945C67.141,20.203,67.029,19.697,67.029,19.102z M68.435,19.175
		c0,0.515,0.122,0.908,0.366,1.182s0.545,0.41,0.903,0.41s0.658-0.137,0.9-0.41c0.243-0.273,0.364-0.671,0.364-1.191
		c0-0.508-0.121-0.898-0.364-1.172c-0.242-0.273-0.542-0.41-0.9-0.41s-0.659,0.137-0.903,0.41S68.435,18.66,68.435,19.175z
		 M69.011,15.947l0.674-1.46h1.538l-1.343,1.46H69.011z"/>
	<path style="fill:#2C6882;" d="M78.171,21.768h-1.372v-2.646c0-0.56-0.029-0.922-0.088-1.086c-0.059-0.165-0.154-0.293-0.285-0.384
		c-0.133-0.091-0.291-0.137-0.477-0.137c-0.237,0-0.451,0.065-0.64,0.195s-0.318,0.303-0.388,0.518
		c-0.07,0.215-0.105,0.612-0.105,1.191v2.349h-1.372v-5.186h1.274v0.762c0.452-0.586,1.022-0.879,1.709-0.879
		c0.303,0,0.579,0.055,0.83,0.164c0.251,0.108,0.44,0.248,0.568,0.417c0.129,0.169,0.219,0.361,0.27,0.576
		c0.05,0.215,0.075,0.522,0.075,0.923V21.768z"/>
	<path style="fill:#2C6882;" d="M24.019,33.768h-1.274v-0.762c-0.212,0.296-0.461,0.517-0.75,0.662
		c-0.287,0.145-0.578,0.217-0.871,0.217c-0.596,0-1.105-0.24-1.531-0.721c-0.424-0.479-0.637-1.149-0.637-2.009
		c0-0.879,0.207-1.547,0.62-2.005c0.413-0.457,0.936-0.686,1.567-0.686c0.579,0,1.081,0.241,1.504,0.723v-2.578h1.372V33.768z
		 M20.357,31.063c0,0.554,0.076,0.954,0.229,1.201c0.222,0.358,0.53,0.537,0.928,0.537c0.315,0,0.584-0.135,0.806-0.402
		c0.222-0.27,0.332-0.67,0.332-1.204c0-0.596-0.107-1.024-0.322-1.286c-0.215-0.263-0.49-0.394-0.825-0.394
		c-0.325,0-0.598,0.13-0.818,0.388C20.467,30.162,20.357,30.548,20.357,31.063z"/>
	<path style="fill:#2C6882;" d="M28.375,32.117l1.367,0.229c-0.176,0.501-0.453,0.883-0.832,1.146
		c-0.38,0.262-0.854,0.393-1.424,0.393c-0.901,0-1.569-0.295-2.002-0.884c-0.342-0.472-0.513-1.067-0.513-1.787
		c0-0.859,0.225-1.532,0.674-2.019c0.449-0.487,1.018-0.73,1.704-0.73c0.771,0,1.38,0.255,1.826,0.764
		c0.446,0.51,0.659,1.29,0.64,2.342h-3.438c0.01,0.407,0.12,0.724,0.332,0.949c0.212,0.227,0.476,0.34,0.791,0.34
		c0.215,0,0.396-0.059,0.542-0.176S28.299,32.378,28.375,32.117z M28.453,30.73c-0.01-0.397-0.112-0.699-0.308-0.906
		c-0.195-0.206-0.433-0.31-0.713-0.31c-0.3,0-0.547,0.109-0.742,0.327s-0.291,0.515-0.288,0.889H28.453z"/>
	<path style="fill:#2C6882;" d="M33.672,28.582h1.279v0.762c0.166-0.261,0.391-0.472,0.674-0.635s0.598-0.244,0.942-0.244
		c0.603,0,1.113,0.236,1.533,0.708s0.63,1.13,0.63,1.973c0,0.866-0.212,1.539-0.635,2.019c-0.423,0.48-0.936,0.721-1.538,0.721
		c-0.286,0-0.546-0.057-0.779-0.171c-0.232-0.114-0.478-0.31-0.734-0.586v2.612h-1.372V28.582z M35.03,31.087
		c0,0.583,0.115,1.013,0.347,1.292c0.231,0.277,0.513,0.417,0.845,0.417c0.319,0,0.584-0.128,0.796-0.384
		c0.212-0.255,0.317-0.674,0.317-1.257c0-0.544-0.109-0.947-0.327-1.211s-0.488-0.396-0.811-0.396c-0.335,0-0.613,0.129-0.835,0.389
		C35.14,30.195,35.03,30.579,35.03,31.087z"/>
	<path style="fill:#2C6882;" d="M41.133,33.768h-1.372v-5.186h1.274v0.737c0.218-0.349,0.414-0.578,0.588-0.688
		c0.175-0.11,0.372-0.166,0.594-0.166c0.313,0,0.613,0.086,0.903,0.259l-0.425,1.196c-0.231-0.149-0.446-0.225-0.645-0.225
		c-0.192,0-0.354,0.053-0.488,0.158c-0.134,0.106-0.238,0.298-0.314,0.574c-0.077,0.276-0.115,0.856-0.115,1.738V33.768z"/>
	<path style="fill:#2C6882;" d="M43.394,31.102c0-0.456,0.112-0.896,0.337-1.323s0.543-0.752,0.954-0.977
		c0.412-0.225,0.872-0.337,1.38-0.337c0.784,0,1.428,0.255,1.929,0.764c0.501,0.51,0.752,1.153,0.752,1.932
		c0,0.784-0.253,1.435-0.76,1.951c-0.506,0.516-1.143,0.773-1.911,0.773c-0.476,0-0.929-0.107-1.36-0.322
		c-0.431-0.215-0.759-0.529-0.983-0.945C43.506,32.203,43.394,31.697,43.394,31.102z M44.8,31.175c0,0.515,0.122,0.908,0.366,1.182
		s0.545,0.41,0.903,0.41s0.658-0.137,0.9-0.41c0.243-0.273,0.364-0.671,0.364-1.191c0-0.508-0.121-0.898-0.364-1.172
		c-0.242-0.273-0.542-0.41-0.9-0.41s-0.659,0.137-0.903,0.41S44.8,30.66,44.8,31.175z"/>
	<path style="fill:#2C6882;" d="M54.341,30.115l-1.353,0.244c-0.046-0.271-0.148-0.474-0.311-0.61
		c-0.16-0.137-0.37-0.205-0.627-0.205c-0.342,0-0.614,0.118-0.818,0.354c-0.203,0.235-0.305,0.63-0.305,1.184
		c0,0.615,0.104,1.05,0.311,1.304c0.206,0.254,0.483,0.381,0.832,0.381c0.261,0,0.474-0.074,0.64-0.222
		c0.166-0.148,0.283-0.403,0.352-0.765l1.348,0.229c-0.14,0.618-0.408,1.086-0.806,1.401s-0.93,0.474-1.597,0.474
		c-0.759,0-1.363-0.239-1.813-0.718c-0.451-0.479-0.677-1.141-0.677-1.987c0-0.856,0.227-1.522,0.679-2
		c0.452-0.477,1.064-0.715,1.836-0.715c0.632,0,1.134,0.136,1.506,0.408C53.911,29.145,54.178,29.559,54.341,30.115z"/>
	<path style="fill:#2C6882;" d="M58.384,32.117l1.367,0.229c-0.176,0.501-0.453,0.883-0.832,1.146
		c-0.38,0.262-0.854,0.393-1.424,0.393c-0.901,0-1.569-0.295-2.002-0.884c-0.342-0.472-0.513-1.067-0.513-1.787
		c0-0.859,0.225-1.532,0.674-2.019c0.449-0.487,1.018-0.73,1.704-0.73c0.771,0,1.38,0.255,1.826,0.764
		c0.446,0.51,0.659,1.29,0.64,2.342h-3.438c0.01,0.407,0.12,0.724,0.332,0.949c0.212,0.227,0.476,0.34,0.791,0.34
		c0.215,0,0.396-0.059,0.542-0.176S58.309,32.378,58.384,32.117z M58.463,30.73c-0.01-0.397-0.112-0.699-0.308-0.906
		c-0.195-0.206-0.433-0.31-0.713-0.31c-0.3,0-0.547,0.109-0.742,0.327s-0.291,0.515-0.288,0.889H58.463z"/>
	<path style="fill:#2C6882;" d="M60.46,32.288l1.377-0.21c0.059,0.267,0.178,0.47,0.356,0.607c0.179,0.139,0.43,0.208,0.752,0.208
		c0.354,0,0.622-0.065,0.801-0.195c0.12-0.091,0.181-0.213,0.181-0.366c0-0.104-0.032-0.19-0.098-0.259
		c-0.068-0.065-0.222-0.125-0.459-0.181c-1.106-0.244-1.809-0.467-2.104-0.669c-0.41-0.28-0.615-0.669-0.615-1.167
		c0-0.449,0.178-0.827,0.532-1.133s0.905-0.459,1.65-0.459c0.71,0,1.237,0.115,1.582,0.347s0.583,0.573,0.713,1.025l-1.294,0.239
		c-0.056-0.202-0.16-0.356-0.315-0.464c-0.154-0.107-0.375-0.161-0.661-0.161c-0.361,0-0.62,0.051-0.776,0.151
		c-0.104,0.071-0.156,0.164-0.156,0.278c0,0.098,0.046,0.181,0.137,0.249c0.124,0.091,0.551,0.22,1.281,0.386
		c0.731,0.166,1.241,0.369,1.531,0.61c0.286,0.244,0.43,0.584,0.43,1.021c0,0.476-0.198,0.884-0.596,1.226s-0.984,0.513-1.763,0.513
		c-0.706,0-1.266-0.144-1.677-0.43C60.856,33.169,60.587,32.779,60.46,32.288z"/>
	<path style="fill:#2C6882;" d="M66.187,31.102c0-0.456,0.112-0.896,0.337-1.323s0.543-0.752,0.954-0.977
		c0.412-0.225,0.872-0.337,1.38-0.337c0.784,0,1.428,0.255,1.929,0.764c0.501,0.51,0.752,1.153,0.752,1.932
		c0,0.784-0.253,1.435-0.76,1.951c-0.506,0.516-1.143,0.773-1.911,0.773c-0.476,0-0.929-0.107-1.36-0.322
		c-0.431-0.215-0.759-0.529-0.983-0.945C66.299,32.203,66.187,31.697,66.187,31.102z M67.593,31.175
		c0,0.515,0.122,0.908,0.366,1.182s0.545,0.41,0.903,0.41s0.658-0.137,0.9-0.41c0.243-0.273,0.364-0.671,0.364-1.191
		c0-0.508-0.121-0.898-0.364-1.172c-0.242-0.273-0.542-0.41-0.9-0.41s-0.659,0.137-0.903,0.41S67.593,30.66,67.593,31.175z"/>
	<path style="fill:#2C6882;" d="M72.13,32.288l1.377-0.21c0.059,0.267,0.178,0.47,0.356,0.607c0.179,0.139,0.43,0.208,0.752,0.208
		c0.354,0,0.622-0.065,0.801-0.195c0.12-0.091,0.181-0.213,0.181-0.366c0-0.104-0.032-0.19-0.098-0.259
		c-0.068-0.065-0.222-0.125-0.459-0.181c-1.106-0.244-1.809-0.467-2.104-0.669c-0.41-0.28-0.615-0.669-0.615-1.167
		c0-0.449,0.178-0.827,0.532-1.133s0.905-0.459,1.65-0.459c0.71,0,1.237,0.115,1.582,0.347s0.583,0.573,0.713,1.025l-1.294,0.239
		c-0.056-0.202-0.16-0.356-0.315-0.464c-0.154-0.107-0.375-0.161-0.661-0.161c-0.361,0-0.62,0.051-0.776,0.151
		c-0.104,0.071-0.156,0.164-0.156,0.278c0,0.098,0.046,0.181,0.137,0.249c0.124,0.091,0.551,0.22,1.281,0.386
		c0.731,0.166,1.241,0.369,1.531,0.61c0.286,0.244,0.43,0.584,0.43,1.021c0,0.476-0.198,0.884-0.596,1.226s-0.984,0.513-1.763,0.513
		c-0.706,0-1.266-0.144-1.677-0.43C72.526,33.169,72.256,32.779,72.13,32.288z"/>
</g>
</svg>
