<?xml version="1.0" encoding="utf-8"?>
<!-- Generator: Adobe Illustrator 17.0.0, SVG Export Plug-In . SVG Version: 6.00 Build 0)  -->
<!DOCTYPE svg PUBLIC "-//W3C//DTD SVG 1.1//EN" "http://www.w3.org/Graphics/SVG/1.1/DTD/svg11.dtd">
<svg version="1.1" id="Capa_1" xmlns="http://www.w3.org/2000/svg" xmlns:xlink="http://www.w3.org/1999/xlink" x="0px" y="0px"
	 width="430.914px" height="27.012px" viewBox="-0.5 0 430.914 27.012" enable-background="new -0.5 0 430.914 27.012"
	 xml:space="preserve">
<g>
	<g>
		<path fill="#2C6882" d="M68.119,21.006v-14.4L67.987,7.5l-4.878,13.506h-0.996L57.191,7.5l-0.117-0.894v14.399h-1.89V0h0.981
			l6.372,17.227l0.059,0.776l0.059-0.776L69.012,0h0.996v21.006H68.119z"/>
		<path fill="#2C6882" d="M83.617,21.006l-0.996-1.494c-0.41,0.537-0.923,0.969-1.538,1.296s-1.289,0.491-2.021,0.491h-0.454
			c-0.605,0-1.177-0.115-1.714-0.345s-1.006-0.544-1.406-0.944s-0.715-0.869-0.945-1.406s-0.344-1.108-0.344-1.714v-0.146
			c0-0.605,0.115-1.177,0.344-1.714s0.544-1.006,0.945-1.406s0.869-0.716,1.406-0.945s1.108-0.344,1.714-0.344h3.809V10.02
			c0-0.361-0.068-0.701-0.205-1.019s-0.322-0.593-0.557-0.827s-0.51-0.42-0.828-0.557s-0.657-0.205-1.018-0.205h-1.055
			c-0.361,0-0.701,0.068-1.018,0.205s-0.593,0.322-0.828,0.557c-0.235,0.235-0.42,0.51-0.557,0.827s-0.205,0.657-0.205,1.019v0.542
			l-1.802-0.293v-0.146c0-0.605,0.115-1.177,0.344-1.714s0.544-1.006,0.945-1.406s0.869-0.715,1.406-0.945s1.108-0.344,1.714-0.344
			h1.055c0.605,0,1.177,0.115,1.714,0.344s1.006,0.544,1.406,0.945s0.715,0.869,0.945,1.406s0.344,1.108,0.344,1.714v10.884
			L83.617,21.006L83.617,21.006z M82.415,13.74h-3.809c-0.361,0-0.701,0.068-1.018,0.205s-0.593,0.324-0.828,0.563
			s-0.42,0.518-0.557,0.835S75.998,16,75.998,16.362v0.63c0,0.361,0.068,0.7,0.205,1.018s0.322,0.594,0.557,0.828
			s0.51,0.42,0.828,0.557s0.657,0.205,1.018,0.205h1.201c0.361,0,0.701-0.068,1.018-0.205s0.593-0.322,0.828-0.557
			s0.42-0.511,0.557-0.828s0.205-0.656,0.205-1.018V13.74z"/>
		<path fill="#2C6882" d="M97.496,18.604c-0.229,0.537-0.544,1.006-0.945,1.406s-0.869,0.715-1.406,0.944s-1.108,0.345-1.714,0.345
			h-0.454c-0.674,0-1.299-0.137-1.875-0.41s-1.069-0.654-1.479-1.143v7.266h-1.802V6.006h0.601l0.981,1.523
			c0.41-0.557,0.925-0.999,1.545-1.326s1.296-0.491,2.029-0.491h0.454c0.605,0,1.177,0.115,1.714,0.344s1.006,0.544,1.406,0.945
			s0.715,0.869,0.945,1.406s0.344,1.108,0.344,1.714v6.768C97.84,17.495,97.725,18.066,97.496,18.604z M96.038,10.02
			c0-0.361-0.068-0.701-0.205-1.019s-0.322-0.593-0.557-0.827s-0.51-0.42-0.828-0.557s-0.657-0.205-1.018-0.205h-1.2
			c-0.361,0-0.701,0.068-1.018,0.205s-0.593,0.322-0.828,0.557c-0.235,0.235-0.42,0.51-0.557,0.827s-0.205,0.657-0.205,1.019v6.973
			c0,0.361,0.068,0.7,0.205,1.018s0.322,0.594,0.557,0.828s0.51,0.42,0.828,0.557S91.869,19.6,92.23,19.6h1.201
			c0.361,0,0.701-0.068,1.018-0.205s0.593-0.322,0.828-0.557s0.42-0.511,0.557-0.828s0.205-0.656,0.205-1.018L96.038,10.02
			L96.038,10.02z"/>
		<path fill="#2C6882" d="M110.863,21.006l-0.996-1.494c-0.41,0.537-0.923,0.969-1.538,1.296s-1.289,0.491-2.021,0.491h-0.454
			c-0.605,0-1.177-0.115-1.714-0.345s-1.006-0.544-1.406-0.944s-0.715-0.869-0.945-1.406s-0.344-1.108-0.344-1.714v-0.146
			c0-0.605,0.115-1.177,0.344-1.714s0.544-1.006,0.945-1.406s0.869-0.716,1.406-0.945s1.108-0.344,1.714-0.344h3.809V10.02
			c0-0.361-0.068-0.701-0.205-1.019s-0.322-0.593-0.557-0.827s-0.51-0.42-0.828-0.557s-0.657-0.205-1.018-0.205H106
			c-0.361,0-0.701,0.068-1.018,0.205s-0.593,0.322-0.828,0.557c-0.235,0.235-0.42,0.51-0.557,0.827s-0.205,0.657-0.205,1.019v0.542
			l-1.802-0.293v-0.146c0-0.605,0.115-1.177,0.344-1.714s0.544-1.006,0.945-1.406s0.869-0.715,1.406-0.945s1.108-0.344,1.714-0.344
			h1.055c0.605,0,1.177,0.115,1.714,0.344s1.006,0.544,1.406,0.945s0.715,0.869,0.945,1.406s0.344,1.108,0.344,1.714v10.884
			L110.863,21.006L110.863,21.006z M109.662,13.74h-3.809c-0.361,0-0.701,0.068-1.018,0.205s-0.593,0.324-0.828,0.563
			s-0.42,0.518-0.557,0.835s-0.205,0.657-0.205,1.019v0.63c0,0.361,0.068,0.7,0.205,1.018s0.322,0.594,0.557,0.828
			s0.51,0.42,0.828,0.557s0.657,0.205,1.018,0.205h1.201c0.361,0,0.701-0.068,1.018-0.205s0.593-0.322,0.828-0.557
			s0.42-0.511,0.557-0.828s0.205-0.656,0.205-1.018V13.74z"/>
		<path fill="#2C6882" d="M131.385,21.006l-0.996-1.523c-0.41,0.557-0.923,0.998-1.538,1.325s-1.289,0.491-2.021,0.491h-0.454
			c-0.605,0-1.177-0.115-1.714-0.345s-1.006-0.544-1.406-0.944s-0.715-0.869-0.945-1.406s-0.344-1.108-0.344-1.714v-6.768
			c0-0.605,0.115-1.177,0.344-1.714s0.544-1.006,0.945-1.406s0.869-0.715,1.406-0.945s1.108-0.344,1.714-0.344h0.454
			c0.674,0,1.299,0.137,1.875,0.41s1.069,0.654,1.479,1.143V0h1.802v21.006H131.385z M130.184,10.02
			c0-0.361-0.068-0.701-0.205-1.019s-0.322-0.593-0.557-0.827s-0.51-0.42-0.828-0.557s-0.657-0.205-1.018-0.205h-1.201
			c-0.361,0-0.701,0.068-1.018,0.205s-0.593,0.322-0.828,0.557c-0.235,0.235-0.42,0.51-0.557,0.827s-0.205,0.657-0.205,1.019v6.973
			c0,0.361,0.068,0.7,0.205,1.018s0.322,0.594,0.557,0.828s0.51,0.42,0.828,0.557s0.657,0.205,1.018,0.205h1.201
			c0.361,0,0.701-0.068,1.018-0.205s0.593-0.322,0.828-0.557s0.42-0.511,0.557-0.828s0.205-0.656,0.205-1.018V10.02z"/>
		<path fill="#2C6882" d="M145.265,18.604c-0.229,0.537-0.544,1.006-0.945,1.406s-0.869,0.715-1.406,0.944s-1.108,0.345-1.714,0.345
			h-1.201c-0.605,0-1.177-0.115-1.714-0.345s-1.006-0.544-1.406-0.944s-0.715-0.869-0.945-1.406s-0.344-1.108-0.344-1.714v-6.768
			c0-0.605,0.115-1.177,0.344-1.714s0.544-1.006,0.945-1.406s0.869-0.715,1.406-0.945s1.108-0.344,1.714-0.344h1.201
			c0.605,0,1.177,0.115,1.714,0.344s1.006,0.544,1.406,0.945s0.715,0.869,0.945,1.406s0.344,1.108,0.344,1.714v3.53h-8.218v3.34
			c0,0.361,0.068,0.7,0.205,1.018s0.322,0.594,0.557,0.828s0.51,0.42,0.828,0.557s0.657,0.205,1.018,0.205h1.201
			c0.361,0,0.701-0.068,1.018-0.205s0.593-0.322,0.828-0.557s0.42-0.511,0.557-0.828s0.205-0.656,0.205-1.018v-0.996l1.802,0.293
			v0.601C145.609,17.495,145.494,18.066,145.265,18.604z M143.807,10.02c0-0.361-0.068-0.701-0.205-1.019s-0.322-0.593-0.557-0.827
			s-0.51-0.42-0.828-0.557s-0.657-0.205-1.018-0.205h-1.201c-0.361,0-0.701,0.068-1.018,0.205s-0.593,0.322-0.828,0.557
			c-0.235,0.235-0.42,0.51-0.557,0.827s-0.205,0.657-0.205,1.019v2.227h6.416V10.02H143.807z"/>
		<path fill="#2C6882" d="M165.787,18.604c-0.229,0.537-0.544,1.006-0.945,1.406s-0.869,0.715-1.406,0.944s-1.108,0.345-1.714,0.345
			h-0.454c-0.674,0-1.299-0.137-1.875-0.41s-1.069-0.654-1.479-1.143v7.266h-1.802V6.006h0.601l0.981,1.523
			c0.41-0.557,0.925-0.999,1.545-1.326s1.296-0.491,2.029-0.491h0.454c0.605,0,1.177,0.115,1.714,0.344s1.006,0.544,1.406,0.945
			s0.715,0.869,0.945,1.406s0.344,1.108,0.344,1.714v6.768C166.131,17.495,166.017,18.066,165.787,18.604z M164.329,10.02
			c0-0.361-0.068-0.701-0.205-1.019s-0.322-0.593-0.557-0.827s-0.51-0.42-0.828-0.557s-0.657-0.205-1.018-0.205h-1.201
			c-0.361,0-0.701,0.068-1.018,0.205s-0.593,0.322-0.828,0.557c-0.235,0.235-0.42,0.51-0.557,0.827s-0.205,0.657-0.205,1.019v6.973
			c0,0.361,0.068,0.7,0.205,1.018s0.322,0.594,0.557,0.828s0.51,0.42,0.828,0.557s0.657,0.205,1.018,0.205h1.201
			c0.361,0,0.701-0.068,1.018-0.205s0.593-0.322,0.828-0.557s0.42-0.511,0.557-0.828s0.205-0.656,0.205-1.018V10.02z"/>
		<path fill="#2C6882" d="M174.144,7.72c-0.361,0-0.701,0.068-1.018,0.205c-0.317,0.137-0.593,0.322-0.828,0.557
			s-0.42,0.51-0.557,0.827s-0.205,0.657-0.205,1.019v10.679h-1.802v-15h0.601l0.981,1.523c0.41-0.557,0.925-0.999,1.545-1.326
			s1.296-0.491,2.029-0.491h1.055V7.72H174.144z"/>
		<path fill="#2C6882" d="M188.023,18.604c-0.229,0.537-0.544,1.006-0.945,1.406s-0.869,0.715-1.406,0.944s-1.108,0.345-1.714,0.345
			h-1.201c-0.605,0-1.177-0.115-1.714-0.345s-1.006-0.544-1.406-0.944s-0.715-0.869-0.945-1.406s-0.344-1.108-0.344-1.714v-6.768
			c0-0.605,0.115-1.177,0.344-1.714s0.544-1.006,0.945-1.406s0.869-0.715,1.406-0.945s1.108-0.344,1.714-0.344h1.201
			c0.605,0,1.177,0.115,1.714,0.344s1.006,0.544,1.406,0.945s0.715,0.869,0.945,1.406s0.344,1.108,0.344,1.714v6.768
			C188.368,17.495,188.253,18.066,188.023,18.604z M186.566,10.02c0-0.361-0.068-0.701-0.205-1.019s-0.322-0.593-0.557-0.827
			s-0.51-0.42-0.828-0.557s-0.657-0.205-1.018-0.205h-1.201c-0.361,0-0.701,0.068-1.018,0.205s-0.593,0.322-0.828,0.557
			c-0.235,0.235-0.42,0.51-0.557,0.827s-0.205,0.657-0.205,1.019v6.973c0,0.361,0.068,0.7,0.205,1.018s0.322,0.594,0.557,0.828
			s0.51,0.42,0.828,0.557s0.657,0.205,1.018,0.205h1.201c0.361,0,0.701-0.068,1.018-0.205s0.593-0.322,0.828-0.557
			s0.42-0.511,0.557-0.828s0.205-0.656,0.205-1.018V10.02z"/>
		<path fill="#2C6882" d="M201.646,18.604c-0.229,0.537-0.544,1.006-0.945,1.406s-0.869,0.715-1.406,0.944s-1.108,0.345-1.714,0.345
			h-1.201c-0.605,0-1.177-0.115-1.714-0.345s-1.006-0.544-1.406-0.944s-0.715-0.869-0.945-1.406s-0.344-1.108-0.344-1.714v-6.768
			c0-0.605,0.115-1.177,0.344-1.714s0.544-1.006,0.945-1.406s0.869-0.715,1.406-0.945s1.108-0.344,1.714-0.344h1.201
			c0.605,0,1.177,0.115,1.714,0.344s1.006,0.544,1.406,0.945s0.715,0.869,0.945,1.406s0.344,1.108,0.344,1.714v0.601l-1.802,0.293
			V10.02c0-0.361-0.068-0.701-0.205-1.019s-0.322-0.593-0.557-0.827s-0.51-0.42-0.828-0.557s-0.657-0.205-1.018-0.205h-1.201
			c-0.361,0-0.701,0.068-1.018,0.205s-0.593,0.322-0.828,0.557c-0.235,0.235-0.42,0.51-0.557,0.827s-0.205,0.657-0.205,1.019v6.973
			c0,0.361,0.068,0.7,0.205,1.018s0.322,0.594,0.557,0.828s0.51,0.42,0.828,0.557s0.657,0.205,1.018,0.205h1.201
			c0.361,0,0.701-0.068,1.018-0.205s0.593-0.322,0.828-0.557s0.42-0.511,0.557-0.828s0.205-0.656,0.205-1.018v-0.996l1.802,0.293
			v0.601C201.991,17.495,201.876,18.066,201.646,18.604z"/>
		<path fill="#2C6882" d="M215.269,18.604c-0.229,0.537-0.544,1.006-0.944,1.406s-0.869,0.715-1.406,0.944s-1.108,0.345-1.714,0.345
			h-1.201c-0.606,0-1.177-0.115-1.714-0.345s-1.006-0.544-1.406-0.944s-0.715-0.869-0.945-1.406s-0.344-1.108-0.344-1.714v-6.768
			c0-0.605,0.115-1.177,0.344-1.714s0.544-1.006,0.945-1.406s0.869-0.715,1.406-0.945s1.108-0.344,1.714-0.344h1.201
			c0.605,0,1.177,0.115,1.714,0.344s1.006,0.544,1.406,0.945s0.715,0.869,0.944,1.406s0.345,1.108,0.345,1.714v3.53h-8.218v3.34
			c0,0.361,0.068,0.7,0.205,1.018s0.322,0.594,0.557,0.828s0.51,0.42,0.828,0.557s0.657,0.205,1.019,0.205h1.201
			c0.361,0,0.7-0.068,1.018-0.205s0.594-0.322,0.828-0.557s0.42-0.511,0.557-0.828s0.205-0.656,0.205-1.018v-0.996l1.802,0.293
			v0.601C215.614,17.495,215.499,18.066,215.269,18.604z M213.812,10.02c0-0.361-0.068-0.701-0.205-1.019s-0.322-0.593-0.557-0.827
			s-0.511-0.42-0.828-0.557s-0.656-0.205-1.018-0.205h-1.201c-0.362,0-0.701,0.068-1.019,0.205s-0.593,0.322-0.828,0.557
			c-0.235,0.235-0.42,0.51-0.557,0.827s-0.205,0.657-0.205,1.019v2.227h6.417V10.02H213.812z"/>
		<path fill="#2C6882" d="M229.53,17.197c0,0.605-0.122,1.159-0.366,1.662s-0.576,0.936-0.996,1.297s-0.906,0.642-1.458,0.842
			s-1.13,0.301-1.735,0.301h-1.201c-0.605,0-1.185-0.115-1.736-0.345s-1.035-0.544-1.45-0.944s-0.747-0.869-0.996-1.406
			s-0.373-1.108-0.373-1.714v-0.601l1.802-0.293v0.996c0,0.361,0.075,0.7,0.227,1.018s0.354,0.594,0.608,0.828
			s0.547,0.42,0.879,0.557s0.679,0.205,1.04,0.205h1.201c0.361,0,0.708-0.054,1.04-0.161s0.627-0.262,0.886-0.462
			s0.464-0.441,0.615-0.725s0.228-0.605,0.228-0.967c0-0.537-0.117-0.977-0.352-1.318s-0.545-0.628-0.931-0.857
			s-0.825-0.42-1.318-0.571s-0.998-0.303-1.516-0.454s-1.023-0.324-1.517-0.52s-0.933-0.452-1.318-0.77s-0.695-0.715-0.93-1.193
			s-0.352-1.074-0.352-1.787c0-0.605,0.117-1.16,0.352-1.663c0.234-0.503,0.552-0.935,0.952-1.296s0.866-0.642,1.398-0.842
			s1.102-0.3,1.707-0.3h1.055c0.605,0,1.177,0.115,1.714,0.344s1.006,0.544,1.406,0.945s0.715,0.869,0.944,1.406
			s0.345,1.108,0.345,1.714v0.059l-1.802,0.293V10.02c0-0.361-0.068-0.701-0.205-1.019s-0.322-0.593-0.557-0.827
			s-0.511-0.42-0.828-0.557s-0.656-0.205-1.018-0.205h-1.055c-0.361,0-0.701,0.054-1.019,0.161s-0.593,0.261-0.827,0.461
			s-0.42,0.442-0.557,0.725s-0.205,0.605-0.205,0.967c0,0.518,0.117,0.939,0.352,1.267s0.544,0.604,0.93,0.828
			s0.825,0.412,1.318,0.563s0.996,0.308,1.509,0.469s1.016,0.345,1.509,0.55s0.933,0.469,1.318,0.791s0.696,0.725,0.931,1.208
			S229.53,16.484,229.53,17.197z"/>
		<path fill="#2C6882" d="M242.662,18.604c-0.229,0.537-0.544,1.006-0.944,1.406s-0.869,0.715-1.406,0.944s-1.108,0.345-1.714,0.345
			h-1.201c-0.605,0-1.177-0.115-1.714-0.345s-1.006-0.544-1.406-0.944s-0.716-0.869-0.945-1.406s-0.344-1.108-0.344-1.714v-6.768
			c0-0.605,0.114-1.177,0.344-1.714s0.545-1.006,0.945-1.406s0.869-0.715,1.406-0.945s1.108-0.344,1.714-0.344h1.201
			c0.605,0,1.177,0.115,1.714,0.344s1.006,0.544,1.406,0.945s0.715,0.869,0.944,1.406s0.345,1.108,0.345,1.714v6.768
			C243.007,17.495,242.892,18.066,242.662,18.604z M241.205,10.02c0-0.361-0.068-0.701-0.205-1.019s-0.322-0.593-0.557-0.827
			s-0.511-0.42-0.828-0.557s-0.656-0.205-1.018-0.205h-1.201c-0.361,0-0.701,0.068-1.019,0.205s-0.593,0.322-0.827,0.557
			c-0.234,0.235-0.42,0.51-0.557,0.827s-0.205,0.657-0.205,1.019v6.973c0,0.361,0.068,0.7,0.205,1.018s0.322,0.594,0.557,0.828
			s0.51,0.42,0.827,0.557s0.657,0.205,1.019,0.205h1.201c0.361,0,0.7-0.068,1.018-0.205s0.594-0.322,0.828-0.557
			s0.42-0.511,0.557-0.828s0.205-0.656,0.205-1.018V10.02z"/>
		<path fill="#2C6882" d="M256.923,17.197c0,0.605-0.122,1.159-0.366,1.662s-0.576,0.936-0.996,1.297s-0.906,0.642-1.458,0.842
			s-1.13,0.301-1.735,0.301h-1.201c-0.605,0-1.185-0.115-1.736-0.345s-1.035-0.544-1.45-0.944s-0.747-0.869-0.996-1.406
			s-0.373-1.108-0.373-1.714v-0.601l1.802-0.293v0.996c0,0.361,0.075,0.7,0.227,1.018s0.354,0.594,0.608,0.828
			s0.547,0.42,0.879,0.557s0.679,0.205,1.04,0.205h1.201c0.361,0,0.708-0.054,1.04-0.161s0.627-0.262,0.886-0.462
			s0.464-0.441,0.615-0.725s0.228-0.605,0.228-0.967c0-0.537-0.117-0.977-0.352-1.318s-0.545-0.628-0.931-0.857
			s-0.825-0.42-1.318-0.571s-0.998-0.303-1.516-0.454s-1.023-0.324-1.517-0.52s-0.933-0.452-1.318-0.77s-0.695-0.715-0.93-1.193
			s-0.352-1.074-0.352-1.787c0-0.605,0.117-1.16,0.352-1.663c0.234-0.503,0.552-0.935,0.952-1.296s0.866-0.642,1.398-0.842
			s1.102-0.3,1.707-0.3h1.055c0.605,0,1.177,0.115,1.714,0.344s1.006,0.544,1.406,0.945s0.715,0.869,0.944,1.406
			s0.345,1.108,0.345,1.714v0.059l-1.802,0.293V10.02c0-0.361-0.068-0.701-0.205-1.019s-0.322-0.593-0.557-0.827
			s-0.511-0.42-0.828-0.557s-0.656-0.205-1.018-0.205h-1.055c-0.361,0-0.701,0.054-1.019,0.161s-0.593,0.261-0.827,0.461
			s-0.42,0.442-0.557,0.725s-0.205,0.605-0.205,0.967c0,0.518,0.117,0.939,0.352,1.267s0.544,0.604,0.93,0.828
			s0.825,0.412,1.318,0.563s0.996,0.308,1.509,0.469s1.016,0.345,1.509,0.55s0.933,0.469,1.318,0.791
			c0.385,0.322,0.696,0.725,0.931,1.208S256.923,16.484,256.923,17.197z"/>
	</g>
	<circle fill="none" stroke="#2C6882" stroke-miterlimit="10" cx="3.914" cy="14.912" r="3.914"/>
	<circle fill="none" stroke="#2C6882" stroke-miterlimit="10" cx="426" cy="14.912" r="3.914"/>
	<line fill="none" stroke="#2C6882" stroke-miterlimit="10" x1="262.002" y1="14.912" x2="421.626" y2="14.912"/>
	<line fill="none" stroke="#2C6882" stroke-miterlimit="10" x1="7.42" y1="14.912" x2="48.001" y2="14.912"/>
</g>
</svg>
