<?xml version="1.0" encoding="utf-8"?>
<!-- Generator: Adobe Illustrator 17.0.0, SVG Export Plug-In . SVG Version: 6.00 Build 0)  -->
<!DOCTYPE svg PUBLIC "-//W3C//DTD SVG 1.1//EN" "http://www.w3.org/Graphics/SVG/1.1/DTD/svg11.dtd">
<svg version="1.1" id="Capa_1" xmlns="http://www.w3.org/2000/svg" xmlns:xlink="http://www.w3.org/1999/xlink" x="0px" y="0px"
	 width="247.638px" height="58.139px" viewBox="0 0 247.638 58.139" style="enable-background:new 0 0 247.638 58.139;"
	 xml:space="preserve">
<polygon style="fill-rule:evenodd;clip-rule:evenodd;fill:#A8A8A8;" points="233.61,58.139 247.638,40.354 237.212,20.186 
	233.61,20.188 "/>
<g style="opacity:0.5;">
	<g>
		<defs>
			<rect id="SVGID_1_" x="0" y="40.824" width="233.61" height="7.17"/>
		</defs>
		<clipPath id="SVGID_2_">
			<use xlink:href="#SVGID_1_"  style="overflow:visible;"/>
		</clipPath>
		<polygon style="clip-path:url(#SVGID_2_);fill:#2C6882;" points="233.61,47.994 0,40.824 233.61,40.824 		"/>
	</g>
</g>
<rect x="0" y="0" style="fill-rule:evenodd;clip-rule:evenodd;fill:#FFFFFF;" width="247.638" height="40.354"/>
<rect x="2.071" y="1.739" style="fill-rule:evenodd;clip-rule:evenodd;fill:#2C6882;" width="243.495" height="36.875"/>
<g>
	<g>
		<path style="fill:#FFFFFF;" d="M49.308,25.559V14.854h-3.824v-2.18h10.24v2.18H51.91v10.705H49.308z"/>
		<path style="fill:#FFFFFF;" d="M56.052,25.559v-2.47h2.471v2.47H56.052z"/>
		<path style="fill:#FFFFFF;" d="M71.652,20.821l2.523,0.8c-0.387,1.406-1.03,2.451-1.93,3.133
			c-0.899,0.684-2.041,1.024-3.424,1.024c-1.711,0-3.117-0.585-4.219-1.753c-1.102-1.17-1.652-2.768-1.652-4.795
			c0-2.145,0.555-3.811,1.662-4.996c1.107-1.188,2.563-1.78,4.367-1.78c1.576,0,2.857,0.466,3.842,1.397
			c0.586,0.551,1.025,1.342,1.318,2.373l-2.576,0.615c-0.152-0.668-0.47-1.195-0.953-1.582s-1.07-0.58-1.762-0.58
			c-0.955,0-1.73,0.343-2.325,1.028c-0.595,0.686-0.892,1.796-0.892,3.331c0,1.629,0.293,2.789,0.879,3.48s1.348,1.037,2.285,1.037
			c0.691,0,1.285-0.22,1.783-0.659S71.435,21.765,71.652,20.821z"/>
		<path style="fill:#FFFFFF;" d="M76.904,19.072l-2.242-0.404c0.252-0.902,0.686-1.57,1.301-2.004s1.529-0.65,2.742-0.65
			c1.102,0,1.922,0.131,2.461,0.391c0.539,0.262,0.919,0.592,1.139,0.994c0.22,0.4,0.33,1.138,0.33,2.21l-0.027,2.883
			c0,0.82,0.04,1.425,0.119,1.815c0.079,0.389,0.227,0.807,0.443,1.252h-2.443c-0.064-0.164-0.143-0.407-0.236-0.729
			c-0.041-0.146-0.07-0.243-0.088-0.29c-0.422,0.41-0.873,0.718-1.354,0.923s-0.994,0.308-1.539,0.308
			c-0.961,0-1.718-0.261-2.271-0.782s-0.83-1.181-0.83-1.978c0-0.527,0.125-0.998,0.377-1.41c0.252-0.414,0.605-0.73,1.06-0.949
			c0.454-0.221,1.108-0.412,1.964-0.576c1.154-0.217,1.955-0.419,2.4-0.606v-0.246c0-0.475-0.117-0.813-0.352-1.015
			c-0.234-0.203-0.678-0.304-1.328-0.304c-0.439,0-0.781,0.087-1.027,0.259C77.255,18.336,77.056,18.639,76.904,19.072z
			 M80.209,21.076c-0.316,0.105-0.818,0.231-1.504,0.378s-1.133,0.29-1.344,0.431c-0.322,0.229-0.484,0.519-0.484,0.87
			c0,0.346,0.129,0.645,0.387,0.896s0.586,0.378,0.984,0.378c0.445,0,0.871-0.146,1.275-0.439c0.299-0.223,0.494-0.495,0.588-0.817
			c0.064-0.211,0.098-0.612,0.098-1.204V21.076z"/>
		<path style="fill:#FFFFFF;" d="M86.101,25.559H83.63v-9.334h2.295v1.327c0.393-0.627,0.745-1.04,1.059-1.239
			s0.67-0.299,1.068-0.299c0.563,0,1.104,0.155,1.625,0.466l-0.764,2.153c-0.416-0.27-0.803-0.404-1.16-0.404
			c-0.346,0-0.639,0.096-0.879,0.285c-0.24,0.191-0.43,0.535-0.567,1.033s-0.206,1.541-0.206,3.129V25.559z"/>
		<path style="fill:#FFFFFF;" d="M91.255,19.072l-2.242-0.404c0.252-0.902,0.686-1.57,1.301-2.004s1.529-0.65,2.742-0.65
			c1.102,0,1.922,0.131,2.461,0.391c0.539,0.262,0.919,0.592,1.139,0.994c0.22,0.4,0.33,1.138,0.33,2.21l-0.027,2.883
			c0,0.82,0.04,1.425,0.119,1.815c0.079,0.389,0.227,0.807,0.443,1.252h-2.443c-0.064-0.164-0.143-0.407-0.236-0.729
			c-0.041-0.146-0.07-0.243-0.088-0.29c-0.422,0.41-0.873,0.718-1.354,0.923s-0.994,0.308-1.539,0.308
			c-0.961,0-1.718-0.261-2.271-0.782s-0.83-1.181-0.83-1.978c0-0.527,0.125-0.998,0.377-1.41c0.252-0.414,0.605-0.73,1.06-0.949
			c0.454-0.221,1.108-0.412,1.964-0.576c1.154-0.217,1.955-0.419,2.4-0.606v-0.246c0-0.475-0.117-0.813-0.352-1.015
			c-0.234-0.203-0.678-0.304-1.328-0.304c-0.439,0-0.781,0.087-1.027,0.259C91.607,18.336,91.408,18.639,91.255,19.072z
			 M94.56,21.076c-0.316,0.105-0.818,0.231-1.504,0.378s-1.133,0.29-1.344,0.431c-0.322,0.229-0.484,0.519-0.484,0.87
			c0,0.346,0.129,0.645,0.387,0.896s0.586,0.378,0.984,0.378c0.445,0,0.871-0.146,1.275-0.439c0.299-0.223,0.494-0.495,0.588-0.817
			c0.064-0.211,0.098-0.612,0.098-1.204V21.076z"/>
		<path style="fill:#FFFFFF;" d="M106.226,18.984l-2.434,0.439c-0.082-0.486-0.269-0.853-0.559-1.099s-0.666-0.369-1.129-0.369
			c-0.615,0-1.106,0.212-1.473,0.638c-0.366,0.424-0.549,1.135-0.549,2.131c0,1.107,0.186,1.89,0.558,2.347s0.872,0.686,1.499,0.686
			c0.469,0,0.852-0.134,1.15-0.399c0.299-0.268,0.51-0.726,0.633-1.376l2.426,0.413c-0.252,1.113-0.734,1.954-1.449,2.522
			s-1.674,0.853-2.875,0.853c-1.365,0-2.453-0.431-3.265-1.292s-1.218-2.054-1.218-3.577c0-1.541,0.408-2.74,1.223-3.6
			c0.814-0.857,1.916-1.287,3.305-1.287c1.137,0,2.04,0.244,2.711,0.734C105.452,17.236,105.933,17.982,106.226,18.984z"/>
		<path style="fill:#FFFFFF;" d="M111.047,16.225v1.969h-1.688v3.762c0,0.762,0.017,1.205,0.048,1.332
			c0.033,0.125,0.105,0.229,0.221,0.312c0.113,0.082,0.253,0.123,0.417,0.123c0.229,0,0.56-0.079,0.993-0.237l0.211,1.916
			c-0.574,0.246-1.225,0.369-1.951,0.369c-0.445,0-0.847-0.074-1.204-0.225c-0.357-0.148-0.62-0.342-0.786-0.58
			c-0.168-0.236-0.283-0.558-0.348-0.962c-0.053-0.287-0.079-0.867-0.079-1.74v-4.069h-1.134v-1.969h1.134V14.37l2.479-1.441v3.296
			H111.047z"/>
		<path style="fill:#FFFFFF;" d="M116.834,22.588l2.461,0.413c-0.316,0.902-0.815,1.589-1.499,2.062
			c-0.682,0.471-1.536,0.707-2.562,0.707c-1.623,0-2.824-0.53-3.604-1.591c-0.615-0.85-0.923-1.922-0.923-3.217
			c0-1.547,0.404-2.759,1.213-3.634c0.809-0.877,1.831-1.314,3.067-1.314c1.389,0,2.484,0.459,3.287,1.375
			c0.803,0.918,1.187,2.322,1.151,4.215h-6.188c0.018,0.732,0.217,1.303,0.598,1.709c0.381,0.408,0.855,0.611,1.424,0.611
			c0.387,0,0.712-0.105,0.976-0.316S116.7,23.057,116.834,22.588z M116.975,20.092c-0.018-0.715-0.202-1.258-0.554-1.631
			c-0.352-0.371-0.779-0.558-1.283-0.558c-0.539,0-0.984,0.196-1.336,0.589s-0.524,0.926-0.519,1.6H116.975z"/>
		<path style="fill:#FFFFFF;" d="M122.472,25.559h-2.47v-9.334h2.294v1.327c0.393-0.627,0.746-1.04,1.059-1.239
			c0.314-0.199,0.67-0.299,1.068-0.299c0.563,0,1.104,0.155,1.626,0.466l-0.765,2.153c-0.416-0.27-0.803-0.404-1.16-0.404
			c-0.346,0-0.639,0.096-0.879,0.285c-0.24,0.191-0.43,0.535-0.566,1.033c-0.139,0.498-0.207,1.541-0.207,3.129V25.559z"/>
		<path style="fill:#FFFFFF;" d="M125.781,14.959v-2.285h2.47v2.285H125.781z M125.781,25.559v-9.334h2.47v9.334H125.781z"/>
		<path style="fill:#FFFFFF;" d="M128.457,25.559v-1.925l3.498-4.017c0.574-0.656,0.999-1.122,1.274-1.397
			c-0.287,0.018-0.665,0.029-1.134,0.035l-3.296,0.018v-2.048h7.717v1.749l-3.568,4.113l-1.257,1.362
			c0.686-0.041,1.11-0.062,1.274-0.062h3.823v2.171H128.457z"/>
		<path style="fill:#FFFFFF;" d="M138.963,19.072l-2.241-0.404c0.252-0.902,0.686-1.57,1.301-2.004s1.529-0.65,2.742-0.65
			c1.102,0,1.922,0.131,2.461,0.391c0.539,0.262,0.918,0.592,1.139,0.994c0.219,0.4,0.329,1.138,0.329,2.21l-0.026,2.883
			c0,0.82,0.039,1.425,0.119,1.815c0.078,0.389,0.227,0.807,0.443,1.252h-2.443c-0.064-0.164-0.144-0.407-0.237-0.729
			c-0.041-0.146-0.07-0.243-0.088-0.29c-0.422,0.41-0.873,0.718-1.354,0.923s-0.993,0.308-1.538,0.308
			c-0.961,0-1.719-0.261-2.271-0.782c-0.555-0.521-0.831-1.181-0.831-1.978c0-0.527,0.126-0.998,0.378-1.41
			c0.252-0.414,0.605-0.73,1.059-0.949c0.455-0.221,1.109-0.412,1.965-0.576c1.154-0.217,1.954-0.419,2.399-0.606v-0.246
			c0-0.475-0.117-0.813-0.352-1.015c-0.234-0.203-0.677-0.304-1.327-0.304c-0.439,0-0.782,0.087-1.028,0.259
			C139.315,18.336,139.116,18.639,138.963,19.072z M142.268,21.076c-0.316,0.105-0.817,0.231-1.503,0.378s-1.134,0.29-1.345,0.431
			c-0.322,0.229-0.483,0.519-0.483,0.87c0,0.346,0.129,0.645,0.387,0.896s0.586,0.378,0.984,0.378c0.445,0,0.87-0.146,1.274-0.439
			c0.299-0.223,0.495-0.495,0.589-0.817c0.064-0.211,0.097-0.612,0.097-1.204V21.076z"/>
		<path style="fill:#FFFFFF;" d="M148.161,25.559h-2.47v-9.334h2.294v1.327c0.393-0.627,0.745-1.04,1.06-1.239
			c0.313-0.199,0.669-0.299,1.067-0.299c0.563,0,1.104,0.155,1.626,0.466l-0.765,2.153c-0.416-0.27-0.803-0.404-1.16-0.404
			c-0.346,0-0.639,0.096-0.879,0.285c-0.24,0.191-0.429,0.535-0.567,1.033c-0.137,0.498-0.206,1.541-0.206,3.129V25.559z"/>
		<path style="fill:#FFFFFF;" d="M155.068,16.225h2.303v1.371c0.299-0.469,0.703-0.85,1.213-1.143s1.075-0.439,1.696-0.439
			c1.084,0,2.004,0.425,2.76,1.274s1.134,2.033,1.134,3.551c0,1.559-0.381,2.771-1.143,3.634c-0.762,0.865-1.685,1.297-2.769,1.297
			c-0.516,0-0.983-0.103-1.401-0.308c-0.42-0.205-0.86-0.557-1.323-1.055v4.702h-2.47V16.225z M157.511,20.733
			c0,1.049,0.208,1.823,0.624,2.325c0.416,0.5,0.923,0.751,1.521,0.751c0.574,0,1.052-0.229,1.433-0.69
			c0.381-0.459,0.571-1.214,0.571-2.263c0-0.979-0.196-1.705-0.589-2.18s-0.879-0.712-1.459-0.712c-0.604,0-1.104,0.232-1.503,0.699
			C157.71,19.129,157.511,19.819,157.511,20.733z"/>
		<path style="fill:#FFFFFF;" d="M167.166,25.559h-2.47v-9.334h2.294v1.327c0.393-0.627,0.746-1.04,1.059-1.239
			c0.314-0.199,0.67-0.299,1.068-0.299c0.563,0,1.104,0.155,1.626,0.466l-0.765,2.153c-0.416-0.27-0.803-0.404-1.16-0.404
			c-0.346,0-0.639,0.096-0.879,0.285c-0.24,0.191-0.43,0.535-0.566,1.033c-0.139,0.498-0.207,1.541-0.207,3.129V25.559z"/>
		<path style="fill:#FFFFFF;" d="M169.903,20.76c0-0.82,0.202-1.614,0.606-2.382s0.977-1.354,1.719-1.758
			c0.74-0.404,1.568-0.606,2.482-0.606c1.412,0,2.569,0.459,3.472,1.375c0.902,0.918,1.354,2.076,1.354,3.477
			c0,1.412-0.456,2.582-1.366,3.512c-0.912,0.928-2.059,1.393-3.441,1.393c-0.855,0-1.672-0.193-2.447-0.58
			c-0.777-0.387-1.367-0.953-1.771-1.701C170.105,22.742,169.903,21.832,169.903,20.76z M172.434,20.892
			c0,0.926,0.22,1.635,0.659,2.127s0.981,0.738,1.626,0.738s1.185-0.246,1.622-0.738c0.436-0.492,0.654-1.207,0.654-2.145
			c0-0.914-0.219-1.617-0.654-2.109c-0.438-0.492-0.978-0.738-1.622-0.738s-1.187,0.246-1.626,0.738S172.434,19.966,172.434,20.892z
			"/>
		<path style="fill:#FFFFFF;" d="M188.276,18.984l-2.435,0.439c-0.082-0.486-0.268-0.853-0.559-1.099
			c-0.289-0.246-0.666-0.369-1.129-0.369c-0.615,0-1.105,0.212-1.473,0.638c-0.365,0.424-0.549,1.135-0.549,2.131
			c0,1.107,0.186,1.89,0.559,2.347c0.371,0.457,0.871,0.686,1.498,0.686c0.469,0,0.853-0.134,1.151-0.399
			c0.299-0.268,0.51-0.726,0.633-1.376l2.426,0.413c-0.252,1.113-0.735,1.954-1.45,2.522s-1.673,0.853-2.874,0.853
			c-1.365,0-2.454-0.431-3.265-1.292c-0.813-0.861-1.218-2.054-1.218-3.577c0-1.541,0.407-2.74,1.222-3.6
			c0.814-0.857,1.916-1.287,3.305-1.287c1.137,0,2.041,0.244,2.711,0.734C187.501,17.236,187.983,17.982,188.276,18.984z"/>
		<path style="fill:#FFFFFF;" d="M194.221,22.588l2.461,0.413c-0.316,0.902-0.815,1.589-1.499,2.062
			c-0.682,0.471-1.536,0.707-2.562,0.707c-1.623,0-2.824-0.53-3.604-1.591c-0.615-0.85-0.923-1.922-0.923-3.217
			c0-1.547,0.404-2.759,1.213-3.634c0.809-0.877,1.831-1.314,3.067-1.314c1.389,0,2.484,0.459,3.287,1.375
			c0.803,0.918,1.187,2.322,1.151,4.215h-6.188c0.018,0.732,0.217,1.303,0.598,1.709c0.381,0.408,0.855,0.611,1.424,0.611
			c0.387,0,0.712-0.105,0.976-0.316S194.086,23.057,194.221,22.588z M194.362,20.092c-0.018-0.715-0.202-1.258-0.554-1.631
			c-0.352-0.371-0.779-0.558-1.283-0.558c-0.539,0-0.984,0.196-1.336,0.589s-0.524,0.926-0.519,1.6H194.362z"/>
		<path style="fill:#FFFFFF;" d="M196.625,22.896l2.479-0.378c0.105,0.48,0.319,0.846,0.642,1.094
			c0.322,0.25,0.773,0.374,1.354,0.374c0.639,0,1.119-0.117,1.441-0.352c0.217-0.164,0.325-0.384,0.325-0.659
			c0-0.188-0.059-0.343-0.176-0.466c-0.123-0.117-0.398-0.226-0.826-0.325c-1.992-0.439-3.255-0.841-3.788-1.204
			c-0.738-0.504-1.107-1.204-1.107-2.101c0-0.809,0.319-1.488,0.958-2.039s1.629-0.826,2.971-0.826c1.277,0,2.227,0.208,2.848,0.624
			s1.049,1.031,1.283,1.846l-2.329,0.431c-0.1-0.363-0.288-0.642-0.567-0.835c-0.277-0.193-0.675-0.29-1.19-0.29
			c-0.65,0-1.116,0.091-1.397,0.272c-0.188,0.129-0.281,0.296-0.281,0.501c0,0.176,0.082,0.325,0.246,0.448
			c0.223,0.164,0.992,0.396,2.307,0.694c1.316,0.299,2.234,0.665,2.756,1.099c0.516,0.439,0.773,1.052,0.773,1.837
			c0,0.855-0.357,1.591-1.072,2.206s-1.772,0.923-3.173,0.923c-1.271,0-2.278-0.258-3.019-0.773
			C197.337,24.481,196.853,23.78,196.625,22.896z"/>
		<path style="fill:#FFFFFF;" d="M205.602,20.76c0-0.82,0.202-1.614,0.606-2.382s0.977-1.354,1.719-1.758
			c0.74-0.404,1.568-0.606,2.482-0.606c1.412,0,2.569,0.459,3.472,1.375c0.902,0.918,1.354,2.076,1.354,3.477
			c0,1.412-0.456,2.582-1.366,3.512c-0.912,0.928-2.059,1.393-3.441,1.393c-0.855,0-1.672-0.193-2.447-0.58
			c-0.777-0.387-1.367-0.953-1.771-1.701C205.804,22.742,205.602,21.832,205.602,20.76z M208.133,20.892
			c0,0.926,0.22,1.635,0.659,2.127s0.981,0.738,1.626,0.738s1.185-0.246,1.622-0.738c0.436-0.492,0.654-1.207,0.654-2.145
			c0-0.914-0.219-1.617-0.654-2.109c-0.438-0.492-0.978-0.738-1.622-0.738s-1.187,0.246-1.626,0.738S208.133,19.966,208.133,20.892z
			"/>
		<path style="fill:#FFFFFF;" d="M214.966,22.896l2.479-0.378c0.105,0.48,0.319,0.846,0.642,1.094
			c0.322,0.25,0.773,0.374,1.354,0.374c0.639,0,1.119-0.117,1.441-0.352c0.217-0.164,0.325-0.384,0.325-0.659
			c0-0.188-0.059-0.343-0.176-0.466c-0.123-0.117-0.398-0.226-0.826-0.325c-1.992-0.439-3.255-0.841-3.788-1.204
			c-0.738-0.504-1.107-1.204-1.107-2.101c0-0.809,0.319-1.488,0.958-2.039s1.629-0.826,2.971-0.826c1.277,0,2.227,0.208,2.848,0.624
			s1.049,1.031,1.283,1.846l-2.329,0.431c-0.1-0.363-0.288-0.642-0.567-0.835c-0.277-0.193-0.675-0.29-1.19-0.29
			c-0.65,0-1.116,0.091-1.397,0.272c-0.188,0.129-0.281,0.296-0.281,0.501c0,0.176,0.082,0.325,0.246,0.448
			c0.223,0.164,0.992,0.396,2.307,0.694c1.316,0.299,2.234,0.665,2.756,1.099c0.516,0.439,0.773,1.052,0.773,1.837
			c0,0.855-0.357,1.591-1.072,2.206s-1.772,0.923-3.173,0.923c-1.271,0-2.278-0.258-3.019-0.773
			C215.679,24.481,215.195,23.78,214.966,22.896z"/>
	</g>
</g>
<path style="fill:#FFFFFF;stroke:#000000;stroke-width:0.5;stroke-miterlimit:10;" d="M33.815,7.511H17.029
	c-0.646,0-1.203,0.388-1.455,0.941c-0.092,0.2-0.144,0.424-0.144,0.656v20.784c0,0.878,0.719,1.598,1.6,1.598h16.786
	c0.234,0,0.455-0.052,0.657-0.144c0.553-0.252,0.942-0.81,0.942-1.454V9.108C35.415,8.231,34.695,7.511,33.815,7.511z
	 M31.922,28.293h-13c-0.441,0-0.799-0.357-0.799-0.799c0-0.442,0.357-0.801,0.799-0.801h13c0.442,0,0.801,0.358,0.801,0.801
	C32.723,27.936,32.364,28.293,31.922,28.293z M31.922,24.297h-13c-0.441,0-0.799-0.357-0.799-0.8c0-0.441,0.357-0.798,0.799-0.798
	h13c0.442,0,0.801,0.356,0.801,0.798C32.723,23.94,32.364,24.297,31.922,24.297z M31.922,20.3h-13c-0.441,0-0.799-0.357-0.799-0.8
	c0-0.441,0.357-0.799,0.799-0.799h13c0.442,0,0.801,0.357,0.801,0.799C32.723,19.942,32.364,20.3,31.922,20.3z M31.922,16.303h-13
	c-0.441,0-0.799-0.357-0.799-0.799c0-0.441,0.357-0.8,0.799-0.8h13c0.442,0,0.801,0.358,0.801,0.8
	C32.723,15.945,32.364,16.303,31.922,16.303z M31.922,12.307h-13c-0.441,0-0.799-0.357-0.799-0.8c0-0.441,0.357-0.799,0.799-0.799
	h13c0.442,0,0.801,0.358,0.801,0.799C32.723,11.949,32.364,12.307,31.922,12.307z"/>
</svg>
