<?xml version="1.0" encoding="utf-8"?>
<!-- Generator: Adobe Illustrator 17.0.0, SVG Export Plug-In . SVG Version: 6.00 Build 0)  -->
<!DOCTYPE svg PUBLIC "-//W3C//DTD SVG 1.1//EN" "http://www.w3.org/Graphics/SVG/1.1/DTD/svg11.dtd">
<svg version="1.1" id="Capa_1" xmlns="http://www.w3.org/2000/svg" xmlns:xlink="http://www.w3.org/1999/xlink" x="0px" y="0px"
	 width="247.638px" height="58.139px" viewBox="0 0 247.638 58.139" style="enable-background:new 0 0 247.638 58.139;"
	 xml:space="preserve">
<polygon style="fill-rule:evenodd;clip-rule:evenodd;fill:#A8A8A8;" points="233.61,58.139 247.638,40.354 237.212,20.186 
	233.61,20.188 "/>
<rect x="0" y="0" style="fill-rule:evenodd;clip-rule:evenodd;fill:#FFFFFF;" width="247.638" height="40.354"/>
<g style="opacity:0.5;">
	<g>
		<defs>
			<rect id="SVGID_17_" x="0" y="40.824" width="233.61" height="7.17"/>
		</defs>
		<clipPath id="SVGID_2_">
			<use xlink:href="#SVGID_17_"  style="overflow:visible;"/>
		</clipPath>
		<polygon style="clip-path:url(#SVGID_2_);fill:#2C6882;" points="233.61,47.994 0,40.824 233.61,40.824 		"/>
	</g>
</g>
<g>
	<path style="fill:#5E5E5E;" d="M46.407,27.559V14.674h9.554v2.18h-6.952v2.856h6.469v2.171h-6.469v3.507h7.198v2.171H46.407z"/>
	<path style="fill:#5E5E5E;" d="M57.064,27.559V14.674h2.47v12.885H57.064z"/>
	<path style="fill:#5E5E5E;" d="M62.578,21.072l-2.241-0.404c0.252-0.902,0.686-1.57,1.301-2.004s1.529-0.65,2.742-0.65
		c1.102,0,1.922,0.131,2.461,0.391c0.539,0.262,0.918,0.592,1.138,0.994c0.22,0.4,0.33,1.138,0.33,2.21l-0.026,2.883
		c0,0.82,0.04,1.425,0.119,1.815c0.079,0.389,0.227,0.807,0.444,1.252h-2.443c-0.064-0.164-0.144-0.407-0.237-0.729
		c-0.041-0.146-0.07-0.243-0.088-0.29c-0.422,0.41-0.873,0.718-1.354,0.923s-0.993,0.308-1.538,0.308
		c-0.961,0-1.718-0.261-2.272-0.782s-0.831-1.181-0.831-1.978c0-0.527,0.126-0.998,0.378-1.41c0.252-0.414,0.605-0.73,1.059-0.949
		c0.454-0.221,1.109-0.412,1.964-0.576c1.154-0.217,1.954-0.419,2.399-0.606v-0.246c0-0.475-0.117-0.813-0.352-1.015
		c-0.234-0.203-0.677-0.304-1.327-0.304c-0.439,0-0.782,0.087-1.028,0.259C62.93,20.336,62.731,20.639,62.578,21.072z
		 M65.883,23.076c-0.316,0.105-0.817,0.231-1.503,0.378s-1.134,0.29-1.345,0.431c-0.322,0.229-0.483,0.519-0.483,0.87
		c0,0.346,0.129,0.645,0.387,0.896s0.586,0.378,0.984,0.378c0.445,0,0.87-0.146,1.274-0.439c0.299-0.223,0.495-0.495,0.589-0.817
		c0.064-0.211,0.097-0.612,0.097-1.204V23.076z"/>
	<path style="fill:#5E5E5E;" d="M69.306,27.559V14.674h2.47v4.641c0.762-0.867,1.664-1.301,2.707-1.301
		c1.137,0,2.077,0.412,2.821,1.234c0.744,0.824,1.116,2.006,1.116,3.547c0,1.594-0.379,2.821-1.138,3.683s-1.68,1.292-2.764,1.292
		c-0.533,0-1.059-0.133-1.578-0.4c-0.519-0.266-0.965-0.66-1.34-1.182v1.371H69.306z M71.758,22.689
		c0,0.967,0.152,1.682,0.457,2.145c0.428,0.656,0.996,0.984,1.705,0.984c0.545,0,1.009-0.232,1.393-0.699
		c0.384-0.465,0.576-1.199,0.576-2.201c0-1.066-0.193-1.836-0.58-2.307c-0.387-0.473-0.882-0.708-1.485-0.708
		c-0.592,0-1.084,0.229-1.477,0.69C71.954,21.053,71.758,21.752,71.758,22.689z"/>
	<path style="fill:#5E5E5E;" d="M79.074,27.559v-2.47h2.47v2.47H79.074z"/>
	<path style="fill:#5E5E5E;" d="M86.228,18.225h2.276v1.274c0.814-0.99,1.784-1.485,2.909-1.485c0.598,0,1.116,0.123,1.556,0.369
		s0.8,0.618,1.081,1.116c0.41-0.498,0.853-0.87,1.327-1.116s0.981-0.369,1.521-0.369c0.686,0,1.266,0.139,1.74,0.418
		c0.475,0.277,0.829,0.687,1.063,1.226c0.17,0.398,0.255,1.043,0.255,1.934v5.968h-2.47v-5.335c0-0.926-0.085-1.523-0.255-1.793
		c-0.229-0.352-0.58-0.527-1.055-0.527c-0.346,0-0.671,0.105-0.976,0.316s-0.524,0.521-0.659,0.927
		c-0.135,0.408-0.202,1.051-0.202,1.93v4.482h-2.47v-5.115c0-0.908-0.044-1.494-0.132-1.758s-0.224-0.46-0.409-0.589
		s-0.435-0.193-0.751-0.193c-0.381,0-0.724,0.103-1.028,0.308s-0.523,0.501-0.655,0.888s-0.198,1.028-0.198,1.925v4.535h-2.47
		V18.225z"/>
	<path style="fill:#5E5E5E;" d="M102.931,21.072l-2.241-0.404c0.252-0.902,0.686-1.57,1.301-2.004s1.529-0.65,2.742-0.65
		c1.102,0,1.922,0.131,2.461,0.391c0.539,0.262,0.918,0.592,1.138,0.994c0.22,0.4,0.33,1.138,0.33,2.21l-0.026,2.883
		c0,0.82,0.04,1.425,0.119,1.815c0.079,0.389,0.227,0.807,0.444,1.252h-2.443c-0.064-0.164-0.144-0.407-0.237-0.729
		c-0.041-0.146-0.07-0.243-0.088-0.29c-0.422,0.41-0.873,0.718-1.354,0.923s-0.993,0.308-1.538,0.308
		c-0.961,0-1.718-0.261-2.272-0.782s-0.831-1.181-0.831-1.978c0-0.527,0.126-0.998,0.378-1.41c0.252-0.414,0.605-0.73,1.059-0.949
		c0.454-0.221,1.109-0.412,1.964-0.576c1.154-0.217,1.954-0.419,2.399-0.606v-0.246c0-0.475-0.117-0.813-0.352-1.015
		c-0.234-0.203-0.677-0.304-1.327-0.304c-0.439,0-0.782,0.087-1.028,0.259C103.282,20.336,103.083,20.639,102.931,21.072z
		 M106.235,23.076c-0.316,0.105-0.817,0.231-1.503,0.378s-1.134,0.29-1.345,0.431c-0.322,0.229-0.483,0.519-0.483,0.87
		c0,0.346,0.129,0.645,0.387,0.896s0.586,0.378,0.984,0.378c0.445,0,0.87-0.146,1.274-0.439c0.299-0.223,0.495-0.495,0.589-0.817
		c0.064-0.211,0.097-0.612,0.097-1.204V23.076z"/>
	<path style="fill:#5E5E5E;" d="M109.694,18.225h2.303v1.371c0.299-0.469,0.703-0.85,1.213-1.143s1.075-0.439,1.696-0.439
		c1.084,0,2.004,0.425,2.76,1.274s1.134,2.033,1.134,3.551c0,1.559-0.381,2.771-1.143,3.634c-0.762,0.865-1.685,1.297-2.769,1.297
		c-0.516,0-0.983-0.103-1.402-0.308s-0.86-0.557-1.323-1.055v4.702h-2.47V18.225z M112.137,22.733c0,1.049,0.208,1.823,0.624,2.325
		c0.416,0.5,0.923,0.751,1.521,0.751c0.574,0,1.052-0.229,1.433-0.69c0.381-0.459,0.571-1.214,0.571-2.263
		c0-0.979-0.196-1.705-0.589-2.18s-0.879-0.712-1.459-0.712c-0.604,0-1.104,0.232-1.503,0.699
		C112.337,21.129,112.137,21.819,112.137,22.733z"/>
	<path style="fill:#5E5E5E;" d="M121.273,21.072l-2.241-0.404c0.252-0.902,0.686-1.57,1.301-2.004s1.529-0.65,2.742-0.65
		c1.102,0,1.922,0.131,2.461,0.391c0.539,0.262,0.918,0.592,1.138,0.994c0.22,0.4,0.33,1.138,0.33,2.21l-0.026,2.883
		c0,0.82,0.04,1.425,0.119,1.815c0.079,0.389,0.227,0.807,0.444,1.252h-2.443c-0.064-0.164-0.144-0.407-0.237-0.729
		c-0.041-0.146-0.07-0.243-0.088-0.29c-0.422,0.41-0.873,0.718-1.354,0.923s-0.993,0.308-1.538,0.308
		c-0.961,0-1.718-0.261-2.272-0.782s-0.831-1.181-0.831-1.978c0-0.527,0.126-0.998,0.378-1.41c0.252-0.414,0.605-0.73,1.059-0.949
		c0.454-0.221,1.109-0.412,1.964-0.576c1.154-0.217,1.954-0.419,2.399-0.606v-0.246c0-0.475-0.117-0.813-0.352-1.015
		c-0.234-0.203-0.677-0.304-1.327-0.304c-0.439,0-0.782,0.087-1.028,0.259C121.625,20.336,121.425,20.639,121.273,21.072z
		 M124.578,23.076c-0.316,0.105-0.817,0.231-1.503,0.378s-1.134,0.29-1.345,0.431c-0.322,0.229-0.483,0.519-0.483,0.87
		c0,0.346,0.129,0.645,0.387,0.896s0.586,0.378,0.984,0.378c0.445,0,0.87-0.146,1.274-0.439c0.299-0.223,0.495-0.495,0.589-0.817
		c0.064-0.211,0.097-0.612,0.097-1.204V23.076z"/>
	<path style="fill:#5E5E5E;" d="M140.336,27.559h-2.294v-1.371c-0.381,0.533-0.831,0.93-1.349,1.191
		c-0.519,0.26-1.042,0.391-1.569,0.391c-1.072,0-1.991-0.432-2.755-1.297c-0.765-0.863-1.147-2.069-1.147-3.616
		c0-1.582,0.372-2.784,1.116-3.608c0.744-0.822,1.685-1.234,2.821-1.234c1.043,0,1.945,0.434,2.707,1.301v-4.641h2.47V27.559z
		 M133.744,22.689c0,0.996,0.138,1.717,0.413,2.162c0.398,0.645,0.955,0.967,1.67,0.967c0.568,0,1.052-0.242,1.45-0.725
		c0.398-0.484,0.598-1.206,0.598-2.167c0-1.072-0.193-1.845-0.58-2.315c-0.387-0.473-0.882-0.708-1.485-0.708
		c-0.586,0-1.077,0.233-1.472,0.698C133.942,21.068,133.744,21.764,133.744,22.689z"/>
	<path style="fill:#5E5E5E;" d="M146.843,24.588l2.461,0.413c-0.316,0.902-0.816,1.589-1.499,2.062
		c-0.683,0.471-1.537,0.707-2.562,0.707c-1.623,0-2.824-0.53-3.604-1.591c-0.615-0.85-0.923-1.922-0.923-3.217
		c0-1.547,0.404-2.759,1.213-3.634c0.809-0.877,1.831-1.314,3.067-1.314c1.389,0,2.484,0.459,3.287,1.375
		c0.803,0.918,1.187,2.322,1.151,4.215h-6.188c0.018,0.732,0.217,1.303,0.598,1.709c0.381,0.408,0.855,0.611,1.424,0.611
		c0.387,0,0.712-0.105,0.976-0.316S146.709,25.057,146.843,24.588z M146.984,22.092c-0.018-0.715-0.202-1.258-0.554-1.631
		c-0.352-0.371-0.779-0.558-1.283-0.558c-0.539,0-0.984,0.196-1.336,0.589s-0.524,0.926-0.519,1.6H146.984z"/>
	<path style="fill:#5E5E5E;" d="M153.715,18.225h2.303v1.371c0.299-0.469,0.703-0.85,1.213-1.143s1.075-0.439,1.696-0.439
		c1.084,0,2.004,0.425,2.76,1.274s1.134,2.033,1.134,3.551c0,1.559-0.381,2.771-1.143,3.634c-0.762,0.865-1.685,1.297-2.769,1.297
		c-0.516,0-0.983-0.103-1.402-0.308s-0.86-0.557-1.323-1.055v4.702h-2.47V18.225z M156.159,22.733c0,1.049,0.208,1.823,0.624,2.325
		c0.416,0.5,0.923,0.751,1.521,0.751c0.574,0,1.052-0.229,1.433-0.69c0.381-0.459,0.571-1.214,0.571-2.263
		c0-0.979-0.196-1.705-0.589-2.18s-0.879-0.712-1.459-0.712c-0.604,0-1.104,0.232-1.503,0.699
		C156.358,21.129,156.159,21.819,156.159,22.733z"/>
	<path style="fill:#5E5E5E;" d="M165.813,27.559h-2.47v-9.334h2.294v1.327c0.393-0.627,0.746-1.04,1.059-1.239
		s0.669-0.299,1.068-0.299c0.563,0,1.104,0.155,1.626,0.466l-0.765,2.153c-0.416-0.27-0.803-0.404-1.16-0.404
		c-0.346,0-0.639,0.096-0.879,0.285c-0.24,0.191-0.429,0.535-0.567,1.033s-0.207,1.541-0.207,3.129V27.559z"/>
	<path style="fill:#5E5E5E;" d="M168.55,22.76c0-0.82,0.202-1.614,0.606-2.382s0.977-1.354,1.718-1.758s1.569-0.606,2.483-0.606
		c1.412,0,2.569,0.459,3.472,1.375c0.902,0.918,1.354,2.076,1.354,3.477c0,1.412-0.456,2.582-1.367,3.512
		c-0.911,0.928-2.058,1.393-3.441,1.393c-0.855,0-1.671-0.193-2.448-0.58s-1.367-0.953-1.771-1.701
		C168.753,24.742,168.55,23.832,168.55,22.76z M171.082,22.892c0,0.926,0.22,1.635,0.659,2.127s0.981,0.738,1.626,0.738
		s1.185-0.246,1.622-0.738s0.655-1.207,0.655-2.145c0-0.914-0.218-1.617-0.655-2.109s-0.977-0.738-1.622-0.738
		s-1.187,0.246-1.626,0.738S171.082,21.966,171.082,22.892z"/>
	<path style="fill:#5E5E5E;" d="M186.923,20.984l-2.435,0.439c-0.082-0.486-0.268-0.853-0.558-1.099s-0.667-0.369-1.129-0.369
		c-0.615,0-1.106,0.212-1.472,0.638c-0.366,0.424-0.549,1.135-0.549,2.131c0,1.107,0.186,1.89,0.558,2.347s0.872,0.686,1.499,0.686
		c0.469,0,0.853-0.134,1.151-0.399c0.299-0.268,0.51-0.726,0.633-1.376l2.426,0.413c-0.252,1.113-0.735,1.954-1.45,2.522
		s-1.673,0.853-2.874,0.853c-1.365,0-2.454-0.431-3.265-1.292s-1.217-2.054-1.217-3.577c0-1.541,0.407-2.74,1.222-3.6
		c0.814-0.857,1.916-1.287,3.305-1.287c1.137,0,2.041,0.244,2.711,0.734C186.149,19.236,186.63,19.982,186.923,20.984z"/>
	<path style="fill:#5E5E5E;" d="M192.869,24.588l2.461,0.413c-0.316,0.902-0.816,1.589-1.499,2.062
		c-0.683,0.471-1.537,0.707-2.562,0.707c-1.623,0-2.824-0.53-3.604-1.591c-0.615-0.85-0.923-1.922-0.923-3.217
		c0-1.547,0.404-2.759,1.213-3.634c0.809-0.877,1.831-1.314,3.067-1.314c1.389,0,2.484,0.459,3.287,1.375
		c0.803,0.918,1.187,2.322,1.151,4.215h-6.188c0.018,0.732,0.217,1.303,0.598,1.709c0.381,0.408,0.855,0.611,1.424,0.611
		c0.387,0,0.712-0.105,0.976-0.316S192.734,25.057,192.869,24.588z M193.009,22.092c-0.018-0.715-0.202-1.258-0.554-1.631
		c-0.352-0.371-0.779-0.558-1.283-0.558c-0.539,0-0.984,0.196-1.336,0.589s-0.524,0.926-0.519,1.6H193.009z"/>
	<path style="fill:#5E5E5E;" d="M195.272,24.896l2.479-0.378c0.105,0.48,0.319,0.846,0.642,1.094
		c0.322,0.25,0.773,0.374,1.354,0.374c0.639,0,1.119-0.117,1.441-0.352c0.217-0.164,0.325-0.384,0.325-0.659
		c0-0.188-0.059-0.343-0.176-0.466c-0.123-0.117-0.398-0.226-0.826-0.325c-1.992-0.439-3.255-0.841-3.788-1.204
		c-0.738-0.504-1.107-1.204-1.107-2.101c0-0.809,0.319-1.488,0.958-2.039s1.629-0.826,2.971-0.826c1.277,0,2.227,0.208,2.848,0.624
		s1.049,1.031,1.283,1.846l-2.329,0.431c-0.1-0.363-0.289-0.642-0.567-0.835s-0.675-0.29-1.191-0.29
		c-0.65,0-1.116,0.091-1.397,0.272c-0.188,0.129-0.281,0.296-0.281,0.501c0,0.176,0.082,0.325,0.246,0.448
		c0.223,0.164,0.992,0.396,2.307,0.694s2.234,0.665,2.755,1.099c0.516,0.439,0.773,1.052,0.773,1.837
		c0,0.855-0.357,1.591-1.072,2.206s-1.772,0.923-3.173,0.923c-1.271,0-2.278-0.258-3.019-0.773S195.501,25.78,195.272,24.896z"/>
	<path style="fill:#5E5E5E;" d="M204.25,22.76c0-0.82,0.202-1.614,0.606-2.382s0.977-1.354,1.718-1.758s1.569-0.606,2.483-0.606
		c1.412,0,2.569,0.459,3.472,1.375c0.902,0.918,1.354,2.076,1.354,3.477c0,1.412-0.456,2.582-1.367,3.512
		c-0.911,0.928-2.058,1.393-3.441,1.393c-0.855,0-1.671-0.193-2.448-0.58s-1.367-0.953-1.771-1.701
		C204.452,24.742,204.25,23.832,204.25,22.76z M206.781,22.892c0,0.926,0.22,1.635,0.659,2.127s0.981,0.738,1.626,0.738
		s1.185-0.246,1.622-0.738s0.655-1.207,0.655-2.145c0-0.914-0.218-1.617-0.655-2.109s-0.977-0.738-1.622-0.738
		s-1.187,0.246-1.626,0.738S206.781,21.966,206.781,22.892z"/>
</g>
<g>
	<path style="fill-rule:evenodd;clip-rule:evenodd;fill:#6FC2D8;stroke:#000000;stroke-width:0.5;stroke-miterlimit:10;" d="
		M23.586,11.645L23.586,11.645c-4.636,0-8.34,3.524-8.34,7.971c0,2.786,1.479,5.187,3.334,6.67c0.551,0.383,1.111,0.752,1.66,1.123
		h-0.371v5.556h1.674c0.191,0.743,1.109,1.304,2.043,1.304c0.742,0,1.661-0.561,1.852-1.304h1.66v-5.556h-0.549
		c0.743-0.371,1.115-0.74,1.674-1.123c2.033-1.483,3.334-3.884,3.334-6.67C31.557,15.169,27.84,11.645,23.586,11.645L23.586,11.645z
		"/>
	
		<polygon style="fill-rule:evenodd;clip-rule:evenodd;fill:#6FC2D8;stroke:#000000;stroke-width:0.5;stroke-miterlimit:10;" points="
		34.331,12.013 34.331,12.013 30.817,14.058 31.368,14.979 34.891,12.945 	"/>
	
		<polygon style="fill-rule:evenodd;clip-rule:evenodd;fill:#6FC2D8;stroke:#000000;stroke-width:0.5;stroke-miterlimit:10;" points="
		29.514,7.567 29.514,7.567 27.469,11.081 28.223,11.453 30.256,8.12 	"/>
	
		<polygon style="fill-rule:evenodd;clip-rule:evenodd;fill:#6FC2D8;stroke:#000000;stroke-width:0.5;stroke-miterlimit:10;" points="
		10.606,19.437 10.606,19.437 14.682,19.437 14.682,18.503 10.606,18.503 	"/>
	
		<polygon style="fill-rule:evenodd;clip-rule:evenodd;fill:#6FC2D8;stroke:#000000;stroke-width:0.5;stroke-miterlimit:10;" points="
		11.897,12.945 11.897,12.945 15.614,14.979 15.984,14.058 12.639,12.013 	"/>
	
		<polygon style="fill-rule:evenodd;clip-rule:evenodd;fill:#6FC2D8;stroke:#000000;stroke-width:0.5;stroke-miterlimit:10;" points="
		16.725,8.12 16.725,8.12 18.58,11.453 19.498,11.081 17.468,7.567 	"/>
	
		<polygon style="fill-rule:evenodd;clip-rule:evenodd;fill:#6FC2D8;stroke:#000000;stroke-width:0.5;stroke-miterlimit:10;" points="
		22.844,6.085 22.844,6.085 22.844,9.968 23.959,9.968 23.959,6.085 	"/>
	<path style="fill-rule:evenodd;clip-rule:evenodd;fill:#FFFFFF;stroke:#000000;stroke-width:0.5;stroke-miterlimit:10;" d="
		M23.586,23.14L23.586,23.14c-0.742,0-1.301,0.551-1.301,1.111c0,0.551,0.559,1.112,1.301,1.112c0.549,0,0.921-0.562,0.921-1.112
		C24.507,23.691,24.135,23.14,23.586,23.14L23.586,23.14z"/>
	<path style="fill-rule:evenodd;clip-rule:evenodd;fill:#FFFFFF;stroke:#000000;stroke-width:0.5;stroke-miterlimit:10;" d="
		M23.586,14.979L23.586,14.979c-0.934,0-1.48,1.674-1.48,3.896c0,2.221,0.547,3.897,1.48,3.897c0.742,0,1.291-1.677,1.291-3.897
		C24.877,16.652,24.328,14.979,23.586,14.979L23.586,14.979z"/>
	
		<polygon style="fill-rule:evenodd;clip-rule:evenodd;fill:#6FC2D8;stroke:#000000;stroke-width:0.5;stroke-miterlimit:10;" points="
		36.374,18.503 36.374,18.503 32.299,18.503 32.299,19.437 36.374,19.437 	"/>
	
		<polygon style="fill-rule:evenodd;clip-rule:evenodd;fill:#FFFFFF;stroke:#000000;stroke-width:0.5;stroke-miterlimit:10;" points="
		20.608,28.52 20.608,28.52 20.608,29.63 26.357,29.63 26.357,28.52 	"/>
	
		<polygon style="fill-rule:evenodd;clip-rule:evenodd;fill:#FFFFFF;stroke:#000000;stroke-width:0.5;stroke-miterlimit:10;" points="
		20.608,30.55 20.608,30.55 20.608,31.66 26.357,31.66 26.357,30.55 	"/>
</g>
</svg>
