<?xml version="1.0" encoding="utf-8"?>
<!-- Generator: Adobe Illustrator 17.0.0, SVG Export Plug-In . SVG Version: 6.00 Build 0)  -->
<!DOCTYPE svg PUBLIC "-//W3C//DTD SVG 1.1//EN" "http://www.w3.org/Graphics/SVG/1.1/DTD/svg11.dtd">
<svg version="1.1" id="Capa_1" xmlns="http://www.w3.org/2000/svg" xmlns:xlink="http://www.w3.org/1999/xlink" x="0px" y="0px"
	 width="247.638px" height="58.139px" viewBox="0 0 247.638 58.139" style="enable-background:new 0 0 247.638 58.139;"
	 xml:space="preserve">
<polygon style="fill-rule:evenodd;clip-rule:evenodd;fill:#A8A8A8;" points="233.61,58.139 247.638,40.354 237.212,20.185 
	233.61,20.188 "/>
<rect x="0" y="0" style="fill-rule:evenodd;clip-rule:evenodd;fill:#FFFFFF;" width="247.638" height="40.354"/>
<g style="opacity:0.5;">
	<g>
		<defs>
			<rect id="SVGID_9_" x="0" y="40.463" width="233.61" height="7.17"/>
		</defs>
		<clipPath id="SVGID_2_">
			<use xlink:href="#SVGID_9_"  style="overflow:visible;"/>
		</clipPath>
		<polygon style="clip-path:url(#SVGID_2_);fill:#2C6882;" points="233.61,47.633 0,40.463 233.61,40.463 		"/>
	</g>
</g>
<g>
	<g>
		<path style="fill:#5E5E5E;" d="M46.425,25.559V12.674h8.833v2.18h-6.231v3.05h5.379v2.18h-5.379v5.476H46.425z"/>
		<path style="fill:#5E5E5E;" d="M62.196,25.559v-1.397c-0.34,0.498-0.787,0.891-1.34,1.178s-1.138,0.431-1.753,0.431
			c-0.627,0-1.189-0.138-1.688-0.413s-0.858-0.662-1.081-1.16S56,23.01,56,22.131v-5.906h2.47v4.289
			c0,1.313,0.045,2.117,0.136,2.413s0.256,0.53,0.497,0.703s0.545,0.259,0.914,0.259c0.422,0,0.8-0.116,1.134-0.347
			s0.563-0.519,0.686-0.861s0.185-1.182,0.185-2.518v-3.938h2.47v9.334H62.196z"/>
		<path style="fill:#5E5E5E;" d="M74.206,25.559h-2.47v-4.764c0-1.008-0.053-1.66-0.158-1.956s-0.277-0.526-0.514-0.69
			s-0.523-0.246-0.857-0.246c-0.428,0-0.812,0.117-1.151,0.352s-0.573,0.545-0.699,0.932s-0.189,1.102-0.189,2.145v4.228h-2.47
			v-9.334h2.294v1.371c0.814-1.055,1.84-1.582,3.076-1.582c0.545,0,1.043,0.098,1.494,0.294s0.792,0.447,1.024,0.751
			s0.393,0.65,0.483,1.037s0.136,0.94,0.136,1.661V25.559z"/>
		<path style="fill:#5E5E5E;" d="M83.518,18.984l-2.435,0.439c-0.082-0.486-0.268-0.853-0.558-1.099s-0.667-0.369-1.129-0.369
			c-0.615,0-1.106,0.212-1.472,0.637s-0.549,1.135-0.549,2.131c0,1.107,0.186,1.89,0.558,2.347s0.872,0.686,1.499,0.686
			c0.469,0,0.853-0.133,1.151-0.4s0.51-0.725,0.633-1.375l2.426,0.413c-0.252,1.113-0.735,1.954-1.45,2.522
			s-1.673,0.853-2.874,0.853c-1.365,0-2.454-0.431-3.265-1.292s-1.217-2.054-1.217-3.577c0-1.541,0.407-2.741,1.222-3.599
			s1.916-1.288,3.305-1.288c1.137,0,2.041,0.245,2.711,0.734S83.225,17.982,83.518,18.984z"/>
		<path style="fill:#5E5E5E;" d="M84.058,14.959v-2.285h2.47v2.285H84.058z M84.058,25.559v-9.334h2.47v9.334H84.058z"/>
		<path style="fill:#5E5E5E;" d="M87.155,20.76c0-0.82,0.202-1.614,0.606-2.382s0.977-1.354,1.718-1.758s1.569-0.606,2.483-0.606
			c1.412,0,2.569,0.458,3.472,1.375s1.354,2.076,1.354,3.476c0,1.412-0.456,2.583-1.367,3.511s-2.058,1.393-3.441,1.393
			c-0.855,0-1.671-0.193-2.448-0.58s-1.367-0.954-1.771-1.701S87.155,21.832,87.155,20.76z M89.687,20.892
			c0,0.926,0.22,1.635,0.659,2.127s0.981,0.738,1.626,0.738s1.185-0.246,1.622-0.738s0.655-1.207,0.655-2.145
			c0-0.914-0.218-1.617-0.655-2.109s-0.977-0.738-1.622-0.738s-1.187,0.246-1.626,0.738S89.687,19.966,89.687,20.892z"/>
		<path style="fill:#5E5E5E;" d="M105.88,25.559h-2.47v-4.764c0-1.008-0.053-1.66-0.158-1.956s-0.277-0.526-0.514-0.69
			s-0.523-0.246-0.857-0.246c-0.428,0-0.812,0.117-1.151,0.352s-0.573,0.545-0.699,0.932s-0.189,1.102-0.189,2.145v4.228h-2.47
			v-9.334h2.294v1.371c0.814-1.055,1.84-1.582,3.076-1.582c0.545,0,1.043,0.098,1.494,0.294s0.792,0.447,1.024,0.751
			s0.393,0.65,0.483,1.037s0.136,0.94,0.136,1.661V25.559z"/>
		<path style="fill:#5E5E5E;" d="M108.899,19.072l-2.241-0.404c0.252-0.902,0.686-1.57,1.301-2.004s1.529-0.65,2.742-0.65
			c1.102,0,1.922,0.13,2.461,0.391s0.918,0.592,1.138,0.993s0.33,1.138,0.33,2.21l-0.026,2.883c0,0.82,0.04,1.425,0.119,1.815
			s0.227,0.807,0.444,1.252h-2.443c-0.064-0.164-0.144-0.407-0.237-0.729c-0.041-0.146-0.07-0.243-0.088-0.29
			c-0.422,0.41-0.873,0.718-1.354,0.923s-0.993,0.308-1.538,0.308c-0.961,0-1.718-0.261-2.272-0.782s-0.831-1.181-0.831-1.978
			c0-0.527,0.126-0.998,0.378-1.411s0.605-0.729,1.059-0.949s1.109-0.412,1.964-0.576c1.154-0.217,1.954-0.419,2.399-0.606v-0.246
			c0-0.475-0.117-0.813-0.352-1.015s-0.677-0.303-1.327-0.303c-0.439,0-0.782,0.086-1.028,0.259S109.051,18.639,108.899,19.072z
			 M112.203,21.076c-0.316,0.105-0.817,0.231-1.503,0.378s-1.134,0.29-1.345,0.431c-0.322,0.229-0.483,0.519-0.483,0.87
			c0,0.346,0.129,0.645,0.387,0.896s0.586,0.378,0.984,0.378c0.445,0,0.87-0.146,1.274-0.439c0.299-0.223,0.495-0.495,0.589-0.817
			c0.064-0.211,0.097-0.612,0.097-1.204V21.076z"/>
		<path style="fill:#5E5E5E;" d="M115.732,25.559V12.674h2.47v12.885H115.732z"/>
		<path style="fill:#5E5E5E;" d="M125.636,25.559l-3.762-9.334h2.593l1.758,4.764l0.51,1.591c0.135-0.404,0.22-0.671,0.255-0.8
			c0.082-0.264,0.17-0.527,0.264-0.791l1.775-4.764h2.54l-3.709,9.334H125.636z"/>
		<path style="fill:#5E5E5E;" d="M130.879,22.895l2.479-0.378c0.105,0.48,0.319,0.845,0.642,1.094s0.773,0.374,1.354,0.374
			c0.639,0,1.119-0.117,1.441-0.352c0.217-0.164,0.325-0.384,0.325-0.659c0-0.188-0.059-0.343-0.176-0.466
			c-0.123-0.117-0.398-0.226-0.826-0.325c-1.992-0.439-3.255-0.841-3.788-1.204c-0.738-0.504-1.107-1.204-1.107-2.101
			c0-0.809,0.319-1.488,0.958-2.039s1.629-0.826,2.971-0.826c1.277,0,2.227,0.208,2.848,0.624s1.049,1.031,1.283,1.846l-2.329,0.431
			c-0.1-0.363-0.289-0.642-0.567-0.835s-0.675-0.29-1.191-0.29c-0.65,0-1.116,0.091-1.397,0.272
			c-0.188,0.129-0.281,0.296-0.281,0.501c0,0.176,0.082,0.325,0.246,0.448c0.223,0.164,0.992,0.396,2.307,0.694
			s2.234,0.665,2.755,1.099c0.516,0.439,0.773,1.052,0.773,1.837c0,0.855-0.357,1.591-1.072,2.206s-1.772,0.923-3.173,0.923
			c-1.271,0-2.278-0.258-3.019-0.773S131.107,23.78,130.879,22.895z"/>
		<path style="fill:#5E5E5E;" d="M144.114,25.559V12.674h4.175c1.582,0,2.613,0.064,3.094,0.193
			c0.738,0.193,1.356,0.614,1.854,1.261s0.747,1.484,0.747,2.509c0,0.791-0.144,1.456-0.431,1.995s-0.652,0.962-1.094,1.27
			s-0.892,0.511-1.349,0.611c-0.621,0.123-1.521,0.185-2.698,0.185h-1.696v4.86H144.114z M146.715,14.853v3.656h1.424
			c1.025,0,1.711-0.067,2.057-0.202s0.617-0.346,0.813-0.633s0.294-0.621,0.294-1.002c0-0.469-0.138-0.855-0.413-1.16
			s-0.624-0.495-1.046-0.571c-0.311-0.059-0.935-0.088-1.872-0.088H146.715z"/>
		<path style="fill:#5E5E5E;" d="M157.134,25.559h-2.47v-9.334h2.294v1.327c0.393-0.627,0.746-1.04,1.059-1.239
			s0.669-0.299,1.068-0.299c0.563,0,1.104,0.155,1.626,0.466l-0.765,2.153c-0.416-0.27-0.803-0.404-1.16-0.404
			c-0.346,0-0.639,0.095-0.879,0.286s-0.429,0.535-0.567,1.033s-0.207,1.541-0.207,3.129V25.559z"/>
		<path style="fill:#5E5E5E;" d="M159.872,20.76c0-0.82,0.202-1.614,0.606-2.382s0.977-1.354,1.718-1.758s1.569-0.606,2.483-0.606
			c1.412,0,2.569,0.458,3.472,1.375s1.354,2.076,1.354,3.476c0,1.412-0.456,2.583-1.367,3.511s-2.058,1.393-3.441,1.393
			c-0.855,0-1.671-0.193-2.448-0.58s-1.367-0.954-1.771-1.701S159.872,21.832,159.872,20.76z M162.403,20.892
			c0,0.926,0.22,1.635,0.659,2.127s0.981,0.738,1.626,0.738s1.185-0.246,1.622-0.738s0.655-1.207,0.655-2.145
			c0-0.914-0.218-1.617-0.655-2.109s-0.977-0.738-1.622-0.738s-1.187,0.246-1.626,0.738S162.403,19.966,162.403,20.892z"/>
		<path style="fill:#5E5E5E;" d="M178.245,18.984l-2.435,0.439c-0.082-0.486-0.268-0.853-0.558-1.099s-0.667-0.369-1.129-0.369
			c-0.615,0-1.106,0.212-1.472,0.637s-0.549,1.135-0.549,2.131c0,1.107,0.186,1.89,0.558,2.347s0.872,0.686,1.499,0.686
			c0.469,0,0.853-0.133,1.151-0.4s0.51-0.725,0.633-1.375l2.426,0.413c-0.252,1.113-0.735,1.954-1.45,2.522
			s-1.673,0.853-2.874,0.853c-1.365,0-2.454-0.431-3.265-1.292s-1.217-2.054-1.217-3.577c0-1.541,0.407-2.741,1.222-3.599
			s1.916-1.288,3.305-1.288c1.137,0,2.041,0.245,2.711,0.734S177.952,17.982,178.245,18.984z"/>
		<path style="fill:#5E5E5E;" d="M184.19,22.588l2.461,0.413c-0.316,0.902-0.816,1.589-1.499,2.061s-1.537,0.708-2.562,0.708
			c-1.623,0-2.824-0.53-3.604-1.591c-0.615-0.85-0.923-1.922-0.923-3.217c0-1.547,0.404-2.758,1.213-3.634s1.831-1.314,3.067-1.314
			c1.389,0,2.484,0.458,3.287,1.375s1.187,2.322,1.151,4.214h-6.188c0.018,0.732,0.217,1.302,0.598,1.709s0.855,0.611,1.424,0.611
			c0.387,0,0.712-0.105,0.976-0.316S184.055,23.057,184.19,22.588z M184.331,20.092c-0.018-0.715-0.202-1.258-0.554-1.63
			s-0.779-0.558-1.283-0.558c-0.539,0-0.984,0.196-1.336,0.589s-0.524,0.926-0.519,1.6H184.331z"/>
		<path style="fill:#5E5E5E;" d="M186.593,22.895l2.479-0.378c0.105,0.48,0.319,0.845,0.642,1.094s0.773,0.374,1.354,0.374
			c0.639,0,1.119-0.117,1.441-0.352c0.217-0.164,0.325-0.384,0.325-0.659c0-0.188-0.059-0.343-0.176-0.466
			c-0.123-0.117-0.398-0.226-0.826-0.325c-1.992-0.439-3.255-0.841-3.788-1.204c-0.738-0.504-1.107-1.204-1.107-2.101
			c0-0.809,0.319-1.488,0.958-2.039s1.629-0.826,2.971-0.826c1.277,0,2.227,0.208,2.848,0.624s1.049,1.031,1.283,1.846l-2.329,0.431
			c-0.1-0.363-0.289-0.642-0.567-0.835s-0.675-0.29-1.191-0.29c-0.65,0-1.116,0.091-1.397,0.272
			c-0.188,0.129-0.281,0.296-0.281,0.501c0,0.176,0.082,0.325,0.246,0.448c0.223,0.164,0.992,0.396,2.307,0.694
			s2.234,0.665,2.755,1.099c0.516,0.439,0.773,1.052,0.773,1.837c0,0.855-0.357,1.591-1.072,2.206s-1.772,0.923-3.173,0.923
			c-1.271,0-2.278-0.258-3.019-0.773S186.822,23.78,186.593,22.895z"/>
		<path style="fill:#5E5E5E;" d="M195.571,20.76c0-0.82,0.202-1.614,0.606-2.382s0.977-1.354,1.718-1.758s1.569-0.606,2.483-0.606
			c1.412,0,2.569,0.458,3.472,1.375s1.354,2.076,1.354,3.476c0,1.412-0.456,2.583-1.367,3.511s-2.058,1.393-3.441,1.393
			c-0.855,0-1.671-0.193-2.448-0.58s-1.367-0.954-1.771-1.701S195.571,21.832,195.571,20.76z M198.102,20.892
			c0,0.926,0.22,1.635,0.659,2.127s0.981,0.738,1.626,0.738s1.185-0.246,1.622-0.738s0.655-1.207,0.655-2.145
			c0-0.914-0.218-1.617-0.655-2.109s-0.977-0.738-1.622-0.738s-1.187,0.246-1.626,0.738S198.102,19.966,198.102,20.892z"/>
		<path style="fill:#5E5E5E;" d="M204.935,22.895l2.479-0.378c0.105,0.48,0.319,0.845,0.642,1.094s0.773,0.374,1.354,0.374
			c0.639,0,1.119-0.117,1.441-0.352c0.217-0.164,0.325-0.384,0.325-0.659c0-0.188-0.059-0.343-0.176-0.466
			c-0.123-0.117-0.398-0.226-0.826-0.325c-1.992-0.439-3.255-0.841-3.788-1.204c-0.738-0.504-1.107-1.204-1.107-2.101
			c0-0.809,0.319-1.488,0.958-2.039s1.629-0.826,2.971-0.826c1.277,0,2.227,0.208,2.848,0.624s1.049,1.031,1.283,1.846l-2.329,0.431
			c-0.1-0.363-0.289-0.642-0.567-0.835s-0.675-0.29-1.191-0.29c-0.65,0-1.116,0.091-1.397,0.272
			c-0.188,0.129-0.281,0.296-0.281,0.501c0,0.176,0.082,0.325,0.246,0.448c0.223,0.164,0.992,0.396,2.307,0.694
			s2.234,0.665,2.755,1.099c0.516,0.439,0.773,1.052,0.773,1.837c0,0.855-0.357,1.591-1.072,2.206s-1.772,0.923-3.173,0.923
			c-1.271,0-2.278-0.258-3.019-0.773S205.164,23.78,204.935,22.895z"/>
	</g>
</g>
<path style="fill-rule:evenodd;clip-rule:evenodd;fill:#6FC2D8;stroke:#000000;stroke-width:0.5;stroke-miterlimit:10;" d="
	M36.72,16.951l-2.601-0.611c-0.16-0.307-0.16-0.767-0.461-1.071l1.528-2.14c0.459-0.765,0.306-1.529-0.149-2.141l-1.688-1.684
	C33.05,9,32.589,8.847,32.132,8.847c-0.306,0-0.615,0.153-0.918,0.306l-2.138,1.375c-0.467-0.154-0.767-0.305-1.073-0.46
	L27.39,7.625c-0.153-0.918-0.762-1.379-1.678-1.379h-2.296c-0.766,0-1.385,0.461-1.538,1.379l-0.604,2.442
	c-0.306,0.155-0.765,0.306-1.068,0.46L18.06,9.152C17.757,9,17.451,8.847,17.142,8.847c-0.461,0-0.916,0.153-1.224,0.457
	l-1.68,1.684c-0.457,0.611-0.608,1.376-0.151,2.141l1.526,2.14c-0.306,0.305-0.459,0.765-0.459,1.071l-2.597,0.611
	c-0.77,0.153-1.379,0.766-1.379,1.528v2.295c0,0.917,0.608,1.533,1.379,1.683l2.597,0.611c0,0.309,0.153,0.612,0.459,1.07
	l-1.526,2.141c-0.457,0.612-0.306,1.531,0.151,2.142l1.68,1.527c0.308,0.461,0.763,0.615,1.224,0.615
	c0.309,0,0.615-0.154,0.918-0.305l2.146-1.534c0.304,0.153,0.763,0.31,1.068,0.459l0.604,2.601c0.153,0.766,0.773,1.375,1.538,1.375
	h2.296c0.916,0,1.524-0.609,1.678-1.375l0.613-2.601c0.307-0.149,0.606-0.306,1.073-0.459l2.138,1.534
	c0.303,0.15,0.612,0.305,0.918,0.305c0.457,0,0.918-0.154,1.217-0.615l1.688-1.527c0.455-0.611,0.608-1.53,0.149-2.142l-1.528-2.141
	c0.301-0.458,0.301-0.762,0.461-1.221l2.601-0.461c0.763-0.149,1.375-0.766,1.375-1.683v-2.295
	C38.095,17.717,37.482,17.104,36.72,16.951 M27.082,20.625c-0.454,1.066-1.37,1.683-2.448,1.683c-0.765,0-1.371-0.31-1.83-0.771
	c-0.153-0.15-0.306-0.306-0.306-0.306c-0.312-0.457-0.467-1.067-0.467-1.526c0-1.529,1.078-2.601,2.603-2.601
	c0.767,0,1.534,0.306,1.994,0.767c0.454,0.454,0.608,1.07,0.608,1.834C27.236,20.01,27.236,20.316,27.082,20.625 M24.634,25.517
	c3.211,0,5.659-2.449,5.813-5.508v-0.305c0-1.529-0.455-2.754-1.371-3.826c-1.073-1.221-2.604-2.139-4.442-2.139
	c-3.209,0-5.959,2.754-5.959,5.965c0,1.069,0.453,2.142,0.914,3.057c0.151,0.156,0.151,0.307,0.307,0.459
	C20.968,24.6,22.65,25.517,24.634,25.517 M36.408,18.941v-0.462v2.295V18.941z"/>
</svg>
