<?xml version="1.0" encoding="utf-8"?>
<!-- Generator: Adobe Illustrator 17.0.0, SVG Export Plug-In . SVG Version: 6.00 Build 0)  -->
<!DOCTYPE svg PUBLIC "-//W3C//DTD SVG 1.1//EN" "http://www.w3.org/Graphics/SVG/1.1/DTD/svg11.dtd">
<svg version="1.1" id="Capa_1" xmlns="http://www.w3.org/2000/svg" xmlns:xlink="http://www.w3.org/1999/xlink" x="0px" y="0px"
	 width="247.638px" height="58.139px" viewBox="0 0 247.638 58.139" style="enable-background:new 0 0 247.638 58.139;"
	 xml:space="preserve">
<g style="opacity:0.5;">
	<g>
		<defs>
			<rect id="SVGID_11_" x="0" y="40.354" width="233.61" height="7.17"/>
		</defs>
		<clipPath id="SVGID_2_">
			<use xlink:href="#SVGID_11_"  style="overflow:visible;"/>
		</clipPath>
		<polygon style="clip-path:url(#SVGID_2_);fill:#2C6882;" points="233.61,47.523 0,40.354 233.61,40.354 		"/>
	</g>
</g>
<polygon style="fill-rule:evenodd;clip-rule:evenodd;fill:#A8A8A8;" points="233.61,58.139 247.638,40.354 237.212,20.184 
	233.61,20.185 "/>
<rect x="0" y="0" style="fill-rule:evenodd;clip-rule:evenodd;fill:#FFFFFF;" width="247.638" height="40.354"/>
<g>
	<g>
		<path style="fill:#5E5E5E;" d="M46.328,27.309V14.424h2.602v12.885H46.328z"/>
		<path style="fill:#5E5E5E;" d="M58.549,27.309h-2.47v-4.764c0-1.008-0.053-1.66-0.158-1.956s-0.277-0.526-0.514-0.69
			s-0.523-0.246-0.857-0.246c-0.428,0-0.812,0.117-1.151,0.352s-0.573,0.545-0.699,0.932s-0.189,1.102-0.189,2.145v4.228h-2.47
			v-9.334h2.294v1.371c0.814-1.055,1.84-1.582,3.076-1.582c0.545,0,1.043,0.098,1.494,0.294s0.792,0.447,1.024,0.751
			s0.393,0.65,0.483,1.037s0.136,0.94,0.136,1.661V27.309z"/>
		<path style="fill:#5E5E5E;" d="M64.002,17.975v1.969h-1.688v3.762c0,0.762,0.016,1.206,0.048,1.332s0.105,0.23,0.22,0.312
			s0.253,0.123,0.417,0.123c0.229,0,0.56-0.079,0.993-0.237l0.211,1.916c-0.574,0.246-1.225,0.369-1.951,0.369
			c-0.445,0-0.847-0.075-1.204-0.224s-0.62-0.343-0.787-0.58s-0.283-0.558-0.347-0.962c-0.053-0.287-0.079-0.867-0.079-1.74v-4.069
			h-1.134v-1.969h1.134V16.12l2.479-1.441v3.296H64.002z"/>
		<path style="fill:#5E5E5E;" d="M66.748,27.309h-2.47v-9.334h2.294v1.327c0.393-0.627,0.746-1.04,1.059-1.239
			s0.669-0.299,1.068-0.299c0.563,0,1.104,0.155,1.626,0.466l-0.765,2.153c-0.416-0.27-0.803-0.404-1.16-0.404
			c-0.346,0-0.639,0.095-0.879,0.286s-0.429,0.535-0.567,1.033s-0.207,1.541-0.207,3.129V27.309z"/>
		<path style="fill:#5E5E5E;" d="M69.485,22.51c0-0.82,0.202-1.614,0.606-2.382s0.977-1.354,1.718-1.758s1.569-0.606,2.483-0.606
			c1.412,0,2.569,0.458,3.472,1.375s1.354,2.076,1.354,3.476c0,1.412-0.456,2.583-1.367,3.511s-2.058,1.393-3.441,1.393
			c-0.855,0-1.671-0.193-2.448-0.58s-1.367-0.954-1.771-1.701S69.485,23.582,69.485,22.51z M72.017,22.642
			c0,0.926,0.22,1.635,0.659,2.127s0.981,0.738,1.626,0.738s1.185-0.246,1.622-0.738s0.655-1.207,0.655-2.145
			c0-0.914-0.218-1.617-0.655-2.109s-0.977-0.738-1.622-0.738s-1.187,0.246-1.626,0.738S72.017,21.716,72.017,22.642z"/>
		<path style="fill:#5E5E5E;" d="M88.28,27.309h-2.294v-1.371c-0.381,0.533-0.831,0.93-1.349,1.191s-1.042,0.391-1.569,0.391
			c-1.072,0-1.991-0.432-2.755-1.296s-1.147-2.07-1.147-3.617c0-1.582,0.372-2.785,1.116-3.608s1.685-1.235,2.821-1.235
			c1.043,0,1.945,0.434,2.707,1.301v-4.641h2.47V27.309z M81.689,22.439c0,0.996,0.138,1.717,0.413,2.162
			c0.398,0.645,0.955,0.967,1.67,0.967c0.568,0,1.052-0.242,1.45-0.725s0.598-1.206,0.598-2.167c0-1.072-0.193-1.844-0.58-2.316
			s-0.882-0.708-1.485-0.708c-0.586,0-1.077,0.233-1.472,0.699S81.689,21.514,81.689,22.439z"/>
		<path style="fill:#5E5E5E;" d="M95.526,27.309v-1.397c-0.34,0.498-0.787,0.891-1.34,1.178s-1.138,0.431-1.753,0.431
			c-0.627,0-1.189-0.138-1.688-0.413s-0.858-0.662-1.081-1.16s-0.334-1.187-0.334-2.065v-5.906h2.47v4.289
			c0,1.313,0.045,2.117,0.136,2.413s0.256,0.53,0.497,0.703s0.545,0.259,0.914,0.259c0.422,0,0.8-0.116,1.134-0.347
			s0.563-0.519,0.686-0.861s0.185-1.182,0.185-2.518v-3.938h2.47v9.334H95.526z"/>
		<path style="fill:#5E5E5E;" d="M107.185,20.734l-2.435,0.439c-0.082-0.486-0.268-0.853-0.558-1.099s-0.667-0.369-1.129-0.369
			c-0.615,0-1.106,0.212-1.472,0.637s-0.549,1.135-0.549,2.131c0,1.107,0.186,1.89,0.558,2.347s0.872,0.686,1.499,0.686
			c0.469,0,0.853-0.133,1.151-0.4s0.51-0.725,0.633-1.375l2.426,0.413c-0.252,1.113-0.735,1.954-1.45,2.522
			s-1.673,0.853-2.874,0.853c-1.365,0-2.454-0.431-3.265-1.292s-1.217-2.054-1.217-3.577c0-1.541,0.407-2.741,1.222-3.599
			s1.916-1.288,3.305-1.288c1.137,0,2.041,0.245,2.711,0.734S106.892,19.732,107.185,20.734z"/>
		<path style="fill:#5E5E5E;" d="M115.864,20.734l-2.435,0.439c-0.082-0.486-0.268-0.853-0.558-1.099s-0.667-0.369-1.129-0.369
			c-0.615,0-1.106,0.212-1.472,0.637s-0.549,1.135-0.549,2.131c0,1.107,0.186,1.89,0.558,2.347s0.872,0.686,1.499,0.686
			c0.469,0,0.853-0.133,1.151-0.4s0.51-0.725,0.633-1.375l2.426,0.413c-0.252,1.113-0.735,1.954-1.45,2.522
			s-1.673,0.853-2.874,0.853c-1.365,0-2.454-0.431-3.265-1.292s-1.217-2.054-1.217-3.577c0-1.541,0.407-2.741,1.222-3.599
			s1.916-1.288,3.305-1.288c1.137,0,2.041,0.245,2.711,0.734S115.571,19.732,115.864,20.734z"/>
		<path style="fill:#5E5E5E;" d="M116.404,16.709v-2.285h2.47v2.285H116.404z M116.404,27.309v-9.334h2.47v9.334H116.404z"/>
		<path style="fill:#5E5E5E;" d="M119.502,22.51c0-0.82,0.202-1.614,0.606-2.382s0.977-1.354,1.718-1.758s1.569-0.606,2.483-0.606
			c1.412,0,2.569,0.458,3.472,1.375c0.902,0.917,1.354,2.076,1.354,3.476c0,1.412-0.456,2.583-1.367,3.511
			c-0.911,0.929-2.058,1.393-3.441,1.393c-0.855,0-1.671-0.193-2.448-0.58s-1.367-0.954-1.771-1.701S119.502,23.582,119.502,22.51z
			 M122.033,22.642c0,0.926,0.22,1.635,0.659,2.127s0.981,0.738,1.626,0.738s1.185-0.246,1.622-0.738s0.655-1.207,0.655-2.145
			c0-0.914-0.218-1.617-0.655-2.109s-0.977-0.738-1.622-0.738s-1.187,0.246-1.626,0.738S122.033,21.716,122.033,22.642z
			 M123.07,16.832l1.213-2.628h2.769l-2.417,2.628H123.07z"/>
		<path style="fill:#5E5E5E;" d="M138.226,27.309h-2.47v-4.764c0-1.008-0.053-1.66-0.158-1.956s-0.277-0.526-0.514-0.69
			s-0.523-0.246-0.857-0.246c-0.428,0-0.812,0.117-1.151,0.352s-0.573,0.545-0.699,0.932s-0.189,1.102-0.189,2.145v4.228h-2.47
			v-9.334h2.294v1.371c0.814-1.055,1.84-1.582,3.076-1.582c0.545,0,1.043,0.098,1.494,0.294s0.792,0.447,1.024,0.751
			s0.393,0.65,0.483,1.037s0.136,0.94,0.136,1.661V27.309z"/>
	</g>
</g>
<path style="fill-rule:evenodd;clip-rule:evenodd;fill:#6FC2D8;stroke:#000000;stroke-width:0.5;stroke-miterlimit:10;" d="
	M14.544,18.984c-0.459,0.15-0.916,0.609-0.916,1.223c0,0.458,0.152,0.916,0.609,1.222l4.436,3.213l16.061-12.54L20.507,26.017
	l6.119,4.592c0.455,0.148,0.908,0.305,1.375,0.148c0.455-0.148,0.922-0.457,1.074-0.916l6.57-18.045c0-0.156,0-0.307-0.154-0.46
	c-0.15-0.153-0.15-0.153-0.305-0.153h-0.15L14.544,18.984z"/>
<path style="fill-rule:evenodd;clip-rule:evenodd;fill:#6FC2D8;stroke:#000000;stroke-width:0.5;stroke-miterlimit:10;" d="
	M15.763,24.336l0.154,0.307l0.918,5.658c0.156,0.457,0.463,0.764,0.766,1.068c0.459,0.152,0.92,0,1.223-0.15
	c1.535-0.918,3.363-2.143,3.363-2.297L15.763,24.336z"/>
</svg>
