<?xml version="1.0" encoding="utf-8"?>
<!-- Generator: Adobe Illustrator 17.0.0, SVG Export Plug-In . SVG Version: 6.00 Build 0)  -->
<!DOCTYPE svg PUBLIC "-//W3C//DTD SVG 1.1//EN" "http://www.w3.org/Graphics/SVG/1.1/DTD/svg11.dtd">
<svg version="1.1" id="Capa_1" xmlns="http://www.w3.org/2000/svg" xmlns:xlink="http://www.w3.org/1999/xlink" x="0px" y="0px"
	 width="247.638px" height="58.139px" viewBox="0 0 247.638 58.139" style="enable-background:new 0 0 247.638 58.139;"
	 xml:space="preserve">
<polygon style="fill-rule:evenodd;clip-rule:evenodd;fill:#A8A8A8;" points="233.61,58.139 247.638,40.354 237.212,20.186 
	233.61,20.188 "/>
<rect x="0" y="0" style="fill-rule:evenodd;clip-rule:evenodd;fill:#FFFFFF;" width="247.638" height="40.354"/>
<path style="fill-rule:evenodd;clip-rule:evenodd;fill:#6FC2D8;stroke:#000000;stroke-width:0.5;stroke-miterlimit:10;" d="
	M36.796,14.809c-0.156-0.307-0.611-0.459-1.072-0.459h-1.068h-0.311h-2.75v-2.905c0-0.763-0.609-1.374-1.377-1.374h-0.766V8.539
	c0-0.304-0.299-0.609-0.609-0.609h-13.92c-0.453,0-0.762,0.306-0.762,0.609v1.99h-0.609c-0.764,0-1.381,0.609-1.381,1.373v16.363
	c0,0.765,0.617,1.377,1.381,1.377h6.268h3.059h6.275h2.291h1.529c0.609,0,1.221-0.459,1.371-1.072l2.758-12.54v-0.306
	C37.103,15.42,37.103,15.113,36.796,14.809 M16.761,14.195h12.082V8.539h-13.92v9.327l0.461-2.602
	C15.54,14.654,16.149,14.195,16.761,14.195 M29.452,14.195h0.307c0.154,0,0.307,0,0.307,0.154h0.152v-2.905h-0.766V14.195z
	 M13.552,24.137l0.609-3.057v-9.178h-0.609V24.137z M16.61,12.516c0-0.305,0.301-0.613,0.613-0.613h9.172
	c0.453,0,0.768,0.309,0.768,0.613c0,0.457-0.314,0.762-0.768,0.762h-9.172C16.911,13.277,16.61,12.973,16.61,12.516 M16.61,10.221
	c0-0.307,0.301-0.61,0.613-0.61h9.172c0.453,0,0.768,0.304,0.768,0.61c0,0.461-0.314,0.766-0.768,0.766h-9.172
	C16.911,10.986,16.61,10.682,16.61,10.221"/>
<g>
	<path style="fill:#5E5E5E;" d="M49.308,25.559V14.854h-3.823v-2.18h10.239v2.18h-3.814v10.705H49.308z"/>
	<path style="fill:#5E5E5E;" d="M56.053,25.559v-2.47h2.47v2.47H56.053z"/>
	<path style="fill:#5E5E5E;" d="M63.329,25.559V12.674h2.602v12.885H63.329z"/>
	<path style="fill:#5E5E5E;" d="M75.62,25.559h-2.294v-1.371c-0.381,0.533-0.831,0.93-1.349,1.191
		c-0.519,0.26-1.042,0.391-1.569,0.391c-1.072,0-1.991-0.432-2.755-1.297c-0.765-0.863-1.147-2.069-1.147-3.616
		c0-1.582,0.372-2.784,1.116-3.608c0.744-0.822,1.685-1.234,2.821-1.234c1.043,0,1.945,0.434,2.707,1.301v-4.641h2.47V25.559z
		 M69.028,20.689c0,0.996,0.138,1.717,0.413,2.162c0.398,0.645,0.955,0.967,1.67,0.967c0.568,0,1.052-0.242,1.45-0.725
		c0.398-0.484,0.598-1.206,0.598-2.167c0-1.072-0.193-1.845-0.58-2.315c-0.387-0.473-0.882-0.708-1.485-0.708
		c-0.586,0-1.077,0.233-1.472,0.698C69.226,19.068,69.028,19.764,69.028,20.689z"/>
	<path style="fill:#5E5E5E;" d="M82.128,22.588l2.461,0.413c-0.316,0.902-0.816,1.589-1.499,2.062
		c-0.683,0.471-1.537,0.707-2.562,0.707c-1.623,0-2.824-0.53-3.604-1.591c-0.615-0.85-0.923-1.922-0.923-3.217
		c0-1.547,0.404-2.759,1.213-3.634c0.809-0.877,1.831-1.314,3.067-1.314c1.389,0,2.484,0.459,3.287,1.375
		c0.803,0.918,1.187,2.322,1.151,4.215h-6.188c0.018,0.732,0.217,1.303,0.598,1.709c0.381,0.408,0.855,0.611,1.424,0.611
		c0.387,0,0.712-0.105,0.976-0.316S81.993,23.057,82.128,22.588z M82.269,20.092c-0.018-0.715-0.202-1.258-0.554-1.631
		c-0.352-0.371-0.779-0.558-1.283-0.558c-0.539,0-0.984,0.196-1.336,0.589s-0.524,0.926-0.519,1.6H82.269z"/>
	<path style="fill:#5E5E5E;" d="M93.892,25.559h-2.47v-4.764c0-1.008-0.053-1.66-0.158-1.955c-0.105-0.297-0.277-0.526-0.514-0.69
		s-0.523-0.246-0.857-0.246c-0.428,0-0.812,0.117-1.151,0.352s-0.573,0.545-0.699,0.932s-0.189,1.102-0.189,2.145v4.228h-2.47
		v-9.334h2.294v1.371c0.814-1.055,1.84-1.582,3.076-1.582c0.545,0,1.043,0.098,1.494,0.295c0.451,0.195,0.792,0.446,1.024,0.751
		s0.393,0.65,0.483,1.037s0.136,0.94,0.136,1.661V25.559z"/>
	<path style="fill:#5E5E5E;" d="M99.345,16.225v1.969h-1.688v3.762c0,0.762,0.016,1.205,0.048,1.332
		c0.032,0.125,0.105,0.229,0.22,0.312s0.253,0.123,0.417,0.123c0.229,0,0.56-0.079,0.993-0.237l0.211,1.916
		c-0.574,0.246-1.225,0.369-1.951,0.369c-0.445,0-0.847-0.074-1.204-0.225c-0.357-0.148-0.62-0.342-0.787-0.58
		c-0.167-0.236-0.283-0.558-0.347-0.962c-0.053-0.287-0.079-0.867-0.079-1.74v-4.069h-1.134v-1.969h1.134V14.37l2.479-1.441v3.296
		H99.345z"/>
	<path style="fill:#5E5E5E;" d="M99.727,14.959v-2.285h2.47v2.285H99.727z M99.727,25.559v-9.334h2.47v9.334H99.727z"/>
	<path style="fill:#5E5E5E;" d="M102.315,16.225h1.371v-0.703c0-0.785,0.083-1.371,0.25-1.758s0.475-0.701,0.923-0.945
		c0.448-0.242,1.015-0.364,1.701-0.364c0.703,0,1.392,0.105,2.065,0.316l-0.334,1.723c-0.393-0.094-0.771-0.141-1.134-0.141
		c-0.357,0-0.614,0.083-0.769,0.251c-0.155,0.166-0.233,0.487-0.233,0.962v0.659h1.846v1.942h-1.846v7.392h-2.47v-7.392h-1.371
		V16.225z"/>
	<path style="fill:#5E5E5E;" d="M108.058,14.959v-2.285h2.47v2.285H108.058z M108.058,25.559v-9.334h2.47v9.334H108.058z"/>
	<path style="fill:#5E5E5E;" d="M119.866,18.984l-2.435,0.439c-0.082-0.486-0.268-0.853-0.558-1.099s-0.667-0.369-1.129-0.369
		c-0.615,0-1.106,0.212-1.472,0.638c-0.366,0.424-0.549,1.135-0.549,2.131c0,1.107,0.186,1.89,0.558,2.347s0.872,0.686,1.499,0.686
		c0.469,0,0.853-0.134,1.151-0.399c0.299-0.268,0.51-0.726,0.633-1.376l2.426,0.413c-0.252,1.113-0.735,1.954-1.45,2.522
		s-1.673,0.853-2.874,0.853c-1.365,0-2.454-0.431-3.265-1.292s-1.217-2.054-1.217-3.577c0-1.541,0.407-2.74,1.222-3.6
		c0.814-0.857,1.916-1.287,3.305-1.287c1.137,0,2.041,0.244,2.711,0.734C119.091,17.236,119.573,17.982,119.866,18.984z"/>
	<path style="fill:#5E5E5E;" d="M122.252,19.072l-2.241-0.404c0.252-0.902,0.686-1.57,1.301-2.004s1.529-0.65,2.742-0.65
		c1.102,0,1.922,0.131,2.461,0.391c0.539,0.262,0.918,0.592,1.138,0.994c0.22,0.4,0.33,1.138,0.33,2.21l-0.026,2.883
		c0,0.82,0.04,1.425,0.119,1.815c0.079,0.389,0.227,0.807,0.444,1.252h-2.443c-0.064-0.164-0.144-0.407-0.237-0.729
		c-0.041-0.146-0.07-0.243-0.088-0.29c-0.422,0.41-0.873,0.718-1.354,0.923s-0.993,0.308-1.538,0.308
		c-0.961,0-1.718-0.261-2.272-0.782s-0.831-1.181-0.831-1.978c0-0.527,0.126-0.998,0.378-1.41c0.252-0.414,0.605-0.73,1.059-0.949
		c0.454-0.221,1.109-0.412,1.964-0.576c1.154-0.217,1.954-0.419,2.399-0.606v-0.246c0-0.475-0.117-0.813-0.352-1.015
		c-0.234-0.203-0.677-0.304-1.327-0.304c-0.439,0-0.782,0.087-1.028,0.259C122.603,18.336,122.404,18.639,122.252,19.072z
		 M125.556,21.076c-0.316,0.105-0.817,0.231-1.503,0.378s-1.134,0.29-1.345,0.431c-0.322,0.229-0.483,0.519-0.483,0.87
		c0,0.346,0.129,0.645,0.387,0.896s0.586,0.378,0.984,0.378c0.445,0,0.87-0.146,1.274-0.439c0.299-0.223,0.495-0.495,0.589-0.817
		c0.064-0.211,0.097-0.612,0.097-1.204V21.076z"/>
	<path style="fill:#5E5E5E;" d="M131.449,25.559h-2.47v-9.334h2.294v1.327c0.393-0.627,0.746-1.04,1.059-1.239
		s0.669-0.299,1.068-0.299c0.563,0,1.104,0.155,1.626,0.466l-0.765,2.153c-0.416-0.27-0.803-0.404-1.16-0.404
		c-0.346,0-0.639,0.096-0.879,0.285c-0.24,0.191-0.429,0.535-0.567,1.033s-0.207,1.541-0.207,3.129V25.559z"/>
	<path style="fill:#5E5E5E;" d="M138.356,16.225h2.303v1.371c0.299-0.469,0.703-0.85,1.213-1.143s1.075-0.439,1.696-0.439
		c1.084,0,2.004,0.425,2.76,1.274s1.134,2.033,1.134,3.551c0,1.559-0.381,2.771-1.143,3.634c-0.762,0.865-1.685,1.297-2.769,1.297
		c-0.516,0-0.983-0.103-1.402-0.308s-0.86-0.557-1.323-1.055v4.702h-2.47V16.225z M140.799,20.733c0,1.049,0.208,1.823,0.624,2.325
		c0.416,0.5,0.923,0.751,1.521,0.751c0.574,0,1.052-0.229,1.433-0.69c0.381-0.459,0.571-1.214,0.571-2.263
		c0-0.979-0.196-1.705-0.589-2.18s-0.879-0.712-1.459-0.712c-0.604,0-1.104,0.232-1.503,0.699
		C140.999,19.129,140.799,19.819,140.799,20.733z"/>
	<path style="fill:#5E5E5E;" d="M150.454,25.559h-2.47v-9.334h2.294v1.327c0.393-0.627,0.746-1.04,1.059-1.239
		s0.669-0.299,1.068-0.299c0.563,0,1.104,0.155,1.626,0.466l-0.765,2.153c-0.416-0.27-0.803-0.404-1.16-0.404
		c-0.346,0-0.639,0.096-0.879,0.285c-0.24,0.191-0.429,0.535-0.567,1.033s-0.207,1.541-0.207,3.129V25.559z"/>
	<path style="fill:#5E5E5E;" d="M153.191,20.76c0-0.82,0.202-1.614,0.606-2.382s0.977-1.354,1.718-1.758s1.569-0.606,2.483-0.606
		c1.412,0,2.569,0.459,3.472,1.375c0.902,0.918,1.354,2.076,1.354,3.477c0,1.412-0.456,2.582-1.367,3.512
		c-0.911,0.928-2.058,1.393-3.441,1.393c-0.855,0-1.671-0.193-2.448-0.58s-1.367-0.953-1.771-1.701
		C153.393,22.742,153.191,21.832,153.191,20.76z M155.722,20.892c0,0.926,0.22,1.635,0.659,2.127s0.981,0.738,1.626,0.738
		s1.185-0.246,1.622-0.738s0.655-1.207,0.655-2.145c0-0.914-0.218-1.617-0.655-2.109s-0.977-0.738-1.622-0.738
		s-1.187,0.246-1.626,0.738S155.722,19.966,155.722,20.892z"/>
	<path style="fill:#5E5E5E;" d="M171.564,18.984l-2.435,0.439c-0.082-0.486-0.268-0.853-0.558-1.099s-0.667-0.369-1.129-0.369
		c-0.615,0-1.106,0.212-1.472,0.638c-0.366,0.424-0.549,1.135-0.549,2.131c0,1.107,0.186,1.89,0.558,2.347s0.872,0.686,1.499,0.686
		c0.469,0,0.853-0.134,1.151-0.399c0.299-0.268,0.51-0.726,0.633-1.376l2.426,0.413c-0.252,1.113-0.735,1.954-1.45,2.522
		s-1.673,0.853-2.874,0.853c-1.365,0-2.454-0.431-3.265-1.292s-1.217-2.054-1.217-3.577c0-1.541,0.407-2.74,1.222-3.6
		c0.814-0.857,1.916-1.287,3.305-1.287c1.137,0,2.041,0.244,2.711,0.734C170.789,17.236,171.271,17.982,171.564,18.984z"/>
	<path style="fill:#5E5E5E;" d="M177.509,22.588l2.461,0.413c-0.316,0.902-0.816,1.589-1.499,2.062
		c-0.683,0.471-1.537,0.707-2.562,0.707c-1.623,0-2.824-0.53-3.604-1.591c-0.615-0.85-0.923-1.922-0.923-3.217
		c0-1.547,0.404-2.759,1.213-3.634c0.809-0.877,1.831-1.314,3.067-1.314c1.389,0,2.484,0.459,3.287,1.375
		c0.803,0.918,1.187,2.322,1.151,4.215h-6.188c0.018,0.732,0.217,1.303,0.598,1.709c0.381,0.408,0.855,0.611,1.424,0.611
		c0.387,0,0.712-0.105,0.976-0.316S177.375,23.057,177.509,22.588z M177.65,20.092c-0.018-0.715-0.202-1.258-0.554-1.631
		c-0.352-0.371-0.779-0.558-1.283-0.558c-0.539,0-0.984,0.196-1.336,0.589s-0.524,0.926-0.519,1.6H177.65z"/>
	<path style="fill:#5E5E5E;" d="M179.913,22.896l2.479-0.378c0.105,0.48,0.319,0.846,0.642,1.094
		c0.322,0.25,0.773,0.374,1.354,0.374c0.639,0,1.119-0.117,1.441-0.352c0.217-0.164,0.325-0.384,0.325-0.659
		c0-0.188-0.059-0.343-0.176-0.466c-0.123-0.117-0.398-0.226-0.826-0.325c-1.992-0.439-3.255-0.841-3.788-1.204
		c-0.738-0.504-1.107-1.204-1.107-2.101c0-0.809,0.319-1.488,0.958-2.039s1.629-0.826,2.971-0.826c1.277,0,2.227,0.208,2.848,0.624
		s1.049,1.031,1.283,1.846l-2.329,0.431c-0.1-0.363-0.289-0.642-0.567-0.835s-0.675-0.29-1.191-0.29
		c-0.65,0-1.116,0.091-1.397,0.272c-0.188,0.129-0.281,0.296-0.281,0.501c0,0.176,0.082,0.325,0.246,0.448
		c0.223,0.164,0.992,0.396,2.307,0.694s2.234,0.665,2.755,1.099c0.516,0.439,0.773,1.052,0.773,1.837
		c0,0.855-0.357,1.591-1.072,2.206s-1.772,0.923-3.173,0.923c-1.271,0-2.278-0.258-3.019-0.773S180.141,23.78,179.913,22.896z"/>
	<path style="fill:#5E5E5E;" d="M188.89,20.76c0-0.82,0.202-1.614,0.606-2.382s0.977-1.354,1.718-1.758s1.569-0.606,2.483-0.606
		c1.412,0,2.569,0.459,3.472,1.375c0.902,0.918,1.354,2.076,1.354,3.477c0,1.412-0.456,2.582-1.367,3.512
		c-0.911,0.928-2.058,1.393-3.441,1.393c-0.855,0-1.671-0.193-2.448-0.58s-1.367-0.953-1.771-1.701
		C189.092,22.742,188.89,21.832,188.89,20.76z M191.422,20.892c0,0.926,0.22,1.635,0.659,2.127s0.981,0.738,1.626,0.738
		s1.185-0.246,1.622-0.738s0.655-1.207,0.655-2.145c0-0.914-0.218-1.617-0.655-2.109s-0.977-0.738-1.622-0.738
		s-1.187,0.246-1.626,0.738S191.422,19.966,191.422,20.892z"/>
	<path style="fill:#5E5E5E;" d="M198.255,22.896l2.479-0.378c0.105,0.48,0.319,0.846,0.642,1.094
		c0.322,0.25,0.773,0.374,1.354,0.374c0.639,0,1.119-0.117,1.441-0.352c0.217-0.164,0.325-0.384,0.325-0.659
		c0-0.188-0.059-0.343-0.176-0.466c-0.123-0.117-0.398-0.226-0.826-0.325c-1.992-0.439-3.255-0.841-3.788-1.204
		c-0.738-0.504-1.107-1.204-1.107-2.101c0-0.809,0.319-1.488,0.958-2.039s1.629-0.826,2.971-0.826c1.277,0,2.227,0.208,2.848,0.624
		s1.049,1.031,1.283,1.846l-2.329,0.431c-0.1-0.363-0.289-0.642-0.567-0.835s-0.675-0.29-1.191-0.29
		c-0.65,0-1.116,0.091-1.397,0.272c-0.188,0.129-0.281,0.296-0.281,0.501c0,0.176,0.082,0.325,0.246,0.448
		c0.223,0.164,0.992,0.396,2.307,0.694s2.234,0.665,2.755,1.099c0.516,0.439,0.773,1.052,0.773,1.837
		c0,0.855-0.357,1.591-1.072,2.206s-1.772,0.923-3.173,0.923c-1.271,0-2.278-0.258-3.019-0.773S198.483,23.78,198.255,22.896z"/>
</g>
<g style="opacity:0.5;">
	<g>
		<defs>
			<rect id="SVGID_13_" x="0" y="40.824" width="233.61" height="7.17"/>
		</defs>
		<clipPath id="SVGID_2_">
			<use xlink:href="#SVGID_13_"  style="overflow:visible;"/>
		</clipPath>
		<polygon style="clip-path:url(#SVGID_2_);fill:#2C6882;" points="233.61,47.994 0,40.824 233.61,40.824 		"/>
	</g>
</g>
</svg>
