<?xml version="1.0" encoding="utf-8"?>
<!-- Generator: Adobe Illustrator 17.0.0, SVG Export Plug-In . SVG Version: 6.00 Build 0)  -->
<!DOCTYPE svg PUBLIC "-//W3C//DTD SVG 1.1//EN" "http://www.w3.org/Graphics/SVG/1.1/DTD/svg11.dtd">
<svg version="1.1" id="Capa_1" xmlns="http://www.w3.org/2000/svg" xmlns:xlink="http://www.w3.org/1999/xlink" x="0px" y="0px"
	 width="247.638px" height="58.139px" viewBox="0 0 247.638 58.139" style="enable-background:new 0 0 247.638 58.139;"
	 xml:space="preserve">
<polygon style="fill-rule:evenodd;clip-rule:evenodd;fill:#A8A8A8;" points="233.61,58.139 247.638,40.354 237.212,20.186 
	233.61,20.188 "/>
<g style="opacity:0.5;">
	<g>
		<defs>
			<rect id="SVGID_5_" x="0" y="40.824" width="233.61" height="7.17"/>
		</defs>
		<clipPath id="SVGID_2_">
			<use xlink:href="#SVGID_5_"  style="overflow:visible;"/>
		</clipPath>
		<polygon style="clip-path:url(#SVGID_2_);fill:#2C6882;" points="233.61,47.994 0,40.824 233.61,40.824 		"/>
	</g>
</g>
<rect x="0" y="0" style="fill-rule:evenodd;clip-rule:evenodd;fill:#FFFFFF;" width="247.638" height="40.354"/>
<rect x="2.071" y="1.739" style="fill-rule:evenodd;clip-rule:evenodd;fill:#2C6882;" width="243.495" height="36.875"/>
<g>
	<g>
		<path style="fill:#FFFFFF;" d="M46.373,25.559V12.674h3.893l2.338,8.789l2.313-8.789h3.902v12.885H56.4V15.416l-2.557,10.143
			h-2.506l-2.549-10.143v10.143H46.373z"/>
		<path style="fill:#FFFFFF;" d="M61.898,19.072l-2.242-0.404c0.252-0.902,0.686-1.57,1.301-2.004s1.529-0.65,2.742-0.65
			c1.102,0,1.922,0.13,2.461,0.391s0.919,0.592,1.139,0.993s0.33,1.138,0.33,2.21l-0.027,2.883c0,0.82,0.04,1.425,0.119,1.815
			s0.227,0.807,0.443,1.252H65.72c-0.064-0.164-0.143-0.407-0.236-0.729c-0.041-0.146-0.07-0.243-0.088-0.29
			c-0.422,0.41-0.873,0.718-1.354,0.923c-0.48,0.205-0.994,0.308-1.539,0.308c-0.961,0-1.718-0.261-2.271-0.782
			s-0.83-1.181-0.83-1.978c0-0.527,0.125-0.998,0.377-1.411s0.605-0.729,1.06-0.949s1.108-0.412,1.964-0.576
			c1.154-0.217,1.955-0.419,2.4-0.606v-0.246c0-0.475-0.117-0.813-0.352-1.015s-0.678-0.303-1.328-0.303
			c-0.439,0-0.781,0.086-1.027,0.259S62.05,18.639,61.898,19.072z M65.203,21.076c-0.316,0.105-0.818,0.231-1.504,0.378
			c-0.686,0.146-1.133,0.29-1.344,0.431c-0.322,0.229-0.484,0.519-0.484,0.87c0,0.346,0.129,0.645,0.387,0.896
			s0.586,0.378,0.984,0.378c0.445,0,0.871-0.146,1.275-0.439c0.299-0.223,0.494-0.495,0.588-0.817
			c0.064-0.211,0.098-0.612,0.098-1.204V21.076z"/>
		<path style="fill:#FFFFFF;" d="M68.66,16.225h2.303v1.371c0.299-0.469,0.703-0.85,1.213-1.143s1.076-0.439,1.697-0.439
			c1.084,0,2.004,0.425,2.76,1.274s1.133,2.033,1.133,3.551c0,1.559-0.381,2.77-1.143,3.634s-1.684,1.296-2.768,1.296
			c-0.516,0-0.983-0.103-1.402-0.308s-0.859-0.557-1.322-1.055v4.702H68.66V16.225z M71.103,20.733c0,1.049,0.209,1.824,0.625,2.325
			s0.922,0.751,1.52,0.751c0.574,0,1.053-0.23,1.434-0.69s0.57-1.214,0.57-2.263c0-0.979-0.195-1.705-0.588-2.18
			s-0.879-0.712-1.459-0.712c-0.604,0-1.105,0.233-1.504,0.699S71.103,19.819,71.103,20.733z"/>
		<path style="fill:#FFFFFF;" d="M80.24,19.072l-2.242-0.404c0.252-0.902,0.686-1.57,1.301-2.004s1.529-0.65,2.742-0.65
			c1.102,0,1.922,0.13,2.461,0.391s0.919,0.592,1.139,0.993s0.33,1.138,0.33,2.21l-0.027,2.883c0,0.82,0.04,1.425,0.119,1.815
			s0.227,0.807,0.443,1.252h-2.443c-0.064-0.164-0.143-0.407-0.236-0.729c-0.041-0.146-0.07-0.243-0.088-0.29
			c-0.422,0.41-0.873,0.718-1.354,0.923s-0.994,0.308-1.539,0.308c-0.961,0-1.718-0.261-2.271-0.782s-0.83-1.181-0.83-1.978
			c0-0.527,0.125-0.998,0.377-1.411s0.605-0.729,1.06-0.949s1.108-0.412,1.964-0.576c1.154-0.217,1.955-0.419,2.4-0.606v-0.246
			c0-0.475-0.117-0.813-0.352-1.015s-0.678-0.303-1.328-0.303c-0.439,0-0.781,0.086-1.027,0.259S80.392,18.639,80.24,19.072z
			 M83.544,21.076c-0.316,0.105-0.818,0.231-1.504,0.378s-1.133,0.29-1.344,0.431c-0.322,0.229-0.484,0.519-0.484,0.87
			c0,0.346,0.129,0.645,0.387,0.896s0.586,0.378,0.984,0.378c0.445,0,0.871-0.146,1.275-0.439c0.299-0.223,0.494-0.495,0.588-0.817
			c0.064-0.211,0.098-0.612,0.098-1.204V21.076z"/>
		<path style="fill:#FFFFFF;" d="M99.302,25.559h-2.295v-1.371c-0.381,0.533-0.83,0.93-1.349,1.191s-1.042,0.391-1.569,0.391
			c-1.072,0-1.99-0.432-2.755-1.296s-1.147-2.07-1.147-3.617c0-1.582,0.373-2.785,1.117-3.608s1.684-1.235,2.82-1.235
			c1.043,0,1.945,0.434,2.707,1.301v-4.641h2.471V25.559z M92.71,20.689c0,0.996,0.137,1.717,0.412,2.162
			c0.398,0.645,0.955,0.967,1.67,0.967c0.568,0,1.053-0.242,1.451-0.725s0.598-1.206,0.598-2.167c0-1.072-0.193-1.844-0.58-2.316
			s-0.883-0.708-1.486-0.708c-0.586,0-1.076,0.233-1.472,0.699S92.71,19.764,92.71,20.689z"/>
		<path style="fill:#FFFFFF;" d="M105.81,22.588l2.461,0.413c-0.316,0.902-0.816,1.589-1.499,2.061s-1.536,0.708-2.562,0.708
			c-1.623,0-2.824-0.53-3.604-1.591c-0.615-0.85-0.924-1.922-0.924-3.217c0-1.547,0.404-2.758,1.213-3.634s1.832-1.314,3.068-1.314
			c1.389,0,2.484,0.458,3.287,1.375s1.186,2.322,1.15,4.214h-6.188c0.018,0.732,0.217,1.302,0.598,1.709s0.855,0.611,1.424,0.611
			c0.387,0,0.713-0.105,0.977-0.316S105.675,23.057,105.81,22.588z M105.951,20.092c-0.018-0.715-0.203-1.258-0.555-1.63
			s-0.779-0.558-1.283-0.558c-0.539,0-0.984,0.196-1.336,0.589s-0.523,0.926-0.518,1.6H105.951z"/>
		<path style="fill:#FFFFFF;" d="M112.682,16.225h2.303v1.371c0.299-0.469,0.703-0.85,1.213-1.143s1.075-0.439,1.696-0.439
			c1.084,0,2.004,0.425,2.76,1.274s1.134,2.033,1.134,3.551c0,1.559-0.381,2.77-1.143,3.634s-1.685,1.296-2.769,1.296
			c-0.516,0-0.982-0.103-1.402-0.308c-0.418-0.205-0.859-0.557-1.322-1.055v4.702h-2.47V16.225z M115.126,20.733
			c0,1.049,0.208,1.824,0.624,2.325s0.923,0.751,1.521,0.751c0.574,0,1.052-0.23,1.433-0.69s0.571-1.214,0.571-2.263
			c0-0.979-0.196-1.705-0.589-2.18s-0.879-0.712-1.459-0.712c-0.604,0-1.104,0.233-1.503,0.699S115.126,19.819,115.126,20.733z"/>
		<path style="fill:#FFFFFF;" d="M124.78,25.559h-2.47v-9.334h2.294v1.327c0.393-0.627,0.745-1.04,1.06-1.239
			c0.313-0.199,0.669-0.299,1.067-0.299c0.563,0,1.104,0.155,1.626,0.466l-0.765,2.153c-0.416-0.27-0.803-0.404-1.16-0.404
			c-0.346,0-0.639,0.095-0.879,0.286s-0.429,0.535-0.567,1.033c-0.137,0.498-0.206,1.541-0.206,3.129V25.559z"/>
		<path style="fill:#FFFFFF;" d="M127.517,20.76c0-0.82,0.202-1.614,0.606-2.382c0.404-0.768,0.978-1.354,1.718-1.758
			c0.742-0.404,1.569-0.606,2.483-0.606c1.412,0,2.569,0.458,3.472,1.375s1.354,2.076,1.354,3.476c0,1.412-0.455,2.583-1.367,3.511
			c-0.91,0.929-2.058,1.393-3.44,1.393c-0.855,0-1.671-0.193-2.448-0.58c-0.775-0.387-1.366-0.954-1.771-1.701
			C127.719,22.742,127.517,21.832,127.517,20.76z M130.048,20.892c0,0.926,0.22,1.635,0.659,2.127s0.981,0.738,1.626,0.738
			s1.186-0.246,1.621-0.738c0.438-0.492,0.655-1.207,0.655-2.145c0-0.914-0.218-1.617-0.655-2.109
			c-0.436-0.492-0.977-0.738-1.621-0.738s-1.187,0.246-1.626,0.738S130.048,19.966,130.048,20.892z"/>
		<path style="fill:#FFFFFF;" d="M145.89,18.984l-2.435,0.439c-0.082-0.486-0.269-0.853-0.558-1.099
			c-0.291-0.246-0.667-0.369-1.13-0.369c-0.615,0-1.106,0.212-1.472,0.637c-0.367,0.425-0.55,1.135-0.55,2.131
			c0,1.107,0.187,1.89,0.558,2.347c0.373,0.457,0.872,0.686,1.499,0.686c0.469,0,0.853-0.133,1.151-0.4s0.51-0.725,0.633-1.375
			l2.426,0.413c-0.252,1.113-0.735,1.954-1.45,2.522s-1.673,0.853-2.874,0.853c-1.365,0-2.453-0.431-3.266-1.292
			c-0.811-0.861-1.217-2.054-1.217-3.577c0-1.541,0.407-2.741,1.222-3.599s1.916-1.288,3.305-1.288c1.137,0,2.04,0.245,2.712,0.734
			C145.115,17.237,145.597,17.982,145.89,18.984z"/>
		<path style="fill:#FFFFFF;" d="M151.835,22.588l2.461,0.413c-0.316,0.902-0.816,1.589-1.498,2.061
			c-0.684,0.472-1.537,0.708-2.563,0.708c-1.623,0-2.824-0.53-3.604-1.591c-0.615-0.85-0.923-1.922-0.923-3.217
			c0-1.547,0.404-2.758,1.213-3.634s1.831-1.314,3.067-1.314c1.389,0,2.484,0.458,3.287,1.375s1.187,2.322,1.151,4.214h-6.188
			c0.018,0.732,0.217,1.302,0.598,1.709s0.855,0.611,1.424,0.611c0.387,0,0.712-0.105,0.976-0.316S151.701,23.057,151.835,22.588z
			 M151.976,20.092c-0.018-0.715-0.202-1.258-0.554-1.63s-0.779-0.558-1.283-0.558c-0.539,0-0.984,0.196-1.336,0.589
			s-0.524,0.926-0.519,1.6H151.976z"/>
		<path style="fill:#FFFFFF;" d="M154.239,22.896l2.479-0.378c0.105,0.48,0.319,0.845,0.642,1.094s0.773,0.374,1.354,0.374
			c0.639,0,1.119-0.117,1.441-0.352c0.217-0.164,0.325-0.384,0.325-0.659c0-0.188-0.059-0.343-0.176-0.466
			c-0.123-0.117-0.398-0.226-0.826-0.325c-1.992-0.439-3.255-0.841-3.788-1.204c-0.738-0.504-1.107-1.204-1.107-2.101
			c0-0.809,0.319-1.488,0.958-2.039s1.629-0.826,2.971-0.826c1.277,0,2.227,0.208,2.848,0.624s1.049,1.031,1.283,1.846l-2.329,0.431
			c-0.1-0.363-0.289-0.642-0.566-0.835c-0.279-0.193-0.676-0.29-1.191-0.29c-0.65,0-1.116,0.091-1.397,0.272
			c-0.188,0.129-0.281,0.296-0.281,0.501c0,0.176,0.082,0.325,0.246,0.448c0.223,0.164,0.991,0.396,2.308,0.694
			c1.314,0.299,2.233,0.665,2.755,1.099c0.516,0.439,0.773,1.052,0.773,1.837c0,0.855-0.357,1.591-1.072,2.206
			s-1.772,0.923-3.173,0.923c-1.271,0-2.277-0.258-3.02-0.773C154.953,24.481,154.467,23.78,154.239,22.896z"/>
		<path style="fill:#FFFFFF;" d="M163.216,20.76c0-0.82,0.202-1.614,0.606-2.382s0.978-1.354,1.718-1.758
			c0.742-0.404,1.569-0.606,2.483-0.606c1.412,0,2.569,0.458,3.472,1.375s1.354,2.076,1.354,3.476c0,1.412-0.455,2.583-1.367,3.511
			c-0.91,0.929-2.058,1.393-3.44,1.393c-0.855,0-1.671-0.193-2.448-0.58c-0.775-0.387-1.366-0.954-1.771-1.701
			S163.216,21.832,163.216,20.76z M165.748,20.892c0,0.926,0.22,1.635,0.659,2.127s0.981,0.738,1.626,0.738s1.186-0.246,1.621-0.738
			c0.438-0.492,0.655-1.207,0.655-2.145c0-0.914-0.218-1.617-0.655-2.109c-0.436-0.492-0.977-0.738-1.621-0.738
			s-1.187,0.246-1.626,0.738S165.748,19.966,165.748,20.892z"/>
		<path style="fill:#FFFFFF;" d="M172.581,22.896l2.479-0.378c0.105,0.48,0.319,0.845,0.642,1.094s0.773,0.374,1.354,0.374
			c0.639,0,1.119-0.117,1.441-0.352c0.217-0.164,0.325-0.384,0.325-0.659c0-0.188-0.059-0.343-0.176-0.466
			c-0.123-0.117-0.398-0.226-0.826-0.325c-1.992-0.439-3.255-0.841-3.788-1.204c-0.738-0.504-1.107-1.204-1.107-2.101
			c0-0.809,0.319-1.488,0.958-2.039s1.629-0.826,2.971-0.826c1.277,0,2.227,0.208,2.848,0.624s1.049,1.031,1.283,1.846l-2.329,0.431
			c-0.1-0.363-0.289-0.642-0.566-0.835c-0.279-0.193-0.676-0.29-1.191-0.29c-0.65,0-1.116,0.091-1.397,0.272
			c-0.188,0.129-0.281,0.296-0.281,0.501c0,0.176,0.082,0.325,0.246,0.448c0.223,0.164,0.991,0.396,2.308,0.694
			c1.314,0.299,2.233,0.665,2.755,1.099c0.516,0.439,0.773,1.052,0.773,1.837c0,0.855-0.357,1.591-1.072,2.206
			s-1.772,0.923-3.173,0.923c-1.271,0-2.277-0.258-3.02-0.773C173.294,24.481,172.809,23.78,172.581,22.896z"/>
	</g>
</g>
<g>
	<path style="fill:#FFFFFF;stroke:#000000;stroke-width:0.5;stroke-miterlimit:10;" d="M30.406,24.422
		c-0.973,0-1.864,0.331-2.581,0.879l-7.389-4.43c0.038-0.226,0.063-0.457,0.063-0.695s-0.025-0.468-0.063-0.694l7.389-4.433
		c0.717,0.551,1.608,0.881,2.581,0.881c2.346,0,4.247-1.9,4.247-4.245c0-2.346-1.901-4.246-4.247-4.246
		c-2.345,0-4.246,1.9-4.246,4.246c0,0.235,0.026,0.469,0.061,0.694l-7.386,4.432c-0.717-0.549-1.608-0.881-2.58-0.881
		c-2.347,0-4.248,1.899-4.248,4.246c0,2.345,1.901,4.246,4.248,4.246c0.972,0,1.863-0.331,2.58-0.881l7.386,4.432
		c-0.034,0.227-0.061,0.459-0.061,0.693c0,2.347,1.901,4.248,4.246,4.248c2.346,0,4.247-1.901,4.247-4.248
		C34.653,26.323,32.752,24.422,30.406,24.422z"/>
</g>
</svg>
