<?xml version="1.0" encoding="utf-8"?>
<!-- Generator: Adobe Illustrator 17.0.0, SVG Export Plug-In . SVG Version: 6.00 Build 0)  -->
<!DOCTYPE svg PUBLIC "-//W3C//DTD SVG 1.1//EN" "http://www.w3.org/Graphics/SVG/1.1/DTD/svg11.dtd">
<svg version="1.1" id="Capa_1" xmlns="http://www.w3.org/2000/svg" xmlns:xlink="http://www.w3.org/1999/xlink" x="0px" y="0px"
	 width="247.638px" height="58.139px" viewBox="0 0 247.638 58.139" style="enable-background:new 0 0 247.638 58.139;"
	 xml:space="preserve">
<polygon style="fill-rule:evenodd;clip-rule:evenodd;fill:#A8A8A8;" points="233.61,58.139 247.638,40.354 237.212,20.186 
	233.61,20.188 "/>
<rect x="0" y="0" style="fill-rule:evenodd;clip-rule:evenodd;fill:#FFFFFF;" width="247.638" height="40.354"/>
<g>
	<path style="fill:#5E5E5E;" d="M46.372,25.559V12.674h3.894l2.338,8.789l2.312-8.789h3.902v12.885h-2.417V15.416l-2.558,10.143
		h-2.505l-2.549-10.143v10.143H46.372z"/>
	<path style="fill:#5E5E5E;" d="M61.898,19.072l-2.241-0.404c0.252-0.902,0.686-1.57,1.301-2.004s1.529-0.65,2.742-0.65
		c1.102,0,1.922,0.13,2.461,0.391s0.918,0.592,1.138,0.993s0.33,1.138,0.33,2.21l-0.026,2.883c0,0.82,0.04,1.425,0.119,1.815
		s0.227,0.807,0.444,1.252h-2.443c-0.064-0.164-0.144-0.407-0.237-0.729c-0.041-0.146-0.07-0.243-0.088-0.29
		c-0.422,0.41-0.873,0.718-1.354,0.923s-0.993,0.308-1.538,0.308c-0.961,0-1.718-0.261-2.272-0.782s-0.831-1.181-0.831-1.978
		c0-0.527,0.126-0.998,0.378-1.411s0.605-0.729,1.059-0.949s1.109-0.412,1.964-0.576c1.154-0.217,1.954-0.419,2.399-0.606v-0.246
		c0-0.475-0.117-0.813-0.352-1.015s-0.677-0.303-1.327-0.303c-0.439,0-0.782,0.086-1.028,0.259S62.05,18.639,61.898,19.072z
		 M65.202,21.076c-0.316,0.105-0.817,0.231-1.503,0.378s-1.134,0.29-1.345,0.431c-0.322,0.229-0.483,0.519-0.483,0.87
		c0,0.346,0.129,0.645,0.387,0.896s0.586,0.378,0.984,0.378c0.445,0,0.87-0.146,1.274-0.439c0.299-0.223,0.495-0.495,0.589-0.817
		c0.064-0.211,0.097-0.612,0.097-1.204V21.076z"/>
	<path style="fill:#5E5E5E;" d="M68.66,16.225h2.303v1.371c0.299-0.469,0.703-0.85,1.213-1.143s1.075-0.439,1.696-0.439
		c1.084,0,2.004,0.425,2.76,1.274s1.134,2.033,1.134,3.551c0,1.559-0.381,2.77-1.143,3.634s-1.685,1.296-2.769,1.296
		c-0.516,0-0.983-0.103-1.402-0.308s-0.86-0.557-1.323-1.055v4.702h-2.47V16.225z M71.104,20.733c0,1.049,0.208,1.824,0.624,2.325
		s0.923,0.751,1.521,0.751c0.574,0,1.052-0.23,1.433-0.69s0.571-1.214,0.571-2.263c0-0.979-0.196-1.705-0.589-2.18
		s-0.879-0.712-1.459-0.712c-0.604,0-1.104,0.233-1.503,0.699S71.104,19.819,71.104,20.733z"/>
	<path style="fill:#5E5E5E;" d="M80.239,19.072l-2.241-0.404c0.252-0.902,0.686-1.57,1.301-2.004s1.529-0.65,2.742-0.65
		c1.102,0,1.922,0.13,2.461,0.391s0.918,0.592,1.138,0.993s0.33,1.138,0.33,2.21l-0.026,2.883c0,0.82,0.04,1.425,0.119,1.815
		s0.227,0.807,0.444,1.252h-2.443c-0.064-0.164-0.144-0.407-0.237-0.729c-0.041-0.146-0.07-0.243-0.088-0.29
		c-0.422,0.41-0.873,0.718-1.354,0.923s-0.993,0.308-1.538,0.308c-0.961,0-1.718-0.261-2.272-0.782s-0.831-1.181-0.831-1.978
		c0-0.527,0.126-0.998,0.378-1.411s0.605-0.729,1.059-0.949s1.109-0.412,1.964-0.576c1.154-0.217,1.954-0.419,2.399-0.606v-0.246
		c0-0.475-0.117-0.813-0.352-1.015s-0.677-0.303-1.327-0.303c-0.439,0-0.782,0.086-1.028,0.259S80.392,18.639,80.239,19.072z
		 M83.544,21.076c-0.316,0.105-0.817,0.231-1.503,0.378s-1.134,0.29-1.345,0.431c-0.322,0.229-0.483,0.519-0.483,0.87
		c0,0.346,0.129,0.645,0.387,0.896s0.586,0.378,0.984,0.378c0.445,0,0.87-0.146,1.274-0.439c0.299-0.223,0.495-0.495,0.589-0.817
		c0.064-0.211,0.097-0.612,0.097-1.204V21.076z"/>
	<path style="fill:#5E5E5E;" d="M99.302,25.559h-2.294v-1.371c-0.381,0.533-0.831,0.93-1.349,1.191s-1.042,0.391-1.569,0.391
		c-1.072,0-1.991-0.432-2.755-1.296s-1.147-2.07-1.147-3.617c0-1.582,0.372-2.785,1.116-3.608s1.685-1.235,2.821-1.235
		c1.043,0,1.945,0.434,2.707,1.301v-4.641h2.47V25.559z M92.71,20.689c0,0.996,0.138,1.717,0.413,2.162
		c0.398,0.645,0.955,0.967,1.67,0.967c0.568,0,1.052-0.242,1.45-0.725s0.598-1.206,0.598-2.167c0-1.072-0.193-1.844-0.58-2.316
		s-0.882-0.708-1.485-0.708c-0.586,0-1.077,0.233-1.472,0.699S92.71,19.764,92.71,20.689z"/>
	<path style="fill:#5E5E5E;" d="M105.81,22.588l2.461,0.413c-0.316,0.902-0.816,1.589-1.499,2.061s-1.537,0.708-2.562,0.708
		c-1.623,0-2.824-0.53-3.604-1.591c-0.615-0.85-0.923-1.922-0.923-3.217c0-1.547,0.404-2.758,1.213-3.634s1.831-1.314,3.067-1.314
		c1.389,0,2.484,0.458,3.287,1.375s1.187,2.322,1.151,4.214h-6.188c0.018,0.732,0.217,1.302,0.598,1.709s0.855,0.611,1.424,0.611
		c0.387,0,0.712-0.105,0.976-0.316S105.675,23.057,105.81,22.588z M105.95,20.092c-0.018-0.715-0.202-1.258-0.554-1.63
		s-0.779-0.558-1.283-0.558c-0.539,0-0.984,0.196-1.336,0.589s-0.524,0.926-0.519,1.6H105.95z"/>
	<path style="fill:#5E5E5E;" d="M112.682,16.225h2.303v1.371c0.299-0.469,0.703-0.85,1.213-1.143s1.075-0.439,1.696-0.439
		c1.084,0,2.004,0.425,2.76,1.274s1.134,2.033,1.134,3.551c0,1.559-0.381,2.77-1.143,3.634s-1.685,1.296-2.769,1.296
		c-0.516,0-0.983-0.103-1.402-0.308s-0.86-0.557-1.323-1.055v4.702h-2.47V16.225z M115.126,20.733c0,1.049,0.208,1.824,0.624,2.325
		s0.923,0.751,1.521,0.751c0.574,0,1.052-0.23,1.433-0.69s0.571-1.214,0.571-2.263c0-0.979-0.196-1.705-0.589-2.18
		s-0.879-0.712-1.459-0.712c-0.604,0-1.104,0.233-1.503,0.699S115.126,19.819,115.126,20.733z"/>
	<path style="fill:#5E5E5E;" d="M124.78,25.559h-2.47v-9.334h2.294v1.327c0.393-0.627,0.746-1.04,1.059-1.239
		s0.669-0.299,1.068-0.299c0.563,0,1.104,0.155,1.626,0.466l-0.765,2.153c-0.416-0.27-0.803-0.404-1.16-0.404
		c-0.346,0-0.639,0.095-0.879,0.286s-0.429,0.535-0.567,1.033s-0.207,1.541-0.207,3.129V25.559z"/>
	<path style="fill:#5E5E5E;" d="M127.517,20.76c0-0.82,0.202-1.614,0.606-2.382c0.404-0.768,0.977-1.354,1.718-1.758
		s1.569-0.606,2.483-0.606c1.412,0,2.569,0.458,3.472,1.375s1.354,2.076,1.354,3.476c0,1.412-0.456,2.583-1.367,3.511
		s-2.058,1.393-3.441,1.393c-0.855,0-1.671-0.193-2.448-0.58s-1.367-0.954-1.771-1.701C127.719,22.742,127.517,21.832,127.517,20.76
		z M130.048,20.892c0,0.926,0.22,1.635,0.659,2.127s0.981,0.738,1.626,0.738s1.185-0.246,1.622-0.738s0.655-1.207,0.655-2.145
		c0-0.914-0.218-1.617-0.655-2.109s-0.977-0.738-1.622-0.738s-1.187,0.246-1.626,0.738S130.048,19.966,130.048,20.892z"/>
	<path style="fill:#5E5E5E;" d="M145.89,18.984l-2.435,0.439c-0.082-0.486-0.268-0.853-0.558-1.099s-0.667-0.369-1.129-0.369
		c-0.615,0-1.106,0.212-1.472,0.637s-0.549,1.135-0.549,2.131c0,1.107,0.186,1.89,0.558,2.347s0.872,0.686,1.499,0.686
		c0.469,0,0.853-0.133,1.151-0.4s0.51-0.725,0.633-1.375l2.426,0.413c-0.252,1.113-0.735,1.954-1.45,2.522s-1.673,0.853-2.874,0.853
		c-1.365,0-2.454-0.431-3.265-1.292s-1.217-2.054-1.217-3.577c0-1.541,0.407-2.741,1.222-3.599s1.916-1.288,3.305-1.288
		c1.137,0,2.041,0.245,2.711,0.734S145.597,17.982,145.89,18.984z"/>
	<path style="fill:#5E5E5E;" d="M151.836,22.588l2.461,0.413c-0.316,0.902-0.816,1.589-1.499,2.061s-1.537,0.708-2.562,0.708
		c-1.623,0-2.824-0.53-3.604-1.591c-0.615-0.85-0.923-1.922-0.923-3.217c0-1.547,0.404-2.758,1.213-3.634s1.831-1.314,3.067-1.314
		c1.389,0,2.484,0.458,3.287,1.375s1.187,2.322,1.151,4.214h-6.188c0.018,0.732,0.217,1.302,0.598,1.709s0.855,0.611,1.424,0.611
		c0.387,0,0.712-0.105,0.976-0.316S151.701,23.057,151.836,22.588z M151.976,20.092c-0.018-0.715-0.202-1.258-0.554-1.63
		s-0.779-0.558-1.283-0.558c-0.539,0-0.984,0.196-1.336,0.589s-0.524,0.926-0.519,1.6H151.976z"/>
	<path style="fill:#5E5E5E;" d="M154.239,22.896l2.479-0.378c0.105,0.48,0.319,0.845,0.642,1.094s0.773,0.374,1.354,0.374
		c0.639,0,1.119-0.117,1.441-0.352c0.217-0.164,0.325-0.384,0.325-0.659c0-0.188-0.059-0.343-0.176-0.466
		c-0.123-0.117-0.398-0.226-0.826-0.325c-1.992-0.439-3.255-0.841-3.788-1.204c-0.738-0.504-1.107-1.204-1.107-2.101
		c0-0.809,0.319-1.488,0.958-2.039s1.629-0.826,2.971-0.826c1.277,0,2.227,0.208,2.848,0.624s1.049,1.031,1.283,1.846l-2.329,0.431
		c-0.1-0.363-0.289-0.642-0.567-0.835s-0.675-0.29-1.191-0.29c-0.65,0-1.116,0.091-1.397,0.272
		c-0.188,0.129-0.281,0.296-0.281,0.501c0,0.176,0.082,0.325,0.246,0.448c0.223,0.164,0.992,0.396,2.307,0.694
		s2.234,0.665,2.755,1.099c0.516,0.439,0.773,1.052,0.773,1.837c0,0.855-0.357,1.591-1.072,2.206s-1.772,0.923-3.173,0.923
		c-1.271,0-2.278-0.258-3.019-0.773S154.467,23.78,154.239,22.896z"/>
	<path style="fill:#5E5E5E;" d="M163.216,20.76c0-0.82,0.202-1.614,0.606-2.382s0.977-1.354,1.718-1.758s1.569-0.606,2.483-0.606
		c1.412,0,2.569,0.458,3.472,1.375s1.354,2.076,1.354,3.476c0,1.412-0.456,2.583-1.367,3.511s-2.058,1.393-3.441,1.393
		c-0.855,0-1.671-0.193-2.448-0.58s-1.367-0.954-1.771-1.701S163.216,21.832,163.216,20.76z M165.748,20.892
		c0,0.926,0.22,1.635,0.659,2.127s0.981,0.738,1.626,0.738s1.185-0.246,1.622-0.738s0.655-1.207,0.655-2.145
		c0-0.914-0.218-1.617-0.655-2.109s-0.977-0.738-1.622-0.738s-1.187,0.246-1.626,0.738S165.748,19.966,165.748,20.892z"/>
	<path style="fill:#5E5E5E;" d="M172.581,22.896l2.479-0.378c0.105,0.48,0.319,0.845,0.642,1.094s0.773,0.374,1.354,0.374
		c0.639,0,1.119-0.117,1.441-0.352c0.217-0.164,0.325-0.384,0.325-0.659c0-0.188-0.059-0.343-0.176-0.466
		c-0.123-0.117-0.398-0.226-0.826-0.325c-1.992-0.439-3.255-0.841-3.788-1.204c-0.738-0.504-1.107-1.204-1.107-2.101
		c0-0.809,0.319-1.488,0.958-2.039s1.629-0.826,2.971-0.826c1.277,0,2.227,0.208,2.848,0.624s1.049,1.031,1.283,1.846l-2.329,0.431
		c-0.1-0.363-0.289-0.642-0.567-0.835s-0.675-0.29-1.191-0.29c-0.65,0-1.116,0.091-1.397,0.272
		c-0.188,0.129-0.281,0.296-0.281,0.501c0,0.176,0.082,0.325,0.246,0.448c0.223,0.164,0.992,0.396,2.307,0.694
		s2.234,0.665,2.755,1.099c0.516,0.439,0.773,1.052,0.773,1.837c0,0.855-0.357,1.591-1.072,2.206s-1.772,0.923-3.173,0.923
		c-1.271,0-2.278-0.258-3.019-0.773S172.809,23.78,172.581,22.896z"/>
</g>
<g style="opacity:0.5;">
	<g>
		<defs>
			<rect id="SVGID_19_" x="0" y="40.824" width="233.61" height="7.17"/>
		</defs>
		<clipPath id="SVGID_2_">
			<use xlink:href="#SVGID_19_"  style="overflow:visible;"/>
		</clipPath>
		<polygon style="clip-path:url(#SVGID_2_);fill:#2C6882;" points="233.61,47.994 0,40.824 233.61,40.824 		"/>
	</g>
</g>
<g>
	<path style="fill:#6FC2D8;stroke:#000000;stroke-width:0.5;stroke-miterlimit:10;" d="M30.406,24.422
		c-0.973,0-1.864,0.331-2.581,0.879l-7.389-4.43c0.038-0.226,0.064-0.457,0.064-0.695s-0.025-0.468-0.064-0.694l7.389-4.433
		c0.717,0.551,1.608,0.881,2.581,0.881c2.346,0,4.247-1.9,4.247-4.245c0-2.346-1.901-4.246-4.247-4.246
		c-2.345,0-4.246,1.9-4.246,4.246c0,0.235,0.026,0.469,0.061,0.694l-7.386,4.432c-0.717-0.549-1.608-0.881-2.58-0.881
		c-2.347,0-4.248,1.899-4.248,4.246c0,2.345,1.901,4.246,4.248,4.246c0.972,0,1.863-0.331,2.58-0.881l7.386,4.432
		c-0.034,0.227-0.061,0.459-0.061,0.693c0,2.347,1.901,4.248,4.246,4.248c2.346,0,4.247-1.901,4.247-4.248
		C34.653,26.323,32.752,24.422,30.406,24.422z"/>
</g>
</svg>
