<?xml version="1.0" encoding="utf-8"?>
<!-- Generator: Adobe Illustrator 17.0.0, SVG Export Plug-In . SVG Version: 6.00 Build 0)  -->
<!DOCTYPE svg PUBLIC "-//W3C//DTD SVG 1.1//EN" "http://www.w3.org/Graphics/SVG/1.1/DTD/svg11.dtd">
<svg version="1.1" id="Capa_1" xmlns="http://www.w3.org/2000/svg" xmlns:xlink="http://www.w3.org/1999/xlink" x="0px" y="0px"
	 width="40px" height="600px" viewBox="0 0 40 600" style="enable-background:new 0 0 40 600;" xml:space="preserve">
<rect x="0" style="fill:#6FC2D8;" width="40" height="600"/>
<polygon style="fill:#FFFFFF;" points="11.5,290.185 28.5,300 11.5,309.815 "/>
<g style="opacity:0.25;">
	<g>
		<defs>
			<rect id="SVGID_3_" x="0" width="40" height="40"/>
		</defs>
		<clipPath id="SVGID_2_">
			<use xlink:href="#SVGID_3_"  style="overflow:visible;"/>
		</clipPath>
		<rect x="0" style="clip-path:url(#SVGID_2_);fill-rule:evenodd;clip-rule:evenodd;fill:#020202;" width="40" height="40"/>
	</g>
</g>
<path style="fill:#FFFFFF;" d="M30.705,14.739H13.097c-0.756,0-1.369-0.613-1.369-1.37c0-0.756,0.613-1.369,1.369-1.369h17.608
	c0.756,0,1.369,0.613,1.369,1.369C32.074,14.126,31.461,14.739,30.705,14.739"/>
<path style="fill:#FFFFFF;" d="M10.665,13.369c0,0.756-0.613,1.371-1.37,1.371c-0.756,0-1.369-0.615-1.369-1.371
	C7.926,12.613,8.539,12,9.295,12C10.052,12,10.665,12.613,10.665,13.369"/>
<path style="fill:#FFFFFF;" d="M30.705,21.369H13.097c-0.756,0-1.369-0.613-1.369-1.369s0.613-1.369,1.369-1.369h17.608
	c0.756,0,1.369,0.613,1.369,1.369S31.461,21.369,30.705,21.369"/>
<path style="fill:#FFFFFF;" d="M10.665,20c0,0.756-0.613,1.37-1.37,1.37c-0.756,0-1.369-0.614-1.369-1.37s0.613-1.37,1.369-1.37
	C10.052,18.63,10.665,19.244,10.665,20"/>
<path style="fill:#FFFFFF;" d="M30.705,28H13.097c-0.756,0-1.369-0.613-1.369-1.37c0-0.756,0.613-1.368,1.369-1.368h17.608
	c0.756,0,1.369,0.612,1.369,1.368C32.074,27.387,31.461,28,30.705,28"/>
<path style="fill:#FFFFFF;" d="M10.665,26.631c0,0.756-0.613,1.369-1.37,1.369c-0.756,0-1.369-0.613-1.369-1.369
	c0-0.756,0.613-1.37,1.369-1.37C10.052,25.261,10.665,25.875,10.665,26.631"/>
</svg>
