<?xml version="1.0" encoding="utf-8"?>
<!-- Generator: Adobe Illustrator 17.0.0, SVG Export Plug-In . SVG Version: 6.00 Build 0)  -->
<!DOCTYPE svg PUBLIC "-//W3C//DTD SVG 1.1//EN" "http://www.w3.org/Graphics/SVG/1.1/DTD/svg11.dtd">
<svg version="1.1" id="Capa_1" xmlns="http://www.w3.org/2000/svg" xmlns:xlink="http://www.w3.org/1999/xlink" x="0px" y="0px"
	 width="371.59px" height="599.225px" viewBox="0 0 371.59 599.225" style="enable-background:new 0 0 371.59 599.225;"
	 xml:space="preserve">
<g>
	<defs>
		<rect id="SVGID_1_" x="0" y="0" width="371.59" height="599.225"/>
	</defs>
	<clipPath id="SVGID_2_">
		<use xlink:href="#SVGID_1_"  style="overflow:visible;"/>
	</clipPath>
	<g style="clip-path:url(#SVGID_2_);">
		<path style="opacity:0.15;" d="M90.268,966.9c0,0-2.842-7.573-1.263-9.152c1.577-1.576,61.857-1.893,61.857-1.893l60.374-26.294
			c0,0,1.168,8.938,0.852,11.146c-0.316,2.209-8.24,7.729-22.091,10.73c-18.937,4.103-21.146,9.783-35.979,15.464
			C139.185,972.58,112.358,971.318,90.268,966.9"/>
		<path style="opacity:0.15;" d="M323.61,908.75c0,0-1.664,22.06,9.572,33.715c11.239,11.652,32.048,17.688,34.963,28.093
			c2.913,10.404-0.418,13.525-2.499,16.232c-2.08,2.704-25.388,11.446-49.528,6.865c-24.14-4.576-21.227-20.394-32.463-24.971
			c-11.239-4.578-15.297-9.931-15.297-9.931s-3.597-8.841-0.268-16.749c3.329-7.906,7.657-35.751,7.657-35.751L323.61,908.75z"/>
		<path style="fill:#534741;" d="M323.61,901.26c0,0-1.664,22.058,9.572,33.712c11.239,11.652,32.048,16.647,34.963,27.054
			c2.913,10.403,0.831,16.648,0.831,16.648s-28.718,12.069-52.858,7.493c-24.14-4.58-21.227-20.396-32.463-24.974
			c-11.239-4.577-15.401-18.311-15.401-18.311s0-19.979,3.331-27.887c3.329-7.908,4.163-16.232,4.163-16.232L323.61,901.26z"/>
		<path style="fill:none;stroke:#3D3530;stroke-linecap:round;stroke-linejoin:round;stroke-miterlimit:10;" d="M323.61,901.26
			c0,0-1.664,22.058,9.572,33.712c11.239,11.652,32.048,16.647,34.963,27.054c2.913,10.403,0.831,16.648,0.831,16.648
			s-28.718,12.069-52.858,7.493c-24.14-4.58-21.227-20.396-32.463-24.974c-11.239-4.577-15.401-18.311-15.401-18.311
			s0-19.979,3.331-27.887c3.329-7.908,4.163-16.232,4.163-16.232L323.61,901.26z"/>
		<path style="fill:#534741;" d="M153.701,902.862c0,0-2.524,13.571-15.779,19.883c-13.254,6.313-48.443,9.888-50.601,21.114
			c-0.657,3.407,0.852,13.5,0.852,13.5s30.813,7.36,51.012,4.835c20.199-2.526,23.354-11.991,35.031-14.517
			c11.676-2.525,34.083-7.26,36.293-17.043c-0.939-11.896-5.996-20.513-5.996-20.513l-4.104-11.046L153.701,902.862z"/>
		<path style="fill:none;stroke:#3D3530;stroke-linecap:round;stroke-linejoin:round;stroke-miterlimit:10;" d="M153.701,902.862
			c0,0-2.524,13.571-15.779,19.883c-13.254,6.313-48.443,9.888-50.601,21.114c-0.657,3.407,0.852,13.5,0.852,13.5
			s30.813,7.36,51.012,4.835c20.199-2.526,23.354-11.991,35.031-14.517c11.676-2.525,34.083-7.26,36.293-17.043
			c-0.939-11.896-5.996-20.513-5.996-20.513l-4.104-11.046L153.701,902.862z"/>
		<path style="fill:#293842;" d="M116.34,445.095c0,0-6.244,88.653,0,152.333c6.242,63.68,13.734,138.596,19.976,168.564
			c6.245,29.967,17.482,69.922,8.741,77.416c-8.741,7.49-8.741,18.727-2.497,32.463c6.242,13.735,8.741,33.714,8.741,33.714
			s14.984-13.735,33.712,1.248c18.73,14.983,28.718,16.232,28.718,16.232s-1.248-12.486-1.248-22.475
			c0-9.988-8.74-19.978-4.994-44.95c3.747-24.973,6.242-39.956-1.248-64.929c-7.493-24.973,3.746-78.663,0-104.884
			c-3.747-26.223-4.996-148.586-4.996-148.586l-13.735-86.154C187.51,455.086,151.301,465.072,116.34,445.095"/>
		<g style="opacity:0.4;">
			<g>
				<defs>
					<rect id="SVGID_3_" x="160.043" y="455.083" width="53.689" height="471.98"/>
				</defs>
				<clipPath id="SVGID_4_">
					<use xlink:href="#SVGID_3_"  style="overflow:visible;"/>
				</clipPath>
				<path style="opacity:0.2;clip-path:url(#SVGID_4_);" d="M193.754,800.953c3.746,32.462,0,63.681,4.994,96.143
					c1.248,3.746,4.996,6.245,4.996,11.238c-0.604,6.029,0.553,11.468,2.879,16.332c4.688,2.091,7.109,2.397,7.109,2.397
					s-1.248-12.485-1.248-22.475c0-9.99-8.74-19.978-4.994-44.95c3.747-24.972,6.242-39.958-1.249-64.929
					c-7.492-24.973,3.747-78.662,0-104.884c-3.745-26.221-4.993-148.586-4.993-148.586l-13.736-86.156c0,0-4.015,1.102-10.648,1.841
					c-6.334,20.788-3.409,42.363,6.901,61.839c-9.988,1.248-28.718,7.492-22.474,14.984c6.242,7.492,24.97-7.492,31.214,4.994
					c7.491,16.231,7.491,37.459,3.747,52.443c-3.747,12.484-8.741,29.967-4.996,42.453c4.996,12.485,6.244,27.47,6.244,41.202
					C193.754,717.295,186.261,758.499,193.754,800.953"/>
			</g>
		</g>
		<path style="opacity:0.2;" d="M198.564,920.398c-3.827-2.308-8.349-5.403-13.551-9.566c-18.729-14.983-33.712-1.248-33.712-1.248
			s-2.497-19.978-8.741-33.714c-6.242-13.736-6.242-24.973,2.497-32.463c8.74-7.494-2.497-47.449-8.739-77.416
			c-6.244-29.968-13.735-104.884-19.979-168.563c-6.243-63.681,0-152.334,0-152.334l13.419,6.282
			c-2.789,49.6-20.311,96.188-8.423,147.3c7.49,33.712,1.248,64.927,9.987,97.392c3.747,9.987,7.493,19.977,8.741,29.967
			c6.244,39.955,3.746,76.164,18.729,113.624c3.747,8.739-3.746,14.983-8.739,22.474c-8.74,11.238,0,24.974,7.491,33.715
			c8.741,9.988,26.221-3.746,34.961,11.236L198.564,920.398z"/>
		<path style="opacity:0.2;fill:none;stroke:#000000;stroke-miterlimit:10;" d="M116.34,445.095c0,0-6.244,88.653,0,152.333
			c6.242,63.68,13.734,138.596,19.976,168.564c6.245,29.967,17.482,69.922,8.741,77.416c-8.741,7.49-8.741,18.727-2.497,32.463
			c6.242,13.735,8.741,33.714,8.741,33.714s14.984-13.735,33.712,1.248c18.73,14.983,28.718,16.232,28.718,16.232
			s-1.248-12.486-1.248-22.475c0-9.988-8.74-19.978-4.994-44.95c3.747-24.973,6.242-39.956-1.248-64.929
			c-7.493-24.973,3.746-78.663,0-104.884c-3.747-26.223-4.996-148.586-4.996-148.586l-13.735-86.154
			C187.51,455.086,151.301,465.072,116.34,445.095z"/>
		<path style="fill:#293842;" d="M190.158,452.022c-12.934,3.203-12.794,53.149,3.937,70.866c0,0,15.749,66.93,16.733,95.473
			c0.983,28.543,27.557,81.69,29.528,151.575c1.968,69.881,12.794,47.242,12.794,60.038c0,12.795-12.794,22.639-9.843,40.354
			c2.954,17.716,21.653,32.48,19.685,42.324c-1.969,9.84,4.922,18.7,4.922,18.7s4.921-15.749,29.527-18.7
			c24.605-2.954,27.559,1.967,27.559,1.967s8.858-28.543,3.938-39.369c-4.922-10.827-10.826-8.858-10.826-20.67
			c0-11.812-15.748-117.126-18.701-153.543c-2.953-36.418-13.78-194.882-13.78-194.882l-21.511-69.748
			C264.12,436.408,198.962,449.842,190.158,452.022"/>
		<g style="opacity:0.4;">
			<g>
				<defs>
					<rect id="SVGID_5_" x="180.956" y="462.736" width="92.439" height="468.615"/>
				</defs>
				<clipPath id="SVGID_6_">
					<use xlink:href="#SVGID_5_"  style="overflow:visible;"/>
				</clipPath>
				<path style="opacity:0.2;clip-path:url(#SVGID_6_);" d="M261.18,865.881c-3.747,1.249-6.244-3.747-9.991-2.497
					c-1.248-6.245-2.496-12.485,1.248-17.48c8.743-9.989,4.996-22.476,1.25-33.713c-17.481-53.691-4.994-114.873-29.967-168.563
					c-1.249-3.748,1.249-9.988,0-13.736c-2.498-4.994-8.739-9.986-8.739-14.982c-2.499-29.967-11.239-59.935-8.743-88.652
					c0-4.996,12.487-3.745,19.979-7.492c-7.492-7.49-19.979,1.248-24.972-6.243c-3.747-3.744-6.244-11.235-8.742-17.48
					c-5.899-9.832-7.926-21.207-9.74-32.307c-4.323,16.433-1.024,47.072,11.332,60.154c0,0,15.747,66.93,16.732,95.473
					c0.984,28.543,27.559,81.691,29.526,151.575c1.97,69.881,12.796,47.242,12.796,60.039c0,12.794-12.796,22.638-9.841,40.354
					c2.953,17.716,21.654,32.48,19.684,42.324c-1.967,9.84,4.922,18.698,4.922,18.698s1.22-3.898,5.474-8.18
					c-2.267-8.867-6.448-18.013-8.464-26.076C262.428,888.356,262.428,877.118,261.18,865.881"/>
			</g>
		</g>
		<g style="opacity:0.4;">
			<g>
				<defs>
					<rect id="SVGID_7_" x="253.302" y="436.405" width="77.128" height="478.215"/>
				</defs>
				<clipPath id="SVGID_8_">
					<use xlink:href="#SVGID_7_"  style="overflow:visible;"/>
				</clipPath>
				<path style="opacity:0.2;clip-path:url(#SVGID_8_);" d="M328.938,875.25c-4.922-10.826-10.828-8.858-10.828-20.67
					c0-11.811-15.746-117.125-18.699-153.542c-2.954-36.418-13.78-194.882-13.78-194.882l-21.511-69.748
					c0,0-4.293,0.884-10.817,2.235c3.559,16.368,13.199,29.313,16.618,46.407c8.74,44.95,22.475,86.156,13.735,131.105
					c-3.746,24.975-1.248,51.195,8.74,73.67c3.747,7.491-1.249,18.729-4.995,26.221c-3.745,14.982,8.742,28.72,13.735,42.453
					c2.497,4.994-3.747,11.235-3.747,16.231c-2.497,32.464,9.99,61.182,13.736,93.646c1.247,4.997,8.74,8.741,12.485,13.736
					c6.337,9.96-3.73,21.229-5.463,30.008c5.828,0.802,6.854,2.499,6.854,2.499S333.859,886.077,328.938,875.25"/>
			</g>
		</g>
		<path style="opacity:0.2;fill:none;stroke:#000000;stroke-miterlimit:10;" d="M190.158,452.022
			c-12.934,3.203-12.794,53.149,3.937,70.866c0,0,15.749,66.93,16.733,95.473c0.983,28.543,27.557,81.69,29.528,151.575
			c1.968,69.881,12.794,47.242,12.794,60.038c0,12.795-12.794,22.639-9.843,40.354c2.954,17.716,21.653,32.48,19.685,42.324
			c-1.969,9.84,4.922,18.7,4.922,18.7s4.921-15.749,29.527-18.7c24.605-2.954,27.559,1.967,27.559,1.967s8.858-28.543,3.938-39.369
			c-4.922-10.827-10.826-8.858-10.826-20.67c0-11.812-15.748-117.126-18.701-153.543c-2.953-36.418-13.78-194.882-13.78-194.882
			l-21.511-69.748C264.12,436.408,198.962,449.842,190.158,452.022z"/>
		<path style="opacity:0.2;fill:none;stroke:#000000;stroke-miterlimit:10;" d="M171.278,528.752c0,0,37.46-9.988,49.946-8.74"/>
		<path style="fill:#DEE0E2;" d="M152.099,210.998l26.68,46.107c0,0,7.627,176.593,5.235,194.146
			c-2.394,17.554-76.594-8.775-76.594-8.775L95.453,237.326L152.099,210.998z"/>
		<path style="fill:none;stroke:#575A5B;stroke-miterlimit:10;" d="M152.099,210.998l26.68,46.107c0,0,7.627,176.593,5.235,194.146
			c-2.394,17.554-76.594-8.775-76.594-8.775L95.453,237.326L152.099,210.998z"/>
		<path style="fill:#DEE0E2;" d="M213.984,209.749l-34.171,46.106c0,0,1.008,175.45,3.401,193.001
			c2.395,17.555,81.693-6.38,81.693-6.38l-11.483-208.341L213.984,209.749z"/>
		<path style="fill:none;stroke:#575A5B;stroke-miterlimit:10;" d="M213.984,209.749l-34.171,46.106c0,0,1.008,175.45,3.401,193.001
			c2.395,17.555,81.693-6.38,81.693-6.38l-11.483-208.341L213.984,209.749z"/>
		<path style="fill:#534741;" d="M115.562,436.711c-1.94-1.251-2.425,7.883-0.607,9.097c1.82,1.213,26.377,16.372,73.675,11.217
			c47.296-5.153,71.853-13.34,75.492-20.616c3.637-7.276,0.301-12.431-1.213-11.216c-1.516,1.21-16.655,18.792-73.067,22.131
			C138.604,450.355,124.959,442.775,115.562,436.711"/>
		<path style="fill:none;stroke:#3D3530;stroke-linecap:round;stroke-linejoin:round;stroke-miterlimit:10;" d="M115.562,436.711
			c-1.94-1.251-2.425,7.883-0.607,9.097c1.82,1.213,26.377,16.372,73.675,11.217c47.296-5.153,71.853-13.34,75.492-20.616
			c3.637-7.276,0.301-12.431-1.213-11.216c-1.516,1.21-16.655,18.792-73.067,22.131
			C138.604,450.355,124.959,442.775,115.562,436.711z"/>
		<g style="opacity:0.4;">
			<g>
				<defs>
					<rect id="SVGID_9_" x="71.388" y="203.986" width="102.277" height="361.621"/>
				</defs>
				<clipPath id="SVGID_10_">
					<use xlink:href="#SVGID_9_"  style="overflow:visible;"/>
				</clipPath>
				<path style="clip-path:url(#SVGID_10_);fill:#545454;" d="M170.03,416.376c-6.243-73.043-12.029-184.986-8.741-199.779
					c3.289-14.79-9.168-12.472-9.168-12.472c-1.722,1.164-3.496,2.313-5.301,3.453c0,0-72.354,43.792-75.433,45.566
					c0.246,2.038,1.036,4.331,2.664,6.86c7.396,11.507,32.049,110.942,31.228,141.349c-0.822,30.406,2.736,159.032,2.736,159.032
					s49.857,17.652,58.075-11.933C174.309,518.869,176.176,488.288,170.03,416.376"/>
			</g>
		</g>
		<path style="fill:#6FC2D8;" d="M147.126,196.633c-30.407,20.544-75.604,37.801-75.604,37.801s-9.862,6.574-2.466,18.079
			c7.396,11.507,32.05,110.941,31.228,141.35c-0.822,30.404-3.288,165.179-3.288,165.179s55.882,11.503,64.101-18.08
			c8.217-29.585,13.147-70.673,3.286-142.171c-9.862-71.493-19.723-175.859-16.435-190.654
			C151.235,193.346,147.126,196.633,147.126,196.633"/>
		<path style="fill:none;stroke:#2F4A56;stroke-miterlimit:10;" d="M147.126,196.633c-30.407,20.544-75.604,37.801-75.604,37.801
			s-9.862,6.574-2.466,18.079c7.396,11.507,32.05,110.941,31.228,141.35c-0.822,30.404-3.288,165.179-3.288,165.179
			s55.882,11.503,64.101-18.08c8.217-29.585,13.147-70.673,3.286-142.171c-9.862-71.493-19.723-175.859-16.435-190.654
			C151.235,193.346,147.126,196.633,147.126,196.633z"/>
		<g style="opacity:0.4;">
			<g>
				<defs>
					<rect id="SVGID_11_" x="201.049" y="200.069" width="101.161" height="359.036"/>
				</defs>
				<clipPath id="SVGID_12_">
					<use xlink:href="#SVGID_11_"  style="overflow:visible;"/>
				</clipPath>
				<path style="clip-path:url(#SVGID_12_);fill:#545454;" d="M221.388,200.379c30.407,20.545,75.604,42.796,75.604,42.796
					s9.861,6.574,2.465,18.08c-7.396,11.505-37.601,111.603-31.228,141.347c6.601,30.809,15.457,89.911,18.757,132.642
					c0,0-60.042,43.073-68.261,13.487c-8.217-29.584-24.457-69.703-14.596-141.198c9.861-71.496,19.723-180.858,16.436-195.649
					C217.279,197.093,221.388,200.379,221.388,200.379"/>
			</g>
		</g>
		<path style="fill:#6FC2D8;" d="M222.638,190.39c30.404,20.545,75.602,42.796,75.602,42.796s9.862,6.575,2.466,18.079
			c-7.397,11.507-32.049,110.941-31.229,141.348c0.822,30.407,23.103,131.912,23.103,131.912s-64.388,43.803-72.606,14.219
			c-8.217-29.586-24.456-69.703-14.596-141.198c9.861-71.496,19.723-180.858,16.436-195.651
			C218.529,187.104,222.638,190.39,222.638,190.39"/>
		<path style="fill:none;stroke:#2F4A56;stroke-miterlimit:10;" d="M222.638,190.39c30.404,20.545,75.602,42.796,75.602,42.796
			s9.862,6.575,2.466,18.079c-7.397,11.507-32.049,110.941-31.229,141.348c0.822,30.407,23.103,131.912,23.103,131.912
			s-64.388,43.803-72.606,14.219c-8.217-29.586-24.456-69.703-14.596-141.198c9.861-71.496,19.723-180.858,16.436-195.651
			C218.529,187.104,222.638,190.39,222.638,190.39z"/>
		<g style="opacity:0.4;">
			<g>
				<defs>
					<rect id="SVGID_13_" x="201.492" y="192.046" width="44.002" height="278.022"/>
				</defs>
				<clipPath id="SVGID_14_">
					<use xlink:href="#SVGID_13_"  style="overflow:visible;"/>
				</clipPath>
				<path style="clip-path:url(#SVGID_14_);fill:#545454;" d="M213.316,192.043c10.821,17.895,36.21,66.175,31.631,104.883
					c-4.579,38.708-42.453,147.755-41.204,173.143c0,0-0.417-62.847-2.082-105.301c-1.664-42.453,9.574-86.985,8.324-124.862
					C208.737,202.031,213.316,192.043,213.316,192.043"/>
			</g>
		</g>
		<path style="opacity:0.2;" d="M220.555,193.767c-0.201-5.199,2.083-3.377,2.083-3.377c30.405,20.546,75.602,42.796,75.602,42.796
			s9.862,6.575,2.465,18.079c-0.537,0.839-1.168,2.153-1.872,3.858l-1.445-14.176c0,0-26.22-10.614-48.695-23.099
			C233.676,209.504,224.798,199.495,220.555,193.767"/>
		<path style="fill:#2C6882;" d="M210.818,185.801c10.821,17.895,36.211,66.176,31.631,104.883s-40.581,145.256-39.333,170.643
			c0,0-2.289-60.35-3.953-102.803c-1.665-42.453,9.571-86.987,8.323-124.863C206.239,195.787,210.818,185.801,210.818,185.801"/>
		<path style="fill:none;stroke:#2F4A56;stroke-miterlimit:10;" d="M210.818,185.801c10.821,17.895,36.211,66.176,31.631,104.883
			s-40.581,145.256-39.333,170.643c0,0-2.289-60.35-3.953-102.803c-1.665-42.453,9.571-86.987,8.323-124.863
			C206.239,195.787,210.818,185.801,210.818,185.801z"/>
		<g style="opacity:0.4;">
			<g>
				<defs>
					<rect id="SVGID_15_" x="118.228" y="188.511" width="51.273" height="271.421"/>
				</defs>
				<clipPath id="SVGID_16_">
					<use xlink:href="#SVGID_15_"  style="overflow:visible;"/>
				</clipPath>
				<path style="clip-path:url(#SVGID_16_);fill:#545454;" d="M155.046,188.504c0,0-44.222,30.547-35.737,90.811
					c0.866,6.162,21.305,0.669,21.305,0.669s-19.99,9.925-19.474,13.304c10.445,68.188,36.05,113.713,40.212,149.507
					c0.327,2.81,7.228,16.131,7.456,16.798c2.674,7.815-2.915-122.649-7.519-153.717
					C156.963,276.666,155.046,188.504,155.046,188.504"/>
			</g>
		</g>
		<path style="fill:#FFA96A;" d="M209.986,163.323l0.415,50.361c-13.298,14.631-25.835,29.22-31.623,43.42
			c-6.964-15.891-14.741-25.742-23.315-29.685l0.832-50.778L209.986,163.323z"/>
		<path style="fill:none;stroke:#6B4429;stroke-miterlimit:10;" d="M209.986,163.323l0.415,50.361
			c-13.298,14.631-25.835,29.22-31.623,43.42c-6.964-15.891-14.741-25.742-23.315-29.685l0.832-50.778L209.986,163.323z"/>
		<path style="fill:#2C6882;" d="M155.046,184.76c0,0-41.725,30.543-33.24,90.811c0.868,6.162,21.305,0.666,21.305,0.666
			s-19.99,9.925-19.474,13.304c10.446,68.189,39.734,124.758,43.895,160.551c0.326,2.811,1.047,5.086,1.275,5.754
			c2.674,7.817-2.915-122.648-7.519-153.716C156.963,272.92,155.046,184.76,155.046,184.76"/>
		<path style="fill:none;stroke:#2F4A56;stroke-miterlimit:10;" d="M155.046,184.76c0,0-41.725,30.543-33.24,90.811
			c0.868,6.162,21.305,0.666,21.305,0.666s-19.99,9.925-19.474,13.304c10.446,68.189,39.734,124.758,43.895,160.551
			c0.326,2.811,1.047,5.086,1.275,5.754c2.674,7.817-2.915-122.648-7.519-153.716C156.963,272.92,155.046,184.76,155.046,184.76z"/>
		<g style="opacity:0.4;">
			<g>
				<defs>
					<rect id="SVGID_17_" x="134.96" y="291.407" width="116.482" height="138.954"/>
				</defs>
				<clipPath id="SVGID_18_">
					<use xlink:href="#SVGID_17_"  style="overflow:visible;"/>
				</clipPath>
				<path style="clip-path:url(#SVGID_18_);fill:#545454;" d="M184.667,291.807l62.737,23.7c3.433,1.297,5.012,5.264,3.409,8.565
					l-49.885,102.771c-1.408,2.902-4.794,4.253-7.813,3.118l-54.105-20.332c-3.254-1.225-4.883-4.867-3.623-8.106l41.256-106.138
					C177.883,292.191,181.462,290.598,184.667,291.807"/>
			</g>
		</g>
		<path style="fill:#DEE0E2;" d="M158.777,184.436c0,0,0,33.947,6.423,39.636c6.421,5.69,12.277,24.192,13.571,36.227
			c0,0-7.882-21.545-30.637-33.29C137.996,221.778,149.968,189.023,158.777,184.436"/>
		<path style="fill:none;stroke:#575A5B;stroke-miterlimit:10;" d="M158.777,184.436c0,0,0,33.947,6.423,39.636
			c6.421,5.69,12.277,24.192,13.571,36.227c0,0-7.882-21.545-30.637-33.29C137.996,221.778,149.968,189.023,158.777,184.436z"/>
		<path style="fill:#518496;" d="M230.589,255.156c-2.633,5.046-8.868-4.296-13.037-11.975c-4.169-7.68-9.44-8.641-9.44-8.641
			l-0.288-4.808c0,0,21.552-15.823,21.761-14.332C231.802,231.167,233.222,250.109,230.589,255.156"/>
		<path style="fill:#9DB2AA;" d="M184.138,288.291l62.737,23.7c3.435,1.298,5.015,5.263,3.412,8.566L200.4,423.328
			c-1.408,2.902-4.794,4.251-7.811,3.117l-54.107-20.333c-3.253-1.223-4.883-4.866-3.624-8.105l41.255-106.138
			C177.355,288.674,180.935,287.079,184.138,288.291"/>
		<path style="fill:none;stroke:#6F7B7F;stroke-miterlimit:10;" d="M184.138,288.291l62.737,23.7
			c3.435,1.298,5.015,5.263,3.412,8.566L200.4,423.328c-1.408,2.902-4.794,4.251-7.811,3.117l-54.107-20.333
			c-3.253-1.223-4.883-4.866-3.624-8.105l41.255-106.138C177.355,288.674,180.935,287.079,184.138,288.291z"/>
		<path style="fill:#CE8757;" d="M309.261,544.975c2.102,6.19-0.044,14.234,0.15,17.447c0.196,3.215-7.773,12.291-8.767,15.917
			c-0.997,3.628-1.635,13.438,3.695,8.713c5.33-4.726,13.614-16.914,13.614-16.914s2.384-10.195,2.856-14.001"/>
		<path style="fill:none;stroke:#6B4429;stroke-width:0.944;stroke-miterlimit:10;" d="M309.261,544.975
			c2.102,6.19-0.044,14.234,0.15,17.447c0.196,3.215-7.773,12.291-8.767,15.917c-0.997,3.628-1.635,13.438,3.695,8.713
			c5.33-4.726,13.614-16.914,13.614-16.914s2.384-10.195,2.856-14.001"/>
		<path style="fill:#CE8757;" d="M315.263,544.593c1.196,7.514,1.124,18.722,0.718,22.445c-0.408,3.725-11.329,12.57-13.18,16.537
			c-1.852,3.963-4.51,15.089,2.53,10.714c7.038-4.371,18.699-18.37,18.699-18.37s5.705-7.575,6.992-11.848"/>
		<path style="fill:none;stroke:#6B4429;stroke-miterlimit:10;" d="M315.263,544.593c1.196,7.514,1.124,18.722,0.718,22.445
			c-0.408,3.725-11.329,12.57-13.18,16.537c-1.852,3.963-4.51,15.089,2.53,10.714c7.038-4.371,18.699-18.37,18.699-18.37
			s5.705-7.575,6.992-11.848"/>
		<path style="fill:#EA9860;" d="M318.164,562.034c-0.497,5.877-1.461,10.42-2.734,13.738c-1.342,3.495-11.239,12.647-13.064,16.627
			c-1.825,3.976-4.403,15.121,2.605,10.698c7.008-4.422,18.571-18.501,18.571-18.501s5.652-7.617,6.908-11.898"/>
		<path style="fill:none;stroke:#6B4429;stroke-miterlimit:10;" d="M318.164,562.034c-0.497,5.877-1.461,10.42-2.734,13.738
			c-1.342,3.495-11.239,12.647-13.064,16.627c-1.825,3.976-4.403,15.121,2.605,10.698c7.008-4.422,18.571-18.501,18.571-18.501
			s5.652-7.617,6.908-11.898"/>
		<path style="fill:#CC8352;" d="M306.374,532.655c0,0,6.543,29.833,19.247,37.534c12.704,7.699,12.317-10.396,11.549-18.479
			c-0.77-8.085-4.62-19.826-12.704-20.21C316.382,531.114,306.374,532.655,306.374,532.655"/>
		<path style="fill:#FFA96A;" d="M302.231,519.358c0,0-4.032,16.348-3.876,20.93c0.156,4.582-7.911,19.232-9.894,23.888
			c-1.983,4.655,5.697,5.616,10.439,1.173c4.744-4.442,9.967-21.749,15.14-22.534c0,0,1.746,6.362,3.543,14.254
			c1.797,7.892,2.508,19.796,2.336,23.777c-0.17,3.981-11.142,14.141-12.829,18.481c-1.688,4.338-3.727,16.336,3.439,11.199
			c7.168-5.135,18.563-20.816,18.563-20.816s5.524-8.445,6.591-13.069c1.065-4.627,3.876-20.931,1.395-30.939
			c-2.481-10.01-8.457-23.876-7.018-35.546L302.231,519.358z"/>
		<path style="fill:none;stroke:#6B4429;stroke-miterlimit:10;" d="M302.231,519.358c0,0-4.032,16.348-3.876,20.93
			c0.156,4.582-7.911,19.232-9.894,23.888c-1.983,4.655,5.697,5.616,10.439,1.173c4.744-4.442,9.967-21.749,15.14-22.534
			c0,0,1.746,6.362,3.543,14.254c1.797,7.892,2.508,19.796,2.336,23.777c-0.17,3.981-11.142,14.141-12.829,18.481
			c-1.688,4.338-3.727,16.336,3.439,11.199c7.168-5.135,18.563-20.816,18.563-20.816s5.524-8.445,6.591-13.069
			c1.065-4.627,3.876-20.931,1.395-30.939c-2.481-10.01-8.457-23.876-7.018-35.546L302.231,519.358z"/>
		<path style="fill:#DEE0E2;" d="M333.002,502.182c0,0,4.542,24.817-0.044,25.9c-4.588,1.082-36.033,1.225-38.005-2.408
			c-1.976-3.632,0.968-25.932,0.968-25.932L333.002,502.182z"/>
		<path style="fill:none;stroke:#6C6D6D;stroke-miterlimit:10;" d="M333.002,502.182c0,0,4.542,24.817-0.044,25.9
			c-4.588,1.082-36.033,1.225-38.005-2.408c-1.976-3.632,0.968-25.932,0.968-25.932L333.002,502.182z"/>
		<path style="fill:#6FC2D8;" d="M300.068,242.73c0,0,14.05,57.525,16.448,100.916c2.4,43.393,17.107,67.868,20.083,101.064
			c2.978,33.197,0.507,69.355,0.507,69.355s-34.889,7.66-43.518-1.296c-8.629-8.955-10.655-95.833-14.853-110.49
			c-4.196-14.657-5.8-59.668-10.697-72.672c-5.175-13.744-4.087-46.897,8.307-61.881"/>
		<path style="fill:none;stroke:#2F4A56;stroke-miterlimit:10;" d="M300.068,242.73c0,0,14.05,57.525,16.448,100.916
			c2.4,43.393,17.107,67.868,20.083,101.064c2.978,33.197,0.507,69.355,0.507,69.355s-34.889,7.66-43.518-1.296
			c-8.629-8.955-10.655-95.833-14.853-110.49c-4.196-14.657-5.8-59.668-10.697-72.672c-5.175-13.744-4.087-46.897,8.307-61.881"/>
		<path style="fill:#CE8452;" d="M156.295,176.642l-0.183,11.184c3.798,3.878,7.719,6.412,11.203,6.638
			c9.863,0.636,38.495,0.953,41.676-3.499c0.315-0.441,0.727-1.092,1.208-1.907l-0.212-25.733L156.295,176.642z"/>
		<path style="opacity:0.2;" d="M142.736,205.194l-0.91-5.108c-30.083,18.988-70.305,34.348-70.305,34.348s-5.997,4-5.128,11.218
			c3.078-1.772,5.232-4.401,8.528-4.515C84.754,240.797,142.736,205.194,142.736,205.194"/>
		<path style="fill:#DEE0E2;" d="M209.986,177.059c0,0,12.318-0.201,16.926,14.499c4.608,14.701,4.827,52.657,2.193,57.702
			c-2.632,5.049-6.142-1.314-10.311-8.993c-4.168-7.68-10.971-10.533-10.971-10.533s-15.357,5.705-28.084,26.988
			c0,0,1.099-18.868,14.043-29.4C206.727,216.791,211.008,188.898,209.986,177.059"/>
		<path style="fill:none;stroke:#575A5B;stroke-miterlimit:10;" d="M209.986,177.059c0,0,12.318-0.201,16.926,14.499
			c4.608,14.701,4.827,52.657,2.193,57.702c-2.632,5.049-6.142-1.314-10.311-8.993c-4.168-7.68-10.971-10.533-10.971-10.533
			s-15.357,5.705-28.084,26.988c0,0,1.099-18.868,14.043-29.4C206.727,216.791,211.008,188.898,209.986,177.059z"/>
		<path style="fill:#D3D3D3;" d="M158.855,187.806c0,0,0,31.213,5.905,36.441c5.905,5.231,12.249,22.563,13.436,33.629
			c0,0-8.206-20.131-29.126-30.928C139.75,222.138,150.757,192.023,158.855,187.806"/>
		<path style="fill:#DEE0E2;" d="M156.295,176.642c0,0-22.058,17.48-24.556,25.39c-2.497,7.906,1.248,12.902,1.665,24.138
			c0.416,11.24,1.665,27.89,8.324,28.719c1.59,1.139,3.164-18.387,6.879-27.47c0.53-1.296-1.363-13.316,3.006-20.809
			C155.982,199.117,161.706,179.557,156.295,176.642"/>
		<path style="fill:none;stroke:#575A5B;stroke-miterlimit:10;" d="M156.295,176.642c0,0-22.058,17.48-24.556,25.39
			c-2.497,7.906,1.248,12.902,1.665,24.138c0.416,11.24,1.665,27.89,8.324,28.719c1.59,1.139,3.164-18.387,6.879-27.47
			c0.53-1.296-1.363-13.316,3.006-20.809C155.982,199.117,161.706,179.557,156.295,176.642z"/>
		<path style="fill:#EDEEEF;" d="M141.323,198.729c5.637-5.636,15.029-19.727,15.029-19.727l-3.252,0.254
			c-6.203,5.173-19.458,16.75-21.361,22.776c-2.497,7.906,1.249,12.902,1.665,24.138c0.417,11.24,1.665,27.888,8.324,28.721
			c0.607,0.434,1.212-2.145,1.932-5.997c-2.893-5.601-4.617-15.206-6.564-25.269C134.276,209.061,135.686,204.367,141.323,198.729"
			/>
		<path style="fill:#FFA96A;" d="M135.23,122.769c0,0-5.604-11.008-9.414-7.767c-6.043,5.139,0.742,19.771,3.096,26.83
			c2.354,7.062,5.848,3.531,5.848,3.531"/>
		<path style="fill:none;stroke:#6B4429;stroke-width:0.74;stroke-miterlimit:10;" d="M135.23,122.769c0,0-5.604-11.008-9.414-7.767
			c-6.043,5.139,0.742,19.771,3.096,26.83c2.354,7.062,5.848,3.531,5.848,3.531"/>
		<path style="fill:#FFA96A;" d="M218.659,118.236c0,0,6.524-9.353,11.467-5.353c4.943,4.001,0.47,22.596-4.707,27.772
			c-5.179,5.18-7.296-1.176-7.296-1.176"/>
		<path style="fill:none;stroke:#6B4429;stroke-width:0.74;stroke-miterlimit:10;" d="M218.659,118.236
			c0,0,6.524-9.353,11.467-5.353c4.943,4.001,0.47,22.596-4.707,27.772c-5.179,5.18-7.296-1.176-7.296-1.176"/>
		<path style="fill:#FFA96A;" d="M175.683,33.264c-24.493,0.766-43.266,7.634-43.903,25.77c-0.637,18.134,1.591,43.266,4.136,50.582
			c2.545,7.318-5.091,28.315-0.955,44.221c4.135,15.907,17.497,34.996,27.36,35.633c9.861,0.636,38.495,0.953,41.674-3.5
			c3.182-4.454,15.907-29.587,16.544-42.949c0.637-13.36,0.131-28.212-2.75-39.734c-2.808-11.237,6.886-40.755,0.206-51.57
			C211.314,40.897,196.043,32.626,175.683,33.264"/>
		<path style="fill:none;stroke:#6B4429;stroke-miterlimit:10;" d="M175.683,33.264c-24.493,0.766-43.266,7.634-43.903,25.77
			c-0.637,18.134,1.591,43.266,4.136,50.582c2.545,7.318-5.091,28.315-0.955,44.221c4.135,15.907,17.497,34.996,27.36,35.633
			c9.861,0.636,38.495,0.953,41.674-3.5c3.182-4.454,15.907-29.587,16.544-42.949c0.637-13.36,0.131-28.212-2.75-39.734
			c-2.808-11.237,6.886-40.755,0.206-51.57C211.314,40.897,196.043,32.626,175.683,33.264z"/>
		<g style="opacity:0.4;">
			<g>
				<defs>
					<rect id="SVGID_19_" x="157.411" y="50.122" width="52.369" height="37.247"/>
				</defs>
				<clipPath id="SVGID_20_">
					<use xlink:href="#SVGID_19_"  style="overflow:visible;"/>
				</clipPath>
				<path style="clip-path:url(#SVGID_20_);fill:#3F4142;" d="M157.411,58.817c8.117-4.357,19.176-10.159,32.597-8.364
					c13.424,1.794,31.528,17.173,9.366,36.913c0,0-0.624-1.283,0-3.845c0.624-2.564,10.301-27.174-12.176-27.941
					C164.724,54.81,157.411,58.817,157.411,58.817"/>
			</g>
		</g>
		<path style="fill:#564F4C;" d="M160.094,91.165c0,0-2.863-4.137-12.09-3.502c-9.225,0.638-10.816,9.544-10.816,9.544
			s1.591,0.638,4.136-0.634c2.545-1.273,10.18-4.454,13.361-3.817C157.867,93.391,160.094,91.165,160.094,91.165"/>
		<path style="fill:none;stroke:#473F3D;stroke-miterlimit:10;" d="M160.094,91.165c0,0-2.863-4.137-12.09-3.502
			c-9.225,0.638-10.816,9.544-10.816,9.544s1.591,0.638,4.136-0.634c2.545-1.273,10.18-4.454,13.361-3.817
			C157.867,93.391,160.094,91.165,160.094,91.165z"/>
		<path style="fill:#564F4C;" d="M183.955,89.574c-1.401-3.08,9.862-3.818,12.407-3.501c2.544,0.318,2.862,3.501,6.681,4.136
			c3.817,0.638,4.454,3.182,3.499,4.136c-0.955,0.954-7.318,0.318-11.453-2.543C190.954,88.937,185.546,93.072,183.955,89.574"/>
		<path style="fill:none;stroke:#473F3D;stroke-miterlimit:10;" d="M183.955,89.574c-1.401-3.08,9.862-3.818,12.407-3.501
			c2.544,0.318,2.862,3.501,6.681,4.136c3.817,0.638,4.454,3.182,3.499,4.136c-0.955,0.954-7.318,0.318-11.453-2.543
			C190.954,88.937,185.546,93.072,183.955,89.574z"/>
		<path style="fill:#CE8452;" d="M160.138,142.234c0.214,2.003,1.33,7.549,8.745,7.606c8.549,0.066,12.81-7.814,12.81-7.814"/>
		<path style="fill:#FFA96A;" d="M168.438,105.443c0,0,0.186,14.8-3.885,22.938c-4.069,8.14-7.028,15.169-0.554,17.482
			c6.475,2.313,10.782,0.64,14.613-1.85c2.749-1.786,3.238-2.683,3.238-2.683"/>
		<path style="fill:none;stroke:#6B4429;stroke-linecap:round;stroke-linejoin:round;stroke-miterlimit:10;" d="M168.438,105.443
			c0,0,0.186,14.8-3.885,22.938c-4.069,8.14-7.028,15.169-0.554,17.482c6.475,2.313,10.782,0.64,14.613-1.85
			c2.749-1.786,3.238-2.683,3.238-2.683"/>
		<path style="fill:#FFA96A;" d="M162.228,160.317c4.464,7.514,24.163,3.445,28.101,0.632"/>
		<path style="fill:none;stroke:#6B4429;stroke-width:0.898;stroke-linecap:round;stroke-linejoin:round;stroke-miterlimit:10;" d="
			M162.228,160.317c4.464,7.514,24.163,3.445,28.101,0.632"/>
		<path style="fill:#CE8452;" d="M171.07,171.232c3.538-1.875,11.238-5.828,18.104-2.707"/>
		<path style="fill:#FFA96A;" d="M130.373,123.433c-3.674-1.13-2.542,6.781,0.283,8.478c2.826,1.694,1.695,5.651,1.413,7.347"/>
		<path style="fill:none;stroke:#6B4429;stroke-width:0.74;stroke-miterlimit:10;" d="M130.373,123.433
			c-3.674-1.13-2.542,6.781,0.283,8.478c2.826,1.694,1.695,5.651,1.413,7.347"/>
		<path style="fill:#FFA96A;" d="M224.706,120.934c3.673-1.13,2.543,6.785-0.283,8.479c-2.827,1.694-1.694,5.651-1.414,7.347"/>
		<path style="fill:none;stroke:#6B4429;stroke-width:0.74;stroke-miterlimit:10;" d="M224.706,120.934
			c3.673-1.13,2.543,6.785-0.283,8.479c-2.827,1.694-1.694,5.651-1.414,7.347"/>
		<path style="fill:#FCBD92;" d="M139.23,155.832c-4.136-15.908,2.976-36.402,0.432-43.718c-1.861-5.351-1.663-22.423-1.473-36.401
			c0.071-5.143-1.627-3.864-1.455-8.741c0.1-2.85,3.63-5.385,4.577-7.7c-0.977,0.464-4.905-2.069-5.91-1.638
			c-1.266,0.547-2.481,0.474-3.53,0.054c-0.04,0.445-0.075,0.888-0.092,1.346c-0.635,18.134,1.592,43.265,4.136,50.584
			c2.545,7.316-5.09,28.313-0.954,44.219c3.032,11.66,11.02,25.02,18.956,31.58c1.558,1.136,5.939,3.786,9.137,3.5
			C148.959,183.119,140.588,161.05,139.23,155.832"/>
		<path style="fill:#CE8452;" d="M217.655,91.213c-0.285-1.504-0.64-2.996-1.229-4.445c-0.314-0.764-0.572-1.518-0.804-2.268
			c-0.797,6.568-1.282,12.481-0.328,16.289c2.879,11.522,3.384,26.37,2.749,39.734c-0.635,13.362-13.363,38.493-16.542,42.946
			c-2.651,3.714-27.448,5.463-41.348,5.576c0.737,0.227,1.463,0.378,2.169,0.423c9.863,0.636,38.495,0.953,41.676-3.5
			c3.182-4.454,15.907-29.587,16.544-42.949c0.636-13.36,0.13-28.212-2.75-39.734C217.047,100.313,217.181,96.057,217.655,91.213"/>
		<path style="fill:#564F4C;" d="M132.987,50.116c0,0-7.492,12.903-12.902,15.816c-5.411,2.911-3.329,7.49,1.665,14.149
			c4.995,6.66,13.319,42.453,13.319,42.453s2.912-9.156,1.249-15.4c-1.665-6.243-1.665-15.816,1.663-23.307
			c3.331-7.493-6.659-9.261-4.162-18.938C135.983,56.505,136.629,51.779,132.987,50.116"/>
		<path style="fill:#473F3D;" d="M132.987,50.116c0,0-7.492,12.903-12.902,15.816c-5.411,2.911-3.329,7.49,1.665,14.149
			c4.995,6.66,13.319,42.453,13.319,42.453s2.912-9.156,1.249-15.4c-1.665-6.243-1.665-15.816,1.663-23.307
			c3.331-7.493-6.659-9.261-4.162-18.938C135.983,56.505,136.629,51.779,132.987,50.116z"/>
		<path style="fill:#564F4C;" d="M214.432,48.568c0,0,5.053,12.05,10.74,14.38c5.685,2.332,4.094,7.104-0.177,14.248
			c-4.271,7.146-5.063,43.613-5.063,43.613s-1.839-8.804-2.85-15.186c-0.736-4.631-1.439-14.449-4.094-23.006
			c-2.428-7.83,5.656-9.905,2.162-19.267C212.12,55.237,210.985,50.605,214.432,48.568"/>
		<path style="fill:none;stroke:#473F3D;stroke-miterlimit:10;" d="M214.432,48.568c0,0,5.053,12.05,10.74,14.38
			c5.685,2.332,4.094,7.104-0.177,14.248c-4.271,7.146-5.063,43.613-5.063,43.613s-1.839-8.804-2.85-15.186
			c-0.736-4.631-1.439-14.449-4.094-23.006c-2.428-7.83,5.656-9.905,2.162-19.267C212.12,55.237,210.985,50.605,214.432,48.568z"/>
		<g style="opacity:0.4;">
			<g>
				<defs>
					<rect id="SVGID_21_" x="195.315" y="41.816" width="26.605" height="47.208"/>
				</defs>
				<clipPath id="SVGID_22_">
					<use xlink:href="#SVGID_21_"  style="overflow:visible;"/>
				</clipPath>
				<path style="clip-path:url(#SVGID_22_);fill:#3F4142;" d="M195.315,43.352c0,0,9.052-0.313,12.486,14.983
					c3.434,15.296,1.977,21.02,0.727,30.696c5.094-0.914,16.284-16.648,12.694-29.551C218.564,49.923,202.806,37.421,195.315,43.352
					"/>
			</g>
		</g>
		<path style="fill:#474241;" d="M224.995,77.197c4.27-7.146,5.86-11.916,0.176-14.249c-0.152-0.06-0.3-0.157-0.45-0.231
			c0.274,4.252-0.501,7.996-2.249,12.163c-2.054,4.899-4.587,19.877-5.141,32.27c1.038,6.171,2.602,13.66,2.602,13.66
			S220.724,84.342,224.995,77.197"/>
		<path style="fill:#726A67;" d="M136.318,107.136c-1.666-6.242-1.666-15.814,1.665-23.308c3.329-7.492-6.659-9.262-4.163-18.938
			c1.625-6.296,2.392-10.527,1.134-12.949l-2.591,1.504l-0.415,9.366c0,0-4.58,7.074-0.833,11.65
			c3.747,4.581,5.411,7.077,2.914,13.945c-2.497,6.867,1.873,17.479,1.041,23.098c-0.249,1.684-0.742,3.72-1.27,5.776
			c0.791,3.198,1.27,5.255,1.27,5.255S137.982,113.379,136.318,107.136"/>
		<path style="fill:#564F4C;" d="M207.801,60.833c-2.187-1.874,3.121-14.359,7.179-15.297c4.057-0.934,3.495,1.951,7.553,9.131
			c4.058,7.181,0.679,21.27-1.132,20.592C209.301,70.719,209.986,62.706,207.801,60.833"/>
		<path style="fill:none;stroke:#473F3D;stroke-linecap:round;stroke-linejoin:round;stroke-miterlimit:10;" d="M207.801,60.833
			c-2.187-1.874,3.121-14.359,7.179-15.297c4.057-0.934,3.495,1.951,7.553,9.131c4.058,7.181,0.679,21.27-1.132,20.592
			C209.301,70.719,209.986,62.706,207.801,60.833z"/>
		<path style="fill:#564F4C;" d="M129.138,68.519c0,0-5.308-28.663,12.486-39.238c17.793-10.571,33.088-13.914,55.876-0.833
			c22.788,13.08,19.667,13.634,20.601,17.808c0.938,4.175-8.25,10.793-14.18,8.566c-5.932-2.227-22.835-7.683-40.315,0.11
			C146.125,62.722,135.069,74.361,129.138,68.519"/>
		<path style="fill:#473F3D;" d="M129.138,68.519c0,0-5.308-28.663,12.486-39.238c17.793-10.571,33.088-13.914,55.876-0.833
			c22.788,13.08,19.667,13.634,20.601,17.808c0.938,4.175-8.25,10.793-14.18,8.566c-5.932-2.227-22.835-7.683-40.315,0.11
			C146.125,62.722,135.069,74.361,129.138,68.519z"/>
		<path style="fill:#726A67;" d="M150.199,61.555c3.828-2.326,8.132-4.798,12.963-6.951c4.22-1.883,8.402-2.846,12.405-3.209
			c0.026-0.045,0.055-0.086,0.083-0.129c9.164-14.771,25.791-14.901,38.533-12.217c-2.291-1.863-6.081-4.382-12.404-8.115
			C184.497,32.878,154.166,39.438,150.199,61.555"/>
		<path style="fill:#726A67;" d="M144.121,64.622c0,0-8.116-20.872,9.676-30.609c10.55-5.775,25.158-8.713,37.971-8.582
			c-2.128-1.019-4.193-1.887-6.201-2.611c-19.922,0.298-39.771,5.55-45.504,13.14c-8.463,11.204-3.444,27.091-1.381,32.408
			c1.666-0.815,3.487-1.878,5.471-3.088C144.131,64.864,144.121,64.622,144.121,64.622"/>
		<path style="fill:#564F4C;" d="M144.121,64.622c0,0,0.01,0.242,0.032,0.657c1.868-1.138,3.881-2.408,6.046-3.725
			c3.967-22.116,34.298-28.677,51.58-30.62c-1.317-0.776-2.734-1.602-4.279-2.489c-1.966-1.127-3.871-2.125-5.732-3.015
			c-12.813-0.131-27.421,2.807-37.971,8.582C136.005,43.75,144.121,64.622,144.121,64.622"/>
		<path style="fill:#726A67;" d="M159.417,57.712c8.117-5.307,18.418-11.238,31.839-9.053c13.424,2.184,31.529,20.915,9.365,44.95
			c0,0-0.624-1.562,0-4.683c0.624-3.122,10.302-35.586-12.173-36.522C165.972,51.467,159.417,57.712,159.417,57.712"/>
		<path style="fill:none;stroke:#473F3D;stroke-linecap:round;stroke-linejoin:round;stroke-miterlimit:10;" d="M159.417,57.712
			c8.117-5.307,18.418-11.238,31.839-9.053c13.424,2.184,31.529,20.915,9.365,44.95c0,0-0.624-1.562,0-4.683
			c0.624-3.122,10.302-35.586-12.173-36.522C165.972,51.467,159.417,57.712,159.417,57.712z"/>
		<g style="opacity:0.4;">
			<g>
				<defs>
					<rect id="SVGID_23_" x="113.426" y="304.435" width="99.706" height="98.236"/>
				</defs>
				<clipPath id="SVGID_24_">
					<use xlink:href="#SVGID_23_"  style="overflow:visible;"/>
				</clipPath>
				<path style="clip-path:url(#SVGID_24_);fill:#545454;" d="M115.923,384.328c0,0,7.492,1.667,13.736,2.082
					c6.242,0.415,14.425-3.699,24.83-3.28c10.405,0.414,10.546-7.541,15.125-21.276c4.579-13.734,1.456-26.012-8.116-26.846
					c-9.573-0.83-17.688-1.038-29.342,9.366c-11.653,10.403-18.73,9.572-18.73,9.572L115.923,384.328z"/>
				<path style="clip-path:url(#SVGID_24_);fill:#545454;" d="M154.214,335.216c7.951-0.104,32.697-2.235,35.618,1.191
					c2.921,3.426,16.445,11.926,22.704,18.264c3.335,3.376-8.189,5.163-13.03,3.223c-4.841-1.941-12.7-8.135-16.98-8.883
					c-4.28-0.751-16.778-0.107-16.778-0.107"/>
				<path style="clip-path:url(#SVGID_24_);fill:#545454;" d="M164.728,347.421c9.899,1.978,23.413,5.173,25.08,7.957
					c2.311,3.864,14.229,14.499,19.346,21.789c2.726,3.886-8.936,3.727-13.385,1.008c-4.451-2.721-11.169-10.136-15.265-11.587
					c-2.832-1.005-9.647-2.004-13.585-2.528"/>
				<path style="clip-path:url(#SVGID_24_);fill:#545454;" d="M162.417,355.927c8.906,2.525,19.418,6.05,20.718,8.631
					c1.916,3.803,12.707,16.99,17.033,24.216c2.305,3.849-8.681,2.904-12.691,0.036c-4.01-2.869-10.118-12.667-13.881-14.316
					c-1.881-0.823-9.359-2.581-12.735-3.342"/>
				<path style="clip-path:url(#SVGID_24_);fill:#545454;" d="M160.372,371.002c7.409,2.399,15.446,5.475,16.457,7.631
					c1.599,3.415,10.822,15.36,14.472,21.865c1.944,3.467-7.759,2.355-11.236-0.288c-3.479-2.64-8.641-11.466-11.931-13.02
					c-3.291-1.554-13.525-3.804-13.525-3.804"/>
				<path style="clip-path:url(#SVGID_24_);fill:#545454;" d="M127.466,348.426c6.654-3.931,3.857-19.035,10.099-23.197
					c6.244-4.163,11.238-2.497,22.476-17.479c8.474-11.303,11.237,9.154,2.079,18.311c-4.492,4.494-9.989,9.156-9.989,9.156"/>
			</g>
		</g>
		<path style="fill:#564F4C;" d="M155.671,58.959c0,0,16.543-14.047,37.77-13.734c21.227,0.311,27.781,9.053,27.781,24.975
			c0,15.917-11.547,25.283-11.547,25.283s8.114-30.591-5.308-40.268C190.945,45.536,165.972,53.029,155.671,58.959"/>
		<path style="fill:none;stroke:#473F3D;stroke-linecap:round;stroke-linejoin:round;stroke-miterlimit:10;" d="M155.671,58.959
			c0,0,16.543-14.047,37.77-13.734c21.227,0.311,27.781,9.053,27.781,24.975c0,15.917-11.547,25.283-11.547,25.283
			s8.114-30.591-5.308-40.268C190.945,45.536,165.972,53.029,155.671,58.959z"/>
		<path style="fill:#D3D3D3;" d="M209.986,177.059c1.022,11.839-3.259,39.732-16.204,50.263c-12.944,10.532-14.043,29.4-14.043,29.4
			c12.726-21.283,28.084-26.988,28.084-26.988S214.668,211.186,209.986,177.059"/>
		<g style="opacity:0.4;">
			<g>
				<defs>
					<rect id="SVGID_25_" x="95.436" y="258.81" width="15.33" height="91.499"/>
				</defs>
				<clipPath id="SVGID_26_">
					<use xlink:href="#SVGID_25_"  style="overflow:visible;"/>
				</clipPath>
				<path style="clip-path:url(#SVGID_26_);fill:#545454;" d="M96.361,348.951c1.885-0.929,11.549-0.567,13.869,1.289
					c0.025,0.02,0.046,0.045,0.071,0.064c1.477-27.996-1.037-40.892-1.037-40.892c0-29.134-12.833-50.235-12.833-50.235l-0.995-0.37
					c4.788,6.195,0.425,20.274,0.509,33.54C95.945,292.347,97.973,319.224,96.361,348.951"/>
			</g>
		</g>
		<path style="fill:#6FC2D8;" d="M68.097,244.697c0,0-19.994,137.815-19.28,151.384c0.715,13.566,31.42,10.358,31.42,10.358
			s16.423,3.926,19.279-7.499c2.857-11.425,7.142-109.972,7.142-109.972c-0.136-21.333-16.47-36.034-16.47-36.034"/>
		<path style="fill:none;stroke:#2F4A56;stroke-miterlimit:10;" d="M68.097,244.697c0,0-19.994,137.815-19.28,151.384
			c0.715,13.566,31.42,10.358,31.42,10.358s16.423,3.926,19.279-7.499c2.857-11.425,7.142-109.972,7.142-109.972
			c-0.136-21.333-16.47-36.034-16.47-36.034"/>
		<g style="opacity:0.4;">
			<g>
				<defs>
					<rect id="SVGID_27_" x="94.679" y="347.922" width="34.464" height="65.777"/>
				</defs>
				<clipPath id="SVGID_28_">
					<use xlink:href="#SVGID_27_"  style="overflow:visible;"/>
				</clipPath>
				<path style="clip-path:url(#SVGID_28_);fill:#545454;" d="M120.625,403.036c8.24-8.56,9.104-17.326,8.263-25.767
					c-0.845-8.442-4.921-30.619-11.075-29.18c-4.153-0.247-9.221-0.284-19.549,0.322c-1.232,0.073-2.422,0.206-3.585,0.368
					c3.536,18.655,5.869,35.382,5.606,45.082c-0.137,5.068-0.32,10.068-0.53,19.835
					C106.913,413.697,119.444,404.263,120.625,403.036"/>
			</g>
		</g>
		<path style="fill:#273F49;" d="M125.124,372.288c-0.845-8.439-3.401-29.383-9.554-27.944
			c-11.16,4.114-12.422,21.943-12.083,33.009c0.519,16.969,5.16,21.975,11.821,23.504c1.458,0.333,3.459-1.491,4.637-2.717
			C128.186,389.578,125.968,380.729,125.124,372.288"/>
		<path style="fill:none;stroke:#2F4A56;stroke-linecap:round;stroke-linejoin:round;stroke-miterlimit:10;" d="M125.124,372.288
			c-0.845-8.439-3.401-29.383-9.554-27.944c-11.16,4.114-12.422,21.943-12.083,33.009c0.519,16.969,5.16,21.975,11.821,23.504
			c1.458,0.333,3.459-1.491,4.637-2.717C128.186,389.578,125.968,380.729,125.124,372.288z"/>
		<path style="fill:#FFA96A;" d="M117.172,381.833c0,0,7.492,1.665,13.734,2.081c6.243,0.414,14.426-3.699,24.831-3.283
			c10.405,0.417,10.547-7.538,15.125-21.273c4.579-13.734,1.456-26.013-8.116-26.846c-9.573-0.833-17.688-1.041-29.343,9.364
			c-11.653,10.404-18.729,9.572-18.729,9.572L117.172,381.833z"/>
		<path style="fill:none;stroke:#6B4429;stroke-linecap:round;stroke-linejoin:round;stroke-miterlimit:10;" d="M117.172,381.833
			c0,0,7.492,1.665,13.734,2.081c6.243,0.414,14.426-3.699,24.831-3.283c10.405,0.417,10.547-7.538,15.125-21.273
			c4.579-13.734,1.456-26.013-8.116-26.846c-9.573-0.833-17.688-1.041-29.343,9.364c-11.653,10.404-18.729,9.572-18.729,9.572
			L117.172,381.833z"/>
		<path style="fill:#FFA96A;" d="M155.463,332.72c7.951-0.104,32.698-2.235,35.618,1.19c2.921,3.424,16.445,11.925,22.704,18.264
			c3.333,3.377-8.189,5.162-13.031,3.223c-4.84-1.94-12.7-8.134-16.98-8.884c-4.28-0.751-16.777-0.104-16.777-0.104"/>
		<path style="fill:none;stroke:#6B4429;stroke-linecap:round;stroke-linejoin:round;stroke-miterlimit:10;" d="M155.463,332.72
			c7.951-0.104,32.698-2.235,35.618,1.19c2.921,3.424,16.445,11.925,22.704,18.264c3.333,3.377-8.189,5.162-13.031,3.223
			c-4.84-1.94-12.7-8.134-16.98-8.884c-4.28-0.751-16.777-0.104-16.777-0.104"/>
		<path style="fill:#FFA96A;" d="M165.976,344.925c9.9,1.978,23.415,5.171,25.08,7.957c2.311,3.863,14.23,14.496,19.346,21.787
			c2.727,3.885-8.936,3.728-13.385,1.008c-4.449-2.72-11.168-10.135-15.263-11.586c-2.832-1.004-9.649-2.004-13.586-2.526"/>
		<path style="fill:none;stroke:#6B4429;stroke-linecap:round;stroke-linejoin:round;stroke-miterlimit:10;" d="M165.976,344.925
			c9.9,1.978,23.415,5.171,25.08,7.957c2.311,3.863,14.23,14.496,19.346,21.787c2.727,3.885-8.936,3.728-13.385,1.008
			c-4.449-2.72-11.168-10.135-15.263-11.586c-2.832-1.004-9.649-2.004-13.586-2.526"/>
		<path style="fill:#FFA96A;" d="M163.666,353.431c8.906,2.522,19.417,6.048,20.719,8.631c1.915,3.802,12.707,16.988,17.032,24.216
			c2.305,3.847-8.68,2.902-12.691,0.033c-4.01-2.867-10.118-12.665-13.88-14.313c-1.881-0.825-9.36-2.583-12.735-3.342"/>
		<path style="fill:none;stroke:#6B4429;stroke-linecap:round;stroke-linejoin:round;stroke-miterlimit:10;" d="M163.666,353.431
			c8.906,2.522,19.417,6.048,20.719,8.631c1.915,3.802,12.707,16.988,17.032,24.216c2.305,3.847-8.68,2.902-12.691,0.033
			c-4.01-2.867-10.118-12.665-13.88-14.313c-1.881-0.825-9.36-2.583-12.735-3.342"/>
		<path style="fill:#FFA96A;" d="M161.621,368.505c7.41,2.398,15.446,5.475,16.458,7.63c1.598,3.416,10.821,15.36,14.47,21.866
			c1.944,3.468-7.758,2.353-11.236-0.287c-3.478-2.642-8.64-11.468-11.93-13.022c-3.291-1.554-13.526-3.804-13.526-3.804"/>
		<path style="fill:none;stroke:#6B4429;stroke-linecap:round;stroke-linejoin:round;stroke-miterlimit:10;" d="M161.621,368.505
			c7.41,2.398,15.446,5.475,16.458,7.63c1.598,3.416,10.821,15.36,14.47,21.866c1.944,3.468-7.758,2.353-11.236-0.287
			c-3.478-2.642-8.64-11.468-11.93-13.022c-3.291-1.554-13.526-3.804-13.526-3.804"/>
		<path style="fill:#FFA96A;" d="M128.715,345.927c6.089-3.595,4.289-15.511,10.002-19.317c5.711-3.808,9.518-4.188,19.799-17.896
			c7.754-10.338,10.281,8.377,1.903,16.753c-4.11,4.112-6.64,8.377-6.64,8.377"/>
		<path style="fill:none;stroke:#6B4429;stroke-width:0.915;stroke-linecap:round;stroke-linejoin:round;stroke-miterlimit:10;" d="
			M128.715,345.927c6.089-3.595,4.289-15.511,10.002-19.317c5.711-3.808,9.518-4.188,19.799-17.896
			c7.754-10.338,10.281,8.377,1.903,16.753c-4.11,4.112-6.64,8.377-6.64,8.377"/>
		<path style="fill:#DEE0E2;" d="M100.954,346.754c0,0,7.54,0.421,11.76,1.686c4.221,1.267,8.052,1.62,8.052,1.62
			s-5.094,6.494-2.839,19.31c1.529,8.694,4.342,13.469,9.406,14.314c5.064,0.845-0.554,2.548-4.773,4.659
			c-4.221,2.111-23.503,8.002-35.954,5.893C74.153,392.125,100.954,346.754,100.954,346.754"/>
		<path style="fill:none;stroke:#575A5B;stroke-miterlimit:10;" d="M100.954,346.754c0,0,7.54,0.421,11.76,1.686
			c4.221,1.267,8.052,1.62,8.052,1.62s-5.094,6.494-2.839,19.31c1.529,8.694,4.342,13.469,9.406,14.314
			c5.064,0.845-0.554,2.548-4.773,4.659c-4.221,2.111-23.503,8.002-35.954,5.893C74.153,392.125,100.954,346.754,100.954,346.754z"
			/>
		<path style="fill:#6FC2D8;" d="M52.388,402.506c0,0,4.998,7.856,12.853,9.998c7.73,2.108,36.894-1.479,50.066-11.647
			c-6.66-1.529-11.302-6.535-11.821-23.504c-0.339-11.064,0.925-28.895,12.084-33.008c-4.153-0.245-10.724-0.285-21.052,0.324
			c-24.279,1.426-34.989,21.421-34.989,21.421"/>
		<path style="fill:none;stroke:#2F4A56;stroke-linecap:round;stroke-linejoin:round;stroke-miterlimit:10;" d="M52.388,402.506
			c0,0,4.998,7.856,12.853,9.998c7.73,2.108,36.894-1.479,50.066-11.647c-6.66-1.529-11.302-6.535-11.821-23.504
			c-0.339-11.064,0.925-28.895,12.084-33.008c-4.153-0.245-10.724-0.285-21.052,0.324c-24.279,1.426-34.989,21.421-34.989,21.421"/>
		<path style="opacity:0.2;" d="M74.34,250.941l-6.242-6.244c0,0-19.995,137.815-19.28,151.382c0.216,4.117,3.2,7.374,7.242,9.92
			c-0.575-1.143-0.379-2.518-0.999-3.675C48.527,390.099,72.295,251.414,74.34,250.941"/>
		<path style="fill:#619BBC;" d="M115.57,344.345c-0.201-0.013-0.413-0.022-0.624-0.034l-0.074,0.325
			C115.102,344.534,115.331,344.432,115.57,344.345"/>
		<path style="fill:none;stroke:#2F4A56;stroke-linecap:round;stroke-linejoin:round;stroke-miterlimit:10;" d="M115.57,344.345
			c-0.201-0.013-0.413-0.022-0.624-0.034l-0.074,0.325C115.102,344.534,115.331,344.432,115.57,344.345z"/>
		<path style="opacity:0.2;" d="M88.206,349.214c10.166-2.032,19.58-2.695,23.867-2.905c0.851-0.665,1.784-1.227,2.801-1.674
			l0.074-0.324c-4.177-0.211-10.599-0.222-20.428,0.358c-24.279,1.426-34.99,21.422-34.99,21.422
			c-0.404-0.478-2.215,2.249-2.745,6.48c-0.26,2.081,2.249-2.511,2.249-2.511S74.36,351.983,88.206,349.214"/>
		<g style="opacity:0.4;">
			<g>
				<defs>
					<rect id="SVGID_29_" x="265.113" y="265.078" width="35.885" height="248.673"/>
				</defs>
				<clipPath id="SVGID_30_">
					<use xlink:href="#SVGID_29_"  style="overflow:visible;"/>
				</clipPath>
				<path style="opacity:0.2;clip-path:url(#SVGID_30_);" d="M299.831,512.769c-4.585-4.76-10.511-29.216-11.956-54.518
					c-1.276-22.309,2.042-45.272-2.896-55.972c-9.25-20.045-9.547-59.668-14.444-72.672c-4.422-11.746-0.521-37.652,7.35-54.294
					c-0.436-3.41-0.863-6.827-1.397-10.235l-0.142,0.151c-12.397,14.983-13.483,48.136-8.31,61.88
					c4.899,13.005,6.501,58.016,10.698,72.674c4.198,14.653,6.224,101.534,14.853,110.49c1.652,1.713,4.267,2.816,7.41,3.48
					C300.575,513.448,300.174,513.127,299.831,512.769"/>
			</g>
		</g>
		<g style="opacity:0.4;">
			<g>
				<defs>
					<rect id="SVGID_31_" x="294.757" y="242.729" width="43.314" height="274.385"/>
				</defs>
				<clipPath id="SVGID_32_">
					<use xlink:href="#SVGID_31_"  style="overflow:visible;"/>
				</clipPath>
				<path style="opacity:0.2;clip-path:url(#SVGID_32_);" d="M336.6,444.711c-2.978-33.196-17.683-57.671-20.083-101.063
					c-2.4-43.393-16.449-100.918-16.449-100.918l-4.546,4.79c3.813,16.827,14.354,83.95,14.752,93.631
					c1.784,43.422,14.73,49.522,17.707,82.718c2.978,33.198,2.881,87.699,2.881,87.699s-22.811,5.007-36.107,2.186
					c10.203,7.365,42.352,0.312,42.352,0.312S339.576,477.908,336.6,444.711"/>
			</g>
		</g>
		<path style="fill:#452109;" d="M206.645,110.94c0,0-0.573-9.017-8.967-8.102c-8.395,0.911-15.962,1.058-15.715,10.199
			C181.799,115.866,197.456,115.783,206.645,110.94"/>
		<path style="fill:#FFFFFF;" d="M206.774,112.869c0,0-1.241-8.02-9.636-7.104c-8.395,0.915-15.648,3.161-15.268,8.773
			C181.709,117.367,197.586,117.714,206.774,112.869"/>
		<g>
			<defs>
				<path id="SVGID_33_" d="M197.137,105.765c-8.392,0.915-15.646,3.162-15.267,8.772c-0.162,2.83,15.716,3.177,24.904-1.668
					c0,0-1.112-7.177-8.339-7.177C198.023,105.692,197.591,105.717,197.137,105.765"/>
			</defs>
			<clipPath id="SVGID_34_">
				<use xlink:href="#SVGID_33_"  style="overflow:visible;"/>
			</clipPath>
			<path style="clip-path:url(#SVGID_34_);fill:#A85715;" d="M200.187,111.229c0.25,3.732-2.574,6.96-6.305,7.21
				c-3.734,0.249-6.962-2.573-7.21-6.306c-0.251-3.731,2.572-6.96,6.305-7.21C196.707,104.673,199.938,107.496,200.187,111.229"/>
			<path style="clip-path:url(#SVGID_34_);fill:#3D1800;" d="M197.359,111.419c0.145,2.17-1.497,4.046-3.667,4.191
				c-2.17,0.147-4.049-1.495-4.192-3.665c-0.146-2.171,1.496-4.05,3.666-4.194C195.336,107.607,197.212,109.249,197.359,111.419"/>
			<path style="clip-path:url(#SVGID_34_);fill:#FFFFFF;" d="M191.064,111.411c0.064,0.963-0.664,1.794-1.627,1.859
				c-0.962,0.064-1.795-0.662-1.858-1.624c-0.064-0.964,0.664-1.796,1.626-1.861C190.167,109.721,191,110.447,191.064,111.411"/>
		</g>
		<path style="fill:#452109;" d="M140.15,114.339c0,0-0.631-8.945,7.747-9.155c8.376-0.211,15.837-1.071,16.803,7.952
			C165.236,115.897,149.826,117.887,140.15,114.339"/>
		<path style="fill:#FFFFFF;" d="M140.278,116.255c0,0,0.16-8.053,8.537-8.262c8.376-0.213,15.807,1.037,16.175,6.604
			C165.524,117.36,149.955,119.802,140.278,116.255"/>
		<g>
			<defs>
				<path id="SVGID_35_" d="M148.815,107.992c-8.377,0.21-8.537,8.263-8.537,8.263c9.676,3.547,25.246,1.105,24.711-1.656
					c-0.342-5.19-6.824-6.629-14.487-6.629C149.947,107.97,149.382,107.977,148.815,107.992"/>
			</defs>
			<clipPath id="SVGID_36_">
				<use xlink:href="#SVGID_35_"  style="overflow:visible;"/>
			</clipPath>
			<path style="clip-path:url(#SVGID_36_);fill:#A85715;" d="M146.539,113.769c0.249,3.703,3.452,6.506,7.155,6.257
				c3.705-0.249,6.505-3.451,6.257-7.156c-0.247-3.703-3.451-6.504-7.155-6.255C149.092,106.861,146.291,110.064,146.539,113.769"/>
			<path style="clip-path:url(#SVGID_36_);fill:#3D1800;" d="M149.346,113.58c0.145,2.152,2.007,3.782,4.161,3.638
				c2.153-0.143,3.782-2.006,3.638-4.16c-0.144-2.153-2.007-3.782-4.162-3.638C150.83,109.565,149.2,111.427,149.346,113.58"/>
			<path style="clip-path:url(#SVGID_36_);fill:#FFFFFF;" d="M155.535,112.739c0.064,0.956,0.891,1.678,1.846,1.616
				c0.956-0.064,1.677-0.893,1.613-1.846c-0.063-0.956-0.89-1.679-1.844-1.614C156.194,110.961,155.471,111.786,155.535,112.739"/>
		</g>
	</g>
</g>
</svg>
