<?xml version="1.0" encoding="utf-8"?>
<!-- Generator: Adobe Illustrator 17.0.0, SVG Export Plug-In . SVG Version: 6.00 Build 0)  -->
<!DOCTYPE svg PUBLIC "-//W3C//DTD SVG 1.1//EN" "http://www.w3.org/Graphics/SVG/1.1/DTD/svg11.dtd">
<svg version="1.1" id="Capa_1" xmlns="http://www.w3.org/2000/svg" xmlns:xlink="http://www.w3.org/1999/xlink" x="0px" y="0px"
	 width="451.188px" height="501.493px" viewBox="0 0 451.188 501.493" enable-background="new 0 0 451.188 501.493"
	 xml:space="preserve">
<g>
	<g opacity="0.5">
		<line fill="none" x1="451.188" y1="119.821" x2="351.135" y2="119.821"/>
		<line fill="none" x1="361.14" y1="130.068" x2="451.188" y2="130.068"/>
		<line fill="none" x1="343.992" y1="111.771" x2="451.188" y2="111.771"/>
		<line fill="none" x1="451.188" y1="143.242" x2="368.283" y2="143.242"/>
		<line fill="none" x1="451.188" y1="102.257" x2="338.99" y2="102.257"/>
		<line fill="none" x1="381.145" y1="163.732" x2="451.188" y2="163.732"/>
		<line fill="none" x1="374.715" y1="153.486" x2="451.188" y2="153.486"/>
		<line fill="none" x1="451.188" y1="91.279" x2="336.844" y2="91.279"/>
		<line fill="none" x1="451.188" y1="171.052" x2="389.719" y2="171.052"/>
		<line fill="none" x1="451.188" y1="81.765" x2="389.006" y2="81.765"/>
		<line fill="none" x1="403.315" y1="181.296" x2="403.295" y2="181.296"/>
		<line fill="none" x1="403.315" y1="181.296" x2="451.188" y2="181.296"/>
		<line fill="none" x1="396.15" y1="72.982" x2="451.188" y2="72.982"/>
		<line fill="none" x1="403.315" y1="181.296" x2="361.492" y2="242.037"/>
		<line fill="none" x1="361.492" y1="304.949" x2="361.492" y2="242.037"/>
		<line fill="none" x1="346.488" y1="235.451" x2="389.356" y2="171.052"/>
		<line fill="none" x1="346.488" y1="235.451" x2="346.488" y2="330.955"/>
		<line fill="none" x1="280.041" y1="373.767" x2="346.488" y2="330.955"/>
		<line fill="none" x1="338.986" y1="226.64" x2="380.973" y2="163.7"/>
		<line fill="none" x1="338.986" y1="226.64" x2="338.986" y2="325.466"/>
		<line fill="none" x1="338.986" y1="325.466" x2="274.711" y2="364.967"/>
		<line fill="none" x1="367.923" y1="143.242" x2="322.91" y2="210.935"/>
		<line fill="none" x1="280.405" y1="210.935" x2="322.91" y2="210.935"/>
		<line fill="none" x1="321.481" y1="193.006" x2="360.777" y2="130.068"/>
		<line fill="none" x1="268.617" y1="193.006" x2="268.79" y2="193.006"/>
		<line fill="none" x1="268.79" y1="193.006" x2="320.768" y2="193.006"/>
		<line fill="none" x1="350.774" y1="119.821" x2="313.266" y2="183.825"/>
		<line fill="none" x1="248.617" y1="183.825" x2="313.266" y2="183.825"/>
		<line fill="none" x1="280.041" y1="416.326" x2="280.041" y2="373.767"/>
		<line fill="none" x1="274.711" y1="364.967" x2="274.711" y2="420.717"/>
		<line fill="none" x1="274.711" y1="421.156" x2="149.295" y2="421.156"/>
		<line fill="none" x1="280.041" y1="309.731" x2="280.041" y2="210.935"/>
		<line fill="none" x1="280.041" y1="309.731" x2="149.295" y2="309.731"/>
		<line fill="none" x1="268.79" y1="294.702" x2="268.79" y2="193.006"/>
		<line fill="none" x1="268.79" y1="294.702" x2="112.856" y2="294.702"/>
		<line fill="none" x1="269.325" y1="294.702" x2="268.79" y2="294.702"/>
		<line fill="none" x1="112.856" y1="354.721" x2="112.856" y2="294.702"/>
		<line fill="none" x1="112.856" y1="354.721" x2="30.333" y2="354.721"/>
		<line fill="none" x1="149.295" y1="377.792" x2="149.295" y2="309.731"/>
		<line fill="none" x1="112.856" y1="377.792" x2="149.295" y2="377.792"/>
		<line fill="none" x1="411.861" y1="304.949" x2="361.492" y2="304.949"/>
		<line fill="none" x1="411.861" y1="304.949" x2="411.861" y2="352.361"/>
		<line fill="none" x1="280.041" y1="416.326" x2="313.266" y2="416.326"/>
		<line fill="none" x1="313.266" y1="416.326" x2="313.266" y2="454.998"/>
		<line fill="none" x1="149.295" y1="463.396" x2="149.295" y2="421.156"/>
		<line fill="none" x1="149.295" y1="463.396" x2="112.856" y2="463.396"/>
		<line fill="none" x1="248.288" y1="283.385" x2="248.288" y2="183.825"/>
		<line fill="none" x1="248.288" y1="283.385" x2="102.139" y2="283.385"/>
		<line fill="none" x1="102.139" y1="343.761" x2="102.139" y2="283.385"/>
		<line fill="none" x1="102.139" y1="343.761" x2="7.829" y2="343.761"/>
		<line fill="none" x1="325.768" y1="226.64" x2="374.715" y2="153.486"/>
		<line fill="none" x1="325.768" y1="226.64" x2="326.483" y2="319.61"/>
		<line fill="none" x1="326.483" y1="319.61" x2="268.79" y2="354.721"/>
		<line fill="none" x1="286.511" y1="324.712" x2="170.768" y2="324.712"/>
		<line fill="none" x1="170.768" y1="324.712" x2="170.768" y2="392.04"/>
		<line fill="none" x1="290.76" y1="226.64" x2="306.851" y2="226.64"/>
		<line fill="none" x1="290.76" y1="226.64" x2="290.76" y2="313.573"/>
		<line fill="none" x1="306.851" y1="313.573" x2="290.76" y2="313.573"/>
		<line fill="none" x1="262.896" y1="410.912" x2="186.805" y2="410.912"/>
		<line fill="none" x1="262.896" y1="377.792" x2="262.896" y2="410.912"/>
		<line fill="none" x1="295.05" y1="435.662" x2="168.584" y2="435.662"/>
		<line fill="none" x1="295.451" y1="435.662" x2="295.451" y2="468.902"/>
		<line fill="none" x1="168.584" y1="435.662" x2="168.584" y2="468.902"/>
		<line fill="none" x1="190.377" y1="343.761" x2="248.288" y2="343.761"/>
		<line fill="none" x1="189.662" y1="383.432" x2="189.662" y2="343.761"/>
		<line fill="none" x1="306.851" y1="171.053" x2="343.631" y2="111.769"/>
		<line fill="none" x1="175.215" y1="171.053" x2="306.851" y2="171.053"/>
		<line fill="none" x1="175.215" y1="143.242" x2="175.215" y2="171.053"/>
		<line fill="none" x1="175.215" y1="143.242" x2="41.053" y2="143.242"/>
		<line fill="none" x1="304.515" y1="157.149" x2="338.99" y2="102.257"/>
		<line fill="none" x1="303.801" y1="157.149" x2="186.805" y2="157.149"/>
		<line fill="none" x1="186.805" y1="157.149" x2="186.805" y2="135.19"/>
		<line fill="none" x1="84.992" y1="135.19" x2="186.805" y2="135.19"/>
		<line fill="none" x1="84.992" y1="91.275" x2="84.992" y2="135.19"/>
		<line fill="none" x1="84.992" y1="91.275" x2="7.829" y2="91.275"/>
		<line fill="none" x1="63.557" y1="157.149" x2="164.297" y2="157.149"/>
		<line fill="none" x1="164.297" y1="201.772" x2="164.297" y2="157.149"/>
		<line fill="none" x1="183.074" y1="183.825" x2="241.031" y2="183.825"/>
		<line fill="none" x1="241.031" y1="276.053" x2="241.031" y2="183.825"/>
		<line fill="none" x1="84.992" y1="276.053" x2="241.031" y2="276.053"/>
		<line fill="none" x1="196.451" y1="205.972" x2="231.815" y2="205.972"/>
		<line fill="none" x1="231.815" y1="260.333" x2="231.815" y2="205.972"/>
		<line fill="none" x1="231.815" y1="260.333" x2="135.896" y2="260.333"/>
		<line fill="none" x1="91.6" y1="294.702" x2="91.6" y2="329.847"/>
		<line fill="none" x1="91.421" y1="329.847" x2="38.908" y2="329.847"/>
		<line fill="none" x1="300.949" y1="146.169" x2="336.307" y2="91.352"/>
		<line fill="none" x1="300.949" y1="146.169" x2="196.451" y2="146.169"/>
		<line fill="none" x1="196.451" y1="119.821" x2="196.451" y2="146.169"/>
		<line fill="none" x1="196.451" y1="119.821" x2="102.139" y2="119.821"/>
		<line fill="none" x1="102.139" y1="119.821" x2="102.139" y2="7.828"/>
		<line fill="none" x1="41.053" y1="7.828" x2="102.139" y2="7.828"/>
		<circle fill="none" cx="38.053" cy="7.828" r="3.914"/>
		<circle fill="none" cx="3.915" cy="20.146" r="3.915"/>
		<circle fill="none" cx="40.074" cy="78.712" r="3.914"/>
		<circle fill="none" cx="3.915" cy="91.395" r="3.915"/>
		<circle fill="none" cx="121.965" cy="46.497" r="3.914"/>
		<circle fill="none" cx="127.161" cy="20.366" r="3.915"/>
		<circle fill="none" cx="110.758" cy="32.827" r="3.914"/>
		<circle fill="none" cx="149.478" cy="44.221" r="3.914"/>
		<circle fill="none" cx="265.792" cy="18.171" r="3.914"/>
		<circle fill="none" cx="241.348" cy="3.914" r="3.915"/>
		<circle fill="none" cx="308.977" cy="101.49" r="3.914"/>
		<circle fill="none" cx="317.18" cy="82.478" r="3.914"/>
		<circle fill="none" cx="202.197" cy="91.064" r="3.914"/>
		<circle fill="none" cx="212.002" cy="104.82" r="3.915"/>
		<circle fill="none" cx="164.297" cy="205.686" r="3.914"/>
		<circle fill="none" cx="192.537" cy="205.972" r="3.914"/>
		<circle fill="none" cx="179.16" cy="183.825" r="3.914"/>
		<circle fill="none" cx="183.858" cy="67.739" r="3.914"/>
		<line fill="none" x1="91.421" y1="20.146" x2="7.829" y2="20.146"/>
		<line fill="none" x1="91.421" y1="78.712" x2="91.421" y2="20.366"/>
		<line fill="none" x1="41.053" y1="78.712" x2="91.421" y2="78.712"/>
		<line fill="none" x1="389.006" y1="81.765" x2="382.402" y2="68.077"/>
		<line fill="none" x1="382.402" y1="68.077" x2="224.848" y2="68.077"/>
		<line fill="none" x1="224.848" y1="68.077" x2="224.848" y2="20.361"/>
		<line fill="none" x1="131.075" y1="20.366" x2="224.848" y2="20.361"/>
		<line fill="none" x1="389.356" y1="59.462" x2="396.144" y2="72.972"/>
		<line fill="none" x1="241.031" y1="58.906" x2="389.356" y2="58.906"/>
		<line fill="none" x1="241.031" y1="58.354" x2="241.031" y2="7.828"/>
		<line fill="none" x1="265.793" y1="50.559" x2="265.793" y2="22.123"/>
		<line fill="none" x1="265.793" y1="50.559" x2="382.846" y2="50.559"/>
		<line fill="none" x1="382.846" y1="50.559" x2="382.887" y2="50.559"/>
		<line fill="none" x1="382.846" y1="50.559" x2="382.846" y2="18.171"/>
		<line fill="none" x1="402.59" y1="63.82" x2="402.59" y2="7.828"/>
		<line fill="none" x1="451.188" y1="63.82" x2="403.315" y2="63.82"/>
		<line fill="none" x1="212.002" y1="33.092" x2="113.928" y2="32.563"/>
		<line fill="none" x1="212.002" y1="33.092" x2="212.002" y2="82.478"/>
		<line fill="none" x1="212.002" y1="82.478" x2="313.266" y2="82.478"/>
		<line fill="none" x1="154.65" y1="44.221" x2="201.805" y2="44.221"/>
		<line fill="none" x1="201.805" y1="87.613" x2="201.805" y2="44.221"/>
		<line fill="none" x1="121.965" y1="110.475" x2="121.965" y2="49.534"/>
		<line fill="none" x1="183.857" y1="110.475" x2="122.5" y2="110.475"/>
		<line fill="none" x1="183.857" y1="71.089" x2="183.857" y2="110.475"/>
		<line fill="none" x1="212.002" y1="135.187" x2="212.002" y2="109.385"/>
		<line fill="none" x1="290.76" y1="135.187" x2="212.002" y2="135.187"/>
		<line fill="none" x1="306.851" y1="104.82" x2="290.76" y2="135.187"/>
		<circle fill="none" cx="3.915" cy="343.762" r="3.915"/>
		<circle fill="none" cx="111.044" cy="377.792" r="3.914"/>
		<circle fill="none" cx="170.769" cy="396.756" r="3.914"/>
		<circle fill="none" cx="189.662" cy="387.346" r="3.914"/>
		<circle fill="none" cx="182.855" cy="410.912" r="3.914"/>
		<circle fill="none" cx="108.942" cy="463.396" r="3.914"/>
		<circle fill="none" cx="168.584" cy="472.816" r="3.914"/>
		<circle fill="none" cx="411.863" cy="356.805" r="3.914"/>
		<circle fill="none" cx="382.887" cy="14.257" r="3.914"/>
		<circle fill="none" cx="402.59" cy="3.914" r="3.914"/>
	</g>
	<g>
		<g>
			<g>
				<g>
					<g>
						<rect x="19.898" y="100.334" fill="#647882" width="18.777" height="88.47"/>
						<path fill="#58595B" d="M21.084,100.334h0.427v88.47h-0.427V100.334L21.084,100.334z M37.062,100.334h0.426v88.47h-0.426
							V100.334z"/>
						<rect x="22.456" y="103.159" fill="#E6E7E8" width="13.658" height="46.025"/>
						<path fill="#A6A8AB" d="M29.286,184.379c1.616,0,2.934-1.454,2.934-3.237s-1.317-3.238-2.934-3.238
							c-1.616,0-2.934,1.455-2.934,3.238C26.353,182.925,27.67,184.379,29.286,184.379z"/>
						<rect x="23.735" y="138.944" fill="#58595B" width="11.097" height="1.765"/>
						<rect x="23.735" y="142.299" fill="#58595B" width="11.097" height="1.765"/>
						<rect x="23.735" y="145.652" fill="#58595B" width="11.097" height="1.767"/>
						<path fill="#404041" d="M29.286,183.521c1.189,0,2.157-1.068,2.157-2.38c0-1.312-0.969-2.38-2.157-2.38
							s-2.157,1.068-2.157,2.38S28.098,183.521,29.286,183.521z"/>
					</g>
					<g>
						<rect x="39.288" y="100.334" fill="#647882" width="18.778" height="88.47"/>
						<path fill="#58595B" d="M40.476,100.334h0.428v88.47h-0.428V100.334L40.476,100.334z M56.454,100.334h0.426v88.47h-0.426
							V100.334z"/>
						<rect x="41.85" y="103.159" fill="#E6E7E8" width="13.656" height="46.025"/>
						<path fill="#A6A8AB" d="M48.679,184.379c1.615,0,2.934-1.454,2.934-3.237s-1.318-3.238-2.934-3.238s-2.935,1.455-2.935,3.238
							S47.064,184.379,48.679,184.379z"/>
						<rect x="43.129" y="138.944" fill="#58595B" width="11.097" height="1.765"/>
						<rect x="43.129" y="142.299" fill="#58595B" width="11.097" height="1.765"/>
						<rect x="43.129" y="145.652" fill="#58595B" width="11.097" height="1.767"/>
						<path fill="#404041" d="M48.679,183.521c1.189,0,2.158-1.068,2.158-2.38c0-1.312-0.969-2.38-2.158-2.38
							c-1.188,0-2.159,1.068-2.159,2.38S47.491,183.521,48.679,183.521z"/>
					</g>
					<g>
						<rect x="58.648" y="100.334" fill="#647882" width="18.778" height="88.47"/>
						<path fill="#58595B" d="M59.835,100.334h0.426v88.47h-0.426V100.334L59.835,100.334z M75.812,100.334h0.427v88.47h-0.427
							V100.334z"/>
						<rect x="61.207" y="103.159" fill="#E6E7E8" width="13.657" height="46.025"/>
						<path fill="#A6A8AB" d="M68.037,184.379c1.616,0,2.935-1.454,2.935-3.237s-1.318-3.238-2.935-3.238
							c-1.616,0-2.936,1.455-2.936,3.238C65.102,182.925,66.421,184.379,68.037,184.379z"/>
						<rect x="62.487" y="138.944" fill="#58595B" width="11.096" height="1.765"/>
						<rect x="62.487" y="142.299" fill="#58595B" width="11.096" height="1.765"/>
						<rect x="62.487" y="145.652" fill="#58595B" width="11.096" height="1.767"/>
						<path fill="#404041" d="M68.037,183.521c1.188,0,2.157-1.068,2.157-2.38c0-1.312-0.969-2.38-2.157-2.38
							s-2.159,1.068-2.159,2.38C65.878,182.453,66.849,183.521,68.037,183.521z"/>
					</g>
					<g>
						<rect x="78.173" y="100.334" fill="#647882" width="18.777" height="88.47"/>
						<path fill="#58595B" d="M79.36,100.334h0.426v88.47H79.36V100.334L79.36,100.334z M95.337,100.334h0.427v88.47h-0.427V100.334
							z"/>
						<rect x="80.733" y="103.159" fill="#E6E7E8" width="13.656" height="46.025"/>
						<path fill="#A6A8AB" d="M87.563,184.377c1.615,0,2.934-1.452,2.934-3.235s-1.318-3.238-2.934-3.238s-2.935,1.455-2.935,3.238
							C84.628,182.925,85.946,184.377,87.563,184.377z"/>
						<rect x="82.013" y="138.944" fill="#58595B" width="11.096" height="1.765"/>
						<rect x="82.013" y="142.299" fill="#58595B" width="11.096" height="1.765"/>
						<rect x="82.013" y="145.652" fill="#58595B" width="11.096" height="1.766"/>
						<path fill="#404041" d="M87.563,183.521c1.188,0,2.158-1.07,2.158-2.38c0-1.312-0.971-2.382-2.158-2.382
							c-1.189,0-2.158,1.07-2.158,2.382C85.404,182.451,86.373,183.521,87.563,183.521z"/>
					</g>
					<g>
						<rect x="97.565" y="100.334" fill="#647882" width="18.778" height="88.47"/>
						<path fill="#58595B" d="M98.753,100.334h0.427v88.47h-0.427V100.334L98.753,100.334z M114.731,100.334h0.426v88.47h-0.426
							V100.334z"/>
						<rect x="100.125" y="103.159" fill="#E6E7E8" width="13.657" height="46.025"/>
						<path fill="#A6A8AB" d="M106.954,184.377c1.617,0,2.935-1.452,2.935-3.235s-1.317-3.238-2.935-3.238
							c-1.615,0-2.934,1.455-2.934,3.238C104.021,182.925,105.339,184.377,106.954,184.377z"/>
						<rect x="101.404" y="138.944" fill="#58595B" width="11.097" height="1.765"/>
						<rect x="101.404" y="142.299" fill="#58595B" width="11.097" height="1.765"/>
						<rect x="101.404" y="145.652" fill="#58595B" width="11.097" height="1.766"/>
						<path fill="#404041" d="M106.955,183.521c1.188,0,2.157-1.07,2.157-2.38c0-1.312-0.969-2.382-2.157-2.382
							s-2.157,1.07-2.157,2.382C104.798,182.451,105.767,183.521,106.955,183.521z"/>
					</g>
					<g>
						<rect x="116.923" y="100.334" fill="#647882" width="18.778" height="88.47"/>
						<path fill="#58595B" d="M118.11,100.334h0.427v88.47h-0.427V100.334L118.11,100.334z M134.087,100.334h0.428v88.47h-0.428
							V100.334z"/>
						<rect x="119.483" y="103.159" fill="#E6E7E8" width="13.656" height="46.025"/>
						<path fill="#A6A8AB" d="M126.313,184.377c1.615,0,2.935-1.452,2.935-3.235s-1.319-3.238-2.935-3.238
							c-1.615,0-2.934,1.455-2.934,3.238C123.379,182.925,124.697,184.377,126.313,184.377z"/>
						<rect x="120.763" y="138.944" fill="#58595B" width="11.096" height="1.765"/>
						<rect x="120.763" y="142.299" fill="#58595B" width="11.096" height="1.765"/>
						<rect x="120.763" y="145.652" fill="#58595B" width="11.096" height="1.766"/>
						<path fill="#404041" d="M126.313,183.521c1.188,0,2.159-1.07,2.159-2.38c0-1.312-0.971-2.382-2.159-2.382
							s-2.158,1.07-2.158,2.382C124.154,182.451,125.124,183.521,126.313,183.521z"/>
					</g>
				</g>
				<g>
					<rect x="10.562" y="188.804" fill="#919DA5" width="139.155" height="305.718"/>
					<rect x="20.212" y="203.373" fill="#7F888F" width="119.854" height="90.484"/>
					<rect x="20.212" y="297.926" fill="#7F888F" width="119.854" height="90.485"/>
					<rect x="20.212" y="392.475" fill="#7F888F" width="119.854" height="90.487"/>
					<rect x="58.307" y="222.143" fill="#4E4F51" width="42.15" height="22.412"/>
					<path fill="#231F20" d="M64.176,231.036h30.41c1.186,0,2.158,1.071,2.158,2.381v5.885c0,1.31-0.973,2.382-2.158,2.382h-30.41
						c-1.185,0-2.157-1.072-2.157-2.382v-5.885C62.019,232.107,62.991,231.036,64.176,231.036z"/>
					<rect x="58.307" y="312.91" fill="#4E4F51" width="42.15" height="22.411"/>
					<path fill="#231F20" d="M63.349,321.804h30.414c1.181,0,2.154,1.071,2.154,2.382v5.885c0,1.309-0.974,2.378-2.154,2.378H63.349
						c-1.188,0-2.155-1.069-2.155-2.378v-5.885C61.193,322.875,62.16,321.804,63.349,321.804z"/>
					<rect x="58.492" y="406.481" fill="#4E4F51" width="42.155" height="22.41"/>
					<path fill="#231F20" d="M64.176,415.374h30.41c1.186,0,2.158,1.071,2.158,2.383v5.884c0,1.309-0.973,2.381-2.158,2.381h-30.41
						c-1.185,0-2.157-1.072-2.157-2.381v-5.884C62.019,416.445,62.991,415.374,64.176,415.374z"/>
				</g>
			</g>
			<g>
				<g>
					<path fill="#F58A20" d="M291.251,187.061c0,0.896-0.525,1.619-1.178,1.619h-5.967c-0.655,0-1.182-0.724-1.182-1.619v-58.533
						c0-0.892,0.526-1.616,1.182-1.616h5.967c0.652,0,1.178,0.725,1.178,1.616V187.061z"/>
					<path fill="#F79E67" d="M300.085,187.286c0,0.769-0.561,1.394-1.25,1.394h-6.333c-0.69,0-1.251-0.625-1.251-1.394v-50.359
						c0-0.769,0.56-1.392,1.251-1.392h6.333c0.689,0,1.25,0.623,1.25,1.392V187.286z"/>
					<path fill="#AC5868" d="M308.459,187.381c0,0.717-0.531,1.299-1.184,1.299h-6.004c-0.656,0-1.186-0.582-1.186-1.299V140.48
						c0-0.716,0.53-1.296,1.186-1.296h6.004c0.652,0,1.184,0.58,1.184,1.296V187.381z"/>
					<path fill="#0083B5" d="M315.626,187.511c0,0.645-0.453,1.169-1.015,1.169h-5.136c-0.561,0-1.017-0.524-1.017-1.169v-42.188
						c0-0.641,0.456-1.164,1.017-1.164h5.136c0.561,0,1.015,0.523,1.015,1.164V187.511z"/>
					<path fill="#7670B2" d="M327.146,187.261c0,0.783-0.73,1.419-1.631,1.419h-8.258c-0.899,0-1.631-0.636-1.631-1.419v-51.304
						c0-0.781,0.731-1.416,1.631-1.416h8.258c0.9,0,1.631,0.635,1.631,1.416V187.261z"/>
					<path fill="#F27054" d="M335.383,187.133c0,0.854-0.523,1.547-1.168,1.547h-5.901c-0.647,0-1.168-0.693-1.168-1.547v-55.927
						c0-0.854,0.521-1.546,1.168-1.546h5.901c0.645,0,1.168,0.692,1.168,1.546V187.133z"/>
					<path fill="#756178" d="M343.685,187.331c0,0.743-0.527,1.349-1.177,1.349h-5.949c-0.65,0-1.176-0.605-1.176-1.349v-48.789
						c0-0.745,0.525-1.348,1.176-1.348h5.949c0.649,0,1.177,0.603,1.177,1.348V187.331z"/>
					<path fill="#C4A98C" d="M349.847,187.133c0,0.854-0.391,1.547-0.873,1.547h-4.42c-0.48,0-0.869-0.693-0.869-1.547v-55.927
						c0-0.854,0.39-1.546,0.869-1.546h4.42c0.482,0,0.873,0.692,0.873,1.546V187.133z"/>
					<path fill="#888C8E" d="M357.39,187.451c0,0.677-0.477,1.229-1.066,1.229h-5.408c-0.59,0-1.068-0.552-1.068-1.229v-44.387
						c0-0.681,0.478-1.229,1.068-1.229h5.408c0.589,0,1.066,0.548,1.066,1.229V187.451z"/>
					<path fill="#F79E67" d="M366.478,187.218c0,0.805-0.574,1.462-1.286,1.462h-6.515c-0.711,0-1.287-0.657-1.287-1.462v-52.877
						c0-0.806,0.576-1.459,1.287-1.459h6.515c0.712,0,1.286,0.653,1.286,1.459V187.218z"/>
					<path fill="#AE6063" d="M376.367,187.355c0,0.73-0.624,1.324-1.397,1.324h-7.092c-0.772,0-1.4-0.594-1.4-1.324v-47.843
						c0-0.732,0.629-1.324,1.4-1.324h7.092c0.773,0,1.397,0.593,1.397,1.324V187.355z"/>
					<path fill="#414145" d="M382.561,187.505c0,0.646-0.393,1.175-0.878,1.175h-4.435c-0.484,0-0.88-0.529-0.88-1.175v-42.46
						c0-0.648,0.396-1.174,0.88-1.174h4.435c0.484,0,0.878,0.526,0.878,1.174V187.505z"/>
					<path fill="#C188A3" d="M391.649,187.218c0,0.805-0.577,1.462-1.287,1.462h-6.513c-0.714,0-1.289-0.657-1.289-1.462v-52.877
						c0-0.806,0.575-1.459,1.289-1.459h6.513c0.71,0,1.287,0.653,1.287,1.459V187.218z"/>
					<rect x="282.925" y="131.822" fill="#9B5809" width="8.326" height="5.414"/>
					<g>
						<rect x="291.284" y="139.703" fill="#FBC29B" width="8.799" height="1.662"/>
						<rect x="291.284" y="142.194" fill="#FBC29B" width="8.799" height="1.661"/>
					</g>
					<path fill="#645C65" d="M342.508,137.194h-5.949c-0.65,0-1.176,0.603-1.176,1.348v6.99h8.302v-6.99
						C343.685,137.797,343.157,137.194,342.508,137.194z"/>
					<g>
						<rect x="300.085" y="153.692" fill="#78484B" width="8.434" height="2.79"/>
						<rect x="300.083" y="140.703" fill="#78484B" width="8.376" height="2.36"/>
					</g>
					<g>
						<rect x="349.847" y="148.988" fill="#595B5D" width="7.543" height="9.86"/>
						<rect x="349.847" y="144.328" fill="#595B5D" width="7.543" height="2.17"/>
					</g>
					<g>
						<rect x="309.427" y="146.211" fill="#7FAACF" width="5.234" height="1.155"/>
						<rect x="309.427" y="147.76" fill="#7FAACF" width="5.234" height="1.155"/>
						<rect x="309.427" y="149.312" fill="#7FAACF" width="5.234" height="1.152"/>
					</g>
					<g>
						<rect x="366.478" y="140.506" fill="#B2928E" width="9.89" height="1.155"/>
						<rect x="366.478" y="142.055" fill="#B2928E" width="9.89" height="1.155"/>
						<rect x="366.478" y="143.605" fill="#B2928E" width="9.89" height="1.153"/>
						<rect x="368.872" y="183.865" fill="#B2928E" width="5.234" height="1.158"/>
						<rect x="368.872" y="185.417" fill="#B2928E" width="5.234" height="1.153"/>
					</g>
					<g>
						<rect x="328.733" y="131.339" fill="#F7A58A" width="5.232" height="1.152"/>
						<rect x="328.733" y="132.887" fill="#F7A58A" width="5.232" height="1.153"/>
						<rect x="328.733" y="134.437" fill="#F7A58A" width="5.232" height="1.153"/>
						<rect x="327.146" y="184.063" fill="#F7A58A" width="8.237" height="1.156"/>
					</g>
					<rect x="317.034" y="136.957" fill="#59527B" width="9.015" height="5.399"/>
					<g>
						<rect x="323.794" y="177.736" fill="#59527B" width="1.934" height="9.236"/>
						<rect x="320.577" y="177.736" fill="#59527B" width="1.932" height="9.236"/>
						<rect x="317.355" y="177.736" fill="#59527B" width="1.934" height="9.236"/>
					</g>
					<rect x="345.933" y="131.67" fill="#A49280" width="1.665" height="39.068"/>
					<rect x="357.39" y="177.309" fill="#AC6536" width="9.084" height="2.325"/>
					<rect x="357.39" y="180.796" fill="#AC6536" width="9.088" height="2.324"/>
					<g>
						<rect x="384.067" y="179.222" fill="#886273" width="1.261" height="7.711"/>
						<rect x="386.474" y="179.222" fill="#886273" width="1.262" height="7.711"/>
						<rect x="388.882" y="179.222" fill="#886273" width="1.259" height="7.711"/>
					</g>
				</g>
				<g>
					<rect x="267.682" y="188.68" fill="#919DA5" width="139.212" height="305.842"/>
					<rect x="277.335" y="203.255" fill="#7F888F" width="119.904" height="90.521"/>
					<rect x="277.335" y="297.846" fill="#7F888F" width="119.904" height="90.522"/>
					<rect x="277.335" y="392.435" fill="#7F888F" width="119.904" height="90.522"/>
					<rect x="315.445" y="222.032" fill="#4E4F51" width="42.169" height="22.42"/>
					<path fill="#231F20" d="M321.317,230.929h30.423c1.187,0,2.159,1.072,2.159,2.382v5.887c0,1.311-0.973,2.384-2.159,2.384
						h-30.423c-1.185,0-2.158-1.073-2.158-2.384v-5.887C319.159,232.001,320.133,230.929,321.317,230.929z"/>
					<rect x="315.445" y="312.835" fill="#4E4F51" width="42.169" height="22.422"/>
					<path fill="#231F20" d="M320.49,321.734h30.427c1.181,0,2.154,1.07,2.154,2.38v5.889c0,1.31-0.974,2.38-2.154,2.38H320.49
						c-1.188,0-2.157-1.07-2.157-2.38v-5.889C318.333,322.805,319.302,321.734,320.49,321.734z"/>
					<rect x="315.633" y="406.445" fill="#4E4F51" width="42.171" height="22.42"/>
					<path fill="#231F20" d="M321.317,415.343h30.423c1.187,0,2.159,1.071,2.159,2.383v5.887c0,1.309-0.973,2.382-2.159,2.382
						h-30.423c-1.185,0-2.158-1.073-2.158-2.382v-5.887C319.159,416.414,320.133,415.343,321.317,415.343z"/>
				</g>
			</g>
			<g>
				<path fill="#50565B" d="M290.21,372.268l-1.232-2.266c0,0,6.698,1.872,6.748-2.266c0.049-4.137,0.246-37.426,0.246-37.426
					l2.363-0.295l-0.247,40.773l-1.278,2.512l-3.276-0.245L290.21,372.268"/>
				<path fill="none" stroke="#656C70" stroke-miterlimit="10" d="M290.21,372.268l-1.232-2.266c0,0,6.698,1.872,6.748-2.266
					c0.049-4.137,0.246-37.426,0.246-37.426l2.363-0.295l-0.247,40.773l-1.278,2.512l-3.276-0.245L290.21,372.268"/>
				<path fill="#808589" d="M290.21,372.268c0,0,6.992,0.955,6.992-3.363v-38.889h5.712v38.889c0,0,0.773,8.414-6.006,8.437
					l-6.779,0.021L290.21,372.268z"/>
				<path fill="none" stroke="#656C70" stroke-miterlimit="10" d="M290.21,372.268c0,0,6.992,0.955,6.992-3.363v-38.889h5.712
					v38.889c0,0,0.773,8.414-6.006,8.437l-6.779,0.021L290.21,372.268z"/>
				<rect x="248.156" y="421.838" fill="#808589" width="6.4" height="29.124"/>
				<rect x="248.156" y="421.838" fill="none" stroke="#656C70" stroke-miterlimit="10" width="6.4" height="29.124"/>
				<path fill="#252728" d="M247.273,422.491h8.363c1.105,0,2.016-0.868,2.067-1.971l1.482-31.115h-15.464l1.482,31.115
					C245.258,421.623,246.168,422.491,247.273,422.491"/>
				<path fill="none" stroke="#000000" stroke-miterlimit="10" d="M247.273,422.491h8.363c1.105,0,2.016-0.868,2.067-1.971
					l1.482-31.115h-15.464l1.482,31.115C245.258,421.623,246.168,422.491,247.273,422.491z"/>
				<path fill="#1A1B1C" d="M243.307,480.975c0,4.444,3.603,8.048,8.049,8.048c4.445,0,8.048-3.604,8.048-8.048
					c0-4.444-3.602-8.048-8.048-8.048C246.909,472.928,243.307,476.531,243.307,480.975"/>
				<circle fill="none" stroke="#000000" stroke-miterlimit="10" cx="251.355" cy="480.975" r="8.048"/>
				<path fill="#1A1B1C" d="M220.002,479.399c0,4.244,3.441,7.683,7.682,7.683c4.242,0,7.682-3.439,7.682-7.683
					c0-4.241-3.439-7.682-7.682-7.682C223.442,471.718,220.002,475.158,220.002,479.399"/>
				<circle fill="none" stroke="#000000" stroke-miterlimit="10" cx="227.684" cy="479.399" r="7.682"/>
				<path fill="#1A1B1C" d="M267.332,479.399c0,4.244,3.439,7.683,7.682,7.683c4.242,0,7.683-3.439,7.683-7.683
					c0-4.241-3.44-7.682-7.683-7.682C270.772,471.718,267.332,475.158,267.332,479.399"/>
				<circle fill="none" stroke="#000000" stroke-miterlimit="10" cx="275.014" cy="479.399" r="7.682"/>
				<path fill="#A0A6AA" d="M245.728,480.975c0,3.108,2.521,5.627,5.628,5.627c3.108,0,5.628-2.519,5.628-5.627
					c0-3.107-2.52-5.627-5.628-5.627C248.248,475.349,245.728,477.868,245.728,480.975"/>
				<path fill="#A0A6AA" d="M222.689,479.399c0,2.76,2.235,4.997,4.994,4.997c2.76,0,4.995-2.237,4.995-4.997
					c0-2.759-2.235-4.996-4.995-4.996C224.925,474.403,222.689,476.641,222.689,479.399"/>
				<path fill="#A0A6AA" d="M270.017,479.399c0,2.76,2.237,4.997,4.997,4.997c2.759,0,4.996-2.237,4.996-4.997
					c0-2.759-2.237-4.996-4.996-4.996C272.254,474.403,270.017,476.641,270.017,479.399"/>
				<path fill="#1A1B1C" d="M246.57,480.148c0,2.652,2.149,4.802,4.802,4.802c2.651,0,4.802-2.149,4.802-4.802
					c0-2.65-2.15-4.8-4.802-4.8C248.72,475.349,246.57,477.498,246.57,480.148"/>
				<circle fill="none" stroke="#000000" stroke-miterlimit="10" cx="251.372" cy="480.148" r="4.802"/>
				<path fill="#1A1B1C" d="M223.499,478.879c0,2.31,1.872,4.185,4.185,4.185c2.311,0,4.186-1.875,4.186-4.185
					c0-2.312-1.875-4.185-4.186-4.185C225.371,474.694,223.499,476.567,223.499,478.879"/>
				<circle fill="none" stroke="#000000" stroke-miterlimit="10" cx="227.684" cy="478.879" r="4.185"/>
				<path fill="#1A1B1C" d="M270.961,478.879c0,2.238,1.814,4.052,4.053,4.052c2.236,0,4.053-1.813,4.053-4.052
					s-1.816-4.052-4.053-4.052C272.775,474.827,270.961,476.641,270.961,478.879"/>
				<circle fill="none" stroke="#000000" stroke-miterlimit="10" cx="275.014" cy="478.879" r="4.053"/>
				<path fill="#A0A6AA" d="M248.581,424.384c0,0,4.875-1.885,4.571,3.04v21.341c0,0,0.821,1.173-3.849,1.685h4.662l0.213-27.557
					h-5.646L248.581,424.384z"/>
				<path fill="#808589" d="M223.499,461.699c1.182-6.173,13.067-6.107,13.067-6.107h6.86v-3.422c0-0.667,0.539-1.208,1.205-1.208
					h13.642c0.667,0,1.208,0.541,1.208,1.208v3.422h10.045c10.571,0,9.479,7.748,9.479,7.748v9.684c0,1.284-1.039,2.323-2.321,2.323
					h-3.251c-1.282,0-2.322-1.039-2.322-2.323v-0.879v-3.616c0-7.749-5.13-7.289-5.13-7.289l-10.581-0.047V473.9
					c0,0.801-0.646,1.447-1.448,1.447h-4.997c-0.799,0-1.449-0.646-1.449-1.447v-12.744l-10.81-0.048
					c-4.039,0-4.788,3.637-4.899,5.585v7.042c0,0.891-0.723,1.612-1.613,1.612h-4.67c-0.891,0-1.613-0.722-1.613-1.612v-11.671
					c0-0.02,0.005-0.04,0.007-0.06L223.499,461.699z"/>
				<path fill="none" stroke="#656C70" stroke-miterlimit="10" d="M223.499,461.699c1.182-6.173,13.067-6.107,13.067-6.107h6.86
					v-3.422c0-0.667,0.539-1.208,1.205-1.208h13.642c0.667,0,1.208,0.541,1.208,1.208v3.422h10.045
					c10.571,0,9.479,7.748,9.479,7.748v9.684c0,1.284-1.039,2.323-2.321,2.323h-3.251c-1.282,0-2.322-1.039-2.322-2.323v-0.879
					v-3.616c0-7.749-5.13-7.289-5.13-7.289l-10.581-0.047V473.9c0,0.801-0.646,1.447-1.448,1.447h-4.997
					c-0.799,0-1.449-0.646-1.449-1.447v-12.744l-10.81-0.048c-4.039,0-4.788,3.637-4.899,5.585v7.042
					c0,0.891-0.723,1.612-1.613,1.612h-4.67c-0.891,0-1.613-0.722-1.613-1.612v-11.671c0-0.02,0.005-0.04,0.007-0.06
					L223.499,461.699z"/>
				<path fill="#A0A6AA" d="M251.27,457.66c0,0,3.877-0.345,3.73,3.2l0.004,12.116c0,0,0.487,2.322-2.319,1.851
					c0,0,0.887,0.068,1.329-2.147l0.099-11.868C254.112,460.813,253.646,458.35,251.27,457.66"/>
				<path fill="#A0A6AA" d="M251.356,451.407h6.057c0,0,2.117-0.492,1.625,2.067l0.075,2.56l-1.995-3.397L251.356,451.407z"/>
				<path fill="#A0A6AA" d="M273.023,456.429c0,0,5.712,0.543,5.465,7.782l0.009,8.124c0,0,0.929,2.807-3.455,2.462
					c0,0,1.92-0.64,1.724-4.628l-0.098-8.076C276.668,462.093,276.814,459.188,273.023,456.429"/>
				<path fill="#262C35" d="M275.979,247.146c0,0,2.645-7.075,21.702-6.693c0,0,20.105-5.446,22.203,38.749v39.607
					c0,0,1.574,27.328-21.156,26.564c0,0-24.125,1.82-23.775-19.349L275.979,247.146"/>
				<path fill="none" stroke="#161A1E" stroke-miterlimit="10" d="M275.979,247.146c0,0,2.645-7.075,21.702-6.693
					c0,0,20.105-5.446,22.203,38.749v39.607c0,0,1.574,27.328-21.156,26.564c0,0-24.125,1.82-23.775-19.349L275.979,247.146"/>
				<path fill="#181D23" d="M287.54,244.516c0,0,17.658-7.578,21.679,33.548l2.447,45.105c0,0,0.699,16.853-13.985,17.236
					c-14.687,0.381-0.701,1.004-0.701,1.004s-19.232,1.289-20.192-17.249l-4.109-62.875
					C272.678,261.285,274.952,244.181,287.54,244.516"/>
				<path fill="#50565B" d="M236.193,392.816h32.688c1.547,0,2.812-1.267,2.812-2.813v-7.867c0-1.038-0.852-1.891-1.891-1.891
					h-34.53c-1.041,0-1.892,0.853-1.892,1.891v7.867C233.381,391.55,234.647,392.816,236.193,392.816"/>
				<path fill="none" stroke="#656C70" stroke-miterlimit="10" d="M236.193,392.816h32.688c1.547,0,2.812-1.267,2.812-2.813v-7.867
					c0-1.038-0.852-1.891-1.891-1.891h-34.53c-1.041,0-1.892,0.853-1.892,1.891v7.867
					C233.381,391.55,234.647,392.816,236.193,392.816z"/>
				<path fill="#262C35" d="M228.284,384.481c-3.222-0.14,8.735,1.221,26.694,1.575c7.159,0.142,21.073-0.787,21.073-0.787
					c3.342,0,16.063-1.972,16.063-8.865v-4.136c0-7.55-12.722-9.653-16.063-9.653c0,0-13.761-0.227-20.862,0
					c-15.267,0.49-35.25,1.576-35.25,1.576c-3.341,0-8.556,4.135-8.556,7.29v4.923C211.82,381.133,224.943,384.481,228.284,384.481"
					/>
				<path fill="none" stroke="#161A1E" stroke-miterlimit="10" d="M228.284,384.481c-3.222-0.14,8.735,1.221,26.694,1.575
					c7.159,0.142,21.073-0.787,21.073-0.787c3.342,0,16.063-1.972,16.063-8.865v-4.136c0-7.55-12.722-9.653-16.063-9.653
					c0,0-13.761-0.227-20.862,0c-15.267,0.49-35.25,1.576-35.25,1.576c-3.341,0-8.556,4.135-8.556,7.29v4.923
					C211.82,381.133,224.943,384.481,228.284,384.481z"/>
				<path fill="#181D23" d="M212.059,369.342c0,0,0.885,9.625,17.263,11.791c0,0,38.489,3.349,53.614,0c0,0,0.208,2.729-6.363,4.121
					c-6.57,1.392,0,0,0,0s13.179-0.239,15.456-7.892c2.277-7.654,0,0,0,0v-6.097"/>
				<path fill="#181D23" d="M292.028,371.266c0,0-40.798,8.349-79.97-1.924"/>
				<path fill="#3D4447" d="M241.349,185.639l-9.063,0.034c0,0-0.134,3.452-0.201,4.289c-0.066,0.837,3.586-1.239,4.055-1.877
					c0.469-0.637,3.954-1.306,4.523-1.34C240.906,186.173,241.349,185.639,241.349,185.639"/>
				<path fill="#BC7A55" d="M129.965,394.553c0,0-5.506,10.739-10.127,15.52c-4.488,4.642-8.038,10.21-11.802,11.629
					c-2.448,0.921-5.525,1.372-5.062,2.794c1.779,5.464,10.525,8.148,13.773,4.767c4.593-4.786,6.63-7.895,9.843-8.553
					c3.214-0.661,5.919-0.983,6.149-6.828c0.235-5.843,6.77-9.722,7.698-12.959C141.366,397.684,129.965,394.553,129.965,394.553"/>
				<path fill="none" stroke="#724437" stroke-width="0.941" stroke-miterlimit="10" d="M129.965,394.553
					c0,0-5.506,10.739-10.127,15.52c-4.488,4.642-8.038,10.21-11.802,11.629c-2.448,0.921-5.525,1.372-5.062,2.794
					c1.779,5.464,10.525,8.148,13.773,4.767c4.593-4.786,6.63-7.895,9.843-8.553c3.214-0.661,5.919-0.983,6.149-6.828
					c0.235-5.843,6.77-9.722,7.698-12.959C141.366,397.684,129.965,394.553,129.965,394.553z"/>
				<path fill="#A06047" d="M139.233,398.596c0.913,0.739,1.434,1.529,1.204,2.326c-0.928,3.241-7.463,7.116-7.698,12.959
					c-0.18,4.551-1.861,5.753-4.114,6.374C129.604,411.882,132.585,403.944,139.233,398.596"/>
				<path fill="#D39479" d="M103.488,425.668c-0.205-0.374-0.381-0.765-0.514-1.173c-0.464-1.422,2.613-1.873,5.062-2.794
					c3.764-1.419,7.313-6.987,11.801-11.629c4.622-4.78,10.127-15.52,10.127-15.52s0.833,0.227,2.026,0.624
					C124.922,407.257,118.227,423.556,103.488,425.668"/>
				<path fill="#E90D00" d="M127.606,429.804c0.078,1.275-1.354,1.453-3.346,0.288c-1.99-1.164-1.981-2.469-1.981-2.469l3.47-8.524
					l6.48,0.875C132.229,419.974,127.254,424.156,127.606,429.804"/>
				<path fill="none" stroke="#8E0804" stroke-width="0.548" stroke-miterlimit="10" d="M127.606,429.804
					c0.078,1.275-1.354,1.453-3.346,0.288c-1.99-1.164-1.981-2.469-1.981-2.469l3.47-8.524l6.48,0.875
					C132.229,419.974,127.254,424.156,127.606,429.804z"/>
				<path fill="#E90D00" d="M133.711,410.572c-1.258-0.859-2.315,1.825-7.783,7.638c-3.071,4.156-7.902,8.887-13.639,8.91
					c-1.876-0.303-4.502-5.031-7.684-4.911c-1.808,0.067-5.108,2.757-5.531,4.654c-0.431,1.933,1.033,2.758,1.659,3.323
					c0.634,0.57,7.186,4.311,12.931,2.682c5.746-1.631,8.313-8.596,11.797-10.112c3.484-1.513,5.789-0.895,7.853-4.32
					C134.527,416.423,135.699,411.936,133.711,410.572"/>
				<path fill="none" stroke="#8E0804" stroke-width="0.569" stroke-miterlimit="10" d="M133.711,410.572
					c-1.258-0.859-2.315,1.825-7.783,7.638c-3.071,4.156-7.902,8.887-13.639,8.91c-1.876-0.303-4.502-5.031-7.684-4.911
					c-1.808,0.067-5.108,2.757-5.531,4.654c-0.431,1.933,1.033,2.758,1.659,3.323c0.634,0.57,7.186,4.311,12.931,2.682
					c5.746-1.631,8.313-8.596,11.797-10.112c3.484-1.513,5.789-0.895,7.853-4.32C134.527,416.423,135.699,411.936,133.711,410.572z"
					/>
				<path fill="#9B897B" d="M188.692,319.686c-2.527-5.997-11.561-8.856-17.245-7.489c-4.473,1.075-8.517,4.453-10.695,7.935
					c-8.888,18.276-21.141,55.213-26.642,65.007c-6.145,10.939-6.687,11.678-6.687,11.678c-2.473,4.22,6.804,11.194,10.495,7.303
					c5.626-5.934,14.953-22.119,21.782-30.617c6.83-8.499,13.198-18.994,18.759-33.818c2.524-6.729,6.332-13.423,10.375-19.626
					C188.786,319.934,188.743,319.806,188.692,319.686"/>
				<path fill="none" stroke="#605650" stroke-width="0.912" stroke-miterlimit="10" d="M188.692,319.686
					c-2.527-5.997-11.561-8.856-17.245-7.489c-4.473,1.075-8.517,4.453-10.695,7.935c-8.888,18.276-21.141,55.213-26.642,65.007
					c-6.145,10.939-6.687,11.678-6.687,11.678c-2.473,4.22,6.804,11.194,10.495,7.303c5.626-5.934,14.953-22.119,21.782-30.617
					c6.83-8.499,13.198-18.994,18.759-33.818c2.524-6.729,6.332-13.423,10.375-19.626
					C188.786,319.934,188.743,319.806,188.692,319.686z"/>
				<path fill="#7C716C" d="M188.692,319.686c-0.191-0.452-0.408-0.87-0.646-1.263c-0.102,0.12-0.204,0.241-0.306,0.361
					c-3.171,4.294-6.705,7.879-8.27,12.693c-7.992,26.396-25.817,46.636-40.777,68.99c-1.15,1.557-1.263,3.439-4.375,4.428
					c0.864,0.165,2.945-0.089,3.6-0.776c5.626-5.934,14.953-22.119,21.782-30.617c6.83-8.499,13.198-18.994,18.759-33.818
					c2.524-6.729,6.332-13.423,10.375-19.626C188.786,319.934,188.743,319.806,188.692,319.686"/>
				<path fill="#AD9D92" d="M160.752,320.584c-8.888,18.278-21.141,55.214-26.642,65.007c-6.146,10.939-6.688,11.678-6.688,11.678
					c-0.647,1.107-0.084,2.02,0.567,3.257c0.989-1.272,1.66-2.135,2.49-3.46c14.439-20.747,20.489-44.814,28.68-68.186
					c1.626-3.7,4.291-8.54,6.065-10.496c1.773-1.954,1.958-1.808,3.553-2.772c1.262-1.67,0.056-2.398-1.743-1.262
					C165.726,315.176,162.548,317.466,160.752,320.584"/>
				<path fill="#BC7A55" d="M169.18,441.145c0,0,4.745,12.128,1.055,17.4c-3.691,5.272-10.807,15.815-14.235,17.66
					c-3.427,1.848-1.318,5.01,4.218,4.482c5.536-0.527,7.646,2.373,13.182-5.534c5.535-7.91,7.381-9.229,9.752-11.336
					c2.374-2.108,4.483-3.691,1.847-8.701c-2.636-5.007-3.162-10.545-3.954-13.708C180.252,438.245,169.18,441.145,169.18,441.145"
					/>
				<path fill="none" stroke="#724437" stroke-width="0.941" stroke-miterlimit="10" d="M169.18,441.145
					c0,0,4.745,12.128,1.055,17.4c-3.691,5.272-10.807,15.815-14.235,17.66c-3.427,1.848-1.318,5.01,4.218,4.482
					c5.536-0.527,7.646,2.373,13.182-5.534c5.535-7.91,7.381-9.229,9.752-11.336c2.374-2.108,4.483-3.691,1.847-8.701
					c-2.636-5.007-3.162-10.545-3.954-13.708C180.252,438.245,169.18,441.145,169.18,441.145z"/>
				<path fill="#A06047" d="M184.997,455.116c-2.636-5.007-3.162-10.545-3.954-13.708c-0.178-0.711-0.885-1.112-1.865-1.313
					c-0.221,7.839,3.264,14.987,5.347,22.469C186.185,460.923,187.098,459.108,184.997,455.116"/>
				<path fill="#D39479" d="M167.455,468.292c2.251-3.377,3.939-6.753,5.627-9.567c3.12-5.719,0.955-12.398-0.723-18.265
					c-1.81,0.328-3.18,0.685-3.18,0.685s4.744,12.128,1.055,17.4c-3.689,5.272-10.809,15.815-14.235,17.66
					c-2.208,1.19-2.115,2.926-0.29,3.869c1.086-1.505,2.01-3.172,3.306-4.47C161.266,472.793,165.203,471.104,167.455,468.292"/>
				<path fill="#E90D00" d="M185.338,474.725c0.38,1.177-0.92,1.686-3.065,1.074c-2.147-0.614-2.455-1.841-2.455-1.841l0.154-8.892
					l7.021-2.752C186.992,462.314,183.651,469.513,185.338,474.725"/>
				<path fill="none" stroke="#8E0804" stroke-width="0.53" stroke-miterlimit="10" d="M185.338,474.725
					c0.38,1.177-0.92,1.686-3.065,1.074c-2.147-0.614-2.455-1.841-2.455-1.841l0.154-8.892l7.021-2.752
					C186.992,462.314,183.651,469.513,185.338,474.725z"/>
				<path fill="#E90D00" d="M184.011,453.025c-1.159,0.817-6.137,7.433-8.151,14.607c-2.013,7.173-7.755,8.501-9.518,8.662
					c-1.762,0.159-4.975-2.773-7.938-2.854c-2.963-0.079-5.533,2.821-6.576,4.344c-1.039,1.52-0.095,3.729,0.467,4.289
					c0.56,0.561,12.735,2.564,17.541-0.239c4.806-2.804,7.123-10.112,9.916-12.288c2.792-2.174,6.862-3.525,7.239-7.232
					C187.367,458.604,185.73,451.814,184.011,453.025"/>
				<path fill="none" stroke="#8E0804" stroke-width="0.53" stroke-miterlimit="10" d="M184.011,453.025
					c-1.159,0.817-6.137,7.433-8.151,14.607c-2.013,7.173-7.755,8.501-9.518,8.662c-1.762,0.159-4.975-2.773-7.938-2.854
					c-2.963-0.079-5.533,2.821-6.576,4.344c-1.039,1.52-0.095,3.729,0.467,4.289c0.56,0.561,12.735,2.564,17.541-0.239
					c4.806-2.804,7.123-10.112,9.916-12.288c2.792-2.174,6.862-3.525,7.239-7.232C187.367,458.604,185.73,451.814,184.011,453.025z"
					/>
				<path fill="#9B897B" d="M181.814,409.752c3.444-21.228-1.409-30.513-2.604-37.661c-0.686-4.105,26.364-1.276,37.694-0.94
					c11.331,0.335,32.132-1.843,32.132-1.843l1.273-0.257c0.161-0.127,0.356-0.225,0.605-0.273
					c8.622-1.679,11.275-12.715,12.838-20.263c0.941-4.555,2.179-8.281-0.489-12.468c-1.065-1.673-2.466-2.96-4.022-4.057
					c-3.832-0.542-8.076-0.872-12.838-0.901c-22.852-0.132-79.766,4.46-88.048,12.852c-7.097,7.193-6.882,16.81-6.083,23.313
					c2.68,21.815,2.68,34.02,7.271,47.416c4.596,13.397,8.222,25.256,8.641,30.171c0.42,4.911,5.514,4.792,10.365,5.032
					c4.855,0.24,5.793-2.333,5.413-3.637C183.245,435.506,180.384,418.575,181.814,409.752"/>
				<path fill="none" stroke="#605650" stroke-width="0.912" stroke-miterlimit="10" d="M181.814,409.752
					c3.444-21.228-1.409-30.513-2.604-37.661c-0.686-4.105,26.364-1.276,37.694-0.94c11.331,0.335,32.132-1.843,32.132-1.843
					l1.273-0.257c0.161-0.127,0.356-0.225,0.605-0.273c8.622-1.679,11.275-12.715,12.838-20.263
					c0.941-4.555,2.179-8.281-0.489-12.468c-1.065-1.673-2.466-2.96-4.022-4.057c-3.832-0.542-8.076-0.872-12.838-0.901
					c-22.852-0.132-79.766,4.46-88.048,12.852c-7.097,7.193-6.882,16.81-6.083,23.313c2.68,21.815,2.68,34.02,7.271,47.416
					c4.596,13.397,8.222,25.256,8.641,30.171c0.42,4.911,5.514,4.792,10.365,5.032c4.855,0.24,5.793-2.333,5.413-3.637
					C183.245,435.506,180.384,418.575,181.814,409.752z"/>
				<path fill="#AD9D92" d="M162.64,373.378c0-1.126-1.31-2.25-2.435-3.939c-1.688-2.813-3.376-5.627-3.939-8.44
					c-6.189-25.322,55.142-23.38,80.651-27.398c8.521-1.143,16.983-0.847,25.143,0.861c-0.838-0.943-1.795-1.749-2.818-2.472
					c-3.833-0.542-8.078-0.872-12.84-0.901c-23.342-0.137-80.596,5.088-88.619,13.567c-6.455,6.822-6.27,16.42-5.512,22.597
					c2.68,21.815,2.68,34.02,7.271,47.416c4.595,13.397,8.222,25.256,8.641,30.171c0.219,2.558,1.712,3.747,3.773,4.337
					c0.635-2.762-1.745-5.94-2.436-9.583C165.02,416.522,151.379,384.638,162.64,373.378"/>
				<path fill="#7C716C" d="M181.337,418.252c0-5.876,1.917-17.823,1.179-28.898c-0.388-5.8-2.466-10.366-3.464-17.263
					c-0.664-4.578,26.928-1.706,38.258-1.371c11.332,0.333,27.237-0.996,32.134-1.844c-5.29-2.592-9.195-8.558-11.199-17.084
					c-0.574,5.606,1.739,10.206,5.561,15.435c-6.744-0.7-33.49-15.308-40.674-14.689c-2.373,0.207,17.536,15.367,15.145,15.688
					c-13.946,1.618-36.005-2.339-38.983-0.308c-3.337,2.274-2.904,4.589-2.101,11.746c0.357,3.163,4.384,5.289,1.696,31.362
					c-1.512,14.652,1.299,30.667,1.582,38.759c1.725-0.271,3.02-0.96,3.734-1.592C182.67,449.548,181.337,423.592,181.337,418.252"
					/>
				<path fill="#9B897B" d="M226.684,361.053c6.487,2.454,13.275,3.794,20.184,3.808l-7.508-49.659l-12.115-2.64
					c-1.73,12.105-11.536,20.454-16.246,40.397C216.002,356.08,221.178,358.967,226.684,361.053"/>
				<path fill="none" stroke="#605650" stroke-width="0.912" stroke-miterlimit="10" d="M226.684,361.053
					c6.487,2.454,13.275,3.794,20.184,3.808l-7.508-49.659l-12.115-2.64c-1.73,12.105-11.536,20.454-16.246,40.397
					C216.002,356.08,221.178,358.967,226.684,361.053z"/>
				<path fill="#9B897B" d="M238.952,327.353c-0.104,0.786-0.134,1.276-0.134,1.276l-1.382,7.419
					c-1.384,7.423,1.003,19.436,5.035,21.205c0,0,2.534,19.724,3.611,20.115c1.498,0.545,17.726,3.595,28.845-2.863
					c4.486-2.604,11.146-9.002,7.226-22.35c-2.499-16.008-8.325-26.514-11.12-35.935l-0.208-0.721
					c-0.431-1.529-0.774-3.032-1.008-4.528c-0.081,0.069-0.161,0.135-0.241,0.202l-0.019-0.063
					c-6.867,4.907-26.927,4.622-29.499,4.091c-2.575-0.529-3.114-0.353-3.977,1.413c-0.863,1.767-0.645,3.181-1.652,6.536
					C233.627,325.819,235.954,326.923,238.952,327.353"/>
				<path fill="none" stroke="#605650" stroke-width="0.912" stroke-miterlimit="10" d="M238.952,327.353
					c-0.104,0.786-0.134,1.276-0.134,1.276l-1.382,7.419c-1.384,7.423,1.003,19.436,5.035,21.205c0,0,2.534,19.724,3.611,20.115
					c1.498,0.545,17.726,3.595,28.845-2.863c4.486-2.604,11.146-9.002,7.226-22.35c-2.499-16.008-8.325-26.514-11.12-35.935
					l-0.208-0.721c-0.431-1.529-0.774-3.032-1.008-4.528c-0.081,0.069-0.161,0.135-0.241,0.202l-0.019-0.063
					c-6.867,4.907-26.927,4.622-29.499,4.091c-2.575-0.529-3.114-0.353-3.977,1.413c-0.863,1.767-0.645,3.181-1.652,6.536
					C233.627,325.819,235.954,326.923,238.952,327.353z"/>
				<path fill="none" stroke="#776960" stroke-width="0.912" stroke-miterlimit="10" d="M271.879,318.858
					c-0.927-2.715-1.663-5.313-2.064-7.887c-10.915,6.534-30.458,4.229-30.458,4.229l-12.111-2.64
					c-0.439,3.068-1.398,5.896-2.66,8.732C230.801,327.483,245.123,331.833,271.879,318.858z"/>
				<path fill="#70645D" d="M236.317,323.935c-0.068,0.74,0.474,1.343,1.204,1.343c0.734,0,1.385-0.601,1.453-1.343
					c0.068-0.74-0.471-1.343-1.204-1.343S236.386,323.193,236.317,323.935"/>
				<path fill="#70645D" d="M237.33,318.634c-0.068,0.742,0.473,1.344,1.206,1.344s1.384-0.602,1.452-1.344
					c0.068-0.74-0.471-1.342-1.205-1.342C238.049,317.292,237.399,317.892,237.33,318.634"/>
				<path fill="#AD9D92" d="M212.733,354.026c2.656-10.549,7.591-20.707,14.762-29.96c1.816-2.646,1.364-7.275,1.597-11.103
					l-1.848-0.402c-1.73,12.105-11.536,20.454-16.246,40.397C211.574,353.317,212.154,353.674,212.733,354.026"/>
				<path fill="#7C716C" d="M241.231,355.183c-2.121-7.355-1.24-20.931,1.676-28.283c-1.438,0-2.688,0.465-3.979,0.648
					c-0.084,0.669-0.109,1.081-0.109,1.081l-1.382,7.419c-1.358,7.288,0.92,18.996,4.817,21.091
					C241.861,356.605,241.512,355.967,241.231,355.183"/>
				<path fill="#7C716C" d="M246.67,364.857c0.932,0.006,1.863-0.014,2.799-0.057c0.038-1.126-0.148-1.955-0.489-2.603
					c-0.524-0.073-1.048-0.145-1.578-0.194c-0.46,0.318-0.912,0.589-1.378,0.795l0.27,0.418
					C246.445,363.785,246.568,364.341,246.67,364.857"/>
				<path fill="#7C716C" d="M279.064,354.963c1.061-0.894,2.091-1.834,3.09-2.808c-2.499-16.008-8.325-26.514-11.12-35.935
					l-0.209-0.721c-0.268-0.953-0.498-1.896-0.693-2.836c-0.619,0.744-1.41,1.363-2.322,1.882c2.395,8.221,3.48,16.714,6.975,24.809
					C276.894,344.477,278.251,349.685,279.064,354.963"/>
				<path fill="#87786E" d="M269.815,310.972c-0.079,0.068-0.159,0.135-0.239,0.202l-0.019-0.063
					c-0.679,0.484-1.492,0.918-2.399,1.307c-8.27,3.54-24.781,3.264-27.1,2.784c-2.576-0.529-3.115-0.353-3.977,1.412
					c-0.863,1.768-0.645,3.182-1.652,6.537c-0.048,0.159-0.082,0.313-0.108,0.456c0.174-0.219,0.354-0.442,0.557-0.669
					c1.274-1.698,0.469-5.093,1.026-5.093c6.367-2.26,12.159,1.703,19.032,0.008c3.883-0.77,9.293-1.277,12.872-3.307
					c0.911-0.519,1.703-1.138,2.322-1.882C270.012,312.099,269.905,311.533,269.815,310.972"/>
				<path fill="#70645D" d="M236.317,323.935c-0.068,0.74,0.474,1.343,1.204,1.343c0.734,0,1.385-0.601,1.453-1.343
					c0.068-0.74-0.471-1.343-1.204-1.343S236.386,323.193,236.317,323.935"/>
				<path fill="#70645D" d="M237.33,318.634c-0.068,0.742,0.473,1.344,1.206,1.344s1.384-0.602,1.452-1.344
					c0.068-0.74-0.471-1.342-1.205-1.342C238.049,317.292,237.399,317.892,237.33,318.634"/>
				<path fill="#BC7A55" d="M194.178,274.132c0,0-4.96-4.52-8.027-5.281c-3.07-0.764-5.607-1.457-6.966-3.41
					c-1.36-1.952-6.35-7.901-6.987-9.511c-0.638-1.609,0.645-7.577,0.972-9.013c0.329-1.438,2.409,0.856,2.04,2.929
					c-0.369,2.071-0.148,5.518,0.373,6.147c0.521,0.629,2.512,3.199,4.338,3.739c1.825,0.541,4.188,0.634,6.463,0.257
					c2.273-0.376,7.211-2.102,9.672,1.259c2.462,3.36,1.57,4.519,4.006,6.272C202.498,269.273,194.178,274.132,194.178,274.132"/>
				<path fill="none" stroke="#724437" stroke-width="0.941" stroke-miterlimit="10" d="M194.178,274.132c0,0-4.96-4.52-8.027-5.281
					c-3.07-0.764-5.607-1.457-6.966-3.41c-1.36-1.952-6.35-7.901-6.987-9.511c-0.638-1.609,0.645-7.577,0.972-9.013
					c0.329-1.438,2.409,0.856,2.04,2.929c-0.369,2.071-0.148,5.518,0.373,6.147c0.521,0.629,2.512,3.199,4.338,3.739
					c1.825,0.541,4.188,0.634,6.463,0.257c2.273-0.376,7.211-2.102,9.672,1.259c2.462,3.36,1.57,4.519,4.006,6.272
					C202.498,269.273,194.178,274.132,194.178,274.132z"/>
				<path fill="#BC7A55" d="M199.406,267.591c0,0-1.707-2.798-2.049-4.854c-0.346-2.057-3.23-3.191-4.311-4.973
					c-1.63-2.688-1.34-3.793-1.6-6.982c-0.165-2.016-2.938,0.17-3.145,2.127c-0.232,2.181,0.139,4.652,0.852,5.849
					c0.712,1.196-2.528,1.204-2.528,1.204"/>
				<path fill="none" stroke="#724437" stroke-width="0.941" stroke-miterlimit="10" d="M199.406,267.591
					c0,0-1.707-2.798-2.049-4.854c-0.346-2.057-3.23-3.191-4.311-4.973c-1.63-2.688-1.34-3.793-1.6-6.982
					c-0.165-2.016-2.938,0.17-3.145,2.127c-0.232,2.181,0.139,4.652,0.852,5.849c0.712,1.196-2.528,1.204-2.528,1.204"/>
				<path fill="#BC7A55" d="M179.997,266.104c-2.395-3.152-4.895-6.095-4.808-7.823c0.088-1.731,3.172-7.325,3.929-8.59
					c0.757-1.266,2.028,1.562,1.034,3.418c-0.994,1.851-1.814,5.383-1.602,6.17c0.212,0.788,2.36,3.075,3.039,4.713"/>
				<path fill="none" stroke="#724437" stroke-width="0.941" stroke-miterlimit="10" d="M179.997,266.104
					c-2.395-3.152-4.895-6.095-4.808-7.823c0.088-1.731,3.172-7.325,3.929-8.59c0.757-1.266,2.028,1.562,1.034,3.418
					c-0.994,1.851-1.814,5.383-1.602,6.17c0.212,0.788,2.36,3.075,3.039,4.713"/>
				<path fill="#BC7A55" d="M180.556,266.882c-1.364-1.31-2.833-3.549-3.331-5.208c-0.497-1.659,3.927-8.083,4.826-9.251
					c0.898-1.167,1.83,1.787,0.628,3.514c-1.203,1.726-2.444,4.95-2.233,5.737c0.566,0.545,2.948,2.615,4.152,3.667"/>
				<path fill="none" stroke="#724437" stroke-width="0.941" stroke-miterlimit="10" d="M180.556,266.882
					c-1.364-1.31-2.833-3.549-3.331-5.208c-0.497-1.659,3.927-8.083,4.826-9.251c0.898-1.167,1.83,1.787,0.628,3.514
					c-1.203,1.726-2.444,4.95-2.233,5.737c0.566,0.545,2.948,2.615,4.152,3.667"/>
				<path fill="#BC7A55" d="M181.301,266.835c-0.695-0.215-1.471-0.709-1.384-2.378c0.101-1.93-0.387-3.865-0.189-4.761
					c0.313-1.427,3.649-4.608,4.558-5.46c0.908-0.853,1.284,1.74,0.047,3.016c-1.239,1.275-1.79,2.271-1.723,2.957
					c0.032,0.323,0.47,2.671,0.686,3.737c1.922,0.365,4.218-0.008,5.909,1.961"/>
				<path fill="none" stroke="#724437" stroke-width="0.941" stroke-miterlimit="10" d="M181.301,266.835
					c-0.695-0.215-1.471-0.709-1.384-2.378c0.101-1.93-0.387-3.865-0.189-4.761c0.313-1.427,3.649-4.608,4.558-5.46
					c0.908-0.853,1.284,1.74,0.047,3.016c-1.239,1.275-1.79,2.271-1.723,2.957c0.032,0.323,0.47,2.671,0.686,3.737
					c1.922,0.365,4.218-0.008,5.909,1.961"/>
				<path fill="#DEE0E2" d="M193.189,273.64c0,0-0.443-3.601,2.662-5.617c3.106-2.018,3.585-2.192,4.652-1.791
					c1.068,0.403,3.356,3.557,3.356,3.557l-6.022,8.071C197.838,277.859,193.769,275.163,193.189,273.64"/>
				<path fill="none" stroke="#B2B2B2" stroke-width="0.912" stroke-miterlimit="10" d="M193.189,273.64
					c0,0-0.443-3.601,2.662-5.617c3.106-2.018,3.585-2.192,4.652-1.791c1.068,0.403,3.356,3.557,3.356,3.557l-6.022,8.071
					C197.838,277.859,193.769,275.163,193.189,273.64z"/>
				<path opacity="0.2" enable-background="new    " d="M198.346,277.179l-0.508,0.681c0,0-4.069-2.698-4.649-4.22
					c0,0-0.332-2.721,1.622-4.758C193.973,272.229,194.802,275.389,198.346,277.179"/>
				<path fill="#8C050B" d="M202.296,271.886c-1.292-2.353-2.798-3.969-4.724-4.95c1.625-0.977,2.102-1.016,2.932-0.704
					c1.068,0.403,3.355,3.559,3.355,3.559L202.296,271.886z"/>
				<path fill="#DEE0E2" d="M228.486,306.054c1.404-1.529,2.543-3.301,3.453-5.164c1.092-2.229,1.711-4.39,1.167-6.875
					c-0.397-1.82-1.021-3.544-1.727-5.264c-0.008-0.014-0.009-0.027-0.013-0.042c-0.292-0.169-0.589-0.335-0.89-0.496
					c-10.256-5.416-26.616-18.425-26.616-18.425s-2.201-1.208-4.74,1.806c-2.541,3.015-1.282,6.266-1.282,6.266
					c8.749,9.59,20.688,21.174,29.619,29.238C227.81,306.761,228.154,306.417,228.486,306.054"/>
				<path fill="none" stroke="#B2B2B2" stroke-width="0.912" stroke-miterlimit="10" d="M228.486,306.054
					c1.404-1.529,2.543-3.301,3.453-5.164c1.092-2.229,1.711-4.39,1.167-6.875c-0.397-1.82-1.021-3.544-1.727-5.264
					c-0.008-0.014-0.009-0.027-0.013-0.042c-0.292-0.169-0.589-0.335-0.89-0.496c-10.256-5.416-26.616-18.425-26.616-18.425
					s-2.201-1.208-4.74,1.806c-2.541,3.015-1.282,6.266-1.282,6.266c8.749,9.59,20.688,21.174,29.619,29.238
					C227.81,306.761,228.154,306.417,228.486,306.054z"/>
				<path fill="#8C050B" d="M232.919,293.27c-0.395-1.546-0.933-3.035-1.54-4.519c-0.008-0.014-0.009-0.027-0.013-0.042
					c-0.292-0.169-0.589-0.335-0.89-0.496c-10.256-5.416-26.616-18.425-26.616-18.425s-1.759-0.456-2.612,0.265
					c8.336,6.517,15.525,13.551,24.928,19.615C228.071,291.086,230.808,291.987,232.919,293.27"/>
				<path opacity="0.2" enable-background="new    " d="M197.861,276.409c0.039,1.038-0.023,1.45-0.023,1.45
					c7.191,7.88,16.532,17.107,24.591,24.621c-1.116-1.836-1.987-3.842-2.63-5.813C212.642,289.643,205.63,282.798,197.861,276.409"
					/>
				<path fill="#DEE0E2" d="M223.873,303.793c1.609,1.57,4.081,2.658,6.275,3.021c1.23,0.204,2.553,0.308,3.761,0.187
					c0.165-0.95,0.348-1.92,0.554-2.91c2.683-12.82,8.646-36.076,7.155-46.212l9.541-23.256c0,0-12.821,2.982-17.889,2.683
					c-5.068-0.297-9.266,5.07-8.669,8.35c0.597,3.278,0.298,18.188-0.895,24.448c-0.723,3.799-0.511,11.11-0.966,18.27"/>
				<path fill="none" stroke="#B2B2B2" stroke-width="0.912" stroke-miterlimit="10" d="M223.873,303.793
					c1.609,1.57,4.081,2.658,6.275,3.021c1.23,0.204,2.553,0.308,3.761,0.187c0.165-0.95,0.348-1.92,0.554-2.91
					c2.683-12.82,8.646-36.076,7.155-46.212l9.541-23.256c0,0-12.821,2.982-17.889,2.683c-5.068-0.297-9.266,5.07-8.669,8.35
					c0.597,3.278,0.298,18.188-0.895,24.448c-0.723,3.799-0.511,11.11-0.966,18.27"/>
				<path fill="#DEE0E2" d="M234.713,249.444c-2.701-1.083-3.124-0.134-5.827,1.669c3.939,3.375,4.876,5.438,3.188,11.63
					c-3.971,12.791-4.085,29.01-6.495,42.194c0.836,0.082,1.638,1.567,2.435,1.488c0.167-0.952,0.696-4.725,0.905-5.715
					c2.683-12.82,6.211-38.51,4.721-48.648L234.713,249.444z"/>
				<path fill="#BFBFBF" d="M233.27,237.306c-5.068-0.297-9.266,5.07-8.669,8.35s0.298,18.188-0.895,24.448
					c-0.8,4.199-0.459,12.684-1.133,20.517c0.228,1.201,0.547,2.397,0.908,3.598c4.075-17.011-0.234-31.638,3.628-49.294
					c0-1.124,0.563-2.814,1.688-3.378c7.478-0.994,14.075-2.876,21.352-4.463l1.009-2.459
					C251.158,234.624,238.336,237.606,233.27,237.306"/>
				<path fill="#DEE0E2" d="M253.716,237.099c0,0-13.36,2.748-16.356,4.121c-2.997,1.374-6.618,11.86-8.492,17.854
					c-1.872,5.994,52.694,3.997,54.443,1.374c1.748-2.621,3.37-15.108-2.248-17.729
					C275.441,240.094,261.584,236.723,253.716,237.099"/>
				<path fill="#DEE0E2" d="M275.817,257.113c-1.31,5.823,3.762,12.609,2.726,20.275c-1.036,7.665-6.479,10.802-7.309,14.116
					c-0.828,3.317-0.358,13.619-0.358,15.899c0,2.278-1.835,3.742-8.108,6.215c-6.272,2.473-16.989,1.243-19.475,1.864
					c-2.487,0.622-1.45-1.035-3.527-0.258c-2.077,0.78-12.634-0.569-14.084-2.436c-1.451-1.864,0.621-6.216,1.864-9.944
					c1.242-3.728,1.864-11.602-4.145-16.576c-6.007-4.973-7.044-12.017-2.899-19.89c4.144-7.873,10.773-10.774,10.773-14.503"/>
				<path fill="none" stroke="#B2B2B2" stroke-width="0.912" stroke-miterlimit="10" d="M275.817,257.113
					c-1.31,5.823,3.762,12.609,2.726,20.275c-1.036,7.665-6.479,10.802-7.309,14.116c-0.828,3.317-0.358,13.619-0.358,15.899
					c0,2.278-1.835,3.742-8.108,6.215c-6.272,2.473-16.989,1.243-19.475,1.864c-2.487,0.622-1.45-1.035-3.527-0.258
					c-2.077,0.78-12.634-0.569-14.084-2.436c-1.451-1.864,0.621-6.216,1.864-9.944c1.242-3.728,1.864-11.602-4.145-16.576
					c-6.007-4.973-7.044-12.017-2.899-19.89c4.144-7.873,10.773-10.774,10.773-14.503"/>
				<path opacity="0.2" enable-background="new    " d="M278.165,279.289c-3.116,4.509-7.607,8.022-13.031,8.745
					c-15.74,2.713-37.759,5.42-46.876-10.047c0.602,3.132,2.314,5.939,5.145,8.281c6.009,4.973,5.387,12.848,4.145,16.576
					c-1.203,3.609-3.174,7.795-1.983,9.751c4.894-5.625,7.18-12.686,4.12-21.187c10.128,7.315,28.135-4.502,36.575,2.813
					c6.087,5.581,0.741,15.274-7.381,20.428c1.398-0.24,2.722-0.572,3.891-1.032c6.273-2.473,8.108-3.935,8.108-6.217
					c0-2.277-0.471-12.581,0.358-15.897C271.991,288.48,276.58,285.594,278.165,279.289"/>
				<path fill="none" stroke="#B2B2B2" stroke-width="0.912" stroke-miterlimit="10" d="M240.693,315.482
					c0,0-2.694-2.279-1.656-6.008c1.035-3.729,0.621-5.18-0.622-8.08c-1.243-2.902,2.485-5.18,0.414-8.702
					c-2.073-3.522-4.766-10.774-3.523-15.539c1.245-4.767,9.118-13.882,9.946-18.441"/>
				<path fill="#DEE0E2" d="M289.394,303.059c0.724-16.518-0.901-44.214-1.176-49.177c-0.114-2.045-0.659-4.642,0.377-8.434
					c1.033-3.792-18.593-9.372-18.593-9.372l-1.736,40.424c-1.229,10.122,2.508,25.652,3.684,32.458
					c0.115,0.671,0.199,1.413,0.265,2.213c0.222,0.093,0.429,0.242,0.6,0.465c0.257,0.334,0.525,0.633,0.803,0.903
					c0.548,0.296,1.113,0.567,1.704,0.792c3.064,1.162,6.081,1.095,9.239,1.033c1.208-0.365,2.383-0.882,3.251-1.775
					c0.772-0.793,1.275-1.736,1.617-2.746C289.305,307.915,289.278,305.686,289.394,303.059"/>
				<path fill="none" stroke="#B2B2B2" stroke-width="0.912" stroke-miterlimit="10" d="M289.394,303.059
					c0.724-16.518-0.901-44.214-1.176-49.177c-0.114-2.045-0.659-4.642,0.377-8.434c1.033-3.792-18.593-9.372-18.593-9.372
					l-1.736,40.424c-1.229,10.122,2.508,25.652,3.684,32.458c0.115,0.671,0.199,1.413,0.265,2.213
					c0.222,0.093,0.429,0.242,0.6,0.465c0.257,0.334,0.525,0.633,0.803,0.903c0.548,0.296,1.113,0.567,1.704,0.792
					c3.064,1.162,6.081,1.095,9.239,1.033c1.208-0.365,2.383-0.882,3.251-1.775c0.772-0.793,1.275-1.736,1.617-2.746
					C289.305,307.915,289.278,305.686,289.394,303.059z"/>
				<path opacity="0.2" enable-background="new    " d="M279.582,266.827c-3.703,2.188-8.498,1.599-10.821-1.844l-0.495,11.517
					c-0.704,5.797,0.221,11.729,1.36,19.102c1.37,0.961,2.883,1.652,4.428,2.326c-0.116-4.3-0.284-6.241-0.753-10.746
					C272.25,279.747,272.418,271.289,279.582,266.827"/>
				<path fill="#BFBFBF" d="M286.153,313.753c0.614-0.302,1.184-0.674,1.658-1.164c0.772-0.793,1.275-1.735,1.617-2.746
					c-0.124-1.928-0.15-4.155-0.035-6.784c0.724-16.518-0.901-44.214-1.176-49.177c-0.114-2.045-0.659-4.642,0.377-8.434
					l-3.243,0.415c1.071,0.657-0.757,2.194-2.485,2.609c1.438,2.947,2.828,6.458,3.099,9.869
					C288.8,278.159,283.265,294.816,286.153,313.753"/>
				<path fill="#BFBFBF" d="M288.595,245.448c1.034-3.792-18.595-9.372-18.595-9.372l-0.09,2.136
					c5.268,2.464,10.883,3.835,15.441,7.651"/>
				<path fill="#470E02" d="M265.668,240.155c0,0,12.391-0.526,12.653-5.799c0.263-5.272-6.328-9.226-3.69-9.226
					c2.636,0,7.381,0.526,6.063-4.481c-1.317-5.009-8.962-6.853-0.527-9.49c8.436-2.637,20.826-1.582,20.035-22.143
					c-0.444-11.556-15.373-45.187-37.171-45.443c-22.142-0.265-18.189,6.853-24.516,11.599c-6.327,4.745-12.962,6.521-6.854,20.349
					c7.566,17.128-0.526,37.483,2.111,42.756c2.635,5.273,7.117,4.481,4.217,11.863c-2.9,7.382,3.953,15.026,8.962,11.336
					C251.958,237.785,265.668,240.155,265.668,240.155"/>
				<path fill="#BC7A55" d="M244.039,221.551c0,0,3.621,11.364-0.375,19.48c-5.083,10.328-1.498,7.993-0.749,12.486
					c0.749,4.497,1.525,7.631,1.525,7.631s7.216-11.501,9.713-13.249c2.497-1.748,9.74-10.113,9.74-10.113
					c-4.95-4.937-4.58-11.698-0.501-19.73L244.039,221.551z"/>
				<path fill="none" stroke="#724437" stroke-width="0.941" stroke-miterlimit="10" d="M244.039,221.551
					c0,0,3.621,11.364-0.375,19.48c-5.083,10.328-1.498,7.993-0.749,12.486c0.749,4.497,1.525,7.631,1.525,7.631
					s7.216-11.501,9.713-13.249c2.497-1.748,9.74-10.113,9.74-10.113c-4.95-4.937-4.58-11.698-0.501-19.73L244.039,221.551z"/>
				<path fill="#935441" d="M249.189,230.837c2.025,0.129,7.217-3.404,12.277-8.298c0.497-1.445,1.143-2.94,1.928-4.485
					l-19.355,3.497c0,0,0.84,2.642,1.264,6.284C246.714,229.662,248.023,230.761,249.189,230.837"/>
				<path fill="#470E02" d="M239.041,156.986c0,0-7.643-0.396-10.412,8.172c-2.768,8.567,1.45,17.397,5.933,19.112
					C239.041,185.984,239.041,156.986,239.041,156.986"/>
				<path fill="#BC7A55" d="M255.65,153.69c-14.416,0-23.463,5.009-22.803,16.344c0.659,11.336,3.823,11.732,1.449,18.717
					c-2.371,6.985-3.954,10.585-0.658,18.191c5.616,12.959,11.465,20.298,15.551,20.561c4.088,0.265,21.09-11.071,23.86-21.746
					c2.768-10.676,6.853-27.021,3.954-36.511C274.103,159.754,269.622,153.69,255.65,153.69"/>
				
					<path fill="none" stroke="#724437" stroke-width="0.941" stroke-linecap="round" stroke-linejoin="round" stroke-miterlimit="10" d="
					M255.65,153.69c-14.416,0-23.463,5.009-22.803,16.344c0.659,11.336,3.823,11.732,1.449,18.717
					c-2.371,6.985-3.954,10.585-0.658,18.191c5.616,12.959,11.465,20.298,15.551,20.561c4.088,0.265,21.09-11.071,23.86-21.746
					c2.768-10.676,6.853-27.021,3.954-36.511C274.103,159.754,269.622,153.69,255.65,153.69z"/>
				<path fill="#BC7A55" d="M246.645,187.082c0.218,2.239,0.086,9.754-3.473,12.127c-3.56,2.372,0.088,3.206,2.064,3.426
					c1.977,0.219,5.098-0.132,5.801-0.791"/>
				
					<path fill="none" stroke="#724437" stroke-width="0.941" stroke-linecap="round" stroke-linejoin="round" stroke-miterlimit="10" d="
					M246.645,187.082c0.218,2.239,0.086,9.754-3.473,12.127c-3.56,2.372,0.088,3.206,2.064,3.426
					c1.977,0.219,5.098-0.132,5.801-0.791"/>
				<path fill="#A53D3D" d="M247.938,213.785c-1.883-0.091-4.802-1.699-4.956-3.265l10.423-0.205
					C253.404,210.315,252.412,214.002,247.938,213.785"/>
				<path fill="#7F0A0A" d="M254.672,209.72c0.287-0.068-0.784,1.674-7.447,1.33c-6.662-0.344-6.486-1.673-6.486-1.673
					s1.553,0.505,2.828-0.234c1.227-0.712,3.04-0.645,5.238-0.33C251.003,209.127,252.465,210.243,254.672,209.72"/>
				<path fill="#571B01" d="M266.228,190.383c0,0-1.866-3.873-5.464-3.319c-3.598,0.551-6.214,3.635-6.116,4.081
					c0.099,0.447,0.963,2.145,5.788,1.728C265.261,192.459,265.883,191.145,266.228,190.383"/>
				<path fill="#FFFFFF" d="M266.228,190.383c0,0-2.696-2.352-6.294-1.797c-3.596,0.552-5.384,2.112-5.286,2.559
					c0.099,0.447,0.963,2.145,5.788,1.728C265.261,192.459,265.883,191.145,266.228,190.383"/>
				<path fill="#3A0C00" d="M269.007,184.115c-0.594-0.841-2.499-3.304-5.624-3.003c-3.124,0.3-6.006,1.197-6.049,2.201
					c-0.042,1.003,1.597,0.501,3.55,0c1.954-0.502,4.921-0.903,6.17-0.1C268.303,184.015,269.602,184.956,269.007,184.115"/>
				<path fill="#A06047" d="M272.951,204.937c-2.77,10.677-21.759,23.26-25.801,21.283c-0.268-0.132-0.605-0.082-0.919-0.174
					c1.088,0.753,2.108,1.168,3.028,1.227c4.086,0.262,21.088-11.073,23.856-21.748L272.951,204.937z"/>
				<path fill="#A06047" d="M254.596,163.079c-2.635,2.108-3.164-1.582-4.746-2.108c-8.522-2.508-14.184,6.904-16.078,14.636
					c2.291-1.699,4.48-4.355,4.48-4.355l5.652-6.145c2.156-0.688,4.465-0.545,5.155,0.608c1.77,2.948,5.801,3.954,11.071-0.264
					c5.273-4.218,8.173,0.913,6.591,6.186c-1.582,5.272-0.263,6.712,2.9,7.239c3.163,0.526,6.853,9.084,5.272,12.249
					c-1.582,3.162-0.527,6.063-0.527,6.063s1.209-5.358,4.331-8.657c-0.95-10.036-6.515-13.823-8.813-23.343
					C267.776,158.333,260.397,158.862,254.596,163.079"/>
				<path fill="#D39479" d="M235.748,207.994c-5.404-13.047-1.501-12.564-0.288-20.512c1.113-7.292,0.155-5.058-0.503-16.394
					c-0.11-1.884,0.055-3.59,0.46-5.13c-0.745,0.51-1.575,0.9-2.51,1.133c-0.099,0.93-0.12,1.909-0.059,2.943
					c0.659,11.335,3.823,11.731,1.449,18.716c-2.371,6.985-3.954,10.585-0.658,18.191c5.207,12.017,10.616,19.196,14.635,20.388
					C244.518,224.735,239.936,218.108,235.748,207.994"/>
				<path fill="#3A0C00" d="M244.013,184.445c1.108,0.68,1.875-0.73,0.625-1.634c-1.249-0.902-3.904-1.199-5.702-1.099
					c-1.795,0.1-3.594,1.399-3.982,2.302c-0.392,0.904,0.582-0.253,1.328-0.501C238.546,182.763,241.277,182.769,244.013,184.445"/>
				<path fill="#470E02" d="M238.515,152.92c0,0-13.972,6.661-9.886,17.865c4.086,11.204,9.621-1.714,9.621-1.714l6.063-6.592
					L238.515,152.92z"/>
				<path fill="#4F1911" d="M249.06,163.535c1.77,2.948,5.8,3.953,11.071-0.264c5.273-4.219,8.172-2.463,6.591,2.809
					c-1.582,5.273-0.263,8.963,2.9,9.491c3.163,0.526,6.853,11.335,5.272,14.498c-1.582,3.163-0.529,6.064-0.529,6.064
					s1.847-8.173,6.855-10.544c5.009-2.374,1.846-17.664-3.162-18.718c-5.009-1.056,5.799,0.883,1.845-8.346
					c-3.953-9.226-7.645-15.025-18.454-16.342c-10.808-1.319-22.408,4.218-22.935,11.861c-0.526,7.645,2.109,10.281,4.481,9.227
					C245.369,162.216,248.268,162.216,249.06,163.535"/>
				<path fill="#BFBFBF" d="M260.648,233.105c0,0,11.098,6.352,10.919,9.463c-0.179,3.112-1.759,11.537-5.697,13.083
					c-3.018,1.184-1.953-7.939-6.717-6.075c-4.767,1.864-13.084,9.183-14.74,11.877c0,0,9.767-19.127,15.567-21.199
					c1.28-0.298,3.091-1.994,2.025-3.262C261.209,236.045,260.762,234.132,260.648,233.105"/>
				<path fill="#BFBFBF" d="M245.164,236.726c-0.127,6.243-5.275,8.731-1.137,15.75c0,0,1.215,5.91,0.385,9.227
					c0,0-1.835-7.774-5.15-9.227c-3.316-1.45-6.63,3.937-6.63,3.937s0.621-13.677,5.594-17.403
					C243.197,235.28,245.164,236.726,245.164,236.726"/>
				<path fill="#DEE0E2" d="M260.648,231.416c0,0,11.527,4.451,11.349,7.562c-0.178,3.112-2.486,13.469-5.387,14.918
					c-2.899,1.45-2.693-7.873-7.457-6.009c-4.767,1.865-13.055,10.566-14.712,13.261c0,0,9.738-20.511,15.539-22.584
					c1.28-0.296,3.091-1.993,2.025-3.26C261.209,234.355,260.762,232.445,260.648,231.416"/>
				<path fill="none" stroke="#BFBFBF" stroke-width="0.973" stroke-miterlimit="10" d="M260.648,231.416
					c0,0,11.527,4.451,11.349,7.562c-0.178,3.112-2.486,13.469-5.387,14.918c-2.899,1.45-2.693-7.873-7.457-6.009
					c-4.767,1.865-13.055,10.566-14.712,13.261c0,0,9.738-20.511,15.539-22.584c1.28-0.296,3.091-1.993,2.025-3.26
					C261.209,234.355,260.762,232.445,260.648,231.416z"/>
				<path fill="#DEE0E2" d="M245.164,235.036c-0.127,6.245-5.275,8.733-1.137,15.751c0,0,1.243,7.045,0.413,10.36
					c0,0-1.863-8.909-5.179-10.36c-3.316-1.448-6.63,3.936-6.63,3.936s0.621-13.674,5.594-17.404
					C243.197,233.591,245.164,235.036,245.164,235.036"/>
				<path opacity="0.2" enable-background="new    " d="M262.634,239.263c0.485-0.485,0.135-1.803-0.332-2.878
					c-0.173,0.996-1.386,1.963-2.322,2.179c-5.801,2.072-15.539,22.584-15.539,22.584c1.657-2.694,9.945-11.395,14.712-13.261
					c0.246-0.097,0.478-0.156,0.699-0.196C259.347,244.625,259.59,241.696,262.634,239.263"/>
				<path fill="none" stroke="#BFBFBF" stroke-width="0.973" stroke-miterlimit="10" d="M245.164,235.036
					c-0.127,6.245-5.275,8.733-1.137,15.751c0,0,1.243,7.045,0.413,10.36c0,0-1.863-8.909-5.179-10.36
					c-3.316-1.448-6.63,3.936-6.63,3.936s0.621-13.674,5.594-17.404C243.197,233.591,245.164,235.036,245.164,235.036z"/>
				<g opacity="0.4">
					<g>
						<g>
							<defs>
								<rect id="SVGID_1_" x="193.323" y="253.012" width="29.722" height="44.553"/>
							</defs>
							<clipPath id="SVGID_2_">
								<use xlink:href="#SVGID_1_"  overflow="visible"/>
							</clipPath>
							<path clip-path="url(#SVGID_2_)" fill="#545454" d="M218.551,253.013l-23.172,1.094c-1.268,0.062-2.212,1.197-2.036,2.455
								l5.43,39.141c0.153,1.104,1.122,1.911,2.237,1.86l19.973-0.908c1.201-0.056,2.128-1.079,2.059-2.281l-2.231-39.323
								C220.743,253.864,219.734,252.958,218.551,253.013"/>
						</g>
					</g>
				</g>
				<path fill="#9DB2AA" d="M219.101,251.913l-23.172,1.094c-1.268,0.061-2.21,1.196-2.036,2.453l5.429,39.142
					c0.153,1.105,1.123,1.912,2.238,1.86l19.974-0.908c1.198-0.054,2.124-1.079,2.058-2.279l-2.232-39.325
					C221.291,252.766,220.283,251.856,219.101,251.913"/>
				<path fill="none" stroke="#6F7B7F" stroke-width="0.747" stroke-miterlimit="10" d="M219.101,251.913l-23.172,1.094
					c-1.268,0.061-2.21,1.196-2.036,2.453l5.429,39.142c0.153,1.105,1.123,1.912,2.238,1.86l19.974-0.908
					c1.198-0.054,2.124-1.079,2.058-2.279l-2.232-39.325C221.291,252.766,220.283,251.856,219.101,251.913z"/>
				<path fill="#BC7A55" d="M228.523,286.487c-1.539-1.415-3.303,0.414-5.51-0.589c-5.205-2.363-0.988-17.655,0.967-15.853
					c2.479,2.292,9.67,8.484,12.146,10.81C239.805,284.305,230.061,287.903,228.523,286.487"/>
				<path fill="none" stroke="#724437" stroke-width="0.941" stroke-miterlimit="10" d="M228.523,286.487
					c-1.539-1.415-3.303,0.414-5.51-0.589c-5.205-2.363-0.988-17.655,0.967-15.853c2.479,2.292,9.67,8.484,12.146,10.81
					C239.805,284.305,230.061,287.903,228.523,286.487z"/>
				<path fill="#BC7A55" d="M221.969,273.084c0,0-6.506-1.621-7.473-0.727c-0.969,0.894-7.25,5.256-8.02,6.263
					c-0.77,1.01,1.993,1.455,3.655,0.238c1.661-1.216,5.974-3.263,5.974-3.263l5.447,1.584"/>
				<path fill="none" stroke="#724437" stroke-width="0.941" stroke-miterlimit="10" d="M221.969,273.084
					c0,0-6.506-1.621-7.473-0.727c-0.969,0.894-7.25,5.256-8.02,6.263c-0.77,1.01,1.993,1.455,3.655,0.238
					c1.661-1.216,5.974-3.263,5.974-3.263l5.447,1.584"/>
				<path fill="#BC7A55" d="M221.275,280.737l-3.959-0.93c0,0-4.463,1.556-6.28,2.523c-1.818,0.968-3.64-0.259-2.733-1.146
					c0.903-0.887,6.961-4.903,8.269-5.066c1.195-0.149,4.727,1.057,4.727,1.057"/>
				<path fill="none" stroke="#724437" stroke-width="0.941" stroke-miterlimit="10" d="M221.275,280.737l-3.959-0.93
					c0,0-4.463,1.556-6.28,2.523c-1.818,0.968-3.64-0.259-2.733-1.146c0.903-0.887,6.961-4.903,8.269-5.066
					c1.195-0.149,4.727,1.057,4.727,1.057"/>
				<path fill="#BC7A55" d="M221.138,280.781c0,0-3.845-1.352-4.479-0.942c-0.632,0.412-5.879,3.615-6.536,4.219
					c-0.655,0.604,0.488,1.907,3.145,0.936c2.314-0.846,4.558-1.487,4.558-1.487l4.649,1.967"/>
				<path fill="none" stroke="#724437" stroke-width="0.941" stroke-miterlimit="10" d="M221.138,280.781
					c0,0-3.845-1.352-4.479-0.942c-0.632,0.412-5.879,3.615-6.536,4.219c-0.655,0.604,0.488,1.907,3.145,0.936
					c2.314-0.846,4.558-1.487,4.558-1.487l4.649,1.967"/>
				<path fill="#BC7A55" d="M224.102,270.212c-0.764-0.368-4.508-1.885-5.635-1.897c-1.77-0.021-8.447,1.803-9.731,2.154
					c-1.284,0.354,1.191,2.149,3.065,2.021c1.873-0.126,5.528-1.156,6.046-0.891c0.52,0.264,4.216,1.433,4.216,1.433"/>
				<path fill="none" stroke="#724437" stroke-width="0.941" stroke-miterlimit="10" d="M224.102,270.212
					c-0.764-0.368-4.508-1.885-5.635-1.897c-1.77-0.021-8.447,1.803-9.731,2.154c-1.284,0.354,1.191,2.149,3.065,2.021
					c1.873-0.126,5.528-1.156,6.046-0.891c0.52,0.264,4.216,1.433,4.216,1.433"/>
				<path fill="#A06047" d="M228.248,286.11c-1.016-0.815-4.352,0.659-6.63-0.965c-0.671-0.476,1.827-1.23,4.226-0.329
					C228.577,285.842,229.876,287.42,228.248,286.11"/>
				<path fill="#D39479" d="M235.428,281.23c-1.336-1.229-6.961-4.942-9.438-7.22c-1.48-1.357-1.94-3.048-2.328-3.92
					c2.736,2.443,10.531,8.876,11.849,10.447C237.633,283.067,238.169,283.759,235.428,281.23"/>
				<path fill="#DEE0E2" d="M242.754,283.434c0,0-6.998-4.231-8.089-4.439c-1.09-0.207-6.021,6.311-4.979,7.148
					c1.043,0.839,7.541,6.257,7.541,6.257L242.754,283.434z"/>
				<path fill="none" stroke="#B2B2B2" stroke-width="0.912" stroke-miterlimit="10" d="M242.754,283.434
					c0,0-6.998-4.231-8.089-4.439c-1.09-0.207-6.021,6.311-4.979,7.148c1.043,0.839,7.541,6.257,7.541,6.257L242.754,283.434z"/>
				<path opacity="0.2" enable-background="new    " d="M229.686,286.143c1.043,0.839,7.541,6.257,7.541,6.257l1.579-2.563
					c-0.719,0.446-1.497-0.821-2.206-0.061c-1.838-2.394-3.676-4.783-6.546-5.506C229.586,285.173,229.382,285.898,229.686,286.143"
					/>
				<path opacity="0.2" enable-background="new    " d="M242.754,283.434c0,0-6.998-4.231-8.089-4.439l-1.206,0.74
					c1.508,2.79,6.361,2.501,8.158,5.488L242.754,283.434z"/>
				<path fill="#DEE0E2" d="M280.251,298.343c-2.901-3.446-4.98-3.645-13.749-5.581c-8.771-1.936-23.558-11.449-25.118-10.604
					c-1.561,0.843-8.41,8.495-5.12,10.122c3.287,1.629,15.21,13.252,22.132,19.23c6.921,5.978,15.504,5.729,27.555,2.464"/>
				<path fill="none" stroke="#B2B2B2" stroke-width="0.912" stroke-miterlimit="10" d="M280.251,298.343
					c-2.901-3.446-4.98-3.645-13.749-5.581c-8.771-1.936-23.558-11.449-25.118-10.604c-1.561,0.843-8.41,8.495-5.12,10.122
					c3.287,1.629,15.21,13.252,22.132,19.23c6.921,5.978,15.504,5.729,27.555,2.464"/>
				<path opacity="0.2" enable-background="new    " d="M252.558,288.554c1.737,1.605,8.309,6.228,10.76,5.935
					c8.633-0.829,14.184,5.157,18.729,10.593c-0.063-0.523-0.022-1.099,0.045-1.688l-1.841-5.051
					c-2.901-3.446-4.98-3.645-13.749-5.581c-8.771-1.936-23.558-11.449-25.118-10.604c-0.266,0.143-0.687,0.486-1.184,0.963
					C243.924,285.654,248.897,285.906,252.558,288.554"/>
				<path opacity="0.2" enable-background="new    " d="M260.839,309.159c-4.756-3.26-6.411-5.516-11.442-8.274
					c-0.617-0.663-0.959-1.831-1.574-2.496c-4.658-1.918-8.896-5.149-11.919-9.543c-0.696,1.522-0.809,2.858,0.36,3.435
					c3.287,1.629,15.21,13.252,22.132,19.23c6.921,5.978,15.504,5.729,27.555,2.465l-0.728-1.997
					C277.213,315.15,268.088,314.433,260.839,309.159"/>
				<path fill="#9B897B" d="M180.043,312.51c11.339,4.906,19.044,6.703,27.488,9.279c11.271,3.44,33.189,13.728,48.495,22.477
					c0,0,1.835,0.861,4.164,1.494c0.071,0.075,0.149,0.147,0.244,0.212c7.819,5.54,4.309,15.063,0.498,21.986
					c-2.182,3.969-4.648,7.065-9.106,8.418c-4.146,1.256-8.07,1.11-12.074,0.229c-4.926-2.455-10.112-5.521-15.567-9.393
					c-25.363-18.01-35.822-24.162-47.483-29.22L180.043,312.51z"/>
				<path fill="#AD9D92" d="M238.695,337.731c-23.529-10.751-27.993-13.591-54.057-21.242c-3.684-1.048-7.602-2.365-11.003-2.182
					c-2.929,0.152-4.078,0.748-5.043,1.377c0.533-0.495-1.573-1.362-1.001-1.742c3.337-2.226,8.085-2.264,12.385-1.043
					c11.338,4.906,19.11,6.314,27.555,8.89c11.27,3.44,33.189,13.728,48.495,22.477C256.026,344.266,239.865,338.53,238.695,337.731
					"/>
				<path fill="#7C716C" d="M176.701,337.992c-0.05-0.213-0.159-0.426-0.359-0.626c-1.615-1.595-1.947-3.488-0.527-5.923
					c0.201,0.059-0.811,3.854,1.015,3.854c1.825,0,3.866-1.059,8.367,1.333c22.29,12.425,43.15,32.715,66.609,41.463
					c-3.147,0.512-8.952-0.806-12.054-1.488c-4.926-2.455-10.112-5.521-15.568-9.393
					C198.821,349.202,188.362,343.05,176.701,337.992"/>
				<path fill="none" stroke="#837167" stroke-width="0.435" stroke-miterlimit="10" d="M263.959,352.136
					c-1.075-3.208-4.195-6.695-7.059-7.354c0,0,3.904,5.507,3.492,9.081"/>
				<path fill="none" stroke="#605650" stroke-width="0.912" stroke-miterlimit="10" d="M252.578,378.271
					c-5.342-0.224-9.039-0.357-12.826-1.666c-4.926-2.456-10.112-5.522-15.568-9.393c-25.362-18.01-36.069-24.507-47.727-29.566"/>
				<path fill="none" stroke="#605650" stroke-width="0.912" stroke-miterlimit="10" d="M256.026,344.266
					c0,0,1.835,0.863,4.164,1.494c0.071,0.075,0.149,0.147,0.243,0.212"/>
				<path fill="none" stroke="#605650" stroke-width="0.912" stroke-miterlimit="10" d="M177.077,312.066
					c2.669,0.372,7.093,2.175,8.993,2.901c8.228,3.15,14.601,4.729,21.461,6.821c11.271,3.44,33.189,13.728,48.495,22.477"/>
				<g opacity="0.3">
					<g>
						<g>
							<defs>
								<rect id="SVGID_3_" x="269.129" y="187.85" width="9.264" height="4.519"/>
							</defs>
							<clipPath id="SVGID_4_">
								<use xlink:href="#SVGID_3_"  overflow="visible"/>
							</clipPath>
							<path clip-path="url(#SVGID_4_)" d="M278.39,187.85l-9.063,0.034c0,0-0.135,3.452-0.201,4.289s3.587-1.239,4.056-1.876
								c0.468-0.638,3.953-1.307,4.524-1.341C277.949,188.384,278.39,187.85,278.39,187.85"/>
						</g>
					</g>
				</g>
				<g opacity="0.3">
					<g>
						<g>
							<defs>
								<rect id="SVGID_5_" x="233.473" y="185.246" width="36.019" height="9.82"/>
							</defs>
							<clipPath id="SVGID_6_">
								<use xlink:href="#SVGID_5_"  overflow="visible"/>
							</clipPath>
							<path clip-path="url(#SVGID_6_)" fill="none" stroke="#000000" stroke-width="0.956" stroke-miterlimit="10" d="
								M235.317,185.523c3.398-0.026,6.849,0.211,10.357,0.744c0.485,0.028,0.854,0.512,0.819,1.084
								c0.068,1.54-0.391,3.142-0.73,5.078c-0.033,0.598-0.488,1.046-0.993,0.979c-4.087,0.101-7.826-0.358-11.217-1.393"/>
						</g>
						<g>
							<defs>
								<rect id="SVGID_7_" x="233.473" y="185.246" width="36.019" height="9.82"/>
							</defs>
							<clipPath id="SVGID_8_">
								<use xlink:href="#SVGID_7_"  overflow="visible"/>
							</clipPath>
							<path clip-path="url(#SVGID_8_)" fill="none" stroke="#000000" stroke-width="0.956" stroke-miterlimit="10" d="
								M253.732,194.006c4.28,0.596,10.652,1.18,14.305,0.429c0.464-0.008,0.849-0.438,0.881-0.984
								c0.172-1.207,0.316-3.632,0.297-5.235c0.033-0.571-0.333-1.059-0.818-1.086c-3.979-0.605-10.53-0.478-14.751-0.321
								c-0.487-0.028-0.906,0.414-0.938,0.984c-0.243,1.522,0.029,3.166,0.146,5.129
								C252.822,193.518,253.225,194.017,253.732,194.006z"/>
						</g>
						<g>
							<defs>
								<rect id="SVGID_9_" x="233.473" y="185.246" width="36.019" height="9.82"/>
							</defs>
							<clipPath id="SVGID_10_">
								<use xlink:href="#SVGID_9_"  overflow="visible"/>
							</clipPath>
							<path clip-path="url(#SVGID_10_)" fill="none" stroke="#000000" stroke-width="0.956" stroke-miterlimit="10" d="
								M246.535,187.895c0,0,0.374-1.369,2.626-1.372c2.251-0.002,3.405,3.107,3.405,3.107"/>
						</g>
					</g>
				</g>
				<path fill="#4D585E" d="M278.39,187.298l-9.063,0.033c0,0-0.135,3.452-0.201,4.288c-0.066,0.84,3.587-1.239,4.056-1.876
					c0.468-0.636,3.953-1.307,4.524-1.34C277.949,187.831,278.39,187.298,278.39,187.298"/>
				<g opacity="0.24">
					<g>
						<g>
							<defs>
								<rect id="SVGID_11_" x="232.199" y="185.167" width="37.021" height="9.267"/>
							</defs>
							<clipPath id="SVGID_12_">
								<use xlink:href="#SVGID_11_"  overflow="visible"/>
							</clipPath>
							<path clip-path="url(#SVGID_12_)" fill="#F2F2F2" d="M244.771,193.055c-4.321,0.104-8.259-0.416-11.801-1.577
								c-0.461-0.061-0.796-0.533-0.764-1.078c-0.034-1.22,0.038-2.611,0.239-4.203c0.032-0.57,0.451-1.011,0.938-0.983
								c4.02-0.15,8.114,0.065,12.292,0.698c0.485,0.029,0.852,0.515,0.819,1.085c0.068,1.54-0.391,3.142-0.73,5.078
								C245.73,192.672,245.275,193.121,244.771,193.055"/>
						</g>
						<g>
							<defs>
								<rect id="SVGID_13_" x="232.199" y="185.167" width="37.021" height="9.267"/>
							</defs>
							<clipPath id="SVGID_14_">
								<use xlink:href="#SVGID_13_"  overflow="visible"/>
							</clipPath>
							<path clip-path="url(#SVGID_14_)" fill="#F2F2F2" d="M253.732,193.651c4.28,0.596,10.652,1.18,14.305,0.428
								c0.464-0.006,0.849-0.438,0.881-0.983c0.172-1.208,0.316-3.634,0.297-5.235c0.033-0.571-0.333-1.058-0.818-1.087
								c-3.979-0.605-10.53-0.477-14.751-0.32c-0.487-0.028-0.906,0.412-0.938,0.984c-0.243,1.521,0.029,3.166,0.146,5.128
								C252.822,193.163,253.225,193.662,253.732,193.651"/>
						</g>
					</g>
				</g>
				<path fill="none" stroke="#4D585E" stroke-width="0.956" stroke-miterlimit="10" d="M244.771,193.055
					c-4.321,0.104-8.259-0.416-11.801-1.577c-0.461-0.061-0.796-0.533-0.764-1.078c-0.034-1.22,0.038-2.611,0.239-4.203
					c0.032-0.57,0.451-1.011,0.938-0.983c4.02-0.15,8.114,0.065,12.292,0.698c0.485,0.029,0.852,0.515,0.819,1.085
					c0.068,1.54-0.391,3.142-0.73,5.078C245.73,192.672,245.275,193.121,244.771,193.055z"/>
				<path fill="none" stroke="#4D585E" stroke-width="0.956" stroke-miterlimit="10" d="M253.732,193.651
					c4.28,0.596,10.652,1.18,14.305,0.428c0.464-0.006,0.849-0.438,0.881-0.983c0.172-1.208,0.316-3.634,0.297-5.235
					c0.033-0.571-0.333-1.058-0.818-1.087c-3.979-0.605-10.53-0.477-14.751-0.32c-0.487-0.028-0.906,0.412-0.938,0.984
					c-0.243,1.521,0.029,3.166,0.146,5.128C252.822,193.163,253.225,193.662,253.732,193.651z"/>
				<path fill="none" stroke="#4D585E" stroke-width="0.956" stroke-miterlimit="10" d="M246.535,187.541
					c0,0,0.374-1.369,2.626-1.373c2.251-0.002,3.405,3.106,3.405,3.106"/>
				<path fill="#BC7A55" d="M275.869,191.281c0.83-1.484,4.687-7.196,6.647-3.695c1.958,3.504,1.309,11.651-2.194,12.958
					c-3.504,1.306-1.248,3.741-3.267,5.76c-2.016,2.02-3.714-0.141-4.011-1.742"/>
				
					<path fill="none" stroke="#724437" stroke-width="0.941" stroke-linecap="round" stroke-linejoin="round" stroke-miterlimit="10" d="
					M275.869,191.281c0.83-1.484,4.687-7.196,6.647-3.695c1.958,3.504,1.309,11.651-2.194,12.958
					c-3.504,1.306-1.248,3.741-3.267,5.76c-2.016,2.02-3.714-0.141-4.011-1.742"/>
				<path fill="#BC7A55" d="M278.666,192.793c3.23-1.419,3.545,4.358-0.393,5.201c-2.207,0.475-4.021,2.444-3.94,4.415"/>
				
					<path fill="none" stroke="#724437" stroke-width="0.941" stroke-linecap="round" stroke-linejoin="round" stroke-miterlimit="10" d="
					M278.666,192.793c3.23-1.419,3.545,4.358-0.393,5.201c-2.207,0.475-4.021,2.444-3.94,4.415"/>
				<g>
					<g>
						<defs>
							<path id="SVGID_15_" d="M259.934,188.586c-3.596,0.554-5.384,2.112-5.286,2.559c0.099,0.447,0.963,2.145,5.788,1.73
								c4.825-0.415,5.447-1.73,5.792-2.491c0,0-2.158-1.882-5.19-1.882C260.683,188.501,260.313,188.528,259.934,188.586"/>
						</defs>
						<clipPath id="SVGID_16_">
							<use xlink:href="#SVGID_15_"  overflow="visible"/>
						</clipPath>
						<path clip-path="url(#SVGID_16_)" fill="#BC682A" d="M258.412,190.391c0,1.758,1.426,3.181,3.181,3.181
							c1.76,0,3.185-1.423,3.185-3.181s-1.425-3.182-3.185-3.182C259.838,187.209,258.412,188.633,258.412,190.391"/>
					</g>
					<g>
						<defs>
							<path id="SVGID_17_" d="M259.934,188.586c-3.596,0.554-5.384,2.112-5.286,2.559c0.099,0.447,0.963,2.145,5.788,1.73
								c4.825-0.415,5.447-1.73,5.792-2.491c0,0-2.158-1.882-5.19-1.882C260.683,188.501,260.313,188.528,259.934,188.586"/>
						</defs>
						<clipPath id="SVGID_18_">
							<use xlink:href="#SVGID_17_"  overflow="visible"/>
						</clipPath>
						<path clip-path="url(#SVGID_18_)" fill="#713213" d="M259.869,190.391c0,0.952,0.772,1.724,1.724,1.724
							c0.953,0,1.725-0.771,1.725-1.724s-0.772-1.725-1.725-1.725C260.642,188.666,259.869,189.438,259.869,190.391"/>
					</g>
					<g>
						<defs>
							<path id="SVGID_19_" d="M259.934,188.586c-3.596,0.554-5.384,2.112-5.286,2.559c0.099,0.447,0.963,2.145,5.788,1.73
								c4.825-0.415,5.447-1.73,5.792-2.491c0,0-2.158-1.882-5.19-1.882C260.683,188.501,260.313,188.528,259.934,188.586"/>
						</defs>
						<clipPath id="SVGID_20_">
							<use xlink:href="#SVGID_19_"  overflow="visible"/>
						</clipPath>
						<path clip-path="url(#SVGID_20_)" fill="#FFFFFF" d="M262.23,189.69c0,0.421,0.341,0.763,0.761,0.763
							c0.421,0,0.762-0.342,0.762-0.763c0-0.419-0.341-0.761-0.762-0.761C262.57,188.93,262.23,189.271,262.23,189.69"/>
					</g>
				</g>
				<path fill="#571B01" d="M234.58,189.9c0,0,1.729-3.586,5.057-3.073c3.329,0.513,5.75,3.365,5.658,3.777
					c-0.091,0.411-0.89,1.981-5.356,1.599C235.477,191.819,234.899,190.605,234.58,189.9"/>
				<path fill="#FFFFFF" d="M234.58,189.9c0,0,2.496-2.175,5.824-1.666c3.329,0.513,4.982,1.958,4.891,2.37
					c-0.091,0.411-0.89,1.981-5.356,1.599C235.477,191.819,234.899,190.605,234.58,189.9"/>
				<g>
					<g>
						<defs>
							<path id="SVGID_21_" d="M234.579,189.9c0.32,0.703,0.897,1.919,5.36,2.303c4.465,0.383,5.265-1.189,5.356-1.6
								c0.092-0.411-1.563-1.856-4.891-2.369c-0.351-0.052-0.691-0.075-1.02-0.075C236.578,188.159,234.579,189.9,234.579,189.9"/>
						</defs>
						<clipPath id="SVGID_22_">
							<use xlink:href="#SVGID_21_"  overflow="visible"/>
						</clipPath>
						<path clip-path="url(#SVGID_22_)" fill="#BC682A" d="M238.188,189.905c0,1.626,1.316,2.945,2.942,2.945
							s2.944-1.319,2.944-2.945s-1.318-2.943-2.944-2.943S238.188,188.279,238.188,189.905"/>
					</g>
					<g>
						<defs>
							<path id="SVGID_23_" d="M234.579,189.9c0.32,0.703,0.897,1.919,5.36,2.303c4.465,0.383,5.265-1.189,5.356-1.6
								c0.092-0.411-1.563-1.856-4.891-2.369c-0.351-0.052-0.691-0.075-1.02-0.075C236.578,188.159,234.579,189.9,234.579,189.9"/>
						</defs>
						<clipPath id="SVGID_24_">
							<use xlink:href="#SVGID_23_"  overflow="visible"/>
						</clipPath>
						<path clip-path="url(#SVGID_24_)" fill="#713213" d="M239.534,189.905c0,0.882,0.714,1.596,1.595,1.596
							c0.883,0,1.596-0.714,1.596-1.596c0-0.882-0.713-1.595-1.596-1.595C240.248,188.311,239.534,189.023,239.534,189.905"/>
					</g>
					<g>
						<defs>
							<path id="SVGID_25_" d="M234.579,189.9c0.32,0.703,0.897,1.919,5.36,2.303c4.465,0.383,5.265-1.189,5.356-1.6
								c0.092-0.411-1.563-1.856-4.891-2.369c-0.351-0.052-0.691-0.075-1.02-0.075C236.578,188.159,234.579,189.9,234.579,189.9"/>
						</defs>
						<clipPath id="SVGID_26_">
							<use xlink:href="#SVGID_25_"  overflow="visible"/>
						</clipPath>
						<path clip-path="url(#SVGID_26_)" fill="#FFFFFF" d="M241.719,189.259c0,0.39,0.314,0.705,0.703,0.705
							s0.703-0.315,0.703-0.705c0-0.389-0.314-0.704-0.703-0.704C242.033,188.555,241.719,188.87,241.719,189.259"/>
					</g>
				</g>
				<path opacity="0.2" enable-background="new    " d="M245.004,234.952c-4.136,4.23-6.697,9.987-6.293,15.659
					c0.183,0.04,0.366,0.095,0.551,0.176c3.313,1.451,5.179,10.36,5.179,10.36c0.83-3.315-0.415-10.36-0.415-10.36
					c-4.137-7.018,1.012-9.508,1.139-15.751C245.164,235.036,245.108,235,245.004,234.952"/>
			</g>
		</g>
		
			<radialGradient id="SVGID_27_" cx="543.929" cy="-2341.385" r="122.4482" gradientTransform="matrix(0.8238 0 0 -0.1151 -194.1387 217.9061)" gradientUnits="userSpaceOnUse">
			<stop  offset="0.2487" style="stop-color:#000000"/>
			<stop  offset="1" style="stop-color:#000000;stop-opacity:0"/>
		</radialGradient>
		<path opacity="0.3" fill="url(#SVGID_27_)" enable-background="new    " d="M354.825,487.4c0,7.783-45.169,14.093-100.875,14.093
			c-55.718,0-100.875-6.31-100.875-14.093c0-7.783,45.157-14.094,100.875-14.094C309.656,473.307,354.825,479.617,354.825,487.4z"/>
	</g>
</g>
</svg>
