<?xml version="1.0" encoding="utf-8"?>
<!-- Generator: Adobe Illustrator 17.0.0, SVG Export Plug-In . SVG Version: 6.00 Build 0)  -->
<!DOCTYPE svg PUBLIC "-//W3C//DTD SVG 1.1//EN" "http://www.w3.org/Graphics/SVG/1.1/DTD/svg11.dtd">
<svg version="1.1" id="Capa_1" xmlns="http://www.w3.org/2000/svg" xmlns:xlink="http://www.w3.org/1999/xlink" x="0px" y="0px"
	 width="157.553px" height="52.436px" viewBox="0 0 157.553 52.436" style="enable-background:new 0 0 157.553 52.436;"
	 xml:space="preserve">
<g>
	<g>
		<path style="fill:#FFFFFF;" d="M50.626,16.386V5.153l-0.104,0.697l-3.805,10.535H45.94L42.102,5.851L42.01,5.153v11.232h-1.474V0
			h0.766l4.971,13.438l0.045,0.605l0.046-0.605L51.322,0H52.1v16.386H50.626z"/>
		<path style="fill:#FFFFFF;" d="M61.983,12.569h-5.188l-1.074,3.816H54.19L58.989,0h0.777l4.822,16.386h-1.521L61.983,12.569z
			 M57.195,11.164h4.399l-2.159-7.553L59.39,3.006l-0.046,0.605L57.195,11.164z"/>
		<path style="fill:#FFFFFF;" d="M75.599,7.633c-0.21,0.488-0.497,0.914-0.863,1.28c-0.365,0.365-0.794,0.653-1.285,0.862
			c-0.491,0.21-1.016,0.314-1.571,0.314h-3.714v6.296h-1.474V0h5.188c0.556,0,1.08,0.105,1.571,0.314
			c0.491,0.21,0.92,0.497,1.285,0.863c0.366,0.365,0.653,0.794,0.863,1.285c0.209,0.491,0.313,1.015,0.313,1.571v2.033
			C75.912,6.624,75.808,7.146,75.599,7.633z M74.438,4.034c0-0.366-0.068-0.707-0.206-1.023c-0.137-0.315-0.325-0.594-0.565-0.834
			c-0.24-0.239-0.518-0.428-0.834-0.565c-0.316-0.137-0.657-0.205-1.022-0.205h-3.646v7.278h3.646c0.365,0,0.706-0.068,1.022-0.206
			c0.316-0.137,0.594-0.323,0.834-0.56s0.429-0.513,0.565-0.828c0.138-0.316,0.206-0.657,0.206-1.023V4.034z"/>
		<path style="fill:#FFFFFF;" d="M84.87,12.569h-5.188l-1.074,3.816h-1.531L81.876,0h0.777l4.822,16.386h-1.521L84.87,12.569z
			 M80.082,11.164h4.399l-2.159-7.553l-0.046-0.605L82.23,3.611L80.082,11.164z"/>
		<path style="fill:#FFFFFF;" d="M103.867,13.929c-0.21,0.488-0.497,0.914-0.863,1.28c-0.365,0.365-0.794,0.653-1.285,0.862
			c-0.491,0.21-1.016,0.314-1.571,0.314H94.96V0h5.188c0.556,0,1.08,0.105,1.571,0.314c0.491,0.21,0.92,0.497,1.285,0.863
			c0.366,0.365,0.653,0.794,0.863,1.285c0.209,0.491,0.313,1.015,0.313,1.571v8.329C104.181,12.92,104.076,13.441,103.867,13.929z
			 M102.707,4.034c0-0.366-0.068-0.707-0.206-1.023c-0.137-0.315-0.325-0.594-0.565-0.834c-0.24-0.239-0.518-0.428-0.834-0.565
			c-0.316-0.137-0.657-0.205-1.022-0.205h-3.646V14.98h3.646c0.365,0,0.706-0.068,1.022-0.206c0.316-0.137,0.594-0.323,0.834-0.56
			s0.429-0.513,0.565-0.828c0.138-0.316,0.206-0.657,0.206-1.023V4.034z"/>
		<path style="fill:#FFFFFF;" d="M107.688,16.386V0h9.221v1.406h-7.747v6.09h6.273v1.405h-6.273v6.079h7.747v1.405H107.688z"/>
	</g>
	<g>
		<path style="fill:#FFFFFF;" d="M14.823,37.49c-0.349,0.812-0.827,1.521-1.436,2.13c-0.608,0.608-1.322,1.087-2.14,1.436
			s-1.689,0.522-2.614,0.522H2.453v10.479H0v-27.27h8.634c0.925,0,1.797,0.174,2.614,0.522s1.531,0.827,2.14,1.436
			c0.608,0.609,1.087,1.322,1.436,2.14s0.523,1.689,0.523,2.615v3.385C15.347,35.81,15.172,36.678,14.823,37.49z M12.894,31.5
			c0-0.608-0.114-1.176-0.343-1.702s-0.542-0.989-0.941-1.389s-0.862-0.713-1.388-0.941c-0.526-0.228-1.094-0.342-1.702-0.342H2.453
			v12.113H8.52c0.608,0,1.176-0.114,1.702-0.342c0.525-0.229,0.988-0.539,1.388-0.933c0.399-0.393,0.713-0.852,0.941-1.378
			s0.343-1.094,0.343-1.702V31.5z"/>
		<path style="fill:#FFFFFF;" d="M32.842,52.056l-7.397-11.639h-3.366v11.639h-2.453v-27.27h8.652c0.926,0,1.794,0.174,2.605,0.522
			s1.521,0.827,2.13,1.436c0.608,0.609,1.087,1.322,1.436,2.14s0.523,1.689,0.523,2.615v2.206c0,0.925-0.175,1.797-0.523,2.614
			s-0.827,1.531-1.436,2.14s-1.318,1.087-2.13,1.436s-1.68,0.522-2.605,0.522l7.397,11.639H32.842z M32.519,31.5
			c0-0.608-0.114-1.176-0.343-1.702s-0.539-0.989-0.932-1.389c-0.394-0.399-0.853-0.713-1.379-0.941
			c-0.526-0.228-1.094-0.342-1.702-0.342h-6.085v10.953h6.085c0.608,0,1.176-0.114,1.702-0.342c0.526-0.229,0.985-0.542,1.379-0.941
			c0.393-0.399,0.703-0.862,0.932-1.389c0.229-0.525,0.343-1.093,0.343-1.701V31.5z"/>
		<path style="fill:#FFFFFF;" d="M54.777,48.348c-0.349,0.812-0.827,1.521-1.436,2.13s-1.318,1.087-2.13,1.436
			s-1.68,0.522-2.605,0.522h-1.939c-0.926,0-1.797-0.174-2.615-0.522c-0.817-0.349-1.53-0.827-2.139-1.436
			c-0.609-0.608-1.088-1.318-1.437-2.13s-0.522-1.68-0.522-2.605V31.1c0-0.926,0.174-1.794,0.522-2.605s0.827-1.521,1.437-2.13
			c0.608-0.608,1.321-1.087,2.139-1.436c0.818-0.349,1.689-0.523,2.615-0.523h1.939c0.926,0,1.794,0.175,2.605,0.523
			s1.521,0.827,2.13,1.436s1.087,1.318,1.436,2.13s0.523,1.68,0.523,2.605v14.643C55.301,46.668,55.126,47.537,54.777,48.348z
			 M52.848,31.1c0-0.608-0.114-1.176-0.343-1.702s-0.539-0.985-0.932-1.379c-0.394-0.393-0.853-0.703-1.379-0.932
			s-1.094-0.343-1.702-0.343h-1.711c-0.608,0-1.177,0.114-1.702,0.343c-0.526,0.229-0.989,0.539-1.389,0.932
			c-0.399,0.394-0.713,0.853-0.941,1.379c-0.228,0.526-0.342,1.094-0.342,1.702v14.643c0,0.608,0.114,1.176,0.342,1.702
			c0.229,0.526,0.542,0.988,0.941,1.388s0.862,0.714,1.389,0.941c0.525,0.229,1.094,0.343,1.702,0.343h1.711
			c0.608,0,1.176-0.114,1.702-0.343c0.526-0.228,0.985-0.542,1.379-0.941c0.393-0.399,0.703-0.861,0.932-1.388
			s0.343-1.094,0.343-1.702V31.1z"/>
		<path style="fill:#FFFFFF;" d="M75.582,48.348c-0.35,0.812-0.827,1.521-1.437,2.13c-0.608,0.608-1.318,1.087-2.13,1.436
			s-1.68,0.522-2.604,0.522h-1.94c-0.925,0-1.797-0.174-2.614-0.522c-0.818-0.349-1.531-0.827-2.14-1.436s-1.087-1.318-1.436-2.13
			s-0.523-1.68-0.523-2.605V31.1c0-0.926,0.175-1.794,0.523-2.605s0.827-1.521,1.436-2.13s1.321-1.087,2.14-1.436
			c0.817-0.349,1.689-0.523,2.614-0.523h1.94c0.925,0,1.793,0.175,2.604,0.523s1.521,0.827,2.13,1.436
			c0.609,0.608,1.087,1.318,1.437,2.13c0.349,0.812,0.522,1.68,0.522,2.605v1.103l-2.453,0.381V31.1
			c0-0.608-0.114-1.176-0.342-1.702c-0.229-0.526-0.539-0.985-0.933-1.379c-0.393-0.393-0.853-0.703-1.378-0.932
			c-0.526-0.229-1.094-0.343-1.702-0.343h-1.712c-0.608,0-1.176,0.114-1.702,0.343c-0.525,0.229-0.988,0.539-1.388,0.932
			c-0.399,0.394-0.713,0.853-0.941,1.379s-0.343,1.094-0.343,1.702v14.643c0,0.608,0.114,1.176,0.343,1.702s0.542,0.988,0.941,1.388
			s0.862,0.714,1.388,0.941c0.526,0.229,1.094,0.343,1.702,0.343h1.712c0.608,0,1.176-0.114,1.702-0.343
			c0.525-0.228,0.985-0.542,1.378-0.941c0.394-0.399,0.704-0.861,0.933-1.388c0.228-0.526,0.342-1.094,0.342-1.702v-1.483
			l2.453,0.399v1.084C76.104,46.668,75.931,47.537,75.582,48.348z"/>
		<path style="fill:#FFFFFF;" d="M81.563,52.056v-27.27h15.347v2.339H84.016v10.136h10.44V39.6h-10.44v10.117h12.894v2.339H81.563z"
			/>
		<path style="fill:#FFFFFF;" d="M116.534,45.743c0,0.926-0.188,1.794-0.562,2.605s-0.875,1.521-1.502,2.13
			c-0.628,0.608-1.356,1.087-2.188,1.436c-0.83,0.349-1.708,0.522-2.634,0.522h-1.958c-0.926,0-1.804-0.174-2.634-0.522
			c-0.831-0.349-1.56-0.827-2.188-1.436c-0.627-0.608-1.128-1.318-1.502-2.13s-0.562-1.68-0.562-2.605v-1.084l2.453-0.399v1.483
			c0,0.608,0.124,1.176,0.371,1.702s0.58,0.988,0.999,1.388c0.418,0.399,0.902,0.714,1.454,0.941
			c0.552,0.229,1.132,0.343,1.74,0.343h1.712c0.608,0,1.185-0.114,1.73-0.343c0.545-0.228,1.026-0.542,1.445-0.941
			c0.418-0.399,0.751-0.861,0.998-1.388s0.371-1.094,0.371-1.702v-0.817c0-0.938-0.185-1.718-0.552-2.34
			c-0.368-0.62-0.855-1.15-1.465-1.588c-0.608-0.437-1.296-0.808-2.063-1.112c-0.768-0.304-1.557-0.608-2.368-0.912
			c-0.812-0.305-1.601-0.641-2.367-1.009c-0.768-0.367-1.455-0.827-2.063-1.378c-0.608-0.552-1.097-1.227-1.464-2.025
			c-0.368-0.799-0.552-1.781-0.552-2.948V31.1c0-0.926,0.174-1.794,0.522-2.605s0.827-1.521,1.437-2.13
			c0.608-0.608,1.321-1.087,2.139-1.436c0.818-0.349,1.689-0.523,2.615-0.523h1.749c0.926,0,1.794,0.175,2.605,0.523
			s1.521,0.827,2.13,1.436s1.087,1.318,1.436,2.13s0.523,1.68,0.523,2.605v0.703l-2.453,0.399V31.1c0-0.608-0.114-1.176-0.343-1.702
			c-0.228-0.526-0.539-0.985-0.932-1.379c-0.393-0.393-0.853-0.703-1.379-0.932c-0.525-0.229-1.093-0.343-1.701-0.343h-1.521
			c-0.608,0-1.177,0.114-1.702,0.343c-0.526,0.229-0.989,0.539-1.389,0.932c-0.399,0.394-0.713,0.853-0.941,1.379
			c-0.228,0.526-0.342,1.094-0.342,1.702v0.513c0,0.875,0.184,1.61,0.552,2.206c0.367,0.597,0.855,1.106,1.464,1.531
			s1.296,0.792,2.063,1.103c0.767,0.312,1.556,0.628,2.367,0.951s1.601,0.679,2.368,1.065c0.767,0.387,1.454,0.861,2.063,1.426
			c0.609,0.564,1.097,1.252,1.465,2.063c0.367,0.812,0.552,1.8,0.552,2.967V45.743z"/>
		<path style="fill:#FFFFFF;" d="M136.226,48.348c-0.349,0.812-0.827,1.521-1.436,2.13s-1.318,1.087-2.13,1.436
			s-1.68,0.522-2.605,0.522h-1.939c-0.926,0-1.797-0.174-2.615-0.522c-0.817-0.349-1.53-0.827-2.139-1.436
			c-0.609-0.608-1.088-1.318-1.437-2.13s-0.522-1.68-0.522-2.605V31.1c0-0.926,0.174-1.794,0.522-2.605s0.827-1.521,1.437-2.13
			c0.608-0.608,1.321-1.087,2.139-1.436c0.818-0.349,1.689-0.523,2.615-0.523h1.939c0.926,0,1.794,0.175,2.605,0.523
			s1.521,0.827,2.13,1.436s1.087,1.318,1.436,2.13s0.523,1.68,0.523,2.605v14.643C136.749,46.668,136.574,47.537,136.226,48.348z
			 M134.296,31.1c0-0.608-0.114-1.176-0.343-1.702s-0.539-0.985-0.932-1.379c-0.394-0.393-0.853-0.703-1.379-0.932
			s-1.094-0.343-1.702-0.343h-1.711c-0.608,0-1.177,0.114-1.702,0.343c-0.526,0.229-0.989,0.539-1.389,0.932
			c-0.399,0.394-0.713,0.853-0.941,1.379c-0.228,0.526-0.342,1.094-0.342,1.702v14.643c0,0.608,0.114,1.176,0.342,1.702
			c0.229,0.526,0.542,0.988,0.941,1.388s0.862,0.714,1.389,0.941c0.525,0.229,1.094,0.343,1.702,0.343h1.711
			c0.608,0,1.176-0.114,1.702-0.343c0.526-0.228,0.985-0.542,1.379-0.941c0.393-0.399,0.703-0.861,0.932-1.388
			s0.343-1.094,0.343-1.702V31.1z"/>
		<path style="fill:#FFFFFF;" d="M157.553,45.743c0,0.926-0.188,1.794-0.561,2.605c-0.374,0.812-0.875,1.521-1.503,2.13
			c-0.627,0.608-1.356,1.087-2.187,1.436c-0.831,0.349-1.709,0.522-2.634,0.522h-1.959c-0.926,0-1.804-0.174-2.634-0.522
			s-1.56-0.827-2.187-1.436c-0.628-0.608-1.129-1.318-1.503-2.13s-0.561-1.68-0.561-2.605v-1.084l2.453-0.399v1.483
			c0,0.608,0.124,1.176,0.371,1.702s0.58,0.988,0.998,1.388s0.903,0.714,1.455,0.941c0.551,0.229,1.131,0.343,1.739,0.343h1.712
			c0.608,0,1.186-0.114,1.73-0.343c0.545-0.228,1.027-0.542,1.445-0.941s0.751-0.861,0.998-1.388
			c0.248-0.526,0.371-1.094,0.371-1.702v-0.817c0-0.938-0.184-1.718-0.552-2.34c-0.367-0.62-0.855-1.15-1.464-1.588
			c-0.608-0.437-1.297-0.808-2.063-1.112c-0.767-0.304-1.557-0.608-2.367-0.912c-0.812-0.305-1.601-0.641-2.368-1.009
			c-0.767-0.367-1.454-0.827-2.063-1.378c-0.609-0.552-1.098-1.227-1.465-2.025c-0.368-0.799-0.552-1.781-0.552-2.948V31.1
			c0-0.926,0.175-1.794,0.523-2.605s0.827-1.521,1.436-2.13s1.321-1.087,2.14-1.436c0.817-0.349,1.689-0.523,2.614-0.523h1.75
			c0.925,0,1.794,0.175,2.605,0.523c0.811,0.349,1.521,0.827,2.13,1.436s1.087,1.318,1.436,2.13s0.522,1.68,0.522,2.605v0.703
			l-2.453,0.399V31.1c0-0.608-0.113-1.176-0.342-1.702s-0.539-0.985-0.932-1.379c-0.394-0.393-0.854-0.703-1.379-0.932
			c-0.526-0.229-1.094-0.343-1.702-0.343h-1.521c-0.608,0-1.176,0.114-1.702,0.343c-0.525,0.229-0.988,0.539-1.388,0.932
			c-0.399,0.394-0.713,0.853-0.941,1.379s-0.343,1.094-0.343,1.702v0.513c0,0.875,0.184,1.61,0.552,2.206
			c0.368,0.597,0.855,1.106,1.465,1.531c0.608,0.425,1.296,0.792,2.063,1.103c0.768,0.312,1.557,0.628,2.368,0.951
			c0.811,0.323,1.601,0.679,2.367,1.065s1.455,0.861,2.063,1.426s1.097,1.252,1.464,2.063c0.368,0.812,0.552,1.8,0.552,2.967V45.743
			z"/>
	</g>
</g>
</svg>
