<?xml version="1.0" encoding="utf-8"?>
<!-- Generator: Adobe Illustrator 17.0.0, SVG Export Plug-In . SVG Version: 6.00 Build 0)  -->
<!DOCTYPE svg PUBLIC "-//W3C//DTD SVG 1.1//EN" "http://www.w3.org/Graphics/SVG/1.1/DTD/svg11.dtd">
<svg version="1.1" id="Capa_1" xmlns="http://www.w3.org/2000/svg" xmlns:xlink="http://www.w3.org/1999/xlink" x="0px" y="0px"
	 width="351.694px" height="351.828px" viewBox="0 0 351.694 351.828" style="enable-background:new 0 0 351.694 351.828;"
	 xml:space="preserve">
<g>
	<radialGradient id="SVGID_1_" cx="261.2958" cy="49.6838" r="449.6843" gradientUnits="userSpaceOnUse">
		<stop  offset="0" style="stop-color:#FFFFFF"/>
		<stop  offset="0.18" style="stop-color:#FAFAFA"/>
		<stop  offset="0.3863" style="stop-color:#ECECEC"/>
		<stop  offset="0.6055" style="stop-color:#D5D5D5"/>
		<stop  offset="0.8322" style="stop-color:#B6B6B6"/>
		<stop  offset="1" style="stop-color:#999999"/>
	</radialGradient>
	<path style="fill:url(#SVGID_1_);" d="M351.694,175.931c0,97.107-78.691,175.897-175.799,175.897
		C78.758,351.828,0,273.037,0,175.931C0,78.725,78.758,0,175.895,0C273.003,0,351.694,78.725,351.694,175.931z"/>
	<radialGradient id="SVGID_2_" cx="47.2112" cy="310.3677" r="521.8123" gradientUnits="userSpaceOnUse">
		<stop  offset="0" style="stop-color:#FFFFFF"/>
		<stop  offset="0.2518" style="stop-color:#FCFCFC"/>
		<stop  offset="0.4407" style="stop-color:#F2F2F2"/>
		<stop  offset="0.6091" style="stop-color:#E2E2E2"/>
		<stop  offset="0.7655" style="stop-color:#CBCBCB"/>
		<stop  offset="0.9122" style="stop-color:#AEAEAE"/>
		<stop  offset="1" style="stop-color:#999999"/>
	</radialGradient>
	<path style="fill:url(#SVGID_2_);" d="M2.668,175.931c0,95.586,77.508,173.263,173.227,173.263
		c95.619,0,173.264-77.677,173.264-173.263c0-95.65-77.645-173.227-173.264-173.227C80.176,2.703,2.668,80.28,2.668,175.931z"/>
</g>
<g>
	<path style="fill:#5E5E5E;" d="M126.328,127.307v-20.131l-0.185,1.249l-6.819,18.882h-1.393l-6.882-18.882l-0.164-1.249v20.131
		h-2.642V97.939h1.372l8.909,24.083l0.082,1.086l0.081-1.086l8.889-24.083h1.393v29.367H126.328z"/>
	<path style="fill:#5E5E5E;" d="M146.684,120.467h-9.298l-1.925,6.84h-2.745l8.602-29.367h1.393l8.643,29.367h-2.724
		L146.684,120.467z M138.103,117.947h7.885l-3.871-13.537l-0.082-1.085l-0.082,1.085L138.103,117.947z"/>
	<path style="fill:#5E5E5E;" d="M171.085,111.619c-0.376,0.874-0.891,1.639-1.546,2.294s-1.424,1.171-2.304,1.546
		c-0.881,0.376-1.82,0.563-2.816,0.563h-6.656v11.284h-2.642V97.939h9.298c0.996,0,1.936,0.188,2.816,0.563
		c0.88,0.376,1.648,0.892,2.304,1.547s1.17,1.423,1.546,2.304c0.375,0.881,0.563,1.819,0.563,2.815v3.646
		C171.649,109.811,171.46,110.746,171.085,111.619z M169.007,105.168c0-0.655-0.123-1.266-0.369-1.833
		c-0.246-0.565-0.584-1.064-1.014-1.494c-0.43-0.431-0.929-0.769-1.495-1.014c-0.566-0.246-1.178-0.369-1.833-0.369h-6.533v13.046
		h6.533c0.655,0,1.267-0.123,1.833-0.369s1.065-0.58,1.495-1.003c0.43-0.424,0.768-0.919,1.014-1.485s0.369-1.178,0.369-1.833
		V105.168z"/>
	<path style="fill:#5E5E5E;" d="M187.705,120.467h-9.298l-1.925,6.84h-2.745l8.602-29.367h1.393l8.643,29.367h-2.724
		L187.705,120.467z M179.124,117.947h7.885l-3.871-13.537l-0.082-1.085l-0.082,1.085L179.124,117.947z"/>
	<path style="fill:#5E5E5E;" d="M221.751,122.903c-0.376,0.874-0.891,1.639-1.546,2.294s-1.424,1.171-2.304,1.546
		c-0.881,0.376-1.82,0.563-2.816,0.563h-9.298V97.939h9.298c0.996,0,1.936,0.188,2.816,0.563c0.88,0.376,1.648,0.892,2.304,1.547
		s1.17,1.423,1.546,2.304c0.375,0.881,0.563,1.819,0.563,2.815v14.93C222.315,121.095,222.126,122.03,221.751,122.903z
		 M219.673,105.168c0-0.655-0.123-1.266-0.369-1.833c-0.246-0.565-0.584-1.064-1.014-1.494c-0.43-0.431-0.929-0.769-1.495-1.014
		c-0.566-0.246-1.178-0.369-1.833-0.369h-6.533v24.33h6.533c0.655,0,1.267-0.123,1.833-0.369s1.065-0.58,1.495-1.003
		c0.43-0.424,0.768-0.919,1.014-1.485s0.369-1.178,0.369-1.833V105.168z"/>
	<path style="fill:#5E5E5E;" d="M228.601,127.307V97.939h16.527v2.519h-13.886v10.916h11.244v2.519h-11.244v10.896h13.886v2.519
		H228.601z"/>
</g>
<g>
	<path style="fill:#5E5E5E;" d="M73.967,162.967c-0.56,1.303-1.328,2.442-2.305,3.419c-0.977,0.977-2.122,1.745-3.434,2.305
		c-1.313,0.56-2.712,0.84-4.197,0.84H54.11v16.819h-3.938v-43.774h13.859c1.485,0,2.884,0.28,4.197,0.84
		c1.313,0.56,2.457,1.328,3.434,2.305c0.977,0.977,1.745,2.121,2.305,3.434c0.56,1.313,0.839,2.713,0.839,4.197v5.435
		C74.806,160.271,74.526,161.665,73.967,162.967z M70.868,153.351c0-0.977-0.183-1.887-0.549-2.731s-0.87-1.588-1.511-2.229
		c-0.641-0.641-1.384-1.145-2.229-1.511c-0.845-0.366-1.755-0.55-2.732-0.55H54.11v19.445h9.737c0.977,0,1.888-0.184,2.732-0.55
		c0.844-0.366,1.587-0.864,2.229-1.496c0.641-0.63,1.145-1.368,1.511-2.213c0.366-0.844,0.549-1.755,0.549-2.731V153.351z"/>
	<path style="fill:#5E5E5E;" d="M102.891,186.35l-11.875-18.682h-5.404v18.682h-3.938v-43.774h13.891c1.484,0,2.879,0.28,4.182,0.84
		c1.301,0.56,2.441,1.328,3.418,2.305s1.746,2.121,2.305,3.434c0.561,1.313,0.84,2.713,0.84,4.197v3.541
		c0,1.486-0.279,2.885-0.84,4.198c-0.559,1.313-1.328,2.457-2.305,3.434s-2.117,1.745-3.418,2.305
		c-1.303,0.561-2.697,0.84-4.182,0.84l11.873,18.682H102.891z M102.372,153.351c0-0.977-0.184-1.887-0.549-2.731
		c-0.367-0.845-0.865-1.588-1.496-2.229s-1.369-1.145-2.213-1.511c-0.846-0.366-1.756-0.55-2.732-0.55h-9.77v17.583h9.77
		c0.977,0,1.887-0.184,2.732-0.55c0.844-0.366,1.582-0.87,2.213-1.511s1.129-1.384,1.496-2.229c0.365-0.844,0.549-1.755,0.549-2.732
		V153.351z"/>
	<path style="fill:#5E5E5E;" d="M138.102,180.398c-0.56,1.302-1.328,2.441-2.305,3.419c-0.977,0.977-2.117,1.745-3.419,2.305
		c-1.303,0.559-2.696,0.839-4.182,0.839h-3.114c-1.485,0-2.885-0.28-4.197-0.839c-1.313-0.56-2.457-1.328-3.434-2.305
		c-0.978-0.978-1.746-2.117-2.305-3.419c-0.561-1.303-0.84-2.696-0.84-4.183V152.71c0-1.485,0.279-2.88,0.84-4.182
		c0.559-1.303,1.327-2.442,2.305-3.419c0.977-0.978,2.121-1.745,3.434-2.305s2.712-0.84,4.197-0.84h3.114
		c1.485,0,2.879,0.28,4.182,0.84c1.302,0.56,2.442,1.327,3.419,2.305c0.977,0.977,1.745,2.116,2.305,3.419
		c0.56,1.302,0.84,2.696,0.84,4.182v23.505C138.942,177.701,138.662,179.095,138.102,180.398z M135.003,152.71
		c0-0.977-0.183-1.888-0.549-2.732c-0.366-0.844-0.865-1.582-1.496-2.213s-1.369-1.129-2.213-1.496
		c-0.845-0.366-1.756-0.549-2.732-0.549h-2.747c-0.977,0-1.888,0.183-2.732,0.549c-0.845,0.367-1.587,0.865-2.229,1.496
		c-0.641,0.631-1.145,1.369-1.511,2.213c-0.366,0.845-0.55,1.756-0.55,2.732v23.505c0,0.977,0.184,1.888,0.55,2.732
		s0.87,1.587,1.511,2.229c0.642,0.641,1.384,1.145,2.229,1.511s1.756,0.55,2.732,0.55h2.747c0.977,0,1.888-0.184,2.732-0.55
		c0.844-0.366,1.582-0.87,2.213-1.511c0.631-0.642,1.13-1.384,1.496-2.229s0.549-1.756,0.549-2.732V152.71z"/>
	<path style="fill:#5E5E5E;" d="M171.498,180.398c-0.56,1.302-1.328,2.441-2.305,3.419c-0.977,0.977-2.117,1.745-3.419,2.305
		c-1.303,0.559-2.696,0.839-4.182,0.839h-3.114c-1.485,0-2.885-0.28-4.197-0.839c-1.313-0.56-2.457-1.328-3.434-2.305
		c-0.978-0.978-1.746-2.117-2.305-3.419c-0.561-1.303-0.84-2.696-0.84-4.183V152.71c0-1.485,0.279-2.88,0.84-4.182
		c0.559-1.303,1.327-2.442,2.305-3.419c0.977-0.978,2.121-1.745,3.434-2.305s2.712-0.84,4.197-0.84h3.114
		c1.485,0,2.879,0.28,4.182,0.84c1.302,0.56,2.442,1.327,3.419,2.305c0.977,0.977,1.745,2.116,2.305,3.419
		c0.56,1.302,0.84,2.696,0.84,4.182v1.771l-3.938,0.61v-2.381c0-0.977-0.183-1.888-0.549-2.732
		c-0.366-0.844-0.865-1.582-1.496-2.213s-1.369-1.129-2.213-1.496c-0.845-0.366-1.756-0.549-2.732-0.549h-2.747
		c-0.977,0-1.888,0.183-2.732,0.549c-0.845,0.367-1.587,0.865-2.229,1.496c-0.641,0.631-1.145,1.369-1.511,2.213
		c-0.366,0.845-0.55,1.756-0.55,2.732v23.505c0,0.977,0.184,1.888,0.55,2.732s0.87,1.587,1.511,2.229
		c0.642,0.641,1.384,1.145,2.229,1.511s1.756,0.55,2.732,0.55h2.747c0.977,0,1.888-0.184,2.732-0.55
		c0.844-0.366,1.582-0.87,2.213-1.511c0.631-0.642,1.13-1.384,1.496-2.229s0.549-1.756,0.549-2.732v-2.381l3.938,0.641v1.74
		C172.337,177.701,172.057,179.095,171.498,180.398z"/>
	<path style="fill:#5E5E5E;" d="M181.097,186.35v-43.774h24.635v3.755h-20.696v16.271h16.759v3.755h-16.759v16.239h20.696v3.755
		H181.097z"/>
	<path style="fill:#5E5E5E;" d="M237.235,176.215c0,1.486-0.301,2.88-0.9,4.183c-0.601,1.302-1.404,2.441-2.412,3.419
		c-1.007,0.977-2.178,1.745-3.511,2.305c-1.333,0.559-2.742,0.839-4.228,0.839h-3.145c-1.485,0-2.895-0.28-4.228-0.839
		c-1.333-0.56-2.503-1.328-3.511-2.305c-1.007-0.978-1.812-2.117-2.411-3.419c-0.601-1.303-0.9-2.696-0.9-4.183v-1.74l3.938-0.641
		v2.381c0,0.977,0.198,1.888,0.596,2.732c0.396,0.845,0.931,1.587,1.603,2.229c0.671,0.641,1.45,1.145,2.335,1.511
		c0.886,0.366,1.816,0.55,2.793,0.55H226c0.978,0,1.903-0.184,2.778-0.55s1.648-0.87,2.32-1.511
		c0.671-0.642,1.205-1.384,1.603-2.229c0.396-0.845,0.595-1.756,0.595-2.732v-1.313c0-1.506-0.295-2.757-0.885-3.755
		c-0.591-0.997-1.374-1.847-2.351-2.549s-2.081-1.297-3.313-1.785c-1.231-0.489-2.498-0.978-3.8-1.466
		c-1.303-0.488-2.569-1.027-3.801-1.618c-1.231-0.59-2.335-1.327-3.313-2.213c-0.977-0.885-1.76-1.969-2.351-3.251
		c-0.59-1.282-0.885-2.858-0.885-4.731v-0.824c0-1.485,0.279-2.88,0.84-4.182c0.559-1.303,1.327-2.442,2.305-3.419
		c0.977-0.978,2.121-1.745,3.434-2.305s2.712-0.84,4.197-0.84h2.809c1.485,0,2.88,0.28,4.182,0.84
		c1.303,0.56,2.442,1.327,3.419,2.305c0.978,0.977,1.745,2.116,2.305,3.419c0.56,1.302,0.84,2.696,0.84,4.182v1.13l-3.938,0.641
		v-1.771c0-0.977-0.184-1.888-0.55-2.732c-0.366-0.844-0.865-1.582-1.496-2.213s-1.368-1.129-2.213-1.496
		c-0.845-0.366-1.755-0.549-2.732-0.549h-2.441c-0.977,0-1.888,0.183-2.732,0.549c-0.845,0.367-1.587,0.865-2.229,1.496
		c-0.641,0.631-1.145,1.369-1.511,2.213c-0.366,0.845-0.55,1.756-0.55,2.732v0.824c0,1.404,0.295,2.585,0.886,3.541
		c0.59,0.957,1.373,1.775,2.351,2.457c0.977,0.683,2.08,1.272,3.312,1.771c1.231,0.499,2.498,1.008,3.801,1.526
		c1.302,0.52,2.569,1.089,3.801,1.71c1.23,0.621,2.335,1.384,3.312,2.289c0.978,0.906,1.76,2.01,2.351,3.313
		c0.59,1.303,0.886,2.89,0.886,4.762V176.215z"/>
	<path style="fill:#5E5E5E;" d="M268.844,180.398c-0.56,1.302-1.328,2.441-2.305,3.419c-0.977,0.977-2.117,1.745-3.419,2.305
		c-1.303,0.559-2.696,0.839-4.182,0.839h-3.114c-1.485,0-2.885-0.28-4.197-0.839c-1.313-0.56-2.457-1.328-3.434-2.305
		c-0.978-0.978-1.746-2.117-2.305-3.419c-0.561-1.303-0.84-2.696-0.84-4.183V152.71c0-1.485,0.279-2.88,0.84-4.182
		c0.559-1.303,1.327-2.442,2.305-3.419c0.977-0.978,2.121-1.745,3.434-2.305s2.712-0.84,4.197-0.84h3.114
		c1.485,0,2.879,0.28,4.182,0.84c1.302,0.56,2.442,1.327,3.419,2.305c0.977,0.977,1.745,2.116,2.305,3.419
		c0.56,1.302,0.84,2.696,0.84,4.182v23.505C269.684,177.701,269.404,179.095,268.844,180.398z M265.746,152.71
		c0-0.977-0.183-1.888-0.549-2.732c-0.366-0.844-0.865-1.582-1.496-2.213s-1.369-1.129-2.213-1.496
		c-0.845-0.366-1.756-0.549-2.732-0.549h-2.747c-0.977,0-1.888,0.183-2.732,0.549c-0.845,0.367-1.587,0.865-2.229,1.496
		c-0.641,0.631-1.145,1.369-1.511,2.213c-0.366,0.845-0.55,1.756-0.55,2.732v23.505c0,0.977,0.184,1.888,0.55,2.732
		s0.87,1.587,1.511,2.229c0.642,0.641,1.384,1.145,2.229,1.511s1.756,0.55,2.732,0.55h2.747c0.977,0,1.888-0.184,2.732-0.55
		c0.844-0.366,1.582-0.87,2.213-1.511c0.631-0.642,1.13-1.384,1.496-2.229s0.549-1.756,0.549-2.732V152.71z"/>
	<path style="fill:#5E5E5E;" d="M303.08,176.215c0,1.486-0.301,2.88-0.9,4.183c-0.601,1.302-1.404,2.441-2.412,3.419
		c-1.007,0.977-2.178,1.745-3.511,2.305c-1.333,0.559-2.742,0.839-4.228,0.839h-3.145c-1.485,0-2.895-0.28-4.228-0.839
		c-1.333-0.56-2.503-1.328-3.511-2.305c-1.007-0.978-1.812-2.117-2.411-3.419c-0.601-1.303-0.9-2.696-0.9-4.183v-1.74l3.938-0.641
		v2.381c0,0.977,0.198,1.888,0.596,2.732c0.396,0.845,0.931,1.587,1.603,2.229c0.671,0.641,1.45,1.145,2.335,1.511
		c0.886,0.366,1.816,0.55,2.793,0.55h2.747c0.978,0,1.903-0.184,2.778-0.55s1.648-0.87,2.32-1.511
		c0.671-0.642,1.205-1.384,1.603-2.229c0.396-0.845,0.595-1.756,0.595-2.732v-1.313c0-1.506-0.295-2.757-0.885-3.755
		c-0.591-0.997-1.374-1.847-2.351-2.549s-2.081-1.297-3.313-1.785c-1.231-0.489-2.498-0.978-3.8-1.466
		c-1.303-0.488-2.569-1.027-3.801-1.618c-1.231-0.59-2.335-1.327-3.313-2.213c-0.977-0.885-1.76-1.969-2.351-3.251
		c-0.59-1.282-0.885-2.858-0.885-4.731v-0.824c0-1.485,0.279-2.88,0.84-4.182c0.559-1.303,1.327-2.442,2.305-3.419
		c0.977-0.978,2.121-1.745,3.434-2.305s2.712-0.84,4.197-0.84h2.809c1.485,0,2.88,0.28,4.182,0.84
		c1.303,0.56,2.442,1.327,3.419,2.305c0.978,0.977,1.745,2.116,2.305,3.419c0.56,1.302,0.84,2.696,0.84,4.182v1.13l-3.938,0.641
		v-1.771c0-0.977-0.184-1.888-0.55-2.732c-0.366-0.844-0.865-1.582-1.496-2.213s-1.368-1.129-2.213-1.496
		c-0.845-0.366-1.755-0.549-2.732-0.549h-2.441c-0.977,0-1.888,0.183-2.732,0.549c-0.845,0.367-1.587,0.865-2.229,1.496
		c-0.641,0.631-1.145,1.369-1.511,2.213c-0.366,0.845-0.55,1.756-0.55,2.732v0.824c0,1.404,0.295,2.585,0.886,3.541
		c0.59,0.957,1.373,1.775,2.351,2.457c0.977,0.683,2.08,1.272,3.312,1.771c1.231,0.499,2.498,1.008,3.801,1.526
		c1.302,0.52,2.569,1.089,3.801,1.71c1.23,0.621,2.335,1.384,3.312,2.289c0.978,0.906,1.76,2.01,2.351,3.313
		c0.59,1.303,0.886,2.89,0.886,4.762V176.215z"/>
</g>
<radialGradient id="SVGID_3_" cx="177.3032" cy="199.8262" r="50.1172" gradientUnits="userSpaceOnUse">
	<stop  offset="0" style="stop-color:#FFFFFF"/>
	<stop  offset="0.18" style="stop-color:#FAFAFA"/>
	<stop  offset="0.3863" style="stop-color:#ECECEC"/>
	<stop  offset="0.6055" style="stop-color:#D5D5D5"/>
	<stop  offset="0.8322" style="stop-color:#B6B6B6"/>
	<stop  offset="1" style="stop-color:#999999"/>
</radialGradient>
<rect x="106.43" y="199.177" style="fill:url(#SVGID_3_);" width="141.747" height="1.299"/>
<rect x="104.974" y="197.896" style="fill:#3D3D3D;" width="141.747" height="1.299"/>
</svg>
